<?xml version="1.0" encoding="utf-8" ?>
<svg baseProfile="full" height="100%" style="font-size:14;font-family:Sans, Arial;stroke-width:1;fill:none" version="1.1" width="100%" xmlns="http://www.w3.org/2000/svg" xmlns:ev="http://www.w3.org/2001/xml-events" xmlns:xlink="http://www.w3.org/1999/xlink"><defs /><rect fill="none" height="150.0" stroke="none" width="1677.12845" x="0" y="0" /><line stroke="rgb(0,0,0)" x1="5.0" x2="63.5715" y1="75.0" y2="75.0" /><line stroke="rgb(0,0,0)" x1="63.5715" x2="73.5715" y1="75.0" y2="75.0" /><line stroke="rgb(0,0,0)" x1="73.5715" x2="78.5715" y1="75.0" y2="75.0" /><line stroke="rgb(0,0,0)" x1="78.5715" x2="97.48815" y1="75.0" y2="75.0" /><line stroke="rgb(0,0,0)" x1="97.48815" x2="107.48815" y1="75.0" y2="75.0" /><line stroke="rgb(0,0,0)" x1="107.48815" x2="112.48815" y1="75.0" y2="75.0" /><line stroke="rgb(0,0,0)" x1="112.48815" x2="129.30065000000002" y1="75.0" y2="75.0" /><line stroke="rgb(0,0,0)" x1="129.30065000000002" x2="139.30065000000002" y1="75.0" y2="75.0" /><line stroke="rgb(0,0,0)" x1="139.30065000000002" x2="144.30065000000002" y1="75.0" y2="75.0" /><line stroke="rgb(0,0,0)" x1="144.30065000000002" x2="173.59785000000002" y1="75.0" y2="75.0" /><line stroke="rgb(0,0,0)" x1="173.59785000000002" x2="183.59785000000002" y1="75.0" y2="75.0" /><line stroke="rgb(0,0,0)" x1="183.59785000000002" x2="188.59785000000002" y1="75.0" y2="75.0" /><line stroke="rgb(0,0,0)" x1="188.59785000000002" x2="213.32005000000004" y1="75.0" y2="75.0" /><line stroke="rgb(0,0,0)" x1="213.32005000000004" x2="223.32005000000004" y1="75.0" y2="75.0" /><line stroke="rgb(0,0,0)" x1="223.32005000000004" x2="228.32005000000004" y1="75.0" y2="75.0" /><line stroke="rgb(0,0,0)" x1="228.32005000000004" x2="241.16490000000002" y1="75.0" y2="75.0" /><line stroke="rgb(0,0,0)" x1="241.16490000000002" x2="251.1649" y1="75.0" y2="75.0" /><line stroke="rgb(0,0,0)" x1="251.1649" x2="256.1649" y1="75.0" y2="75.0" /><line stroke="rgb(0,0,0)" x1="256.1649" x2="266.39215" y1="75.0" y2="75.0" /><line stroke="rgb(0,0,0)" x1="266.39215" x2="276.39215" y1="75.0" y2="75.0" /><line stroke="rgb(0,0,0)" x1="276.39215" x2="281.39215" y1="75.0" y2="75.0" /><line stroke="rgb(0,0,0)" x1="281.39215" x2="352.47365" y1="75.0" y2="75.0" /><line stroke="rgb(0,0,0)" x1="352.47365" x2="362.47365" y1="75.0" y2="75.0" /><line stroke="rgb(0,0,0)" x1="362.47365" x2="367.47365" y1="75.0" y2="75.0" /><line stroke="rgb(0,0,0)" x1="367.47365" x2="395.60375" y1="75.0" y2="75.0" /><line stroke="rgb(0,0,0)" x1="395.60375" x2="405.60375" y1="75.0" y2="75.0" /><line stroke="rgb(0,0,0)" x1="405.60375" x2="410.60375" y1="75.0" y2="75.0" /><line stroke="rgb(0,0,0)" x1="410.60375" x2="440.72769999999997" y1="75.0" y2="75.0" /><line stroke="rgb(0,0,0)" x1="440.72769999999997" x2="450.72769999999997" y1="75.0" y2="75.0" /><line stroke="rgb(0,0,0)" x1="450.72769999999997" x2="455.72769999999997" y1="75.0" y2="75.0" /><line stroke="rgb(0,0,0)" x1="455.72769999999997" x2="525.3202" y1="75.0" y2="75.0" /><line stroke="rgb(0,0,0)" x1="525.3202" x2="535.3202" y1="75.0" y2="75.0" /><line stroke="rgb(0,0,0)" x1="535.3202" x2="540.3202" y1="75.0" y2="75.0" /><line stroke="rgb(0,0,0)" x1="540.3202" x2="569.9355999999999" y1="75.0" y2="75.0" /><line stroke="rgb(0,0,0)" x1="569.9355999999999" x2="579.9355999999999" y1="75.0" y2="75.0" /><line stroke="rgb(0,0,0)" x1="579.9355999999999" x2="584.9355999999999" y1="75.0" y2="75.0" /><line stroke="rgb(0,0,0)" x1="584.9355999999999" x2="613.6295" y1="75.0" y2="75.0" /><line stroke="rgb(0,0,0)" x1="613.6295" x2="623.6295" y1="75.0" y2="75.0" /><line stroke="rgb(0,0,0)" x1="623.6295" x2="628.6295" y1="75.0" y2="75.0" /><line stroke="rgb(0,0,0)" x1="628.6295" x2="694.891" y1="75.0" y2="75.0" /><line stroke="rgb(0,0,0)" x1="694.891" x2="704.891" y1="75.0" y2="75.0" /><line stroke="rgb(0,0,0)" x1="704.891" x2="709.891" y1="75.0" y2="75.0" /><line stroke="rgb(0,0,0)" x1="709.891" x2="738.23775" y1="75.0" y2="75.0" /><line stroke="rgb(0,0,0)" x1="738.23775" x2="748.23775" y1="75.0" y2="75.0" /><line stroke="rgb(0,0,0)" x1="748.23775" x2="753.23775" y1="75.0" y2="75.0" /><line stroke="rgb(0,0,0)" x1="753.23775" x2="780.4222" y1="75.0" y2="75.0" /><line stroke="rgb(0,0,0)" x1="780.4222" x2="790.4222" y1="75.0" y2="75.0" /><line stroke="rgb(0,0,0)" x1="790.4222" x2="795.4222" y1="75.0" y2="75.0" /><line stroke="rgb(0,0,0)" x1="795.4222" x2="869.8757" y1="75.0" y2="75.0" /><line stroke="rgb(0,0,0)" x1="869.8757" x2="879.8757" y1="75.0" y2="75.0" /><line stroke="rgb(0,0,0)" x1="879.8757" x2="884.8757" y1="75.0" y2="75.0" /><line stroke="rgb(0,0,0)" x1="884.8757" x2="916.8636500000001" y1="75.0" y2="75.0" /><line stroke="rgb(0,0,0)" x1="916.8636500000001" x2="926.8636500000001" y1="75.0" y2="75.0" /><line stroke="rgb(0,0,0)" x1="926.8636500000001" x2="931.8636500000001" y1="75.0" y2="75.0" /><line stroke="rgb(0,0,0)" x1="931.8636500000001" x2="963.8926500000001" y1="75.0" y2="75.0" /><line stroke="rgb(0,0,0)" x1="963.8926500000001" x2="973.8926500000001" y1="75.0" y2="75.0" /><line stroke="rgb(0,0,0)" x1="973.8926500000001" x2="978.8926500000001" y1="75.0" y2="75.0" /><line stroke="rgb(0,0,0)" x1="978.8926500000001" x2="1048.11715" y1="75.0" y2="75.0" /><line stroke="rgb(0,0,0)" x1="1048.11715" x2="1058.11715" y1="75.0" y2="75.0" /><line stroke="rgb(0,0,0)" x1="1058.11715" x2="1063.11715" y1="75.0" y2="75.0" /><line stroke="rgb(0,0,0)" x1="1063.11715" x2="1087.2952500000001" y1="75.0" y2="75.0" /><line stroke="rgb(0,0,0)" x1="1087.2952500000001" x2="1097.2952500000001" y1="75.0" y2="75.0" /><line stroke="rgb(0,0,0)" x1="1097.2952500000001" x2="1102.2952500000001" y1="75.0" y2="75.0" /><line stroke="rgb(0,0,0)" x1="1102.2952500000001" x2="1128.4952500000002" y1="75.0" y2="75.0" /><line stroke="rgb(0,0,0)" x1="1128.4952500000002" x2="1138.4952500000002" y1="75.0" y2="75.0" /><line stroke="rgb(0,0,0)" x1="1138.4952500000002" x2="1143.4952500000002" y1="75.0" y2="75.0" /><line stroke="rgb(0,0,0)" x1="1143.4952500000002" x2="1165.9952500000002" y1="75.0" y2="75.0" /><line stroke="rgb(0,0,0)" x1="1165.9952500000002" x2="1175.9952500000002" y1="75.0" y2="75.0" /><line stroke="rgb(0,0,0)" x1="1175.9952500000002" x2="1180.9952500000002" y1="75.0" y2="75.0" /><line stroke="rgb(0,0,0)" x1="1180.9952500000002" x2="1207.5990000000002" y1="75.0" y2="75.0" /><line stroke="rgb(0,0,0)" x1="1207.5990000000002" x2="1217.5990000000002" y1="75.0" y2="75.0" /><line stroke="rgb(0,0,0)" x1="1217.5990000000002" x2="1222.5990000000002" y1="75.0" y2="75.0" /><line stroke="rgb(0,0,0)" x1="1222.5990000000002" x2="1295.121" y1="75.0" y2="75.0" /><line stroke="rgb(0,0,0)" x1="1295.121" x2="1305.121" y1="75.0" y2="75.0" /><line stroke="rgb(0,0,0)" x1="1305.121" x2="1310.121" y1="75.0" y2="75.0" /><line stroke="rgb(0,0,0)" x1="1310.121" x2="1336.19245" y1="75.0" y2="75.0" /><line stroke="rgb(0,0,0)" x1="1336.19245" x2="1346.19245" y1="75.0" y2="75.0" /><line stroke="rgb(0,0,0)" x1="1346.19245" x2="1351.19245" y1="75.0" y2="75.0" /><line stroke="rgb(0,0,0)" x1="1351.19245" x2="1376.7433" y1="75.0" y2="75.0" /><line stroke="rgb(0,0,0)" x1="1376.7433" x2="1386.7433" y1="75.0" y2="75.0" /><line stroke="rgb(0,0,0)" x1="1386.7433" x2="1391.7433" y1="75.0" y2="75.0" /><line stroke="rgb(0,0,0)" x1="1391.7433" x2="1418.3587" y1="75.0" y2="75.0" /><line stroke="rgb(0,0,0)" x1="1418.3587" x2="1428.3587" y1="75.0" y2="75.0" /><line stroke="rgb(0,0,0)" x1="1428.3587" x2="1433.3587" y1="75.0" y2="75.0" /><line stroke="rgb(0,0,0)" x1="1433.3587" x2="1488.3372499999998" y1="75.0" y2="75.0" /><line stroke="rgb(0,0,0)" x1="1488.3372499999998" x2="1498.3372499999998" y1="75.0" y2="75.0" /><line stroke="rgb(0,0,0)" x1="1498.3372499999998" x2="1503.3372499999998" y1="75.0" y2="75.0" /><line stroke="rgb(0,0,0)" x1="1503.3372499999998" x2="1528.85225" y1="75.0" y2="75.0" /><line stroke="rgb(0,0,0)" x1="1528.85225" x2="1538.85225" y1="75.0" y2="75.0" /><line stroke="rgb(0,0,0)" x1="1538.85225" x2="1543.85225" y1="75.0" y2="75.0" /><line stroke="rgb(0,0,0)" x1="1543.85225" x2="1580.73795" y1="75.0" y2="75.0" /><line stroke="rgb(0,0,0)" x1="1580.73795" x2="1590.73795" y1="75.0" y2="75.0" /><line stroke="rgb(0,0,0)" x1="1590.73795" x2="1595.73795" y1="75.0" y2="75.0" /><rect fill="rgb(255,12,16)" height="28.000000000000004" stroke="rgb(0,0,0)" width="53.5715" x="5.0" y="61.0" /><text fill="black" x="5.0" y="109.0">H11</text><rect fill="rgb(255,145,185)" height="24.0" stroke="rgb(0,0,0)" width="13.916649999999999" x="78.5715" y="63.0" /><text fill="black" x="78.5715" y="107.0">E13</text><rect fill="rgb(255,126,160)" height="32.0" stroke="rgb(0,0,0)" width="11.8125" x="112.48815" y="59.0" /><text fill="black" x="112.48815" y="111.0">E15</text><rect fill="rgb(243,191,255)" height="99.6" stroke="rgb(0,0,0)" width="24.2972" x="144.30065000000002" y="25.200000000000003" /><text fill="black" x="144.30065000000002" y="144.8">E32</text><rect fill="rgb(255,91,117)" height="21.6" stroke="rgb(0,0,0)" width="19.7222" x="188.59785000000002" y="64.2" /><text fill="black" x="188.59785000000002" y="105.8">H33</text><rect fill="rgb(255,61,78)" height="23.200000000000003" stroke="rgb(0,0,0)" width="7.84485" x="228.32005000000004" y="63.4" /><text fill="black" x="228.32005000000004" y="106.6">E45</text><rect fill="rgb(15,11,255)" height="8.799999999999999" stroke="rgb(0,0,0)" width="5.22725" x="256.1649" y="70.6" /><text fill="black" x="256.1649" y="99.4">E46</text><rect fill="rgb(255,178,227)" height="98.0" stroke="rgb(0,0,0)" width="66.0815" x="281.39215" y="26.0" /><text fill="black" x="281.39215" y="144.0">H50</text><rect fill="rgb(234,184,255)" height="98.4" stroke="rgb(0,0,0)" width="23.1301" x="367.47365" y="25.799999999999997" /><text fill="black" x="367.47365" y="144.2">E56</text><rect fill="rgb(255,104,132)" height="48.4" stroke="rgb(0,0,0)" width="25.12395" x="410.60375" y="50.8" /><text fill="black" x="410.60375" y="119.2">H62</text><rect fill="rgb(255,135,172)" height="93.2" stroke="rgb(0,0,0)" width="64.5925" x="455.72769999999997" y="28.4" /><text fill="black" x="455.72769999999997" y="141.6">H68</text><rect fill="rgb(255,111,141)" height="26.0" stroke="rgb(0,0,0)" width="24.615399999999998" x="540.3202" y="62.0" /><text fill="black" x="540.3202" y="108.0">H75</text><rect fill="rgb(178,139,255)" height="98.0" stroke="rgb(0,0,0)" width="23.6939" x="584.9355999999999" y="26.0" /><text fill="black" x="584.9355999999999" y="144.0">E87</text><rect fill="rgb(255,167,213)" height="88.8" stroke="rgb(0,0,0)" width="61.2615" x="628.6295" y="30.6" /><text fill="black" x="628.6295" y="139.4">H99</text><rect fill="rgb(177,139,255)" height="99.2" stroke="rgb(0,0,0)" width="23.34675" x="709.891" y="25.4" /><text fill="black" x="709.891" y="144.6">E102</text><rect fill="rgb(255,190,242)" height="41.199999999999996" stroke="rgb(0,0,0)" width="22.18445" x="753.23775" y="54.400000000000006" /><text fill="black" x="753.23775" y="115.6">H117</text><rect fill="rgb(255,163,208)" height="98.8" stroke="rgb(0,0,0)" width="69.4535" x="795.4222" y="25.6" /><text fill="black" x="795.4222" y="144.4">H119</text><rect fill="rgb(225,176,255)" height="99.6" stroke="rgb(0,0,0)" width="26.98795" x="884.8757" y="25.200000000000003" /><text fill="black" x="884.8757" y="144.8">E123</text><rect fill="rgb(255,92,118)" height="27.6" stroke="rgb(0,0,0)" width="27.029" x="931.8636500000001" y="61.2" /><text fill="black" x="931.8636500000001" y="108.8">H132</text><rect fill="rgb(255,157,200)" height="98.0" stroke="rgb(0,0,0)" width="64.2245" x="978.8926500000001" y="26.0" /><text fill="black" x="978.8926500000001" y="144.0">H136</text><rect fill="rgb(191,149,255)" height="29.2" stroke="rgb(0,0,0)" width="19.1781" x="1063.11715" y="60.4" /><text fill="black" x="1063.11715" y="109.6">H139</text><rect fill="rgb(156,122,255)" height="100.0" stroke="rgb(0,0,0)" width="21.200000000000003" x="1102.2952500000001" y="25.0" /><text fill="black" x="1102.2952500000001" y="145.0">E142</text><rect fill="rgb(255,122,155)" height="25.6" stroke="rgb(0,0,0)" width="17.5" x="1143.4952500000002" y="62.2" /><text fill="black" x="1143.4952500000002" y="107.8">H147</text><rect fill="rgb(255,144,184)" height="21.2" stroke="rgb(0,0,0)" width="21.60375" x="1180.9952500000002" y="64.4" /><text fill="black" x="1180.9952500000002" y="105.6">H149</text><rect fill="rgb(255,168,214)" height="91.2" stroke="rgb(0,0,0)" width="67.522" x="1222.5990000000002" y="29.4" /><text fill="black" x="1222.5990000000002" y="140.6">H160</text><rect fill="rgb(214,168,255)" height="28.000000000000004" stroke="rgb(0,0,0)" width="21.07145" x="1310.121" y="61.0" /><text fill="black" x="1310.121" y="109.0">H163</text><rect fill="rgb(131,103,255)" height="94.39999999999999" stroke="rgb(0,0,0)" width="20.55085" x="1351.19245" y="27.800000000000004" /><text fill="black" x="1351.19245" y="142.2">E165</text><rect fill="rgb(255,116,148)" height="26.0" stroke="rgb(0,0,0)" width="21.6154" x="1391.7433" y="62.0" /><text fill="black" x="1391.7433" y="108.0">H167</text><rect fill="rgb(255,193,246)" height="93.2" stroke="rgb(0,0,0)" width="49.978550000000006" x="1433.3587" y="28.4" /><text fill="black" x="1433.3587" y="141.6">H174</text><rect fill="rgb(124,97,255)" height="93.2" stroke="rgb(0,0,0)" width="20.515" x="1503.3372499999998" y="28.4" /><text fill="black" x="1503.3372499999998" y="141.6">E179</text><rect fill="rgb(185,145,255)" height="70.0" stroke="rgb(0,0,0)" width="31.8857" x="1543.85225" y="40.0" /><text fill="black" x="1543.85225" y="130.0">H180</text><rect fill="rgb(255,72,92)" height="74.8" stroke="rgb(0,0,0)" width="76.3905" x="1595.73795" y="37.6" /><text fill="black" x="1595.73795" y="132.4">H204</text><path d="M 118.3944,75.0 a 29.962392916920983,29.962392916920983 0 0,0 -32.864575,-0.0" stroke="rgb(255,145,185)" stroke-width="2" /><path d="M 118.3944,75.0 a 29.962392916920983,29.962392916920983 0 0,0 -32.864575,-0.0" stroke="rgb(0,0,0)" stroke-width="0.2" /><path d="M 156.44925,75.0 a 140.10468920750566,140.10468920750566 0 0,0 222.58945,-0.0" stroke="rgb(243,191,255)" stroke-width="2" /><path d="M 156.44925,75.0 a 140.10468920750566,140.10468920750566 0 0,0 222.58945,-0.0" stroke="rgb(0,0,0)" stroke-width="0.2" /><path d="M 156.44925,75.0 a 4213.508882205111,4213.508882205111 0 0,0 1357.1454999999996,-0.0" stroke="rgb(243,191,255)" stroke-width="2" /><path d="M 156.44925,75.0 a 4213.508882205111,4213.508882205111 0 0,0 1357.1454999999996,-0.0" stroke="rgb(0,0,0)" stroke-width="0.2" /><path d="M 258.778525,75.0 a 23.845697847227424,23.845697847227424 0 0,0 -26.53604999999996,-0.0" stroke="rgb(255,61,78)" stroke-width="2" /><path d="M 258.778525,75.0 a 23.845697847227424,23.845697847227424 0 0,0 -26.53604999999996,-0.0" stroke="rgb(0,0,0)" stroke-width="0.2" /><path d="M 379.0387,75.0 a 135.2554186655056,135.2554186655056 0 0,0 217.7438499999999,-0.0" stroke="rgb(234,184,255)" stroke-width="2" /><path d="M 379.0387,75.0 a 135.2554186655056,135.2554186655056 0 0,0 217.7438499999999,-0.0" stroke="rgb(0,0,0)" stroke-width="0.2" /><path d="M 596.7825499999999,75.0 a 62.88750875075144,62.88750875075144 0 0,0 124.78182500000003,-0.0" stroke="rgb(178,139,255)" stroke-width="2" /><path d="M 596.7825499999999,75.0 a 62.88750875075144,62.88750875075144 0 0,0 124.78182500000003,-0.0" stroke="rgb(0,0,0)" stroke-width="0.2" /><path d="M 721.5643749999999,75.0 a 98.54571388202281,98.54571388202281 0 0,0 176.8053000000001,-0.0" stroke="rgb(177,139,255)" stroke-width="2" /><path d="M 721.5643749999999,75.0 a 98.54571388202281,98.54571388202281 0 0,0 176.8053000000001,-0.0" stroke="rgb(0,0,0)" stroke-width="0.2" /><path d="M 898.369675,75.0 a 132.0936871115469,132.0936871115469 0 0,0 214.525575,-0.0" stroke="rgb(225,176,255)" stroke-width="2" /><path d="M 898.369675,75.0 a 132.0936871115469,132.0936871115469 0 0,0 214.525575,-0.0" stroke="rgb(0,0,0)" stroke-width="0.2" /><path d="M 1112.89525,75.0 a 167.92806795316054,167.92806795316054 0 0,0 248.57262500000002,-0.0" stroke="rgb(156,122,255)" stroke-width="2" /><path d="M 1112.89525,75.0 a 167.92806795316054,167.92806795316054 0 0,0 248.57262500000002,-0.0" stroke="rgb(0,0,0)" stroke-width="0.2" /><path d="M 1361.467875,75.0 a 80.0967865846944,80.0967865846944 0 0,0 152.1268749999997,-0.0" stroke="rgb(131,103,255)" stroke-width="2" /><path d="M 1361.467875,75.0 a 80.0967865846944,80.0967865846944 0 0,0 152.1268749999997,-0.0" stroke="rgb(0,0,0)" stroke-width="0.2" /></svg>