<?xml version="1.0" encoding="utf-8" ?>
<svg baseProfile="full" height="100%" style="font-size:14;font-family:Sans, Arial;stroke-width:1;fill:none" version="1.1" width="100%" xmlns="http://www.w3.org/2000/svg" xmlns:ev="http://www.w3.org/2001/xml-events" xmlns:xlink="http://www.w3.org/1999/xlink"><defs /><rect fill="none" height="130.0" stroke="none" width="2875.0" x="0" y="0" /><line stroke="rgb(0,0,0)" x1="5.0" x2="105.0" y1="55.0" y2="55.0" /><line stroke="rgb(0,0,0)" x1="105.0" x2="125.0" y1="55.0" y2="55.0" /><line stroke="rgb(0,0,0)" x1="125.0" x2="130.0" y1="55.0" y2="55.0" /><line stroke="rgb(0,0,0)" x1="130.0" x2="155.0" y1="55.0" y2="55.0" /><line stroke="rgb(0,0,0)" x1="155.0" x2="175.0" y1="55.0" y2="55.0" /><line stroke="rgb(0,0,0)" x1="175.0" x2="180.0" y1="55.0" y2="55.0" /><line stroke="rgb(0,0,0)" x1="180.0" x2="200.0" y1="55.0" y2="55.0" /><line stroke="rgb(0,0,0)" x1="200.0" x2="220.0" y1="55.0" y2="55.0" /><line stroke="rgb(0,0,0)" x1="220.0" x2="225.0" y1="55.0" y2="55.0" /><line stroke="rgb(0,0,0)" x1="225.0" x2="280.0" y1="55.0" y2="55.0" /><line stroke="rgb(0,0,0)" x1="280.0" x2="300.0" y1="55.0" y2="55.0" /><line stroke="rgb(0,0,0)" x1="300.0" x2="305.0" y1="55.0" y2="55.0" /><line stroke="rgb(0,0,0)" x1="305.0" x2="360.0" y1="55.0" y2="55.0" /><line stroke="rgb(0,0,0)" x1="360.0" x2="380.0" y1="55.0" y2="55.0" /><line stroke="rgb(0,0,0)" x1="380.0" x2="385.0" y1="55.0" y2="55.0" /><line stroke="rgb(0,0,0)" x1="385.0" x2="410.0" y1="55.0" y2="55.0" /><line stroke="rgb(0,0,0)" x1="410.0" x2="430.0" y1="55.0" y2="55.0" /><line stroke="rgb(0,0,0)" x1="430.0" x2="435.0" y1="55.0" y2="55.0" /><line stroke="rgb(0,0,0)" x1="435.0" x2="450.0" y1="55.0" y2="55.0" /><line stroke="rgb(0,0,0)" x1="450.0" x2="470.0" y1="55.0" y2="55.0" /><line stroke="rgb(0,0,0)" x1="470.0" x2="475.0" y1="55.0" y2="55.0" /><line stroke="rgb(0,0,0)" x1="475.0" x2="585.0" y1="55.0" y2="55.0" /><line stroke="rgb(0,0,0)" x1="585.0" x2="605.0" y1="55.0" y2="55.0" /><line stroke="rgb(0,0,0)" x1="605.0" x2="610.0" y1="55.0" y2="55.0" /><line stroke="rgb(0,0,0)" x1="610.0" x2="655.0" y1="55.0" y2="55.0" /><line stroke="rgb(0,0,0)" x1="655.0" x2="675.0" y1="55.0" y2="55.0" /><line stroke="rgb(0,0,0)" x1="675.0" x2="680.0" y1="55.0" y2="55.0" /><line stroke="rgb(0,0,0)" x1="680.0" x2="750.0" y1="55.0" y2="55.0" /><line stroke="rgb(0,0,0)" x1="750.0" x2="770.0" y1="55.0" y2="55.0" /><line stroke="rgb(0,0,0)" x1="770.0" x2="775.0" y1="55.0" y2="55.0" /><line stroke="rgb(0,0,0)" x1="775.0" x2="895.0" y1="55.0" y2="55.0" /><line stroke="rgb(0,0,0)" x1="895.0" x2="915.0" y1="55.0" y2="55.0" /><line stroke="rgb(0,0,0)" x1="915.0" x2="920.0" y1="55.0" y2="55.0" /><line stroke="rgb(0,0,0)" x1="920.0" x2="980.0" y1="55.0" y2="55.0" /><line stroke="rgb(0,0,0)" x1="980.0" x2="1000.0" y1="55.0" y2="55.0" /><line stroke="rgb(0,0,0)" x1="1000.0" x2="1005.0" y1="55.0" y2="55.0" /><line stroke="rgb(0,0,0)" x1="1005.0" x2="1050.0" y1="55.0" y2="55.0" /><line stroke="rgb(0,0,0)" x1="1050.0" x2="1070.0" y1="55.0" y2="55.0" /><line stroke="rgb(0,0,0)" x1="1070.0" x2="1075.0" y1="55.0" y2="55.0" /><line stroke="rgb(0,0,0)" x1="1075.0" x2="1185.0" y1="55.0" y2="55.0" /><line stroke="rgb(0,0,0)" x1="1185.0" x2="1205.0" y1="55.0" y2="55.0" /><line stroke="rgb(0,0,0)" x1="1205.0" x2="1210.0" y1="55.0" y2="55.0" /><line stroke="rgb(0,0,0)" x1="1210.0" x2="1260.0" y1="55.0" y2="55.0" /><line stroke="rgb(0,0,0)" x1="1260.0" x2="1280.0" y1="55.0" y2="55.0" /><line stroke="rgb(0,0,0)" x1="1280.0" x2="1285.0" y1="55.0" y2="55.0" /><line stroke="rgb(0,0,0)" x1="1285.0" x2="1325.0" y1="55.0" y2="55.0" /><line stroke="rgb(0,0,0)" x1="1325.0" x2="1345.0" y1="55.0" y2="55.0" /><line stroke="rgb(0,0,0)" x1="1345.0" x2="1350.0" y1="55.0" y2="55.0" /><line stroke="rgb(0,0,0)" x1="1350.0" x2="1465.0" y1="55.0" y2="55.0" /><line stroke="rgb(0,0,0)" x1="1465.0" x2="1485.0" y1="55.0" y2="55.0" /><line stroke="rgb(0,0,0)" x1="1485.0" x2="1490.0" y1="55.0" y2="55.0" /><line stroke="rgb(0,0,0)" x1="1490.0" x2="1545.0" y1="55.0" y2="55.0" /><line stroke="rgb(0,0,0)" x1="1545.0" x2="1565.0" y1="55.0" y2="55.0" /><line stroke="rgb(0,0,0)" x1="1565.0" x2="1570.0" y1="55.0" y2="55.0" /><line stroke="rgb(0,0,0)" x1="1570.0" x2="1625.0" y1="55.0" y2="55.0" /><line stroke="rgb(0,0,0)" x1="1625.0" x2="1645.0" y1="55.0" y2="55.0" /><line stroke="rgb(0,0,0)" x1="1645.0" x2="1650.0" y1="55.0" y2="55.0" /><line stroke="rgb(0,0,0)" x1="1650.0" x2="1765.0" y1="55.0" y2="55.0" /><line stroke="rgb(0,0,0)" x1="1765.0" x2="1785.0" y1="55.0" y2="55.0" /><line stroke="rgb(0,0,0)" x1="1785.0" x2="1790.0" y1="55.0" y2="55.0" /><line stroke="rgb(0,0,0)" x1="1790.0" x2="1825.0" y1="55.0" y2="55.0" /><line stroke="rgb(0,0,0)" x1="1825.0" x2="1845.0" y1="55.0" y2="55.0" /><line stroke="rgb(0,0,0)" x1="1845.0" x2="1850.0" y1="55.0" y2="55.0" /><line stroke="rgb(0,0,0)" x1="1850.0" x2="1890.0" y1="55.0" y2="55.0" /><line stroke="rgb(0,0,0)" x1="1890.0" x2="1910.0" y1="55.0" y2="55.0" /><line stroke="rgb(0,0,0)" x1="1910.0" x2="1915.0" y1="55.0" y2="55.0" /><line stroke="rgb(0,0,0)" x1="1915.0" x2="1950.0" y1="55.0" y2="55.0" /><line stroke="rgb(0,0,0)" x1="1950.0" x2="1970.0" y1="55.0" y2="55.0" /><line stroke="rgb(0,0,0)" x1="1970.0" x2="1975.0" y1="55.0" y2="55.0" /><line stroke="rgb(0,0,0)" x1="1975.0" x2="2035.0" y1="55.0" y2="55.0" /><line stroke="rgb(0,0,0)" x1="2035.0" x2="2055.0" y1="55.0" y2="55.0" /><line stroke="rgb(0,0,0)" x1="2055.0" x2="2060.0" y1="55.0" y2="55.0" /><line stroke="rgb(0,0,0)" x1="2060.0" x2="2180.0" y1="55.0" y2="55.0" /><line stroke="rgb(0,0,0)" x1="2180.0" x2="2200.0" y1="55.0" y2="55.0" /><line stroke="rgb(0,0,0)" x1="2200.0" x2="2205.0" y1="55.0" y2="55.0" /><line stroke="rgb(0,0,0)" x1="2205.0" x2="2245.0" y1="55.0" y2="55.0" /><line stroke="rgb(0,0,0)" x1="2245.0" x2="2265.0" y1="55.0" y2="55.0" /><line stroke="rgb(0,0,0)" x1="2265.0" x2="2270.0" y1="55.0" y2="55.0" /><line stroke="rgb(0,0,0)" x1="2270.0" x2="2315.0" y1="55.0" y2="55.0" /><line stroke="rgb(0,0,0)" x1="2315.0" x2="2335.0" y1="55.0" y2="55.0" /><line stroke="rgb(0,0,0)" x1="2335.0" x2="2340.0" y1="55.0" y2="55.0" /><line stroke="rgb(0,0,0)" x1="2340.0" x2="2410.0" y1="55.0" y2="55.0" /><line stroke="rgb(0,0,0)" x1="2410.0" x2="2430.0" y1="55.0" y2="55.0" /><line stroke="rgb(0,0,0)" x1="2430.0" x2="2435.0" y1="55.0" y2="55.0" /><line stroke="rgb(0,0,0)" x1="2435.0" x2="2525.0" y1="55.0" y2="55.0" /><line stroke="rgb(0,0,0)" x1="2525.0" x2="2545.0" y1="55.0" y2="55.0" /><line stroke="rgb(0,0,0)" x1="2545.0" x2="2550.0" y1="55.0" y2="55.0" /><line stroke="rgb(0,0,0)" x1="2550.0" x2="2590.0" y1="55.0" y2="55.0" /><line stroke="rgb(0,0,0)" x1="2590.0" x2="2610.0" y1="55.0" y2="55.0" /><line stroke="rgb(0,0,0)" x1="2610.0" x2="2615.0" y1="55.0" y2="55.0" /><line stroke="rgb(0,0,0)" x1="2615.0" x2="2715.0" y1="55.0" y2="55.0" /><line stroke="rgb(0,0,0)" x1="2715.0" x2="2735.0" y1="55.0" y2="55.0" /><line stroke="rgb(0,0,0)" x1="2735.0" x2="2740.0" y1="55.0" y2="55.0" /><polygon fill="rgb(150,150,150)" points="100.0,55.0 100.0,54.0 90.0,54.0 90.0,52.0 87.5,52.0 87.5,51.2 85.0,51.2 85.0,49.6 82.5,49.6 82.5,48.2 80.0,48.2 80.0,45.8 77.5,45.8 77.5,44.800000000000004 72.5,44.800000000000004 72.5,44.6 67.5,44.6 67.5,44.0 65.0,44.0 65.0,43.4 62.5,43.4 62.5,43.0 60.0,43.0 60.0,41.0 52.5,41.0 52.5,41.0 45.0,41.0 45.0,43.0 42.5,43.0 42.5,43.4 40.0,43.4 40.0,44.0 37.5,44.0 37.5,44.6 32.5,44.6 32.5,44.800000000000004 27.5,44.800000000000004 27.5,45.8 25.0,45.8 25.0,48.2 22.5,48.2 22.5,49.6 20.0,49.6 20.0,51.2 17.5,51.2 17.5,52.0 15.0,52.0 15.0,54.0 5.0,54.0 5.0,55.0 5.0,55.0 5.0,56.0 15.0,56.0 15.0,58.0 17.5,58.0 17.5,58.8 20.0,58.8 20.0,60.4 22.5,60.4 22.5,61.8 25.0,61.8 25.0,64.2 27.5,64.2 27.5,65.2 32.5,65.2 32.5,65.4 37.5,65.4 37.5,66.0 40.0,66.0 40.0,66.6 42.5,66.6 42.5,67.0 45.0,67.0 45.0,69.0 52.5,69.0 52.5,69.0 60.0,69.0 60.0,67.0 62.5,67.0 62.5,66.6 65.0,66.6 65.0,66.0 67.5,66.0 67.5,65.4 72.5,65.4 72.5,65.2 77.5,65.2 77.5,64.2 80.0,64.2 80.0,61.8 82.5,61.8 82.5,60.4 85.0,60.4 85.0,58.8 87.5,58.8 87.5,58.0 90.0,58.0 90.0,56.0 100.0,56.0 100.0,55.0" stroke="rgb(0,0,0)" /><text fill="black" x="5.0" y="89.0">H11</text><polygon fill="rgb(150,150,255)" points="150.0,55.0 150.0,54.8 147.5,54.8 147.5,45.2 145.0,45.2 145.0,43.6 142.5,43.6 142.5,43.0 140.0,43.0 140.0,43.0 137.5,43.0 137.5,43.6 135.0,43.6 135.0,45.2 132.5,45.2 132.5,54.8 130.0,54.8 130.0,55.0 130.0,55.0 130.0,55.2 132.5,55.2 132.5,64.8 135.0,64.8 135.0,66.4 137.5,66.4 137.5,67.0 140.0,67.0 140.0,67.0 142.5,67.0 142.5,66.4 145.0,66.4 145.0,64.8 147.5,64.8 147.5,55.2 150.0,55.2 150.0,55.0" stroke="rgb(0,0,0)" /><text fill="black" x="130.0" y="87.0">E13</text><polygon fill="rgb(150,150,255)" points="195.0,55.0 195.0,45.2 192.5,45.2 192.5,43.0 190.0,43.0 190.0,39.0 187.5,39.0 187.5,39.0 185.0,39.0 185.0,43.0 182.5,43.0 182.5,45.2 180.0,45.2 180.0,55.0 180.0,55.0 180.0,64.8 182.5,64.8 182.5,67.0 185.0,67.0 185.0,71.0 187.5,71.0 187.5,71.0 190.0,71.0 190.0,67.0 192.5,67.0 192.5,64.8 195.0,64.8 195.0,55.0" stroke="rgb(0,0,0)" /><text fill="black" x="180.0" y="91.0">E15</text><polygon fill="rgb(255,150,150)" points="275.0,55.0 275.0,54.4 272.5,54.4 272.5,53.6 270.0,53.6 270.0,51.800000000000004 267.5,51.800000000000004 267.5,47.6 265.0,47.6 265.0,40.0 262.5,40.0 262.5,25.799999999999997 260.0,25.799999999999997 260.0,17.0 257.5,17.0 257.5,6.600000000000001 255.0,6.600000000000001 255.0,6.0 252.5,6.0 252.5,5.200000000000003 250.0,5.200000000000003 250.0,5.200000000000003 247.5,5.200000000000003 247.5,6.0 245.0,6.0 245.0,6.600000000000001 242.5,6.600000000000001 242.5,17.0 240.0,17.0 240.0,25.799999999999997 237.5,25.799999999999997 237.5,40.0 235.0,40.0 235.0,47.6 232.5,47.6 232.5,51.800000000000004 230.0,51.800000000000004 230.0,53.6 227.5,53.6 227.5,54.4 225.0,54.4 225.0,55.0 225.0,55.0 225.0,55.6 227.5,55.6 227.5,56.4 230.0,56.4 230.0,58.199999999999996 232.5,58.199999999999996 232.5,62.4 235.0,62.4 235.0,70.0 237.5,70.0 237.5,84.2 240.0,84.2 240.0,93.0 242.5,93.0 242.5,103.4 245.0,103.4 245.0,104.0 247.5,104.0 247.5,104.8 250.0,104.8 250.0,104.8 252.5,104.8 252.5,104.0 255.0,104.0 255.0,103.4 257.5,103.4 257.5,93.0 260.0,93.0 260.0,84.2 262.5,84.2 262.5,70.0 265.0,70.0 265.0,62.4 267.5,62.4 267.5,58.199999999999996 270.0,58.199999999999996 270.0,56.4 272.5,56.4 272.5,55.6 275.0,55.6 275.0,55.0" stroke="rgb(0,0,0)" /><text fill="black" x="225.0" y="124.8">E32</text><polygon fill="rgb(150,150,150)" points="355.0,55.0 355.0,54.6 352.5,54.6 352.5,54.4 350.0,54.4 350.0,54.2 347.5,54.2 347.5,54.0 342.5,54.0 342.5,53.199999999999996 340.0,53.199999999999996 340.0,50.4 337.5,50.4 337.5,44.2 330.0,44.2 330.0,44.2 322.5,44.2 322.5,50.4 320.0,50.4 320.0,53.199999999999996 317.5,53.199999999999996 317.5,54.0 312.5,54.0 312.5,54.2 310.0,54.2 310.0,54.4 307.5,54.4 307.5,54.6 305.0,54.6 305.0,55.0 305.0,55.0 305.0,55.4 307.5,55.4 307.5,55.6 310.0,55.6 310.0,55.8 312.5,55.8 312.5,56.0 317.5,56.0 317.5,56.800000000000004 320.0,56.800000000000004 320.0,59.6 322.5,59.6 322.5,65.8 330.0,65.8 330.0,65.8 337.5,65.8 337.5,59.6 340.0,59.6 340.0,56.800000000000004 342.5,56.800000000000004 342.5,56.0 347.5,56.0 347.5,55.8 350.0,55.8 350.0,55.6 352.5,55.6 352.5,55.4 355.0,55.4 355.0,55.0" stroke="rgb(0,0,0)" /><text fill="black" x="305.0" y="85.8">H33</text><polygon fill="rgb(150,255,150)" points="405.0,55.0 405.0,54.6 402.5,54.6 402.5,53.199999999999996 400.0,53.199999999999996 400.0,50.6 397.5,50.6 397.5,43.4 395.0,43.4 395.0,43.4 392.5,43.4 392.5,50.6 390.0,50.6 390.0,53.199999999999996 387.5,53.199999999999996 387.5,54.6 385.0,54.6 385.0,55.0 385.0,55.0 385.0,55.4 387.5,55.4 387.5,56.800000000000004 390.0,56.800000000000004 390.0,59.4 392.5,59.4 392.5,66.6 395.0,66.6 395.0,66.6 397.5,66.6 397.5,59.4 400.0,59.4 400.0,56.800000000000004 402.5,56.800000000000004 402.5,55.4 405.0,55.4 405.0,55.0" stroke="rgb(0,0,0)" /><text fill="black" x="385.0" y="86.6">E45</text><polygon fill="rgb(150,255,150)" points="445.0,55.0 445.0,54.8 442.5,54.8 442.5,50.6 440.0,50.6 440.0,50.6 437.5,50.6 437.5,54.8 435.0,54.8 435.0,55.0 435.0,55.0 435.0,55.2 437.5,55.2 437.5,59.4 440.0,59.4 440.0,59.4 442.5,59.4 442.5,55.2 445.0,55.2 445.0,55.0" stroke="rgb(0,0,0)" /><text fill="black" x="435.0" y="79.4">E46</text><polygon fill="rgb(150,150,150)" points="580.0,55.0 580.0,52.599999999999994 577.5,52.599999999999994 577.5,52.0 575.0,52.0 575.0,51.800000000000004 572.5,51.800000000000004 572.5,48.4 570.0,48.4 570.0,48.0 567.5,48.0 567.5,47.8 565.0,47.8 565.0,46.599999999999994 562.5,46.599999999999994 562.5,30.8 560.0,30.8 560.0,24.400000000000002 557.5,24.400000000000002 557.5,23.6 555.0,23.6 555.0,14.399999999999999 552.5,14.399999999999999 552.5,9.399999999999999 550.0,9.399999999999999 550.0,7.800000000000004 547.5,7.800000000000004 547.5,7.600000000000001 545.0,7.600000000000001 545.0,6.200000000000003 542.5,6.200000000000003 542.5,6.0 527.5,6.0 527.5,6.0 512.5,6.0 512.5,6.200000000000003 510.0,6.200000000000003 510.0,7.600000000000001 507.5,7.600000000000001 507.5,7.800000000000004 505.0,7.800000000000004 505.0,9.399999999999999 502.5,9.399999999999999 502.5,14.399999999999999 500.0,14.399999999999999 500.0,23.6 497.5,23.6 497.5,24.400000000000002 495.0,24.400000000000002 495.0,30.8 492.5,30.8 492.5,46.599999999999994 490.0,46.599999999999994 490.0,47.8 487.5,47.8 487.5,48.0 485.0,48.0 485.0,48.4 482.5,48.4 482.5,51.800000000000004 480.0,51.800000000000004 480.0,52.0 477.5,52.0 477.5,52.599999999999994 475.0,52.599999999999994 475.0,55.0 475.0,55.0 475.0,57.400000000000006 477.5,57.400000000000006 477.5,58.0 480.0,58.0 480.0,58.199999999999996 482.5,58.199999999999996 482.5,61.6 485.0,61.6 485.0,62.0 487.5,62.0 487.5,62.2 490.0,62.2 490.0,63.400000000000006 492.5,63.400000000000006 492.5,79.2 495.0,79.2 495.0,85.6 497.5,85.6 497.5,86.4 500.0,86.4 500.0,95.6 502.5,95.6 502.5,100.6 505.0,100.6 505.0,102.19999999999999 507.5,102.19999999999999 507.5,102.4 510.0,102.4 510.0,103.8 512.5,103.8 512.5,104.0 527.5,104.0 527.5,104.0 542.5,104.0 542.5,103.8 545.0,103.8 545.0,102.4 547.5,102.4 547.5,102.19999999999999 550.0,102.19999999999999 550.0,100.6 552.5,100.6 552.5,95.6 555.0,95.6 555.0,86.4 557.5,86.4 557.5,85.6 560.0,85.6 560.0,79.2 562.5,79.2 562.5,63.400000000000006 565.0,63.400000000000006 565.0,62.2 567.5,62.2 567.5,62.0 570.0,62.0 570.0,61.6 572.5,61.6 572.5,58.199999999999996 575.0,58.199999999999996 575.0,58.0 577.5,58.0 577.5,57.400000000000006 580.0,57.400000000000006 580.0,55.0" stroke="rgb(0,0,0)" /><text fill="black" x="475.0" y="124.0">H50</text><polygon fill="rgb(255,150,150)" points="650.0,55.0 650.0,53.6 647.5,53.6 647.5,51.6 645.0,51.6 645.0,42.4 642.5,42.4 642.5,28.599999999999998 640.0,28.599999999999998 640.0,13.399999999999999 637.5,13.399999999999999 637.5,10.0 635.0,10.0 635.0,7.0 632.5,7.0 632.5,5.799999999999997 630.0,5.799999999999997 630.0,5.799999999999997 627.5,5.799999999999997 627.5,7.0 625.0,7.0 625.0,10.0 622.5,10.0 622.5,13.399999999999999 620.0,13.399999999999999 620.0,28.599999999999998 617.5,28.599999999999998 617.5,42.4 615.0,42.4 615.0,51.6 612.5,51.6 612.5,53.6 610.0,53.6 610.0,55.0 610.0,55.0 610.0,56.4 612.5,56.4 612.5,58.4 615.0,58.4 615.0,67.6 617.5,67.6 617.5,81.4 620.0,81.4 620.0,96.6 622.5,96.6 622.5,100.0 625.0,100.0 625.0,103.0 627.5,103.0 627.5,104.2 630.0,104.2 630.0,104.2 632.5,104.2 632.5,103.0 635.0,103.0 635.0,100.0 637.5,100.0 637.5,96.6 640.0,96.6 640.0,81.4 642.5,81.4 642.5,67.6 645.0,67.6 645.0,58.4 647.5,58.4 647.5,56.4 650.0,56.4 650.0,55.0" stroke="rgb(0,0,0)" /><text fill="black" x="610.0" y="124.2">E56</text><polygon fill="rgb(150,150,150)" points="745.0,55.0 745.0,54.4 737.5,54.4 737.5,54.2 732.5,54.2 732.5,53.4 730.0,53.4 730.0,47.6 727.5,47.6 727.5,45.6 725.0,45.6 725.0,42.8 722.5,42.8 722.5,40.0 720.0,40.0 720.0,30.8 712.5,30.8 712.5,30.8 705.0,30.8 705.0,40.0 702.5,40.0 702.5,42.8 700.0,42.8 700.0,45.6 697.5,45.6 697.5,47.6 695.0,47.6 695.0,53.4 692.5,53.4 692.5,54.2 687.5,54.2 687.5,54.4 680.0,54.4 680.0,55.0 680.0,55.0 680.0,55.6 687.5,55.6 687.5,55.8 692.5,55.8 692.5,56.6 695.0,56.6 695.0,62.4 697.5,62.4 697.5,64.39999999999999 700.0,64.39999999999999 700.0,67.2 702.5,67.2 702.5,70.0 705.0,70.0 705.0,79.2 712.5,79.2 712.5,79.2 720.0,79.2 720.0,70.0 722.5,70.0 722.5,67.2 725.0,67.2 725.0,64.39999999999999 727.5,64.39999999999999 727.5,62.4 730.0,62.4 730.0,56.6 732.5,56.6 732.5,55.8 737.5,55.8 737.5,55.6 745.0,55.6 745.0,55.0" stroke="rgb(0,0,0)" /><text fill="black" x="680.0" y="99.2">H62</text><polygon fill="rgb(150,150,150)" points="890.0,55.0 890.0,54.4 885.0,54.4 885.0,54.2 880.0,54.2 880.0,52.8 877.5,52.8 877.5,49.6 875.0,49.6 875.0,47.0 872.5,47.0 872.5,46.599999999999994 870.0,46.599999999999994 870.0,38.0 867.5,38.0 867.5,32.400000000000006 865.0,32.400000000000006 865.0,30.0 862.5,30.0 862.5,29.6 860.0,29.6 860.0,19.6 857.5,19.6 857.5,12.399999999999999 852.5,12.399999999999999 852.5,11.799999999999997 850.0,11.799999999999997 850.0,10.199999999999996 845.0,10.199999999999996 845.0,9.399999999999999 842.5,9.399999999999999 842.5,8.599999999999994 840.0,8.599999999999994 840.0,8.400000000000006 832.5,8.400000000000006 832.5,8.400000000000006 825.0,8.400000000000006 825.0,8.599999999999994 822.5,8.599999999999994 822.5,9.399999999999999 820.0,9.399999999999999 820.0,10.199999999999996 815.0,10.199999999999996 815.0,11.799999999999997 812.5,11.799999999999997 812.5,12.399999999999999 807.5,12.399999999999999 807.5,19.6 805.0,19.6 805.0,29.6 802.5,29.6 802.5,30.0 800.0,30.0 800.0,32.400000000000006 797.5,32.400000000000006 797.5,38.0 795.0,38.0 795.0,46.599999999999994 792.5,46.599999999999994 792.5,47.0 790.0,47.0 790.0,49.6 787.5,49.6 787.5,52.8 785.0,52.8 785.0,54.2 780.0,54.2 780.0,54.4 775.0,54.4 775.0,55.0 775.0,55.0 775.0,55.6 780.0,55.6 780.0,55.8 785.0,55.8 785.0,57.2 787.5,57.2 787.5,60.4 790.0,60.4 790.0,63.0 792.5,63.0 792.5,63.400000000000006 795.0,63.400000000000006 795.0,72.0 797.5,72.0 797.5,77.6 800.0,77.6 800.0,80.0 802.5,80.0 802.5,80.4 805.0,80.4 805.0,90.4 807.5,90.4 807.5,97.6 812.5,97.6 812.5,98.2 815.0,98.2 815.0,99.80000000000001 820.0,99.80000000000001 820.0,100.6 822.5,100.6 822.5,101.4 825.0,101.4 825.0,101.6 832.5,101.6 832.5,101.6 840.0,101.6 840.0,101.4 842.5,101.4 842.5,100.6 845.0,100.6 845.0,99.80000000000001 850.0,99.80000000000001 850.0,98.2 852.5,98.2 852.5,97.6 857.5,97.6 857.5,90.4 860.0,90.4 860.0,80.4 862.5,80.4 862.5,80.0 865.0,80.0 865.0,77.6 867.5,77.6 867.5,72.0 870.0,72.0 870.0,63.400000000000006 872.5,63.400000000000006 872.5,63.0 875.0,63.0 875.0,60.4 877.5,60.4 877.5,57.2 880.0,57.2 880.0,55.8 885.0,55.8 885.0,55.6 890.0,55.6 890.0,55.0" stroke="rgb(0,0,0)" /><text fill="black" x="775.0" y="121.6">H68</text><polygon fill="rgb(150,150,150)" points="975.0,55.0 975.0,54.2 972.5,54.2 972.5,53.4 967.5,53.4 967.5,50.800000000000004 955.0,50.800000000000004 955.0,42.0 947.5,42.0 947.5,42.0 940.0,42.0 940.0,50.800000000000004 927.5,50.800000000000004 927.5,53.4 922.5,53.4 922.5,54.2 920.0,54.2 920.0,55.0 920.0,55.0 920.0,55.8 922.5,55.8 922.5,56.6 927.5,56.6 927.5,59.199999999999996 940.0,59.199999999999996 940.0,68.0 947.5,68.0 947.5,68.0 955.0,68.0 955.0,59.199999999999996 967.5,59.199999999999996 967.5,56.6 972.5,56.6 972.5,55.8 975.0,55.8 975.0,55.0" stroke="rgb(0,0,0)" /><text fill="black" x="920.0" y="88.0">H75</text><polygon fill="rgb(255,150,150)" points="1045.0,55.0 1045.0,53.8 1042.5,53.8 1042.5,51.800000000000004 1040.0,51.800000000000004 1040.0,44.6 1037.5,44.6 1037.5,26.999999999999996 1035.0,26.999999999999996 1035.0,8.599999999999994 1032.5,8.599999999999994 1032.5,8.0 1027.5,8.0 1027.5,6.0 1025.0,6.0 1025.0,6.0 1022.5,6.0 1022.5,8.0 1017.5,8.0 1017.5,8.599999999999994 1015.0,8.599999999999994 1015.0,26.999999999999996 1012.5,26.999999999999996 1012.5,44.6 1010.0,44.6 1010.0,51.800000000000004 1007.5,51.800000000000004 1007.5,53.8 1005.0,53.8 1005.0,55.0 1005.0,55.0 1005.0,56.2 1007.5,56.2 1007.5,58.199999999999996 1010.0,58.199999999999996 1010.0,65.4 1012.5,65.4 1012.5,83.0 1015.0,83.0 1015.0,101.4 1017.5,101.4 1017.5,102.0 1022.5,102.0 1022.5,104.0 1025.0,104.0 1025.0,104.0 1027.5,104.0 1027.5,102.0 1032.5,102.0 1032.5,101.4 1035.0,101.4 1035.0,83.0 1037.5,83.0 1037.5,65.4 1040.0,65.4 1040.0,58.199999999999996 1042.5,58.199999999999996 1042.5,56.2 1045.0,56.2 1045.0,55.0" stroke="rgb(0,0,0)" /><text fill="black" x="1005.0" y="124.0">E87</text><polygon fill="rgb(150,150,150)" points="1180.0,55.0 1180.0,53.199999999999996 1177.5,53.199999999999996 1177.5,52.599999999999994 1172.5,52.599999999999994 1172.5,49.4 1165.0,49.4 1165.0,46.199999999999996 1162.5,46.199999999999996 1162.5,37.0 1160.0,37.0 1160.0,35.2 1157.5,35.2 1157.5,35.0 1155.0,35.0 1155.0,26.4 1152.5,26.4 1152.5,17.0 1150.0,17.0 1150.0,16.6 1147.5,16.6 1147.5,16.4 1145.0,16.4 1145.0,10.799999999999997 1140.0,10.799999999999997 1140.0,10.600000000000001 1127.5,10.600000000000001 1127.5,10.600000000000001 1115.0,10.600000000000001 1115.0,10.799999999999997 1110.0,10.799999999999997 1110.0,16.4 1107.5,16.4 1107.5,16.6 1105.0,16.6 1105.0,17.0 1102.5,17.0 1102.5,26.4 1100.0,26.4 1100.0,35.0 1097.5,35.0 1097.5,35.2 1095.0,35.2 1095.0,37.0 1092.5,37.0 1092.5,46.199999999999996 1090.0,46.199999999999996 1090.0,49.4 1082.5,49.4 1082.5,52.599999999999994 1077.5,52.599999999999994 1077.5,53.199999999999996 1075.0,53.199999999999996 1075.0,55.0 1075.0,55.0 1075.0,56.800000000000004 1077.5,56.800000000000004 1077.5,57.400000000000006 1082.5,57.400000000000006 1082.5,60.6 1090.0,60.6 1090.0,63.800000000000004 1092.5,63.800000000000004 1092.5,73.0 1095.0,73.0 1095.0,74.8 1097.5,74.8 1097.5,75.0 1100.0,75.0 1100.0,83.6 1102.5,83.6 1102.5,93.0 1105.0,93.0 1105.0,93.4 1107.5,93.4 1107.5,93.6 1110.0,93.6 1110.0,99.2 1115.0,99.2 1115.0,99.4 1127.5,99.4 1127.5,99.4 1140.0,99.4 1140.0,99.2 1145.0,99.2 1145.0,93.6 1147.5,93.6 1147.5,93.4 1150.0,93.4 1150.0,93.0 1152.5,93.0 1152.5,83.6 1155.0,83.6 1155.0,75.0 1157.5,75.0 1157.5,74.8 1160.0,74.8 1160.0,73.0 1162.5,73.0 1162.5,63.800000000000004 1165.0,63.800000000000004 1165.0,60.6 1172.5,60.6 1172.5,57.400000000000006 1177.5,57.400000000000006 1177.5,56.800000000000004 1180.0,56.800000000000004 1180.0,55.0" stroke="rgb(0,0,0)" /><text fill="black" x="1075.0" y="119.4">H99</text><polygon fill="rgb(255,150,150)" points="1255.0,55.0 1255.0,54.4 1252.5,54.4 1252.5,51.800000000000004 1250.0,51.800000000000004 1250.0,51.6 1247.5,51.6 1247.5,49.6 1245.0,49.6 1245.0,27.799999999999997 1242.5,27.799999999999997 1242.5,9.199999999999996 1240.0,9.199999999999996 1240.0,6.800000000000004 1235.0,6.800000000000004 1235.0,5.399999999999999 1232.5,5.399999999999999 1232.5,5.399999999999999 1230.0,5.399999999999999 1230.0,6.800000000000004 1225.0,6.800000000000004 1225.0,9.199999999999996 1222.5,9.199999999999996 1222.5,27.799999999999997 1220.0,27.799999999999997 1220.0,49.6 1217.5,49.6 1217.5,51.6 1215.0,51.6 1215.0,51.800000000000004 1212.5,51.800000000000004 1212.5,54.4 1210.0,54.4 1210.0,55.0 1210.0,55.0 1210.0,55.6 1212.5,55.6 1212.5,58.199999999999996 1215.0,58.199999999999996 1215.0,58.4 1217.5,58.4 1217.5,60.4 1220.0,60.4 1220.0,82.2 1222.5,82.2 1222.5,100.80000000000001 1225.0,100.80000000000001 1225.0,103.19999999999999 1230.0,103.19999999999999 1230.0,104.6 1232.5,104.6 1232.5,104.6 1235.0,104.6 1235.0,103.19999999999999 1240.0,103.19999999999999 1240.0,100.80000000000001 1242.5,100.80000000000001 1242.5,82.2 1245.0,82.2 1245.0,60.4 1247.5,60.4 1247.5,58.4 1250.0,58.4 1250.0,58.199999999999996 1252.5,58.199999999999996 1252.5,55.6 1255.0,55.6 1255.0,55.0" stroke="rgb(0,0,0)" /><text fill="black" x="1210.0" y="124.6">E102</text><polygon fill="rgb(150,150,150)" points="1320.0,55.0 1320.0,49.4 1317.5,49.4 1317.5,49.2 1315.0,49.2 1315.0,47.6 1312.5,47.6 1312.5,44.2 1310.0,44.2 1310.0,34.4 1302.5,34.4 1302.5,34.4 1295.0,34.4 1295.0,44.2 1292.5,44.2 1292.5,47.6 1290.0,47.6 1290.0,49.2 1287.5,49.2 1287.5,49.4 1285.0,49.4 1285.0,55.0 1285.0,55.0 1285.0,60.6 1287.5,60.6 1287.5,60.8 1290.0,60.8 1290.0,62.4 1292.5,62.4 1292.5,65.8 1295.0,65.8 1295.0,75.6 1302.5,75.6 1302.5,75.6 1310.0,75.6 1310.0,65.8 1312.5,65.8 1312.5,62.4 1315.0,62.4 1315.0,60.8 1317.5,60.8 1317.5,60.6 1320.0,60.6 1320.0,55.0" stroke="rgb(0,0,0)" /><text fill="black" x="1285.0" y="95.6">H117</text><polygon fill="rgb(150,150,150)" points="1460.0,55.0 1460.0,54.8 1457.5,54.8 1457.5,51.2 1452.5,51.2 1452.5,49.6 1450.0,49.6 1450.0,47.0 1447.5,47.0 1447.5,46.199999999999996 1445.0,46.199999999999996 1445.0,46.0 1442.5,46.0 1442.5,41.0 1440.0,41.0 1440.0,21.800000000000004 1437.5,21.800000000000004 1437.5,20.200000000000003 1435.0,20.200000000000003 1435.0,17.4 1432.5,17.4 1432.5,14.399999999999999 1430.0,14.399999999999999 1430.0,9.399999999999999 1427.5,9.399999999999999 1427.5,7.600000000000001 1425.0,7.600000000000001 1425.0,6.0 1422.5,6.0 1422.5,5.799999999999997 1412.5,5.799999999999997 1412.5,5.600000000000001 1405.0,5.600000000000001 1405.0,5.600000000000001 1397.5,5.600000000000001 1397.5,5.799999999999997 1387.5,5.799999999999997 1387.5,6.0 1385.0,6.0 1385.0,7.600000000000001 1382.5,7.600000000000001 1382.5,9.399999999999999 1380.0,9.399999999999999 1380.0,14.399999999999999 1377.5,14.399999999999999 1377.5,17.4 1375.0,17.4 1375.0,20.200000000000003 1372.5,20.200000000000003 1372.5,21.800000000000004 1370.0,21.800000000000004 1370.0,41.0 1367.5,41.0 1367.5,46.0 1365.0,46.0 1365.0,46.199999999999996 1362.5,46.199999999999996 1362.5,47.0 1360.0,47.0 1360.0,49.6 1357.5,49.6 1357.5,51.2 1352.5,51.2 1352.5,54.8 1350.0,54.8 1350.0,55.0 1350.0,55.0 1350.0,55.2 1352.5,55.2 1352.5,58.8 1357.5,58.8 1357.5,60.4 1360.0,60.4 1360.0,63.0 1362.5,63.0 1362.5,63.800000000000004 1365.0,63.800000000000004 1365.0,64.0 1367.5,64.0 1367.5,69.0 1370.0,69.0 1370.0,88.19999999999999 1372.5,88.19999999999999 1372.5,89.8 1375.0,89.8 1375.0,92.6 1377.5,92.6 1377.5,95.6 1380.0,95.6 1380.0,100.6 1382.5,100.6 1382.5,102.4 1385.0,102.4 1385.0,104.0 1387.5,104.0 1387.5,104.2 1397.5,104.2 1397.5,104.4 1405.0,104.4 1405.0,104.4 1412.5,104.4 1412.5,104.2 1422.5,104.2 1422.5,104.0 1425.0,104.0 1425.0,102.4 1427.5,102.4 1427.5,100.6 1430.0,100.6 1430.0,95.6 1432.5,95.6 1432.5,92.6 1435.0,92.6 1435.0,89.8 1437.5,89.8 1437.5,88.19999999999999 1440.0,88.19999999999999 1440.0,69.0 1442.5,69.0 1442.5,64.0 1445.0,64.0 1445.0,63.800000000000004 1447.5,63.800000000000004 1447.5,63.0 1450.0,63.0 1450.0,60.4 1452.5,60.4 1452.5,58.8 1457.5,58.8 1457.5,55.2 1460.0,55.2 1460.0,55.0" stroke="rgb(0,0,0)" /><text fill="black" x="1350.0" y="124.4">H119</text><polygon fill="rgb(255,150,150)" points="1540.0,55.0 1540.0,53.8 1537.5,53.8 1537.5,52.599999999999994 1535.0,52.599999999999994 1535.0,49.6 1532.5,49.6 1532.5,47.6 1530.0,47.6 1530.0,36.0 1527.5,36.0 1527.5,17.0 1525.0,17.0 1525.0,7.800000000000004 1522.5,7.800000000000004 1522.5,6.200000000000003 1520.0,6.200000000000003 1520.0,5.399999999999999 1517.5,5.399999999999999 1517.5,5.200000000000003 1515.0,5.200000000000003 1515.0,5.200000000000003 1512.5,5.200000000000003 1512.5,5.399999999999999 1510.0,5.399999999999999 1510.0,6.200000000000003 1507.5,6.200000000000003 1507.5,7.800000000000004 1505.0,7.800000000000004 1505.0,17.0 1502.5,17.0 1502.5,36.0 1500.0,36.0 1500.0,47.6 1497.5,47.6 1497.5,49.6 1495.0,49.6 1495.0,52.599999999999994 1492.5,52.599999999999994 1492.5,53.8 1490.0,53.8 1490.0,55.0 1490.0,55.0 1490.0,56.2 1492.5,56.2 1492.5,57.400000000000006 1495.0,57.400000000000006 1495.0,60.4 1497.5,60.4 1497.5,62.4 1500.0,62.4 1500.0,74.0 1502.5,74.0 1502.5,93.0 1505.0,93.0 1505.0,102.19999999999999 1507.5,102.19999999999999 1507.5,103.8 1510.0,103.8 1510.0,104.6 1512.5,104.6 1512.5,104.8 1515.0,104.8 1515.0,104.8 1517.5,104.8 1517.5,104.6 1520.0,104.6 1520.0,103.8 1522.5,103.8 1522.5,102.19999999999999 1525.0,102.19999999999999 1525.0,93.0 1527.5,93.0 1527.5,74.0 1530.0,74.0 1530.0,62.4 1532.5,62.4 1532.5,60.4 1535.0,60.4 1535.0,57.400000000000006 1537.5,57.400000000000006 1537.5,56.2 1540.0,56.2 1540.0,55.0" stroke="rgb(0,0,0)" /><text fill="black" x="1490.0" y="124.8">E123</text><polygon fill="rgb(150,150,150)" points="1620.0,55.0 1620.0,54.8 1615.0,54.8 1615.0,53.4 1610.0,53.4 1610.0,47.199999999999996 1607.5,47.199999999999996 1607.5,45.0 1605.0,45.0 1605.0,43.2 1602.5,43.2 1602.5,41.2 1595.0,41.2 1595.0,41.2 1587.5,41.2 1587.5,43.2 1585.0,43.2 1585.0,45.0 1582.5,45.0 1582.5,47.199999999999996 1580.0,47.199999999999996 1580.0,53.4 1575.0,53.4 1575.0,54.8 1570.0,54.8 1570.0,55.0 1570.0,55.0 1570.0,55.2 1575.0,55.2 1575.0,56.6 1580.0,56.6 1580.0,62.800000000000004 1582.5,62.800000000000004 1582.5,65.0 1585.0,65.0 1585.0,66.8 1587.5,66.8 1587.5,68.8 1595.0,68.8 1595.0,68.8 1602.5,68.8 1602.5,66.8 1605.0,66.8 1605.0,65.0 1607.5,65.0 1607.5,62.800000000000004 1610.0,62.800000000000004 1610.0,56.6 1615.0,56.6 1615.0,55.2 1620.0,55.2 1620.0,55.0" stroke="rgb(0,0,0)" /><text fill="black" x="1570.0" y="88.8">H132</text><polygon fill="rgb(150,150,150)" points="1760.0,55.0 1760.0,52.4 1752.5,52.4 1752.5,51.800000000000004 1750.0,51.800000000000004 1750.0,51.2 1747.5,51.2 1747.5,51.0 1745.0,51.0 1745.0,47.8 1742.5,47.8 1742.5,43.6 1740.0,43.6 1740.0,33.4 1737.5,33.4 1737.5,29.2 1735.0,29.2 1735.0,27.199999999999996 1732.5,27.199999999999996 1732.5,22.199999999999996 1730.0,22.199999999999996 1730.0,8.799999999999997 1727.5,8.799999999999997 1727.5,7.200000000000003 1725.0,7.200000000000003 1725.0,6.800000000000004 1722.5,6.800000000000004 1722.5,6.600000000000001 1720.0,6.600000000000001 1720.0,6.399999999999999 1717.5,6.399999999999999 1717.5,6.200000000000003 1715.0,6.200000000000003 1715.0,6.0 1705.0,6.0 1705.0,6.0 1695.0,6.0 1695.0,6.200000000000003 1692.5,6.200000000000003 1692.5,6.399999999999999 1690.0,6.399999999999999 1690.0,6.600000000000001 1687.5,6.600000000000001 1687.5,6.800000000000004 1685.0,6.800000000000004 1685.0,7.200000000000003 1682.5,7.200000000000003 1682.5,8.799999999999997 1680.0,8.799999999999997 1680.0,22.199999999999996 1677.5,22.199999999999996 1677.5,27.199999999999996 1675.0,27.199999999999996 1675.0,29.2 1672.5,29.2 1672.5,33.4 1670.0,33.4 1670.0,43.6 1667.5,43.6 1667.5,47.8 1665.0,47.8 1665.0,51.0 1662.5,51.0 1662.5,51.2 1660.0,51.2 1660.0,51.800000000000004 1657.5,51.800000000000004 1657.5,52.4 1650.0,52.4 1650.0,55.0 1650.0,55.0 1650.0,57.6 1657.5,57.6 1657.5,58.199999999999996 1660.0,58.199999999999996 1660.0,58.8 1662.5,58.8 1662.5,59.0 1665.0,59.0 1665.0,62.2 1667.5,62.2 1667.5,66.4 1670.0,66.4 1670.0,76.6 1672.5,76.6 1672.5,80.8 1675.0,80.8 1675.0,82.80000000000001 1677.5,82.80000000000001 1677.5,87.80000000000001 1680.0,87.80000000000001 1680.0,101.2 1682.5,101.2 1682.5,102.8 1685.0,102.8 1685.0,103.19999999999999 1687.5,103.19999999999999 1687.5,103.4 1690.0,103.4 1690.0,103.6 1692.5,103.6 1692.5,103.8 1695.0,103.8 1695.0,104.0 1705.0,104.0 1705.0,104.0 1715.0,104.0 1715.0,103.8 1717.5,103.8 1717.5,103.6 1720.0,103.6 1720.0,103.4 1722.5,103.4 1722.5,103.19999999999999 1725.0,103.19999999999999 1725.0,102.8 1727.5,102.8 1727.5,101.2 1730.0,101.2 1730.0,87.80000000000001 1732.5,87.80000000000001 1732.5,82.80000000000001 1735.0,82.80000000000001 1735.0,80.8 1737.5,80.8 1737.5,76.6 1740.0,76.6 1740.0,66.4 1742.5,66.4 1742.5,62.2 1745.0,62.2 1745.0,59.0 1747.5,59.0 1747.5,58.8 1750.0,58.8 1750.0,58.199999999999996 1752.5,58.199999999999996 1752.5,57.6 1760.0,57.6 1760.0,55.0" stroke="rgb(0,0,0)" /><text fill="black" x="1650.0" y="124.0">H136</text><polygon fill="rgb(150,150,150)" points="1820.0,55.0 1820.0,51.6 1815.0,51.6 1815.0,49.6 1812.5,49.6 1812.5,40.4 1805.0,40.4 1805.0,40.4 1797.5,40.4 1797.5,49.6 1795.0,49.6 1795.0,51.6 1790.0,51.6 1790.0,55.0 1790.0,55.0 1790.0,58.4 1795.0,58.4 1795.0,60.4 1797.5,60.4 1797.5,69.6 1805.0,69.6 1805.0,69.6 1812.5,69.6 1812.5,60.4 1815.0,60.4 1815.0,58.4 1820.0,58.4 1820.0,55.0" stroke="rgb(0,0,0)" /><text fill="black" x="1790.0" y="89.6">H139</text><polygon fill="rgb(255,150,150)" points="1885.0,55.0 1885.0,54.2 1882.5,54.2 1882.5,50.0 1880.0,50.0 1880.0,33.599999999999994 1877.5,33.599999999999994 1877.5,17.0 1875.0,17.0 1875.0,8.200000000000003 1872.5,8.200000000000003 1872.5,5.0 1867.5,5.0 1867.5,5.0 1862.5,5.0 1862.5,8.200000000000003 1860.0,8.200000000000003 1860.0,17.0 1857.5,17.0 1857.5,33.599999999999994 1855.0,33.599999999999994 1855.0,50.0 1852.5,50.0 1852.5,54.2 1850.0,54.2 1850.0,55.0 1850.0,55.0 1850.0,55.8 1852.5,55.8 1852.5,60.0 1855.0,60.0 1855.0,76.4 1857.5,76.4 1857.5,93.0 1860.0,93.0 1860.0,101.8 1862.5,101.8 1862.5,105.0 1867.5,105.0 1867.5,105.0 1872.5,105.0 1872.5,101.8 1875.0,101.8 1875.0,93.0 1877.5,93.0 1877.5,76.4 1880.0,76.4 1880.0,60.0 1882.5,60.0 1882.5,55.8 1885.0,55.8 1885.0,55.0" stroke="rgb(0,0,0)" /><text fill="black" x="1850.0" y="125.0">E142</text><polygon fill="rgb(150,150,150)" points="1945.0,55.0 1945.0,54.2 1942.5,54.2 1942.5,52.4 1940.0,52.4 1940.0,52.0 1937.5,52.0 1937.5,42.2 1930.0,42.2 1930.0,42.2 1922.5,42.2 1922.5,52.0 1920.0,52.0 1920.0,52.4 1917.5,52.4 1917.5,54.2 1915.0,54.2 1915.0,55.0 1915.0,55.0 1915.0,55.8 1917.5,55.8 1917.5,57.6 1920.0,57.6 1920.0,58.0 1922.5,58.0 1922.5,67.8 1930.0,67.8 1930.0,67.8 1937.5,67.8 1937.5,58.0 1940.0,58.0 1940.0,57.6 1942.5,57.6 1942.5,55.8 1945.0,55.8 1945.0,55.0" stroke="rgb(0,0,0)" /><text fill="black" x="1915.0" y="87.8">H147</text><polygon fill="rgb(150,150,150)" points="2030.0,55.0 2030.0,54.6 2020.0,54.6 2020.0,52.4 2015.0,52.4 2015.0,52.199999999999996 2012.5,52.199999999999996 2012.5,50.6 2010.0,50.6 2010.0,44.400000000000006 2002.5,44.400000000000006 2002.5,44.400000000000006 1995.0,44.400000000000006 1995.0,50.6 1992.5,50.6 1992.5,52.199999999999996 1990.0,52.199999999999996 1990.0,52.4 1985.0,52.4 1985.0,54.6 1975.0,54.6 1975.0,55.0 1975.0,55.0 1975.0,55.4 1985.0,55.4 1985.0,57.6 1990.0,57.6 1990.0,57.800000000000004 1992.5,57.800000000000004 1992.5,59.4 1995.0,59.4 1995.0,65.6 2002.5,65.6 2002.5,65.6 2010.0,65.6 2010.0,59.4 2012.5,59.4 2012.5,57.800000000000004 2015.0,57.800000000000004 2015.0,57.6 2020.0,57.6 2020.0,55.4 2030.0,55.4 2030.0,55.0" stroke="rgb(0,0,0)" /><text fill="black" x="1975.0" y="85.6">H149</text><polygon fill="rgb(150,150,150)" points="2175.0,55.0 2175.0,54.8 2170.0,54.8 2170.0,54.6 2165.0,54.6 2165.0,48.6 2162.5,48.6 2162.5,46.8 2160.0,46.8 2160.0,46.0 2157.5,46.0 2157.5,45.2 2155.0,45.2 2155.0,36.0 2152.5,36.0 2152.5,32.800000000000004 2150.0,32.800000000000004 2150.0,31.200000000000003 2147.5,31.200000000000003 2147.5,30.2 2145.0,30.2 2145.0,17.799999999999997 2142.5,17.799999999999997 2142.5,10.399999999999999 2140.0,10.399999999999999 2140.0,9.799999999999997 2135.0,9.799999999999997 2135.0,9.399999999999999 2117.5,9.399999999999999 2117.5,9.399999999999999 2100.0,9.399999999999999 2100.0,9.799999999999997 2095.0,9.799999999999997 2095.0,10.399999999999999 2092.5,10.399999999999999 2092.5,17.799999999999997 2090.0,17.799999999999997 2090.0,30.2 2087.5,30.2 2087.5,31.200000000000003 2085.0,31.200000000000003 2085.0,32.800000000000004 2082.5,32.800000000000004 2082.5,36.0 2080.0,36.0 2080.0,45.2 2077.5,45.2 2077.5,46.0 2075.0,46.0 2075.0,46.8 2072.5,46.8 2072.5,48.6 2070.0,48.6 2070.0,54.6 2065.0,54.6 2065.0,54.8 2060.0,54.8 2060.0,55.0 2060.0,55.0 2060.0,55.2 2065.0,55.2 2065.0,55.4 2070.0,55.4 2070.0,61.4 2072.5,61.4 2072.5,63.2 2075.0,63.2 2075.0,64.0 2077.5,64.0 2077.5,64.8 2080.0,64.8 2080.0,74.0 2082.5,74.0 2082.5,77.19999999999999 2085.0,77.19999999999999 2085.0,78.8 2087.5,78.8 2087.5,79.8 2090.0,79.8 2090.0,92.2 2092.5,92.2 2092.5,99.6 2095.0,99.6 2095.0,100.2 2100.0,100.2 2100.0,100.6 2117.5,100.6 2117.5,100.6 2135.0,100.6 2135.0,100.2 2140.0,100.2 2140.0,99.6 2142.5,99.6 2142.5,92.2 2145.0,92.2 2145.0,79.8 2147.5,79.8 2147.5,78.8 2150.0,78.8 2150.0,77.19999999999999 2152.5,77.19999999999999 2152.5,74.0 2155.0,74.0 2155.0,64.8 2157.5,64.8 2157.5,64.0 2160.0,64.0 2160.0,63.2 2162.5,63.2 2162.5,61.4 2165.0,61.4 2165.0,55.4 2170.0,55.4 2170.0,55.2 2175.0,55.2 2175.0,55.0" stroke="rgb(0,0,0)" /><text fill="black" x="2060.0" y="120.6">H160</text><polygon fill="rgb(150,150,150)" points="2240.0,55.0 2240.0,54.8 2237.5,54.8 2237.5,49.4 2230.0,49.4 2230.0,41.0 2222.5,41.0 2222.5,41.0 2215.0,41.0 2215.0,49.4 2207.5,49.4 2207.5,54.8 2205.0,54.8 2205.0,55.0 2205.0,55.0 2205.0,55.2 2207.5,55.2 2207.5,60.6 2215.0,60.6 2215.0,69.0 2222.5,69.0 2222.5,69.0 2230.0,69.0 2230.0,60.6 2237.5,60.6 2237.5,55.2 2240.0,55.2 2240.0,55.0" stroke="rgb(0,0,0)" /><text fill="black" x="2205.0" y="89.0">H163</text><polygon fill="rgb(255,150,150)" points="2310.0,55.0 2310.0,54.8 2307.5,54.8 2307.5,54.4 2305.0,54.4 2305.0,53.6 2302.5,53.6 2302.5,41.2 2300.0,41.2 2300.0,17.0 2297.5,17.0 2297.5,8.599999999999994 2292.5,8.599999999999994 2292.5,7.800000000000004 2290.0,7.800000000000004 2290.0,7.800000000000004 2287.5,7.800000000000004 2287.5,8.599999999999994 2282.5,8.599999999999994 2282.5,17.0 2280.0,17.0 2280.0,41.2 2277.5,41.2 2277.5,53.6 2275.0,53.6 2275.0,54.4 2272.5,54.4 2272.5,54.8 2270.0,54.8 2270.0,55.0 2270.0,55.0 2270.0,55.2 2272.5,55.2 2272.5,55.6 2275.0,55.6 2275.0,56.4 2277.5,56.4 2277.5,68.8 2280.0,68.8 2280.0,93.0 2282.5,93.0 2282.5,101.4 2287.5,101.4 2287.5,102.19999999999999 2290.0,102.19999999999999 2290.0,102.19999999999999 2292.5,102.19999999999999 2292.5,101.4 2297.5,101.4 2297.5,93.0 2300.0,93.0 2300.0,68.8 2302.5,68.8 2302.5,56.4 2305.0,56.4 2305.0,55.6 2307.5,55.6 2307.5,55.2 2310.0,55.2 2310.0,55.0" stroke="rgb(0,0,0)" /><text fill="black" x="2270.0" y="122.19999999999999">E165</text><polygon fill="rgb(150,150,150)" points="2405.0,55.0 2405.0,54.2 2390.0,54.2 2390.0,53.6 2387.5,53.6 2387.5,53.4 2385.0,53.4 2385.0,51.400000000000006 2382.5,51.400000000000006 2382.5,49.2 2380.0,49.2 2380.0,42.0 2372.5,42.0 2372.5,42.0 2365.0,42.0 2365.0,49.2 2362.5,49.2 2362.5,51.400000000000006 2360.0,51.400000000000006 2360.0,53.4 2357.5,53.4 2357.5,53.6 2355.0,53.6 2355.0,54.2 2340.0,54.2 2340.0,55.0 2340.0,55.0 2340.0,55.8 2355.0,55.8 2355.0,56.4 2357.5,56.4 2357.5,56.6 2360.0,56.6 2360.0,58.599999999999994 2362.5,58.599999999999994 2362.5,60.8 2365.0,60.8 2365.0,68.0 2372.5,68.0 2372.5,68.0 2380.0,68.0 2380.0,60.8 2382.5,60.8 2382.5,58.599999999999994 2385.0,58.599999999999994 2385.0,56.6 2387.5,56.6 2387.5,56.4 2390.0,56.4 2390.0,55.8 2405.0,55.8 2405.0,55.0" stroke="rgb(0,0,0)" /><text fill="black" x="2340.0" y="88.0">H167</text><polygon fill="rgb(150,150,150)" points="2520.0,55.0 2520.0,54.0 2515.0,54.0 2515.0,52.599999999999994 2512.5,52.599999999999994 2512.5,47.0 2510.0,47.0 2510.0,45.0 2507.5,45.0 2507.5,44.800000000000004 2505.0,44.800000000000004 2505.0,43.2 2502.5,43.2 2502.5,25.799999999999997 2500.0,25.799999999999997 2500.0,21.200000000000003 2497.5,21.200000000000003 2497.5,19.0 2495.0,19.0 2495.0,11.0 2492.5,11.0 2492.5,9.399999999999999 2490.0,9.399999999999999 2490.0,8.599999999999994 2487.5,8.599999999999994 2487.5,8.400000000000006 2477.5,8.400000000000006 2477.5,8.400000000000006 2467.5,8.400000000000006 2467.5,8.599999999999994 2465.0,8.599999999999994 2465.0,9.399999999999999 2462.5,9.399999999999999 2462.5,11.0 2460.0,11.0 2460.0,19.0 2457.5,19.0 2457.5,21.200000000000003 2455.0,21.200000000000003 2455.0,25.799999999999997 2452.5,25.799999999999997 2452.5,43.2 2450.0,43.2 2450.0,44.800000000000004 2447.5,44.800000000000004 2447.5,45.0 2445.0,45.0 2445.0,47.0 2442.5,47.0 2442.5,52.599999999999994 2440.0,52.599999999999994 2440.0,54.0 2435.0,54.0 2435.0,55.0 2435.0,55.0 2435.0,56.0 2440.0,56.0 2440.0,57.400000000000006 2442.5,57.400000000000006 2442.5,63.0 2445.0,63.0 2445.0,65.0 2447.5,65.0 2447.5,65.2 2450.0,65.2 2450.0,66.8 2452.5,66.8 2452.5,84.2 2455.0,84.2 2455.0,88.8 2457.5,88.8 2457.5,91.0 2460.0,91.0 2460.0,99.0 2462.5,99.0 2462.5,100.6 2465.0,100.6 2465.0,101.4 2467.5,101.4 2467.5,101.6 2477.5,101.6 2477.5,101.6 2487.5,101.6 2487.5,101.4 2490.0,101.4 2490.0,100.6 2492.5,100.6 2492.5,99.0 2495.0,99.0 2495.0,91.0 2497.5,91.0 2497.5,88.8 2500.0,88.8 2500.0,84.2 2502.5,84.2 2502.5,66.8 2505.0,66.8 2505.0,65.2 2507.5,65.2 2507.5,65.0 2510.0,65.0 2510.0,63.0 2512.5,63.0 2512.5,57.400000000000006 2515.0,57.400000000000006 2515.0,56.0 2520.0,56.0 2520.0,55.0" stroke="rgb(0,0,0)" /><text fill="black" x="2435.0" y="121.6">H174</text><polygon fill="rgb(255,150,150)" points="2585.0,55.0 2585.0,54.0 2582.5,54.0 2582.5,50.4 2580.0,50.4 2580.0,47.6 2577.5,47.6 2577.5,14.799999999999997 2575.0,14.799999999999997 2575.0,10.0 2572.5,10.0 2572.5,8.599999999999994 2570.0,8.599999999999994 2570.0,8.400000000000006 2567.5,8.400000000000006 2567.5,8.400000000000006 2565.0,8.400000000000006 2565.0,8.599999999999994 2562.5,8.599999999999994 2562.5,10.0 2560.0,10.0 2560.0,14.799999999999997 2557.5,14.799999999999997 2557.5,47.6 2555.0,47.6 2555.0,50.4 2552.5,50.4 2552.5,54.0 2550.0,54.0 2550.0,55.0 2550.0,55.0 2550.0,56.0 2552.5,56.0 2552.5,59.6 2555.0,59.6 2555.0,62.4 2557.5,62.4 2557.5,95.2 2560.0,95.2 2560.0,100.0 2562.5,100.0 2562.5,101.4 2565.0,101.4 2565.0,101.6 2567.5,101.6 2567.5,101.6 2570.0,101.6 2570.0,101.4 2572.5,101.4 2572.5,100.0 2575.0,100.0 2575.0,95.2 2577.5,95.2 2577.5,62.4 2580.0,62.4 2580.0,59.6 2582.5,59.6 2582.5,56.0 2585.0,56.0 2585.0,55.0" stroke="rgb(0,0,0)" /><text fill="black" x="2550.0" y="121.6">E179</text><polygon fill="rgb(150,150,150)" points="2710.0,55.0 2710.0,54.8 2692.5,54.8 2692.5,54.0 2690.0,54.0 2690.0,52.4 2687.5,52.4 2687.5,52.199999999999996 2680.0,52.199999999999996 2680.0,44.2 2677.5,44.2 2677.5,28.4 2675.0,28.4 2675.0,22.000000000000007 2672.5,22.000000000000007 2672.5,20.6 2670.0,20.6 2670.0,20.0 2662.5,20.0 2662.5,20.0 2655.0,20.0 2655.0,20.6 2652.5,20.6 2652.5,22.000000000000007 2650.0,22.000000000000007 2650.0,28.4 2647.5,28.4 2647.5,44.2 2645.0,44.2 2645.0,52.199999999999996 2637.5,52.199999999999996 2637.5,52.4 2635.0,52.4 2635.0,54.0 2632.5,54.0 2632.5,54.8 2615.0,54.8 2615.0,55.0 2615.0,55.0 2615.0,55.2 2632.5,55.2 2632.5,56.0 2635.0,56.0 2635.0,57.6 2637.5,57.6 2637.5,57.800000000000004 2645.0,57.800000000000004 2645.0,65.8 2647.5,65.8 2647.5,81.6 2650.0,81.6 2650.0,88.0 2652.5,88.0 2652.5,89.4 2655.0,89.4 2655.0,90.0 2662.5,90.0 2662.5,90.0 2670.0,90.0 2670.0,89.4 2672.5,89.4 2672.5,88.0 2675.0,88.0 2675.0,81.6 2677.5,81.6 2677.5,65.8 2680.0,65.8 2680.0,57.800000000000004 2687.5,57.800000000000004 2687.5,57.6 2690.0,57.6 2690.0,56.0 2692.5,56.0 2692.5,55.2 2710.0,55.2 2710.0,55.0" stroke="rgb(0,0,0)" /><text fill="black" x="2615.0" y="110.0">H180</text><polygon fill="rgb(150,150,150)" points="2870.0,55.0 2870.0,54.4 2862.5,54.4 2862.5,52.4 2860.0,52.4 2860.0,51.800000000000004 2857.5,51.800000000000004 2857.5,49.4 2855.0,49.4 2855.0,46.199999999999996 2852.5,46.199999999999996 2852.5,43.0 2850.0,43.0 2850.0,39.8 2847.5,39.8 2847.5,39.4 2845.0,39.4 2845.0,37.400000000000006 2842.5,37.400000000000006 2842.5,36.0 2840.0,36.0 2840.0,35.0 2837.5,35.0 2837.5,30.0 2835.0,30.0 2835.0,27.599999999999998 2832.5,27.599999999999998 2832.5,24.8 2830.0,24.8 2830.0,21.200000000000003 2827.5,21.200000000000003 2827.5,20.0 2825.0,20.0 2825.0,18.0 2822.5,18.0 2822.5,17.799999999999997 2820.0,17.799999999999997 2820.0,17.6 2805.0,17.6 2805.0,17.6 2790.0,17.6 2790.0,17.799999999999997 2787.5,17.799999999999997 2787.5,18.0 2785.0,18.0 2785.0,20.0 2782.5,20.0 2782.5,21.200000000000003 2780.0,21.200000000000003 2780.0,24.8 2777.5,24.8 2777.5,27.599999999999998 2775.0,27.599999999999998 2775.0,30.0 2772.5,30.0 2772.5,35.0 2770.0,35.0 2770.0,36.0 2767.5,36.0 2767.5,37.400000000000006 2765.0,37.400000000000006 2765.0,39.4 2762.5,39.4 2762.5,39.8 2760.0,39.8 2760.0,43.0 2757.5,43.0 2757.5,46.199999999999996 2755.0,46.199999999999996 2755.0,49.4 2752.5,49.4 2752.5,51.800000000000004 2750.0,51.800000000000004 2750.0,52.4 2747.5,52.4 2747.5,54.4 2740.0,54.4 2740.0,55.0 2740.0,55.0 2740.0,55.6 2747.5,55.6 2747.5,57.6 2750.0,57.6 2750.0,58.199999999999996 2752.5,58.199999999999996 2752.5,60.6 2755.0,60.6 2755.0,63.800000000000004 2757.5,63.800000000000004 2757.5,67.0 2760.0,67.0 2760.0,70.2 2762.5,70.2 2762.5,70.60000000000001 2765.0,70.60000000000001 2765.0,72.6 2767.5,72.6 2767.5,74.0 2770.0,74.0 2770.0,75.0 2772.5,75.0 2772.5,80.0 2775.0,80.0 2775.0,82.4 2777.5,82.4 2777.5,85.2 2780.0,85.2 2780.0,88.8 2782.5,88.8 2782.5,90.0 2785.0,90.0 2785.0,92.0 2787.5,92.0 2787.5,92.2 2790.0,92.2 2790.0,92.4 2805.0,92.4 2805.0,92.4 2820.0,92.4 2820.0,92.2 2822.5,92.2 2822.5,92.0 2825.0,92.0 2825.0,90.0 2827.5,90.0 2827.5,88.8 2830.0,88.8 2830.0,85.2 2832.5,85.2 2832.5,82.4 2835.0,82.4 2835.0,80.0 2837.5,80.0 2837.5,75.0 2840.0,75.0 2840.0,74.0 2842.5,74.0 2842.5,72.6 2845.0,72.6 2845.0,70.60000000000001 2847.5,70.60000000000001 2847.5,70.2 2850.0,70.2 2850.0,67.0 2852.5,67.0 2852.5,63.800000000000004 2855.0,63.800000000000004 2855.0,60.6 2857.5,60.6 2857.5,58.199999999999996 2860.0,58.199999999999996 2860.0,57.6 2862.5,57.6 2862.5,55.6 2870.0,55.6 2870.0,55.0" stroke="rgb(0,0,0)" /><text fill="black" x="2740.0" y="112.4">H204</text><path d="M 187.5,55.0 a 69.30009811975172,69.30009811975172 0 0,0 -47.5,-0.0" stroke="rgb(150,150,255)" stroke-width="2" /><path d="M 187.5,55.0 a 69.30009811975172,69.30009811975172 0 0,0 -47.5,-0.0" stroke="rgb(0,0,0)" stroke-width="0.2" /><path d="M 250.0,55.0 a 355.6818181818182,355.6818181818182 0 0,0 380.0,-0.0" stroke="rgb(255,150,150)" stroke-width="2" /><path d="M 250.0,55.0 a 355.6818181818182,355.6818181818182 0 0,0 380.0,-0.0" stroke="rgb(0,0,0)" stroke-width="0.2" /><path d="M 250.0,55.0 a 12233.87784090909,12233.87784090909 0 0,0 2317.5,-0.0" stroke="rgb(255,150,150)" stroke-width="2" /><path d="M 250.0,55.0 a 12233.87784090909,12233.87784090909 0 0,0 2317.5,-0.0" stroke="rgb(0,0,0)" stroke-width="0.2" /><path d="M 440.0,55.0 a 65.4050586510264,65.4050586510264 0 0,0 -45.0,-0.0" stroke="rgb(150,255,150)" stroke-width="2" /><path d="M 440.0,55.0 a 65.4050586510264,65.4050586510264 0 0,0 -45.0,-0.0" stroke="rgb(0,0,0)" stroke-width="0.2" /><path d="M 630.0,55.0 a 382.10227272727275,382.10227272727275 0 0,0 395.0,-0.0" stroke="rgb(255,150,150)" stroke-width="2" /><path d="M 630.0,55.0 a 382.10227272727275,382.10227272727275 0 0,0 395.0,-0.0" stroke="rgb(0,0,0)" stroke-width="0.2" /><path d="M 1025.0,55.0 a 125.35511363636364,125.35511363636364 0 0,0 207.5,-0.0" stroke="rgb(255,150,150)" stroke-width="2" /><path d="M 1025.0,55.0 a 125.35511363636364,125.35511363636364 0 0,0 207.5,-0.0" stroke="rgb(0,0,0)" stroke-width="0.2" /><path d="M 1232.5,55.0 a 208.8778409090909,208.8778409090909 0 0,0 282.5,-0.0" stroke="rgb(255,150,150)" stroke-width="2" /><path d="M 1232.5,55.0 a 208.8778409090909,208.8778409090909 0 0,0 282.5,-0.0" stroke="rgb(0,0,0)" stroke-width="0.2" /><path d="M 1515.0,55.0 a 309.9005681818182,309.9005681818182 0 0,0 352.5,-0.0" stroke="rgb(255,150,150)" stroke-width="2" /><path d="M 1515.0,55.0 a 309.9005681818182,309.9005681818182 0 0,0 352.5,-0.0" stroke="rgb(0,0,0)" stroke-width="0.2" /><path d="M 1867.5,55.0 a 433.19602272727275,433.19602272727275 0 0,0 422.5,-0.0" stroke="rgb(255,150,150)" stroke-width="2" /><path d="M 1867.5,55.0 a 433.19602272727275,433.19602272727275 0 0,0 422.5,-0.0" stroke="rgb(0,0,0)" stroke-width="0.2" /><path d="M 2290.0,55.0 a 202.51420454545453,202.51420454545453 0 0,0 277.5,-0.0" stroke="rgb(255,150,150)" stroke-width="2" /><path d="M 2290.0,55.0 a 202.51420454545453,202.51420454545453 0 0,0 277.5,-0.0" stroke="rgb(0,0,0)" stroke-width="0.2" /></svg>