<?xml version="1.0" encoding="utf-8" ?>
<svg baseProfile="full" height="100%" style="font-size:14;font-family:Sans, Arial;stroke-width:1;fill:none" version="1.1" width="100%" xmlns="http://www.w3.org/2000/svg" xmlns:ev="http://www.w3.org/2001/xml-events" xmlns:xlink="http://www.w3.org/1999/xlink"><defs /><rect fill="none" height="130.0" stroke="none" width="1987.1284499999997" x="0" y="0" /><line stroke="rgb(0,0,0)" x1="5.0" x2="63.5715" y1="55.0" y2="55.0" /><line stroke="rgb(0,0,0)" x1="63.5715" x2="83.57150000000001" y1="55.0" y2="55.0" /><line stroke="rgb(0,0,0)" x1="83.57150000000001" x2="88.57150000000001" y1="55.0" y2="55.0" /><line stroke="rgb(0,0,0)" x1="88.57150000000001" x2="107.48815" y1="55.0" y2="55.0" /><line stroke="rgb(0,0,0)" x1="107.48815" x2="127.48815000000002" y1="55.0" y2="55.0" /><line stroke="rgb(0,0,0)" x1="127.48815000000002" x2="132.48815000000002" y1="55.0" y2="55.0" /><line stroke="rgb(0,0,0)" x1="132.48815000000002" x2="149.30065000000002" y1="55.0" y2="55.0" /><line stroke="rgb(0,0,0)" x1="149.30065000000002" x2="169.30065" y1="55.0" y2="55.0" /><line stroke="rgb(0,0,0)" x1="169.30065" x2="174.30065" y1="55.0" y2="55.0" /><line stroke="rgb(0,0,0)" x1="174.30065" x2="203.59785" y1="55.0" y2="55.0" /><line stroke="rgb(0,0,0)" x1="203.59785" x2="223.59785" y1="55.0" y2="55.0" /><line stroke="rgb(0,0,0)" x1="223.59785" x2="228.59785" y1="55.0" y2="55.0" /><line stroke="rgb(0,0,0)" x1="228.59785" x2="253.32004999999998" y1="55.0" y2="55.0" /><line stroke="rgb(0,0,0)" x1="253.32004999999998" x2="273.32005" y1="55.0" y2="55.0" /><line stroke="rgb(0,0,0)" x1="273.32005" x2="278.32005" y1="55.0" y2="55.0" /><line stroke="rgb(0,0,0)" x1="278.32005" x2="291.1649" y1="55.0" y2="55.0" /><line stroke="rgb(0,0,0)" x1="291.1649" x2="311.1649" y1="55.0" y2="55.0" /><line stroke="rgb(0,0,0)" x1="311.1649" x2="316.1649" y1="55.0" y2="55.0" /><line stroke="rgb(0,0,0)" x1="316.1649" x2="326.39215" y1="55.0" y2="55.0" /><line stroke="rgb(0,0,0)" x1="326.39215" x2="346.39215" y1="55.0" y2="55.0" /><line stroke="rgb(0,0,0)" x1="346.39215" x2="351.39215" y1="55.0" y2="55.0" /><line stroke="rgb(0,0,0)" x1="351.39215" x2="422.47365" y1="55.0" y2="55.0" /><line stroke="rgb(0,0,0)" x1="422.47365" x2="442.47365" y1="55.0" y2="55.0" /><line stroke="rgb(0,0,0)" x1="442.47365" x2="447.47365" y1="55.0" y2="55.0" /><line stroke="rgb(0,0,0)" x1="447.47365" x2="475.60375" y1="55.0" y2="55.0" /><line stroke="rgb(0,0,0)" x1="475.60375" x2="495.60375" y1="55.0" y2="55.0" /><line stroke="rgb(0,0,0)" x1="495.60375" x2="500.60375" y1="55.0" y2="55.0" /><line stroke="rgb(0,0,0)" x1="500.60375" x2="530.7277" y1="55.0" y2="55.0" /><line stroke="rgb(0,0,0)" x1="530.7277" x2="550.7277" y1="55.0" y2="55.0" /><line stroke="rgb(0,0,0)" x1="550.7277" x2="555.7277" y1="55.0" y2="55.0" /><line stroke="rgb(0,0,0)" x1="555.7277" x2="625.3202" y1="55.0" y2="55.0" /><line stroke="rgb(0,0,0)" x1="625.3202" x2="645.3201999999999" y1="55.0" y2="55.0" /><line stroke="rgb(0,0,0)" x1="645.3201999999999" x2="650.3201999999999" y1="55.0" y2="55.0" /><line stroke="rgb(0,0,0)" x1="650.3201999999999" x2="679.9355999999999" y1="55.0" y2="55.0" /><line stroke="rgb(0,0,0)" x1="679.9355999999999" x2="699.9355999999999" y1="55.0" y2="55.0" /><line stroke="rgb(0,0,0)" x1="699.9355999999999" x2="704.9355999999999" y1="55.0" y2="55.0" /><line stroke="rgb(0,0,0)" x1="704.9355999999999" x2="733.6294999999998" y1="55.0" y2="55.0" /><line stroke="rgb(0,0,0)" x1="733.6294999999998" x2="753.6294999999998" y1="55.0" y2="55.0" /><line stroke="rgb(0,0,0)" x1="753.6294999999998" x2="758.6294999999998" y1="55.0" y2="55.0" /><line stroke="rgb(0,0,0)" x1="758.6294999999998" x2="824.8909999999998" y1="55.0" y2="55.0" /><line stroke="rgb(0,0,0)" x1="824.8909999999998" x2="844.8909999999998" y1="55.0" y2="55.0" /><line stroke="rgb(0,0,0)" x1="844.8909999999998" x2="849.8909999999998" y1="55.0" y2="55.0" /><line stroke="rgb(0,0,0)" x1="849.8909999999998" x2="878.2377499999998" y1="55.0" y2="55.0" /><line stroke="rgb(0,0,0)" x1="878.2377499999998" x2="898.2377499999998" y1="55.0" y2="55.0" /><line stroke="rgb(0,0,0)" x1="898.2377499999998" x2="903.2377499999998" y1="55.0" y2="55.0" /><line stroke="rgb(0,0,0)" x1="903.2377499999998" x2="930.4221999999999" y1="55.0" y2="55.0" /><line stroke="rgb(0,0,0)" x1="930.4221999999999" x2="950.4221999999999" y1="55.0" y2="55.0" /><line stroke="rgb(0,0,0)" x1="950.4221999999999" x2="955.4221999999999" y1="55.0" y2="55.0" /><line stroke="rgb(0,0,0)" x1="955.4221999999999" x2="1029.8757" y1="55.0" y2="55.0" /><line stroke="rgb(0,0,0)" x1="1029.8757" x2="1049.8756999999998" y1="55.0" y2="55.0" /><line stroke="rgb(0,0,0)" x1="1049.8756999999998" x2="1054.8756999999998" y1="55.0" y2="55.0" /><line stroke="rgb(0,0,0)" x1="1054.8756999999998" x2="1086.86365" y1="55.0" y2="55.0" /><line stroke="rgb(0,0,0)" x1="1086.86365" x2="1106.86365" y1="55.0" y2="55.0" /><line stroke="rgb(0,0,0)" x1="1106.86365" x2="1111.86365" y1="55.0" y2="55.0" /><line stroke="rgb(0,0,0)" x1="1111.86365" x2="1143.89265" y1="55.0" y2="55.0" /><line stroke="rgb(0,0,0)" x1="1143.89265" x2="1163.89265" y1="55.0" y2="55.0" /><line stroke="rgb(0,0,0)" x1="1163.89265" x2="1168.89265" y1="55.0" y2="55.0" /><line stroke="rgb(0,0,0)" x1="1168.89265" x2="1238.11715" y1="55.0" y2="55.0" /><line stroke="rgb(0,0,0)" x1="1238.11715" x2="1258.11715" y1="55.0" y2="55.0" /><line stroke="rgb(0,0,0)" x1="1258.11715" x2="1263.11715" y1="55.0" y2="55.0" /><line stroke="rgb(0,0,0)" x1="1263.11715" x2="1287.29525" y1="55.0" y2="55.0" /><line stroke="rgb(0,0,0)" x1="1287.29525" x2="1307.29525" y1="55.0" y2="55.0" /><line stroke="rgb(0,0,0)" x1="1307.29525" x2="1312.29525" y1="55.0" y2="55.0" /><line stroke="rgb(0,0,0)" x1="1312.29525" x2="1338.49525" y1="55.0" y2="55.0" /><line stroke="rgb(0,0,0)" x1="1338.49525" x2="1358.49525" y1="55.0" y2="55.0" /><line stroke="rgb(0,0,0)" x1="1358.49525" x2="1363.49525" y1="55.0" y2="55.0" /><line stroke="rgb(0,0,0)" x1="1363.49525" x2="1385.99525" y1="55.0" y2="55.0" /><line stroke="rgb(0,0,0)" x1="1385.99525" x2="1405.99525" y1="55.0" y2="55.0" /><line stroke="rgb(0,0,0)" x1="1405.99525" x2="1410.99525" y1="55.0" y2="55.0" /><line stroke="rgb(0,0,0)" x1="1410.99525" x2="1437.599" y1="55.0" y2="55.0" /><line stroke="rgb(0,0,0)" x1="1437.599" x2="1457.599" y1="55.0" y2="55.0" /><line stroke="rgb(0,0,0)" x1="1457.599" x2="1462.599" y1="55.0" y2="55.0" /><line stroke="rgb(0,0,0)" x1="1462.599" x2="1535.1209999999996" y1="55.0" y2="55.0" /><line stroke="rgb(0,0,0)" x1="1535.1209999999996" x2="1555.1209999999996" y1="55.0" y2="55.0" /><line stroke="rgb(0,0,0)" x1="1555.1209999999996" x2="1560.1209999999996" y1="55.0" y2="55.0" /><line stroke="rgb(0,0,0)" x1="1560.1209999999996" x2="1586.1924499999998" y1="55.0" y2="55.0" /><line stroke="rgb(0,0,0)" x1="1586.1924499999998" x2="1606.1924499999998" y1="55.0" y2="55.0" /><line stroke="rgb(0,0,0)" x1="1606.1924499999998" x2="1611.1924499999998" y1="55.0" y2="55.0" /><line stroke="rgb(0,0,0)" x1="1611.1924499999998" x2="1636.7432999999996" y1="55.0" y2="55.0" /><line stroke="rgb(0,0,0)" x1="1636.7432999999996" x2="1656.7432999999996" y1="55.0" y2="55.0" /><line stroke="rgb(0,0,0)" x1="1656.7432999999996" x2="1661.7432999999996" y1="55.0" y2="55.0" /><line stroke="rgb(0,0,0)" x1="1661.7432999999996" x2="1688.3586999999998" y1="55.0" y2="55.0" /><line stroke="rgb(0,0,0)" x1="1688.3586999999998" x2="1708.3586999999998" y1="55.0" y2="55.0" /><line stroke="rgb(0,0,0)" x1="1708.3586999999998" x2="1713.3586999999998" y1="55.0" y2="55.0" /><line stroke="rgb(0,0,0)" x1="1713.3586999999998" x2="1768.3372499999996" y1="55.0" y2="55.0" /><line stroke="rgb(0,0,0)" x1="1768.3372499999996" x2="1788.3372499999996" y1="55.0" y2="55.0" /><line stroke="rgb(0,0,0)" x1="1788.3372499999996" x2="1793.3372499999996" y1="55.0" y2="55.0" /><line stroke="rgb(0,0,0)" x1="1793.3372499999996" x2="1818.8522499999997" y1="55.0" y2="55.0" /><line stroke="rgb(0,0,0)" x1="1818.8522499999997" x2="1838.8522499999997" y1="55.0" y2="55.0" /><line stroke="rgb(0,0,0)" x1="1838.8522499999997" x2="1843.8522499999997" y1="55.0" y2="55.0" /><line stroke="rgb(0,0,0)" x1="1843.8522499999997" x2="1880.7379499999997" y1="55.0" y2="55.0" /><line stroke="rgb(0,0,0)" x1="1880.7379499999997" x2="1900.7379499999997" y1="55.0" y2="55.0" /><line stroke="rgb(0,0,0)" x1="1900.7379499999997" x2="1905.7379499999997" y1="55.0" y2="55.0" /><rect fill="rgb(150,150,150)" height="28.000000000000004" stroke="rgb(0,0,0)" width="53.5715" x="5.0" y="41.0" /><text fill="black" x="5.0" y="89.0">H11</text><rect fill="rgb(150,150,255)" height="24.0" stroke="rgb(0,0,0)" width="13.916649999999999" x="88.57150000000001" y="43.0" /><text fill="black" x="88.57150000000001" y="87.0">E13</text><rect fill="rgb(150,150,255)" height="32.0" stroke="rgb(0,0,0)" width="11.8125" x="132.48815000000002" y="39.0" /><text fill="black" x="132.48815000000002" y="91.0">E15</text><rect fill="rgb(255,150,150)" height="99.6" stroke="rgb(0,0,0)" width="24.2972" x="174.30065" y="5.200000000000003" /><text fill="black" x="174.30065" y="124.8">E32</text><rect fill="rgb(150,150,150)" height="21.6" stroke="rgb(0,0,0)" width="19.7222" x="228.59785" y="44.2" /><text fill="black" x="228.59785" y="85.8">H33</text><rect fill="rgb(150,255,150)" height="23.200000000000003" stroke="rgb(0,0,0)" width="7.84485" x="278.32005" y="43.4" /><text fill="black" x="278.32005" y="86.6">E45</text><rect fill="rgb(150,255,150)" height="8.799999999999999" stroke="rgb(0,0,0)" width="5.22725" x="316.1649" y="50.6" /><text fill="black" x="316.1649" y="79.4">E46</text><rect fill="rgb(150,150,150)" height="98.0" stroke="rgb(0,0,0)" width="66.0815" x="351.39215" y="6.0" /><text fill="black" x="351.39215" y="124.0">H50</text><rect fill="rgb(255,150,150)" height="98.4" stroke="rgb(0,0,0)" width="23.1301" x="447.47365" y="5.799999999999997" /><text fill="black" x="447.47365" y="124.2">E56</text><rect fill="rgb(150,150,150)" height="48.4" stroke="rgb(0,0,0)" width="25.12395" x="500.60375" y="30.8" /><text fill="black" x="500.60375" y="99.2">H62</text><rect fill="rgb(150,150,150)" height="93.2" stroke="rgb(0,0,0)" width="64.5925" x="555.7277" y="8.399999999999999" /><text fill="black" x="555.7277" y="121.6">H68</text><rect fill="rgb(150,150,150)" height="26.0" stroke="rgb(0,0,0)" width="24.615399999999998" x="650.3201999999999" y="42.0" /><text fill="black" x="650.3201999999999" y="88.0">H75</text><rect fill="rgb(255,150,150)" height="98.0" stroke="rgb(0,0,0)" width="23.6939" x="704.9355999999999" y="6.0" /><text fill="black" x="704.9355999999999" y="124.0">E87</text><rect fill="rgb(150,150,150)" height="88.8" stroke="rgb(0,0,0)" width="61.2615" x="758.6294999999998" y="10.600000000000001" /><text fill="black" x="758.6294999999998" y="119.4">H99</text><rect fill="rgb(255,150,150)" height="99.2" stroke="rgb(0,0,0)" width="23.34675" x="849.8909999999998" y="5.399999999999999" /><text fill="black" x="849.8909999999998" y="124.6">E102</text><rect fill="rgb(150,150,150)" height="41.199999999999996" stroke="rgb(0,0,0)" width="22.18445" x="903.2377499999998" y="34.400000000000006" /><text fill="black" x="903.2377499999998" y="95.6">H117</text><rect fill="rgb(150,150,150)" height="98.8" stroke="rgb(0,0,0)" width="69.4535" x="955.4221999999999" y="5.600000000000001" /><text fill="black" x="955.4221999999999" y="124.4">H119</text><rect fill="rgb(255,150,150)" height="99.6" stroke="rgb(0,0,0)" width="26.98795" x="1054.8756999999998" y="5.200000000000003" /><text fill="black" x="1054.8756999999998" y="124.8">E123</text><rect fill="rgb(150,150,150)" height="27.6" stroke="rgb(0,0,0)" width="27.029" x="1111.86365" y="41.2" /><text fill="black" x="1111.86365" y="88.8">H132</text><rect fill="rgb(150,150,150)" height="98.0" stroke="rgb(0,0,0)" width="64.2245" x="1168.89265" y="6.0" /><text fill="black" x="1168.89265" y="124.0">H136</text><rect fill="rgb(150,150,150)" height="29.2" stroke="rgb(0,0,0)" width="19.1781" x="1263.11715" y="40.4" /><text fill="black" x="1263.11715" y="89.6">H139</text><rect fill="rgb(255,150,150)" height="100.0" stroke="rgb(0,0,0)" width="21.200000000000003" x="1312.29525" y="5.0" /><text fill="black" x="1312.29525" y="125.0">E142</text><rect fill="rgb(150,150,150)" height="25.6" stroke="rgb(0,0,0)" width="17.5" x="1363.49525" y="42.2" /><text fill="black" x="1363.49525" y="87.8">H147</text><rect fill="rgb(150,150,150)" height="21.2" stroke="rgb(0,0,0)" width="21.60375" x="1410.99525" y="44.4" /><text fill="black" x="1410.99525" y="85.6">H149</text><rect fill="rgb(150,150,150)" height="91.2" stroke="rgb(0,0,0)" width="67.522" x="1462.599" y="9.399999999999999" /><text fill="black" x="1462.599" y="120.6">H160</text><rect fill="rgb(150,150,150)" height="28.000000000000004" stroke="rgb(0,0,0)" width="21.07145" x="1560.1209999999996" y="41.0" /><text fill="black" x="1560.1209999999996" y="89.0">H163</text><rect fill="rgb(255,150,150)" height="94.39999999999999" stroke="rgb(0,0,0)" width="20.55085" x="1611.1924499999998" y="7.800000000000004" /><text fill="black" x="1611.1924499999998" y="122.19999999999999">E165</text><rect fill="rgb(150,150,150)" height="26.0" stroke="rgb(0,0,0)" width="21.6154" x="1661.7432999999996" y="42.0" /><text fill="black" x="1661.7432999999996" y="88.0">H167</text><rect fill="rgb(150,150,150)" height="93.2" stroke="rgb(0,0,0)" width="49.978550000000006" x="1713.3586999999998" y="8.399999999999999" /><text fill="black" x="1713.3586999999998" y="121.6">H174</text><rect fill="rgb(255,150,150)" height="93.2" stroke="rgb(0,0,0)" width="20.515" x="1793.3372499999996" y="8.399999999999999" /><text fill="black" x="1793.3372499999996" y="121.6">E179</text><rect fill="rgb(150,150,150)" height="70.0" stroke="rgb(0,0,0)" width="31.8857" x="1843.8522499999997" y="20.0" /><text fill="black" x="1843.8522499999997" y="110.0">H180</text><rect fill="rgb(150,150,150)" height="74.8" stroke="rgb(0,0,0)" width="76.3905" x="1905.7379499999997" y="17.6" /><text fill="black" x="1905.7379499999997" y="112.4">H204</text></svg>