<?xml version="1.0" encoding="utf-8" ?>
<svg baseProfile="full" height="100%" style="font-size:14;font-family:Sans, Arial;stroke-width:1;fill:none" version="1.1" width="100%" xmlns="http://www.w3.org/2000/svg" xmlns:ev="http://www.w3.org/2001/xml-events" xmlns:xlink="http://www.w3.org/1999/xlink"><defs /><rect fill="none" height="280.0" stroke="none" width="1385.0" x="0" y="0" /><line stroke="rgb(0,0,0)" x1="5.0" x2="15.0" y1="130.0" y2="130.0" /><line stroke="rgb(0,0,0)" x1="15.0" x2="35.0" y1="130.0" y2="130.0" /><line stroke="rgb(0,0,0)" x1="35.0" x2="40.0" y1="130.0" y2="130.0" /><line stroke="rgb(0,0,0)" x1="40.0" x2="50.0" y1="130.0" y2="130.0" /><line stroke="rgb(0,0,0)" x1="50.0" x2="70.0" y1="130.0" y2="130.0" /><line stroke="rgb(0,0,0)" x1="70.0" x2="75.0" y1="130.0" y2="130.0" /><line stroke="rgb(0,0,0)" x1="75.0" x2="80.0" y1="130.0" y2="130.0" /><line stroke="rgb(0,0,0)" x1="80.0" x2="100.0" y1="130.0" y2="130.0" /><line stroke="rgb(0,0,0)" x1="100.0" x2="105.0" y1="130.0" y2="130.0" /><line stroke="rgb(0,0,0)" x1="105.0" x2="140.0" y1="130.0" y2="130.0" /><line stroke="rgb(0,0,0)" x1="140.0" x2="160.0" y1="130.0" y2="55.0" /><line stroke="rgb(0,0,0)" x1="160.0" x2="165.0" y1="55.0" y2="55.0" /><line stroke="rgb(0,0,0)" x1="105.0" x2="140.0" y1="130.0" y2="130.0" /><line stroke="rgb(0,0,0)" x1="140.0" x2="160.0" y1="130.0" y2="205.0" /><line stroke="rgb(0,0,0)" x1="160.0" x2="165.0" y1="205.0" y2="205.0" /><line stroke="rgb(0,0,0)" x1="165.0" x2="175.0" y1="55.0" y2="55.0" /><line stroke="rgb(0,0,0)" x1="175.0" x2="225.0" y1="55.0" y2="130.0" /><line stroke="rgb(0,0,0)" x1="225.0" x2="230.0" y1="130.0" y2="130.0" /><line stroke="rgb(0,0,0)" x1="165.0" x2="205.0" y1="205.0" y2="205.0" /><line stroke="rgb(0,0,0)" x1="205.0" x2="225.0" y1="205.0" y2="130.0" /><line stroke="rgb(0,0,0)" x1="225.0" x2="230.0" y1="130.0" y2="130.0" /><line stroke="rgb(0,0,0)" x1="230.0" x2="290.0" y1="130.0" y2="130.0" /><line stroke="rgb(0,0,0)" x1="290.0" x2="310.0" y1="130.0" y2="55.0" /><line stroke="rgb(0,0,0)" x1="310.0" x2="315.0" y1="55.0" y2="55.0" /><line stroke="rgb(0,0,0)" x1="230.0" x2="290.0" y1="130.0" y2="130.0" /><line stroke="rgb(0,0,0)" x1="290.0" x2="310.0" y1="130.0" y2="205.0" /><line stroke="rgb(0,0,0)" x1="310.0" x2="315.0" y1="205.0" y2="205.0" /><line stroke="rgb(0,0,0)" x1="315.0" x2="325.0" y1="55.0" y2="55.0" /><line stroke="rgb(0,0,0)" x1="325.0" x2="355.0" y1="55.0" y2="130.0" /><line stroke="rgb(0,0,0)" x1="355.0" x2="360.0" y1="130.0" y2="130.0" /><line stroke="rgb(0,0,0)" x1="315.0" x2="335.0" y1="205.0" y2="205.0" /><line stroke="rgb(0,0,0)" x1="335.0" x2="355.0" y1="205.0" y2="130.0" /><line stroke="rgb(0,0,0)" x1="355.0" x2="360.0" y1="130.0" y2="130.0" /><line stroke="rgb(0,0,0)" x1="360.0" x2="410.0" y1="130.0" y2="130.0" /><line stroke="rgb(0,0,0)" x1="410.0" x2="430.0" y1="130.0" y2="130.0" /><line stroke="rgb(0,0,0)" x1="430.0" x2="435.0" y1="130.0" y2="130.0" /><line stroke="rgb(0,0,0)" x1="435.0" x2="445.0" y1="130.0" y2="130.0" /><line stroke="rgb(0,0,0)" x1="445.0" x2="465.0" y1="130.0" y2="55.0" /><line stroke="rgb(0,0,0)" x1="465.0" x2="470.0" y1="55.0" y2="55.0" /><line stroke="rgb(0,0,0)" x1="435.0" x2="445.0" y1="130.0" y2="130.0" /><line stroke="rgb(0,0,0)" x1="445.0" x2="465.0" y1="130.0" y2="205.0" /><line stroke="rgb(0,0,0)" x1="465.0" x2="470.0" y1="205.0" y2="205.0" /><line stroke="rgb(0,0,0)" x1="470.0" x2="490.0" y1="55.0" y2="55.0" /><line stroke="rgb(0,0,0)" x1="490.0" x2="525.0" y1="55.0" y2="130.0" /><line stroke="rgb(0,0,0)" x1="525.0" x2="530.0" y1="130.0" y2="130.0" /><line stroke="rgb(0,0,0)" x1="470.0" x2="505.0" y1="205.0" y2="205.0" /><line stroke="rgb(0,0,0)" x1="505.0" x2="525.0" y1="205.0" y2="130.0" /><line stroke="rgb(0,0,0)" x1="525.0" x2="530.0" y1="130.0" y2="130.0" /><line stroke="rgb(0,0,0)" x1="530.0" x2="555.0" y1="130.0" y2="130.0" /><line stroke="rgb(0,0,0)" x1="555.0" x2="575.0" y1="130.0" y2="130.0" /><line stroke="rgb(0,0,0)" x1="575.0" x2="580.0" y1="130.0" y2="130.0" /><line stroke="rgb(0,0,0)" x1="580.0" x2="625.0" y1="130.0" y2="130.0" /><line stroke="rgb(0,0,0)" x1="625.0" x2="645.0" y1="130.0" y2="130.0" /><line stroke="rgb(0,0,0)" x1="645.0" x2="650.0" y1="130.0" y2="130.0" /><line stroke="rgb(0,0,0)" x1="650.0" x2="660.0" y1="130.0" y2="130.0" /><line stroke="rgb(0,0,0)" x1="660.0" x2="680.0" y1="130.0" y2="130.0" /><line stroke="rgb(0,0,0)" x1="680.0" x2="685.0" y1="130.0" y2="130.0" /><line stroke="rgb(0,0,0)" x1="685.0" x2="695.0" y1="130.0" y2="130.0" /><line stroke="rgb(0,0,0)" x1="695.0" x2="715.0" y1="130.0" y2="130.0" /><line stroke="rgb(0,0,0)" x1="715.0" x2="720.0" y1="130.0" y2="130.0" /><line stroke="rgb(0,0,0)" x1="720.0" x2="780.0" y1="130.0" y2="130.0" /><line stroke="rgb(0,0,0)" x1="780.0" x2="800.0" y1="130.0" y2="130.0" /><line stroke="rgb(0,0,0)" x1="800.0" x2="805.0" y1="130.0" y2="130.0" /><line stroke="rgb(0,0,0)" x1="805.0" x2="815.0" y1="130.0" y2="130.0" /><line stroke="rgb(0,0,0)" x1="815.0" x2="835.0" y1="130.0" y2="130.0" /><line stroke="rgb(0,0,0)" x1="835.0" x2="840.0" y1="130.0" y2="130.0" /><line stroke="rgb(0,0,0)" x1="840.0" x2="910.0" y1="130.0" y2="130.0" /><line stroke="rgb(0,0,0)" x1="910.0" x2="930.0" y1="130.0" y2="130.0" /><line stroke="rgb(0,0,0)" x1="930.0" x2="935.0" y1="130.0" y2="130.0" /><line stroke="rgb(0,0,0)" x1="935.0" x2="955.0" y1="130.0" y2="130.0" /><line stroke="rgb(0,0,0)" x1="955.0" x2="975.0" y1="130.0" y2="130.0" /><line stroke="rgb(0,0,0)" x1="975.0" x2="980.0" y1="130.0" y2="130.0" /><line stroke="rgb(0,0,0)" x1="980.0" x2="1055.0" y1="130.0" y2="130.0" /><line stroke="rgb(0,0,0)" x1="1055.0" x2="1075.0" y1="130.0" y2="130.0" /><line stroke="rgb(0,0,0)" x1="1075.0" x2="1080.0" y1="130.0" y2="130.0" /><line stroke="rgb(0,0,0)" x1="1080.0" x2="1090.0" y1="130.0" y2="130.0" /><line stroke="rgb(0,0,0)" x1="1090.0" x2="1110.0" y1="130.0" y2="130.0" /><line stroke="rgb(0,0,0)" x1="1110.0" x2="1115.0" y1="130.0" y2="130.0" /><line stroke="rgb(0,0,0)" x1="1115.0" x2="1165.0" y1="130.0" y2="130.0" /><line stroke="rgb(0,0,0)" x1="1165.0" x2="1185.0" y1="130.0" y2="130.0" /><line stroke="rgb(0,0,0)" x1="1185.0" x2="1190.0" y1="130.0" y2="130.0" /><line stroke="rgb(0,0,0)" x1="1190.0" x2="1210.0" y1="130.0" y2="130.0" /><line stroke="rgb(0,0,0)" x1="1210.0" x2="1230.0" y1="130.0" y2="130.0" /><line stroke="rgb(0,0,0)" x1="1230.0" x2="1235.0" y1="130.0" y2="130.0" /><line stroke="rgb(0,0,0)" x1="1235.0" x2="1245.0" y1="130.0" y2="130.0" /><line stroke="rgb(0,0,0)" x1="1245.0" x2="1265.0" y1="130.0" y2="130.0" /><line stroke="rgb(0,0,0)" x1="1265.0" x2="1270.0" y1="130.0" y2="130.0" /><line stroke="rgb(0,0,0)" x1="1270.0" x2="1280.0" y1="130.0" y2="130.0" /><line stroke="rgb(0,0,0)" x1="1280.0" x2="1300.0" y1="130.0" y2="130.0" /><line stroke="rgb(0,0,0)" x1="1300.0" x2="1305.0" y1="130.0" y2="130.0" /><line stroke="rgb(0,0,0)" x1="1305.0" x2="1350.0" y1="130.0" y2="130.0" /><line stroke="rgb(0,0,0)" x1="1350.0" x2="1370.0" y1="130.0" y2="130.0" /><line stroke="rgb(0,0,0)" x1="1370.0" x2="1375.0" y1="130.0" y2="130.0" /><polygon fill="rgb(255,150,255)" points="10.0,130.0 10.0,127.05882352941177 7.5,127.05882352941177 7.5,127.05882352941177 5.0,127.05882352941177 5.0,130.0 5.0,130.0 5.0,132.94117647058823 7.5,132.94117647058823 7.5,132.94117647058823 10.0,132.94117647058823 10.0,130.0" stroke="rgb(0,0,0)" /><text fill="black" x="5.0" y="152.941175">E0</text><polygon fill="rgb(255,150,255)" points="45.0,130.0 45.0,127.05882352941177 42.5,127.05882352941177 42.5,127.05882352941177 40.0,127.05882352941177 40.0,130.0 40.0,130.0 40.0,132.94117647058823 42.5,132.94117647058823 42.5,132.94117647058823 45.0,132.94117647058823 45.0,130.0" stroke="rgb(0,0,0)" /><text fill="black" x="40.0" y="152.941175">E1</text><polygon fill="rgb(150,150,150)" points="75.0,130.0 75.0,130.0 75.0,130.0 75.0,130.0" stroke="rgb(0,0,0)" /><text fill="black" x="75.0" y="150.0">X2</text><polygon fill="rgb(255,150,150)" points="135.0,130.0 135.0,124.11764705882352 132.5,124.11764705882352 132.5,121.17647058823529 122.5,121.17647058823529 122.5,119.70588235294117 120.0,119.70588235294117 120.0,119.70588235294117 117.5,119.70588235294117 117.5,121.17647058823529 107.5,121.17647058823529 107.5,124.11764705882352 105.0,124.11764705882352 105.0,130.0 105.0,130.0 105.0,135.88235294117646 107.5,135.88235294117646 107.5,138.8235294117647 117.5,138.8235294117647 117.5,140.29411764705884 120.0,140.29411764705884 120.0,140.29411764705884 122.5,140.29411764705884 122.5,138.8235294117647 132.5,138.8235294117647 132.5,135.88235294117646 135.0,135.88235294117646 135.0,130.0" stroke="rgb(0,0,0)" /><text fill="black" x="105.0" y="160.29410000000001">E3</text><polygon fill="rgb(255,150,150)" points="170.0,55.0 170.0,53.529411764705884 167.5,53.529411764705884 167.5,53.529411764705884 165.0,53.529411764705884 165.0,55.0 165.0,55.0 165.0,56.470588235294116 167.5,56.470588235294116 167.5,56.470588235294116 170.0,56.470588235294116 170.0,55.0" stroke="rgb(0,0,0)" /><text fill="black" x="165.0" y="76.47059">E4</text><polygon fill="rgb(150,150,150)" points="200.0,205.0 200.0,202.05882352941177 190.0,202.05882352941177 190.0,199.11764705882354 182.5,199.11764705882354 182.5,199.11764705882354 175.0,199.11764705882354 175.0,202.05882352941177 165.0,202.05882352941177 165.0,205.0 165.0,205.0 165.0,207.94117647058823 175.0,207.94117647058823 175.0,210.88235294117646 182.5,210.88235294117646 182.5,210.88235294117646 190.0,210.88235294117646 190.0,207.94117647058823 200.0,207.94117647058823 200.0,205.0" stroke="rgb(0,0,0)" /><text fill="black" x="165.0" y="230.88235">H5</text><polygon fill="rgb(150,150,150)" points="285.0,130.0 285.0,84.41176470588235 282.5,84.41176470588235 282.5,81.47058823529412 257.5,81.47058823529412 257.5,81.47058823529412 232.5,81.47058823529412 232.5,84.41176470588235 230.0,84.41176470588235 230.0,130.0 230.0,130.0 230.0,175.58823529411765 232.5,175.58823529411765 232.5,178.52941176470588 257.5,178.52941176470588 257.5,178.52941176470588 282.5,178.52941176470588 282.5,175.58823529411765 285.0,175.58823529411765 285.0,130.0" stroke="rgb(0,0,0)" /><text fill="black" x="230.0" y="198.5294">H6</text><polygon fill="rgb(255,255,150)" points="320.0,55.0 320.0,53.529411764705884 317.5,53.529411764705884 317.5,53.529411764705884 315.0,53.529411764705884 315.0,55.0 315.0,55.0 315.0,56.470588235294116 317.5,56.470588235294116 317.5,56.470588235294116 320.0,56.470588235294116 320.0,55.0" stroke="rgb(0,0,0)" /><text fill="black" x="315.0" y="76.47059">E7</text><polygon fill="rgb(150,150,150)" points="330.0,205.0 330.0,202.05882352941177 322.5,202.05882352941177 322.5,202.05882352941177 315.0,202.05882352941177 315.0,205.0 315.0,205.0 315.0,207.94117647058823 322.5,207.94117647058823 322.5,207.94117647058823 330.0,207.94117647058823 330.0,205.0" stroke="rgb(0,0,0)" /><text fill="black" x="315.0" y="227.941175">H8</text><polygon fill="rgb(255,150,150)" points="405.0,130.0 405.0,128.52941176470588 402.5,128.52941176470588 402.5,127.05882352941177 397.5,127.05882352941177 397.5,121.17647058823529 392.5,121.17647058823529 392.5,118.23529411764706 390.0,118.23529411764706 390.0,116.76470588235294 387.5,116.76470588235294 387.5,82.94117647058823 385.0,82.94117647058823 385.0,81.47058823529412 382.5,81.47058823529412 382.5,81.47058823529412 380.0,81.47058823529412 380.0,82.94117647058823 377.5,82.94117647058823 377.5,116.76470588235294 375.0,116.76470588235294 375.0,118.23529411764706 372.5,118.23529411764706 372.5,121.17647058823529 367.5,121.17647058823529 367.5,127.05882352941177 362.5,127.05882352941177 362.5,128.52941176470588 360.0,128.52941176470588 360.0,130.0 360.0,130.0 360.0,131.47058823529412 362.5,131.47058823529412 362.5,132.94117647058823 367.5,132.94117647058823 367.5,138.8235294117647 372.5,138.8235294117647 372.5,141.76470588235296 375.0,141.76470588235296 375.0,143.23529411764704 377.5,143.23529411764704 377.5,177.05882352941177 380.0,177.05882352941177 380.0,178.52941176470588 382.5,178.52941176470588 382.5,178.52941176470588 385.0,178.52941176470588 385.0,177.05882352941177 387.5,177.05882352941177 387.5,143.23529411764704 390.0,143.23529411764704 390.0,141.76470588235296 392.5,141.76470588235296 392.5,138.8235294117647 397.5,138.8235294117647 397.5,132.94117647058823 402.5,132.94117647058823 402.5,131.47058823529412 405.0,131.47058823529412 405.0,130.0" stroke="rgb(0,0,0)" /><text fill="black" x="360.0" y="198.5294">E9</text><polygon fill="rgb(255,150,150)" points="440.0,130.0 440.0,128.52941176470588 437.5,128.52941176470588 437.5,128.52941176470588 435.0,128.52941176470588 435.0,130.0 435.0,130.0 435.0,131.47058823529412 437.5,131.47058823529412 437.5,131.47058823529412 440.0,131.47058823529412 440.0,130.0" stroke="rgb(0,0,0)" /><text fill="black" x="435.0" y="151.47059">E10</text><polygon fill="rgb(150,150,150)" points="485.0,55.0 485.0,44.705882352941174 477.5,44.705882352941174 477.5,44.705882352941174 470.0,44.705882352941174 470.0,55.0 470.0,55.0 470.0,65.29411764705883 477.5,65.29411764705883 477.5,65.29411764705883 485.0,65.29411764705883 485.0,55.0" stroke="rgb(0,0,0)" /><text fill="black" x="470.0" y="85.2941">H11</text><polygon fill="rgb(255,150,150)" points="500.0,205.0 500.0,203.52941176470588 497.5,203.52941176470588 497.5,202.05882352941177 485.0,202.05882352941177 485.0,202.05882352941177 472.5,202.05882352941177 472.5,203.52941176470588 470.0,203.52941176470588 470.0,205.0 470.0,205.0 470.0,206.47058823529412 472.5,206.47058823529412 472.5,207.94117647058823 485.0,207.94117647058823 485.0,207.94117647058823 497.5,207.94117647058823 497.5,206.47058823529412 500.0,206.47058823529412 500.0,205.0" stroke="rgb(0,0,0)" /><text fill="black" x="470.0" y="227.941175">E12</text><polygon fill="rgb(255,150,150)" points="550.0,130.0 550.0,127.05882352941177 547.5,127.05882352941177 547.5,125.58823529411765 545.0,125.58823529411765 545.0,88.82352941176471 542.5,88.82352941176471 542.5,81.47058823529412 540.0,81.47058823529412 540.0,81.47058823529412 537.5,81.47058823529412 537.5,88.82352941176471 535.0,88.82352941176471 535.0,125.58823529411765 532.5,125.58823529411765 532.5,127.05882352941177 530.0,127.05882352941177 530.0,130.0 530.0,130.0 530.0,132.94117647058823 532.5,132.94117647058823 532.5,134.41176470588235 535.0,134.41176470588235 535.0,171.1764705882353 537.5,171.1764705882353 537.5,178.52941176470588 540.0,178.52941176470588 540.0,178.52941176470588 542.5,178.52941176470588 542.5,171.1764705882353 545.0,171.1764705882353 545.0,134.41176470588235 547.5,134.41176470588235 547.5,132.94117647058823 550.0,132.94117647058823 550.0,130.0" stroke="rgb(0,0,0)" /><text fill="black" x="530.0" y="198.5294">E13</text><polygon fill="rgb(150,150,150)" points="620.0,130.0 620.0,84.41176470588235 617.5,84.41176470588235 617.5,81.47058823529412 600.0,81.47058823529412 600.0,81.47058823529412 582.5,81.47058823529412 582.5,84.41176470588235 580.0,84.41176470588235 580.0,130.0 580.0,130.0 580.0,175.58823529411765 582.5,175.58823529411765 582.5,178.52941176470588 600.0,178.52941176470588 600.0,178.52941176470588 617.5,178.52941176470588 617.5,175.58823529411765 620.0,175.58823529411765 620.0,130.0" stroke="rgb(0,0,0)" /><text fill="black" x="580.0" y="198.5294">H14</text><polygon fill="rgb(150,255,150)" points="655.0,130.0 655.0,112.3529411764706 652.5,112.3529411764706 652.5,112.3529411764706 650.0,112.3529411764706 650.0,130.0 650.0,130.0 650.0,147.64705882352942 652.5,147.64705882352942 652.5,147.64705882352942 655.0,147.64705882352942 655.0,130.0" stroke="rgb(0,0,0)" /><text fill="black" x="650.0" y="167.64705">E15</text><polygon fill="rgb(150,255,255)" points="690.0,130.0 690.0,127.05882352941177 687.5,127.05882352941177 687.5,127.05882352941177 685.0,127.05882352941177 685.0,130.0 685.0,130.0 685.0,132.94117647058823 687.5,132.94117647058823 687.5,132.94117647058823 690.0,132.94117647058823 690.0,130.0" stroke="rgb(0,0,0)" /><text fill="black" x="685.0" y="152.941175">E16</text><polygon fill="rgb(150,150,150)" points="775.0,130.0 775.0,127.05882352941177 772.5,127.05882352941177 772.5,80.0 747.5,80.0 747.5,80.0 722.5,80.0 722.5,127.05882352941177 720.0,127.05882352941177 720.0,130.0 720.0,130.0 720.0,132.94117647058823 722.5,132.94117647058823 722.5,180.0 747.5,180.0 747.5,180.0 772.5,180.0 772.5,132.94117647058823 775.0,132.94117647058823 775.0,130.0" stroke="rgb(0,0,0)" /><text fill="black" x="720.0" y="200.0">H17</text><polygon fill="rgb(150,150,255)" points="810.0,130.0 810.0,90.29411764705881 807.5,90.29411764705881 807.5,90.29411764705881 805.0,90.29411764705881 805.0,130.0 805.0,130.0 805.0,169.7058823529412 807.5,169.7058823529412 807.5,169.7058823529412 810.0,169.7058823529412 810.0,130.0" stroke="rgb(0,0,0)" /><text fill="black" x="805.0" y="189.70589999999999">E18</text><polygon fill="rgb(150,150,150)" points="905.0,130.0 905.0,125.58823529411765 902.5,125.58823529411765 902.5,122.6470588235294 900.0,122.6470588235294 900.0,82.94117647058823 887.5,82.94117647058823 887.5,80.0 872.5,80.0 872.5,80.0 857.5,80.0 857.5,82.94117647058823 845.0,82.94117647058823 845.0,122.6470588235294 842.5,122.6470588235294 842.5,125.58823529411765 840.0,125.58823529411765 840.0,130.0 840.0,130.0 840.0,134.41176470588235 842.5,134.41176470588235 842.5,137.35294117647058 845.0,137.35294117647058 845.0,177.05882352941177 857.5,177.05882352941177 857.5,180.0 872.5,180.0 872.5,180.0 887.5,180.0 887.5,177.05882352941177 900.0,177.05882352941177 900.0,137.35294117647058 902.5,137.35294117647058 902.5,134.41176470588235 905.0,134.41176470588235 905.0,130.0" stroke="rgb(0,0,0)" /><text fill="black" x="840.0" y="200.0">H19</text><polygon fill="rgb(150,150,150)" points="950.0,130.0 950.0,127.05882352941177 942.5,127.05882352941177 942.5,127.05882352941177 935.0,127.05882352941177 935.0,130.0 935.0,130.0 935.0,132.94117647058823 942.5,132.94117647058823 942.5,132.94117647058823 950.0,132.94117647058823 950.0,130.0" stroke="rgb(0,0,0)" /><text fill="black" x="935.0" y="152.941175">H20</text><polygon fill="rgb(150,150,150)" points="1050.0,130.0 1050.0,121.17647058823529 1047.5,121.17647058823529 1047.5,96.17647058823529 1042.5,96.17647058823529 1042.5,82.94117647058823 1040.0,82.94117647058823 1040.0,80.0 1015.0,80.0 1015.0,80.0 990.0,80.0 990.0,82.94117647058823 987.5,82.94117647058823 987.5,96.17647058823529 982.5,96.17647058823529 982.5,121.17647058823529 980.0,121.17647058823529 980.0,130.0 980.0,130.0 980.0,138.8235294117647 982.5,138.8235294117647 982.5,163.8235294117647 987.5,163.8235294117647 987.5,177.05882352941177 990.0,177.05882352941177 990.0,180.0 1015.0,180.0 1015.0,180.0 1040.0,180.0 1040.0,177.05882352941177 1042.5,177.05882352941177 1042.5,163.8235294117647 1047.5,163.8235294117647 1047.5,138.8235294117647 1050.0,138.8235294117647 1050.0,130.0" stroke="rgb(0,0,0)" /><text fill="black" x="980.0" y="200.0">H21</text><polygon fill="rgb(150,255,255)" points="1085.0,130.0 1085.0,127.05882352941177 1082.5,127.05882352941177 1082.5,127.05882352941177 1080.0,127.05882352941177 1080.0,130.0 1080.0,130.0 1080.0,132.94117647058823 1082.5,132.94117647058823 1082.5,132.94117647058823 1085.0,132.94117647058823 1085.0,130.0" stroke="rgb(0,0,0)" /><text fill="black" x="1080.0" y="152.941175">E22</text><polygon fill="rgb(150,150,150)" points="1160.0,130.0 1160.0,125.58823529411765 1157.5,125.58823529411765 1157.5,80.0 1137.5,80.0 1137.5,80.0 1117.5,80.0 1117.5,125.58823529411765 1115.0,125.58823529411765 1115.0,130.0 1115.0,130.0 1115.0,134.41176470588235 1117.5,134.41176470588235 1117.5,180.0 1137.5,180.0 1137.5,180.0 1157.5,180.0 1157.5,134.41176470588235 1160.0,134.41176470588235 1160.0,130.0" stroke="rgb(0,0,0)" /><text fill="black" x="1115.0" y="200.0">H23</text><polygon fill="rgb(150,150,150)" points="1205.0,130.0 1205.0,119.70588235294117 1197.5,119.70588235294117 1197.5,119.70588235294117 1190.0,119.70588235294117 1190.0,130.0 1190.0,130.0 1190.0,140.29411764705884 1197.5,140.29411764705884 1197.5,140.29411764705884 1205.0,140.29411764705884 1205.0,130.0" stroke="rgb(0,0,0)" /><text fill="black" x="1190.0" y="160.29410000000001">H24</text><polygon fill="rgb(150,150,255)" points="1240.0,130.0 1240.0,90.29411764705881 1237.5,90.29411764705881 1237.5,90.29411764705881 1235.0,90.29411764705881 1235.0,130.0 1235.0,130.0 1235.0,169.7058823529412 1237.5,169.7058823529412 1237.5,169.7058823529412 1240.0,169.7058823529412 1240.0,130.0" stroke="rgb(0,0,0)" /><text fill="black" x="1235.0" y="189.70589999999999">E25</text><polygon fill="rgb(255,255,150)" points="1275.0,130.0 1275.0,128.52941176470588 1272.5,128.52941176470588 1272.5,128.52941176470588 1270.0,128.52941176470588 1270.0,130.0 1270.0,130.0 1270.0,131.47058823529412 1272.5,131.47058823529412 1272.5,131.47058823529412 1275.0,131.47058823529412 1275.0,130.0" stroke="rgb(0,0,0)" /><text fill="black" x="1270.0" y="151.47059">E26</text><polygon fill="rgb(150,150,150)" points="1345.0,130.0 1345.0,127.05882352941177 1342.5,127.05882352941177 1342.5,81.47058823529412 1325.0,81.47058823529412 1325.0,81.47058823529412 1307.5,81.47058823529412 1307.5,127.05882352941177 1305.0,127.05882352941177 1305.0,130.0 1305.0,130.0 1305.0,132.94117647058823 1307.5,132.94117647058823 1307.5,178.52941176470588 1325.0,178.52941176470588 1325.0,178.52941176470588 1342.5,178.52941176470588 1342.5,132.94117647058823 1345.0,132.94117647058823 1345.0,130.0" stroke="rgb(0,0,0)" /><text fill="black" x="1305.0" y="198.5294">H27</text><polygon fill="rgb(150,255,150)" points="1380.0,130.0 1380.0,112.3529411764706 1377.5,112.3529411764706 1377.5,112.3529411764706 1375.0,112.3529411764706 1375.0,130.0 1375.0,130.0 1375.0,147.64705882352942 1377.5,147.64705882352942 1377.5,147.64705882352942 1380.0,147.64705882352942 1380.0,130.0" stroke="rgb(0,0,0)" /><text fill="black" x="1375.0" y="167.64705">E28</text><path d="M 42.5,130.0 a 27.903117715617718,27.903117715617718 0 0,0 -35.0,-0.0" stroke="rgb(255,150,255)" stroke-width="2" /><path d="M 42.5,130.0 a 27.903117715617718,27.903117715617718 0 0,0 -35.0,-0.0" stroke="rgb(0,0,0)" stroke-width="0.2" /><path d="M 382.5,130.0 a 335.24124031089394,335.24124031089394 0 0,0 -262.5,-0.0" stroke="rgb(255,150,150)" stroke-width="2" /><path d="M 382.5,130.0 a 335.24124031089394,335.24124031089394 0 0,0 -262.5,-0.0" stroke="rgb(0,0,0)" stroke-width="0.2" /><path d="M 437.5,130.0 a 443.6725069768331,443.6725069768331 0 0,0 -317.5,-0.0" stroke="rgb(255,150,150)" stroke-width="2" /><path d="M 437.5,130.0 a 443.6725069768331,443.6725069768331 0 0,0 -317.5,-0.0" stroke="rgb(0,0,0)" stroke-width="0.2" /><path d="M 167.5,55.0 a 355.63920454545456,355.63920454545456 0 0,0 372.5,75.0" stroke="rgb(255,150,150)" stroke-width="2" /><path d="M 167.5,55.0 a 355.63920454545456,355.63920454545456 0 0,0 372.5,75.0" stroke="rgb(0,0,0)" stroke-width="0.2" /><path d="M 317.5,55.0 a 2113.068181818182,2113.068181818182 0 0,0 955.0,75.0" stroke="rgb(255,255,150)" stroke-width="2" /><path d="M 317.5,55.0 a 2113.068181818182,2113.068181818182 0 0,0 955.0,75.0" stroke="rgb(0,0,0)" stroke-width="0.2" /><path d="M 485.0,205.0 a 125.26499641658626,125.26499641658626 0 0,0 -102.5,-75.0" stroke="rgb(255,150,150)" stroke-width="2" /><path d="M 485.0,205.0 a 125.26499641658626,125.26499641658626 0 0,0 -102.5,-75.0" stroke="rgb(0,0,0)" stroke-width="0.2" /><path d="M 540.0,130.0 a 165.49960443037975,165.49960443037975 0 0,0 -157.5,-0.0" stroke="rgb(255,150,150)" stroke-width="2" /><path d="M 540.0,130.0 a 165.49960443037975,165.49960443037975 0 0,0 -157.5,-0.0" stroke="rgb(0,0,0)" stroke-width="0.2" /><path d="M 1377.5,130.0 a 1670.9204318635457,1670.9204318635457 0 0,0 -725.0,-0.0" stroke="rgb(150,255,150)" stroke-width="2" /><path d="M 1377.5,130.0 a 1670.9204318635457,1670.9204318635457 0 0,0 -725.0,-0.0" stroke="rgb(0,0,0)" stroke-width="0.2" /><path d="M 1082.5,130.0 a 619.4371617965368,619.4371617965368 0 0,0 -395.0,-0.0" stroke="rgb(150,255,255)" stroke-width="2" /><path d="M 1082.5,130.0 a 619.4371617965368,619.4371617965368 0 0,0 -395.0,-0.0" stroke="rgb(0,0,0)" stroke-width="0.2" /><path d="M 1237.5,130.0 a 707.6574193133598,707.6574193133598 0 0,0 -430.0,-0.0" stroke="rgb(150,150,255)" stroke-width="2" /><path d="M 1237.5,130.0 a 707.6574193133598,707.6574193133598 0 0,0 -430.0,-0.0" stroke="rgb(0,0,0)" stroke-width="0.2" /></svg>