<?xml version="1.0" encoding="utf-8" ?>
<svg baseProfile="full" height="100%" style="font-size:14;font-family:Sans, Arial;stroke-width:1;fill:none" version="1.1" width="100%" xmlns="http://www.w3.org/2000/svg" xmlns:ev="http://www.w3.org/2001/xml-events" xmlns:xlink="http://www.w3.org/1999/xlink"><defs /><rect fill="none" height="130.0" stroke="none" width="897.4912000000002" x="0" y="0" /><line stroke="rgb(0,0,0)" x1="5.0" x2="35.0" y1="55.0" y2="55.0" /><line stroke="rgb(0,0,0)" x1="35.0" x2="55.0" y1="55.0" y2="55.0" /><line stroke="rgb(0,0,0)" x1="55.0" x2="60.0" y1="55.0" y2="55.0" /><line stroke="rgb(0,0,0)" x1="60.0" x2="119.697" y1="55.0" y2="55.0" /><line stroke="rgb(0,0,0)" x1="119.697" x2="139.697" y1="55.0" y2="55.0" /><line stroke="rgb(0,0,0)" x1="139.697" x2="144.697" y1="55.0" y2="55.0" /><line stroke="rgb(0,0,0)" x1="144.697" x2="164.697" y1="55.0" y2="55.0" /><line stroke="rgb(0,0,0)" x1="164.697" x2="184.697" y1="55.0" y2="55.0" /><line stroke="rgb(0,0,0)" x1="184.697" x2="189.697" y1="55.0" y2="55.0" /><line stroke="rgb(0,0,0)" x1="189.697" x2="209.697" y1="55.0" y2="55.0" /><line stroke="rgb(0,0,0)" x1="209.697" x2="229.697" y1="55.0" y2="55.0" /><line stroke="rgb(0,0,0)" x1="229.697" x2="234.697" y1="55.0" y2="55.0" /><line stroke="rgb(0,0,0)" x1="234.697" x2="249.697" y1="55.0" y2="55.0" /><line stroke="rgb(0,0,0)" x1="249.697" x2="269.697" y1="55.0" y2="55.0" /><line stroke="rgb(0,0,0)" x1="269.697" x2="274.697" y1="55.0" y2="55.0" /><line stroke="rgb(0,0,0)" x1="274.697" x2="319.39395" y1="55.0" y2="55.0" /><line stroke="rgb(0,0,0)" x1="319.39395" x2="339.39395" y1="55.0" y2="55.0" /><line stroke="rgb(0,0,0)" x1="339.39395" x2="344.39395" y1="55.0" y2="55.0" /><line stroke="rgb(0,0,0)" x1="344.39395" x2="354.39395" y1="55.0" y2="55.0" /><line stroke="rgb(0,0,0)" x1="354.39395" x2="374.39395" y1="55.0" y2="55.0" /><line stroke="rgb(0,0,0)" x1="374.39395" x2="379.39395" y1="55.0" y2="55.0" /><line stroke="rgb(0,0,0)" x1="379.39395" x2="434.68795000000006" y1="55.0" y2="55.0" /><line stroke="rgb(0,0,0)" x1="434.68795000000006" x2="454.68795000000006" y1="55.0" y2="55.0" /><line stroke="rgb(0,0,0)" x1="454.68795000000006" x2="459.68795000000006" y1="55.0" y2="55.0" /><line stroke="rgb(0,0,0)" x1="459.68795000000006" x2="469.68795000000006" y1="55.0" y2="55.0" /><line stroke="rgb(0,0,0)" x1="469.68795000000006" x2="489.68795000000006" y1="55.0" y2="55.0" /><line stroke="rgb(0,0,0)" x1="489.68795000000006" x2="494.68795000000006" y1="55.0" y2="55.0" /><line stroke="rgb(0,0,0)" x1="494.68795000000006" x2="554.39395" y1="55.0" y2="55.0" /><line stroke="rgb(0,0,0)" x1="554.39395" x2="574.39395" y1="55.0" y2="55.0" /><line stroke="rgb(0,0,0)" x1="574.39395" x2="579.39395" y1="55.0" y2="55.0" /><line stroke="rgb(0,0,0)" x1="579.39395" x2="646.7469500000001" y1="55.0" y2="55.0" /><line stroke="rgb(0,0,0)" x1="646.7469500000001" x2="666.7469500000002" y1="55.0" y2="55.0" /><line stroke="rgb(0,0,0)" x1="666.7469500000002" x2="671.7469500000002" y1="55.0" y2="55.0" /><line stroke="rgb(0,0,0)" x1="671.7469500000002" x2="717.1881500000002" y1="55.0" y2="55.0" /><line stroke="rgb(0,0,0)" x1="717.1881500000002" x2="737.1881500000002" y1="55.0" y2="55.0" /><line stroke="rgb(0,0,0)" x1="737.1881500000002" x2="742.1881500000002" y1="55.0" y2="55.0" /><line stroke="rgb(0,0,0)" x1="742.1881500000002" x2="762.1881500000002" y1="55.0" y2="55.0" /><line stroke="rgb(0,0,0)" x1="762.1881500000002" x2="782.1881500000002" y1="55.0" y2="55.0" /><line stroke="rgb(0,0,0)" x1="782.1881500000002" x2="787.1881500000002" y1="55.0" y2="55.0" /><line stroke="rgb(0,0,0)" x1="787.1881500000002" x2="797.1881500000002" y1="55.0" y2="55.0" /><line stroke="rgb(0,0,0)" x1="797.1881500000002" x2="817.1881500000002" y1="55.0" y2="55.0" /><line stroke="rgb(0,0,0)" x1="817.1881500000002" x2="822.1881500000002" y1="55.0" y2="55.0" /><line stroke="rgb(0,0,0)" x1="822.1881500000002" x2="862.4912000000002" y1="55.0" y2="55.0" /><line stroke="rgb(0,0,0)" x1="862.4912000000002" x2="882.4912000000002" y1="55.0" y2="55.0" /><line stroke="rgb(0,0,0)" x1="882.4912000000002" x2="887.4912000000002" y1="55.0" y2="55.0" /><rect fill="rgb(255,150,150)" height="20.5882" stroke="rgb(0,0,0)" width="25.0" x="5.0" y="44.7059" /><text fill="black" x="5.0" y="85.2941">E3</text><rect fill="rgb(150,150,150)" height="97.0588" stroke="rgb(0,0,0)" width="54.696999999999996" x="60.0" y="6.4705999999999975" /><text fill="black" x="60.0" y="123.52940000000001">H6</text><rect fill="rgb(255,150,150)" height="97.0588" stroke="rgb(0,0,0)" width="15.0" x="144.697" y="6.4705999999999975" /><text fill="black" x="144.697" y="123.52940000000001">E9</text><rect fill="rgb(150,150,150)" height="20.5882" stroke="rgb(0,0,0)" width="15.0" x="189.697" y="44.7059" /><text fill="black" x="189.697" y="85.2941">H11</text><rect fill="rgb(255,150,150)" height="97.0588" stroke="rgb(0,0,0)" width="10.0" x="234.697" y="6.4705999999999975" /><text fill="black" x="234.697" y="123.52940000000001">E13</text><rect fill="rgb(150,150,150)" height="97.0588" stroke="rgb(0,0,0)" width="39.69695" x="274.697" y="6.4705999999999975" /><text fill="black" x="274.697" y="123.52940000000001">H14</text><rect fill="rgb(150,255,150)" height="35.2941" stroke="rgb(0,0,0)" width="5.0" x="344.39395" y="37.35295" /><text fill="black" x="344.39395" y="92.64705000000001">E15</text><rect fill="rgb(150,150,150)" height="100.0" stroke="rgb(0,0,0)" width="50.294" x="379.39395" y="5.0" /><text fill="black" x="379.39395" y="125.0">H17</text><rect fill="rgb(150,150,255)" height="79.4118" stroke="rgb(0,0,0)" width="5.0" x="459.68795000000006" y="15.2941" /><text fill="black" x="459.68795000000006" y="114.7059">E18</text><rect fill="rgb(150,150,150)" height="100.0" stroke="rgb(0,0,0)" width="54.706" x="494.68795000000006" y="5.0" /><text fill="black" x="494.68795000000006" y="125.0">H19</text><rect fill="rgb(150,150,150)" height="100.0" stroke="rgb(0,0,0)" width="62.352999999999994" x="579.39395" y="5.0" /><text fill="black" x="579.39395" y="125.0">H21</text><rect fill="rgb(150,150,150)" height="100.0" stroke="rgb(0,0,0)" width="40.4412" x="671.7469500000002" y="5.0" /><text fill="black" x="671.7469500000002" y="125.0">H23</text><rect fill="rgb(150,150,150)" height="20.5882" stroke="rgb(0,0,0)" width="15.0" x="742.1881500000002" y="44.7059" /><text fill="black" x="742.1881500000002" y="85.2941">H24</text><rect fill="rgb(150,150,255)" height="79.4118" stroke="rgb(0,0,0)" width="5.0" x="787.1881500000002" y="15.2941" /><text fill="black" x="787.1881500000002" y="114.7059">E25</text><rect fill="rgb(150,150,150)" height="97.0588" stroke="rgb(0,0,0)" width="35.30305" x="822.1881500000002" y="6.4705999999999975" /><text fill="black" x="822.1881500000002" y="123.52940000000001">H27</text><rect fill="rgb(150,255,150)" height="35.2941" stroke="rgb(0,0,0)" width="5.0" x="887.4912000000002" y="37.35295" /><text fill="black" x="887.4912000000002" y="92.64705000000001">E28</text><path d="M 152.197,55.0 a 107.97382734654141,107.97382734654141 0 0,0 -134.697,-0.0" stroke="rgb(255,150,150)" stroke-width="2" /><path d="M 152.197,55.0 a 107.97382734654141,107.97382734654141 0 0,0 -134.697,-0.0" stroke="rgb(0,0,0)" stroke-width="0.2" /><path d="M 239.697,55.0 a 62.108472600206184,62.108472600206184 0 0,0 -87.5,-0.0" stroke="rgb(255,150,150)" stroke-width="2" /><path d="M 239.697,55.0 a 62.108472600206184,62.108472600206184 0 0,0 -87.5,-0.0" stroke="rgb(0,0,0)" stroke-width="0.2" /><path d="M 889.9912000000002,55.0 a 912.5770250981567,912.5770250981567 0 0,0 -543.0972500000001,-0.0" stroke="rgb(150,255,150)" stroke-width="2" /><path d="M 889.9912000000002,55.0 a 912.5770250981567,912.5770250981567 0 0,0 -543.0972500000001,-0.0" stroke="rgb(0,0,0)" stroke-width="0.2" /><path d="M 789.6881500000002,55.0 a 395.1322597116001,395.1322597116001 0 0,0 -327.5002000000001,-0.0" stroke="rgb(150,150,255)" stroke-width="2" /><path d="M 789.6881500000002,55.0 a 395.1322597116001,395.1322597116001 0 0,0 -327.5002000000001,-0.0" stroke="rgb(0,0,0)" stroke-width="0.2" /></svg>