<?xml version="1.0" encoding="utf-8" ?>
<svg baseProfile="full" height="100%" style="font-size:14;font-family:Sans, Arial;stroke-width:1;fill:none" version="1.1" width="100%" xmlns="http://www.w3.org/2000/svg" xmlns:ev="http://www.w3.org/2001/xml-events" xmlns:xlink="http://www.w3.org/1999/xlink"><defs /><rect fill="none" height="280.0" stroke="none" width="1294.9912" x="0" y="0" /><line stroke="rgb(0,0,0)" x1="5.0" x2="15.0" y1="130.0" y2="130.0" /><line stroke="rgb(0,0,0)" x1="15.0" x2="35.0" y1="130.0" y2="130.0" /><line stroke="rgb(0,0,0)" x1="35.0" x2="40.0" y1="130.0" y2="130.0" /><line stroke="rgb(0,0,0)" x1="40.0" x2="50.0" y1="130.0" y2="130.0" /><line stroke="rgb(0,0,0)" x1="50.0" x2="70.0" y1="130.0" y2="130.0" /><line stroke="rgb(0,0,0)" x1="70.0" x2="75.0" y1="130.0" y2="130.0" /><line stroke="rgb(0,0,0)" x1="75.0" x2="80.0" y1="130.0" y2="130.0" /><line stroke="rgb(0,0,0)" x1="80.0" x2="100.0" y1="130.0" y2="130.0" /><line stroke="rgb(0,0,0)" x1="100.0" x2="105.0" y1="130.0" y2="130.0" /><line stroke="rgb(0,0,0)" x1="105.0" x2="135.0" y1="130.0" y2="130.0" /><line stroke="rgb(0,0,0)" x1="135.0" x2="155.0" y1="130.0" y2="55.0" /><line stroke="rgb(0,0,0)" x1="155.0" x2="160.0" y1="55.0" y2="55.0" /><line stroke="rgb(0,0,0)" x1="105.0" x2="135.0" y1="130.0" y2="130.0" /><line stroke="rgb(0,0,0)" x1="135.0" x2="155.0" y1="130.0" y2="205.0" /><line stroke="rgb(0,0,0)" x1="155.0" x2="160.0" y1="205.0" y2="205.0" /><line stroke="rgb(0,0,0)" x1="160.0" x2="170.0" y1="55.0" y2="55.0" /><line stroke="rgb(0,0,0)" x1="170.0" x2="210.0" y1="55.0" y2="130.0" /><line stroke="rgb(0,0,0)" x1="210.0" x2="215.0" y1="130.0" y2="130.0" /><line stroke="rgb(0,0,0)" x1="160.0" x2="190.0" y1="205.0" y2="205.0" /><line stroke="rgb(0,0,0)" x1="190.0" x2="210.0" y1="205.0" y2="130.0" /><line stroke="rgb(0,0,0)" x1="210.0" x2="215.0" y1="130.0" y2="130.0" /><line stroke="rgb(0,0,0)" x1="215.0" x2="274.697" y1="130.0" y2="130.0" /><line stroke="rgb(0,0,0)" x1="274.697" x2="294.697" y1="130.0" y2="55.0" /><line stroke="rgb(0,0,0)" x1="294.697" x2="299.697" y1="55.0" y2="55.0" /><line stroke="rgb(0,0,0)" x1="215.0" x2="274.697" y1="130.0" y2="130.0" /><line stroke="rgb(0,0,0)" x1="274.697" x2="294.697" y1="130.0" y2="205.0" /><line stroke="rgb(0,0,0)" x1="294.697" x2="299.697" y1="205.0" y2="205.0" /><line stroke="rgb(0,0,0)" x1="299.697" x2="309.697" y1="55.0" y2="55.0" /><line stroke="rgb(0,0,0)" x1="309.697" x2="339.697" y1="55.0" y2="130.0" /><line stroke="rgb(0,0,0)" x1="339.697" x2="344.697" y1="130.0" y2="130.0" /><line stroke="rgb(0,0,0)" x1="299.697" x2="319.697" y1="205.0" y2="205.0" /><line stroke="rgb(0,0,0)" x1="319.697" x2="339.697" y1="205.0" y2="130.0" /><line stroke="rgb(0,0,0)" x1="339.697" x2="344.697" y1="130.0" y2="130.0" /><line stroke="rgb(0,0,0)" x1="344.697" x2="364.697" y1="130.0" y2="130.0" /><line stroke="rgb(0,0,0)" x1="364.697" x2="384.697" y1="130.0" y2="130.0" /><line stroke="rgb(0,0,0)" x1="384.697" x2="389.697" y1="130.0" y2="130.0" /><line stroke="rgb(0,0,0)" x1="389.697" x2="399.697" y1="130.0" y2="130.0" /><line stroke="rgb(0,0,0)" x1="399.697" x2="419.697" y1="130.0" y2="55.0" /><line stroke="rgb(0,0,0)" x1="419.697" x2="424.697" y1="55.0" y2="55.0" /><line stroke="rgb(0,0,0)" x1="389.697" x2="399.697" y1="130.0" y2="130.0" /><line stroke="rgb(0,0,0)" x1="399.697" x2="419.697" y1="130.0" y2="205.0" /><line stroke="rgb(0,0,0)" x1="419.697" x2="424.697" y1="205.0" y2="205.0" /><line stroke="rgb(0,0,0)" x1="424.697" x2="444.697" y1="55.0" y2="55.0" /><line stroke="rgb(0,0,0)" x1="444.697" x2="477.197" y1="55.0" y2="130.0" /><line stroke="rgb(0,0,0)" x1="477.197" x2="482.197" y1="130.0" y2="130.0" /><line stroke="rgb(0,0,0)" x1="424.697" x2="457.197" y1="205.0" y2="205.0" /><line stroke="rgb(0,0,0)" x1="457.197" x2="477.197" y1="205.0" y2="130.0" /><line stroke="rgb(0,0,0)" x1="477.197" x2="482.197" y1="130.0" y2="130.0" /><line stroke="rgb(0,0,0)" x1="482.197" x2="497.197" y1="130.0" y2="130.0" /><line stroke="rgb(0,0,0)" x1="497.197" x2="517.197" y1="130.0" y2="130.0" /><line stroke="rgb(0,0,0)" x1="517.197" x2="522.197" y1="130.0" y2="130.0" /><line stroke="rgb(0,0,0)" x1="522.197" x2="566.89395" y1="130.0" y2="130.0" /><line stroke="rgb(0,0,0)" x1="566.89395" x2="586.89395" y1="130.0" y2="130.0" /><line stroke="rgb(0,0,0)" x1="586.89395" x2="591.89395" y1="130.0" y2="130.0" /><line stroke="rgb(0,0,0)" x1="591.89395" x2="601.89395" y1="130.0" y2="130.0" /><line stroke="rgb(0,0,0)" x1="601.89395" x2="621.89395" y1="130.0" y2="130.0" /><line stroke="rgb(0,0,0)" x1="621.89395" x2="626.89395" y1="130.0" y2="130.0" /><line stroke="rgb(0,0,0)" x1="626.89395" x2="636.89395" y1="130.0" y2="130.0" /><line stroke="rgb(0,0,0)" x1="636.89395" x2="656.89395" y1="130.0" y2="130.0" /><line stroke="rgb(0,0,0)" x1="656.89395" x2="661.89395" y1="130.0" y2="130.0" /><line stroke="rgb(0,0,0)" x1="661.89395" x2="717.18795" y1="130.0" y2="130.0" /><line stroke="rgb(0,0,0)" x1="717.18795" x2="737.18795" y1="130.0" y2="130.0" /><line stroke="rgb(0,0,0)" x1="737.18795" x2="742.18795" y1="130.0" y2="130.0" /><line stroke="rgb(0,0,0)" x1="742.18795" x2="752.18795" y1="130.0" y2="130.0" /><line stroke="rgb(0,0,0)" x1="752.18795" x2="772.18795" y1="130.0" y2="130.0" /><line stroke="rgb(0,0,0)" x1="772.18795" x2="777.18795" y1="130.0" y2="130.0" /><line stroke="rgb(0,0,0)" x1="777.18795" x2="836.89395" y1="130.0" y2="130.0" /><line stroke="rgb(0,0,0)" x1="836.89395" x2="856.89395" y1="130.0" y2="130.0" /><line stroke="rgb(0,0,0)" x1="856.89395" x2="861.89395" y1="130.0" y2="130.0" /><line stroke="rgb(0,0,0)" x1="861.89395" x2="881.89395" y1="130.0" y2="130.0" /><line stroke="rgb(0,0,0)" x1="881.89395" x2="901.89395" y1="130.0" y2="130.0" /><line stroke="rgb(0,0,0)" x1="901.89395" x2="906.89395" y1="130.0" y2="130.0" /><line stroke="rgb(0,0,0)" x1="906.89395" x2="974.24695" y1="130.0" y2="130.0" /><line stroke="rgb(0,0,0)" x1="974.24695" x2="994.24695" y1="130.0" y2="130.0" /><line stroke="rgb(0,0,0)" x1="994.24695" x2="999.24695" y1="130.0" y2="130.0" /><line stroke="rgb(0,0,0)" x1="999.24695" x2="1009.24695" y1="130.0" y2="130.0" /><line stroke="rgb(0,0,0)" x1="1009.24695" x2="1029.24695" y1="130.0" y2="130.0" /><line stroke="rgb(0,0,0)" x1="1029.24695" x2="1034.24695" y1="130.0" y2="130.0" /><line stroke="rgb(0,0,0)" x1="1034.24695" x2="1079.68815" y1="130.0" y2="130.0" /><line stroke="rgb(0,0,0)" x1="1079.68815" x2="1099.68815" y1="130.0" y2="130.0" /><line stroke="rgb(0,0,0)" x1="1099.68815" x2="1104.68815" y1="130.0" y2="130.0" /><line stroke="rgb(0,0,0)" x1="1104.68815" x2="1124.68815" y1="130.0" y2="130.0" /><line stroke="rgb(0,0,0)" x1="1124.68815" x2="1144.68815" y1="130.0" y2="130.0" /><line stroke="rgb(0,0,0)" x1="1144.68815" x2="1149.68815" y1="130.0" y2="130.0" /><line stroke="rgb(0,0,0)" x1="1149.68815" x2="1159.68815" y1="130.0" y2="130.0" /><line stroke="rgb(0,0,0)" x1="1159.68815" x2="1179.68815" y1="130.0" y2="130.0" /><line stroke="rgb(0,0,0)" x1="1179.68815" x2="1184.68815" y1="130.0" y2="130.0" /><line stroke="rgb(0,0,0)" x1="1184.68815" x2="1194.68815" y1="130.0" y2="130.0" /><line stroke="rgb(0,0,0)" x1="1194.68815" x2="1214.68815" y1="130.0" y2="130.0" /><line stroke="rgb(0,0,0)" x1="1214.68815" x2="1219.68815" y1="130.0" y2="130.0" /><line stroke="rgb(0,0,0)" x1="1219.68815" x2="1259.9912" y1="130.0" y2="130.0" /><line stroke="rgb(0,0,0)" x1="1259.9912" x2="1279.9912" y1="130.0" y2="130.0" /><line stroke="rgb(0,0,0)" x1="1279.9912" x2="1284.9912" y1="130.0" y2="130.0" /><rect fill="rgb(255,150,255)" height="5.88235" stroke="rgb(0,0,0)" width="5.0" x="5.0" y="127.058825" /><text fill="black" x="5.0" y="152.941175">E0</text><rect fill="rgb(255,150,255)" height="5.88235" stroke="rgb(0,0,0)" width="5.0" x="40.0" y="127.058825" /><text fill="black" x="40.0" y="152.941175">E1</text><rect fill="rgb(150,150,150)" height="0.0" stroke="rgb(0,0,0)" width="0.0" x="75.0" y="130.0" /><text fill="black" x="75.0" y="150.0">X2</text><rect fill="rgb(255,150,150)" height="20.5882" stroke="rgb(0,0,0)" width="25.0" x="105.0" y="119.7059" /><text fill="black" x="105.0" y="160.29410000000001">E3</text><rect fill="rgb(255,150,150)" height="2.9411799999999997" stroke="rgb(0,0,0)" width="5.0" x="160.0" y="53.52941" /><text fill="black" x="160.0" y="76.47059">E4</text><rect fill="rgb(150,150,150)" height="11.7647" stroke="rgb(0,0,0)" width="25.0" x="160.0" y="199.11765" /><text fill="black" x="160.0" y="230.88235">H5</text><rect fill="rgb(150,150,150)" height="97.0588" stroke="rgb(0,0,0)" width="54.696999999999996" x="215.0" y="81.47059999999999" /><text fill="black" x="215.0" y="198.5294">H6</text><rect fill="rgb(255,255,150)" height="2.9411799999999997" stroke="rgb(0,0,0)" width="5.0" x="299.697" y="53.52941" /><text fill="black" x="299.697" y="76.47059">E7</text><rect fill="rgb(150,150,150)" height="5.88235" stroke="rgb(0,0,0)" width="15.0" x="299.697" y="202.058825" /><text fill="black" x="299.697" y="227.941175">H8</text><rect fill="rgb(255,150,150)" height="97.0588" stroke="rgb(0,0,0)" width="15.0" x="344.697" y="81.47059999999999" /><text fill="black" x="344.697" y="198.5294">E9</text><rect fill="rgb(255,150,150)" height="2.9411799999999997" stroke="rgb(0,0,0)" width="5.0" x="389.697" y="128.52941" /><text fill="black" x="389.697" y="151.47059">E10</text><rect fill="rgb(150,150,150)" height="20.5882" stroke="rgb(0,0,0)" width="15.0" x="424.697" y="44.7059" /><text fill="black" x="424.697" y="85.2941">H11</text><rect fill="rgb(255,150,150)" height="5.88235" stroke="rgb(0,0,0)" width="27.5" x="424.697" y="202.058825" /><text fill="black" x="424.697" y="227.941175">E12</text><rect fill="rgb(255,150,150)" height="97.0588" stroke="rgb(0,0,0)" width="10.0" x="482.197" y="81.47059999999999" /><text fill="black" x="482.197" y="198.5294">E13</text><rect fill="rgb(150,150,150)" height="97.0588" stroke="rgb(0,0,0)" width="39.69695" x="522.197" y="81.47059999999999" /><text fill="black" x="522.197" y="198.5294">H14</text><rect fill="rgb(150,255,150)" height="35.2941" stroke="rgb(0,0,0)" width="5.0" x="591.89395" y="112.35294999999999" /><text fill="black" x="591.89395" y="167.64705">E15</text><rect fill="rgb(150,255,255)" height="5.88235" stroke="rgb(0,0,0)" width="5.0" x="626.89395" y="127.058825" /><text fill="black" x="626.89395" y="152.941175">E16</text><rect fill="rgb(150,150,150)" height="100.0" stroke="rgb(0,0,0)" width="50.294" x="661.89395" y="80.0" /><text fill="black" x="661.89395" y="200.0">H17</text><rect fill="rgb(150,150,255)" height="79.4118" stroke="rgb(0,0,0)" width="5.0" x="742.18795" y="90.2941" /><text fill="black" x="742.18795" y="189.70589999999999">E18</text><rect fill="rgb(150,150,150)" height="100.0" stroke="rgb(0,0,0)" width="54.706" x="777.18795" y="80.0" /><text fill="black" x="777.18795" y="200.0">H19</text><rect fill="rgb(150,150,150)" height="5.88235" stroke="rgb(0,0,0)" width="15.0" x="861.89395" y="127.058825" /><text fill="black" x="861.89395" y="152.941175">H20</text><rect fill="rgb(150,150,150)" height="100.0" stroke="rgb(0,0,0)" width="62.352999999999994" x="906.89395" y="80.0" /><text fill="black" x="906.89395" y="200.0">H21</text><rect fill="rgb(150,255,255)" height="5.88235" stroke="rgb(0,0,0)" width="5.0" x="999.24695" y="127.058825" /><text fill="black" x="999.24695" y="152.941175">E22</text><rect fill="rgb(150,150,150)" height="100.0" stroke="rgb(0,0,0)" width="40.4412" x="1034.24695" y="80.0" /><text fill="black" x="1034.24695" y="200.0">H23</text><rect fill="rgb(150,150,150)" height="20.5882" stroke="rgb(0,0,0)" width="15.0" x="1104.68815" y="119.7059" /><text fill="black" x="1104.68815" y="160.29410000000001">H24</text><rect fill="rgb(150,150,255)" height="79.4118" stroke="rgb(0,0,0)" width="5.0" x="1149.68815" y="90.2941" /><text fill="black" x="1149.68815" y="189.70589999999999">E25</text><rect fill="rgb(255,255,150)" height="2.9411799999999997" stroke="rgb(0,0,0)" width="5.0" x="1184.68815" y="128.52941" /><text fill="black" x="1184.68815" y="151.47059">E26</text><rect fill="rgb(150,150,150)" height="97.0588" stroke="rgb(0,0,0)" width="35.30305" x="1219.68815" y="81.47059999999999" /><text fill="black" x="1219.68815" y="198.5294">H27</text><rect fill="rgb(150,255,150)" height="35.2941" stroke="rgb(0,0,0)" width="5.0" x="1284.9912" y="112.35294999999999" /><text fill="black" x="1284.9912" y="167.64705">E28</text></svg>