<?xml version="1.0" encoding="utf-8" ?>
<svg baseProfile="full" height="100%" style="font-size:14;font-family:Sans, Arial;stroke-width:1;fill:none" version="1.1" width="100%" xmlns="http://www.w3.org/2000/svg" xmlns:ev="http://www.w3.org/2001/xml-events" xmlns:xlink="http://www.w3.org/1999/xlink"><defs /><rect fill="none" height="130.0" stroke="none" width="975.0" x="0" y="0" /><line stroke="rgb(0,0,0)" x1="5.0" x2="40.0" y1="55.0" y2="55.0" /><line stroke="rgb(0,0,0)" x1="40.0" x2="60.0" y1="55.0" y2="55.0" /><line stroke="rgb(0,0,0)" x1="60.0" x2="65.0" y1="55.0" y2="55.0" /><line stroke="rgb(0,0,0)" x1="65.0" x2="125.0" y1="55.0" y2="55.0" /><line stroke="rgb(0,0,0)" x1="125.0" x2="145.0" y1="55.0" y2="55.0" /><line stroke="rgb(0,0,0)" x1="145.0" x2="150.0" y1="55.0" y2="55.0" /><line stroke="rgb(0,0,0)" x1="150.0" x2="200.0" y1="55.0" y2="55.0" /><line stroke="rgb(0,0,0)" x1="200.0" x2="220.0" y1="55.0" y2="55.0" /><line stroke="rgb(0,0,0)" x1="220.0" x2="225.0" y1="55.0" y2="55.0" /><line stroke="rgb(0,0,0)" x1="225.0" x2="245.0" y1="55.0" y2="55.0" /><line stroke="rgb(0,0,0)" x1="245.0" x2="265.0" y1="55.0" y2="55.0" /><line stroke="rgb(0,0,0)" x1="265.0" x2="270.0" y1="55.0" y2="55.0" /><line stroke="rgb(0,0,0)" x1="270.0" x2="295.0" y1="55.0" y2="55.0" /><line stroke="rgb(0,0,0)" x1="295.0" x2="315.0" y1="55.0" y2="55.0" /><line stroke="rgb(0,0,0)" x1="315.0" x2="320.0" y1="55.0" y2="55.0" /><line stroke="rgb(0,0,0)" x1="320.0" x2="365.0" y1="55.0" y2="55.0" /><line stroke="rgb(0,0,0)" x1="365.0" x2="385.0" y1="55.0" y2="55.0" /><line stroke="rgb(0,0,0)" x1="385.0" x2="390.0" y1="55.0" y2="55.0" /><line stroke="rgb(0,0,0)" x1="390.0" x2="400.0" y1="55.0" y2="55.0" /><line stroke="rgb(0,0,0)" x1="400.0" x2="420.0" y1="55.0" y2="55.0" /><line stroke="rgb(0,0,0)" x1="420.0" x2="425.0" y1="55.0" y2="55.0" /><line stroke="rgb(0,0,0)" x1="425.0" x2="485.0" y1="55.0" y2="55.0" /><line stroke="rgb(0,0,0)" x1="485.0" x2="505.0" y1="55.0" y2="55.0" /><line stroke="rgb(0,0,0)" x1="505.0" x2="510.0" y1="55.0" y2="55.0" /><line stroke="rgb(0,0,0)" x1="510.0" x2="520.0" y1="55.0" y2="55.0" /><line stroke="rgb(0,0,0)" x1="520.0" x2="540.0" y1="55.0" y2="55.0" /><line stroke="rgb(0,0,0)" x1="540.0" x2="545.0" y1="55.0" y2="55.0" /><line stroke="rgb(0,0,0)" x1="545.0" x2="615.0" y1="55.0" y2="55.0" /><line stroke="rgb(0,0,0)" x1="615.0" x2="635.0" y1="55.0" y2="55.0" /><line stroke="rgb(0,0,0)" x1="635.0" x2="640.0" y1="55.0" y2="55.0" /><line stroke="rgb(0,0,0)" x1="640.0" x2="715.0" y1="55.0" y2="55.0" /><line stroke="rgb(0,0,0)" x1="715.0" x2="735.0" y1="55.0" y2="55.0" /><line stroke="rgb(0,0,0)" x1="735.0" x2="740.0" y1="55.0" y2="55.0" /><line stroke="rgb(0,0,0)" x1="740.0" x2="790.0" y1="55.0" y2="55.0" /><line stroke="rgb(0,0,0)" x1="790.0" x2="810.0" y1="55.0" y2="55.0" /><line stroke="rgb(0,0,0)" x1="810.0" x2="815.0" y1="55.0" y2="55.0" /><line stroke="rgb(0,0,0)" x1="815.0" x2="835.0" y1="55.0" y2="55.0" /><line stroke="rgb(0,0,0)" x1="835.0" x2="855.0" y1="55.0" y2="55.0" /><line stroke="rgb(0,0,0)" x1="855.0" x2="860.0" y1="55.0" y2="55.0" /><line stroke="rgb(0,0,0)" x1="860.0" x2="870.0" y1="55.0" y2="55.0" /><line stroke="rgb(0,0,0)" x1="870.0" x2="890.0" y1="55.0" y2="55.0" /><line stroke="rgb(0,0,0)" x1="890.0" x2="895.0" y1="55.0" y2="55.0" /><line stroke="rgb(0,0,0)" x1="895.0" x2="940.0" y1="55.0" y2="55.0" /><line stroke="rgb(0,0,0)" x1="940.0" x2="960.0" y1="55.0" y2="55.0" /><line stroke="rgb(0,0,0)" x1="960.0" x2="965.0" y1="55.0" y2="55.0" /><polygon fill="rgb(255,150,150)" points="35.0,55.0 35.0,49.11764705882353 32.5,49.11764705882353 32.5,46.17647058823529 22.5,46.17647058823529 22.5,44.705882352941174 20.0,44.705882352941174 20.0,44.705882352941174 17.5,44.705882352941174 17.5,46.17647058823529 7.5,46.17647058823529 7.5,49.11764705882353 5.0,49.11764705882353 5.0,55.0 5.0,55.0 5.0,60.88235294117647 7.5,60.88235294117647 7.5,63.82352941176471 17.5,63.82352941176471 17.5,65.29411764705883 20.0,65.29411764705883 20.0,65.29411764705883 22.5,65.29411764705883 22.5,63.82352941176471 32.5,63.82352941176471 32.5,60.88235294117647 35.0,60.88235294117647 35.0,55.0" stroke="rgb(0,0,0)" /><text fill="black" x="5.0" y="85.2941">E3</text><polygon fill="rgb(150,150,150)" points="120.0,55.0 120.0,9.411764705882355 117.5,9.411764705882355 117.5,6.470588235294116 92.5,6.470588235294116 92.5,6.470588235294116 67.5,6.470588235294116 67.5,9.411764705882355 65.0,9.411764705882355 65.0,55.0 65.0,55.0 65.0,100.58823529411765 67.5,100.58823529411765 67.5,103.52941176470588 92.5,103.52941176470588 92.5,103.52941176470588 117.5,103.52941176470588 117.5,100.58823529411765 120.0,100.58823529411765 120.0,55.0" stroke="rgb(0,0,0)" /><text fill="black" x="65.0" y="123.52940000000001">H6</text><polygon fill="rgb(255,150,150)" points="195.0,55.0 195.0,53.529411764705884 192.5,53.529411764705884 192.5,52.05882352941176 187.5,52.05882352941176 187.5,46.17647058823529 182.5,46.17647058823529 182.5,43.23529411764706 180.0,43.23529411764706 180.0,41.76470588235294 177.5,41.76470588235294 177.5,7.941176470588239 175.0,7.941176470588239 175.0,6.470588235294116 172.5,6.470588235294116 172.5,6.470588235294116 170.0,6.470588235294116 170.0,7.941176470588239 167.5,7.941176470588239 167.5,41.76470588235294 165.0,41.76470588235294 165.0,43.23529411764706 162.5,43.23529411764706 162.5,46.17647058823529 157.5,46.17647058823529 157.5,52.05882352941176 152.5,52.05882352941176 152.5,53.529411764705884 150.0,53.529411764705884 150.0,55.0 150.0,55.0 150.0,56.470588235294116 152.5,56.470588235294116 152.5,57.94117647058824 157.5,57.94117647058824 157.5,63.82352941176471 162.5,63.82352941176471 162.5,66.76470588235294 165.0,66.76470588235294 165.0,68.23529411764706 167.5,68.23529411764706 167.5,102.05882352941177 170.0,102.05882352941177 170.0,103.52941176470588 172.5,103.52941176470588 172.5,103.52941176470588 175.0,103.52941176470588 175.0,102.05882352941177 177.5,102.05882352941177 177.5,68.23529411764706 180.0,68.23529411764706 180.0,66.76470588235294 182.5,66.76470588235294 182.5,63.82352941176471 187.5,63.82352941176471 187.5,57.94117647058824 192.5,57.94117647058824 192.5,56.470588235294116 195.0,56.470588235294116 195.0,55.0" stroke="rgb(0,0,0)" /><text fill="black" x="150.0" y="123.52940000000001">E9</text><polygon fill="rgb(150,150,150)" points="240.0,55.0 240.0,44.705882352941174 232.5,44.705882352941174 232.5,44.705882352941174 225.0,44.705882352941174 225.0,55.0 225.0,55.0 225.0,65.29411764705883 232.5,65.29411764705883 232.5,65.29411764705883 240.0,65.29411764705883 240.0,55.0" stroke="rgb(0,0,0)" /><text fill="black" x="225.0" y="85.2941">H11</text><polygon fill="rgb(255,150,150)" points="290.0,55.0 290.0,52.05882352941176 287.5,52.05882352941176 287.5,50.588235294117645 285.0,50.588235294117645 285.0,13.82352941176471 282.5,13.82352941176471 282.5,6.470588235294116 280.0,6.470588235294116 280.0,6.470588235294116 277.5,6.470588235294116 277.5,13.82352941176471 275.0,13.82352941176471 275.0,50.588235294117645 272.5,50.588235294117645 272.5,52.05882352941176 270.0,52.05882352941176 270.0,55.0 270.0,55.0 270.0,57.94117647058824 272.5,57.94117647058824 272.5,59.411764705882355 275.0,59.411764705882355 275.0,96.17647058823529 277.5,96.17647058823529 277.5,103.52941176470588 280.0,103.52941176470588 280.0,103.52941176470588 282.5,103.52941176470588 282.5,96.17647058823529 285.0,96.17647058823529 285.0,59.411764705882355 287.5,59.411764705882355 287.5,57.94117647058824 290.0,57.94117647058824 290.0,55.0" stroke="rgb(0,0,0)" /><text fill="black" x="270.0" y="123.52940000000001">E13</text><polygon fill="rgb(150,150,150)" points="360.0,55.0 360.0,9.411764705882355 357.5,9.411764705882355 357.5,6.470588235294116 340.0,6.470588235294116 340.0,6.470588235294116 322.5,6.470588235294116 322.5,9.411764705882355 320.0,9.411764705882355 320.0,55.0 320.0,55.0 320.0,100.58823529411765 322.5,100.58823529411765 322.5,103.52941176470588 340.0,103.52941176470588 340.0,103.52941176470588 357.5,103.52941176470588 357.5,100.58823529411765 360.0,100.58823529411765 360.0,55.0" stroke="rgb(0,0,0)" /><text fill="black" x="320.0" y="123.52940000000001">H14</text><polygon fill="rgb(150,255,150)" points="395.0,55.0 395.0,37.352941176470594 392.5,37.352941176470594 392.5,37.352941176470594 390.0,37.352941176470594 390.0,55.0 390.0,55.0 390.0,72.6470588235294 392.5,72.6470588235294 392.5,72.6470588235294 395.0,72.6470588235294 395.0,55.0" stroke="rgb(0,0,0)" /><text fill="black" x="390.0" y="92.64705000000001">E15</text><polygon fill="rgb(150,150,150)" points="480.0,55.0 480.0,52.05882352941176 477.5,52.05882352941176 477.5,5.0 452.5,5.0 452.5,5.0 427.5,5.0 427.5,52.05882352941176 425.0,52.05882352941176 425.0,55.0 425.0,55.0 425.0,57.94117647058824 427.5,57.94117647058824 427.5,105.0 452.5,105.0 452.5,105.0 477.5,105.0 477.5,57.94117647058824 480.0,57.94117647058824 480.0,55.0" stroke="rgb(0,0,0)" /><text fill="black" x="425.0" y="125.0">H17</text><polygon fill="rgb(150,150,255)" points="515.0,55.0 515.0,15.294117647058819 512.5,15.294117647058819 512.5,15.294117647058819 510.0,15.294117647058819 510.0,55.0 510.0,55.0 510.0,94.70588235294119 512.5,94.70588235294119 512.5,94.70588235294119 515.0,94.70588235294119 515.0,55.0" stroke="rgb(0,0,0)" /><text fill="black" x="510.0" y="114.7059">E18</text><polygon fill="rgb(150,150,150)" points="610.0,55.0 610.0,50.588235294117645 607.5,50.588235294117645 607.5,47.64705882352941 605.0,47.64705882352941 605.0,7.941176470588239 592.5,7.941176470588239 592.5,5.0 577.5,5.0 577.5,5.0 562.5,5.0 562.5,7.941176470588239 550.0,7.941176470588239 550.0,47.64705882352941 547.5,47.64705882352941 547.5,50.588235294117645 545.0,50.588235294117645 545.0,55.0 545.0,55.0 545.0,59.411764705882355 547.5,59.411764705882355 547.5,62.35294117647059 550.0,62.35294117647059 550.0,102.05882352941177 562.5,102.05882352941177 562.5,105.0 577.5,105.0 577.5,105.0 592.5,105.0 592.5,102.05882352941177 605.0,102.05882352941177 605.0,62.35294117647059 607.5,62.35294117647059 607.5,59.411764705882355 610.0,59.411764705882355 610.0,55.0" stroke="rgb(0,0,0)" /><text fill="black" x="545.0" y="125.0">H19</text><polygon fill="rgb(150,150,150)" points="710.0,55.0 710.0,46.17647058823529 707.5,46.17647058823529 707.5,21.17647058823529 702.5,21.17647058823529 702.5,7.941176470588239 700.0,7.941176470588239 700.0,5.0 675.0,5.0 675.0,5.0 650.0,5.0 650.0,7.941176470588239 647.5,7.941176470588239 647.5,21.17647058823529 642.5,21.17647058823529 642.5,46.17647058823529 640.0,46.17647058823529 640.0,55.0 640.0,55.0 640.0,63.82352941176471 642.5,63.82352941176471 642.5,88.82352941176471 647.5,88.82352941176471 647.5,102.05882352941177 650.0,102.05882352941177 650.0,105.0 675.0,105.0 675.0,105.0 700.0,105.0 700.0,102.05882352941177 702.5,102.05882352941177 702.5,88.82352941176471 707.5,88.82352941176471 707.5,63.82352941176471 710.0,63.82352941176471 710.0,55.0" stroke="rgb(0,0,0)" /><text fill="black" x="640.0" y="125.0">H21</text><polygon fill="rgb(150,150,150)" points="785.0,55.0 785.0,50.588235294117645 782.5,50.588235294117645 782.5,5.0 762.5,5.0 762.5,5.0 742.5,5.0 742.5,50.588235294117645 740.0,50.588235294117645 740.0,55.0 740.0,55.0 740.0,59.411764705882355 742.5,59.411764705882355 742.5,105.0 762.5,105.0 762.5,105.0 782.5,105.0 782.5,59.411764705882355 785.0,59.411764705882355 785.0,55.0" stroke="rgb(0,0,0)" /><text fill="black" x="740.0" y="125.0">H23</text><polygon fill="rgb(150,150,150)" points="830.0,55.0 830.0,44.705882352941174 822.5,44.705882352941174 822.5,44.705882352941174 815.0,44.705882352941174 815.0,55.0 815.0,55.0 815.0,65.29411764705883 822.5,65.29411764705883 822.5,65.29411764705883 830.0,65.29411764705883 830.0,55.0" stroke="rgb(0,0,0)" /><text fill="black" x="815.0" y="85.2941">H24</text><polygon fill="rgb(150,150,255)" points="865.0,55.0 865.0,15.294117647058819 862.5,15.294117647058819 862.5,15.294117647058819 860.0,15.294117647058819 860.0,55.0 860.0,55.0 860.0,94.70588235294119 862.5,94.70588235294119 862.5,94.70588235294119 865.0,94.70588235294119 865.0,55.0" stroke="rgb(0,0,0)" /><text fill="black" x="860.0" y="114.7059">E25</text><polygon fill="rgb(150,150,150)" points="935.0,55.0 935.0,52.05882352941176 932.5,52.05882352941176 932.5,6.470588235294116 915.0,6.470588235294116 915.0,6.470588235294116 897.5,6.470588235294116 897.5,52.05882352941176 895.0,52.05882352941176 895.0,55.0 895.0,55.0 895.0,57.94117647058824 897.5,57.94117647058824 897.5,103.52941176470588 915.0,103.52941176470588 915.0,103.52941176470588 932.5,103.52941176470588 932.5,57.94117647058824 935.0,57.94117647058824 935.0,55.0" stroke="rgb(0,0,0)" /><text fill="black" x="895.0" y="123.52940000000001">H27</text><polygon fill="rgb(150,255,150)" points="970.0,55.0 970.0,37.352941176470594 967.5,37.352941176470594 967.5,37.352941176470594 965.0,37.352941176470594 965.0,55.0 965.0,55.0 965.0,72.6470588235294 967.5,72.6470588235294 967.5,72.6470588235294 970.0,72.6470588235294 970.0,55.0" stroke="rgb(0,0,0)" /><text fill="black" x="965.0" y="92.64705000000001">E28</text><path d="M 172.5,55.0 a 132.50868623283193,132.50868623283193 0 0,0 -152.5,-0.0" stroke="rgb(255,150,150)" stroke-width="2" /><path d="M 172.5,55.0 a 132.50868623283193,132.50868623283193 0 0,0 -152.5,-0.0" stroke="rgb(0,0,0)" stroke-width="0.2" /><path d="M 280.0,55.0 a 83.67897727272728,83.67897727272728 0 0,0 -107.5,-0.0" stroke="rgb(255,150,150)" stroke-width="2" /><path d="M 280.0,55.0 a 83.67897727272728,83.67897727272728 0 0,0 -107.5,-0.0" stroke="rgb(0,0,0)" stroke-width="0.2" /><path d="M 967.5,55.0 a 1026.7857142857142,1026.7857142857142 0 0,0 -575.0,-0.0" stroke="rgb(150,255,150)" stroke-width="2" /><path d="M 967.5,55.0 a 1026.7857142857142,1026.7857142857142 0 0,0 -575.0,-0.0" stroke="rgb(0,0,0)" stroke-width="0.2" /><path d="M 862.5,55.0 a 451.18327773144284,451.18327773144284 0 0,0 -350.0,-0.0" stroke="rgb(150,150,255)" stroke-width="2" /><path d="M 862.5,55.0 a 451.18327773144284,451.18327773144284 0 0,0 -350.0,-0.0" stroke="rgb(0,0,0)" stroke-width="0.2" /></svg>