<?xml version="1.0" encoding="utf-8" ?>
<svg baseProfile="full" height="100%" style="font-size:14;font-family:Sans, Arial;stroke-width:1;fill:none" version="1.1" width="100%" xmlns="http://www.w3.org/2000/svg" xmlns:ev="http://www.w3.org/2001/xml-events" xmlns:xlink="http://www.w3.org/1999/xlink"><defs /><rect fill="none" height="150.0" stroke="none" width="747.4912" x="0" y="0" /><line stroke="rgb(0,0,0)" x1="5.0" x2="35.0" y1="75.0" y2="75.0" /><line stroke="rgb(0,0,0)" x1="35.0" x2="45.0" y1="75.0" y2="75.0" /><line stroke="rgb(0,0,0)" x1="45.0" x2="50.0" y1="75.0" y2="75.0" /><line stroke="rgb(0,0,0)" x1="50.0" x2="109.697" y1="75.0" y2="75.0" /><line stroke="rgb(0,0,0)" x1="109.697" x2="119.697" y1="75.0" y2="75.0" /><line stroke="rgb(0,0,0)" x1="119.697" x2="124.697" y1="75.0" y2="75.0" /><line stroke="rgb(0,0,0)" x1="124.697" x2="144.697" y1="75.0" y2="75.0" /><line stroke="rgb(0,0,0)" x1="144.697" x2="154.697" y1="75.0" y2="75.0" /><line stroke="rgb(0,0,0)" x1="154.697" x2="159.697" y1="75.0" y2="75.0" /><line stroke="rgb(0,0,0)" x1="159.697" x2="179.697" y1="75.0" y2="75.0" /><line stroke="rgb(0,0,0)" x1="179.697" x2="189.697" y1="75.0" y2="75.0" /><line stroke="rgb(0,0,0)" x1="189.697" x2="194.697" y1="75.0" y2="75.0" /><line stroke="rgb(0,0,0)" x1="194.697" x2="209.697" y1="75.0" y2="75.0" /><line stroke="rgb(0,0,0)" x1="209.697" x2="219.697" y1="75.0" y2="75.0" /><line stroke="rgb(0,0,0)" x1="219.697" x2="224.697" y1="75.0" y2="75.0" /><line stroke="rgb(0,0,0)" x1="224.697" x2="269.39395" y1="75.0" y2="75.0" /><line stroke="rgb(0,0,0)" x1="269.39395" x2="279.39395" y1="75.0" y2="75.0" /><line stroke="rgb(0,0,0)" x1="279.39395" x2="284.39395" y1="75.0" y2="75.0" /><line stroke="rgb(0,0,0)" x1="284.39395" x2="294.39395" y1="75.0" y2="75.0" /><line stroke="rgb(0,0,0)" x1="294.39395" x2="304.39395" y1="75.0" y2="75.0" /><line stroke="rgb(0,0,0)" x1="304.39395" x2="309.39395" y1="75.0" y2="75.0" /><line stroke="rgb(0,0,0)" x1="309.39395" x2="364.68795" y1="75.0" y2="75.0" /><line stroke="rgb(0,0,0)" x1="364.68795" x2="374.68795" y1="75.0" y2="75.0" /><line stroke="rgb(0,0,0)" x1="374.68795" x2="379.68795" y1="75.0" y2="75.0" /><line stroke="rgb(0,0,0)" x1="379.68795" x2="389.68795" y1="75.0" y2="75.0" /><line stroke="rgb(0,0,0)" x1="389.68795" x2="399.68795" y1="75.0" y2="75.0" /><line stroke="rgb(0,0,0)" x1="399.68795" x2="404.68795" y1="75.0" y2="75.0" /><line stroke="rgb(0,0,0)" x1="404.68795" x2="464.39394999999996" y1="75.0" y2="75.0" /><line stroke="rgb(0,0,0)" x1="464.39394999999996" x2="474.39394999999996" y1="75.0" y2="75.0" /><line stroke="rgb(0,0,0)" x1="474.39394999999996" x2="479.39394999999996" y1="75.0" y2="75.0" /><line stroke="rgb(0,0,0)" x1="479.39394999999996" x2="546.74695" y1="75.0" y2="75.0" /><line stroke="rgb(0,0,0)" x1="546.74695" x2="556.74695" y1="75.0" y2="75.0" /><line stroke="rgb(0,0,0)" x1="556.74695" x2="561.74695" y1="75.0" y2="75.0" /><line stroke="rgb(0,0,0)" x1="561.74695" x2="607.18815" y1="75.0" y2="75.0" /><line stroke="rgb(0,0,0)" x1="607.18815" x2="617.18815" y1="75.0" y2="75.0" /><line stroke="rgb(0,0,0)" x1="617.18815" x2="622.18815" y1="75.0" y2="75.0" /><line stroke="rgb(0,0,0)" x1="622.18815" x2="642.18815" y1="75.0" y2="75.0" /><line stroke="rgb(0,0,0)" x1="642.18815" x2="652.1881500000001" y1="75.0" y2="75.0" /><line stroke="rgb(0,0,0)" x1="652.1881500000001" x2="657.1881500000001" y1="75.0" y2="75.0" /><line stroke="rgb(0,0,0)" x1="657.1881500000001" x2="667.1881500000001" y1="75.0" y2="75.0" /><line stroke="rgb(0,0,0)" x1="667.1881500000001" x2="677.1881500000001" y1="75.0" y2="75.0" /><line stroke="rgb(0,0,0)" x1="677.1881500000001" x2="682.1881500000001" y1="75.0" y2="75.0" /><line stroke="rgb(0,0,0)" x1="682.1881500000001" x2="722.4912" y1="75.0" y2="75.0" /><line stroke="rgb(0,0,0)" x1="722.4912" x2="732.4912" y1="75.0" y2="75.0" /><line stroke="rgb(0,0,0)" x1="732.4912" x2="737.4912" y1="75.0" y2="75.0" /><rect fill="rgb(232,182,255)" height="20.5882" stroke="rgb(0,0,0)" width="25.0" x="5.0" y="64.7059" /><text fill="black" x="5.0" y="105.2941">E3</text><rect fill="rgb(18,14,255)" height="97.0588" stroke="rgb(0,0,0)" width="54.696999999999996" x="50.0" y="26.470599999999997" /><text fill="black" x="50.0" y="143.5294">H6</text><rect fill="rgb(255,156,199)" height="97.0588" stroke="rgb(0,0,0)" width="15.0" x="124.697" y="26.470599999999997" /><text fill="black" x="124.697" y="143.5294">E9</text><rect fill="rgb(255,42,54)" height="20.5882" stroke="rgb(0,0,0)" width="15.0" x="159.697" y="64.7059" /><text fill="black" x="159.697" y="105.2941">H11</text><rect fill="rgb(60,47,255)" height="97.0588" stroke="rgb(0,0,0)" width="10.0" x="194.697" y="26.470599999999997" /><text fill="black" x="194.697" y="143.5294">E13</text><rect fill="rgb(11,9,255)" height="97.0588" stroke="rgb(0,0,0)" width="39.69695" x="224.697" y="26.470599999999997" /><text fill="black" x="224.697" y="143.5294">H14</text><rect fill="rgb(12,10,255)" height="35.2941" stroke="rgb(0,0,0)" width="5.0" x="284.39395" y="57.35295" /><text fill="black" x="284.39395" y="112.64705000000001">E15</text><rect fill="rgb(20,16,255)" height="100.0" stroke="rgb(0,0,0)" width="50.294" x="309.39395" y="25.0" /><text fill="black" x="309.39395" y="145.0">H17</text><rect fill="rgb(13,10,255)" height="79.4118" stroke="rgb(0,0,0)" width="5.0" x="379.68795" y="35.2941" /><text fill="black" x="379.68795" y="134.70589999999999">E18</text><rect fill="rgb(62,48,255)" height="100.0" stroke="rgb(0,0,0)" width="54.706" x="404.68795" y="25.0" /><text fill="black" x="404.68795" y="145.0">H19</text><rect fill="rgb(57,44,255)" height="100.0" stroke="rgb(0,0,0)" width="62.352999999999994" x="479.39394999999996" y="25.0" /><text fill="black" x="479.39394999999996" y="145.0">H21</text><rect fill="rgb(20,15,255)" height="100.0" stroke="rgb(0,0,0)" width="40.4412" x="561.74695" y="25.0" /><text fill="black" x="561.74695" y="145.0">H23</text><rect fill="rgb(0,0,255)" height="20.5882" stroke="rgb(0,0,0)" width="15.0" x="622.18815" y="64.7059" /><text fill="black" x="622.18815" y="105.2941">H24</text><rect fill="rgb(15,12,255)" height="79.4118" stroke="rgb(0,0,0)" width="5.0" x="657.1881500000001" y="35.2941" /><text fill="black" x="657.1881500000001" y="134.70589999999999">E25</text><rect fill="rgb(22,17,255)" height="97.0588" stroke="rgb(0,0,0)" width="35.30305" x="682.1881500000001" y="26.470599999999997" /><text fill="black" x="682.1881500000001" y="143.5294">H27</text><rect fill="rgb(26,20,255)" height="35.2941" stroke="rgb(0,0,0)" width="5.0" x="737.4912" y="57.35295" /><text fill="black" x="737.4912" y="112.64705000000001">E28</text><path d="M 132.197,75.0 a 80.80786908695657,80.80786908695657 0 0,0 -114.697,-0.0" stroke="rgb(232,182,255)" stroke-width="2" /><path d="M 132.197,75.0 a 80.80786908695657,80.80786908695657 0 0,0 -114.697,-0.0" stroke="rgb(0,0,0)" stroke-width="0.2" /><path d="M 199.697,75.0 a 41.84371957253377,41.84371957253377 0 0,0 -67.5,-0.0" stroke="rgb(255,156,199)" stroke-width="2" /><path d="M 199.697,75.0 a 41.84371957253377,41.84371957253377 0 0,0 -67.5,-0.0" stroke="rgb(0,0,0)" stroke-width="0.2" /><path d="M 739.9912,75.0 a 641.2101451312659,641.2101451312659 0 0,0 -453.09725000000003,-0.0" stroke="rgb(12,10,255)" stroke-width="2" /><path d="M 739.9912,75.0 a 641.2101451312659,641.2101451312659 0 0,0 -453.09725000000003,-0.0" stroke="rgb(0,0,0)" stroke-width="0.2" /><path d="M 659.6881500000001,75.0 a 287.1722046232178,287.1722046232178 0 0,0 -277.50020000000006,-0.0" stroke="rgb(13,10,255)" stroke-width="2" /><path d="M 659.6881500000001,75.0 a 287.1722046232178,287.1722046232178 0 0,0 -277.50020000000006,-0.0" stroke="rgb(0,0,0)" stroke-width="0.2" /></svg>