<?xml version="1.0" encoding="utf-8" ?>
<svg baseProfile="full" height="100%" style="font-size:14;font-family:Sans, Arial;stroke-width:1;fill:none" version="1.1" width="100%" xmlns="http://www.w3.org/2000/svg" xmlns:ev="http://www.w3.org/2001/xml-events" xmlns:xlink="http://www.w3.org/1999/xlink"><defs /><rect fill="none" height="300.0" stroke="none" width="1044.9912" x="0" y="0" /><line stroke="rgb(0,0,0)" x1="5.0" x2="15.0" y1="150.0" y2="150.0" /><line stroke="rgb(0,0,0)" x1="15.0" x2="25.0" y1="150.0" y2="150.0" /><line stroke="rgb(0,0,0)" x1="25.0" x2="30.0" y1="150.0" y2="150.0" /><line stroke="rgb(0,0,0)" x1="30.0" x2="40.0" y1="150.0" y2="150.0" /><line stroke="rgb(0,0,0)" x1="40.0" x2="50.0" y1="150.0" y2="150.0" /><line stroke="rgb(0,0,0)" x1="50.0" x2="55.0" y1="150.0" y2="150.0" /><line stroke="rgb(0,0,0)" x1="55.0" x2="60.0" y1="150.0" y2="150.0" /><line stroke="rgb(0,0,0)" x1="60.0" x2="70.0" y1="150.0" y2="150.0" /><line stroke="rgb(0,0,0)" x1="70.0" x2="75.0" y1="150.0" y2="150.0" /><line stroke="rgb(0,0,0)" x1="75.0" x2="105.0" y1="150.0" y2="150.0" /><line stroke="rgb(0,0,0)" x1="105.0" x2="115.0" y1="150.0" y2="75.0" /><line stroke="rgb(0,0,0)" x1="115.0" x2="120.0" y1="75.0" y2="75.0" /><line stroke="rgb(0,0,0)" x1="75.0" x2="105.0" y1="150.0" y2="150.0" /><line stroke="rgb(0,0,0)" x1="105.0" x2="115.0" y1="150.0" y2="225.0" /><line stroke="rgb(0,0,0)" x1="115.0" x2="120.0" y1="225.0" y2="225.0" /><line stroke="rgb(0,0,0)" x1="120.0" x2="130.0" y1="75.0" y2="75.0" /><line stroke="rgb(0,0,0)" x1="130.0" x2="160.0" y1="75.0" y2="150.0" /><line stroke="rgb(0,0,0)" x1="160.0" x2="165.0" y1="150.0" y2="150.0" /><line stroke="rgb(0,0,0)" x1="120.0" x2="150.0" y1="225.0" y2="225.0" /><line stroke="rgb(0,0,0)" x1="150.0" x2="160.0" y1="225.0" y2="150.0" /><line stroke="rgb(0,0,0)" x1="160.0" x2="165.0" y1="150.0" y2="150.0" /><line stroke="rgb(0,0,0)" x1="165.0" x2="224.697" y1="150.0" y2="150.0" /><line stroke="rgb(0,0,0)" x1="224.697" x2="234.697" y1="150.0" y2="75.0" /><line stroke="rgb(0,0,0)" x1="234.697" x2="239.697" y1="75.0" y2="75.0" /><line stroke="rgb(0,0,0)" x1="165.0" x2="224.697" y1="150.0" y2="150.0" /><line stroke="rgb(0,0,0)" x1="224.697" x2="234.697" y1="150.0" y2="225.0" /><line stroke="rgb(0,0,0)" x1="234.697" x2="239.697" y1="225.0" y2="225.0" /><line stroke="rgb(0,0,0)" x1="239.697" x2="249.697" y1="75.0" y2="75.0" /><line stroke="rgb(0,0,0)" x1="249.697" x2="269.697" y1="75.0" y2="150.0" /><line stroke="rgb(0,0,0)" x1="269.697" x2="274.697" y1="150.0" y2="150.0" /><line stroke="rgb(0,0,0)" x1="239.697" x2="259.697" y1="225.0" y2="225.0" /><line stroke="rgb(0,0,0)" x1="259.697" x2="269.697" y1="225.0" y2="150.0" /><line stroke="rgb(0,0,0)" x1="269.697" x2="274.697" y1="150.0" y2="150.0" /><line stroke="rgb(0,0,0)" x1="274.697" x2="294.697" y1="150.0" y2="150.0" /><line stroke="rgb(0,0,0)" x1="294.697" x2="304.697" y1="150.0" y2="150.0" /><line stroke="rgb(0,0,0)" x1="304.697" x2="309.697" y1="150.0" y2="150.0" /><line stroke="rgb(0,0,0)" x1="309.697" x2="319.697" y1="150.0" y2="150.0" /><line stroke="rgb(0,0,0)" x1="319.697" x2="329.697" y1="150.0" y2="75.0" /><line stroke="rgb(0,0,0)" x1="329.697" x2="334.697" y1="75.0" y2="75.0" /><line stroke="rgb(0,0,0)" x1="309.697" x2="319.697" y1="150.0" y2="150.0" /><line stroke="rgb(0,0,0)" x1="319.697" x2="329.697" y1="150.0" y2="225.0" /><line stroke="rgb(0,0,0)" x1="329.697" x2="334.697" y1="225.0" y2="225.0" /><line stroke="rgb(0,0,0)" x1="334.697" x2="354.697" y1="75.0" y2="75.0" /><line stroke="rgb(0,0,0)" x1="354.697" x2="377.197" y1="75.0" y2="150.0" /><line stroke="rgb(0,0,0)" x1="377.197" x2="382.197" y1="150.0" y2="150.0" /><line stroke="rgb(0,0,0)" x1="334.697" x2="367.197" y1="225.0" y2="225.0" /><line stroke="rgb(0,0,0)" x1="367.197" x2="377.197" y1="225.0" y2="150.0" /><line stroke="rgb(0,0,0)" x1="377.197" x2="382.197" y1="150.0" y2="150.0" /><line stroke="rgb(0,0,0)" x1="382.197" x2="397.197" y1="150.0" y2="150.0" /><line stroke="rgb(0,0,0)" x1="397.197" x2="407.197" y1="150.0" y2="150.0" /><line stroke="rgb(0,0,0)" x1="407.197" x2="412.197" y1="150.0" y2="150.0" /><line stroke="rgb(0,0,0)" x1="412.197" x2="456.89395" y1="150.0" y2="150.0" /><line stroke="rgb(0,0,0)" x1="456.89395" x2="466.89395" y1="150.0" y2="150.0" /><line stroke="rgb(0,0,0)" x1="466.89395" x2="471.89395" y1="150.0" y2="150.0" /><line stroke="rgb(0,0,0)" x1="471.89395" x2="481.89395" y1="150.0" y2="150.0" /><line stroke="rgb(0,0,0)" x1="481.89395" x2="491.89395" y1="150.0" y2="150.0" /><line stroke="rgb(0,0,0)" x1="491.89395" x2="496.89395" y1="150.0" y2="150.0" /><line stroke="rgb(0,0,0)" x1="496.89395" x2="506.89395" y1="150.0" y2="150.0" /><line stroke="rgb(0,0,0)" x1="506.89395" x2="516.89395" y1="150.0" y2="150.0" /><line stroke="rgb(0,0,0)" x1="516.89395" x2="521.89395" y1="150.0" y2="150.0" /><line stroke="rgb(0,0,0)" x1="521.89395" x2="577.1879500000001" y1="150.0" y2="150.0" /><line stroke="rgb(0,0,0)" x1="577.1879500000001" x2="587.1879500000001" y1="150.0" y2="150.0" /><line stroke="rgb(0,0,0)" x1="587.1879500000001" x2="592.1879500000001" y1="150.0" y2="150.0" /><line stroke="rgb(0,0,0)" x1="592.1879500000001" x2="602.1879500000001" y1="150.0" y2="150.0" /><line stroke="rgb(0,0,0)" x1="602.1879500000001" x2="612.1879500000001" y1="150.0" y2="150.0" /><line stroke="rgb(0,0,0)" x1="612.1879500000001" x2="617.1879500000001" y1="150.0" y2="150.0" /><line stroke="rgb(0,0,0)" x1="617.1879500000001" x2="676.89395" y1="150.0" y2="150.0" /><line stroke="rgb(0,0,0)" x1="676.89395" x2="686.89395" y1="150.0" y2="150.0" /><line stroke="rgb(0,0,0)" x1="686.89395" x2="691.89395" y1="150.0" y2="150.0" /><line stroke="rgb(0,0,0)" x1="691.89395" x2="711.89395" y1="150.0" y2="150.0" /><line stroke="rgb(0,0,0)" x1="711.89395" x2="721.89395" y1="150.0" y2="150.0" /><line stroke="rgb(0,0,0)" x1="721.89395" x2="726.89395" y1="150.0" y2="150.0" /><line stroke="rgb(0,0,0)" x1="726.89395" x2="794.24695" y1="150.0" y2="150.0" /><line stroke="rgb(0,0,0)" x1="794.24695" x2="804.24695" y1="150.0" y2="150.0" /><line stroke="rgb(0,0,0)" x1="804.24695" x2="809.24695" y1="150.0" y2="150.0" /><line stroke="rgb(0,0,0)" x1="809.24695" x2="819.24695" y1="150.0" y2="150.0" /><line stroke="rgb(0,0,0)" x1="819.24695" x2="829.24695" y1="150.0" y2="150.0" /><line stroke="rgb(0,0,0)" x1="829.24695" x2="834.24695" y1="150.0" y2="150.0" /><line stroke="rgb(0,0,0)" x1="834.24695" x2="879.6881500000001" y1="150.0" y2="150.0" /><line stroke="rgb(0,0,0)" x1="879.6881500000001" x2="889.6881500000001" y1="150.0" y2="150.0" /><line stroke="rgb(0,0,0)" x1="889.6881500000001" x2="894.6881500000001" y1="150.0" y2="150.0" /><line stroke="rgb(0,0,0)" x1="894.6881500000001" x2="914.6881500000001" y1="150.0" y2="150.0" /><line stroke="rgb(0,0,0)" x1="914.6881500000001" x2="924.6881500000001" y1="150.0" y2="150.0" /><line stroke="rgb(0,0,0)" x1="924.6881500000001" x2="929.6881500000001" y1="150.0" y2="150.0" /><line stroke="rgb(0,0,0)" x1="929.6881500000001" x2="939.6881500000001" y1="150.0" y2="150.0" /><line stroke="rgb(0,0,0)" x1="939.6881500000001" x2="949.6881500000001" y1="150.0" y2="150.0" /><line stroke="rgb(0,0,0)" x1="949.6881500000001" x2="954.6881500000001" y1="150.0" y2="150.0" /><line stroke="rgb(0,0,0)" x1="954.6881500000001" x2="964.6881500000001" y1="150.0" y2="150.0" /><line stroke="rgb(0,0,0)" x1="964.6881500000001" x2="974.6881500000001" y1="150.0" y2="150.0" /><line stroke="rgb(0,0,0)" x1="974.6881500000001" x2="979.6881500000001" y1="150.0" y2="150.0" /><line stroke="rgb(0,0,0)" x1="979.6881500000001" x2="1019.9912" y1="150.0" y2="150.0" /><line stroke="rgb(0,0,0)" x1="1019.9912" x2="1029.9912" y1="150.0" y2="150.0" /><line stroke="rgb(0,0,0)" x1="1029.9912" x2="1034.9912" y1="150.0" y2="150.0" /><rect fill="rgb(0,0,255)" height="5.88235" stroke="rgb(0,0,0)" width="5.0" x="5.0" y="147.058825" /><text fill="black" x="5.0" y="172.941175">E0</text><rect fill="rgb(0,0,255)" height="5.88235" stroke="rgb(0,0,0)" width="5.0" x="30.0" y="147.058825" /><text fill="black" x="30.0" y="172.941175">E1</text><rect fill="rgb(0,0,255)" height="0.0" stroke="rgb(0,0,0)" width="0.0" x="55.0" y="150.0" /><text fill="black" x="55.0" y="170.0">X2</text><rect fill="rgb(232,182,255)" height="20.5882" stroke="rgb(0,0,0)" width="25.0" x="75.0" y="139.70589999999999" /><text fill="black" x="75.0" y="180.29410000000001">E3</text><rect fill="rgb(0,0,255)" height="2.9411799999999997" stroke="rgb(0,0,0)" width="5.0" x="120.0" y="73.52941" /><text fill="black" x="120.0" y="96.47059">E4</text><rect fill="rgb(255,16,20)" height="11.7647" stroke="rgb(0,0,0)" width="25.0" x="120.0" y="219.11765" /><text fill="black" x="120.0" y="250.88235">H5</text><rect fill="rgb(18,14,255)" height="97.0588" stroke="rgb(0,0,0)" width="54.696999999999996" x="165.0" y="101.47059999999999" /><text fill="black" x="165.0" y="218.5294">H6</text><rect fill="rgb(0,0,255)" height="2.9411799999999997" stroke="rgb(0,0,0)" width="5.0" x="239.697" y="73.52941" /><text fill="black" x="239.697" y="96.47059">E7</text><rect fill="rgb(0,0,255)" height="5.88235" stroke="rgb(0,0,0)" width="15.0" x="239.697" y="222.058825" /><text fill="black" x="239.697" y="247.941175">H8</text><rect fill="rgb(255,156,199)" height="97.0588" stroke="rgb(0,0,0)" width="15.0" x="274.697" y="101.47059999999999" /><text fill="black" x="274.697" y="218.5294">E9</text><rect fill="rgb(0,0,255)" height="2.9411799999999997" stroke="rgb(0,0,0)" width="5.0" x="309.697" y="148.52941" /><text fill="black" x="309.697" y="171.47059">E10</text><rect fill="rgb(255,42,54)" height="20.5882" stroke="rgb(0,0,0)" width="15.0" x="334.697" y="64.7059" /><text fill="black" x="334.697" y="105.2941">H11</text><rect fill="rgb(49,38,255)" height="5.88235" stroke="rgb(0,0,0)" width="27.5" x="334.697" y="222.058825" /><text fill="black" x="334.697" y="247.941175">E12</text><rect fill="rgb(60,47,255)" height="97.0588" stroke="rgb(0,0,0)" width="10.0" x="382.197" y="101.47059999999999" /><text fill="black" x="382.197" y="218.5294">E13</text><rect fill="rgb(11,9,255)" height="97.0588" stroke="rgb(0,0,0)" width="39.69695" x="412.197" y="101.47059999999999" /><text fill="black" x="412.197" y="218.5294">H14</text><rect fill="rgb(12,10,255)" height="35.2941" stroke="rgb(0,0,0)" width="5.0" x="471.89395" y="132.35295" /><text fill="black" x="471.89395" y="187.64705">E15</text><rect fill="rgb(0,0,255)" height="5.88235" stroke="rgb(0,0,0)" width="5.0" x="496.89395" y="147.058825" /><text fill="black" x="496.89395" y="172.941175">E16</text><rect fill="rgb(20,16,255)" height="100.0" stroke="rgb(0,0,0)" width="50.294" x="521.89395" y="100.0" /><text fill="black" x="521.89395" y="220.0">H17</text><rect fill="rgb(13,10,255)" height="79.4118" stroke="rgb(0,0,0)" width="5.0" x="592.1879500000001" y="110.2941" /><text fill="black" x="592.1879500000001" y="209.70589999999999">E18</text><rect fill="rgb(62,48,255)" height="100.0" stroke="rgb(0,0,0)" width="54.706" x="617.1879500000001" y="100.0" /><text fill="black" x="617.1879500000001" y="220.0">H19</text><rect fill="rgb(0,0,255)" height="5.88235" stroke="rgb(0,0,0)" width="15.0" x="691.89395" y="147.058825" /><text fill="black" x="691.89395" y="172.941175">H20</text><rect fill="rgb(57,44,255)" height="100.0" stroke="rgb(0,0,0)" width="62.352999999999994" x="726.89395" y="100.0" /><text fill="black" x="726.89395" y="220.0">H21</text><rect fill="rgb(0,0,255)" height="5.88235" stroke="rgb(0,0,0)" width="5.0" x="809.24695" y="147.058825" /><text fill="black" x="809.24695" y="172.941175">E22</text><rect fill="rgb(20,15,255)" height="100.0" stroke="rgb(0,0,0)" width="40.4412" x="834.24695" y="100.0" /><text fill="black" x="834.24695" y="220.0">H23</text><rect fill="rgb(0,0,255)" height="20.5882" stroke="rgb(0,0,0)" width="15.0" x="894.6881500000001" y="139.70589999999999" /><text fill="black" x="894.6881500000001" y="180.29410000000001">H24</text><rect fill="rgb(15,12,255)" height="79.4118" stroke="rgb(0,0,0)" width="5.0" x="929.6881500000001" y="110.2941" /><text fill="black" x="929.6881500000001" y="209.70589999999999">E25</text><rect fill="rgb(0,0,255)" height="2.9411799999999997" stroke="rgb(0,0,0)" width="5.0" x="954.6881500000001" y="148.52941" /><text fill="black" x="954.6881500000001" y="171.47059">E26</text><rect fill="rgb(22,17,255)" height="97.0588" stroke="rgb(0,0,0)" width="35.30305" x="979.6881500000001" y="101.47059999999999" /><text fill="black" x="979.6881500000001" y="218.5294">H27</text><rect fill="rgb(26,20,255)" height="35.2941" stroke="rgb(0,0,0)" width="5.0" x="1034.9912" y="132.35295" /><text fill="black" x="1034.9912" y="187.64705">E28</text><path d="M 32.5,150.0 a 16.23341083168986,16.23341083168986 0 0,0 -25.0,-0.0" stroke="rgb(0,0,255)" stroke-width="2" /><path d="M 32.5,150.0 a 16.23341083168986,16.23341083168986 0 0,0 -25.0,-0.0" stroke="rgb(0,0,0)" stroke-width="0.2" /><path d="M 282.197,150.0 a 191.8952860339885,191.8952860339885 0 0,0 -194.697,-0.0" stroke="rgb(232,182,255)" stroke-width="2" /><path d="M 282.197,150.0 a 191.8952860339885,191.8952860339885 0 0,0 -194.697,-0.0" stroke="rgb(0,0,0)" stroke-width="0.2" /><path d="M 312.197,150.0 a 235.72503473896663,235.72503473896663 0 0,0 -224.697,-0.0" stroke="rgb(232,182,255)" stroke-width="2" /><path d="M 312.197,150.0 a 235.72503473896663,235.72503473896663 0 0,0 -224.697,-0.0" stroke="rgb(0,0,0)" stroke-width="0.2" /><path d="M 122.5,75.0 a 199.52159502045455,199.52159502045455 0 0,0 264.697,75.0" stroke="rgb(0,0,255)" stroke-width="2" /><path d="M 122.5,75.0 a 199.52159502045455,199.52159502045455 0 0,0 264.697,75.0" stroke="rgb(0,0,0)" stroke-width="0.2" /><path d="M 242.197,75.0 a 1202.1303285870968,1202.1303285870968 0 0,0 714.9911500000001,75.0" stroke="rgb(0,0,255)" stroke-width="2" /><path d="M 242.197,75.0 a 1202.1303285870968,1202.1303285870968 0 0,0 714.9911500000001,75.0" stroke="rgb(0,0,0)" stroke-width="0.2" /><path d="M 348.447,225.0 a 79.19617648389101,79.19617648389101 0 0,0 -66.25,-75.0" stroke="rgb(255,156,199)" stroke-width="2" /><path d="M 348.447,225.0 a 79.19617648389101,79.19617648389101 0 0,0 -66.25,-75.0" stroke="rgb(0,0,0)" stroke-width="0.2" /><path d="M 387.197,150.0 a 84.12730959839175,84.12730959839175 0 0,0 -105.0,-0.0" stroke="rgb(255,156,199)" stroke-width="2" /><path d="M 387.197,150.0 a 84.12730959839175,84.12730959839175 0 0,0 -105.0,-0.0" stroke="rgb(0,0,0)" stroke-width="0.2" /><path d="M 1037.4912,150.0 a 1008.1579606199583,1008.1579606199583 0 0,0 -563.0972499999999,-0.0" stroke="rgb(12,10,255)" stroke-width="2" /><path d="M 1037.4912,150.0 a 1008.1579606199583,1008.1579606199583 0 0,0 -563.0972499999999,-0.0" stroke="rgb(0,0,0)" stroke-width="0.2" /><path d="M 811.74695,150.0 a 386.5795457344536,386.5795457344536 0 0,0 -312.35299999999995,-0.0" stroke="rgb(0,0,255)" stroke-width="2" /><path d="M 811.74695,150.0 a 386.5795457344536,386.5795457344536 0 0,0 -312.35299999999995,-0.0" stroke="rgb(0,0,0)" stroke-width="0.2" /><path d="M 932.1881500000001,150.0 a 436.1725253774088,436.1725253774088 0 0,0 -337.50019999999995,-0.0" stroke="rgb(13,10,255)" stroke-width="2" /><path d="M 932.1881500000001,150.0 a 436.1725253774088,436.1725253774088 0 0,0 -337.50019999999995,-0.0" stroke="rgb(0,0,0)" stroke-width="0.2" /></svg>