<?xml version="1.0" encoding="utf-8" ?>
<svg baseProfile="full" height="100%" style="font-size:14;font-family:Sans, Arial;stroke-width:1;fill:none" version="1.1" width="100%" xmlns="http://www.w3.org/2000/svg" xmlns:ev="http://www.w3.org/2001/xml-events" xmlns:xlink="http://www.w3.org/1999/xlink"><defs /><rect fill="none" height="150.0" stroke="none" width="1281.8132" x="0" y="0" /><line stroke="rgb(0,0,0)" x1="5.0" x2="73.5455" y1="75.0" y2="75.0" /><line stroke="rgb(0,0,0)" x1="73.5455" x2="83.5455" y1="75.0" y2="75.0" /><line stroke="rgb(0,0,0)" x1="83.5455" x2="88.5455" y1="75.0" y2="75.0" /><line stroke="rgb(0,0,0)" x1="88.5455" x2="122.68549999999999" y1="75.0" y2="75.0" /><line stroke="rgb(0,0,0)" x1="122.68549999999999" x2="132.6855" y1="75.0" y2="75.0" /><line stroke="rgb(0,0,0)" x1="132.6855" x2="137.6855" y1="75.0" y2="75.0" /><line stroke="rgb(0,0,0)" x1="137.6855" x2="218.6655" y1="75.0" y2="75.0" /><line stroke="rgb(0,0,0)" x1="218.6655" x2="228.6655" y1="75.0" y2="75.0" /><line stroke="rgb(0,0,0)" x1="228.6655" x2="233.6655" y1="75.0" y2="75.0" /><line stroke="rgb(0,0,0)" x1="233.6655" x2="271.39465" y1="75.0" y2="75.0" /><line stroke="rgb(0,0,0)" x1="271.39465" x2="281.39465" y1="75.0" y2="75.0" /><line stroke="rgb(0,0,0)" x1="281.39465" x2="286.39465" y1="75.0" y2="75.0" /><line stroke="rgb(0,0,0)" x1="286.39465" x2="318.48990000000003" y1="75.0" y2="75.0" /><line stroke="rgb(0,0,0)" x1="318.48990000000003" x2="328.48990000000003" y1="75.0" y2="75.0" /><line stroke="rgb(0,0,0)" x1="328.48990000000003" x2="333.48990000000003" y1="75.0" y2="75.0" /><line stroke="rgb(0,0,0)" x1="333.48990000000003" x2="414.1349" y1="75.0" y2="75.0" /><line stroke="rgb(0,0,0)" x1="414.1349" x2="424.1349" y1="75.0" y2="75.0" /><line stroke="rgb(0,0,0)" x1="424.1349" x2="429.1349" y1="75.0" y2="75.0" /><line stroke="rgb(0,0,0)" x1="429.1349" x2="450.50745000000006" y1="75.0" y2="75.0" /><line stroke="rgb(0,0,0)" x1="450.50745000000006" x2="460.50745000000006" y1="75.0" y2="75.0" /><line stroke="rgb(0,0,0)" x1="460.50745000000006" x2="465.50745000000006" y1="75.0" y2="75.0" /><line stroke="rgb(0,0,0)" x1="465.50745000000006" x2="491.1135000000001" y1="75.0" y2="75.0" /><line stroke="rgb(0,0,0)" x1="491.1135000000001" x2="501.1135000000001" y1="75.0" y2="75.0" /><line stroke="rgb(0,0,0)" x1="501.1135000000001" x2="506.1135000000001" y1="75.0" y2="75.0" /><line stroke="rgb(0,0,0)" x1="506.1135000000001" x2="536.8474500000001" y1="75.0" y2="75.0" /><line stroke="rgb(0,0,0)" x1="536.8474500000001" x2="546.8474500000001" y1="75.0" y2="75.0" /><line stroke="rgb(0,0,0)" x1="546.8474500000001" x2="551.8474500000001" y1="75.0" y2="75.0" /><line stroke="rgb(0,0,0)" x1="551.8474500000001" x2="627.7384500000001" y1="75.0" y2="75.0" /><line stroke="rgb(0,0,0)" x1="627.7384500000001" x2="637.7384500000001" y1="75.0" y2="75.0" /><line stroke="rgb(0,0,0)" x1="637.7384500000001" x2="642.7384500000001" y1="75.0" y2="75.0" /><line stroke="rgb(0,0,0)" x1="642.7384500000001" x2="677.8855000000001" y1="75.0" y2="75.0" /><line stroke="rgb(0,0,0)" x1="677.8855000000001" x2="687.8855000000001" y1="75.0" y2="75.0" /><line stroke="rgb(0,0,0)" x1="687.8855000000001" x2="692.8855000000001" y1="75.0" y2="75.0" /><line stroke="rgb(0,0,0)" x1="692.8855000000001" x2="727.2605000000001" y1="75.0" y2="75.0" /><line stroke="rgb(0,0,0)" x1="727.2605000000001" x2="737.2605000000001" y1="75.0" y2="75.0" /><line stroke="rgb(0,0,0)" x1="737.2605000000001" x2="742.2605000000001" y1="75.0" y2="75.0" /><line stroke="rgb(0,0,0)" x1="742.2605000000001" x2="822.9330000000002" y1="75.0" y2="75.0" /><line stroke="rgb(0,0,0)" x1="822.9330000000002" x2="832.9330000000002" y1="75.0" y2="75.0" /><line stroke="rgb(0,0,0)" x1="832.9330000000002" x2="837.9330000000002" y1="75.0" y2="75.0" /><line stroke="rgb(0,0,0)" x1="837.9330000000002" x2="866.8601500000001" y1="75.0" y2="75.0" /><line stroke="rgb(0,0,0)" x1="866.8601500000001" x2="876.8601500000001" y1="75.0" y2="75.0" /><line stroke="rgb(0,0,0)" x1="876.8601500000001" x2="881.8601500000001" y1="75.0" y2="75.0" /><line stroke="rgb(0,0,0)" x1="881.8601500000001" x2="908.8695000000001" y1="75.0" y2="75.0" /><line stroke="rgb(0,0,0)" x1="908.8695000000001" x2="918.8695000000001" y1="75.0" y2="75.0" /><line stroke="rgb(0,0,0)" x1="918.8695000000001" x2="923.8695000000001" y1="75.0" y2="75.0" /><line stroke="rgb(0,0,0)" x1="923.8695000000001" x2="999.1405000000002" y1="75.0" y2="75.0" /><line stroke="rgb(0,0,0)" x1="999.1405000000002" x2="1009.1405000000002" y1="75.0" y2="75.0" /><line stroke="rgb(0,0,0)" x1="1009.1405000000002" x2="1014.1405000000002" y1="75.0" y2="75.0" /><line stroke="rgb(0,0,0)" x1="1014.1405000000002" x2="1040.3348500000002" y1="75.0" y2="75.0" /><line stroke="rgb(0,0,0)" x1="1040.3348500000002" x2="1050.3348500000002" y1="75.0" y2="75.0" /><line stroke="rgb(0,0,0)" x1="1050.3348500000002" x2="1055.3348500000002" y1="75.0" y2="75.0" /><line stroke="rgb(0,0,0)" x1="1055.3348500000002" x2="1099.3348500000002" y1="75.0" y2="75.0" /><line stroke="rgb(0,0,0)" x1="1099.3348500000002" x2="1109.3348500000002" y1="75.0" y2="75.0" /><line stroke="rgb(0,0,0)" x1="1109.3348500000002" x2="1114.3348500000002" y1="75.0" y2="75.0" /><line stroke="rgb(0,0,0)" x1="1114.3348500000002" x2="1167.8594500000002" y1="75.0" y2="75.0" /><line stroke="rgb(0,0,0)" x1="1167.8594500000002" x2="1177.8594500000002" y1="75.0" y2="75.0" /><line stroke="rgb(0,0,0)" x1="1177.8594500000002" x2="1182.8594500000002" y1="75.0" y2="75.0" /><line stroke="rgb(0,0,0)" x1="1182.8594500000002" x2="1210.5867" y1="75.0" y2="75.0" /><line stroke="rgb(0,0,0)" x1="1210.5867" x2="1220.5867" y1="75.0" y2="75.0" /><line stroke="rgb(0,0,0)" x1="1220.5867" x2="1225.5867" y1="75.0" y2="75.0" /><rect fill="rgb(255,8,11)" height="22.0" stroke="rgb(0,0,0)" width="63.5455" x="5.0" y="64.0" /><text fill="black" x="5.0" y="106.0">H12</text><rect fill="rgb(219,172,255)" height="100.0" stroke="rgb(0,0,0)" width="29.14" x="88.5455" y="25.0" /><text fill="black" x="88.5455" y="145.0">E15</text><rect fill="rgb(255,188,240)" height="100.0" stroke="rgb(0,0,0)" width="75.98" x="137.6855" y="25.0" /><text fill="black" x="137.6855" y="145.0">H37</text><rect fill="rgb(210,164,255)" height="96.0" stroke="rgb(0,0,0)" width="32.72915" x="233.6655" y="27.0" /><text fill="black" x="233.6655" y="143.0">E42</text><rect fill="rgb(255,170,217)" height="42.0" stroke="rgb(0,0,0)" width="27.09525" x="286.39465" y="54.0" /><text fill="black" x="286.39465" y="116.0">H44</text><rect fill="rgb(255,135,172)" height="99.2" stroke="rgb(0,0,0)" width="75.645" x="333.48990000000003" y="25.4" /><text fill="black" x="333.48990000000003" y="144.6">H52</text><rect fill="rgb(255,133,170)" height="20.4" stroke="rgb(0,0,0)" width="16.37255" x="429.1349" y="64.8" /><text fill="black" x="429.1349" y="105.2">H56</text><rect fill="rgb(255,183,233)" height="92.4" stroke="rgb(0,0,0)" width="20.606049999999996" x="465.50745000000006" y="28.799999999999997" /><text fill="black" x="465.50745000000006" y="141.2">E57</text><rect fill="rgb(255,93,119)" height="43.6" stroke="rgb(0,0,0)" width="25.73395" x="506.1135000000001" y="53.2" /><text fill="black" x="506.1135000000001" y="116.8">H59</text><rect fill="rgb(255,30,39)" height="40.400000000000006" stroke="rgb(0,0,0)" width="70.891" x="551.8474500000001" y="54.8" /><text fill="black" x="551.8474500000001" y="115.2">H60</text><rect fill="rgb(255,153,195)" height="27.200000000000003" stroke="rgb(0,0,0)" width="30.14705" x="642.7384500000001" y="61.4" /><text fill="black" x="642.7384500000001" y="108.6">H63</text><rect fill="rgb(255,108,137)" height="22.400000000000002" stroke="rgb(0,0,0)" width="29.375" x="692.8855000000001" y="63.8" /><text fill="black" x="692.8855000000001" y="106.2">H64</text><rect fill="rgb(255,100,127)" height="89.2" stroke="rgb(0,0,0)" width="75.6725" x="742.2605000000001" y="30.4" /><text fill="black" x="742.2605000000001" y="139.6">H99</text><rect fill="rgb(209,164,255)" height="98.8" stroke="rgb(0,0,0)" width="23.927149999999997" x="837.9330000000002" y="25.6" /><text fill="black" x="837.9330000000002" y="144.4">E106</text><rect fill="rgb(255,148,189)" height="42.8" stroke="rgb(0,0,0)" width="22.009349999999998" x="881.8601500000001" y="53.6" /><text fill="black" x="881.8601500000001" y="116.4">H108</text><rect fill="rgb(255,128,163)" height="81.2" stroke="rgb(0,0,0)" width="70.271" x="923.8695000000001" y="34.4" /><text fill="black" x="923.8695000000001" y="135.6">H116</text><rect fill="rgb(231,181,255)" height="98.8" stroke="rgb(0,0,0)" width="21.19435" x="1014.1405000000002" y="25.6" /><text fill="black" x="1014.1405000000002" y="144.4">E127</text><rect fill="rgb(255,14,19)" height="36.0" stroke="rgb(0,0,0)" width="39.0" x="1055.3348500000002" y="57.0" /><text fill="black" x="1055.3348500000002" y="113.0">H143</text><rect fill="rgb(255,190,243)" height="24.4" stroke="rgb(0,0,0)" width="48.5246" x="1114.3348500000002" y="62.8" /><text fill="black" x="1114.3348500000002" y="107.2">H158</text><rect fill="rgb(255,150,191)" height="26.400000000000002" stroke="rgb(0,0,0)" width="22.727249999999998" x="1182.8594500000002" y="61.8" /><text fill="black" x="1182.8594500000002" y="108.2">H162</text><rect fill="rgb(255,82,105)" height="21.2" stroke="rgb(0,0,0)" width="51.2265" x="1225.5867" y="64.4" /><text fill="black" x="1225.5867" y="105.6">H165</text><path d="M 103.1155,75.0 a 76.55430078961507,76.55430078961507 0 0,0 146.914575,-0.0" stroke="rgb(219,172,255)" stroke-width="2" /><path d="M 103.1155,75.0 a 76.55430078961507,76.55430078961507 0 0,0 146.914575,-0.0" stroke="rgb(0,0,0)" stroke-width="0.2" /><path d="M 103.1155,75.0 a 1294.9590317685363,1294.9590317685363 0 0,0 746.7810750000002,-0.0" stroke="rgb(219,172,255)" stroke-width="2" /><path d="M 103.1155,75.0 a 1294.9590317685363,1294.9590317685363 0 0,0 746.7810750000002,-0.0" stroke="rgb(0,0,0)" stroke-width="0.2" /><path d="M 250.030075,75.0 a 143.35633869127275,143.35633869127275 0 0,0 225.78040000000004,-0.0" stroke="rgb(210,164,255)" stroke-width="2" /><path d="M 250.030075,75.0 a 143.35633869127275,143.35633869127275 0 0,0 225.78040000000004,-0.0" stroke="rgb(0,0,0)" stroke-width="0.2" /><path d="M 849.8965750000002,75.0 a 96.97593238456827,96.97593238456827 0 0,0 174.8411000000001,-0.0" stroke="rgb(209,164,255)" stroke-width="2" /><path d="M 849.8965750000002,75.0 a 96.97593238456827,96.97593238456827 0 0,0 174.8411000000001,-0.0" stroke="rgb(0,0,0)" stroke-width="0.2" /></svg>