<?xml version="1.0" encoding="utf-8" ?>
<svg baseProfile="full" height="100%" style="font-size:14;font-family:Sans, Arial;stroke-width:1;fill:none" version="1.1" width="100%" xmlns="http://www.w3.org/2000/svg" xmlns:ev="http://www.w3.org/2001/xml-events" xmlns:xlink="http://www.w3.org/1999/xlink"><defs /><rect fill="none" height="130.0" stroke="none" width="1481.8132000000003" x="0" y="0" /><line stroke="rgb(0,0,0)" x1="5.0" x2="73.5455" y1="55.0" y2="55.0" /><line stroke="rgb(0,0,0)" x1="73.5455" x2="93.5455" y1="55.0" y2="55.0" /><line stroke="rgb(0,0,0)" x1="93.5455" x2="98.5455" y1="55.0" y2="55.0" /><line stroke="rgb(0,0,0)" x1="98.5455" x2="132.6855" y1="55.0" y2="55.0" /><line stroke="rgb(0,0,0)" x1="132.6855" x2="152.6855" y1="55.0" y2="55.0" /><line stroke="rgb(0,0,0)" x1="152.6855" x2="157.6855" y1="55.0" y2="55.0" /><line stroke="rgb(0,0,0)" x1="157.6855" x2="238.6655" y1="55.0" y2="55.0" /><line stroke="rgb(0,0,0)" x1="238.6655" x2="258.6655" y1="55.0" y2="55.0" /><line stroke="rgb(0,0,0)" x1="258.6655" x2="263.6655" y1="55.0" y2="55.0" /><line stroke="rgb(0,0,0)" x1="263.6655" x2="301.39465" y1="55.0" y2="55.0" /><line stroke="rgb(0,0,0)" x1="301.39465" x2="321.39465" y1="55.0" y2="55.0" /><line stroke="rgb(0,0,0)" x1="321.39465" x2="326.39465" y1="55.0" y2="55.0" /><line stroke="rgb(0,0,0)" x1="326.39465" x2="358.48990000000003" y1="55.0" y2="55.0" /><line stroke="rgb(0,0,0)" x1="358.48990000000003" x2="378.48990000000003" y1="55.0" y2="55.0" /><line stroke="rgb(0,0,0)" x1="378.48990000000003" x2="383.48990000000003" y1="55.0" y2="55.0" /><line stroke="rgb(0,0,0)" x1="383.48990000000003" x2="464.1349" y1="55.0" y2="55.0" /><line stroke="rgb(0,0,0)" x1="464.1349" x2="484.1349" y1="55.0" y2="55.0" /><line stroke="rgb(0,0,0)" x1="484.1349" x2="489.1349" y1="55.0" y2="55.0" /><line stroke="rgb(0,0,0)" x1="489.1349" x2="510.50745000000006" y1="55.0" y2="55.0" /><line stroke="rgb(0,0,0)" x1="510.50745000000006" x2="530.5074500000001" y1="55.0" y2="55.0" /><line stroke="rgb(0,0,0)" x1="530.5074500000001" x2="535.5074500000001" y1="55.0" y2="55.0" /><line stroke="rgb(0,0,0)" x1="535.5074500000001" x2="561.1135" y1="55.0" y2="55.0" /><line stroke="rgb(0,0,0)" x1="561.1135" x2="581.1135" y1="55.0" y2="55.0" /><line stroke="rgb(0,0,0)" x1="581.1135" x2="586.1135" y1="55.0" y2="55.0" /><line stroke="rgb(0,0,0)" x1="586.1135" x2="616.8474500000001" y1="55.0" y2="55.0" /><line stroke="rgb(0,0,0)" x1="616.8474500000001" x2="636.8474500000001" y1="55.0" y2="55.0" /><line stroke="rgb(0,0,0)" x1="636.8474500000001" x2="641.8474500000001" y1="55.0" y2="55.0" /><line stroke="rgb(0,0,0)" x1="641.8474500000001" x2="717.7384500000001" y1="55.0" y2="55.0" /><line stroke="rgb(0,0,0)" x1="717.7384500000001" x2="737.7384500000001" y1="55.0" y2="55.0" /><line stroke="rgb(0,0,0)" x1="737.7384500000001" x2="742.7384500000001" y1="55.0" y2="55.0" /><line stroke="rgb(0,0,0)" x1="742.7384500000001" x2="777.8855000000001" y1="55.0" y2="55.0" /><line stroke="rgb(0,0,0)" x1="777.8855000000001" x2="797.8855000000001" y1="55.0" y2="55.0" /><line stroke="rgb(0,0,0)" x1="797.8855000000001" x2="802.8855000000001" y1="55.0" y2="55.0" /><line stroke="rgb(0,0,0)" x1="802.8855000000001" x2="837.2605000000001" y1="55.0" y2="55.0" /><line stroke="rgb(0,0,0)" x1="837.2605000000001" x2="857.2605000000001" y1="55.0" y2="55.0" /><line stroke="rgb(0,0,0)" x1="857.2605000000001" x2="862.2605000000001" y1="55.0" y2="55.0" /><line stroke="rgb(0,0,0)" x1="862.2605000000001" x2="942.9330000000002" y1="55.0" y2="55.0" /><line stroke="rgb(0,0,0)" x1="942.9330000000002" x2="962.9330000000002" y1="55.0" y2="55.0" /><line stroke="rgb(0,0,0)" x1="962.9330000000002" x2="967.9330000000002" y1="55.0" y2="55.0" /><line stroke="rgb(0,0,0)" x1="967.9330000000002" x2="996.8601500000001" y1="55.0" y2="55.0" /><line stroke="rgb(0,0,0)" x1="996.8601500000001" x2="1016.8601500000001" y1="55.0" y2="55.0" /><line stroke="rgb(0,0,0)" x1="1016.8601500000001" x2="1021.8601500000001" y1="55.0" y2="55.0" /><line stroke="rgb(0,0,0)" x1="1021.8601500000001" x2="1048.8695000000002" y1="55.0" y2="55.0" /><line stroke="rgb(0,0,0)" x1="1048.8695000000002" x2="1068.8695000000002" y1="55.0" y2="55.0" /><line stroke="rgb(0,0,0)" x1="1068.8695000000002" x2="1073.8695000000002" y1="55.0" y2="55.0" /><line stroke="rgb(0,0,0)" x1="1073.8695000000002" x2="1149.1405000000002" y1="55.0" y2="55.0" /><line stroke="rgb(0,0,0)" x1="1149.1405000000002" x2="1169.1405000000002" y1="55.0" y2="55.0" /><line stroke="rgb(0,0,0)" x1="1169.1405000000002" x2="1174.1405000000002" y1="55.0" y2="55.0" /><line stroke="rgb(0,0,0)" x1="1174.1405000000002" x2="1200.3348500000002" y1="55.0" y2="55.0" /><line stroke="rgb(0,0,0)" x1="1200.3348500000002" x2="1220.3348500000002" y1="55.0" y2="55.0" /><line stroke="rgb(0,0,0)" x1="1220.3348500000002" x2="1225.3348500000002" y1="55.0" y2="55.0" /><line stroke="rgb(0,0,0)" x1="1225.3348500000002" x2="1269.3348500000002" y1="55.0" y2="55.0" /><line stroke="rgb(0,0,0)" x1="1269.3348500000002" x2="1289.3348500000002" y1="55.0" y2="55.0" /><line stroke="rgb(0,0,0)" x1="1289.3348500000002" x2="1294.3348500000002" y1="55.0" y2="55.0" /><line stroke="rgb(0,0,0)" x1="1294.3348500000002" x2="1347.8594500000004" y1="55.0" y2="55.0" /><line stroke="rgb(0,0,0)" x1="1347.8594500000004" x2="1367.8594500000004" y1="55.0" y2="55.0" /><line stroke="rgb(0,0,0)" x1="1367.8594500000004" x2="1372.8594500000004" y1="55.0" y2="55.0" /><line stroke="rgb(0,0,0)" x1="1372.8594500000004" x2="1400.5867000000003" y1="55.0" y2="55.0" /><line stroke="rgb(0,0,0)" x1="1400.5867000000003" x2="1420.5867000000003" y1="55.0" y2="55.0" /><line stroke="rgb(0,0,0)" x1="1420.5867000000003" x2="1425.5867000000003" y1="55.0" y2="55.0" /><rect fill="rgb(150,150,150)" height="22.0" stroke="rgb(0,0,0)" width="63.5455" x="5.0" y="44.0" /><text fill="black" x="5.0" y="86.0">H12</text><rect fill="rgb(255,150,150)" height="100.0" stroke="rgb(0,0,0)" width="29.14" x="98.5455" y="5.0" /><text fill="black" x="98.5455" y="125.0">E15</text><rect fill="rgb(150,150,150)" height="100.0" stroke="rgb(0,0,0)" width="75.98" x="157.6855" y="5.0" /><text fill="black" x="157.6855" y="125.0">H37</text><rect fill="rgb(255,150,150)" height="96.0" stroke="rgb(0,0,0)" width="32.72915" x="263.6655" y="7.0" /><text fill="black" x="263.6655" y="123.0">E42</text><rect fill="rgb(150,150,150)" height="42.0" stroke="rgb(0,0,0)" width="27.09525" x="326.39465" y="34.0" /><text fill="black" x="326.39465" y="96.0">H44</text><rect fill="rgb(150,150,150)" height="99.2" stroke="rgb(0,0,0)" width="75.645" x="383.48990000000003" y="5.399999999999999" /><text fill="black" x="383.48990000000003" y="124.6">H52</text><rect fill="rgb(150,150,150)" height="20.4" stroke="rgb(0,0,0)" width="16.37255" x="489.1349" y="44.8" /><text fill="black" x="489.1349" y="85.2">H56</text><rect fill="rgb(255,150,150)" height="92.4" stroke="rgb(0,0,0)" width="20.606049999999996" x="535.5074500000001" y="8.799999999999997" /><text fill="black" x="535.5074500000001" y="121.2">E57</text><rect fill="rgb(150,150,150)" height="43.6" stroke="rgb(0,0,0)" width="25.73395" x="586.1135" y="33.2" /><text fill="black" x="586.1135" y="96.8">H59</text><rect fill="rgb(150,150,150)" height="40.400000000000006" stroke="rgb(0,0,0)" width="70.891" x="641.8474500000001" y="34.8" /><text fill="black" x="641.8474500000001" y="95.2">H60</text><rect fill="rgb(150,150,150)" height="27.200000000000003" stroke="rgb(0,0,0)" width="30.14705" x="742.7384500000001" y="41.4" /><text fill="black" x="742.7384500000001" y="88.6">H63</text><rect fill="rgb(150,150,150)" height="22.400000000000002" stroke="rgb(0,0,0)" width="29.375" x="802.8855000000001" y="43.8" /><text fill="black" x="802.8855000000001" y="86.2">H64</text><rect fill="rgb(150,150,150)" height="89.2" stroke="rgb(0,0,0)" width="75.6725" x="862.2605000000001" y="10.399999999999999" /><text fill="black" x="862.2605000000001" y="119.6">H99</text><rect fill="rgb(255,150,150)" height="98.8" stroke="rgb(0,0,0)" width="23.927149999999997" x="967.9330000000002" y="5.600000000000001" /><text fill="black" x="967.9330000000002" y="124.4">E106</text><rect fill="rgb(150,150,150)" height="42.8" stroke="rgb(0,0,0)" width="22.009349999999998" x="1021.8601500000001" y="33.6" /><text fill="black" x="1021.8601500000001" y="96.4">H108</text><rect fill="rgb(150,150,150)" height="81.2" stroke="rgb(0,0,0)" width="70.271" x="1073.8695000000002" y="14.399999999999999" /><text fill="black" x="1073.8695000000002" y="115.6">H116</text><rect fill="rgb(255,150,150)" height="98.8" stroke="rgb(0,0,0)" width="21.19435" x="1174.1405000000002" y="5.600000000000001" /><text fill="black" x="1174.1405000000002" y="124.4">E127</text><rect fill="rgb(150,150,150)" height="36.0" stroke="rgb(0,0,0)" width="39.0" x="1225.3348500000002" y="37.0" /><text fill="black" x="1225.3348500000002" y="93.0">H143</text><rect fill="rgb(150,150,150)" height="24.4" stroke="rgb(0,0,0)" width="48.5246" x="1294.3348500000002" y="42.8" /><text fill="black" x="1294.3348500000002" y="87.2">H158</text><rect fill="rgb(150,150,150)" height="26.400000000000002" stroke="rgb(0,0,0)" width="22.727249999999998" x="1372.8594500000004" y="41.8" /><text fill="black" x="1372.8594500000004" y="88.2">H162</text><rect fill="rgb(150,150,150)" height="21.2" stroke="rgb(0,0,0)" width="51.2265" x="1425.5867000000003" y="44.4" /><text fill="black" x="1425.5867000000003" y="85.6">H165</text><path d="M 113.1155,55.0 a 90.81926215325143,90.81926215325143 0 0,0 166.914575,-0.0" stroke="rgb(255,150,150)" stroke-width="2" /><path d="M 113.1155,55.0 a 90.81926215325143,90.81926215325143 0 0,0 166.914575,-0.0" stroke="rgb(0,0,0)" stroke-width="0.2" /><path d="M 113.1155,55.0 a 1735.0214363139908,1735.0214363139908 0 0,0 866.7810750000002,-0.0" stroke="rgb(255,150,150)" stroke-width="2" /><path d="M 113.1155,55.0 a 1735.0214363139908,1735.0214363139908 0 0,0 866.7810750000002,-0.0" stroke="rgb(0,0,0)" stroke-width="0.2" /><path d="M 280.030075,55.0 a 188.0436841458183,188.0436841458183 0 0,0 265.7804000000001,-0.0" stroke="rgb(255,150,150)" stroke-width="2" /><path d="M 280.030075,55.0 a 188.0436841458183,188.0436841458183 0 0,0 265.7804000000001,-0.0" stroke="rgb(0,0,0)" stroke-width="0.2" /><path d="M 979.8965750000002,55.0 a 122.863355111841,122.863355111841 0 0,0 204.8411000000001,-0.0" stroke="rgb(255,150,150)" stroke-width="2" /><path d="M 979.8965750000002,55.0 a 122.863355111841,122.863355111841 0 0,0 204.8411000000001,-0.0" stroke="rgb(0,0,0)" stroke-width="0.2" /></svg>