<?xml version="1.0" encoding="utf-8" ?>
<svg baseProfile="full" height="100%" style="font-size:14;font-family:Sans, Arial;stroke-width:1;fill:none" version="1.1" width="100%" xmlns="http://www.w3.org/2000/svg" xmlns:ev="http://www.w3.org/2001/xml-events" xmlns:xlink="http://www.w3.org/1999/xlink"><defs /><rect fill="none" height="130.0" stroke="none" width="2175.0" x="0" y="0" /><line stroke="rgb(0,0,0)" x1="5.0" x2="140.0" y1="55.0" y2="55.0" /><line stroke="rgb(0,0,0)" x1="140.0" x2="160.0" y1="55.0" y2="55.0" /><line stroke="rgb(0,0,0)" x1="160.0" x2="165.0" y1="55.0" y2="55.0" /><line stroke="rgb(0,0,0)" x1="165.0" x2="220.0" y1="55.0" y2="55.0" /><line stroke="rgb(0,0,0)" x1="220.0" x2="240.0" y1="55.0" y2="55.0" /><line stroke="rgb(0,0,0)" x1="240.0" x2="245.0" y1="55.0" y2="55.0" /><line stroke="rgb(0,0,0)" x1="245.0" x2="370.0" y1="55.0" y2="55.0" /><line stroke="rgb(0,0,0)" x1="370.0" x2="390.0" y1="55.0" y2="55.0" /><line stroke="rgb(0,0,0)" x1="390.0" x2="395.0" y1="55.0" y2="55.0" /><line stroke="rgb(0,0,0)" x1="395.0" x2="445.0" y1="55.0" y2="55.0" /><line stroke="rgb(0,0,0)" x1="445.0" x2="465.0" y1="55.0" y2="55.0" /><line stroke="rgb(0,0,0)" x1="465.0" x2="470.0" y1="55.0" y2="55.0" /><line stroke="rgb(0,0,0)" x1="470.0" x2="515.0" y1="55.0" y2="55.0" /><line stroke="rgb(0,0,0)" x1="515.0" x2="535.0" y1="55.0" y2="55.0" /><line stroke="rgb(0,0,0)" x1="535.0" x2="540.0" y1="55.0" y2="55.0" /><line stroke="rgb(0,0,0)" x1="540.0" x2="690.0" y1="55.0" y2="55.0" /><line stroke="rgb(0,0,0)" x1="690.0" x2="710.0" y1="55.0" y2="55.0" /><line stroke="rgb(0,0,0)" x1="710.0" x2="715.0" y1="55.0" y2="55.0" /><line stroke="rgb(0,0,0)" x1="715.0" x2="750.0" y1="55.0" y2="55.0" /><line stroke="rgb(0,0,0)" x1="750.0" x2="770.0" y1="55.0" y2="55.0" /><line stroke="rgb(0,0,0)" x1="770.0" x2="775.0" y1="55.0" y2="55.0" /><line stroke="rgb(0,0,0)" x1="775.0" x2="815.0" y1="55.0" y2="55.0" /><line stroke="rgb(0,0,0)" x1="815.0" x2="835.0" y1="55.0" y2="55.0" /><line stroke="rgb(0,0,0)" x1="835.0" x2="840.0" y1="55.0" y2="55.0" /><line stroke="rgb(0,0,0)" x1="840.0" x2="900.0" y1="55.0" y2="55.0" /><line stroke="rgb(0,0,0)" x1="900.0" x2="920.0" y1="55.0" y2="55.0" /><line stroke="rgb(0,0,0)" x1="920.0" x2="925.0" y1="55.0" y2="55.0" /><line stroke="rgb(0,0,0)" x1="925.0" x2="1015.0" y1="55.0" y2="55.0" /><line stroke="rgb(0,0,0)" x1="1015.0" x2="1035.0" y1="55.0" y2="55.0" /><line stroke="rgb(0,0,0)" x1="1035.0" x2="1040.0" y1="55.0" y2="55.0" /><line stroke="rgb(0,0,0)" x1="1040.0" x2="1120.0" y1="55.0" y2="55.0" /><line stroke="rgb(0,0,0)" x1="1120.0" x2="1140.0" y1="55.0" y2="55.0" /><line stroke="rgb(0,0,0)" x1="1140.0" x2="1145.0" y1="55.0" y2="55.0" /><line stroke="rgb(0,0,0)" x1="1145.0" x2="1200.0" y1="55.0" y2="55.0" /><line stroke="rgb(0,0,0)" x1="1200.0" x2="1220.0" y1="55.0" y2="55.0" /><line stroke="rgb(0,0,0)" x1="1220.0" x2="1225.0" y1="55.0" y2="55.0" /><line stroke="rgb(0,0,0)" x1="1225.0" x2="1365.0" y1="55.0" y2="55.0" /><line stroke="rgb(0,0,0)" x1="1365.0" x2="1385.0" y1="55.0" y2="55.0" /><line stroke="rgb(0,0,0)" x1="1385.0" x2="1390.0" y1="55.0" y2="55.0" /><line stroke="rgb(0,0,0)" x1="1390.0" x2="1435.0" y1="55.0" y2="55.0" /><line stroke="rgb(0,0,0)" x1="1435.0" x2="1455.0" y1="55.0" y2="55.0" /><line stroke="rgb(0,0,0)" x1="1455.0" x2="1460.0" y1="55.0" y2="55.0" /><line stroke="rgb(0,0,0)" x1="1460.0" x2="1535.0" y1="55.0" y2="55.0" /><line stroke="rgb(0,0,0)" x1="1535.0" x2="1555.0" y1="55.0" y2="55.0" /><line stroke="rgb(0,0,0)" x1="1555.0" x2="1560.0" y1="55.0" y2="55.0" /><line stroke="rgb(0,0,0)" x1="1560.0" x2="1670.0" y1="55.0" y2="55.0" /><line stroke="rgb(0,0,0)" x1="1670.0" x2="1690.0" y1="55.0" y2="55.0" /><line stroke="rgb(0,0,0)" x1="1690.0" x2="1695.0" y1="55.0" y2="55.0" /><line stroke="rgb(0,0,0)" x1="1695.0" x2="1730.0" y1="55.0" y2="55.0" /><line stroke="rgb(0,0,0)" x1="1730.0" x2="1750.0" y1="55.0" y2="55.0" /><line stroke="rgb(0,0,0)" x1="1750.0" x2="1755.0" y1="55.0" y2="55.0" /><line stroke="rgb(0,0,0)" x1="1755.0" x2="1850.0" y1="55.0" y2="55.0" /><line stroke="rgb(0,0,0)" x1="1850.0" x2="1870.0" y1="55.0" y2="55.0" /><line stroke="rgb(0,0,0)" x1="1870.0" x2="1875.0" y1="55.0" y2="55.0" /><line stroke="rgb(0,0,0)" x1="1875.0" x2="1985.0" y1="55.0" y2="55.0" /><line stroke="rgb(0,0,0)" x1="1985.0" x2="2005.0" y1="55.0" y2="55.0" /><line stroke="rgb(0,0,0)" x1="2005.0" x2="2010.0" y1="55.0" y2="55.0" /><line stroke="rgb(0,0,0)" x1="2010.0" x2="2065.0" y1="55.0" y2="55.0" /><line stroke="rgb(0,0,0)" x1="2065.0" x2="2085.0" y1="55.0" y2="55.0" /><line stroke="rgb(0,0,0)" x1="2085.0" x2="2090.0" y1="55.0" y2="55.0" /><polygon fill="rgb(150,150,150)" points="135.0,55.0 135.0,54.8 125.0,54.8 125.0,54.4 117.5,54.4 117.5,52.4 115.0,52.4 115.0,52.199999999999996 112.5,52.199999999999996 112.5,51.800000000000004 110.0,51.800000000000004 110.0,51.6 100.0,51.6 100.0,51.400000000000006 97.5,51.400000000000006 97.5,50.4 95.0,50.4 95.0,46.0 92.5,46.0 92.5,44.400000000000006 85.0,44.400000000000006 85.0,44.0 70.0,44.0 70.0,44.0 55.0,44.0 55.0,44.400000000000006 47.5,44.400000000000006 47.5,46.0 45.0,46.0 45.0,50.4 42.5,50.4 42.5,51.400000000000006 40.0,51.400000000000006 40.0,51.6 30.0,51.6 30.0,51.800000000000004 27.5,51.800000000000004 27.5,52.199999999999996 25.0,52.199999999999996 25.0,52.4 22.5,52.4 22.5,54.4 15.0,54.4 15.0,54.8 5.0,54.8 5.0,55.0 5.0,55.0 5.0,55.2 15.0,55.2 15.0,55.6 22.5,55.6 22.5,57.6 25.0,57.6 25.0,57.800000000000004 27.5,57.800000000000004 27.5,58.199999999999996 30.0,58.199999999999996 30.0,58.4 40.0,58.4 40.0,58.599999999999994 42.5,58.599999999999994 42.5,59.6 45.0,59.6 45.0,64.0 47.5,64.0 47.5,65.6 55.0,65.6 55.0,66.0 70.0,66.0 70.0,66.0 85.0,66.0 85.0,65.6 92.5,65.6 92.5,64.0 95.0,64.0 95.0,59.6 97.5,59.6 97.5,58.599999999999994 100.0,58.599999999999994 100.0,58.4 110.0,58.4 110.0,58.199999999999996 112.5,58.199999999999996 112.5,57.800000000000004 115.0,57.800000000000004 115.0,57.6 117.5,57.6 117.5,55.6 125.0,55.6 125.0,55.2 135.0,55.2 135.0,55.0" stroke="rgb(0,0,0)" /><text fill="black" x="5.0" y="86.0">H12</text><polygon fill="rgb(255,150,150)" points="215.0,55.0 215.0,54.8 212.5,54.8 212.5,52.0 210.0,52.0 210.0,50.800000000000004 207.5,50.800000000000004 207.5,41.8 205.0,41.8 205.0,24.2 202.5,24.2 202.5,13.599999999999994 200.0,13.599999999999994 200.0,5.799999999999997 197.5,5.799999999999997 197.5,5.399999999999999 195.0,5.399999999999999 195.0,5.200000000000003 192.5,5.200000000000003 192.5,5.0 190.0,5.0 190.0,5.0 187.5,5.0 187.5,5.200000000000003 185.0,5.200000000000003 185.0,5.399999999999999 182.5,5.399999999999999 182.5,5.799999999999997 180.0,5.799999999999997 180.0,13.599999999999994 177.5,13.599999999999994 177.5,24.2 175.0,24.2 175.0,41.8 172.5,41.8 172.5,50.800000000000004 170.0,50.800000000000004 170.0,52.0 167.5,52.0 167.5,54.8 165.0,54.8 165.0,55.0 165.0,55.0 165.0,55.2 167.5,55.2 167.5,58.0 170.0,58.0 170.0,59.199999999999996 172.5,59.199999999999996 172.5,68.2 175.0,68.2 175.0,85.8 177.5,85.8 177.5,96.4 180.0,96.4 180.0,104.2 182.5,104.2 182.5,104.6 185.0,104.6 185.0,104.8 187.5,104.8 187.5,105.0 190.0,105.0 190.0,105.0 192.5,105.0 192.5,104.8 195.0,104.8 195.0,104.6 197.5,104.6 197.5,104.2 200.0,104.2 200.0,96.4 202.5,96.4 202.5,85.8 205.0,85.8 205.0,68.2 207.5,68.2 207.5,59.199999999999996 210.0,59.199999999999996 210.0,58.0 212.5,58.0 212.5,55.2 215.0,55.2 215.0,55.0" stroke="rgb(0,0,0)" /><text fill="black" x="165.0" y="125.0">E15</text><polygon fill="rgb(150,150,150)" points="365.0,55.0 365.0,54.8 357.5,54.8 357.5,53.8 355.0,53.8 355.0,46.4 350.0,46.4 350.0,45.8 347.5,45.8 347.5,35.0 345.0,35.0 345.0,29.8 342.5,29.8 342.5,29.4 340.0,29.4 340.0,23.2 337.5,23.2 337.5,13.799999999999997 335.0,13.799999999999997 335.0,8.599999999999994 332.5,8.599999999999994 332.5,7.600000000000001 327.5,7.600000000000001 327.5,6.200000000000003 325.0,6.200000000000003 325.0,6.0 322.5,6.0 322.5,5.399999999999999 317.5,5.399999999999999 317.5,5.200000000000003 312.5,5.200000000000003 312.5,5.0 305.0,5.0 305.0,5.0 297.5,5.0 297.5,5.200000000000003 292.5,5.200000000000003 292.5,5.399999999999999 287.5,5.399999999999999 287.5,6.0 285.0,6.0 285.0,6.200000000000003 282.5,6.200000000000003 282.5,7.600000000000001 277.5,7.600000000000001 277.5,8.599999999999994 275.0,8.599999999999994 275.0,13.799999999999997 272.5,13.799999999999997 272.5,23.2 270.0,23.2 270.0,29.4 267.5,29.4 267.5,29.8 265.0,29.8 265.0,35.0 262.5,35.0 262.5,45.8 260.0,45.8 260.0,46.4 255.0,46.4 255.0,53.8 252.5,53.8 252.5,54.8 245.0,54.8 245.0,55.0 245.0,55.0 245.0,55.2 252.5,55.2 252.5,56.2 255.0,56.2 255.0,63.6 260.0,63.6 260.0,64.2 262.5,64.2 262.5,75.0 265.0,75.0 265.0,80.2 267.5,80.2 267.5,80.6 270.0,80.6 270.0,86.8 272.5,86.8 272.5,96.2 275.0,96.2 275.0,101.4 277.5,101.4 277.5,102.4 282.5,102.4 282.5,103.8 285.0,103.8 285.0,104.0 287.5,104.0 287.5,104.6 292.5,104.6 292.5,104.8 297.5,104.8 297.5,105.0 305.0,105.0 305.0,105.0 312.5,105.0 312.5,104.8 317.5,104.8 317.5,104.6 322.5,104.6 322.5,104.0 325.0,104.0 325.0,103.8 327.5,103.8 327.5,102.4 332.5,102.4 332.5,101.4 335.0,101.4 335.0,96.2 337.5,96.2 337.5,86.8 340.0,86.8 340.0,80.6 342.5,80.6 342.5,80.2 345.0,80.2 345.0,75.0 347.5,75.0 347.5,64.2 350.0,64.2 350.0,63.6 355.0,63.6 355.0,56.2 357.5,56.2 357.5,55.2 365.0,55.2 365.0,55.0" stroke="rgb(0,0,0)" /><text fill="black" x="245.0" y="125.0">H37</text><polygon fill="rgb(255,150,150)" points="440.0,55.0 440.0,53.4 437.5,53.4 437.5,43.8 435.0,43.8 435.0,30.4 432.5,30.4 432.5,15.399999999999999 430.0,15.399999999999999 430.0,9.399999999999999 427.5,9.399999999999999 427.5,7.200000000000003 422.5,7.200000000000003 422.5,7.0 417.5,7.0 417.5,7.0 412.5,7.0 412.5,7.200000000000003 407.5,7.200000000000003 407.5,9.399999999999999 405.0,9.399999999999999 405.0,15.399999999999999 402.5,15.399999999999999 402.5,30.4 400.0,30.4 400.0,43.8 397.5,43.8 397.5,53.4 395.0,53.4 395.0,55.0 395.0,55.0 395.0,56.6 397.5,56.6 397.5,66.2 400.0,66.2 400.0,79.6 402.5,79.6 402.5,94.6 405.0,94.6 405.0,100.6 407.5,100.6 407.5,102.8 412.5,102.8 412.5,103.0 417.5,103.0 417.5,103.0 422.5,103.0 422.5,102.8 427.5,102.8 427.5,100.6 430.0,100.6 430.0,94.6 432.5,94.6 432.5,79.6 435.0,79.6 435.0,66.2 437.5,66.2 437.5,56.6 440.0,56.6 440.0,55.0" stroke="rgb(0,0,0)" /><text fill="black" x="395.0" y="123.0">E42</text><polygon fill="rgb(150,150,150)" points="510.0,55.0 510.0,52.4 507.5,52.4 507.5,46.8 505.0,46.8 505.0,43.2 502.5,43.2 502.5,42.0 500.0,42.0 500.0,39.8 497.5,39.8 497.5,34.0 490.0,34.0 490.0,34.0 482.5,34.0 482.5,39.8 480.0,39.8 480.0,42.0 477.5,42.0 477.5,43.2 475.0,43.2 475.0,46.8 472.5,46.8 472.5,52.4 470.0,52.4 470.0,55.0 470.0,55.0 470.0,57.6 472.5,57.6 472.5,63.2 475.0,63.2 475.0,66.8 477.5,66.8 477.5,68.0 480.0,68.0 480.0,70.2 482.5,70.2 482.5,76.0 490.0,76.0 490.0,76.0 497.5,76.0 497.5,70.2 500.0,70.2 500.0,68.0 502.5,68.0 502.5,66.8 505.0,66.8 505.0,63.2 507.5,63.2 507.5,57.6 510.0,57.6 510.0,55.0" stroke="rgb(0,0,0)" /><text fill="black" x="470.0" y="96.0">H44</text><polygon fill="rgb(150,150,150)" points="685.0,55.0 685.0,54.8 677.5,54.8 677.5,54.0 670.0,54.0 670.0,53.8 667.5,53.8 667.5,53.199999999999996 665.0,53.199999999999996 665.0,50.0 660.0,50.0 660.0,42.6 657.5,42.6 657.5,34.599999999999994 655.0,34.599999999999994 655.0,34.0 652.5,34.0 652.5,33.599999999999994 650.0,33.599999999999994 650.0,31.200000000000003 647.5,31.200000000000003 647.5,25.599999999999994 645.0,25.599999999999994 645.0,24.8 642.5,24.8 642.5,19.4 640.0,19.4 640.0,9.600000000000001 637.5,9.600000000000001 637.5,6.800000000000004 635.0,6.800000000000004 635.0,5.799999999999997 632.5,5.799999999999997 632.5,5.399999999999999 612.5,5.399999999999999 612.5,5.399999999999999 592.5,5.399999999999999 592.5,5.799999999999997 590.0,5.799999999999997 590.0,6.800000000000004 587.5,6.800000000000004 587.5,9.600000000000001 585.0,9.600000000000001 585.0,19.4 582.5,19.4 582.5,24.8 580.0,24.8 580.0,25.599999999999994 577.5,25.599999999999994 577.5,31.200000000000003 575.0,31.200000000000003 575.0,33.599999999999994 572.5,33.599999999999994 572.5,34.0 570.0,34.0 570.0,34.599999999999994 567.5,34.599999999999994 567.5,42.6 565.0,42.6 565.0,50.0 560.0,50.0 560.0,53.199999999999996 557.5,53.199999999999996 557.5,53.8 555.0,53.8 555.0,54.0 547.5,54.0 547.5,54.8 540.0,54.8 540.0,55.0 540.0,55.0 540.0,55.2 547.5,55.2 547.5,56.0 555.0,56.0 555.0,56.2 557.5,56.2 557.5,56.800000000000004 560.0,56.800000000000004 560.0,60.0 565.0,60.0 565.0,67.4 567.5,67.4 567.5,75.4 570.0,75.4 570.0,76.0 572.5,76.0 572.5,76.4 575.0,76.4 575.0,78.8 577.5,78.8 577.5,84.4 580.0,84.4 580.0,85.2 582.5,85.2 582.5,90.6 585.0,90.6 585.0,100.4 587.5,100.4 587.5,103.19999999999999 590.0,103.19999999999999 590.0,104.2 592.5,104.2 592.5,104.6 612.5,104.6 612.5,104.6 632.5,104.6 632.5,104.2 635.0,104.2 635.0,103.19999999999999 637.5,103.19999999999999 637.5,100.4 640.0,100.4 640.0,90.6 642.5,90.6 642.5,85.2 645.0,85.2 645.0,84.4 647.5,84.4 647.5,78.8 650.0,78.8 650.0,76.4 652.5,76.4 652.5,76.0 655.0,76.0 655.0,75.4 657.5,75.4 657.5,67.4 660.0,67.4 660.0,60.0 665.0,60.0 665.0,56.800000000000004 667.5,56.800000000000004 667.5,56.2 670.0,56.2 670.0,56.0 677.5,56.0 677.5,55.2 685.0,55.2 685.0,55.0" stroke="rgb(0,0,0)" /><text fill="black" x="540.0" y="124.6">H52</text><polygon fill="rgb(150,150,150)" points="745.0,55.0 745.0,54.8 742.5,54.8 742.5,54.6 740.0,54.6 740.0,52.8 737.5,52.8 737.5,44.800000000000004 730.0,44.800000000000004 730.0,44.800000000000004 722.5,44.800000000000004 722.5,52.8 720.0,52.8 720.0,54.6 717.5,54.6 717.5,54.8 715.0,54.8 715.0,55.0 715.0,55.0 715.0,55.2 717.5,55.2 717.5,55.4 720.0,55.4 720.0,57.2 722.5,57.2 722.5,65.2 730.0,65.2 730.0,65.2 737.5,65.2 737.5,57.2 740.0,57.2 740.0,55.4 742.5,55.4 742.5,55.2 745.0,55.2 745.0,55.0" stroke="rgb(0,0,0)" /><text fill="black" x="715.0" y="85.2">H56</text><polygon fill="rgb(255,150,150)" points="810.0,55.0 810.0,54.0 807.5,54.0 807.5,47.0 805.0,47.0 805.0,37.0 802.5,37.0 802.5,22.199999999999996 800.0,22.199999999999996 800.0,14.0 797.5,14.0 797.5,11.600000000000001 795.0,11.600000000000001 795.0,8.799999999999997 792.5,8.799999999999997 792.5,8.799999999999997 790.0,8.799999999999997 790.0,11.600000000000001 787.5,11.600000000000001 787.5,14.0 785.0,14.0 785.0,22.199999999999996 782.5,22.199999999999996 782.5,37.0 780.0,37.0 780.0,47.0 777.5,47.0 777.5,54.0 775.0,54.0 775.0,55.0 775.0,55.0 775.0,56.0 777.5,56.0 777.5,63.0 780.0,63.0 780.0,73.0 782.5,73.0 782.5,87.80000000000001 785.0,87.80000000000001 785.0,96.0 787.5,96.0 787.5,98.4 790.0,98.4 790.0,101.2 792.5,101.2 792.5,101.2 795.0,101.2 795.0,98.4 797.5,98.4 797.5,96.0 800.0,96.0 800.0,87.80000000000001 802.5,87.80000000000001 802.5,73.0 805.0,73.0 805.0,63.0 807.5,63.0 807.5,56.0 810.0,56.0 810.0,55.0" stroke="rgb(0,0,0)" /><text fill="black" x="775.0" y="121.2">E57</text><polygon fill="rgb(150,150,150)" points="895.0,55.0 895.0,54.8 887.5,54.8 887.5,53.8 885.0,53.8 885.0,50.800000000000004 882.5,50.800000000000004 882.5,47.8 880.0,47.8 880.0,40.8 877.5,40.8 877.5,35.599999999999994 875.0,35.599999999999994 875.0,33.199999999999996 867.5,33.199999999999996 867.5,33.199999999999996 860.0,33.199999999999996 860.0,35.599999999999994 857.5,35.599999999999994 857.5,40.8 855.0,40.8 855.0,47.8 852.5,47.8 852.5,50.800000000000004 850.0,50.800000000000004 850.0,53.8 847.5,53.8 847.5,54.8 840.0,54.8 840.0,55.0 840.0,55.0 840.0,55.2 847.5,55.2 847.5,56.2 850.0,56.2 850.0,59.199999999999996 852.5,59.199999999999996 852.5,62.2 855.0,62.2 855.0,69.2 857.5,69.2 857.5,74.4 860.0,74.4 860.0,76.80000000000001 867.5,76.80000000000001 867.5,76.80000000000001 875.0,76.80000000000001 875.0,74.4 877.5,74.4 877.5,69.2 880.0,69.2 880.0,62.2 882.5,62.2 882.5,59.199999999999996 885.0,59.199999999999996 885.0,56.2 887.5,56.2 887.5,55.2 895.0,55.2 895.0,55.0" stroke="rgb(0,0,0)" /><text fill="black" x="840.0" y="96.8">H59</text><polygon fill="rgb(150,150,150)" points="1010.0,55.0 1010.0,49.0 1007.5,49.0 1007.5,48.6 1005.0,48.6 1005.0,46.0 1002.5,46.0 1002.5,42.4 1000.0,42.4 1000.0,39.2 997.5,39.2 997.5,37.2 995.0,37.2 995.0,35.8 992.5,35.8 992.5,35.2 980.0,35.2 980.0,35.0 975.0,35.0 975.0,34.8 967.5,34.8 967.5,34.8 960.0,34.8 960.0,35.0 955.0,35.0 955.0,35.2 942.5,35.2 942.5,35.8 940.0,35.8 940.0,37.2 937.5,37.2 937.5,39.2 935.0,39.2 935.0,42.4 932.5,42.4 932.5,46.0 930.0,46.0 930.0,48.6 927.5,48.6 927.5,49.0 925.0,49.0 925.0,55.0 925.0,55.0 925.0,61.0 927.5,61.0 927.5,61.4 930.0,61.4 930.0,64.0 932.5,64.0 932.5,67.6 935.0,67.6 935.0,70.8 937.5,70.8 937.5,72.8 940.0,72.8 940.0,74.2 942.5,74.2 942.5,74.8 955.0,74.8 955.0,75.0 960.0,75.0 960.0,75.2 967.5,75.2 967.5,75.2 975.0,75.2 975.0,75.0 980.0,75.0 980.0,74.8 992.5,74.8 992.5,74.2 995.0,74.2 995.0,72.8 997.5,72.8 997.5,70.8 1000.0,70.8 1000.0,67.6 1002.5,67.6 1002.5,64.0 1005.0,64.0 1005.0,61.4 1007.5,61.4 1007.5,61.0 1010.0,61.0 1010.0,55.0" stroke="rgb(0,0,0)" /><text fill="black" x="925.0" y="95.2">H60</text><polygon fill="rgb(150,150,150)" points="1115.0,55.0 1115.0,54.8 1105.0,54.8 1105.0,54.6 1097.5,54.6 1097.5,50.6 1095.0,50.6 1095.0,50.4 1092.5,50.4 1092.5,46.8 1090.0,46.8 1090.0,46.4 1087.5,46.4 1087.5,41.6 1085.0,41.6 1085.0,41.4 1077.5,41.4 1077.5,41.4 1070.0,41.4 1070.0,41.6 1067.5,41.6 1067.5,46.4 1065.0,46.4 1065.0,46.8 1062.5,46.8 1062.5,50.4 1060.0,50.4 1060.0,50.6 1057.5,50.6 1057.5,54.6 1050.0,54.6 1050.0,54.8 1040.0,54.8 1040.0,55.0 1040.0,55.0 1040.0,55.2 1050.0,55.2 1050.0,55.4 1057.5,55.4 1057.5,59.4 1060.0,59.4 1060.0,59.6 1062.5,59.6 1062.5,63.2 1065.0,63.2 1065.0,63.6 1067.5,63.6 1067.5,68.4 1070.0,68.4 1070.0,68.6 1077.5,68.6 1077.5,68.6 1085.0,68.6 1085.0,68.4 1087.5,68.4 1087.5,63.6 1090.0,63.6 1090.0,63.2 1092.5,63.2 1092.5,59.6 1095.0,59.6 1095.0,59.4 1097.5,59.4 1097.5,55.4 1105.0,55.4 1105.0,55.2 1115.0,55.2 1115.0,55.0" stroke="rgb(0,0,0)" /><text fill="black" x="1040.0" y="88.6">H63</text><polygon fill="rgb(150,150,150)" points="1195.0,55.0 1195.0,54.8 1192.5,54.8 1192.5,53.6 1187.5,53.6 1187.5,52.8 1185.0,52.8 1185.0,46.4 1180.0,46.4 1180.0,45.2 1177.5,45.2 1177.5,43.8 1170.0,43.8 1170.0,43.8 1162.5,43.8 1162.5,45.2 1160.0,45.2 1160.0,46.4 1155.0,46.4 1155.0,52.8 1152.5,52.8 1152.5,53.6 1147.5,53.6 1147.5,54.8 1145.0,54.8 1145.0,55.0 1145.0,55.0 1145.0,55.2 1147.5,55.2 1147.5,56.4 1152.5,56.4 1152.5,57.2 1155.0,57.2 1155.0,63.6 1160.0,63.6 1160.0,64.8 1162.5,64.8 1162.5,66.2 1170.0,66.2 1170.0,66.2 1177.5,66.2 1177.5,64.8 1180.0,64.8 1180.0,63.6 1185.0,63.6 1185.0,57.2 1187.5,57.2 1187.5,56.4 1192.5,56.4 1192.5,55.2 1195.0,55.2 1195.0,55.0" stroke="rgb(0,0,0)" /><text fill="black" x="1145.0" y="86.2">H64</text><polygon fill="rgb(150,150,150)" points="1360.0,55.0 1360.0,54.6 1350.0,54.6 1350.0,52.199999999999996 1347.5,52.199999999999996 1347.5,51.2 1345.0,51.2 1345.0,49.6 1342.5,49.6 1342.5,46.4 1340.0,46.4 1340.0,46.0 1337.5,46.0 1337.5,42.2 1335.0,42.2 1335.0,38.6 1332.5,38.6 1332.5,36.0 1330.0,36.0 1330.0,30.4 1327.5,30.4 1327.5,30.2 1325.0,30.2 1325.0,28.2 1322.5,28.2 1322.5,16.6 1320.0,16.6 1320.0,13.200000000000003 1315.0,13.200000000000003 1315.0,12.399999999999999 1312.5,12.399999999999999 1312.5,12.200000000000003 1310.0,12.200000000000003 1310.0,10.600000000000001 1307.5,10.600000000000001 1307.5,10.399999999999999 1292.5,10.399999999999999 1292.5,10.399999999999999 1277.5,10.399999999999999 1277.5,10.600000000000001 1275.0,10.600000000000001 1275.0,12.200000000000003 1272.5,12.200000000000003 1272.5,12.399999999999999 1270.0,12.399999999999999 1270.0,13.200000000000003 1265.0,13.200000000000003 1265.0,16.6 1262.5,16.6 1262.5,28.2 1260.0,28.2 1260.0,30.2 1257.5,30.2 1257.5,30.4 1255.0,30.4 1255.0,36.0 1252.5,36.0 1252.5,38.6 1250.0,38.6 1250.0,42.2 1247.5,42.2 1247.5,46.0 1245.0,46.0 1245.0,46.4 1242.5,46.4 1242.5,49.6 1240.0,49.6 1240.0,51.2 1237.5,51.2 1237.5,52.199999999999996 1235.0,52.199999999999996 1235.0,54.6 1225.0,54.6 1225.0,55.0 1225.0,55.0 1225.0,55.4 1235.0,55.4 1235.0,57.800000000000004 1237.5,57.800000000000004 1237.5,58.8 1240.0,58.8 1240.0,60.4 1242.5,60.4 1242.5,63.6 1245.0,63.6 1245.0,64.0 1247.5,64.0 1247.5,67.8 1250.0,67.8 1250.0,71.4 1252.5,71.4 1252.5,74.0 1255.0,74.0 1255.0,79.6 1257.5,79.6 1257.5,79.8 1260.0,79.8 1260.0,81.8 1262.5,81.8 1262.5,93.4 1265.0,93.4 1265.0,96.8 1270.0,96.8 1270.0,97.6 1272.5,97.6 1272.5,97.8 1275.0,97.8 1275.0,99.4 1277.5,99.4 1277.5,99.6 1292.5,99.6 1292.5,99.6 1307.5,99.6 1307.5,99.4 1310.0,99.4 1310.0,97.8 1312.5,97.8 1312.5,97.6 1315.0,97.6 1315.0,96.8 1320.0,96.8 1320.0,93.4 1322.5,93.4 1322.5,81.8 1325.0,81.8 1325.0,79.8 1327.5,79.8 1327.5,79.6 1330.0,79.6 1330.0,74.0 1332.5,74.0 1332.5,71.4 1335.0,71.4 1335.0,67.8 1337.5,67.8 1337.5,64.0 1340.0,64.0 1340.0,63.6 1342.5,63.6 1342.5,60.4 1345.0,60.4 1345.0,58.8 1347.5,58.8 1347.5,57.800000000000004 1350.0,57.800000000000004 1350.0,55.4 1360.0,55.4 1360.0,55.0" stroke="rgb(0,0,0)" /><text fill="black" x="1225.0" y="119.6">H99</text><polygon fill="rgb(255,150,150)" points="1430.0,55.0 1430.0,54.2 1427.5,54.2 1427.5,51.0 1425.0,51.0 1425.0,46.8 1422.5,46.8 1422.5,20.0 1420.0,20.0 1420.0,14.0 1417.5,14.0 1417.5,6.200000000000003 1415.0,6.200000000000003 1415.0,5.799999999999997 1412.5,5.799999999999997 1412.5,5.600000000000001 1410.0,5.600000000000001 1410.0,5.600000000000001 1407.5,5.600000000000001 1407.5,5.799999999999997 1405.0,5.799999999999997 1405.0,6.200000000000003 1402.5,6.200000000000003 1402.5,14.0 1400.0,14.0 1400.0,20.0 1397.5,20.0 1397.5,46.8 1395.0,46.8 1395.0,51.0 1392.5,51.0 1392.5,54.2 1390.0,54.2 1390.0,55.0 1390.0,55.0 1390.0,55.8 1392.5,55.8 1392.5,59.0 1395.0,59.0 1395.0,63.2 1397.5,63.2 1397.5,90.0 1400.0,90.0 1400.0,96.0 1402.5,96.0 1402.5,103.8 1405.0,103.8 1405.0,104.2 1407.5,104.2 1407.5,104.4 1410.0,104.4 1410.0,104.4 1412.5,104.4 1412.5,104.2 1415.0,104.2 1415.0,103.8 1417.5,103.8 1417.5,96.0 1420.0,96.0 1420.0,90.0 1422.5,90.0 1422.5,63.2 1425.0,63.2 1425.0,59.0 1427.5,59.0 1427.5,55.8 1430.0,55.8 1430.0,55.0" stroke="rgb(0,0,0)" /><text fill="black" x="1390.0" y="124.4">E106</text><polygon fill="rgb(150,150,150)" points="1530.0,55.0 1530.0,54.4 1520.0,54.4 1520.0,54.2 1517.5,54.2 1517.5,53.8 1515.0,53.8 1515.0,53.199999999999996 1510.0,53.199999999999996 1510.0,48.2 1507.5,48.2 1507.5,47.8 1505.0,47.8 1505.0,47.0 1502.5,47.0 1502.5,33.599999999999994 1495.0,33.599999999999994 1495.0,33.599999999999994 1487.5,33.599999999999994 1487.5,47.0 1485.0,47.0 1485.0,47.8 1482.5,47.8 1482.5,48.2 1480.0,48.2 1480.0,53.199999999999996 1475.0,53.199999999999996 1475.0,53.8 1472.5,53.8 1472.5,54.2 1470.0,54.2 1470.0,54.4 1460.0,54.4 1460.0,55.0 1460.0,55.0 1460.0,55.6 1470.0,55.6 1470.0,55.8 1472.5,55.8 1472.5,56.2 1475.0,56.2 1475.0,56.800000000000004 1480.0,56.800000000000004 1480.0,61.8 1482.5,61.8 1482.5,62.2 1485.0,62.2 1485.0,63.0 1487.5,63.0 1487.5,76.4 1495.0,76.4 1495.0,76.4 1502.5,76.4 1502.5,63.0 1505.0,63.0 1505.0,62.2 1507.5,62.2 1507.5,61.8 1510.0,61.8 1510.0,56.800000000000004 1515.0,56.800000000000004 1515.0,56.2 1517.5,56.2 1517.5,55.8 1520.0,55.8 1520.0,55.6 1530.0,55.6 1530.0,55.0" stroke="rgb(0,0,0)" /><text fill="black" x="1460.0" y="96.4">H108</text><polygon fill="rgb(150,150,150)" points="1665.0,55.0 1665.0,53.6 1662.5,53.6 1662.5,53.4 1660.0,53.4 1660.0,52.8 1657.5,52.8 1657.5,48.4 1655.0,48.4 1655.0,42.4 1652.5,42.4 1652.5,41.6 1650.0,41.6 1650.0,35.4 1647.5,35.4 1647.5,26.199999999999996 1645.0,26.199999999999996 1645.0,23.6 1640.0,23.6 1640.0,22.799999999999997 1637.5,22.799999999999997 1637.5,21.200000000000003 1635.0,21.200000000000003 1635.0,18.800000000000004 1632.5,18.800000000000004 1632.5,16.799999999999997 1630.0,16.799999999999997 1630.0,15.199999999999996 1622.5,15.199999999999996 1622.5,15.0 1620.0,15.0 1620.0,14.399999999999999 1612.5,14.399999999999999 1612.5,14.399999999999999 1605.0,14.399999999999999 1605.0,15.0 1602.5,15.0 1602.5,15.199999999999996 1595.0,15.199999999999996 1595.0,16.799999999999997 1592.5,16.799999999999997 1592.5,18.800000000000004 1590.0,18.800000000000004 1590.0,21.200000000000003 1587.5,21.200000000000003 1587.5,22.799999999999997 1585.0,22.799999999999997 1585.0,23.6 1580.0,23.6 1580.0,26.199999999999996 1577.5,26.199999999999996 1577.5,35.4 1575.0,35.4 1575.0,41.6 1572.5,41.6 1572.5,42.4 1570.0,42.4 1570.0,48.4 1567.5,48.4 1567.5,52.8 1565.0,52.8 1565.0,53.4 1562.5,53.4 1562.5,53.6 1560.0,53.6 1560.0,55.0 1560.0,55.0 1560.0,56.4 1562.5,56.4 1562.5,56.6 1565.0,56.6 1565.0,57.2 1567.5,57.2 1567.5,61.6 1570.0,61.6 1570.0,67.6 1572.5,67.6 1572.5,68.4 1575.0,68.4 1575.0,74.6 1577.5,74.6 1577.5,83.80000000000001 1580.0,83.80000000000001 1580.0,86.4 1585.0,86.4 1585.0,87.2 1587.5,87.2 1587.5,88.8 1590.0,88.8 1590.0,91.19999999999999 1592.5,91.19999999999999 1592.5,93.2 1595.0,93.2 1595.0,94.80000000000001 1602.5,94.80000000000001 1602.5,95.0 1605.0,95.0 1605.0,95.6 1612.5,95.6 1612.5,95.6 1620.0,95.6 1620.0,95.0 1622.5,95.0 1622.5,94.80000000000001 1630.0,94.80000000000001 1630.0,93.2 1632.5,93.2 1632.5,91.19999999999999 1635.0,91.19999999999999 1635.0,88.8 1637.5,88.8 1637.5,87.2 1640.0,87.2 1640.0,86.4 1645.0,86.4 1645.0,83.80000000000001 1647.5,83.80000000000001 1647.5,74.6 1650.0,74.6 1650.0,68.4 1652.5,68.4 1652.5,67.6 1655.0,67.6 1655.0,61.6 1657.5,61.6 1657.5,57.2 1660.0,57.2 1660.0,56.6 1662.5,56.6 1662.5,56.4 1665.0,56.4 1665.0,55.0" stroke="rgb(0,0,0)" /><text fill="black" x="1560.0" y="115.6">H116</text><polygon fill="rgb(255,150,150)" points="1725.0,55.0 1725.0,52.0 1722.5,52.0 1722.5,26.4 1720.0,26.4 1720.0,17.200000000000003 1717.5,17.200000000000003 1717.5,11.200000000000003 1715.0,11.200000000000003 1715.0,8.200000000000003 1712.5,8.200000000000003 1712.5,5.600000000000001 1710.0,5.600000000000001 1710.0,5.600000000000001 1707.5,5.600000000000001 1707.5,8.200000000000003 1705.0,8.200000000000003 1705.0,11.200000000000003 1702.5,11.200000000000003 1702.5,17.200000000000003 1700.0,17.200000000000003 1700.0,26.4 1697.5,26.4 1697.5,52.0 1695.0,52.0 1695.0,55.0 1695.0,55.0 1695.0,58.0 1697.5,58.0 1697.5,83.6 1700.0,83.6 1700.0,92.8 1702.5,92.8 1702.5,98.8 1705.0,98.8 1705.0,101.8 1707.5,101.8 1707.5,104.4 1710.0,104.4 1710.0,104.4 1712.5,104.4 1712.5,101.8 1715.0,101.8 1715.0,98.8 1717.5,98.8 1717.5,92.8 1720.0,92.8 1720.0,83.6 1722.5,83.6 1722.5,58.0 1725.0,58.0 1725.0,55.0" stroke="rgb(0,0,0)" /><text fill="black" x="1695.0" y="124.4">E127</text><polygon fill="rgb(150,150,150)" points="1845.0,55.0 1845.0,54.8 1835.0,54.8 1835.0,53.6 1827.5,53.6 1827.5,48.4 1825.0,48.4 1825.0,48.0 1820.0,48.0 1820.0,44.800000000000004 1817.5,44.800000000000004 1817.5,43.0 1812.5,43.0 1812.5,42.0 1810.0,42.0 1810.0,41.4 1807.5,41.4 1807.5,37.0 1800.0,37.0 1800.0,37.0 1792.5,37.0 1792.5,41.4 1790.0,41.4 1790.0,42.0 1787.5,42.0 1787.5,43.0 1782.5,43.0 1782.5,44.800000000000004 1780.0,44.800000000000004 1780.0,48.0 1775.0,48.0 1775.0,48.4 1772.5,48.4 1772.5,53.6 1765.0,53.6 1765.0,54.8 1755.0,54.8 1755.0,55.0 1755.0,55.0 1755.0,55.2 1765.0,55.2 1765.0,56.4 1772.5,56.4 1772.5,61.6 1775.0,61.6 1775.0,62.0 1780.0,62.0 1780.0,65.2 1782.5,65.2 1782.5,67.0 1787.5,67.0 1787.5,68.0 1790.0,68.0 1790.0,68.6 1792.5,68.6 1792.5,73.0 1800.0,73.0 1800.0,73.0 1807.5,73.0 1807.5,68.6 1810.0,68.6 1810.0,68.0 1812.5,68.0 1812.5,67.0 1817.5,67.0 1817.5,65.2 1820.0,65.2 1820.0,62.0 1825.0,62.0 1825.0,61.6 1827.5,61.6 1827.5,56.4 1835.0,56.4 1835.0,55.2 1845.0,55.2 1845.0,55.0" stroke="rgb(0,0,0)" /><text fill="black" x="1755.0" y="93.0">H143</text><polygon fill="rgb(150,150,150)" points="1980.0,55.0 1980.0,54.8 1962.5,54.8 1962.5,54.6 1960.0,54.6 1960.0,54.4 1957.5,54.4 1957.5,54.2 1955.0,54.2 1955.0,54.0 1952.5,54.0 1952.5,44.2 1940.0,44.2 1940.0,43.2 1935.0,43.2 1935.0,42.8 1927.5,42.8 1927.5,42.8 1920.0,42.8 1920.0,43.2 1915.0,43.2 1915.0,44.2 1902.5,44.2 1902.5,54.0 1900.0,54.0 1900.0,54.2 1897.5,54.2 1897.5,54.4 1895.0,54.4 1895.0,54.6 1892.5,54.6 1892.5,54.8 1875.0,54.8 1875.0,55.0 1875.0,55.0 1875.0,55.2 1892.5,55.2 1892.5,55.4 1895.0,55.4 1895.0,55.6 1897.5,55.6 1897.5,55.8 1900.0,55.8 1900.0,56.0 1902.5,56.0 1902.5,65.8 1915.0,65.8 1915.0,66.8 1920.0,66.8 1920.0,67.2 1927.5,67.2 1927.5,67.2 1935.0,67.2 1935.0,66.8 1940.0,66.8 1940.0,65.8 1952.5,65.8 1952.5,56.0 1955.0,56.0 1955.0,55.8 1957.5,55.8 1957.5,55.6 1960.0,55.6 1960.0,55.4 1962.5,55.4 1962.5,55.2 1980.0,55.2 1980.0,55.0" stroke="rgb(0,0,0)" /><text fill="black" x="1875.0" y="87.2">H158</text><polygon fill="rgb(150,150,150)" points="2060.0,55.0 2060.0,54.8 2055.0,54.8 2055.0,52.599999999999994 2052.5,52.599999999999994 2052.5,52.4 2050.0,52.4 2050.0,52.0 2047.5,52.0 2047.5,50.800000000000004 2045.0,50.800000000000004 2045.0,47.199999999999996 2042.5,47.199999999999996 2042.5,41.8 2035.0,41.8 2035.0,41.8 2027.5,41.8 2027.5,47.199999999999996 2025.0,47.199999999999996 2025.0,50.800000000000004 2022.5,50.800000000000004 2022.5,52.0 2020.0,52.0 2020.0,52.4 2017.5,52.4 2017.5,52.599999999999994 2015.0,52.599999999999994 2015.0,54.8 2010.0,54.8 2010.0,55.0 2010.0,55.0 2010.0,55.2 2015.0,55.2 2015.0,57.400000000000006 2017.5,57.400000000000006 2017.5,57.6 2020.0,57.6 2020.0,58.0 2022.5,58.0 2022.5,59.199999999999996 2025.0,59.199999999999996 2025.0,62.800000000000004 2027.5,62.800000000000004 2027.5,68.2 2035.0,68.2 2035.0,68.2 2042.5,68.2 2042.5,62.800000000000004 2045.0,62.800000000000004 2045.0,59.199999999999996 2047.5,59.199999999999996 2047.5,58.0 2050.0,58.0 2050.0,57.6 2052.5,57.6 2052.5,57.400000000000006 2055.0,57.400000000000006 2055.0,55.2 2060.0,55.2 2060.0,55.0" stroke="rgb(0,0,0)" /><text fill="black" x="2010.0" y="88.2">H162</text><polygon fill="rgb(150,150,150)" points="2170.0,55.0 2170.0,54.8 2167.5,54.8 2167.5,53.8 2165.0,53.8 2165.0,53.6 2162.5,53.6 2162.5,53.4 2157.5,53.4 2157.5,50.4 2155.0,50.4 2155.0,46.8 2152.5,46.8 2152.5,46.0 2150.0,46.0 2150.0,45.8 2147.5,45.8 2147.5,45.6 2142.5,45.6 2142.5,44.6 2140.0,44.6 2140.0,44.400000000000006 2130.0,44.400000000000006 2130.0,44.400000000000006 2120.0,44.400000000000006 2120.0,44.6 2117.5,44.6 2117.5,45.6 2112.5,45.6 2112.5,45.8 2110.0,45.8 2110.0,46.0 2107.5,46.0 2107.5,46.8 2105.0,46.8 2105.0,50.4 2102.5,50.4 2102.5,53.4 2097.5,53.4 2097.5,53.6 2095.0,53.6 2095.0,53.8 2092.5,53.8 2092.5,54.8 2090.0,54.8 2090.0,55.0 2090.0,55.0 2090.0,55.2 2092.5,55.2 2092.5,56.2 2095.0,56.2 2095.0,56.4 2097.5,56.4 2097.5,56.6 2102.5,56.6 2102.5,59.6 2105.0,59.6 2105.0,63.2 2107.5,63.2 2107.5,64.0 2110.0,64.0 2110.0,64.2 2112.5,64.2 2112.5,64.39999999999999 2117.5,64.39999999999999 2117.5,65.4 2120.0,65.4 2120.0,65.6 2130.0,65.6 2130.0,65.6 2140.0,65.6 2140.0,65.4 2142.5,65.4 2142.5,64.39999999999999 2147.5,64.39999999999999 2147.5,64.2 2150.0,64.2 2150.0,64.0 2152.5,64.0 2152.5,63.2 2155.0,63.2 2155.0,59.6 2157.5,59.6 2157.5,56.6 2162.5,56.6 2162.5,56.4 2165.0,56.4 2165.0,56.2 2167.5,56.2 2167.5,55.2 2170.0,55.2 2170.0,55.0" stroke="rgb(0,0,0)" /><text fill="black" x="2090.0" y="85.6">H165</text><path d="M 190.0,55.0 a 145.1278409090909,145.1278409090909 0 0,0 227.5,-0.0" stroke="rgb(255,150,150)" stroke-width="2" /><path d="M 190.0,55.0 a 145.1278409090909,145.1278409090909 0 0,0 227.5,-0.0" stroke="rgb(0,0,0)" stroke-width="0.2" /><path d="M 190.0,55.0 a 3410.2272727272725,3410.2272727272725 0 0,0 1220.0,-0.0" stroke="rgb(255,150,150)" stroke-width="2" /><path d="M 190.0,55.0 a 3410.2272727272725,3410.2272727272725 0 0,0 1220.0,-0.0" stroke="rgb(0,0,0)" stroke-width="0.2" /><path d="M 417.5,55.0 a 347.10227272727275,347.10227272727275 0 0,0 375.0,-0.0" stroke="rgb(255,150,150)" stroke-width="2" /><path d="M 417.5,55.0 a 347.10227272727275,347.10227272727275 0 0,0 375.0,-0.0" stroke="rgb(0,0,0)" stroke-width="0.2" /><path d="M 1410.0,55.0 a 232.04545454545453,232.04545454545453 0 0,0 300.0,-0.0" stroke="rgb(255,150,150)" stroke-width="2" /><path d="M 1410.0,55.0 a 232.04545454545453,232.04545454545453 0 0,0 300.0,-0.0" stroke="rgb(0,0,0)" stroke-width="0.2" /></svg>