<?xml version="1.0" encoding="utf-8" ?>
<svg baseProfile="full" height="100%" style="font-size:14;font-family:Sans, Arial;stroke-width:1;fill:none" version="1.1" width="100%" xmlns="http://www.w3.org/2000/svg" xmlns:ev="http://www.w3.org/2001/xml-events" xmlns:xlink="http://www.w3.org/1999/xlink"><defs /><rect fill="none" height="280.0" stroke="none" width="5568.084099999998" x="0" y="0" /><line stroke="rgb(0,0,0)" x1="5.0" x2="15.55555" y1="130.0" y2="130.0" /><line stroke="rgb(0,0,0)" x1="15.55555" x2="35.55555" y1="130.0" y2="130.0" /><line stroke="rgb(0,0,0)" x1="35.55555" x2="40.55555" y1="130.0" y2="130.0" /><line stroke="rgb(0,0,0)" x1="40.55555" x2="67.00715000000001" y1="130.0" y2="130.0" /><line stroke="rgb(0,0,0)" x1="67.00715000000001" x2="87.00715000000001" y1="130.0" y2="130.0" /><line stroke="rgb(0,0,0)" x1="87.00715000000001" x2="92.00715000000001" y1="130.0" y2="130.0" /><line stroke="rgb(0,0,0)" x1="92.00715000000001" x2="112.00715000000001" y1="130.0" y2="130.0" /><line stroke="rgb(0,0,0)" x1="112.00715000000001" x2="132.00715" y1="130.0" y2="130.0" /><line stroke="rgb(0,0,0)" x1="132.00715" x2="137.00715" y1="130.0" y2="130.0" /><line stroke="rgb(0,0,0)" x1="137.00715" x2="148.58195" y1="130.0" y2="130.0" /><line stroke="rgb(0,0,0)" x1="148.58195" x2="168.58195" y1="130.0" y2="130.0" /><line stroke="rgb(0,0,0)" x1="168.58195" x2="173.58195" y1="130.0" y2="130.0" /><line stroke="rgb(0,0,0)" x1="173.58195" x2="183.69560000000004" y1="130.0" y2="130.0" /><line stroke="rgb(0,0,0)" x1="183.69560000000004" x2="203.69560000000004" y1="130.0" y2="130.0" /><line stroke="rgb(0,0,0)" x1="203.69560000000004" x2="208.69560000000004" y1="130.0" y2="130.0" /><line stroke="rgb(0,0,0)" x1="208.69560000000004" x2="228.69560000000004" y1="130.0" y2="130.0" /><line stroke="rgb(0,0,0)" x1="228.69560000000004" x2="248.69560000000004" y1="130.0" y2="130.0" /><line stroke="rgb(0,0,0)" x1="248.69560000000004" x2="253.69560000000004" y1="130.0" y2="130.0" /><line stroke="rgb(0,0,0)" x1="253.69560000000004" x2="263.79365000000007" y1="130.0" y2="130.0" /><line stroke="rgb(0,0,0)" x1="263.79365000000007" x2="283.79365" y1="130.0" y2="130.0" /><line stroke="rgb(0,0,0)" x1="283.79365" x2="288.79365" y1="130.0" y2="130.0" /><line stroke="rgb(0,0,0)" x1="288.79365" x2="321.35775" y1="130.0" y2="130.0" /><line stroke="rgb(0,0,0)" x1="321.35775" x2="341.35775" y1="130.0" y2="130.0" /><line stroke="rgb(0,0,0)" x1="341.35775" x2="346.35775" y1="130.0" y2="130.0" /><line stroke="rgb(0,0,0)" x1="346.35775" x2="356.35775" y1="130.0" y2="130.0" /><line stroke="rgb(0,0,0)" x1="356.35775" x2="376.35775" y1="130.0" y2="130.0" /><line stroke="rgb(0,0,0)" x1="376.35775" x2="381.35775" y1="130.0" y2="130.0" /><line stroke="rgb(0,0,0)" x1="381.35775" x2="402.98425000000003" y1="130.0" y2="130.0" /><line stroke="rgb(0,0,0)" x1="402.98425000000003" x2="422.98425000000003" y1="130.0" y2="55.0" /><line stroke="rgb(0,0,0)" x1="422.98425000000003" x2="427.98425000000003" y1="55.0" y2="55.0" /><line stroke="rgb(0,0,0)" x1="381.35775" x2="402.98425000000003" y1="130.0" y2="130.0" /><line stroke="rgb(0,0,0)" x1="402.98425000000003" x2="422.98425000000003" y1="130.0" y2="205.0" /><line stroke="rgb(0,0,0)" x1="422.98425000000003" x2="427.98425000000003" y1="205.0" y2="205.0" /><line stroke="rgb(0,0,0)" x1="427.98425000000003" x2="440.98425" y1="205.0" y2="205.0" /><line stroke="rgb(0,0,0)" x1="440.98425" x2="472.06320000000005" y1="205.0" y2="130.0" /><line stroke="rgb(0,0,0)" x1="472.06320000000005" x2="477.06320000000005" y1="130.0" y2="130.0" /><line stroke="rgb(0,0,0)" x1="477.06320000000005" x2="489.56320000000005" y1="130.0" y2="130.0" /><line stroke="rgb(0,0,0)" x1="489.56320000000005" x2="509.56320000000005" y1="130.0" y2="130.0" /><line stroke="rgb(0,0,0)" x1="509.56320000000005" x2="514.5632" y1="130.0" y2="130.0" /><line stroke="rgb(0,0,0)" x1="427.98425000000003" x2="452.06320000000005" y1="55.0" y2="55.0" /><line stroke="rgb(0,0,0)" x1="452.06320000000005" x2="509.56320000000005" y1="55.0" y2="130.0" /><line stroke="rgb(0,0,0)" x1="509.56320000000005" x2="514.5632" y1="130.0" y2="130.0" /><line stroke="rgb(0,0,0)" x1="514.5632" x2="574.5032000000001" y1="130.0" y2="130.0" /><line stroke="rgb(0,0,0)" x1="574.5032000000001" x2="594.5032000000001" y1="130.0" y2="130.0" /><line stroke="rgb(0,0,0)" x1="594.5032000000001" x2="599.5032000000001" y1="130.0" y2="130.0" /><line stroke="rgb(0,0,0)" x1="599.5032000000001" x2="619.5032000000001" y1="130.0" y2="130.0" /><line stroke="rgb(0,0,0)" x1="619.5032000000001" x2="639.5032000000001" y1="130.0" y2="130.0" /><line stroke="rgb(0,0,0)" x1="639.5032000000001" x2="644.5032000000001" y1="130.0" y2="130.0" /><line stroke="rgb(0,0,0)" x1="644.5032000000001" x2="674.4229" y1="130.0" y2="130.0" /><line stroke="rgb(0,0,0)" x1="674.4229" x2="694.4229" y1="130.0" y2="55.0" /><line stroke="rgb(0,0,0)" x1="694.4229" x2="699.4229" y1="55.0" y2="55.0" /><line stroke="rgb(0,0,0)" x1="644.5032000000001" x2="674.4229" y1="130.0" y2="130.0" /><line stroke="rgb(0,0,0)" x1="674.4229" x2="694.4229" y1="130.0" y2="205.0" /><line stroke="rgb(0,0,0)" x1="694.4229" x2="699.4229" y1="205.0" y2="205.0" /><line stroke="rgb(0,0,0)" x1="699.4229" x2="719.4229" y1="55.0" y2="55.0" /><line stroke="rgb(0,0,0)" x1="719.4229" x2="739.4229" y1="55.0" y2="55.0" /><line stroke="rgb(0,0,0)" x1="739.4229" x2="744.4229" y1="55.0" y2="55.0" /><line stroke="rgb(0,0,0)" x1="699.4229" x2="709.4229" y1="205.0" y2="205.0" /><line stroke="rgb(0,0,0)" x1="709.4229" x2="739.4229" y1="205.0" y2="205.0" /><line stroke="rgb(0,0,0)" x1="739.4229" x2="744.4229" y1="205.0" y2="205.0" /><line stroke="rgb(0,0,0)" x1="744.4229" x2="764.4229" y1="55.0" y2="55.0" /><line stroke="rgb(0,0,0)" x1="764.4229" x2="784.4229" y1="55.0" y2="130.0" /><line stroke="rgb(0,0,0)" x1="784.4229" x2="789.4229" y1="130.0" y2="130.0" /><line stroke="rgb(0,0,0)" x1="744.4229" x2="754.4229" y1="205.0" y2="205.0" /><line stroke="rgb(0,0,0)" x1="754.4229" x2="784.4229" y1="205.0" y2="130.0" /><line stroke="rgb(0,0,0)" x1="784.4229" x2="789.4229" y1="130.0" y2="130.0" /><line stroke="rgb(0,0,0)" x1="789.4229" x2="819.5628999999999" y1="130.0" y2="130.0" /><line stroke="rgb(0,0,0)" x1="819.5628999999999" x2="839.5628999999999" y1="130.0" y2="130.0" /><line stroke="rgb(0,0,0)" x1="839.5628999999999" x2="844.5628999999999" y1="130.0" y2="130.0" /><line stroke="rgb(0,0,0)" x1="844.5628999999999" x2="867.5628999999999" y1="130.0" y2="130.0" /><line stroke="rgb(0,0,0)" x1="867.5628999999999" x2="887.5628999999999" y1="130.0" y2="130.0" /><line stroke="rgb(0,0,0)" x1="887.5628999999999" x2="892.5628999999999" y1="130.0" y2="130.0" /><line stroke="rgb(0,0,0)" x1="892.5628999999999" x2="944.8721499999999" y1="130.0" y2="130.0" /><line stroke="rgb(0,0,0)" x1="944.8721499999999" x2="964.8721499999999" y1="130.0" y2="130.0" /><line stroke="rgb(0,0,0)" x1="964.8721499999999" x2="969.8721499999999" y1="130.0" y2="130.0" /><line stroke="rgb(0,0,0)" x1="969.8721499999999" x2="993.3240499999999" y1="130.0" y2="130.0" /><line stroke="rgb(0,0,0)" x1="993.3240499999999" x2="1013.3240499999999" y1="130.0" y2="130.0" /><line stroke="rgb(0,0,0)" x1="1013.3240499999999" x2="1018.3240499999999" y1="130.0" y2="130.0" /><line stroke="rgb(0,0,0)" x1="1018.3240499999999" x2="1028.32405" y1="130.0" y2="130.0" /><line stroke="rgb(0,0,0)" x1="1028.32405" x2="1048.32405" y1="130.0" y2="130.0" /><line stroke="rgb(0,0,0)" x1="1048.32405" x2="1053.32405" y1="130.0" y2="130.0" /><line stroke="rgb(0,0,0)" x1="1053.32405" x2="1069.0173499999999" y1="130.0" y2="130.0" /><line stroke="rgb(0,0,0)" x1="1069.0173499999999" x2="1089.0173499999999" y1="130.0" y2="55.0" /><line stroke="rgb(0,0,0)" x1="1089.0173499999999" x2="1094.0173499999999" y1="55.0" y2="55.0" /><line stroke="rgb(0,0,0)" x1="1053.32405" x2="1069.0173499999999" y1="130.0" y2="130.0" /><line stroke="rgb(0,0,0)" x1="1069.0173499999999" x2="1089.0173499999999" y1="130.0" y2="205.0" /><line stroke="rgb(0,0,0)" x1="1089.0173499999999" x2="1094.0173499999999" y1="205.0" y2="205.0" /><line stroke="rgb(0,0,0)" x1="1094.0173499999999" x2="1099.0173499999999" y1="55.0" y2="55.0" /><line stroke="rgb(0,0,0)" x1="1099.0173499999999" x2="1139.3592499999997" y1="55.0" y2="130.0" /><line stroke="rgb(0,0,0)" x1="1139.3592499999997" x2="1144.3592499999997" y1="130.0" y2="130.0" /><line stroke="rgb(0,0,0)" x1="1144.3592499999997" x2="1149.3592499999997" y1="130.0" y2="130.0" /><line stroke="rgb(0,0,0)" x1="1149.3592499999997" x2="1169.3592499999997" y1="130.0" y2="130.0" /><line stroke="rgb(0,0,0)" x1="1169.3592499999997" x2="1174.3592499999997" y1="130.0" y2="130.0" /><line stroke="rgb(0,0,0)" x1="1094.0173499999999" x2="1119.3592499999997" y1="205.0" y2="205.0" /><line stroke="rgb(0,0,0)" x1="1119.3592499999997" x2="1169.3592499999997" y1="205.0" y2="130.0" /><line stroke="rgb(0,0,0)" x1="1169.3592499999997" x2="1174.3592499999997" y1="130.0" y2="130.0" /><line stroke="rgb(0,0,0)" x1="1174.3592499999997" x2="1207.1370499999998" y1="130.0" y2="130.0" /><line stroke="rgb(0,0,0)" x1="1207.1370499999998" x2="1227.1370499999998" y1="130.0" y2="130.0" /><line stroke="rgb(0,0,0)" x1="1227.1370499999998" x2="1232.1370499999998" y1="130.0" y2="130.0" /><line stroke="rgb(0,0,0)" x1="1232.1370499999998" x2="1274.0346499999998" y1="130.0" y2="130.0" /><line stroke="rgb(0,0,0)" x1="1274.0346499999998" x2="1294.0346499999998" y1="130.0" y2="55.0" /><line stroke="rgb(0,0,0)" x1="1294.0346499999998" x2="1299.0346499999998" y1="55.0" y2="55.0" /><line stroke="rgb(0,0,0)" x1="1232.1370499999998" x2="1274.0346499999998" y1="130.0" y2="130.0" /><line stroke="rgb(0,0,0)" x1="1274.0346499999998" x2="1294.0346499999998" y1="130.0" y2="205.0" /><line stroke="rgb(0,0,0)" x1="1294.0346499999998" x2="1299.0346499999998" y1="205.0" y2="205.0" /><line stroke="rgb(0,0,0)" x1="1299.0346499999998" x2="1304.0346499999998" y1="55.0" y2="55.0" /><line stroke="rgb(0,0,0)" x1="1304.0346499999998" x2="1334.868" y1="55.0" y2="55.0" /><line stroke="rgb(0,0,0)" x1="1334.868" x2="1339.868" y1="55.0" y2="55.0" /><line stroke="rgb(0,0,0)" x1="1299.0346499999998" x2="1314.868" y1="205.0" y2="205.0" /><line stroke="rgb(0,0,0)" x1="1314.868" x2="1334.868" y1="205.0" y2="205.0" /><line stroke="rgb(0,0,0)" x1="1334.868" x2="1339.868" y1="205.0" y2="205.0" /><line stroke="rgb(0,0,0)" x1="1339.868" x2="1369.868" y1="55.0" y2="55.0" /><line stroke="rgb(0,0,0)" x1="1369.868" x2="1389.868" y1="55.0" y2="130.0" /><line stroke="rgb(0,0,0)" x1="1389.868" x2="1394.868" y1="130.0" y2="130.0" /><line stroke="rgb(0,0,0)" x1="1339.868" x2="1350.8055" y1="205.0" y2="205.0" /><line stroke="rgb(0,0,0)" x1="1350.8055" x2="1389.868" y1="205.0" y2="130.0" /><line stroke="rgb(0,0,0)" x1="1389.868" x2="1394.868" y1="130.0" y2="130.0" /><line stroke="rgb(0,0,0)" x1="1394.868" x2="1426.57015" y1="130.0" y2="130.0" /><line stroke="rgb(0,0,0)" x1="1426.57015" x2="1446.57015" y1="130.0" y2="55.0" /><line stroke="rgb(0,0,0)" x1="1446.57015" x2="1451.57015" y1="55.0" y2="55.0" /><line stroke="rgb(0,0,0)" x1="1394.868" x2="1426.57015" y1="130.0" y2="130.0" /><line stroke="rgb(0,0,0)" x1="1426.57015" x2="1446.57015" y1="130.0" y2="205.0" /><line stroke="rgb(0,0,0)" x1="1446.57015" x2="1451.57015" y1="205.0" y2="205.0" /><line stroke="rgb(0,0,0)" x1="1451.57015" x2="1474.2785000000001" y1="55.0" y2="55.0" /><line stroke="rgb(0,0,0)" x1="1474.2785000000001" x2="1494.2785000000001" y1="55.0" y2="130.0" /><line stroke="rgb(0,0,0)" x1="1494.2785000000001" x2="1499.2785000000001" y1="130.0" y2="130.0" /><line stroke="rgb(0,0,0)" x1="1499.2785000000001" x2="1527.6118500000002" y1="130.0" y2="130.0" /><line stroke="rgb(0,0,0)" x1="1527.6118500000002" x2="1547.6118500000002" y1="130.0" y2="130.0" /><line stroke="rgb(0,0,0)" x1="1547.6118500000002" x2="1552.6118500000002" y1="130.0" y2="130.0" /><line stroke="rgb(0,0,0)" x1="1451.57015" x2="1461.57015" y1="205.0" y2="205.0" /><line stroke="rgb(0,0,0)" x1="1461.57015" x2="1547.6118500000002" y1="205.0" y2="130.0" /><line stroke="rgb(0,0,0)" x1="1547.6118500000002" x2="1552.6118500000002" y1="130.0" y2="130.0" /><line stroke="rgb(0,0,0)" x1="1552.6118500000002" x2="1631.39385" y1="130.0" y2="130.0" /><line stroke="rgb(0,0,0)" x1="1631.39385" x2="1651.39385" y1="130.0" y2="55.0" /><line stroke="rgb(0,0,0)" x1="1651.39385" x2="1656.39385" y1="55.0" y2="55.0" /><line stroke="rgb(0,0,0)" x1="1552.6118500000002" x2="1631.39385" y1="130.0" y2="130.0" /><line stroke="rgb(0,0,0)" x1="1631.39385" x2="1651.39385" y1="130.0" y2="205.0" /><line stroke="rgb(0,0,0)" x1="1651.39385" x2="1656.39385" y1="205.0" y2="205.0" /><line stroke="rgb(0,0,0)" x1="1656.39385" x2="1666.39385" y1="55.0" y2="55.0" /><line stroke="rgb(0,0,0)" x1="1666.39385" x2="1708.26885" y1="55.0" y2="130.0" /><line stroke="rgb(0,0,0)" x1="1708.26885" x2="1713.26885" y1="130.0" y2="130.0" /><line stroke="rgb(0,0,0)" x1="1656.39385" x2="1688.26885" y1="205.0" y2="205.0" /><line stroke="rgb(0,0,0)" x1="1688.26885" x2="1708.26885" y1="205.0" y2="130.0" /><line stroke="rgb(0,0,0)" x1="1708.26885" x2="1713.26885" y1="130.0" y2="130.0" /><line stroke="rgb(0,0,0)" x1="1713.26885" x2="1750.0957500000002" y1="130.0" y2="130.0" /><line stroke="rgb(0,0,0)" x1="1750.0957500000002" x2="1770.0957500000002" y1="130.0" y2="130.0" /><line stroke="rgb(0,0,0)" x1="1770.0957500000002" x2="1775.0957500000002" y1="130.0" y2="130.0" /><line stroke="rgb(0,0,0)" x1="1775.0957500000002" x2="1785.0957500000002" y1="130.0" y2="130.0" /><line stroke="rgb(0,0,0)" x1="1785.0957500000002" x2="1805.0957500000002" y1="130.0" y2="130.0" /><line stroke="rgb(0,0,0)" x1="1805.0957500000002" x2="1810.0957500000002" y1="130.0" y2="130.0" /><line stroke="rgb(0,0,0)" x1="1810.0957500000002" x2="1924.95575" y1="130.0" y2="130.0" /><line stroke="rgb(0,0,0)" x1="1924.95575" x2="1944.95575" y1="130.0" y2="130.0" /><line stroke="rgb(0,0,0)" x1="1944.95575" x2="1949.95575" y1="130.0" y2="130.0" /><line stroke="rgb(0,0,0)" x1="1949.95575" x2="1971.7739499999998" y1="130.0" y2="130.0" /><line stroke="rgb(0,0,0)" x1="1971.7739499999998" x2="1991.7739499999998" y1="130.0" y2="130.0" /><line stroke="rgb(0,0,0)" x1="1991.7739499999998" x2="1996.7739499999998" y1="130.0" y2="130.0" /><line stroke="rgb(0,0,0)" x1="1996.7739499999998" x2="2006.7739499999998" y1="130.0" y2="130.0" /><line stroke="rgb(0,0,0)" x1="2006.7739499999998" x2="2026.7739499999998" y1="130.0" y2="130.0" /><line stroke="rgb(0,0,0)" x1="2026.7739499999998" x2="2031.7739499999998" y1="130.0" y2="130.0" /><line stroke="rgb(0,0,0)" x1="2031.7739499999998" x2="2048.49895" y1="130.0" y2="130.0" /><line stroke="rgb(0,0,0)" x1="2048.49895" x2="2068.49895" y1="130.0" y2="130.0" /><line stroke="rgb(0,0,0)" x1="2068.49895" x2="2073.49895" y1="130.0" y2="130.0" /><line stroke="rgb(0,0,0)" x1="2073.49895" x2="2098.49895" y1="130.0" y2="130.0" /><line stroke="rgb(0,0,0)" x1="2098.49895" x2="2118.49895" y1="130.0" y2="130.0" /><line stroke="rgb(0,0,0)" x1="2118.49895" x2="2123.49895" y1="130.0" y2="130.0" /><line stroke="rgb(0,0,0)" x1="2123.49895" x2="2216.9389499999997" y1="130.0" y2="130.0" /><line stroke="rgb(0,0,0)" x1="2216.9389499999997" x2="2236.9389499999997" y1="130.0" y2="55.0" /><line stroke="rgb(0,0,0)" x1="2236.9389499999997" x2="2241.9389499999997" y1="55.0" y2="55.0" /><line stroke="rgb(0,0,0)" x1="2123.49895" x2="2216.9389499999997" y1="130.0" y2="130.0" /><line stroke="rgb(0,0,0)" x1="2216.9389499999997" x2="2236.9389499999997" y1="130.0" y2="205.0" /><line stroke="rgb(0,0,0)" x1="2236.9389499999997" x2="2241.9389499999997" y1="205.0" y2="205.0" /><line stroke="rgb(0,0,0)" x1="2241.9389499999997" x2="2251.9389499999997" y1="55.0" y2="55.0" /><line stroke="rgb(0,0,0)" x1="2251.9389499999997" x2="2286.8787" y1="55.0" y2="130.0" /><line stroke="rgb(0,0,0)" x1="2286.8787" x2="2291.8787" y1="130.0" y2="130.0" /><line stroke="rgb(0,0,0)" x1="2241.9389499999997" x2="2266.8787" y1="205.0" y2="205.0" /><line stroke="rgb(0,0,0)" x1="2266.8787" x2="2286.8787" y1="205.0" y2="130.0" /><line stroke="rgb(0,0,0)" x1="2286.8787" x2="2291.8787" y1="130.0" y2="130.0" /><line stroke="rgb(0,0,0)" x1="2291.8787" x2="2363.6287" y1="130.0" y2="130.0" /><line stroke="rgb(0,0,0)" x1="2363.6287" x2="2383.6287" y1="130.0" y2="130.0" /><line stroke="rgb(0,0,0)" x1="2383.6287" x2="2388.6287" y1="130.0" y2="130.0" /><line stroke="rgb(0,0,0)" x1="2388.6287" x2="2474.1737000000003" y1="130.0" y2="130.0" /><line stroke="rgb(0,0,0)" x1="2474.1737000000003" x2="2494.1737000000003" y1="130.0" y2="130.0" /><line stroke="rgb(0,0,0)" x1="2494.1737000000003" x2="2499.1737000000003" y1="130.0" y2="130.0" /><line stroke="rgb(0,0,0)" x1="2499.1737000000003" x2="2509.1737000000003" y1="130.0" y2="130.0" /><line stroke="rgb(0,0,0)" x1="2509.1737000000003" x2="2529.1737000000003" y1="130.0" y2="55.0" /><line stroke="rgb(0,0,0)" x1="2529.1737000000003" x2="2534.1737000000003" y1="55.0" y2="55.0" /><line stroke="rgb(0,0,0)" x1="2499.1737000000003" x2="2509.1737000000003" y1="130.0" y2="130.0" /><line stroke="rgb(0,0,0)" x1="2509.1737000000003" x2="2529.1737000000003" y1="130.0" y2="205.0" /><line stroke="rgb(0,0,0)" x1="2529.1737000000003" x2="2534.1737000000003" y1="205.0" y2="205.0" /><line stroke="rgb(0,0,0)" x1="2534.1737000000003" x2="2560.9919" y1="55.0" y2="55.0" /><line stroke="rgb(0,0,0)" x1="2560.9919" x2="2580.9919" y1="55.0" y2="130.0" /><line stroke="rgb(0,0,0)" x1="2580.9919" x2="2585.9919" y1="130.0" y2="130.0" /><line stroke="rgb(0,0,0)" x1="2585.9919" x2="2628.1953000000003" y1="130.0" y2="130.0" /><line stroke="rgb(0,0,0)" x1="2628.1953000000003" x2="2648.1953000000003" y1="130.0" y2="130.0" /><line stroke="rgb(0,0,0)" x1="2648.1953000000003" x2="2653.1953000000003" y1="130.0" y2="130.0" /><line stroke="rgb(0,0,0)" x1="2653.1953000000003" x2="2688.1953000000003" y1="130.0" y2="130.0" /><line stroke="rgb(0,0,0)" x1="2688.1953000000003" x2="2708.1953000000003" y1="130.0" y2="130.0" /><line stroke="rgb(0,0,0)" x1="2708.1953000000003" x2="2713.1953000000003" y1="130.0" y2="130.0" /><line stroke="rgb(0,0,0)" x1="2534.1737000000003" x2="2544.1737000000003" y1="205.0" y2="205.0" /><line stroke="rgb(0,0,0)" x1="2544.1737000000003" x2="2708.1953000000003" y1="205.0" y2="130.0" /><line stroke="rgb(0,0,0)" x1="2708.1953000000003" x2="2713.1953000000003" y1="130.0" y2="130.0" /><line stroke="rgb(0,0,0)" x1="2713.1953000000003" x2="2748.9645500000006" y1="130.0" y2="130.0" /><line stroke="rgb(0,0,0)" x1="2748.9645500000006" x2="2768.9645500000006" y1="130.0" y2="130.0" /><line stroke="rgb(0,0,0)" x1="2768.9645500000006" x2="2773.9645500000006" y1="130.0" y2="130.0" /><line stroke="rgb(0,0,0)" x1="2773.9645500000006" x2="2783.9645500000006" y1="130.0" y2="130.0" /><line stroke="rgb(0,0,0)" x1="2783.9645500000006" x2="2803.9645500000006" y1="130.0" y2="130.0" /><line stroke="rgb(0,0,0)" x1="2803.9645500000006" x2="2808.9645500000006" y1="130.0" y2="130.0" /><line stroke="rgb(0,0,0)" x1="2808.9645500000006" x2="2934.9045500000007" y1="130.0" y2="130.0" /><line stroke="rgb(0,0,0)" x1="2934.9045500000007" x2="2954.9045500000007" y1="130.0" y2="130.0" /><line stroke="rgb(0,0,0)" x1="2954.9045500000007" x2="2959.9045500000007" y1="130.0" y2="130.0" /><line stroke="rgb(0,0,0)" x1="2959.9045500000007" x2="2969.9045500000007" y1="130.0" y2="130.0" /><line stroke="rgb(0,0,0)" x1="2969.9045500000007" x2="2989.9045500000007" y1="130.0" y2="130.0" /><line stroke="rgb(0,0,0)" x1="2989.9045500000007" x2="2994.9045500000007" y1="130.0" y2="130.0" /><line stroke="rgb(0,0,0)" x1="2994.9045500000007" x2="3016.1309500000007" y1="130.0" y2="130.0" /><line stroke="rgb(0,0,0)" x1="3016.1309500000007" x2="3036.1309500000007" y1="130.0" y2="130.0" /><line stroke="rgb(0,0,0)" x1="3036.1309500000007" x2="3041.1309500000007" y1="130.0" y2="130.0" /><line stroke="rgb(0,0,0)" x1="3041.1309500000007" x2="3051.1309500000007" y1="130.0" y2="130.0" /><line stroke="rgb(0,0,0)" x1="3051.1309500000007" x2="3071.1309500000007" y1="130.0" y2="130.0" /><line stroke="rgb(0,0,0)" x1="3071.1309500000007" x2="3076.1309500000007" y1="130.0" y2="130.0" /><line stroke="rgb(0,0,0)" x1="3076.1309500000007" x2="3124.4909500000003" y1="130.0" y2="130.0" /><line stroke="rgb(0,0,0)" x1="3124.4909500000003" x2="3144.4909500000003" y1="130.0" y2="130.0" /><line stroke="rgb(0,0,0)" x1="3144.4909500000003" x2="3149.4909500000003" y1="130.0" y2="130.0" /><line stroke="rgb(0,0,0)" x1="3149.4909500000003" x2="3162.22245" y1="130.0" y2="130.0" /><line stroke="rgb(0,0,0)" x1="3162.22245" x2="3182.22245" y1="130.0" y2="130.0" /><line stroke="rgb(0,0,0)" x1="3182.22245" x2="3187.22245" y1="130.0" y2="130.0" /><line stroke="rgb(0,0,0)" x1="3187.22245" x2="3207.819450000001" y1="130.0" y2="130.0" /><line stroke="rgb(0,0,0)" x1="3207.819450000001" x2="3227.819450000001" y1="130.0" y2="55.0" /><line stroke="rgb(0,0,0)" x1="3227.819450000001" x2="3232.819450000001" y1="55.0" y2="55.0" /><line stroke="rgb(0,0,0)" x1="3187.22245" x2="3207.819450000001" y1="130.0" y2="130.0" /><line stroke="rgb(0,0,0)" x1="3207.819450000001" x2="3227.819450000001" y1="130.0" y2="205.0" /><line stroke="rgb(0,0,0)" x1="3227.819450000001" x2="3232.819450000001" y1="205.0" y2="205.0" /><line stroke="rgb(0,0,0)" x1="3232.819450000001" x2="3314.069450000001" y1="55.0" y2="55.0" /><line stroke="rgb(0,0,0)" x1="3314.069450000001" x2="3334.069450000001" y1="55.0" y2="130.0" /><line stroke="rgb(0,0,0)" x1="3334.069450000001" x2="3339.069450000001" y1="130.0" y2="130.0" /><line stroke="rgb(0,0,0)" x1="3232.819450000001" x2="3245.5509500000007" y1="205.0" y2="205.0" /><line stroke="rgb(0,0,0)" x1="3245.5509500000007" x2="3334.069450000001" y1="205.0" y2="130.0" /><line stroke="rgb(0,0,0)" x1="3334.069450000001" x2="3339.069450000001" y1="130.0" y2="130.0" /><line stroke="rgb(0,0,0)" x1="3339.069450000001" x2="3505.9924500000006" y1="130.0" y2="130.0" /><line stroke="rgb(0,0,0)" x1="3505.9924500000006" x2="3525.9924500000006" y1="130.0" y2="130.0" /><line stroke="rgb(0,0,0)" x1="3525.9924500000006" x2="3530.9924500000006" y1="130.0" y2="130.0" /><line stroke="rgb(0,0,0)" x1="3530.9924500000006" x2="3568.3001500000005" y1="130.0" y2="130.0" /><line stroke="rgb(0,0,0)" x1="3568.3001500000005" x2="3588.3001500000005" y1="130.0" y2="130.0" /><line stroke="rgb(0,0,0)" x1="3588.3001500000005" x2="3593.3001500000005" y1="130.0" y2="130.0" /><line stroke="rgb(0,0,0)" x1="3593.3001500000005" x2="3658.8401500000004" y1="130.0" y2="130.0" /><line stroke="rgb(0,0,0)" x1="3658.8401500000004" x2="3678.8401500000004" y1="130.0" y2="130.0" /><line stroke="rgb(0,0,0)" x1="3678.8401500000004" x2="3683.8401500000004" y1="130.0" y2="130.0" /><line stroke="rgb(0,0,0)" x1="3683.8401500000004" x2="3715.0901500000004" y1="130.0" y2="130.0" /><line stroke="rgb(0,0,0)" x1="3715.0901500000004" x2="3735.0901500000004" y1="130.0" y2="130.0" /><line stroke="rgb(0,0,0)" x1="3735.0901500000004" x2="3740.0901500000004" y1="130.0" y2="130.0" /><line stroke="rgb(0,0,0)" x1="3740.0901500000004" x2="3779.5397000000003" y1="130.0" y2="130.0" /><line stroke="rgb(0,0,0)" x1="3779.5397000000003" x2="3799.5397000000003" y1="130.0" y2="130.0" /><line stroke="rgb(0,0,0)" x1="3799.5397000000003" x2="3804.5397000000003" y1="130.0" y2="130.0" /><line stroke="rgb(0,0,0)" x1="3804.5397000000003" x2="3881.1197" y1="130.0" y2="130.0" /><line stroke="rgb(0,0,0)" x1="3881.1197" x2="3901.1197" y1="130.0" y2="130.0" /><line stroke="rgb(0,0,0)" x1="3901.1197" x2="3906.1197" y1="130.0" y2="130.0" /><line stroke="rgb(0,0,0)" x1="3906.1197" x2="3916.1197" y1="130.0" y2="130.0" /><line stroke="rgb(0,0,0)" x1="3916.1197" x2="3936.1197" y1="130.0" y2="55.0" /><line stroke="rgb(0,0,0)" x1="3936.1197" x2="3941.1197" y1="55.0" y2="55.0" /><line stroke="rgb(0,0,0)" x1="3906.1197" x2="3916.1197" y1="130.0" y2="130.0" /><line stroke="rgb(0,0,0)" x1="3916.1197" x2="3936.1197" y1="130.0" y2="205.0" /><line stroke="rgb(0,0,0)" x1="3936.1197" x2="3941.1197" y1="205.0" y2="205.0" /><line stroke="rgb(0,0,0)" x1="3941.1197" x2="3951.2123" y1="205.0" y2="205.0" /><line stroke="rgb(0,0,0)" x1="3951.2123" x2="3984.45305" y1="205.0" y2="130.0" /><line stroke="rgb(0,0,0)" x1="3984.45305" x2="3989.45305" y1="130.0" y2="130.0" /><line stroke="rgb(0,0,0)" x1="3989.45305" x2="3999.45305" y1="130.0" y2="130.0" /><line stroke="rgb(0,0,0)" x1="3999.45305" x2="4019.45305" y1="130.0" y2="130.0" /><line stroke="rgb(0,0,0)" x1="4019.45305" x2="4024.45305" y1="130.0" y2="130.0" /><line stroke="rgb(0,0,0)" x1="3941.1197" x2="3964.45305" y1="55.0" y2="55.0" /><line stroke="rgb(0,0,0)" x1="3964.45305" x2="4019.45305" y1="55.0" y2="130.0" /><line stroke="rgb(0,0,0)" x1="4019.45305" x2="4024.45305" y1="130.0" y2="130.0" /><line stroke="rgb(0,0,0)" x1="4024.45305" x2="4052.24895" y1="130.0" y2="130.0" /><line stroke="rgb(0,0,0)" x1="4052.24895" x2="4072.24895" y1="130.0" y2="130.0" /><line stroke="rgb(0,0,0)" x1="4072.24895" x2="4077.24895" y1="130.0" y2="130.0" /><line stroke="rgb(0,0,0)" x1="4077.24895" x2="4092.24895" y1="130.0" y2="130.0" /><line stroke="rgb(0,0,0)" x1="4092.24895" x2="4112.24895" y1="130.0" y2="130.0" /><line stroke="rgb(0,0,0)" x1="4112.24895" x2="4117.24895" y1="130.0" y2="130.0" /><line stroke="rgb(0,0,0)" x1="4117.24895" x2="4136.7871000000005" y1="130.0" y2="130.0" /><line stroke="rgb(0,0,0)" x1="4136.7871000000005" x2="4156.7871000000005" y1="130.0" y2="130.0" /><line stroke="rgb(0,0,0)" x1="4156.7871000000005" x2="4161.7871000000005" y1="130.0" y2="130.0" /><line stroke="rgb(0,0,0)" x1="4161.7871000000005" x2="4181.7871000000005" y1="130.0" y2="130.0" /><line stroke="rgb(0,0,0)" x1="4181.7871000000005" x2="4201.7871000000005" y1="130.0" y2="130.0" /><line stroke="rgb(0,0,0)" x1="4201.7871000000005" x2="4206.7871000000005" y1="130.0" y2="130.0" /><line stroke="rgb(0,0,0)" x1="4206.7871000000005" x2="4226.325250000001" y1="130.0" y2="130.0" /><line stroke="rgb(0,0,0)" x1="4226.325250000001" x2="4246.325250000001" y1="130.0" y2="130.0" /><line stroke="rgb(0,0,0)" x1="4246.325250000001" x2="4251.325250000001" y1="130.0" y2="130.0" /><line stroke="rgb(0,0,0)" x1="4251.325250000001" x2="4277.6052500000005" y1="130.0" y2="130.0" /><line stroke="rgb(0,0,0)" x1="4277.6052500000005" x2="4297.6052500000005" y1="130.0" y2="130.0" /><line stroke="rgb(0,0,0)" x1="4297.6052500000005" x2="4302.6052500000005" y1="130.0" y2="130.0" /><line stroke="rgb(0,0,0)" x1="4302.6052500000005" x2="4337.78525" y1="130.0" y2="130.0" /><line stroke="rgb(0,0,0)" x1="4337.78525" x2="4357.78525" y1="130.0" y2="130.0" /><line stroke="rgb(0,0,0)" x1="4357.78525" x2="4362.78525" y1="130.0" y2="130.0" /><line stroke="rgb(0,0,0)" x1="4362.78525" x2="4387.191000000001" y1="130.0" y2="130.0" /><line stroke="rgb(0,0,0)" x1="4387.191000000001" x2="4407.191000000001" y1="130.0" y2="130.0" /><line stroke="rgb(0,0,0)" x1="4407.191000000001" x2="4412.191000000001" y1="130.0" y2="130.0" /><line stroke="rgb(0,0,0)" x1="4412.191000000001" x2="4432.191000000001" y1="130.0" y2="130.0" /><line stroke="rgb(0,0,0)" x1="4432.191000000001" x2="4452.191000000001" y1="130.0" y2="130.0" /><line stroke="rgb(0,0,0)" x1="4452.191000000001" x2="4457.191000000001" y1="130.0" y2="130.0" /><line stroke="rgb(0,0,0)" x1="4457.191000000001" x2="4483.61255" y1="130.0" y2="130.0" /><line stroke="rgb(0,0,0)" x1="4483.61255" x2="4503.61255" y1="130.0" y2="55.0" /><line stroke="rgb(0,0,0)" x1="4503.61255" x2="4508.61255" y1="55.0" y2="55.0" /><line stroke="rgb(0,0,0)" x1="4457.191000000001" x2="4483.61255" y1="130.0" y2="130.0" /><line stroke="rgb(0,0,0)" x1="4483.61255" x2="4503.61255" y1="130.0" y2="205.0" /><line stroke="rgb(0,0,0)" x1="4503.61255" x2="4508.61255" y1="205.0" y2="205.0" /><line stroke="rgb(0,0,0)" x1="4508.61255" x2="4518.61255" y1="55.0" y2="55.0" /><line stroke="rgb(0,0,0)" x1="4518.61255" x2="4548.61255" y1="55.0" y2="130.0" /><line stroke="rgb(0,0,0)" x1="4548.61255" x2="4553.61255" y1="130.0" y2="130.0" /><line stroke="rgb(0,0,0)" x1="4553.61255" x2="4563.61255" y1="130.0" y2="130.0" /><line stroke="rgb(0,0,0)" x1="4563.61255" x2="4583.61255" y1="130.0" y2="55.0" /><line stroke="rgb(0,0,0)" x1="4583.61255" x2="4588.61255" y1="55.0" y2="55.0" /><line stroke="rgb(0,0,0)" x1="4553.61255" x2="4563.61255" y1="130.0" y2="130.0" /><line stroke="rgb(0,0,0)" x1="4563.61255" x2="4583.61255" y1="130.0" y2="205.0" /><line stroke="rgb(0,0,0)" x1="4583.61255" x2="4588.61255" y1="205.0" y2="205.0" /><line stroke="rgb(0,0,0)" x1="4508.61255" x2="4528.61255" y1="205.0" y2="205.0" /><line stroke="rgb(0,0,0)" x1="4528.61255" x2="4583.61255" y1="205.0" y2="205.0" /><line stroke="rgb(0,0,0)" x1="4583.61255" x2="4588.61255" y1="205.0" y2="205.0" /><line stroke="rgb(0,0,0)" x1="4588.61255" x2="4603.61255" y1="55.0" y2="55.0" /><line stroke="rgb(0,0,0)" x1="4603.61255" x2="4634.47795" y1="55.0" y2="130.0" /><line stroke="rgb(0,0,0)" x1="4634.47795" x2="4639.47795" y1="130.0" y2="130.0" /><line stroke="rgb(0,0,0)" x1="4639.47795" x2="4654.47795" y1="130.0" y2="130.0" /><line stroke="rgb(0,0,0)" x1="4654.47795" x2="4674.47795" y1="130.0" y2="130.0" /><line stroke="rgb(0,0,0)" x1="4674.47795" x2="4679.47795" y1="130.0" y2="130.0" /><line stroke="rgb(0,0,0)" x1="4588.61255" x2="4614.47795" y1="205.0" y2="205.0" /><line stroke="rgb(0,0,0)" x1="4614.47795" x2="4674.47795" y1="205.0" y2="130.0" /><line stroke="rgb(0,0,0)" x1="4674.47795" x2="4679.47795" y1="130.0" y2="130.0" /><line stroke="rgb(0,0,0)" x1="4679.47795" x2="4693.47795" y1="130.0" y2="130.0" /><line stroke="rgb(0,0,0)" x1="4693.47795" x2="4713.47795" y1="130.0" y2="130.0" /><line stroke="rgb(0,0,0)" x1="4713.47795" x2="4718.47795" y1="130.0" y2="130.0" /><line stroke="rgb(0,0,0)" x1="4718.47795" x2="4741.07795" y1="130.0" y2="130.0" /><line stroke="rgb(0,0,0)" x1="4741.07795" x2="4761.07795" y1="130.0" y2="130.0" /><line stroke="rgb(0,0,0)" x1="4761.07795" x2="4766.07795" y1="130.0" y2="130.0" /><line stroke="rgb(0,0,0)" x1="4766.07795" x2="4786.07795" y1="130.0" y2="130.0" /><line stroke="rgb(0,0,0)" x1="4786.07795" x2="4806.07795" y1="130.0" y2="130.0" /><line stroke="rgb(0,0,0)" x1="4806.07795" x2="4811.07795" y1="130.0" y2="130.0" /><line stroke="rgb(0,0,0)" x1="4811.07795" x2="4825.07795" y1="130.0" y2="130.0" /><line stroke="rgb(0,0,0)" x1="4825.07795" x2="4845.07795" y1="130.0" y2="130.0" /><line stroke="rgb(0,0,0)" x1="4845.07795" x2="4850.07795" y1="130.0" y2="130.0" /><line stroke="rgb(0,0,0)" x1="4850.07795" x2="4948.39795" y1="130.0" y2="130.0" /><line stroke="rgb(0,0,0)" x1="4948.39795" x2="4968.39795" y1="130.0" y2="130.0" /><line stroke="rgb(0,0,0)" x1="4968.39795" x2="4973.39795" y1="130.0" y2="130.0" /><line stroke="rgb(0,0,0)" x1="4973.39795" x2="5003.39795" y1="130.0" y2="130.0" /><line stroke="rgb(0,0,0)" x1="5003.39795" x2="5023.39795" y1="130.0" y2="130.0" /><line stroke="rgb(0,0,0)" x1="5023.39795" x2="5028.39795" y1="130.0" y2="130.0" /><line stroke="rgb(0,0,0)" x1="5028.39795" x2="5054.93305" y1="130.0" y2="130.0" /><line stroke="rgb(0,0,0)" x1="5054.93305" x2="5074.93305" y1="130.0" y2="55.0" /><line stroke="rgb(0,0,0)" x1="5074.93305" x2="5079.93305" y1="55.0" y2="55.0" /><line stroke="rgb(0,0,0)" x1="5028.39795" x2="5054.93305" y1="130.0" y2="130.0" /><line stroke="rgb(0,0,0)" x1="5054.93305" x2="5074.93305" y1="130.0" y2="205.0" /><line stroke="rgb(0,0,0)" x1="5074.93305" x2="5079.93305" y1="205.0" y2="205.0" /><line stroke="rgb(0,0,0)" x1="5079.93305" x2="5089.93305" y1="55.0" y2="55.0" /><line stroke="rgb(0,0,0)" x1="5089.93305" x2="5120.207799999999" y1="55.0" y2="130.0" /><line stroke="rgb(0,0,0)" x1="5120.207799999999" x2="5125.207799999999" y1="130.0" y2="130.0" /><line stroke="rgb(0,0,0)" x1="5125.207799999999" x2="5135.207799999999" y1="130.0" y2="130.0" /><line stroke="rgb(0,0,0)" x1="5135.207799999999" x2="5155.207799999999" y1="130.0" y2="130.0" /><line stroke="rgb(0,0,0)" x1="5155.207799999999" x2="5160.207799999999" y1="130.0" y2="130.0" /><line stroke="rgb(0,0,0)" x1="5079.93305" x2="5100.207799999999" y1="205.0" y2="205.0" /><line stroke="rgb(0,0,0)" x1="5100.207799999999" x2="5155.207799999999" y1="205.0" y2="130.0" /><line stroke="rgb(0,0,0)" x1="5155.207799999999" x2="5160.207799999999" y1="130.0" y2="130.0" /><line stroke="rgb(0,0,0)" x1="5160.207799999999" x2="5175.017099999999" y1="130.0" y2="130.0" /><line stroke="rgb(0,0,0)" x1="5175.017099999999" x2="5195.017099999999" y1="130.0" y2="130.0" /><line stroke="rgb(0,0,0)" x1="5195.017099999999" x2="5200.017099999999" y1="130.0" y2="130.0" /><line stroke="rgb(0,0,0)" x1="5200.017099999999" x2="5220.017099999999" y1="130.0" y2="130.0" /><line stroke="rgb(0,0,0)" x1="5220.017099999999" x2="5240.017099999999" y1="130.0" y2="130.0" /><line stroke="rgb(0,0,0)" x1="5240.017099999999" x2="5245.017099999999" y1="130.0" y2="130.0" /><line stroke="rgb(0,0,0)" x1="5245.017099999999" x2="5265.017099999999" y1="130.0" y2="130.0" /><line stroke="rgb(0,0,0)" x1="5265.017099999999" x2="5285.017099999999" y1="130.0" y2="130.0" /><line stroke="rgb(0,0,0)" x1="5285.017099999999" x2="5290.017099999999" y1="130.0" y2="130.0" /><line stroke="rgb(0,0,0)" x1="5290.017099999999" x2="5300.017099999999" y1="130.0" y2="130.0" /><line stroke="rgb(0,0,0)" x1="5300.017099999999" x2="5320.017099999999" y1="130.0" y2="130.0" /><line stroke="rgb(0,0,0)" x1="5320.017099999999" x2="5325.017099999999" y1="130.0" y2="130.0" /><line stroke="rgb(0,0,0)" x1="5325.017099999999" x2="5335.562549999999" y1="130.0" y2="130.0" /><line stroke="rgb(0,0,0)" x1="5335.562549999999" x2="5355.562549999999" y1="130.0" y2="130.0" /><line stroke="rgb(0,0,0)" x1="5355.562549999999" x2="5360.562549999999" y1="130.0" y2="130.0" /><line stroke="rgb(0,0,0)" x1="5360.562549999999" x2="5375.816799999999" y1="130.0" y2="130.0" /><line stroke="rgb(0,0,0)" x1="5375.816799999999" x2="5395.816799999999" y1="130.0" y2="130.0" /><line stroke="rgb(0,0,0)" x1="5395.816799999999" x2="5400.816799999999" y1="130.0" y2="130.0" /><line stroke="rgb(0,0,0)" x1="5400.816799999999" x2="5424.031099999998" y1="130.0" y2="130.0" /><line stroke="rgb(0,0,0)" x1="5424.031099999998" x2="5444.031099999998" y1="130.0" y2="130.0" /><line stroke="rgb(0,0,0)" x1="5444.031099999998" x2="5449.031099999998" y1="130.0" y2="130.0" /><line stroke="rgb(0,0,0)" x1="5449.031099999998" x2="5468.138249999998" y1="130.0" y2="130.0" /><line stroke="rgb(0,0,0)" x1="5468.138249999998" x2="5488.138249999998" y1="130.0" y2="130.0" /><line stroke="rgb(0,0,0)" x1="5488.138249999998" x2="5493.138249999998" y1="130.0" y2="130.0" /><line stroke="rgb(0,0,0)" x1="5493.138249999998" x2="5521.515449999998" y1="130.0" y2="130.0" /><line stroke="rgb(0,0,0)" x1="5521.515449999998" x2="5541.515449999998" y1="130.0" y2="130.0" /><line stroke="rgb(0,0,0)" x1="5541.515449999998" x2="5546.515449999998" y1="130.0" y2="130.0" /><rect fill="rgb(150,150,255)" height="3.5999999999999996" stroke="rgb(0,0,0)" width="5.55555" x="5.0" y="128.2" /><text fill="black" x="5.0" y="151.8">E0</text><rect fill="rgb(150,150,150)" height="12.4" stroke="rgb(0,0,0)" width="21.451600000000003" x="40.55555" y="123.8" /><text fill="black" x="40.55555" y="156.2">H1</text><rect fill="rgb(150,150,150)" height="22.400000000000002" stroke="rgb(0,0,0)" width="15.0" x="92.00715000000001" y="118.8" /><text fill="black" x="92.00715000000001" y="161.2">H2</text><rect fill="rgb(255,150,150)" height="50.8" stroke="rgb(0,0,0)" width="6.5748" x="137.00715" y="104.6" /><text fill="black" x="137.00715" y="175.4">E3</text><rect fill="rgb(255,150,150)" height="17.599999999999998" stroke="rgb(0,0,0)" width="5.11365" x="173.58195" y="121.2" /><text fill="black" x="173.58195" y="158.8">E4</text><rect fill="rgb(150,150,150)" height="30.0" stroke="rgb(0,0,0)" width="15.0" x="208.69560000000004" y="115.0" /><text fill="black" x="208.69560000000004" y="165.0">H5</text><rect fill="rgb(255,150,150)" height="20.4" stroke="rgb(0,0,0)" width="5.09805" x="253.69560000000004" y="119.8" /><text fill="black" x="253.69560000000004" y="160.2">E6</text><rect fill="rgb(150,150,150)" height="46.800000000000004" stroke="rgb(0,0,0)" width="27.564099999999996" x="288.79365" y="106.6" /><text fill="black" x="288.79365" y="173.4">H7</text><rect fill="rgb(70,175,175)" height="0.4" stroke="rgb(0,0,0)" width="5.0" x="346.35775" y="129.8" /><text fill="black" x="346.35775" y="150.2">E8</text><rect fill="rgb(150,150,150)" height="33.2" stroke="rgb(0,0,0)" width="16.6265" x="381.35775" y="113.4" /><text fill="black" x="381.35775" y="166.6">H9</text><rect fill="rgb(150,150,150)" height="30.4" stroke="rgb(0,0,0)" width="19.07895" x="427.98425000000003" y="39.8" /><text fill="black" x="427.98425000000003" y="90.2">H10</text><rect fill="rgb(70,175,175)" height="2.0" stroke="rgb(0,0,0)" width="8.0" x="427.98425000000003" y="204.0" /><text fill="black" x="427.98425000000003" y="226.0">E11</text><rect fill="rgb(70,175,175)" height="2.4" stroke="rgb(0,0,0)" width="7.5" x="477.06320000000005" y="128.8" /><text fill="black" x="477.06320000000005" y="151.2">E12</text><rect fill="rgb(150,150,150)" height="99.6" stroke="rgb(0,0,0)" width="54.94" x="514.5632" y="80.2" /><text fill="black" x="514.5632" y="199.8">H13</text><rect fill="rgb(150,150,150)" height="3.5999999999999996" stroke="rgb(0,0,0)" width="15.0" x="599.5032000000001" y="128.2" /><text fill="black" x="599.5032000000001" y="151.8">H14</text><rect fill="rgb(255,150,150)" height="99.6" stroke="rgb(0,0,0)" width="24.9197" x="644.5032000000001" y="80.2" /><text fill="black" x="644.5032000000001" y="199.8">E15</text><rect fill="rgb(150,150,150)" height="0.8" stroke="rgb(0,0,0)" width="15.0" x="699.4229" y="54.6" /><text fill="black" x="699.4229" y="75.4">H16</text><rect fill="rgb(70,175,70)" height="4.0" stroke="rgb(0,0,0)" width="5.0" x="699.4229" y="203.0" /><text fill="black" x="699.4229" y="227.0">E17</text><rect fill="rgb(150,150,150)" height="4.3999999999999995" stroke="rgb(0,0,0)" width="15.0" x="744.4229" y="52.8" /><text fill="black" x="744.4229" y="77.2">H18</text><rect fill="rgb(70,175,70)" height="0.8" stroke="rgb(0,0,0)" width="5.0" x="744.4229" y="204.6" /><text fill="black" x="744.4229" y="225.4">E19</text><rect fill="rgb(255,150,150)" height="100.0" stroke="rgb(0,0,0)" width="25.139999999999997" x="789.4229" y="80.0" /><text fill="black" x="789.4229" y="200.0">E20</text><rect fill="rgb(150,150,150)" height="4.0" stroke="rgb(0,0,0)" width="18.0" x="844.5628999999999" y="128.0" /><text fill="black" x="844.5628999999999" y="152.0">H21</text><rect fill="rgb(150,150,150)" height="99.6" stroke="rgb(0,0,0)" width="47.30925" x="892.5628999999999" y="80.2" /><text fill="black" x="892.5628999999999" y="199.8">H22</text><rect fill="rgb(150,150,150)" height="95.6" stroke="rgb(0,0,0)" width="18.451900000000002" x="969.8721499999999" y="82.2" /><text fill="black" x="969.8721499999999" y="197.8">H23</text><rect fill="rgb(255,150,150)" height="1.2" stroke="rgb(0,0,0)" width="5.0" x="1018.3240499999999" y="129.4" /><text fill="black" x="1018.3240499999999" y="150.6">E24</text><rect fill="rgb(255,150,150)" height="95.19999999999999" stroke="rgb(0,0,0)" width="10.693299999999999" x="1053.32405" y="82.4" /><text fill="black" x="1053.32405" y="197.6">E25</text><rect fill="rgb(150,150,150)" height="0.0" stroke="rgb(0,0,0)" width="0.0" x="1094.0173499999999" y="55.0" /><text fill="black" x="1094.0173499999999" y="75.0">X26</text><rect fill="rgb(150,150,150)" height="46.800000000000004" stroke="rgb(0,0,0)" width="20.341900000000003" x="1094.0173499999999" y="181.6" /><text fill="black" x="1094.0173499999999" y="248.4">H27</text><rect fill="rgb(150,150,150)" height="0.0" stroke="rgb(0,0,0)" width="0.0" x="1144.3592499999997" y="130.0" /><text fill="black" x="1144.3592499999997" y="150.0">X28</text><rect fill="rgb(150,150,150)" height="3.5999999999999996" stroke="rgb(0,0,0)" width="27.7778" x="1174.3592499999997" y="128.2" /><text fill="black" x="1174.3592499999997" y="151.8">H29</text><rect fill="rgb(150,150,150)" height="66.4" stroke="rgb(0,0,0)" width="36.897600000000004" x="1232.1370499999998" y="96.8" /><text fill="black" x="1232.1370499999998" y="183.2">H30</text><rect fill="rgb(150,150,150)" height="0.0" stroke="rgb(0,0,0)" width="0.0" x="1299.0346499999998" y="55.0" /><text fill="black" x="1299.0346499999998" y="75.0">X31</text><rect fill="rgb(70,175,70)" height="2.4" stroke="rgb(0,0,0)" width="10.83335" x="1299.0346499999998" y="203.8" /><text fill="black" x="1299.0346499999998" y="226.2">E32</text><rect fill="rgb(150,150,150)" height="2.4" stroke="rgb(0,0,0)" width="25.0" x="1339.868" y="53.8" /><text fill="black" x="1339.868" y="76.2">H33</text><rect fill="rgb(70,175,70)" height="6.4" stroke="rgb(0,0,0)" width="5.9375" x="1339.868" y="201.8" /><text fill="black" x="1339.868" y="228.2">E34</text><rect fill="rgb(150,150,150)" height="18.8" stroke="rgb(0,0,0)" width="26.702149999999996" x="1394.868" y="120.6" /><text fill="black" x="1394.868" y="159.4">H35</text><rect fill="rgb(150,150,150)" height="86.4" stroke="rgb(0,0,0)" width="17.70835" x="1451.57015" y="11.799999999999997" /><text fill="black" x="1451.57015" y="118.2">H36</text><rect fill="rgb(70,175,70)" height="0.8" stroke="rgb(0,0,0)" width="5.0" x="1451.57015" y="204.6" /><text fill="black" x="1451.57015" y="225.4">E37</text><rect fill="rgb(150,150,150)" height="1.2" stroke="rgb(0,0,0)" width="23.33335" x="1499.2785000000001" y="129.4" /><text fill="black" x="1499.2785000000001" y="150.6">H38</text><rect fill="rgb(150,150,150)" height="93.60000000000001" stroke="rgb(0,0,0)" width="73.782" x="1552.6118500000002" y="83.19999999999999" /><text fill="black" x="1552.6118500000002" y="196.8">H39</text><rect fill="rgb(115,10,115)" height="0.4" stroke="rgb(0,0,0)" width="5.0" x="1656.39385" y="54.8" /><text fill="black" x="1656.39385" y="75.2">E40</text><rect fill="rgb(150,150,150)" height="12.8" stroke="rgb(0,0,0)" width="26.875" x="1656.39385" y="198.6" /><text fill="black" x="1656.39385" y="231.4">H41</text><rect fill="rgb(150,150,150)" height="20.8" stroke="rgb(0,0,0)" width="31.826900000000002" x="1713.26885" y="119.6" /><text fill="black" x="1713.26885" y="160.4">H42</text><rect fill="rgb(115,10,115)" height="0.4" stroke="rgb(0,0,0)" width="5.0" x="1775.0957500000002" y="129.8" /><text fill="black" x="1775.0957500000002" y="150.2">E43</text><rect fill="rgb(150,150,150)" height="100.0" stroke="rgb(0,0,0)" width="109.86000000000001" x="1810.0957500000002" y="80.0" /><text fill="black" x="1810.0957500000002" y="200.0">H44</text><rect fill="rgb(150,150,150)" height="8.799999999999999" stroke="rgb(0,0,0)" width="16.8182" x="1949.95575" y="125.6" /><text fill="black" x="1949.95575" y="154.4">H45</text><rect fill="rgb(150,255,150)" height="2.0" stroke="rgb(0,0,0)" width="5.0" x="1996.7739499999998" y="129.0" /><text fill="black" x="1996.7739499999998" y="151.0">E46</text><rect fill="rgb(150,255,150)" height="80.0" stroke="rgb(0,0,0)" width="11.725000000000001" x="2031.7739499999998" y="90.0" /><text fill="black" x="2031.7739499999998" y="190.0">E47</text><rect fill="rgb(150,150,150)" height="4.8" stroke="rgb(0,0,0)" width="20.0" x="2073.49895" y="127.6" /><text fill="black" x="2073.49895" y="152.4">H48</text><rect fill="rgb(150,150,150)" height="100.0" stroke="rgb(0,0,0)" width="88.44" x="2123.49895" y="80.0" /><text fill="black" x="2123.49895" y="200.0">H49</text><rect fill="rgb(10,115,10)" height="0.8" stroke="rgb(0,0,0)" width="5.0" x="2241.9389499999997" y="54.6" /><text fill="black" x="2241.9389499999997" y="75.4">E50</text><rect fill="rgb(150,150,150)" height="33.2" stroke="rgb(0,0,0)" width="19.93975" x="2241.9389499999997" y="188.4" /><text fill="black" x="2241.9389499999997" y="241.6">H51</text><rect fill="rgb(150,150,150)" height="16.0" stroke="rgb(0,0,0)" width="66.75" x="2291.8787" y="122.0" /><text fill="black" x="2291.8787" y="158.0">H52</text><rect fill="rgb(150,150,150)" height="84.39999999999999" stroke="rgb(0,0,0)" width="80.54500000000002" x="2388.6287" y="87.80000000000001" /><text fill="black" x="2388.6287" y="192.2">H53</text><rect fill="rgb(175,70,175)" height="6.0" stroke="rgb(0,0,0)" width="5.0" x="2499.1737000000003" y="127.0" /><text fill="black" x="2499.1737000000003" y="153.0">E54</text><rect fill="rgb(150,150,150)" height="4.3999999999999995" stroke="rgb(0,0,0)" width="21.8182" x="2534.1737000000003" y="52.8" /><text fill="black" x="2534.1737000000003" y="77.2">H55</text><rect fill="rgb(10,10,115)" height="1.2" stroke="rgb(0,0,0)" width="5.0" x="2534.1737000000003" y="204.4" /><text fill="black" x="2534.1737000000003" y="225.6">E56</text><rect fill="rgb(150,150,150)" height="23.599999999999998" stroke="rgb(0,0,0)" width="37.2034" x="2585.9919" y="118.2" /><text fill="black" x="2585.9919" y="161.8">H57</text><rect fill="rgb(150,150,150)" height="24.4" stroke="rgb(0,0,0)" width="30.0" x="2653.1953000000003" y="117.8" /><text fill="black" x="2653.1953000000003" y="162.2">H58</text><rect fill="rgb(150,150,150)" height="5.2" stroke="rgb(0,0,0)" width="30.76925" x="2713.1953000000003" y="127.4" /><text fill="black" x="2713.1953000000003" y="152.6">H59</text><rect fill="rgb(10,10,115)" height="1.6" stroke="rgb(0,0,0)" width="5.0" x="2773.9645500000006" y="129.2" /><text fill="black" x="2773.9645500000006" y="150.8">E60</text><rect fill="rgb(150,150,150)" height="100.0" stroke="rgb(0,0,0)" width="120.94" x="2808.9645500000006" y="80.0" /><text fill="black" x="2808.9645500000006" y="200.0">H61</text><rect fill="rgb(10,115,10)" height="0.4" stroke="rgb(0,0,0)" width="5.0" x="2959.9045500000007" y="129.8" /><text fill="black" x="2959.9045500000007" y="150.2">E62</text><rect fill="rgb(150,150,150)" height="21.2" stroke="rgb(0,0,0)" width="16.2264" x="2994.9045500000007" y="119.4" /><text fill="black" x="2994.9045500000007" y="160.6">H63</text><rect fill="rgb(10,115,10)" height="1.2" stroke="rgb(0,0,0)" width="5.0" x="3041.1309500000007" y="129.4" /><text fill="black" x="3041.1309500000007" y="150.6">E64</text><rect fill="rgb(150,150,150)" height="100.0" stroke="rgb(0,0,0)" width="43.36" x="3076.1309500000007" y="80.0" /><text fill="black" x="3076.1309500000007" y="200.0">H65</text><rect fill="rgb(255,255,150)" height="43.2" stroke="rgb(0,0,0)" width="7.7315000000000005" x="3149.4909500000003" y="108.4" /><text fill="black" x="3149.4909500000003" y="171.6">E66</text><rect fill="rgb(150,150,150)" height="26.8" stroke="rgb(0,0,0)" width="15.597000000000001" x="3187.22245" y="116.6" /><text fill="black" x="3187.22245" y="163.4">H67</text><rect fill="rgb(150,150,150)" height="4.8" stroke="rgb(0,0,0)" width="76.25" x="3232.819450000001" y="52.6" /><text fill="black" x="3232.819450000001" y="77.4">H68</text><rect fill="rgb(255,255,150)" height="43.2" stroke="rgb(0,0,0)" width="7.7315000000000005" x="3232.819450000001" y="183.4" /><text fill="black" x="3232.819450000001" y="246.6">E69</text><rect fill="rgb(150,150,150)" height="98.8" stroke="rgb(0,0,0)" width="161.923" x="3339.069450000001" y="80.6" /><text fill="black" x="3339.069450000001" y="199.4">H70</text><rect fill="rgb(150,150,150)" height="5.2" stroke="rgb(0,0,0)" width="32.307700000000004" x="3530.9924500000006" y="127.4" /><text fill="black" x="3530.9924500000006" y="152.6">H71</text><rect fill="rgb(150,150,150)" height="100.0" stroke="rgb(0,0,0)" width="60.540000000000006" x="3593.3001500000005" y="80.0" /><text fill="black" x="3593.3001500000005" y="200.0">H72</text><rect fill="rgb(150,150,150)" height="1.6" stroke="rgb(0,0,0)" width="26.25" x="3683.8401500000004" y="129.2" /><text fill="black" x="3683.8401500000004" y="150.8">H73</text><rect fill="rgb(150,150,150)" height="43.6" stroke="rgb(0,0,0)" width="34.44955" x="3740.0901500000004" y="108.2" /><text fill="black" x="3740.0901500000004" y="171.8">H74</text><rect fill="rgb(150,150,150)" height="100.0" stroke="rgb(0,0,0)" width="71.58" x="3804.5397000000003" y="80.0" /><text fill="black" x="3804.5397000000003" y="200.0">H75</text><rect fill="rgb(175,70,70)" height="0.8" stroke="rgb(0,0,0)" width="5.0" x="3906.1197" y="129.6" /><text fill="black" x="3906.1197" y="150.4">E76</text><rect fill="rgb(150,150,150)" height="1.2" stroke="rgb(0,0,0)" width="18.33335" x="3941.1197" y="54.4" /><text fill="black" x="3941.1197" y="75.6">H77</text><rect fill="rgb(175,70,70)" height="43.2" stroke="rgb(0,0,0)" width="5.092600000000001" x="3941.1197" y="183.4" /><text fill="black" x="3941.1197" y="246.6">E78</text><rect fill="rgb(255,150,150)" height="3.5999999999999996" stroke="rgb(0,0,0)" width="5.0" x="3989.45305" y="128.2" /><text fill="black" x="3989.45305" y="151.8">E79</text><rect fill="rgb(255,150,150)" height="98.0" stroke="rgb(0,0,0)" width="22.795899999999996" x="4024.45305" y="81.0" /><text fill="black" x="4024.45305" y="199.0">E80</text><rect fill="rgb(255,150,150)" height="2.4" stroke="rgb(0,0,0)" width="10.0" x="4077.24895" y="128.8" /><text fill="black" x="4077.24895" y="151.2">E81</text><rect fill="rgb(150,150,255)" height="99.6" stroke="rgb(0,0,0)" width="14.538150000000002" x="4117.24895" y="80.2" /><text fill="black" x="4117.24895" y="199.8">E82</text><rect fill="rgb(150,150,150)" height="4.0" stroke="rgb(0,0,0)" width="15.0" x="4161.7871000000005" y="128.0" /><text fill="black" x="4161.7871000000005" y="152.0">H83</text><rect fill="rgb(150,150,255)" height="99.6" stroke="rgb(0,0,0)" width="14.538150000000002" x="4206.7871000000005" y="80.2" /><text fill="black" x="4206.7871000000005" y="199.8">E84</text><rect fill="rgb(255,150,150)" height="100.0" stroke="rgb(0,0,0)" width="21.28" x="4251.325250000001" y="80.0" /><text fill="black" x="4251.325250000001" y="200.0">E85</text><rect fill="rgb(150,150,150)" height="100.0" stroke="rgb(0,0,0)" width="30.18" x="4302.6052500000005" y="80.0" /><text fill="black" x="4302.6052500000005" y="200.0">H86</text><rect fill="rgb(150,150,150)" height="97.6" stroke="rgb(0,0,0)" width="19.405749999999998" x="4362.78525" y="81.2" /><text fill="black" x="4362.78525" y="198.8">H87</text><rect fill="rgb(150,150,150)" height="14.799999999999999" stroke="rgb(0,0,0)" width="15.0" x="4412.191000000001" y="122.6" /><text fill="black" x="4412.191000000001" y="157.4">H88</text><rect fill="rgb(150,150,150)" height="40.8" stroke="rgb(0,0,0)" width="21.421549999999996" x="4457.191000000001" y="109.6" /><text fill="black" x="4457.191000000001" y="170.4">H89</text><rect fill="rgb(70,70,175)" height="14.399999999999999" stroke="rgb(0,0,0)" width="5.0" x="4508.61255" y="47.8" /><text fill="black" x="4508.61255" y="82.2">E90</text><rect fill="rgb(150,150,150)" height="3.5999999999999996" stroke="rgb(0,0,0)" width="15.0" x="4508.61255" y="203.2" /><text fill="black" x="4508.61255" y="226.8">H91</text><rect fill="rgb(70,70,175)" height="14.399999999999999" stroke="rgb(0,0,0)" width="5.0" x="4553.61255" y="122.8" /><text fill="black" x="4553.61255" y="157.2">E92</text><rect fill="rgb(115,10,10)" height="1.2" stroke="rgb(0,0,0)" width="10.0" x="4588.61255" y="54.4" /><text fill="black" x="4588.61255" y="75.6">E93</text><rect fill="rgb(150,150,150)" height="20.8" stroke="rgb(0,0,0)" width="20.865399999999998" x="4588.61255" y="194.6" /><text fill="black" x="4588.61255" y="235.4">H94</text><rect fill="rgb(115,10,10)" height="1.2" stroke="rgb(0,0,0)" width="10.0" x="4639.47795" y="129.4" /><text fill="black" x="4639.47795" y="150.6">E95</text><rect fill="rgb(175,175,70)" height="2.0" stroke="rgb(0,0,0)" width="9.0" x="4679.47795" y="129.0" /><text fill="black" x="4679.47795" y="151.0">E96</text><rect fill="rgb(150,150,150)" height="20.0" stroke="rgb(0,0,0)" width="17.6" x="4718.47795" y="120.0" /><text fill="black" x="4718.47795" y="160.0">H97</text><rect fill="rgb(150,150,150)" height="30.4" stroke="rgb(0,0,0)" width="15.0" x="4766.07795" y="114.8" /><text fill="black" x="4766.07795" y="165.2">H98</text><rect fill="rgb(175,175,70)" height="2.0" stroke="rgb(0,0,0)" width="9.0" x="4811.07795" y="129.0" /><text fill="black" x="4811.07795" y="151.0">E99</text><rect fill="rgb(150,150,150)" height="100.0" stroke="rgb(0,0,0)" width="93.32000000000001" x="4850.07795" y="80.0" /><text fill="black" x="4850.07795" y="200.0">H100</text><rect fill="rgb(150,150,150)" height="0.8" stroke="rgb(0,0,0)" width="25.0" x="4973.39795" y="129.6" /><text fill="black" x="4973.39795" y="150.4">H101</text><rect fill="rgb(255,150,255)" height="45.6" stroke="rgb(0,0,0)" width="21.5351" x="5028.39795" y="107.2" /><text fill="black" x="5028.39795" y="172.8">E102</text><rect fill="rgb(10,115,115)" height="0.4" stroke="rgb(0,0,0)" width="5.0" x="5079.93305" y="54.8" /><text fill="black" x="5079.93305" y="75.2">E103</text><rect fill="rgb(150,150,150)" height="36.4" stroke="rgb(0,0,0)" width="15.27475" x="5079.93305" y="186.8" /><text fill="black" x="5079.93305" y="243.2">H104</text><rect fill="rgb(10,115,115)" height="0.4" stroke="rgb(0,0,0)" width="5.0" x="5125.207799999999" y="129.8" /><text fill="black" x="5125.207799999999" y="150.2">E105</text><rect fill="rgb(150,255,255)" height="94.39999999999999" stroke="rgb(0,0,0)" width="9.8093" x="5160.207799999999" y="82.80000000000001" /><text fill="black" x="5160.207799999999" y="197.2">E106</text><rect fill="rgb(150,150,150)" height="5.2" stroke="rgb(0,0,0)" width="15.0" x="5200.017099999999" y="127.4" /><text fill="black" x="5200.017099999999" y="152.6">H107</text><rect fill="rgb(150,150,150)" height="3.5999999999999996" stroke="rgb(0,0,0)" width="15.0" x="5245.017099999999" y="128.2" /><text fill="black" x="5245.017099999999" y="151.8">H108</text><rect fill="rgb(175,70,175)" height="5.6000000000000005" stroke="rgb(0,0,0)" width="5.0" x="5290.017099999999" y="127.2" /><text fill="black" x="5290.017099999999" y="152.8">E109</text><rect fill="rgb(175,70,70)" height="44.0" stroke="rgb(0,0,0)" width="5.54545" x="5325.017099999999" y="108.0" /><text fill="black" x="5325.017099999999" y="172.0">E110</text><rect fill="rgb(150,255,255)" height="94.39999999999999" stroke="rgb(0,0,0)" width="10.25425" x="5360.562549999999" y="82.80000000000001" /><text fill="black" x="5360.562549999999" y="197.2">E111</text><rect fill="rgb(150,150,150)" height="5.6000000000000005" stroke="rgb(0,0,0)" width="18.2143" x="5400.816799999999" y="127.2" /><text fill="black" x="5400.816799999999" y="152.8">H112</text><rect fill="rgb(150,255,150)" height="78.4" stroke="rgb(0,0,0)" width="14.107149999999999" x="5449.031099999998" y="90.8" /><text fill="black" x="5449.031099999998" y="189.2">E113</text><rect fill="rgb(255,150,255)" height="45.6" stroke="rgb(0,0,0)" width="23.377200000000002" x="5493.138249999998" y="107.2" /><text fill="black" x="5493.138249999998" y="172.8">E114</text><rect fill="rgb(150,150,150)" height="20.4" stroke="rgb(0,0,0)" width="16.56865" x="5546.515449999998" y="119.8" /><text fill="black" x="5546.515449999998" y="160.2">H115</text></svg>