<?xml version="1.0" encoding="utf-8" ?>
<svg baseProfile="full" height="100%" style="font-size:14;font-family:Sans, Arial;stroke-width:1;fill:none" version="1.1" width="100%" xmlns="http://www.w3.org/2000/svg" xmlns:ev="http://www.w3.org/2001/xml-events" xmlns:xlink="http://www.w3.org/1999/xlink"><defs /><rect fill="none" height="130.0" stroke="none" width="4290.0" x="0" y="0" /><line stroke="rgb(0,0,0)" x1="5.0" x2="25.0" y1="55.0" y2="55.0" /><line stroke="rgb(0,0,0)" x1="25.0" x2="45.0" y1="55.0" y2="55.0" /><line stroke="rgb(0,0,0)" x1="45.0" x2="50.0" y1="55.0" y2="55.0" /><line stroke="rgb(0,0,0)" x1="50.0" x2="85.0" y1="55.0" y2="55.0" /><line stroke="rgb(0,0,0)" x1="85.0" x2="105.0" y1="55.0" y2="55.0" /><line stroke="rgb(0,0,0)" x1="105.0" x2="110.0" y1="55.0" y2="55.0" /><line stroke="rgb(0,0,0)" x1="110.0" x2="130.0" y1="55.0" y2="55.0" /><line stroke="rgb(0,0,0)" x1="130.0" x2="150.0" y1="55.0" y2="55.0" /><line stroke="rgb(0,0,0)" x1="150.0" x2="155.0" y1="55.0" y2="55.0" /><line stroke="rgb(0,0,0)" x1="155.0" x2="170.0" y1="55.0" y2="55.0" /><line stroke="rgb(0,0,0)" x1="170.0" x2="190.0" y1="55.0" y2="55.0" /><line stroke="rgb(0,0,0)" x1="190.0" x2="195.0" y1="55.0" y2="55.0" /><line stroke="rgb(0,0,0)" x1="195.0" x2="280.0" y1="55.0" y2="55.0" /><line stroke="rgb(0,0,0)" x1="280.0" x2="300.0" y1="55.0" y2="55.0" /><line stroke="rgb(0,0,0)" x1="300.0" x2="305.0" y1="55.0" y2="55.0" /><line stroke="rgb(0,0,0)" x1="305.0" x2="340.0" y1="55.0" y2="55.0" /><line stroke="rgb(0,0,0)" x1="340.0" x2="360.0" y1="55.0" y2="55.0" /><line stroke="rgb(0,0,0)" x1="360.0" x2="365.0" y1="55.0" y2="55.0" /><line stroke="rgb(0,0,0)" x1="365.0" x2="400.0" y1="55.0" y2="55.0" /><line stroke="rgb(0,0,0)" x1="400.0" x2="420.0" y1="55.0" y2="55.0" /><line stroke="rgb(0,0,0)" x1="420.0" x2="425.0" y1="55.0" y2="55.0" /><line stroke="rgb(0,0,0)" x1="425.0" x2="505.0" y1="55.0" y2="55.0" /><line stroke="rgb(0,0,0)" x1="505.0" x2="525.0" y1="55.0" y2="55.0" /><line stroke="rgb(0,0,0)" x1="525.0" x2="530.0" y1="55.0" y2="55.0" /><line stroke="rgb(0,0,0)" x1="530.0" x2="565.0" y1="55.0" y2="55.0" /><line stroke="rgb(0,0,0)" x1="565.0" x2="585.0" y1="55.0" y2="55.0" /><line stroke="rgb(0,0,0)" x1="585.0" x2="590.0" y1="55.0" y2="55.0" /><line stroke="rgb(0,0,0)" x1="590.0" x2="630.0" y1="55.0" y2="55.0" /><line stroke="rgb(0,0,0)" x1="630.0" x2="650.0" y1="55.0" y2="55.0" /><line stroke="rgb(0,0,0)" x1="650.0" x2="655.0" y1="55.0" y2="55.0" /><line stroke="rgb(0,0,0)" x1="655.0" x2="715.0" y1="55.0" y2="55.0" /><line stroke="rgb(0,0,0)" x1="715.0" x2="735.0" y1="55.0" y2="55.0" /><line stroke="rgb(0,0,0)" x1="735.0" x2="740.0" y1="55.0" y2="55.0" /><line stroke="rgb(0,0,0)" x1="740.0" x2="770.0" y1="55.0" y2="55.0" /><line stroke="rgb(0,0,0)" x1="770.0" x2="790.0" y1="55.0" y2="55.0" /><line stroke="rgb(0,0,0)" x1="790.0" x2="795.0" y1="55.0" y2="55.0" /><line stroke="rgb(0,0,0)" x1="795.0" x2="820.0" y1="55.0" y2="55.0" /><line stroke="rgb(0,0,0)" x1="820.0" x2="840.0" y1="55.0" y2="55.0" /><line stroke="rgb(0,0,0)" x1="840.0" x2="845.0" y1="55.0" y2="55.0" /><line stroke="rgb(0,0,0)" x1="845.0" x2="915.0" y1="55.0" y2="55.0" /><line stroke="rgb(0,0,0)" x1="915.0" x2="935.0" y1="55.0" y2="55.0" /><line stroke="rgb(0,0,0)" x1="935.0" x2="940.0" y1="55.0" y2="55.0" /><line stroke="rgb(0,0,0)" x1="940.0" x2="1010.0" y1="55.0" y2="55.0" /><line stroke="rgb(0,0,0)" x1="1010.0" x2="1030.0" y1="55.0" y2="55.0" /><line stroke="rgb(0,0,0)" x1="1030.0" x2="1035.0" y1="55.0" y2="55.0" /><line stroke="rgb(0,0,0)" x1="1035.0" x2="1080.0" y1="55.0" y2="55.0" /><line stroke="rgb(0,0,0)" x1="1080.0" x2="1100.0" y1="55.0" y2="55.0" /><line stroke="rgb(0,0,0)" x1="1100.0" x2="1105.0" y1="55.0" y2="55.0" /><line stroke="rgb(0,0,0)" x1="1105.0" x2="1220.0" y1="55.0" y2="55.0" /><line stroke="rgb(0,0,0)" x1="1220.0" x2="1240.0" y1="55.0" y2="55.0" /><line stroke="rgb(0,0,0)" x1="1240.0" x2="1245.0" y1="55.0" y2="55.0" /><line stroke="rgb(0,0,0)" x1="1245.0" x2="1285.0" y1="55.0" y2="55.0" /><line stroke="rgb(0,0,0)" x1="1285.0" x2="1305.0" y1="55.0" y2="55.0" /><line stroke="rgb(0,0,0)" x1="1305.0" x2="1310.0" y1="55.0" y2="55.0" /><line stroke="rgb(0,0,0)" x1="1310.0" x2="1475.0" y1="55.0" y2="55.0" /><line stroke="rgb(0,0,0)" x1="1475.0" x2="1495.0" y1="55.0" y2="55.0" /><line stroke="rgb(0,0,0)" x1="1495.0" x2="1500.0" y1="55.0" y2="55.0" /><line stroke="rgb(0,0,0)" x1="1500.0" x2="1520.0" y1="55.0" y2="55.0" /><line stroke="rgb(0,0,0)" x1="1520.0" x2="1540.0" y1="55.0" y2="55.0" /><line stroke="rgb(0,0,0)" x1="1540.0" x2="1545.0" y1="55.0" y2="55.0" /><line stroke="rgb(0,0,0)" x1="1545.0" x2="1640.0" y1="55.0" y2="55.0" /><line stroke="rgb(0,0,0)" x1="1640.0" x2="1660.0" y1="55.0" y2="55.0" /><line stroke="rgb(0,0,0)" x1="1660.0" x2="1665.0" y1="55.0" y2="55.0" /><line stroke="rgb(0,0,0)" x1="1665.0" x2="1705.0" y1="55.0" y2="55.0" /><line stroke="rgb(0,0,0)" x1="1705.0" x2="1725.0" y1="55.0" y2="55.0" /><line stroke="rgb(0,0,0)" x1="1725.0" x2="1730.0" y1="55.0" y2="55.0" /><line stroke="rgb(0,0,0)" x1="1730.0" x2="1845.0" y1="55.0" y2="55.0" /><line stroke="rgb(0,0,0)" x1="1845.0" x2="1865.0" y1="55.0" y2="55.0" /><line stroke="rgb(0,0,0)" x1="1865.0" x2="1870.0" y1="55.0" y2="55.0" /><line stroke="rgb(0,0,0)" x1="1870.0" x2="1925.0" y1="55.0" y2="55.0" /><line stroke="rgb(0,0,0)" x1="1925.0" x2="1945.0" y1="55.0" y2="55.0" /><line stroke="rgb(0,0,0)" x1="1945.0" x2="1950.0" y1="55.0" y2="55.0" /><line stroke="rgb(0,0,0)" x1="1950.0" x2="2010.0" y1="55.0" y2="55.0" /><line stroke="rgb(0,0,0)" x1="2010.0" x2="2030.0" y1="55.0" y2="55.0" /><line stroke="rgb(0,0,0)" x1="2030.0" x2="2035.0" y1="55.0" y2="55.0" /><line stroke="rgb(0,0,0)" x1="2035.0" x2="2200.0" y1="55.0" y2="55.0" /><line stroke="rgb(0,0,0)" x1="2200.0" x2="2220.0" y1="55.0" y2="55.0" /><line stroke="rgb(0,0,0)" x1="2220.0" x2="2225.0" y1="55.0" y2="55.0" /><line stroke="rgb(0,0,0)" x1="2225.0" x2="2260.0" y1="55.0" y2="55.0" /><line stroke="rgb(0,0,0)" x1="2260.0" x2="2280.0" y1="55.0" y2="55.0" /><line stroke="rgb(0,0,0)" x1="2280.0" x2="2285.0" y1="55.0" y2="55.0" /><line stroke="rgb(0,0,0)" x1="2285.0" x2="2365.0" y1="55.0" y2="55.0" /><line stroke="rgb(0,0,0)" x1="2365.0" x2="2385.0" y1="55.0" y2="55.0" /><line stroke="rgb(0,0,0)" x1="2385.0" x2="2390.0" y1="55.0" y2="55.0" /><line stroke="rgb(0,0,0)" x1="2390.0" x2="2405.0" y1="55.0" y2="55.0" /><line stroke="rgb(0,0,0)" x1="2405.0" x2="2425.0" y1="55.0" y2="55.0" /><line stroke="rgb(0,0,0)" x1="2425.0" x2="2430.0" y1="55.0" y2="55.0" /><line stroke="rgb(0,0,0)" x1="2430.0" x2="2455.0" y1="55.0" y2="55.0" /><line stroke="rgb(0,0,0)" x1="2455.0" x2="2475.0" y1="55.0" y2="55.0" /><line stroke="rgb(0,0,0)" x1="2475.0" x2="2480.0" y1="55.0" y2="55.0" /><line stroke="rgb(0,0,0)" x1="2480.0" x2="2495.0" y1="55.0" y2="55.0" /><line stroke="rgb(0,0,0)" x1="2495.0" x2="2515.0" y1="55.0" y2="55.0" /><line stroke="rgb(0,0,0)" x1="2515.0" x2="2520.0" y1="55.0" y2="55.0" /><line stroke="rgb(0,0,0)" x1="2520.0" x2="2720.0" y1="55.0" y2="55.0" /><line stroke="rgb(0,0,0)" x1="2720.0" x2="2740.0" y1="55.0" y2="55.0" /><line stroke="rgb(0,0,0)" x1="2740.0" x2="2745.0" y1="55.0" y2="55.0" /><line stroke="rgb(0,0,0)" x1="2745.0" x2="2855.0" y1="55.0" y2="55.0" /><line stroke="rgb(0,0,0)" x1="2855.0" x2="2875.0" y1="55.0" y2="55.0" /><line stroke="rgb(0,0,0)" x1="2875.0" x2="2880.0" y1="55.0" y2="55.0" /><line stroke="rgb(0,0,0)" x1="2880.0" x2="2925.0" y1="55.0" y2="55.0" /><line stroke="rgb(0,0,0)" x1="2925.0" x2="2945.0" y1="55.0" y2="55.0" /><line stroke="rgb(0,0,0)" x1="2945.0" x2="2950.0" y1="55.0" y2="55.0" /><line stroke="rgb(0,0,0)" x1="2950.0" x2="3035.0" y1="55.0" y2="55.0" /><line stroke="rgb(0,0,0)" x1="3035.0" x2="3055.0" y1="55.0" y2="55.0" /><line stroke="rgb(0,0,0)" x1="3055.0" x2="3060.0" y1="55.0" y2="55.0" /><line stroke="rgb(0,0,0)" x1="3060.0" x2="3080.0" y1="55.0" y2="55.0" /><line stroke="rgb(0,0,0)" x1="3080.0" x2="3100.0" y1="55.0" y2="55.0" /><line stroke="rgb(0,0,0)" x1="3100.0" x2="3105.0" y1="55.0" y2="55.0" /><line stroke="rgb(0,0,0)" x1="3105.0" x2="3145.0" y1="55.0" y2="55.0" /><line stroke="rgb(0,0,0)" x1="3145.0" x2="3165.0" y1="55.0" y2="55.0" /><line stroke="rgb(0,0,0)" x1="3165.0" x2="3170.0" y1="55.0" y2="55.0" /><line stroke="rgb(0,0,0)" x1="3170.0" x2="3195.0" y1="55.0" y2="55.0" /><line stroke="rgb(0,0,0)" x1="3195.0" x2="3215.0" y1="55.0" y2="55.0" /><line stroke="rgb(0,0,0)" x1="3215.0" x2="3220.0" y1="55.0" y2="55.0" /><line stroke="rgb(0,0,0)" x1="3220.0" x2="3245.0" y1="55.0" y2="55.0" /><line stroke="rgb(0,0,0)" x1="3245.0" x2="3265.0" y1="55.0" y2="55.0" /><line stroke="rgb(0,0,0)" x1="3265.0" x2="3270.0" y1="55.0" y2="55.0" /><line stroke="rgb(0,0,0)" x1="3270.0" x2="3305.0" y1="55.0" y2="55.0" /><line stroke="rgb(0,0,0)" x1="3305.0" x2="3325.0" y1="55.0" y2="55.0" /><line stroke="rgb(0,0,0)" x1="3325.0" x2="3330.0" y1="55.0" y2="55.0" /><line stroke="rgb(0,0,0)" x1="3330.0" x2="3375.0" y1="55.0" y2="55.0" /><line stroke="rgb(0,0,0)" x1="3375.0" x2="3395.0" y1="55.0" y2="55.0" /><line stroke="rgb(0,0,0)" x1="3395.0" x2="3400.0" y1="55.0" y2="55.0" /><line stroke="rgb(0,0,0)" x1="3400.0" x2="3425.0" y1="55.0" y2="55.0" /><line stroke="rgb(0,0,0)" x1="3425.0" x2="3445.0" y1="55.0" y2="55.0" /><line stroke="rgb(0,0,0)" x1="3445.0" x2="3450.0" y1="55.0" y2="55.0" /><line stroke="rgb(0,0,0)" x1="3450.0" x2="3485.0" y1="55.0" y2="55.0" /><line stroke="rgb(0,0,0)" x1="3485.0" x2="3505.0" y1="55.0" y2="55.0" /><line stroke="rgb(0,0,0)" x1="3505.0" x2="3510.0" y1="55.0" y2="55.0" /><line stroke="rgb(0,0,0)" x1="3510.0" x2="3565.0" y1="55.0" y2="55.0" /><line stroke="rgb(0,0,0)" x1="3565.0" x2="3585.0" y1="55.0" y2="55.0" /><line stroke="rgb(0,0,0)" x1="3585.0" x2="3590.0" y1="55.0" y2="55.0" /><line stroke="rgb(0,0,0)" x1="3590.0" x2="3615.0" y1="55.0" y2="55.0" /><line stroke="rgb(0,0,0)" x1="3615.0" x2="3635.0" y1="55.0" y2="55.0" /><line stroke="rgb(0,0,0)" x1="3635.0" x2="3640.0" y1="55.0" y2="55.0" /><line stroke="rgb(0,0,0)" x1="3640.0" x2="3660.0" y1="55.0" y2="55.0" /><line stroke="rgb(0,0,0)" x1="3660.0" x2="3680.0" y1="55.0" y2="55.0" /><line stroke="rgb(0,0,0)" x1="3680.0" x2="3685.0" y1="55.0" y2="55.0" /><line stroke="rgb(0,0,0)" x1="3685.0" x2="3795.0" y1="55.0" y2="55.0" /><line stroke="rgb(0,0,0)" x1="3795.0" x2="3815.0" y1="55.0" y2="55.0" /><line stroke="rgb(0,0,0)" x1="3815.0" x2="3820.0" y1="55.0" y2="55.0" /><line stroke="rgb(0,0,0)" x1="3820.0" x2="3855.0" y1="55.0" y2="55.0" /><line stroke="rgb(0,0,0)" x1="3855.0" x2="3875.0" y1="55.0" y2="55.0" /><line stroke="rgb(0,0,0)" x1="3875.0" x2="3880.0" y1="55.0" y2="55.0" /><line stroke="rgb(0,0,0)" x1="3880.0" x2="3905.0" y1="55.0" y2="55.0" /><line stroke="rgb(0,0,0)" x1="3905.0" x2="3925.0" y1="55.0" y2="55.0" /><line stroke="rgb(0,0,0)" x1="3925.0" x2="3930.0" y1="55.0" y2="55.0" /><line stroke="rgb(0,0,0)" x1="3930.0" x2="3955.0" y1="55.0" y2="55.0" /><line stroke="rgb(0,0,0)" x1="3955.0" x2="3975.0" y1="55.0" y2="55.0" /><line stroke="rgb(0,0,0)" x1="3975.0" x2="3980.0" y1="55.0" y2="55.0" /><line stroke="rgb(0,0,0)" x1="3980.0" x2="4015.0" y1="55.0" y2="55.0" /><line stroke="rgb(0,0,0)" x1="4015.0" x2="4035.0" y1="55.0" y2="55.0" /><line stroke="rgb(0,0,0)" x1="4035.0" x2="4040.0" y1="55.0" y2="55.0" /><line stroke="rgb(0,0,0)" x1="4040.0" x2="4065.0" y1="55.0" y2="55.0" /><line stroke="rgb(0,0,0)" x1="4065.0" x2="4085.0" y1="55.0" y2="55.0" /><line stroke="rgb(0,0,0)" x1="4085.0" x2="4090.0" y1="55.0" y2="55.0" /><line stroke="rgb(0,0,0)" x1="4090.0" x2="4145.0" y1="55.0" y2="55.0" /><line stroke="rgb(0,0,0)" x1="4145.0" x2="4165.0" y1="55.0" y2="55.0" /><line stroke="rgb(0,0,0)" x1="4165.0" x2="4170.0" y1="55.0" y2="55.0" /><line stroke="rgb(0,0,0)" x1="4170.0" x2="4205.0" y1="55.0" y2="55.0" /><line stroke="rgb(0,0,0)" x1="4205.0" x2="4225.0" y1="55.0" y2="55.0" /><line stroke="rgb(0,0,0)" x1="4225.0" x2="4230.0" y1="55.0" y2="55.0" /><polygon fill="rgb(150,150,150)" points="20.0,55.0 20.0,43.8 12.5,43.8 12.5,43.8 5.0,43.8 5.0,55.0 5.0,55.0 5.0,66.2 12.5,66.2 12.5,66.2 20.0,66.2 20.0,55.0" stroke="rgb(0,0,0)" /><text fill="black" x="5.0" y="86.2">H2</text><polygon fill="rgb(255,150,150)" points="80.0,55.0 80.0,54.8 72.5,54.8 72.5,54.0 70.0,54.0 70.0,48.6 67.5,48.6 67.5,29.6 65.0,29.6 65.0,29.6 62.5,29.6 62.5,48.6 60.0,48.6 60.0,54.0 57.5,54.0 57.5,54.8 50.0,54.8 50.0,55.0 50.0,55.0 50.0,55.2 57.5,55.2 57.5,56.0 60.0,56.0 60.0,61.4 62.5,61.4 62.5,80.4 65.0,80.4 65.0,80.4 67.5,80.4 67.5,61.4 70.0,61.4 70.0,56.0 72.5,56.0 72.5,55.2 80.0,55.2 80.0,55.0" stroke="rgb(0,0,0)" /><text fill="black" x="50.0" y="100.4">E3</text><polygon fill="rgb(150,150,150)" points="125.0,55.0 125.0,40.0 117.5,40.0 117.5,40.0 110.0,40.0 110.0,55.0 110.0,55.0 110.0,70.0 117.5,70.0 117.5,70.0 125.0,70.0 125.0,55.0" stroke="rgb(0,0,0)" /><text fill="black" x="110.0" y="90.0">H5</text><polygon fill="rgb(255,150,150)" points="165.0,55.0 165.0,54.8 162.5,54.8 162.5,44.800000000000004 160.0,44.800000000000004 160.0,44.800000000000004 157.5,44.800000000000004 157.5,54.8 155.0,54.8 155.0,55.0 155.0,55.0 155.0,55.2 157.5,55.2 157.5,65.2 160.0,65.2 160.0,65.2 162.5,65.2 162.5,55.2 165.0,55.2 165.0,55.0" stroke="rgb(0,0,0)" /><text fill="black" x="155.0" y="85.2">E6</text><polygon fill="rgb(150,150,150)" points="275.0,55.0 275.0,54.8 272.5,54.8 272.5,54.6 270.0,54.6 270.0,53.8 262.5,53.8 262.5,53.6 257.5,53.6 257.5,52.199999999999996 255.0,52.199999999999996 255.0,51.400000000000006 252.5,51.400000000000006 252.5,48.2 250.0,48.2 250.0,46.4 247.5,46.4 247.5,43.6 245.0,43.6 245.0,36.4 242.5,36.4 242.5,31.6 235.0,31.6 235.0,31.6 227.5,31.6 227.5,36.4 225.0,36.4 225.0,43.6 222.5,43.6 222.5,46.4 220.0,46.4 220.0,48.2 217.5,48.2 217.5,51.400000000000006 215.0,51.400000000000006 215.0,52.199999999999996 212.5,52.199999999999996 212.5,53.6 207.5,53.6 207.5,53.8 200.0,53.8 200.0,54.6 197.5,54.6 197.5,54.8 195.0,54.8 195.0,55.0 195.0,55.0 195.0,55.2 197.5,55.2 197.5,55.4 200.0,55.4 200.0,56.2 207.5,56.2 207.5,56.4 212.5,56.4 212.5,57.800000000000004 215.0,57.800000000000004 215.0,58.599999999999994 217.5,58.599999999999994 217.5,61.8 220.0,61.8 220.0,63.6 222.5,63.6 222.5,66.4 225.0,66.4 225.0,73.6 227.5,73.6 227.5,78.4 235.0,78.4 235.0,78.4 242.5,78.4 242.5,73.6 245.0,73.6 245.0,66.4 247.5,66.4 247.5,63.6 250.0,63.6 250.0,61.8 252.5,61.8 252.5,58.599999999999994 255.0,58.599999999999994 255.0,57.800000000000004 257.5,57.800000000000004 257.5,56.4 262.5,56.4 262.5,56.2 270.0,56.2 270.0,55.4 272.5,55.4 272.5,55.2 275.0,55.2 275.0,55.0" stroke="rgb(0,0,0)" /><text fill="black" x="195.0" y="98.4">H7</text><polygon fill="rgb(150,150,150)" points="335.0,55.0 335.0,53.6 332.5,53.6 332.5,53.0 327.5,53.0 327.5,38.400000000000006 320.0,38.400000000000006 320.0,38.400000000000006 312.5,38.400000000000006 312.5,53.0 307.5,53.0 307.5,53.6 305.0,53.6 305.0,55.0 305.0,55.0 305.0,56.4 307.5,56.4 307.5,57.0 312.5,57.0 312.5,71.6 320.0,71.6 320.0,71.6 327.5,71.6 327.5,57.0 332.5,57.0 332.5,56.4 335.0,56.4 335.0,55.0" stroke="rgb(0,0,0)" /><text fill="black" x="305.0" y="91.6">H9</text><polygon fill="rgb(150,150,150)" points="395.0,55.0 395.0,51.2 392.5,51.2 392.5,50.800000000000004 390.0,50.800000000000004 390.0,50.6 387.5,50.6 387.5,39.8 380.0,39.8 380.0,39.8 372.5,39.8 372.5,50.6 370.0,50.6 370.0,50.800000000000004 367.5,50.800000000000004 367.5,51.2 365.0,51.2 365.0,55.0 365.0,55.0 365.0,58.8 367.5,58.8 367.5,59.199999999999996 370.0,59.199999999999996 370.0,59.4 372.5,59.4 372.5,70.2 380.0,70.2 380.0,70.2 387.5,70.2 387.5,59.4 390.0,59.4 390.0,59.199999999999996 392.5,59.199999999999996 392.5,58.8 395.0,58.8 395.0,55.0" stroke="rgb(0,0,0)" /><text fill="black" x="365.0" y="90.2">H10</text><polygon fill="rgb(150,150,150)" points="500.0,55.0 500.0,53.8 497.5,53.8 497.5,52.599999999999994 495.0,52.599999999999994 495.0,51.800000000000004 492.5,51.800000000000004 492.5,28.599999999999998 490.0,28.599999999999998 490.0,24.0 487.5,24.0 487.5,18.0 485.0,18.0 485.0,6.399999999999999 482.5,6.399999999999999 482.5,5.600000000000001 477.5,5.600000000000001 477.5,5.399999999999999 475.0,5.399999999999999 475.0,5.200000000000003 462.5,5.200000000000003 462.5,5.200000000000003 450.0,5.200000000000003 450.0,5.399999999999999 447.5,5.399999999999999 447.5,5.600000000000001 442.5,5.600000000000001 442.5,6.399999999999999 440.0,6.399999999999999 440.0,18.0 437.5,18.0 437.5,24.0 435.0,24.0 435.0,28.599999999999998 432.5,28.599999999999998 432.5,51.800000000000004 430.0,51.800000000000004 430.0,52.599999999999994 427.5,52.599999999999994 427.5,53.8 425.0,53.8 425.0,55.0 425.0,55.0 425.0,56.2 427.5,56.2 427.5,57.400000000000006 430.0,57.400000000000006 430.0,58.199999999999996 432.5,58.199999999999996 432.5,81.4 435.0,81.4 435.0,86.0 437.5,86.0 437.5,92.0 440.0,92.0 440.0,103.6 442.5,103.6 442.5,104.4 447.5,104.4 447.5,104.6 450.0,104.6 450.0,104.8 462.5,104.8 462.5,104.8 475.0,104.8 475.0,104.6 477.5,104.6 477.5,104.4 482.5,104.4 482.5,103.6 485.0,103.6 485.0,92.0 487.5,92.0 487.5,86.0 490.0,86.0 490.0,81.4 492.5,81.4 492.5,58.199999999999996 495.0,58.199999999999996 495.0,57.400000000000006 497.5,57.400000000000006 497.5,56.2 500.0,56.2 500.0,55.0" stroke="rgb(0,0,0)" /><text fill="black" x="425.0" y="124.8">H13</text><polygon fill="rgb(255,150,150)" points="560.0,55.0 560.0,34.8 557.5,34.8 557.5,23.2 555.0,23.2 555.0,8.200000000000003 552.5,8.200000000000003 552.5,5.200000000000003 545.0,5.200000000000003 545.0,5.200000000000003 537.5,5.200000000000003 537.5,8.200000000000003 535.0,8.200000000000003 535.0,23.2 532.5,23.2 532.5,34.8 530.0,34.8 530.0,55.0 530.0,55.0 530.0,75.2 532.5,75.2 532.5,86.8 535.0,86.8 535.0,101.8 537.5,101.8 537.5,104.8 545.0,104.8 545.0,104.8 552.5,104.8 552.5,101.8 555.0,101.8 555.0,86.8 557.5,86.8 557.5,75.2 560.0,75.2 560.0,55.0" stroke="rgb(0,0,0)" /><text fill="black" x="530.0" y="124.8">E15</text><polygon fill="rgb(255,150,150)" points="625.0,55.0 625.0,52.4 622.5,52.4 622.5,34.2 620.0,34.2 620.0,24.8 617.5,24.8 617.5,7.200000000000003 615.0,7.200000000000003 615.0,5.0 607.5,5.0 607.5,5.0 600.0,5.0 600.0,7.200000000000003 597.5,7.200000000000003 597.5,24.8 595.0,24.8 595.0,34.2 592.5,34.2 592.5,52.4 590.0,52.4 590.0,55.0 590.0,55.0 590.0,57.6 592.5,57.6 592.5,75.8 595.0,75.8 595.0,85.2 597.5,85.2 597.5,102.8 600.0,102.8 600.0,105.0 607.5,105.0 607.5,105.0 615.0,105.0 615.0,102.8 617.5,102.8 617.5,85.2 620.0,85.2 620.0,75.8 622.5,75.8 622.5,57.6 625.0,57.6 625.0,55.0" stroke="rgb(0,0,0)" /><text fill="black" x="590.0" y="125.0">E20</text><polygon fill="rgb(150,150,150)" points="710.0,55.0 710.0,46.199999999999996 707.5,46.199999999999996 707.5,26.999999999999996 705.0,26.999999999999996 705.0,15.399999999999999 702.5,15.399999999999999 702.5,7.0 697.5,7.0 697.5,5.200000000000003 682.5,5.200000000000003 682.5,5.200000000000003 667.5,5.200000000000003 667.5,7.0 662.5,7.0 662.5,15.399999999999999 660.0,15.399999999999999 660.0,26.999999999999996 657.5,26.999999999999996 657.5,46.199999999999996 655.0,46.199999999999996 655.0,55.0 655.0,55.0 655.0,63.800000000000004 657.5,63.800000000000004 657.5,83.0 660.0,83.0 660.0,94.6 662.5,94.6 662.5,103.0 667.5,103.0 667.5,104.8 682.5,104.8 682.5,104.8 697.5,104.8 697.5,103.0 702.5,103.0 702.5,94.6 705.0,94.6 705.0,83.0 707.5,83.0 707.5,63.800000000000004 710.0,63.800000000000004 710.0,55.0" stroke="rgb(0,0,0)" /><text fill="black" x="655.0" y="124.8">H22</text><polygon fill="rgb(150,150,150)" points="765.0,55.0 765.0,49.8 762.5,49.8 762.5,27.199999999999996 760.0,27.199999999999996 760.0,7.200000000000003 752.5,7.200000000000003 752.5,7.200000000000003 745.0,7.200000000000003 745.0,27.199999999999996 742.5,27.199999999999996 742.5,49.8 740.0,49.8 740.0,55.0 740.0,55.0 740.0,60.2 742.5,60.2 742.5,82.80000000000001 745.0,82.80000000000001 745.0,102.8 752.5,102.8 752.5,102.8 760.0,102.8 760.0,82.80000000000001 762.5,82.80000000000001 762.5,60.2 765.0,60.2 765.0,55.0" stroke="rgb(0,0,0)" /><text fill="black" x="740.0" y="122.8">H23</text><polygon fill="rgb(255,150,150)" points="815.0,55.0 815.0,51.800000000000004 812.5,51.800000000000004 812.5,47.6 810.0,47.6 810.0,11.399999999999999 807.5,11.399999999999999 807.5,7.400000000000006 805.0,7.400000000000006 805.0,7.400000000000006 802.5,7.400000000000006 802.5,11.399999999999999 800.0,11.399999999999999 800.0,47.6 797.5,47.6 797.5,51.800000000000004 795.0,51.800000000000004 795.0,55.0 795.0,55.0 795.0,58.199999999999996 797.5,58.199999999999996 797.5,62.4 800.0,62.4 800.0,98.6 802.5,98.6 802.5,102.6 805.0,102.6 805.0,102.6 807.5,102.6 807.5,98.6 810.0,98.6 810.0,62.4 812.5,62.4 812.5,58.199999999999996 815.0,58.199999999999996 815.0,55.0" stroke="rgb(0,0,0)" /><text fill="black" x="795.0" y="122.6">E25</text><polygon fill="rgb(150,150,150)" points="910.0,55.0 910.0,54.4 895.0,54.4 895.0,54.0 892.5,54.0 892.5,52.599999999999994 890.0,52.599999999999994 890.0,46.8 887.5,46.8 887.5,45.2 885.0,45.2 885.0,31.6 877.5,31.6 877.5,31.6 870.0,31.6 870.0,45.2 867.5,45.2 867.5,46.8 865.0,46.8 865.0,52.599999999999994 862.5,52.599999999999994 862.5,54.0 860.0,54.0 860.0,54.4 845.0,54.4 845.0,55.0 845.0,55.0 845.0,55.6 860.0,55.6 860.0,56.0 862.5,56.0 862.5,57.400000000000006 865.0,57.400000000000006 865.0,63.2 867.5,63.2 867.5,64.8 870.0,64.8 870.0,78.4 877.5,78.4 877.5,78.4 885.0,78.4 885.0,64.8 887.5,64.8 887.5,63.2 890.0,63.2 890.0,57.400000000000006 892.5,57.400000000000006 892.5,56.0 895.0,56.0 895.0,55.6 910.0,55.6 910.0,55.0" stroke="rgb(0,0,0)" /><text fill="black" x="845.0" y="98.4">H27</text><polygon fill="rgb(150,150,150)" points="1005.0,55.0 1005.0,54.8 997.5,54.8 997.5,47.0 995.0,47.0 995.0,46.4 992.5,46.4 992.5,43.0 990.0,43.0 990.0,33.199999999999996 987.5,33.199999999999996 987.5,24.400000000000002 985.0,24.400000000000002 985.0,23.4 982.5,23.4 982.5,22.799999999999997 980.0,22.799999999999997 980.0,21.800000000000004 972.5,21.800000000000004 972.5,21.800000000000004 965.0,21.800000000000004 965.0,22.799999999999997 962.5,22.799999999999997 962.5,23.4 960.0,23.4 960.0,24.400000000000002 957.5,24.400000000000002 957.5,33.199999999999996 955.0,33.199999999999996 955.0,43.0 952.5,43.0 952.5,46.4 950.0,46.4 950.0,47.0 947.5,47.0 947.5,54.8 940.0,54.8 940.0,55.0 940.0,55.0 940.0,55.2 947.5,55.2 947.5,63.0 950.0,63.0 950.0,63.6 952.5,63.6 952.5,67.0 955.0,67.0 955.0,76.80000000000001 957.5,76.80000000000001 957.5,85.6 960.0,85.6 960.0,86.6 962.5,86.6 962.5,87.2 965.0,87.2 965.0,88.19999999999999 972.5,88.19999999999999 972.5,88.19999999999999 980.0,88.19999999999999 980.0,87.2 982.5,87.2 982.5,86.6 985.0,86.6 985.0,85.6 987.5,85.6 987.5,76.80000000000001 990.0,76.80000000000001 990.0,67.0 992.5,67.0 992.5,63.6 995.0,63.6 995.0,63.0 997.5,63.0 997.5,55.2 1005.0,55.2 1005.0,55.0" stroke="rgb(0,0,0)" /><text fill="black" x="940.0" y="108.2">H30</text><polygon fill="rgb(150,150,150)" points="1075.0,55.0 1075.0,53.0 1067.5,53.0 1067.5,52.8 1065.0,52.8 1065.0,39.8 1062.5,39.8 1062.5,11.799999999999997 1055.0,11.799999999999997 1055.0,11.799999999999997 1047.5,11.799999999999997 1047.5,39.8 1045.0,39.8 1045.0,52.8 1042.5,52.8 1042.5,53.0 1035.0,53.0 1035.0,55.0 1035.0,55.0 1035.0,57.0 1042.5,57.0 1042.5,57.2 1045.0,57.2 1045.0,70.2 1047.5,70.2 1047.5,98.2 1055.0,98.2 1055.0,98.2 1062.5,98.2 1062.5,70.2 1065.0,70.2 1065.0,57.2 1067.5,57.2 1067.5,57.0 1075.0,57.0 1075.0,55.0" stroke="rgb(0,0,0)" /><text fill="black" x="1035.0" y="118.2">H36</text><polygon fill="rgb(150,150,150)" points="1215.0,55.0 1215.0,54.8 1207.5,54.8 1207.5,53.8 1205.0,53.8 1205.0,51.2 1202.5,51.2 1202.5,50.0 1200.0,50.0 1200.0,48.6 1197.5,48.6 1197.5,21.800000000000004 1195.0,21.800000000000004 1195.0,13.399999999999999 1192.5,13.399999999999999 1192.5,12.800000000000004 1190.0,12.800000000000004 1190.0,12.399999999999999 1187.5,12.399999999999999 1187.5,8.799999999999997 1185.0,8.799999999999997 1185.0,8.400000000000006 1182.5,8.400000000000006 1182.5,8.200000000000003 1160.0,8.200000000000003 1160.0,8.200000000000003 1137.5,8.200000000000003 1137.5,8.400000000000006 1135.0,8.400000000000006 1135.0,8.799999999999997 1132.5,8.799999999999997 1132.5,12.399999999999999 1130.0,12.399999999999999 1130.0,12.800000000000004 1127.5,12.800000000000004 1127.5,13.399999999999999 1125.0,13.399999999999999 1125.0,21.800000000000004 1122.5,21.800000000000004 1122.5,48.6 1120.0,48.6 1120.0,50.0 1117.5,50.0 1117.5,51.2 1115.0,51.2 1115.0,53.8 1112.5,53.8 1112.5,54.8 1105.0,54.8 1105.0,55.0 1105.0,55.0 1105.0,55.2 1112.5,55.2 1112.5,56.2 1115.0,56.2 1115.0,58.8 1117.5,58.8 1117.5,60.0 1120.0,60.0 1120.0,61.4 1122.5,61.4 1122.5,88.19999999999999 1125.0,88.19999999999999 1125.0,96.6 1127.5,96.6 1127.5,97.19999999999999 1130.0,97.19999999999999 1130.0,97.6 1132.5,97.6 1132.5,101.2 1135.0,101.2 1135.0,101.6 1137.5,101.6 1137.5,101.8 1160.0,101.8 1160.0,101.8 1182.5,101.8 1182.5,101.6 1185.0,101.6 1185.0,101.2 1187.5,101.2 1187.5,97.6 1190.0,97.6 1190.0,97.19999999999999 1192.5,97.19999999999999 1192.5,96.6 1195.0,96.6 1195.0,88.19999999999999 1197.5,88.19999999999999 1197.5,61.4 1200.0,61.4 1200.0,60.0 1202.5,60.0 1202.5,58.8 1205.0,58.8 1205.0,56.2 1207.5,56.2 1207.5,55.2 1215.0,55.2 1215.0,55.0" stroke="rgb(0,0,0)" /><text fill="black" x="1105.0" y="121.80000000000001">H39</text><polygon fill="rgb(150,150,150)" points="1280.0,55.0 1280.0,46.599999999999994 1272.5,46.599999999999994 1272.5,45.2 1270.0,45.2 1270.0,44.6 1262.5,44.6 1262.5,44.6 1255.0,44.6 1255.0,45.2 1252.5,45.2 1252.5,46.599999999999994 1245.0,46.599999999999994 1245.0,55.0 1245.0,55.0 1245.0,63.400000000000006 1252.5,63.400000000000006 1252.5,64.8 1255.0,64.8 1255.0,65.4 1262.5,65.4 1262.5,65.4 1270.0,65.4 1270.0,64.8 1272.5,64.8 1272.5,63.400000000000006 1280.0,63.400000000000006 1280.0,55.0" stroke="rgb(0,0,0)" /><text fill="black" x="1245.0" y="85.4">H42</text><polygon fill="rgb(150,150,150)" points="1470.0,55.0 1470.0,54.8 1462.5,54.8 1462.5,54.6 1460.0,54.6 1460.0,53.0 1455.0,53.0 1455.0,52.4 1452.5,52.4 1452.5,41.6 1450.0,41.6 1450.0,32.2 1447.5,32.2 1447.5,31.0 1445.0,31.0 1445.0,28.2 1442.5,28.2 1442.5,22.6 1440.0,22.6 1440.0,21.800000000000004 1437.5,21.800000000000004 1437.5,13.799999999999997 1435.0,13.799999999999997 1435.0,6.200000000000003 1432.5,6.200000000000003 1432.5,5.799999999999997 1427.5,5.799999999999997 1427.5,5.0 1390.0,5.0 1390.0,5.0 1352.5,5.0 1352.5,5.799999999999997 1347.5,5.799999999999997 1347.5,6.200000000000003 1345.0,6.200000000000003 1345.0,13.799999999999997 1342.5,13.799999999999997 1342.5,21.800000000000004 1340.0,21.800000000000004 1340.0,22.6 1337.5,22.6 1337.5,28.2 1335.0,28.2 1335.0,31.0 1332.5,31.0 1332.5,32.2 1330.0,32.2 1330.0,41.6 1327.5,41.6 1327.5,52.4 1325.0,52.4 1325.0,53.0 1320.0,53.0 1320.0,54.6 1317.5,54.6 1317.5,54.8 1310.0,54.8 1310.0,55.0 1310.0,55.0 1310.0,55.2 1317.5,55.2 1317.5,55.4 1320.0,55.4 1320.0,57.0 1325.0,57.0 1325.0,57.6 1327.5,57.6 1327.5,68.4 1330.0,68.4 1330.0,77.8 1332.5,77.8 1332.5,79.0 1335.0,79.0 1335.0,81.8 1337.5,81.8 1337.5,87.4 1340.0,87.4 1340.0,88.19999999999999 1342.5,88.19999999999999 1342.5,96.2 1345.0,96.2 1345.0,103.8 1347.5,103.8 1347.5,104.2 1352.5,104.2 1352.5,105.0 1390.0,105.0 1390.0,105.0 1427.5,105.0 1427.5,104.2 1432.5,104.2 1432.5,103.8 1435.0,103.8 1435.0,96.2 1437.5,96.2 1437.5,88.19999999999999 1440.0,88.19999999999999 1440.0,87.4 1442.5,87.4 1442.5,81.8 1445.0,81.8 1445.0,79.0 1447.5,79.0 1447.5,77.8 1450.0,77.8 1450.0,68.4 1452.5,68.4 1452.5,57.6 1455.0,57.6 1455.0,57.0 1460.0,57.0 1460.0,55.4 1462.5,55.4 1462.5,55.2 1470.0,55.2 1470.0,55.0" stroke="rgb(0,0,0)" /><text fill="black" x="1310.0" y="125.0">H44</text><polygon fill="rgb(255,150,255)" points="1515.0,55.0 1515.0,37.8 1512.5,37.8 1512.5,18.4 1510.0,18.4 1510.0,15.0 1507.5,15.0 1507.5,15.0 1505.0,15.0 1505.0,18.4 1502.5,18.4 1502.5,37.8 1500.0,37.8 1500.0,55.0 1500.0,55.0 1500.0,72.2 1502.5,72.2 1502.5,91.6 1505.0,91.6 1505.0,95.0 1507.5,95.0 1507.5,95.0 1510.0,95.0 1510.0,91.6 1512.5,91.6 1512.5,72.2 1515.0,72.2 1515.0,55.0" stroke="rgb(0,0,0)" /><text fill="black" x="1500.0" y="115.0">E47</text><polygon fill="rgb(150,150,150)" points="1635.0,55.0 1635.0,13.399999999999999 1632.5,13.399999999999999 1632.5,7.400000000000006 1625.0,7.400000000000006 1625.0,5.0 1590.0,5.0 1590.0,5.0 1555.0,5.0 1555.0,7.400000000000006 1547.5,7.400000000000006 1547.5,13.399999999999999 1545.0,13.399999999999999 1545.0,55.0 1545.0,55.0 1545.0,96.6 1547.5,96.6 1547.5,102.6 1555.0,102.6 1555.0,105.0 1590.0,105.0 1590.0,105.0 1625.0,105.0 1625.0,102.6 1632.5,102.6 1632.5,96.6 1635.0,96.6 1635.0,55.0" stroke="rgb(0,0,0)" /><text fill="black" x="1545.0" y="125.0">H49</text><polygon fill="rgb(150,150,150)" points="1700.0,55.0 1700.0,53.0 1697.5,53.0 1697.5,51.400000000000006 1695.0,51.400000000000006 1695.0,51.2 1692.5,51.2 1692.5,48.0 1690.0,48.0 1690.0,38.400000000000006 1682.5,38.400000000000006 1682.5,38.400000000000006 1675.0,38.400000000000006 1675.0,48.0 1672.5,48.0 1672.5,51.2 1670.0,51.2 1670.0,51.400000000000006 1667.5,51.400000000000006 1667.5,53.0 1665.0,53.0 1665.0,55.0 1665.0,55.0 1665.0,57.0 1667.5,57.0 1667.5,58.599999999999994 1670.0,58.599999999999994 1670.0,58.8 1672.5,58.8 1672.5,62.0 1675.0,62.0 1675.0,71.6 1682.5,71.6 1682.5,71.6 1690.0,71.6 1690.0,62.0 1692.5,62.0 1692.5,58.8 1695.0,58.8 1695.0,58.599999999999994 1697.5,58.599999999999994 1697.5,57.0 1700.0,57.0 1700.0,55.0" stroke="rgb(0,0,0)" /><text fill="black" x="1665.0" y="91.6">H51</text><polygon fill="rgb(150,150,150)" points="1840.0,55.0 1840.0,54.6 1837.5,54.6 1837.5,54.4 1835.0,54.4 1835.0,53.8 1832.5,53.8 1832.5,51.800000000000004 1830.0,51.800000000000004 1830.0,40.4 1827.5,40.4 1827.5,38.8 1825.0,38.8 1825.0,25.0 1822.5,25.0 1822.5,20.6 1820.0,20.6 1820.0,17.0 1817.5,17.0 1817.5,15.399999999999999 1815.0,15.399999999999999 1815.0,14.199999999999996 1812.5,14.199999999999996 1812.5,14.0 1810.0,14.0 1810.0,13.399999999999999 1805.0,13.399999999999999 1805.0,13.0 1792.5,13.0 1792.5,12.800000000000004 1785.0,12.800000000000004 1785.0,12.800000000000004 1777.5,12.800000000000004 1777.5,13.0 1765.0,13.0 1765.0,13.399999999999999 1760.0,13.399999999999999 1760.0,14.0 1757.5,14.0 1757.5,14.199999999999996 1755.0,14.199999999999996 1755.0,15.399999999999999 1752.5,15.399999999999999 1752.5,17.0 1750.0,17.0 1750.0,20.6 1747.5,20.6 1747.5,25.0 1745.0,25.0 1745.0,38.8 1742.5,38.8 1742.5,40.4 1740.0,40.4 1740.0,51.800000000000004 1737.5,51.800000000000004 1737.5,53.8 1735.0,53.8 1735.0,54.4 1732.5,54.4 1732.5,54.6 1730.0,54.6 1730.0,55.0 1730.0,55.0 1730.0,55.4 1732.5,55.4 1732.5,55.6 1735.0,55.6 1735.0,56.2 1737.5,56.2 1737.5,58.199999999999996 1740.0,58.199999999999996 1740.0,69.6 1742.5,69.6 1742.5,71.2 1745.0,71.2 1745.0,85.0 1747.5,85.0 1747.5,89.4 1750.0,89.4 1750.0,93.0 1752.5,93.0 1752.5,94.6 1755.0,94.6 1755.0,95.80000000000001 1757.5,95.80000000000001 1757.5,96.0 1760.0,96.0 1760.0,96.6 1765.0,96.6 1765.0,97.0 1777.5,97.0 1777.5,97.19999999999999 1785.0,97.19999999999999 1785.0,97.19999999999999 1792.5,97.19999999999999 1792.5,97.0 1805.0,97.0 1805.0,96.6 1810.0,96.6 1810.0,96.0 1812.5,96.0 1812.5,95.80000000000001 1815.0,95.80000000000001 1815.0,94.6 1817.5,94.6 1817.5,93.0 1820.0,93.0 1820.0,89.4 1822.5,89.4 1822.5,85.0 1825.0,85.0 1825.0,71.2 1827.5,71.2 1827.5,69.6 1830.0,69.6 1830.0,58.199999999999996 1832.5,58.199999999999996 1832.5,56.2 1835.0,56.2 1835.0,55.6 1837.5,55.6 1837.5,55.4 1840.0,55.4 1840.0,55.0" stroke="rgb(0,0,0)" /><text fill="black" x="1730.0" y="117.19999999999999">H53</text><polygon fill="rgb(150,150,150)" points="1920.0,55.0 1920.0,54.4 1917.5,54.4 1917.5,48.2 1912.5,48.2 1912.5,48.0 1910.0,48.0 1910.0,46.0 1907.5,46.0 1907.5,44.0 1905.0,44.0 1905.0,43.8 1902.5,43.8 1902.5,43.2 1895.0,43.2 1895.0,43.2 1887.5,43.2 1887.5,43.8 1885.0,43.8 1885.0,44.0 1882.5,44.0 1882.5,46.0 1880.0,46.0 1880.0,48.0 1877.5,48.0 1877.5,48.2 1872.5,48.2 1872.5,54.4 1870.0,54.4 1870.0,55.0 1870.0,55.0 1870.0,55.6 1872.5,55.6 1872.5,61.8 1877.5,61.8 1877.5,62.0 1880.0,62.0 1880.0,64.0 1882.5,64.0 1882.5,66.0 1885.0,66.0 1885.0,66.2 1887.5,66.2 1887.5,66.8 1895.0,66.8 1895.0,66.8 1902.5,66.8 1902.5,66.2 1905.0,66.2 1905.0,66.0 1907.5,66.0 1907.5,64.0 1910.0,64.0 1910.0,62.0 1912.5,62.0 1912.5,61.8 1917.5,61.8 1917.5,55.6 1920.0,55.6 1920.0,55.0" stroke="rgb(0,0,0)" /><text fill="black" x="1870.0" y="86.8">H57</text><polygon fill="rgb(150,150,150)" points="2005.0,55.0 2005.0,54.8 2002.5,54.8 2002.5,53.0 1997.5,53.0 1997.5,52.8 1995.0,52.8 1995.0,51.6 1992.5,51.6 1992.5,46.8 1990.0,46.8 1990.0,46.0 1987.5,46.0 1987.5,45.400000000000006 1985.0,45.400000000000006 1985.0,42.8 1977.5,42.8 1977.5,42.8 1970.0,42.8 1970.0,45.400000000000006 1967.5,45.400000000000006 1967.5,46.0 1965.0,46.0 1965.0,46.8 1962.5,46.8 1962.5,51.6 1960.0,51.6 1960.0,52.8 1957.5,52.8 1957.5,53.0 1952.5,53.0 1952.5,54.8 1950.0,54.8 1950.0,55.0 1950.0,55.0 1950.0,55.2 1952.5,55.2 1952.5,57.0 1957.5,57.0 1957.5,57.2 1960.0,57.2 1960.0,58.4 1962.5,58.4 1962.5,63.2 1965.0,63.2 1965.0,64.0 1967.5,64.0 1967.5,64.6 1970.0,64.6 1970.0,67.2 1977.5,67.2 1977.5,67.2 1985.0,67.2 1985.0,64.6 1987.5,64.6 1987.5,64.0 1990.0,64.0 1990.0,63.2 1992.5,63.2 1992.5,58.4 1995.0,58.4 1995.0,57.2 1997.5,57.2 1997.5,57.0 2002.5,57.0 2002.5,55.2 2005.0,55.2 2005.0,55.0" stroke="rgb(0,0,0)" /><text fill="black" x="1950.0" y="87.2">H58</text><polygon fill="rgb(150,150,150)" points="2195.0,55.0 2195.0,54.8 2192.5,54.8 2192.5,51.6 2190.0,51.6 2190.0,50.2 2185.0,50.2 2185.0,46.4 2182.5,46.4 2182.5,42.2 2180.0,42.2 2180.0,36.2 2177.5,36.2 2177.5,26.4 2175.0,26.4 2175.0,25.399999999999995 2172.5,25.399999999999995 2172.5,25.0 2170.0,25.0 2170.0,13.200000000000003 2167.5,13.200000000000003 2167.5,12.399999999999999 2165.0,12.399999999999999 2165.0,10.600000000000001 2162.5,10.600000000000001 2162.5,7.800000000000004 2160.0,7.800000000000004 2160.0,7.200000000000003 2157.5,7.200000000000003 2157.5,6.800000000000004 2155.0,6.800000000000004 2155.0,6.600000000000001 2152.5,6.600000000000001 2152.5,6.0 2150.0,6.0 2150.0,5.799999999999997 2147.5,5.799999999999997 2147.5,5.399999999999999 2142.5,5.399999999999999 2142.5,5.0 2115.0,5.0 2115.0,5.0 2087.5,5.0 2087.5,5.399999999999999 2082.5,5.399999999999999 2082.5,5.799999999999997 2080.0,5.799999999999997 2080.0,6.0 2077.5,6.0 2077.5,6.600000000000001 2075.0,6.600000000000001 2075.0,6.800000000000004 2072.5,6.800000000000004 2072.5,7.200000000000003 2070.0,7.200000000000003 2070.0,7.800000000000004 2067.5,7.800000000000004 2067.5,10.600000000000001 2065.0,10.600000000000001 2065.0,12.399999999999999 2062.5,12.399999999999999 2062.5,13.200000000000003 2060.0,13.200000000000003 2060.0,25.0 2057.5,25.0 2057.5,25.399999999999995 2055.0,25.399999999999995 2055.0,26.4 2052.5,26.4 2052.5,36.2 2050.0,36.2 2050.0,42.2 2047.5,42.2 2047.5,46.4 2045.0,46.4 2045.0,50.2 2040.0,50.2 2040.0,51.6 2037.5,51.6 2037.5,54.8 2035.0,54.8 2035.0,55.0 2035.0,55.0 2035.0,55.2 2037.5,55.2 2037.5,58.4 2040.0,58.4 2040.0,59.8 2045.0,59.8 2045.0,63.6 2047.5,63.6 2047.5,67.8 2050.0,67.8 2050.0,73.8 2052.5,73.8 2052.5,83.6 2055.0,83.6 2055.0,84.60000000000001 2057.5,84.60000000000001 2057.5,85.0 2060.0,85.0 2060.0,96.8 2062.5,96.8 2062.5,97.6 2065.0,97.6 2065.0,99.4 2067.5,99.4 2067.5,102.19999999999999 2070.0,102.19999999999999 2070.0,102.8 2072.5,102.8 2072.5,103.19999999999999 2075.0,103.19999999999999 2075.0,103.4 2077.5,103.4 2077.5,104.0 2080.0,104.0 2080.0,104.2 2082.5,104.2 2082.5,104.6 2087.5,104.6 2087.5,105.0 2115.0,105.0 2115.0,105.0 2142.5,105.0 2142.5,104.6 2147.5,104.6 2147.5,104.2 2150.0,104.2 2150.0,104.0 2152.5,104.0 2152.5,103.4 2155.0,103.4 2155.0,103.19999999999999 2157.5,103.19999999999999 2157.5,102.8 2160.0,102.8 2160.0,102.19999999999999 2162.5,102.19999999999999 2162.5,99.4 2165.0,99.4 2165.0,97.6 2167.5,97.6 2167.5,96.8 2170.0,96.8 2170.0,85.0 2172.5,85.0 2172.5,84.60000000000001 2175.0,84.60000000000001 2175.0,83.6 2177.5,83.6 2177.5,73.8 2180.0,73.8 2180.0,67.8 2182.5,67.8 2182.5,63.6 2185.0,63.6 2185.0,59.8 2190.0,59.8 2190.0,58.4 2192.5,58.4 2192.5,55.2 2195.0,55.2 2195.0,55.0" stroke="rgb(0,0,0)" /><text fill="black" x="2035.0" y="125.0">H61</text><polygon fill="rgb(150,150,150)" points="2255.0,55.0 2255.0,54.6 2250.0,54.6 2250.0,53.199999999999996 2247.5,53.199999999999996 2247.5,44.400000000000006 2240.0,44.400000000000006 2240.0,44.400000000000006 2232.5,44.400000000000006 2232.5,53.199999999999996 2230.0,53.199999999999996 2230.0,54.6 2225.0,54.6 2225.0,55.0 2225.0,55.0 2225.0,55.4 2230.0,55.4 2230.0,56.800000000000004 2232.5,56.800000000000004 2232.5,65.6 2240.0,65.6 2240.0,65.6 2247.5,65.6 2247.5,56.800000000000004 2250.0,56.800000000000004 2250.0,55.4 2255.0,55.4 2255.0,55.0" stroke="rgb(0,0,0)" /><text fill="black" x="2225.0" y="85.6">H63</text><polygon fill="rgb(150,150,150)" points="2360.0,55.0 2360.0,54.2 2357.5,54.2 2357.5,53.8 2355.0,53.8 2355.0,53.4 2352.5,53.4 2352.5,44.6 2350.0,44.6 2350.0,40.599999999999994 2347.5,40.599999999999994 2347.5,37.6 2345.0,37.6 2345.0,36.6 2342.5,36.6 2342.5,34.2 2340.0,34.2 2340.0,5.799999999999997 2337.5,5.799999999999997 2337.5,5.399999999999999 2335.0,5.399999999999999 2335.0,5.200000000000003 2332.5,5.200000000000003 2332.5,5.0 2322.5,5.0 2322.5,5.0 2312.5,5.0 2312.5,5.200000000000003 2310.0,5.200000000000003 2310.0,5.399999999999999 2307.5,5.399999999999999 2307.5,5.799999999999997 2305.0,5.799999999999997 2305.0,34.2 2302.5,34.2 2302.5,36.6 2300.0,36.6 2300.0,37.6 2297.5,37.6 2297.5,40.599999999999994 2295.0,40.599999999999994 2295.0,44.6 2292.5,44.6 2292.5,53.4 2290.0,53.4 2290.0,53.8 2287.5,53.8 2287.5,54.2 2285.0,54.2 2285.0,55.0 2285.0,55.0 2285.0,55.8 2287.5,55.8 2287.5,56.2 2290.0,56.2 2290.0,56.6 2292.5,56.6 2292.5,65.4 2295.0,65.4 2295.0,69.4 2297.5,69.4 2297.5,72.4 2300.0,72.4 2300.0,73.4 2302.5,73.4 2302.5,75.8 2305.0,75.8 2305.0,104.2 2307.5,104.2 2307.5,104.6 2310.0,104.6 2310.0,104.8 2312.5,104.8 2312.5,105.0 2322.5,105.0 2322.5,105.0 2332.5,105.0 2332.5,104.8 2335.0,104.8 2335.0,104.6 2337.5,104.6 2337.5,104.2 2340.0,104.2 2340.0,75.8 2342.5,75.8 2342.5,73.4 2345.0,73.4 2345.0,72.4 2347.5,72.4 2347.5,69.4 2350.0,69.4 2350.0,65.4 2352.5,65.4 2352.5,56.6 2355.0,56.6 2355.0,56.2 2357.5,56.2 2357.5,55.8 2360.0,55.8 2360.0,55.0" stroke="rgb(0,0,0)" /><text fill="black" x="2285.0" y="125.0">H65</text><polygon fill="rgb(255,255,150)" points="2400.0,55.0 2400.0,43.2 2397.5,43.2 2397.5,33.4 2395.0,33.4 2395.0,33.4 2392.5,33.4 2392.5,43.2 2390.0,43.2 2390.0,55.0 2390.0,55.0 2390.0,66.8 2392.5,66.8 2392.5,76.6 2395.0,76.6 2395.0,76.6 2397.5,76.6 2397.5,66.8 2400.0,66.8 2400.0,55.0" stroke="rgb(0,0,0)" /><text fill="black" x="2390.0" y="96.6">E66</text><polygon fill="rgb(150,150,150)" points="2450.0,55.0 2450.0,53.4 2447.5,53.4 2447.5,41.6 2440.0,41.6 2440.0,41.6 2432.5,41.6 2432.5,53.4 2430.0,53.4 2430.0,55.0 2430.0,55.0 2430.0,56.6 2432.5,56.6 2432.5,68.4 2440.0,68.4 2440.0,68.4 2447.5,68.4 2447.5,56.6 2450.0,56.6 2450.0,55.0" stroke="rgb(0,0,0)" /><text fill="black" x="2430.0" y="88.4">H67</text><polygon fill="rgb(255,255,150)" points="2490.0,55.0 2490.0,43.2 2487.5,43.2 2487.5,33.4 2485.0,33.4 2485.0,33.4 2482.5,33.4 2482.5,43.2 2480.0,43.2 2480.0,55.0 2480.0,55.0 2480.0,66.8 2482.5,66.8 2482.5,76.6 2485.0,76.6 2485.0,76.6 2487.5,76.6 2487.5,66.8 2490.0,66.8 2490.0,55.0" stroke="rgb(0,0,0)" /><text fill="black" x="2480.0" y="96.6">E69</text><polygon fill="rgb(150,150,150)" points="2715.0,55.0 2715.0,54.8 2707.5,54.8 2707.5,54.4 2702.5,54.4 2702.5,53.8 2700.0,53.8 2700.0,11.399999999999999 2697.5,11.399999999999999 2697.5,9.600000000000001 2695.0,9.600000000000001 2695.0,7.400000000000006 2662.5,7.400000000000006 2662.5,5.799999999999997 2660.0,5.799999999999997 2660.0,5.600000000000001 2617.5,5.600000000000001 2617.5,5.600000000000001 2575.0,5.600000000000001 2575.0,5.799999999999997 2572.5,5.799999999999997 2572.5,7.400000000000006 2540.0,7.400000000000006 2540.0,9.600000000000001 2537.5,9.600000000000001 2537.5,11.399999999999999 2535.0,11.399999999999999 2535.0,53.8 2532.5,53.8 2532.5,54.4 2527.5,54.4 2527.5,54.8 2520.0,54.8 2520.0,55.0 2520.0,55.0 2520.0,55.2 2527.5,55.2 2527.5,55.6 2532.5,55.6 2532.5,56.2 2535.0,56.2 2535.0,98.6 2537.5,98.6 2537.5,100.4 2540.0,100.4 2540.0,102.6 2572.5,102.6 2572.5,104.2 2575.0,104.2 2575.0,104.4 2617.5,104.4 2617.5,104.4 2660.0,104.4 2660.0,104.2 2662.5,104.2 2662.5,102.6 2695.0,102.6 2695.0,100.4 2697.5,100.4 2697.5,98.6 2700.0,98.6 2700.0,56.2 2702.5,56.2 2702.5,55.6 2707.5,55.6 2707.5,55.2 2715.0,55.2 2715.0,55.0" stroke="rgb(0,0,0)" /><text fill="black" x="2520.0" y="124.4">H70</text><polygon fill="rgb(150,150,150)" points="2850.0,55.0 2850.0,54.8 2842.5,54.8 2842.5,54.4 2840.0,54.4 2840.0,53.0 2837.5,53.0 2837.5,52.8 2835.0,52.8 2835.0,35.599999999999994 2832.5,35.599999999999994 2832.5,34.8 2830.0,34.8 2830.0,33.199999999999996 2825.0,33.199999999999996 2825.0,33.0 2822.5,33.0 2822.5,7.600000000000001 2820.0,7.600000000000001 2820.0,6.399999999999999 2817.5,6.399999999999999 2817.5,5.399999999999999 2815.0,5.399999999999999 2815.0,5.200000000000003 2805.0,5.200000000000003 2805.0,5.0 2797.5,5.0 2797.5,5.0 2790.0,5.0 2790.0,5.200000000000003 2780.0,5.200000000000003 2780.0,5.399999999999999 2777.5,5.399999999999999 2777.5,6.399999999999999 2775.0,6.399999999999999 2775.0,7.600000000000001 2772.5,7.600000000000001 2772.5,33.0 2770.0,33.0 2770.0,33.199999999999996 2765.0,33.199999999999996 2765.0,34.8 2762.5,34.8 2762.5,35.599999999999994 2760.0,35.599999999999994 2760.0,52.8 2757.5,52.8 2757.5,53.0 2755.0,53.0 2755.0,54.4 2752.5,54.4 2752.5,54.8 2745.0,54.8 2745.0,55.0 2745.0,55.0 2745.0,55.2 2752.5,55.2 2752.5,55.6 2755.0,55.6 2755.0,57.0 2757.5,57.0 2757.5,57.2 2760.0,57.2 2760.0,74.4 2762.5,74.4 2762.5,75.2 2765.0,75.2 2765.0,76.80000000000001 2770.0,76.80000000000001 2770.0,77.0 2772.5,77.0 2772.5,102.4 2775.0,102.4 2775.0,103.6 2777.5,103.6 2777.5,104.6 2780.0,104.6 2780.0,104.8 2790.0,104.8 2790.0,105.0 2797.5,105.0 2797.5,105.0 2805.0,105.0 2805.0,104.8 2815.0,104.8 2815.0,104.6 2817.5,104.6 2817.5,103.6 2820.0,103.6 2820.0,102.4 2822.5,102.4 2822.5,77.0 2825.0,77.0 2825.0,76.80000000000001 2830.0,76.80000000000001 2830.0,75.2 2832.5,75.2 2832.5,74.4 2835.0,74.4 2835.0,57.2 2837.5,57.2 2837.5,57.0 2840.0,57.0 2840.0,55.6 2842.5,55.6 2842.5,55.2 2850.0,55.2 2850.0,55.0" stroke="rgb(0,0,0)" /><text fill="black" x="2745.0" y="125.0">H72</text><polygon fill="rgb(150,150,150)" points="2920.0,55.0 2920.0,52.8 2917.5,52.8 2917.5,36.2 2915.0,36.2 2915.0,33.8 2910.0,33.8 2910.0,33.599999999999994 2907.5,33.599999999999994 2907.5,33.199999999999996 2900.0,33.199999999999996 2900.0,33.199999999999996 2892.5,33.199999999999996 2892.5,33.599999999999994 2890.0,33.599999999999994 2890.0,33.8 2885.0,33.8 2885.0,36.2 2882.5,36.2 2882.5,52.8 2880.0,52.8 2880.0,55.0 2880.0,55.0 2880.0,57.2 2882.5,57.2 2882.5,73.8 2885.0,73.8 2885.0,76.2 2890.0,76.2 2890.0,76.4 2892.5,76.4 2892.5,76.80000000000001 2900.0,76.80000000000001 2900.0,76.80000000000001 2907.5,76.80000000000001 2907.5,76.4 2910.0,76.4 2910.0,76.2 2915.0,76.2 2915.0,73.8 2917.5,73.8 2917.5,57.2 2920.0,57.2 2920.0,55.0" stroke="rgb(0,0,0)" /><text fill="black" x="2880.0" y="96.8">H74</text><polygon fill="rgb(150,150,150)" points="3030.0,55.0 3030.0,54.6 3027.5,54.6 3027.5,33.199999999999996 3025.0,33.199999999999996 3025.0,7.400000000000006 3020.0,7.400000000000006 3020.0,5.799999999999997 3017.5,5.799999999999997 3017.5,5.399999999999999 3015.0,5.399999999999999 3015.0,5.200000000000003 3010.0,5.200000000000003 3010.0,5.0 2990.0,5.0 2990.0,5.0 2970.0,5.0 2970.0,5.200000000000003 2965.0,5.200000000000003 2965.0,5.399999999999999 2962.5,5.399999999999999 2962.5,5.799999999999997 2960.0,5.799999999999997 2960.0,7.400000000000006 2955.0,7.400000000000006 2955.0,33.199999999999996 2952.5,33.199999999999996 2952.5,54.6 2950.0,54.6 2950.0,55.0 2950.0,55.0 2950.0,55.4 2952.5,55.4 2952.5,76.80000000000001 2955.0,76.80000000000001 2955.0,102.6 2960.0,102.6 2960.0,104.2 2962.5,104.2 2962.5,104.6 2965.0,104.6 2965.0,104.8 2970.0,104.8 2970.0,105.0 2990.0,105.0 2990.0,105.0 3010.0,105.0 3010.0,104.8 3015.0,104.8 3015.0,104.6 3017.5,104.6 3017.5,104.2 3020.0,104.2 3020.0,102.6 3025.0,102.6 3025.0,76.80000000000001 3027.5,76.80000000000001 3027.5,55.4 3030.0,55.4 3030.0,55.0" stroke="rgb(0,0,0)" /><text fill="black" x="2950.0" y="125.0">H75</text><polygon fill="rgb(175,70,70)" points="3075.0,55.0 3075.0,54.8 3070.0,54.8 3070.0,33.4 3067.5,33.4 3067.5,33.4 3065.0,33.4 3065.0,54.8 3060.0,54.8 3060.0,55.0 3060.0,55.0 3060.0,55.2 3065.0,55.2 3065.0,76.6 3067.5,76.6 3067.5,76.6 3070.0,76.6 3070.0,55.2 3075.0,55.2 3075.0,55.0" stroke="rgb(0,0,0)" /><text fill="black" x="3060.0" y="96.6">E78</text><polygon fill="rgb(255,150,150)" points="3140.0,55.0 3140.0,53.8 3137.5,53.8 3137.5,41.8 3135.0,41.8 3135.0,24.400000000000002 3132.5,24.400000000000002 3132.5,16.0 3130.0,16.0 3130.0,13.599999999999994 3127.5,13.599999999999994 3127.5,6.0 3122.5,6.0 3122.5,6.0 3117.5,6.0 3117.5,13.599999999999994 3115.0,13.599999999999994 3115.0,16.0 3112.5,16.0 3112.5,24.400000000000002 3110.0,24.400000000000002 3110.0,41.8 3107.5,41.8 3107.5,53.8 3105.0,53.8 3105.0,55.0 3105.0,55.0 3105.0,56.2 3107.5,56.2 3107.5,68.2 3110.0,68.2 3110.0,85.6 3112.5,85.6 3112.5,94.0 3115.0,94.0 3115.0,96.4 3117.5,96.4 3117.5,104.0 3122.5,104.0 3122.5,104.0 3127.5,104.0 3127.5,96.4 3130.0,96.4 3130.0,94.0 3132.5,94.0 3132.5,85.6 3135.0,85.6 3135.0,68.2 3137.5,68.2 3137.5,56.2 3140.0,56.2 3140.0,55.0" stroke="rgb(0,0,0)" /><text fill="black" x="3105.0" y="124.0">E80</text><polygon fill="rgb(150,150,255)" points="3190.0,55.0 3190.0,54.2 3187.5,54.2 3187.5,8.799999999999997 3185.0,8.799999999999997 3185.0,7.0 3182.5,7.0 3182.5,5.200000000000003 3180.0,5.200000000000003 3180.0,5.200000000000003 3177.5,5.200000000000003 3177.5,7.0 3175.0,7.0 3175.0,8.799999999999997 3172.5,8.799999999999997 3172.5,54.2 3170.0,54.2 3170.0,55.0 3170.0,55.0 3170.0,55.8 3172.5,55.8 3172.5,101.2 3175.0,101.2 3175.0,103.0 3177.5,103.0 3177.5,104.8 3180.0,104.8 3180.0,104.8 3182.5,104.8 3182.5,103.0 3185.0,103.0 3185.0,101.2 3187.5,101.2 3187.5,55.8 3190.0,55.8 3190.0,55.0" stroke="rgb(0,0,0)" /><text fill="black" x="3170.0" y="124.8">E82</text><polygon fill="rgb(150,150,255)" points="3240.0,55.0 3240.0,54.2 3237.5,54.2 3237.5,8.799999999999997 3235.0,8.799999999999997 3235.0,7.0 3232.5,7.0 3232.5,5.200000000000003 3230.0,5.200000000000003 3230.0,5.200000000000003 3227.5,5.200000000000003 3227.5,7.0 3225.0,7.0 3225.0,8.799999999999997 3222.5,8.799999999999997 3222.5,54.2 3220.0,54.2 3220.0,55.0 3220.0,55.0 3220.0,55.8 3222.5,55.8 3222.5,101.2 3225.0,101.2 3225.0,103.0 3227.5,103.0 3227.5,104.8 3230.0,104.8 3230.0,104.8 3232.5,104.8 3232.5,103.0 3235.0,103.0 3235.0,101.2 3237.5,101.2 3237.5,55.8 3240.0,55.8 3240.0,55.0" stroke="rgb(0,0,0)" /><text fill="black" x="3220.0" y="124.8">E84</text><polygon fill="rgb(255,150,150)" points="3300.0,55.0 3300.0,54.4 3297.5,54.4 3297.5,38.6 3295.0,38.6 3295.0,9.199999999999996 3292.5,9.199999999999996 3292.5,5.0 3285.0,5.0 3285.0,5.0 3277.5,5.0 3277.5,9.199999999999996 3275.0,9.199999999999996 3275.0,38.6 3272.5,38.6 3272.5,54.4 3270.0,54.4 3270.0,55.0 3270.0,55.0 3270.0,55.6 3272.5,55.6 3272.5,71.4 3275.0,71.4 3275.0,100.80000000000001 3277.5,100.80000000000001 3277.5,105.0 3285.0,105.0 3285.0,105.0 3292.5,105.0 3292.5,100.80000000000001 3295.0,100.80000000000001 3295.0,71.4 3297.5,71.4 3297.5,55.6 3300.0,55.6 3300.0,55.0" stroke="rgb(0,0,0)" /><text fill="black" x="3270.0" y="125.0">E85</text><polygon fill="rgb(150,150,150)" points="3370.0,55.0 3370.0,54.8 3367.5,54.8 3367.5,53.4 3365.0,53.4 3365.0,5.0 3350.0,5.0 3350.0,5.0 3335.0,5.0 3335.0,53.4 3332.5,53.4 3332.5,54.8 3330.0,54.8 3330.0,55.0 3330.0,55.0 3330.0,55.2 3332.5,55.2 3332.5,56.6 3335.0,56.6 3335.0,105.0 3350.0,105.0 3350.0,105.0 3365.0,105.0 3365.0,56.6 3367.5,56.6 3367.5,55.2 3370.0,55.2 3370.0,55.0" stroke="rgb(0,0,0)" /><text fill="black" x="3330.0" y="125.0">H86</text><polygon fill="rgb(150,150,150)" points="3420.0,55.0 3420.0,12.0 3417.5,12.0 3417.5,6.200000000000003 3410.0,6.200000000000003 3410.0,6.200000000000003 3402.5,6.200000000000003 3402.5,12.0 3400.0,12.0 3400.0,55.0 3400.0,55.0 3400.0,98.0 3402.5,98.0 3402.5,103.8 3410.0,103.8 3410.0,103.8 3417.5,103.8 3417.5,98.0 3420.0,98.0 3420.0,55.0" stroke="rgb(0,0,0)" /><text fill="black" x="3400.0" y="123.8">H87</text><polygon fill="rgb(150,150,150)" points="3480.0,55.0 3480.0,52.0 3475.0,52.0 3475.0,34.8 3472.5,34.8 3472.5,34.599999999999994 3465.0,34.599999999999994 3465.0,34.599999999999994 3457.5,34.599999999999994 3457.5,34.8 3455.0,34.8 3455.0,52.0 3450.0,52.0 3450.0,55.0 3450.0,55.0 3450.0,58.0 3455.0,58.0 3455.0,75.2 3457.5,75.2 3457.5,75.4 3465.0,75.4 3465.0,75.4 3472.5,75.4 3472.5,75.2 3475.0,75.2 3475.0,58.0 3480.0,58.0 3480.0,55.0" stroke="rgb(0,0,0)" /><text fill="black" x="3450.0" y="95.4">H89</text><polygon fill="rgb(150,150,150)" points="3560.0,55.0 3560.0,54.8 3552.5,54.8 3552.5,54.4 3550.0,54.4 3550.0,53.199999999999996 3547.5,53.199999999999996 3547.5,51.6 3545.0,51.6 3545.0,49.2 3542.5,49.2 3542.5,44.6 3535.0,44.6 3535.0,44.6 3527.5,44.6 3527.5,49.2 3525.0,49.2 3525.0,51.6 3522.5,51.6 3522.5,53.199999999999996 3520.0,53.199999999999996 3520.0,54.4 3517.5,54.4 3517.5,54.8 3510.0,54.8 3510.0,55.0 3510.0,55.0 3510.0,55.2 3517.5,55.2 3517.5,55.6 3520.0,55.6 3520.0,56.800000000000004 3522.5,56.800000000000004 3522.5,58.4 3525.0,58.4 3525.0,60.8 3527.5,60.8 3527.5,65.4 3535.0,65.4 3535.0,65.4 3542.5,65.4 3542.5,60.8 3545.0,60.8 3545.0,58.4 3547.5,58.4 3547.5,56.800000000000004 3550.0,56.800000000000004 3550.0,55.6 3552.5,55.6 3552.5,55.2 3560.0,55.2 3560.0,55.0" stroke="rgb(0,0,0)" /><text fill="black" x="3510.0" y="85.4">H94</text><polygon fill="rgb(150,150,150)" points="3610.0,55.0 3610.0,49.8 3607.5,49.8 3607.5,45.0 3600.0,45.0 3600.0,45.0 3592.5,45.0 3592.5,49.8 3590.0,49.8 3590.0,55.0 3590.0,55.0 3590.0,60.2 3592.5,60.2 3592.5,65.0 3600.0,65.0 3600.0,65.0 3607.5,65.0 3607.5,60.2 3610.0,60.2 3610.0,55.0" stroke="rgb(0,0,0)" /><text fill="black" x="3590.0" y="85.0">H97</text><polygon fill="rgb(150,150,150)" points="3655.0,55.0 3655.0,39.8 3647.5,39.8 3647.5,39.8 3640.0,39.8 3640.0,55.0 3640.0,55.0 3640.0,70.2 3647.5,70.2 3647.5,70.2 3655.0,70.2 3655.0,55.0" stroke="rgb(0,0,0)" /><text fill="black" x="3640.0" y="90.2">H98</text><polygon fill="rgb(150,150,150)" points="3790.0,55.0 3790.0,52.599999999999994 3787.5,52.599999999999994 3787.5,50.0 3785.0,50.0 3785.0,27.599999999999998 3782.5,27.599999999999998 3782.5,5.399999999999999 3772.5,5.399999999999999 3772.5,5.0 3737.5,5.0 3737.5,5.0 3702.5,5.0 3702.5,5.399999999999999 3692.5,5.399999999999999 3692.5,27.599999999999998 3690.0,27.599999999999998 3690.0,50.0 3687.5,50.0 3687.5,52.599999999999994 3685.0,52.599999999999994 3685.0,55.0 3685.0,55.0 3685.0,57.400000000000006 3687.5,57.400000000000006 3687.5,60.0 3690.0,60.0 3690.0,82.4 3692.5,82.4 3692.5,104.6 3702.5,104.6 3702.5,105.0 3737.5,105.0 3737.5,105.0 3772.5,105.0 3772.5,104.6 3782.5,104.6 3782.5,82.4 3785.0,82.4 3785.0,60.0 3787.5,60.0 3787.5,57.400000000000006 3790.0,57.400000000000006 3790.0,55.0" stroke="rgb(0,0,0)" /><text fill="black" x="3685.0" y="125.0">H100</text><polygon fill="rgb(150,255,150)" points="3850.0,55.0 3850.0,54.8 3847.5,54.8 3847.5,46.199999999999996 3845.0,46.199999999999996 3845.0,33.4 3842.5,33.4 3842.5,32.800000000000004 3840.0,32.800000000000004 3840.0,32.400000000000006 3837.5,32.400000000000006 3837.5,32.2 3835.0,32.2 3835.0,32.2 3832.5,32.2 3832.5,32.400000000000006 3830.0,32.400000000000006 3830.0,32.800000000000004 3827.5,32.800000000000004 3827.5,33.4 3825.0,33.4 3825.0,46.199999999999996 3822.5,46.199999999999996 3822.5,54.8 3820.0,54.8 3820.0,55.0 3820.0,55.0 3820.0,55.2 3822.5,55.2 3822.5,63.800000000000004 3825.0,63.800000000000004 3825.0,76.6 3827.5,76.6 3827.5,77.19999999999999 3830.0,77.19999999999999 3830.0,77.6 3832.5,77.6 3832.5,77.8 3835.0,77.8 3835.0,77.8 3837.5,77.8 3837.5,77.6 3840.0,77.6 3840.0,77.19999999999999 3842.5,77.19999999999999 3842.5,76.6 3845.0,76.6 3845.0,63.800000000000004 3847.5,63.800000000000004 3847.5,55.2 3850.0,55.2 3850.0,55.0" stroke="rgb(0,0,0)" /><text fill="black" x="3820.0" y="97.8">E102</text><polygon fill="rgb(150,150,150)" points="3900.0,55.0 3900.0,54.0 3897.5,54.0 3897.5,36.8 3890.0,36.8 3890.0,36.8 3882.5,36.8 3882.5,54.0 3880.0,54.0 3880.0,55.0 3880.0,55.0 3880.0,56.0 3882.5,56.0 3882.5,73.2 3890.0,73.2 3890.0,73.2 3897.5,73.2 3897.5,56.0 3900.0,56.0 3900.0,55.0" stroke="rgb(0,0,0)" /><text fill="black" x="3880.0" y="93.2">H104</text><polygon fill="rgb(150,255,255)" points="3950.0,55.0 3950.0,53.8 3947.5,53.8 3947.5,43.2 3945.0,43.2 3945.0,22.6 3942.5,22.6 3942.5,7.800000000000004 3940.0,7.800000000000004 3940.0,7.800000000000004 3937.5,7.800000000000004 3937.5,22.6 3935.0,22.6 3935.0,43.2 3932.5,43.2 3932.5,53.8 3930.0,53.8 3930.0,55.0 3930.0,55.0 3930.0,56.2 3932.5,56.2 3932.5,66.8 3935.0,66.8 3935.0,87.4 3937.5,87.4 3937.5,102.19999999999999 3940.0,102.19999999999999 3940.0,102.19999999999999 3942.5,102.19999999999999 3942.5,87.4 3945.0,87.4 3945.0,66.8 3947.5,66.8 3947.5,56.2 3950.0,56.2 3950.0,55.0" stroke="rgb(0,0,0)" /><text fill="black" x="3930.0" y="122.19999999999999">E106</text><polygon fill="rgb(175,70,70)" points="4010.0,55.0 4010.0,54.6 4002.5,54.6 4002.5,54.4 3997.5,54.4 3997.5,33.0 3995.0,33.0 3995.0,33.0 3992.5,33.0 3992.5,54.4 3987.5,54.4 3987.5,54.6 3980.0,54.6 3980.0,55.0 3980.0,55.0 3980.0,55.4 3987.5,55.4 3987.5,55.6 3992.5,55.6 3992.5,77.0 3995.0,77.0 3995.0,77.0 3997.5,77.0 3997.5,55.6 4002.5,55.6 4002.5,55.4 4010.0,55.4 4010.0,55.0" stroke="rgb(0,0,0)" /><text fill="black" x="3980.0" y="97.0">E110</text><polygon fill="rgb(150,255,255)" points="4060.0,55.0 4060.0,53.4 4057.5,53.4 4057.5,39.4 4055.0,39.4 4055.0,22.6 4052.5,22.6 4052.5,7.800000000000004 4050.0,7.800000000000004 4050.0,7.800000000000004 4047.5,7.800000000000004 4047.5,22.6 4045.0,22.6 4045.0,39.4 4042.5,39.4 4042.5,53.4 4040.0,53.4 4040.0,55.0 4040.0,55.0 4040.0,56.6 4042.5,56.6 4042.5,70.60000000000001 4045.0,70.60000000000001 4045.0,87.4 4047.5,87.4 4047.5,102.19999999999999 4050.0,102.19999999999999 4050.0,102.19999999999999 4052.5,102.19999999999999 4052.5,87.4 4055.0,87.4 4055.0,70.60000000000001 4057.5,70.60000000000001 4057.5,56.6 4060.0,56.6 4060.0,55.0" stroke="rgb(0,0,0)" /><text fill="black" x="4040.0" y="122.19999999999999">E111</text><polygon fill="rgb(255,150,255)" points="4140.0,55.0 4140.0,54.6 4137.5,54.6 4137.5,54.4 4130.0,54.4 4130.0,53.6 4127.5,53.6 4127.5,53.0 4125.0,53.0 4125.0,52.0 4122.5,52.0 4122.5,28.0 4120.0,28.0 4120.0,19.200000000000003 4117.5,19.200000000000003 4117.5,15.799999999999997 4115.0,15.799999999999997 4115.0,15.799999999999997 4112.5,15.799999999999997 4112.5,19.200000000000003 4110.0,19.200000000000003 4110.0,28.0 4107.5,28.0 4107.5,52.0 4105.0,52.0 4105.0,53.0 4102.5,53.0 4102.5,53.6 4100.0,53.6 4100.0,54.4 4092.5,54.4 4092.5,54.6 4090.0,54.6 4090.0,55.0 4090.0,55.0 4090.0,55.4 4092.5,55.4 4092.5,55.6 4100.0,55.6 4100.0,56.4 4102.5,56.4 4102.5,57.0 4105.0,57.0 4105.0,58.0 4107.5,58.0 4107.5,82.0 4110.0,82.0 4110.0,90.8 4112.5,90.8 4112.5,94.2 4115.0,94.2 4115.0,94.2 4117.5,94.2 4117.5,90.8 4120.0,90.8 4120.0,82.0 4122.5,82.0 4122.5,58.0 4125.0,58.0 4125.0,57.0 4127.5,57.0 4127.5,56.4 4130.0,56.4 4130.0,55.6 4137.5,55.6 4137.5,55.4 4140.0,55.4 4140.0,55.0" stroke="rgb(0,0,0)" /><text fill="black" x="4090.0" y="114.2">E113</text><polygon fill="rgb(150,255,150)" points="4200.0,55.0 4200.0,48.4 4197.5,48.4 4197.5,44.400000000000006 4195.0,44.400000000000006 4195.0,33.199999999999996 4192.5,33.199999999999996 4192.5,32.800000000000004 4190.0,32.800000000000004 4190.0,32.400000000000006 4187.5,32.400000000000006 4187.5,32.2 4185.0,32.2 4185.0,32.2 4182.5,32.2 4182.5,32.400000000000006 4180.0,32.400000000000006 4180.0,32.800000000000004 4177.5,32.800000000000004 4177.5,33.199999999999996 4175.0,33.199999999999996 4175.0,44.400000000000006 4172.5,44.400000000000006 4172.5,48.4 4170.0,48.4 4170.0,55.0 4170.0,55.0 4170.0,61.6 4172.5,61.6 4172.5,65.6 4175.0,65.6 4175.0,76.80000000000001 4177.5,76.80000000000001 4177.5,77.19999999999999 4180.0,77.19999999999999 4180.0,77.6 4182.5,77.6 4182.5,77.8 4185.0,77.8 4185.0,77.8 4187.5,77.8 4187.5,77.6 4190.0,77.6 4190.0,77.19999999999999 4192.5,77.19999999999999 4192.5,76.80000000000001 4195.0,76.80000000000001 4195.0,65.6 4197.5,65.6 4197.5,61.6 4200.0,61.6 4200.0,55.0" stroke="rgb(0,0,0)" /><text fill="black" x="4170.0" y="97.8">E114</text><polygon fill="rgb(150,150,150)" points="4285.0,55.0 4285.0,54.8 4277.5,54.8 4277.5,54.6 4272.5,54.6 4272.5,54.4 4265.0,54.4 4265.0,44.800000000000004 4257.5,44.800000000000004 4257.5,44.800000000000004 4250.0,44.800000000000004 4250.0,54.4 4242.5,54.4 4242.5,54.6 4237.5,54.6 4237.5,54.8 4230.0,54.8 4230.0,55.0 4230.0,55.0 4230.0,55.2 4237.5,55.2 4237.5,55.4 4242.5,55.4 4242.5,55.6 4250.0,55.6 4250.0,65.2 4257.5,65.2 4257.5,65.2 4265.0,65.2 4265.0,55.6 4272.5,55.6 4272.5,55.4 4277.5,55.4 4277.5,55.2 4285.0,55.2 4285.0,55.0" stroke="rgb(0,0,0)" /><text fill="black" x="4230.0" y="85.2">H115</text><path d="M 65.0,55.0 a 551.1363636363636,551.1363636363636 0 0,0 480.0,-0.0" stroke="rgb(255,150,150)" stroke-width="2" /><path d="M 65.0,55.0 a 551.1363636363636,551.1363636363636 0 0,0 480.0,-0.0" stroke="rgb(0,0,0)" stroke-width="0.2" /><path d="M 545.0,55.0 a 1096.1426991150445,1096.1426991150445 0 0,0 -385.0,-0.0" stroke="rgb(255,150,150)" stroke-width="2" /><path d="M 545.0,55.0 a 1096.1426991150445,1096.1426991150445 0 0,0 -385.0,-0.0" stroke="rgb(0,0,0)" stroke-width="0.2" /><path d="M 607.5,55.0 a 132.62003265270852,132.62003265270852 0 0,0 -62.5,-0.0" stroke="rgb(255,150,150)" stroke-width="2" /><path d="M 607.5,55.0 a 132.62003265270852,132.62003265270852 0 0,0 -62.5,-0.0" stroke="rgb(0,0,0)" stroke-width="0.2" /><path d="M 607.5,55.0 a 16320.696022727272,16320.696022727272 0 0,0 2677.5,-0.0" stroke="rgb(255,150,150)" stroke-width="2" /><path d="M 607.5,55.0 a 16320.696022727272,16320.696022727272 0 0,0 2677.5,-0.0" stroke="rgb(0,0,0)" stroke-width="0.2" /><path d="M 3122.5,55.0 a 16745.572514976167,16745.572514976167 0 0,0 -2317.5,-0.0" stroke="rgb(255,150,150)" stroke-width="2" /><path d="M 3122.5,55.0 a 16745.572514976167,16745.572514976167 0 0,0 -2317.5,-0.0" stroke="rgb(0,0,0)" stroke-width="0.2" /><path d="M 4115.0,55.0 a 20557.71702684579,20557.71702684579 0 0,0 -2607.5,-0.0" stroke="rgb(255,150,255)" stroke-width="2" /><path d="M 4115.0,55.0 a 20557.71702684579,20557.71702684579 0 0,0 -2607.5,-0.0" stroke="rgb(0,0,0)" stroke-width="0.2" /><path d="M 2485.0,55.0 a 196.5198504027618,196.5198504027618 0 0,0 -90.0,-0.0" stroke="rgb(255,255,150)" stroke-width="2" /><path d="M 2485.0,55.0 a 196.5198504027618,196.5198504027618 0 0,0 -90.0,-0.0" stroke="rgb(0,0,0)" stroke-width="0.2" /><path d="M 3995.0,55.0 a 3778.0380551347976,3778.0380551347976 0 0,0 -927.5,-0.0" stroke="rgb(175,70,70)" stroke-width="2" /><path d="M 3995.0,55.0 a 3778.0380551347976,3778.0380551347976 0 0,0 -927.5,-0.0" stroke="rgb(0,0,0)" stroke-width="0.2" /><path d="M 3285.0,55.0 a 381.26818543717434,381.26818543717434 0 0,0 -162.5,-0.0" stroke="rgb(255,150,150)" stroke-width="2" /><path d="M 3285.0,55.0 a 381.26818543717434,381.26818543717434 0 0,0 -162.5,-0.0" stroke="rgb(0,0,0)" stroke-width="0.2" /><path d="M 3230.0,55.0 a 104.69613536243493,104.69613536243493 0 0,0 -50.0,-0.0" stroke="rgb(150,150,255)" stroke-width="2" /><path d="M 3230.0,55.0 a 104.69613536243493,104.69613536243493 0 0,0 -50.0,-0.0" stroke="rgb(0,0,0)" stroke-width="0.2" /><path d="M 4185.0,55.0 a 968.8768061408791,968.8768061408791 0 0,0 -350.0,-0.0" stroke="rgb(150,255,150)" stroke-width="2" /><path d="M 4185.0,55.0 a 968.8768061408791,968.8768061408791 0 0,0 -350.0,-0.0" stroke="rgb(0,0,0)" stroke-width="0.2" /><path d="M 4050.0,55.0 a 245.125,245.125 0 0,0 -110.0,-0.0" stroke="rgb(150,255,255)" stroke-width="2" /><path d="M 4050.0,55.0 a 245.125,245.125 0 0,0 -110.0,-0.0" stroke="rgb(0,0,0)" stroke-width="0.2" /></svg>