<?xml version="1.0" encoding="utf-8" ?>
<svg baseProfile="full" height="100%" style="font-size:14;font-family:Sans, Arial;stroke-width:1;fill:none" version="1.1" width="100%" xmlns="http://www.w3.org/2000/svg" xmlns:ev="http://www.w3.org/2001/xml-events" xmlns:xlink="http://www.w3.org/1999/xlink"><defs /><rect fill="none" height="300.0" stroke="none" width="4568.084099999998" x="0" y="0" /><line stroke="rgb(0,0,0)" x1="5.0" x2="15.55555" y1="150.0" y2="150.0" /><line stroke="rgb(0,0,0)" x1="15.55555" x2="25.55555" y1="150.0" y2="150.0" /><line stroke="rgb(0,0,0)" x1="25.55555" x2="30.55555" y1="150.0" y2="150.0" /><line stroke="rgb(0,0,0)" x1="30.55555" x2="57.00715000000001" y1="150.0" y2="150.0" /><line stroke="rgb(0,0,0)" x1="57.00715000000001" x2="67.00715000000001" y1="150.0" y2="150.0" /><line stroke="rgb(0,0,0)" x1="67.00715000000001" x2="72.00715000000001" y1="150.0" y2="150.0" /><line stroke="rgb(0,0,0)" x1="72.00715000000001" x2="92.00715000000001" y1="150.0" y2="150.0" /><line stroke="rgb(0,0,0)" x1="92.00715000000001" x2="102.00715000000001" y1="150.0" y2="150.0" /><line stroke="rgb(0,0,0)" x1="102.00715000000001" x2="107.00715000000001" y1="150.0" y2="150.0" /><line stroke="rgb(0,0,0)" x1="107.00715000000001" x2="118.58195" y1="150.0" y2="150.0" /><line stroke="rgb(0,0,0)" x1="118.58195" x2="128.58195" y1="150.0" y2="150.0" /><line stroke="rgb(0,0,0)" x1="128.58195" x2="133.58195" y1="150.0" y2="150.0" /><line stroke="rgb(0,0,0)" x1="133.58195" x2="143.6956" y1="150.0" y2="150.0" /><line stroke="rgb(0,0,0)" x1="143.6956" x2="153.6956" y1="150.0" y2="150.0" /><line stroke="rgb(0,0,0)" x1="153.6956" x2="158.6956" y1="150.0" y2="150.0" /><line stroke="rgb(0,0,0)" x1="158.6956" x2="178.6956" y1="150.0" y2="150.0" /><line stroke="rgb(0,0,0)" x1="178.6956" x2="188.6956" y1="150.0" y2="150.0" /><line stroke="rgb(0,0,0)" x1="188.6956" x2="193.6956" y1="150.0" y2="150.0" /><line stroke="rgb(0,0,0)" x1="193.6956" x2="203.79365" y1="150.0" y2="150.0" /><line stroke="rgb(0,0,0)" x1="203.79365" x2="213.79365" y1="150.0" y2="150.0" /><line stroke="rgb(0,0,0)" x1="213.79365" x2="218.79365" y1="150.0" y2="150.0" /><line stroke="rgb(0,0,0)" x1="218.79365" x2="251.35774999999998" y1="150.0" y2="150.0" /><line stroke="rgb(0,0,0)" x1="251.35774999999998" x2="261.35775" y1="150.0" y2="150.0" /><line stroke="rgb(0,0,0)" x1="261.35775" x2="266.35775" y1="150.0" y2="150.0" /><line stroke="rgb(0,0,0)" x1="266.35775" x2="276.35775" y1="150.0" y2="150.0" /><line stroke="rgb(0,0,0)" x1="276.35775" x2="286.35775" y1="150.0" y2="150.0" /><line stroke="rgb(0,0,0)" x1="286.35775" x2="291.35775" y1="150.0" y2="150.0" /><line stroke="rgb(0,0,0)" x1="291.35775" x2="312.98425" y1="150.0" y2="150.0" /><line stroke="rgb(0,0,0)" x1="312.98425" x2="322.98425" y1="150.0" y2="75.0" /><line stroke="rgb(0,0,0)" x1="322.98425" x2="327.98425" y1="75.0" y2="75.0" /><line stroke="rgb(0,0,0)" x1="291.35775" x2="312.98425" y1="150.0" y2="150.0" /><line stroke="rgb(0,0,0)" x1="312.98425" x2="322.98425" y1="150.0" y2="225.0" /><line stroke="rgb(0,0,0)" x1="322.98425" x2="327.98425" y1="225.0" y2="225.0" /><line stroke="rgb(0,0,0)" x1="327.98425" x2="340.9842499999999" y1="225.0" y2="225.0" /><line stroke="rgb(0,0,0)" x1="340.9842499999999" x2="362.06319999999994" y1="225.0" y2="150.0" /><line stroke="rgb(0,0,0)" x1="362.06319999999994" x2="367.06319999999994" y1="150.0" y2="150.0" /><line stroke="rgb(0,0,0)" x1="367.06319999999994" x2="379.56319999999994" y1="150.0" y2="150.0" /><line stroke="rgb(0,0,0)" x1="379.56319999999994" x2="389.56319999999994" y1="150.0" y2="150.0" /><line stroke="rgb(0,0,0)" x1="389.56319999999994" x2="394.56319999999994" y1="150.0" y2="150.0" /><line stroke="rgb(0,0,0)" x1="327.98425" x2="352.06319999999994" y1="75.0" y2="75.0" /><line stroke="rgb(0,0,0)" x1="352.06319999999994" x2="389.56319999999994" y1="75.0" y2="150.0" /><line stroke="rgb(0,0,0)" x1="389.56319999999994" x2="394.56319999999994" y1="150.0" y2="150.0" /><line stroke="rgb(0,0,0)" x1="394.56319999999994" x2="454.5031999999999" y1="150.0" y2="150.0" /><line stroke="rgb(0,0,0)" x1="454.5031999999999" x2="464.5031999999999" y1="150.0" y2="150.0" /><line stroke="rgb(0,0,0)" x1="464.5031999999999" x2="469.5031999999999" y1="150.0" y2="150.0" /><line stroke="rgb(0,0,0)" x1="469.5031999999999" x2="489.5031999999999" y1="150.0" y2="150.0" /><line stroke="rgb(0,0,0)" x1="489.5031999999999" x2="499.5031999999999" y1="150.0" y2="150.0" /><line stroke="rgb(0,0,0)" x1="499.5031999999999" x2="504.5031999999999" y1="150.0" y2="150.0" /><line stroke="rgb(0,0,0)" x1="504.5031999999999" x2="534.4228999999999" y1="150.0" y2="150.0" /><line stroke="rgb(0,0,0)" x1="534.4228999999999" x2="544.4228999999999" y1="150.0" y2="75.0" /><line stroke="rgb(0,0,0)" x1="544.4228999999999" x2="549.4228999999999" y1="75.0" y2="75.0" /><line stroke="rgb(0,0,0)" x1="504.5031999999999" x2="534.4228999999999" y1="150.0" y2="150.0" /><line stroke="rgb(0,0,0)" x1="534.4228999999999" x2="544.4228999999999" y1="150.0" y2="225.0" /><line stroke="rgb(0,0,0)" x1="544.4228999999999" x2="549.4228999999999" y1="225.0" y2="225.0" /><line stroke="rgb(0,0,0)" x1="549.4228999999999" x2="569.4228999999999" y1="75.0" y2="75.0" /><line stroke="rgb(0,0,0)" x1="569.4228999999999" x2="579.4228999999999" y1="75.0" y2="75.0" /><line stroke="rgb(0,0,0)" x1="579.4228999999999" x2="584.4228999999999" y1="75.0" y2="75.0" /><line stroke="rgb(0,0,0)" x1="549.4228999999999" x2="559.4228999999999" y1="225.0" y2="225.0" /><line stroke="rgb(0,0,0)" x1="559.4228999999999" x2="579.4228999999999" y1="225.0" y2="225.0" /><line stroke="rgb(0,0,0)" x1="579.4228999999999" x2="584.4228999999999" y1="225.0" y2="225.0" /><line stroke="rgb(0,0,0)" x1="584.4228999999999" x2="604.4228999999999" y1="75.0" y2="75.0" /><line stroke="rgb(0,0,0)" x1="604.4228999999999" x2="614.4228999999999" y1="75.0" y2="150.0" /><line stroke="rgb(0,0,0)" x1="614.4228999999999" x2="619.4228999999999" y1="150.0" y2="150.0" /><line stroke="rgb(0,0,0)" x1="584.4228999999999" x2="594.4228999999999" y1="225.0" y2="225.0" /><line stroke="rgb(0,0,0)" x1="594.4228999999999" x2="614.4228999999999" y1="225.0" y2="150.0" /><line stroke="rgb(0,0,0)" x1="614.4228999999999" x2="619.4228999999999" y1="150.0" y2="150.0" /><line stroke="rgb(0,0,0)" x1="619.4228999999999" x2="649.5628999999999" y1="150.0" y2="150.0" /><line stroke="rgb(0,0,0)" x1="649.5628999999999" x2="659.5628999999999" y1="150.0" y2="150.0" /><line stroke="rgb(0,0,0)" x1="659.5628999999999" x2="664.5628999999999" y1="150.0" y2="150.0" /><line stroke="rgb(0,0,0)" x1="664.5628999999999" x2="687.5628999999999" y1="150.0" y2="150.0" /><line stroke="rgb(0,0,0)" x1="687.5628999999999" x2="697.5628999999999" y1="150.0" y2="150.0" /><line stroke="rgb(0,0,0)" x1="697.5628999999999" x2="702.5628999999999" y1="150.0" y2="150.0" /><line stroke="rgb(0,0,0)" x1="702.5628999999999" x2="754.8721499999999" y1="150.0" y2="150.0" /><line stroke="rgb(0,0,0)" x1="754.8721499999999" x2="764.8721499999999" y1="150.0" y2="150.0" /><line stroke="rgb(0,0,0)" x1="764.8721499999999" x2="769.8721499999999" y1="150.0" y2="150.0" /><line stroke="rgb(0,0,0)" x1="769.8721499999999" x2="793.3240499999999" y1="150.0" y2="150.0" /><line stroke="rgb(0,0,0)" x1="793.3240499999999" x2="803.3240499999999" y1="150.0" y2="150.0" /><line stroke="rgb(0,0,0)" x1="803.3240499999999" x2="808.3240499999999" y1="150.0" y2="150.0" /><line stroke="rgb(0,0,0)" x1="808.3240499999999" x2="818.3240499999999" y1="150.0" y2="150.0" /><line stroke="rgb(0,0,0)" x1="818.3240499999999" x2="828.3240499999999" y1="150.0" y2="150.0" /><line stroke="rgb(0,0,0)" x1="828.3240499999999" x2="833.3240499999999" y1="150.0" y2="150.0" /><line stroke="rgb(0,0,0)" x1="833.3240499999999" x2="849.0173499999999" y1="150.0" y2="150.0" /><line stroke="rgb(0,0,0)" x1="849.0173499999999" x2="859.0173499999999" y1="150.0" y2="75.0" /><line stroke="rgb(0,0,0)" x1="859.0173499999999" x2="864.0173499999999" y1="75.0" y2="75.0" /><line stroke="rgb(0,0,0)" x1="833.3240499999999" x2="849.0173499999999" y1="150.0" y2="150.0" /><line stroke="rgb(0,0,0)" x1="849.0173499999999" x2="859.0173499999999" y1="150.0" y2="225.0" /><line stroke="rgb(0,0,0)" x1="859.0173499999999" x2="864.0173499999999" y1="225.0" y2="225.0" /><line stroke="rgb(0,0,0)" x1="864.0173499999999" x2="869.0173499999999" y1="75.0" y2="75.0" /><line stroke="rgb(0,0,0)" x1="869.0173499999999" x2="899.3592499999999" y1="75.0" y2="150.0" /><line stroke="rgb(0,0,0)" x1="899.3592499999999" x2="904.3592499999999" y1="150.0" y2="150.0" /><line stroke="rgb(0,0,0)" x1="904.3592499999999" x2="909.3592499999999" y1="150.0" y2="150.0" /><line stroke="rgb(0,0,0)" x1="909.3592499999999" x2="919.3592499999999" y1="150.0" y2="150.0" /><line stroke="rgb(0,0,0)" x1="919.3592499999999" x2="924.3592499999999" y1="150.0" y2="150.0" /><line stroke="rgb(0,0,0)" x1="864.0173499999999" x2="889.3592499999999" y1="225.0" y2="225.0" /><line stroke="rgb(0,0,0)" x1="889.3592499999999" x2="919.3592499999999" y1="225.0" y2="150.0" /><line stroke="rgb(0,0,0)" x1="919.3592499999999" x2="924.3592499999999" y1="150.0" y2="150.0" /><line stroke="rgb(0,0,0)" x1="924.3592499999999" x2="957.1370499999998" y1="150.0" y2="150.0" /><line stroke="rgb(0,0,0)" x1="957.1370499999998" x2="967.1370499999998" y1="150.0" y2="150.0" /><line stroke="rgb(0,0,0)" x1="967.1370499999998" x2="972.1370499999998" y1="150.0" y2="150.0" /><line stroke="rgb(0,0,0)" x1="972.1370499999998" x2="1014.0346499999998" y1="150.0" y2="150.0" /><line stroke="rgb(0,0,0)" x1="1014.0346499999998" x2="1024.0346499999998" y1="150.0" y2="75.0" /><line stroke="rgb(0,0,0)" x1="1024.0346499999998" x2="1029.0346499999998" y1="75.0" y2="75.0" /><line stroke="rgb(0,0,0)" x1="972.1370499999998" x2="1014.0346499999998" y1="150.0" y2="150.0" /><line stroke="rgb(0,0,0)" x1="1014.0346499999998" x2="1024.0346499999998" y1="150.0" y2="225.0" /><line stroke="rgb(0,0,0)" x1="1024.0346499999998" x2="1029.0346499999998" y1="225.0" y2="225.0" /><line stroke="rgb(0,0,0)" x1="1029.0346499999998" x2="1034.0346499999998" y1="75.0" y2="75.0" /><line stroke="rgb(0,0,0)" x1="1034.0346499999998" x2="1054.868" y1="75.0" y2="75.0" /><line stroke="rgb(0,0,0)" x1="1054.868" x2="1059.868" y1="75.0" y2="75.0" /><line stroke="rgb(0,0,0)" x1="1029.0346499999998" x2="1044.868" y1="225.0" y2="225.0" /><line stroke="rgb(0,0,0)" x1="1044.868" x2="1054.868" y1="225.0" y2="225.0" /><line stroke="rgb(0,0,0)" x1="1054.868" x2="1059.868" y1="225.0" y2="225.0" /><line stroke="rgb(0,0,0)" x1="1059.868" x2="1089.868" y1="75.0" y2="75.0" /><line stroke="rgb(0,0,0)" x1="1089.868" x2="1099.868" y1="75.0" y2="150.0" /><line stroke="rgb(0,0,0)" x1="1099.868" x2="1104.868" y1="150.0" y2="150.0" /><line stroke="rgb(0,0,0)" x1="1059.868" x2="1070.8055" y1="225.0" y2="225.0" /><line stroke="rgb(0,0,0)" x1="1070.8055" x2="1099.868" y1="225.0" y2="150.0" /><line stroke="rgb(0,0,0)" x1="1099.868" x2="1104.868" y1="150.0" y2="150.0" /><line stroke="rgb(0,0,0)" x1="1104.868" x2="1136.5701499999998" y1="150.0" y2="150.0" /><line stroke="rgb(0,0,0)" x1="1136.5701499999998" x2="1146.5701499999998" y1="150.0" y2="75.0" /><line stroke="rgb(0,0,0)" x1="1146.5701499999998" x2="1151.5701499999998" y1="75.0" y2="75.0" /><line stroke="rgb(0,0,0)" x1="1104.868" x2="1136.5701499999998" y1="150.0" y2="150.0" /><line stroke="rgb(0,0,0)" x1="1136.5701499999998" x2="1146.5701499999998" y1="150.0" y2="225.0" /><line stroke="rgb(0,0,0)" x1="1146.5701499999998" x2="1151.5701499999998" y1="225.0" y2="225.0" /><line stroke="rgb(0,0,0)" x1="1151.5701499999998" x2="1174.2785" y1="75.0" y2="75.0" /><line stroke="rgb(0,0,0)" x1="1174.2785" x2="1184.2785" y1="75.0" y2="150.0" /><line stroke="rgb(0,0,0)" x1="1184.2785" x2="1189.2785" y1="150.0" y2="150.0" /><line stroke="rgb(0,0,0)" x1="1189.2785" x2="1217.61185" y1="150.0" y2="150.0" /><line stroke="rgb(0,0,0)" x1="1217.61185" x2="1227.61185" y1="150.0" y2="150.0" /><line stroke="rgb(0,0,0)" x1="1227.61185" x2="1232.61185" y1="150.0" y2="150.0" /><line stroke="rgb(0,0,0)" x1="1151.5701499999998" x2="1161.5701499999998" y1="225.0" y2="225.0" /><line stroke="rgb(0,0,0)" x1="1161.5701499999998" x2="1227.61185" y1="225.0" y2="150.0" /><line stroke="rgb(0,0,0)" x1="1227.61185" x2="1232.61185" y1="150.0" y2="150.0" /><line stroke="rgb(0,0,0)" x1="1232.61185" x2="1311.39385" y1="150.0" y2="150.0" /><line stroke="rgb(0,0,0)" x1="1311.39385" x2="1321.39385" y1="150.0" y2="75.0" /><line stroke="rgb(0,0,0)" x1="1321.39385" x2="1326.39385" y1="75.0" y2="75.0" /><line stroke="rgb(0,0,0)" x1="1232.61185" x2="1311.39385" y1="150.0" y2="150.0" /><line stroke="rgb(0,0,0)" x1="1311.39385" x2="1321.39385" y1="150.0" y2="225.0" /><line stroke="rgb(0,0,0)" x1="1321.39385" x2="1326.39385" y1="225.0" y2="225.0" /><line stroke="rgb(0,0,0)" x1="1326.39385" x2="1336.39385" y1="75.0" y2="75.0" /><line stroke="rgb(0,0,0)" x1="1336.39385" x2="1368.26885" y1="75.0" y2="150.0" /><line stroke="rgb(0,0,0)" x1="1368.26885" x2="1373.26885" y1="150.0" y2="150.0" /><line stroke="rgb(0,0,0)" x1="1326.39385" x2="1358.26885" y1="225.0" y2="225.0" /><line stroke="rgb(0,0,0)" x1="1358.26885" x2="1368.26885" y1="225.0" y2="150.0" /><line stroke="rgb(0,0,0)" x1="1368.26885" x2="1373.26885" y1="150.0" y2="150.0" /><line stroke="rgb(0,0,0)" x1="1373.26885" x2="1410.0957500000002" y1="150.0" y2="150.0" /><line stroke="rgb(0,0,0)" x1="1410.0957500000002" x2="1420.0957500000002" y1="150.0" y2="150.0" /><line stroke="rgb(0,0,0)" x1="1420.0957500000002" x2="1425.0957500000002" y1="150.0" y2="150.0" /><line stroke="rgb(0,0,0)" x1="1425.0957500000002" x2="1435.0957500000002" y1="150.0" y2="150.0" /><line stroke="rgb(0,0,0)" x1="1435.0957500000002" x2="1445.0957500000002" y1="150.0" y2="150.0" /><line stroke="rgb(0,0,0)" x1="1445.0957500000002" x2="1450.0957500000002" y1="150.0" y2="150.0" /><line stroke="rgb(0,0,0)" x1="1450.0957500000002" x2="1564.95575" y1="150.0" y2="150.0" /><line stroke="rgb(0,0,0)" x1="1564.95575" x2="1574.95575" y1="150.0" y2="150.0" /><line stroke="rgb(0,0,0)" x1="1574.95575" x2="1579.95575" y1="150.0" y2="150.0" /><line stroke="rgb(0,0,0)" x1="1579.95575" x2="1601.7739499999998" y1="150.0" y2="150.0" /><line stroke="rgb(0,0,0)" x1="1601.7739499999998" x2="1611.7739499999998" y1="150.0" y2="150.0" /><line stroke="rgb(0,0,0)" x1="1611.7739499999998" x2="1616.7739499999998" y1="150.0" y2="150.0" /><line stroke="rgb(0,0,0)" x1="1616.7739499999998" x2="1626.7739499999998" y1="150.0" y2="150.0" /><line stroke="rgb(0,0,0)" x1="1626.7739499999998" x2="1636.7739499999998" y1="150.0" y2="150.0" /><line stroke="rgb(0,0,0)" x1="1636.7739499999998" x2="1641.7739499999998" y1="150.0" y2="150.0" /><line stroke="rgb(0,0,0)" x1="1641.7739499999998" x2="1658.4989500000001" y1="150.0" y2="150.0" /><line stroke="rgb(0,0,0)" x1="1658.4989500000001" x2="1668.4989500000001" y1="150.0" y2="150.0" /><line stroke="rgb(0,0,0)" x1="1668.4989500000001" x2="1673.4989500000001" y1="150.0" y2="150.0" /><line stroke="rgb(0,0,0)" x1="1673.4989500000001" x2="1698.4989500000001" y1="150.0" y2="150.0" /><line stroke="rgb(0,0,0)" x1="1698.4989500000001" x2="1708.4989500000001" y1="150.0" y2="150.0" /><line stroke="rgb(0,0,0)" x1="1708.4989500000001" x2="1713.4989500000001" y1="150.0" y2="150.0" /><line stroke="rgb(0,0,0)" x1="1713.4989500000001" x2="1806.93895" y1="150.0" y2="150.0" /><line stroke="rgb(0,0,0)" x1="1806.93895" x2="1816.93895" y1="150.0" y2="75.0" /><line stroke="rgb(0,0,0)" x1="1816.93895" x2="1821.93895" y1="75.0" y2="75.0" /><line stroke="rgb(0,0,0)" x1="1713.4989500000001" x2="1806.93895" y1="150.0" y2="150.0" /><line stroke="rgb(0,0,0)" x1="1806.93895" x2="1816.93895" y1="150.0" y2="225.0" /><line stroke="rgb(0,0,0)" x1="1816.93895" x2="1821.93895" y1="225.0" y2="225.0" /><line stroke="rgb(0,0,0)" x1="1821.93895" x2="1831.93895" y1="75.0" y2="75.0" /><line stroke="rgb(0,0,0)" x1="1831.93895" x2="1856.8787" y1="75.0" y2="150.0" /><line stroke="rgb(0,0,0)" x1="1856.8787" x2="1861.8787" y1="150.0" y2="150.0" /><line stroke="rgb(0,0,0)" x1="1821.93895" x2="1846.8787" y1="225.0" y2="225.0" /><line stroke="rgb(0,0,0)" x1="1846.8787" x2="1856.8787" y1="225.0" y2="150.0" /><line stroke="rgb(0,0,0)" x1="1856.8787" x2="1861.8787" y1="150.0" y2="150.0" /><line stroke="rgb(0,0,0)" x1="1861.8787" x2="1933.6287000000002" y1="150.0" y2="150.0" /><line stroke="rgb(0,0,0)" x1="1933.6287000000002" x2="1943.6287000000002" y1="150.0" y2="150.0" /><line stroke="rgb(0,0,0)" x1="1943.6287000000002" x2="1948.6287000000002" y1="150.0" y2="150.0" /><line stroke="rgb(0,0,0)" x1="1948.6287000000002" x2="2034.1737" y1="150.0" y2="150.0" /><line stroke="rgb(0,0,0)" x1="2034.1737" x2="2044.1737000000003" y1="150.0" y2="150.0" /><line stroke="rgb(0,0,0)" x1="2044.1737000000003" x2="2049.1737000000003" y1="150.0" y2="150.0" /><line stroke="rgb(0,0,0)" x1="2049.1737000000003" x2="2059.1737000000003" y1="150.0" y2="150.0" /><line stroke="rgb(0,0,0)" x1="2059.1737000000003" x2="2069.1737000000003" y1="150.0" y2="75.0" /><line stroke="rgb(0,0,0)" x1="2069.1737000000003" x2="2074.1737000000003" y1="75.0" y2="75.0" /><line stroke="rgb(0,0,0)" x1="2049.1737000000003" x2="2059.1737000000003" y1="150.0" y2="150.0" /><line stroke="rgb(0,0,0)" x1="2059.1737000000003" x2="2069.1737000000003" y1="150.0" y2="225.0" /><line stroke="rgb(0,0,0)" x1="2069.1737000000003" x2="2074.1737000000003" y1="225.0" y2="225.0" /><line stroke="rgb(0,0,0)" x1="2074.1737000000003" x2="2100.9919" y1="75.0" y2="75.0" /><line stroke="rgb(0,0,0)" x1="2100.9919" x2="2110.9919" y1="75.0" y2="150.0" /><line stroke="rgb(0,0,0)" x1="2110.9919" x2="2115.9919" y1="150.0" y2="150.0" /><line stroke="rgb(0,0,0)" x1="2115.9919" x2="2158.1953" y1="150.0" y2="150.0" /><line stroke="rgb(0,0,0)" x1="2158.1953" x2="2168.1953" y1="150.0" y2="150.0" /><line stroke="rgb(0,0,0)" x1="2168.1953" x2="2173.1953" y1="150.0" y2="150.0" /><line stroke="rgb(0,0,0)" x1="2173.1953" x2="2208.1953" y1="150.0" y2="150.0" /><line stroke="rgb(0,0,0)" x1="2208.1953" x2="2218.1953" y1="150.0" y2="150.0" /><line stroke="rgb(0,0,0)" x1="2218.1953" x2="2223.1953" y1="150.0" y2="150.0" /><line stroke="rgb(0,0,0)" x1="2074.1737000000003" x2="2084.1737000000003" y1="225.0" y2="225.0" /><line stroke="rgb(0,0,0)" x1="2084.1737000000003" x2="2218.1953" y1="225.0" y2="150.0" /><line stroke="rgb(0,0,0)" x1="2218.1953" x2="2223.1953" y1="150.0" y2="150.0" /><line stroke="rgb(0,0,0)" x1="2223.1953" x2="2258.9645499999997" y1="150.0" y2="150.0" /><line stroke="rgb(0,0,0)" x1="2258.9645499999997" x2="2268.9645499999997" y1="150.0" y2="150.0" /><line stroke="rgb(0,0,0)" x1="2268.9645499999997" x2="2273.9645499999997" y1="150.0" y2="150.0" /><line stroke="rgb(0,0,0)" x1="2273.9645499999997" x2="2283.9645499999997" y1="150.0" y2="150.0" /><line stroke="rgb(0,0,0)" x1="2283.9645499999997" x2="2293.9645499999997" y1="150.0" y2="150.0" /><line stroke="rgb(0,0,0)" x1="2293.9645499999997" x2="2298.9645499999997" y1="150.0" y2="150.0" /><line stroke="rgb(0,0,0)" x1="2298.9645499999997" x2="2424.9045499999997" y1="150.0" y2="150.0" /><line stroke="rgb(0,0,0)" x1="2424.9045499999997" x2="2434.9045499999997" y1="150.0" y2="150.0" /><line stroke="rgb(0,0,0)" x1="2434.9045499999997" x2="2439.9045499999997" y1="150.0" y2="150.0" /><line stroke="rgb(0,0,0)" x1="2439.9045499999997" x2="2449.9045499999997" y1="150.0" y2="150.0" /><line stroke="rgb(0,0,0)" x1="2449.9045499999997" x2="2459.9045499999997" y1="150.0" y2="150.0" /><line stroke="rgb(0,0,0)" x1="2459.9045499999997" x2="2464.9045499999997" y1="150.0" y2="150.0" /><line stroke="rgb(0,0,0)" x1="2464.9045499999997" x2="2486.1309499999998" y1="150.0" y2="150.0" /><line stroke="rgb(0,0,0)" x1="2486.1309499999998" x2="2496.1309499999998" y1="150.0" y2="150.0" /><line stroke="rgb(0,0,0)" x1="2496.1309499999998" x2="2501.1309499999998" y1="150.0" y2="150.0" /><line stroke="rgb(0,0,0)" x1="2501.1309499999998" x2="2511.1309499999998" y1="150.0" y2="150.0" /><line stroke="rgb(0,0,0)" x1="2511.1309499999998" x2="2521.1309499999998" y1="150.0" y2="150.0" /><line stroke="rgb(0,0,0)" x1="2521.1309499999998" x2="2526.1309499999998" y1="150.0" y2="150.0" /><line stroke="rgb(0,0,0)" x1="2526.1309499999998" x2="2574.4909499999994" y1="150.0" y2="150.0" /><line stroke="rgb(0,0,0)" x1="2574.4909499999994" x2="2584.4909499999994" y1="150.0" y2="150.0" /><line stroke="rgb(0,0,0)" x1="2584.4909499999994" x2="2589.4909499999994" y1="150.0" y2="150.0" /><line stroke="rgb(0,0,0)" x1="2589.4909499999994" x2="2602.2224499999993" y1="150.0" y2="150.0" /><line stroke="rgb(0,0,0)" x1="2602.2224499999993" x2="2612.2224499999993" y1="150.0" y2="150.0" /><line stroke="rgb(0,0,0)" x1="2612.2224499999993" x2="2617.2224499999993" y1="150.0" y2="150.0" /><line stroke="rgb(0,0,0)" x1="2617.2224499999993" x2="2637.8194499999995" y1="150.0" y2="150.0" /><line stroke="rgb(0,0,0)" x1="2637.8194499999995" x2="2647.8194499999995" y1="150.0" y2="75.0" /><line stroke="rgb(0,0,0)" x1="2647.8194499999995" x2="2652.8194499999995" y1="75.0" y2="75.0" /><line stroke="rgb(0,0,0)" x1="2617.2224499999993" x2="2637.8194499999995" y1="150.0" y2="150.0" /><line stroke="rgb(0,0,0)" x1="2637.8194499999995" x2="2647.8194499999995" y1="150.0" y2="225.0" /><line stroke="rgb(0,0,0)" x1="2647.8194499999995" x2="2652.8194499999995" y1="225.0" y2="225.0" /><line stroke="rgb(0,0,0)" x1="2652.8194499999995" x2="2734.0694499999995" y1="75.0" y2="75.0" /><line stroke="rgb(0,0,0)" x1="2734.0694499999995" x2="2744.0694499999995" y1="75.0" y2="150.0" /><line stroke="rgb(0,0,0)" x1="2744.0694499999995" x2="2749.0694499999995" y1="150.0" y2="150.0" /><line stroke="rgb(0,0,0)" x1="2652.8194499999995" x2="2665.5509499999994" y1="225.0" y2="225.0" /><line stroke="rgb(0,0,0)" x1="2665.5509499999994" x2="2744.0694499999995" y1="225.0" y2="150.0" /><line stroke="rgb(0,0,0)" x1="2744.0694499999995" x2="2749.0694499999995" y1="150.0" y2="150.0" /><line stroke="rgb(0,0,0)" x1="2749.0694499999995" x2="2915.9924499999993" y1="150.0" y2="150.0" /><line stroke="rgb(0,0,0)" x1="2915.9924499999993" x2="2925.9924499999993" y1="150.0" y2="150.0" /><line stroke="rgb(0,0,0)" x1="2925.9924499999993" x2="2930.9924499999993" y1="150.0" y2="150.0" /><line stroke="rgb(0,0,0)" x1="2930.9924499999993" x2="2968.3001499999996" y1="150.0" y2="150.0" /><line stroke="rgb(0,0,0)" x1="2968.3001499999996" x2="2978.3001499999996" y1="150.0" y2="150.0" /><line stroke="rgb(0,0,0)" x1="2978.3001499999996" x2="2983.3001499999996" y1="150.0" y2="150.0" /><line stroke="rgb(0,0,0)" x1="2983.3001499999996" x2="3048.840149999999" y1="150.0" y2="150.0" /><line stroke="rgb(0,0,0)" x1="3048.840149999999" x2="3058.840149999999" y1="150.0" y2="150.0" /><line stroke="rgb(0,0,0)" x1="3058.840149999999" x2="3063.840149999999" y1="150.0" y2="150.0" /><line stroke="rgb(0,0,0)" x1="3063.840149999999" x2="3095.090149999999" y1="150.0" y2="150.0" /><line stroke="rgb(0,0,0)" x1="3095.090149999999" x2="3105.090149999999" y1="150.0" y2="150.0" /><line stroke="rgb(0,0,0)" x1="3105.090149999999" x2="3110.090149999999" y1="150.0" y2="150.0" /><line stroke="rgb(0,0,0)" x1="3110.090149999999" x2="3149.5396999999994" y1="150.0" y2="150.0" /><line stroke="rgb(0,0,0)" x1="3149.5396999999994" x2="3159.5396999999994" y1="150.0" y2="150.0" /><line stroke="rgb(0,0,0)" x1="3159.5396999999994" x2="3164.5396999999994" y1="150.0" y2="150.0" /><line stroke="rgb(0,0,0)" x1="3164.5396999999994" x2="3241.1196999999993" y1="150.0" y2="150.0" /><line stroke="rgb(0,0,0)" x1="3241.1196999999993" x2="3251.1196999999993" y1="150.0" y2="150.0" /><line stroke="rgb(0,0,0)" x1="3251.1196999999993" x2="3256.1196999999993" y1="150.0" y2="150.0" /><line stroke="rgb(0,0,0)" x1="3256.1196999999993" x2="3266.1196999999993" y1="150.0" y2="150.0" /><line stroke="rgb(0,0,0)" x1="3266.1196999999993" x2="3276.1196999999993" y1="150.0" y2="75.0" /><line stroke="rgb(0,0,0)" x1="3276.1196999999993" x2="3281.1196999999993" y1="75.0" y2="75.0" /><line stroke="rgb(0,0,0)" x1="3256.1196999999993" x2="3266.1196999999993" y1="150.0" y2="150.0" /><line stroke="rgb(0,0,0)" x1="3266.1196999999993" x2="3276.1196999999993" y1="150.0" y2="225.0" /><line stroke="rgb(0,0,0)" x1="3276.1196999999993" x2="3281.1196999999993" y1="225.0" y2="225.0" /><line stroke="rgb(0,0,0)" x1="3281.1196999999993" x2="3291.2122999999992" y1="225.0" y2="225.0" /><line stroke="rgb(0,0,0)" x1="3291.2122999999992" x2="3314.453049999999" y1="225.0" y2="150.0" /><line stroke="rgb(0,0,0)" x1="3314.453049999999" x2="3319.453049999999" y1="150.0" y2="150.0" /><line stroke="rgb(0,0,0)" x1="3319.453049999999" x2="3329.453049999999" y1="150.0" y2="150.0" /><line stroke="rgb(0,0,0)" x1="3329.453049999999" x2="3339.453049999999" y1="150.0" y2="150.0" /><line stroke="rgb(0,0,0)" x1="3339.453049999999" x2="3344.453049999999" y1="150.0" y2="150.0" /><line stroke="rgb(0,0,0)" x1="3281.1196999999993" x2="3304.453049999999" y1="75.0" y2="75.0" /><line stroke="rgb(0,0,0)" x1="3304.453049999999" x2="3339.453049999999" y1="75.0" y2="150.0" /><line stroke="rgb(0,0,0)" x1="3339.453049999999" x2="3344.453049999999" y1="150.0" y2="150.0" /><line stroke="rgb(0,0,0)" x1="3344.453049999999" x2="3372.248949999999" y1="150.0" y2="150.0" /><line stroke="rgb(0,0,0)" x1="3372.248949999999" x2="3382.248949999999" y1="150.0" y2="150.0" /><line stroke="rgb(0,0,0)" x1="3382.248949999999" x2="3387.248949999999" y1="150.0" y2="150.0" /><line stroke="rgb(0,0,0)" x1="3387.248949999999" x2="3402.248949999999" y1="150.0" y2="150.0" /><line stroke="rgb(0,0,0)" x1="3402.248949999999" x2="3412.248949999999" y1="150.0" y2="150.0" /><line stroke="rgb(0,0,0)" x1="3412.248949999999" x2="3417.248949999999" y1="150.0" y2="150.0" /><line stroke="rgb(0,0,0)" x1="3417.248949999999" x2="3436.787099999999" y1="150.0" y2="150.0" /><line stroke="rgb(0,0,0)" x1="3436.787099999999" x2="3446.787099999999" y1="150.0" y2="150.0" /><line stroke="rgb(0,0,0)" x1="3446.787099999999" x2="3451.787099999999" y1="150.0" y2="150.0" /><line stroke="rgb(0,0,0)" x1="3451.787099999999" x2="3471.787099999999" y1="150.0" y2="150.0" /><line stroke="rgb(0,0,0)" x1="3471.787099999999" x2="3481.787099999999" y1="150.0" y2="150.0" /><line stroke="rgb(0,0,0)" x1="3481.787099999999" x2="3486.787099999999" y1="150.0" y2="150.0" /><line stroke="rgb(0,0,0)" x1="3486.787099999999" x2="3506.3252499999994" y1="150.0" y2="150.0" /><line stroke="rgb(0,0,0)" x1="3506.3252499999994" x2="3516.3252499999994" y1="150.0" y2="150.0" /><line stroke="rgb(0,0,0)" x1="3516.3252499999994" x2="3521.3252499999994" y1="150.0" y2="150.0" /><line stroke="rgb(0,0,0)" x1="3521.3252499999994" x2="3547.605249999999" y1="150.0" y2="150.0" /><line stroke="rgb(0,0,0)" x1="3547.605249999999" x2="3557.605249999999" y1="150.0" y2="150.0" /><line stroke="rgb(0,0,0)" x1="3557.605249999999" x2="3562.605249999999" y1="150.0" y2="150.0" /><line stroke="rgb(0,0,0)" x1="3562.605249999999" x2="3597.785249999999" y1="150.0" y2="150.0" /><line stroke="rgb(0,0,0)" x1="3597.785249999999" x2="3607.785249999999" y1="150.0" y2="150.0" /><line stroke="rgb(0,0,0)" x1="3607.785249999999" x2="3612.785249999999" y1="150.0" y2="150.0" /><line stroke="rgb(0,0,0)" x1="3612.785249999999" x2="3637.190999999999" y1="150.0" y2="150.0" /><line stroke="rgb(0,0,0)" x1="3637.190999999999" x2="3647.190999999999" y1="150.0" y2="150.0" /><line stroke="rgb(0,0,0)" x1="3647.190999999999" x2="3652.190999999999" y1="150.0" y2="150.0" /><line stroke="rgb(0,0,0)" x1="3652.190999999999" x2="3672.190999999999" y1="150.0" y2="150.0" /><line stroke="rgb(0,0,0)" x1="3672.190999999999" x2="3682.190999999999" y1="150.0" y2="150.0" /><line stroke="rgb(0,0,0)" x1="3682.190999999999" x2="3687.190999999999" y1="150.0" y2="150.0" /><line stroke="rgb(0,0,0)" x1="3687.190999999999" x2="3713.612549999999" y1="150.0" y2="150.0" /><line stroke="rgb(0,0,0)" x1="3713.612549999999" x2="3723.612549999999" y1="150.0" y2="75.0" /><line stroke="rgb(0,0,0)" x1="3723.612549999999" x2="3728.612549999999" y1="75.0" y2="75.0" /><line stroke="rgb(0,0,0)" x1="3687.190999999999" x2="3713.612549999999" y1="150.0" y2="150.0" /><line stroke="rgb(0,0,0)" x1="3713.612549999999" x2="3723.612549999999" y1="150.0" y2="225.0" /><line stroke="rgb(0,0,0)" x1="3723.612549999999" x2="3728.612549999999" y1="225.0" y2="225.0" /><line stroke="rgb(0,0,0)" x1="3728.612549999999" x2="3738.612549999999" y1="75.0" y2="75.0" /><line stroke="rgb(0,0,0)" x1="3738.612549999999" x2="3758.612549999999" y1="75.0" y2="150.0" /><line stroke="rgb(0,0,0)" x1="3758.612549999999" x2="3763.612549999999" y1="150.0" y2="150.0" /><line stroke="rgb(0,0,0)" x1="3763.612549999999" x2="3773.612549999999" y1="150.0" y2="150.0" /><line stroke="rgb(0,0,0)" x1="3773.612549999999" x2="3783.612549999999" y1="150.0" y2="75.0" /><line stroke="rgb(0,0,0)" x1="3783.612549999999" x2="3788.612549999999" y1="75.0" y2="75.0" /><line stroke="rgb(0,0,0)" x1="3763.612549999999" x2="3773.612549999999" y1="150.0" y2="150.0" /><line stroke="rgb(0,0,0)" x1="3773.612549999999" x2="3783.612549999999" y1="150.0" y2="225.0" /><line stroke="rgb(0,0,0)" x1="3783.612549999999" x2="3788.612549999999" y1="225.0" y2="225.0" /><line stroke="rgb(0,0,0)" x1="3728.612549999999" x2="3748.612549999999" y1="225.0" y2="225.0" /><line stroke="rgb(0,0,0)" x1="3748.612549999999" x2="3783.612549999999" y1="225.0" y2="225.0" /><line stroke="rgb(0,0,0)" x1="3783.612549999999" x2="3788.612549999999" y1="225.0" y2="225.0" /><line stroke="rgb(0,0,0)" x1="3788.612549999999" x2="3803.612549999999" y1="75.0" y2="75.0" /><line stroke="rgb(0,0,0)" x1="3803.612549999999" x2="3824.4779499999995" y1="75.0" y2="150.0" /><line stroke="rgb(0,0,0)" x1="3824.4779499999995" x2="3829.4779499999995" y1="150.0" y2="150.0" /><line stroke="rgb(0,0,0)" x1="3829.4779499999995" x2="3844.4779499999995" y1="150.0" y2="150.0" /><line stroke="rgb(0,0,0)" x1="3844.4779499999995" x2="3854.4779499999995" y1="150.0" y2="150.0" /><line stroke="rgb(0,0,0)" x1="3854.4779499999995" x2="3859.4779499999995" y1="150.0" y2="150.0" /><line stroke="rgb(0,0,0)" x1="3788.612549999999" x2="3814.4779499999995" y1="225.0" y2="225.0" /><line stroke="rgb(0,0,0)" x1="3814.4779499999995" x2="3854.4779499999995" y1="225.0" y2="150.0" /><line stroke="rgb(0,0,0)" x1="3854.4779499999995" x2="3859.4779499999995" y1="150.0" y2="150.0" /><line stroke="rgb(0,0,0)" x1="3859.4779499999995" x2="3873.477949999999" y1="150.0" y2="150.0" /><line stroke="rgb(0,0,0)" x1="3873.477949999999" x2="3883.477949999999" y1="150.0" y2="150.0" /><line stroke="rgb(0,0,0)" x1="3883.477949999999" x2="3888.477949999999" y1="150.0" y2="150.0" /><line stroke="rgb(0,0,0)" x1="3888.477949999999" x2="3911.077949999999" y1="150.0" y2="150.0" /><line stroke="rgb(0,0,0)" x1="3911.077949999999" x2="3921.077949999999" y1="150.0" y2="150.0" /><line stroke="rgb(0,0,0)" x1="3921.077949999999" x2="3926.077949999999" y1="150.0" y2="150.0" /><line stroke="rgb(0,0,0)" x1="3926.077949999999" x2="3946.077949999999" y1="150.0" y2="150.0" /><line stroke="rgb(0,0,0)" x1="3946.077949999999" x2="3956.077949999999" y1="150.0" y2="150.0" /><line stroke="rgb(0,0,0)" x1="3956.077949999999" x2="3961.077949999999" y1="150.0" y2="150.0" /><line stroke="rgb(0,0,0)" x1="3961.077949999999" x2="3975.077949999999" y1="150.0" y2="150.0" /><line stroke="rgb(0,0,0)" x1="3975.077949999999" x2="3985.077949999999" y1="150.0" y2="150.0" /><line stroke="rgb(0,0,0)" x1="3985.077949999999" x2="3990.077949999999" y1="150.0" y2="150.0" /><line stroke="rgb(0,0,0)" x1="3990.077949999999" x2="4088.3979499999987" y1="150.0" y2="150.0" /><line stroke="rgb(0,0,0)" x1="4088.3979499999987" x2="4098.397949999999" y1="150.0" y2="150.0" /><line stroke="rgb(0,0,0)" x1="4098.397949999999" x2="4103.397949999999" y1="150.0" y2="150.0" /><line stroke="rgb(0,0,0)" x1="4103.397949999999" x2="4133.397949999999" y1="150.0" y2="150.0" /><line stroke="rgb(0,0,0)" x1="4133.397949999999" x2="4143.397949999999" y1="150.0" y2="150.0" /><line stroke="rgb(0,0,0)" x1="4143.397949999999" x2="4148.397949999999" y1="150.0" y2="150.0" /><line stroke="rgb(0,0,0)" x1="4148.397949999999" x2="4174.933049999999" y1="150.0" y2="150.0" /><line stroke="rgb(0,0,0)" x1="4174.933049999999" x2="4184.933049999999" y1="150.0" y2="75.0" /><line stroke="rgb(0,0,0)" x1="4184.933049999999" x2="4189.933049999999" y1="75.0" y2="75.0" /><line stroke="rgb(0,0,0)" x1="4148.397949999999" x2="4174.933049999999" y1="150.0" y2="150.0" /><line stroke="rgb(0,0,0)" x1="4174.933049999999" x2="4184.933049999999" y1="150.0" y2="225.0" /><line stroke="rgb(0,0,0)" x1="4184.933049999999" x2="4189.933049999999" y1="225.0" y2="225.0" /><line stroke="rgb(0,0,0)" x1="4189.933049999999" x2="4199.933049999999" y1="75.0" y2="75.0" /><line stroke="rgb(0,0,0)" x1="4199.933049999999" x2="4220.207799999998" y1="75.0" y2="150.0" /><line stroke="rgb(0,0,0)" x1="4220.207799999998" x2="4225.207799999998" y1="150.0" y2="150.0" /><line stroke="rgb(0,0,0)" x1="4225.207799999998" x2="4235.207799999998" y1="150.0" y2="150.0" /><line stroke="rgb(0,0,0)" x1="4235.207799999998" x2="4245.207799999998" y1="150.0" y2="150.0" /><line stroke="rgb(0,0,0)" x1="4245.207799999998" x2="4250.207799999998" y1="150.0" y2="150.0" /><line stroke="rgb(0,0,0)" x1="4189.933049999999" x2="4210.207799999998" y1="225.0" y2="225.0" /><line stroke="rgb(0,0,0)" x1="4210.207799999998" x2="4245.207799999998" y1="225.0" y2="150.0" /><line stroke="rgb(0,0,0)" x1="4245.207799999998" x2="4250.207799999998" y1="150.0" y2="150.0" /><line stroke="rgb(0,0,0)" x1="4250.207799999998" x2="4265.017099999998" y1="150.0" y2="150.0" /><line stroke="rgb(0,0,0)" x1="4265.017099999998" x2="4275.017099999998" y1="150.0" y2="150.0" /><line stroke="rgb(0,0,0)" x1="4275.017099999998" x2="4280.017099999998" y1="150.0" y2="150.0" /><line stroke="rgb(0,0,0)" x1="4280.017099999998" x2="4300.017099999998" y1="150.0" y2="150.0" /><line stroke="rgb(0,0,0)" x1="4300.017099999998" x2="4310.017099999998" y1="150.0" y2="150.0" /><line stroke="rgb(0,0,0)" x1="4310.017099999998" x2="4315.017099999998" y1="150.0" y2="150.0" /><line stroke="rgb(0,0,0)" x1="4315.017099999998" x2="4335.017099999998" y1="150.0" y2="150.0" /><line stroke="rgb(0,0,0)" x1="4335.017099999998" x2="4345.017099999998" y1="150.0" y2="150.0" /><line stroke="rgb(0,0,0)" x1="4345.017099999998" x2="4350.017099999998" y1="150.0" y2="150.0" /><line stroke="rgb(0,0,0)" x1="4350.017099999998" x2="4360.017099999998" y1="150.0" y2="150.0" /><line stroke="rgb(0,0,0)" x1="4360.017099999998" x2="4370.017099999998" y1="150.0" y2="150.0" /><line stroke="rgb(0,0,0)" x1="4370.017099999998" x2="4375.017099999998" y1="150.0" y2="150.0" /><line stroke="rgb(0,0,0)" x1="4375.017099999998" x2="4385.562549999999" y1="150.0" y2="150.0" /><line stroke="rgb(0,0,0)" x1="4385.562549999999" x2="4395.562549999999" y1="150.0" y2="150.0" /><line stroke="rgb(0,0,0)" x1="4395.562549999999" x2="4400.562549999999" y1="150.0" y2="150.0" /><line stroke="rgb(0,0,0)" x1="4400.562549999999" x2="4415.816799999999" y1="150.0" y2="150.0" /><line stroke="rgb(0,0,0)" x1="4415.816799999999" x2="4425.816799999999" y1="150.0" y2="150.0" /><line stroke="rgb(0,0,0)" x1="4425.816799999999" x2="4430.816799999999" y1="150.0" y2="150.0" /><line stroke="rgb(0,0,0)" x1="4430.816799999999" x2="4454.031099999998" y1="150.0" y2="150.0" /><line stroke="rgb(0,0,0)" x1="4454.031099999998" x2="4464.031099999998" y1="150.0" y2="150.0" /><line stroke="rgb(0,0,0)" x1="4464.031099999998" x2="4469.031099999998" y1="150.0" y2="150.0" /><line stroke="rgb(0,0,0)" x1="4469.031099999998" x2="4488.138249999998" y1="150.0" y2="150.0" /><line stroke="rgb(0,0,0)" x1="4488.138249999998" x2="4498.138249999998" y1="150.0" y2="150.0" /><line stroke="rgb(0,0,0)" x1="4498.138249999998" x2="4503.138249999998" y1="150.0" y2="150.0" /><line stroke="rgb(0,0,0)" x1="4503.138249999998" x2="4531.515449999998" y1="150.0" y2="150.0" /><line stroke="rgb(0,0,0)" x1="4531.515449999998" x2="4541.515449999998" y1="150.0" y2="150.0" /><line stroke="rgb(0,0,0)" x1="4541.515449999998" x2="4546.515449999998" y1="150.0" y2="150.0" /><rect fill="rgb(177,139,255)" height="3.5999999999999996" stroke="rgb(0,0,0)" width="5.55555" x="5.0" y="148.2" /><text fill="black" x="5.0" y="171.8">E0</text><rect fill="rgb(147,115,255)" height="12.4" stroke="rgb(0,0,0)" width="21.451600000000003" x="30.55555" y="143.8" /><text fill="black" x="30.55555" y="176.2">H1</text><rect fill="rgb(115,90,255)" height="22.400000000000002" stroke="rgb(0,0,0)" width="15.0" x="72.00715000000001" y="138.8" /><text fill="black" x="72.00715000000001" y="181.2">H2</text><rect fill="rgb(255,166,212)" height="50.8" stroke="rgb(0,0,0)" width="6.5748" x="107.00715000000001" y="124.6" /><text fill="black" x="107.00715000000001" y="195.4">E3</text><rect fill="rgb(255,178,227)" height="17.599999999999998" stroke="rgb(0,0,0)" width="5.11365" x="133.58195" y="141.2" /><text fill="black" x="133.58195" y="178.8">E4</text><rect fill="rgb(151,119,255)" height="30.0" stroke="rgb(0,0,0)" width="15.0" x="158.6956" y="135.0" /><text fill="black" x="158.6956" y="185.0">H5</text><rect fill="rgb(197,155,255)" height="20.4" stroke="rgb(0,0,0)" width="5.09805" x="193.6956" y="139.8" /><text fill="black" x="193.6956" y="180.2">E6</text><rect fill="rgb(255,149,191)" height="46.800000000000004" stroke="rgb(0,0,0)" width="27.564099999999996" x="218.79365" y="126.6" /><text fill="black" x="218.79365" y="193.4">H7</text><rect fill="rgb(0,0,255)" height="0.4" stroke="rgb(0,0,0)" width="5.0" x="266.35775" y="149.8" /><text fill="black" x="266.35775" y="170.2">E8</text><rect fill="rgb(138,108,255)" height="33.2" stroke="rgb(0,0,0)" width="16.6265" x="291.35775" y="133.4" /><text fill="black" x="291.35775" y="186.6">H9</text><rect fill="rgb(156,123,255)" height="30.4" stroke="rgb(0,0,0)" width="19.07895" x="327.98425" y="59.8" /><text fill="black" x="327.98425" y="110.2">H10</text><rect fill="rgb(140,110,255)" height="2.0" stroke="rgb(0,0,0)" width="8.0" x="327.98425" y="224.0" /><text fill="black" x="327.98425" y="246.0">E11</text><rect fill="rgb(255,135,173)" height="2.4" stroke="rgb(0,0,0)" width="7.5" x="367.06319999999994" y="148.8" /><text fill="black" x="367.06319999999994" y="171.2">E12</text><rect fill="rgb(255,175,224)" height="99.6" stroke="rgb(0,0,0)" width="54.94" x="394.56319999999994" y="100.2" /><text fill="black" x="394.56319999999994" y="219.8">H13</text><rect fill="rgb(192,151,255)" height="3.5999999999999996" stroke="rgb(0,0,0)" width="15.0" x="469.5031999999999" y="148.2" /><text fill="black" x="469.5031999999999" y="171.8">H14</text><rect fill="rgb(142,111,255)" height="99.6" stroke="rgb(0,0,0)" width="24.9197" x="504.5031999999999" y="100.2" /><text fill="black" x="504.5031999999999" y="219.8">E15</text><rect fill="rgb(255,180,230)" height="0.8" stroke="rgb(0,0,0)" width="15.0" x="549.4228999999999" y="74.6" /><text fill="black" x="549.4228999999999" y="95.4">H16</text><rect fill="rgb(24,19,255)" height="4.0" stroke="rgb(0,0,0)" width="5.0" x="549.4228999999999" y="223.0" /><text fill="black" x="549.4228999999999" y="247.0">E17</text><rect fill="rgb(255,135,172)" height="4.3999999999999995" stroke="rgb(0,0,0)" width="15.0" x="584.4228999999999" y="72.8" /><text fill="black" x="584.4228999999999" y="97.2">H18</text><rect fill="rgb(30,23,255)" height="0.8" stroke="rgb(0,0,0)" width="5.0" x="584.4228999999999" y="224.6" /><text fill="black" x="584.4228999999999" y="245.4">E19</text><rect fill="rgb(122,95,255)" height="100.0" stroke="rgb(0,0,0)" width="25.139999999999997" x="619.4228999999999" y="100.0" /><text fill="black" x="619.4228999999999" y="220.0">E20</text><rect fill="rgb(52,41,255)" height="4.0" stroke="rgb(0,0,0)" width="18.0" x="664.5628999999999" y="148.0" /><text fill="black" x="664.5628999999999" y="172.0">H21</text><rect fill="rgb(90,70,255)" height="99.6" stroke="rgb(0,0,0)" width="47.30925" x="702.5628999999999" y="100.2" /><text fill="black" x="702.5628999999999" y="219.8">H22</text><rect fill="rgb(110,86,255)" height="95.6" stroke="rgb(0,0,0)" width="18.451900000000002" x="769.8721499999999" y="102.2" /><text fill="black" x="769.8721499999999" y="217.8">H23</text><rect fill="rgb(4,3,255)" height="1.2" stroke="rgb(0,0,0)" width="5.0" x="808.3240499999999" y="149.4" /><text fill="black" x="808.3240499999999" y="170.6">E24</text><rect fill="rgb(99,78,255)" height="95.19999999999999" stroke="rgb(0,0,0)" width="10.693299999999999" x="833.3240499999999" y="102.4" /><text fill="black" x="833.3240499999999" y="217.6">E25</text><rect fill="rgb(0,0,255)" height="0.0" stroke="rgb(0,0,0)" width="0.0" x="864.0173499999999" y="75.0" /><text fill="black" x="864.0173499999999" y="95.0">X26</text><rect fill="rgb(219,171,255)" height="46.800000000000004" stroke="rgb(0,0,0)" width="20.341900000000003" x="864.0173499999999" y="201.6" /><text fill="black" x="864.0173499999999" y="268.4">H27</text><rect fill="rgb(0,0,255)" height="0.0" stroke="rgb(0,0,0)" width="0.0" x="904.3592499999999" y="150.0" /><text fill="black" x="904.3592499999999" y="170.0">X28</text><rect fill="rgb(255,99,126)" height="3.5999999999999996" stroke="rgb(0,0,0)" width="27.7778" x="924.3592499999999" y="148.2" /><text fill="black" x="924.3592499999999" y="171.8">H29</text><rect fill="rgb(255,190,242)" height="66.4" stroke="rgb(0,0,0)" width="36.897600000000004" x="972.1370499999998" y="116.8" /><text fill="black" x="972.1370499999998" y="203.2">H30</text><rect fill="rgb(0,0,255)" height="0.0" stroke="rgb(0,0,0)" width="0.0" x="1029.0346499999998" y="75.0" /><text fill="black" x="1029.0346499999998" y="95.0">X31</text><rect fill="rgb(255,51,65)" height="2.4" stroke="rgb(0,0,0)" width="10.83335" x="1029.0346499999998" y="223.8" /><text fill="black" x="1029.0346499999998" y="246.2">E32</text><rect fill="rgb(255,20,25)" height="2.4" stroke="rgb(0,0,0)" width="25.0" x="1059.868" y="73.8" /><text fill="black" x="1059.868" y="96.2">H33</text><rect fill="rgb(255,7,9)" height="6.4" stroke="rgb(0,0,0)" width="5.9375" x="1059.868" y="221.8" /><text fill="black" x="1059.868" y="248.2">E34</text><rect fill="rgb(255,186,237)" height="18.8" stroke="rgb(0,0,0)" width="26.702149999999996" x="1104.868" y="140.6" /><text fill="black" x="1104.868" y="179.4">H35</text><rect fill="rgb(145,113,255)" height="86.4" stroke="rgb(0,0,0)" width="17.70835" x="1151.5701499999998" y="31.799999999999997" /><text fill="black" x="1151.5701499999998" y="138.2">H36</text><rect fill="rgb(3,3,255)" height="0.8" stroke="rgb(0,0,0)" width="5.0" x="1151.5701499999998" y="224.6" /><text fill="black" x="1151.5701499999998" y="245.4">E37</text><rect fill="rgb(255,65,83)" height="1.2" stroke="rgb(0,0,0)" width="23.33335" x="1189.2785" y="149.4" /><text fill="black" x="1189.2785" y="170.6">H38</text><rect fill="rgb(159,124,255)" height="93.60000000000001" stroke="rgb(0,0,0)" width="73.782" x="1232.61185" y="103.19999999999999" /><text fill="black" x="1232.61185" y="216.8">H39</text><rect fill="rgb(0,0,255)" height="0.4" stroke="rgb(0,0,0)" width="5.0" x="1326.39385" y="74.8" /><text fill="black" x="1326.39385" y="95.2">E40</text><rect fill="rgb(97,76,255)" height="12.8" stroke="rgb(0,0,0)" width="26.875" x="1326.39385" y="218.6" /><text fill="black" x="1326.39385" y="251.4">H41</text><rect fill="rgb(109,85,255)" height="20.8" stroke="rgb(0,0,0)" width="31.826900000000002" x="1373.26885" y="139.6" /><text fill="black" x="1373.26885" y="180.4">H42</text><rect fill="rgb(0,0,255)" height="0.4" stroke="rgb(0,0,0)" width="5.0" x="1425.0957500000002" y="149.8" /><text fill="black" x="1425.0957500000002" y="170.2">E43</text><rect fill="rgb(255,180,230)" height="100.0" stroke="rgb(0,0,0)" width="109.86000000000001" x="1450.0957500000002" y="100.0" /><text fill="black" x="1450.0957500000002" y="220.0">H44</text><rect fill="rgb(255,115,147)" height="8.799999999999999" stroke="rgb(0,0,0)" width="16.8182" x="1579.95575" y="145.6" /><text fill="black" x="1579.95575" y="174.4">H45</text><rect fill="rgb(1,1,255)" height="2.0" stroke="rgb(0,0,0)" width="5.0" x="1616.7739499999998" y="149.0" /><text fill="black" x="1616.7739499999998" y="171.0">E46</text><rect fill="rgb(69,54,255)" height="80.0" stroke="rgb(0,0,0)" width="11.725000000000001" x="1641.7739499999998" y="110.0" /><text fill="black" x="1641.7739499999998" y="210.0">E47</text><rect fill="rgb(10,8,255)" height="4.8" stroke="rgb(0,0,0)" width="20.0" x="1673.4989500000001" y="147.6" /><text fill="black" x="1673.4989500000001" y="172.4">H48</text><rect fill="rgb(54,42,255)" height="100.0" stroke="rgb(0,0,0)" width="88.44" x="1713.4989500000001" y="100.0" /><text fill="black" x="1713.4989500000001" y="220.0">H49</text><rect fill="rgb(14,11,255)" height="0.8" stroke="rgb(0,0,0)" width="5.0" x="1821.93895" y="74.6" /><text fill="black" x="1821.93895" y="95.4">E50</text><rect fill="rgb(255,73,93)" height="33.2" stroke="rgb(0,0,0)" width="19.93975" x="1821.93895" y="208.4" /><text fill="black" x="1821.93895" y="261.6">H51</text><rect fill="rgb(225,176,255)" height="16.0" stroke="rgb(0,0,0)" width="66.75" x="1861.8787" y="142.0" /><text fill="black" x="1861.8787" y="178.0">H52</text><rect fill="rgb(255,163,207)" height="84.39999999999999" stroke="rgb(0,0,0)" width="80.54500000000002" x="1948.6287000000002" y="107.80000000000001" /><text fill="black" x="1948.6287000000002" y="212.2">H53</text><rect fill="rgb(82,64,255)" height="6.0" stroke="rgb(0,0,0)" width="5.0" x="2049.1737000000003" y="147.0" /><text fill="black" x="2049.1737000000003" y="173.0">E54</text><rect fill="rgb(255,66,85)" height="4.3999999999999995" stroke="rgb(0,0,0)" width="21.8182" x="2074.1737000000003" y="72.8" /><text fill="black" x="2074.1737000000003" y="97.2">H55</text><rect fill="rgb(255,42,54)" height="1.2" stroke="rgb(0,0,0)" width="5.0" x="2074.1737000000003" y="224.4" /><text fill="black" x="2074.1737000000003" y="245.6">E56</text><rect fill="rgb(255,148,189)" height="23.599999999999998" stroke="rgb(0,0,0)" width="37.2034" x="2115.9919" y="138.2" /><text fill="black" x="2115.9919" y="181.8">H57</text><rect fill="rgb(255,86,110)" height="24.4" stroke="rgb(0,0,0)" width="30.0" x="2173.1953" y="137.8" /><text fill="black" x="2173.1953" y="182.2">H58</text><rect fill="rgb(255,27,35)" height="5.2" stroke="rgb(0,0,0)" width="30.76925" x="2223.1953" y="147.4" /><text fill="black" x="2223.1953" y="172.6">H59</text><rect fill="rgb(254,13,17)" height="1.6" stroke="rgb(0,0,0)" width="5.0" x="2273.9645499999997" y="149.2" /><text fill="black" x="2273.9645499999997" y="170.8">E60</text><rect fill="rgb(255,126,161)" height="100.0" stroke="rgb(0,0,0)" width="120.94" x="2298.9645499999997" y="100.0" /><text fill="black" x="2298.9645499999997" y="220.0">H61</text><rect fill="rgb(0,0,255)" height="0.4" stroke="rgb(0,0,0)" width="5.0" x="2439.9045499999997" y="149.8" /><text fill="black" x="2439.9045499999997" y="170.2">E62</text><rect fill="rgb(255,72,91)" height="21.2" stroke="rgb(0,0,0)" width="16.2264" x="2464.9045499999997" y="139.4" /><text fill="black" x="2464.9045499999997" y="180.6">H63</text><rect fill="rgb(254,41,52)" height="1.2" stroke="rgb(0,0,0)" width="5.0" x="2501.1309499999998" y="149.4" /><text fill="black" x="2501.1309499999998" y="170.6">E64</text><rect fill="rgb(198,155,255)" height="100.0" stroke="rgb(0,0,0)" width="43.36" x="2526.1309499999998" y="100.0" /><text fill="black" x="2526.1309499999998" y="220.0">H65</text><rect fill="rgb(215,168,255)" height="43.2" stroke="rgb(0,0,0)" width="7.7315000000000005" x="2589.4909499999994" y="128.4" /><text fill="black" x="2589.4909499999994" y="191.6">E66</text><rect fill="rgb(255,100,127)" height="26.8" stroke="rgb(0,0,0)" width="15.597000000000001" x="2617.2224499999993" y="136.6" /><text fill="black" x="2617.2224499999993" y="183.4">H67</text><rect fill="rgb(77,60,255)" height="4.8" stroke="rgb(0,0,0)" width="76.25" x="2652.8194499999995" y="72.6" /><text fill="black" x="2652.8194499999995" y="97.4">H68</text><rect fill="rgb(237,186,255)" height="43.2" stroke="rgb(0,0,0)" width="7.7315000000000005" x="2652.8194499999995" y="203.4" /><text fill="black" x="2652.8194499999995" y="266.6">E69</text><rect fill="rgb(199,156,255)" height="98.8" stroke="rgb(0,0,0)" width="161.923" x="2749.0694499999995" y="100.6" /><text fill="black" x="2749.0694499999995" y="219.4">H70</text><rect fill="rgb(255,28,36)" height="5.2" stroke="rgb(0,0,0)" width="32.307700000000004" x="2930.9924499999993" y="147.4" /><text fill="black" x="2930.9924499999993" y="172.6">H71</text><rect fill="rgb(224,175,255)" height="100.0" stroke="rgb(0,0,0)" width="60.540000000000006" x="2983.3001499999996" y="100.0" /><text fill="black" x="2983.3001499999996" y="220.0">H72</text><rect fill="rgb(113,88,255)" height="1.6" stroke="rgb(0,0,0)" width="26.25" x="3063.840149999999" y="149.2" /><text fill="black" x="3063.840149999999" y="170.8">H73</text><rect fill="rgb(153,120,255)" height="43.6" stroke="rgb(0,0,0)" width="34.44955" x="3110.090149999999" y="128.2" /><text fill="black" x="3110.090149999999" y="191.8">H74</text><rect fill="rgb(76,60,255)" height="100.0" stroke="rgb(0,0,0)" width="71.58" x="3164.5396999999994" y="100.0" /><text fill="black" x="3164.5396999999994" y="220.0">H75</text><rect fill="rgb(15,11,255)" height="0.8" stroke="rgb(0,0,0)" width="5.0" x="3256.1196999999993" y="149.6" /><text fill="black" x="3256.1196999999993" y="170.4">E76</text><rect fill="rgb(187,147,255)" height="1.2" stroke="rgb(0,0,0)" width="18.33335" x="3281.1196999999993" y="74.4" /><text fill="black" x="3281.1196999999993" y="95.6">H77</text><rect fill="rgb(56,44,255)" height="43.2" stroke="rgb(0,0,0)" width="5.092600000000001" x="3281.1196999999993" y="203.4" /><text fill="black" x="3281.1196999999993" y="266.6">E78</text><rect fill="rgb(255,110,141)" height="3.5999999999999996" stroke="rgb(0,0,0)" width="5.0" x="3319.453049999999" y="148.2" /><text fill="black" x="3319.453049999999" y="171.8">E79</text><rect fill="rgb(174,136,255)" height="98.0" stroke="rgb(0,0,0)" width="22.795899999999996" x="3344.453049999999" y="101.0" /><text fill="black" x="3344.453049999999" y="219.0">E80</text><rect fill="rgb(9,7,255)" height="2.4" stroke="rgb(0,0,0)" width="10.0" x="3387.248949999999" y="148.8" /><text fill="black" x="3387.248949999999" y="171.2">E81</text><rect fill="rgb(123,96,255)" height="99.6" stroke="rgb(0,0,0)" width="14.538150000000002" x="3417.248949999999" y="100.2" /><text fill="black" x="3417.248949999999" y="219.8">E82</text><rect fill="rgb(24,18,255)" height="4.0" stroke="rgb(0,0,0)" width="15.0" x="3451.787099999999" y="148.0" /><text fill="black" x="3451.787099999999" y="172.0">H83</text><rect fill="rgb(119,93,255)" height="99.6" stroke="rgb(0,0,0)" width="14.538150000000002" x="3486.787099999999" y="100.2" /><text fill="black" x="3486.787099999999" y="219.8">E84</text><rect fill="rgb(81,64,255)" height="100.0" stroke="rgb(0,0,0)" width="21.28" x="3521.3252499999994" y="100.0" /><text fill="black" x="3521.3252499999994" y="220.0">E85</text><rect fill="rgb(52,41,255)" height="100.0" stroke="rgb(0,0,0)" width="30.18" x="3562.605249999999" y="100.0" /><text fill="black" x="3562.605249999999" y="220.0">H86</text><rect fill="rgb(77,61,255)" height="97.6" stroke="rgb(0,0,0)" width="19.405749999999998" x="3612.785249999999" y="101.2" /><text fill="black" x="3612.785249999999" y="218.8">H87</text><rect fill="rgb(56,44,255)" height="14.799999999999999" stroke="rgb(0,0,0)" width="15.0" x="3652.190999999999" y="142.6" /><text fill="black" x="3652.190999999999" y="177.4">H88</text><rect fill="rgb(80,62,255)" height="40.8" stroke="rgb(0,0,0)" width="21.421549999999996" x="3687.190999999999" y="129.6" /><text fill="black" x="3687.190999999999" y="190.4">H89</text><rect fill="rgb(26,20,255)" height="14.399999999999999" stroke="rgb(0,0,0)" width="5.0" x="3728.612549999999" y="67.8" /><text fill="black" x="3728.612549999999" y="102.2">E90</text><rect fill="rgb(103,81,255)" height="3.5999999999999996" stroke="rgb(0,0,0)" width="15.0" x="3728.612549999999" y="223.2" /><text fill="black" x="3728.612549999999" y="246.8">H91</text><rect fill="rgb(30,23,255)" height="14.399999999999999" stroke="rgb(0,0,0)" width="5.0" x="3763.612549999999" y="142.8" /><text fill="black" x="3763.612549999999" y="177.2">E92</text><rect fill="rgb(11,8,255)" height="1.2" stroke="rgb(0,0,0)" width="10.0" x="3788.612549999999" y="74.4" /><text fill="black" x="3788.612549999999" y="95.6">E93</text><rect fill="rgb(183,143,255)" height="20.8" stroke="rgb(0,0,0)" width="20.865399999999998" x="3788.612549999999" y="214.6" /><text fill="black" x="3788.612549999999" y="255.4">H94</text><rect fill="rgb(14,11,255)" height="1.2" stroke="rgb(0,0,0)" width="10.0" x="3829.4779499999995" y="149.4" /><text fill="black" x="3829.4779499999995" y="170.6">E95</text><rect fill="rgb(163,128,255)" height="2.0" stroke="rgb(0,0,0)" width="9.0" x="3859.4779499999995" y="149.0" /><text fill="black" x="3859.4779499999995" y="171.0">E96</text><rect fill="rgb(251,196,255)" height="20.0" stroke="rgb(0,0,0)" width="17.6" x="3888.477949999999" y="140.0" /><text fill="black" x="3888.477949999999" y="180.0">H97</text><rect fill="rgb(82,64,255)" height="30.4" stroke="rgb(0,0,0)" width="15.0" x="3926.077949999999" y="134.8" /><text fill="black" x="3926.077949999999" y="185.2">H98</text><rect fill="rgb(255,116,148)" height="2.0" stroke="rgb(0,0,0)" width="9.0" x="3961.077949999999" y="149.0" /><text fill="black" x="3961.077949999999" y="171.0">E99</text><rect fill="rgb(53,42,255)" height="100.0" stroke="rgb(0,0,0)" width="93.32000000000001" x="3990.077949999999" y="100.0" /><text fill="black" x="3990.077949999999" y="220.0">H100</text><rect fill="rgb(0,0,255)" height="0.8" stroke="rgb(0,0,0)" width="25.0" x="4103.397949999999" y="149.6" /><text fill="black" x="4103.397949999999" y="170.4">H101</text><rect fill="rgb(82,64,255)" height="45.6" stroke="rgb(0,0,0)" width="21.5351" x="4148.397949999999" y="127.2" /><text fill="black" x="4148.397949999999" y="192.8">E102</text><rect fill="rgb(0,0,255)" height="0.4" stroke="rgb(0,0,0)" width="5.0" x="4189.933049999999" y="74.8" /><text fill="black" x="4189.933049999999" y="95.2">E103</text><rect fill="rgb(255,172,220)" height="36.4" stroke="rgb(0,0,0)" width="15.27475" x="4189.933049999999" y="206.8" /><text fill="black" x="4189.933049999999" y="263.2">H104</text><rect fill="rgb(0,0,255)" height="0.4" stroke="rgb(0,0,0)" width="5.0" x="4225.207799999998" y="149.8" /><text fill="black" x="4225.207799999998" y="170.2">E105</text><rect fill="rgb(163,127,255)" height="94.39999999999999" stroke="rgb(0,0,0)" width="9.8093" x="4250.207799999998" y="102.80000000000001" /><text fill="black" x="4250.207799999998" y="217.2">E106</text><rect fill="rgb(192,150,255)" height="5.2" stroke="rgb(0,0,0)" width="15.0" x="4280.017099999998" y="147.4" /><text fill="black" x="4280.017099999998" y="172.6">H107</text><rect fill="rgb(62,48,255)" height="3.5999999999999996" stroke="rgb(0,0,0)" width="15.0" x="4315.017099999998" y="148.2" /><text fill="black" x="4315.017099999998" y="171.8">H108</text><rect fill="rgb(28,22,255)" height="5.6000000000000005" stroke="rgb(0,0,0)" width="5.0" x="4350.017099999998" y="147.2" /><text fill="black" x="4350.017099999998" y="172.8">E109</text><rect fill="rgb(81,64,255)" height="44.0" stroke="rgb(0,0,0)" width="5.54545" x="4375.017099999998" y="128.0" /><text fill="black" x="4375.017099999998" y="192.0">E110</text><rect fill="rgb(149,117,255)" height="94.39999999999999" stroke="rgb(0,0,0)" width="10.25425" x="4400.562549999999" y="102.80000000000001" /><text fill="black" x="4400.562549999999" y="217.2">E111</text><rect fill="rgb(186,146,255)" height="5.6000000000000005" stroke="rgb(0,0,0)" width="18.2143" x="4430.816799999999" y="147.2" /><text fill="black" x="4430.816799999999" y="172.8">H112</text><rect fill="rgb(106,83,255)" height="78.4" stroke="rgb(0,0,0)" width="14.107149999999999" x="4469.031099999998" y="110.8" /><text fill="black" x="4469.031099999998" y="209.2">E113</text><rect fill="rgb(147,115,255)" height="45.6" stroke="rgb(0,0,0)" width="23.377200000000002" x="4503.138249999998" y="127.2" /><text fill="black" x="4503.138249999998" y="192.8">E114</text><rect fill="rgb(161,126,255)" height="20.4" stroke="rgb(0,0,0)" width="16.56865" x="4546.515449999998" y="139.8" /><text fill="black" x="4546.515449999998" y="180.2">H115</text><path d="M 7.777775,150.0 a 27650.538823423987,27650.538823423987 0 0,0 3486.2783999999992,-0.0" stroke="rgb(177,139,255)" stroke-width="2" /><path d="M 7.777775,150.0 a 27650.538823423987,27650.538823423987 0 0,0 3486.2783999999992,-0.0" stroke="rgb(0,0,0)" stroke-width="0.2" /><path d="M 110.29455000000002,150.0 a 403.3619747551133,403.3619747551133 0 0,0 406.6684999999998,-0.0" stroke="rgb(255,166,212)" stroke-width="2" /><path d="M 110.29455000000002,150.0 a 403.3619747551133,403.3619747551133 0 0,0 406.6684999999998,-0.0" stroke="rgb(0,0,0)" stroke-width="0.2" /><path d="M 196.244625,150.0 a 134.71212787502802,134.71212787502802 0 0,0 -60.105850000000004,-0.0" stroke="rgb(255,178,227)" stroke-width="2" /><path d="M 196.244625,150.0 a 134.71212787502802,134.71212787502802 0 0,0 -60.105850000000004,-0.0" stroke="rgb(0,0,0)" stroke-width="0.2" /><path d="M 516.9630499999998,150.0 a 906.8591124199409,906.8591124199409 0 0,0 -320.7184249999998,-0.0" stroke="rgb(197,155,255)" stroke-width="2" /><path d="M 516.9630499999998,150.0 a 906.8591124199409,906.8591124199409 0 0,0 -320.7184249999998,-0.0" stroke="rgb(0,0,0)" stroke-width="0.2" /><path d="M 370.81319999999994,150.0 a 238.0860736574155,238.0860736574155 0 0,0 -101.95544999999993,-0.0" stroke="rgb(0,0,255)" stroke-width="2" /><path d="M 370.81319999999994,150.0 a 238.0860736574155,238.0860736574155 0 0,0 -101.95544999999993,-0.0" stroke="rgb(0,0,0)" stroke-width="0.2" /><path d="M 370.81319999999994,150.0 a 193.9006736882195,193.9006736882195 0 0,0 -38.82894999999996,75.0" stroke="rgb(140,110,255)" stroke-width="2" /><path d="M 370.81319999999994,150.0 a 193.9006736882195,193.9006736882195 0 0,0 -38.82894999999996,75.0" stroke="rgb(0,0,0)" stroke-width="0.2" /><path d="M 631.9929,150.0 a 271.995844423421,271.995844423421 0 0,0 -115.02985000000012,-0.0" stroke="rgb(142,111,255)" stroke-width="2" /><path d="M 631.9929,150.0 a 271.995844423421,271.995844423421 0 0,0 -115.02985000000012,-0.0" stroke="rgb(0,0,0)" stroke-width="0.2" /><path d="M 1062.83675,225.0 a 1663.9821917764048,1663.9821917764048 0 0,0 -510.91385,-0.0" stroke="rgb(24,19,255)" stroke-width="2" /><path d="M 1062.83675,225.0 a 1663.9821917764048,1663.9821917764048 0 0,0 -510.91385,-0.0" stroke="rgb(0,0,0)" stroke-width="0.2" /><path d="M 586.9228999999999,225.0 a 482.6856617795011,482.6856617795011 0 0,0 447.52842499999986,-0.0" stroke="rgb(30,23,255)" stroke-width="2" /><path d="M 586.9228999999999,225.0 a 482.6856617795011,482.6856617795011 0 0,0 447.52842499999986,-0.0" stroke="rgb(0,0,0)" stroke-width="0.2" /><path d="M 631.9929,150.0 a 19140.77188810118,19140.77188810118 0 0,0 2899.972349999999,-0.0" stroke="rgb(122,95,255)" stroke-width="2" /><path d="M 631.9929,150.0 a 19140.77188810118,19140.77188810118 0 0,0 2899.972349999999,-0.0" stroke="rgb(0,0,0)" stroke-width="0.2" /><path d="M 810.8240499999999,150.0 a 14748.323127787045,14748.323127787045 0 0,0 2545.0269499999995,-0.0" stroke="rgb(4,3,255)" stroke-width="2" /><path d="M 810.8240499999999,150.0 a 14748.323127787045,14748.323127787045 0 0,0 2545.0269499999995,-0.0" stroke="rgb(0,0,0)" stroke-width="0.2" /><path d="M 3355.850999999999,150.0 a 19647.30161242298,19647.30161242298 0 0,0 -2517.180299999999,-0.0" stroke="rgb(99,78,255)" stroke-width="2" /><path d="M 3355.850999999999,150.0 a 19647.30161242298,19647.30161242298 0 0,0 -2517.180299999999,-0.0" stroke="rgb(0,0,0)" stroke-width="0.2" /><path d="M 3392.248949999999,150.0 a 20142.421661712106,20142.421661712106 0 0,0 -2553.5782499999987,-0.0" stroke="rgb(99,78,255)" stroke-width="2" /><path d="M 3392.248949999999,150.0 a 20142.421661712106,20142.421661712106 0 0,0 -2553.5782499999987,-0.0" stroke="rgb(0,0,0)" stroke-width="0.2" /><path d="M 1062.83675,225.0 a 61.59941884496996,61.59941884496996 0 0,0 -28.38542500000017,-0.0" stroke="rgb(255,51,65)" stroke-width="2" /><path d="M 1062.83675,225.0 a 61.59941884496996,61.59941884496996 0 0,0 -28.38542500000017,-0.0" stroke="rgb(0,0,0)" stroke-width="0.2" /><path d="M 1154.0701499999998,225.0 a 210.85113129651705,210.85113129651705 0 0,0 -91.23339999999985,-0.0" stroke="rgb(255,7,9)" stroke-width="2" /><path d="M 1154.0701499999998,225.0 a 210.85113129651705,210.85113129651705 0 0,0 -91.23339999999985,-0.0" stroke="rgb(0,0,0)" stroke-width="0.2" /><path d="M 1427.5957500000002,150.0 a 295.60969560603246,295.60969560603246 0 0,0 -98.70190000000025,-75.0" stroke="rgb(0,0,255)" stroke-width="2" /><path d="M 1427.5957500000002,150.0 a 295.60969560603246,295.60969560603246 0 0,0 -98.70190000000025,-75.0" stroke="rgb(0,0,0)" stroke-width="0.2" /><path d="M 1647.6364499999997,150.0 a 61.54821153457324,61.54821153457324 0 0,0 -28.362499999999955,-0.0" stroke="rgb(1,1,255)" stroke-width="2" /><path d="M 1647.6364499999997,150.0 a 61.54821153457324,61.54821153457324 0 0,0 -28.362499999999955,-0.0" stroke="rgb(0,0,0)" stroke-width="0.2" /><path d="M 4476.084674999998,150.0 a 24075.870559998406,24075.870559998406 0 0,0 -2828.4482249999983,-0.0" stroke="rgb(69,54,255)" stroke-width="2" /><path d="M 4476.084674999998,150.0 a 24075.870559998406,24075.870559998406 0 0,0 -2828.4482249999983,-0.0" stroke="rgb(0,0,0)" stroke-width="0.2" /><path d="M 2503.6309499999998,150.0 a 2491.8120632765144,2491.8120632765144 0 0,0 -679.1919999999998,-75.0" stroke="rgb(14,11,255)" stroke-width="2" /><path d="M 2503.6309499999998,150.0 a 2491.8120632765144,2491.8120632765144 0 0,0 -679.1919999999998,-75.0" stroke="rgb(0,0,0)" stroke-width="0.2" /><path d="M 4352.517099999998,150.0 a 16828.70570158342,16828.70570158342 0 0,0 -2300.843399999998,-0.0" stroke="rgb(82,64,255)" stroke-width="2" /><path d="M 4352.517099999998,150.0 a 16828.70570158342,16828.70570158342 0 0,0 -2300.843399999998,-0.0" stroke="rgb(0,0,0)" stroke-width="0.2" /><path d="M 2276.4645499999997,150.0 a 551.8233691120811,551.8233691120811 0 0,0 -199.7908499999994,75.0" stroke="rgb(255,42,54)" stroke-width="2" /><path d="M 2276.4645499999997,150.0 a 551.8233691120811,551.8233691120811 0 0,0 -199.7908499999994,75.0" stroke="rgb(0,0,0)" stroke-width="0.2" /><path d="M 2503.6309499999998,150.0 a 137.37749647557914,137.37749647557914 0 0,0 -61.22640000000001,-0.0" stroke="rgb(0,0,255)" stroke-width="2" /><path d="M 2503.6309499999998,150.0 a 137.37749647557914,137.37749647557914 0 0,0 -61.22640000000001,-0.0" stroke="rgb(0,0,0)" stroke-width="0.2" /><path d="M 2656.6851999999994,225.0 a 228.38766040494173,228.38766040494173 0 0,0 -63.328500000000076,-75.0" stroke="rgb(215,168,255)" stroke-width="2" /><path d="M 2656.6851999999994,225.0 a 228.38766040494173,228.38766040494173 0 0,0 -63.328500000000076,-75.0" stroke="rgb(0,0,0)" stroke-width="0.2" /><path d="M 4377.789824999998,150.0 a 5185.673156935447,5185.673156935447 0 0,0 -1119.1701249999987,-0.0" stroke="rgb(15,11,255)" stroke-width="2" /><path d="M 4377.789824999998,150.0 a 5185.673156935447,5185.673156935447 0 0,0 -1119.1701249999987,-0.0" stroke="rgb(0,0,0)" stroke-width="0.2" /><path d="M 4377.789824999998,150.0 a 5025.655864290402,5025.655864290402 0 0,0 -1094.1238249999988,75.0" stroke="rgb(56,44,255)" stroke-width="2" /><path d="M 4377.789824999998,150.0 a 5025.655864290402,5025.655864290402 0 0,0 -1094.1238249999988,75.0" stroke="rgb(0,0,0)" stroke-width="0.2" /><path d="M 3531.9652499999993,150.0 a 541.4485372696954,541.4485372696954 0 0,0 -210.01220000000012,-0.0" stroke="rgb(255,110,141)" stroke-width="2" /><path d="M 3531.9652499999993,150.0 a 541.4485372696954,541.4485372696954 0 0,0 -210.01220000000012,-0.0" stroke="rgb(0,0,0)" stroke-width="0.2" /><path d="M 3531.9652499999993,150.0 a 440.6197325358141,440.6197325358141 0 0,0 -176.11425000000008,-0.0" stroke="rgb(174,136,255)" stroke-width="2" /><path d="M 3531.9652499999993,150.0 a 440.6197325358141,440.6197325358141 0 0,0 -176.11425000000008,-0.0" stroke="rgb(0,0,0)" stroke-width="0.2" /><path d="M 3494.0561749999993,150.0 a 157.3241041852859,157.3241041852859 0 0,0 -69.53815000000031,-0.0" stroke="rgb(123,96,255)" stroke-width="2" /><path d="M 3494.0561749999993,150.0 a 157.3241041852859,157.3241041852859 0 0,0 -69.53815000000031,-0.0" stroke="rgb(0,0,0)" stroke-width="0.2" /><path d="M 3766.112549999999,150.0 a 189.7053103638617,189.7053103638617 0 0,0 -35.0,-75.0" stroke="rgb(26,20,255)" stroke-width="2" /><path d="M 3766.112549999999,150.0 a 189.7053103638617,189.7053103638617 0 0,0 -35.0,-75.0" stroke="rgb(0,0,0)" stroke-width="0.2" /><path d="M 3834.4779499999995,150.0 a 196.27743623398018,196.27743623398018 0 0,0 -40.86540000000059,-75.0" stroke="rgb(11,8,255)" stroke-width="2" /><path d="M 3834.4779499999995,150.0 a 196.27743623398018,196.27743623398018 0 0,0 -40.86540000000059,-75.0" stroke="rgb(0,0,0)" stroke-width="0.2" /><path d="M 3965.577949999999,150.0 a 237.17491444489488,237.17491444489488 0 0,0 -101.59999999999945,-0.0" stroke="rgb(163,128,255)" stroke-width="2" /><path d="M 3965.577949999999,150.0 a 237.17491444489488,237.17491444489488 0 0,0 -101.59999999999945,-0.0" stroke="rgb(0,0,0)" stroke-width="0.2" /><path d="M 4514.826849999999,150.0 a 1033.6902251109368,1033.6902251109368 0 0,0 -355.6613500000003,-0.0" stroke="rgb(82,64,255)" stroke-width="2" /><path d="M 4514.826849999999,150.0 a 1033.6902251109368,1033.6902251109368 0 0,0 -355.6613500000003,-0.0" stroke="rgb(0,0,0)" stroke-width="0.2" /><path d="M 4227.707799999998,150.0 a 189.99417068058608,189.99417068058608 0 0,0 -35.274749999999585,-75.0" stroke="rgb(0,0,255)" stroke-width="2" /><path d="M 4227.707799999998,150.0 a 189.99417068058608,189.99417068058608 0 0,0 -35.274749999999585,-75.0" stroke="rgb(0,0,0)" stroke-width="0.2" /><path d="M 4405.689674999999,150.0 a 368.08060294304704,368.08060294304704 0 0,0 -150.577225,-0.0" stroke="rgb(163,127,255)" stroke-width="2" /><path d="M 4405.689674999999,150.0 a 368.08060294304704,368.08060294304704 0 0,0 -150.577225,-0.0" stroke="rgb(0,0,0)" stroke-width="0.2" /></svg>