<?xml version="1.0" encoding="utf-8" ?>
<svg baseProfile="full" height="100%" style="font-size:14;font-family:Sans, Arial;stroke-width:1;fill:none" version="1.1" width="100%" xmlns="http://www.w3.org/2000/svg" xmlns:ev="http://www.w3.org/2001/xml-events" xmlns:xlink="http://www.w3.org/1999/xlink"><defs /><rect fill="none" height="130.0" stroke="none" width="3427.2547499999982" x="0" y="0" /><line stroke="rgb(0,0,0)" x1="5.0" x2="25.0" y1="55.0" y2="55.0" /><line stroke="rgb(0,0,0)" x1="25.0" x2="45.0" y1="55.0" y2="55.0" /><line stroke="rgb(0,0,0)" x1="45.0" x2="50.0" y1="55.0" y2="55.0" /><line stroke="rgb(0,0,0)" x1="50.0" x2="61.574799999999996" y1="55.0" y2="55.0" /><line stroke="rgb(0,0,0)" x1="61.574799999999996" x2="81.5748" y1="55.0" y2="55.0" /><line stroke="rgb(0,0,0)" x1="81.5748" x2="86.5748" y1="55.0" y2="55.0" /><line stroke="rgb(0,0,0)" x1="86.5748" x2="106.5748" y1="55.0" y2="55.0" /><line stroke="rgb(0,0,0)" x1="106.5748" x2="126.57479999999998" y1="55.0" y2="55.0" /><line stroke="rgb(0,0,0)" x1="126.57479999999998" x2="131.57479999999998" y1="55.0" y2="55.0" /><line stroke="rgb(0,0,0)" x1="131.57479999999998" x2="141.67284999999998" y1="55.0" y2="55.0" /><line stroke="rgb(0,0,0)" x1="141.67284999999998" x2="161.67284999999998" y1="55.0" y2="55.0" /><line stroke="rgb(0,0,0)" x1="161.67284999999998" x2="166.67284999999998" y1="55.0" y2="55.0" /><line stroke="rgb(0,0,0)" x1="166.67284999999998" x2="199.23694999999998" y1="55.0" y2="55.0" /><line stroke="rgb(0,0,0)" x1="199.23694999999998" x2="219.23694999999998" y1="55.0" y2="55.0" /><line stroke="rgb(0,0,0)" x1="219.23694999999998" x2="224.23694999999998" y1="55.0" y2="55.0" /><line stroke="rgb(0,0,0)" x1="224.23694999999998" x2="245.86344999999997" y1="55.0" y2="55.0" /><line stroke="rgb(0,0,0)" x1="245.86344999999997" x2="265.86345" y1="55.0" y2="55.0" /><line stroke="rgb(0,0,0)" x1="265.86345" x2="270.86345" y1="55.0" y2="55.0" /><line stroke="rgb(0,0,0)" x1="270.86345" x2="294.94239999999996" y1="55.0" y2="55.0" /><line stroke="rgb(0,0,0)" x1="294.94239999999996" x2="314.94239999999996" y1="55.0" y2="55.0" /><line stroke="rgb(0,0,0)" x1="314.94239999999996" x2="319.94239999999996" y1="55.0" y2="55.0" /><line stroke="rgb(0,0,0)" x1="319.94239999999996" x2="379.88239999999996" y1="55.0" y2="55.0" /><line stroke="rgb(0,0,0)" x1="379.88239999999996" x2="399.88239999999996" y1="55.0" y2="55.0" /><line stroke="rgb(0,0,0)" x1="399.88239999999996" x2="404.88239999999996" y1="55.0" y2="55.0" /><line stroke="rgb(0,0,0)" x1="404.88239999999996" x2="434.8021" y1="55.0" y2="55.0" /><line stroke="rgb(0,0,0)" x1="434.8021" x2="454.8021" y1="55.0" y2="55.0" /><line stroke="rgb(0,0,0)" x1="454.8021" x2="459.8021" y1="55.0" y2="55.0" /><line stroke="rgb(0,0,0)" x1="459.8021" x2="489.94210000000004" y1="55.0" y2="55.0" /><line stroke="rgb(0,0,0)" x1="489.94210000000004" x2="509.9421" y1="55.0" y2="55.0" /><line stroke="rgb(0,0,0)" x1="509.9421" x2="514.9421" y1="55.0" y2="55.0" /><line stroke="rgb(0,0,0)" x1="514.9421" x2="567.25135" y1="55.0" y2="55.0" /><line stroke="rgb(0,0,0)" x1="567.25135" x2="587.25135" y1="55.0" y2="55.0" /><line stroke="rgb(0,0,0)" x1="587.25135" x2="592.25135" y1="55.0" y2="55.0" /><line stroke="rgb(0,0,0)" x1="592.25135" x2="615.70325" y1="55.0" y2="55.0" /><line stroke="rgb(0,0,0)" x1="615.70325" x2="635.70325" y1="55.0" y2="55.0" /><line stroke="rgb(0,0,0)" x1="635.70325" x2="640.70325" y1="55.0" y2="55.0" /><line stroke="rgb(0,0,0)" x1="640.70325" x2="656.39655" y1="55.0" y2="55.0" /><line stroke="rgb(0,0,0)" x1="656.39655" x2="676.39655" y1="55.0" y2="55.0" /><line stroke="rgb(0,0,0)" x1="676.39655" x2="681.39655" y1="55.0" y2="55.0" /><line stroke="rgb(0,0,0)" x1="681.39655" x2="706.7384500000001" y1="55.0" y2="55.0" /><line stroke="rgb(0,0,0)" x1="706.7384500000001" x2="726.7384500000001" y1="55.0" y2="55.0" /><line stroke="rgb(0,0,0)" x1="726.7384500000001" x2="731.7384500000001" y1="55.0" y2="55.0" /><line stroke="rgb(0,0,0)" x1="731.7384500000001" x2="773.6360500000001" y1="55.0" y2="55.0" /><line stroke="rgb(0,0,0)" x1="773.6360500000001" x2="793.6360500000001" y1="55.0" y2="55.0" /><line stroke="rgb(0,0,0)" x1="793.6360500000001" x2="798.6360500000001" y1="55.0" y2="55.0" /><line stroke="rgb(0,0,0)" x1="798.6360500000001" x2="821.3444000000002" y1="55.0" y2="55.0" /><line stroke="rgb(0,0,0)" x1="821.3444000000002" x2="841.3444000000002" y1="55.0" y2="55.0" /><line stroke="rgb(0,0,0)" x1="841.3444000000002" x2="846.3444000000002" y1="55.0" y2="55.0" /><line stroke="rgb(0,0,0)" x1="846.3444000000002" x2="925.1264000000001" y1="55.0" y2="55.0" /><line stroke="rgb(0,0,0)" x1="925.1264000000001" x2="945.1264000000001" y1="55.0" y2="55.0" /><line stroke="rgb(0,0,0)" x1="945.1264000000001" x2="950.1264000000001" y1="55.0" y2="55.0" /><line stroke="rgb(0,0,0)" x1="950.1264000000001" x2="986.9533" y1="55.0" y2="55.0" /><line stroke="rgb(0,0,0)" x1="986.9533" x2="1006.9533" y1="55.0" y2="55.0" /><line stroke="rgb(0,0,0)" x1="1006.9533" x2="1011.9533" y1="55.0" y2="55.0" /><line stroke="rgb(0,0,0)" x1="1011.9533" x2="1126.8133" y1="55.0" y2="55.0" /><line stroke="rgb(0,0,0)" x1="1126.8133" x2="1146.8133" y1="55.0" y2="55.0" /><line stroke="rgb(0,0,0)" x1="1146.8133" x2="1151.8133" y1="55.0" y2="55.0" /><line stroke="rgb(0,0,0)" x1="1151.8133" x2="1168.5383" y1="55.0" y2="55.0" /><line stroke="rgb(0,0,0)" x1="1168.5383" x2="1188.5383" y1="55.0" y2="55.0" /><line stroke="rgb(0,0,0)" x1="1188.5383" x2="1193.5383" y1="55.0" y2="55.0" /><line stroke="rgb(0,0,0)" x1="1193.5383" x2="1286.9783" y1="55.0" y2="55.0" /><line stroke="rgb(0,0,0)" x1="1286.9783" x2="1306.9783000000002" y1="55.0" y2="55.0" /><line stroke="rgb(0,0,0)" x1="1306.9783000000002" x2="1311.9783000000002" y1="55.0" y2="55.0" /><line stroke="rgb(0,0,0)" x1="1311.9783000000002" x2="1336.9180500000002" y1="55.0" y2="55.0" /><line stroke="rgb(0,0,0)" x1="1336.9180500000002" x2="1356.9180500000002" y1="55.0" y2="55.0" /><line stroke="rgb(0,0,0)" x1="1356.9180500000002" x2="1361.9180500000002" y1="55.0" y2="55.0" /><line stroke="rgb(0,0,0)" x1="1361.9180500000002" x2="1447.46305" y1="55.0" y2="55.0" /><line stroke="rgb(0,0,0)" x1="1447.46305" x2="1467.46305" y1="55.0" y2="55.0" /><line stroke="rgb(0,0,0)" x1="1467.46305" x2="1472.46305" y1="55.0" y2="55.0" /><line stroke="rgb(0,0,0)" x1="1472.46305" x2="1514.66645" y1="55.0" y2="55.0" /><line stroke="rgb(0,0,0)" x1="1514.66645" x2="1534.66645" y1="55.0" y2="55.0" /><line stroke="rgb(0,0,0)" x1="1534.66645" x2="1539.66645" y1="55.0" y2="55.0" /><line stroke="rgb(0,0,0)" x1="1539.66645" x2="1574.66645" y1="55.0" y2="55.0" /><line stroke="rgb(0,0,0)" x1="1574.66645" x2="1594.66645" y1="55.0" y2="55.0" /><line stroke="rgb(0,0,0)" x1="1594.66645" x2="1599.66645" y1="55.0" y2="55.0" /><line stroke="rgb(0,0,0)" x1="1599.66645" x2="1725.60645" y1="55.0" y2="55.0" /><line stroke="rgb(0,0,0)" x1="1725.60645" x2="1745.60645" y1="55.0" y2="55.0" /><line stroke="rgb(0,0,0)" x1="1745.60645" x2="1750.60645" y1="55.0" y2="55.0" /><line stroke="rgb(0,0,0)" x1="1750.60645" x2="1771.8328499999998" y1="55.0" y2="55.0" /><line stroke="rgb(0,0,0)" x1="1771.8328499999998" x2="1791.8328499999998" y1="55.0" y2="55.0" /><line stroke="rgb(0,0,0)" x1="1791.8328499999998" x2="1796.8328499999998" y1="55.0" y2="55.0" /><line stroke="rgb(0,0,0)" x1="1796.8328499999998" x2="1845.19285" y1="55.0" y2="55.0" /><line stroke="rgb(0,0,0)" x1="1845.19285" x2="1865.19285" y1="55.0" y2="55.0" /><line stroke="rgb(0,0,0)" x1="1865.19285" x2="1870.19285" y1="55.0" y2="55.0" /><line stroke="rgb(0,0,0)" x1="1870.19285" x2="1882.9243499999998" y1="55.0" y2="55.0" /><line stroke="rgb(0,0,0)" x1="1882.9243499999998" x2="1902.9243499999998" y1="55.0" y2="55.0" /><line stroke="rgb(0,0,0)" x1="1902.9243499999998" x2="1907.9243499999998" y1="55.0" y2="55.0" /><line stroke="rgb(0,0,0)" x1="1907.9243499999998" x2="1928.5213499999998" y1="55.0" y2="55.0" /><line stroke="rgb(0,0,0)" x1="1928.5213499999998" x2="1948.5213499999998" y1="55.0" y2="55.0" /><line stroke="rgb(0,0,0)" x1="1948.5213499999998" x2="1953.5213499999998" y1="55.0" y2="55.0" /><line stroke="rgb(0,0,0)" x1="1953.5213499999998" x2="1966.2528499999996" y1="55.0" y2="55.0" /><line stroke="rgb(0,0,0)" x1="1966.2528499999996" x2="1986.2528499999996" y1="55.0" y2="55.0" /><line stroke="rgb(0,0,0)" x1="1986.2528499999996" x2="1991.2528499999996" y1="55.0" y2="55.0" /><line stroke="rgb(0,0,0)" x1="1991.2528499999996" x2="2158.1758499999996" y1="55.0" y2="55.0" /><line stroke="rgb(0,0,0)" x1="2158.1758499999996" x2="2178.1758499999996" y1="55.0" y2="55.0" /><line stroke="rgb(0,0,0)" x1="2178.1758499999996" x2="2183.1758499999996" y1="55.0" y2="55.0" /><line stroke="rgb(0,0,0)" x1="2183.1758499999996" x2="2248.7158499999996" y1="55.0" y2="55.0" /><line stroke="rgb(0,0,0)" x1="2248.7158499999996" x2="2268.7158499999996" y1="55.0" y2="55.0" /><line stroke="rgb(0,0,0)" x1="2268.7158499999996" x2="2273.7158499999996" y1="55.0" y2="55.0" /><line stroke="rgb(0,0,0)" x1="2273.7158499999996" x2="2313.1653999999994" y1="55.0" y2="55.0" /><line stroke="rgb(0,0,0)" x1="2313.1653999999994" x2="2333.1653999999994" y1="55.0" y2="55.0" /><line stroke="rgb(0,0,0)" x1="2333.1653999999994" x2="2338.1653999999994" y1="55.0" y2="55.0" /><line stroke="rgb(0,0,0)" x1="2338.1653999999994" x2="2414.7453999999993" y1="55.0" y2="55.0" /><line stroke="rgb(0,0,0)" x1="2414.7453999999993" x2="2434.7453999999993" y1="55.0" y2="55.0" /><line stroke="rgb(0,0,0)" x1="2434.7453999999993" x2="2439.7453999999993" y1="55.0" y2="55.0" /><line stroke="rgb(0,0,0)" x1="2439.7453999999993" x2="2449.8379999999993" y1="55.0" y2="55.0" /><line stroke="rgb(0,0,0)" x1="2449.8379999999993" x2="2469.8379999999993" y1="55.0" y2="55.0" /><line stroke="rgb(0,0,0)" x1="2469.8379999999993" x2="2474.8379999999993" y1="55.0" y2="55.0" /><line stroke="rgb(0,0,0)" x1="2474.8379999999993" x2="2502.6339" y1="55.0" y2="55.0" /><line stroke="rgb(0,0,0)" x1="2502.6339" x2="2522.6339" y1="55.0" y2="55.0" /><line stroke="rgb(0,0,0)" x1="2522.6339" x2="2527.6339" y1="55.0" y2="55.0" /><line stroke="rgb(0,0,0)" x1="2527.6339" x2="2547.1720499999997" y1="55.0" y2="55.0" /><line stroke="rgb(0,0,0)" x1="2547.1720499999997" x2="2567.172049999999" y1="55.0" y2="55.0" /><line stroke="rgb(0,0,0)" x1="2567.172049999999" x2="2572.172049999999" y1="55.0" y2="55.0" /><line stroke="rgb(0,0,0)" x1="2572.172049999999" x2="2591.7101999999995" y1="55.0" y2="55.0" /><line stroke="rgb(0,0,0)" x1="2591.7101999999995" x2="2611.7101999999995" y1="55.0" y2="55.0" /><line stroke="rgb(0,0,0)" x1="2611.7101999999995" x2="2616.7101999999995" y1="55.0" y2="55.0" /><line stroke="rgb(0,0,0)" x1="2616.7101999999995" x2="2642.9901999999993" y1="55.0" y2="55.0" /><line stroke="rgb(0,0,0)" x1="2642.9901999999993" x2="2662.9901999999993" y1="55.0" y2="55.0" /><line stroke="rgb(0,0,0)" x1="2662.9901999999993" x2="2667.9901999999993" y1="55.0" y2="55.0" /><line stroke="rgb(0,0,0)" x1="2667.9901999999993" x2="2703.170199999999" y1="55.0" y2="55.0" /><line stroke="rgb(0,0,0)" x1="2703.170199999999" x2="2723.170199999999" y1="55.0" y2="55.0" /><line stroke="rgb(0,0,0)" x1="2723.170199999999" x2="2728.170199999999" y1="55.0" y2="55.0" /><line stroke="rgb(0,0,0)" x1="2728.170199999999" x2="2752.5759499999995" y1="55.0" y2="55.0" /><line stroke="rgb(0,0,0)" x1="2752.5759499999995" x2="2772.5759499999995" y1="55.0" y2="55.0" /><line stroke="rgb(0,0,0)" x1="2772.5759499999995" x2="2777.5759499999995" y1="55.0" y2="55.0" /><line stroke="rgb(0,0,0)" x1="2777.5759499999995" x2="2803.9974999999995" y1="55.0" y2="55.0" /><line stroke="rgb(0,0,0)" x1="2803.9974999999995" x2="2823.9974999999995" y1="55.0" y2="55.0" /><line stroke="rgb(0,0,0)" x1="2823.9974999999995" x2="2828.9974999999995" y1="55.0" y2="55.0" /><line stroke="rgb(0,0,0)" x1="2828.9974999999995" x2="2854.862899999999" y1="55.0" y2="55.0" /><line stroke="rgb(0,0,0)" x1="2854.862899999999" x2="2874.862899999999" y1="55.0" y2="55.0" /><line stroke="rgb(0,0,0)" x1="2874.862899999999" x2="2879.862899999999" y1="55.0" y2="55.0" /><line stroke="rgb(0,0,0)" x1="2879.862899999999" x2="2902.4628999999995" y1="55.0" y2="55.0" /><line stroke="rgb(0,0,0)" x1="2902.4628999999995" x2="2922.4628999999995" y1="55.0" y2="55.0" /><line stroke="rgb(0,0,0)" x1="2922.4628999999995" x2="2927.4628999999995" y1="55.0" y2="55.0" /><line stroke="rgb(0,0,0)" x1="2927.4628999999995" x2="2947.4628999999995" y1="55.0" y2="55.0" /><line stroke="rgb(0,0,0)" x1="2947.4628999999995" x2="2967.4628999999995" y1="55.0" y2="55.0" /><line stroke="rgb(0,0,0)" x1="2967.4628999999995" x2="2972.4628999999995" y1="55.0" y2="55.0" /><line stroke="rgb(0,0,0)" x1="2972.4628999999995" x2="3070.7828999999992" y1="55.0" y2="55.0" /><line stroke="rgb(0,0,0)" x1="3070.7828999999992" x2="3090.7828999999992" y1="55.0" y2="55.0" /><line stroke="rgb(0,0,0)" x1="3090.7828999999992" x2="3095.7828999999992" y1="55.0" y2="55.0" /><line stroke="rgb(0,0,0)" x1="3095.7828999999992" x2="3122.3179999999993" y1="55.0" y2="55.0" /><line stroke="rgb(0,0,0)" x1="3122.3179999999993" x2="3142.3179999999993" y1="55.0" y2="55.0" /><line stroke="rgb(0,0,0)" x1="3142.3179999999993" x2="3147.3179999999993" y1="55.0" y2="55.0" /><line stroke="rgb(0,0,0)" x1="3147.3179999999993" x2="3167.592749999999" y1="55.0" y2="55.0" /><line stroke="rgb(0,0,0)" x1="3167.592749999999" x2="3187.592749999999" y1="55.0" y2="55.0" /><line stroke="rgb(0,0,0)" x1="3187.592749999999" x2="3192.592749999999" y1="55.0" y2="55.0" /><line stroke="rgb(0,0,0)" x1="3192.592749999999" x2="3207.402049999999" y1="55.0" y2="55.0" /><line stroke="rgb(0,0,0)" x1="3207.402049999999" x2="3227.402049999999" y1="55.0" y2="55.0" /><line stroke="rgb(0,0,0)" x1="3227.402049999999" x2="3232.402049999999" y1="55.0" y2="55.0" /><line stroke="rgb(0,0,0)" x1="3232.402049999999" x2="3242.9474999999993" y1="55.0" y2="55.0" /><line stroke="rgb(0,0,0)" x1="3242.9474999999993" x2="3262.9474999999993" y1="55.0" y2="55.0" /><line stroke="rgb(0,0,0)" x1="3262.9474999999993" x2="3267.9474999999993" y1="55.0" y2="55.0" /><line stroke="rgb(0,0,0)" x1="3267.9474999999993" x2="3283.201749999999" y1="55.0" y2="55.0" /><line stroke="rgb(0,0,0)" x1="3283.201749999999" x2="3303.201749999999" y1="55.0" y2="55.0" /><line stroke="rgb(0,0,0)" x1="3303.201749999999" x2="3308.201749999999" y1="55.0" y2="55.0" /><line stroke="rgb(0,0,0)" x1="3308.201749999999" x2="3327.3088999999986" y1="55.0" y2="55.0" /><line stroke="rgb(0,0,0)" x1="3327.3088999999986" x2="3347.3088999999986" y1="55.0" y2="55.0" /><line stroke="rgb(0,0,0)" x1="3347.3088999999986" x2="3352.3088999999986" y1="55.0" y2="55.0" /><line stroke="rgb(0,0,0)" x1="3352.3088999999986" x2="3380.6860999999985" y1="55.0" y2="55.0" /><line stroke="rgb(0,0,0)" x1="3380.6860999999985" x2="3400.6860999999985" y1="55.0" y2="55.0" /><line stroke="rgb(0,0,0)" x1="3400.6860999999985" x2="3405.6860999999985" y1="55.0" y2="55.0" /><rect fill="rgb(150,150,150)" height="22.400000000000002" stroke="rgb(0,0,0)" width="15.0" x="5.0" y="43.8" /><text fill="black" x="5.0" y="86.2">H2</text><rect fill="rgb(255,150,150)" height="50.8" stroke="rgb(0,0,0)" width="6.5748" x="50.0" y="29.6" /><text fill="black" x="50.0" y="100.4">E3</text><rect fill="rgb(150,150,150)" height="30.0" stroke="rgb(0,0,0)" width="15.0" x="86.5748" y="40.0" /><text fill="black" x="86.5748" y="90.0">H5</text><rect fill="rgb(255,150,150)" height="20.4" stroke="rgb(0,0,0)" width="5.09805" x="131.57479999999998" y="44.8" /><text fill="black" x="131.57479999999998" y="85.2">E6</text><rect fill="rgb(150,150,150)" height="46.800000000000004" stroke="rgb(0,0,0)" width="27.564099999999996" x="166.67284999999998" y="31.599999999999998" /><text fill="black" x="166.67284999999998" y="98.4">H7</text><rect fill="rgb(150,150,150)" height="33.2" stroke="rgb(0,0,0)" width="16.6265" x="224.23694999999998" y="38.4" /><text fill="black" x="224.23694999999998" y="91.6">H9</text><rect fill="rgb(150,150,150)" height="30.4" stroke="rgb(0,0,0)" width="19.07895" x="270.86345" y="39.8" /><text fill="black" x="270.86345" y="90.2">H10</text><rect fill="rgb(150,150,150)" height="99.6" stroke="rgb(0,0,0)" width="54.94" x="319.94239999999996" y="5.200000000000003" /><text fill="black" x="319.94239999999996" y="124.8">H13</text><rect fill="rgb(255,150,150)" height="99.6" stroke="rgb(0,0,0)" width="24.9197" x="404.88239999999996" y="5.200000000000003" /><text fill="black" x="404.88239999999996" y="124.8">E15</text><rect fill="rgb(255,150,150)" height="100.0" stroke="rgb(0,0,0)" width="25.139999999999997" x="459.8021" y="5.0" /><text fill="black" x="459.8021" y="125.0">E20</text><rect fill="rgb(150,150,150)" height="99.6" stroke="rgb(0,0,0)" width="47.30925" x="514.9421" y="5.200000000000003" /><text fill="black" x="514.9421" y="124.8">H22</text><rect fill="rgb(150,150,150)" height="95.6" stroke="rgb(0,0,0)" width="18.451900000000002" x="592.25135" y="7.200000000000003" /><text fill="black" x="592.25135" y="122.8">H23</text><rect fill="rgb(255,150,150)" height="95.19999999999999" stroke="rgb(0,0,0)" width="10.693299999999999" x="640.70325" y="7.400000000000006" /><text fill="black" x="640.70325" y="122.6">E25</text><rect fill="rgb(150,150,150)" height="46.800000000000004" stroke="rgb(0,0,0)" width="20.341900000000003" x="681.39655" y="31.599999999999998" /><text fill="black" x="681.39655" y="98.4">H27</text><rect fill="rgb(150,150,150)" height="66.4" stroke="rgb(0,0,0)" width="36.897600000000004" x="731.7384500000001" y="21.799999999999997" /><text fill="black" x="731.7384500000001" y="108.2">H30</text><rect fill="rgb(150,150,150)" height="86.4" stroke="rgb(0,0,0)" width="17.70835" x="798.6360500000001" y="11.799999999999997" /><text fill="black" x="798.6360500000001" y="118.2">H36</text><rect fill="rgb(150,150,150)" height="93.60000000000001" stroke="rgb(0,0,0)" width="73.782" x="846.3444000000002" y="8.199999999999996" /><text fill="black" x="846.3444000000002" y="121.80000000000001">H39</text><rect fill="rgb(150,150,150)" height="20.8" stroke="rgb(0,0,0)" width="31.826900000000002" x="950.1264000000001" y="44.6" /><text fill="black" x="950.1264000000001" y="85.4">H42</text><rect fill="rgb(150,150,150)" height="100.0" stroke="rgb(0,0,0)" width="109.86000000000001" x="1011.9533" y="5.0" /><text fill="black" x="1011.9533" y="125.0">H44</text><rect fill="rgb(255,150,255)" height="80.0" stroke="rgb(0,0,0)" width="11.725000000000001" x="1151.8133" y="15.0" /><text fill="black" x="1151.8133" y="115.0">E47</text><rect fill="rgb(150,150,150)" height="100.0" stroke="rgb(0,0,0)" width="88.44" x="1193.5383" y="5.0" /><text fill="black" x="1193.5383" y="125.0">H49</text><rect fill="rgb(150,150,150)" height="33.2" stroke="rgb(0,0,0)" width="19.93975" x="1311.9783000000002" y="38.4" /><text fill="black" x="1311.9783000000002" y="91.6">H51</text><rect fill="rgb(150,150,150)" height="84.39999999999999" stroke="rgb(0,0,0)" width="80.54500000000002" x="1361.9180500000002" y="12.800000000000004" /><text fill="black" x="1361.9180500000002" y="117.19999999999999">H53</text><rect fill="rgb(150,150,150)" height="23.599999999999998" stroke="rgb(0,0,0)" width="37.2034" x="1472.46305" y="43.2" /><text fill="black" x="1472.46305" y="86.8">H57</text><rect fill="rgb(150,150,150)" height="24.4" stroke="rgb(0,0,0)" width="30.0" x="1539.66645" y="42.8" /><text fill="black" x="1539.66645" y="87.2">H58</text><rect fill="rgb(150,150,150)" height="100.0" stroke="rgb(0,0,0)" width="120.94" x="1599.66645" y="5.0" /><text fill="black" x="1599.66645" y="125.0">H61</text><rect fill="rgb(150,150,150)" height="21.2" stroke="rgb(0,0,0)" width="16.2264" x="1750.60645" y="44.4" /><text fill="black" x="1750.60645" y="85.6">H63</text><rect fill="rgb(150,150,150)" height="100.0" stroke="rgb(0,0,0)" width="43.36" x="1796.8328499999998" y="5.0" /><text fill="black" x="1796.8328499999998" y="125.0">H65</text><rect fill="rgb(255,255,150)" height="43.2" stroke="rgb(0,0,0)" width="7.7315000000000005" x="1870.19285" y="33.4" /><text fill="black" x="1870.19285" y="96.6">E66</text><rect fill="rgb(150,150,150)" height="26.8" stroke="rgb(0,0,0)" width="15.597000000000001" x="1907.9243499999998" y="41.6" /><text fill="black" x="1907.9243499999998" y="88.4">H67</text><rect fill="rgb(255,255,150)" height="43.2" stroke="rgb(0,0,0)" width="7.7315000000000005" x="1953.5213499999998" y="33.4" /><text fill="black" x="1953.5213499999998" y="96.6">E69</text><rect fill="rgb(150,150,150)" height="98.8" stroke="rgb(0,0,0)" width="161.923" x="1991.2528499999996" y="5.600000000000001" /><text fill="black" x="1991.2528499999996" y="124.4">H70</text><rect fill="rgb(150,150,150)" height="100.0" stroke="rgb(0,0,0)" width="60.540000000000006" x="2183.1758499999996" y="5.0" /><text fill="black" x="2183.1758499999996" y="125.0">H72</text><rect fill="rgb(150,150,150)" height="43.6" stroke="rgb(0,0,0)" width="34.44955" x="2273.7158499999996" y="33.2" /><text fill="black" x="2273.7158499999996" y="96.8">H74</text><rect fill="rgb(150,150,150)" height="100.0" stroke="rgb(0,0,0)" width="71.58" x="2338.1653999999994" y="5.0" /><text fill="black" x="2338.1653999999994" y="125.0">H75</text><rect fill="rgb(175,70,70)" height="43.2" stroke="rgb(0,0,0)" width="5.092600000000001" x="2439.7453999999993" y="33.4" /><text fill="black" x="2439.7453999999993" y="96.6">E78</text><rect fill="rgb(255,150,150)" height="98.0" stroke="rgb(0,0,0)" width="22.795899999999996" x="2474.8379999999993" y="6.0" /><text fill="black" x="2474.8379999999993" y="124.0">E80</text><rect fill="rgb(150,150,255)" height="99.6" stroke="rgb(0,0,0)" width="14.538150000000002" x="2527.6339" y="5.200000000000003" /><text fill="black" x="2527.6339" y="124.8">E82</text><rect fill="rgb(150,150,255)" height="99.6" stroke="rgb(0,0,0)" width="14.538150000000002" x="2572.172049999999" y="5.200000000000003" /><text fill="black" x="2572.172049999999" y="124.8">E84</text><rect fill="rgb(255,150,150)" height="100.0" stroke="rgb(0,0,0)" width="21.28" x="2616.7101999999995" y="5.0" /><text fill="black" x="2616.7101999999995" y="125.0">E85</text><rect fill="rgb(150,150,150)" height="100.0" stroke="rgb(0,0,0)" width="30.18" x="2667.9901999999993" y="5.0" /><text fill="black" x="2667.9901999999993" y="125.0">H86</text><rect fill="rgb(150,150,150)" height="97.6" stroke="rgb(0,0,0)" width="19.405749999999998" x="2728.170199999999" y="6.200000000000003" /><text fill="black" x="2728.170199999999" y="123.8">H87</text><rect fill="rgb(150,150,150)" height="40.8" stroke="rgb(0,0,0)" width="21.421549999999996" x="2777.5759499999995" y="34.6" /><text fill="black" x="2777.5759499999995" y="95.4">H89</text><rect fill="rgb(150,150,150)" height="20.8" stroke="rgb(0,0,0)" width="20.865399999999998" x="2828.9974999999995" y="44.6" /><text fill="black" x="2828.9974999999995" y="85.4">H94</text><rect fill="rgb(150,150,150)" height="20.0" stroke="rgb(0,0,0)" width="17.6" x="2879.862899999999" y="45.0" /><text fill="black" x="2879.862899999999" y="85.0">H97</text><rect fill="rgb(150,150,150)" height="30.4" stroke="rgb(0,0,0)" width="15.0" x="2927.4628999999995" y="39.8" /><text fill="black" x="2927.4628999999995" y="90.2">H98</text><rect fill="rgb(150,150,150)" height="100.0" stroke="rgb(0,0,0)" width="93.32000000000001" x="2972.4628999999995" y="5.0" /><text fill="black" x="2972.4628999999995" y="125.0">H100</text><rect fill="rgb(150,255,150)" height="45.6" stroke="rgb(0,0,0)" width="21.5351" x="3095.7828999999992" y="32.2" /><text fill="black" x="3095.7828999999992" y="97.8">E102</text><rect fill="rgb(150,150,150)" height="36.4" stroke="rgb(0,0,0)" width="15.27475" x="3147.3179999999993" y="36.8" /><text fill="black" x="3147.3179999999993" y="93.2">H104</text><rect fill="rgb(150,255,255)" height="94.39999999999999" stroke="rgb(0,0,0)" width="9.8093" x="3192.592749999999" y="7.800000000000004" /><text fill="black" x="3192.592749999999" y="122.19999999999999">E106</text><rect fill="rgb(175,70,70)" height="44.0" stroke="rgb(0,0,0)" width="5.54545" x="3232.402049999999" y="33.0" /><text fill="black" x="3232.402049999999" y="97.0">E110</text><rect fill="rgb(150,255,255)" height="94.39999999999999" stroke="rgb(0,0,0)" width="10.25425" x="3267.9474999999993" y="7.800000000000004" /><text fill="black" x="3267.9474999999993" y="122.19999999999999">E111</text><rect fill="rgb(255,150,255)" height="78.4" stroke="rgb(0,0,0)" width="14.107149999999999" x="3308.201749999999" y="15.799999999999997" /><text fill="black" x="3308.201749999999" y="114.2">E113</text><rect fill="rgb(150,255,150)" height="45.6" stroke="rgb(0,0,0)" width="23.377200000000002" x="3352.3088999999986" y="32.2" /><text fill="black" x="3352.3088999999986" y="97.8">E114</text><rect fill="rgb(150,150,150)" height="20.4" stroke="rgb(0,0,0)" width="16.56865" x="3405.6860999999985" y="44.8" /><text fill="black" x="3405.6860999999985" y="85.2">H115</text><path d="M 53.2874,55.0 a 328.71803138300567,328.71803138300567 0 0,0 364.05485,-0.0" stroke="rgb(255,150,150)" stroke-width="2" /><path d="M 53.2874,55.0 a 328.71803138300567,328.71803138300567 0 0,0 364.05485,-0.0" stroke="rgb(0,0,0)" stroke-width="0.2" /><path d="M 417.34225,55.0 a 631.5518151299698,631.5518151299698 0 0,0 -283.218425,-0.0" stroke="rgb(255,150,150)" stroke-width="2" /><path d="M 417.34225,55.0 a 631.5518151299698,631.5518151299698 0 0,0 -283.218425,-0.0" stroke="rgb(0,0,0)" stroke-width="0.2" /><path d="M 472.3721,55.0 a 94.65403524721549,94.65403524721549 0 0,0 -55.02985000000001,-0.0" stroke="rgb(255,150,150)" stroke-width="2" /><path d="M 472.3721,55.0 a 94.65403524721549,94.65403524721549 0 0,0 -55.02985000000001,-0.0" stroke="rgb(0,0,0)" stroke-width="0.2" /><path d="M 472.3721,55.0 a 10581.887753362744,10581.887753362744 0 0,0 2154.9780999999994,-0.0" stroke="rgb(255,150,150)" stroke-width="2" /><path d="M 472.3721,55.0 a 10581.887753362744,10581.887753362744 0 0,0 2154.9780999999994,-0.0" stroke="rgb(0,0,0)" stroke-width="0.2" /><path d="M 2486.2359499999993,55.0 a 10582.859245393645,10582.859245393645 0 0,0 -1840.1860499999993,-0.0" stroke="rgb(255,150,150)" stroke-width="2" /><path d="M 2486.2359499999993,55.0 a 10582.859245393645,10582.859245393645 0 0,0 -1840.1860499999993,-0.0" stroke="rgb(0,0,0)" stroke-width="0.2" /><path d="M 3315.2553249999987,55.0 a 13961.925108063077,13961.925108063077 0 0,0 -2157.5795249999987,-0.0" stroke="rgb(255,150,255)" stroke-width="2" /><path d="M 3315.2553249999987,55.0 a 13961.925108063077,13961.925108063077 0 0,0 -2157.5795249999987,-0.0" stroke="rgb(0,0,0)" stroke-width="0.2" /><path d="M 1957.3870999999997,55.0 a 148.574466356295,148.574466356295 0 0,0 -83.32849999999985,-0.0" stroke="rgb(255,255,150)" stroke-width="2" /><path d="M 1957.3870999999997,55.0 a 148.574466356295,148.574466356295 0 0,0 -83.32849999999985,-0.0" stroke="rgb(0,0,0)" stroke-width="0.2" /><path d="M 3235.1747749999986,55.0 a 2678.717471890578,2678.717471890578 0 0,0 -792.8830749999993,-0.0" stroke="rgb(175,70,70)" stroke-width="2" /><path d="M 3235.1747749999986,55.0 a 2678.717471890578,2678.717471890578 0 0,0 -792.8830749999993,-0.0" stroke="rgb(0,0,0)" stroke-width="0.2" /><path d="M 2627.3501999999994,55.0 a 269.7861017329941,269.7861017329941 0 0,0 -141.11425000000008,-0.0" stroke="rgb(255,150,150)" stroke-width="2" /><path d="M 2627.3501999999994,55.0 a 269.7861017329941,269.7861017329941 0 0,0 -141.11425000000008,-0.0" stroke="rgb(0,0,0)" stroke-width="0.2" /><path d="M 2579.4411249999994,55.0 a 75.56956851439202,75.56956851439202 0 0,0 -44.538149999999405,-0.0" stroke="rgb(150,150,255)" stroke-width="2" /><path d="M 2579.4411249999994,55.0 a 75.56956851439202,75.56956851439202 0 0,0 -44.538149999999405,-0.0" stroke="rgb(0,0,0)" stroke-width="0.2" /><path d="M 3363.9974999999986,55.0 a 559.204702718798,559.204702718798 0 0,0 -257.4470499999993,-0.0" stroke="rgb(150,255,150)" stroke-width="2" /><path d="M 3363.9974999999986,55.0 a 559.204702718798,559.204702718798 0 0,0 -257.4470499999993,-0.0" stroke="rgb(0,0,0)" stroke-width="0.2" /><path d="M 3273.0746249999993,55.0 a 133.4500930293035,133.4500930293035 0 0,0 -75.57722500000045,-0.0" stroke="rgb(150,255,255)" stroke-width="2" /><path d="M 3273.0746249999993,55.0 a 133.4500930293035,133.4500930293035 0 0,0 -75.57722500000045,-0.0" stroke="rgb(0,0,0)" stroke-width="0.2" /></svg>