<?xml version="1.0" encoding="utf-8" ?>
<svg baseProfile="full" height="100%" style="font-size:14;font-family:Sans, Arial;stroke-width:1;fill:none" version="1.1" width="100%" xmlns="http://www.w3.org/2000/svg" xmlns:ev="http://www.w3.org/2001/xml-events" xmlns:xlink="http://www.w3.org/1999/xlink"><defs /><rect fill="none" height="150.0" stroke="none" width="2887.2547499999982" x="0" y="0" /><line stroke="rgb(0,0,0)" x1="5.0" x2="25.0" y1="75.0" y2="75.0" /><line stroke="rgb(0,0,0)" x1="25.0" x2="35.0" y1="75.0" y2="75.0" /><line stroke="rgb(0,0,0)" x1="35.0" x2="40.0" y1="75.0" y2="75.0" /><line stroke="rgb(0,0,0)" x1="40.0" x2="51.574799999999996" y1="75.0" y2="75.0" /><line stroke="rgb(0,0,0)" x1="51.574799999999996" x2="61.574799999999996" y1="75.0" y2="75.0" /><line stroke="rgb(0,0,0)" x1="61.574799999999996" x2="66.5748" y1="75.0" y2="75.0" /><line stroke="rgb(0,0,0)" x1="66.5748" x2="86.5748" y1="75.0" y2="75.0" /><line stroke="rgb(0,0,0)" x1="86.5748" x2="96.5748" y1="75.0" y2="75.0" /><line stroke="rgb(0,0,0)" x1="96.5748" x2="101.5748" y1="75.0" y2="75.0" /><line stroke="rgb(0,0,0)" x1="101.5748" x2="111.67285" y1="75.0" y2="75.0" /><line stroke="rgb(0,0,0)" x1="111.67285" x2="121.67285" y1="75.0" y2="75.0" /><line stroke="rgb(0,0,0)" x1="121.67285" x2="126.67285" y1="75.0" y2="75.0" /><line stroke="rgb(0,0,0)" x1="126.67285" x2="159.23694999999998" y1="75.0" y2="75.0" /><line stroke="rgb(0,0,0)" x1="159.23694999999998" x2="169.23694999999998" y1="75.0" y2="75.0" /><line stroke="rgb(0,0,0)" x1="169.23694999999998" x2="174.23694999999998" y1="75.0" y2="75.0" /><line stroke="rgb(0,0,0)" x1="174.23694999999998" x2="195.86344999999997" y1="75.0" y2="75.0" /><line stroke="rgb(0,0,0)" x1="195.86344999999997" x2="205.86344999999997" y1="75.0" y2="75.0" /><line stroke="rgb(0,0,0)" x1="205.86344999999997" x2="210.86344999999997" y1="75.0" y2="75.0" /><line stroke="rgb(0,0,0)" x1="210.86344999999997" x2="234.94239999999996" y1="75.0" y2="75.0" /><line stroke="rgb(0,0,0)" x1="234.94239999999996" x2="244.94239999999996" y1="75.0" y2="75.0" /><line stroke="rgb(0,0,0)" x1="244.94239999999996" x2="249.94239999999996" y1="75.0" y2="75.0" /><line stroke="rgb(0,0,0)" x1="249.94239999999996" x2="309.88239999999996" y1="75.0" y2="75.0" /><line stroke="rgb(0,0,0)" x1="309.88239999999996" x2="319.88239999999996" y1="75.0" y2="75.0" /><line stroke="rgb(0,0,0)" x1="319.88239999999996" x2="324.88239999999996" y1="75.0" y2="75.0" /><line stroke="rgb(0,0,0)" x1="324.88239999999996" x2="354.8021" y1="75.0" y2="75.0" /><line stroke="rgb(0,0,0)" x1="354.8021" x2="364.8021" y1="75.0" y2="75.0" /><line stroke="rgb(0,0,0)" x1="364.8021" x2="369.8021" y1="75.0" y2="75.0" /><line stroke="rgb(0,0,0)" x1="369.8021" x2="399.94210000000004" y1="75.0" y2="75.0" /><line stroke="rgb(0,0,0)" x1="399.94210000000004" x2="409.94210000000004" y1="75.0" y2="75.0" /><line stroke="rgb(0,0,0)" x1="409.94210000000004" x2="414.94210000000004" y1="75.0" y2="75.0" /><line stroke="rgb(0,0,0)" x1="414.94210000000004" x2="467.25135" y1="75.0" y2="75.0" /><line stroke="rgb(0,0,0)" x1="467.25135" x2="477.25135" y1="75.0" y2="75.0" /><line stroke="rgb(0,0,0)" x1="477.25135" x2="482.25135" y1="75.0" y2="75.0" /><line stroke="rgb(0,0,0)" x1="482.25135" x2="505.70325" y1="75.0" y2="75.0" /><line stroke="rgb(0,0,0)" x1="505.70325" x2="515.70325" y1="75.0" y2="75.0" /><line stroke="rgb(0,0,0)" x1="515.70325" x2="520.70325" y1="75.0" y2="75.0" /><line stroke="rgb(0,0,0)" x1="520.70325" x2="536.39655" y1="75.0" y2="75.0" /><line stroke="rgb(0,0,0)" x1="536.39655" x2="546.39655" y1="75.0" y2="75.0" /><line stroke="rgb(0,0,0)" x1="546.39655" x2="551.39655" y1="75.0" y2="75.0" /><line stroke="rgb(0,0,0)" x1="551.39655" x2="576.7384500000001" y1="75.0" y2="75.0" /><line stroke="rgb(0,0,0)" x1="576.7384500000001" x2="586.7384500000001" y1="75.0" y2="75.0" /><line stroke="rgb(0,0,0)" x1="586.7384500000001" x2="591.7384500000001" y1="75.0" y2="75.0" /><line stroke="rgb(0,0,0)" x1="591.7384500000001" x2="633.6360500000001" y1="75.0" y2="75.0" /><line stroke="rgb(0,0,0)" x1="633.6360500000001" x2="643.6360500000001" y1="75.0" y2="75.0" /><line stroke="rgb(0,0,0)" x1="643.6360500000001" x2="648.6360500000001" y1="75.0" y2="75.0" /><line stroke="rgb(0,0,0)" x1="648.6360500000001" x2="671.3444000000002" y1="75.0" y2="75.0" /><line stroke="rgb(0,0,0)" x1="671.3444000000002" x2="681.3444000000002" y1="75.0" y2="75.0" /><line stroke="rgb(0,0,0)" x1="681.3444000000002" x2="686.3444000000002" y1="75.0" y2="75.0" /><line stroke="rgb(0,0,0)" x1="686.3444000000002" x2="765.1264000000001" y1="75.0" y2="75.0" /><line stroke="rgb(0,0,0)" x1="765.1264000000001" x2="775.1264000000001" y1="75.0" y2="75.0" /><line stroke="rgb(0,0,0)" x1="775.1264000000001" x2="780.1264000000001" y1="75.0" y2="75.0" /><line stroke="rgb(0,0,0)" x1="780.1264000000001" x2="816.9533" y1="75.0" y2="75.0" /><line stroke="rgb(0,0,0)" x1="816.9533" x2="826.9533" y1="75.0" y2="75.0" /><line stroke="rgb(0,0,0)" x1="826.9533" x2="831.9533" y1="75.0" y2="75.0" /><line stroke="rgb(0,0,0)" x1="831.9533" x2="946.8133" y1="75.0" y2="75.0" /><line stroke="rgb(0,0,0)" x1="946.8133" x2="956.8133" y1="75.0" y2="75.0" /><line stroke="rgb(0,0,0)" x1="956.8133" x2="961.8133" y1="75.0" y2="75.0" /><line stroke="rgb(0,0,0)" x1="961.8133" x2="978.5383" y1="75.0" y2="75.0" /><line stroke="rgb(0,0,0)" x1="978.5383" x2="988.5383" y1="75.0" y2="75.0" /><line stroke="rgb(0,0,0)" x1="988.5383" x2="993.5383" y1="75.0" y2="75.0" /><line stroke="rgb(0,0,0)" x1="993.5383" x2="1086.9783" y1="75.0" y2="75.0" /><line stroke="rgb(0,0,0)" x1="1086.9783" x2="1096.9783" y1="75.0" y2="75.0" /><line stroke="rgb(0,0,0)" x1="1096.9783" x2="1101.9783" y1="75.0" y2="75.0" /><line stroke="rgb(0,0,0)" x1="1101.9783" x2="1126.91805" y1="75.0" y2="75.0" /><line stroke="rgb(0,0,0)" x1="1126.91805" x2="1136.91805" y1="75.0" y2="75.0" /><line stroke="rgb(0,0,0)" x1="1136.91805" x2="1141.91805" y1="75.0" y2="75.0" /><line stroke="rgb(0,0,0)" x1="1141.91805" x2="1227.46305" y1="75.0" y2="75.0" /><line stroke="rgb(0,0,0)" x1="1227.46305" x2="1237.46305" y1="75.0" y2="75.0" /><line stroke="rgb(0,0,0)" x1="1237.46305" x2="1242.46305" y1="75.0" y2="75.0" /><line stroke="rgb(0,0,0)" x1="1242.46305" x2="1284.66645" y1="75.0" y2="75.0" /><line stroke="rgb(0,0,0)" x1="1284.66645" x2="1294.66645" y1="75.0" y2="75.0" /><line stroke="rgb(0,0,0)" x1="1294.66645" x2="1299.66645" y1="75.0" y2="75.0" /><line stroke="rgb(0,0,0)" x1="1299.66645" x2="1334.66645" y1="75.0" y2="75.0" /><line stroke="rgb(0,0,0)" x1="1334.66645" x2="1344.66645" y1="75.0" y2="75.0" /><line stroke="rgb(0,0,0)" x1="1344.66645" x2="1349.66645" y1="75.0" y2="75.0" /><line stroke="rgb(0,0,0)" x1="1349.66645" x2="1475.60645" y1="75.0" y2="75.0" /><line stroke="rgb(0,0,0)" x1="1475.60645" x2="1485.60645" y1="75.0" y2="75.0" /><line stroke="rgb(0,0,0)" x1="1485.60645" x2="1490.60645" y1="75.0" y2="75.0" /><line stroke="rgb(0,0,0)" x1="1490.60645" x2="1511.8328499999998" y1="75.0" y2="75.0" /><line stroke="rgb(0,0,0)" x1="1511.8328499999998" x2="1521.8328499999998" y1="75.0" y2="75.0" /><line stroke="rgb(0,0,0)" x1="1521.8328499999998" x2="1526.8328499999998" y1="75.0" y2="75.0" /><line stroke="rgb(0,0,0)" x1="1526.8328499999998" x2="1575.19285" y1="75.0" y2="75.0" /><line stroke="rgb(0,0,0)" x1="1575.19285" x2="1585.19285" y1="75.0" y2="75.0" /><line stroke="rgb(0,0,0)" x1="1585.19285" x2="1590.19285" y1="75.0" y2="75.0" /><line stroke="rgb(0,0,0)" x1="1590.19285" x2="1602.9243499999998" y1="75.0" y2="75.0" /><line stroke="rgb(0,0,0)" x1="1602.9243499999998" x2="1612.9243499999998" y1="75.0" y2="75.0" /><line stroke="rgb(0,0,0)" x1="1612.9243499999998" x2="1617.9243499999998" y1="75.0" y2="75.0" /><line stroke="rgb(0,0,0)" x1="1617.9243499999998" x2="1638.5213499999998" y1="75.0" y2="75.0" /><line stroke="rgb(0,0,0)" x1="1638.5213499999998" x2="1648.5213499999998" y1="75.0" y2="75.0" /><line stroke="rgb(0,0,0)" x1="1648.5213499999998" x2="1653.5213499999998" y1="75.0" y2="75.0" /><line stroke="rgb(0,0,0)" x1="1653.5213499999998" x2="1666.2528499999996" y1="75.0" y2="75.0" /><line stroke="rgb(0,0,0)" x1="1666.2528499999996" x2="1676.2528499999996" y1="75.0" y2="75.0" /><line stroke="rgb(0,0,0)" x1="1676.2528499999996" x2="1681.2528499999996" y1="75.0" y2="75.0" /><line stroke="rgb(0,0,0)" x1="1681.2528499999996" x2="1848.1758499999996" y1="75.0" y2="75.0" /><line stroke="rgb(0,0,0)" x1="1848.1758499999996" x2="1858.1758499999996" y1="75.0" y2="75.0" /><line stroke="rgb(0,0,0)" x1="1858.1758499999996" x2="1863.1758499999996" y1="75.0" y2="75.0" /><line stroke="rgb(0,0,0)" x1="1863.1758499999996" x2="1928.7158499999996" y1="75.0" y2="75.0" /><line stroke="rgb(0,0,0)" x1="1928.7158499999996" x2="1938.7158499999996" y1="75.0" y2="75.0" /><line stroke="rgb(0,0,0)" x1="1938.7158499999996" x2="1943.7158499999996" y1="75.0" y2="75.0" /><line stroke="rgb(0,0,0)" x1="1943.7158499999996" x2="1983.1653999999994" y1="75.0" y2="75.0" /><line stroke="rgb(0,0,0)" x1="1983.1653999999994" x2="1993.1653999999994" y1="75.0" y2="75.0" /><line stroke="rgb(0,0,0)" x1="1993.1653999999994" x2="1998.1653999999994" y1="75.0" y2="75.0" /><line stroke="rgb(0,0,0)" x1="1998.1653999999994" x2="2074.7453999999993" y1="75.0" y2="75.0" /><line stroke="rgb(0,0,0)" x1="2074.7453999999993" x2="2084.7453999999993" y1="75.0" y2="75.0" /><line stroke="rgb(0,0,0)" x1="2084.7453999999993" x2="2089.7453999999993" y1="75.0" y2="75.0" /><line stroke="rgb(0,0,0)" x1="2089.7453999999993" x2="2099.8379999999993" y1="75.0" y2="75.0" /><line stroke="rgb(0,0,0)" x1="2099.8379999999993" x2="2109.8379999999993" y1="75.0" y2="75.0" /><line stroke="rgb(0,0,0)" x1="2109.8379999999993" x2="2114.8379999999993" y1="75.0" y2="75.0" /><line stroke="rgb(0,0,0)" x1="2114.8379999999993" x2="2142.6339" y1="75.0" y2="75.0" /><line stroke="rgb(0,0,0)" x1="2142.6339" x2="2152.6339" y1="75.0" y2="75.0" /><line stroke="rgb(0,0,0)" x1="2152.6339" x2="2157.6339" y1="75.0" y2="75.0" /><line stroke="rgb(0,0,0)" x1="2157.6339" x2="2177.1720499999997" y1="75.0" y2="75.0" /><line stroke="rgb(0,0,0)" x1="2177.1720499999997" x2="2187.1720499999997" y1="75.0" y2="75.0" /><line stroke="rgb(0,0,0)" x1="2187.1720499999997" x2="2192.1720499999997" y1="75.0" y2="75.0" /><line stroke="rgb(0,0,0)" x1="2192.1720499999997" x2="2211.7101999999995" y1="75.0" y2="75.0" /><line stroke="rgb(0,0,0)" x1="2211.7101999999995" x2="2221.7101999999995" y1="75.0" y2="75.0" /><line stroke="rgb(0,0,0)" x1="2221.7101999999995" x2="2226.7101999999995" y1="75.0" y2="75.0" /><line stroke="rgb(0,0,0)" x1="2226.7101999999995" x2="2252.9901999999993" y1="75.0" y2="75.0" /><line stroke="rgb(0,0,0)" x1="2252.9901999999993" x2="2262.9901999999993" y1="75.0" y2="75.0" /><line stroke="rgb(0,0,0)" x1="2262.9901999999993" x2="2267.9901999999993" y1="75.0" y2="75.0" /><line stroke="rgb(0,0,0)" x1="2267.9901999999993" x2="2303.170199999999" y1="75.0" y2="75.0" /><line stroke="rgb(0,0,0)" x1="2303.170199999999" x2="2313.170199999999" y1="75.0" y2="75.0" /><line stroke="rgb(0,0,0)" x1="2313.170199999999" x2="2318.170199999999" y1="75.0" y2="75.0" /><line stroke="rgb(0,0,0)" x1="2318.170199999999" x2="2342.5759499999995" y1="75.0" y2="75.0" /><line stroke="rgb(0,0,0)" x1="2342.5759499999995" x2="2352.5759499999995" y1="75.0" y2="75.0" /><line stroke="rgb(0,0,0)" x1="2352.5759499999995" x2="2357.5759499999995" y1="75.0" y2="75.0" /><line stroke="rgb(0,0,0)" x1="2357.5759499999995" x2="2383.9974999999995" y1="75.0" y2="75.0" /><line stroke="rgb(0,0,0)" x1="2383.9974999999995" x2="2393.9974999999995" y1="75.0" y2="75.0" /><line stroke="rgb(0,0,0)" x1="2393.9974999999995" x2="2398.9974999999995" y1="75.0" y2="75.0" /><line stroke="rgb(0,0,0)" x1="2398.9974999999995" x2="2424.862899999999" y1="75.0" y2="75.0" /><line stroke="rgb(0,0,0)" x1="2424.862899999999" x2="2434.862899999999" y1="75.0" y2="75.0" /><line stroke="rgb(0,0,0)" x1="2434.862899999999" x2="2439.862899999999" y1="75.0" y2="75.0" /><line stroke="rgb(0,0,0)" x1="2439.862899999999" x2="2462.4628999999995" y1="75.0" y2="75.0" /><line stroke="rgb(0,0,0)" x1="2462.4628999999995" x2="2472.4628999999995" y1="75.0" y2="75.0" /><line stroke="rgb(0,0,0)" x1="2472.4628999999995" x2="2477.4628999999995" y1="75.0" y2="75.0" /><line stroke="rgb(0,0,0)" x1="2477.4628999999995" x2="2497.4628999999995" y1="75.0" y2="75.0" /><line stroke="rgb(0,0,0)" x1="2497.4628999999995" x2="2507.4628999999995" y1="75.0" y2="75.0" /><line stroke="rgb(0,0,0)" x1="2507.4628999999995" x2="2512.4628999999995" y1="75.0" y2="75.0" /><line stroke="rgb(0,0,0)" x1="2512.4628999999995" x2="2610.7828999999992" y1="75.0" y2="75.0" /><line stroke="rgb(0,0,0)" x1="2610.7828999999992" x2="2620.7828999999992" y1="75.0" y2="75.0" /><line stroke="rgb(0,0,0)" x1="2620.7828999999992" x2="2625.7828999999992" y1="75.0" y2="75.0" /><line stroke="rgb(0,0,0)" x1="2625.7828999999992" x2="2652.3179999999993" y1="75.0" y2="75.0" /><line stroke="rgb(0,0,0)" x1="2652.3179999999993" x2="2662.3179999999993" y1="75.0" y2="75.0" /><line stroke="rgb(0,0,0)" x1="2662.3179999999993" x2="2667.3179999999993" y1="75.0" y2="75.0" /><line stroke="rgb(0,0,0)" x1="2667.3179999999993" x2="2687.592749999999" y1="75.0" y2="75.0" /><line stroke="rgb(0,0,0)" x1="2687.592749999999" x2="2697.592749999999" y1="75.0" y2="75.0" /><line stroke="rgb(0,0,0)" x1="2697.592749999999" x2="2702.592749999999" y1="75.0" y2="75.0" /><line stroke="rgb(0,0,0)" x1="2702.592749999999" x2="2717.402049999999" y1="75.0" y2="75.0" /><line stroke="rgb(0,0,0)" x1="2717.402049999999" x2="2727.402049999999" y1="75.0" y2="75.0" /><line stroke="rgb(0,0,0)" x1="2727.402049999999" x2="2732.402049999999" y1="75.0" y2="75.0" /><line stroke="rgb(0,0,0)" x1="2732.402049999999" x2="2742.9474999999993" y1="75.0" y2="75.0" /><line stroke="rgb(0,0,0)" x1="2742.9474999999993" x2="2752.9474999999993" y1="75.0" y2="75.0" /><line stroke="rgb(0,0,0)" x1="2752.9474999999993" x2="2757.9474999999993" y1="75.0" y2="75.0" /><line stroke="rgb(0,0,0)" x1="2757.9474999999993" x2="2773.201749999999" y1="75.0" y2="75.0" /><line stroke="rgb(0,0,0)" x1="2773.201749999999" x2="2783.201749999999" y1="75.0" y2="75.0" /><line stroke="rgb(0,0,0)" x1="2783.201749999999" x2="2788.201749999999" y1="75.0" y2="75.0" /><line stroke="rgb(0,0,0)" x1="2788.201749999999" x2="2807.3088999999986" y1="75.0" y2="75.0" /><line stroke="rgb(0,0,0)" x1="2807.3088999999986" x2="2817.3088999999986" y1="75.0" y2="75.0" /><line stroke="rgb(0,0,0)" x1="2817.3088999999986" x2="2822.3088999999986" y1="75.0" y2="75.0" /><line stroke="rgb(0,0,0)" x1="2822.3088999999986" x2="2850.6860999999985" y1="75.0" y2="75.0" /><line stroke="rgb(0,0,0)" x1="2850.6860999999985" x2="2860.6860999999985" y1="75.0" y2="75.0" /><line stroke="rgb(0,0,0)" x1="2860.6860999999985" x2="2865.6860999999985" y1="75.0" y2="75.0" /><rect fill="rgb(115,90,255)" height="22.400000000000002" stroke="rgb(0,0,0)" width="15.0" x="5.0" y="63.8" /><text fill="black" x="5.0" y="106.2">H2</text><rect fill="rgb(255,166,212)" height="50.8" stroke="rgb(0,0,0)" width="6.5748" x="40.0" y="49.6" /><text fill="black" x="40.0" y="120.4">E3</text><rect fill="rgb(151,119,255)" height="30.0" stroke="rgb(0,0,0)" width="15.0" x="66.5748" y="60.0" /><text fill="black" x="66.5748" y="110.0">H5</text><rect fill="rgb(197,155,255)" height="20.4" stroke="rgb(0,0,0)" width="5.09805" x="101.5748" y="64.8" /><text fill="black" x="101.5748" y="105.2">E6</text><rect fill="rgb(255,149,191)" height="46.800000000000004" stroke="rgb(0,0,0)" width="27.564099999999996" x="126.67285" y="51.599999999999994" /><text fill="black" x="126.67285" y="118.4">H7</text><rect fill="rgb(138,108,255)" height="33.2" stroke="rgb(0,0,0)" width="16.6265" x="174.23694999999998" y="58.4" /><text fill="black" x="174.23694999999998" y="111.6">H9</text><rect fill="rgb(156,123,255)" height="30.4" stroke="rgb(0,0,0)" width="19.07895" x="210.86344999999997" y="59.8" /><text fill="black" x="210.86344999999997" y="110.2">H10</text><rect fill="rgb(255,175,224)" height="99.6" stroke="rgb(0,0,0)" width="54.94" x="249.94239999999996" y="25.200000000000003" /><text fill="black" x="249.94239999999996" y="144.8">H13</text><rect fill="rgb(142,111,255)" height="99.6" stroke="rgb(0,0,0)" width="24.9197" x="324.88239999999996" y="25.200000000000003" /><text fill="black" x="324.88239999999996" y="144.8">E15</text><rect fill="rgb(122,95,255)" height="100.0" stroke="rgb(0,0,0)" width="25.139999999999997" x="369.8021" y="25.0" /><text fill="black" x="369.8021" y="145.0">E20</text><rect fill="rgb(90,70,255)" height="99.6" stroke="rgb(0,0,0)" width="47.30925" x="414.94210000000004" y="25.200000000000003" /><text fill="black" x="414.94210000000004" y="144.8">H22</text><rect fill="rgb(110,86,255)" height="95.6" stroke="rgb(0,0,0)" width="18.451900000000002" x="482.25135" y="27.200000000000003" /><text fill="black" x="482.25135" y="142.8">H23</text><rect fill="rgb(99,78,255)" height="95.19999999999999" stroke="rgb(0,0,0)" width="10.693299999999999" x="520.70325" y="27.400000000000006" /><text fill="black" x="520.70325" y="142.6">E25</text><rect fill="rgb(219,171,255)" height="46.800000000000004" stroke="rgb(0,0,0)" width="20.341900000000003" x="551.39655" y="51.599999999999994" /><text fill="black" x="551.39655" y="118.4">H27</text><rect fill="rgb(255,190,242)" height="66.4" stroke="rgb(0,0,0)" width="36.897600000000004" x="591.7384500000001" y="41.8" /><text fill="black" x="591.7384500000001" y="128.2">H30</text><rect fill="rgb(145,113,255)" height="86.4" stroke="rgb(0,0,0)" width="17.70835" x="648.6360500000001" y="31.799999999999997" /><text fill="black" x="648.6360500000001" y="138.2">H36</text><rect fill="rgb(159,124,255)" height="93.60000000000001" stroke="rgb(0,0,0)" width="73.782" x="686.3444000000002" y="28.199999999999996" /><text fill="black" x="686.3444000000002" y="141.8">H39</text><rect fill="rgb(109,85,255)" height="20.8" stroke="rgb(0,0,0)" width="31.826900000000002" x="780.1264000000001" y="64.6" /><text fill="black" x="780.1264000000001" y="105.4">H42</text><rect fill="rgb(255,180,230)" height="100.0" stroke="rgb(0,0,0)" width="109.86000000000001" x="831.9533" y="25.0" /><text fill="black" x="831.9533" y="145.0">H44</text><rect fill="rgb(69,54,255)" height="80.0" stroke="rgb(0,0,0)" width="11.725000000000001" x="961.8133" y="35.0" /><text fill="black" x="961.8133" y="135.0">E47</text><rect fill="rgb(54,42,255)" height="100.0" stroke="rgb(0,0,0)" width="88.44" x="993.5383" y="25.0" /><text fill="black" x="993.5383" y="145.0">H49</text><rect fill="rgb(255,73,93)" height="33.2" stroke="rgb(0,0,0)" width="19.93975" x="1101.9783" y="58.4" /><text fill="black" x="1101.9783" y="111.6">H51</text><rect fill="rgb(255,163,207)" height="84.39999999999999" stroke="rgb(0,0,0)" width="80.54500000000002" x="1141.91805" y="32.800000000000004" /><text fill="black" x="1141.91805" y="137.2">H53</text><rect fill="rgb(255,148,189)" height="23.599999999999998" stroke="rgb(0,0,0)" width="37.2034" x="1242.46305" y="63.2" /><text fill="black" x="1242.46305" y="106.8">H57</text><rect fill="rgb(255,86,110)" height="24.4" stroke="rgb(0,0,0)" width="30.0" x="1299.66645" y="62.8" /><text fill="black" x="1299.66645" y="107.2">H58</text><rect fill="rgb(255,126,161)" height="100.0" stroke="rgb(0,0,0)" width="120.94" x="1349.66645" y="25.0" /><text fill="black" x="1349.66645" y="145.0">H61</text><rect fill="rgb(255,72,91)" height="21.2" stroke="rgb(0,0,0)" width="16.2264" x="1490.60645" y="64.4" /><text fill="black" x="1490.60645" y="105.6">H63</text><rect fill="rgb(198,155,255)" height="100.0" stroke="rgb(0,0,0)" width="43.36" x="1526.8328499999998" y="25.0" /><text fill="black" x="1526.8328499999998" y="145.0">H65</text><rect fill="rgb(215,168,255)" height="43.2" stroke="rgb(0,0,0)" width="7.7315000000000005" x="1590.19285" y="53.4" /><text fill="black" x="1590.19285" y="116.6">E66</text><rect fill="rgb(255,100,127)" height="26.8" stroke="rgb(0,0,0)" width="15.597000000000001" x="1617.9243499999998" y="61.6" /><text fill="black" x="1617.9243499999998" y="108.4">H67</text><rect fill="rgb(237,186,255)" height="43.2" stroke="rgb(0,0,0)" width="7.7315000000000005" x="1653.5213499999998" y="53.4" /><text fill="black" x="1653.5213499999998" y="116.6">E69</text><rect fill="rgb(199,156,255)" height="98.8" stroke="rgb(0,0,0)" width="161.923" x="1681.2528499999996" y="25.6" /><text fill="black" x="1681.2528499999996" y="144.4">H70</text><rect fill="rgb(224,175,255)" height="100.0" stroke="rgb(0,0,0)" width="60.540000000000006" x="1863.1758499999996" y="25.0" /><text fill="black" x="1863.1758499999996" y="145.0">H72</text><rect fill="rgb(153,120,255)" height="43.6" stroke="rgb(0,0,0)" width="34.44955" x="1943.7158499999996" y="53.2" /><text fill="black" x="1943.7158499999996" y="116.8">H74</text><rect fill="rgb(76,60,255)" height="100.0" stroke="rgb(0,0,0)" width="71.58" x="1998.1653999999994" y="25.0" /><text fill="black" x="1998.1653999999994" y="145.0">H75</text><rect fill="rgb(56,44,255)" height="43.2" stroke="rgb(0,0,0)" width="5.092600000000001" x="2089.7453999999993" y="53.4" /><text fill="black" x="2089.7453999999993" y="116.6">E78</text><rect fill="rgb(174,136,255)" height="98.0" stroke="rgb(0,0,0)" width="22.795899999999996" x="2114.8379999999993" y="26.0" /><text fill="black" x="2114.8379999999993" y="144.0">E80</text><rect fill="rgb(123,96,255)" height="99.6" stroke="rgb(0,0,0)" width="14.538150000000002" x="2157.6339" y="25.200000000000003" /><text fill="black" x="2157.6339" y="144.8">E82</text><rect fill="rgb(119,93,255)" height="99.6" stroke="rgb(0,0,0)" width="14.538150000000002" x="2192.1720499999997" y="25.200000000000003" /><text fill="black" x="2192.1720499999997" y="144.8">E84</text><rect fill="rgb(81,64,255)" height="100.0" stroke="rgb(0,0,0)" width="21.28" x="2226.7101999999995" y="25.0" /><text fill="black" x="2226.7101999999995" y="145.0">E85</text><rect fill="rgb(52,41,255)" height="100.0" stroke="rgb(0,0,0)" width="30.18" x="2267.9901999999993" y="25.0" /><text fill="black" x="2267.9901999999993" y="145.0">H86</text><rect fill="rgb(77,61,255)" height="97.6" stroke="rgb(0,0,0)" width="19.405749999999998" x="2318.170199999999" y="26.200000000000003" /><text fill="black" x="2318.170199999999" y="143.8">H87</text><rect fill="rgb(80,62,255)" height="40.8" stroke="rgb(0,0,0)" width="21.421549999999996" x="2357.5759499999995" y="54.6" /><text fill="black" x="2357.5759499999995" y="115.4">H89</text><rect fill="rgb(183,143,255)" height="20.8" stroke="rgb(0,0,0)" width="20.865399999999998" x="2398.9974999999995" y="64.6" /><text fill="black" x="2398.9974999999995" y="105.4">H94</text><rect fill="rgb(251,196,255)" height="20.0" stroke="rgb(0,0,0)" width="17.6" x="2439.862899999999" y="65.0" /><text fill="black" x="2439.862899999999" y="105.0">H97</text><rect fill="rgb(82,64,255)" height="30.4" stroke="rgb(0,0,0)" width="15.0" x="2477.4628999999995" y="59.8" /><text fill="black" x="2477.4628999999995" y="110.2">H98</text><rect fill="rgb(53,42,255)" height="100.0" stroke="rgb(0,0,0)" width="93.32000000000001" x="2512.4628999999995" y="25.0" /><text fill="black" x="2512.4628999999995" y="145.0">H100</text><rect fill="rgb(82,64,255)" height="45.6" stroke="rgb(0,0,0)" width="21.5351" x="2625.7828999999992" y="52.2" /><text fill="black" x="2625.7828999999992" y="117.8">E102</text><rect fill="rgb(255,172,220)" height="36.4" stroke="rgb(0,0,0)" width="15.27475" x="2667.3179999999993" y="56.8" /><text fill="black" x="2667.3179999999993" y="113.2">H104</text><rect fill="rgb(163,127,255)" height="94.39999999999999" stroke="rgb(0,0,0)" width="9.8093" x="2702.592749999999" y="27.800000000000004" /><text fill="black" x="2702.592749999999" y="142.2">E106</text><rect fill="rgb(81,64,255)" height="44.0" stroke="rgb(0,0,0)" width="5.54545" x="2732.402049999999" y="53.0" /><text fill="black" x="2732.402049999999" y="117.0">E110</text><rect fill="rgb(149,117,255)" height="94.39999999999999" stroke="rgb(0,0,0)" width="10.25425" x="2757.9474999999993" y="27.800000000000004" /><text fill="black" x="2757.9474999999993" y="142.2">E111</text><rect fill="rgb(106,83,255)" height="78.4" stroke="rgb(0,0,0)" width="14.107149999999999" x="2788.201749999999" y="35.8" /><text fill="black" x="2788.201749999999" y="134.2">E113</text><rect fill="rgb(147,115,255)" height="45.6" stroke="rgb(0,0,0)" width="23.377200000000002" x="2822.3088999999986" y="52.2" /><text fill="black" x="2822.3088999999986" y="117.8">E114</text><rect fill="rgb(161,126,255)" height="20.4" stroke="rgb(0,0,0)" width="16.56865" x="2865.6860999999985" y="64.8" /><text fill="black" x="2865.6860999999985" y="105.2">H115</text><path d="M 43.2874,75.0 a 224.01876092846024,224.01876092846024 0 0,0 294.05485,-0.0" stroke="rgb(255,166,212)" stroke-width="2" /><path d="M 43.2874,75.0 a 224.01876092846024,224.01876092846024 0 0,0 294.05485,-0.0" stroke="rgb(0,0,0)" stroke-width="0.2" /><path d="M 337.34225,75.0 a 437.60008715121506,437.60008715121506 0 0,0 -233.21842499999997,-0.0" stroke="rgb(197,155,255)" stroke-width="2" /><path d="M 337.34225,75.0 a 437.60008715121506,437.60008715121506 0 0,0 -233.21842499999997,-0.0" stroke="rgb(0,0,0)" stroke-width="0.2" /><path d="M 382.3721,75.0 a 65.69437059390536,65.69437059390536 0 0,0 -45.02985000000001,-0.0" stroke="rgb(142,111,255)" stroke-width="2" /><path d="M 382.3721,75.0 a 65.69437059390536,65.69437059390536 0 0,0 -45.02985000000001,-0.0" stroke="rgb(0,0,0)" stroke-width="0.2" /><path d="M 382.3721,75.0 a 7847.826707908199,7847.826707908199 0 0,0 1854.9780999999994,-0.0" stroke="rgb(122,95,255)" stroke-width="2" /><path d="M 382.3721,75.0 a 7847.826707908199,7847.826707908199 0 0,0 1854.9780999999994,-0.0" stroke="rgb(0,0,0)" stroke-width="0.2" /><path d="M 2126.2359499999993,75.0 a 7939.808531283136,7939.808531283136 0 0,0 -1600.1860499999993,-0.0" stroke="rgb(99,78,255)" stroke-width="2" /><path d="M 2126.2359499999993,75.0 a 7939.808531283136,7939.808531283136 0 0,0 -1600.1860499999993,-0.0" stroke="rgb(0,0,0)" stroke-width="0.2" /><path d="M 2795.2553249999987,75.0 a 10010.407334883534,10010.407334883534 0 0,0 -1827.5795249999987,-0.0" stroke="rgb(69,54,255)" stroke-width="2" /><path d="M 2795.2553249999987,75.0 a 10010.407334883534,10010.407334883534 0 0,0 -1827.5795249999987,-0.0" stroke="rgb(0,0,0)" stroke-width="0.2" /><path d="M 1657.3870999999997,75.0 a 94.94420327348138,94.94420327348138 0 0,0 -63.32849999999985,-0.0" stroke="rgb(215,168,255)" stroke-width="2" /><path d="M 1657.3870999999997,75.0 a 94.94420327348138,94.94420327348138 0 0,0 -63.32849999999985,-0.0" stroke="rgb(0,0,0)" stroke-width="0.2" /><path d="M 2735.1747749999986,75.0 a 1797.5147288285357,1797.5147288285357 0 0,0 -642.8830749999993,-0.0" stroke="rgb(56,44,255)" stroke-width="2" /><path d="M 2735.1747749999986,75.0 a 1797.5147288285357,1797.5147288285357 0 0,0 -642.8830749999993,-0.0" stroke="rgb(0,0,0)" stroke-width="0.2" /><path d="M 2237.3501999999994,75.0 a 178.32270744006502,178.32270744006502 0 0,0 -111.11425000000008,-0.0" stroke="rgb(174,136,255)" stroke-width="2" /><path d="M 2237.3501999999994,75.0 a 178.32270744006502,178.32270744006502 0 0,0 -111.11425000000008,-0.0" stroke="rgb(0,0,0)" stroke-width="0.2" /><path d="M 2199.441125,75.0 a 49.59055821018475,49.59055821018475 0 0,0 -34.53814999999986,-0.0" stroke="rgb(123,96,255)" stroke-width="2" /><path d="M 2199.441125,75.0 a 49.59055821018475,49.59055821018475 0 0,0 -34.53814999999986,-0.0" stroke="rgb(0,0,0)" stroke-width="0.2" /><path d="M 2833.9974999999986,75.0 a 354.737390032106,354.737390032106 0 0,0 -197.4470499999993,-0.0" stroke="rgb(82,64,255)" stroke-width="2" /><path d="M 2833.9974999999986,75.0 a 354.737390032106,354.737390032106 0 0,0 -197.4470499999993,-0.0" stroke="rgb(0,0,0)" stroke-width="0.2" /><path d="M 2763.0746249999993,75.0 a 82.37336064447143,82.37336064447143 0 0,0 -55.57722500000045,-0.0" stroke="rgb(163,127,255)" stroke-width="2" /><path d="M 2763.0746249999993,75.0 a 82.37336064447143,82.37336064447143 0 0,0 -55.57722500000045,-0.0" stroke="rgb(0,0,0)" stroke-width="0.2" /></svg>