<?xml version="1.0" encoding="utf-8" ?>
<svg baseProfile="full" height="100%" style="font-size:14;font-family:Sans, Arial;stroke-width:1;fill:none" version="1.1" width="100%" xmlns="http://www.w3.org/2000/svg" xmlns:ev="http://www.w3.org/2001/xml-events" xmlns:xlink="http://www.w3.org/1999/xlink"><defs /><rect fill="none" height="280.0" stroke="none" width="2845.0" x="0" y="0" /><line stroke="rgb(0,0,0)" x1="5.0" x2="25.0" y1="55.0" y2="55.0" /><line stroke="rgb(0,0,0)" x1="25.0" x2="60.0" y1="55.0" y2="130.0" /><line stroke="rgb(0,0,0)" x1="60.0" x2="65.0" y1="130.0" y2="130.0" /><line stroke="rgb(0,0,0)" x1="65.0" x2="85.0" y1="130.0" y2="130.0" /><line stroke="rgb(0,0,0)" x1="85.0" x2="105.0" y1="130.0" y2="130.0" /><line stroke="rgb(0,0,0)" x1="105.0" x2="110.0" y1="130.0" y2="130.0" /><line stroke="rgb(0,0,0)" x1="5.0" x2="40.0" y1="205.0" y2="205.0" /><line stroke="rgb(0,0,0)" x1="40.0" x2="105.0" y1="205.0" y2="130.0" /><line stroke="rgb(0,0,0)" x1="105.0" x2="110.0" y1="130.0" y2="130.0" /><line stroke="rgb(0,0,0)" x1="110.0" x2="175.0" y1="130.0" y2="130.0" /><line stroke="rgb(0,0,0)" x1="175.0" x2="195.0" y1="130.0" y2="130.0" /><line stroke="rgb(0,0,0)" x1="195.0" x2="200.0" y1="130.0" y2="130.0" /><line stroke="rgb(0,0,0)" x1="200.0" x2="205.0" y1="130.0" y2="130.0" /><line stroke="rgb(0,0,0)" x1="205.0" x2="225.0" y1="130.0" y2="130.0" /><line stroke="rgb(0,0,0)" x1="225.0" x2="230.0" y1="130.0" y2="130.0" /><line stroke="rgb(0,0,0)" x1="230.0" x2="310.0" y1="130.0" y2="130.0" /><line stroke="rgb(0,0,0)" x1="310.0" x2="330.0" y1="130.0" y2="55.0" /><line stroke="rgb(0,0,0)" x1="330.0" x2="335.0" y1="55.0" y2="55.0" /><line stroke="rgb(0,0,0)" x1="230.0" x2="310.0" y1="130.0" y2="130.0" /><line stroke="rgb(0,0,0)" x1="310.0" x2="330.0" y1="130.0" y2="205.0" /><line stroke="rgb(0,0,0)" x1="330.0" x2="335.0" y1="205.0" y2="205.0" /><line stroke="rgb(0,0,0)" x1="335.0" x2="370.0" y1="55.0" y2="55.0" /><line stroke="rgb(0,0,0)" x1="370.0" x2="390.0" y1="55.0" y2="130.0" /><line stroke="rgb(0,0,0)" x1="390.0" x2="395.0" y1="130.0" y2="130.0" /><line stroke="rgb(0,0,0)" x1="395.0" x2="505.0" y1="130.0" y2="130.0" /><line stroke="rgb(0,0,0)" x1="505.0" x2="525.0" y1="130.0" y2="130.0" /><line stroke="rgb(0,0,0)" x1="525.0" x2="530.0" y1="130.0" y2="130.0" /><line stroke="rgb(0,0,0)" x1="530.0" x2="535.0" y1="130.0" y2="130.0" /><line stroke="rgb(0,0,0)" x1="535.0" x2="555.0" y1="130.0" y2="130.0" /><line stroke="rgb(0,0,0)" x1="555.0" x2="560.0" y1="130.0" y2="130.0" /><line stroke="rgb(0,0,0)" x1="335.0" x2="370.0" y1="205.0" y2="205.0" /><line stroke="rgb(0,0,0)" x1="370.0" x2="555.0" y1="205.0" y2="130.0" /><line stroke="rgb(0,0,0)" x1="555.0" x2="560.0" y1="130.0" y2="130.0" /><line stroke="rgb(0,0,0)" x1="560.0" x2="615.0" y1="130.0" y2="130.0" /><line stroke="rgb(0,0,0)" x1="615.0" x2="635.0" y1="130.0" y2="130.0" /><line stroke="rgb(0,0,0)" x1="635.0" x2="640.0" y1="130.0" y2="130.0" /><line stroke="rgb(0,0,0)" x1="640.0" x2="655.0" y1="130.0" y2="130.0" /><line stroke="rgb(0,0,0)" x1="655.0" x2="675.0" y1="130.0" y2="130.0" /><line stroke="rgb(0,0,0)" x1="675.0" x2="680.0" y1="130.0" y2="130.0" /><line stroke="rgb(0,0,0)" x1="680.0" x2="695.0" y1="130.0" y2="130.0" /><line stroke="rgb(0,0,0)" x1="695.0" x2="715.0" y1="130.0" y2="130.0" /><line stroke="rgb(0,0,0)" x1="715.0" x2="720.0" y1="130.0" y2="130.0" /><line stroke="rgb(0,0,0)" x1="720.0" x2="755.0" y1="130.0" y2="130.0" /><line stroke="rgb(0,0,0)" x1="755.0" x2="775.0" y1="130.0" y2="130.0" /><line stroke="rgb(0,0,0)" x1="775.0" x2="780.0" y1="130.0" y2="130.0" /><line stroke="rgb(0,0,0)" x1="780.0" x2="800.0" y1="130.0" y2="130.0" /><line stroke="rgb(0,0,0)" x1="800.0" x2="820.0" y1="130.0" y2="130.0" /><line stroke="rgb(0,0,0)" x1="820.0" x2="825.0" y1="130.0" y2="130.0" /><line stroke="rgb(0,0,0)" x1="825.0" x2="870.0" y1="130.0" y2="130.0" /><line stroke="rgb(0,0,0)" x1="870.0" x2="890.0" y1="130.0" y2="130.0" /><line stroke="rgb(0,0,0)" x1="890.0" x2="895.0" y1="130.0" y2="130.0" /><line stroke="rgb(0,0,0)" x1="895.0" x2="920.0" y1="130.0" y2="130.0" /><line stroke="rgb(0,0,0)" x1="920.0" x2="940.0" y1="130.0" y2="130.0" /><line stroke="rgb(0,0,0)" x1="940.0" x2="945.0" y1="130.0" y2="130.0" /><line stroke="rgb(0,0,0)" x1="945.0" x2="965.0" y1="130.0" y2="130.0" /><line stroke="rgb(0,0,0)" x1="965.0" x2="985.0" y1="130.0" y2="130.0" /><line stroke="rgb(0,0,0)" x1="985.0" x2="990.0" y1="130.0" y2="130.0" /><line stroke="rgb(0,0,0)" x1="990.0" x2="1050.0" y1="130.0" y2="130.0" /><line stroke="rgb(0,0,0)" x1="1050.0" x2="1070.0" y1="130.0" y2="130.0" /><line stroke="rgb(0,0,0)" x1="1070.0" x2="1075.0" y1="130.0" y2="130.0" /><line stroke="rgb(0,0,0)" x1="1075.0" x2="1105.0" y1="130.0" y2="130.0" /><line stroke="rgb(0,0,0)" x1="1105.0" x2="1125.0" y1="130.0" y2="130.0" /><line stroke="rgb(0,0,0)" x1="1125.0" x2="1130.0" y1="130.0" y2="130.0" /><line stroke="rgb(0,0,0)" x1="1130.0" x2="1140.0" y1="130.0" y2="130.0" /><line stroke="rgb(0,0,0)" x1="1140.0" x2="1160.0" y1="130.0" y2="130.0" /><line stroke="rgb(0,0,0)" x1="1160.0" x2="1165.0" y1="130.0" y2="130.0" /><line stroke="rgb(0,0,0)" x1="1165.0" x2="1200.0" y1="130.0" y2="130.0" /><line stroke="rgb(0,0,0)" x1="1200.0" x2="1220.0" y1="130.0" y2="130.0" /><line stroke="rgb(0,0,0)" x1="1220.0" x2="1225.0" y1="130.0" y2="130.0" /><line stroke="rgb(0,0,0)" x1="1225.0" x2="1285.0" y1="130.0" y2="130.0" /><line stroke="rgb(0,0,0)" x1="1285.0" x2="1305.0" y1="130.0" y2="130.0" /><line stroke="rgb(0,0,0)" x1="1305.0" x2="1310.0" y1="130.0" y2="130.0" /><line stroke="rgb(0,0,0)" x1="1310.0" x2="1325.0" y1="130.0" y2="130.0" /><line stroke="rgb(0,0,0)" x1="1325.0" x2="1345.0" y1="130.0" y2="130.0" /><line stroke="rgb(0,0,0)" x1="1345.0" x2="1350.0" y1="130.0" y2="130.0" /><line stroke="rgb(0,0,0)" x1="1350.0" x2="1390.0" y1="130.0" y2="130.0" /><line stroke="rgb(0,0,0)" x1="1390.0" x2="1410.0" y1="130.0" y2="130.0" /><line stroke="rgb(0,0,0)" x1="1410.0" x2="1415.0" y1="130.0" y2="130.0" /><line stroke="rgb(0,0,0)" x1="1415.0" x2="1475.0" y1="130.0" y2="130.0" /><line stroke="rgb(0,0,0)" x1="1475.0" x2="1495.0" y1="130.0" y2="130.0" /><line stroke="rgb(0,0,0)" x1="1495.0" x2="1500.0" y1="130.0" y2="130.0" /><line stroke="rgb(0,0,0)" x1="1500.0" x2="1535.0" y1="130.0" y2="130.0" /><line stroke="rgb(0,0,0)" x1="1535.0" x2="1555.0" y1="130.0" y2="130.0" /><line stroke="rgb(0,0,0)" x1="1555.0" x2="1560.0" y1="130.0" y2="130.0" /><line stroke="rgb(0,0,0)" x1="1560.0" x2="1600.0" y1="130.0" y2="130.0" /><line stroke="rgb(0,0,0)" x1="1600.0" x2="1620.0" y1="130.0" y2="130.0" /><line stroke="rgb(0,0,0)" x1="1620.0" x2="1625.0" y1="130.0" y2="130.0" /><line stroke="rgb(0,0,0)" x1="1625.0" x2="1650.0" y1="130.0" y2="130.0" /><line stroke="rgb(0,0,0)" x1="1650.0" x2="1670.0" y1="130.0" y2="130.0" /><line stroke="rgb(0,0,0)" x1="1670.0" x2="1675.0" y1="130.0" y2="130.0" /><line stroke="rgb(0,0,0)" x1="1675.0" x2="1700.0" y1="130.0" y2="130.0" /><line stroke="rgb(0,0,0)" x1="1700.0" x2="1720.0" y1="130.0" y2="130.0" /><line stroke="rgb(0,0,0)" x1="1720.0" x2="1725.0" y1="130.0" y2="130.0" /><line stroke="rgb(0,0,0)" x1="1725.0" x2="1835.0" y1="130.0" y2="130.0" /><line stroke="rgb(0,0,0)" x1="1835.0" x2="1855.0" y1="130.0" y2="130.0" /><line stroke="rgb(0,0,0)" x1="1855.0" x2="1860.0" y1="130.0" y2="130.0" /><line stroke="rgb(0,0,0)" x1="1860.0" x2="1905.0" y1="130.0" y2="130.0" /><line stroke="rgb(0,0,0)" x1="1905.0" x2="1925.0" y1="130.0" y2="130.0" /><line stroke="rgb(0,0,0)" x1="1925.0" x2="1930.0" y1="130.0" y2="130.0" /><line stroke="rgb(0,0,0)" x1="1930.0" x2="1940.0" y1="130.0" y2="130.0" /><line stroke="rgb(0,0,0)" x1="1940.0" x2="1960.0" y1="130.0" y2="130.0" /><line stroke="rgb(0,0,0)" x1="1960.0" x2="1965.0" y1="130.0" y2="130.0" /><line stroke="rgb(0,0,0)" x1="1965.0" x2="1985.0" y1="130.0" y2="130.0" /><line stroke="rgb(0,0,0)" x1="1985.0" x2="2005.0" y1="130.0" y2="130.0" /><line stroke="rgb(0,0,0)" x1="2005.0" x2="2010.0" y1="130.0" y2="130.0" /><line stroke="rgb(0,0,0)" x1="2010.0" x2="2020.0" y1="130.0" y2="130.0" /><line stroke="rgb(0,0,0)" x1="2020.0" x2="2040.0" y1="130.0" y2="130.0" /><line stroke="rgb(0,0,0)" x1="2040.0" x2="2045.0" y1="130.0" y2="130.0" /><line stroke="rgb(0,0,0)" x1="2045.0" x2="2095.0" y1="130.0" y2="130.0" /><line stroke="rgb(0,0,0)" x1="2095.0" x2="2115.0" y1="130.0" y2="55.0" /><line stroke="rgb(0,0,0)" x1="2115.0" x2="2120.0" y1="55.0" y2="55.0" /><line stroke="rgb(0,0,0)" x1="2045.0" x2="2095.0" y1="130.0" y2="130.0" /><line stroke="rgb(0,0,0)" x1="2095.0" x2="2115.0" y1="130.0" y2="205.0" /><line stroke="rgb(0,0,0)" x1="2115.0" x2="2120.0" y1="205.0" y2="205.0" /><line stroke="rgb(0,0,0)" x1="2120.0" x2="2145.0" y1="55.0" y2="55.0" /><line stroke="rgb(0,0,0)" x1="2145.0" x2="2170.0" y1="55.0" y2="55.0" /><line stroke="rgb(0,0,0)" x1="2170.0" x2="2175.0" y1="55.0" y2="55.0" /><line stroke="rgb(0,0,0)" x1="2120.0" x2="2150.0" y1="205.0" y2="205.0" /><line stroke="rgb(0,0,0)" x1="2150.0" x2="2170.0" y1="205.0" y2="205.0" /><line stroke="rgb(0,0,0)" x1="2170.0" x2="2175.0" y1="205.0" y2="205.0" /><line stroke="rgb(0,0,0)" x1="2175.0" x2="2200.0" y1="55.0" y2="55.0" /><line stroke="rgb(0,0,0)" x1="2200.0" x2="2225.0" y1="55.0" y2="130.0" /><line stroke="rgb(0,0,0)" x1="2225.0" x2="2230.0" y1="130.0" y2="130.0" /><line stroke="rgb(0,0,0)" x1="2230.0" x2="2270.0" y1="130.0" y2="130.0" /><line stroke="rgb(0,0,0)" x1="2270.0" x2="2290.0" y1="130.0" y2="130.0" /><line stroke="rgb(0,0,0)" x1="2290.0" x2="2295.0" y1="130.0" y2="130.0" /><line stroke="rgb(0,0,0)" x1="2295.0" x2="2315.0" y1="130.0" y2="130.0" /><line stroke="rgb(0,0,0)" x1="2315.0" x2="2335.0" y1="130.0" y2="130.0" /><line stroke="rgb(0,0,0)" x1="2335.0" x2="2340.0" y1="130.0" y2="130.0" /><line stroke="rgb(0,0,0)" x1="2175.0" x2="2205.0" y1="205.0" y2="205.0" /><line stroke="rgb(0,0,0)" x1="2205.0" x2="2335.0" y1="205.0" y2="130.0" /><line stroke="rgb(0,0,0)" x1="2335.0" x2="2340.0" y1="130.0" y2="130.0" /><line stroke="rgb(0,0,0)" x1="2340.0" x2="2390.0" y1="130.0" y2="130.0" /><line stroke="rgb(0,0,0)" x1="2390.0" x2="2410.0" y1="130.0" y2="130.0" /><line stroke="rgb(0,0,0)" x1="2410.0" x2="2415.0" y1="130.0" y2="130.0" /><line stroke="rgb(0,0,0)" x1="2415.0" x2="2445.0" y1="130.0" y2="130.0" /><line stroke="rgb(0,0,0)" x1="2445.0" x2="2465.0" y1="130.0" y2="130.0" /><line stroke="rgb(0,0,0)" x1="2465.0" x2="2470.0" y1="130.0" y2="130.0" /><line stroke="rgb(0,0,0)" x1="2470.0" x2="2530.0" y1="130.0" y2="130.0" /><line stroke="rgb(0,0,0)" x1="2530.0" x2="2550.0" y1="130.0" y2="130.0" /><line stroke="rgb(0,0,0)" x1="2550.0" x2="2555.0" y1="130.0" y2="130.0" /><line stroke="rgb(0,0,0)" x1="2555.0" x2="2580.0" y1="130.0" y2="130.0" /><line stroke="rgb(0,0,0)" x1="2580.0" x2="2600.0" y1="130.0" y2="130.0" /><line stroke="rgb(0,0,0)" x1="2600.0" x2="2605.0" y1="130.0" y2="130.0" /><line stroke="rgb(0,0,0)" x1="2605.0" x2="2645.0" y1="130.0" y2="130.0" /><line stroke="rgb(0,0,0)" x1="2645.0" x2="2665.0" y1="130.0" y2="130.0" /><line stroke="rgb(0,0,0)" x1="2665.0" x2="2670.0" y1="130.0" y2="130.0" /><line stroke="rgb(0,0,0)" x1="2670.0" x2="2750.0" y1="130.0" y2="130.0" /><line stroke="rgb(0,0,0)" x1="2750.0" x2="2770.0" y1="130.0" y2="130.0" /><line stroke="rgb(0,0,0)" x1="2770.0" x2="2775.0" y1="130.0" y2="130.0" /><line stroke="rgb(0,0,0)" x1="2775.0" x2="2790.0" y1="130.0" y2="130.0" /><line stroke="rgb(0,0,0)" x1="2790.0" x2="2810.0" y1="130.0" y2="130.0" /><line stroke="rgb(0,0,0)" x1="2810.0" x2="2815.0" y1="130.0" y2="130.0" /><polygon fill="rgb(150,255,255)" points="20.0,55.0 20.0,54.8 17.5,54.8 17.5,54.6 12.5,54.6 12.5,54.6 7.5,54.6 7.5,54.8 5.0,54.8 5.0,55.0 5.0,55.0 5.0,55.2 7.5,55.2 7.5,55.4 12.5,55.4 12.5,55.4 17.5,55.4 17.5,55.2 20.0,55.2 20.0,55.0" stroke="rgb(0,0,0)" /><text fill="black" x="5.0" y="75.4">E0</text><polygon fill="rgb(150,150,150)" points="35.0,205.0 35.0,204.8 32.5,204.8 32.5,204.6 30.0,204.6 30.0,204.2 27.5,204.2 27.5,202.4 20.0,202.4 20.0,202.4 12.5,202.4 12.5,204.2 10.0,204.2 10.0,204.6 7.5,204.6 7.5,204.8 5.0,204.8 5.0,205.0 5.0,205.0 5.0,205.2 7.5,205.2 7.5,205.4 10.0,205.4 10.0,205.8 12.5,205.8 12.5,207.6 20.0,207.6 20.0,207.6 27.5,207.6 27.5,205.8 30.0,205.8 30.0,205.4 32.5,205.4 32.5,205.2 35.0,205.2 35.0,205.0" stroke="rgb(0,0,0)" /><text fill="black" x="5.0" y="227.6">H1</text><polygon fill="rgb(150,255,255)" points="80.0,130.0 80.0,129.8 77.5,129.8 77.5,129.6 72.5,129.6 72.5,129.6 67.5,129.6 67.5,129.8 65.0,129.8 65.0,130.0 65.0,130.0 65.0,130.2 67.5,130.2 67.5,130.4 72.5,130.4 72.5,130.4 77.5,130.4 77.5,130.2 80.0,130.2 80.0,130.0" stroke="rgb(0,0,0)" /><text fill="black" x="65.0" y="150.4">E2</text><polygon fill="rgb(150,150,150)" points="170.0,130.0 170.0,129.8 167.5,129.8 167.5,129.6 162.5,129.6 162.5,129.4 160.0,129.4 160.0,128.8 157.5,128.8 157.5,128.6 152.5,128.6 152.5,128.4 150.0,128.4 150.0,128.0 147.5,128.0 147.5,127.39999999999999 140.0,127.39999999999999 140.0,127.39999999999999 132.5,127.39999999999999 132.5,128.0 130.0,128.0 130.0,128.4 127.5,128.4 127.5,128.6 122.5,128.6 122.5,128.8 120.0,128.8 120.0,129.4 117.5,129.4 117.5,129.6 112.5,129.6 112.5,129.8 110.0,129.8 110.0,130.0 110.0,130.0 110.0,130.2 112.5,130.2 112.5,130.4 117.5,130.4 117.5,130.6 120.0,130.6 120.0,131.2 122.5,131.2 122.5,131.4 127.5,131.4 127.5,131.6 130.0,131.6 130.0,132.0 132.5,132.0 132.5,132.6 140.0,132.6 140.0,132.6 147.5,132.6 147.5,132.0 150.0,132.0 150.0,131.6 152.5,131.6 152.5,131.4 157.5,131.4 157.5,131.2 160.0,131.2 160.0,130.6 162.5,130.6 162.5,130.4 167.5,130.4 167.5,130.2 170.0,130.2 170.0,130.0" stroke="rgb(0,0,0)" /><text fill="black" x="110.0" y="152.6">H3</text><polygon fill="rgb(150,150,150)" points="200.0,130.0 200.0,130.0 200.0,130.0 200.0,130.0" stroke="rgb(0,0,0)" /><text fill="black" x="200.0" y="150.0">X4</text><polygon fill="rgb(150,150,150)" points="305.0,130.0 305.0,129.8 302.5,129.8 302.5,129.6 297.5,129.6 297.5,129.2 295.0,129.2 295.0,128.8 267.5,128.8 267.5,128.8 240.0,128.8 240.0,129.2 237.5,129.2 237.5,129.6 232.5,129.6 232.5,129.8 230.0,129.8 230.0,130.0 230.0,130.0 230.0,130.2 232.5,130.2 232.5,130.4 237.5,130.4 237.5,130.8 240.0,130.8 240.0,131.2 267.5,131.2 267.5,131.2 295.0,131.2 295.0,130.8 297.5,130.8 297.5,130.4 302.5,130.4 302.5,130.2 305.0,130.2 305.0,130.0" stroke="rgb(0,0,0)" /><text fill="black" x="230.0" y="151.2">H5</text><polygon fill="rgb(150,150,150)" points="365.0,55.0 365.0,54.6 350.0,54.6 350.0,54.6 335.0,54.6 335.0,55.0 335.0,55.0 335.0,55.4 350.0,55.4 350.0,55.4 365.0,55.4 365.0,55.0" stroke="rgb(0,0,0)" /><text fill="black" x="335.0" y="75.4">H6</text><polygon fill="rgb(150,150,255)" points="365.0,205.0 365.0,204.0 362.5,204.0 362.5,202.8 360.0,202.8 360.0,202.6 357.5,202.6 357.5,202.4 355.0,202.4 355.0,201.4 352.5,201.4 352.5,200.6 350.0,200.6 350.0,200.6 347.5,200.6 347.5,201.4 345.0,201.4 345.0,202.4 342.5,202.4 342.5,202.6 340.0,202.6 340.0,202.8 337.5,202.8 337.5,204.0 335.0,204.0 335.0,205.0 335.0,205.0 335.0,206.0 337.5,206.0 337.5,207.2 340.0,207.2 340.0,207.4 342.5,207.4 342.5,207.6 345.0,207.6 345.0,208.6 347.5,208.6 347.5,209.4 350.0,209.4 350.0,209.4 352.5,209.4 352.5,208.6 355.0,208.6 355.0,207.6 357.5,207.6 357.5,207.4 360.0,207.4 360.0,207.2 362.5,207.2 362.5,206.0 365.0,206.0 365.0,205.0" stroke="rgb(0,0,0)" /><text fill="black" x="335.0" y="229.4">E7</text><polygon fill="rgb(150,150,150)" points="500.0,130.0 500.0,129.8 472.5,129.8 472.5,129.6 447.5,129.6 447.5,129.6 422.5,129.6 422.5,129.8 395.0,129.8 395.0,130.0 395.0,130.0 395.0,130.2 422.5,130.2 422.5,130.4 447.5,130.4 447.5,130.4 472.5,130.4 472.5,130.2 500.0,130.2 500.0,130.0" stroke="rgb(0,0,0)" /><text fill="black" x="395.0" y="150.4">H8</text><polygon fill="rgb(150,150,150)" points="530.0,130.0 530.0,130.0 530.0,130.0 530.0,130.0" stroke="rgb(0,0,0)" /><text fill="black" x="530.0" y="150.0">X9</text><polygon fill="rgb(150,150,150)" points="610.0,130.0 610.0,129.6 595.0,129.6 595.0,129.4 592.5,129.4 592.5,127.0 585.0,127.0 585.0,127.0 577.5,127.0 577.5,129.4 575.0,129.4 575.0,129.6 560.0,129.6 560.0,130.0 560.0,130.0 560.0,130.4 575.0,130.4 575.0,130.6 577.5,130.6 577.5,133.0 585.0,133.0 585.0,133.0 592.5,133.0 592.5,130.6 595.0,130.6 595.0,130.4 610.0,130.4 610.0,130.0" stroke="rgb(0,0,0)" /><text fill="black" x="560.0" y="153.0">H10</text><polygon fill="rgb(150,150,255)" points="650.0,130.0 650.0,129.4 647.5,129.4 647.5,129.2 645.0,129.2 645.0,129.2 642.5,129.2 642.5,129.4 640.0,129.4 640.0,130.0 640.0,130.0 640.0,130.6 642.5,130.6 642.5,130.8 645.0,130.8 645.0,130.8 647.5,130.8 647.5,130.6 650.0,130.6 650.0,130.0" stroke="rgb(0,0,0)" /><text fill="black" x="640.0" y="150.8">E11</text><polygon fill="rgb(150,150,255)" points="690.0,130.0 690.0,129.0 687.5,129.0 687.5,128.0 685.0,128.0 685.0,128.0 682.5,128.0 682.5,129.0 680.0,129.0 680.0,130.0 680.0,130.0 680.0,131.0 682.5,131.0 682.5,132.0 685.0,132.0 685.0,132.0 687.5,132.0 687.5,131.0 690.0,131.0 690.0,130.0" stroke="rgb(0,0,0)" /><text fill="black" x="680.0" y="152.0">E12</text><polygon fill="rgb(150,150,255)" points="750.0,130.0 750.0,129.0 747.5,129.0 747.5,127.8 745.0,127.8 745.0,127.6 742.5,127.6 742.5,127.39999999999999 740.0,127.39999999999999 740.0,126.8 735.0,126.8 735.0,126.8 730.0,126.8 730.0,127.39999999999999 727.5,127.39999999999999 727.5,127.6 725.0,127.6 725.0,127.8 722.5,127.8 722.5,129.0 720.0,129.0 720.0,130.0 720.0,130.0 720.0,131.0 722.5,131.0 722.5,132.2 725.0,132.2 725.0,132.4 727.5,132.4 727.5,132.6 730.0,132.6 730.0,133.2 735.0,133.2 735.0,133.2 740.0,133.2 740.0,132.6 742.5,132.6 742.5,132.4 745.0,132.4 745.0,132.2 747.5,132.2 747.5,131.0 750.0,131.0 750.0,130.0" stroke="rgb(0,0,0)" /><text fill="black" x="720.0" y="153.2">E13</text><polygon fill="rgb(255,150,150)" points="795.0,130.0 795.0,129.6 792.5,129.6 792.5,127.39999999999999 790.0,127.39999999999999 790.0,116.2 787.5,116.2 787.5,116.2 785.0,116.2 785.0,127.39999999999999 782.5,127.39999999999999 782.5,129.6 780.0,129.6 780.0,130.0 780.0,130.0 780.0,130.4 782.5,130.4 782.5,132.6 785.0,132.6 785.0,143.8 787.5,143.8 787.5,143.8 790.0,143.8 790.0,132.6 792.5,132.6 792.5,130.4 795.0,130.4 795.0,130.0" stroke="rgb(0,0,0)" /><text fill="black" x="780.0" y="163.8">E14</text><polygon fill="rgb(150,150,150)" points="865.0,130.0 865.0,129.8 860.0,129.8 860.0,129.6 857.5,129.6 857.5,127.6 855.0,127.6 855.0,113.4 852.5,113.4 852.5,94.6 845.0,94.6 845.0,94.6 837.5,94.6 837.5,113.4 835.0,113.4 835.0,127.6 832.5,127.6 832.5,129.6 830.0,129.6 830.0,129.8 825.0,129.8 825.0,130.0 825.0,130.0 825.0,130.2 830.0,130.2 830.0,130.4 832.5,130.4 832.5,132.4 835.0,132.4 835.0,146.6 837.5,146.6 837.5,165.4 845.0,165.4 845.0,165.4 852.5,165.4 852.5,146.6 855.0,146.6 855.0,132.4 857.5,132.4 857.5,130.4 860.0,130.4 860.0,130.2 865.0,130.2 865.0,130.0" stroke="rgb(0,0,0)" /><text fill="black" x="825.0" y="185.4">H15</text><polygon fill="rgb(255,150,150)" points="915.0,130.0 915.0,129.2 912.5,129.2 912.5,127.2 910.0,127.2 910.0,126.4 907.5,126.4 907.5,125.4 905.0,125.4 905.0,125.4 902.5,125.4 902.5,126.4 900.0,126.4 900.0,127.2 897.5,127.2 897.5,129.2 895.0,129.2 895.0,130.0 895.0,130.0 895.0,130.8 897.5,130.8 897.5,132.8 900.0,132.8 900.0,133.6 902.5,133.6 902.5,134.6 905.0,134.6 905.0,134.6 907.5,134.6 907.5,133.6 910.0,133.6 910.0,132.8 912.5,132.8 912.5,130.8 915.0,130.8 915.0,130.0" stroke="rgb(0,0,0)" /><text fill="black" x="895.0" y="154.6">E16</text><polygon fill="rgb(150,150,150)" points="960.0,130.0 960.0,128.4 952.5,128.4 952.5,128.4 945.0,128.4 945.0,130.0 945.0,130.0 945.0,131.6 952.5,131.6 952.5,131.6 960.0,131.6 960.0,130.0" stroke="rgb(0,0,0)" /><text fill="black" x="945.0" y="151.6">H17</text><polygon fill="rgb(255,150,150)" points="1045.0,130.0 1045.0,129.8 1042.5,129.8 1042.5,119.8 1040.0,119.8 1040.0,100.2 1037.5,100.2 1037.5,93.80000000000001 1035.0,93.80000000000001 1035.0,93.0 1032.5,93.0 1032.5,87.80000000000001 1030.0,87.80000000000001 1030.0,87.0 1027.5,87.0 1027.5,86.4 1020.0,86.4 1020.0,86.0 1017.5,86.0 1017.5,86.0 1015.0,86.0 1015.0,86.4 1007.5,86.4 1007.5,87.0 1005.0,87.0 1005.0,87.80000000000001 1002.5,87.80000000000001 1002.5,93.0 1000.0,93.0 1000.0,93.80000000000001 997.5,93.80000000000001 997.5,100.2 995.0,100.2 995.0,119.8 992.5,119.8 992.5,129.8 990.0,129.8 990.0,130.0 990.0,130.0 990.0,130.2 992.5,130.2 992.5,140.2 995.0,140.2 995.0,159.8 997.5,159.8 997.5,166.2 1000.0,166.2 1000.0,167.0 1002.5,167.0 1002.5,172.2 1005.0,172.2 1005.0,173.0 1007.5,173.0 1007.5,173.6 1015.0,173.6 1015.0,174.0 1017.5,174.0 1017.5,174.0 1020.0,174.0 1020.0,173.6 1027.5,173.6 1027.5,173.0 1030.0,173.0 1030.0,172.2 1032.5,172.2 1032.5,167.0 1035.0,167.0 1035.0,166.2 1037.5,166.2 1037.5,159.8 1040.0,159.8 1040.0,140.2 1042.5,140.2 1042.5,130.2 1045.0,130.2 1045.0,130.0" stroke="rgb(0,0,0)" /><text fill="black" x="990.0" y="194.0">E18</text><polygon fill="rgb(150,150,150)" points="1100.0,130.0 1100.0,129.8 1097.5,129.8 1097.5,129.6 1095.0,129.6 1095.0,129.0 1087.5,129.0 1087.5,129.0 1080.0,129.0 1080.0,129.6 1077.5,129.6 1077.5,129.8 1075.0,129.8 1075.0,130.0 1075.0,130.0 1075.0,130.2 1077.5,130.2 1077.5,130.4 1080.0,130.4 1080.0,131.0 1087.5,131.0 1087.5,131.0 1095.0,131.0 1095.0,130.4 1097.5,130.4 1097.5,130.2 1100.0,130.2 1100.0,130.0" stroke="rgb(0,0,0)" /><text fill="black" x="1075.0" y="151.0">H19</text><polygon fill="rgb(255,150,150)" points="1135.0,130.0 1135.0,129.8 1132.5,129.8 1132.5,129.8 1130.0,129.8 1130.0,130.0 1130.0,130.0 1130.0,130.2 1132.5,130.2 1132.5,130.2 1135.0,130.2 1135.0,130.0" stroke="rgb(0,0,0)" /><text fill="black" x="1130.0" y="150.2">E20</text><polygon fill="rgb(255,150,150)" points="1195.0,130.0 1195.0,129.8 1192.5,129.8 1192.5,129.2 1190.0,129.2 1190.0,127.2 1187.5,127.2 1187.5,126.4 1185.0,126.4 1185.0,126.0 1182.5,126.0 1182.5,125.0 1180.0,125.0 1180.0,125.0 1177.5,125.0 1177.5,126.0 1175.0,126.0 1175.0,126.4 1172.5,126.4 1172.5,127.2 1170.0,127.2 1170.0,129.2 1167.5,129.2 1167.5,129.8 1165.0,129.8 1165.0,130.0 1165.0,130.0 1165.0,130.2 1167.5,130.2 1167.5,130.8 1170.0,130.8 1170.0,132.8 1172.5,132.8 1172.5,133.6 1175.0,133.6 1175.0,134.0 1177.5,134.0 1177.5,135.0 1180.0,135.0 1180.0,135.0 1182.5,135.0 1182.5,134.0 1185.0,134.0 1185.0,133.6 1187.5,133.6 1187.5,132.8 1190.0,132.8 1190.0,130.8 1192.5,130.8 1192.5,130.2 1195.0,130.2 1195.0,130.0" stroke="rgb(0,0,0)" /><text fill="black" x="1165.0" y="155.0">E21</text><polygon fill="rgb(255,150,150)" points="1280.0,130.0 1280.0,129.8 1277.5,129.8 1277.5,129.6 1275.0,129.6 1275.0,127.8 1272.5,127.8 1272.5,104.8 1270.0,104.8 1270.0,87.80000000000001 1267.5,87.80000000000001 1267.5,82.2 1265.0,82.2 1265.0,81.0 1262.5,81.0 1262.5,80.6 1260.0,80.6 1260.0,80.4 1257.5,80.4 1257.5,80.0 1252.5,80.0 1252.5,80.0 1247.5,80.0 1247.5,80.4 1245.0,80.4 1245.0,80.6 1242.5,80.6 1242.5,81.0 1240.0,81.0 1240.0,82.2 1237.5,82.2 1237.5,87.80000000000001 1235.0,87.80000000000001 1235.0,104.8 1232.5,104.8 1232.5,127.8 1230.0,127.8 1230.0,129.6 1227.5,129.6 1227.5,129.8 1225.0,129.8 1225.0,130.0 1225.0,130.0 1225.0,130.2 1227.5,130.2 1227.5,130.4 1230.0,130.4 1230.0,132.2 1232.5,132.2 1232.5,155.2 1235.0,155.2 1235.0,172.2 1237.5,172.2 1237.5,177.8 1240.0,177.8 1240.0,179.0 1242.5,179.0 1242.5,179.4 1245.0,179.4 1245.0,179.6 1247.5,179.6 1247.5,180.0 1252.5,180.0 1252.5,180.0 1257.5,180.0 1257.5,179.6 1260.0,179.6 1260.0,179.4 1262.5,179.4 1262.5,179.0 1265.0,179.0 1265.0,177.8 1267.5,177.8 1267.5,172.2 1270.0,172.2 1270.0,155.2 1272.5,155.2 1272.5,132.2 1275.0,132.2 1275.0,130.4 1277.5,130.4 1277.5,130.2 1280.0,130.2 1280.0,130.0" stroke="rgb(0,0,0)" /><text fill="black" x="1225.0" y="200.0">E22</text><polygon fill="rgb(255,150,150)" points="1320.0,130.0 1320.0,129.8 1315.0,129.8 1315.0,129.8 1310.0,129.8 1310.0,130.0 1310.0,130.0 1310.0,130.2 1315.0,130.2 1315.0,130.2 1320.0,130.2 1320.0,130.0" stroke="rgb(0,0,0)" /><text fill="black" x="1310.0" y="150.2">E23</text><polygon fill="rgb(150,150,150)" points="1385.0,130.0 1385.0,129.8 1375.0,129.8 1375.0,97.8 1367.5,97.8 1367.5,97.8 1360.0,97.8 1360.0,129.8 1350.0,129.8 1350.0,130.0 1350.0,130.0 1350.0,130.2 1360.0,130.2 1360.0,162.2 1367.5,162.2 1367.5,162.2 1375.0,162.2 1375.0,130.2 1385.0,130.2 1385.0,130.0" stroke="rgb(0,0,0)" /><text fill="black" x="1350.0" y="182.2">H24</text><polygon fill="rgb(255,150,150)" points="1470.0,130.0 1470.0,129.4 1467.5,129.4 1467.5,129.0 1465.0,129.0 1465.0,121.8 1462.5,121.8 1462.5,97.6 1460.0,97.6 1460.0,85.19999999999999 1457.5,85.19999999999999 1457.5,80.8 1455.0,80.8 1455.0,80.2 1452.5,80.2 1452.5,80.0 1442.5,80.0 1442.5,80.0 1432.5,80.0 1432.5,80.2 1430.0,80.2 1430.0,80.8 1427.5,80.8 1427.5,85.19999999999999 1425.0,85.19999999999999 1425.0,97.6 1422.5,97.6 1422.5,121.8 1420.0,121.8 1420.0,129.0 1417.5,129.0 1417.5,129.4 1415.0,129.4 1415.0,130.0 1415.0,130.0 1415.0,130.6 1417.5,130.6 1417.5,131.0 1420.0,131.0 1420.0,138.2 1422.5,138.2 1422.5,162.4 1425.0,162.4 1425.0,174.8 1427.5,174.8 1427.5,179.2 1430.0,179.2 1430.0,179.8 1432.5,179.8 1432.5,180.0 1442.5,180.0 1442.5,180.0 1452.5,180.0 1452.5,179.8 1455.0,179.8 1455.0,179.2 1457.5,179.2 1457.5,174.8 1460.0,174.8 1460.0,162.4 1462.5,162.4 1462.5,138.2 1465.0,138.2 1465.0,131.0 1467.5,131.0 1467.5,130.6 1470.0,130.6 1470.0,130.0" stroke="rgb(0,0,0)" /><text fill="black" x="1415.0" y="200.0">E25</text><polygon fill="rgb(150,150,150)" points="1530.0,130.0 1530.0,129.8 1522.5,129.8 1522.5,127.8 1515.0,127.8 1515.0,127.8 1507.5,127.8 1507.5,129.8 1500.0,129.8 1500.0,130.0 1500.0,130.0 1500.0,130.2 1507.5,130.2 1507.5,132.2 1515.0,132.2 1515.0,132.2 1522.5,132.2 1522.5,130.2 1530.0,130.2 1530.0,130.0" stroke="rgb(0,0,0)" /><text fill="black" x="1500.0" y="152.2">H26</text><polygon fill="rgb(150,150,150)" points="1595.0,130.0 1595.0,124.4 1592.5,124.4 1592.5,124.0 1587.5,124.0 1587.5,122.4 1585.0,122.4 1585.0,115.4 1577.5,115.4 1577.5,115.4 1570.0,115.4 1570.0,122.4 1567.5,122.4 1567.5,124.0 1562.5,124.0 1562.5,124.4 1560.0,124.4 1560.0,130.0 1560.0,130.0 1560.0,135.6 1562.5,135.6 1562.5,136.0 1567.5,136.0 1567.5,137.6 1570.0,137.6 1570.0,144.6 1577.5,144.6 1577.5,144.6 1585.0,144.6 1585.0,137.6 1587.5,137.6 1587.5,136.0 1592.5,136.0 1592.5,135.6 1595.0,135.6 1595.0,130.0" stroke="rgb(0,0,0)" /><text fill="black" x="1560.0" y="164.6">H27</text><polygon fill="rgb(150,255,150)" points="1645.0,130.0 1645.0,129.8 1642.5,129.8 1642.5,128.6 1640.0,128.6 1640.0,127.8 1637.5,127.8 1637.5,127.6 1635.0,127.6 1635.0,127.6 1632.5,127.6 1632.5,127.8 1630.0,127.8 1630.0,128.6 1627.5,128.6 1627.5,129.8 1625.0,129.8 1625.0,130.0 1625.0,130.0 1625.0,130.2 1627.5,130.2 1627.5,131.4 1630.0,131.4 1630.0,132.2 1632.5,132.2 1632.5,132.4 1635.0,132.4 1635.0,132.4 1637.5,132.4 1637.5,132.2 1640.0,132.2 1640.0,131.4 1642.5,131.4 1642.5,130.2 1645.0,130.2 1645.0,130.0" stroke="rgb(0,0,0)" /><text fill="black" x="1625.0" y="152.4">E28</text><polygon fill="rgb(150,255,150)" points="1695.0,130.0 1695.0,129.8 1692.5,129.8 1692.5,128.6 1690.0,128.6 1690.0,127.8 1687.5,127.8 1687.5,127.6 1685.0,127.6 1685.0,127.6 1682.5,127.6 1682.5,127.8 1680.0,127.8 1680.0,128.6 1677.5,128.6 1677.5,129.8 1675.0,129.8 1675.0,130.0 1675.0,130.0 1675.0,130.2 1677.5,130.2 1677.5,131.4 1680.0,131.4 1680.0,132.2 1682.5,132.2 1682.5,132.4 1685.0,132.4 1685.0,132.4 1687.5,132.4 1687.5,132.2 1690.0,132.2 1690.0,131.4 1692.5,131.4 1692.5,130.2 1695.0,130.2 1695.0,130.0" stroke="rgb(0,0,0)" /><text fill="black" x="1675.0" y="152.4">E29</text><polygon fill="rgb(150,150,150)" points="1830.0,130.0 1830.0,129.8 1827.5,129.8 1827.5,129.0 1825.0,129.0 1825.0,128.2 1820.0,128.2 1820.0,124.4 1817.5,124.4 1817.5,112.2 1815.0,112.2 1815.0,110.0 1812.5,110.0 1812.5,103.2 1810.0,103.2 1810.0,92.6 1807.5,92.6 1807.5,89.0 1805.0,89.0 1805.0,87.4 1802.5,87.4 1802.5,85.4 1800.0,85.4 1800.0,83.6 1797.5,83.6 1797.5,82.80000000000001 1795.0,82.80000000000001 1795.0,82.6 1790.0,82.6 1790.0,82.4 1777.5,82.4 1777.5,82.4 1765.0,82.4 1765.0,82.6 1760.0,82.6 1760.0,82.80000000000001 1757.5,82.80000000000001 1757.5,83.6 1755.0,83.6 1755.0,85.4 1752.5,85.4 1752.5,87.4 1750.0,87.4 1750.0,89.0 1747.5,89.0 1747.5,92.6 1745.0,92.6 1745.0,103.2 1742.5,103.2 1742.5,110.0 1740.0,110.0 1740.0,112.2 1737.5,112.2 1737.5,124.4 1735.0,124.4 1735.0,128.2 1730.0,128.2 1730.0,129.0 1727.5,129.0 1727.5,129.8 1725.0,129.8 1725.0,130.0 1725.0,130.0 1725.0,130.2 1727.5,130.2 1727.5,131.0 1730.0,131.0 1730.0,131.8 1735.0,131.8 1735.0,135.6 1737.5,135.6 1737.5,147.8 1740.0,147.8 1740.0,150.0 1742.5,150.0 1742.5,156.8 1745.0,156.8 1745.0,167.4 1747.5,167.4 1747.5,171.0 1750.0,171.0 1750.0,172.6 1752.5,172.6 1752.5,174.6 1755.0,174.6 1755.0,176.4 1757.5,176.4 1757.5,177.2 1760.0,177.2 1760.0,177.4 1765.0,177.4 1765.0,177.6 1777.5,177.6 1777.5,177.6 1790.0,177.6 1790.0,177.4 1795.0,177.4 1795.0,177.2 1797.5,177.2 1797.5,176.4 1800.0,176.4 1800.0,174.6 1802.5,174.6 1802.5,172.6 1805.0,172.6 1805.0,171.0 1807.5,171.0 1807.5,167.4 1810.0,167.4 1810.0,156.8 1812.5,156.8 1812.5,150.0 1815.0,150.0 1815.0,147.8 1817.5,147.8 1817.5,135.6 1820.0,135.6 1820.0,131.8 1825.0,131.8 1825.0,131.0 1827.5,131.0 1827.5,130.2 1830.0,130.2 1830.0,130.0" stroke="rgb(0,0,0)" /><text fill="black" x="1725.0" y="197.6">H30</text><polygon fill="rgb(150,150,150)" points="1900.0,130.0 1900.0,129.8 1892.5,129.8 1892.5,129.4 1887.5,129.4 1887.5,129.0 1880.0,129.0 1880.0,129.0 1872.5,129.0 1872.5,129.4 1867.5,129.4 1867.5,129.8 1860.0,129.8 1860.0,130.0 1860.0,130.0 1860.0,130.2 1867.5,130.2 1867.5,130.6 1872.5,130.6 1872.5,131.0 1880.0,131.0 1880.0,131.0 1887.5,131.0 1887.5,130.6 1892.5,130.6 1892.5,130.2 1900.0,130.2 1900.0,130.0" stroke="rgb(0,0,0)" /><text fill="black" x="1860.0" y="151.0">H31</text><polygon fill="rgb(255,150,255)" points="1935.0,130.0 1935.0,127.2 1932.5,127.2 1932.5,127.2 1930.0,127.2 1930.0,130.0 1930.0,130.0 1930.0,132.8 1932.5,132.8 1932.5,132.8 1935.0,132.8 1935.0,130.0" stroke="rgb(0,0,0)" /><text fill="black" x="1930.0" y="152.8">E32</text><polygon fill="rgb(150,150,150)" points="1980.0,130.0 1980.0,109.0 1972.5,109.0 1972.5,109.0 1965.0,109.0 1965.0,130.0 1965.0,130.0 1965.0,151.0 1972.5,151.0 1972.5,151.0 1980.0,151.0 1980.0,130.0" stroke="rgb(0,0,0)" /><text fill="black" x="1965.0" y="171.0">H33</text><polygon fill="rgb(255,150,255)" points="2015.0,130.0 2015.0,127.2 2012.5,127.2 2012.5,127.2 2010.0,127.2 2010.0,130.0 2010.0,130.0 2010.0,132.8 2012.5,132.8 2012.5,132.8 2015.0,132.8 2015.0,130.0" stroke="rgb(0,0,0)" /><text fill="black" x="2010.0" y="152.8">E34</text><polygon fill="rgb(255,150,150)" points="2090.0,130.0 2090.0,129.2 2087.5,129.2 2087.5,128.2 2085.0,128.2 2085.0,116.4 2082.5,116.4 2082.5,100.0 2080.0,100.0 2080.0,88.2 2077.5,88.2 2077.5,87.2 2075.0,87.2 2075.0,80.4 2070.0,80.4 2070.0,80.2 2067.5,80.2 2067.5,80.2 2065.0,80.2 2065.0,80.4 2060.0,80.4 2060.0,87.2 2057.5,87.2 2057.5,88.2 2055.0,88.2 2055.0,100.0 2052.5,100.0 2052.5,116.4 2050.0,116.4 2050.0,128.2 2047.5,128.2 2047.5,129.2 2045.0,129.2 2045.0,130.0 2045.0,130.0 2045.0,130.8 2047.5,130.8 2047.5,131.8 2050.0,131.8 2050.0,143.6 2052.5,143.6 2052.5,160.0 2055.0,160.0 2055.0,171.8 2057.5,171.8 2057.5,172.8 2060.0,172.8 2060.0,179.6 2065.0,179.6 2065.0,179.8 2067.5,179.8 2067.5,179.8 2070.0,179.8 2070.0,179.6 2075.0,179.6 2075.0,172.8 2077.5,172.8 2077.5,171.8 2080.0,171.8 2080.0,160.0 2082.5,160.0 2082.5,143.6 2085.0,143.6 2085.0,131.8 2087.5,131.8 2087.5,130.8 2090.0,130.8 2090.0,130.0" stroke="rgb(0,0,0)" /><text fill="black" x="2045.0" y="199.8">E35</text><polygon fill="rgb(150,150,150)" points="2140.0,55.0 2140.0,54.8 2130.0,54.8 2130.0,54.8 2120.0,54.8 2120.0,55.0 2120.0,55.0 2120.0,55.2 2130.0,55.2 2130.0,55.2 2140.0,55.2 2140.0,55.0" stroke="rgb(0,0,0)" /><text fill="black" x="2120.0" y="75.2">H36</text><polygon fill="rgb(255,150,150)" points="2145.0,205.0 2145.0,204.8 2132.5,204.8 2132.5,204.8 2120.0,204.8 2120.0,205.0 2120.0,205.0 2120.0,205.2 2132.5,205.2 2132.5,205.2 2145.0,205.2 2145.0,205.0" stroke="rgb(0,0,0)" /><text fill="black" x="2120.0" y="225.2">E37</text><polygon fill="rgb(150,150,150)" points="2195.0,55.0 2195.0,54.8 2185.0,54.8 2185.0,54.8 2175.0,54.8 2175.0,55.0 2175.0,55.0 2175.0,55.2 2185.0,55.2 2185.0,55.2 2195.0,55.2 2195.0,55.0" stroke="rgb(0,0,0)" /><text fill="black" x="2175.0" y="75.2">H38</text><polygon fill="rgb(255,150,150)" points="2200.0,205.0 2200.0,204.8 2190.0,204.8 2190.0,204.6 2187.5,204.6 2187.5,204.6 2185.0,204.6 2185.0,204.8 2175.0,204.8 2175.0,205.0 2175.0,205.0 2175.0,205.2 2185.0,205.2 2185.0,205.4 2187.5,205.4 2187.5,205.4 2190.0,205.4 2190.0,205.2 2200.0,205.2 2200.0,205.0" stroke="rgb(0,0,0)" /><text fill="black" x="2175.0" y="225.4">E39</text><polygon fill="rgb(150,150,150)" points="2265.0,130.0 2265.0,129.8 2257.5,129.8 2257.5,129.6 2255.0,129.6 2255.0,122.2 2247.5,122.2 2247.5,122.2 2240.0,122.2 2240.0,129.6 2237.5,129.6 2237.5,129.8 2230.0,129.8 2230.0,130.0 2230.0,130.0 2230.0,130.2 2237.5,130.2 2237.5,130.4 2240.0,130.4 2240.0,137.8 2247.5,137.8 2247.5,137.8 2255.0,137.8 2255.0,130.4 2257.5,130.4 2257.5,130.2 2265.0,130.2 2265.0,130.0" stroke="rgb(0,0,0)" /><text fill="black" x="2230.0" y="157.8">H40</text><polygon fill="rgb(150,150,150)" points="2310.0,130.0 2310.0,129.4 2302.5,129.4 2302.5,129.4 2295.0,129.4 2295.0,130.0 2295.0,130.0 2295.0,130.6 2302.5,130.6 2302.5,130.6 2310.0,130.6 2310.0,130.0" stroke="rgb(0,0,0)" /><text fill="black" x="2295.0" y="150.6">H41</text><polygon fill="rgb(255,150,150)" points="2385.0,130.0 2385.0,129.4 2382.5,129.4 2382.5,127.8 2380.0,127.8 2380.0,110.4 2377.5,110.4 2377.5,95.6 2375.0,95.6 2375.0,82.0 2372.5,82.0 2372.5,80.4 2370.0,80.4 2370.0,80.0 2362.5,80.0 2362.5,80.0 2355.0,80.0 2355.0,80.4 2352.5,80.4 2352.5,82.0 2350.0,82.0 2350.0,95.6 2347.5,95.6 2347.5,110.4 2345.0,110.4 2345.0,127.8 2342.5,127.8 2342.5,129.4 2340.0,129.4 2340.0,130.0 2340.0,130.0 2340.0,130.6 2342.5,130.6 2342.5,132.2 2345.0,132.2 2345.0,149.6 2347.5,149.6 2347.5,164.4 2350.0,164.4 2350.0,178.0 2352.5,178.0 2352.5,179.6 2355.0,179.6 2355.0,180.0 2362.5,180.0 2362.5,180.0 2370.0,180.0 2370.0,179.6 2372.5,179.6 2372.5,178.0 2375.0,178.0 2375.0,164.4 2377.5,164.4 2377.5,149.6 2380.0,149.6 2380.0,132.2 2382.5,132.2 2382.5,130.6 2385.0,130.6 2385.0,130.0" stroke="rgb(0,0,0)" /><text fill="black" x="2340.0" y="200.0">E42</text><polygon fill="rgb(150,150,150)" points="2440.0,130.0 2440.0,128.6 2437.5,128.6 2437.5,128.2 2435.0,128.2 2435.0,126.2 2427.5,126.2 2427.5,126.2 2420.0,126.2 2420.0,128.2 2417.5,128.2 2417.5,128.6 2415.0,128.6 2415.0,130.0 2415.0,130.0 2415.0,131.4 2417.5,131.4 2417.5,131.8 2420.0,131.8 2420.0,133.8 2427.5,133.8 2427.5,133.8 2435.0,133.8 2435.0,131.8 2437.5,131.8 2437.5,131.4 2440.0,131.4 2440.0,130.0" stroke="rgb(0,0,0)" /><text fill="black" x="2415.0" y="153.8">H43</text><polygon fill="rgb(150,150,150)" points="2525.0,130.0 2525.0,129.8 2510.0,129.8 2510.0,129.4 2497.5,129.4 2497.5,129.4 2485.0,129.4 2485.0,129.8 2470.0,129.8 2470.0,130.0 2470.0,130.0 2470.0,130.2 2485.0,130.2 2485.0,130.6 2497.5,130.6 2497.5,130.6 2510.0,130.6 2510.0,130.2 2525.0,130.2 2525.0,130.0" stroke="rgb(0,0,0)" /><text fill="black" x="2470.0" y="150.6">H44</text><polygon fill="rgb(150,150,150)" points="2575.0,130.0 2575.0,128.0 2565.0,128.0 2565.0,128.0 2555.0,128.0 2555.0,130.0 2555.0,130.0 2555.0,132.0 2565.0,132.0 2565.0,132.0 2575.0,132.0 2575.0,130.0" stroke="rgb(0,0,0)" /><text fill="black" x="2555.0" y="152.0">H45</text><polygon fill="rgb(150,150,150)" points="2640.0,130.0 2640.0,129.8 2635.0,129.8 2635.0,129.4 2632.5,129.4 2632.5,126.60000000000001 2622.5,126.60000000000001 2622.5,126.60000000000001 2612.5,126.60000000000001 2612.5,129.4 2610.0,129.4 2610.0,129.8 2605.0,129.8 2605.0,130.0 2605.0,130.0 2605.0,130.2 2610.0,130.2 2610.0,130.6 2612.5,130.6 2612.5,133.4 2622.5,133.4 2622.5,133.4 2632.5,133.4 2632.5,130.6 2635.0,130.6 2635.0,130.2 2640.0,130.2 2640.0,130.0" stroke="rgb(0,0,0)" /><text fill="black" x="2605.0" y="153.4">H46</text><polygon fill="rgb(150,150,150)" points="2745.0,130.0 2745.0,128.6 2742.5,128.6 2742.5,126.60000000000001 2737.5,126.60000000000001 2737.5,126.4 2717.5,126.4 2717.5,126.2 2707.5,126.2 2707.5,126.2 2697.5,126.2 2697.5,126.4 2677.5,126.4 2677.5,126.60000000000001 2672.5,126.60000000000001 2672.5,128.6 2670.0,128.6 2670.0,130.0 2670.0,130.0 2670.0,131.4 2672.5,131.4 2672.5,133.4 2677.5,133.4 2677.5,133.6 2697.5,133.6 2697.5,133.8 2707.5,133.8 2707.5,133.8 2717.5,133.8 2717.5,133.6 2737.5,133.6 2737.5,133.4 2742.5,133.4 2742.5,131.4 2745.0,131.4 2745.0,130.0" stroke="rgb(0,0,0)" /><text fill="black" x="2670.0" y="153.8">H47</text><polygon fill="rgb(255,150,150)" points="2785.0,130.0 2785.0,129.6 2782.5,129.6 2782.5,129.2 2780.0,129.2 2780.0,129.2 2777.5,129.2 2777.5,129.6 2775.0,129.6 2775.0,130.0 2775.0,130.0 2775.0,130.4 2777.5,130.4 2777.5,130.8 2780.0,130.8 2780.0,130.8 2782.5,130.8 2782.5,130.4 2785.0,130.4 2785.0,130.0" stroke="rgb(0,0,0)" /><text fill="black" x="2775.0" y="150.8">E48</text><polygon fill="rgb(255,150,150)" points="2840.0,130.0 2840.0,129.8 2827.5,129.8 2827.5,129.8 2815.0,129.8 2815.0,130.0 2815.0,130.0 2815.0,130.2 2827.5,130.2 2827.5,130.2 2840.0,130.2 2840.0,130.0" stroke="rgb(0,0,0)" /><text fill="black" x="2815.0" y="150.2">E49</text><path d="M 72.5,130.0 a 149.14354963739245,149.14354963739245 0 0,0 -60.0,-75.0" stroke="rgb(150,255,255)" stroke-width="2" /><path d="M 72.5,130.0 a 149.14354963739245,149.14354963739245 0 0,0 -60.0,-75.0" stroke="rgb(0,0,0)" stroke-width="0.2" /><path d="M 685.0,130.0 a 722.1291786869484,722.1291786869484 0 0,0 -335.0,75.0" stroke="rgb(150,150,255)" stroke-width="2" /><path d="M 685.0,130.0 a 722.1291786869484,722.1291786869484 0 0,0 -335.0,75.0" stroke="rgb(0,0,0)" stroke-width="0.2" /><path d="M 735.0,130.0 a 868.1145709363568,868.1145709363568 0 0,0 -385.0,75.0" stroke="rgb(150,150,255)" stroke-width="2" /><path d="M 735.0,130.0 a 868.1145709363568,868.1145709363568 0 0,0 -385.0,75.0" stroke="rgb(0,0,0)" stroke-width="0.2" /><path d="M 685.0,130.0 a 57.16987610091058,57.16987610091058 0 0,0 -40.0,-0.0" stroke="rgb(150,150,255)" stroke-width="2" /><path d="M 685.0,130.0 a 57.16987610091058,57.16987610091058 0 0,0 -40.0,-0.0" stroke="rgb(0,0,0)" stroke-width="0.2" /><path d="M 787.5,130.0 a 3751.1363636363635,3751.1363636363635 0 0,0 1280.0,-0.0" stroke="rgb(255,150,150)" stroke-width="2" /><path d="M 787.5,130.0 a 3751.1363636363635,3751.1363636363635 0 0,0 1280.0,-0.0" stroke="rgb(0,0,0)" stroke-width="0.2" /><path d="M 1252.5,130.0 a 734.2536003446909,734.2536003446909 0 0,0 -347.5,-0.0" stroke="rgb(255,150,150)" stroke-width="2" /><path d="M 1252.5,130.0 a 734.2536003446909,734.2536003446909 0 0,0 -347.5,-0.0" stroke="rgb(0,0,0)" stroke-width="0.2" /><path d="M 1315.0,130.0 a 923.7668539325841,923.7668539325841 0 0,0 -410.0,-0.0" stroke="rgb(255,150,150)" stroke-width="2" /><path d="M 1315.0,130.0 a 923.7668539325841,923.7668539325841 0 0,0 -410.0,-0.0" stroke="rgb(0,0,0)" stroke-width="0.2" /><path d="M 1252.5,130.0 a 437.44702623247406,437.44702623247406 0 0,0 -235.0,-0.0" stroke="rgb(255,150,150)" stroke-width="2" /><path d="M 1252.5,130.0 a 437.44702623247406,437.44702623247406 0 0,0 -235.0,-0.0" stroke="rgb(0,0,0)" stroke-width="0.2" /><path d="M 1180.0,130.0 a 68.67279316891543,68.67279316891543 0 0,0 -47.5,-0.0" stroke="rgb(255,150,150)" stroke-width="2" /><path d="M 1180.0,130.0 a 68.67279316891543,68.67279316891543 0 0,0 -47.5,-0.0" stroke="rgb(0,0,0)" stroke-width="0.2" /><path d="M 1252.5,130.0 a 108.80965466236803,108.80965466236803 0 0,0 -72.5,-0.0" stroke="rgb(255,150,150)" stroke-width="2" /><path d="M 1252.5,130.0 a 108.80965466236803,108.80965466236803 0 0,0 -72.5,-0.0" stroke="rgb(0,0,0)" stroke-width="0.2" /><path d="M 1442.5,130.0 a 334.6340579710145,334.6340579710145 0 0,0 -190.0,-0.0" stroke="rgb(255,150,150)" stroke-width="2" /><path d="M 1442.5,130.0 a 334.6340579710145,334.6340579710145 0 0,0 -190.0,-0.0" stroke="rgb(0,0,0)" stroke-width="0.2" /><path d="M 2362.5,130.0 a 3130.354905671897,3130.354905671897 0 0,0 -920.0,-0.0" stroke="rgb(255,150,150)" stroke-width="2" /><path d="M 2362.5,130.0 a 3130.354905671897,3130.354905671897 0 0,0 -920.0,-0.0" stroke="rgb(0,0,0)" stroke-width="0.2" /><path d="M 1685.0,130.0 a 72.56223380819503,72.56223380819503 0 0,0 -50.0,-0.0" stroke="rgb(150,255,150)" stroke-width="2" /><path d="M 1685.0,130.0 a 72.56223380819503,72.56223380819503 0 0,0 -50.0,-0.0" stroke="rgb(0,0,0)" stroke-width="0.2" /><path d="M 2012.5,130.0 a 121.38983050847457,121.38983050847457 0 0,0 -80.0,-0.0" stroke="rgb(255,150,255)" stroke-width="2" /><path d="M 2012.5,130.0 a 121.38983050847457,121.38983050847457 0 0,0 -80.0,-0.0" stroke="rgb(0,0,0)" stroke-width="0.2" /><path d="M 2187.5,205.0 a 233.98623484086363,233.98623484086363 0 0,0 -120.0,-75.0" stroke="rgb(255,150,150)" stroke-width="2" /><path d="M 2187.5,205.0 a 233.98623484086363,233.98623484086363 0 0,0 -120.0,-75.0" stroke="rgb(0,0,0)" stroke-width="0.2" /><path d="M 2362.5,130.0 a 588.66219486532,588.66219486532 0 0,0 -295.0,-0.0" stroke="rgb(255,150,150)" stroke-width="2" /><path d="M 2362.5,130.0 a 588.66219486532,588.66219486532 0 0,0 -295.0,-0.0" stroke="rgb(0,0,0)" stroke-width="0.2" /><path d="M 2780.0,130.0 a 2090.445949570815,2090.445949570815 0 0,0 -712.5,-0.0" stroke="rgb(255,150,150)" stroke-width="2" /><path d="M 2780.0,130.0 a 2090.445949570815,2090.445949570815 0 0,0 -712.5,-0.0" stroke="rgb(0,0,0)" stroke-width="0.2" /><path d="M 2187.5,205.0 a 80.4238782051282,80.4238782051282 0 0,0 -55.0,-0.0" stroke="rgb(255,150,150)" stroke-width="2" /><path d="M 2187.5,205.0 a 80.4238782051282,80.4238782051282 0 0,0 -55.0,-0.0" stroke="rgb(0,0,0)" stroke-width="0.2" /><path d="M 2827.5,130.0 a 1105.1170212765958,1105.1170212765958 0 0,0 -465.0,-0.0" stroke="rgb(255,150,150)" stroke-width="2" /><path d="M 2827.5,130.0 a 1105.1170212765958,1105.1170212765958 0 0,0 -465.0,-0.0" stroke="rgb(0,0,0)" stroke-width="0.2" /></svg>