<?xml version="1.0" encoding="utf-8" ?>
<svg baseProfile="full" height="100%" style="font-size:14;font-family:Sans, Arial;stroke-width:1;fill:none" version="1.1" width="100%" xmlns="http://www.w3.org/2000/svg" xmlns:ev="http://www.w3.org/2001/xml-events" xmlns:xlink="http://www.w3.org/1999/xlink"><defs /><rect fill="none" height="150.0" stroke="none" width="533.86505" x="0" y="0" /><line stroke="rgb(0,0,0)" x1="5.0" x2="16.08695" y1="75.0" y2="75.0" /><line stroke="rgb(0,0,0)" x1="16.08695" x2="26.08695" y1="75.0" y2="75.0" /><line stroke="rgb(0,0,0)" x1="26.08695" x2="31.08695" y1="75.0" y2="75.0" /><line stroke="rgb(0,0,0)" x1="31.08695" x2="53.88355" y1="75.0" y2="75.0" /><line stroke="rgb(0,0,0)" x1="53.88355" x2="63.88355" y1="75.0" y2="75.0" /><line stroke="rgb(0,0,0)" x1="63.88355" x2="68.88355" y1="75.0" y2="75.0" /><line stroke="rgb(0,0,0)" x1="68.88355" x2="116.31535" y1="75.0" y2="75.0" /><line stroke="rgb(0,0,0)" x1="116.31535" x2="126.31535" y1="75.0" y2="75.0" /><line stroke="rgb(0,0,0)" x1="126.31535" x2="131.31535" y1="75.0" y2="75.0" /><line stroke="rgb(0,0,0)" x1="131.31535" x2="172.91535" y1="75.0" y2="75.0" /><line stroke="rgb(0,0,0)" x1="172.91535" x2="182.91535" y1="75.0" y2="75.0" /><line stroke="rgb(0,0,0)" x1="182.91535" x2="187.91535" y1="75.0" y2="75.0" /><line stroke="rgb(0,0,0)" x1="187.91535" x2="208.03955" y1="75.0" y2="75.0" /><line stroke="rgb(0,0,0)" x1="208.03955" x2="218.03955" y1="75.0" y2="75.0" /><line stroke="rgb(0,0,0)" x1="218.03955" x2="223.03955" y1="75.0" y2="75.0" /><line stroke="rgb(0,0,0)" x1="223.03955" x2="266.63955" y1="75.0" y2="75.0" /><line stroke="rgb(0,0,0)" x1="266.63955" x2="276.63955" y1="75.0" y2="75.0" /><line stroke="rgb(0,0,0)" x1="276.63955" x2="281.63955" y1="75.0" y2="75.0" /><line stroke="rgb(0,0,0)" x1="281.63955" x2="310.2697" y1="75.0" y2="75.0" /><line stroke="rgb(0,0,0)" x1="310.2697" x2="320.2697" y1="75.0" y2="75.0" /><line stroke="rgb(0,0,0)" x1="320.2697" x2="325.2697" y1="75.0" y2="75.0" /><line stroke="rgb(0,0,0)" x1="325.2697" x2="400.33270000000005" y1="75.0" y2="75.0" /><line stroke="rgb(0,0,0)" x1="400.33270000000005" x2="410.33270000000005" y1="75.0" y2="75.0" /><line stroke="rgb(0,0,0)" x1="410.33270000000005" x2="415.33270000000005" y1="75.0" y2="75.0" /><line stroke="rgb(0,0,0)" x1="415.33270000000005" x2="435.33270000000005" y1="75.0" y2="75.0" /><line stroke="rgb(0,0,0)" x1="435.33270000000005" x2="445.33270000000005" y1="75.0" y2="75.0" /><line stroke="rgb(0,0,0)" x1="445.33270000000005" x2="450.33270000000005" y1="75.0" y2="75.0" /><line stroke="rgb(0,0,0)" x1="450.33270000000005" x2="483.42505000000006" y1="75.0" y2="75.0" /><line stroke="rgb(0,0,0)" x1="483.42505000000006" x2="493.42505000000006" y1="75.0" y2="75.0" /><line stroke="rgb(0,0,0)" x1="493.42505000000006" x2="498.42505000000006" y1="75.0" y2="75.0" /><rect fill="rgb(96,75,255)" height="27.6" stroke="rgb(0,0,0)" width="6.08695" x="5.0" y="61.2" /><text fill="black" x="5.0" y="108.8">E14</text><rect fill="rgb(75,58,255)" height="70.8" stroke="rgb(0,0,0)" width="17.7966" x="31.08695" y="39.6" /><text fill="black" x="31.08695" y="130.4">H15</text><rect fill="rgb(165,130,255)" height="88.0" stroke="rgb(0,0,0)" width="42.431799999999996" x="68.88355" y="31.0" /><text fill="black" x="68.88355" y="139.0">E18</text><rect fill="rgb(117,91,255)" height="100.0" stroke="rgb(0,0,0)" width="36.6" x="131.31535" y="25.0" /><text fill="black" x="131.31535" y="145.0">E22</text><rect fill="rgb(92,72,255)" height="64.4" stroke="rgb(0,0,0)" width="15.124200000000002" x="187.91535" y="42.8" /><text fill="black" x="187.91535" y="127.2">H24</text><rect fill="rgb(147,115,255)" height="100.0" stroke="rgb(0,0,0)" width="38.6" x="223.03955" y="25.0" /><text fill="black" x="223.03955" y="145.0">E25</text><rect fill="rgb(137,107,255)" height="29.2" stroke="rgb(0,0,0)" width="23.63015" x="281.63955" y="60.4" /><text fill="black" x="281.63955" y="109.6">H27</text><rect fill="rgb(225,176,255)" height="95.19999999999999" stroke="rgb(0,0,0)" width="70.063" x="325.2697" y="27.400000000000006" /><text fill="black" x="325.2697" y="142.6">H30</text><rect fill="rgb(42,33,255)" height="42.0" stroke="rgb(0,0,0)" width="15.0" x="415.33270000000005" y="54.0" /><text fill="black" x="415.33270000000005" y="116.0">H33</text><rect fill="rgb(157,123,255)" height="99.6" stroke="rgb(0,0,0)" width="28.092350000000003" x="450.33270000000005" y="25.200000000000003" /><text fill="black" x="450.33270000000005" y="144.8">E35</text><rect fill="rgb(133,104,255)" height="100.0" stroke="rgb(0,0,0)" width="30.44" x="498.42505000000006" y="25.0" /><text fill="black" x="498.42505000000006" y="145.0">E42</text><path d="M 8.043475,75.0 a 500.77726657536374,500.77726657536374 0 0,0 456.33540000000005,-0.0" stroke="rgb(96,75,255)" stroke-width="2" /><path d="M 8.043475,75.0 a 500.77726657536374,500.77726657536374 0 0,0 456.33540000000005,-0.0" stroke="rgb(0,0,0)" stroke-width="0.2" /><path d="M 149.61535,75.0 a 32.335236625904685,32.335236625904685 0 0,0 -59.515900000000016,-0.0" stroke="rgb(165,130,255)" stroke-width="2" /><path d="M 149.61535,75.0 a 32.335236625904685,32.335236625904685 0 0,0 -59.515900000000016,-0.0" stroke="rgb(0,0,0)" stroke-width="0.2" /><path d="M 242.33955,75.0 a 54.82311735160576,54.82311735160576 0 0,0 -92.7242,-0.0" stroke="rgb(117,91,255)" stroke-width="2" /><path d="M 242.33955,75.0 a 54.82311735160576,54.82311735160576 0 0,0 -92.7242,-0.0" stroke="rgb(0,0,0)" stroke-width="0.2" /><path d="M 513.6450500000001,75.0 a 252.85823349921597,252.85823349921597 0 0,0 -271.30550000000005,-0.0" stroke="rgb(147,115,255)" stroke-width="2" /><path d="M 513.6450500000001,75.0 a 252.85823349921597,252.85823349921597 0 0,0 -271.30550000000005,-0.0" stroke="rgb(0,0,0)" stroke-width="0.2" /><path d="M 513.6450500000001,75.0 a 26.154047348710858,26.154047348710858 0 0,0 -49.26617500000003,-0.0" stroke="rgb(157,123,255)" stroke-width="2" /><path d="M 513.6450500000001,75.0 a 26.154047348710858,26.154047348710858 0 0,0 -49.26617500000003,-0.0" stroke="rgb(0,0,0)" stroke-width="0.2" /></svg>