<?xml version="1.0" encoding="utf-8" ?>
<svg baseProfile="full" height="100%" style="font-size:14;font-family:Sans, Arial;stroke-width:1;fill:none" version="1.1" width="100%" xmlns="http://www.w3.org/2000/svg" xmlns:ev="http://www.w3.org/2001/xml-events" xmlns:xlink="http://www.w3.org/1999/xlink"><defs /><rect fill="none" height="300.0" stroke="none" width="1951.7414000000003" x="0" y="0" /><line stroke="rgb(0,0,0)" x1="5.0" x2="22.5" y1="75.0" y2="75.0" /><line stroke="rgb(0,0,0)" x1="22.5" x2="37.6923" y1="75.0" y2="150.0" /><line stroke="rgb(0,0,0)" x1="37.6923" x2="42.6923" y1="150.0" y2="150.0" /><line stroke="rgb(0,0,0)" x1="42.6923" x2="60.1923" y1="150.0" y2="150.0" /><line stroke="rgb(0,0,0)" x1="60.1923" x2="70.1923" y1="150.0" y2="150.0" /><line stroke="rgb(0,0,0)" x1="70.1923" x2="75.1923" y1="150.0" y2="150.0" /><line stroke="rgb(0,0,0)" x1="5.0" x2="27.6923" y1="225.0" y2="225.0" /><line stroke="rgb(0,0,0)" x1="27.6923" x2="70.1923" y1="225.0" y2="150.0" /><line stroke="rgb(0,0,0)" x1="70.1923" x2="75.1923" y1="150.0" y2="150.0" /><line stroke="rgb(0,0,0)" x1="75.1923" x2="112.8846" y1="150.0" y2="150.0" /><line stroke="rgb(0,0,0)" x1="112.8846" x2="122.8846" y1="150.0" y2="150.0" /><line stroke="rgb(0,0,0)" x1="122.8846" x2="127.8846" y1="150.0" y2="150.0" /><line stroke="rgb(0,0,0)" x1="127.8846" x2="132.8846" y1="150.0" y2="150.0" /><line stroke="rgb(0,0,0)" x1="132.8846" x2="142.8846" y1="150.0" y2="150.0" /><line stroke="rgb(0,0,0)" x1="142.8846" x2="147.8846" y1="150.0" y2="150.0" /><line stroke="rgb(0,0,0)" x1="147.8846" x2="215.3846" y1="150.0" y2="150.0" /><line stroke="rgb(0,0,0)" x1="215.3846" x2="225.3846" y1="150.0" y2="75.0" /><line stroke="rgb(0,0,0)" x1="225.3846" x2="230.3846" y1="75.0" y2="75.0" /><line stroke="rgb(0,0,0)" x1="147.8846" x2="215.3846" y1="150.0" y2="150.0" /><line stroke="rgb(0,0,0)" x1="215.3846" x2="225.3846" y1="150.0" y2="225.0" /><line stroke="rgb(0,0,0)" x1="225.3846" x2="230.3846" y1="225.0" y2="225.0" /><line stroke="rgb(0,0,0)" x1="230.3846" x2="265.3846" y1="75.0" y2="75.0" /><line stroke="rgb(0,0,0)" x1="265.3846" x2="275.3846" y1="75.0" y2="150.0" /><line stroke="rgb(0,0,0)" x1="275.3846" x2="280.3846" y1="150.0" y2="150.0" /><line stroke="rgb(0,0,0)" x1="280.3846" x2="362.8846" y1="150.0" y2="150.0" /><line stroke="rgb(0,0,0)" x1="362.8846" x2="372.8846" y1="150.0" y2="150.0" /><line stroke="rgb(0,0,0)" x1="372.8846" x2="377.8846" y1="150.0" y2="150.0" /><line stroke="rgb(0,0,0)" x1="377.8846" x2="382.8846" y1="150.0" y2="150.0" /><line stroke="rgb(0,0,0)" x1="382.8846" x2="392.8846" y1="150.0" y2="150.0" /><line stroke="rgb(0,0,0)" x1="392.8846" x2="397.8846" y1="150.0" y2="150.0" /><line stroke="rgb(0,0,0)" x1="230.3846" x2="253.7937" y1="225.0" y2="225.0" /><line stroke="rgb(0,0,0)" x1="253.7937" x2="392.8846" y1="225.0" y2="150.0" /><line stroke="rgb(0,0,0)" x1="392.8846" x2="397.8846" y1="150.0" y2="150.0" /><line stroke="rgb(0,0,0)" x1="397.8846" x2="422.8846" y1="150.0" y2="150.0" /><line stroke="rgb(0,0,0)" x1="422.8846" x2="432.8846" y1="150.0" y2="150.0" /><line stroke="rgb(0,0,0)" x1="432.8846" x2="437.8846" y1="150.0" y2="150.0" /><line stroke="rgb(0,0,0)" x1="437.8846" x2="451.6346" y1="150.0" y2="150.0" /><line stroke="rgb(0,0,0)" x1="451.6346" x2="461.6346" y1="150.0" y2="150.0" /><line stroke="rgb(0,0,0)" x1="461.6346" x2="466.6346" y1="150.0" y2="150.0" /><line stroke="rgb(0,0,0)" x1="466.6346" x2="479.1346" y1="150.0" y2="150.0" /><line stroke="rgb(0,0,0)" x1="479.1346" x2="489.1346" y1="150.0" y2="150.0" /><line stroke="rgb(0,0,0)" x1="489.1346" x2="494.1346" y1="150.0" y2="150.0" /><line stroke="rgb(0,0,0)" x1="494.1346" x2="521.9471" y1="150.0" y2="150.0" /><line stroke="rgb(0,0,0)" x1="521.9471" x2="531.9471" y1="150.0" y2="150.0" /><line stroke="rgb(0,0,0)" x1="531.9471" x2="536.9471" y1="150.0" y2="150.0" /><line stroke="rgb(0,0,0)" x1="536.9471" x2="548.03405" y1="150.0" y2="150.0" /><line stroke="rgb(0,0,0)" x1="548.03405" x2="558.03405" y1="150.0" y2="150.0" /><line stroke="rgb(0,0,0)" x1="558.03405" x2="563.03405" y1="150.0" y2="150.0" /><line stroke="rgb(0,0,0)" x1="563.03405" x2="585.83065" y1="150.0" y2="150.0" /><line stroke="rgb(0,0,0)" x1="585.83065" x2="595.83065" y1="150.0" y2="150.0" /><line stroke="rgb(0,0,0)" x1="595.83065" x2="600.83065" y1="150.0" y2="150.0" /><line stroke="rgb(0,0,0)" x1="600.83065" x2="618.65675" y1="150.0" y2="150.0" /><line stroke="rgb(0,0,0)" x1="618.65675" x2="628.65675" y1="150.0" y2="150.0" /><line stroke="rgb(0,0,0)" x1="628.65675" x2="633.65675" y1="150.0" y2="150.0" /><line stroke="rgb(0,0,0)" x1="633.65675" x2="653.65675" y1="150.0" y2="150.0" /><line stroke="rgb(0,0,0)" x1="653.65675" x2="663.65675" y1="150.0" y2="150.0" /><line stroke="rgb(0,0,0)" x1="663.65675" x2="668.65675" y1="150.0" y2="150.0" /><line stroke="rgb(0,0,0)" x1="668.65675" x2="716.0885499999999" y1="150.0" y2="150.0" /><line stroke="rgb(0,0,0)" x1="716.0885499999999" x2="726.0885499999999" y1="150.0" y2="150.0" /><line stroke="rgb(0,0,0)" x1="726.0885499999999" x2="731.0885499999999" y1="150.0" y2="150.0" /><line stroke="rgb(0,0,0)" x1="731.0885499999999" x2="754.0885499999999" y1="150.0" y2="150.0" /><line stroke="rgb(0,0,0)" x1="754.0885499999999" x2="764.0885499999999" y1="150.0" y2="150.0" /><line stroke="rgb(0,0,0)" x1="764.0885499999999" x2="769.0885499999999" y1="150.0" y2="150.0" /><line stroke="rgb(0,0,0)" x1="769.0885499999999" x2="779.0885499999999" y1="150.0" y2="150.0" /><line stroke="rgb(0,0,0)" x1="779.0885499999999" x2="789.0885499999999" y1="150.0" y2="150.0" /><line stroke="rgb(0,0,0)" x1="789.0885499999999" x2="794.0885499999999" y1="150.0" y2="150.0" /><line stroke="rgb(0,0,0)" x1="794.0885499999999" x2="815.4885499999999" y1="150.0" y2="150.0" /><line stroke="rgb(0,0,0)" x1="815.4885499999999" x2="825.4885499999999" y1="150.0" y2="150.0" /><line stroke="rgb(0,0,0)" x1="825.4885499999999" x2="830.4885499999999" y1="150.0" y2="150.0" /><line stroke="rgb(0,0,0)" x1="830.4885499999999" x2="872.0885499999998" y1="150.0" y2="150.0" /><line stroke="rgb(0,0,0)" x1="872.0885499999998" x2="882.0885499999998" y1="150.0" y2="150.0" /><line stroke="rgb(0,0,0)" x1="882.0885499999998" x2="887.0885499999998" y1="150.0" y2="150.0" /><line stroke="rgb(0,0,0)" x1="887.0885499999998" x2="902.0885499999998" y1="150.0" y2="150.0" /><line stroke="rgb(0,0,0)" x1="902.0885499999998" x2="912.0885499999998" y1="150.0" y2="150.0" /><line stroke="rgb(0,0,0)" x1="912.0885499999998" x2="917.0885499999998" y1="150.0" y2="150.0" /><line stroke="rgb(0,0,0)" x1="917.0885499999998" x2="937.2127499999999" y1="150.0" y2="150.0" /><line stroke="rgb(0,0,0)" x1="937.2127499999999" x2="947.2127499999999" y1="150.0" y2="150.0" /><line stroke="rgb(0,0,0)" x1="947.2127499999999" x2="952.2127499999999" y1="150.0" y2="150.0" /><line stroke="rgb(0,0,0)" x1="952.2127499999999" x2="995.8127499999999" y1="150.0" y2="150.0" /><line stroke="rgb(0,0,0)" x1="995.8127499999999" x2="1005.8127499999999" y1="150.0" y2="150.0" /><line stroke="rgb(0,0,0)" x1="1005.8127499999999" x2="1010.8127499999999" y1="150.0" y2="150.0" /><line stroke="rgb(0,0,0)" x1="1010.8127499999999" x2="1032.1763999999998" y1="150.0" y2="150.0" /><line stroke="rgb(0,0,0)" x1="1032.1763999999998" x2="1042.1763999999998" y1="150.0" y2="150.0" /><line stroke="rgb(0,0,0)" x1="1042.1763999999998" x2="1047.1763999999998" y1="150.0" y2="150.0" /><line stroke="rgb(0,0,0)" x1="1047.1763999999998" x2="1075.80655" y1="150.0" y2="150.0" /><line stroke="rgb(0,0,0)" x1="1075.80655" x2="1085.80655" y1="150.0" y2="150.0" /><line stroke="rgb(0,0,0)" x1="1085.80655" x2="1090.80655" y1="150.0" y2="150.0" /><line stroke="rgb(0,0,0)" x1="1090.80655" x2="1108.7232" y1="150.0" y2="150.0" /><line stroke="rgb(0,0,0)" x1="1108.7232" x2="1118.7232" y1="150.0" y2="150.0" /><line stroke="rgb(0,0,0)" x1="1118.7232" x2="1123.7232" y1="150.0" y2="150.0" /><line stroke="rgb(0,0,0)" x1="1123.7232" x2="1141.6398499999998" y1="150.0" y2="150.0" /><line stroke="rgb(0,0,0)" x1="1141.6398499999998" x2="1151.6398499999998" y1="150.0" y2="150.0" /><line stroke="rgb(0,0,0)" x1="1151.6398499999998" x2="1156.6398499999998" y1="150.0" y2="150.0" /><line stroke="rgb(0,0,0)" x1="1156.6398499999998" x2="1231.7028499999997" y1="150.0" y2="150.0" /><line stroke="rgb(0,0,0)" x1="1231.7028499999997" x2="1241.7028499999997" y1="150.0" y2="150.0" /><line stroke="rgb(0,0,0)" x1="1241.7028499999997" x2="1246.7028499999997" y1="150.0" y2="150.0" /><line stroke="rgb(0,0,0)" x1="1246.7028499999997" x2="1275.70285" y1="150.0" y2="150.0" /><line stroke="rgb(0,0,0)" x1="1275.70285" x2="1285.70285" y1="150.0" y2="150.0" /><line stroke="rgb(0,0,0)" x1="1285.70285" x2="1290.70285" y1="150.0" y2="150.0" /><line stroke="rgb(0,0,0)" x1="1290.70285" x2="1300.70285" y1="150.0" y2="150.0" /><line stroke="rgb(0,0,0)" x1="1300.70285" x2="1310.70285" y1="150.0" y2="150.0" /><line stroke="rgb(0,0,0)" x1="1310.70285" x2="1315.70285" y1="150.0" y2="150.0" /><line stroke="rgb(0,0,0)" x1="1315.70285" x2="1335.70285" y1="150.0" y2="150.0" /><line stroke="rgb(0,0,0)" x1="1335.70285" x2="1345.70285" y1="150.0" y2="150.0" /><line stroke="rgb(0,0,0)" x1="1345.70285" x2="1350.70285" y1="150.0" y2="150.0" /><line stroke="rgb(0,0,0)" x1="1350.70285" x2="1360.70285" y1="150.0" y2="150.0" /><line stroke="rgb(0,0,0)" x1="1360.70285" x2="1370.70285" y1="150.0" y2="150.0" /><line stroke="rgb(0,0,0)" x1="1370.70285" x2="1375.70285" y1="150.0" y2="150.0" /><line stroke="rgb(0,0,0)" x1="1375.70285" x2="1408.7951999999998" y1="150.0" y2="150.0" /><line stroke="rgb(0,0,0)" x1="1408.7951999999998" x2="1418.7951999999998" y1="150.0" y2="75.0" /><line stroke="rgb(0,0,0)" x1="1418.7951999999998" x2="1423.7951999999998" y1="75.0" y2="75.0" /><line stroke="rgb(0,0,0)" x1="1375.70285" x2="1408.7951999999998" y1="150.0" y2="150.0" /><line stroke="rgb(0,0,0)" x1="1408.7951999999998" x2="1418.7951999999998" y1="150.0" y2="225.0" /><line stroke="rgb(0,0,0)" x1="1418.7951999999998" x2="1423.7951999999998" y1="225.0" y2="225.0" /><line stroke="rgb(0,0,0)" x1="1423.7951999999998" x2="1448.7951999999998" y1="75.0" y2="75.0" /><line stroke="rgb(0,0,0)" x1="1448.7951999999998" x2="1463.7951999999998" y1="75.0" y2="75.0" /><line stroke="rgb(0,0,0)" x1="1463.7951999999998" x2="1468.7951999999998" y1="75.0" y2="75.0" /><line stroke="rgb(0,0,0)" x1="1423.7951999999998" x2="1453.7951999999998" y1="225.0" y2="225.0" /><line stroke="rgb(0,0,0)" x1="1453.7951999999998" x2="1463.7951999999998" y1="225.0" y2="225.0" /><line stroke="rgb(0,0,0)" x1="1463.7951999999998" x2="1468.7951999999998" y1="225.0" y2="225.0" /><line stroke="rgb(0,0,0)" x1="1468.7951999999998" x2="1493.7951999999998" y1="75.0" y2="75.0" /><line stroke="rgb(0,0,0)" x1="1493.7951999999998" x2="1503.7951999999998" y1="75.0" y2="150.0" /><line stroke="rgb(0,0,0)" x1="1503.7951999999998" x2="1508.7951999999998" y1="150.0" y2="150.0" /><line stroke="rgb(0,0,0)" x1="1508.7951999999998" x2="1529.43625" y1="150.0" y2="150.0" /><line stroke="rgb(0,0,0)" x1="1529.43625" x2="1539.43625" y1="150.0" y2="150.0" /><line stroke="rgb(0,0,0)" x1="1539.43625" x2="1544.43625" y1="150.0" y2="150.0" /><line stroke="rgb(0,0,0)" x1="1544.43625" x2="1564.43625" y1="150.0" y2="150.0" /><line stroke="rgb(0,0,0)" x1="1564.43625" x2="1574.43625" y1="150.0" y2="150.0" /><line stroke="rgb(0,0,0)" x1="1574.43625" x2="1579.43625" y1="150.0" y2="150.0" /><line stroke="rgb(0,0,0)" x1="1468.7951999999998" x2="1488.7951999999998" y1="225.0" y2="225.0" /><line stroke="rgb(0,0,0)" x1="1488.7951999999998" x2="1574.43625" y1="225.0" y2="150.0" /><line stroke="rgb(0,0,0)" x1="1574.43625" x2="1579.43625" y1="150.0" y2="150.0" /><line stroke="rgb(0,0,0)" x1="1579.43625" x2="1614.87625" y1="150.0" y2="150.0" /><line stroke="rgb(0,0,0)" x1="1614.87625" x2="1624.87625" y1="150.0" y2="150.0" /><line stroke="rgb(0,0,0)" x1="1624.87625" x2="1629.87625" y1="150.0" y2="150.0" /><line stroke="rgb(0,0,0)" x1="1629.87625" x2="1654.0868" y1="150.0" y2="150.0" /><line stroke="rgb(0,0,0)" x1="1654.0868" x2="1664.0868" y1="150.0" y2="150.0" /><line stroke="rgb(0,0,0)" x1="1664.0868" x2="1669.0868" y1="150.0" y2="150.0" /><line stroke="rgb(0,0,0)" x1="1669.0868" x2="1709.0868" y1="150.0" y2="150.0" /><line stroke="rgb(0,0,0)" x1="1709.0868" x2="1719.0868" y1="150.0" y2="150.0" /><line stroke="rgb(0,0,0)" x1="1719.0868" x2="1724.0868" y1="150.0" y2="150.0" /><line stroke="rgb(0,0,0)" x1="1724.0868" x2="1749.0868" y1="150.0" y2="150.0" /><line stroke="rgb(0,0,0)" x1="1749.0868" x2="1759.0868" y1="150.0" y2="150.0" /><line stroke="rgb(0,0,0)" x1="1759.0868" x2="1764.0868" y1="150.0" y2="150.0" /><line stroke="rgb(0,0,0)" x1="1764.0868" x2="1790.5574000000001" y1="150.0" y2="150.0" /><line stroke="rgb(0,0,0)" x1="1790.5574000000001" x2="1800.5574000000001" y1="150.0" y2="150.0" /><line stroke="rgb(0,0,0)" x1="1800.5574000000001" x2="1805.5574000000001" y1="150.0" y2="150.0" /><line stroke="rgb(0,0,0)" x1="1805.5574000000001" x2="1879.2414000000003" y1="150.0" y2="150.0" /><line stroke="rgb(0,0,0)" x1="1879.2414000000003" x2="1889.2414000000003" y1="150.0" y2="150.0" /><line stroke="rgb(0,0,0)" x1="1889.2414000000003" x2="1894.2414000000003" y1="150.0" y2="150.0" /><line stroke="rgb(0,0,0)" x1="1894.2414000000003" x2="1906.7414000000003" y1="150.0" y2="150.0" /><line stroke="rgb(0,0,0)" x1="1906.7414000000003" x2="1916.7414000000003" y1="150.0" y2="150.0" /><line stroke="rgb(0,0,0)" x1="1916.7414000000003" x2="1921.7414000000003" y1="150.0" y2="150.0" /><rect fill="rgb(43,34,255)" height="0.8" stroke="rgb(0,0,0)" width="12.5" x="5.0" y="74.6" /><text fill="black" x="5.0" y="95.4">E0</text><rect fill="rgb(255,63,81)" height="5.2" stroke="rgb(0,0,0)" width="17.6923" x="5.0" y="222.4" /><text fill="black" x="5.0" y="247.6">H1</text><rect fill="rgb(49,38,255)" height="0.8" stroke="rgb(0,0,0)" width="12.5" x="42.6923" y="149.6" /><text fill="black" x="42.6923" y="170.4">E2</text><rect fill="rgb(255,37,47)" height="5.2" stroke="rgb(0,0,0)" width="32.692299999999996" x="75.1923" y="147.4" /><text fill="black" x="75.1923" y="172.6">H3</text><rect fill="rgb(0,0,255)" height="0.0" stroke="rgb(0,0,0)" width="0.0" x="127.8846" y="150.0" /><text fill="black" x="127.8846" y="170.0">X4</text><rect fill="rgb(255,22,28)" height="2.4" stroke="rgb(0,0,0)" width="62.5" x="147.8846" y="148.8" /><text fill="black" x="147.8846" y="171.2">H5</text><rect fill="rgb(85,67,255)" height="0.8" stroke="rgb(0,0,0)" width="30.0" x="230.3846" y="74.6" /><text fill="black" x="230.3846" y="95.4">H6</text><rect fill="rgb(255,90,115)" height="8.799999999999999" stroke="rgb(0,0,0)" width="18.409100000000002" x="230.3846" y="220.6" /><text fill="black" x="230.3846" y="249.4">E7</text><rect fill="rgb(255,40,51)" height="0.8" stroke="rgb(0,0,0)" width="77.5" x="280.3846" y="149.6" /><text fill="black" x="280.3846" y="170.4">H8</text><rect fill="rgb(0,0,255)" height="0.0" stroke="rgb(0,0,0)" width="0.0" x="377.8846" y="150.0" /><text fill="black" x="377.8846" y="170.0">X9</text><rect fill="rgb(255,183,233)" height="6.0" stroke="rgb(0,0,0)" width="20.0" x="397.8846" y="147.0" /><text fill="black" x="397.8846" y="173.0">H10</text><rect fill="rgb(255,143,182)" height="1.6" stroke="rgb(0,0,0)" width="8.75" x="437.8846" y="149.2" /><text fill="black" x="437.8846" y="170.8">E11</text><rect fill="rgb(255,4,5)" height="4.0" stroke="rgb(0,0,0)" width="7.5" x="466.6346" y="148.0" /><text fill="black" x="466.6346" y="172.0">E12</text><rect fill="rgb(255,143,182)" height="6.4" stroke="rgb(0,0,0)" width="22.8125" x="494.1346" y="146.8" /><text fill="black" x="494.1346" y="173.2">E13</text><rect fill="rgb(96,75,255)" height="27.6" stroke="rgb(0,0,0)" width="6.08695" x="536.9471" y="136.2" /><text fill="black" x="536.9471" y="183.8">E14</text><rect fill="rgb(75,58,255)" height="70.8" stroke="rgb(0,0,0)" width="17.7966" x="563.03405" y="114.6" /><text fill="black" x="563.03405" y="205.4">H15</text><rect fill="rgb(142,111,255)" height="9.2" stroke="rgb(0,0,0)" width="12.8261" x="600.83065" y="145.4" /><text fill="black" x="600.83065" y="174.6">E16</text><rect fill="rgb(243,191,255)" height="3.2" stroke="rgb(0,0,0)" width="15.0" x="633.65675" y="148.4" /><text fill="black" x="633.65675" y="171.6">H17</text><rect fill="rgb(165,130,255)" height="88.0" stroke="rgb(0,0,0)" width="42.431799999999996" x="668.65675" y="106.0" /><text fill="black" x="668.65675" y="214.0">E18</text><rect fill="rgb(255,195,249)" height="2.0" stroke="rgb(0,0,0)" width="18.0" x="731.0885499999999" y="149.0" /><text fill="black" x="731.0885499999999" y="171.0">H19</text><rect fill="rgb(0,0,255)" height="0.4" stroke="rgb(0,0,0)" width="5.0" x="769.0885499999999" y="149.8" /><text fill="black" x="769.0885499999999" y="170.2">E20</text><rect fill="rgb(223,175,255)" height="10.0" stroke="rgb(0,0,0)" width="16.4" x="794.0885499999999" y="145.0" /><text fill="black" x="794.0885499999999" y="175.0">E21</text><rect fill="rgb(117,91,255)" height="100.0" stroke="rgb(0,0,0)" width="36.6" x="830.4885499999999" y="100.0" /><text fill="black" x="830.4885499999999" y="220.0">E22</text><rect fill="rgb(0,0,255)" height="0.4" stroke="rgb(0,0,0)" width="10.0" x="887.0885499999998" y="149.8" /><text fill="black" x="887.0885499999998" y="170.2">E23</text><rect fill="rgb(92,72,255)" height="64.4" stroke="rgb(0,0,0)" width="15.124200000000002" x="917.0885499999998" y="117.8" /><text fill="black" x="917.0885499999998" y="202.2">H24</text><rect fill="rgb(147,115,255)" height="100.0" stroke="rgb(0,0,0)" width="38.6" x="952.2127499999999" y="100.0" /><text fill="black" x="952.2127499999999" y="220.0">E25</text><rect fill="rgb(97,76,255)" height="4.3999999999999995" stroke="rgb(0,0,0)" width="16.36365" x="1010.8127499999999" y="147.8" /><text fill="black" x="1010.8127499999999" y="172.2">H26</text><rect fill="rgb(137,107,255)" height="29.2" stroke="rgb(0,0,0)" width="23.63015" x="1047.1763999999998" y="135.4" /><text fill="black" x="1047.1763999999998" y="184.6">H27</text><rect fill="rgb(255,94,120)" height="4.8" stroke="rgb(0,0,0)" width="12.91665" x="1090.80655" y="147.6" /><text fill="black" x="1090.80655" y="172.4">E28</text><rect fill="rgb(255,153,196)" height="4.8" stroke="rgb(0,0,0)" width="12.91665" x="1123.7232" y="147.6" /><text fill="black" x="1123.7232" y="172.4">E29</text><rect fill="rgb(225,176,255)" height="95.19999999999999" stroke="rgb(0,0,0)" width="70.063" x="1156.6398499999998" y="102.4" /><text fill="black" x="1156.6398499999998" y="217.6">H30</text><rect fill="rgb(255,95,121)" height="2.0" stroke="rgb(0,0,0)" width="24.0" x="1246.7028499999997" y="149.0" /><text fill="black" x="1246.7028499999997" y="171.0">H31</text><rect fill="rgb(106,83,255)" height="5.6000000000000005" stroke="rgb(0,0,0)" width="5.0" x="1290.70285" y="147.2" /><text fill="black" x="1290.70285" y="172.8">E32</text><rect fill="rgb(42,33,255)" height="42.0" stroke="rgb(0,0,0)" width="15.0" x="1315.70285" y="129.0" /><text fill="black" x="1315.70285" y="191.0">H33</text><rect fill="rgb(72,57,255)" height="5.6000000000000005" stroke="rgb(0,0,0)" width="5.0" x="1350.70285" y="147.2" /><text fill="black" x="1350.70285" y="172.8">E34</text><rect fill="rgb(157,123,255)" height="99.6" stroke="rgb(0,0,0)" width="28.092350000000003" x="1375.70285" y="100.2" /><text fill="black" x="1375.70285" y="219.8">E35</text><rect fill="rgb(0,0,255)" height="0.4" stroke="rgb(0,0,0)" width="20.0" x="1423.7951999999998" y="74.8" /><text fill="black" x="1423.7951999999998" y="95.2">H36</text><rect fill="rgb(0,0,255)" height="0.4" stroke="rgb(0,0,0)" width="25.0" x="1423.7951999999998" y="224.8" /><text fill="black" x="1423.7951999999998" y="245.2">E37</text><rect fill="rgb(0,0,255)" height="0.4" stroke="rgb(0,0,0)" width="20.0" x="1468.7951999999998" y="74.8" /><text fill="black" x="1468.7951999999998" y="95.2">H38</text><rect fill="rgb(255,0,0)" height="0.8" stroke="rgb(0,0,0)" width="15.0" x="1468.7951999999998" y="224.6" /><text fill="black" x="1468.7951999999998" y="245.4">E39</text><rect fill="rgb(255,169,216)" height="15.6" stroke="rgb(0,0,0)" width="15.64105" x="1508.7951999999998" y="142.2" /><text fill="black" x="1508.7951999999998" y="177.8">H40</text><rect fill="rgb(238,186,255)" height="1.2" stroke="rgb(0,0,0)" width="15.0" x="1544.43625" y="149.4" /><text fill="black" x="1544.43625" y="170.6">H41</text><rect fill="rgb(133,104,255)" height="100.0" stroke="rgb(0,0,0)" width="30.44" x="1579.43625" y="100.0" /><text fill="black" x="1579.43625" y="220.0">E42</text><rect fill="rgb(255,86,110)" height="7.6" stroke="rgb(0,0,0)" width="19.210549999999998" x="1629.87625" y="146.2" /><text fill="black" x="1629.87625" y="173.8">H43</text><rect fill="rgb(255,71,91)" height="1.2" stroke="rgb(0,0,0)" width="35.0" x="1669.0868" y="149.4" /><text fill="black" x="1669.0868" y="170.6">H44</text><rect fill="rgb(16,12,255)" height="4.0" stroke="rgb(0,0,0)" width="20.0" x="1724.0868" y="148.0" /><text fill="black" x="1724.0868" y="172.0">H45</text><rect fill="rgb(58,46,255)" height="6.800000000000001" stroke="rgb(0,0,0)" width="21.4706" x="1764.0868" y="146.6" /><text fill="black" x="1764.0868" y="173.4">H46</text><rect fill="rgb(231,181,255)" height="7.6" stroke="rgb(0,0,0)" width="68.684" x="1805.5574000000001" y="146.2" /><text fill="black" x="1805.5574000000001" y="173.8">H47</text><rect fill="rgb(51,40,255)" height="1.6" stroke="rgb(0,0,0)" width="7.5" x="1894.2414000000003" y="149.2" /><text fill="black" x="1894.2414000000003" y="170.8">E48</text><rect fill="rgb(0,0,255)" height="0.4" stroke="rgb(0,0,0)" width="25.0" x="1921.7414000000003" y="149.8" /><text fill="black" x="1921.7414000000003" y="170.2">E49</text><path d="M 48.9423,150.0 a 95.346566349064,95.346566349064 0 0,0 -37.6923,-75.0" stroke="rgb(43,34,255)" stroke-width="2" /><path d="M 48.9423,150.0 a 95.346566349064,95.346566349064 0 0,0 -37.6923,-75.0" stroke="rgb(0,0,0)" stroke-width="0.2" /><path d="M 470.3846,150.0 a 359.677880606706,359.677880606706 0 0,0 -230.79544999999996,75.0" stroke="rgb(255,90,115)" stroke-width="2" /><path d="M 470.3846,150.0 a 359.677880606706,359.677880606706 0 0,0 -230.79544999999996,75.0" stroke="rgb(0,0,0)" stroke-width="0.2" /><path d="M 505.54085,150.0 a 430.0759088552722,430.0759088552722 0 0,0 -265.95169999999996,75.0" stroke="rgb(255,90,115)" stroke-width="2" /><path d="M 505.54085,150.0 a 430.0759088552722,430.0759088552722 0 0,0 -265.95169999999996,75.0" stroke="rgb(0,0,0)" stroke-width="0.2" /><path d="M 470.3846,150.0 a 28.597238556773892,28.597238556773892 0 0,0 -28.125,-0.0" stroke="rgb(255,143,182)" stroke-width="2" /><path d="M 470.3846,150.0 a 28.597238556773892,28.597238556773892 0 0,0 -28.125,-0.0" stroke="rgb(0,0,0)" stroke-width="0.2" /><path d="M 539.9905749999999,150.0 a 1668.612325787278,1668.612325787278 0 0,0 849.7584499999999,-0.0" stroke="rgb(96,75,255)" stroke-width="2" /><path d="M 539.9905749999999,150.0 a 1668.612325787278,1668.612325787278 0 0,0 849.7584499999999,-0.0" stroke="rgb(0,0,0)" stroke-width="0.2" /><path d="M 848.7885499999999,150.0 a 357.399607210724,357.399607210724 0 0,0 -241.54484999999988,-0.0" stroke="rgb(142,111,255)" stroke-width="2" /><path d="M 848.7885499999999,150.0 a 357.399607210724,357.399607210724 0 0,0 -241.54484999999988,-0.0" stroke="rgb(0,0,0)" stroke-width="0.2" /><path d="M 892.0885499999998,150.0 a 448.7043931438238,448.7043931438238 0 0,0 -284.84484999999984,-0.0" stroke="rgb(142,111,255)" stroke-width="2" /><path d="M 892.0885499999998,150.0 a 448.7043931438238,448.7043931438238 0 0,0 -284.84484999999984,-0.0" stroke="rgb(0,0,0)" stroke-width="0.2" /><path d="M 848.7885499999999,150.0 a 206.33555660987918,206.33555660987918 0 0,0 -158.91589999999985,-0.0" stroke="rgb(165,130,255)" stroke-width="2" /><path d="M 848.7885499999999,150.0 a 206.33555660987918,206.33555660987918 0 0,0 -158.91589999999985,-0.0" stroke="rgb(0,0,0)" stroke-width="0.2" /><path d="M 802.28855,150.0 a 31.382801281949035,31.382801281949035 0 0,0 -30.700000000000045,-0.0" stroke="rgb(0,0,255)" stroke-width="2" /><path d="M 802.28855,150.0 a 31.382801281949035,31.382801281949035 0 0,0 -30.700000000000045,-0.0" stroke="rgb(0,0,0)" stroke-width="0.2" /><path d="M 848.7885499999999,150.0 a 49.09413816009916,49.09413816009916 0 0,0 -46.499999999999886,-0.0" stroke="rgb(223,175,255)" stroke-width="2" /><path d="M 848.7885499999999,150.0 a 49.09413816009916,49.09413816009916 0 0,0 -46.499999999999886,-0.0" stroke="rgb(0,0,0)" stroke-width="0.2" /><path d="M 971.5127499999999,150.0 a 149.68332976618558,149.68332976618558 0 0,0 -122.7242,-0.0" stroke="rgb(117,91,255)" stroke-width="2" /><path d="M 971.5127499999999,150.0 a 149.68332976618558,149.68332976618558 0 0,0 -122.7242,-0.0" stroke="rgb(0,0,0)" stroke-width="0.2" /><path d="M 1594.65625,150.0 a 1452.2510842649085,1452.2510842649085 0 0,0 -623.1435000000001,-0.0" stroke="rgb(147,115,255)" stroke-width="2" /><path d="M 1594.65625,150.0 a 1452.2510842649085,1452.2510842649085 0 0,0 -623.1435000000001,-0.0" stroke="rgb(0,0,0)" stroke-width="0.2" /><path d="M 1130.181525,150.0 a 33.80332178950043,33.80332178950043 0 0,0 -32.91664999999989,-0.0" stroke="rgb(255,94,120)" stroke-width="2" /><path d="M 1130.181525,150.0 a 33.80332178950043,33.80332178950043 0 0,0 -32.91664999999989,-0.0" stroke="rgb(0,0,0)" stroke-width="0.2" /><path d="M 1353.20285,150.0 a 65.0749601151999,65.0749601151999 0 0,0 -60.0,-0.0" stroke="rgb(106,83,255)" stroke-width="2" /><path d="M 1353.20285,150.0 a 65.0749601151999,65.0749601151999 0 0,0 -60.0,-0.0" stroke="rgb(0,0,0)" stroke-width="0.2" /><path d="M 1476.2951999999998,225.0 a 137.6439041225287,137.6439041225287 0 0,0 -86.54617499999995,-75.0" stroke="rgb(157,123,255)" stroke-width="2" /><path d="M 1476.2951999999998,225.0 a 137.6439041225287,137.6439041225287 0 0,0 -86.54617499999995,-75.0" stroke="rgb(0,0,0)" stroke-width="0.2" /><path d="M 1594.65625,150.0 a 286.6758771339659,286.6758771339659 0 0,0 -204.90722500000015,-0.0" stroke="rgb(157,123,255)" stroke-width="2" /><path d="M 1594.65625,150.0 a 286.6758771339659,286.6758771339659 0 0,0 -204.90722500000015,-0.0" stroke="rgb(0,0,0)" stroke-width="0.2" /><path d="M 1897.9914000000003,150.0 a 1053.512731646374,1053.512731646374 0 0,0 -508.2423750000005,-0.0" stroke="rgb(157,123,255)" stroke-width="2" /><path d="M 1897.9914000000003,150.0 a 1053.512731646374,1053.512731646374 0 0,0 -508.2423750000005,-0.0" stroke="rgb(0,0,0)" stroke-width="0.2" /><path d="M 1476.2951999999998,225.0 a 41.67864014677905,41.67864014677905 0 0,0 -40.0,-0.0" stroke="rgb(0,0,255)" stroke-width="2" /><path d="M 1476.2951999999998,225.0 a 41.67864014677905,41.67864014677905 0 0,0 -40.0,-0.0" stroke="rgb(0,0,0)" stroke-width="0.2" /><path d="M 1934.2414000000003,150.0 a 576.1450154903418,576.1450154903418 0 0,0 -339.58515000000034,-0.0" stroke="rgb(133,104,255)" stroke-width="2" /><path d="M 1934.2414000000003,150.0 a 576.1450154903418,576.1450154903418 0 0,0 -339.58515000000034,-0.0" stroke="rgb(0,0,0)" stroke-width="0.2" /></svg>