<?xml version="1.0" encoding="utf-8" ?>
<svg baseProfile="full" height="100%" style="font-size:14;font-family:Sans, Arial;stroke-width:1;fill:none" version="1.1" width="100%" xmlns="http://www.w3.org/2000/svg" xmlns:ev="http://www.w3.org/2001/xml-events" xmlns:xlink="http://www.w3.org/1999/xlink"><defs /><rect fill="none" height="130.0" stroke="none" width="633.86505" x="0" y="0" /><line stroke="rgb(0,0,0)" x1="5.0" x2="16.08695" y1="55.0" y2="55.0" /><line stroke="rgb(0,0,0)" x1="16.08695" x2="36.08695" y1="55.0" y2="55.0" /><line stroke="rgb(0,0,0)" x1="36.08695" x2="41.08695" y1="55.0" y2="55.0" /><line stroke="rgb(0,0,0)" x1="41.08695" x2="63.88355" y1="55.0" y2="55.0" /><line stroke="rgb(0,0,0)" x1="63.88355" x2="83.88355000000001" y1="55.0" y2="55.0" /><line stroke="rgb(0,0,0)" x1="83.88355000000001" x2="88.88355000000001" y1="55.0" y2="55.0" /><line stroke="rgb(0,0,0)" x1="88.88355000000001" x2="136.31535" y1="55.0" y2="55.0" /><line stroke="rgb(0,0,0)" x1="136.31535" x2="156.31535" y1="55.0" y2="55.0" /><line stroke="rgb(0,0,0)" x1="156.31535" x2="161.31535" y1="55.0" y2="55.0" /><line stroke="rgb(0,0,0)" x1="161.31535" x2="202.91535" y1="55.0" y2="55.0" /><line stroke="rgb(0,0,0)" x1="202.91535" x2="222.91535" y1="55.0" y2="55.0" /><line stroke="rgb(0,0,0)" x1="222.91535" x2="227.91535" y1="55.0" y2="55.0" /><line stroke="rgb(0,0,0)" x1="227.91535" x2="248.03955" y1="55.0" y2="55.0" /><line stroke="rgb(0,0,0)" x1="248.03955" x2="268.03954999999996" y1="55.0" y2="55.0" /><line stroke="rgb(0,0,0)" x1="268.03954999999996" x2="273.03954999999996" y1="55.0" y2="55.0" /><line stroke="rgb(0,0,0)" x1="273.03954999999996" x2="316.63955" y1="55.0" y2="55.0" /><line stroke="rgb(0,0,0)" x1="316.63955" x2="336.63955" y1="55.0" y2="55.0" /><line stroke="rgb(0,0,0)" x1="336.63955" x2="341.63955" y1="55.0" y2="55.0" /><line stroke="rgb(0,0,0)" x1="341.63955" x2="370.2697" y1="55.0" y2="55.0" /><line stroke="rgb(0,0,0)" x1="370.2697" x2="390.2697" y1="55.0" y2="55.0" /><line stroke="rgb(0,0,0)" x1="390.2697" x2="395.2697" y1="55.0" y2="55.0" /><line stroke="rgb(0,0,0)" x1="395.2697" x2="470.33270000000005" y1="55.0" y2="55.0" /><line stroke="rgb(0,0,0)" x1="470.33270000000005" x2="490.33270000000005" y1="55.0" y2="55.0" /><line stroke="rgb(0,0,0)" x1="490.33270000000005" x2="495.33270000000005" y1="55.0" y2="55.0" /><line stroke="rgb(0,0,0)" x1="495.33270000000005" x2="515.3327" y1="55.0" y2="55.0" /><line stroke="rgb(0,0,0)" x1="515.3327" x2="535.3327" y1="55.0" y2="55.0" /><line stroke="rgb(0,0,0)" x1="535.3327" x2="540.3327" y1="55.0" y2="55.0" /><line stroke="rgb(0,0,0)" x1="540.3327" x2="573.42505" y1="55.0" y2="55.0" /><line stroke="rgb(0,0,0)" x1="573.42505" x2="593.42505" y1="55.0" y2="55.0" /><line stroke="rgb(0,0,0)" x1="593.42505" x2="598.42505" y1="55.0" y2="55.0" /><rect fill="rgb(255,150,150)" height="27.6" stroke="rgb(0,0,0)" width="6.08695" x="5.0" y="41.2" /><text fill="black" x="5.0" y="88.8">E14</text><rect fill="rgb(150,150,150)" height="70.8" stroke="rgb(0,0,0)" width="17.7966" x="41.08695" y="19.6" /><text fill="black" x="41.08695" y="110.4">H15</text><rect fill="rgb(255,150,150)" height="88.0" stroke="rgb(0,0,0)" width="42.431799999999996" x="88.88355000000001" y="11.0" /><text fill="black" x="88.88355000000001" y="119.0">E18</text><rect fill="rgb(255,150,150)" height="100.0" stroke="rgb(0,0,0)" width="36.6" x="161.31535" y="5.0" /><text fill="black" x="161.31535" y="125.0">E22</text><rect fill="rgb(150,150,150)" height="64.4" stroke="rgb(0,0,0)" width="15.124200000000002" x="227.91535" y="22.799999999999997" /><text fill="black" x="227.91535" y="107.2">H24</text><rect fill="rgb(255,150,150)" height="100.0" stroke="rgb(0,0,0)" width="38.6" x="273.03954999999996" y="5.0" /><text fill="black" x="273.03954999999996" y="125.0">E25</text><rect fill="rgb(150,150,150)" height="29.2" stroke="rgb(0,0,0)" width="23.63015" x="341.63955" y="40.4" /><text fill="black" x="341.63955" y="89.6">H27</text><rect fill="rgb(150,150,150)" height="95.19999999999999" stroke="rgb(0,0,0)" width="70.063" x="395.2697" y="7.400000000000006" /><text fill="black" x="395.2697" y="122.6">H30</text><rect fill="rgb(150,150,150)" height="42.0" stroke="rgb(0,0,0)" width="15.0" x="495.33270000000005" y="34.0" /><text fill="black" x="495.33270000000005" y="96.0">H33</text><rect fill="rgb(255,150,150)" height="99.6" stroke="rgb(0,0,0)" width="28.092350000000003" x="540.3327" y="5.200000000000003" /><text fill="black" x="540.3327" y="124.8">E35</text><rect fill="rgb(255,150,150)" height="100.0" stroke="rgb(0,0,0)" width="30.44" x="598.42505" y="5.0" /><text fill="black" x="598.42505" y="125.0">E42</text></svg>