<?xml version="1.0" encoding="utf-8" ?>
<svg baseProfile="full" height="100%" style="font-size:14;font-family:Sans, Arial;stroke-width:1;fill:none" version="1.1" width="100%" xmlns="http://www.w3.org/2000/svg" xmlns:ev="http://www.w3.org/2001/xml-events" xmlns:xlink="http://www.w3.org/1999/xlink"><defs /><rect fill="none" height="130.0" stroke="none" width="810.0" x="0" y="0" /><line stroke="rgb(0,0,0)" x1="5.0" x2="25.0" y1="55.0" y2="55.0" /><line stroke="rgb(0,0,0)" x1="25.0" x2="45.0" y1="55.0" y2="55.0" /><line stroke="rgb(0,0,0)" x1="45.0" x2="50.0" y1="55.0" y2="55.0" /><line stroke="rgb(0,0,0)" x1="50.0" x2="95.0" y1="55.0" y2="55.0" /><line stroke="rgb(0,0,0)" x1="95.0" x2="115.0" y1="55.0" y2="55.0" /><line stroke="rgb(0,0,0)" x1="115.0" x2="120.0" y1="55.0" y2="55.0" /><line stroke="rgb(0,0,0)" x1="120.0" x2="180.0" y1="55.0" y2="55.0" /><line stroke="rgb(0,0,0)" x1="180.0" x2="200.0" y1="55.0" y2="55.0" /><line stroke="rgb(0,0,0)" x1="200.0" x2="205.0" y1="55.0" y2="55.0" /><line stroke="rgb(0,0,0)" x1="205.0" x2="265.0" y1="55.0" y2="55.0" /><line stroke="rgb(0,0,0)" x1="265.0" x2="285.0" y1="55.0" y2="55.0" /><line stroke="rgb(0,0,0)" x1="285.0" x2="290.0" y1="55.0" y2="55.0" /><line stroke="rgb(0,0,0)" x1="290.0" x2="330.0" y1="55.0" y2="55.0" /><line stroke="rgb(0,0,0)" x1="330.0" x2="350.0" y1="55.0" y2="55.0" /><line stroke="rgb(0,0,0)" x1="350.0" x2="355.0" y1="55.0" y2="55.0" /><line stroke="rgb(0,0,0)" x1="355.0" x2="415.0" y1="55.0" y2="55.0" /><line stroke="rgb(0,0,0)" x1="415.0" x2="435.0" y1="55.0" y2="55.0" /><line stroke="rgb(0,0,0)" x1="435.0" x2="440.0" y1="55.0" y2="55.0" /><line stroke="rgb(0,0,0)" x1="440.0" x2="480.0" y1="55.0" y2="55.0" /><line stroke="rgb(0,0,0)" x1="480.0" x2="500.0" y1="55.0" y2="55.0" /><line stroke="rgb(0,0,0)" x1="500.0" x2="505.0" y1="55.0" y2="55.0" /><line stroke="rgb(0,0,0)" x1="505.0" x2="615.0" y1="55.0" y2="55.0" /><line stroke="rgb(0,0,0)" x1="615.0" x2="635.0" y1="55.0" y2="55.0" /><line stroke="rgb(0,0,0)" x1="635.0" x2="640.0" y1="55.0" y2="55.0" /><line stroke="rgb(0,0,0)" x1="640.0" x2="660.0" y1="55.0" y2="55.0" /><line stroke="rgb(0,0,0)" x1="660.0" x2="680.0" y1="55.0" y2="55.0" /><line stroke="rgb(0,0,0)" x1="680.0" x2="685.0" y1="55.0" y2="55.0" /><line stroke="rgb(0,0,0)" x1="685.0" x2="735.0" y1="55.0" y2="55.0" /><line stroke="rgb(0,0,0)" x1="735.0" x2="755.0" y1="55.0" y2="55.0" /><line stroke="rgb(0,0,0)" x1="755.0" x2="760.0" y1="55.0" y2="55.0" /><polygon fill="rgb(255,150,150)" points="20.0,55.0 20.0,54.6 17.5,54.6 17.5,52.4 15.0,52.4 15.0,41.2 12.5,41.2 12.5,41.2 10.0,41.2 10.0,52.4 7.5,52.4 7.5,54.6 5.0,54.6 5.0,55.0 5.0,55.0 5.0,55.4 7.5,55.4 7.5,57.6 10.0,57.6 10.0,68.8 12.5,68.8 12.5,68.8 15.0,68.8 15.0,57.6 17.5,57.6 17.5,55.4 20.0,55.4 20.0,55.0" stroke="rgb(0,0,0)" /><text fill="black" x="5.0" y="88.8">E14</text><polygon fill="rgb(150,150,150)" points="90.0,55.0 90.0,54.8 85.0,54.8 85.0,54.6 82.5,54.6 82.5,52.599999999999994 80.0,52.599999999999994 80.0,38.400000000000006 77.5,38.400000000000006 77.5,19.6 70.0,19.6 70.0,19.6 62.5,19.6 62.5,38.400000000000006 60.0,38.400000000000006 60.0,52.599999999999994 57.5,52.599999999999994 57.5,54.6 55.0,54.6 55.0,54.8 50.0,54.8 50.0,55.0 50.0,55.0 50.0,55.2 55.0,55.2 55.0,55.4 57.5,55.4 57.5,57.400000000000006 60.0,57.400000000000006 60.0,71.6 62.5,71.6 62.5,90.4 70.0,90.4 70.0,90.4 77.5,90.4 77.5,71.6 80.0,71.6 80.0,57.400000000000006 82.5,57.400000000000006 82.5,55.4 85.0,55.4 85.0,55.2 90.0,55.2 90.0,55.0" stroke="rgb(0,0,0)" /><text fill="black" x="50.0" y="110.4">H15</text><polygon fill="rgb(255,150,150)" points="175.0,55.0 175.0,54.8 172.5,54.8 172.5,44.800000000000004 170.0,44.800000000000004 170.0,25.200000000000003 167.5,25.200000000000003 167.5,18.800000000000004 165.0,18.800000000000004 165.0,18.0 162.5,18.0 162.5,12.800000000000004 160.0,12.800000000000004 160.0,12.0 157.5,12.0 157.5,11.399999999999999 150.0,11.399999999999999 150.0,11.0 147.5,11.0 147.5,11.0 145.0,11.0 145.0,11.399999999999999 137.5,11.399999999999999 137.5,12.0 135.0,12.0 135.0,12.800000000000004 132.5,12.800000000000004 132.5,18.0 130.0,18.0 130.0,18.800000000000004 127.5,18.800000000000004 127.5,25.200000000000003 125.0,25.200000000000003 125.0,44.800000000000004 122.5,44.800000000000004 122.5,54.8 120.0,54.8 120.0,55.0 120.0,55.0 120.0,55.2 122.5,55.2 122.5,65.2 125.0,65.2 125.0,84.8 127.5,84.8 127.5,91.19999999999999 130.0,91.19999999999999 130.0,92.0 132.5,92.0 132.5,97.19999999999999 135.0,97.19999999999999 135.0,98.0 137.5,98.0 137.5,98.6 145.0,98.6 145.0,99.0 147.5,99.0 147.5,99.0 150.0,99.0 150.0,98.6 157.5,98.6 157.5,98.0 160.0,98.0 160.0,97.19999999999999 162.5,97.19999999999999 162.5,92.0 165.0,92.0 165.0,91.19999999999999 167.5,91.19999999999999 167.5,84.8 170.0,84.8 170.0,65.2 172.5,65.2 172.5,55.2 175.0,55.2 175.0,55.0" stroke="rgb(0,0,0)" /><text fill="black" x="120.0" y="119.0">E18</text><polygon fill="rgb(255,150,150)" points="260.0,55.0 260.0,54.8 257.5,54.8 257.5,54.6 255.0,54.6 255.0,52.8 252.5,52.8 252.5,29.8 250.0,29.8 250.0,12.800000000000004 247.5,12.800000000000004 247.5,7.200000000000003 245.0,7.200000000000003 245.0,6.0 242.5,6.0 242.5,5.600000000000001 240.0,5.600000000000001 240.0,5.399999999999999 237.5,5.399999999999999 237.5,5.0 232.5,5.0 232.5,5.0 227.5,5.0 227.5,5.399999999999999 225.0,5.399999999999999 225.0,5.600000000000001 222.5,5.600000000000001 222.5,6.0 220.0,6.0 220.0,7.200000000000003 217.5,7.200000000000003 217.5,12.800000000000004 215.0,12.800000000000004 215.0,29.8 212.5,29.8 212.5,52.8 210.0,52.8 210.0,54.6 207.5,54.6 207.5,54.8 205.0,54.8 205.0,55.0 205.0,55.0 205.0,55.2 207.5,55.2 207.5,55.4 210.0,55.4 210.0,57.2 212.5,57.2 212.5,80.2 215.0,80.2 215.0,97.19999999999999 217.5,97.19999999999999 217.5,102.8 220.0,102.8 220.0,104.0 222.5,104.0 222.5,104.4 225.0,104.4 225.0,104.6 227.5,104.6 227.5,105.0 232.5,105.0 232.5,105.0 237.5,105.0 237.5,104.6 240.0,104.6 240.0,104.4 242.5,104.4 242.5,104.0 245.0,104.0 245.0,102.8 247.5,102.8 247.5,97.19999999999999 250.0,97.19999999999999 250.0,80.2 252.5,80.2 252.5,57.2 255.0,57.2 255.0,55.4 257.5,55.4 257.5,55.2 260.0,55.2 260.0,55.0" stroke="rgb(0,0,0)" /><text fill="black" x="205.0" y="125.0">E22</text><polygon fill="rgb(150,150,150)" points="325.0,55.0 325.0,54.8 315.0,54.8 315.0,22.799999999999997 307.5,22.799999999999997 307.5,22.799999999999997 300.0,22.799999999999997 300.0,54.8 290.0,54.8 290.0,55.0 290.0,55.0 290.0,55.2 300.0,55.2 300.0,87.2 307.5,87.2 307.5,87.2 315.0,87.2 315.0,55.2 325.0,55.2 325.0,55.0" stroke="rgb(0,0,0)" /><text fill="black" x="290.0" y="107.2">H24</text><polygon fill="rgb(255,150,150)" points="410.0,55.0 410.0,54.4 407.5,54.4 407.5,54.0 405.0,54.0 405.0,46.8 402.5,46.8 402.5,22.6 400.0,22.6 400.0,10.199999999999996 397.5,10.199999999999996 397.5,5.799999999999997 395.0,5.799999999999997 395.0,5.200000000000003 392.5,5.200000000000003 392.5,5.0 382.5,5.0 382.5,5.0 372.5,5.0 372.5,5.200000000000003 370.0,5.200000000000003 370.0,5.799999999999997 367.5,5.799999999999997 367.5,10.199999999999996 365.0,10.199999999999996 365.0,22.6 362.5,22.6 362.5,46.8 360.0,46.8 360.0,54.0 357.5,54.0 357.5,54.4 355.0,54.4 355.0,55.0 355.0,55.0 355.0,55.6 357.5,55.6 357.5,56.0 360.0,56.0 360.0,63.2 362.5,63.2 362.5,87.4 365.0,87.4 365.0,99.80000000000001 367.5,99.80000000000001 367.5,104.2 370.0,104.2 370.0,104.8 372.5,104.8 372.5,105.0 382.5,105.0 382.5,105.0 392.5,105.0 392.5,104.8 395.0,104.8 395.0,104.2 397.5,104.2 397.5,99.80000000000001 400.0,99.80000000000001 400.0,87.4 402.5,87.4 402.5,63.2 405.0,63.2 405.0,56.0 407.5,56.0 407.5,55.6 410.0,55.6 410.0,55.0" stroke="rgb(0,0,0)" /><text fill="black" x="355.0" y="125.0">E25</text><polygon fill="rgb(150,150,150)" points="475.0,55.0 475.0,49.4 472.5,49.4 472.5,49.0 467.5,49.0 467.5,47.4 465.0,47.4 465.0,40.4 457.5,40.4 457.5,40.4 450.0,40.4 450.0,47.4 447.5,47.4 447.5,49.0 442.5,49.0 442.5,49.4 440.0,49.4 440.0,55.0 440.0,55.0 440.0,60.6 442.5,60.6 442.5,61.0 447.5,61.0 447.5,62.6 450.0,62.6 450.0,69.6 457.5,69.6 457.5,69.6 465.0,69.6 465.0,62.6 467.5,62.6 467.5,61.0 472.5,61.0 472.5,60.6 475.0,60.6 475.0,55.0" stroke="rgb(0,0,0)" /><text fill="black" x="440.0" y="89.6">H27</text><polygon fill="rgb(150,150,150)" points="610.0,55.0 610.0,54.8 607.5,54.8 607.5,54.0 605.0,54.0 605.0,53.199999999999996 600.0,53.199999999999996 600.0,49.4 597.5,49.4 597.5,37.2 595.0,37.2 595.0,35.0 592.5,35.0 592.5,28.2 590.0,28.2 590.0,17.6 587.5,17.6 587.5,14.0 585.0,14.0 585.0,12.399999999999999 582.5,12.399999999999999 582.5,10.399999999999999 580.0,10.399999999999999 580.0,8.599999999999994 577.5,8.599999999999994 577.5,7.800000000000004 575.0,7.800000000000004 575.0,7.600000000000001 570.0,7.600000000000001 570.0,7.400000000000006 557.5,7.400000000000006 557.5,7.400000000000006 545.0,7.400000000000006 545.0,7.600000000000001 540.0,7.600000000000001 540.0,7.800000000000004 537.5,7.800000000000004 537.5,8.599999999999994 535.0,8.599999999999994 535.0,10.399999999999999 532.5,10.399999999999999 532.5,12.399999999999999 530.0,12.399999999999999 530.0,14.0 527.5,14.0 527.5,17.6 525.0,17.6 525.0,28.2 522.5,28.2 522.5,35.0 520.0,35.0 520.0,37.2 517.5,37.2 517.5,49.4 515.0,49.4 515.0,53.199999999999996 510.0,53.199999999999996 510.0,54.0 507.5,54.0 507.5,54.8 505.0,54.8 505.0,55.0 505.0,55.0 505.0,55.2 507.5,55.2 507.5,56.0 510.0,56.0 510.0,56.800000000000004 515.0,56.800000000000004 515.0,60.6 517.5,60.6 517.5,72.8 520.0,72.8 520.0,75.0 522.5,75.0 522.5,81.8 525.0,81.8 525.0,92.4 527.5,92.4 527.5,96.0 530.0,96.0 530.0,97.6 532.5,97.6 532.5,99.6 535.0,99.6 535.0,101.4 537.5,101.4 537.5,102.19999999999999 540.0,102.19999999999999 540.0,102.4 545.0,102.4 545.0,102.6 557.5,102.6 557.5,102.6 570.0,102.6 570.0,102.4 575.0,102.4 575.0,102.19999999999999 577.5,102.19999999999999 577.5,101.4 580.0,101.4 580.0,99.6 582.5,99.6 582.5,97.6 585.0,97.6 585.0,96.0 587.5,96.0 587.5,92.4 590.0,92.4 590.0,81.8 592.5,81.8 592.5,75.0 595.0,75.0 595.0,72.8 597.5,72.8 597.5,60.6 600.0,60.6 600.0,56.800000000000004 605.0,56.800000000000004 605.0,56.0 607.5,56.0 607.5,55.2 610.0,55.2 610.0,55.0" stroke="rgb(0,0,0)" /><text fill="black" x="505.0" y="122.6">H30</text><polygon fill="rgb(150,150,150)" points="655.0,55.0 655.0,34.0 647.5,34.0 647.5,34.0 640.0,34.0 640.0,55.0 640.0,55.0 640.0,76.0 647.5,76.0 647.5,76.0 655.0,76.0 655.0,55.0" stroke="rgb(0,0,0)" /><text fill="black" x="640.0" y="96.0">H33</text><polygon fill="rgb(255,150,150)" points="730.0,55.0 730.0,54.2 727.5,54.2 727.5,53.199999999999996 725.0,53.199999999999996 725.0,41.4 722.5,41.4 722.5,25.0 720.0,25.0 720.0,13.200000000000003 717.5,13.200000000000003 717.5,12.200000000000003 715.0,12.200000000000003 715.0,5.399999999999999 710.0,5.399999999999999 710.0,5.200000000000003 707.5,5.200000000000003 707.5,5.200000000000003 705.0,5.200000000000003 705.0,5.399999999999999 700.0,5.399999999999999 700.0,12.200000000000003 697.5,12.200000000000003 697.5,13.200000000000003 695.0,13.200000000000003 695.0,25.0 692.5,25.0 692.5,41.4 690.0,41.4 690.0,53.199999999999996 687.5,53.199999999999996 687.5,54.2 685.0,54.2 685.0,55.0 685.0,55.0 685.0,55.8 687.5,55.8 687.5,56.800000000000004 690.0,56.800000000000004 690.0,68.6 692.5,68.6 692.5,85.0 695.0,85.0 695.0,96.8 697.5,96.8 697.5,97.8 700.0,97.8 700.0,104.6 705.0,104.6 705.0,104.8 707.5,104.8 707.5,104.8 710.0,104.8 710.0,104.6 715.0,104.6 715.0,97.8 717.5,97.8 717.5,96.8 720.0,96.8 720.0,85.0 722.5,85.0 722.5,68.6 725.0,68.6 725.0,56.800000000000004 727.5,56.800000000000004 727.5,55.8 730.0,55.8 730.0,55.0" stroke="rgb(0,0,0)" /><text fill="black" x="685.0" y="124.8">E35</text><polygon fill="rgb(255,150,150)" points="805.0,55.0 805.0,54.4 802.5,54.4 802.5,52.8 800.0,52.8 800.0,35.4 797.5,35.4 797.5,20.6 795.0,20.6 795.0,7.0 792.5,7.0 792.5,5.399999999999999 790.0,5.399999999999999 790.0,5.0 782.5,5.0 782.5,5.0 775.0,5.0 775.0,5.399999999999999 772.5,5.399999999999999 772.5,7.0 770.0,7.0 770.0,20.6 767.5,20.6 767.5,35.4 765.0,35.4 765.0,52.8 762.5,52.8 762.5,54.4 760.0,54.4 760.0,55.0 760.0,55.0 760.0,55.6 762.5,55.6 762.5,57.2 765.0,57.2 765.0,74.6 767.5,74.6 767.5,89.4 770.0,89.4 770.0,103.0 772.5,103.0 772.5,104.6 775.0,104.6 775.0,105.0 782.5,105.0 782.5,105.0 790.0,105.0 790.0,104.6 792.5,104.6 792.5,103.0 795.0,103.0 795.0,89.4 797.5,89.4 797.5,74.6 800.0,74.6 800.0,57.2 802.5,57.2 802.5,55.6 805.0,55.6 805.0,55.0" stroke="rgb(0,0,0)" /><text fill="black" x="760.0" y="125.0">E42</text><path d="M 12.5,55.0 a 1125.284090909091,1125.284090909091 0 0,0 695.0,-0.0" stroke="rgb(255,150,150)" stroke-width="2" /><path d="M 12.5,55.0 a 1125.284090909091,1125.284090909091 0 0,0 695.0,-0.0" stroke="rgb(0,0,0)" stroke-width="0.2" /><path d="M 232.5,55.0 a 57.17947184394553,57.17947184394553 0 0,0 -85.0,-0.0" stroke="rgb(255,150,150)" stroke-width="2" /><path d="M 232.5,55.0 a 57.17947184394553,57.17947184394553 0 0,0 -85.0,-0.0" stroke="rgb(0,0,0)" stroke-width="0.2" /><path d="M 382.5,55.0 a 119.58479020979021,119.58479020979021 0 0,0 -150.0,-0.0" stroke="rgb(255,150,150)" stroke-width="2" /><path d="M 382.5,55.0 a 119.58479020979021,119.58479020979021 0 0,0 -150.0,-0.0" stroke="rgb(0,0,0)" stroke-width="0.2" /><path d="M 782.5,55.0 a 530.4820446457456,530.4820446457456 0 0,0 -400.0,-0.0" stroke="rgb(255,150,150)" stroke-width="2" /><path d="M 782.5,55.0 a 530.4820446457456,530.4820446457456 0 0,0 -400.0,-0.0" stroke="rgb(0,0,0)" stroke-width="0.2" /><path d="M 782.5,55.0 a 49.10025891829689,49.10025891829689 0 0,0 -75.0,-0.0" stroke="rgb(255,150,150)" stroke-width="2" /><path d="M 782.5,55.0 a 49.10025891829689,49.10025891829689 0 0,0 -75.0,-0.0" stroke="rgb(0,0,0)" stroke-width="0.2" /></svg>