<?xml version="1.0" encoding="utf-8" ?>
<svg baseProfile="full" height="100%" style="font-size:14;font-family:Sans, Arial;stroke-width:1;fill:none" version="1.1" width="100%" xmlns="http://www.w3.org/2000/svg" xmlns:ev="http://www.w3.org/2001/xml-events" xmlns:xlink="http://www.w3.org/1999/xlink"><defs /><rect fill="none" height="280.0" stroke="none" width="2401.7414000000003" x="0" y="0" /><line stroke="rgb(0,0,0)" x1="5.0" x2="22.5" y1="55.0" y2="55.0" /><line stroke="rgb(0,0,0)" x1="22.5" x2="47.6923" y1="55.0" y2="130.0" /><line stroke="rgb(0,0,0)" x1="47.6923" x2="52.6923" y1="130.0" y2="130.0" /><line stroke="rgb(0,0,0)" x1="52.6923" x2="70.1923" y1="130.0" y2="130.0" /><line stroke="rgb(0,0,0)" x1="70.1923" x2="90.1923" y1="130.0" y2="130.0" /><line stroke="rgb(0,0,0)" x1="90.1923" x2="95.1923" y1="130.0" y2="130.0" /><line stroke="rgb(0,0,0)" x1="5.0" x2="27.6923" y1="205.0" y2="205.0" /><line stroke="rgb(0,0,0)" x1="27.6923" x2="90.1923" y1="205.0" y2="130.0" /><line stroke="rgb(0,0,0)" x1="90.1923" x2="95.1923" y1="130.0" y2="130.0" /><line stroke="rgb(0,0,0)" x1="95.1923" x2="132.8846" y1="130.0" y2="130.0" /><line stroke="rgb(0,0,0)" x1="132.8846" x2="152.8846" y1="130.0" y2="130.0" /><line stroke="rgb(0,0,0)" x1="152.8846" x2="157.8846" y1="130.0" y2="130.0" /><line stroke="rgb(0,0,0)" x1="157.8846" x2="162.8846" y1="130.0" y2="130.0" /><line stroke="rgb(0,0,0)" x1="162.8846" x2="182.8846" y1="130.0" y2="130.0" /><line stroke="rgb(0,0,0)" x1="182.8846" x2="187.8846" y1="130.0" y2="130.0" /><line stroke="rgb(0,0,0)" x1="187.8846" x2="255.3846" y1="130.0" y2="130.0" /><line stroke="rgb(0,0,0)" x1="255.3846" x2="275.3846" y1="130.0" y2="55.0" /><line stroke="rgb(0,0,0)" x1="275.3846" x2="280.3846" y1="55.0" y2="55.0" /><line stroke="rgb(0,0,0)" x1="187.8846" x2="255.3846" y1="130.0" y2="130.0" /><line stroke="rgb(0,0,0)" x1="255.3846" x2="275.3846" y1="130.0" y2="205.0" /><line stroke="rgb(0,0,0)" x1="275.3846" x2="280.3846" y1="205.0" y2="205.0" /><line stroke="rgb(0,0,0)" x1="280.3846" x2="315.3846" y1="55.0" y2="55.0" /><line stroke="rgb(0,0,0)" x1="315.3846" x2="335.3846" y1="55.0" y2="130.0" /><line stroke="rgb(0,0,0)" x1="335.3846" x2="340.3846" y1="130.0" y2="130.0" /><line stroke="rgb(0,0,0)" x1="340.3846" x2="422.8846" y1="130.0" y2="130.0" /><line stroke="rgb(0,0,0)" x1="422.8846" x2="442.8846" y1="130.0" y2="130.0" /><line stroke="rgb(0,0,0)" x1="442.8846" x2="447.8846" y1="130.0" y2="130.0" /><line stroke="rgb(0,0,0)" x1="447.8846" x2="452.8846" y1="130.0" y2="130.0" /><line stroke="rgb(0,0,0)" x1="452.8846" x2="472.8846" y1="130.0" y2="130.0" /><line stroke="rgb(0,0,0)" x1="472.8846" x2="477.8846" y1="130.0" y2="130.0" /><line stroke="rgb(0,0,0)" x1="280.3846" x2="303.7937" y1="205.0" y2="205.0" /><line stroke="rgb(0,0,0)" x1="303.7937" x2="472.8846" y1="205.0" y2="130.0" /><line stroke="rgb(0,0,0)" x1="472.8846" x2="477.8846" y1="130.0" y2="130.0" /><line stroke="rgb(0,0,0)" x1="477.8846" x2="502.8846" y1="130.0" y2="130.0" /><line stroke="rgb(0,0,0)" x1="502.8846" x2="522.8846" y1="130.0" y2="130.0" /><line stroke="rgb(0,0,0)" x1="522.8846" x2="527.8846" y1="130.0" y2="130.0" /><line stroke="rgb(0,0,0)" x1="527.8846" x2="541.6346" y1="130.0" y2="130.0" /><line stroke="rgb(0,0,0)" x1="541.6346" x2="561.6346" y1="130.0" y2="130.0" /><line stroke="rgb(0,0,0)" x1="561.6346" x2="566.6346" y1="130.0" y2="130.0" /><line stroke="rgb(0,0,0)" x1="566.6346" x2="579.1346" y1="130.0" y2="130.0" /><line stroke="rgb(0,0,0)" x1="579.1346" x2="599.1346" y1="130.0" y2="130.0" /><line stroke="rgb(0,0,0)" x1="599.1346" x2="604.1346" y1="130.0" y2="130.0" /><line stroke="rgb(0,0,0)" x1="604.1346" x2="631.9471" y1="130.0" y2="130.0" /><line stroke="rgb(0,0,0)" x1="631.9471" x2="651.9471" y1="130.0" y2="130.0" /><line stroke="rgb(0,0,0)" x1="651.9471" x2="656.9471" y1="130.0" y2="130.0" /><line stroke="rgb(0,0,0)" x1="656.9471" x2="668.03405" y1="130.0" y2="130.0" /><line stroke="rgb(0,0,0)" x1="668.03405" x2="688.03405" y1="130.0" y2="130.0" /><line stroke="rgb(0,0,0)" x1="688.03405" x2="693.03405" y1="130.0" y2="130.0" /><line stroke="rgb(0,0,0)" x1="693.03405" x2="715.8306500000001" y1="130.0" y2="130.0" /><line stroke="rgb(0,0,0)" x1="715.8306500000001" x2="735.8306500000001" y1="130.0" y2="130.0" /><line stroke="rgb(0,0,0)" x1="735.8306500000001" x2="740.8306500000001" y1="130.0" y2="130.0" /><line stroke="rgb(0,0,0)" x1="740.8306500000001" x2="758.6567500000001" y1="130.0" y2="130.0" /><line stroke="rgb(0,0,0)" x1="758.6567500000001" x2="778.6567500000001" y1="130.0" y2="130.0" /><line stroke="rgb(0,0,0)" x1="778.6567500000001" x2="783.6567500000001" y1="130.0" y2="130.0" /><line stroke="rgb(0,0,0)" x1="783.6567500000001" x2="803.6567500000001" y1="130.0" y2="130.0" /><line stroke="rgb(0,0,0)" x1="803.6567500000001" x2="823.6567500000001" y1="130.0" y2="130.0" /><line stroke="rgb(0,0,0)" x1="823.6567500000001" x2="828.6567500000001" y1="130.0" y2="130.0" /><line stroke="rgb(0,0,0)" x1="828.6567500000001" x2="876.08855" y1="130.0" y2="130.0" /><line stroke="rgb(0,0,0)" x1="876.08855" x2="896.08855" y1="130.0" y2="130.0" /><line stroke="rgb(0,0,0)" x1="896.08855" x2="901.08855" y1="130.0" y2="130.0" /><line stroke="rgb(0,0,0)" x1="901.08855" x2="924.08855" y1="130.0" y2="130.0" /><line stroke="rgb(0,0,0)" x1="924.08855" x2="944.08855" y1="130.0" y2="130.0" /><line stroke="rgb(0,0,0)" x1="944.08855" x2="949.08855" y1="130.0" y2="130.0" /><line stroke="rgb(0,0,0)" x1="949.08855" x2="959.08855" y1="130.0" y2="130.0" /><line stroke="rgb(0,0,0)" x1="959.08855" x2="979.08855" y1="130.0" y2="130.0" /><line stroke="rgb(0,0,0)" x1="979.08855" x2="984.08855" y1="130.0" y2="130.0" /><line stroke="rgb(0,0,0)" x1="984.08855" x2="1005.48855" y1="130.0" y2="130.0" /><line stroke="rgb(0,0,0)" x1="1005.48855" x2="1025.48855" y1="130.0" y2="130.0" /><line stroke="rgb(0,0,0)" x1="1025.48855" x2="1030.48855" y1="130.0" y2="130.0" /><line stroke="rgb(0,0,0)" x1="1030.48855" x2="1072.08855" y1="130.0" y2="130.0" /><line stroke="rgb(0,0,0)" x1="1072.08855" x2="1092.08855" y1="130.0" y2="130.0" /><line stroke="rgb(0,0,0)" x1="1092.08855" x2="1097.08855" y1="130.0" y2="130.0" /><line stroke="rgb(0,0,0)" x1="1097.08855" x2="1112.08855" y1="130.0" y2="130.0" /><line stroke="rgb(0,0,0)" x1="1112.08855" x2="1132.08855" y1="130.0" y2="130.0" /><line stroke="rgb(0,0,0)" x1="1132.08855" x2="1137.08855" y1="130.0" y2="130.0" /><line stroke="rgb(0,0,0)" x1="1137.08855" x2="1157.2127500000001" y1="130.0" y2="130.0" /><line stroke="rgb(0,0,0)" x1="1157.2127500000001" x2="1177.2127500000001" y1="130.0" y2="130.0" /><line stroke="rgb(0,0,0)" x1="1177.2127500000001" x2="1182.2127500000001" y1="130.0" y2="130.0" /><line stroke="rgb(0,0,0)" x1="1182.2127500000001" x2="1225.81275" y1="130.0" y2="130.0" /><line stroke="rgb(0,0,0)" x1="1225.81275" x2="1245.81275" y1="130.0" y2="130.0" /><line stroke="rgb(0,0,0)" x1="1245.81275" x2="1250.81275" y1="130.0" y2="130.0" /><line stroke="rgb(0,0,0)" x1="1250.81275" x2="1272.1764" y1="130.0" y2="130.0" /><line stroke="rgb(0,0,0)" x1="1272.1764" x2="1292.1764000000003" y1="130.0" y2="130.0" /><line stroke="rgb(0,0,0)" x1="1292.1764000000003" x2="1297.1764000000003" y1="130.0" y2="130.0" /><line stroke="rgb(0,0,0)" x1="1297.1764000000003" x2="1325.80655" y1="130.0" y2="130.0" /><line stroke="rgb(0,0,0)" x1="1325.80655" x2="1345.80655" y1="130.0" y2="130.0" /><line stroke="rgb(0,0,0)" x1="1345.80655" x2="1350.80655" y1="130.0" y2="130.0" /><line stroke="rgb(0,0,0)" x1="1350.80655" x2="1368.7232" y1="130.0" y2="130.0" /><line stroke="rgb(0,0,0)" x1="1368.7232" x2="1388.7232" y1="130.0" y2="130.0" /><line stroke="rgb(0,0,0)" x1="1388.7232" x2="1393.7232" y1="130.0" y2="130.0" /><line stroke="rgb(0,0,0)" x1="1393.7232" x2="1411.63985" y1="130.0" y2="130.0" /><line stroke="rgb(0,0,0)" x1="1411.63985" x2="1431.63985" y1="130.0" y2="130.0" /><line stroke="rgb(0,0,0)" x1="1431.63985" x2="1436.63985" y1="130.0" y2="130.0" /><line stroke="rgb(0,0,0)" x1="1436.63985" x2="1511.7028500000001" y1="130.0" y2="130.0" /><line stroke="rgb(0,0,0)" x1="1511.7028500000001" x2="1531.7028500000001" y1="130.0" y2="130.0" /><line stroke="rgb(0,0,0)" x1="1531.7028500000001" x2="1536.7028500000001" y1="130.0" y2="130.0" /><line stroke="rgb(0,0,0)" x1="1536.7028500000001" x2="1565.7028500000001" y1="130.0" y2="130.0" /><line stroke="rgb(0,0,0)" x1="1565.7028500000001" x2="1585.7028500000001" y1="130.0" y2="130.0" /><line stroke="rgb(0,0,0)" x1="1585.7028500000001" x2="1590.7028500000001" y1="130.0" y2="130.0" /><line stroke="rgb(0,0,0)" x1="1590.7028500000001" x2="1600.7028500000001" y1="130.0" y2="130.0" /><line stroke="rgb(0,0,0)" x1="1600.7028500000001" x2="1620.7028500000001" y1="130.0" y2="130.0" /><line stroke="rgb(0,0,0)" x1="1620.7028500000001" x2="1625.7028500000001" y1="130.0" y2="130.0" /><line stroke="rgb(0,0,0)" x1="1625.7028500000001" x2="1645.7028500000001" y1="130.0" y2="130.0" /><line stroke="rgb(0,0,0)" x1="1645.7028500000001" x2="1665.7028500000001" y1="130.0" y2="130.0" /><line stroke="rgb(0,0,0)" x1="1665.7028500000001" x2="1670.7028500000001" y1="130.0" y2="130.0" /><line stroke="rgb(0,0,0)" x1="1670.7028500000001" x2="1680.7028500000001" y1="130.0" y2="130.0" /><line stroke="rgb(0,0,0)" x1="1680.7028500000001" x2="1700.7028500000001" y1="130.0" y2="130.0" /><line stroke="rgb(0,0,0)" x1="1700.7028500000001" x2="1705.7028500000001" y1="130.0" y2="130.0" /><line stroke="rgb(0,0,0)" x1="1705.7028500000001" x2="1738.7952" y1="130.0" y2="130.0" /><line stroke="rgb(0,0,0)" x1="1738.7952" x2="1758.7952" y1="130.0" y2="55.0" /><line stroke="rgb(0,0,0)" x1="1758.7952" x2="1763.7952" y1="55.0" y2="55.0" /><line stroke="rgb(0,0,0)" x1="1705.7028500000001" x2="1738.7952" y1="130.0" y2="130.0" /><line stroke="rgb(0,0,0)" x1="1738.7952" x2="1758.7952" y1="130.0" y2="205.0" /><line stroke="rgb(0,0,0)" x1="1758.7952" x2="1763.7952" y1="205.0" y2="205.0" /><line stroke="rgb(0,0,0)" x1="1763.7952" x2="1788.7952" y1="55.0" y2="55.0" /><line stroke="rgb(0,0,0)" x1="1788.7952" x2="1813.7952" y1="55.0" y2="55.0" /><line stroke="rgb(0,0,0)" x1="1813.7952" x2="1818.7952" y1="55.0" y2="55.0" /><line stroke="rgb(0,0,0)" x1="1763.7952" x2="1793.7952" y1="205.0" y2="205.0" /><line stroke="rgb(0,0,0)" x1="1793.7952" x2="1813.7952" y1="205.0" y2="205.0" /><line stroke="rgb(0,0,0)" x1="1813.7952" x2="1818.7952" y1="205.0" y2="205.0" /><line stroke="rgb(0,0,0)" x1="1818.7952" x2="1843.7952" y1="55.0" y2="55.0" /><line stroke="rgb(0,0,0)" x1="1843.7952" x2="1863.7952" y1="55.0" y2="130.0" /><line stroke="rgb(0,0,0)" x1="1863.7952" x2="1868.7952" y1="130.0" y2="130.0" /><line stroke="rgb(0,0,0)" x1="1868.7952" x2="1889.4362500000002" y1="130.0" y2="130.0" /><line stroke="rgb(0,0,0)" x1="1889.4362500000002" x2="1909.4362500000002" y1="130.0" y2="130.0" /><line stroke="rgb(0,0,0)" x1="1909.4362500000002" x2="1914.4362500000002" y1="130.0" y2="130.0" /><line stroke="rgb(0,0,0)" x1="1914.4362500000002" x2="1934.4362500000002" y1="130.0" y2="130.0" /><line stroke="rgb(0,0,0)" x1="1934.4362500000002" x2="1954.4362500000002" y1="130.0" y2="130.0" /><line stroke="rgb(0,0,0)" x1="1954.4362500000002" x2="1959.4362500000002" y1="130.0" y2="130.0" /><line stroke="rgb(0,0,0)" x1="1818.7952" x2="1838.7952" y1="205.0" y2="205.0" /><line stroke="rgb(0,0,0)" x1="1838.7952" x2="1954.4362500000002" y1="205.0" y2="130.0" /><line stroke="rgb(0,0,0)" x1="1954.4362500000002" x2="1959.4362500000002" y1="130.0" y2="130.0" /><line stroke="rgb(0,0,0)" x1="1959.4362500000002" x2="1994.8762500000003" y1="130.0" y2="130.0" /><line stroke="rgb(0,0,0)" x1="1994.8762500000003" x2="2014.8762500000003" y1="130.0" y2="130.0" /><line stroke="rgb(0,0,0)" x1="2014.8762500000003" x2="2019.8762500000003" y1="130.0" y2="130.0" /><line stroke="rgb(0,0,0)" x1="2019.8762500000003" x2="2044.0868000000003" y1="130.0" y2="130.0" /><line stroke="rgb(0,0,0)" x1="2044.0868000000003" x2="2064.0868000000005" y1="130.0" y2="130.0" /><line stroke="rgb(0,0,0)" x1="2064.0868000000005" x2="2069.0868000000005" y1="130.0" y2="130.0" /><line stroke="rgb(0,0,0)" x1="2069.0868000000005" x2="2109.0868000000005" y1="130.0" y2="130.0" /><line stroke="rgb(0,0,0)" x1="2109.0868000000005" x2="2129.0868000000005" y1="130.0" y2="130.0" /><line stroke="rgb(0,0,0)" x1="2129.0868000000005" x2="2134.0868000000005" y1="130.0" y2="130.0" /><line stroke="rgb(0,0,0)" x1="2134.0868000000005" x2="2159.0868000000005" y1="130.0" y2="130.0" /><line stroke="rgb(0,0,0)" x1="2159.0868000000005" x2="2179.0868000000005" y1="130.0" y2="130.0" /><line stroke="rgb(0,0,0)" x1="2179.0868000000005" x2="2184.0868000000005" y1="130.0" y2="130.0" /><line stroke="rgb(0,0,0)" x1="2184.0868000000005" x2="2210.5574000000006" y1="130.0" y2="130.0" /><line stroke="rgb(0,0,0)" x1="2210.5574000000006" x2="2230.5574000000006" y1="130.0" y2="130.0" /><line stroke="rgb(0,0,0)" x1="2230.5574000000006" x2="2235.5574000000006" y1="130.0" y2="130.0" /><line stroke="rgb(0,0,0)" x1="2235.5574000000006" x2="2309.2414000000003" y1="130.0" y2="130.0" /><line stroke="rgb(0,0,0)" x1="2309.2414000000003" x2="2329.2414000000003" y1="130.0" y2="130.0" /><line stroke="rgb(0,0,0)" x1="2329.2414000000003" x2="2334.2414000000003" y1="130.0" y2="130.0" /><line stroke="rgb(0,0,0)" x1="2334.2414000000003" x2="2346.7414000000003" y1="130.0" y2="130.0" /><line stroke="rgb(0,0,0)" x1="2346.7414000000003" x2="2366.7414000000003" y1="130.0" y2="130.0" /><line stroke="rgb(0,0,0)" x1="2366.7414000000003" x2="2371.7414000000003" y1="130.0" y2="130.0" /><rect fill="rgb(150,255,255)" height="0.8" stroke="rgb(0,0,0)" width="12.5" x="5.0" y="54.6" /><text fill="black" x="5.0" y="75.4">E0</text><rect fill="rgb(150,150,150)" height="5.2" stroke="rgb(0,0,0)" width="17.6923" x="5.0" y="202.4" /><text fill="black" x="5.0" y="227.6">H1</text><rect fill="rgb(150,255,255)" height="0.8" stroke="rgb(0,0,0)" width="12.5" x="52.6923" y="129.6" /><text fill="black" x="52.6923" y="150.4">E2</text><rect fill="rgb(150,150,150)" height="5.2" stroke="rgb(0,0,0)" width="32.692299999999996" x="95.1923" y="127.4" /><text fill="black" x="95.1923" y="152.6">H3</text><rect fill="rgb(150,150,150)" height="0.0" stroke="rgb(0,0,0)" width="0.0" x="157.8846" y="130.0" /><text fill="black" x="157.8846" y="150.0">X4</text><rect fill="rgb(150,150,150)" height="2.4" stroke="rgb(0,0,0)" width="62.5" x="187.8846" y="128.8" /><text fill="black" x="187.8846" y="151.2">H5</text><rect fill="rgb(150,150,150)" height="0.8" stroke="rgb(0,0,0)" width="30.0" x="280.3846" y="54.6" /><text fill="black" x="280.3846" y="75.4">H6</text><rect fill="rgb(150,150,255)" height="8.799999999999999" stroke="rgb(0,0,0)" width="18.409100000000002" x="280.3846" y="200.6" /><text fill="black" x="280.3846" y="229.4">E7</text><rect fill="rgb(150,150,150)" height="0.8" stroke="rgb(0,0,0)" width="77.5" x="340.3846" y="129.6" /><text fill="black" x="340.3846" y="150.4">H8</text><rect fill="rgb(150,150,150)" height="0.0" stroke="rgb(0,0,0)" width="0.0" x="447.8846" y="130.0" /><text fill="black" x="447.8846" y="150.0">X9</text><rect fill="rgb(150,150,150)" height="6.0" stroke="rgb(0,0,0)" width="20.0" x="477.8846" y="127.0" /><text fill="black" x="477.8846" y="153.0">H10</text><rect fill="rgb(150,150,255)" height="1.6" stroke="rgb(0,0,0)" width="8.75" x="527.8846" y="129.2" /><text fill="black" x="527.8846" y="150.8">E11</text><rect fill="rgb(150,150,255)" height="4.0" stroke="rgb(0,0,0)" width="7.5" x="566.6346" y="128.0" /><text fill="black" x="566.6346" y="152.0">E12</text><rect fill="rgb(150,150,255)" height="6.4" stroke="rgb(0,0,0)" width="22.8125" x="604.1346" y="126.8" /><text fill="black" x="604.1346" y="153.2">E13</text><rect fill="rgb(255,150,150)" height="27.6" stroke="rgb(0,0,0)" width="6.08695" x="656.9471" y="116.2" /><text fill="black" x="656.9471" y="163.8">E14</text><rect fill="rgb(150,150,150)" height="70.8" stroke="rgb(0,0,0)" width="17.7966" x="693.03405" y="94.6" /><text fill="black" x="693.03405" y="185.4">H15</text><rect fill="rgb(255,150,150)" height="9.2" stroke="rgb(0,0,0)" width="12.8261" x="740.8306500000001" y="125.4" /><text fill="black" x="740.8306500000001" y="154.6">E16</text><rect fill="rgb(150,150,150)" height="3.2" stroke="rgb(0,0,0)" width="15.0" x="783.6567500000001" y="128.4" /><text fill="black" x="783.6567500000001" y="151.6">H17</text><rect fill="rgb(255,150,150)" height="88.0" stroke="rgb(0,0,0)" width="42.431799999999996" x="828.6567500000001" y="86.0" /><text fill="black" x="828.6567500000001" y="194.0">E18</text><rect fill="rgb(150,150,150)" height="2.0" stroke="rgb(0,0,0)" width="18.0" x="901.08855" y="129.0" /><text fill="black" x="901.08855" y="151.0">H19</text><rect fill="rgb(255,150,150)" height="0.4" stroke="rgb(0,0,0)" width="5.0" x="949.08855" y="129.8" /><text fill="black" x="949.08855" y="150.2">E20</text><rect fill="rgb(255,150,150)" height="10.0" stroke="rgb(0,0,0)" width="16.4" x="984.08855" y="125.0" /><text fill="black" x="984.08855" y="155.0">E21</text><rect fill="rgb(255,150,150)" height="100.0" stroke="rgb(0,0,0)" width="36.6" x="1030.48855" y="80.0" /><text fill="black" x="1030.48855" y="200.0">E22</text><rect fill="rgb(255,150,150)" height="0.4" stroke="rgb(0,0,0)" width="10.0" x="1097.08855" y="129.8" /><text fill="black" x="1097.08855" y="150.2">E23</text><rect fill="rgb(150,150,150)" height="64.4" stroke="rgb(0,0,0)" width="15.124200000000002" x="1137.08855" y="97.8" /><text fill="black" x="1137.08855" y="182.2">H24</text><rect fill="rgb(255,150,150)" height="100.0" stroke="rgb(0,0,0)" width="38.6" x="1182.2127500000001" y="80.0" /><text fill="black" x="1182.2127500000001" y="200.0">E25</text><rect fill="rgb(150,150,150)" height="4.3999999999999995" stroke="rgb(0,0,0)" width="16.36365" x="1250.81275" y="127.8" /><text fill="black" x="1250.81275" y="152.2">H26</text><rect fill="rgb(150,150,150)" height="29.2" stroke="rgb(0,0,0)" width="23.63015" x="1297.1764000000003" y="115.4" /><text fill="black" x="1297.1764000000003" y="164.6">H27</text><rect fill="rgb(150,255,150)" height="4.8" stroke="rgb(0,0,0)" width="12.91665" x="1350.80655" y="127.6" /><text fill="black" x="1350.80655" y="152.4">E28</text><rect fill="rgb(150,255,150)" height="4.8" stroke="rgb(0,0,0)" width="12.91665" x="1393.7232" y="127.6" /><text fill="black" x="1393.7232" y="152.4">E29</text><rect fill="rgb(150,150,150)" height="95.19999999999999" stroke="rgb(0,0,0)" width="70.063" x="1436.63985" y="82.4" /><text fill="black" x="1436.63985" y="197.6">H30</text><rect fill="rgb(150,150,150)" height="2.0" stroke="rgb(0,0,0)" width="24.0" x="1536.7028500000001" y="129.0" /><text fill="black" x="1536.7028500000001" y="151.0">H31</text><rect fill="rgb(255,150,255)" height="5.6000000000000005" stroke="rgb(0,0,0)" width="5.0" x="1590.7028500000001" y="127.2" /><text fill="black" x="1590.7028500000001" y="152.8">E32</text><rect fill="rgb(150,150,150)" height="42.0" stroke="rgb(0,0,0)" width="15.0" x="1625.7028500000001" y="109.0" /><text fill="black" x="1625.7028500000001" y="171.0">H33</text><rect fill="rgb(255,150,255)" height="5.6000000000000005" stroke="rgb(0,0,0)" width="5.0" x="1670.7028500000001" y="127.2" /><text fill="black" x="1670.7028500000001" y="152.8">E34</text><rect fill="rgb(255,150,150)" height="99.6" stroke="rgb(0,0,0)" width="28.092350000000003" x="1705.7028500000001" y="80.2" /><text fill="black" x="1705.7028500000001" y="199.8">E35</text><rect fill="rgb(150,150,150)" height="0.4" stroke="rgb(0,0,0)" width="20.0" x="1763.7952" y="54.8" /><text fill="black" x="1763.7952" y="75.2">H36</text><rect fill="rgb(255,150,150)" height="0.4" stroke="rgb(0,0,0)" width="25.0" x="1763.7952" y="204.8" /><text fill="black" x="1763.7952" y="225.2">E37</text><rect fill="rgb(150,150,150)" height="0.4" stroke="rgb(0,0,0)" width="20.0" x="1818.7952" y="54.8" /><text fill="black" x="1818.7952" y="75.2">H38</text><rect fill="rgb(255,150,150)" height="0.8" stroke="rgb(0,0,0)" width="15.0" x="1818.7952" y="204.6" /><text fill="black" x="1818.7952" y="225.4">E39</text><rect fill="rgb(150,150,150)" height="15.6" stroke="rgb(0,0,0)" width="15.64105" x="1868.7952" y="122.2" /><text fill="black" x="1868.7952" y="157.8">H40</text><rect fill="rgb(150,150,150)" height="1.2" stroke="rgb(0,0,0)" width="15.0" x="1914.4362500000002" y="129.4" /><text fill="black" x="1914.4362500000002" y="150.6">H41</text><rect fill="rgb(255,150,150)" height="100.0" stroke="rgb(0,0,0)" width="30.44" x="1959.4362500000002" y="80.0" /><text fill="black" x="1959.4362500000002" y="200.0">E42</text><rect fill="rgb(150,150,150)" height="7.6" stroke="rgb(0,0,0)" width="19.210549999999998" x="2019.8762500000003" y="126.2" /><text fill="black" x="2019.8762500000003" y="153.8">H43</text><rect fill="rgb(150,150,150)" height="1.2" stroke="rgb(0,0,0)" width="35.0" x="2069.0868000000005" y="129.4" /><text fill="black" x="2069.0868000000005" y="150.6">H44</text><rect fill="rgb(150,150,150)" height="4.0" stroke="rgb(0,0,0)" width="20.0" x="2134.0868000000005" y="128.0" /><text fill="black" x="2134.0868000000005" y="152.0">H45</text><rect fill="rgb(150,150,150)" height="6.800000000000001" stroke="rgb(0,0,0)" width="21.4706" x="2184.0868000000005" y="126.6" /><text fill="black" x="2184.0868000000005" y="153.4">H46</text><rect fill="rgb(150,150,150)" height="7.6" stroke="rgb(0,0,0)" width="68.684" x="2235.5574000000006" y="126.2" /><text fill="black" x="2235.5574000000006" y="153.8">H47</text><rect fill="rgb(255,150,150)" height="1.6" stroke="rgb(0,0,0)" width="7.5" x="2334.2414000000003" y="129.2" /><text fill="black" x="2334.2414000000003" y="150.8">E48</text><rect fill="rgb(255,150,150)" height="0.4" stroke="rgb(0,0,0)" width="25.0" x="2371.7414000000003" y="129.8" /><text fill="black" x="2371.7414000000003" y="150.2">E49</text></svg>