<?xml version="1.0" encoding="utf-8" ?>
<svg baseProfile="full" height="100%" style="font-size:14;font-family:Sans, Arial;stroke-width:1;fill:none" version="1.1" width="100%" xmlns="http://www.w3.org/2000/svg" xmlns:ev="http://www.w3.org/2001/xml-events" xmlns:xlink="http://www.w3.org/1999/xlink"><defs /><rect fill="none" height="130.0" stroke="none" width="1375.0" x="0" y="0" /><line stroke="rgb(0,0,0)" x1="5.0" x2="45.0" y1="55.0" y2="55.0" /><line stroke="rgb(0,0,0)" x1="45.0" x2="65.0" y1="55.0" y2="55.0" /><line stroke="rgb(0,0,0)" x1="65.0" x2="70.0" y1="55.0" y2="55.0" /><line stroke="rgb(0,0,0)" x1="70.0" x2="135.0" y1="55.0" y2="55.0" /><line stroke="rgb(0,0,0)" x1="135.0" x2="155.0" y1="55.0" y2="55.0" /><line stroke="rgb(0,0,0)" x1="155.0" x2="160.0" y1="55.0" y2="55.0" /><line stroke="rgb(0,0,0)" x1="160.0" x2="205.0" y1="55.0" y2="55.0" /><line stroke="rgb(0,0,0)" x1="205.0" x2="225.0" y1="55.0" y2="55.0" /><line stroke="rgb(0,0,0)" x1="225.0" x2="230.0" y1="55.0" y2="55.0" /><line stroke="rgb(0,0,0)" x1="230.0" x2="295.0" y1="55.0" y2="55.0" /><line stroke="rgb(0,0,0)" x1="295.0" x2="315.0" y1="55.0" y2="55.0" /><line stroke="rgb(0,0,0)" x1="315.0" x2="320.0" y1="55.0" y2="55.0" /><line stroke="rgb(0,0,0)" x1="320.0" x2="350.0" y1="55.0" y2="55.0" /><line stroke="rgb(0,0,0)" x1="350.0" x2="370.0" y1="55.0" y2="55.0" /><line stroke="rgb(0,0,0)" x1="370.0" x2="375.0" y1="55.0" y2="55.0" /><line stroke="rgb(0,0,0)" x1="375.0" x2="440.0" y1="55.0" y2="55.0" /><line stroke="rgb(0,0,0)" x1="440.0" x2="460.0" y1="55.0" y2="55.0" /><line stroke="rgb(0,0,0)" x1="460.0" x2="465.0" y1="55.0" y2="55.0" /><line stroke="rgb(0,0,0)" x1="465.0" x2="530.0" y1="55.0" y2="55.0" /><line stroke="rgb(0,0,0)" x1="530.0" x2="550.0" y1="55.0" y2="55.0" /><line stroke="rgb(0,0,0)" x1="550.0" x2="555.0" y1="55.0" y2="55.0" /><line stroke="rgb(0,0,0)" x1="555.0" x2="580.0" y1="55.0" y2="55.0" /><line stroke="rgb(0,0,0)" x1="580.0" x2="600.0" y1="55.0" y2="55.0" /><line stroke="rgb(0,0,0)" x1="600.0" x2="605.0" y1="55.0" y2="55.0" /><line stroke="rgb(0,0,0)" x1="605.0" x2="640.0" y1="55.0" y2="55.0" /><line stroke="rgb(0,0,0)" x1="640.0" x2="660.0" y1="55.0" y2="55.0" /><line stroke="rgb(0,0,0)" x1="660.0" x2="665.0" y1="55.0" y2="55.0" /><line stroke="rgb(0,0,0)" x1="665.0" x2="715.0" y1="55.0" y2="55.0" /><line stroke="rgb(0,0,0)" x1="715.0" x2="735.0" y1="55.0" y2="55.0" /><line stroke="rgb(0,0,0)" x1="735.0" x2="740.0" y1="55.0" y2="55.0" /><line stroke="rgb(0,0,0)" x1="740.0" x2="775.0" y1="55.0" y2="55.0" /><line stroke="rgb(0,0,0)" x1="775.0" x2="795.0" y1="55.0" y2="55.0" /><line stroke="rgb(0,0,0)" x1="795.0" x2="800.0" y1="55.0" y2="55.0" /><line stroke="rgb(0,0,0)" x1="800.0" x2="835.0" y1="55.0" y2="55.0" /><line stroke="rgb(0,0,0)" x1="835.0" x2="855.0" y1="55.0" y2="55.0" /><line stroke="rgb(0,0,0)" x1="855.0" x2="860.0" y1="55.0" y2="55.0" /><line stroke="rgb(0,0,0)" x1="860.0" x2="920.0" y1="55.0" y2="55.0" /><line stroke="rgb(0,0,0)" x1="920.0" x2="940.0" y1="55.0" y2="55.0" /><line stroke="rgb(0,0,0)" x1="940.0" x2="945.0" y1="55.0" y2="55.0" /><line stroke="rgb(0,0,0)" x1="945.0" x2="985.0" y1="55.0" y2="55.0" /><line stroke="rgb(0,0,0)" x1="985.0" x2="1005.0" y1="55.0" y2="55.0" /><line stroke="rgb(0,0,0)" x1="1005.0" x2="1010.0" y1="55.0" y2="55.0" /><line stroke="rgb(0,0,0)" x1="1010.0" x2="1050.0" y1="55.0" y2="55.0" /><line stroke="rgb(0,0,0)" x1="1050.0" x2="1070.0" y1="55.0" y2="55.0" /><line stroke="rgb(0,0,0)" x1="1070.0" x2="1075.0" y1="55.0" y2="55.0" /><line stroke="rgb(0,0,0)" x1="1075.0" x2="1145.0" y1="55.0" y2="55.0" /><line stroke="rgb(0,0,0)" x1="1145.0" x2="1165.0" y1="55.0" y2="55.0" /><line stroke="rgb(0,0,0)" x1="1165.0" x2="1170.0" y1="55.0" y2="55.0" /><line stroke="rgb(0,0,0)" x1="1170.0" x2="1205.0" y1="55.0" y2="55.0" /><line stroke="rgb(0,0,0)" x1="1205.0" x2="1225.0" y1="55.0" y2="55.0" /><line stroke="rgb(0,0,0)" x1="1225.0" x2="1230.0" y1="55.0" y2="55.0" /><line stroke="rgb(0,0,0)" x1="1230.0" x2="1280.0" y1="55.0" y2="55.0" /><line stroke="rgb(0,0,0)" x1="1280.0" x2="1300.0" y1="55.0" y2="55.0" /><line stroke="rgb(0,0,0)" x1="1300.0" x2="1305.0" y1="55.0" y2="55.0" /><polygon fill="rgb(150,255,150)" points="40.0,55.0 40.0,54.8 32.5,54.8 32.5,54.2 27.5,54.2 27.5,53.8 25.0,53.8 25.0,37.2 22.5,37.2 22.5,37.2 20.0,37.2 20.0,53.8 17.5,53.8 17.5,54.2 12.5,54.2 12.5,54.8 5.0,54.8 5.0,55.0 5.0,55.0 5.0,55.2 12.5,55.2 12.5,55.8 17.5,55.8 17.5,56.2 20.0,56.2 20.0,72.8 22.5,72.8 22.5,72.8 25.0,72.8 25.0,56.2 27.5,56.2 27.5,55.8 32.5,55.8 32.5,55.2 40.0,55.2 40.0,55.0" stroke="rgb(0,0,0)" /><text fill="black" x="5.0" y="92.8">E2</text><polygon fill="rgb(150,150,255)" points="130.0,55.0 130.0,54.8 125.0,54.8 125.0,54.0 122.5,54.0 122.5,53.6 120.0,53.6 120.0,50.800000000000004 117.5,50.800000000000004 117.5,49.4 115.0,49.4 115.0,42.4 112.5,42.4 112.5,26.799999999999997 110.0,26.799999999999997 110.0,16.799999999999997 107.5,16.799999999999997 107.5,15.199999999999996 105.0,15.199999999999996 105.0,12.200000000000003 102.5,12.200000000000003 102.5,10.0 100.0,10.0 100.0,10.0 97.5,10.0 97.5,12.200000000000003 95.0,12.200000000000003 95.0,15.199999999999996 92.5,15.199999999999996 92.5,16.799999999999997 90.0,16.799999999999997 90.0,26.799999999999997 87.5,26.799999999999997 87.5,42.4 85.0,42.4 85.0,49.4 82.5,49.4 82.5,50.800000000000004 80.0,50.800000000000004 80.0,53.6 77.5,53.6 77.5,54.0 75.0,54.0 75.0,54.8 70.0,54.8 70.0,55.0 70.0,55.0 70.0,55.2 75.0,55.2 75.0,56.0 77.5,56.0 77.5,56.4 80.0,56.4 80.0,59.199999999999996 82.5,59.199999999999996 82.5,60.6 85.0,60.6 85.0,67.6 87.5,67.6 87.5,83.2 90.0,83.2 90.0,93.2 92.5,93.2 92.5,94.80000000000001 95.0,94.80000000000001 95.0,97.8 97.5,97.8 97.5,100.0 100.0,100.0 100.0,100.0 102.5,100.0 102.5,97.8 105.0,97.8 105.0,94.80000000000001 107.5,94.80000000000001 107.5,93.2 110.0,93.2 110.0,83.2 112.5,83.2 112.5,67.6 115.0,67.6 115.0,60.6 117.5,60.6 117.5,59.199999999999996 120.0,59.199999999999996 120.0,56.4 122.5,56.4 122.5,56.0 125.0,56.0 125.0,55.2 130.0,55.2 130.0,55.0" stroke="rgb(0,0,0)" /><text fill="black" x="70.0" y="120.0">E11</text><polygon fill="rgb(255,150,150)" points="200.0,55.0 200.0,54.6 197.5,54.6 197.5,54.4 195.0,54.4 195.0,54.0 192.5,54.0 192.5,51.2 190.0,51.2 190.0,43.0 187.5,43.0 187.5,38.0 185.0,38.0 185.0,34.2 182.5,34.2 182.5,33.199999999999996 180.0,33.199999999999996 180.0,33.199999999999996 177.5,33.199999999999996 177.5,34.2 175.0,34.2 175.0,38.0 172.5,38.0 172.5,43.0 170.0,43.0 170.0,51.2 167.5,51.2 167.5,54.0 165.0,54.0 165.0,54.4 162.5,54.4 162.5,54.6 160.0,54.6 160.0,55.0 160.0,55.0 160.0,55.4 162.5,55.4 162.5,55.6 165.0,55.6 165.0,56.0 167.5,56.0 167.5,58.8 170.0,58.8 170.0,67.0 172.5,67.0 172.5,72.0 175.0,72.0 175.0,75.8 177.5,75.8 177.5,76.80000000000001 180.0,76.80000000000001 180.0,76.80000000000001 182.5,76.80000000000001 182.5,75.8 185.0,75.8 185.0,72.0 187.5,72.0 187.5,67.0 190.0,67.0 190.0,58.8 192.5,58.8 192.5,56.0 195.0,56.0 195.0,55.6 197.5,55.6 197.5,55.4 200.0,55.4 200.0,55.0" stroke="rgb(0,0,0)" /><text fill="black" x="160.0" y="96.8">E14</text><polygon fill="rgb(150,150,255)" points="290.0,55.0 290.0,54.8 287.5,54.8 287.5,44.0 285.0,44.0 285.0,38.2 282.5,38.2 282.5,34.599999999999994 280.0,34.599999999999994 280.0,26.199999999999996 277.5,26.199999999999996 277.5,15.799999999999997 275.0,15.799999999999997 275.0,9.600000000000001 272.5,9.600000000000001 272.5,8.599999999999994 270.0,8.599999999999994 270.0,7.0 267.5,7.0 267.5,5.600000000000001 265.0,5.600000000000001 265.0,5.399999999999999 262.5,5.399999999999999 262.5,5.0 260.0,5.0 260.0,5.0 257.5,5.0 257.5,5.399999999999999 255.0,5.399999999999999 255.0,5.600000000000001 252.5,5.600000000000001 252.5,7.0 250.0,7.0 250.0,8.599999999999994 247.5,8.599999999999994 247.5,9.600000000000001 245.0,9.600000000000001 245.0,15.799999999999997 242.5,15.799999999999997 242.5,26.199999999999996 240.0,26.199999999999996 240.0,34.599999999999994 237.5,34.599999999999994 237.5,38.2 235.0,38.2 235.0,44.0 232.5,44.0 232.5,54.8 230.0,54.8 230.0,55.0 230.0,55.0 230.0,55.2 232.5,55.2 232.5,66.0 235.0,66.0 235.0,71.8 237.5,71.8 237.5,75.4 240.0,75.4 240.0,83.80000000000001 242.5,83.80000000000001 242.5,94.2 245.0,94.2 245.0,100.4 247.5,100.4 247.5,101.4 250.0,101.4 250.0,103.0 252.5,103.0 252.5,104.4 255.0,104.4 255.0,104.6 257.5,104.6 257.5,105.0 260.0,105.0 260.0,105.0 262.5,105.0 262.5,104.6 265.0,104.6 265.0,104.4 267.5,104.4 267.5,103.0 270.0,103.0 270.0,101.4 272.5,101.4 272.5,100.4 275.0,100.4 275.0,94.2 277.5,94.2 277.5,83.80000000000001 280.0,83.80000000000001 280.0,75.4 282.5,75.4 282.5,71.8 285.0,71.8 285.0,66.0 287.5,66.0 287.5,55.2 290.0,55.2 290.0,55.0" stroke="rgb(0,0,0)" /><text fill="black" x="230.0" y="125.0">E19</text><polygon fill="rgb(150,255,150)" points="345.0,55.0 345.0,54.8 342.5,54.8 342.5,54.6 340.0,54.6 340.0,54.2 337.5,54.2 337.5,53.199999999999996 335.0,53.199999999999996 335.0,35.599999999999994 332.5,35.599999999999994 332.5,35.599999999999994 330.0,35.599999999999994 330.0,53.199999999999996 327.5,53.199999999999996 327.5,54.2 325.0,54.2 325.0,54.6 322.5,54.6 322.5,54.8 320.0,54.8 320.0,55.0 320.0,55.0 320.0,55.2 322.5,55.2 322.5,55.4 325.0,55.4 325.0,55.8 327.5,55.8 327.5,56.800000000000004 330.0,56.800000000000004 330.0,74.4 332.5,74.4 332.5,74.4 335.0,74.4 335.0,56.800000000000004 337.5,56.800000000000004 337.5,55.8 340.0,55.8 340.0,55.4 342.5,55.4 342.5,55.2 345.0,55.2 345.0,55.0" stroke="rgb(0,0,0)" /><text fill="black" x="320.0" y="94.4">E21</text><polygon fill="rgb(255,150,150)" points="435.0,55.0 435.0,54.8 432.5,54.8 432.5,54.6 430.0,54.6 430.0,54.0 427.5,54.0 427.5,53.4 425.0,53.4 425.0,48.8 422.5,48.8 422.5,41.8 420.0,41.8 420.0,17.200000000000003 417.5,17.200000000000003 417.5,12.800000000000004 415.0,12.800000000000004 415.0,6.200000000000003 412.5,6.200000000000003 412.5,5.399999999999999 410.0,5.399999999999999 410.0,5.200000000000003 405.0,5.200000000000003 405.0,5.200000000000003 400.0,5.200000000000003 400.0,5.399999999999999 397.5,5.399999999999999 397.5,6.200000000000003 395.0,6.200000000000003 395.0,12.800000000000004 392.5,12.800000000000004 392.5,17.200000000000003 390.0,17.200000000000003 390.0,41.8 387.5,41.8 387.5,48.8 385.0,48.8 385.0,53.4 382.5,53.4 382.5,54.0 380.0,54.0 380.0,54.6 377.5,54.6 377.5,54.8 375.0,54.8 375.0,55.0 375.0,55.0 375.0,55.2 377.5,55.2 377.5,55.4 380.0,55.4 380.0,56.0 382.5,56.0 382.5,56.6 385.0,56.6 385.0,61.2 387.5,61.2 387.5,68.2 390.0,68.2 390.0,92.8 392.5,92.8 392.5,97.19999999999999 395.0,97.19999999999999 395.0,103.8 397.5,103.8 397.5,104.6 400.0,104.6 400.0,104.8 405.0,104.8 405.0,104.8 410.0,104.8 410.0,104.6 412.5,104.6 412.5,103.8 415.0,103.8 415.0,97.19999999999999 417.5,97.19999999999999 417.5,92.8 420.0,92.8 420.0,68.2 422.5,68.2 422.5,61.2 425.0,61.2 425.0,56.6 427.5,56.6 427.5,56.0 430.0,56.0 430.0,55.4 432.5,55.4 432.5,55.2 435.0,55.2 435.0,55.0" stroke="rgb(0,0,0)" /><text fill="black" x="375.0" y="124.8">E26</text><polygon fill="rgb(255,150,150)" points="525.0,55.0 525.0,54.8 517.5,54.8 517.5,54.0 515.0,54.0 515.0,52.0 512.5,52.0 512.5,46.0 510.0,46.0 510.0,41.4 507.5,41.4 507.5,35.4 505.0,35.4 505.0,32.2 502.5,32.2 502.5,27.599999999999998 500.0,27.599999999999998 500.0,14.199999999999996 497.5,14.199999999999996 497.5,9.199999999999996 495.0,9.199999999999996 495.0,9.199999999999996 492.5,9.199999999999996 492.5,14.199999999999996 490.0,14.199999999999996 490.0,27.599999999999998 487.5,27.599999999999998 487.5,32.2 485.0,32.2 485.0,35.4 482.5,35.4 482.5,41.4 480.0,41.4 480.0,46.0 477.5,46.0 477.5,52.0 475.0,52.0 475.0,54.0 472.5,54.0 472.5,54.8 465.0,54.8 465.0,55.0 465.0,55.0 465.0,55.2 472.5,55.2 472.5,56.0 475.0,56.0 475.0,58.0 477.5,58.0 477.5,64.0 480.0,64.0 480.0,68.6 482.5,68.6 482.5,74.6 485.0,74.6 485.0,77.8 487.5,77.8 487.5,82.4 490.0,82.4 490.0,95.80000000000001 492.5,95.80000000000001 492.5,100.80000000000001 495.0,100.80000000000001 495.0,100.80000000000001 497.5,100.80000000000001 497.5,95.80000000000001 500.0,95.80000000000001 500.0,82.4 502.5,82.4 502.5,77.8 505.0,77.8 505.0,74.6 507.5,74.6 507.5,68.6 510.0,68.6 510.0,64.0 512.5,64.0 512.5,58.0 515.0,58.0 515.0,56.0 517.5,56.0 517.5,55.2 525.0,55.2 525.0,55.0" stroke="rgb(0,0,0)" /><text fill="black" x="465.0" y="120.80000000000001">E33</text><polygon fill="rgb(255,150,150)" points="575.0,55.0 575.0,52.8 572.5,52.8 572.5,47.8 570.0,47.8 570.0,41.2 567.5,41.2 567.5,38.6 565.0,38.6 565.0,38.6 562.5,38.6 562.5,41.2 560.0,41.2 560.0,47.8 557.5,47.8 557.5,52.8 555.0,52.8 555.0,55.0 555.0,55.0 555.0,57.2 557.5,57.2 557.5,62.2 560.0,62.2 560.0,68.8 562.5,68.8 562.5,71.4 565.0,71.4 565.0,71.4 567.5,71.4 567.5,68.8 570.0,68.8 570.0,62.2 572.5,62.2 572.5,57.2 575.0,57.2 575.0,55.0" stroke="rgb(0,0,0)" /><text fill="black" x="555.0" y="91.4">E35</text><polygon fill="rgb(150,150,150)" points="635.0,55.0 635.0,54.8 630.0,54.8 630.0,51.400000000000006 627.5,51.400000000000006 627.5,37.0 620.0,37.0 620.0,37.0 612.5,37.0 612.5,51.400000000000006 610.0,51.400000000000006 610.0,54.8 605.0,54.8 605.0,55.0 605.0,55.0 605.0,55.2 610.0,55.2 610.0,58.599999999999994 612.5,58.599999999999994 612.5,73.0 620.0,73.0 620.0,73.0 627.5,73.0 627.5,58.599999999999994 630.0,58.599999999999994 630.0,55.2 635.0,55.2 635.0,55.0" stroke="rgb(0,0,0)" /><text fill="black" x="605.0" y="93.0">H39</text><polygon fill="rgb(150,150,255)" points="710.0,55.0 710.0,54.6 707.5,54.6 707.5,54.2 705.0,54.2 705.0,53.199999999999996 702.5,53.199999999999996 702.5,38.8 700.0,38.8 700.0,33.0 697.5,33.0 697.5,31.8 695.0,31.8 695.0,23.8 692.5,23.8 692.5,16.0 690.0,16.0 690.0,14.0 687.5,14.0 687.5,14.0 685.0,14.0 685.0,16.0 682.5,16.0 682.5,23.8 680.0,23.8 680.0,31.8 677.5,31.8 677.5,33.0 675.0,33.0 675.0,38.8 672.5,38.8 672.5,53.199999999999996 670.0,53.199999999999996 670.0,54.2 667.5,54.2 667.5,54.6 665.0,54.6 665.0,55.0 665.0,55.0 665.0,55.4 667.5,55.4 667.5,55.8 670.0,55.8 670.0,56.800000000000004 672.5,56.800000000000004 672.5,71.2 675.0,71.2 675.0,77.0 677.5,77.0 677.5,78.2 680.0,78.2 680.0,86.2 682.5,86.2 682.5,94.0 685.0,94.0 685.0,96.0 687.5,96.0 687.5,96.0 690.0,96.0 690.0,94.0 692.5,94.0 692.5,86.2 695.0,86.2 695.0,78.2 697.5,78.2 697.5,77.0 700.0,77.0 700.0,71.2 702.5,71.2 702.5,56.800000000000004 705.0,56.800000000000004 705.0,55.8 707.5,55.8 707.5,55.4 710.0,55.4 710.0,55.0" stroke="rgb(0,0,0)" /><text fill="black" x="665.0" y="116.0">E41</text><polygon fill="rgb(150,150,255)" points="770.0,55.0 770.0,54.8 767.5,54.8 767.5,54.4 765.0,54.4 765.0,53.6 762.5,53.6 762.5,51.2 760.0,51.2 760.0,39.0 757.5,39.0 757.5,37.8 755.0,37.8 755.0,37.8 752.5,37.8 752.5,39.0 750.0,39.0 750.0,51.2 747.5,51.2 747.5,53.6 745.0,53.6 745.0,54.4 742.5,54.4 742.5,54.8 740.0,54.8 740.0,55.0 740.0,55.0 740.0,55.2 742.5,55.2 742.5,55.6 745.0,55.6 745.0,56.4 747.5,56.4 747.5,58.8 750.0,58.8 750.0,71.0 752.5,71.0 752.5,72.2 755.0,72.2 755.0,72.2 757.5,72.2 757.5,71.0 760.0,71.0 760.0,58.8 762.5,58.8 762.5,56.4 765.0,56.4 765.0,55.6 767.5,55.6 767.5,55.2 770.0,55.2 770.0,55.0" stroke="rgb(0,0,0)" /><text fill="black" x="740.0" y="92.2">E42</text><polygon fill="rgb(150,150,150)" points="830.0,55.0 830.0,54.8 825.0,54.8 825.0,54.6 822.5,54.6 822.5,42.4 815.0,42.4 815.0,42.4 807.5,42.4 807.5,54.6 805.0,54.6 805.0,54.8 800.0,54.8 800.0,55.0 800.0,55.0 800.0,55.2 805.0,55.2 805.0,55.4 807.5,55.4 807.5,67.6 815.0,67.6 815.0,67.6 822.5,67.6 822.5,55.4 825.0,55.4 825.0,55.2 830.0,55.2 830.0,55.0" stroke="rgb(0,0,0)" /><text fill="black" x="800.0" y="87.6">H43</text><polygon fill="rgb(150,150,255)" points="915.0,55.0 915.0,52.4 912.5,52.4 912.5,43.6 910.0,43.6 910.0,37.2 907.5,37.2 907.5,33.599999999999994 905.0,33.599999999999994 905.0,31.200000000000003 902.5,31.200000000000003 902.5,14.0 900.0,14.0 900.0,10.399999999999999 897.5,10.399999999999999 897.5,7.0 895.0,7.0 895.0,5.399999999999999 892.5,5.399999999999999 892.5,5.200000000000003 887.5,5.200000000000003 887.5,5.200000000000003 882.5,5.200000000000003 882.5,5.399999999999999 880.0,5.399999999999999 880.0,7.0 877.5,7.0 877.5,10.399999999999999 875.0,10.399999999999999 875.0,14.0 872.5,14.0 872.5,31.200000000000003 870.0,31.200000000000003 870.0,33.599999999999994 867.5,33.599999999999994 867.5,37.2 865.0,37.2 865.0,43.6 862.5,43.6 862.5,52.4 860.0,52.4 860.0,55.0 860.0,55.0 860.0,57.6 862.5,57.6 862.5,66.4 865.0,66.4 865.0,72.8 867.5,72.8 867.5,76.4 870.0,76.4 870.0,78.8 872.5,78.8 872.5,96.0 875.0,96.0 875.0,99.6 877.5,99.6 877.5,103.0 880.0,103.0 880.0,104.6 882.5,104.6 882.5,104.8 887.5,104.8 887.5,104.8 892.5,104.8 892.5,104.6 895.0,104.6 895.0,103.0 897.5,103.0 897.5,99.6 900.0,99.6 900.0,96.0 902.5,96.0 902.5,78.8 905.0,78.8 905.0,76.4 907.5,76.4 907.5,72.8 910.0,72.8 910.0,66.4 912.5,66.4 912.5,57.6 915.0,57.6 915.0,55.0" stroke="rgb(0,0,0)" /><text fill="black" x="860.0" y="124.8">E46</text><polygon fill="rgb(150,150,150)" points="980.0,55.0 980.0,51.800000000000004 977.5,51.800000000000004 977.5,48.8 975.0,48.8 975.0,48.6 970.0,48.6 970.0,41.4 962.5,41.4 962.5,41.4 955.0,41.4 955.0,48.6 950.0,48.6 950.0,48.8 947.5,48.8 947.5,51.800000000000004 945.0,51.800000000000004 945.0,55.0 945.0,55.0 945.0,58.199999999999996 947.5,58.199999999999996 947.5,61.2 950.0,61.2 950.0,61.4 955.0,61.4 955.0,68.6 962.5,68.6 962.5,68.6 970.0,68.6 970.0,61.4 975.0,61.4 975.0,61.2 977.5,61.2 977.5,58.199999999999996 980.0,58.199999999999996 980.0,55.0" stroke="rgb(0,0,0)" /><text fill="black" x="945.0" y="88.6">H48</text><polygon fill="rgb(150,150,150)" points="1045.0,55.0 1045.0,54.8 1042.5,54.8 1042.5,54.6 1040.0,54.6 1040.0,54.4 1037.5,54.4 1037.5,48.0 1035.0,48.0 1035.0,28.799999999999997 1027.5,28.799999999999997 1027.5,28.799999999999997 1020.0,28.799999999999997 1020.0,48.0 1017.5,48.0 1017.5,54.4 1015.0,54.4 1015.0,54.6 1012.5,54.6 1012.5,54.8 1010.0,54.8 1010.0,55.0 1010.0,55.0 1010.0,55.2 1012.5,55.2 1012.5,55.4 1015.0,55.4 1015.0,55.6 1017.5,55.6 1017.5,62.0 1020.0,62.0 1020.0,81.2 1027.5,81.2 1027.5,81.2 1035.0,81.2 1035.0,62.0 1037.5,62.0 1037.5,55.6 1040.0,55.6 1040.0,55.4 1042.5,55.4 1042.5,55.2 1045.0,55.2 1045.0,55.0" stroke="rgb(0,0,0)" /><text fill="black" x="1010.0" y="101.2">H53</text><polygon fill="rgb(255,150,150)" points="1140.0,55.0 1140.0,54.8 1137.5,54.8 1137.5,54.6 1135.0,54.6 1135.0,53.0 1132.5,53.0 1132.5,49.2 1130.0,49.2 1130.0,42.4 1127.5,42.4 1127.5,36.6 1125.0,36.6 1125.0,23.0 1122.5,23.0 1122.5,7.200000000000003 1120.0,7.200000000000003 1120.0,5.799999999999997 1117.5,5.799999999999997 1117.5,5.600000000000001 1115.0,5.600000000000001 1115.0,5.399999999999999 1107.5,5.399999999999999 1107.5,5.399999999999999 1100.0,5.399999999999999 1100.0,5.600000000000001 1097.5,5.600000000000001 1097.5,5.799999999999997 1095.0,5.799999999999997 1095.0,7.200000000000003 1092.5,7.200000000000003 1092.5,23.0 1090.0,23.0 1090.0,36.6 1087.5,36.6 1087.5,42.4 1085.0,42.4 1085.0,49.2 1082.5,49.2 1082.5,53.0 1080.0,53.0 1080.0,54.6 1077.5,54.6 1077.5,54.8 1075.0,54.8 1075.0,55.0 1075.0,55.0 1075.0,55.2 1077.5,55.2 1077.5,55.4 1080.0,55.4 1080.0,57.0 1082.5,57.0 1082.5,60.8 1085.0,60.8 1085.0,67.6 1087.5,67.6 1087.5,73.4 1090.0,73.4 1090.0,87.0 1092.5,87.0 1092.5,102.8 1095.0,102.8 1095.0,104.2 1097.5,104.2 1097.5,104.4 1100.0,104.4 1100.0,104.6 1107.5,104.6 1107.5,104.6 1115.0,104.6 1115.0,104.4 1117.5,104.4 1117.5,104.2 1120.0,104.2 1120.0,102.8 1122.5,102.8 1122.5,87.0 1125.0,87.0 1125.0,73.4 1127.5,73.4 1127.5,67.6 1130.0,67.6 1130.0,60.8 1132.5,60.8 1132.5,57.0 1135.0,57.0 1135.0,55.4 1137.5,55.4 1137.5,55.2 1140.0,55.2 1140.0,55.0" stroke="rgb(0,0,0)" /><text fill="black" x="1075.0" y="124.6">E59</text><polygon fill="rgb(150,150,150)" points="1200.0,55.0 1200.0,54.8 1195.0,54.8 1195.0,54.4 1192.5,54.4 1192.5,37.8 1185.0,37.8 1185.0,37.8 1177.5,37.8 1177.5,54.4 1175.0,54.4 1175.0,54.8 1170.0,54.8 1170.0,55.0 1170.0,55.0 1170.0,55.2 1175.0,55.2 1175.0,55.6 1177.5,55.6 1177.5,72.2 1185.0,72.2 1185.0,72.2 1192.5,72.2 1192.5,55.6 1195.0,55.6 1195.0,55.2 1200.0,55.2 1200.0,55.0" stroke="rgb(0,0,0)" /><text fill="black" x="1170.0" y="92.2">H63</text><polygon fill="rgb(255,150,150)" points="1275.0,55.0 1275.0,54.8 1270.0,54.8 1270.0,54.4 1267.5,54.4 1267.5,53.8 1265.0,53.8 1265.0,53.199999999999996 1262.5,53.199999999999996 1262.5,49.0 1260.0,49.0 1260.0,46.4 1257.5,46.4 1257.5,36.2 1255.0,36.2 1255.0,32.0 1252.5,32.0 1252.5,32.0 1250.0,32.0 1250.0,36.2 1247.5,36.2 1247.5,46.4 1245.0,46.4 1245.0,49.0 1242.5,49.0 1242.5,53.199999999999996 1240.0,53.199999999999996 1240.0,53.8 1237.5,53.8 1237.5,54.4 1235.0,54.4 1235.0,54.8 1230.0,54.8 1230.0,55.0 1230.0,55.0 1230.0,55.2 1235.0,55.2 1235.0,55.6 1237.5,55.6 1237.5,56.2 1240.0,56.2 1240.0,56.800000000000004 1242.5,56.800000000000004 1242.5,61.0 1245.0,61.0 1245.0,63.6 1247.5,63.6 1247.5,73.8 1250.0,73.8 1250.0,78.0 1252.5,78.0 1252.5,78.0 1255.0,78.0 1255.0,73.8 1257.5,73.8 1257.5,63.6 1260.0,63.6 1260.0,61.0 1262.5,61.0 1262.5,56.800000000000004 1265.0,56.800000000000004 1265.0,56.2 1267.5,56.2 1267.5,55.6 1270.0,55.6 1270.0,55.2 1275.0,55.2 1275.0,55.0" stroke="rgb(0,0,0)" /><text fill="black" x="1230.0" y="98.0">E64</text><polygon fill="rgb(255,150,150)" points="1370.0,55.0 1370.0,54.4 1367.5,54.4 1367.5,53.8 1365.0,53.8 1365.0,52.8 1362.5,52.8 1362.5,51.2 1360.0,51.2 1360.0,50.4 1357.5,50.4 1357.5,49.6 1355.0,49.6 1355.0,47.199999999999996 1352.5,47.199999999999996 1352.5,33.8 1350.0,33.8 1350.0,20.400000000000006 1347.5,20.400000000000006 1347.5,14.599999999999994 1345.0,14.599999999999994 1345.0,9.399999999999999 1342.5,9.399999999999999 1342.5,8.0 1340.0,8.0 1340.0,7.600000000000001 1337.5,7.600000000000001 1337.5,7.600000000000001 1335.0,7.600000000000001 1335.0,8.0 1332.5,8.0 1332.5,9.399999999999999 1330.0,9.399999999999999 1330.0,14.599999999999994 1327.5,14.599999999999994 1327.5,20.400000000000006 1325.0,20.400000000000006 1325.0,33.8 1322.5,33.8 1322.5,47.199999999999996 1320.0,47.199999999999996 1320.0,49.6 1317.5,49.6 1317.5,50.4 1315.0,50.4 1315.0,51.2 1312.5,51.2 1312.5,52.8 1310.0,52.8 1310.0,53.8 1307.5,53.8 1307.5,54.4 1305.0,54.4 1305.0,55.0 1305.0,55.0 1305.0,55.6 1307.5,55.6 1307.5,56.2 1310.0,56.2 1310.0,57.2 1312.5,57.2 1312.5,58.8 1315.0,58.8 1315.0,59.6 1317.5,59.6 1317.5,60.4 1320.0,60.4 1320.0,62.800000000000004 1322.5,62.800000000000004 1322.5,76.2 1325.0,76.2 1325.0,89.6 1327.5,89.6 1327.5,95.4 1330.0,95.4 1330.0,100.6 1332.5,100.6 1332.5,102.0 1335.0,102.0 1335.0,102.4 1337.5,102.4 1337.5,102.4 1340.0,102.4 1340.0,102.0 1342.5,102.0 1342.5,100.6 1345.0,100.6 1345.0,95.4 1347.5,95.4 1347.5,89.6 1350.0,89.6 1350.0,76.2 1352.5,76.2 1352.5,62.800000000000004 1355.0,62.800000000000004 1355.0,60.4 1357.5,60.4 1357.5,59.6 1360.0,59.6 1360.0,58.8 1362.5,58.8 1362.5,57.2 1365.0,57.2 1365.0,56.2 1367.5,56.2 1367.5,55.6 1370.0,55.6 1370.0,55.0" stroke="rgb(0,0,0)" /><text fill="black" x="1305.0" y="122.4">E69</text><path d="M 332.5,55.0 a 426.73174048174053,426.73174048174053 0 0,0 -310.0,-0.0" stroke="rgb(150,255,150)" stroke-width="2" /><path d="M 332.5,55.0 a 426.73174048174053,426.73174048174053 0 0,0 -310.0,-0.0" stroke="rgb(0,0,0)" stroke-width="0.2" /><path d="M 260.0,55.0 a 168.29676071055383,168.29676071055383 0 0,0 -160.0,-0.0" stroke="rgb(150,150,255)" stroke-width="2" /><path d="M 260.0,55.0 a 168.29676071055383,168.29676071055383 0 0,0 -160.0,-0.0" stroke="rgb(0,0,0)" stroke-width="0.2" /><path d="M 180.0,55.0 a 3072.5142045454545,3072.5142045454545 0 0,0 1157.5,-0.0" stroke="rgb(255,150,150)" stroke-width="2" /><path d="M 180.0,55.0 a 3072.5142045454545,3072.5142045454545 0 0,0 1157.5,-0.0" stroke="rgb(0,0,0)" stroke-width="0.2" /><path d="M 887.5,55.0 a 1306.2085667967765,1306.2085667967765 0 0,0 -627.5,-0.0" stroke="rgb(150,150,255)" stroke-width="2" /><path d="M 887.5,55.0 a 1306.2085667967765,1306.2085667967765 0 0,0 -627.5,-0.0" stroke="rgb(0,0,0)" stroke-width="0.2" /><path d="M 495.0,55.0 a 81.43991282689913,81.43991282689913 0 0,0 -90.0,-0.0" stroke="rgb(255,150,150)" stroke-width="2" /><path d="M 495.0,55.0 a 81.43991282689913,81.43991282689913 0 0,0 -90.0,-0.0" stroke="rgb(0,0,0)" stroke-width="0.2" /><path d="M 1107.5,55.0 a 1580.4310407463379,1580.4310407463379 0 0,0 -702.5,-0.0" stroke="rgb(255,150,150)" stroke-width="2" /><path d="M 1107.5,55.0 a 1580.4310407463379,1580.4310407463379 0 0,0 -702.5,-0.0" stroke="rgb(0,0,0)" stroke-width="0.2" /><path d="M 565.0,55.0 a 60.466073781291165,60.466073781291165 0 0,0 -70.0,-0.0" stroke="rgb(255,150,150)" stroke-width="2" /><path d="M 565.0,55.0 a 60.466073781291165,60.466073781291165 0 0,0 -70.0,-0.0" stroke="rgb(0,0,0)" stroke-width="0.2" /><path d="M 887.5,55.0 a 227.48803827751198,227.48803827751198 0 0,0 -200.0,-0.0" stroke="rgb(150,150,255)" stroke-width="2" /><path d="M 887.5,55.0 a 227.48803827751198,227.48803827751198 0 0,0 -200.0,-0.0" stroke="rgb(0,0,0)" stroke-width="0.2" /><path d="M 887.5,55.0 a 131.65478597322922,131.65478597322922 0 0,0 -132.5,-0.0" stroke="rgb(150,150,255)" stroke-width="2" /><path d="M 887.5,55.0 a 131.65478597322922,131.65478597322922 0 0,0 -132.5,-0.0" stroke="rgb(0,0,0)" stroke-width="0.2" /><path d="M 1252.5,55.0 a 147.90313852813853,147.90313852813853 0 0,0 -145.0,-0.0" stroke="rgb(255,150,150)" stroke-width="2" /><path d="M 1252.5,55.0 a 147.90313852813853,147.90313852813853 0 0,0 -145.0,-0.0" stroke="rgb(0,0,0)" stroke-width="0.2" /><path d="M 1337.5,55.0 a 276.50202520252026,276.50202520252026 0 0,0 -230.0,-0.0" stroke="rgb(255,150,150)" stroke-width="2" /><path d="M 1337.5,55.0 a 276.50202520252026,276.50202520252026 0 0,0 -230.0,-0.0" stroke="rgb(0,0,0)" stroke-width="0.2" /></svg>