<?xml version="1.0" encoding="utf-8" ?>
<svg baseProfile="full" height="100%" style="font-size:14;font-family:Sans, Arial;stroke-width:1;fill:none" version="1.1" width="100%" xmlns="http://www.w3.org/2000/svg" xmlns:ev="http://www.w3.org/2001/xml-events" xmlns:xlink="http://www.w3.org/1999/xlink"><defs /><rect fill="none" height="150.0" stroke="none" width="759.7877000000003" x="0" y="0" /><line stroke="rgb(0,0,0)" x1="5.0" x2="15.95505" y1="75.0" y2="75.0" /><line stroke="rgb(0,0,0)" x1="15.95505" x2="25.95505" y1="75.0" y2="75.0" /><line stroke="rgb(0,0,0)" x1="25.95505" x2="30.95505" y1="75.0" y2="75.0" /><line stroke="rgb(0,0,0)" x1="30.95505" x2="60.3106" y1="75.0" y2="75.0" /><line stroke="rgb(0,0,0)" x1="60.3106" x2="70.3106" y1="75.0" y2="75.0" /><line stroke="rgb(0,0,0)" x1="70.3106" x2="75.3106" y1="75.0" y2="75.0" /><line stroke="rgb(0,0,0)" x1="75.3106" x2="98.06290000000001" y1="75.0" y2="75.0" /><line stroke="rgb(0,0,0)" x1="98.06290000000001" x2="108.06290000000001" y1="75.0" y2="75.0" /><line stroke="rgb(0,0,0)" x1="108.06290000000001" x2="113.06290000000001" y1="75.0" y2="75.0" /><line stroke="rgb(0,0,0)" x1="113.06290000000001" x2="158.5829" y1="75.0" y2="75.0" /><line stroke="rgb(0,0,0)" x1="158.5829" x2="168.5829" y1="75.0" y2="75.0" /><line stroke="rgb(0,0,0)" x1="168.5829" x2="173.5829" y1="75.0" y2="75.0" /><line stroke="rgb(0,0,0)" x1="173.5829" x2="184.40765" y1="75.0" y2="75.0" /><line stroke="rgb(0,0,0)" x1="184.40765" x2="194.40765" y1="75.0" y2="75.0" /><line stroke="rgb(0,0,0)" x1="194.40765" x2="199.40765" y1="75.0" y2="75.0" /><line stroke="rgb(0,0,0)" x1="199.40765" x2="234.58835" y1="75.0" y2="75.0" /><line stroke="rgb(0,0,0)" x1="234.58835" x2="244.58835" y1="75.0" y2="75.0" /><line stroke="rgb(0,0,0)" x1="244.58835" x2="249.58835" y1="75.0" y2="75.0" /><line stroke="rgb(0,0,0)" x1="249.58835" x2="274.632" y1="75.0" y2="75.0" /><line stroke="rgb(0,0,0)" x1="274.632" x2="284.632" y1="75.0" y2="75.0" /><line stroke="rgb(0,0,0)" x1="284.632" x2="289.632" y1="75.0" y2="75.0" /><line stroke="rgb(0,0,0)" x1="289.632" x2="306.70515" y1="75.0" y2="75.0" /><line stroke="rgb(0,0,0)" x1="306.70515" x2="316.70515" y1="75.0" y2="75.0" /><line stroke="rgb(0,0,0)" x1="316.70515" x2="321.70515" y1="75.0" y2="75.0" /><line stroke="rgb(0,0,0)" x1="321.70515" x2="342.8162500000001" y1="75.0" y2="75.0" /><line stroke="rgb(0,0,0)" x1="342.8162500000001" x2="352.8162500000001" y1="75.0" y2="75.0" /><line stroke="rgb(0,0,0)" x1="352.8162500000001" x2="357.8162500000001" y1="75.0" y2="75.0" /><line stroke="rgb(0,0,0)" x1="357.8162500000001" x2="384.2309" y1="75.0" y2="75.0" /><line stroke="rgb(0,0,0)" x1="384.2309" x2="394.2309" y1="75.0" y2="75.0" /><line stroke="rgb(0,0,0)" x1="394.2309" x2="399.2309" y1="75.0" y2="75.0" /><line stroke="rgb(0,0,0)" x1="399.2309" x2="415.62625" y1="75.0" y2="75.0" /><line stroke="rgb(0,0,0)" x1="415.62625" x2="425.62625" y1="75.0" y2="75.0" /><line stroke="rgb(0,0,0)" x1="425.62625" x2="430.62625" y1="75.0" y2="75.0" /><line stroke="rgb(0,0,0)" x1="430.62625" x2="450.94370000000004" y1="75.0" y2="75.0" /><line stroke="rgb(0,0,0)" x1="450.94370000000004" x2="460.94370000000004" y1="75.0" y2="75.0" /><line stroke="rgb(0,0,0)" x1="460.94370000000004" x2="465.94370000000004" y1="75.0" y2="75.0" /><line stroke="rgb(0,0,0)" x1="465.94370000000004" x2="507.06820000000005" y1="75.0" y2="75.0" /><line stroke="rgb(0,0,0)" x1="507.06820000000005" x2="517.0682" y1="75.0" y2="75.0" /><line stroke="rgb(0,0,0)" x1="517.0682" x2="522.0682" y1="75.0" y2="75.0" /><line stroke="rgb(0,0,0)" x1="522.0682" x2="550.2299500000001" y1="75.0" y2="75.0" /><line stroke="rgb(0,0,0)" x1="550.2299500000001" x2="560.2299500000001" y1="75.0" y2="75.0" /><line stroke="rgb(0,0,0)" x1="560.2299500000001" x2="565.2299500000001" y1="75.0" y2="75.0" /><line stroke="rgb(0,0,0)" x1="565.2299500000001" x2="586.7948500000001" y1="75.0" y2="75.0" /><line stroke="rgb(0,0,0)" x1="586.7948500000001" x2="596.7948500000001" y1="75.0" y2="75.0" /><line stroke="rgb(0,0,0)" x1="596.7948500000001" x2="601.7948500000001" y1="75.0" y2="75.0" /><line stroke="rgb(0,0,0)" x1="601.7948500000001" x2="643.7505000000001" y1="75.0" y2="75.0" /><line stroke="rgb(0,0,0)" x1="643.7505000000001" x2="653.7505000000001" y1="75.0" y2="75.0" /><line stroke="rgb(0,0,0)" x1="653.7505000000001" x2="658.7505000000001" y1="75.0" y2="75.0" /><line stroke="rgb(0,0,0)" x1="658.7505000000001" x2="679.0412000000002" y1="75.0" y2="75.0" /><line stroke="rgb(0,0,0)" x1="679.0412000000002" x2="689.0412000000002" y1="75.0" y2="75.0" /><line stroke="rgb(0,0,0)" x1="689.0412000000002" x2="694.0412000000002" y1="75.0" y2="75.0" /><line stroke="rgb(0,0,0)" x1="694.0412000000002" x2="712.1716500000002" y1="75.0" y2="75.0" /><line stroke="rgb(0,0,0)" x1="712.1716500000002" x2="722.1716500000002" y1="75.0" y2="75.0" /><line stroke="rgb(0,0,0)" x1="722.1716500000002" x2="727.1716500000002" y1="75.0" y2="75.0" /><rect fill="rgb(124,97,255)" height="35.6" stroke="rgb(0,0,0)" width="5.95505" x="5.0" y="57.2" /><text fill="black" x="5.0" y="112.8">E2</text><rect fill="rgb(255,113,144)" height="90.0" stroke="rgb(0,0,0)" width="24.35555" x="30.95505" y="30.0" /><text fill="black" x="30.95505" y="140.0">E11</text><rect fill="rgb(255,198,252)" height="43.6" stroke="rgb(0,0,0)" width="17.7523" x="75.3106" y="53.2" /><text fill="black" x="75.3106" y="116.8">E14</text><rect fill="rgb(255,152,194)" height="100.0" stroke="rgb(0,0,0)" width="40.519999999999996" x="113.06290000000001" y="25.0" /><text fill="black" x="113.06290000000001" y="145.0">E19</text><rect fill="rgb(171,134,255)" height="38.800000000000004" stroke="rgb(0,0,0)" width="5.82475" x="173.5829" y="55.599999999999994" /><text fill="black" x="173.5829" y="114.4">E21</text><rect fill="rgb(218,171,255)" height="99.6" stroke="rgb(0,0,0)" width="30.180699999999998" x="199.40765" y="25.200000000000003" /><text fill="black" x="199.40765" y="144.8">E26</text><rect fill="rgb(255,67,86)" height="91.60000000000001" stroke="rgb(0,0,0)" width="20.04365" x="249.58835" y="29.199999999999996" /><text fill="black" x="249.58835" y="140.8">E33</text><rect fill="rgb(255,187,239)" height="32.800000000000004" stroke="rgb(0,0,0)" width="12.073149999999998" x="289.632" y="58.599999999999994" /><text fill="black" x="289.632" y="111.4">E35</text><rect fill="rgb(162,127,255)" height="36.0" stroke="rgb(0,0,0)" width="16.1111" x="321.70515" y="57.0" /><text fill="black" x="321.70515" y="113.0">H39</text><rect fill="rgb(255,166,211)" height="82.0" stroke="rgb(0,0,0)" width="21.41465" x="357.8162500000001" y="34.0" /><text fill="black" x="357.8162500000001" y="136.0">E41</text><rect fill="rgb(118,93,255)" height="34.4" stroke="rgb(0,0,0)" width="11.39535" x="399.2309" y="57.8" /><text fill="black" x="399.2309" y="112.2">E42</text><rect fill="rgb(255,142,182)" height="25.2" stroke="rgb(0,0,0)" width="15.31745" x="430.62625" y="62.4" /><text fill="black" x="430.62625" y="107.6">H43</text><rect fill="rgb(255,164,209)" height="99.6" stroke="rgb(0,0,0)" width="36.1245" x="465.94370000000004" y="25.200000000000003" /><text fill="black" x="465.94370000000004" y="144.8">E46</text><rect fill="rgb(137,107,255)" height="27.200000000000003" stroke="rgb(0,0,0)" width="23.161749999999998" x="522.0682" y="61.4" /><text fill="black" x="522.0682" y="108.6">H48</text><rect fill="rgb(222,174,255)" height="52.400000000000006" stroke="rgb(0,0,0)" width="16.5649" x="565.2299500000001" y="48.8" /><text fill="black" x="565.2299500000001" y="121.2">H53</text><rect fill="rgb(249,195,255)" height="99.2" stroke="rgb(0,0,0)" width="36.955650000000006" x="601.7948500000001" y="25.4" /><text fill="black" x="601.7948500000001" y="144.6">E59</text><rect fill="rgb(233,183,255)" height="34.4" stroke="rgb(0,0,0)" width="15.2907" x="658.7505000000001" y="57.8" /><text fill="black" x="658.7505000000001" y="112.2">H63</text><rect fill="rgb(255,147,187)" height="46.0" stroke="rgb(0,0,0)" width="13.13045" x="694.0412000000002" y="52.0" /><text fill="black" x="694.0412000000002" y="118.0">E64</text><rect fill="rgb(255,86,110)" height="94.8" stroke="rgb(0,0,0)" width="27.616049999999998" x="727.1716500000002" y="27.6" /><text fill="black" x="727.1716500000002" y="142.4">E69</text><path d="M 176.495275,75.0 a 137.2009134829408,137.2009134829408 0 0,0 -168.51774999999998,-0.0" stroke="rgb(124,97,255)" stroke-width="2" /><path d="M 176.495275,75.0 a 137.2009134829408,137.2009134829408 0 0,0 -168.51774999999998,-0.0" stroke="rgb(0,0,0)" stroke-width="0.2" /><path d="M 133.3229,75.0 a 59.87742336512507,59.87742336512507 0 0,0 -90.19007500000001,-0.0" stroke="rgb(255,113,144)" stroke-width="2" /><path d="M 133.3229,75.0 a 59.87742336512507,59.87742336512507 0 0,0 -90.19007500000001,-0.0" stroke="rgb(0,0,0)" stroke-width="0.2" /><path d="M 84.18674999999999,75.0 a 1007.9021507501274,1007.9021507501274 0 0,0 656.7929250000003,-0.0" stroke="rgb(255,198,252)" stroke-width="2" /><path d="M 84.18674999999999,75.0 a 1007.9021507501274,1007.9021507501274 0 0,0 656.7929250000003,-0.0" stroke="rgb(0,0,0)" stroke-width="0.2" /><path d="M 484.00595000000004,75.0 a 419.7942761969556,419.7942761969556 0 0,0 -350.68305000000004,-0.0" stroke="rgb(255,152,194)" stroke-width="2" /><path d="M 484.00595000000004,75.0 a 419.7942761969556,419.7942761969556 0 0,0 -350.68305000000004,-0.0" stroke="rgb(0,0,0)" stroke-width="0.2" /><path d="M 259.61017499999997,75.0 a 26.50025588047627,26.50025588047627 0 0,0 -45.11217499999998,-0.0" stroke="rgb(218,171,255)" stroke-width="2" /><path d="M 259.61017499999997,75.0 a 26.50025588047627,26.50025588047627 0 0,0 -45.11217499999998,-0.0" stroke="rgb(0,0,0)" stroke-width="0.2" /><path d="M 620.2726750000002,75.0 a 534.3565671785077,534.3565671785077 0 0,0 -405.7746750000002,-0.0" stroke="rgb(218,171,255)" stroke-width="2" /><path d="M 620.2726750000002,75.0 a 534.3565671785077,534.3565671785077 0 0,0 -405.7746750000002,-0.0" stroke="rgb(0,0,0)" stroke-width="0.2" /><path d="M 295.66857500000003,75.0 a 20.68213003423041,20.68213003423041 0 0,0 -36.05840000000006,-0.0" stroke="rgb(255,67,86)" stroke-width="2" /><path d="M 295.66857500000003,75.0 a 20.68213003423041,20.68213003423041 0 0,0 -36.05840000000006,-0.0" stroke="rgb(0,0,0)" stroke-width="0.2" /><path d="M 484.00595000000004,75.0 a 82.06695200975028,82.06695200975028 0 0,0 -115.48237499999993,-0.0" stroke="rgb(255,166,211)" stroke-width="2" /><path d="M 484.00595000000004,75.0 a 82.06695200975028,82.06695200975028 0 0,0 -115.48237499999993,-0.0" stroke="rgb(0,0,0)" stroke-width="0.2" /><path d="M 484.00595000000004,75.0 a 50.93444737818564,50.93444737818564 0 0,0 -79.07737500000002,-0.0" stroke="rgb(118,93,255)" stroke-width="2" /><path d="M 484.00595000000004,75.0 a 50.93444737818564,50.93444737818564 0 0,0 -79.07737500000002,-0.0" stroke="rgb(0,0,0)" stroke-width="0.2" /><path d="M 700.6064250000003,75.0 a 51.921356872825704,51.921356872825704 0 0,0 -80.33375000000012,-0.0" stroke="rgb(249,195,255)" stroke-width="2" /><path d="M 700.6064250000003,75.0 a 51.921356872825704,51.921356872825704 0 0,0 -80.33375000000012,-0.0" stroke="rgb(0,0,0)" stroke-width="0.2" /><path d="M 740.9796750000003,75.0 a 86.97526815476769,86.97526815476769 0 0,0 -120.70700000000011,-0.0" stroke="rgb(249,195,255)" stroke-width="2" /><path d="M 740.9796750000003,75.0 a 86.97526815476769,86.97526815476769 0 0,0 -120.70700000000011,-0.0" stroke="rgb(0,0,0)" stroke-width="0.2" /></svg>