<?xml version="1.0" encoding="utf-8" ?>
<svg baseProfile="full" height="100%" style="font-size:14;font-family:Sans, Arial;stroke-width:1;fill:none" version="1.1" width="100%" xmlns="http://www.w3.org/2000/svg" xmlns:ev="http://www.w3.org/2001/xml-events" xmlns:xlink="http://www.w3.org/1999/xlink"><defs /><rect fill="none" height="280.0" stroke="none" width="3112.697599999999" x="0" y="0" /><line stroke="rgb(0,0,0)" x1="5.0" x2="25.0" y1="55.0" y2="55.0" /><line stroke="rgb(0,0,0)" x1="25.0" x2="45.0" y1="55.0" y2="130.0" /><line stroke="rgb(0,0,0)" x1="45.0" x2="50.0" y1="130.0" y2="130.0" /><line stroke="rgb(0,0,0)" x1="5.0" x2="10.0" y1="205.0" y2="205.0" /><line stroke="rgb(0,0,0)" x1="10.0" x2="45.0" y1="205.0" y2="130.0" /><line stroke="rgb(0,0,0)" x1="45.0" x2="50.0" y1="130.0" y2="130.0" /><line stroke="rgb(0,0,0)" x1="50.0" x2="60.95505" y1="130.0" y2="130.0" /><line stroke="rgb(0,0,0)" x1="60.95505" x2="80.95505" y1="130.0" y2="55.0" /><line stroke="rgb(0,0,0)" x1="80.95505" x2="85.95505" y1="55.0" y2="55.0" /><line stroke="rgb(0,0,0)" x1="50.0" x2="60.95505" y1="130.0" y2="130.0" /><line stroke="rgb(0,0,0)" x1="60.95505" x2="80.95505" y1="130.0" y2="205.0" /><line stroke="rgb(0,0,0)" x1="80.95505" x2="85.95505" y1="205.0" y2="205.0" /><line stroke="rgb(0,0,0)" x1="85.95505" x2="106.95504999999999" y1="55.0" y2="55.0" /><line stroke="rgb(0,0,0)" x1="106.95504999999999" x2="126.95504999999997" y1="55.0" y2="130.0" /><line stroke="rgb(0,0,0)" x1="126.95504999999997" x2="131.95504999999997" y1="130.0" y2="130.0" /><line stroke="rgb(0,0,0)" x1="85.95505" x2="90.95505" y1="205.0" y2="205.0" /><line stroke="rgb(0,0,0)" x1="90.95505" x2="126.95504999999997" y1="205.0" y2="130.0" /><line stroke="rgb(0,0,0)" x1="126.95504999999997" x2="131.95504999999997" y1="130.0" y2="130.0" /><line stroke="rgb(0,0,0)" x1="131.95504999999997" x2="136.95504999999997" y1="130.0" y2="130.0" /><line stroke="rgb(0,0,0)" x1="136.95504999999997" x2="156.95505" y1="130.0" y2="130.0" /><line stroke="rgb(0,0,0)" x1="156.95505" x2="161.95505" y1="130.0" y2="130.0" /><line stroke="rgb(0,0,0)" x1="161.95505" x2="166.95505" y1="130.0" y2="130.0" /><line stroke="rgb(0,0,0)" x1="166.95505" x2="186.95504999999997" y1="130.0" y2="130.0" /><line stroke="rgb(0,0,0)" x1="186.95504999999997" x2="191.95504999999997" y1="130.0" y2="130.0" /><line stroke="rgb(0,0,0)" x1="191.95504999999997" x2="196.95504999999997" y1="130.0" y2="130.0" /><line stroke="rgb(0,0,0)" x1="196.95504999999997" x2="216.95504999999997" y1="130.0" y2="130.0" /><line stroke="rgb(0,0,0)" x1="216.95504999999997" x2="221.95504999999997" y1="130.0" y2="130.0" /><line stroke="rgb(0,0,0)" x1="221.95504999999997" x2="241.95504999999997" y1="130.0" y2="130.0" /><line stroke="rgb(0,0,0)" x1="241.95504999999997" x2="261.95504999999997" y1="130.0" y2="130.0" /><line stroke="rgb(0,0,0)" x1="261.95504999999997" x2="266.95504999999997" y1="130.0" y2="130.0" /><line stroke="rgb(0,0,0)" x1="266.95504999999997" x2="271.95504999999997" y1="130.0" y2="130.0" /><line stroke="rgb(0,0,0)" x1="271.95504999999997" x2="291.95504999999997" y1="130.0" y2="130.0" /><line stroke="rgb(0,0,0)" x1="291.95504999999997" x2="296.95504999999997" y1="130.0" y2="130.0" /><line stroke="rgb(0,0,0)" x1="296.95504999999997" x2="301.95504999999997" y1="130.0" y2="130.0" /><line stroke="rgb(0,0,0)" x1="301.95504999999997" x2="321.95504999999997" y1="130.0" y2="130.0" /><line stroke="rgb(0,0,0)" x1="321.95504999999997" x2="326.95504999999997" y1="130.0" y2="130.0" /><line stroke="rgb(0,0,0)" x1="326.95504999999997" x2="356.31059999999997" y1="130.0" y2="130.0" /><line stroke="rgb(0,0,0)" x1="356.31059999999997" x2="376.31059999999997" y1="130.0" y2="130.0" /><line stroke="rgb(0,0,0)" x1="376.31059999999997" x2="381.31059999999997" y1="130.0" y2="130.0" /><line stroke="rgb(0,0,0)" x1="381.31059999999997" x2="396.31059999999997" y1="130.0" y2="130.0" /><line stroke="rgb(0,0,0)" x1="396.31059999999997" x2="416.31059999999997" y1="130.0" y2="130.0" /><line stroke="rgb(0,0,0)" x1="416.31059999999997" x2="421.31059999999997" y1="130.0" y2="130.0" /><line stroke="rgb(0,0,0)" x1="421.31059999999997" x2="446.31059999999997" y1="130.0" y2="130.0" /><line stroke="rgb(0,0,0)" x1="446.31059999999997" x2="466.31059999999997" y1="130.0" y2="130.0" /><line stroke="rgb(0,0,0)" x1="466.31059999999997" x2="471.31059999999997" y1="130.0" y2="130.0" /><line stroke="rgb(0,0,0)" x1="471.31059999999997" x2="494.0629" y1="130.0" y2="130.0" /><line stroke="rgb(0,0,0)" x1="494.0629" x2="514.0629" y1="130.0" y2="130.0" /><line stroke="rgb(0,0,0)" x1="514.0629" x2="519.0629" y1="130.0" y2="130.0" /><line stroke="rgb(0,0,0)" x1="519.0629" x2="535.72955" y1="130.0" y2="130.0" /><line stroke="rgb(0,0,0)" x1="535.72955" x2="555.72955" y1="130.0" y2="130.0" /><line stroke="rgb(0,0,0)" x1="555.72955" x2="560.72955" y1="130.0" y2="130.0" /><line stroke="rgb(0,0,0)" x1="560.72955" x2="591.2057500000001" y1="130.0" y2="130.0" /><line stroke="rgb(0,0,0)" x1="591.2057500000001" x2="611.2057500000001" y1="130.0" y2="55.0" /><line stroke="rgb(0,0,0)" x1="611.2057500000001" x2="616.2057500000001" y1="55.0" y2="55.0" /><line stroke="rgb(0,0,0)" x1="560.72955" x2="591.2057500000001" y1="130.0" y2="130.0" /><line stroke="rgb(0,0,0)" x1="591.2057500000001" x2="611.2057500000001" y1="130.0" y2="205.0" /><line stroke="rgb(0,0,0)" x1="611.2057500000001" x2="616.2057500000001" y1="205.0" y2="205.0" /><line stroke="rgb(0,0,0)" x1="616.2057500000001" x2="636.2057500000001" y1="55.0" y2="55.0" /><line stroke="rgb(0,0,0)" x1="636.2057500000001" x2="656.2057500000001" y1="55.0" y2="130.0" /><line stroke="rgb(0,0,0)" x1="656.2057500000001" x2="661.2057500000001" y1="130.0" y2="130.0" /><line stroke="rgb(0,0,0)" x1="616.2057500000001" x2="632.8724000000001" y1="205.0" y2="205.0" /><line stroke="rgb(0,0,0)" x1="632.8724000000001" x2="656.2057500000001" y1="205.0" y2="130.0" /><line stroke="rgb(0,0,0)" x1="656.2057500000001" x2="661.2057500000001" y1="130.0" y2="130.0" /><line stroke="rgb(0,0,0)" x1="661.2057500000001" x2="706.72575" y1="130.0" y2="130.0" /><line stroke="rgb(0,0,0)" x1="706.72575" x2="726.72575" y1="130.0" y2="130.0" /><line stroke="rgb(0,0,0)" x1="726.72575" x2="731.72575" y1="130.0" y2="130.0" /><line stroke="rgb(0,0,0)" x1="731.72575" x2="741.72575" y1="130.0" y2="130.0" /><line stroke="rgb(0,0,0)" x1="741.72575" x2="761.72575" y1="130.0" y2="130.0" /><line stroke="rgb(0,0,0)" x1="761.72575" x2="766.72575" y1="130.0" y2="130.0" /><line stroke="rgb(0,0,0)" x1="766.72575" x2="777.5504999999999" y1="130.0" y2="130.0" /><line stroke="rgb(0,0,0)" x1="777.5504999999999" x2="797.5504999999999" y1="130.0" y2="130.0" /><line stroke="rgb(0,0,0)" x1="797.5504999999999" x2="802.5504999999999" y1="130.0" y2="130.0" /><line stroke="rgb(0,0,0)" x1="802.5504999999999" x2="826.6414" y1="130.0" y2="130.0" /><line stroke="rgb(0,0,0)" x1="826.6414" x2="846.6414" y1="130.0" y2="130.0" /><line stroke="rgb(0,0,0)" x1="846.6414" x2="851.6414" y1="130.0" y2="130.0" /><line stroke="rgb(0,0,0)" x1="851.6414" x2="861.6414" y1="130.0" y2="130.0" /><line stroke="rgb(0,0,0)" x1="861.6414" x2="881.6414" y1="130.0" y2="130.0" /><line stroke="rgb(0,0,0)" x1="881.6414" x2="886.6414" y1="130.0" y2="130.0" /><line stroke="rgb(0,0,0)" x1="886.6414" x2="908.62055" y1="130.0" y2="130.0" /><line stroke="rgb(0,0,0)" x1="908.62055" x2="928.62055" y1="130.0" y2="130.0" /><line stroke="rgb(0,0,0)" x1="928.62055" x2="933.62055" y1="130.0" y2="130.0" /><line stroke="rgb(0,0,0)" x1="933.62055" x2="945.0491" y1="130.0" y2="130.0" /><line stroke="rgb(0,0,0)" x1="945.0491" x2="965.0491" y1="130.0" y2="130.0" /><line stroke="rgb(0,0,0)" x1="965.0491" x2="970.0491" y1="130.0" y2="130.0" /><line stroke="rgb(0,0,0)" x1="970.0491" x2="1005.2297999999998" y1="130.0" y2="130.0" /><line stroke="rgb(0,0,0)" x1="1005.2297999999998" x2="1025.2297999999998" y1="130.0" y2="130.0" /><line stroke="rgb(0,0,0)" x1="1025.2297999999998" x2="1030.2297999999998" y1="130.0" y2="130.0" /><line stroke="rgb(0,0,0)" x1="1030.2297999999998" x2="1043.2297999999998" y1="130.0" y2="130.0" /><line stroke="rgb(0,0,0)" x1="1043.2297999999998" x2="1063.2297999999998" y1="130.0" y2="130.0" /><line stroke="rgb(0,0,0)" x1="1063.2297999999998" x2="1068.2297999999998" y1="130.0" y2="130.0" /><line stroke="rgb(0,0,0)" x1="1068.2297999999998" x2="1088.2297999999998" y1="130.0" y2="130.0" /><line stroke="rgb(0,0,0)" x1="1088.2297999999998" x2="1108.2297999999998" y1="130.0" y2="130.0" /><line stroke="rgb(0,0,0)" x1="1108.2297999999998" x2="1113.2297999999998" y1="130.0" y2="130.0" /><line stroke="rgb(0,0,0)" x1="1113.2297999999998" x2="1123.2297999999998" y1="130.0" y2="130.0" /><line stroke="rgb(0,0,0)" x1="1123.2297999999998" x2="1143.2297999999998" y1="130.0" y2="130.0" /><line stroke="rgb(0,0,0)" x1="1143.2297999999998" x2="1148.2297999999998" y1="130.0" y2="130.0" /><line stroke="rgb(0,0,0)" x1="1148.2297999999998" x2="1168.5422999999998" y1="130.0" y2="130.0" /><line stroke="rgb(0,0,0)" x1="1168.5422999999998" x2="1188.5422999999998" y1="130.0" y2="55.0" /><line stroke="rgb(0,0,0)" x1="1188.5422999999998" x2="1193.5422999999998" y1="55.0" y2="55.0" /><line stroke="rgb(0,0,0)" x1="1148.2297999999998" x2="1168.5422999999998" y1="130.0" y2="130.0" /><line stroke="rgb(0,0,0)" x1="1168.5422999999998" x2="1188.5422999999998" y1="130.0" y2="205.0" /><line stroke="rgb(0,0,0)" x1="1188.5422999999998" x2="1193.5422999999998" y1="205.0" y2="205.0" /><line stroke="rgb(0,0,0)" x1="1193.5422999999998" x2="1214.7922999999998" y1="55.0" y2="55.0" /><line stroke="rgb(0,0,0)" x1="1214.7922999999998" x2="1234.7922999999998" y1="55.0" y2="130.0" /><line stroke="rgb(0,0,0)" x1="1234.7922999999998" x2="1239.7922999999998" y1="130.0" y2="130.0" /><line stroke="rgb(0,0,0)" x1="1193.5422999999998" x2="1205.2089499999997" y1="205.0" y2="205.0" /><line stroke="rgb(0,0,0)" x1="1205.2089499999997" x2="1234.7922999999998" y1="205.0" y2="130.0" /><line stroke="rgb(0,0,0)" x1="1234.7922999999998" x2="1239.7922999999998" y1="130.0" y2="130.0" /><line stroke="rgb(0,0,0)" x1="1239.7922999999998" x2="1264.8359499999997" y1="130.0" y2="130.0" /><line stroke="rgb(0,0,0)" x1="1264.8359499999997" x2="1284.8359499999997" y1="130.0" y2="130.0" /><line stroke="rgb(0,0,0)" x1="1284.8359499999997" x2="1289.8359499999997" y1="130.0" y2="130.0" /><line stroke="rgb(0,0,0)" x1="1289.8359499999997" x2="1311.4148999999998" y1="130.0" y2="130.0" /><line stroke="rgb(0,0,0)" x1="1311.4148999999998" x2="1331.4148999999998" y1="130.0" y2="130.0" /><line stroke="rgb(0,0,0)" x1="1331.4148999999998" x2="1336.4148999999998" y1="130.0" y2="130.0" /><line stroke="rgb(0,0,0)" x1="1336.4148999999998" x2="1353.4880499999997" y1="130.0" y2="130.0" /><line stroke="rgb(0,0,0)" x1="1353.4880499999997" x2="1373.4880499999997" y1="130.0" y2="130.0" /><line stroke="rgb(0,0,0)" x1="1373.4880499999997" x2="1378.4880499999997" y1="130.0" y2="130.0" /><line stroke="rgb(0,0,0)" x1="1378.4880499999997" x2="1388.4880499999997" y1="130.0" y2="130.0" /><line stroke="rgb(0,0,0)" x1="1388.4880499999997" x2="1408.4880499999997" y1="130.0" y2="130.0" /><line stroke="rgb(0,0,0)" x1="1408.4880499999997" x2="1413.4880499999997" y1="130.0" y2="130.0" /><line stroke="rgb(0,0,0)" x1="1413.4880499999997" x2="1433.7319499999999" y1="130.0" y2="130.0" /><line stroke="rgb(0,0,0)" x1="1433.7319499999999" x2="1453.7319499999999" y1="130.0" y2="130.0" /><line stroke="rgb(0,0,0)" x1="1453.7319499999999" x2="1458.7319499999999" y1="130.0" y2="130.0" /><line stroke="rgb(0,0,0)" x1="1458.7319499999999" x2="1468.7319499999999" y1="130.0" y2="130.0" /><line stroke="rgb(0,0,0)" x1="1468.7319499999999" x2="1488.7319499999999" y1="130.0" y2="130.0" /><line stroke="rgb(0,0,0)" x1="1488.7319499999999" x2="1493.7319499999999" y1="130.0" y2="130.0" /><line stroke="rgb(0,0,0)" x1="1493.7319499999999" x2="1514.8430499999997" y1="130.0" y2="130.0" /><line stroke="rgb(0,0,0)" x1="1514.8430499999997" x2="1534.8430499999997" y1="130.0" y2="130.0" /><line stroke="rgb(0,0,0)" x1="1534.8430499999997" x2="1539.8430499999997" y1="130.0" y2="130.0" /><line stroke="rgb(0,0,0)" x1="1539.8430499999997" x2="1557.3430499999997" y1="130.0" y2="130.0" /><line stroke="rgb(0,0,0)" x1="1557.3430499999997" x2="1577.3430499999997" y1="130.0" y2="130.0" /><line stroke="rgb(0,0,0)" x1="1577.3430499999997" x2="1582.3430499999997" y1="130.0" y2="130.0" /><line stroke="rgb(0,0,0)" x1="1582.3430499999997" x2="1608.7576999999999" y1="130.0" y2="130.0" /><line stroke="rgb(0,0,0)" x1="1608.7576999999999" x2="1628.7576999999999" y1="130.0" y2="130.0" /><line stroke="rgb(0,0,0)" x1="1628.7576999999999" x2="1633.7576999999999" y1="130.0" y2="130.0" /><line stroke="rgb(0,0,0)" x1="1633.7576999999999" x2="1650.15305" y1="130.0" y2="130.0" /><line stroke="rgb(0,0,0)" x1="1650.15305" x2="1670.15305" y1="130.0" y2="130.0" /><line stroke="rgb(0,0,0)" x1="1670.15305" x2="1675.15305" y1="130.0" y2="130.0" /><line stroke="rgb(0,0,0)" x1="1675.15305" x2="1695.4705" y1="130.0" y2="130.0" /><line stroke="rgb(0,0,0)" x1="1695.4705" x2="1715.4705" y1="130.0" y2="130.0" /><line stroke="rgb(0,0,0)" x1="1715.4705" x2="1720.4705" y1="130.0" y2="130.0" /><line stroke="rgb(0,0,0)" x1="1720.4705" x2="1730.4705" y1="130.0" y2="130.0" /><line stroke="rgb(0,0,0)" x1="1730.4705" x2="1750.4705" y1="130.0" y2="130.0" /><line stroke="rgb(0,0,0)" x1="1750.4705" x2="1755.4705" y1="130.0" y2="130.0" /><line stroke="rgb(0,0,0)" x1="1755.4705" x2="1760.4705" y1="130.0" y2="130.0" /><line stroke="rgb(0,0,0)" x1="1760.4705" x2="1780.4705" y1="130.0" y2="130.0" /><line stroke="rgb(0,0,0)" x1="1780.4705" x2="1785.4705" y1="130.0" y2="130.0" /><line stroke="rgb(0,0,0)" x1="1785.4705" x2="1826.5949999999998" y1="130.0" y2="130.0" /><line stroke="rgb(0,0,0)" x1="1826.5949999999998" x2="1846.5949999999998" y1="130.0" y2="130.0" /><line stroke="rgb(0,0,0)" x1="1846.5949999999998" x2="1851.5949999999998" y1="130.0" y2="130.0" /><line stroke="rgb(0,0,0)" x1="1851.5949999999998" x2="1856.5949999999998" y1="130.0" y2="130.0" /><line stroke="rgb(0,0,0)" x1="1856.5949999999998" x2="1876.5949999999998" y1="130.0" y2="130.0" /><line stroke="rgb(0,0,0)" x1="1876.5949999999998" x2="1881.5949999999998" y1="130.0" y2="130.0" /><line stroke="rgb(0,0,0)" x1="1881.5949999999998" x2="1909.7567499999996" y1="130.0" y2="130.0" /><line stroke="rgb(0,0,0)" x1="1909.7567499999996" x2="1929.7567499999996" y1="130.0" y2="130.0" /><line stroke="rgb(0,0,0)" x1="1929.7567499999996" x2="1934.7567499999996" y1="130.0" y2="130.0" /><line stroke="rgb(0,0,0)" x1="1934.7567499999996" x2="1944.7567499999996" y1="130.0" y2="130.0" /><line stroke="rgb(0,0,0)" x1="1944.7567499999996" x2="1964.7567499999996" y1="130.0" y2="130.0" /><line stroke="rgb(0,0,0)" x1="1964.7567499999996" x2="1969.7567499999996" y1="130.0" y2="130.0" /><line stroke="rgb(0,0,0)" x1="1969.7567499999996" x2="1979.7567499999996" y1="130.0" y2="130.0" /><line stroke="rgb(0,0,0)" x1="1979.7567499999996" x2="1999.7567499999996" y1="130.0" y2="130.0" /><line stroke="rgb(0,0,0)" x1="1999.7567499999996" x2="2004.7567499999996" y1="130.0" y2="130.0" /><line stroke="rgb(0,0,0)" x1="2004.7567499999996" x2="2024.7567499999996" y1="130.0" y2="130.0" /><line stroke="rgb(0,0,0)" x1="2024.7567499999996" x2="2044.7567499999996" y1="130.0" y2="130.0" /><line stroke="rgb(0,0,0)" x1="2044.7567499999996" x2="2049.7567499999996" y1="130.0" y2="130.0" /><line stroke="rgb(0,0,0)" x1="2049.7567499999996" x2="2059.7567499999996" y1="130.0" y2="130.0" /><line stroke="rgb(0,0,0)" x1="2059.7567499999996" x2="2079.7567499999996" y1="130.0" y2="130.0" /><line stroke="rgb(0,0,0)" x1="2079.7567499999996" x2="2084.7567499999996" y1="130.0" y2="130.0" /><line stroke="rgb(0,0,0)" x1="2084.7567499999996" x2="2106.3216499999994" y1="130.0" y2="130.0" /><line stroke="rgb(0,0,0)" x1="2106.3216499999994" x2="2126.3216499999994" y1="130.0" y2="130.0" /><line stroke="rgb(0,0,0)" x1="2126.3216499999994" x2="2131.3216499999994" y1="130.0" y2="130.0" /><line stroke="rgb(0,0,0)" x1="2131.3216499999994" x2="2176.3216499999994" y1="130.0" y2="130.0" /><line stroke="rgb(0,0,0)" x1="2176.3216499999994" x2="2196.3216499999994" y1="130.0" y2="130.0" /><line stroke="rgb(0,0,0)" x1="2196.3216499999994" x2="2201.3216499999994" y1="130.0" y2="130.0" /><line stroke="rgb(0,0,0)" x1="2201.3216499999994" x2="2211.3216499999994" y1="130.0" y2="130.0" /><line stroke="rgb(0,0,0)" x1="2211.3216499999994" x2="2231.3216499999994" y1="130.0" y2="130.0" /><line stroke="rgb(0,0,0)" x1="2231.3216499999994" x2="2236.3216499999994" y1="130.0" y2="130.0" /><line stroke="rgb(0,0,0)" x1="2236.3216499999994" x2="2274.6549999999997" y1="130.0" y2="130.0" /><line stroke="rgb(0,0,0)" x1="2274.6549999999997" x2="2294.6549999999997" y1="130.0" y2="130.0" /><line stroke="rgb(0,0,0)" x1="2294.6549999999997" x2="2299.6549999999997" y1="130.0" y2="130.0" /><line stroke="rgb(0,0,0)" x1="2299.6549999999997" x2="2309.6549999999997" y1="130.0" y2="130.0" /><line stroke="rgb(0,0,0)" x1="2309.6549999999997" x2="2329.6549999999997" y1="130.0" y2="130.0" /><line stroke="rgb(0,0,0)" x1="2329.6549999999997" x2="2334.6549999999997" y1="130.0" y2="130.0" /><line stroke="rgb(0,0,0)" x1="2334.6549999999997" x2="2354.6549999999997" y1="130.0" y2="130.0" /><line stroke="rgb(0,0,0)" x1="2354.6549999999997" x2="2374.6549999999997" y1="130.0" y2="130.0" /><line stroke="rgb(0,0,0)" x1="2374.6549999999997" x2="2379.6549999999997" y1="130.0" y2="130.0" /><line stroke="rgb(0,0,0)" x1="2379.6549999999997" x2="2421.6106499999996" y1="130.0" y2="130.0" /><line stroke="rgb(0,0,0)" x1="2421.6106499999996" x2="2441.6106499999996" y1="130.0" y2="130.0" /><line stroke="rgb(0,0,0)" x1="2441.6106499999996" x2="2446.6106499999996" y1="130.0" y2="130.0" /><line stroke="rgb(0,0,0)" x1="2446.6106499999996" x2="2466.6106499999996" y1="130.0" y2="130.0" /><line stroke="rgb(0,0,0)" x1="2466.6106499999996" x2="2486.6106499999996" y1="130.0" y2="130.0" /><line stroke="rgb(0,0,0)" x1="2486.6106499999996" x2="2491.6106499999996" y1="130.0" y2="130.0" /><line stroke="rgb(0,0,0)" x1="2491.6106499999996" x2="2511.6106499999996" y1="130.0" y2="130.0" /><line stroke="rgb(0,0,0)" x1="2511.6106499999996" x2="2531.6106499999996" y1="130.0" y2="130.0" /><line stroke="rgb(0,0,0)" x1="2531.6106499999996" x2="2536.6106499999996" y1="130.0" y2="130.0" /><line stroke="rgb(0,0,0)" x1="2536.6106499999996" x2="2562.0651999999995" y1="130.0" y2="130.0" /><line stroke="rgb(0,0,0)" x1="2562.0651999999995" x2="2582.0651999999995" y1="130.0" y2="130.0" /><line stroke="rgb(0,0,0)" x1="2582.0651999999995" x2="2587.0651999999995" y1="130.0" y2="130.0" /><line stroke="rgb(0,0,0)" x1="2587.0651999999995" x2="2607.3558999999996" y1="130.0" y2="130.0" /><line stroke="rgb(0,0,0)" x1="2607.3558999999996" x2="2627.3558999999996" y1="130.0" y2="130.0" /><line stroke="rgb(0,0,0)" x1="2627.3558999999996" x2="2632.3558999999996" y1="130.0" y2="130.0" /><line stroke="rgb(0,0,0)" x1="2632.3558999999996" x2="2650.486349999999" y1="130.0" y2="130.0" /><line stroke="rgb(0,0,0)" x1="2650.486349999999" x2="2670.486349999999" y1="130.0" y2="130.0" /><line stroke="rgb(0,0,0)" x1="2670.486349999999" x2="2675.486349999999" y1="130.0" y2="130.0" /><line stroke="rgb(0,0,0)" x1="2675.486349999999" x2="2680.486349999999" y1="130.0" y2="130.0" /><line stroke="rgb(0,0,0)" x1="2680.486349999999" x2="2700.486349999999" y1="130.0" y2="130.0" /><line stroke="rgb(0,0,0)" x1="2700.486349999999" x2="2705.486349999999" y1="130.0" y2="130.0" /><line stroke="rgb(0,0,0)" x1="2705.486349999999" x2="2725.486349999999" y1="130.0" y2="130.0" /><line stroke="rgb(0,0,0)" x1="2725.486349999999" x2="2745.486349999999" y1="130.0" y2="130.0" /><line stroke="rgb(0,0,0)" x1="2745.486349999999" x2="2750.486349999999" y1="130.0" y2="130.0" /><line stroke="rgb(0,0,0)" x1="2750.486349999999" x2="2762.986349999999" y1="130.0" y2="130.0" /><line stroke="rgb(0,0,0)" x1="2762.986349999999" x2="2782.986349999999" y1="130.0" y2="130.0" /><line stroke="rgb(0,0,0)" x1="2782.986349999999" x2="2787.986349999999" y1="130.0" y2="130.0" /><line stroke="rgb(0,0,0)" x1="2787.986349999999" x2="2802.986349999999" y1="130.0" y2="130.0" /><line stroke="rgb(0,0,0)" x1="2802.986349999999" x2="2822.986349999999" y1="130.0" y2="130.0" /><line stroke="rgb(0,0,0)" x1="2822.986349999999" x2="2827.986349999999" y1="130.0" y2="130.0" /><line stroke="rgb(0,0,0)" x1="2827.986349999999" x2="2860.602399999999" y1="130.0" y2="130.0" /><line stroke="rgb(0,0,0)" x1="2860.602399999999" x2="2880.602399999999" y1="130.0" y2="130.0" /><line stroke="rgb(0,0,0)" x1="2880.602399999999" x2="2885.602399999999" y1="130.0" y2="130.0" /><line stroke="rgb(0,0,0)" x1="2885.602399999999" x2="2899.602399999999" y1="130.0" y2="130.0" /><line stroke="rgb(0,0,0)" x1="2899.602399999999" x2="2919.602399999999" y1="130.0" y2="130.0" /><line stroke="rgb(0,0,0)" x1="2919.602399999999" x2="2924.602399999999" y1="130.0" y2="130.0" /><line stroke="rgb(0,0,0)" x1="2924.602399999999" x2="2934.602399999999" y1="130.0" y2="130.0" /><line stroke="rgb(0,0,0)" x1="2934.602399999999" x2="2954.602399999999" y1="130.0" y2="130.0" /><line stroke="rgb(0,0,0)" x1="2954.602399999999" x2="2959.602399999999" y1="130.0" y2="130.0" /><line stroke="rgb(0,0,0)" x1="2959.602399999999" x2="2981.269049999999" y1="130.0" y2="130.0" /><line stroke="rgb(0,0,0)" x1="2981.269049999999" x2="3001.269049999999" y1="130.0" y2="130.0" /><line stroke="rgb(0,0,0)" x1="3001.269049999999" x2="3006.269049999999" y1="130.0" y2="130.0" /><line stroke="rgb(0,0,0)" x1="3006.269049999999" x2="3016.269049999999" y1="130.0" y2="130.0" /><line stroke="rgb(0,0,0)" x1="3016.269049999999" x2="3036.269049999999" y1="130.0" y2="130.0" /><line stroke="rgb(0,0,0)" x1="3036.269049999999" x2="3041.269049999999" y1="130.0" y2="130.0" /><line stroke="rgb(0,0,0)" x1="3041.269049999999" x2="3051.269049999999" y1="130.0" y2="130.0" /><line stroke="rgb(0,0,0)" x1="3051.269049999999" x2="3071.269049999999" y1="130.0" y2="130.0" /><line stroke="rgb(0,0,0)" x1="3071.269049999999" x2="3076.269049999999" y1="130.0" y2="130.0" /><rect fill="rgb(150,150,150)" height="0.4" stroke="rgb(0,0,0)" width="15.0" x="5.0" y="54.8" /><text fill="black" x="5.0" y="75.2">H0</text><rect fill="rgb(150,150,150)" height="0.0" stroke="rgb(0,0,0)" width="0.0" x="5.0" y="205.0" /><text fill="black" x="5.0" y="225.0">X1</text><rect fill="rgb(150,255,150)" height="35.6" stroke="rgb(0,0,0)" width="5.95505" x="50.0" y="112.2" /><text fill="black" x="50.0" y="167.8">E2</text><rect fill="rgb(150,150,150)" height="2.0" stroke="rgb(0,0,0)" width="16.0" x="85.95505" y="54.0" /><text fill="black" x="85.95505" y="76.0">H3</text><rect fill="rgb(150,150,150)" height="0.0" stroke="rgb(0,0,0)" width="0.0" x="85.95505" y="205.0" /><text fill="black" x="85.95505" y="225.0">X4</text><rect fill="rgb(150,150,150)" height="0.0" stroke="rgb(0,0,0)" width="0.0" x="131.95504999999997" y="130.0" /><text fill="black" x="131.95504999999997" y="150.0">X5</text><rect fill="rgb(150,150,150)" height="0.0" stroke="rgb(0,0,0)" width="0.0" x="161.95505" y="130.0" /><text fill="black" x="161.95505" y="150.0">X6</text><rect fill="rgb(150,150,150)" height="0.0" stroke="rgb(0,0,0)" width="0.0" x="191.95504999999997" y="130.0" /><text fill="black" x="191.95504999999997" y="150.0">X7</text><rect fill="rgb(150,150,150)" height="0.4" stroke="rgb(0,0,0)" width="15.0" x="221.95504999999997" y="129.8" /><text fill="black" x="221.95504999999997" y="150.2">H8</text><rect fill="rgb(150,150,150)" height="0.0" stroke="rgb(0,0,0)" width="0.0" x="266.95504999999997" y="130.0" /><text fill="black" x="266.95504999999997" y="150.0">X9</text><rect fill="rgb(150,150,150)" height="0.0" stroke="rgb(0,0,0)" width="0.0" x="296.95504999999997" y="130.0" /><text fill="black" x="296.95504999999997" y="150.0">X10</text><rect fill="rgb(150,150,255)" height="90.0" stroke="rgb(0,0,0)" width="24.35555" x="326.95504999999997" y="85.0" /><text fill="black" x="326.95504999999997" y="195.0">E11</text><rect fill="rgb(150,150,255)" height="0.4" stroke="rgb(0,0,0)" width="10.0" x="381.31059999999997" y="129.8" /><text fill="black" x="381.31059999999997" y="150.2">E12</text><rect fill="rgb(150,150,150)" height="2.0" stroke="rgb(0,0,0)" width="20.0" x="421.31059999999997" y="129.0" /><text fill="black" x="421.31059999999997" y="151.0">H13</text><rect fill="rgb(255,150,150)" height="43.6" stroke="rgb(0,0,0)" width="17.7523" x="471.31059999999997" y="108.2" /><text fill="black" x="471.31059999999997" y="171.8">E14</text><rect fill="rgb(150,255,255)" height="1.2" stroke="rgb(0,0,0)" width="11.66665" x="519.0629" y="129.4" /><text fill="black" x="519.0629" y="150.6">E15</text><rect fill="rgb(150,150,150)" height="16.8" stroke="rgb(0,0,0)" width="25.476200000000002" x="560.72955" y="121.6" /><text fill="black" x="560.72955" y="158.4">H16</text><rect fill="rgb(150,150,150)" height="2.4" stroke="rgb(0,0,0)" width="15.0" x="616.2057500000001" y="53.8" /><text fill="black" x="616.2057500000001" y="76.2">H17</text><rect fill="rgb(150,255,255)" height="1.2" stroke="rgb(0,0,0)" width="11.66665" x="616.2057500000001" y="204.4" /><text fill="black" x="616.2057500000001" y="225.6">E18</text><rect fill="rgb(150,150,255)" height="100.0" stroke="rgb(0,0,0)" width="40.519999999999996" x="661.2057500000001" y="80.0" /><text fill="black" x="661.2057500000001" y="200.0">E19</text><rect fill="rgb(150,255,150)" height="0.4" stroke="rgb(0,0,0)" width="5.0" x="731.72575" y="129.8" /><text fill="black" x="731.72575" y="150.2">E20</text><rect fill="rgb(150,255,150)" height="38.800000000000004" stroke="rgb(0,0,0)" width="5.82475" x="766.72575" y="110.6" /><text fill="black" x="766.72575" y="169.4">E21</text><rect fill="rgb(150,150,150)" height="4.3999999999999995" stroke="rgb(0,0,0)" width="19.090899999999998" x="802.5504999999999" y="127.8" /><text fill="black" x="802.5504999999999" y="152.2">H22</text><rect fill="rgb(150,255,150)" height="0.8" stroke="rgb(0,0,0)" width="5.0" x="851.6414" y="129.6" /><text fill="black" x="851.6414" y="150.4">E23</text><rect fill="rgb(150,150,150)" height="19.2" stroke="rgb(0,0,0)" width="16.97915" x="886.6414" y="120.4" /><text fill="black" x="886.6414" y="159.6">H24</text><rect fill="rgb(150,255,150)" height="2.8000000000000003" stroke="rgb(0,0,0)" width="6.4285499999999995" x="933.62055" y="128.6" /><text fill="black" x="933.62055" y="151.4">E25</text><rect fill="rgb(255,150,150)" height="99.6" stroke="rgb(0,0,0)" width="30.180699999999998" x="970.0491" y="80.2" /><text fill="black" x="970.0491" y="199.8">E26</text><rect fill="rgb(255,150,255)" height="2.0" stroke="rgb(0,0,0)" width="8.0" x="1030.2297999999998" y="129.0" /><text fill="black" x="1030.2297999999998" y="151.0">E27</text><rect fill="rgb(150,150,150)" height="2.8000000000000003" stroke="rgb(0,0,0)" width="15.0" x="1068.2297999999998" y="128.6" /><text fill="black" x="1068.2297999999998" y="151.4">H28</text><rect fill="rgb(255,150,255)" height="0.8" stroke="rgb(0,0,0)" width="5.0" x="1113.2297999999998" y="129.6" /><text fill="black" x="1113.2297999999998" y="150.4">E29</text><rect fill="rgb(150,150,150)" height="6.4" stroke="rgb(0,0,0)" width="15.3125" x="1148.2297999999998" y="126.8" /><text fill="black" x="1148.2297999999998" y="153.2">H30</text><rect fill="rgb(150,150,150)" height="1.6" stroke="rgb(0,0,0)" width="16.25" x="1193.5422999999998" y="54.2" /><text fill="black" x="1193.5422999999998" y="75.8">H31</text><rect fill="rgb(255,150,255)" height="1.2" stroke="rgb(0,0,0)" width="6.66665" x="1193.5422999999998" y="204.4" /><text fill="black" x="1193.5422999999998" y="225.6">E32</text><rect fill="rgb(255,150,150)" height="91.60000000000001" stroke="rgb(0,0,0)" width="20.04365" x="1239.7922999999998" y="84.19999999999999" /><text fill="black" x="1239.7922999999998" y="195.8">E33</text><rect fill="rgb(150,150,150)" height="7.6" stroke="rgb(0,0,0)" width="16.57895" x="1289.8359499999997" y="126.2" /><text fill="black" x="1289.8359499999997" y="153.8">H34</text><rect fill="rgb(255,150,150)" height="32.800000000000004" stroke="rgb(0,0,0)" width="12.073149999999998" x="1336.4148999999998" y="113.6" /><text fill="black" x="1336.4148999999998" y="166.4">E35</text><rect fill="rgb(255,150,150)" height="2.4" stroke="rgb(0,0,0)" width="5.0" x="1378.4880499999997" y="128.8" /><text fill="black" x="1378.4880499999997" y="151.2">E36</text><rect fill="rgb(150,150,150)" height="16.400000000000002" stroke="rgb(0,0,0)" width="15.2439" x="1413.4880499999997" y="121.8" /><text fill="black" x="1413.4880499999997" y="158.2">H37</text><rect fill="rgb(150,150,255)" height="3.2" stroke="rgb(0,0,0)" width="5.0" x="1458.7319499999999" y="128.4" /><text fill="black" x="1458.7319499999999" y="151.6">E38</text><rect fill="rgb(150,150,150)" height="36.0" stroke="rgb(0,0,0)" width="16.1111" x="1493.7319499999999" y="112.0" /><text fill="black" x="1493.7319499999999" y="168.0">H39</text><rect fill="rgb(255,150,150)" height="0.8" stroke="rgb(0,0,0)" width="12.5" x="1539.8430499999997" y="129.6" /><text fill="black" x="1539.8430499999997" y="150.4">E40</text><rect fill="rgb(150,150,255)" height="82.0" stroke="rgb(0,0,0)" width="21.41465" x="1582.3430499999997" y="89.0" /><text fill="black" x="1582.3430499999997" y="191.0">E41</text><rect fill="rgb(150,150,255)" height="34.4" stroke="rgb(0,0,0)" width="11.39535" x="1633.7576999999999" y="112.8" /><text fill="black" x="1633.7576999999999" y="167.2">E42</text><rect fill="rgb(150,150,150)" height="25.2" stroke="rgb(0,0,0)" width="15.31745" x="1675.15305" y="117.4" /><text fill="black" x="1675.15305" y="162.6">H43</text><rect fill="rgb(150,150,255)" height="0.4" stroke="rgb(0,0,0)" width="5.0" x="1720.4705" y="129.8" /><text fill="black" x="1720.4705" y="150.2">E44</text><rect fill="rgb(150,150,150)" height="0.0" stroke="rgb(0,0,0)" width="0.0" x="1755.4705" y="130.0" /><text fill="black" x="1755.4705" y="150.0">X45</text><rect fill="rgb(150,150,255)" height="99.6" stroke="rgb(0,0,0)" width="36.1245" x="1785.4705" y="80.2" /><text fill="black" x="1785.4705" y="199.8">E46</text><rect fill="rgb(150,150,150)" height="0.0" stroke="rgb(0,0,0)" width="0.0" x="1851.5949999999998" y="130.0" /><text fill="black" x="1851.5949999999998" y="150.0">X47</text><rect fill="rgb(150,150,150)" height="27.200000000000003" stroke="rgb(0,0,0)" width="23.161749999999998" x="1881.5949999999998" y="116.4" /><text fill="black" x="1881.5949999999998" y="163.6">H48</text><rect fill="rgb(255,255,150)" height="0.8" stroke="rgb(0,0,0)" width="5.0" x="1934.7567499999996" y="129.6" /><text fill="black" x="1934.7567499999996" y="150.4">E49</text><rect fill="rgb(70,70,175)" height="0.4" stroke="rgb(0,0,0)" width="5.0" x="1969.7567499999996" y="129.8" /><text fill="black" x="1969.7567499999996" y="150.2">E50</text><rect fill="rgb(150,150,150)" height="0.4" stroke="rgb(0,0,0)" width="15.0" x="2004.7567499999996" y="129.8" /><text fill="black" x="2004.7567499999996" y="150.2">H51</text><rect fill="rgb(70,70,175)" height="0.4" stroke="rgb(0,0,0)" width="5.0" x="2049.7567499999996" y="129.8" /><text fill="black" x="2049.7567499999996" y="150.2">E52</text><rect fill="rgb(150,150,150)" height="52.400000000000006" stroke="rgb(0,0,0)" width="16.5649" x="2084.7567499999996" y="103.8" /><text fill="black" x="2084.7567499999996" y="176.2">H53</text><rect fill="rgb(150,150,150)" height="0.4" stroke="rgb(0,0,0)" width="40.0" x="2131.3216499999994" y="129.8" /><text fill="black" x="2131.3216499999994" y="150.2">H54</text><rect fill="rgb(255,255,150)" height="0.4" stroke="rgb(0,0,0)" width="5.0" x="2201.3216499999994" y="129.8" /><text fill="black" x="2201.3216499999994" y="150.2">E55</text><rect fill="rgb(150,150,150)" height="1.2" stroke="rgb(0,0,0)" width="33.333349999999996" x="2236.3216499999994" y="129.4" /><text fill="black" x="2236.3216499999994" y="150.6">H56</text><rect fill="rgb(255,255,150)" height="1.2" stroke="rgb(0,0,0)" width="5.0" x="2299.6549999999997" y="129.4" /><text fill="black" x="2299.6549999999997" y="150.6">E57</text><rect fill="rgb(255,150,150)" height="1.2" stroke="rgb(0,0,0)" width="15.0" x="2334.6549999999997" y="129.4" /><text fill="black" x="2334.6549999999997" y="150.6">E58</text><rect fill="rgb(255,150,150)" height="99.2" stroke="rgb(0,0,0)" width="36.955650000000006" x="2379.6549999999997" y="80.4" /><text fill="black" x="2379.6549999999997" y="199.6">E59</text><rect fill="rgb(255,150,150)" height="0.4" stroke="rgb(0,0,0)" width="15.0" x="2446.6106499999996" y="129.8" /><text fill="black" x="2446.6106499999996" y="150.2">E60</text><rect fill="rgb(255,150,150)" height="0.8" stroke="rgb(0,0,0)" width="15.0" x="2491.6106499999996" y="129.6" /><text fill="black" x="2491.6106499999996" y="150.4">E61</text><rect fill="rgb(150,150,150)" height="4.3999999999999995" stroke="rgb(0,0,0)" width="20.45455" x="2536.6106499999996" y="127.8" /><text fill="black" x="2536.6106499999996" y="152.2">H62</text><rect fill="rgb(150,150,150)" height="34.4" stroke="rgb(0,0,0)" width="15.2907" x="2587.0651999999995" y="112.8" /><text fill="black" x="2587.0651999999995" y="167.2">H63</text><rect fill="rgb(255,150,150)" height="46.0" stroke="rgb(0,0,0)" width="13.13045" x="2632.3558999999996" y="107.0" /><text fill="black" x="2632.3558999999996" y="173.0">E64</text><rect fill="rgb(150,150,150)" height="0.0" stroke="rgb(0,0,0)" width="0.0" x="2675.486349999999" y="130.0" /><text fill="black" x="2675.486349999999" y="150.0">X65</text><rect fill="rgb(150,150,150)" height="0.4" stroke="rgb(0,0,0)" width="15.0" x="2705.486349999999" y="129.8" /><text fill="black" x="2705.486349999999" y="150.2">H66</text><rect fill="rgb(255,150,150)" height="0.8" stroke="rgb(0,0,0)" width="7.5" x="2750.486349999999" y="129.6" /><text fill="black" x="2750.486349999999" y="150.4">E67</text><rect fill="rgb(255,150,150)" height="0.8" stroke="rgb(0,0,0)" width="10.0" x="2787.986349999999" y="129.6" /><text fill="black" x="2787.986349999999" y="150.4">E68</text><rect fill="rgb(255,150,150)" height="94.8" stroke="rgb(0,0,0)" width="27.616049999999998" x="2827.986349999999" y="82.6" /><text fill="black" x="2827.986349999999" y="197.4">E69</text><rect fill="rgb(255,150,150)" height="6.0" stroke="rgb(0,0,0)" width="9.0" x="2885.602399999999" y="127.0" /><text fill="black" x="2885.602399999999" y="153.0">E70</text><rect fill="rgb(255,150,150)" height="0.4" stroke="rgb(0,0,0)" width="5.0" x="2924.602399999999" y="129.8" /><text fill="black" x="2924.602399999999" y="150.2">E71</text><rect fill="rgb(150,150,150)" height="3.5999999999999996" stroke="rgb(0,0,0)" width="16.66665" x="2959.602399999999" y="128.2" /><text fill="black" x="2959.602399999999" y="151.8">H72</text><rect fill="rgb(175,70,70)" height="0.8" stroke="rgb(0,0,0)" width="5.0" x="3006.269049999999" y="129.6" /><text fill="black" x="3006.269049999999" y="150.4">E73</text><rect fill="rgb(175,70,70)" height="0.8" stroke="rgb(0,0,0)" width="5.0" x="3041.269049999999" y="129.6" /><text fill="black" x="3041.269049999999" y="150.4">E74</text><rect fill="rgb(150,150,255)" height="2.8000000000000003" stroke="rgb(0,0,0)" width="31.42855" x="3076.269049999999" y="128.6" /><text fill="black" x="3076.269049999999" y="151.4">E75</text><path d="M 769.638125,130.0 a 2195.9708295142013,2195.9708295142013 0 0,0 -716.6605999999999,-0.0" stroke="rgb(150,255,150)" stroke-width="2" /><path d="M 769.638125,130.0 a 2195.9708295142013,2195.9708295142013 0 0,0 -716.6605999999999,-0.0" stroke="rgb(0,0,0)" stroke-width="0.2" /><path d="M 386.31059999999997,130.0 a 73.74579102028758,73.74579102028758 0 0,0 -47.177775,-0.0" stroke="rgb(150,150,255)" stroke-width="2" /><path d="M 386.31059999999997,130.0 a 73.74579102028758,73.74579102028758 0 0,0 -47.177775,-0.0" stroke="rgb(0,0,0)" stroke-width="0.2" /><path d="M 681.4657500000001,130.0 a 760.4559965067282,760.4559965067282 0 0,0 -342.3329250000001,-0.0" stroke="rgb(150,150,255)" stroke-width="2" /><path d="M 681.4657500000001,130.0 a 760.4559965067282,760.4559965067282 0 0,0 -342.3329250000001,-0.0" stroke="rgb(0,0,0)" stroke-width="0.2" /><path d="M 480.18674999999996,130.0 a 12702.933123768493,12702.933123768493 0 0,0 2361.607624999999,-0.0" stroke="rgb(255,150,150)" stroke-width="2" /><path d="M 480.18674999999996,130.0 a 12702.933123768493,12702.933123768493 0 0,0 2361.607624999999,-0.0" stroke="rgb(0,0,0)" stroke-width="0.2" /><path d="M 480.18674999999996,130.0 a 13226.80327298845,13226.80327298845 0 0,0 2409.915649999999,-0.0" stroke="rgb(255,150,150)" stroke-width="2" /><path d="M 480.18674999999996,130.0 a 13226.80327298845,13226.80327298845 0 0,0 2409.915649999999,-0.0" stroke="rgb(0,0,0)" stroke-width="0.2" /><path d="M 622.039075,205.0 a 212.400539719602,212.400539719602 0 0,0 -97.14285000000007,-75.0" stroke="rgb(150,255,255)" stroke-width="2" /><path d="M 622.039075,205.0 a 212.400539719602,212.400539719602 0 0,0 -97.14285000000007,-75.0" stroke="rgb(0,0,0)" stroke-width="0.2" /><path d="M 1803.5327499999999,130.0 a 4466.6992745302505,4466.6992745302505 0 0,0 -1122.0669999999998,-0.0" stroke="rgb(150,150,255)" stroke-width="2" /><path d="M 1803.5327499999999,130.0 a 4466.6992745302505,4466.6992745302505 0 0,0 -1122.0669999999998,-0.0" stroke="rgb(0,0,0)" stroke-width="0.2" /><path d="M 681.4657500000001,130.0 a 13233.397680417898,13233.397680417898 0 0,0 2410.517574999999,-0.0" stroke="rgb(150,150,255)" stroke-width="2" /><path d="M 681.4657500000001,130.0 a 13233.397680417898,13233.397680417898 0 0,0 2410.517574999999,-0.0" stroke="rgb(0,0,0)" stroke-width="0.2" /><path d="M 769.638125,130.0 a 54.43383422279429,54.43383422279429 0 0,0 -35.412375,-0.0" stroke="rgb(150,255,150)" stroke-width="2" /><path d="M 769.638125,130.0 a 54.43383422279429,54.43383422279429 0 0,0 -35.412375,-0.0" stroke="rgb(0,0,0)" stroke-width="0.2" /><path d="M 854.1414,130.0 a 139.07632114435407,139.07632114435407 0 0,0 -84.50327500000003,-0.0" stroke="rgb(150,255,150)" stroke-width="2" /><path d="M 854.1414,130.0 a 139.07632114435407,139.07632114435407 0 0,0 -84.50327500000003,-0.0" stroke="rgb(0,0,0)" stroke-width="0.2" /><path d="M 936.834825,130.0 a 305.91592285539195,305.91592285539195 0 0,0 -167.19670000000008,-0.0" stroke="rgb(150,255,150)" stroke-width="2" /><path d="M 936.834825,130.0 a 305.91592285539195,305.91592285539195 0 0,0 -167.19670000000008,-0.0" stroke="rgb(0,0,0)" stroke-width="0.2" /><path d="M 1249.8141249999999,130.0 a 541.892757925233,541.892757925233 0 0,0 -264.674675,-0.0" stroke="rgb(255,150,150)" stroke-width="2" /><path d="M 1249.8141249999999,130.0 a 541.892757925233,541.892757925233 0 0,0 -264.674675,-0.0" stroke="rgb(0,0,0)" stroke-width="0.2" /><path d="M 2398.1328249999997,130.0 a 6555.895177172901,6555.895177172901 0 0,0 -1412.9933749999998,-0.0" stroke="rgb(255,150,150)" stroke-width="2" /><path d="M 2398.1328249999997,130.0 a 6555.895177172901,6555.895177172901 0 0,0 -1412.9933749999998,-0.0" stroke="rgb(0,0,0)" stroke-width="0.2" /><path d="M 1115.7297999999998,130.0 a 133.5907352264736,133.5907352264736 0 0,0 -81.5,-0.0" stroke="rgb(255,150,255)" stroke-width="2" /><path d="M 1115.7297999999998,130.0 a 133.5907352264736,133.5907352264736 0 0,0 -81.5,-0.0" stroke="rgb(0,0,0)" stroke-width="0.2" /><path d="M 1196.875625,205.0 a 332.45937087436164,332.45937087436164 0 0,0 -162.64582500000006,-75.0" stroke="rgb(255,150,255)" stroke-width="2" /><path d="M 1196.875625,205.0 a 332.45937087436164,332.45937087436164 0 0,0 -162.64582500000006,-75.0" stroke="rgb(0,0,0)" stroke-width="0.2" /><path d="M 1342.4514749999998,130.0 a 154.13502570190985,154.13502570190985 0 0,0 -92.63734999999997,-0.0" stroke="rgb(255,150,150)" stroke-width="2" /><path d="M 1342.4514749999998,130.0 a 154.13502570190985,154.13502570190985 0 0,0 -92.63734999999997,-0.0" stroke="rgb(0,0,0)" stroke-width="0.2" /><path d="M 1380.9880499999997,130.0 a 59.50218715603401,59.50218715603401 0 0,0 -38.53657499999986,-0.0" stroke="rgb(255,150,150)" stroke-width="2" /><path d="M 1380.9880499999997,130.0 a 59.50218715603401,59.50218715603401 0 0,0 -38.53657499999986,-0.0" stroke="rgb(0,0,0)" stroke-width="0.2" /><path d="M 1546.0930499999997,130.0 a 389.1529380042477,389.1529380042477 0 0,0 -203.64157499999988,-0.0" stroke="rgb(255,150,150)" stroke-width="2" /><path d="M 1546.0930499999997,130.0 a 389.1529380042477,389.1529380042477 0 0,0 -203.64157499999988,-0.0" stroke="rgb(0,0,0)" stroke-width="0.2" /><path d="M 1461.2319499999999,130.0 a 66.99112993063774,66.99112993063774 0 0,0 131.81842499999993,-0.0" stroke="rgb(150,150,255)" stroke-width="2" /><path d="M 1461.2319499999999,130.0 a 66.99112993063774,66.99112993063774 0 0,0 131.81842499999993,-0.0" stroke="rgb(0,0,0)" stroke-width="0.2" /><path d="M 1803.5327499999999,130.0 a 405.44039450352625,405.44039450352625 0 0,0 -210.48237500000005,-0.0" stroke="rgb(150,150,255)" stroke-width="2" /><path d="M 1803.5327499999999,130.0 a 405.44039450352625,405.44039450352625 0 0,0 -210.48237500000005,-0.0" stroke="rgb(0,0,0)" stroke-width="0.2" /><path d="M 1722.9705,130.0 a 137.26700234305812,137.26700234305812 0 0,0 -83.51512500000013,-0.0" stroke="rgb(150,150,255)" stroke-width="2" /><path d="M 1722.9705,130.0 a 137.26700234305812,137.26700234305812 0 0,0 -83.51512500000013,-0.0" stroke="rgb(0,0,0)" stroke-width="0.2" /><path d="M 1803.5327499999999,130.0 a 299.06801693603035,299.06801693603035 0 0,0 -164.07737500000007,-0.0" stroke="rgb(150,150,255)" stroke-width="2" /><path d="M 1803.5327499999999,130.0 a 299.06801693603035,299.06801693603035 0 0,0 -164.07737500000007,-0.0" stroke="rgb(0,0,0)" stroke-width="0.2" /><path d="M 2302.1549999999997,130.0 a 829.058532592423,829.058532592423 0 0,0 -364.8982500000002,-0.0" stroke="rgb(255,255,150)" stroke-width="2" /><path d="M 2302.1549999999997,130.0 a 829.058532592423,829.058532592423 0 0,0 -364.8982500000002,-0.0" stroke="rgb(0,0,0)" stroke-width="0.2" /><path d="M 2052.2567499999996,130.0 a 130.86595461350643,130.86595461350643 0 0,0 -80.0,-0.0" stroke="rgb(70,70,175)" stroke-width="2" /><path d="M 2052.2567499999996,130.0 a 130.86595461350643,130.86595461350643 0 0,0 -80.0,-0.0" stroke="rgb(0,0,0)" stroke-width="0.2" /><path d="M 2302.1549999999997,130.0 a 164.85543140703072,164.85543140703072 0 0,0 -98.33335000000034,-0.0" stroke="rgb(255,255,150)" stroke-width="2" /><path d="M 2302.1549999999997,130.0 a 164.85543140703072,164.85543140703072 0 0,0 -98.33335000000034,-0.0" stroke="rgb(0,0,0)" stroke-width="0.2" /><path d="M 2841.794374999999,130.0 a 1286.5276602754525,1286.5276602754525 0 0,0 -499.6393749999993,-0.0" stroke="rgb(255,150,150)" stroke-width="2" /><path d="M 2841.794374999999,130.0 a 1286.5276602754525,1286.5276602754525 0 0,0 -499.6393749999993,-0.0" stroke="rgb(0,0,0)" stroke-width="0.2" /><path d="M 2638.9211249999994,130.0 a 480.12276047816135,480.12276047816135 0 0,0 -240.7882999999997,-0.0" stroke="rgb(255,150,150)" stroke-width="2" /><path d="M 2638.9211249999994,130.0 a 480.12276047816135,480.12276047816135 0 0,0 -240.7882999999997,-0.0" stroke="rgb(0,0,0)" stroke-width="0.2" /><path d="M 2792.986349999999,130.0 a 923.6756345195732,923.6756345195732 0 0,0 -394.85352499999954,-0.0" stroke="rgb(255,150,150)" stroke-width="2" /><path d="M 2792.986349999999,130.0 a 923.6756345195732,923.6756345195732 0 0,0 -394.85352499999954,-0.0" stroke="rgb(0,0,0)" stroke-width="0.2" /><path d="M 2841.794374999999,130.0 a 1086.5168245232203,1086.5168245232203 0 0,0 -443.66154999999935,-0.0" stroke="rgb(255,150,150)" stroke-width="2" /><path d="M 2841.794374999999,130.0 a 1086.5168245232203,1086.5168245232203 0 0,0 -443.66154999999935,-0.0" stroke="rgb(0,0,0)" stroke-width="0.2" /><path d="M 2499.1106499999996,130.0 a 70.12491009957652,70.12491009957652 0 0,0 -45.0,-0.0" stroke="rgb(255,150,150)" stroke-width="2" /><path d="M 2499.1106499999996,130.0 a 70.12491009957652,70.12491009957652 0 0,0 -45.0,-0.0" stroke="rgb(0,0,0)" stroke-width="0.2" /><path d="M 2638.9211249999994,130.0 a 247.2808710676937,247.2808710676937 0 0,0 -139.81047499999977,-0.0" stroke="rgb(255,150,150)" stroke-width="2" /><path d="M 2638.9211249999994,130.0 a 247.2808710676937,247.2808710676937 0 0,0 -139.81047499999977,-0.0" stroke="rgb(0,0,0)" stroke-width="0.2" /><path d="M 2792.986349999999,130.0 a 59.85000056437914,59.85000056437914 0 0,0 -38.75,-0.0" stroke="rgb(255,150,150)" stroke-width="2" /><path d="M 2792.986349999999,130.0 a 59.85000056437914,59.85000056437914 0 0,0 -38.75,-0.0" stroke="rgb(0,0,0)" stroke-width="0.2" /><path d="M 2927.102399999999,130.0 a 57.00402085198818,57.00402085198818 0 0,0 -37.0,-0.0" stroke="rgb(255,150,150)" stroke-width="2" /><path d="M 2927.102399999999,130.0 a 57.00402085198818,57.00402085198818 0 0,0 -37.0,-0.0" stroke="rgb(0,0,0)" stroke-width="0.2" /><path d="M 3043.769049999999,130.0 a 53.76807034373476,53.76807034373476 0 0,0 -35.0,-0.0" stroke="rgb(175,70,70)" stroke-width="2" /><path d="M 3043.769049999999,130.0 a 53.76807034373476,53.76807034373476 0 0,0 -35.0,-0.0" stroke="rgb(0,0,0)" stroke-width="0.2" /></svg>