<?xml version="1.0" encoding="utf-8" ?>
<svg baseProfile="full" height="100%" style="font-size:14;font-family:Sans, Arial;stroke-width:1;fill:none" version="1.1" width="100%" xmlns="http://www.w3.org/2000/svg" xmlns:ev="http://www.w3.org/2001/xml-events" xmlns:xlink="http://www.w3.org/1999/xlink"><defs /><rect fill="none" height="280.0" stroke="none" width="3760.0" x="0" y="0" /><line stroke="rgb(0,0,0)" x1="5.0" x2="25.0" y1="55.0" y2="55.0" /><line stroke="rgb(0,0,0)" x1="25.0" x2="45.0" y1="55.0" y2="130.0" /><line stroke="rgb(0,0,0)" x1="45.0" x2="50.0" y1="130.0" y2="130.0" /><line stroke="rgb(0,0,0)" x1="5.0" x2="10.0" y1="205.0" y2="205.0" /><line stroke="rgb(0,0,0)" x1="10.0" x2="45.0" y1="205.0" y2="130.0" /><line stroke="rgb(0,0,0)" x1="45.0" x2="50.0" y1="130.0" y2="130.0" /><line stroke="rgb(0,0,0)" x1="50.0" x2="90.0" y1="130.0" y2="130.0" /><line stroke="rgb(0,0,0)" x1="90.0" x2="110.0" y1="130.0" y2="55.0" /><line stroke="rgb(0,0,0)" x1="110.0" x2="115.0" y1="55.0" y2="55.0" /><line stroke="rgb(0,0,0)" x1="50.0" x2="90.0" y1="130.0" y2="130.0" /><line stroke="rgb(0,0,0)" x1="90.0" x2="110.0" y1="130.0" y2="205.0" /><line stroke="rgb(0,0,0)" x1="110.0" x2="115.0" y1="205.0" y2="205.0" /><line stroke="rgb(0,0,0)" x1="115.0" x2="140.0" y1="55.0" y2="55.0" /><line stroke="rgb(0,0,0)" x1="140.0" x2="160.0" y1="55.0" y2="130.0" /><line stroke="rgb(0,0,0)" x1="160.0" x2="165.0" y1="130.0" y2="130.0" /><line stroke="rgb(0,0,0)" x1="115.0" x2="120.0" y1="205.0" y2="205.0" /><line stroke="rgb(0,0,0)" x1="120.0" x2="160.0" y1="205.0" y2="130.0" /><line stroke="rgb(0,0,0)" x1="160.0" x2="165.0" y1="130.0" y2="130.0" /><line stroke="rgb(0,0,0)" x1="165.0" x2="170.0" y1="130.0" y2="130.0" /><line stroke="rgb(0,0,0)" x1="170.0" x2="190.0" y1="130.0" y2="130.0" /><line stroke="rgb(0,0,0)" x1="190.0" x2="195.0" y1="130.0" y2="130.0" /><line stroke="rgb(0,0,0)" x1="195.0" x2="200.0" y1="130.0" y2="130.0" /><line stroke="rgb(0,0,0)" x1="200.0" x2="220.0" y1="130.0" y2="130.0" /><line stroke="rgb(0,0,0)" x1="220.0" x2="225.0" y1="130.0" y2="130.0" /><line stroke="rgb(0,0,0)" x1="225.0" x2="230.0" y1="130.0" y2="130.0" /><line stroke="rgb(0,0,0)" x1="230.0" x2="250.0" y1="130.0" y2="130.0" /><line stroke="rgb(0,0,0)" x1="250.0" x2="255.0" y1="130.0" y2="130.0" /><line stroke="rgb(0,0,0)" x1="255.0" x2="275.0" y1="130.0" y2="130.0" /><line stroke="rgb(0,0,0)" x1="275.0" x2="295.0" y1="130.0" y2="130.0" /><line stroke="rgb(0,0,0)" x1="295.0" x2="300.0" y1="130.0" y2="130.0" /><line stroke="rgb(0,0,0)" x1="300.0" x2="305.0" y1="130.0" y2="130.0" /><line stroke="rgb(0,0,0)" x1="305.0" x2="325.0" y1="130.0" y2="130.0" /><line stroke="rgb(0,0,0)" x1="325.0" x2="330.0" y1="130.0" y2="130.0" /><line stroke="rgb(0,0,0)" x1="330.0" x2="335.0" y1="130.0" y2="130.0" /><line stroke="rgb(0,0,0)" x1="335.0" x2="355.0" y1="130.0" y2="130.0" /><line stroke="rgb(0,0,0)" x1="355.0" x2="360.0" y1="130.0" y2="130.0" /><line stroke="rgb(0,0,0)" x1="360.0" x2="425.0" y1="130.0" y2="130.0" /><line stroke="rgb(0,0,0)" x1="425.0" x2="445.0" y1="130.0" y2="130.0" /><line stroke="rgb(0,0,0)" x1="445.0" x2="450.0" y1="130.0" y2="130.0" /><line stroke="rgb(0,0,0)" x1="450.0" x2="465.0" y1="130.0" y2="130.0" /><line stroke="rgb(0,0,0)" x1="465.0" x2="485.0" y1="130.0" y2="130.0" /><line stroke="rgb(0,0,0)" x1="485.0" x2="490.0" y1="130.0" y2="130.0" /><line stroke="rgb(0,0,0)" x1="490.0" x2="525.0" y1="130.0" y2="130.0" /><line stroke="rgb(0,0,0)" x1="525.0" x2="545.0" y1="130.0" y2="130.0" /><line stroke="rgb(0,0,0)" x1="545.0" x2="550.0" y1="130.0" y2="130.0" /><line stroke="rgb(0,0,0)" x1="550.0" x2="595.0" y1="130.0" y2="130.0" /><line stroke="rgb(0,0,0)" x1="595.0" x2="615.0" y1="130.0" y2="130.0" /><line stroke="rgb(0,0,0)" x1="615.0" x2="620.0" y1="130.0" y2="130.0" /><line stroke="rgb(0,0,0)" x1="620.0" x2="640.0" y1="130.0" y2="130.0" /><line stroke="rgb(0,0,0)" x1="640.0" x2="660.0" y1="130.0" y2="130.0" /><line stroke="rgb(0,0,0)" x1="660.0" x2="665.0" y1="130.0" y2="130.0" /><line stroke="rgb(0,0,0)" x1="665.0" x2="705.0" y1="130.0" y2="130.0" /><line stroke="rgb(0,0,0)" x1="705.0" x2="725.0" y1="130.0" y2="55.0" /><line stroke="rgb(0,0,0)" x1="725.0" x2="730.0" y1="55.0" y2="55.0" /><line stroke="rgb(0,0,0)" x1="665.0" x2="705.0" y1="130.0" y2="130.0" /><line stroke="rgb(0,0,0)" x1="705.0" x2="725.0" y1="130.0" y2="205.0" /><line stroke="rgb(0,0,0)" x1="725.0" x2="730.0" y1="205.0" y2="205.0" /><line stroke="rgb(0,0,0)" x1="730.0" x2="750.0" y1="55.0" y2="55.0" /><line stroke="rgb(0,0,0)" x1="750.0" x2="770.0" y1="55.0" y2="130.0" /><line stroke="rgb(0,0,0)" x1="770.0" x2="775.0" y1="130.0" y2="130.0" /><line stroke="rgb(0,0,0)" x1="730.0" x2="750.0" y1="205.0" y2="205.0" /><line stroke="rgb(0,0,0)" x1="750.0" x2="770.0" y1="205.0" y2="130.0" /><line stroke="rgb(0,0,0)" x1="770.0" x2="775.0" y1="130.0" y2="130.0" /><line stroke="rgb(0,0,0)" x1="775.0" x2="840.0" y1="130.0" y2="130.0" /><line stroke="rgb(0,0,0)" x1="840.0" x2="860.0" y1="130.0" y2="130.0" /><line stroke="rgb(0,0,0)" x1="860.0" x2="865.0" y1="130.0" y2="130.0" /><line stroke="rgb(0,0,0)" x1="865.0" x2="875.0" y1="130.0" y2="130.0" /><line stroke="rgb(0,0,0)" x1="875.0" x2="895.0" y1="130.0" y2="130.0" /><line stroke="rgb(0,0,0)" x1="895.0" x2="900.0" y1="130.0" y2="130.0" /><line stroke="rgb(0,0,0)" x1="900.0" x2="930.0" y1="130.0" y2="130.0" /><line stroke="rgb(0,0,0)" x1="930.0" x2="950.0" y1="130.0" y2="130.0" /><line stroke="rgb(0,0,0)" x1="950.0" x2="955.0" y1="130.0" y2="130.0" /><line stroke="rgb(0,0,0)" x1="955.0" x2="985.0" y1="130.0" y2="130.0" /><line stroke="rgb(0,0,0)" x1="985.0" x2="1005.0" y1="130.0" y2="130.0" /><line stroke="rgb(0,0,0)" x1="1005.0" x2="1010.0" y1="130.0" y2="130.0" /><line stroke="rgb(0,0,0)" x1="1010.0" x2="1020.0" y1="130.0" y2="130.0" /><line stroke="rgb(0,0,0)" x1="1020.0" x2="1040.0" y1="130.0" y2="130.0" /><line stroke="rgb(0,0,0)" x1="1040.0" x2="1045.0" y1="130.0" y2="130.0" /><line stroke="rgb(0,0,0)" x1="1045.0" x2="1080.0" y1="130.0" y2="130.0" /><line stroke="rgb(0,0,0)" x1="1080.0" x2="1100.0" y1="130.0" y2="130.0" /><line stroke="rgb(0,0,0)" x1="1100.0" x2="1105.0" y1="130.0" y2="130.0" /><line stroke="rgb(0,0,0)" x1="1105.0" x2="1120.0" y1="130.0" y2="130.0" /><line stroke="rgb(0,0,0)" x1="1120.0" x2="1140.0" y1="130.0" y2="130.0" /><line stroke="rgb(0,0,0)" x1="1140.0" x2="1145.0" y1="130.0" y2="130.0" /><line stroke="rgb(0,0,0)" x1="1145.0" x2="1210.0" y1="130.0" y2="130.0" /><line stroke="rgb(0,0,0)" x1="1210.0" x2="1230.0" y1="130.0" y2="130.0" /><line stroke="rgb(0,0,0)" x1="1230.0" x2="1235.0" y1="130.0" y2="130.0" /><line stroke="rgb(0,0,0)" x1="1235.0" x2="1260.0" y1="130.0" y2="130.0" /><line stroke="rgb(0,0,0)" x1="1260.0" x2="1280.0" y1="130.0" y2="130.0" /><line stroke="rgb(0,0,0)" x1="1280.0" x2="1285.0" y1="130.0" y2="130.0" /><line stroke="rgb(0,0,0)" x1="1285.0" x2="1305.0" y1="130.0" y2="130.0" /><line stroke="rgb(0,0,0)" x1="1305.0" x2="1325.0" y1="130.0" y2="130.0" /><line stroke="rgb(0,0,0)" x1="1325.0" x2="1330.0" y1="130.0" y2="130.0" /><line stroke="rgb(0,0,0)" x1="1330.0" x2="1340.0" y1="130.0" y2="130.0" /><line stroke="rgb(0,0,0)" x1="1340.0" x2="1360.0" y1="130.0" y2="130.0" /><line stroke="rgb(0,0,0)" x1="1360.0" x2="1365.0" y1="130.0" y2="130.0" /><line stroke="rgb(0,0,0)" x1="1365.0" x2="1390.0" y1="130.0" y2="130.0" /><line stroke="rgb(0,0,0)" x1="1390.0" x2="1410.0" y1="130.0" y2="55.0" /><line stroke="rgb(0,0,0)" x1="1410.0" x2="1415.0" y1="55.0" y2="55.0" /><line stroke="rgb(0,0,0)" x1="1365.0" x2="1390.0" y1="130.0" y2="130.0" /><line stroke="rgb(0,0,0)" x1="1390.0" x2="1410.0" y1="130.0" y2="205.0" /><line stroke="rgb(0,0,0)" x1="1410.0" x2="1415.0" y1="205.0" y2="205.0" /><line stroke="rgb(0,0,0)" x1="1415.0" x2="1440.0" y1="55.0" y2="55.0" /><line stroke="rgb(0,0,0)" x1="1440.0" x2="1460.0" y1="55.0" y2="130.0" /><line stroke="rgb(0,0,0)" x1="1460.0" x2="1465.0" y1="130.0" y2="130.0" /><line stroke="rgb(0,0,0)" x1="1415.0" x2="1430.0" y1="205.0" y2="205.0" /><line stroke="rgb(0,0,0)" x1="1430.0" x2="1460.0" y1="205.0" y2="130.0" /><line stroke="rgb(0,0,0)" x1="1460.0" x2="1465.0" y1="130.0" y2="130.0" /><line stroke="rgb(0,0,0)" x1="1465.0" x2="1530.0" y1="130.0" y2="130.0" /><line stroke="rgb(0,0,0)" x1="1530.0" x2="1550.0" y1="130.0" y2="130.0" /><line stroke="rgb(0,0,0)" x1="1550.0" x2="1555.0" y1="130.0" y2="130.0" /><line stroke="rgb(0,0,0)" x1="1555.0" x2="1605.0" y1="130.0" y2="130.0" /><line stroke="rgb(0,0,0)" x1="1605.0" x2="1625.0" y1="130.0" y2="130.0" /><line stroke="rgb(0,0,0)" x1="1625.0" x2="1630.0" y1="130.0" y2="130.0" /><line stroke="rgb(0,0,0)" x1="1630.0" x2="1655.0" y1="130.0" y2="130.0" /><line stroke="rgb(0,0,0)" x1="1655.0" x2="1675.0" y1="130.0" y2="130.0" /><line stroke="rgb(0,0,0)" x1="1675.0" x2="1680.0" y1="130.0" y2="130.0" /><line stroke="rgb(0,0,0)" x1="1680.0" x2="1690.0" y1="130.0" y2="130.0" /><line stroke="rgb(0,0,0)" x1="1690.0" x2="1710.0" y1="130.0" y2="130.0" /><line stroke="rgb(0,0,0)" x1="1710.0" x2="1715.0" y1="130.0" y2="130.0" /><line stroke="rgb(0,0,0)" x1="1715.0" x2="1740.0" y1="130.0" y2="130.0" /><line stroke="rgb(0,0,0)" x1="1740.0" x2="1760.0" y1="130.0" y2="130.0" /><line stroke="rgb(0,0,0)" x1="1760.0" x2="1765.0" y1="130.0" y2="130.0" /><line stroke="rgb(0,0,0)" x1="1765.0" x2="1775.0" y1="130.0" y2="130.0" /><line stroke="rgb(0,0,0)" x1="1775.0" x2="1795.0" y1="130.0" y2="130.0" /><line stroke="rgb(0,0,0)" x1="1795.0" x2="1800.0" y1="130.0" y2="130.0" /><line stroke="rgb(0,0,0)" x1="1800.0" x2="1835.0" y1="130.0" y2="130.0" /><line stroke="rgb(0,0,0)" x1="1835.0" x2="1855.0" y1="130.0" y2="130.0" /><line stroke="rgb(0,0,0)" x1="1855.0" x2="1860.0" y1="130.0" y2="130.0" /><line stroke="rgb(0,0,0)" x1="1860.0" x2="1885.0" y1="130.0" y2="130.0" /><line stroke="rgb(0,0,0)" x1="1885.0" x2="1905.0" y1="130.0" y2="130.0" /><line stroke="rgb(0,0,0)" x1="1905.0" x2="1910.0" y1="130.0" y2="130.0" /><line stroke="rgb(0,0,0)" x1="1910.0" x2="1960.0" y1="130.0" y2="130.0" /><line stroke="rgb(0,0,0)" x1="1960.0" x2="1980.0" y1="130.0" y2="130.0" /><line stroke="rgb(0,0,0)" x1="1980.0" x2="1985.0" y1="130.0" y2="130.0" /><line stroke="rgb(0,0,0)" x1="1985.0" x2="2020.0" y1="130.0" y2="130.0" /><line stroke="rgb(0,0,0)" x1="2020.0" x2="2040.0" y1="130.0" y2="130.0" /><line stroke="rgb(0,0,0)" x1="2040.0" x2="2045.0" y1="130.0" y2="130.0" /><line stroke="rgb(0,0,0)" x1="2045.0" x2="2080.0" y1="130.0" y2="130.0" /><line stroke="rgb(0,0,0)" x1="2080.0" x2="2100.0" y1="130.0" y2="130.0" /><line stroke="rgb(0,0,0)" x1="2100.0" x2="2105.0" y1="130.0" y2="130.0" /><line stroke="rgb(0,0,0)" x1="2105.0" x2="2115.0" y1="130.0" y2="130.0" /><line stroke="rgb(0,0,0)" x1="2115.0" x2="2135.0" y1="130.0" y2="130.0" /><line stroke="rgb(0,0,0)" x1="2135.0" x2="2140.0" y1="130.0" y2="130.0" /><line stroke="rgb(0,0,0)" x1="2140.0" x2="2145.0" y1="130.0" y2="130.0" /><line stroke="rgb(0,0,0)" x1="2145.0" x2="2165.0" y1="130.0" y2="130.0" /><line stroke="rgb(0,0,0)" x1="2165.0" x2="2170.0" y1="130.0" y2="130.0" /><line stroke="rgb(0,0,0)" x1="2170.0" x2="2230.0" y1="130.0" y2="130.0" /><line stroke="rgb(0,0,0)" x1="2230.0" x2="2250.0" y1="130.0" y2="130.0" /><line stroke="rgb(0,0,0)" x1="2250.0" x2="2255.0" y1="130.0" y2="130.0" /><line stroke="rgb(0,0,0)" x1="2255.0" x2="2260.0" y1="130.0" y2="130.0" /><line stroke="rgb(0,0,0)" x1="2260.0" x2="2280.0" y1="130.0" y2="130.0" /><line stroke="rgb(0,0,0)" x1="2280.0" x2="2285.0" y1="130.0" y2="130.0" /><line stroke="rgb(0,0,0)" x1="2285.0" x2="2325.0" y1="130.0" y2="130.0" /><line stroke="rgb(0,0,0)" x1="2325.0" x2="2345.0" y1="130.0" y2="130.0" /><line stroke="rgb(0,0,0)" x1="2345.0" x2="2350.0" y1="130.0" y2="130.0" /><line stroke="rgb(0,0,0)" x1="2350.0" x2="2360.0" y1="130.0" y2="130.0" /><line stroke="rgb(0,0,0)" x1="2360.0" x2="2380.0" y1="130.0" y2="130.0" /><line stroke="rgb(0,0,0)" x1="2380.0" x2="2385.0" y1="130.0" y2="130.0" /><line stroke="rgb(0,0,0)" x1="2385.0" x2="2395.0" y1="130.0" y2="130.0" /><line stroke="rgb(0,0,0)" x1="2395.0" x2="2415.0" y1="130.0" y2="130.0" /><line stroke="rgb(0,0,0)" x1="2415.0" x2="2420.0" y1="130.0" y2="130.0" /><line stroke="rgb(0,0,0)" x1="2420.0" x2="2440.0" y1="130.0" y2="130.0" /><line stroke="rgb(0,0,0)" x1="2440.0" x2="2460.0" y1="130.0" y2="130.0" /><line stroke="rgb(0,0,0)" x1="2460.0" x2="2465.0" y1="130.0" y2="130.0" /><line stroke="rgb(0,0,0)" x1="2465.0" x2="2475.0" y1="130.0" y2="130.0" /><line stroke="rgb(0,0,0)" x1="2475.0" x2="2495.0" y1="130.0" y2="130.0" /><line stroke="rgb(0,0,0)" x1="2495.0" x2="2500.0" y1="130.0" y2="130.0" /><line stroke="rgb(0,0,0)" x1="2500.0" x2="2540.0" y1="130.0" y2="130.0" /><line stroke="rgb(0,0,0)" x1="2540.0" x2="2560.0" y1="130.0" y2="130.0" /><line stroke="rgb(0,0,0)" x1="2560.0" x2="2565.0" y1="130.0" y2="130.0" /><line stroke="rgb(0,0,0)" x1="2565.0" x2="2610.0" y1="130.0" y2="130.0" /><line stroke="rgb(0,0,0)" x1="2610.0" x2="2630.0" y1="130.0" y2="130.0" /><line stroke="rgb(0,0,0)" x1="2630.0" x2="2635.0" y1="130.0" y2="130.0" /><line stroke="rgb(0,0,0)" x1="2635.0" x2="2645.0" y1="130.0" y2="130.0" /><line stroke="rgb(0,0,0)" x1="2645.0" x2="2665.0" y1="130.0" y2="130.0" /><line stroke="rgb(0,0,0)" x1="2665.0" x2="2670.0" y1="130.0" y2="130.0" /><line stroke="rgb(0,0,0)" x1="2670.0" x2="2745.0" y1="130.0" y2="130.0" /><line stroke="rgb(0,0,0)" x1="2745.0" x2="2765.0" y1="130.0" y2="130.0" /><line stroke="rgb(0,0,0)" x1="2765.0" x2="2770.0" y1="130.0" y2="130.0" /><line stroke="rgb(0,0,0)" x1="2770.0" x2="2780.0" y1="130.0" y2="130.0" /><line stroke="rgb(0,0,0)" x1="2780.0" x2="2800.0" y1="130.0" y2="130.0" /><line stroke="rgb(0,0,0)" x1="2800.0" x2="2805.0" y1="130.0" y2="130.0" /><line stroke="rgb(0,0,0)" x1="2805.0" x2="2830.0" y1="130.0" y2="130.0" /><line stroke="rgb(0,0,0)" x1="2830.0" x2="2850.0" y1="130.0" y2="130.0" /><line stroke="rgb(0,0,0)" x1="2850.0" x2="2855.0" y1="130.0" y2="130.0" /><line stroke="rgb(0,0,0)" x1="2855.0" x2="2925.0" y1="130.0" y2="130.0" /><line stroke="rgb(0,0,0)" x1="2925.0" x2="2945.0" y1="130.0" y2="130.0" /><line stroke="rgb(0,0,0)" x1="2945.0" x2="2950.0" y1="130.0" y2="130.0" /><line stroke="rgb(0,0,0)" x1="2950.0" x2="2970.0" y1="130.0" y2="130.0" /><line stroke="rgb(0,0,0)" x1="2970.0" x2="2990.0" y1="130.0" y2="130.0" /><line stroke="rgb(0,0,0)" x1="2990.0" x2="2995.0" y1="130.0" y2="130.0" /><line stroke="rgb(0,0,0)" x1="2995.0" x2="3020.0" y1="130.0" y2="130.0" /><line stroke="rgb(0,0,0)" x1="3020.0" x2="3040.0" y1="130.0" y2="130.0" /><line stroke="rgb(0,0,0)" x1="3040.0" x2="3045.0" y1="130.0" y2="130.0" /><line stroke="rgb(0,0,0)" x1="3045.0" x2="3085.0" y1="130.0" y2="130.0" /><line stroke="rgb(0,0,0)" x1="3085.0" x2="3105.0" y1="130.0" y2="130.0" /><line stroke="rgb(0,0,0)" x1="3105.0" x2="3110.0" y1="130.0" y2="130.0" /><line stroke="rgb(0,0,0)" x1="3110.0" x2="3145.0" y1="130.0" y2="130.0" /><line stroke="rgb(0,0,0)" x1="3145.0" x2="3165.0" y1="130.0" y2="130.0" /><line stroke="rgb(0,0,0)" x1="3165.0" x2="3170.0" y1="130.0" y2="130.0" /><line stroke="rgb(0,0,0)" x1="3170.0" x2="3220.0" y1="130.0" y2="130.0" /><line stroke="rgb(0,0,0)" x1="3220.0" x2="3240.0" y1="130.0" y2="130.0" /><line stroke="rgb(0,0,0)" x1="3240.0" x2="3245.0" y1="130.0" y2="130.0" /><line stroke="rgb(0,0,0)" x1="3245.0" x2="3250.0" y1="130.0" y2="130.0" /><line stroke="rgb(0,0,0)" x1="3250.0" x2="3270.0" y1="130.0" y2="130.0" /><line stroke="rgb(0,0,0)" x1="3270.0" x2="3275.0" y1="130.0" y2="130.0" /><line stroke="rgb(0,0,0)" x1="3275.0" x2="3295.0" y1="130.0" y2="130.0" /><line stroke="rgb(0,0,0)" x1="3295.0" x2="3315.0" y1="130.0" y2="130.0" /><line stroke="rgb(0,0,0)" x1="3315.0" x2="3320.0" y1="130.0" y2="130.0" /><line stroke="rgb(0,0,0)" x1="3320.0" x2="3335.0" y1="130.0" y2="130.0" /><line stroke="rgb(0,0,0)" x1="3335.0" x2="3355.0" y1="130.0" y2="130.0" /><line stroke="rgb(0,0,0)" x1="3355.0" x2="3360.0" y1="130.0" y2="130.0" /><line stroke="rgb(0,0,0)" x1="3360.0" x2="3375.0" y1="130.0" y2="130.0" /><line stroke="rgb(0,0,0)" x1="3375.0" x2="3395.0" y1="130.0" y2="130.0" /><line stroke="rgb(0,0,0)" x1="3395.0" x2="3400.0" y1="130.0" y2="130.0" /><line stroke="rgb(0,0,0)" x1="3400.0" x2="3470.0" y1="130.0" y2="130.0" /><line stroke="rgb(0,0,0)" x1="3470.0" x2="3490.0" y1="130.0" y2="130.0" /><line stroke="rgb(0,0,0)" x1="3490.0" x2="3495.0" y1="130.0" y2="130.0" /><line stroke="rgb(0,0,0)" x1="3495.0" x2="3510.0" y1="130.0" y2="130.0" /><line stroke="rgb(0,0,0)" x1="3510.0" x2="3530.0" y1="130.0" y2="130.0" /><line stroke="rgb(0,0,0)" x1="3530.0" x2="3535.0" y1="130.0" y2="130.0" /><line stroke="rgb(0,0,0)" x1="3535.0" x2="3545.0" y1="130.0" y2="130.0" /><line stroke="rgb(0,0,0)" x1="3545.0" x2="3565.0" y1="130.0" y2="130.0" /><line stroke="rgb(0,0,0)" x1="3565.0" x2="3570.0" y1="130.0" y2="130.0" /><line stroke="rgb(0,0,0)" x1="3570.0" x2="3600.0" y1="130.0" y2="130.0" /><line stroke="rgb(0,0,0)" x1="3600.0" x2="3620.0" y1="130.0" y2="130.0" /><line stroke="rgb(0,0,0)" x1="3620.0" x2="3625.0" y1="130.0" y2="130.0" /><line stroke="rgb(0,0,0)" x1="3625.0" x2="3635.0" y1="130.0" y2="130.0" /><line stroke="rgb(0,0,0)" x1="3635.0" x2="3655.0" y1="130.0" y2="130.0" /><line stroke="rgb(0,0,0)" x1="3655.0" x2="3660.0" y1="130.0" y2="130.0" /><line stroke="rgb(0,0,0)" x1="3660.0" x2="3670.0" y1="130.0" y2="130.0" /><line stroke="rgb(0,0,0)" x1="3670.0" x2="3690.0" y1="130.0" y2="130.0" /><line stroke="rgb(0,0,0)" x1="3690.0" x2="3695.0" y1="130.0" y2="130.0" /><polygon fill="rgb(150,150,150)" points="20.0,55.0 20.0,54.8 12.5,54.8 12.5,54.8 5.0,54.8 5.0,55.0 5.0,55.0 5.0,55.2 12.5,55.2 12.5,55.2 20.0,55.2 20.0,55.0" stroke="rgb(0,0,0)" /><text fill="black" x="5.0" y="75.2">H0</text><polygon fill="rgb(150,150,150)" points="5.0,205.0 5.0,205.0 5.0,205.0 5.0,205.0" stroke="rgb(0,0,0)" /><text fill="black" x="5.0" y="225.0">X1</text><polygon fill="rgb(150,255,150)" points="85.0,130.0 85.0,129.8 77.5,129.8 77.5,129.2 72.5,129.2 72.5,128.8 70.0,128.8 70.0,112.2 67.5,112.2 67.5,112.2 65.0,112.2 65.0,128.8 62.5,128.8 62.5,129.2 57.5,129.2 57.5,129.8 50.0,129.8 50.0,130.0 50.0,130.0 50.0,130.2 57.5,130.2 57.5,130.8 62.5,130.8 62.5,131.2 65.0,131.2 65.0,147.8 67.5,147.8 67.5,147.8 70.0,147.8 70.0,131.2 72.5,131.2 72.5,130.8 77.5,130.8 77.5,130.2 85.0,130.2 85.0,130.0" stroke="rgb(0,0,0)" /><text fill="black" x="50.0" y="167.8">E2</text><polygon fill="rgb(150,150,150)" points="135.0,55.0 135.0,54.8 132.5,54.8 132.5,54.0 125.0,54.0 125.0,54.0 117.5,54.0 117.5,54.8 115.0,54.8 115.0,55.0 115.0,55.0 115.0,55.2 117.5,55.2 117.5,56.0 125.0,56.0 125.0,56.0 132.5,56.0 132.5,55.2 135.0,55.2 135.0,55.0" stroke="rgb(0,0,0)" /><text fill="black" x="115.0" y="76.0">H3</text><polygon fill="rgb(150,150,150)" points="115.0,205.0 115.0,205.0 115.0,205.0 115.0,205.0" stroke="rgb(0,0,0)" /><text fill="black" x="115.0" y="225.0">X4</text><polygon fill="rgb(150,150,150)" points="165.0,130.0 165.0,130.0 165.0,130.0 165.0,130.0" stroke="rgb(0,0,0)" /><text fill="black" x="165.0" y="150.0">X5</text><polygon fill="rgb(150,150,150)" points="195.0,130.0 195.0,130.0 195.0,130.0 195.0,130.0" stroke="rgb(0,0,0)" /><text fill="black" x="195.0" y="150.0">X6</text><polygon fill="rgb(150,150,150)" points="225.0,130.0 225.0,130.0 225.0,130.0 225.0,130.0" stroke="rgb(0,0,0)" /><text fill="black" x="225.0" y="150.0">X7</text><polygon fill="rgb(150,150,150)" points="270.0,130.0 270.0,129.8 262.5,129.8 262.5,129.8 255.0,129.8 255.0,130.0 255.0,130.0 255.0,130.2 262.5,130.2 262.5,130.2 270.0,130.2 270.0,130.0" stroke="rgb(0,0,0)" /><text fill="black" x="255.0" y="150.2">H8</text><polygon fill="rgb(150,150,150)" points="300.0,130.0 300.0,130.0 300.0,130.0 300.0,130.0" stroke="rgb(0,0,0)" /><text fill="black" x="300.0" y="150.0">X9</text><polygon fill="rgb(150,150,150)" points="330.0,130.0 330.0,130.0 330.0,130.0 330.0,130.0" stroke="rgb(0,0,0)" /><text fill="black" x="330.0" y="150.0">X10</text><polygon fill="rgb(150,150,255)" points="420.0,130.0 420.0,129.8 415.0,129.8 415.0,129.0 412.5,129.0 412.5,128.6 410.0,128.6 410.0,125.8 407.5,125.8 407.5,124.4 405.0,124.4 405.0,117.4 402.5,117.4 402.5,101.8 400.0,101.8 400.0,91.8 397.5,91.8 397.5,90.19999999999999 395.0,90.19999999999999 395.0,87.2 392.5,87.2 392.5,85.0 390.0,85.0 390.0,85.0 387.5,85.0 387.5,87.2 385.0,87.2 385.0,90.19999999999999 382.5,90.19999999999999 382.5,91.8 380.0,91.8 380.0,101.8 377.5,101.8 377.5,117.4 375.0,117.4 375.0,124.4 372.5,124.4 372.5,125.8 370.0,125.8 370.0,128.6 367.5,128.6 367.5,129.0 365.0,129.0 365.0,129.8 360.0,129.8 360.0,130.0 360.0,130.0 360.0,130.2 365.0,130.2 365.0,131.0 367.5,131.0 367.5,131.4 370.0,131.4 370.0,134.2 372.5,134.2 372.5,135.6 375.0,135.6 375.0,142.6 377.5,142.6 377.5,158.2 380.0,158.2 380.0,168.2 382.5,168.2 382.5,169.8 385.0,169.8 385.0,172.8 387.5,172.8 387.5,175.0 390.0,175.0 390.0,175.0 392.5,175.0 392.5,172.8 395.0,172.8 395.0,169.8 397.5,169.8 397.5,168.2 400.0,168.2 400.0,158.2 402.5,158.2 402.5,142.6 405.0,142.6 405.0,135.6 407.5,135.6 407.5,134.2 410.0,134.2 410.0,131.4 412.5,131.4 412.5,131.0 415.0,131.0 415.0,130.2 420.0,130.2 420.0,130.0" stroke="rgb(0,0,0)" /><text fill="black" x="360.0" y="195.0">E11</text><polygon fill="rgb(150,150,255)" points="460.0,130.0 460.0,129.8 455.0,129.8 455.0,129.8 450.0,129.8 450.0,130.0 450.0,130.0 450.0,130.2 455.0,130.2 455.0,130.2 460.0,130.2 460.0,130.0" stroke="rgb(0,0,0)" /><text fill="black" x="450.0" y="150.2">E12</text><polygon fill="rgb(150,150,150)" points="520.0,130.0 520.0,129.8 515.0,129.8 515.0,129.4 512.5,129.4 512.5,129.0 505.0,129.0 505.0,129.0 497.5,129.0 497.5,129.4 495.0,129.4 495.0,129.8 490.0,129.8 490.0,130.0 490.0,130.0 490.0,130.2 495.0,130.2 495.0,130.6 497.5,130.6 497.5,131.0 505.0,131.0 505.0,131.0 512.5,131.0 512.5,130.6 515.0,130.6 515.0,130.2 520.0,130.2 520.0,130.0" stroke="rgb(0,0,0)" /><text fill="black" x="490.0" y="151.0">H13</text><polygon fill="rgb(255,150,150)" points="590.0,130.0 590.0,129.6 587.5,129.6 587.5,129.4 585.0,129.4 585.0,129.0 582.5,129.0 582.5,126.2 580.0,126.2 580.0,118.0 577.5,118.0 577.5,113.0 575.0,113.0 575.0,109.2 572.5,109.2 572.5,108.19999999999999 570.0,108.19999999999999 570.0,108.19999999999999 567.5,108.19999999999999 567.5,109.2 565.0,109.2 565.0,113.0 562.5,113.0 562.5,118.0 560.0,118.0 560.0,126.2 557.5,126.2 557.5,129.0 555.0,129.0 555.0,129.4 552.5,129.4 552.5,129.6 550.0,129.6 550.0,130.0 550.0,130.0 550.0,130.4 552.5,130.4 552.5,130.6 555.0,130.6 555.0,131.0 557.5,131.0 557.5,133.8 560.0,133.8 560.0,142.0 562.5,142.0 562.5,147.0 565.0,147.0 565.0,150.8 567.5,150.8 567.5,151.8 570.0,151.8 570.0,151.8 572.5,151.8 572.5,150.8 575.0,150.8 575.0,147.0 577.5,147.0 577.5,142.0 580.0,142.0 580.0,133.8 582.5,133.8 582.5,131.0 585.0,131.0 585.0,130.6 587.5,130.6 587.5,130.4 590.0,130.4 590.0,130.0" stroke="rgb(0,0,0)" /><text fill="black" x="550.0" y="171.8">E14</text><polygon fill="rgb(150,255,255)" points="635.0,130.0 635.0,129.6 630.0,129.6 630.0,129.4 627.5,129.4 627.5,129.4 625.0,129.4 625.0,129.6 620.0,129.6 620.0,130.0 620.0,130.0 620.0,130.4 625.0,130.4 625.0,130.6 627.5,130.6 627.5,130.6 630.0,130.6 630.0,130.4 635.0,130.4 635.0,130.0" stroke="rgb(0,0,0)" /><text fill="black" x="620.0" y="150.6">E15</text><polygon fill="rgb(150,150,150)" points="700.0,130.0 700.0,129.8 697.5,129.8 697.5,125.0 695.0,125.0 695.0,124.0 692.5,124.0 692.5,123.6 690.0,123.6 690.0,121.6 682.5,121.6 682.5,121.6 675.0,121.6 675.0,123.6 672.5,123.6 672.5,124.0 670.0,124.0 670.0,125.0 667.5,125.0 667.5,129.8 665.0,129.8 665.0,130.0 665.0,130.0 665.0,130.2 667.5,130.2 667.5,135.0 670.0,135.0 670.0,136.0 672.5,136.0 672.5,136.4 675.0,136.4 675.0,138.4 682.5,138.4 682.5,138.4 690.0,138.4 690.0,136.4 692.5,136.4 692.5,136.0 695.0,136.0 695.0,135.0 697.5,135.0 697.5,130.2 700.0,130.2 700.0,130.0" stroke="rgb(0,0,0)" /><text fill="black" x="665.0" y="158.4">H16</text><polygon fill="rgb(150,150,150)" points="745.0,55.0 745.0,53.8 737.5,53.8 737.5,53.8 730.0,53.8 730.0,55.0 730.0,55.0 730.0,56.2 737.5,56.2 737.5,56.2 745.0,56.2 745.0,55.0" stroke="rgb(0,0,0)" /><text fill="black" x="730.0" y="76.2">H17</text><polygon fill="rgb(150,255,255)" points="745.0,205.0 745.0,204.6 740.0,204.6 740.0,204.4 737.5,204.4 737.5,204.4 735.0,204.4 735.0,204.6 730.0,204.6 730.0,205.0 730.0,205.0 730.0,205.4 735.0,205.4 735.0,205.6 737.5,205.6 737.5,205.6 740.0,205.6 740.0,205.4 745.0,205.4 745.0,205.0" stroke="rgb(0,0,0)" /><text fill="black" x="730.0" y="225.6">E18</text><polygon fill="rgb(150,150,255)" points="835.0,130.0 835.0,129.8 832.5,129.8 832.5,119.0 830.0,119.0 830.0,113.2 827.5,113.2 827.5,109.6 825.0,109.6 825.0,101.19999999999999 822.5,101.19999999999999 822.5,90.8 820.0,90.8 820.0,84.6 817.5,84.6 817.5,83.6 815.0,83.6 815.0,82.0 812.5,82.0 812.5,80.6 810.0,80.6 810.0,80.4 807.5,80.4 807.5,80.0 805.0,80.0 805.0,80.0 802.5,80.0 802.5,80.4 800.0,80.4 800.0,80.6 797.5,80.6 797.5,82.0 795.0,82.0 795.0,83.6 792.5,83.6 792.5,84.6 790.0,84.6 790.0,90.8 787.5,90.8 787.5,101.19999999999999 785.0,101.19999999999999 785.0,109.6 782.5,109.6 782.5,113.2 780.0,113.2 780.0,119.0 777.5,119.0 777.5,129.8 775.0,129.8 775.0,130.0 775.0,130.0 775.0,130.2 777.5,130.2 777.5,141.0 780.0,141.0 780.0,146.8 782.5,146.8 782.5,150.4 785.0,150.4 785.0,158.8 787.5,158.8 787.5,169.2 790.0,169.2 790.0,175.4 792.5,175.4 792.5,176.4 795.0,176.4 795.0,178.0 797.5,178.0 797.5,179.4 800.0,179.4 800.0,179.6 802.5,179.6 802.5,180.0 805.0,180.0 805.0,180.0 807.5,180.0 807.5,179.6 810.0,179.6 810.0,179.4 812.5,179.4 812.5,178.0 815.0,178.0 815.0,176.4 817.5,176.4 817.5,175.4 820.0,175.4 820.0,169.2 822.5,169.2 822.5,158.8 825.0,158.8 825.0,150.4 827.5,150.4 827.5,146.8 830.0,146.8 830.0,141.0 832.5,141.0 832.5,130.2 835.0,130.2 835.0,130.0" stroke="rgb(0,0,0)" /><text fill="black" x="775.0" y="200.0">E19</text><polygon fill="rgb(150,255,150)" points="870.0,130.0 870.0,129.8 867.5,129.8 867.5,129.8 865.0,129.8 865.0,130.0 865.0,130.0 865.0,130.2 867.5,130.2 867.5,130.2 870.0,130.2 870.0,130.0" stroke="rgb(0,0,0)" /><text fill="black" x="865.0" y="150.2">E20</text><polygon fill="rgb(150,255,150)" points="925.0,130.0 925.0,129.8 922.5,129.8 922.5,129.6 920.0,129.6 920.0,129.2 917.5,129.2 917.5,128.2 915.0,128.2 915.0,110.6 912.5,110.6 912.5,110.6 910.0,110.6 910.0,128.2 907.5,128.2 907.5,129.2 905.0,129.2 905.0,129.6 902.5,129.6 902.5,129.8 900.0,129.8 900.0,130.0 900.0,130.0 900.0,130.2 902.5,130.2 902.5,130.4 905.0,130.4 905.0,130.8 907.5,130.8 907.5,131.8 910.0,131.8 910.0,149.4 912.5,149.4 912.5,149.4 915.0,149.4 915.0,131.8 917.5,131.8 917.5,130.8 920.0,130.8 920.0,130.4 922.5,130.4 922.5,130.2 925.0,130.2 925.0,130.0" stroke="rgb(0,0,0)" /><text fill="black" x="900.0" y="169.4">E21</text><polygon fill="rgb(150,150,150)" points="980.0,130.0 980.0,129.2 977.5,129.2 977.5,129.0 975.0,129.0 975.0,127.8 967.5,127.8 967.5,127.8 960.0,127.8 960.0,129.0 957.5,129.0 957.5,129.2 955.0,129.2 955.0,130.0 955.0,130.0 955.0,130.8 957.5,130.8 957.5,131.0 960.0,131.0 960.0,132.2 967.5,132.2 967.5,132.2 975.0,132.2 975.0,131.0 977.5,131.0 977.5,130.8 980.0,130.8 980.0,130.0" stroke="rgb(0,0,0)" /><text fill="black" x="955.0" y="152.2">H22</text><polygon fill="rgb(150,255,150)" points="1015.0,130.0 1015.0,129.6 1012.5,129.6 1012.5,129.6 1010.0,129.6 1010.0,130.0 1010.0,130.0 1010.0,130.4 1012.5,130.4 1012.5,130.4 1015.0,130.4 1015.0,130.0" stroke="rgb(0,0,0)" /><text fill="black" x="1010.0" y="150.4">E23</text><polygon fill="rgb(150,150,150)" points="1075.0,130.0 1075.0,129.4 1070.0,129.4 1070.0,127.39999999999999 1067.5,127.39999999999999 1067.5,120.4 1060.0,120.4 1060.0,120.4 1052.5,120.4 1052.5,127.39999999999999 1050.0,127.39999999999999 1050.0,129.4 1045.0,129.4 1045.0,130.0 1045.0,130.0 1045.0,130.6 1050.0,130.6 1050.0,132.6 1052.5,132.6 1052.5,139.6 1060.0,139.6 1060.0,139.6 1067.5,139.6 1067.5,132.6 1070.0,132.6 1070.0,130.6 1075.0,130.6 1075.0,130.0" stroke="rgb(0,0,0)" /><text fill="black" x="1045.0" y="159.6">H24</text><polygon fill="rgb(150,255,150)" points="1115.0,130.0 1115.0,129.6 1112.5,129.6 1112.5,128.6 1110.0,128.6 1110.0,128.6 1107.5,128.6 1107.5,129.6 1105.0,129.6 1105.0,130.0 1105.0,130.0 1105.0,130.4 1107.5,130.4 1107.5,131.4 1110.0,131.4 1110.0,131.4 1112.5,131.4 1112.5,130.4 1115.0,130.4 1115.0,130.0" stroke="rgb(0,0,0)" /><text fill="black" x="1105.0" y="151.4">E25</text><polygon fill="rgb(255,150,150)" points="1205.0,130.0 1205.0,129.8 1202.5,129.8 1202.5,129.6 1200.0,129.6 1200.0,129.0 1197.5,129.0 1197.5,128.4 1195.0,128.4 1195.0,123.8 1192.5,123.8 1192.5,116.8 1190.0,116.8 1190.0,92.2 1187.5,92.2 1187.5,87.80000000000001 1185.0,87.80000000000001 1185.0,81.2 1182.5,81.2 1182.5,80.4 1180.0,80.4 1180.0,80.2 1175.0,80.2 1175.0,80.2 1170.0,80.2 1170.0,80.4 1167.5,80.4 1167.5,81.2 1165.0,81.2 1165.0,87.80000000000001 1162.5,87.80000000000001 1162.5,92.2 1160.0,92.2 1160.0,116.8 1157.5,116.8 1157.5,123.8 1155.0,123.8 1155.0,128.4 1152.5,128.4 1152.5,129.0 1150.0,129.0 1150.0,129.6 1147.5,129.6 1147.5,129.8 1145.0,129.8 1145.0,130.0 1145.0,130.0 1145.0,130.2 1147.5,130.2 1147.5,130.4 1150.0,130.4 1150.0,131.0 1152.5,131.0 1152.5,131.6 1155.0,131.6 1155.0,136.2 1157.5,136.2 1157.5,143.2 1160.0,143.2 1160.0,167.8 1162.5,167.8 1162.5,172.2 1165.0,172.2 1165.0,178.8 1167.5,178.8 1167.5,179.6 1170.0,179.6 1170.0,179.8 1175.0,179.8 1175.0,179.8 1180.0,179.8 1180.0,179.6 1182.5,179.6 1182.5,178.8 1185.0,178.8 1185.0,172.2 1187.5,172.2 1187.5,167.8 1190.0,167.8 1190.0,143.2 1192.5,143.2 1192.5,136.2 1195.0,136.2 1195.0,131.6 1197.5,131.6 1197.5,131.0 1200.0,131.0 1200.0,130.4 1202.5,130.4 1202.5,130.2 1205.0,130.2 1205.0,130.0" stroke="rgb(0,0,0)" /><text fill="black" x="1145.0" y="199.8">E26</text><polygon fill="rgb(255,150,255)" points="1255.0,130.0 1255.0,129.8 1247.5,129.8 1247.5,129.0 1245.0,129.0 1245.0,129.0 1242.5,129.0 1242.5,129.8 1235.0,129.8 1235.0,130.0 1235.0,130.0 1235.0,130.2 1242.5,130.2 1242.5,131.0 1245.0,131.0 1245.0,131.0 1247.5,131.0 1247.5,130.2 1255.0,130.2 1255.0,130.0" stroke="rgb(0,0,0)" /><text fill="black" x="1235.0" y="151.0">E27</text><polygon fill="rgb(150,150,150)" points="1300.0,130.0 1300.0,128.6 1292.5,128.6 1292.5,128.6 1285.0,128.6 1285.0,130.0 1285.0,130.0 1285.0,131.4 1292.5,131.4 1292.5,131.4 1300.0,131.4 1300.0,130.0" stroke="rgb(0,0,0)" /><text fill="black" x="1285.0" y="151.4">H28</text><polygon fill="rgb(255,150,255)" points="1335.0,130.0 1335.0,129.6 1332.5,129.6 1332.5,129.6 1330.0,129.6 1330.0,130.0 1330.0,130.0 1330.0,130.4 1332.5,130.4 1332.5,130.4 1335.0,130.4 1335.0,130.0" stroke="rgb(0,0,0)" /><text fill="black" x="1330.0" y="150.4">E29</text><polygon fill="rgb(150,150,150)" points="1385.0,130.0 1385.0,129.8 1382.5,129.8 1382.5,126.8 1375.0,126.8 1375.0,126.8 1367.5,126.8 1367.5,129.8 1365.0,129.8 1365.0,130.0 1365.0,130.0 1365.0,130.2 1367.5,130.2 1367.5,133.2 1375.0,133.2 1375.0,133.2 1382.5,133.2 1382.5,130.2 1385.0,130.2 1385.0,130.0" stroke="rgb(0,0,0)" /><text fill="black" x="1365.0" y="153.2">H30</text><polygon fill="rgb(150,150,150)" points="1435.0,55.0 1435.0,54.8 1432.5,54.8 1432.5,54.2 1425.0,54.2 1425.0,54.2 1417.5,54.2 1417.5,54.8 1415.0,54.8 1415.0,55.0 1415.0,55.0 1415.0,55.2 1417.5,55.2 1417.5,55.8 1425.0,55.8 1425.0,55.8 1432.5,55.8 1432.5,55.2 1435.0,55.2 1435.0,55.0" stroke="rgb(0,0,0)" /><text fill="black" x="1415.0" y="75.8">H31</text><polygon fill="rgb(255,150,255)" points="1425.0,205.0 1425.0,204.8 1422.5,204.8 1422.5,204.4 1420.0,204.4 1420.0,204.4 1417.5,204.4 1417.5,204.8 1415.0,204.8 1415.0,205.0 1415.0,205.0 1415.0,205.2 1417.5,205.2 1417.5,205.6 1420.0,205.6 1420.0,205.6 1422.5,205.6 1422.5,205.2 1425.0,205.2 1425.0,205.0" stroke="rgb(0,0,0)" /><text fill="black" x="1415.0" y="225.6">E32</text><polygon fill="rgb(255,150,150)" points="1525.0,130.0 1525.0,129.8 1517.5,129.8 1517.5,129.0 1515.0,129.0 1515.0,127.0 1512.5,127.0 1512.5,121.0 1510.0,121.0 1510.0,116.4 1507.5,116.4 1507.5,110.4 1505.0,110.4 1505.0,107.2 1502.5,107.2 1502.5,102.6 1500.0,102.6 1500.0,89.19999999999999 1497.5,89.19999999999999 1497.5,84.19999999999999 1495.0,84.19999999999999 1495.0,84.19999999999999 1492.5,84.19999999999999 1492.5,89.19999999999999 1490.0,89.19999999999999 1490.0,102.6 1487.5,102.6 1487.5,107.2 1485.0,107.2 1485.0,110.4 1482.5,110.4 1482.5,116.4 1480.0,116.4 1480.0,121.0 1477.5,121.0 1477.5,127.0 1475.0,127.0 1475.0,129.0 1472.5,129.0 1472.5,129.8 1465.0,129.8 1465.0,130.0 1465.0,130.0 1465.0,130.2 1472.5,130.2 1472.5,131.0 1475.0,131.0 1475.0,133.0 1477.5,133.0 1477.5,139.0 1480.0,139.0 1480.0,143.6 1482.5,143.6 1482.5,149.6 1485.0,149.6 1485.0,152.8 1487.5,152.8 1487.5,157.4 1490.0,157.4 1490.0,170.8 1492.5,170.8 1492.5,175.8 1495.0,175.8 1495.0,175.8 1497.5,175.8 1497.5,170.8 1500.0,170.8 1500.0,157.4 1502.5,157.4 1502.5,152.8 1505.0,152.8 1505.0,149.6 1507.5,149.6 1507.5,143.6 1510.0,143.6 1510.0,139.0 1512.5,139.0 1512.5,133.0 1515.0,133.0 1515.0,131.0 1517.5,131.0 1517.5,130.2 1525.0,130.2 1525.0,130.0" stroke="rgb(0,0,0)" /><text fill="black" x="1465.0" y="195.8">E33</text><polygon fill="rgb(150,150,150)" points="1600.0,130.0 1600.0,129.8 1585.0,129.8 1585.0,126.2 1577.5,126.2 1577.5,126.2 1570.0,126.2 1570.0,129.8 1555.0,129.8 1555.0,130.0 1555.0,130.0 1555.0,130.2 1570.0,130.2 1570.0,133.8 1577.5,133.8 1577.5,133.8 1585.0,133.8 1585.0,130.2 1600.0,130.2 1600.0,130.0" stroke="rgb(0,0,0)" /><text fill="black" x="1555.0" y="153.8">H34</text><polygon fill="rgb(255,150,150)" points="1650.0,130.0 1650.0,127.8 1647.5,127.8 1647.5,122.8 1645.0,122.8 1645.0,116.2 1642.5,116.2 1642.5,113.6 1640.0,113.6 1640.0,113.6 1637.5,113.6 1637.5,116.2 1635.0,116.2 1635.0,122.8 1632.5,122.8 1632.5,127.8 1630.0,127.8 1630.0,130.0 1630.0,130.0 1630.0,132.2 1632.5,132.2 1632.5,137.2 1635.0,137.2 1635.0,143.8 1637.5,143.8 1637.5,146.4 1640.0,146.4 1640.0,146.4 1642.5,146.4 1642.5,143.8 1645.0,143.8 1645.0,137.2 1647.5,137.2 1647.5,132.2 1650.0,132.2 1650.0,130.0" stroke="rgb(0,0,0)" /><text fill="black" x="1630.0" y="166.4">E35</text><polygon fill="rgb(255,150,150)" points="1685.0,130.0 1685.0,128.8 1682.5,128.8 1682.5,128.8 1680.0,128.8 1680.0,130.0 1680.0,130.0 1680.0,131.2 1682.5,131.2 1682.5,131.2 1685.0,131.2 1685.0,130.0" stroke="rgb(0,0,0)" /><text fill="black" x="1680.0" y="151.2">E36</text><polygon fill="rgb(150,150,150)" points="1735.0,130.0 1735.0,129.6 1732.5,129.6 1732.5,121.8 1725.0,121.8 1725.0,121.8 1717.5,121.8 1717.5,129.6 1715.0,129.6 1715.0,130.0 1715.0,130.0 1715.0,130.4 1717.5,130.4 1717.5,138.2 1725.0,138.2 1725.0,138.2 1732.5,138.2 1732.5,130.4 1735.0,130.4 1735.0,130.0" stroke="rgb(0,0,0)" /><text fill="black" x="1715.0" y="158.2">H37</text><polygon fill="rgb(150,150,255)" points="1770.0,130.0 1770.0,128.4 1767.5,128.4 1767.5,128.4 1765.0,128.4 1765.0,130.0 1765.0,130.0 1765.0,131.6 1767.5,131.6 1767.5,131.6 1770.0,131.6 1770.0,130.0" stroke="rgb(0,0,0)" /><text fill="black" x="1765.0" y="151.6">E38</text><polygon fill="rgb(150,150,150)" points="1830.0,130.0 1830.0,129.8 1825.0,129.8 1825.0,126.4 1822.5,126.4 1822.5,112.0 1815.0,112.0 1815.0,112.0 1807.5,112.0 1807.5,126.4 1805.0,126.4 1805.0,129.8 1800.0,129.8 1800.0,130.0 1800.0,130.0 1800.0,130.2 1805.0,130.2 1805.0,133.6 1807.5,133.6 1807.5,148.0 1815.0,148.0 1815.0,148.0 1822.5,148.0 1822.5,133.6 1825.0,133.6 1825.0,130.2 1830.0,130.2 1830.0,130.0" stroke="rgb(0,0,0)" /><text fill="black" x="1800.0" y="168.0">H39</text><polygon fill="rgb(255,150,150)" points="1880.0,130.0 1880.0,129.8 1872.5,129.8 1872.5,129.6 1870.0,129.6 1870.0,129.6 1867.5,129.6 1867.5,129.8 1860.0,129.8 1860.0,130.0 1860.0,130.0 1860.0,130.2 1867.5,130.2 1867.5,130.4 1870.0,130.4 1870.0,130.4 1872.5,130.4 1872.5,130.2 1880.0,130.2 1880.0,130.0" stroke="rgb(0,0,0)" /><text fill="black" x="1860.0" y="150.4">E40</text><polygon fill="rgb(150,150,255)" points="1955.0,130.0 1955.0,129.6 1952.5,129.6 1952.5,129.2 1950.0,129.2 1950.0,128.2 1947.5,128.2 1947.5,113.8 1945.0,113.8 1945.0,108.0 1942.5,108.0 1942.5,106.8 1940.0,106.8 1940.0,98.8 1937.5,98.8 1937.5,91.0 1935.0,91.0 1935.0,89.0 1932.5,89.0 1932.5,89.0 1930.0,89.0 1930.0,91.0 1927.5,91.0 1927.5,98.8 1925.0,98.8 1925.0,106.8 1922.5,106.8 1922.5,108.0 1920.0,108.0 1920.0,113.8 1917.5,113.8 1917.5,128.2 1915.0,128.2 1915.0,129.2 1912.5,129.2 1912.5,129.6 1910.0,129.6 1910.0,130.0 1910.0,130.0 1910.0,130.4 1912.5,130.4 1912.5,130.8 1915.0,130.8 1915.0,131.8 1917.5,131.8 1917.5,146.2 1920.0,146.2 1920.0,152.0 1922.5,152.0 1922.5,153.2 1925.0,153.2 1925.0,161.2 1927.5,161.2 1927.5,169.0 1930.0,169.0 1930.0,171.0 1932.5,171.0 1932.5,171.0 1935.0,171.0 1935.0,169.0 1937.5,169.0 1937.5,161.2 1940.0,161.2 1940.0,153.2 1942.5,153.2 1942.5,152.0 1945.0,152.0 1945.0,146.2 1947.5,146.2 1947.5,131.8 1950.0,131.8 1950.0,130.8 1952.5,130.8 1952.5,130.4 1955.0,130.4 1955.0,130.0" stroke="rgb(0,0,0)" /><text fill="black" x="1910.0" y="191.0">E41</text><polygon fill="rgb(150,150,255)" points="2015.0,130.0 2015.0,129.8 2012.5,129.8 2012.5,129.4 2010.0,129.4 2010.0,128.6 2007.5,128.6 2007.5,126.2 2005.0,126.2 2005.0,114.0 2002.5,114.0 2002.5,112.8 2000.0,112.8 2000.0,112.8 1997.5,112.8 1997.5,114.0 1995.0,114.0 1995.0,126.2 1992.5,126.2 1992.5,128.6 1990.0,128.6 1990.0,129.4 1987.5,129.4 1987.5,129.8 1985.0,129.8 1985.0,130.0 1985.0,130.0 1985.0,130.2 1987.5,130.2 1987.5,130.6 1990.0,130.6 1990.0,131.4 1992.5,131.4 1992.5,133.8 1995.0,133.8 1995.0,146.0 1997.5,146.0 1997.5,147.2 2000.0,147.2 2000.0,147.2 2002.5,147.2 2002.5,146.0 2005.0,146.0 2005.0,133.8 2007.5,133.8 2007.5,131.4 2010.0,131.4 2010.0,130.6 2012.5,130.6 2012.5,130.2 2015.0,130.2 2015.0,130.0" stroke="rgb(0,0,0)" /><text fill="black" x="1985.0" y="167.2">E42</text><polygon fill="rgb(150,150,150)" points="2075.0,130.0 2075.0,129.8 2070.0,129.8 2070.0,129.6 2067.5,129.6 2067.5,117.4 2060.0,117.4 2060.0,117.4 2052.5,117.4 2052.5,129.6 2050.0,129.6 2050.0,129.8 2045.0,129.8 2045.0,130.0 2045.0,130.0 2045.0,130.2 2050.0,130.2 2050.0,130.4 2052.5,130.4 2052.5,142.6 2060.0,142.6 2060.0,142.6 2067.5,142.6 2067.5,130.4 2070.0,130.4 2070.0,130.2 2075.0,130.2 2075.0,130.0" stroke="rgb(0,0,0)" /><text fill="black" x="2045.0" y="162.6">H43</text><polygon fill="rgb(150,150,255)" points="2110.0,130.0 2110.0,129.8 2107.5,129.8 2107.5,129.8 2105.0,129.8 2105.0,130.0 2105.0,130.0 2105.0,130.2 2107.5,130.2 2107.5,130.2 2110.0,130.2 2110.0,130.0" stroke="rgb(0,0,0)" /><text fill="black" x="2105.0" y="150.2">E44</text><polygon fill="rgb(150,150,150)" points="2140.0,130.0 2140.0,130.0 2140.0,130.0 2140.0,130.0" stroke="rgb(0,0,0)" /><text fill="black" x="2140.0" y="150.0">X45</text><polygon fill="rgb(150,150,255)" points="2225.0,130.0 2225.0,127.39999999999999 2222.5,127.39999999999999 2222.5,118.6 2220.0,118.6 2220.0,112.2 2217.5,112.2 2217.5,108.6 2215.0,108.6 2215.0,106.2 2212.5,106.2 2212.5,89.0 2210.0,89.0 2210.0,85.4 2207.5,85.4 2207.5,82.0 2205.0,82.0 2205.0,80.4 2202.5,80.4 2202.5,80.2 2197.5,80.2 2197.5,80.2 2192.5,80.2 2192.5,80.4 2190.0,80.4 2190.0,82.0 2187.5,82.0 2187.5,85.4 2185.0,85.4 2185.0,89.0 2182.5,89.0 2182.5,106.2 2180.0,106.2 2180.0,108.6 2177.5,108.6 2177.5,112.2 2175.0,112.2 2175.0,118.6 2172.5,118.6 2172.5,127.39999999999999 2170.0,127.39999999999999 2170.0,130.0 2170.0,130.0 2170.0,132.6 2172.5,132.6 2172.5,141.4 2175.0,141.4 2175.0,147.8 2177.5,147.8 2177.5,151.4 2180.0,151.4 2180.0,153.8 2182.5,153.8 2182.5,171.0 2185.0,171.0 2185.0,174.6 2187.5,174.6 2187.5,178.0 2190.0,178.0 2190.0,179.6 2192.5,179.6 2192.5,179.8 2197.5,179.8 2197.5,179.8 2202.5,179.8 2202.5,179.6 2205.0,179.6 2205.0,178.0 2207.5,178.0 2207.5,174.6 2210.0,174.6 2210.0,171.0 2212.5,171.0 2212.5,153.8 2215.0,153.8 2215.0,151.4 2217.5,151.4 2217.5,147.8 2220.0,147.8 2220.0,141.4 2222.5,141.4 2222.5,132.6 2225.0,132.6 2225.0,130.0" stroke="rgb(0,0,0)" /><text fill="black" x="2170.0" y="199.8">E46</text><polygon fill="rgb(150,150,150)" points="2255.0,130.0 2255.0,130.0 2255.0,130.0 2255.0,130.0" stroke="rgb(0,0,0)" /><text fill="black" x="2255.0" y="150.0">X47</text><polygon fill="rgb(150,150,150)" points="2320.0,130.0 2320.0,126.8 2317.5,126.8 2317.5,123.8 2315.0,123.8 2315.0,123.6 2310.0,123.6 2310.0,116.4 2302.5,116.4 2302.5,116.4 2295.0,116.4 2295.0,123.6 2290.0,123.6 2290.0,123.8 2287.5,123.8 2287.5,126.8 2285.0,126.8 2285.0,130.0 2285.0,130.0 2285.0,133.2 2287.5,133.2 2287.5,136.2 2290.0,136.2 2290.0,136.4 2295.0,136.4 2295.0,143.6 2302.5,143.6 2302.5,143.6 2310.0,143.6 2310.0,136.4 2315.0,136.4 2315.0,136.2 2317.5,136.2 2317.5,133.2 2320.0,133.2 2320.0,130.0" stroke="rgb(0,0,0)" /><text fill="black" x="2285.0" y="163.6">H48</text><polygon fill="rgb(255,255,150)" points="2355.0,130.0 2355.0,129.6 2352.5,129.6 2352.5,129.6 2350.0,129.6 2350.0,130.0 2350.0,130.0 2350.0,130.4 2352.5,130.4 2352.5,130.4 2355.0,130.4 2355.0,130.0" stroke="rgb(0,0,0)" /><text fill="black" x="2350.0" y="150.4">E49</text><polygon fill="rgb(70,70,175)" points="2390.0,130.0 2390.0,129.8 2387.5,129.8 2387.5,129.8 2385.0,129.8 2385.0,130.0 2385.0,130.0 2385.0,130.2 2387.5,130.2 2387.5,130.2 2390.0,130.2 2390.0,130.0" stroke="rgb(0,0,0)" /><text fill="black" x="2385.0" y="150.2">E50</text><polygon fill="rgb(150,150,150)" points="2435.0,130.0 2435.0,129.8 2427.5,129.8 2427.5,129.8 2420.0,129.8 2420.0,130.0 2420.0,130.0 2420.0,130.2 2427.5,130.2 2427.5,130.2 2435.0,130.2 2435.0,130.0" stroke="rgb(0,0,0)" /><text fill="black" x="2420.0" y="150.2">H51</text><polygon fill="rgb(70,70,175)" points="2470.0,130.0 2470.0,129.8 2467.5,129.8 2467.5,129.8 2465.0,129.8 2465.0,130.0 2465.0,130.0 2465.0,130.2 2467.5,130.2 2467.5,130.2 2470.0,130.2 2470.0,130.0" stroke="rgb(0,0,0)" /><text fill="black" x="2465.0" y="150.2">E52</text><polygon fill="rgb(150,150,150)" points="2535.0,130.0 2535.0,129.8 2532.5,129.8 2532.5,129.6 2530.0,129.6 2530.0,129.4 2527.5,129.4 2527.5,123.0 2525.0,123.0 2525.0,103.8 2517.5,103.8 2517.5,103.8 2510.0,103.8 2510.0,123.0 2507.5,123.0 2507.5,129.4 2505.0,129.4 2505.0,129.6 2502.5,129.6 2502.5,129.8 2500.0,129.8 2500.0,130.0 2500.0,130.0 2500.0,130.2 2502.5,130.2 2502.5,130.4 2505.0,130.4 2505.0,130.6 2507.5,130.6 2507.5,137.0 2510.0,137.0 2510.0,156.2 2517.5,156.2 2517.5,156.2 2525.0,156.2 2525.0,137.0 2527.5,137.0 2527.5,130.6 2530.0,130.6 2530.0,130.4 2532.5,130.4 2532.5,130.2 2535.0,130.2 2535.0,130.0" stroke="rgb(0,0,0)" /><text fill="black" x="2500.0" y="176.2">H53</text><polygon fill="rgb(150,150,150)" points="2605.0,130.0 2605.0,129.8 2585.0,129.8 2585.0,129.8 2565.0,129.8 2565.0,130.0 2565.0,130.0 2565.0,130.2 2585.0,130.2 2585.0,130.2 2605.0,130.2 2605.0,130.0" stroke="rgb(0,0,0)" /><text fill="black" x="2565.0" y="150.2">H54</text><polygon fill="rgb(255,255,150)" points="2640.0,130.0 2640.0,129.8 2637.5,129.8 2637.5,129.8 2635.0,129.8 2635.0,130.0 2635.0,130.0 2635.0,130.2 2637.5,130.2 2637.5,130.2 2640.0,130.2 2640.0,130.0" stroke="rgb(0,0,0)" /><text fill="black" x="2635.0" y="150.2">E55</text><polygon fill="rgb(150,150,150)" points="2740.0,130.0 2740.0,129.8 2712.5,129.8 2712.5,129.4 2705.0,129.4 2705.0,129.4 2697.5,129.4 2697.5,129.8 2670.0,129.8 2670.0,130.0 2670.0,130.0 2670.0,130.2 2697.5,130.2 2697.5,130.6 2705.0,130.6 2705.0,130.6 2712.5,130.6 2712.5,130.2 2740.0,130.2 2740.0,130.0" stroke="rgb(0,0,0)" /><text fill="black" x="2670.0" y="150.6">H56</text><polygon fill="rgb(255,255,150)" points="2775.0,130.0 2775.0,129.4 2772.5,129.4 2772.5,129.4 2770.0,129.4 2770.0,130.0 2770.0,130.0 2770.0,130.6 2772.5,130.6 2772.5,130.6 2775.0,130.6 2775.0,130.0" stroke="rgb(0,0,0)" /><text fill="black" x="2770.0" y="150.6">E57</text><polygon fill="rgb(255,150,150)" points="2825.0,130.0 2825.0,129.8 2822.5,129.8 2822.5,129.6 2820.0,129.6 2820.0,129.4 2815.0,129.4 2815.0,129.4 2810.0,129.4 2810.0,129.6 2807.5,129.6 2807.5,129.8 2805.0,129.8 2805.0,130.0 2805.0,130.0 2805.0,130.2 2807.5,130.2 2807.5,130.4 2810.0,130.4 2810.0,130.6 2815.0,130.6 2815.0,130.6 2820.0,130.6 2820.0,130.4 2822.5,130.4 2822.5,130.2 2825.0,130.2 2825.0,130.0" stroke="rgb(0,0,0)" /><text fill="black" x="2805.0" y="150.6">E58</text><polygon fill="rgb(255,150,150)" points="2920.0,130.0 2920.0,129.8 2917.5,129.8 2917.5,129.6 2915.0,129.6 2915.0,128.0 2912.5,128.0 2912.5,124.2 2910.0,124.2 2910.0,117.4 2907.5,117.4 2907.5,111.6 2905.0,111.6 2905.0,98.0 2902.5,98.0 2902.5,82.2 2900.0,82.2 2900.0,80.8 2897.5,80.8 2897.5,80.6 2895.0,80.6 2895.0,80.4 2887.5,80.4 2887.5,80.4 2880.0,80.4 2880.0,80.6 2877.5,80.6 2877.5,80.8 2875.0,80.8 2875.0,82.2 2872.5,82.2 2872.5,98.0 2870.0,98.0 2870.0,111.6 2867.5,111.6 2867.5,117.4 2865.0,117.4 2865.0,124.2 2862.5,124.2 2862.5,128.0 2860.0,128.0 2860.0,129.6 2857.5,129.6 2857.5,129.8 2855.0,129.8 2855.0,130.0 2855.0,130.0 2855.0,130.2 2857.5,130.2 2857.5,130.4 2860.0,130.4 2860.0,132.0 2862.5,132.0 2862.5,135.8 2865.0,135.8 2865.0,142.6 2867.5,142.6 2867.5,148.4 2870.0,148.4 2870.0,162.0 2872.5,162.0 2872.5,177.8 2875.0,177.8 2875.0,179.2 2877.5,179.2 2877.5,179.4 2880.0,179.4 2880.0,179.6 2887.5,179.6 2887.5,179.6 2895.0,179.6 2895.0,179.4 2897.5,179.4 2897.5,179.2 2900.0,179.2 2900.0,177.8 2902.5,177.8 2902.5,162.0 2905.0,162.0 2905.0,148.4 2907.5,148.4 2907.5,142.6 2910.0,142.6 2910.0,135.8 2912.5,135.8 2912.5,132.0 2915.0,132.0 2915.0,130.4 2917.5,130.4 2917.5,130.2 2920.0,130.2 2920.0,130.0" stroke="rgb(0,0,0)" /><text fill="black" x="2855.0" y="199.6">E59</text><polygon fill="rgb(255,150,150)" points="2965.0,130.0 2965.0,129.8 2957.5,129.8 2957.5,129.8 2950.0,129.8 2950.0,130.0 2950.0,130.0 2950.0,130.2 2957.5,130.2 2957.5,130.2 2965.0,130.2 2965.0,130.0" stroke="rgb(0,0,0)" /><text fill="black" x="2950.0" y="150.2">E60</text><polygon fill="rgb(255,150,150)" points="3015.0,130.0 3015.0,129.8 3010.0,129.8 3010.0,129.6 3005.0,129.6 3005.0,129.6 3000.0,129.6 3000.0,129.8 2995.0,129.8 2995.0,130.0 2995.0,130.0 2995.0,130.2 3000.0,130.2 3000.0,130.4 3005.0,130.4 3005.0,130.4 3010.0,130.4 3010.0,130.2 3015.0,130.2 3015.0,130.0" stroke="rgb(0,0,0)" /><text fill="black" x="2995.0" y="150.4">E61</text><polygon fill="rgb(150,150,150)" points="3080.0,130.0 3080.0,129.8 3077.5,129.8 3077.5,129.6 3075.0,129.6 3075.0,129.2 3072.5,129.2 3072.5,129.0 3070.0,129.0 3070.0,127.8 3062.5,127.8 3062.5,127.8 3055.0,127.8 3055.0,129.0 3052.5,129.0 3052.5,129.2 3050.0,129.2 3050.0,129.6 3047.5,129.6 3047.5,129.8 3045.0,129.8 3045.0,130.0 3045.0,130.0 3045.0,130.2 3047.5,130.2 3047.5,130.4 3050.0,130.4 3050.0,130.8 3052.5,130.8 3052.5,131.0 3055.0,131.0 3055.0,132.2 3062.5,132.2 3062.5,132.2 3070.0,132.2 3070.0,131.0 3072.5,131.0 3072.5,130.8 3075.0,130.8 3075.0,130.4 3077.5,130.4 3077.5,130.2 3080.0,130.2 3080.0,130.0" stroke="rgb(0,0,0)" /><text fill="black" x="3045.0" y="152.2">H62</text><polygon fill="rgb(150,150,150)" points="3140.0,130.0 3140.0,129.8 3135.0,129.8 3135.0,129.4 3132.5,129.4 3132.5,112.8 3125.0,112.8 3125.0,112.8 3117.5,112.8 3117.5,129.4 3115.0,129.4 3115.0,129.8 3110.0,129.8 3110.0,130.0 3110.0,130.0 3110.0,130.2 3115.0,130.2 3115.0,130.6 3117.5,130.6 3117.5,147.2 3125.0,147.2 3125.0,147.2 3132.5,147.2 3132.5,130.6 3135.0,130.6 3135.0,130.2 3140.0,130.2 3140.0,130.0" stroke="rgb(0,0,0)" /><text fill="black" x="3110.0" y="167.2">H63</text><polygon fill="rgb(255,150,150)" points="3215.0,130.0 3215.0,129.8 3210.0,129.8 3210.0,129.4 3207.5,129.4 3207.5,128.8 3205.0,128.8 3205.0,128.2 3202.5,128.2 3202.5,124.0 3200.0,124.0 3200.0,121.4 3197.5,121.4 3197.5,111.2 3195.0,111.2 3195.0,107.0 3192.5,107.0 3192.5,107.0 3190.0,107.0 3190.0,111.2 3187.5,111.2 3187.5,121.4 3185.0,121.4 3185.0,124.0 3182.5,124.0 3182.5,128.2 3180.0,128.2 3180.0,128.8 3177.5,128.8 3177.5,129.4 3175.0,129.4 3175.0,129.8 3170.0,129.8 3170.0,130.0 3170.0,130.0 3170.0,130.2 3175.0,130.2 3175.0,130.6 3177.5,130.6 3177.5,131.2 3180.0,131.2 3180.0,131.8 3182.5,131.8 3182.5,136.0 3185.0,136.0 3185.0,138.6 3187.5,138.6 3187.5,148.8 3190.0,148.8 3190.0,153.0 3192.5,153.0 3192.5,153.0 3195.0,153.0 3195.0,148.8 3197.5,148.8 3197.5,138.6 3200.0,138.6 3200.0,136.0 3202.5,136.0 3202.5,131.8 3205.0,131.8 3205.0,131.2 3207.5,131.2 3207.5,130.6 3210.0,130.6 3210.0,130.2 3215.0,130.2 3215.0,130.0" stroke="rgb(0,0,0)" /><text fill="black" x="3170.0" y="173.0">E64</text><polygon fill="rgb(150,150,150)" points="3245.0,130.0 3245.0,130.0 3245.0,130.0 3245.0,130.0" stroke="rgb(0,0,0)" /><text fill="black" x="3245.0" y="150.0">X65</text><polygon fill="rgb(150,150,150)" points="3290.0,130.0 3290.0,129.8 3282.5,129.8 3282.5,129.8 3275.0,129.8 3275.0,130.0 3275.0,130.0 3275.0,130.2 3282.5,130.2 3282.5,130.2 3290.0,130.2 3290.0,130.0" stroke="rgb(0,0,0)" /><text fill="black" x="3275.0" y="150.2">H66</text><polygon fill="rgb(255,150,150)" points="3330.0,130.0 3330.0,129.8 3327.5,129.8 3327.5,129.6 3325.0,129.6 3325.0,129.6 3322.5,129.6 3322.5,129.8 3320.0,129.8 3320.0,130.0 3320.0,130.0 3320.0,130.2 3322.5,130.2 3322.5,130.4 3325.0,130.4 3325.0,130.4 3327.5,130.4 3327.5,130.2 3330.0,130.2 3330.0,130.0" stroke="rgb(0,0,0)" /><text fill="black" x="3320.0" y="150.4">E67</text><polygon fill="rgb(255,150,150)" points="3370.0,130.0 3370.0,129.6 3365.0,129.6 3365.0,129.6 3360.0,129.6 3360.0,130.0 3360.0,130.0 3360.0,130.4 3365.0,130.4 3365.0,130.4 3370.0,130.4 3370.0,130.0" stroke="rgb(0,0,0)" /><text fill="black" x="3360.0" y="150.4">E68</text><polygon fill="rgb(255,150,150)" points="3465.0,130.0 3465.0,129.4 3462.5,129.4 3462.5,128.8 3460.0,128.8 3460.0,127.8 3457.5,127.8 3457.5,126.2 3455.0,126.2 3455.0,125.4 3452.5,125.4 3452.5,124.6 3450.0,124.6 3450.0,122.2 3447.5,122.2 3447.5,108.8 3445.0,108.8 3445.0,95.4 3442.5,95.4 3442.5,89.6 3440.0,89.6 3440.0,84.4 3437.5,84.4 3437.5,83.0 3435.0,83.0 3435.0,82.6 3432.5,82.6 3432.5,82.6 3430.0,82.6 3430.0,83.0 3427.5,83.0 3427.5,84.4 3425.0,84.4 3425.0,89.6 3422.5,89.6 3422.5,95.4 3420.0,95.4 3420.0,108.8 3417.5,108.8 3417.5,122.2 3415.0,122.2 3415.0,124.6 3412.5,124.6 3412.5,125.4 3410.0,125.4 3410.0,126.2 3407.5,126.2 3407.5,127.8 3405.0,127.8 3405.0,128.8 3402.5,128.8 3402.5,129.4 3400.0,129.4 3400.0,130.0 3400.0,130.0 3400.0,130.6 3402.5,130.6 3402.5,131.2 3405.0,131.2 3405.0,132.2 3407.5,132.2 3407.5,133.8 3410.0,133.8 3410.0,134.6 3412.5,134.6 3412.5,135.4 3415.0,135.4 3415.0,137.8 3417.5,137.8 3417.5,151.2 3420.0,151.2 3420.0,164.6 3422.5,164.6 3422.5,170.4 3425.0,170.4 3425.0,175.6 3427.5,175.6 3427.5,177.0 3430.0,177.0 3430.0,177.4 3432.5,177.4 3432.5,177.4 3435.0,177.4 3435.0,177.0 3437.5,177.0 3437.5,175.6 3440.0,175.6 3440.0,170.4 3442.5,170.4 3442.5,164.6 3445.0,164.6 3445.0,151.2 3447.5,151.2 3447.5,137.8 3450.0,137.8 3450.0,135.4 3452.5,135.4 3452.5,134.6 3455.0,134.6 3455.0,133.8 3457.5,133.8 3457.5,132.2 3460.0,132.2 3460.0,131.2 3462.5,131.2 3462.5,130.6 3465.0,130.6 3465.0,130.0" stroke="rgb(0,0,0)" /><text fill="black" x="3400.0" y="197.4">E69</text><polygon fill="rgb(255,150,150)" points="3505.0,130.0 3505.0,127.6 3502.5,127.6 3502.5,127.0 3500.0,127.0 3500.0,127.0 3497.5,127.0 3497.5,127.6 3495.0,127.6 3495.0,130.0 3495.0,130.0 3495.0,132.4 3497.5,132.4 3497.5,133.0 3500.0,133.0 3500.0,133.0 3502.5,133.0 3502.5,132.4 3505.0,132.4 3505.0,130.0" stroke="rgb(0,0,0)" /><text fill="black" x="3495.0" y="153.0">E70</text><polygon fill="rgb(255,150,150)" points="3540.0,130.0 3540.0,129.8 3537.5,129.8 3537.5,129.8 3535.0,129.8 3535.0,130.0 3535.0,130.0 3535.0,130.2 3537.5,130.2 3537.5,130.2 3540.0,130.2 3540.0,130.0" stroke="rgb(0,0,0)" /><text fill="black" x="3535.0" y="150.2">E71</text><polygon fill="rgb(150,150,150)" points="3595.0,130.0 3595.0,129.8 3592.5,129.8 3592.5,129.6 3590.0,129.6 3590.0,128.2 3582.5,128.2 3582.5,128.2 3575.0,128.2 3575.0,129.6 3572.5,129.6 3572.5,129.8 3570.0,129.8 3570.0,130.0 3570.0,130.0 3570.0,130.2 3572.5,130.2 3572.5,130.4 3575.0,130.4 3575.0,131.8 3582.5,131.8 3582.5,131.8 3590.0,131.8 3590.0,130.4 3592.5,130.4 3592.5,130.2 3595.0,130.2 3595.0,130.0" stroke="rgb(0,0,0)" /><text fill="black" x="3570.0" y="151.8">H72</text><polygon fill="rgb(175,70,70)" points="3630.0,130.0 3630.0,129.6 3627.5,129.6 3627.5,129.6 3625.0,129.6 3625.0,130.0 3625.0,130.0 3625.0,130.4 3627.5,130.4 3627.5,130.4 3630.0,130.4 3630.0,130.0" stroke="rgb(0,0,0)" /><text fill="black" x="3625.0" y="150.4">E73</text><polygon fill="rgb(175,70,70)" points="3665.0,130.0 3665.0,129.6 3662.5,129.6 3662.5,129.6 3660.0,129.6 3660.0,130.0 3660.0,130.0 3660.0,130.4 3662.5,130.4 3662.5,130.4 3665.0,130.4 3665.0,130.0" stroke="rgb(0,0,0)" /><text fill="black" x="3660.0" y="150.4">E74</text><polygon fill="rgb(150,150,255)" points="3755.0,130.0 3755.0,129.8 3742.5,129.8 3742.5,129.6 3740.0,129.6 3740.0,129.2 3737.5,129.2 3737.5,129.0 3735.0,129.0 3735.0,128.6 3725.0,128.6 3725.0,128.6 3715.0,128.6 3715.0,129.0 3712.5,129.0 3712.5,129.2 3710.0,129.2 3710.0,129.6 3707.5,129.6 3707.5,129.8 3695.0,129.8 3695.0,130.0 3695.0,130.0 3695.0,130.2 3707.5,130.2 3707.5,130.4 3710.0,130.4 3710.0,130.8 3712.5,130.8 3712.5,131.0 3715.0,131.0 3715.0,131.4 3725.0,131.4 3725.0,131.4 3735.0,131.4 3735.0,131.0 3737.5,131.0 3737.5,130.8 3740.0,130.8 3740.0,130.4 3742.5,130.4 3742.5,130.2 3755.0,130.2 3755.0,130.0" stroke="rgb(0,0,0)" /><text fill="black" x="3695.0" y="151.4">E75</text><path d="M 912.5,130.0 a 3081.5166291910973,3081.5166291910973 0 0,0 -845.0,-0.0" stroke="rgb(150,255,150)" stroke-width="2" /><path d="M 912.5,130.0 a 3081.5166291910973,3081.5166291910973 0 0,0 -845.0,-0.0" stroke="rgb(0,0,0)" stroke-width="0.2" /><path d="M 455.0,130.0 a 122.88106431512185,122.88106431512185 0 0,0 -65.0,-0.0" stroke="rgb(150,150,255)" stroke-width="2" /><path d="M 455.0,130.0 a 122.88106431512185,122.88106431512185 0 0,0 -65.0,-0.0" stroke="rgb(0,0,0)" stroke-width="0.2" /><path d="M 805.0,130.0 a 1110.47253057568,1110.47253057568 0 0,0 -415.0,-0.0" stroke="rgb(150,150,255)" stroke-width="2" /><path d="M 805.0,130.0 a 1110.47253057568,1110.47253057568 0 0,0 -415.0,-0.0" stroke="rgb(0,0,0)" stroke-width="0.2" /><path d="M 570.0,130.0 a 18650.014204545456,18650.014204545456 0 0,0 2862.5,-0.0" stroke="rgb(255,150,150)" stroke-width="2" /><path d="M 570.0,130.0 a 18650.014204545456,18650.014204545456 0 0,0 2862.5,-0.0" stroke="rgb(0,0,0)" stroke-width="0.2" /><path d="M 570.0,130.0 a 19538.636363636364,19538.636363636364 0 0,0 2930.0,-0.0" stroke="rgb(255,150,150)" stroke-width="2" /><path d="M 570.0,130.0 a 19538.636363636364,19538.636363636364 0 0,0 2930.0,-0.0" stroke="rgb(0,0,0)" stroke-width="0.2" /><path d="M 737.5,205.0 a 271.96070921423564,271.96070921423564 0 0,0 -110.0,-75.0" stroke="rgb(150,255,255)" stroke-width="2" /><path d="M 737.5,205.0 a 271.96070921423564,271.96070921423564 0 0,0 -110.0,-75.0" stroke="rgb(0,0,0)" stroke-width="0.2" /><path d="M 2197.5,130.0 a 6804.711840146039,6804.711840146039 0 0,0 -1392.5,-0.0" stroke="rgb(150,150,255)" stroke-width="2" /><path d="M 2197.5,130.0 a 6804.711840146039,6804.711840146039 0 0,0 -1392.5,-0.0" stroke="rgb(0,0,0)" stroke-width="0.2" /><path d="M 805.0,130.0 a 19405.68181818182,19405.68181818182 0 0,0 2920.0,-0.0" stroke="rgb(150,150,255)" stroke-width="2" /><path d="M 805.0,130.0 a 19405.68181818182,19405.68181818182 0 0,0 2920.0,-0.0" stroke="rgb(0,0,0)" stroke-width="0.2" /><path d="M 912.5,130.0 a 83.06406125242385,83.06406125242385 0 0,0 -45.0,-0.0" stroke="rgb(150,255,150)" stroke-width="2" /><path d="M 912.5,130.0 a 83.06406125242385,83.06406125242385 0 0,0 -45.0,-0.0" stroke="rgb(0,0,0)" stroke-width="0.2" /><path d="M 1012.5,130.0 a 196.86406316688004,196.86406316688004 0 0,0 -100.0,-0.0" stroke="rgb(150,255,150)" stroke-width="2" /><path d="M 1012.5,130.0 a 196.86406316688004,196.86406316688004 0 0,0 -100.0,-0.0" stroke="rgb(0,0,0)" stroke-width="0.2" /><path d="M 1110.0,130.0 a 431.9161385777203,431.9161385777203 0 0,0 -197.5,-0.0" stroke="rgb(150,255,150)" stroke-width="2" /><path d="M 1110.0,130.0 a 431.9161385777203,431.9161385777203 0 0,0 -197.5,-0.0" stroke="rgb(0,0,0)" stroke-width="0.2" /><path d="M 1495.0,130.0 a 787.8453188602442,787.8453188602442 0 0,0 -320.0,-0.0" stroke="rgb(255,150,150)" stroke-width="2" /><path d="M 1495.0,130.0 a 787.8453188602442,787.8453188602442 0 0,0 -320.0,-0.0" stroke="rgb(0,0,0)" stroke-width="0.2" /><path d="M 2887.5,130.0 a 9611.0548683349,9611.0548683349 0 0,0 -1712.5,-0.0" stroke="rgb(255,150,150)" stroke-width="2" /><path d="M 2887.5,130.0 a 9611.0548683349,9611.0548683349 0 0,0 -1712.5,-0.0" stroke="rgb(0,0,0)" stroke-width="0.2" /><path d="M 1332.5,130.0 a 169.81231218528347,169.81231218528347 0 0,0 -87.5,-0.0" stroke="rgb(255,150,255)" stroke-width="2" /><path d="M 1332.5,130.0 a 169.81231218528347,169.81231218528347 0 0,0 -87.5,-0.0" stroke="rgb(0,0,0)" stroke-width="0.2" /><path d="M 1420.0,205.0 a 413.34347324164503,413.34347324164503 0 0,0 -175.0,-75.0" stroke="rgb(255,150,255)" stroke-width="2" /><path d="M 1420.0,205.0 a 413.34347324164503,413.34347324164503 0 0,0 -175.0,-75.0" stroke="rgb(0,0,0)" stroke-width="0.2" /><path d="M 1640.0,130.0 a 300.0476461943853,300.0476461943853 0 0,0 -145.0,-0.0" stroke="rgb(255,150,150)" stroke-width="2" /><path d="M 1640.0,130.0 a 300.0476461943853,300.0476461943853 0 0,0 -145.0,-0.0" stroke="rgb(0,0,0)" stroke-width="0.2" /><path d="M 1682.5,130.0 a 78.21252824818355,78.21252824818355 0 0,0 -42.5,-0.0" stroke="rgb(255,150,150)" stroke-width="2" /><path d="M 1682.5,130.0 a 78.21252824818355,78.21252824818355 0 0,0 -42.5,-0.0" stroke="rgb(0,0,0)" stroke-width="0.2" /><path d="M 1870.0,130.0 a 519.7591186817257,519.7591186817257 0 0,0 -230.0,-0.0" stroke="rgb(255,150,150)" stroke-width="2" /><path d="M 1870.0,130.0 a 519.7591186817257,519.7591186817257 0 0,0 -230.0,-0.0" stroke="rgb(0,0,0)" stroke-width="0.2" /><path d="M 1767.5,130.0 a 89.375,89.375 0 0,0 165.0,-0.0" stroke="rgb(150,150,255)" stroke-width="2" /><path d="M 1767.5,130.0 a 89.375,89.375 0 0,0 165.0,-0.0" stroke="rgb(0,0,0)" stroke-width="0.2" /><path d="M 2197.5,130.0 a 619.6770470188612,619.6770470188612 0 0,0 -265.0,-0.0" stroke="rgb(150,150,255)" stroke-width="2" /><path d="M 2197.5,130.0 a 619.6770470188612,619.6770470188612 0 0,0 -265.0,-0.0" stroke="rgb(0,0,0)" stroke-width="0.2" /><path d="M 2107.5,130.0 a 213.43097698186048,213.43097698186048 0 0,0 -107.5,-0.0" stroke="rgb(150,150,255)" stroke-width="2" /><path d="M 2107.5,130.0 a 213.43097698186048,213.43097698186048 0 0,0 -107.5,-0.0" stroke="rgb(0,0,0)" stroke-width="0.2" /><path d="M 2197.5,130.0 a 431.9161385777203,431.9161385777203 0 0,0 -197.5,-0.0" stroke="rgb(150,150,255)" stroke-width="2" /><path d="M 2197.5,130.0 a 431.9161385777203,431.9161385777203 0 0,0 -197.5,-0.0" stroke="rgb(0,0,0)" stroke-width="0.2" /><path d="M 2772.5,130.0 a 1128.5822215327335,1128.5822215327335 0 0,0 -420.0,-0.0" stroke="rgb(255,255,150)" stroke-width="2" /><path d="M 2772.5,130.0 a 1128.5822215327335,1128.5822215327335 0 0,0 -420.0,-0.0" stroke="rgb(0,0,0)" stroke-width="0.2" /><path d="M 2467.5,130.0 a 153.91695804195805,153.91695804195805 0 0,0 -80.0,-0.0" stroke="rgb(70,70,175)" stroke-width="2" /><path d="M 2467.5,130.0 a 153.91695804195805,153.91695804195805 0 0,0 -80.0,-0.0" stroke="rgb(0,0,0)" stroke-width="0.2" /><path d="M 2772.5,130.0 a 276.3331838679922,276.3331838679922 0 0,0 -135.0,-0.0" stroke="rgb(255,255,150)" stroke-width="2" /><path d="M 2772.5,130.0 a 276.3331838679922,276.3331838679922 0 0,0 -135.0,-0.0" stroke="rgb(0,0,0)" stroke-width="0.2" /><path d="M 3432.5,130.0 a 1934.3683483935743,1934.3683483935743 0 0,0 -617.5,-0.0" stroke="rgb(255,150,150)" stroke-width="2" /><path d="M 3432.5,130.0 a 1934.3683483935743,1934.3683483935743 0 0,0 -617.5,-0.0" stroke="rgb(0,0,0)" stroke-width="0.2" /><path d="M 3192.5,130.0 a 740.6283757633095,740.6283757633095 0 0,0 -305.0,-0.0" stroke="rgb(255,150,150)" stroke-width="2" /><path d="M 3192.5,130.0 a 740.6283757633095,740.6283757633095 0 0,0 -305.0,-0.0" stroke="rgb(0,0,0)" stroke-width="0.2" /><path d="M 3365.0,130.0 a 1344.9670863525455,1344.9670863525455 0 0,0 -477.5,-0.0" stroke="rgb(255,150,150)" stroke-width="2" /><path d="M 3365.0,130.0 a 1344.9670863525455,1344.9670863525455 0 0,0 -477.5,-0.0" stroke="rgb(0,0,0)" stroke-width="0.2" /><path d="M 3432.5,130.0 a 1618.0668763580288,1618.0668763580288 0 0,0 -545.0,-0.0" stroke="rgb(255,150,150)" stroke-width="2" /><path d="M 3432.5,130.0 a 1618.0668763580288,1618.0668763580288 0 0,0 -545.0,-0.0" stroke="rgb(0,0,0)" stroke-width="0.2" /><path d="M 3005.0,130.0 a 87.94349273693786,87.94349273693786 0 0,0 -47.5,-0.0" stroke="rgb(255,150,150)" stroke-width="2" /><path d="M 3005.0,130.0 a 87.94349273693786,87.94349273693786 0 0,0 -47.5,-0.0" stroke="rgb(0,0,0)" stroke-width="0.2" /><path d="M 3192.5,130.0 a 405.8434052808554,405.8434052808554 0 0,0 -187.5,-0.0" stroke="rgb(255,150,150)" stroke-width="2" /><path d="M 3192.5,130.0 a 405.8434052808554,405.8434052808554 0 0,0 -187.5,-0.0" stroke="rgb(0,0,0)" stroke-width="0.2" /><path d="M 3365.0,130.0 a 73.38888888888889,73.38888888888889 0 0,0 -40.0,-0.0" stroke="rgb(255,150,150)" stroke-width="2" /><path d="M 3365.0,130.0 a 73.38888888888889,73.38888888888889 0 0,0 -40.0,-0.0" stroke="rgb(0,0,0)" stroke-width="0.2" /><path d="M 3537.5,130.0 a 68.59313827796649,68.59313827796649 0 0,0 -37.5,-0.0" stroke="rgb(255,150,150)" stroke-width="2" /><path d="M 3537.5,130.0 a 68.59313827796649,68.59313827796649 0 0,0 -37.5,-0.0" stroke="rgb(0,0,0)" stroke-width="0.2" /><path d="M 3662.5,130.0 a 63.8252714566247,63.8252714566247 0 0,0 -35.0,-0.0" stroke="rgb(175,70,70)" stroke-width="2" /><path d="M 3662.5,130.0 a 63.8252714566247,63.8252714566247 0 0,0 -35.0,-0.0" stroke="rgb(0,0,0)" stroke-width="0.2" /></svg>