<?xml version="1.0" encoding="utf-8" ?>
<svg baseProfile="full" height="100%" style="font-size:14;font-family:Sans, Arial;stroke-width:1;fill:none" version="1.1" width="100%" xmlns="http://www.w3.org/2000/svg" xmlns:ev="http://www.w3.org/2001/xml-events" xmlns:xlink="http://www.w3.org/1999/xlink"><defs /><rect fill="none" height="300.0" stroke="none" width="2402.697599999999" x="0" y="0" /><line stroke="rgb(0,0,0)" x1="5.0" x2="25.0" y1="75.0" y2="75.0" /><line stroke="rgb(0,0,0)" x1="25.0" x2="35.0" y1="75.0" y2="150.0" /><line stroke="rgb(0,0,0)" x1="35.0" x2="40.0" y1="150.0" y2="150.0" /><line stroke="rgb(0,0,0)" x1="5.0" x2="10.0" y1="225.0" y2="225.0" /><line stroke="rgb(0,0,0)" x1="10.0" x2="35.0" y1="225.0" y2="150.0" /><line stroke="rgb(0,0,0)" x1="35.0" x2="40.0" y1="150.0" y2="150.0" /><line stroke="rgb(0,0,0)" x1="40.0" x2="50.95505" y1="150.0" y2="150.0" /><line stroke="rgb(0,0,0)" x1="50.95505" x2="60.95505" y1="150.0" y2="75.0" /><line stroke="rgb(0,0,0)" x1="60.95505" x2="65.95505" y1="75.0" y2="75.0" /><line stroke="rgb(0,0,0)" x1="40.0" x2="50.95505" y1="150.0" y2="150.0" /><line stroke="rgb(0,0,0)" x1="50.95505" x2="60.95505" y1="150.0" y2="225.0" /><line stroke="rgb(0,0,0)" x1="60.95505" x2="65.95505" y1="225.0" y2="225.0" /><line stroke="rgb(0,0,0)" x1="65.95505" x2="86.95505" y1="75.0" y2="75.0" /><line stroke="rgb(0,0,0)" x1="86.95505" x2="96.95505" y1="75.0" y2="150.0" /><line stroke="rgb(0,0,0)" x1="96.95505" x2="101.95505" y1="150.0" y2="150.0" /><line stroke="rgb(0,0,0)" x1="65.95505" x2="70.95505" y1="225.0" y2="225.0" /><line stroke="rgb(0,0,0)" x1="70.95505" x2="96.95505" y1="225.0" y2="150.0" /><line stroke="rgb(0,0,0)" x1="96.95505" x2="101.95505" y1="150.0" y2="150.0" /><line stroke="rgb(0,0,0)" x1="101.95505" x2="106.95505" y1="150.0" y2="150.0" /><line stroke="rgb(0,0,0)" x1="106.95505" x2="116.95505" y1="150.0" y2="150.0" /><line stroke="rgb(0,0,0)" x1="116.95505" x2="121.95505" y1="150.0" y2="150.0" /><line stroke="rgb(0,0,0)" x1="121.95505" x2="126.95505" y1="150.0" y2="150.0" /><line stroke="rgb(0,0,0)" x1="126.95505" x2="136.95505" y1="150.0" y2="150.0" /><line stroke="rgb(0,0,0)" x1="136.95505" x2="141.95505" y1="150.0" y2="150.0" /><line stroke="rgb(0,0,0)" x1="141.95505" x2="146.95505" y1="150.0" y2="150.0" /><line stroke="rgb(0,0,0)" x1="146.95505" x2="156.95505" y1="150.0" y2="150.0" /><line stroke="rgb(0,0,0)" x1="156.95505" x2="161.95505" y1="150.0" y2="150.0" /><line stroke="rgb(0,0,0)" x1="161.95505" x2="181.95505" y1="150.0" y2="150.0" /><line stroke="rgb(0,0,0)" x1="181.95505" x2="191.95505" y1="150.0" y2="150.0" /><line stroke="rgb(0,0,0)" x1="191.95505" x2="196.95505" y1="150.0" y2="150.0" /><line stroke="rgb(0,0,0)" x1="196.95505" x2="201.95505" y1="150.0" y2="150.0" /><line stroke="rgb(0,0,0)" x1="201.95505" x2="211.95505" y1="150.0" y2="150.0" /><line stroke="rgb(0,0,0)" x1="211.95505" x2="216.95505" y1="150.0" y2="150.0" /><line stroke="rgb(0,0,0)" x1="216.95505" x2="221.95505" y1="150.0" y2="150.0" /><line stroke="rgb(0,0,0)" x1="221.95505" x2="231.95505" y1="150.0" y2="150.0" /><line stroke="rgb(0,0,0)" x1="231.95505" x2="236.95505" y1="150.0" y2="150.0" /><line stroke="rgb(0,0,0)" x1="236.95505" x2="266.3106" y1="150.0" y2="150.0" /><line stroke="rgb(0,0,0)" x1="266.3106" x2="276.3106" y1="150.0" y2="150.0" /><line stroke="rgb(0,0,0)" x1="276.3106" x2="281.3106" y1="150.0" y2="150.0" /><line stroke="rgb(0,0,0)" x1="281.3106" x2="296.3106" y1="150.0" y2="150.0" /><line stroke="rgb(0,0,0)" x1="296.3106" x2="306.3106" y1="150.0" y2="150.0" /><line stroke="rgb(0,0,0)" x1="306.3106" x2="311.3106" y1="150.0" y2="150.0" /><line stroke="rgb(0,0,0)" x1="311.3106" x2="336.3106" y1="150.0" y2="150.0" /><line stroke="rgb(0,0,0)" x1="336.3106" x2="346.3106" y1="150.0" y2="150.0" /><line stroke="rgb(0,0,0)" x1="346.3106" x2="351.3106" y1="150.0" y2="150.0" /><line stroke="rgb(0,0,0)" x1="351.3106" x2="374.06290000000007" y1="150.0" y2="150.0" /><line stroke="rgb(0,0,0)" x1="374.06290000000007" x2="384.06290000000007" y1="150.0" y2="150.0" /><line stroke="rgb(0,0,0)" x1="384.06290000000007" x2="389.06290000000007" y1="150.0" y2="150.0" /><line stroke="rgb(0,0,0)" x1="389.06290000000007" x2="405.7295500000001" y1="150.0" y2="150.0" /><line stroke="rgb(0,0,0)" x1="405.7295500000001" x2="415.7295500000001" y1="150.0" y2="150.0" /><line stroke="rgb(0,0,0)" x1="415.7295500000001" x2="420.7295500000001" y1="150.0" y2="150.0" /><line stroke="rgb(0,0,0)" x1="420.7295500000001" x2="451.2057500000001" y1="150.0" y2="150.0" /><line stroke="rgb(0,0,0)" x1="451.2057500000001" x2="461.2057500000001" y1="150.0" y2="75.0" /><line stroke="rgb(0,0,0)" x1="461.2057500000001" x2="466.2057500000001" y1="75.0" y2="75.0" /><line stroke="rgb(0,0,0)" x1="420.7295500000001" x2="451.2057500000001" y1="150.0" y2="150.0" /><line stroke="rgb(0,0,0)" x1="451.2057500000001" x2="461.2057500000001" y1="150.0" y2="225.0" /><line stroke="rgb(0,0,0)" x1="461.2057500000001" x2="466.2057500000001" y1="225.0" y2="225.0" /><line stroke="rgb(0,0,0)" x1="466.2057500000001" x2="486.2057500000001" y1="75.0" y2="75.0" /><line stroke="rgb(0,0,0)" x1="486.2057500000001" x2="496.2057500000001" y1="75.0" y2="150.0" /><line stroke="rgb(0,0,0)" x1="496.2057500000001" x2="501.2057500000001" y1="150.0" y2="150.0" /><line stroke="rgb(0,0,0)" x1="466.2057500000001" x2="482.8724000000001" y1="225.0" y2="225.0" /><line stroke="rgb(0,0,0)" x1="482.8724000000001" x2="496.2057500000001" y1="225.0" y2="150.0" /><line stroke="rgb(0,0,0)" x1="496.2057500000001" x2="501.2057500000001" y1="150.0" y2="150.0" /><line stroke="rgb(0,0,0)" x1="501.2057500000001" x2="546.7257500000001" y1="150.0" y2="150.0" /><line stroke="rgb(0,0,0)" x1="546.7257500000001" x2="556.7257500000001" y1="150.0" y2="150.0" /><line stroke="rgb(0,0,0)" x1="556.7257500000001" x2="561.7257500000001" y1="150.0" y2="150.0" /><line stroke="rgb(0,0,0)" x1="561.7257500000001" x2="571.7257500000001" y1="150.0" y2="150.0" /><line stroke="rgb(0,0,0)" x1="571.7257500000001" x2="581.7257500000001" y1="150.0" y2="150.0" /><line stroke="rgb(0,0,0)" x1="581.7257500000001" x2="586.7257500000001" y1="150.0" y2="150.0" /><line stroke="rgb(0,0,0)" x1="586.7257500000001" x2="597.5505" y1="150.0" y2="150.0" /><line stroke="rgb(0,0,0)" x1="597.5505" x2="607.5505" y1="150.0" y2="150.0" /><line stroke="rgb(0,0,0)" x1="607.5505" x2="612.5505" y1="150.0" y2="150.0" /><line stroke="rgb(0,0,0)" x1="612.5505" x2="636.6414000000001" y1="150.0" y2="150.0" /><line stroke="rgb(0,0,0)" x1="636.6414000000001" x2="646.6414" y1="150.0" y2="150.0" /><line stroke="rgb(0,0,0)" x1="646.6414" x2="651.6414" y1="150.0" y2="150.0" /><line stroke="rgb(0,0,0)" x1="651.6414" x2="661.6414" y1="150.0" y2="150.0" /><line stroke="rgb(0,0,0)" x1="661.6414" x2="671.6414" y1="150.0" y2="150.0" /><line stroke="rgb(0,0,0)" x1="671.6414" x2="676.6414" y1="150.0" y2="150.0" /><line stroke="rgb(0,0,0)" x1="676.6414" x2="698.62055" y1="150.0" y2="150.0" /><line stroke="rgb(0,0,0)" x1="698.62055" x2="708.62055" y1="150.0" y2="150.0" /><line stroke="rgb(0,0,0)" x1="708.62055" x2="713.62055" y1="150.0" y2="150.0" /><line stroke="rgb(0,0,0)" x1="713.62055" x2="725.0491" y1="150.0" y2="150.0" /><line stroke="rgb(0,0,0)" x1="725.0491" x2="735.0491" y1="150.0" y2="150.0" /><line stroke="rgb(0,0,0)" x1="735.0491" x2="740.0491" y1="150.0" y2="150.0" /><line stroke="rgb(0,0,0)" x1="740.0491" x2="775.2297999999998" y1="150.0" y2="150.0" /><line stroke="rgb(0,0,0)" x1="775.2297999999998" x2="785.2297999999998" y1="150.0" y2="150.0" /><line stroke="rgb(0,0,0)" x1="785.2297999999998" x2="790.2297999999998" y1="150.0" y2="150.0" /><line stroke="rgb(0,0,0)" x1="790.2297999999998" x2="803.2297999999998" y1="150.0" y2="150.0" /><line stroke="rgb(0,0,0)" x1="803.2297999999998" x2="813.2297999999998" y1="150.0" y2="150.0" /><line stroke="rgb(0,0,0)" x1="813.2297999999998" x2="818.2297999999998" y1="150.0" y2="150.0" /><line stroke="rgb(0,0,0)" x1="818.2297999999998" x2="838.2297999999998" y1="150.0" y2="150.0" /><line stroke="rgb(0,0,0)" x1="838.2297999999998" x2="848.2297999999998" y1="150.0" y2="150.0" /><line stroke="rgb(0,0,0)" x1="848.2297999999998" x2="853.2297999999998" y1="150.0" y2="150.0" /><line stroke="rgb(0,0,0)" x1="853.2297999999998" x2="863.2297999999998" y1="150.0" y2="150.0" /><line stroke="rgb(0,0,0)" x1="863.2297999999998" x2="873.2297999999998" y1="150.0" y2="150.0" /><line stroke="rgb(0,0,0)" x1="873.2297999999998" x2="878.2297999999998" y1="150.0" y2="150.0" /><line stroke="rgb(0,0,0)" x1="878.2297999999998" x2="898.5422999999998" y1="150.0" y2="150.0" /><line stroke="rgb(0,0,0)" x1="898.5422999999998" x2="908.5422999999998" y1="150.0" y2="75.0" /><line stroke="rgb(0,0,0)" x1="908.5422999999998" x2="913.5422999999998" y1="75.0" y2="75.0" /><line stroke="rgb(0,0,0)" x1="878.2297999999998" x2="898.5422999999998" y1="150.0" y2="150.0" /><line stroke="rgb(0,0,0)" x1="898.5422999999998" x2="908.5422999999998" y1="150.0" y2="225.0" /><line stroke="rgb(0,0,0)" x1="908.5422999999998" x2="913.5422999999998" y1="225.0" y2="225.0" /><line stroke="rgb(0,0,0)" x1="913.5422999999998" x2="934.7922999999998" y1="75.0" y2="75.0" /><line stroke="rgb(0,0,0)" x1="934.7922999999998" x2="944.7922999999998" y1="75.0" y2="150.0" /><line stroke="rgb(0,0,0)" x1="944.7922999999998" x2="949.7922999999998" y1="150.0" y2="150.0" /><line stroke="rgb(0,0,0)" x1="913.5422999999998" x2="925.2089499999998" y1="225.0" y2="225.0" /><line stroke="rgb(0,0,0)" x1="925.2089499999998" x2="944.7922999999998" y1="225.0" y2="150.0" /><line stroke="rgb(0,0,0)" x1="944.7922999999998" x2="949.7922999999998" y1="150.0" y2="150.0" /><line stroke="rgb(0,0,0)" x1="949.7922999999998" x2="974.8359499999998" y1="150.0" y2="150.0" /><line stroke="rgb(0,0,0)" x1="974.8359499999998" x2="984.8359499999998" y1="150.0" y2="150.0" /><line stroke="rgb(0,0,0)" x1="984.8359499999998" x2="989.8359499999998" y1="150.0" y2="150.0" /><line stroke="rgb(0,0,0)" x1="989.8359499999998" x2="1011.4148999999998" y1="150.0" y2="150.0" /><line stroke="rgb(0,0,0)" x1="1011.4148999999998" x2="1021.4148999999998" y1="150.0" y2="150.0" /><line stroke="rgb(0,0,0)" x1="1021.4148999999998" x2="1026.4148999999998" y1="150.0" y2="150.0" /><line stroke="rgb(0,0,0)" x1="1026.4148999999998" x2="1043.4880499999997" y1="150.0" y2="150.0" /><line stroke="rgb(0,0,0)" x1="1043.4880499999997" x2="1053.4880499999997" y1="150.0" y2="150.0" /><line stroke="rgb(0,0,0)" x1="1053.4880499999997" x2="1058.4880499999997" y1="150.0" y2="150.0" /><line stroke="rgb(0,0,0)" x1="1058.4880499999997" x2="1068.4880499999997" y1="150.0" y2="150.0" /><line stroke="rgb(0,0,0)" x1="1068.4880499999997" x2="1078.4880499999997" y1="150.0" y2="150.0" /><line stroke="rgb(0,0,0)" x1="1078.4880499999997" x2="1083.4880499999997" y1="150.0" y2="150.0" /><line stroke="rgb(0,0,0)" x1="1083.4880499999997" x2="1103.7319499999996" y1="150.0" y2="150.0" /><line stroke="rgb(0,0,0)" x1="1103.7319499999996" x2="1113.7319499999996" y1="150.0" y2="150.0" /><line stroke="rgb(0,0,0)" x1="1113.7319499999996" x2="1118.7319499999996" y1="150.0" y2="150.0" /><line stroke="rgb(0,0,0)" x1="1118.7319499999996" x2="1128.7319499999996" y1="150.0" y2="150.0" /><line stroke="rgb(0,0,0)" x1="1128.7319499999996" x2="1138.7319499999996" y1="150.0" y2="150.0" /><line stroke="rgb(0,0,0)" x1="1138.7319499999996" x2="1143.7319499999996" y1="150.0" y2="150.0" /><line stroke="rgb(0,0,0)" x1="1143.7319499999996" x2="1164.8430499999997" y1="150.0" y2="150.0" /><line stroke="rgb(0,0,0)" x1="1164.8430499999997" x2="1174.8430499999997" y1="150.0" y2="150.0" /><line stroke="rgb(0,0,0)" x1="1174.8430499999997" x2="1179.8430499999997" y1="150.0" y2="150.0" /><line stroke="rgb(0,0,0)" x1="1179.8430499999997" x2="1197.3430499999997" y1="150.0" y2="150.0" /><line stroke="rgb(0,0,0)" x1="1197.3430499999997" x2="1207.3430499999997" y1="150.0" y2="150.0" /><line stroke="rgb(0,0,0)" x1="1207.3430499999997" x2="1212.3430499999997" y1="150.0" y2="150.0" /><line stroke="rgb(0,0,0)" x1="1212.3430499999997" x2="1238.7576999999997" y1="150.0" y2="150.0" /><line stroke="rgb(0,0,0)" x1="1238.7576999999997" x2="1248.7576999999997" y1="150.0" y2="150.0" /><line stroke="rgb(0,0,0)" x1="1248.7576999999997" x2="1253.7576999999997" y1="150.0" y2="150.0" /><line stroke="rgb(0,0,0)" x1="1253.7576999999997" x2="1270.1530499999994" y1="150.0" y2="150.0" /><line stroke="rgb(0,0,0)" x1="1270.1530499999994" x2="1280.1530499999994" y1="150.0" y2="150.0" /><line stroke="rgb(0,0,0)" x1="1280.1530499999994" x2="1285.1530499999994" y1="150.0" y2="150.0" /><line stroke="rgb(0,0,0)" x1="1285.1530499999994" x2="1305.4704999999994" y1="150.0" y2="150.0" /><line stroke="rgb(0,0,0)" x1="1305.4704999999994" x2="1315.4704999999994" y1="150.0" y2="150.0" /><line stroke="rgb(0,0,0)" x1="1315.4704999999994" x2="1320.4704999999994" y1="150.0" y2="150.0" /><line stroke="rgb(0,0,0)" x1="1320.4704999999994" x2="1330.4704999999994" y1="150.0" y2="150.0" /><line stroke="rgb(0,0,0)" x1="1330.4704999999994" x2="1340.4704999999994" y1="150.0" y2="150.0" /><line stroke="rgb(0,0,0)" x1="1340.4704999999994" x2="1345.4704999999994" y1="150.0" y2="150.0" /><line stroke="rgb(0,0,0)" x1="1345.4704999999994" x2="1350.4704999999994" y1="150.0" y2="150.0" /><line stroke="rgb(0,0,0)" x1="1350.4704999999994" x2="1360.4704999999994" y1="150.0" y2="150.0" /><line stroke="rgb(0,0,0)" x1="1360.4704999999994" x2="1365.4704999999994" y1="150.0" y2="150.0" /><line stroke="rgb(0,0,0)" x1="1365.4704999999994" x2="1406.5949999999996" y1="150.0" y2="150.0" /><line stroke="rgb(0,0,0)" x1="1406.5949999999996" x2="1416.5949999999996" y1="150.0" y2="150.0" /><line stroke="rgb(0,0,0)" x1="1416.5949999999996" x2="1421.5949999999996" y1="150.0" y2="150.0" /><line stroke="rgb(0,0,0)" x1="1421.5949999999996" x2="1426.5949999999996" y1="150.0" y2="150.0" /><line stroke="rgb(0,0,0)" x1="1426.5949999999996" x2="1436.5949999999996" y1="150.0" y2="150.0" /><line stroke="rgb(0,0,0)" x1="1436.5949999999996" x2="1441.5949999999996" y1="150.0" y2="150.0" /><line stroke="rgb(0,0,0)" x1="1441.5949999999996" x2="1469.7567499999993" y1="150.0" y2="150.0" /><line stroke="rgb(0,0,0)" x1="1469.7567499999993" x2="1479.7567499999993" y1="150.0" y2="150.0" /><line stroke="rgb(0,0,0)" x1="1479.7567499999993" x2="1484.7567499999993" y1="150.0" y2="150.0" /><line stroke="rgb(0,0,0)" x1="1484.7567499999993" x2="1494.7567499999993" y1="150.0" y2="150.0" /><line stroke="rgb(0,0,0)" x1="1494.7567499999993" x2="1504.7567499999993" y1="150.0" y2="150.0" /><line stroke="rgb(0,0,0)" x1="1504.7567499999993" x2="1509.7567499999993" y1="150.0" y2="150.0" /><line stroke="rgb(0,0,0)" x1="1509.7567499999993" x2="1519.7567499999993" y1="150.0" y2="150.0" /><line stroke="rgb(0,0,0)" x1="1519.7567499999993" x2="1529.7567499999993" y1="150.0" y2="150.0" /><line stroke="rgb(0,0,0)" x1="1529.7567499999993" x2="1534.7567499999993" y1="150.0" y2="150.0" /><line stroke="rgb(0,0,0)" x1="1534.7567499999993" x2="1554.7567499999993" y1="150.0" y2="150.0" /><line stroke="rgb(0,0,0)" x1="1554.7567499999993" x2="1564.7567499999993" y1="150.0" y2="150.0" /><line stroke="rgb(0,0,0)" x1="1564.7567499999993" x2="1569.7567499999993" y1="150.0" y2="150.0" /><line stroke="rgb(0,0,0)" x1="1569.7567499999993" x2="1579.7567499999993" y1="150.0" y2="150.0" /><line stroke="rgb(0,0,0)" x1="1579.7567499999993" x2="1589.7567499999993" y1="150.0" y2="150.0" /><line stroke="rgb(0,0,0)" x1="1589.7567499999993" x2="1594.7567499999993" y1="150.0" y2="150.0" /><line stroke="rgb(0,0,0)" x1="1594.7567499999993" x2="1616.3216499999994" y1="150.0" y2="150.0" /><line stroke="rgb(0,0,0)" x1="1616.3216499999994" x2="1626.3216499999994" y1="150.0" y2="150.0" /><line stroke="rgb(0,0,0)" x1="1626.3216499999994" x2="1631.3216499999994" y1="150.0" y2="150.0" /><line stroke="rgb(0,0,0)" x1="1631.3216499999994" x2="1676.3216499999994" y1="150.0" y2="150.0" /><line stroke="rgb(0,0,0)" x1="1676.3216499999994" x2="1686.3216499999994" y1="150.0" y2="150.0" /><line stroke="rgb(0,0,0)" x1="1686.3216499999994" x2="1691.3216499999994" y1="150.0" y2="150.0" /><line stroke="rgb(0,0,0)" x1="1691.3216499999994" x2="1701.3216499999994" y1="150.0" y2="150.0" /><line stroke="rgb(0,0,0)" x1="1701.3216499999994" x2="1711.3216499999994" y1="150.0" y2="150.0" /><line stroke="rgb(0,0,0)" x1="1711.3216499999994" x2="1716.3216499999994" y1="150.0" y2="150.0" /><line stroke="rgb(0,0,0)" x1="1716.3216499999994" x2="1754.6549999999993" y1="150.0" y2="150.0" /><line stroke="rgb(0,0,0)" x1="1754.6549999999993" x2="1764.6549999999993" y1="150.0" y2="150.0" /><line stroke="rgb(0,0,0)" x1="1764.6549999999993" x2="1769.6549999999993" y1="150.0" y2="150.0" /><line stroke="rgb(0,0,0)" x1="1769.6549999999993" x2="1779.6549999999993" y1="150.0" y2="150.0" /><line stroke="rgb(0,0,0)" x1="1779.6549999999993" x2="1789.6549999999993" y1="150.0" y2="150.0" /><line stroke="rgb(0,0,0)" x1="1789.6549999999993" x2="1794.6549999999993" y1="150.0" y2="150.0" /><line stroke="rgb(0,0,0)" x1="1794.6549999999993" x2="1814.6549999999993" y1="150.0" y2="150.0" /><line stroke="rgb(0,0,0)" x1="1814.6549999999993" x2="1824.6549999999993" y1="150.0" y2="150.0" /><line stroke="rgb(0,0,0)" x1="1824.6549999999993" x2="1829.6549999999993" y1="150.0" y2="150.0" /><line stroke="rgb(0,0,0)" x1="1829.6549999999993" x2="1871.6106499999992" y1="150.0" y2="150.0" /><line stroke="rgb(0,0,0)" x1="1871.6106499999992" x2="1881.6106499999992" y1="150.0" y2="150.0" /><line stroke="rgb(0,0,0)" x1="1881.6106499999992" x2="1886.6106499999992" y1="150.0" y2="150.0" /><line stroke="rgb(0,0,0)" x1="1886.6106499999992" x2="1906.6106499999992" y1="150.0" y2="150.0" /><line stroke="rgb(0,0,0)" x1="1906.6106499999992" x2="1916.6106499999992" y1="150.0" y2="150.0" /><line stroke="rgb(0,0,0)" x1="1916.6106499999992" x2="1921.6106499999992" y1="150.0" y2="150.0" /><line stroke="rgb(0,0,0)" x1="1921.6106499999992" x2="1941.6106499999992" y1="150.0" y2="150.0" /><line stroke="rgb(0,0,0)" x1="1941.6106499999992" x2="1951.6106499999992" y1="150.0" y2="150.0" /><line stroke="rgb(0,0,0)" x1="1951.6106499999992" x2="1956.6106499999992" y1="150.0" y2="150.0" /><line stroke="rgb(0,0,0)" x1="1956.6106499999992" x2="1982.0651999999993" y1="150.0" y2="150.0" /><line stroke="rgb(0,0,0)" x1="1982.0651999999993" x2="1992.0651999999993" y1="150.0" y2="150.0" /><line stroke="rgb(0,0,0)" x1="1992.0651999999993" x2="1997.0651999999993" y1="150.0" y2="150.0" /><line stroke="rgb(0,0,0)" x1="1997.0651999999993" x2="2017.355899999999" y1="150.0" y2="150.0" /><line stroke="rgb(0,0,0)" x1="2017.355899999999" x2="2027.355899999999" y1="150.0" y2="150.0" /><line stroke="rgb(0,0,0)" x1="2027.355899999999" x2="2032.355899999999" y1="150.0" y2="150.0" /><line stroke="rgb(0,0,0)" x1="2032.355899999999" x2="2050.486349999999" y1="150.0" y2="150.0" /><line stroke="rgb(0,0,0)" x1="2050.486349999999" x2="2060.486349999999" y1="150.0" y2="150.0" /><line stroke="rgb(0,0,0)" x1="2060.486349999999" x2="2065.486349999999" y1="150.0" y2="150.0" /><line stroke="rgb(0,0,0)" x1="2065.486349999999" x2="2070.486349999999" y1="150.0" y2="150.0" /><line stroke="rgb(0,0,0)" x1="2070.486349999999" x2="2080.486349999999" y1="150.0" y2="150.0" /><line stroke="rgb(0,0,0)" x1="2080.486349999999" x2="2085.486349999999" y1="150.0" y2="150.0" /><line stroke="rgb(0,0,0)" x1="2085.486349999999" x2="2105.486349999999" y1="150.0" y2="150.0" /><line stroke="rgb(0,0,0)" x1="2105.486349999999" x2="2115.486349999999" y1="150.0" y2="150.0" /><line stroke="rgb(0,0,0)" x1="2115.486349999999" x2="2120.486349999999" y1="150.0" y2="150.0" /><line stroke="rgb(0,0,0)" x1="2120.486349999999" x2="2132.986349999999" y1="150.0" y2="150.0" /><line stroke="rgb(0,0,0)" x1="2132.986349999999" x2="2142.986349999999" y1="150.0" y2="150.0" /><line stroke="rgb(0,0,0)" x1="2142.986349999999" x2="2147.986349999999" y1="150.0" y2="150.0" /><line stroke="rgb(0,0,0)" x1="2147.986349999999" x2="2162.986349999999" y1="150.0" y2="150.0" /><line stroke="rgb(0,0,0)" x1="2162.986349999999" x2="2172.986349999999" y1="150.0" y2="150.0" /><line stroke="rgb(0,0,0)" x1="2172.986349999999" x2="2177.986349999999" y1="150.0" y2="150.0" /><line stroke="rgb(0,0,0)" x1="2177.986349999999" x2="2210.602399999999" y1="150.0" y2="150.0" /><line stroke="rgb(0,0,0)" x1="2210.602399999999" x2="2220.602399999999" y1="150.0" y2="150.0" /><line stroke="rgb(0,0,0)" x1="2220.602399999999" x2="2225.602399999999" y1="150.0" y2="150.0" /><line stroke="rgb(0,0,0)" x1="2225.602399999999" x2="2239.6023999999993" y1="150.0" y2="150.0" /><line stroke="rgb(0,0,0)" x1="2239.6023999999993" x2="2249.6023999999993" y1="150.0" y2="150.0" /><line stroke="rgb(0,0,0)" x1="2249.6023999999993" x2="2254.6023999999993" y1="150.0" y2="150.0" /><line stroke="rgb(0,0,0)" x1="2254.6023999999993" x2="2264.6023999999993" y1="150.0" y2="150.0" /><line stroke="rgb(0,0,0)" x1="2264.6023999999993" x2="2274.6023999999993" y1="150.0" y2="150.0" /><line stroke="rgb(0,0,0)" x1="2274.6023999999993" x2="2279.6023999999993" y1="150.0" y2="150.0" /><line stroke="rgb(0,0,0)" x1="2279.6023999999993" x2="2301.269049999999" y1="150.0" y2="150.0" /><line stroke="rgb(0,0,0)" x1="2301.269049999999" x2="2311.269049999999" y1="150.0" y2="150.0" /><line stroke="rgb(0,0,0)" x1="2311.269049999999" x2="2316.269049999999" y1="150.0" y2="150.0" /><line stroke="rgb(0,0,0)" x1="2316.269049999999" x2="2326.269049999999" y1="150.0" y2="150.0" /><line stroke="rgb(0,0,0)" x1="2326.269049999999" x2="2336.269049999999" y1="150.0" y2="150.0" /><line stroke="rgb(0,0,0)" x1="2336.269049999999" x2="2341.269049999999" y1="150.0" y2="150.0" /><line stroke="rgb(0,0,0)" x1="2341.269049999999" x2="2351.269049999999" y1="150.0" y2="150.0" /><line stroke="rgb(0,0,0)" x1="2351.269049999999" x2="2361.269049999999" y1="150.0" y2="150.0" /><line stroke="rgb(0,0,0)" x1="2361.269049999999" x2="2366.269049999999" y1="150.0" y2="150.0" /><rect fill="rgb(0,0,255)" height="0.4" stroke="rgb(0,0,0)" width="15.0" x="5.0" y="74.8" /><text fill="black" x="5.0" y="95.2">H0</text><rect fill="rgb(0,0,255)" height="0.0" stroke="rgb(0,0,0)" width="0.0" x="5.0" y="225.0" /><text fill="black" x="5.0" y="245.0">X1</text><rect fill="rgb(124,97,255)" height="35.6" stroke="rgb(0,0,0)" width="5.95505" x="40.0" y="132.2" /><text fill="black" x="40.0" y="187.8">E2</text><rect fill="rgb(255,39,50)" height="2.0" stroke="rgb(0,0,0)" width="16.0" x="65.95505" y="74.0" /><text fill="black" x="65.95505" y="96.0">H3</text><rect fill="rgb(0,0,255)" height="0.0" stroke="rgb(0,0,0)" width="0.0" x="65.95505" y="225.0" /><text fill="black" x="65.95505" y="245.0">X4</text><rect fill="rgb(0,0,255)" height="0.0" stroke="rgb(0,0,0)" width="0.0" x="101.95505" y="150.0" /><text fill="black" x="101.95505" y="170.0">X5</text><rect fill="rgb(0,0,255)" height="0.0" stroke="rgb(0,0,0)" width="0.0" x="121.95505" y="150.0" /><text fill="black" x="121.95505" y="170.0">X6</text><rect fill="rgb(0,0,255)" height="0.0" stroke="rgb(0,0,0)" width="0.0" x="141.95505" y="150.0" /><text fill="black" x="141.95505" y="170.0">X7</text><rect fill="rgb(0,0,255)" height="0.4" stroke="rgb(0,0,0)" width="15.0" x="161.95505" y="149.8" /><text fill="black" x="161.95505" y="170.2">H8</text><rect fill="rgb(0,0,255)" height="0.0" stroke="rgb(0,0,0)" width="0.0" x="196.95505" y="150.0" /><text fill="black" x="196.95505" y="170.0">X9</text><rect fill="rgb(0,0,255)" height="0.0" stroke="rgb(0,0,0)" width="0.0" x="216.95505" y="150.0" /><text fill="black" x="216.95505" y="170.0">X10</text><rect fill="rgb(255,113,144)" height="90.0" stroke="rgb(0,0,0)" width="24.35555" x="236.95505" y="105.0" /><text fill="black" x="236.95505" y="215.0">E11</text><rect fill="rgb(0,0,255)" height="0.4" stroke="rgb(0,0,0)" width="10.0" x="281.3106" y="149.8" /><text fill="black" x="281.3106" y="170.2">E12</text><rect fill="rgb(255,102,131)" height="2.0" stroke="rgb(0,0,0)" width="20.0" x="311.3106" y="149.0" /><text fill="black" x="311.3106" y="171.0">H13</text><rect fill="rgb(255,198,252)" height="43.6" stroke="rgb(0,0,0)" width="17.7523" x="351.3106" y="128.2" /><text fill="black" x="351.3106" y="191.8">E14</text><rect fill="rgb(255,136,174)" height="1.2" stroke="rgb(0,0,0)" width="11.66665" x="389.06290000000007" y="149.4" /><text fill="black" x="389.06290000000007" y="170.6">E15</text><rect fill="rgb(255,151,192)" height="16.8" stroke="rgb(0,0,0)" width="25.476200000000002" x="420.7295500000001" y="141.6" /><text fill="black" x="420.7295500000001" y="178.4">H16</text><rect fill="rgb(230,180,255)" height="2.4" stroke="rgb(0,0,0)" width="15.0" x="466.2057500000001" y="73.8" /><text fill="black" x="466.2057500000001" y="96.2">H17</text><rect fill="rgb(255,80,103)" height="1.2" stroke="rgb(0,0,0)" width="11.66665" x="466.2057500000001" y="224.4" /><text fill="black" x="466.2057500000001" y="245.6">E18</text><rect fill="rgb(255,152,194)" height="100.0" stroke="rgb(0,0,0)" width="40.519999999999996" x="501.2057500000001" y="100.0" /><text fill="black" x="501.2057500000001" y="220.0">E19</text><rect fill="rgb(0,0,255)" height="0.4" stroke="rgb(0,0,0)" width="5.0" x="561.7257500000001" y="149.8" /><text fill="black" x="561.7257500000001" y="170.2">E20</text><rect fill="rgb(171,134,255)" height="38.800000000000004" stroke="rgb(0,0,0)" width="5.82475" x="586.7257500000001" y="130.6" /><text fill="black" x="586.7257500000001" y="189.4">E21</text><rect fill="rgb(255,115,147)" height="4.3999999999999995" stroke="rgb(0,0,0)" width="19.090899999999998" x="612.5505" y="147.8" /><text fill="black" x="612.5505" y="172.2">H22</text><rect fill="rgb(248,194,255)" height="0.8" stroke="rgb(0,0,0)" width="5.0" x="651.6414" y="149.6" /><text fill="black" x="651.6414" y="170.4">E23</text><rect fill="rgb(250,196,255)" height="19.2" stroke="rgb(0,0,0)" width="16.97915" x="676.6414" y="140.4" /><text fill="black" x="676.6414" y="179.6">H24</text><rect fill="rgb(90,70,255)" height="2.8000000000000003" stroke="rgb(0,0,0)" width="6.4285499999999995" x="713.62055" y="148.6" /><text fill="black" x="713.62055" y="171.4">E25</text><rect fill="rgb(218,171,255)" height="99.6" stroke="rgb(0,0,0)" width="30.180699999999998" x="740.0491" y="100.2" /><text fill="black" x="740.0491" y="219.8">E26</text><rect fill="rgb(255,25,32)" height="2.0" stroke="rgb(0,0,0)" width="8.0" x="790.2297999999998" y="149.0" /><text fill="black" x="790.2297999999998" y="171.0">E27</text><rect fill="rgb(222,174,255)" height="2.8000000000000003" stroke="rgb(0,0,0)" width="15.0" x="818.2297999999998" y="148.6" /><text fill="black" x="818.2297999999998" y="171.4">H28</text><rect fill="rgb(255,45,58)" height="0.8" stroke="rgb(0,0,0)" width="5.0" x="853.2297999999998" y="149.6" /><text fill="black" x="853.2297999999998" y="170.4">E29</text><rect fill="rgb(255,162,207)" height="6.4" stroke="rgb(0,0,0)" width="15.3125" x="878.2297999999998" y="146.8" /><text fill="black" x="878.2297999999998" y="173.2">H30</text><rect fill="rgb(240,188,255)" height="1.6" stroke="rgb(0,0,0)" width="16.25" x="913.5422999999998" y="74.2" /><text fill="black" x="913.5422999999998" y="95.8">H31</text><rect fill="rgb(255,149,191)" height="1.2" stroke="rgb(0,0,0)" width="6.66665" x="913.5422999999998" y="224.4" /><text fill="black" x="913.5422999999998" y="245.6">E32</text><rect fill="rgb(255,67,86)" height="91.60000000000001" stroke="rgb(0,0,0)" width="20.04365" x="949.7922999999998" y="104.19999999999999" /><text fill="black" x="949.7922999999998" y="215.8">E33</text><rect fill="rgb(255,199,254)" height="7.6" stroke="rgb(0,0,0)" width="16.57895" x="989.8359499999998" y="146.2" /><text fill="black" x="989.8359499999998" y="173.8">H34</text><rect fill="rgb(255,187,239)" height="32.800000000000004" stroke="rgb(0,0,0)" width="12.073149999999998" x="1026.4148999999998" y="133.6" /><text fill="black" x="1026.4148999999998" y="186.4">E35</text><rect fill="rgb(109,85,255)" height="2.4" stroke="rgb(0,0,0)" width="5.0" x="1058.4880499999997" y="148.8" /><text fill="black" x="1058.4880499999997" y="171.2">E36</text><rect fill="rgb(197,154,255)" height="16.400000000000002" stroke="rgb(0,0,0)" width="15.2439" x="1083.4880499999997" y="141.8" /><text fill="black" x="1083.4880499999997" y="178.2">H37</text><rect fill="rgb(127,100,255)" height="3.2" stroke="rgb(0,0,0)" width="5.0" x="1118.7319499999996" y="148.4" /><text fill="black" x="1118.7319499999996" y="171.6">E38</text><rect fill="rgb(162,127,255)" height="36.0" stroke="rgb(0,0,0)" width="16.1111" x="1143.7319499999996" y="132.0" /><text fill="black" x="1143.7319499999996" y="188.0">H39</text><rect fill="rgb(255,58,74)" height="0.8" stroke="rgb(0,0,0)" width="12.5" x="1179.8430499999997" y="149.6" /><text fill="black" x="1179.8430499999997" y="170.4">E40</text><rect fill="rgb(255,166,211)" height="82.0" stroke="rgb(0,0,0)" width="21.41465" x="1212.3430499999997" y="109.0" /><text fill="black" x="1212.3430499999997" y="211.0">E41</text><rect fill="rgb(118,93,255)" height="34.4" stroke="rgb(0,0,0)" width="11.39535" x="1253.7576999999997" y="132.8" /><text fill="black" x="1253.7576999999997" y="187.2">E42</text><rect fill="rgb(255,142,182)" height="25.2" stroke="rgb(0,0,0)" width="15.31745" x="1285.1530499999994" y="137.4" /><text fill="black" x="1285.1530499999994" y="182.6">H43</text><rect fill="rgb(0,0,255)" height="0.4" stroke="rgb(0,0,0)" width="5.0" x="1320.4704999999994" y="149.8" /><text fill="black" x="1320.4704999999994" y="170.2">E44</text><rect fill="rgb(0,0,255)" height="0.0" stroke="rgb(0,0,0)" width="0.0" x="1345.4704999999994" y="150.0" /><text fill="black" x="1345.4704999999994" y="170.0">X45</text><rect fill="rgb(255,164,209)" height="99.6" stroke="rgb(0,0,0)" width="36.1245" x="1365.4704999999994" y="100.2" /><text fill="black" x="1365.4704999999994" y="219.8">E46</text><rect fill="rgb(0,0,255)" height="0.0" stroke="rgb(0,0,0)" width="0.0" x="1421.5949999999996" y="150.0" /><text fill="black" x="1421.5949999999996" y="170.0">X47</text><rect fill="rgb(137,107,255)" height="27.200000000000003" stroke="rgb(0,0,0)" width="23.161749999999998" x="1441.5949999999996" y="136.4" /><text fill="black" x="1441.5949999999996" y="183.6">H48</text><rect fill="rgb(255,1,2)" height="0.8" stroke="rgb(0,0,0)" width="5.0" x="1484.7567499999993" y="149.6" /><text fill="black" x="1484.7567499999993" y="170.4">E49</text><rect fill="rgb(0,0,255)" height="0.4" stroke="rgb(0,0,0)" width="5.0" x="1509.7567499999993" y="149.8" /><text fill="black" x="1509.7567499999993" y="170.2">E50</text><rect fill="rgb(0,0,255)" height="0.4" stroke="rgb(0,0,0)" width="15.0" x="1534.7567499999993" y="149.8" /><text fill="black" x="1534.7567499999993" y="170.2">H51</text><rect fill="rgb(0,0,255)" height="0.4" stroke="rgb(0,0,0)" width="5.0" x="1569.7567499999993" y="149.8" /><text fill="black" x="1569.7567499999993" y="170.2">E52</text><rect fill="rgb(222,174,255)" height="52.400000000000006" stroke="rgb(0,0,0)" width="16.5649" x="1594.7567499999993" y="123.8" /><text fill="black" x="1594.7567499999993" y="196.2">H53</text><rect fill="rgb(0,0,255)" height="0.4" stroke="rgb(0,0,0)" width="40.0" x="1631.3216499999994" y="149.8" /><text fill="black" x="1631.3216499999994" y="170.2">H54</text><rect fill="rgb(0,0,255)" height="0.4" stroke="rgb(0,0,0)" width="5.0" x="1691.3216499999994" y="149.8" /><text fill="black" x="1691.3216499999994" y="170.2">E55</text><rect fill="rgb(255,11,14)" height="1.2" stroke="rgb(0,0,0)" width="33.333349999999996" x="1716.3216499999994" y="149.4" /><text fill="black" x="1716.3216499999994" y="170.6">H56</text><rect fill="rgb(255,34,43)" height="1.2" stroke="rgb(0,0,0)" width="5.0" x="1769.6549999999993" y="149.4" /><text fill="black" x="1769.6549999999993" y="170.6">E57</text><rect fill="rgb(255,115,147)" height="1.2" stroke="rgb(0,0,0)" width="15.0" x="1794.6549999999993" y="149.4" /><text fill="black" x="1794.6549999999993" y="170.6">E58</text><rect fill="rgb(249,195,255)" height="99.2" stroke="rgb(0,0,0)" width="36.955650000000006" x="1829.6549999999993" y="100.4" /><text fill="black" x="1829.6549999999993" y="219.6">E59</text><rect fill="rgb(0,0,255)" height="0.4" stroke="rgb(0,0,0)" width="15.0" x="1886.6106499999992" y="149.8" /><text fill="black" x="1886.6106499999992" y="170.2">E60</text><rect fill="rgb(255,0,0)" height="0.8" stroke="rgb(0,0,0)" width="15.0" x="1921.6106499999992" y="149.6" /><text fill="black" x="1921.6106499999992" y="170.4">E61</text><rect fill="rgb(255,64,82)" height="4.3999999999999995" stroke="rgb(0,0,0)" width="20.45455" x="1956.6106499999992" y="147.8" /><text fill="black" x="1956.6106499999992" y="172.2">H62</text><rect fill="rgb(233,183,255)" height="34.4" stroke="rgb(0,0,0)" width="15.2907" x="1997.0651999999993" y="132.8" /><text fill="black" x="1997.0651999999993" y="187.2">H63</text><rect fill="rgb(255,147,187)" height="46.0" stroke="rgb(0,0,0)" width="13.13045" x="2032.355899999999" y="127.0" /><text fill="black" x="2032.355899999999" y="193.0">E64</text><rect fill="rgb(0,0,255)" height="0.0" stroke="rgb(0,0,0)" width="0.0" x="2065.486349999999" y="150.0" /><text fill="black" x="2065.486349999999" y="170.0">X65</text><rect fill="rgb(0,0,255)" height="0.4" stroke="rgb(0,0,0)" width="15.0" x="2085.486349999999" y="149.8" /><text fill="black" x="2085.486349999999" y="170.2">H66</text><rect fill="rgb(173,136,255)" height="0.8" stroke="rgb(0,0,0)" width="7.5" x="2120.486349999999" y="149.6" /><text fill="black" x="2120.486349999999" y="170.4">E67</text><rect fill="rgb(255,199,254)" height="0.8" stroke="rgb(0,0,0)" width="10.0" x="2147.986349999999" y="149.6" /><text fill="black" x="2147.986349999999" y="170.4">E68</text><rect fill="rgb(255,86,110)" height="94.8" stroke="rgb(0,0,0)" width="27.616049999999998" x="2177.986349999999" y="102.6" /><text fill="black" x="2177.986349999999" y="217.4">E69</text><rect fill="rgb(202,159,255)" height="6.0" stroke="rgb(0,0,0)" width="9.0" x="2225.602399999999" y="147.0" /><text fill="black" x="2225.602399999999" y="173.0">E70</text><rect fill="rgb(0,0,255)" height="0.4" stroke="rgb(0,0,0)" width="5.0" x="2254.6023999999993" y="149.8" /><text fill="black" x="2254.6023999999993" y="170.2">E71</text><rect fill="rgb(255,31,40)" height="3.5999999999999996" stroke="rgb(0,0,0)" width="16.66665" x="2279.6023999999993" y="148.2" /><text fill="black" x="2279.6023999999993" y="171.8">H72</text><rect fill="rgb(8,6,255)" height="0.8" stroke="rgb(0,0,0)" width="5.0" x="2316.269049999999" y="149.6" /><text fill="black" x="2316.269049999999" y="170.4">E73</text><rect fill="rgb(4,3,255)" height="0.8" stroke="rgb(0,0,0)" width="5.0" x="2341.269049999999" y="149.6" /><text fill="black" x="2341.269049999999" y="170.4">E74</text><rect fill="rgb(254,42,54)" height="2.8000000000000003" stroke="rgb(0,0,0)" width="31.42855" x="2366.269049999999" y="148.6" /><text fill="black" x="2366.269049999999" y="171.4">E75</text><path d="M 589.6381250000001,150.0 a 1290.8392582863023,1290.8392582863023 0 0,0 -546.6606,-0.0" stroke="rgb(124,97,255)" stroke-width="2" /><path d="M 589.6381250000001,150.0 a 1290.8392582863023,1290.8392582863023 0 0,0 -546.6606,-0.0" stroke="rgb(0,0,0)" stroke-width="0.2" /><path d="M 286.3106,150.0 a 45.71929477414092,45.71929477414092 0 0,0 -37.177775000000025,-0.0" stroke="rgb(255,113,144)" stroke-width="2" /><path d="M 286.3106,150.0 a 45.71929477414092,45.71929477414092 0 0,0 -37.177775000000025,-0.0" stroke="rgb(0,0,0)" stroke-width="0.2" /><path d="M 521.4657500000001,150.0 a 475.9291587411517,475.9291587411517 0 0,0 -272.33292500000005,-0.0" stroke="rgb(255,113,144)" stroke-width="2" /><path d="M 521.4657500000001,150.0 a 475.9291587411517,475.9291587411517 0 0,0 -272.33292500000005,-0.0" stroke="rgb(0,0,0)" stroke-width="0.2" /><path d="M 360.18675,150.0 a 7652.014754450311,7652.014754450311 0 0,0 1831.607624999999,-0.0" stroke="rgb(255,198,252)" stroke-width="2" /><path d="M 360.18675,150.0 a 7652.014754450311,7652.014754450311 0 0,0 1831.607624999999,-0.0" stroke="rgb(0,0,0)" stroke-width="0.2" /><path d="M 360.18675,150.0 a 7974.283041170268,7974.283041170268 0 0,0 1869.9156499999988,-0.0" stroke="rgb(255,198,252)" stroke-width="2" /><path d="M 360.18675,150.0 a 7974.283041170268,7974.283041170268 0 0,0 1869.9156499999988,-0.0" stroke="rgb(0,0,0)" stroke-width="0.2" /><path d="M 472.0390750000001,225.0 a 148.84486593149109,148.84486593149109 0 0,0 -77.14285000000001,-75.0" stroke="rgb(255,136,174)" stroke-width="2" /><path d="M 472.0390750000001,225.0 a 148.84486593149109,148.84486593149109 0 0,0 -77.14285000000001,-75.0" stroke="rgb(0,0,0)" stroke-width="0.2" /><path d="M 1383.5327499999994,150.0 a 2648.1499972819074,2648.1499972819074 0 0,0 -862.0669999999993,-0.0" stroke="rgb(255,152,194)" stroke-width="2" /><path d="M 1383.5327499999994,150.0 a 2648.1499972819074,2648.1499972819074 0 0,0 -862.0669999999993,-0.0" stroke="rgb(0,0,0)" stroke-width="0.2" /><path d="M 521.4657500000001,150.0 a 7894.6037429179005,7894.6037429179005 0 0,0 1860.5175749999987,-0.0" stroke="rgb(255,152,194)" stroke-width="2" /><path d="M 521.4657500000001,150.0 a 7894.6037429179005,7894.6037429179005 0 0,0 1860.5175749999987,-0.0" stroke="rgb(0,0,0)" stroke-width="0.2" /><path d="M 589.6381250000001,150.0 a 30.602691576760826,30.602691576760826 0 0,0 -25.412374999999997,-0.0" stroke="rgb(0,0,255)" stroke-width="2" /><path d="M 589.6381250000001,150.0 a 30.602691576760826,30.602691576760826 0 0,0 -25.412374999999997,-0.0" stroke="rgb(0,0,0)" stroke-width="0.2" /><path d="M 654.1414,150.0 a 83.15687252073101,83.15687252073101 0 0,0 -64.50327499999992,-0.0" stroke="rgb(171,134,255)" stroke-width="2" /><path d="M 654.1414,150.0 a 83.15687252073101,83.15687252073101 0 0,0 -64.50327499999992,-0.0" stroke="rgb(0,0,0)" stroke-width="0.2" /><path d="M 716.834825,150.0 a 181.44209559510324,181.44209559510324 0 0,0 -127.19669999999996,-0.0" stroke="rgb(171,134,255)" stroke-width="2" /><path d="M 716.834825,150.0 a 181.44209559510324,181.44209559510324 0 0,0 -127.19669999999996,-0.0" stroke="rgb(0,0,0)" stroke-width="0.2" /><path d="M 959.8141249999999,150.0 a 326.955190382616,326.955190382616 0 0,0 -204.67467499999998,-0.0" stroke="rgb(218,171,255)" stroke-width="2" /><path d="M 959.8141249999999,150.0 a 326.955190382616,326.955190382616 0 0,0 -204.67467499999998,-0.0" stroke="rgb(0,0,0)" stroke-width="0.2" /><path d="M 1848.1328249999992,150.0 a 3927.876871775793,3927.876871775793 0 0,0 -1092.9933749999993,-0.0" stroke="rgb(218,171,255)" stroke-width="2" /><path d="M 1848.1328249999992,150.0 a 3927.876871775793,3927.876871775793 0 0,0 -1092.9933749999993,-0.0" stroke="rgb(0,0,0)" stroke-width="0.2" /><path d="M 855.7297999999998,150.0 a 78.882501947009,78.882501947009 0 0,0 -61.5,-0.0" stroke="rgb(255,25,32)" stroke-width="2" /><path d="M 855.7297999999998,150.0 a 78.882501947009,78.882501947009 0 0,0 -61.5,-0.0" stroke="rgb(0,0,0)" stroke-width="0.2" /><path d="M 916.8756249999998,225.0 a 210.30859307570876,210.30859307570876 0 0,0 -122.64582499999995,-75.0" stroke="rgb(255,25,32)" stroke-width="2" /><path d="M 916.8756249999998,225.0 a 210.30859307570876,210.30859307570876 0 0,0 -122.64582499999995,-75.0" stroke="rgb(0,0,0)" stroke-width="0.2" /><path d="M 1032.4514749999998,150.0 a 94.93215057047951,94.93215057047951 0 0,0 -72.63734999999997,-0.0" stroke="rgb(255,67,86)" stroke-width="2" /><path d="M 1032.4514749999998,150.0 a 94.93215057047951,94.93215057047951 0 0,0 -72.63734999999997,-0.0" stroke="rgb(0,0,0)" stroke-width="0.2" /><path d="M 1060.9880499999997,150.0 a 34.55809350172487,34.55809350172487 0 0,0 -28.536574999999857,-0.0" stroke="rgb(255,187,239)" stroke-width="2" /><path d="M 1060.9880499999997,150.0 a 34.55809350172487,34.55809350172487 0 0,0 -28.536574999999857,-0.0" stroke="rgb(0,0,0)" stroke-width="0.2" /><path d="M 1186.0930499999997,150.0 a 228.10913875976155,228.10913875976155 0 0,0 -153.64157499999988,-0.0" stroke="rgb(255,187,239)" stroke-width="2" /><path d="M 1186.0930499999997,150.0 a 228.10913875976155,228.10913875976155 0 0,0 -153.64157499999988,-0.0" stroke="rgb(0,0,0)" stroke-width="0.2" /><path d="M 1121.2319499999996,150.0 a 51.06134470336514,51.06134470336514 0 0,0 101.81842500000016,-0.0" stroke="rgb(127,100,255)" stroke-width="2" /><path d="M 1121.2319499999996,150.0 a 51.06134470336514,51.06134470336514 0 0,0 101.81842500000016,-0.0" stroke="rgb(0,0,0)" stroke-width="0.2" /><path d="M 1383.5327499999994,150.0 a 240.68636170369172,240.68636170369172 0 0,0 -160.4823749999996,-0.0" stroke="rgb(255,166,211)" stroke-width="2" /><path d="M 1383.5327499999994,150.0 a 240.68636170369172,240.68636170369172 0 0,0 -160.4823749999996,-0.0" stroke="rgb(0,0,0)" stroke-width="0.2" /><path d="M 1322.9704999999994,150.0 a 81.74613953596797,81.74613953596797 0 0,0 -63.5151249999999,-0.0" stroke="rgb(118,93,255)" stroke-width="2" /><path d="M 1322.9704999999994,150.0 a 81.74613953596797,81.74613953596797 0 0,0 -63.5151249999999,-0.0" stroke="rgb(0,0,0)" stroke-width="0.2" /><path d="M 1383.5327499999994,150.0 a 176.14181159487907,176.14181159487907 0 0,0 -124.07737499999985,-0.0" stroke="rgb(118,93,255)" stroke-width="2" /><path d="M 1383.5327499999994,150.0 a 176.14181159487907,176.14181159487907 0 0,0 -124.07737499999985,-0.0" stroke="rgb(0,0,0)" stroke-width="0.2" /><path d="M 1772.1549999999993,150.0 a 505.85349478402645,505.85349478402645 0 0,0 -284.89824999999996,-0.0" stroke="rgb(255,1,2)" stroke-width="2" /><path d="M 1772.1549999999993,150.0 a 505.85349478402645,505.85349478402645 0 0,0 -284.89824999999996,-0.0" stroke="rgb(0,0,0)" stroke-width="0.2" /><path d="M 1572.2567499999993,150.0 a 76.7624403085854,76.7624403085854 0 0,0 -60.0,-0.0" stroke="rgb(0,0,255)" stroke-width="2" /><path d="M 1572.2567499999993,150.0 a 76.7624403085854,76.7624403085854 0 0,0 -60.0,-0.0" stroke="rgb(0,0,0)" stroke-width="0.2" /><path d="M 1772.1549999999993,150.0 a 103.35081262583455,103.35081262583455 0 0,0 -78.33334999999988,-0.0" stroke="rgb(0,0,255)" stroke-width="2" /><path d="M 1772.1549999999993,150.0 a 103.35081262583455,103.35081262583455 0 0,0 -78.33334999999988,-0.0" stroke="rgb(0,0,0)" stroke-width="0.2" /><path d="M 2191.794374999999,150.0 a 782.8953841868456,782.8953841868456 0 0,0 -389.63937499999975,-0.0" stroke="rgb(255,115,147)" stroke-width="2" /><path d="M 2191.794374999999,150.0 a 782.8953841868456,782.8953841868456 0 0,0 -389.63937499999975,-0.0" stroke="rgb(0,0,0)" stroke-width="0.2" /><path d="M 2038.9211249999992,150.0 a 298.90967784312943,298.90967784312943 0 0,0 -190.78829999999994,-0.0" stroke="rgb(249,195,255)" stroke-width="2" /><path d="M 2038.9211249999992,150.0 a 298.90967784312943,298.90967784312943 0 0,0 -190.78829999999994,-0.0" stroke="rgb(0,0,0)" stroke-width="0.2" /><path d="M 2152.986349999999,150.0 a 554.8329609171908,554.8329609171908 0 0,0 -304.853525,-0.0" stroke="rgb(249,195,255)" stroke-width="2" /><path d="M 2152.986349999999,150.0 a 554.8329609171908,554.8329609171908 0 0,0 -304.853525,-0.0" stroke="rgb(0,0,0)" stroke-width="0.2" /><path d="M 2191.794374999999,150.0 a 655.2078919386779,655.2078919386779 0 0,0 -343.6615499999998,-0.0" stroke="rgb(249,195,255)" stroke-width="2" /><path d="M 2191.794374999999,150.0 a 655.2078919386779,655.2078919386779 0 0,0 -343.6615499999998,-0.0" stroke="rgb(0,0,0)" stroke-width="0.2" /><path d="M 1929.1106499999992,150.0 a 42.875801627390544,42.875801627390544 0 0,0 -35.0,-0.0" stroke="rgb(0,0,255)" stroke-width="2" /><path d="M 1929.1106499999992,150.0 a 42.875801627390544,42.875801627390544 0 0,0 -35.0,-0.0" stroke="rgb(0,0,0)" stroke-width="0.2" /><path d="M 2038.9211249999992,150.0 a 152.44846262263007,152.44846262263007 0 0,0 -109.810475,-0.0" stroke="rgb(255,0,0)" stroke-width="2" /><path d="M 2038.9211249999992,150.0 a 152.44846262263007,152.44846262263007 0 0,0 -109.810475,-0.0" stroke="rgb(0,0,0)" stroke-width="0.2" /><path d="M 2152.986349999999,150.0 a 34.829847981510426,34.829847981510426 0 0,0 -28.75,-0.0" stroke="rgb(173,136,255)" stroke-width="2" /><path d="M 2152.986349999999,150.0 a 34.829847981510426,34.829847981510426 0 0,0 -28.75,-0.0" stroke="rgb(0,0,0)" stroke-width="0.2" /><path d="M 2257.1023999999993,150.0 a 32.6074108106782,32.6074108106782 0 0,0 -27.000000000000455,-0.0" stroke="rgb(202,159,255)" stroke-width="2" /><path d="M 2257.1023999999993,150.0 a 32.6074108106782,32.6074108106782 0 0,0 -27.000000000000455,-0.0" stroke="rgb(0,0,0)" stroke-width="0.2" /><path d="M 2343.769049999999,150.0 a 30.083769608815683,30.083769608815683 0 0,0 -25.0,-0.0" stroke="rgb(8,6,255)" stroke-width="2" /><path d="M 2343.769049999999,150.0 a 30.083769608815683,30.083769608815683 0 0,0 -25.0,-0.0" stroke="rgb(0,0,0)" stroke-width="0.2" /></svg>