<?xml version="1.0" encoding="utf-8" ?>
<svg baseProfile="full" height="100%" style="font-size:14;font-family:Sans, Arial;stroke-width:1;fill:none" version="1.1" width="100%" xmlns="http://www.w3.org/2000/svg" xmlns:ev="http://www.w3.org/2001/xml-events" xmlns:xlink="http://www.w3.org/1999/xlink"><defs /><rect fill="none" height="130.0" stroke="none" width="939.7877000000003" x="0" y="0" /><line stroke="rgb(0,0,0)" x1="5.0" x2="15.95505" y1="55.0" y2="55.0" /><line stroke="rgb(0,0,0)" x1="15.95505" x2="35.95505" y1="55.0" y2="55.0" /><line stroke="rgb(0,0,0)" x1="35.95505" x2="40.95505" y1="55.0" y2="55.0" /><line stroke="rgb(0,0,0)" x1="40.95505" x2="70.3106" y1="55.0" y2="55.0" /><line stroke="rgb(0,0,0)" x1="70.3106" x2="90.3106" y1="55.0" y2="55.0" /><line stroke="rgb(0,0,0)" x1="90.3106" x2="95.3106" y1="55.0" y2="55.0" /><line stroke="rgb(0,0,0)" x1="95.3106" x2="118.06290000000001" y1="55.0" y2="55.0" /><line stroke="rgb(0,0,0)" x1="118.06290000000001" x2="138.0629" y1="55.0" y2="55.0" /><line stroke="rgb(0,0,0)" x1="138.0629" x2="143.0629" y1="55.0" y2="55.0" /><line stroke="rgb(0,0,0)" x1="143.0629" x2="188.5829" y1="55.0" y2="55.0" /><line stroke="rgb(0,0,0)" x1="188.5829" x2="208.5829" y1="55.0" y2="55.0" /><line stroke="rgb(0,0,0)" x1="208.5829" x2="213.5829" y1="55.0" y2="55.0" /><line stroke="rgb(0,0,0)" x1="213.5829" x2="224.40765" y1="55.0" y2="55.0" /><line stroke="rgb(0,0,0)" x1="224.40765" x2="244.40765" y1="55.0" y2="55.0" /><line stroke="rgb(0,0,0)" x1="244.40765" x2="249.40765" y1="55.0" y2="55.0" /><line stroke="rgb(0,0,0)" x1="249.40765" x2="284.58835" y1="55.0" y2="55.0" /><line stroke="rgb(0,0,0)" x1="284.58835" x2="304.58835" y1="55.0" y2="55.0" /><line stroke="rgb(0,0,0)" x1="304.58835" x2="309.58835" y1="55.0" y2="55.0" /><line stroke="rgb(0,0,0)" x1="309.58835" x2="334.632" y1="55.0" y2="55.0" /><line stroke="rgb(0,0,0)" x1="334.632" x2="354.632" y1="55.0" y2="55.0" /><line stroke="rgb(0,0,0)" x1="354.632" x2="359.632" y1="55.0" y2="55.0" /><line stroke="rgb(0,0,0)" x1="359.632" x2="376.70515" y1="55.0" y2="55.0" /><line stroke="rgb(0,0,0)" x1="376.70515" x2="396.70515" y1="55.0" y2="55.0" /><line stroke="rgb(0,0,0)" x1="396.70515" x2="401.70515" y1="55.0" y2="55.0" /><line stroke="rgb(0,0,0)" x1="401.70515" x2="422.8162500000001" y1="55.0" y2="55.0" /><line stroke="rgb(0,0,0)" x1="422.8162500000001" x2="442.8162500000001" y1="55.0" y2="55.0" /><line stroke="rgb(0,0,0)" x1="442.8162500000001" x2="447.8162500000001" y1="55.0" y2="55.0" /><line stroke="rgb(0,0,0)" x1="447.8162500000001" x2="474.2309" y1="55.0" y2="55.0" /><line stroke="rgb(0,0,0)" x1="474.2309" x2="494.2309" y1="55.0" y2="55.0" /><line stroke="rgb(0,0,0)" x1="494.2309" x2="499.2309" y1="55.0" y2="55.0" /><line stroke="rgb(0,0,0)" x1="499.2309" x2="515.62625" y1="55.0" y2="55.0" /><line stroke="rgb(0,0,0)" x1="515.62625" x2="535.62625" y1="55.0" y2="55.0" /><line stroke="rgb(0,0,0)" x1="535.62625" x2="540.62625" y1="55.0" y2="55.0" /><line stroke="rgb(0,0,0)" x1="540.62625" x2="560.9437" y1="55.0" y2="55.0" /><line stroke="rgb(0,0,0)" x1="560.9437" x2="580.9437" y1="55.0" y2="55.0" /><line stroke="rgb(0,0,0)" x1="580.9437" x2="585.9437" y1="55.0" y2="55.0" /><line stroke="rgb(0,0,0)" x1="585.9437" x2="627.0682" y1="55.0" y2="55.0" /><line stroke="rgb(0,0,0)" x1="627.0682" x2="647.0682" y1="55.0" y2="55.0" /><line stroke="rgb(0,0,0)" x1="647.0682" x2="652.0682" y1="55.0" y2="55.0" /><line stroke="rgb(0,0,0)" x1="652.0682" x2="680.2299500000001" y1="55.0" y2="55.0" /><line stroke="rgb(0,0,0)" x1="680.2299500000001" x2="700.2299500000001" y1="55.0" y2="55.0" /><line stroke="rgb(0,0,0)" x1="700.2299500000001" x2="705.2299500000001" y1="55.0" y2="55.0" /><line stroke="rgb(0,0,0)" x1="705.2299500000001" x2="726.7948500000001" y1="55.0" y2="55.0" /><line stroke="rgb(0,0,0)" x1="726.7948500000001" x2="746.7948500000001" y1="55.0" y2="55.0" /><line stroke="rgb(0,0,0)" x1="746.7948500000001" x2="751.7948500000001" y1="55.0" y2="55.0" /><line stroke="rgb(0,0,0)" x1="751.7948500000001" x2="793.7505000000001" y1="55.0" y2="55.0" /><line stroke="rgb(0,0,0)" x1="793.7505000000001" x2="813.7505000000001" y1="55.0" y2="55.0" /><line stroke="rgb(0,0,0)" x1="813.7505000000001" x2="818.7505000000001" y1="55.0" y2="55.0" /><line stroke="rgb(0,0,0)" x1="818.7505000000001" x2="839.0412000000002" y1="55.0" y2="55.0" /><line stroke="rgb(0,0,0)" x1="839.0412000000002" x2="859.0412000000002" y1="55.0" y2="55.0" /><line stroke="rgb(0,0,0)" x1="859.0412000000002" x2="864.0412000000002" y1="55.0" y2="55.0" /><line stroke="rgb(0,0,0)" x1="864.0412000000002" x2="882.1716500000002" y1="55.0" y2="55.0" /><line stroke="rgb(0,0,0)" x1="882.1716500000002" x2="902.1716500000002" y1="55.0" y2="55.0" /><line stroke="rgb(0,0,0)" x1="902.1716500000002" x2="907.1716500000002" y1="55.0" y2="55.0" /><rect fill="rgb(150,255,150)" height="35.6" stroke="rgb(0,0,0)" width="5.95505" x="5.0" y="37.2" /><text fill="black" x="5.0" y="92.8">E2</text><rect fill="rgb(150,150,255)" height="90.0" stroke="rgb(0,0,0)" width="24.35555" x="40.95505" y="10.0" /><text fill="black" x="40.95505" y="120.0">E11</text><rect fill="rgb(255,150,150)" height="43.6" stroke="rgb(0,0,0)" width="17.7523" x="95.3106" y="33.2" /><text fill="black" x="95.3106" y="96.8">E14</text><rect fill="rgb(150,150,255)" height="100.0" stroke="rgb(0,0,0)" width="40.519999999999996" x="143.0629" y="5.0" /><text fill="black" x="143.0629" y="125.0">E19</text><rect fill="rgb(150,255,150)" height="38.800000000000004" stroke="rgb(0,0,0)" width="5.82475" x="213.5829" y="35.599999999999994" /><text fill="black" x="213.5829" y="94.4">E21</text><rect fill="rgb(255,150,150)" height="99.6" stroke="rgb(0,0,0)" width="30.180699999999998" x="249.40765" y="5.200000000000003" /><text fill="black" x="249.40765" y="124.8">E26</text><rect fill="rgb(255,150,150)" height="91.60000000000001" stroke="rgb(0,0,0)" width="20.04365" x="309.58835" y="9.199999999999996" /><text fill="black" x="309.58835" y="120.80000000000001">E33</text><rect fill="rgb(255,150,150)" height="32.800000000000004" stroke="rgb(0,0,0)" width="12.073149999999998" x="359.632" y="38.599999999999994" /><text fill="black" x="359.632" y="91.4">E35</text><rect fill="rgb(150,150,150)" height="36.0" stroke="rgb(0,0,0)" width="16.1111" x="401.70515" y="37.0" /><text fill="black" x="401.70515" y="93.0">H39</text><rect fill="rgb(150,150,255)" height="82.0" stroke="rgb(0,0,0)" width="21.41465" x="447.8162500000001" y="14.0" /><text fill="black" x="447.8162500000001" y="116.0">E41</text><rect fill="rgb(150,150,255)" height="34.4" stroke="rgb(0,0,0)" width="11.39535" x="499.2309" y="37.8" /><text fill="black" x="499.2309" y="92.2">E42</text><rect fill="rgb(150,150,150)" height="25.2" stroke="rgb(0,0,0)" width="15.31745" x="540.62625" y="42.4" /><text fill="black" x="540.62625" y="87.6">H43</text><rect fill="rgb(150,150,255)" height="99.6" stroke="rgb(0,0,0)" width="36.1245" x="585.9437" y="5.200000000000003" /><text fill="black" x="585.9437" y="124.8">E46</text><rect fill="rgb(150,150,150)" height="27.200000000000003" stroke="rgb(0,0,0)" width="23.161749999999998" x="652.0682" y="41.4" /><text fill="black" x="652.0682" y="88.6">H48</text><rect fill="rgb(150,150,150)" height="52.400000000000006" stroke="rgb(0,0,0)" width="16.5649" x="705.2299500000001" y="28.799999999999997" /><text fill="black" x="705.2299500000001" y="101.2">H53</text><rect fill="rgb(255,150,150)" height="99.2" stroke="rgb(0,0,0)" width="36.955650000000006" x="751.7948500000001" y="5.399999999999999" /><text fill="black" x="751.7948500000001" y="124.6">E59</text><rect fill="rgb(150,150,150)" height="34.4" stroke="rgb(0,0,0)" width="15.2907" x="818.7505000000001" y="37.8" /><text fill="black" x="818.7505000000001" y="92.2">H63</text><rect fill="rgb(255,150,150)" height="46.0" stroke="rgb(0,0,0)" width="13.13045" x="864.0412000000002" y="32.0" /><text fill="black" x="864.0412000000002" y="98.0">E64</text><rect fill="rgb(255,150,150)" height="94.8" stroke="rgb(0,0,0)" width="27.616049999999998" x="907.1716500000002" y="7.600000000000001" /><text fill="black" x="907.1716500000002" y="122.4">E69</text><path d="M 216.495275,55.0 a 202.3542571914148,202.3542571914148 0 0,0 -208.51774999999998,-0.0" stroke="rgb(150,255,150)" stroke-width="2" /><path d="M 216.495275,55.0 a 202.3542571914148,202.3542571914148 0 0,0 -208.51774999999998,-0.0" stroke="rgb(0,0,0)" stroke-width="0.2" /><path d="M 163.3229,55.0 a 84.82921280136128,84.82921280136128 0 0,0 -110.19007500000001,-0.0" stroke="rgb(150,150,255)" stroke-width="2" /><path d="M 163.3229,55.0 a 84.82921280136128,84.82921280136128 0 0,0 -110.19007500000001,-0.0" stroke="rgb(0,0,0)" stroke-width="0.2" /><path d="M 104.18674999999999,55.0 a 1543.7515507501275,1543.7515507501275 0 0,0 816.7929250000003,-0.0" stroke="rgb(255,150,150)" stroke-width="2" /><path d="M 104.18674999999999,55.0 a 1543.7515507501275,1543.7515507501275 0 0,0 816.7929250000003,-0.0" stroke="rgb(0,0,0)" stroke-width="0.2" /><path d="M 604.00595,55.0 a 648.8942453936195,648.8942453936195 0 0,0 -440.68305,-0.0" stroke="rgb(150,150,255)" stroke-width="2" /><path d="M 604.00595,55.0 a 648.8942453936195,648.8942453936195 0 0,0 -440.68305,-0.0" stroke="rgb(0,0,0)" stroke-width="0.2" /><path d="M 319.61017499999997,55.0 a 36.680869047424395,36.680869047424395 0 0,0 -55.11217499999998,-0.0" stroke="rgb(255,150,150)" stroke-width="2" /><path d="M 319.61017499999997,55.0 a 36.680869047424395,36.680869047424395 0 0,0 -55.11217499999998,-0.0" stroke="rgb(0,0,0)" stroke-width="0.2" /><path d="M 770.2726750000002,55.0 a 817.4860252449259,817.4860252449259 0 0,0 -505.7746750000002,-0.0" stroke="rgb(255,150,150)" stroke-width="2" /><path d="M 770.2726750000002,55.0 a 817.4860252449259,817.4860252449259 0 0,0 -505.7746750000002,-0.0" stroke="rgb(0,0,0)" stroke-width="0.2" /><path d="M 365.66857500000003,55.0 a 29.90884057340493,29.90884057340493 0 0,0 -46.05840000000006,-0.0" stroke="rgb(255,150,150)" stroke-width="2" /><path d="M 365.66857500000003,55.0 a 29.90884057340493,29.90884057340493 0 0,0 -46.05840000000006,-0.0" stroke="rgb(0,0,0)" stroke-width="0.2" /><path d="M 604.00595,55.0 a 122.24762029461142,122.24762029461142 0 0,0 -145.48237499999988,-0.0" stroke="rgb(150,150,255)" stroke-width="2" /><path d="M 604.00595,55.0 a 122.24762029461142,122.24762029461142 0 0,0 -145.48237499999988,-0.0" stroke="rgb(0,0,0)" stroke-width="0.2" /><path d="M 604.00595,55.0 a 74.12565352684305,74.12565352684305 0 0,0 -99.07737499999996,-0.0" stroke="rgb(150,150,255)" stroke-width="2" /><path d="M 604.00595,55.0 a 74.12565352684305,74.12565352684305 0 0,0 -99.07737499999996,-0.0" stroke="rgb(0,0,0)" stroke-width="0.2" /><path d="M 870.6064250000003,55.0 a 75.31022269094778,75.31022269094778 0 0,0 -100.33375000000012,-0.0" stroke="rgb(255,150,150)" stroke-width="2" /><path d="M 870.6064250000003,55.0 a 75.31022269094778,75.31022269094778 0 0,0 -100.33375000000012,-0.0" stroke="rgb(0,0,0)" stroke-width="0.2" /><path d="M 920.9796750000003,55.0 a 128.23559670825483,128.23559670825483 0 0,0 -150.7070000000001,-0.0" stroke="rgb(255,150,150)" stroke-width="2" /><path d="M 920.9796750000003,55.0 a 128.23559670825483,128.23559670825483 0 0,0 -150.7070000000001,-0.0" stroke="rgb(0,0,0)" stroke-width="0.2" /></svg>