<?xml version="1.0" encoding="utf-8" ?>
<svg baseProfile="full" height="100%" style="font-size:14;font-family:Sans, Arial;stroke-width:1;fill:none" version="1.1" width="100%" xmlns="http://www.w3.org/2000/svg" xmlns:ev="http://www.w3.org/2001/xml-events" xmlns:xlink="http://www.w3.org/1999/xlink"><defs /><rect fill="none" height="300.0" stroke="none" width="3305.9479000000006" x="0" y="0" /><line stroke="rgb(0,0,0)" x1="5.0" x2="21.13635" y1="150.0" y2="150.0" /><line stroke="rgb(0,0,0)" x1="21.13635" x2="31.13635" y1="150.0" y2="150.0" /><line stroke="rgb(0,0,0)" x1="31.13635" x2="36.13635" y1="150.0" y2="150.0" /><line stroke="rgb(0,0,0)" x1="36.13635" x2="46.13635" y1="150.0" y2="150.0" /><line stroke="rgb(0,0,0)" x1="46.13635" x2="56.13635000000001" y1="150.0" y2="150.0" /><line stroke="rgb(0,0,0)" x1="56.13635000000001" x2="61.13635000000001" y1="150.0" y2="150.0" /><line stroke="rgb(0,0,0)" x1="61.13635000000001" x2="75.61005" y1="150.0" y2="150.0" /><line stroke="rgb(0,0,0)" x1="75.61005" x2="85.61005000000002" y1="150.0" y2="75.0" /><line stroke="rgb(0,0,0)" x1="85.61005000000002" x2="90.61005000000002" y1="75.0" y2="75.0" /><line stroke="rgb(0,0,0)" x1="61.13635000000001" x2="75.61005" y1="150.0" y2="150.0" /><line stroke="rgb(0,0,0)" x1="75.61005" x2="85.61005000000002" y1="150.0" y2="225.0" /><line stroke="rgb(0,0,0)" x1="85.61005000000002" x2="90.61005000000002" y1="225.0" y2="225.0" /><line stroke="rgb(0,0,0)" x1="90.61005000000002" x2="100.61005000000002" y1="75.0" y2="75.0" /><line stroke="rgb(0,0,0)" x1="100.61005000000002" x2="153.11005" y1="75.0" y2="75.0" /><line stroke="rgb(0,0,0)" x1="153.11005" x2="158.11005" y1="75.0" y2="75.0" /><line stroke="rgb(0,0,0)" x1="90.61005000000002" x2="143.11005" y1="225.0" y2="225.0" /><line stroke="rgb(0,0,0)" x1="143.11005" x2="153.11005" y1="225.0" y2="225.0" /><line stroke="rgb(0,0,0)" x1="153.11005" x2="158.11005" y1="225.0" y2="225.0" /><line stroke="rgb(0,0,0)" x1="158.11005" x2="168.11005" y1="75.0" y2="75.0" /><line stroke="rgb(0,0,0)" x1="168.11005" x2="243.00605000000002" y1="75.0" y2="150.0" /><line stroke="rgb(0,0,0)" x1="243.00605000000002" x2="248.00605000000002" y1="150.0" y2="150.0" /><line stroke="rgb(0,0,0)" x1="248.00605000000002" x2="258.00605" y1="150.0" y2="150.0" /><line stroke="rgb(0,0,0)" x1="258.00605" x2="268.00605" y1="150.0" y2="150.0" /><line stroke="rgb(0,0,0)" x1="268.00605" x2="273.00605" y1="150.0" y2="150.0" /><line stroke="rgb(0,0,0)" x1="158.11005" x2="233.00605000000002" y1="225.0" y2="225.0" /><line stroke="rgb(0,0,0)" x1="233.00605000000002" x2="268.00605" y1="225.0" y2="150.0" /><line stroke="rgb(0,0,0)" x1="268.00605" x2="273.00605" y1="150.0" y2="150.0" /><line stroke="rgb(0,0,0)" x1="273.00605" x2="283.00605" y1="150.0" y2="150.0" /><line stroke="rgb(0,0,0)" x1="283.00605" x2="293.00605" y1="150.0" y2="75.0" /><line stroke="rgb(0,0,0)" x1="293.00605" x2="298.00605" y1="75.0" y2="75.0" /><line stroke="rgb(0,0,0)" x1="273.00605" x2="283.00605" y1="150.0" y2="150.0" /><line stroke="rgb(0,0,0)" x1="283.00605" x2="293.00605" y1="150.0" y2="225.0" /><line stroke="rgb(0,0,0)" x1="293.00605" x2="298.00605" y1="225.0" y2="225.0" /><line stroke="rgb(0,0,0)" x1="298.00605" x2="321.89495" y1="75.0" y2="75.0" /><line stroke="rgb(0,0,0)" x1="321.89495" x2="331.89495" y1="75.0" y2="150.0" /><line stroke="rgb(0,0,0)" x1="331.89495" x2="336.89495" y1="150.0" y2="150.0" /><line stroke="rgb(0,0,0)" x1="298.00605" x2="309.00605" y1="225.0" y2="225.0" /><line stroke="rgb(0,0,0)" x1="309.00605" x2="331.89495" y1="225.0" y2="150.0" /><line stroke="rgb(0,0,0)" x1="331.89495" x2="336.89495" y1="150.0" y2="150.0" /><line stroke="rgb(0,0,0)" x1="336.89495" x2="370.54955" y1="150.0" y2="150.0" /><line stroke="rgb(0,0,0)" x1="370.54955" x2="380.54955" y1="150.0" y2="150.0" /><line stroke="rgb(0,0,0)" x1="380.54955" x2="385.54955" y1="150.0" y2="150.0" /><line stroke="rgb(0,0,0)" x1="385.54955" x2="407.2162" y1="150.0" y2="150.0" /><line stroke="rgb(0,0,0)" x1="407.2162" x2="417.2162" y1="150.0" y2="75.0" /><line stroke="rgb(0,0,0)" x1="417.2162" x2="422.2162" y1="75.0" y2="75.0" /><line stroke="rgb(0,0,0)" x1="385.54955" x2="407.2162" y1="150.0" y2="150.0" /><line stroke="rgb(0,0,0)" x1="407.2162" x2="417.2162" y1="150.0" y2="225.0" /><line stroke="rgb(0,0,0)" x1="417.2162" x2="422.2162" y1="225.0" y2="225.0" /><line stroke="rgb(0,0,0)" x1="422.2162" x2="447.2162" y1="75.0" y2="75.0" /><line stroke="rgb(0,0,0)" x1="447.2162" x2="457.2162" y1="75.0" y2="150.0" /><line stroke="rgb(0,0,0)" x1="457.2162" x2="462.2162" y1="150.0" y2="150.0" /><line stroke="rgb(0,0,0)" x1="422.2162" x2="444.9189" y1="225.0" y2="225.0" /><line stroke="rgb(0,0,0)" x1="444.9189" x2="457.2162" y1="225.0" y2="150.0" /><line stroke="rgb(0,0,0)" x1="457.2162" x2="462.2162" y1="150.0" y2="150.0" /><line stroke="rgb(0,0,0)" x1="462.2162" x2="544.5252" y1="150.0" y2="150.0" /><line stroke="rgb(0,0,0)" x1="544.5252" x2="554.5252" y1="150.0" y2="150.0" /><line stroke="rgb(0,0,0)" x1="554.5252" x2="559.5252" y1="150.0" y2="150.0" /><line stroke="rgb(0,0,0)" x1="559.5252" x2="569.5252" y1="150.0" y2="150.0" /><line stroke="rgb(0,0,0)" x1="569.5252" x2="579.5252" y1="150.0" y2="150.0" /><line stroke="rgb(0,0,0)" x1="579.5252" x2="584.5252" y1="150.0" y2="150.0" /><line stroke="rgb(0,0,0)" x1="584.5252" x2="605.3585499999999" y1="150.0" y2="150.0" /><line stroke="rgb(0,0,0)" x1="605.3585499999999" x2="615.3585499999999" y1="150.0" y2="150.0" /><line stroke="rgb(0,0,0)" x1="615.3585499999999" x2="620.3585499999999" y1="150.0" y2="150.0" /><line stroke="rgb(0,0,0)" x1="620.3585499999999" x2="632.5014" y1="150.0" y2="150.0" /><line stroke="rgb(0,0,0)" x1="632.5014" x2="642.5013999999999" y1="150.0" y2="75.0" /><line stroke="rgb(0,0,0)" x1="642.5013999999999" x2="647.5013999999999" y1="75.0" y2="75.0" /><line stroke="rgb(0,0,0)" x1="620.3585499999999" x2="632.5014" y1="150.0" y2="150.0" /><line stroke="rgb(0,0,0)" x1="632.5014" x2="642.5013999999999" y1="150.0" y2="225.0" /><line stroke="rgb(0,0,0)" x1="642.5013999999999" x2="647.5013999999999" y1="225.0" y2="225.0" /><line stroke="rgb(0,0,0)" x1="647.5013999999999" x2="670.83475" y1="75.0" y2="75.0" /><line stroke="rgb(0,0,0)" x1="670.83475" x2="680.83475" y1="75.0" y2="150.0" /><line stroke="rgb(0,0,0)" x1="680.83475" x2="685.83475" y1="150.0" y2="150.0" /><line stroke="rgb(0,0,0)" x1="647.5013999999999" x2="664.7594499999998" y1="225.0" y2="225.0" /><line stroke="rgb(0,0,0)" x1="664.7594499999998" x2="680.83475" y1="225.0" y2="150.0" /><line stroke="rgb(0,0,0)" x1="680.83475" x2="685.83475" y1="150.0" y2="150.0" /><line stroke="rgb(0,0,0)" x1="685.83475" x2="715.9173999999998" y1="150.0" y2="150.0" /><line stroke="rgb(0,0,0)" x1="715.9173999999998" x2="725.9173999999998" y1="150.0" y2="150.0" /><line stroke="rgb(0,0,0)" x1="725.9173999999998" x2="730.9173999999998" y1="150.0" y2="150.0" /><line stroke="rgb(0,0,0)" x1="730.9173999999998" x2="740.9173999999998" y1="150.0" y2="150.0" /><line stroke="rgb(0,0,0)" x1="740.9173999999998" x2="750.9173999999998" y1="150.0" y2="75.0" /><line stroke="rgb(0,0,0)" x1="750.9173999999998" x2="755.9173999999998" y1="75.0" y2="75.0" /><line stroke="rgb(0,0,0)" x1="730.9173999999998" x2="740.9173999999998" y1="150.0" y2="150.0" /><line stroke="rgb(0,0,0)" x1="740.9173999999998" x2="750.9173999999998" y1="150.0" y2="225.0" /><line stroke="rgb(0,0,0)" x1="750.9173999999998" x2="755.9173999999998" y1="225.0" y2="225.0" /><line stroke="rgb(0,0,0)" x1="755.9173999999998" x2="765.9173999999998" y1="75.0" y2="75.0" /><line stroke="rgb(0,0,0)" x1="765.9173999999998" x2="785.9173999999998" y1="75.0" y2="150.0" /><line stroke="rgb(0,0,0)" x1="785.9173999999998" x2="790.9173999999998" y1="150.0" y2="150.0" /><line stroke="rgb(0,0,0)" x1="755.9173999999998" x2="775.9173999999998" y1="225.0" y2="225.0" /><line stroke="rgb(0,0,0)" x1="775.9173999999998" x2="785.9173999999998" y1="225.0" y2="150.0" /><line stroke="rgb(0,0,0)" x1="785.9173999999998" x2="790.9173999999998" y1="150.0" y2="150.0" /><line stroke="rgb(0,0,0)" x1="790.9173999999998" x2="844.6015999999998" y1="150.0" y2="150.0" /><line stroke="rgb(0,0,0)" x1="844.6015999999998" x2="854.6015999999998" y1="150.0" y2="75.0" /><line stroke="rgb(0,0,0)" x1="854.6015999999998" x2="859.6015999999998" y1="75.0" y2="75.0" /><line stroke="rgb(0,0,0)" x1="790.9173999999998" x2="844.6015999999998" y1="150.0" y2="150.0" /><line stroke="rgb(0,0,0)" x1="844.6015999999998" x2="854.6015999999998" y1="150.0" y2="225.0" /><line stroke="rgb(0,0,0)" x1="854.6015999999998" x2="859.6015999999998" y1="225.0" y2="225.0" /><line stroke="rgb(0,0,0)" x1="859.6015999999998" x2="882.1015999999998" y1="75.0" y2="75.0" /><line stroke="rgb(0,0,0)" x1="882.1015999999998" x2="892.1015999999998" y1="75.0" y2="150.0" /><line stroke="rgb(0,0,0)" x1="892.1015999999998" x2="897.1015999999998" y1="150.0" y2="150.0" /><line stroke="rgb(0,0,0)" x1="859.6015999999998" x2="869.6015999999998" y1="225.0" y2="225.0" /><line stroke="rgb(0,0,0)" x1="869.6015999999998" x2="892.1015999999998" y1="225.0" y2="150.0" /><line stroke="rgb(0,0,0)" x1="892.1015999999998" x2="897.1015999999998" y1="150.0" y2="150.0" /><line stroke="rgb(0,0,0)" x1="897.1015999999998" x2="907.5015999999999" y1="150.0" y2="150.0" /><line stroke="rgb(0,0,0)" x1="907.5015999999999" x2="917.5015999999999" y1="150.0" y2="150.0" /><line stroke="rgb(0,0,0)" x1="917.5015999999999" x2="922.5015999999999" y1="150.0" y2="150.0" /><line stroke="rgb(0,0,0)" x1="922.5015999999999" x2="934.16825" y1="150.0" y2="150.0" /><line stroke="rgb(0,0,0)" x1="934.16825" x2="944.16825" y1="150.0" y2="150.0" /><line stroke="rgb(0,0,0)" x1="944.16825" x2="949.16825" y1="150.0" y2="150.0" /><line stroke="rgb(0,0,0)" x1="949.16825" x2="954.16825" y1="150.0" y2="150.0" /><line stroke="rgb(0,0,0)" x1="954.16825" x2="964.16825" y1="150.0" y2="150.0" /><line stroke="rgb(0,0,0)" x1="964.16825" x2="969.16825" y1="150.0" y2="150.0" /><line stroke="rgb(0,0,0)" x1="969.16825" x2="989.3682499999999" y1="150.0" y2="150.0" /><line stroke="rgb(0,0,0)" x1="989.3682499999999" x2="999.3682499999999" y1="150.0" y2="150.0" /><line stroke="rgb(0,0,0)" x1="999.3682499999999" x2="1004.3682499999999" y1="150.0" y2="150.0" /><line stroke="rgb(0,0,0)" x1="1004.3682499999999" x2="1069.3682499999998" y1="150.0" y2="150.0" /><line stroke="rgb(0,0,0)" x1="1069.3682499999998" x2="1079.3682499999998" y1="150.0" y2="150.0" /><line stroke="rgb(0,0,0)" x1="1079.3682499999998" x2="1084.3682499999998" y1="150.0" y2="150.0" /><line stroke="rgb(0,0,0)" x1="1084.3682499999998" x2="1113.5061999999998" y1="150.0" y2="150.0" /><line stroke="rgb(0,0,0)" x1="1113.5061999999998" x2="1123.5061999999998" y1="150.0" y2="150.0" /><line stroke="rgb(0,0,0)" x1="1123.5061999999998" x2="1128.5061999999998" y1="150.0" y2="150.0" /><line stroke="rgb(0,0,0)" x1="1128.5061999999998" x2="1133.5061999999998" y1="150.0" y2="150.0" /><line stroke="rgb(0,0,0)" x1="1133.5061999999998" x2="1143.5061999999998" y1="150.0" y2="150.0" /><line stroke="rgb(0,0,0)" x1="1143.5061999999998" x2="1148.5061999999998" y1="150.0" y2="150.0" /><line stroke="rgb(0,0,0)" x1="1148.5061999999998" x2="1153.5061999999998" y1="150.0" y2="150.0" /><line stroke="rgb(0,0,0)" x1="1153.5061999999998" x2="1163.5061999999998" y1="150.0" y2="150.0" /><line stroke="rgb(0,0,0)" x1="1163.5061999999998" x2="1168.5061999999998" y1="150.0" y2="150.0" /><line stroke="rgb(0,0,0)" x1="1168.5061999999998" x2="1173.5061999999998" y1="150.0" y2="150.0" /><line stroke="rgb(0,0,0)" x1="1173.5061999999998" x2="1183.5061999999998" y1="150.0" y2="150.0" /><line stroke="rgb(0,0,0)" x1="1183.5061999999998" x2="1188.5061999999998" y1="150.0" y2="150.0" /><line stroke="rgb(0,0,0)" x1="1188.5061999999998" x2="1199.33955" y1="150.0" y2="150.0" /><line stroke="rgb(0,0,0)" x1="1199.33955" x2="1209.33955" y1="150.0" y2="150.0" /><line stroke="rgb(0,0,0)" x1="1209.33955" x2="1214.33955" y1="150.0" y2="150.0" /><line stroke="rgb(0,0,0)" x1="1214.33955" x2="1241.6782499999997" y1="150.0" y2="150.0" /><line stroke="rgb(0,0,0)" x1="1241.6782499999997" x2="1251.6782499999997" y1="150.0" y2="75.0" /><line stroke="rgb(0,0,0)" x1="1251.6782499999997" x2="1256.6782499999997" y1="75.0" y2="75.0" /><line stroke="rgb(0,0,0)" x1="1214.33955" x2="1241.6782499999997" y1="150.0" y2="150.0" /><line stroke="rgb(0,0,0)" x1="1241.6782499999997" x2="1251.6782499999997" y1="150.0" y2="225.0" /><line stroke="rgb(0,0,0)" x1="1251.6782499999997" x2="1256.6782499999997" y1="225.0" y2="225.0" /><line stroke="rgb(0,0,0)" x1="1256.6782499999997" x2="1276.6782499999997" y1="75.0" y2="75.0" /><line stroke="rgb(0,0,0)" x1="1276.6782499999997" x2="1286.67825" y1="75.0" y2="75.0" /><line stroke="rgb(0,0,0)" x1="1286.67825" x2="1291.67825" y1="75.0" y2="75.0" /><line stroke="rgb(0,0,0)" x1="1256.6782499999997" x2="1267.9282499999997" y1="225.0" y2="225.0" /><line stroke="rgb(0,0,0)" x1="1267.9282499999997" x2="1286.67825" y1="225.0" y2="225.0" /><line stroke="rgb(0,0,0)" x1="1286.67825" x2="1291.67825" y1="225.0" y2="225.0" /><line stroke="rgb(0,0,0)" x1="1291.67825" x2="1332.67825" y1="75.0" y2="75.0" /><line stroke="rgb(0,0,0)" x1="1332.67825" x2="1342.67825" y1="75.0" y2="150.0" /><line stroke="rgb(0,0,0)" x1="1342.67825" x2="1347.67825" y1="150.0" y2="150.0" /><line stroke="rgb(0,0,0)" x1="1291.67825" x2="1302.92825" y1="225.0" y2="225.0" /><line stroke="rgb(0,0,0)" x1="1302.92825" x2="1342.67825" y1="225.0" y2="150.0" /><line stroke="rgb(0,0,0)" x1="1342.67825" x2="1347.67825" y1="150.0" y2="150.0" /><line stroke="rgb(0,0,0)" x1="1347.67825" x2="1414.23925" y1="150.0" y2="150.0" /><line stroke="rgb(0,0,0)" x1="1414.23925" x2="1424.23925" y1="150.0" y2="75.0" /><line stroke="rgb(0,0,0)" x1="1424.23925" x2="1429.23925" y1="75.0" y2="75.0" /><line stroke="rgb(0,0,0)" x1="1347.67825" x2="1414.23925" y1="150.0" y2="150.0" /><line stroke="rgb(0,0,0)" x1="1414.23925" x2="1424.23925" y1="150.0" y2="225.0" /><line stroke="rgb(0,0,0)" x1="1424.23925" x2="1429.23925" y1="225.0" y2="225.0" /><line stroke="rgb(0,0,0)" x1="1429.23925" x2="1434.23925" y1="225.0" y2="225.0" /><line stroke="rgb(0,0,0)" x1="1434.23925" x2="1449.23925" y1="225.0" y2="150.0" /><line stroke="rgb(0,0,0)" x1="1449.23925" x2="1454.23925" y1="150.0" y2="150.0" /><line stroke="rgb(0,0,0)" x1="1454.23925" x2="1484.86425" y1="150.0" y2="150.0" /><line stroke="rgb(0,0,0)" x1="1484.86425" x2="1494.86425" y1="150.0" y2="150.0" /><line stroke="rgb(0,0,0)" x1="1494.86425" x2="1499.86425" y1="150.0" y2="150.0" /><line stroke="rgb(0,0,0)" x1="1429.23925" x2="1439.23925" y1="75.0" y2="75.0" /><line stroke="rgb(0,0,0)" x1="1439.23925" x2="1494.86425" y1="75.0" y2="150.0" /><line stroke="rgb(0,0,0)" x1="1494.86425" x2="1499.86425" y1="150.0" y2="150.0" /><line stroke="rgb(0,0,0)" x1="1499.86425" x2="1524.5070999999998" y1="150.0" y2="150.0" /><line stroke="rgb(0,0,0)" x1="1524.5070999999998" x2="1534.5070999999998" y1="150.0" y2="150.0" /><line stroke="rgb(0,0,0)" x1="1534.5070999999998" x2="1539.5070999999998" y1="150.0" y2="150.0" /><line stroke="rgb(0,0,0)" x1="1539.5070999999998" x2="1549.5070999999998" y1="150.0" y2="150.0" /><line stroke="rgb(0,0,0)" x1="1549.5070999999998" x2="1559.5070999999998" y1="150.0" y2="150.0" /><line stroke="rgb(0,0,0)" x1="1559.5070999999998" x2="1564.5070999999998" y1="150.0" y2="150.0" /><line stroke="rgb(0,0,0)" x1="1564.5070999999998" x2="1592.4789999999998" y1="150.0" y2="150.0" /><line stroke="rgb(0,0,0)" x1="1592.4789999999998" x2="1602.4789999999998" y1="150.0" y2="75.0" /><line stroke="rgb(0,0,0)" x1="1602.4789999999998" x2="1607.4789999999998" y1="75.0" y2="75.0" /><line stroke="rgb(0,0,0)" x1="1564.5070999999998" x2="1592.4789999999998" y1="150.0" y2="150.0" /><line stroke="rgb(0,0,0)" x1="1592.4789999999998" x2="1602.4789999999998" y1="150.0" y2="225.0" /><line stroke="rgb(0,0,0)" x1="1602.4789999999998" x2="1607.4789999999998" y1="225.0" y2="225.0" /><line stroke="rgb(0,0,0)" x1="1607.4789999999998" x2="1630.81235" y1="225.0" y2="225.0" /><line stroke="rgb(0,0,0)" x1="1630.81235" x2="1640.81235" y1="225.0" y2="75.0" /><line stroke="rgb(0,0,0)" x1="1640.81235" x2="1645.81235" y1="75.0" y2="75.0" /><line stroke="rgb(0,0,0)" x1="1607.4789999999998" x2="1617.4789999999998" y1="75.0" y2="75.0" /><line stroke="rgb(0,0,0)" x1="1617.4789999999998" x2="1640.81235" y1="75.0" y2="225.0" /><line stroke="rgb(0,0,0)" x1="1640.81235" x2="1645.81235" y1="225.0" y2="225.0" /><line stroke="rgb(0,0,0)" x1="1645.81235" x2="1671.72145" y1="75.0" y2="75.0" /><line stroke="rgb(0,0,0)" x1="1671.72145" x2="1681.72145" y1="75.0" y2="150.0" /><line stroke="rgb(0,0,0)" x1="1681.72145" x2="1686.72145" y1="150.0" y2="150.0" /><line stroke="rgb(0,0,0)" x1="1645.81235" x2="1656.2289999999998" y1="225.0" y2="225.0" /><line stroke="rgb(0,0,0)" x1="1656.2289999999998" x2="1681.72145" y1="225.0" y2="150.0" /><line stroke="rgb(0,0,0)" x1="1681.72145" x2="1686.72145" y1="150.0" y2="150.0" /><line stroke="rgb(0,0,0)" x1="1686.72145" x2="1733.41265" y1="150.0" y2="150.0" /><line stroke="rgb(0,0,0)" x1="1733.41265" x2="1743.41265" y1="150.0" y2="150.0" /><line stroke="rgb(0,0,0)" x1="1743.41265" x2="1748.41265" y1="150.0" y2="150.0" /><line stroke="rgb(0,0,0)" x1="1748.41265" x2="1777.6434" y1="150.0" y2="150.0" /><line stroke="rgb(0,0,0)" x1="1777.6434" x2="1787.6434" y1="150.0" y2="75.0" /><line stroke="rgb(0,0,0)" x1="1787.6434" x2="1792.6434" y1="75.0" y2="75.0" /><line stroke="rgb(0,0,0)" x1="1748.41265" x2="1777.6434" y1="150.0" y2="150.0" /><line stroke="rgb(0,0,0)" x1="1777.6434" x2="1787.6434" y1="150.0" y2="225.0" /><line stroke="rgb(0,0,0)" x1="1787.6434" x2="1792.6434" y1="225.0" y2="225.0" /><line stroke="rgb(0,0,0)" x1="1792.6434" x2="1806.7684" y1="75.0" y2="75.0" /><line stroke="rgb(0,0,0)" x1="1806.7684" x2="1822.6434" y1="75.0" y2="150.0" /><line stroke="rgb(0,0,0)" x1="1822.6434" x2="1827.6434" y1="150.0" y2="150.0" /><line stroke="rgb(0,0,0)" x1="1792.6434" x2="1812.6434" y1="225.0" y2="225.0" /><line stroke="rgb(0,0,0)" x1="1812.6434" x2="1822.6434" y1="225.0" y2="150.0" /><line stroke="rgb(0,0,0)" x1="1822.6434" x2="1827.6434" y1="150.0" y2="150.0" /><line stroke="rgb(0,0,0)" x1="1827.6434" x2="1851.3291000000002" y1="150.0" y2="150.0" /><line stroke="rgb(0,0,0)" x1="1851.3291000000002" x2="1861.3291000000002" y1="150.0" y2="150.0" /><line stroke="rgb(0,0,0)" x1="1861.3291000000002" x2="1866.3291000000002" y1="150.0" y2="150.0" /><line stroke="rgb(0,0,0)" x1="1866.3291000000002" x2="1891.3291000000002" y1="150.0" y2="150.0" /><line stroke="rgb(0,0,0)" x1="1891.3291000000002" x2="1901.3291000000002" y1="150.0" y2="150.0" /><line stroke="rgb(0,0,0)" x1="1901.3291000000002" x2="1906.3291000000002" y1="150.0" y2="150.0" /><line stroke="rgb(0,0,0)" x1="1906.3291000000002" x2="1932.5133" y1="150.0" y2="150.0" /><line stroke="rgb(0,0,0)" x1="1932.5133" x2="1942.5133" y1="150.0" y2="150.0" /><line stroke="rgb(0,0,0)" x1="1942.5133" x2="1947.5133" y1="150.0" y2="150.0" /><line stroke="rgb(0,0,0)" x1="1947.5133" x2="1990.5902" y1="150.0" y2="150.0" /><line stroke="rgb(0,0,0)" x1="1990.5902" x2="2000.5902" y1="150.0" y2="150.0" /><line stroke="rgb(0,0,0)" x1="2000.5902" x2="2005.5902" y1="150.0" y2="150.0" /><line stroke="rgb(0,0,0)" x1="2005.5902" x2="2035.1554" y1="150.0" y2="150.0" /><line stroke="rgb(0,0,0)" x1="2035.1554" x2="2045.1554" y1="150.0" y2="150.0" /><line stroke="rgb(0,0,0)" x1="2045.1554" x2="2050.1554" y1="150.0" y2="150.0" /><line stroke="rgb(0,0,0)" x1="2050.1554" x2="2071.82205" y1="150.0" y2="150.0" /><line stroke="rgb(0,0,0)" x1="2071.82205" x2="2081.82205" y1="150.0" y2="150.0" /><line stroke="rgb(0,0,0)" x1="2081.82205" x2="2086.82205" y1="150.0" y2="150.0" /><line stroke="rgb(0,0,0)" x1="2086.82205" x2="2096.82205" y1="150.0" y2="150.0" /><line stroke="rgb(0,0,0)" x1="2096.82205" x2="2106.82205" y1="150.0" y2="150.0" /><line stroke="rgb(0,0,0)" x1="2106.82205" x2="2111.82205" y1="150.0" y2="150.0" /><line stroke="rgb(0,0,0)" x1="2111.82205" x2="2123.4887" y1="150.0" y2="150.0" /><line stroke="rgb(0,0,0)" x1="2123.4887" x2="2133.4887" y1="150.0" y2="150.0" /><line stroke="rgb(0,0,0)" x1="2133.4887" x2="2138.4887" y1="150.0" y2="150.0" /><line stroke="rgb(0,0,0)" x1="2138.4887" x2="2143.4887" y1="150.0" y2="150.0" /><line stroke="rgb(0,0,0)" x1="2143.4887" x2="2153.4887" y1="150.0" y2="150.0" /><line stroke="rgb(0,0,0)" x1="2153.4887" x2="2158.4887" y1="150.0" y2="150.0" /><line stroke="rgb(0,0,0)" x1="2158.4887" x2="2225.5342" y1="150.0" y2="150.0" /><line stroke="rgb(0,0,0)" x1="2225.5342" x2="2235.5342" y1="150.0" y2="150.0" /><line stroke="rgb(0,0,0)" x1="2235.5342" x2="2240.5342" y1="150.0" y2="150.0" /><line stroke="rgb(0,0,0)" x1="2240.5342" x2="2265.5342" y1="150.0" y2="150.0" /><line stroke="rgb(0,0,0)" x1="2265.5342" x2="2275.5342" y1="150.0" y2="75.0" /><line stroke="rgb(0,0,0)" x1="2275.5342" x2="2280.5342" y1="75.0" y2="75.0" /><line stroke="rgb(0,0,0)" x1="2240.5342" x2="2265.5342" y1="150.0" y2="150.0" /><line stroke="rgb(0,0,0)" x1="2265.5342" x2="2275.5342" y1="150.0" y2="225.0" /><line stroke="rgb(0,0,0)" x1="2275.5342" x2="2280.5342" y1="225.0" y2="225.0" /><line stroke="rgb(0,0,0)" x1="2280.5342" x2="2300.5342" y1="75.0" y2="75.0" /><line stroke="rgb(0,0,0)" x1="2300.5342" x2="2310.5342" y1="75.0" y2="150.0" /><line stroke="rgb(0,0,0)" x1="2310.5342" x2="2315.5342" y1="150.0" y2="150.0" /><line stroke="rgb(0,0,0)" x1="2280.5342" x2="2292.20085" y1="225.0" y2="225.0" /><line stroke="rgb(0,0,0)" x1="2292.20085" x2="2310.5342" y1="225.0" y2="150.0" /><line stroke="rgb(0,0,0)" x1="2310.5342" x2="2315.5342" y1="150.0" y2="150.0" /><line stroke="rgb(0,0,0)" x1="2315.5342" x2="2375.5342" y1="150.0" y2="150.0" /><line stroke="rgb(0,0,0)" x1="2375.5342" x2="2385.5342" y1="150.0" y2="75.0" /><line stroke="rgb(0,0,0)" x1="2385.5342" x2="2390.5342" y1="75.0" y2="75.0" /><line stroke="rgb(0,0,0)" x1="2315.5342" x2="2375.5342" y1="150.0" y2="150.0" /><line stroke="rgb(0,0,0)" x1="2375.5342" x2="2385.5342" y1="150.0" y2="225.0" /><line stroke="rgb(0,0,0)" x1="2385.5342" x2="2390.5342" y1="225.0" y2="225.0" /><line stroke="rgb(0,0,0)" x1="2390.5342" x2="2410.5342" y1="75.0" y2="75.0" /><line stroke="rgb(0,0,0)" x1="2410.5342" x2="2420.5342" y1="75.0" y2="75.0" /><line stroke="rgb(0,0,0)" x1="2420.5342" x2="2425.5342" y1="75.0" y2="75.0" /><line stroke="rgb(0,0,0)" x1="2390.5342" x2="2400.5342" y1="225.0" y2="225.0" /><line stroke="rgb(0,0,0)" x1="2400.5342" x2="2420.5342" y1="225.0" y2="225.0" /><line stroke="rgb(0,0,0)" x1="2420.5342" x2="2425.5342" y1="225.0" y2="225.0" /><line stroke="rgb(0,0,0)" x1="2425.5342" x2="2450.5342" y1="75.0" y2="75.0" /><line stroke="rgb(0,0,0)" x1="2450.5342" x2="2460.5342" y1="75.0" y2="150.0" /><line stroke="rgb(0,0,0)" x1="2460.5342" x2="2465.5342" y1="150.0" y2="150.0" /><line stroke="rgb(0,0,0)" x1="2425.5342" x2="2435.5342" y1="225.0" y2="225.0" /><line stroke="rgb(0,0,0)" x1="2435.5342" x2="2460.5342" y1="225.0" y2="150.0" /><line stroke="rgb(0,0,0)" x1="2460.5342" x2="2465.5342" y1="150.0" y2="150.0" /><line stroke="rgb(0,0,0)" x1="2465.5342" x2="2490.5342" y1="150.0" y2="150.0" /><line stroke="rgb(0,0,0)" x1="2490.5342" x2="2500.5342" y1="150.0" y2="150.0" /><line stroke="rgb(0,0,0)" x1="2500.5342" x2="2505.5342" y1="150.0" y2="150.0" /><line stroke="rgb(0,0,0)" x1="2505.5342" x2="2530.5342" y1="150.0" y2="150.0" /><line stroke="rgb(0,0,0)" x1="2530.5342" x2="2540.5342" y1="150.0" y2="150.0" /><line stroke="rgb(0,0,0)" x1="2540.5342" x2="2545.5342" y1="150.0" y2="150.0" /><line stroke="rgb(0,0,0)" x1="2545.5342" x2="2555.5342" y1="150.0" y2="150.0" /><line stroke="rgb(0,0,0)" x1="2555.5342" x2="2565.5342" y1="150.0" y2="150.0" /><line stroke="rgb(0,0,0)" x1="2565.5342" x2="2570.5342" y1="150.0" y2="150.0" /><line stroke="rgb(0,0,0)" x1="2570.5342" x2="2659.2222" y1="150.0" y2="150.0" /><line stroke="rgb(0,0,0)" x1="2659.2222" x2="2669.2222" y1="150.0" y2="75.0" /><line stroke="rgb(0,0,0)" x1="2669.2222" x2="2674.2222" y1="75.0" y2="75.0" /><line stroke="rgb(0,0,0)" x1="2570.5342" x2="2659.2222" y1="150.0" y2="150.0" /><line stroke="rgb(0,0,0)" x1="2659.2222" x2="2669.2222" y1="150.0" y2="225.0" /><line stroke="rgb(0,0,0)" x1="2669.2222" x2="2674.2222" y1="225.0" y2="225.0" /><line stroke="rgb(0,0,0)" x1="2674.2222" x2="2694.2222" y1="75.0" y2="75.0" /><line stroke="rgb(0,0,0)" x1="2694.2222" x2="2704.2222" y1="75.0" y2="150.0" /><line stroke="rgb(0,0,0)" x1="2704.2222" x2="2709.2222" y1="150.0" y2="150.0" /><line stroke="rgb(0,0,0)" x1="2674.2222" x2="2684.2222" y1="225.0" y2="225.0" /><line stroke="rgb(0,0,0)" x1="2684.2222" x2="2704.2222" y1="225.0" y2="150.0" /><line stroke="rgb(0,0,0)" x1="2704.2222" x2="2709.2222" y1="150.0" y2="150.0" /><line stroke="rgb(0,0,0)" x1="2709.2222" x2="2733.1111000000005" y1="150.0" y2="150.0" /><line stroke="rgb(0,0,0)" x1="2733.1111000000005" x2="2743.1111000000005" y1="150.0" y2="150.0" /><line stroke="rgb(0,0,0)" x1="2743.1111000000005" x2="2748.1111000000005" y1="150.0" y2="150.0" /><line stroke="rgb(0,0,0)" x1="2748.1111000000005" x2="2806.9111000000003" y1="150.0" y2="150.0" /><line stroke="rgb(0,0,0)" x1="2806.9111000000003" x2="2816.9111000000003" y1="150.0" y2="150.0" /><line stroke="rgb(0,0,0)" x1="2816.9111000000003" x2="2821.9111000000003" y1="150.0" y2="150.0" /><line stroke="rgb(0,0,0)" x1="2821.9111000000003" x2="2882.6256000000008" y1="150.0" y2="150.0" /><line stroke="rgb(0,0,0)" x1="2882.6256000000008" x2="2892.6256000000008" y1="150.0" y2="150.0" /><line stroke="rgb(0,0,0)" x1="2892.6256000000008" x2="2897.6256000000008" y1="150.0" y2="150.0" /><line stroke="rgb(0,0,0)" x1="2897.6256000000008" x2="2917.83395" y1="150.0" y2="150.0" /><line stroke="rgb(0,0,0)" x1="2917.83395" x2="2927.83395" y1="150.0" y2="150.0" /><line stroke="rgb(0,0,0)" x1="2927.83395" x2="2932.83395" y1="150.0" y2="150.0" /><line stroke="rgb(0,0,0)" x1="2932.83395" x2="2952.83395" y1="150.0" y2="150.0" /><line stroke="rgb(0,0,0)" x1="2952.83395" x2="2962.83395" y1="150.0" y2="150.0" /><line stroke="rgb(0,0,0)" x1="2962.83395" x2="2967.83395" y1="150.0" y2="150.0" /><line stroke="rgb(0,0,0)" x1="2967.83395" x2="2987.83395" y1="150.0" y2="150.0" /><line stroke="rgb(0,0,0)" x1="2987.83395" x2="2997.83395" y1="150.0" y2="150.0" /><line stroke="rgb(0,0,0)" x1="2997.83395" x2="3002.83395" y1="150.0" y2="150.0" /><line stroke="rgb(0,0,0)" x1="3002.83395" x2="3024.9173" y1="150.0" y2="150.0" /><line stroke="rgb(0,0,0)" x1="3024.9173" x2="3034.9173" y1="150.0" y2="150.0" /><line stroke="rgb(0,0,0)" x1="3034.9173" x2="3039.9173" y1="150.0" y2="150.0" /><line stroke="rgb(0,0,0)" x1="3039.9173" x2="3054.5601500000002" y1="150.0" y2="150.0" /><line stroke="rgb(0,0,0)" x1="3054.5601500000002" x2="3064.5601500000002" y1="150.0" y2="150.0" /><line stroke="rgb(0,0,0)" x1="3064.5601500000002" x2="3069.5601500000002" y1="150.0" y2="150.0" /><line stroke="rgb(0,0,0)" x1="3069.5601500000002" x2="3091.0819" y1="150.0" y2="150.0" /><line stroke="rgb(0,0,0)" x1="3091.0819" x2="3101.0819" y1="150.0" y2="150.0" /><line stroke="rgb(0,0,0)" x1="3101.0819" x2="3106.0819" y1="150.0" y2="150.0" /><line stroke="rgb(0,0,0)" x1="3106.0819" x2="3111.0819" y1="150.0" y2="150.0" /><line stroke="rgb(0,0,0)" x1="3111.0819" x2="3121.0819" y1="150.0" y2="150.0" /><line stroke="rgb(0,0,0)" x1="3121.0819" x2="3126.0819" y1="150.0" y2="150.0" /><line stroke="rgb(0,0,0)" x1="3126.0819" x2="3160.7878000000005" y1="150.0" y2="150.0" /><line stroke="rgb(0,0,0)" x1="3160.7878000000005" x2="3170.7878000000005" y1="150.0" y2="150.0" /><line stroke="rgb(0,0,0)" x1="3170.7878000000005" x2="3175.7878000000005" y1="150.0" y2="150.0" /><line stroke="rgb(0,0,0)" x1="3175.7878000000005" x2="3191.9580000000005" y1="150.0" y2="150.0" /><line stroke="rgb(0,0,0)" x1="3191.9580000000005" x2="3201.9580000000005" y1="150.0" y2="150.0" /><line stroke="rgb(0,0,0)" x1="3201.9580000000005" x2="3206.9580000000005" y1="150.0" y2="150.0" /><line stroke="rgb(0,0,0)" x1="3206.9580000000005" x2="3211.9580000000005" y1="150.0" y2="150.0" /><line stroke="rgb(0,0,0)" x1="3211.9580000000005" x2="3221.9580000000005" y1="150.0" y2="150.0" /><line stroke="rgb(0,0,0)" x1="3221.9580000000005" x2="3226.9580000000005" y1="150.0" y2="150.0" /><line stroke="rgb(0,0,0)" x1="3226.9580000000005" x2="3241.5034500000006" y1="150.0" y2="150.0" /><line stroke="rgb(0,0,0)" x1="3241.5034500000006" x2="3251.5034500000006" y1="150.0" y2="75.0" /><line stroke="rgb(0,0,0)" x1="3251.5034500000006" x2="3256.5034500000006" y1="75.0" y2="75.0" /><line stroke="rgb(0,0,0)" x1="3226.9580000000005" x2="3241.5034500000006" y1="150.0" y2="150.0" /><line stroke="rgb(0,0,0)" x1="3241.5034500000006" x2="3251.5034500000006" y1="150.0" y2="225.0" /><line stroke="rgb(0,0,0)" x1="3251.5034500000006" x2="3256.5034500000006" y1="225.0" y2="225.0" /><line stroke="rgb(0,0,0)" x1="3256.5034500000006" x2="3261.5034500000006" y1="75.0" y2="75.0" /><line stroke="rgb(0,0,0)" x1="3261.5034500000006" x2="3295.9479000000006" y1="75.0" y2="150.0" /><line stroke="rgb(0,0,0)" x1="3295.9479000000006" x2="3300.9479000000006" y1="150.0" y2="150.0" /><rect fill="rgb(255,146,186)" height="8.799999999999999" stroke="rgb(0,0,0)" width="11.13635" x="5.0" y="145.6" /><text fill="black" x="5.0" y="174.4">E0</text><rect fill="rgb(1,0,255)" height="0.8" stroke="rgb(0,0,0)" width="5.0" x="36.13635" y="149.6" /><text fill="black" x="36.13635" y="170.4">E1</text><rect fill="rgb(255,98,126)" height="7.6" stroke="rgb(0,0,0)" width="9.473700000000001" x="61.13635000000001" y="146.2" /><text fill="black" x="61.13635000000001" y="173.8">E2</text><rect fill="rgb(16,13,255)" height="3.5999999999999996" stroke="rgb(0,0,0)" width="5.0" x="90.61005000000002" y="73.2" /><text fill="black" x="90.61005000000002" y="96.8">E3</text><rect fill="rgb(255,0,0)" height="0.8" stroke="rgb(0,0,0)" width="47.5" x="90.61005000000002" y="224.6" /><text fill="black" x="90.61005000000002" y="245.4">H4</text><rect fill="rgb(15,12,255)" height="3.5999999999999996" stroke="rgb(0,0,0)" width="5.0" x="158.11005" y="73.2" /><text fill="black" x="158.11005" y="96.8">E5</text><rect fill="rgb(255,53,68)" height="19.2" stroke="rgb(0,0,0)" width="69.896" x="158.11005" y="215.4" /><text fill="black" x="158.11005" y="254.6">H6</text><rect fill="rgb(1,1,255)" height="0.8" stroke="rgb(0,0,0)" width="5.0" x="248.00605000000002" y="149.6" /><text fill="black" x="248.00605000000002" y="170.4">E7</text><rect fill="rgb(219,172,255)" height="7.199999999999999" stroke="rgb(0,0,0)" width="5.0" x="273.00605" y="146.4" /><text fill="black" x="273.00605" y="173.6">E8</text><rect fill="rgb(255,31,40)" height="3.5999999999999996" stroke="rgb(0,0,0)" width="18.8889" x="298.00605" y="73.2" /><text fill="black" x="298.00605" y="96.8">H9</text><rect fill="rgb(134,105,255)" height="8.0" stroke="rgb(0,0,0)" width="6.0" x="298.00605" y="221.0" /><text fill="black" x="298.00605" y="249.0">E10</text><rect fill="rgb(166,130,255)" height="99.6" stroke="rgb(0,0,0)" width="28.654600000000002" x="336.89495" y="100.2" /><text fill="black" x="336.89495" y="219.8">E11</text><rect fill="rgb(82,64,255)" height="1.2" stroke="rgb(0,0,0)" width="16.66665" x="385.54955" y="149.4" /><text fill="black" x="385.54955" y="170.6">E12</text><rect fill="rgb(162,127,255)" height="1.2" stroke="rgb(0,0,0)" width="20.0" x="422.2162" y="74.4" /><text fill="black" x="422.2162" y="95.6">E13</text><rect fill="rgb(210,164,255)" height="14.799999999999999" stroke="rgb(0,0,0)" width="17.7027" x="422.2162" y="217.6" /><text fill="black" x="422.2162" y="252.4">H14</text><rect fill="rgb(255,180,230)" height="99.6" stroke="rgb(0,0,0)" width="77.309" x="462.2162" y="100.2" /><text fill="black" x="462.2162" y="219.8">H15</text><rect fill="rgb(0,0,255)" height="0.4" stroke="rgb(0,0,0)" width="5.0" x="559.5252" y="149.8" /><text fill="black" x="559.5252" y="170.2">E16</text><rect fill="rgb(255,140,179)" height="14.399999999999999" stroke="rgb(0,0,0)" width="15.83335" x="584.5252" y="142.8" /><text fill="black" x="584.5252" y="177.2">H17</text><rect fill="rgb(125,98,255)" height="2.8000000000000003" stroke="rgb(0,0,0)" width="7.142849999999999" x="620.3585499999999" y="148.6" /><text fill="black" x="620.3585499999999" y="171.4">E18</text><rect fill="rgb(249,195,255)" height="2.4" stroke="rgb(0,0,0)" width="18.33335" x="647.5013999999999" y="73.8" /><text fill="black" x="647.5013999999999" y="96.2">H19</text><rect fill="rgb(255,107,137)" height="24.8" stroke="rgb(0,0,0)" width="12.25805" x="647.5013999999999" y="212.6" /><text fill="black" x="647.5013999999999" y="257.4">E20</text><rect fill="rgb(255,192,244)" height="96.8" stroke="rgb(0,0,0)" width="25.08265" x="685.83475" y="101.6" /><text fill="black" x="685.83475" y="218.4">E21</text><rect fill="rgb(81,64,255)" height="0.8" stroke="rgb(0,0,0)" width="5.0" x="730.9173999999998" y="149.6" /><text fill="black" x="730.9173999999998" y="170.4">E22</text><rect fill="rgb(128,100,255)" height="0.8" stroke="rgb(0,0,0)" width="5.0" x="755.9173999999998" y="74.6" /><text fill="black" x="755.9173999999998" y="95.4">E23</text><rect fill="rgb(5,4,255)" height="0.8" stroke="rgb(0,0,0)" width="15.0" x="755.9173999999998" y="224.6" /><text fill="black" x="755.9173999999998" y="245.4">H24</text><rect fill="rgb(215,169,255)" height="7.6" stroke="rgb(0,0,0)" width="48.684200000000004" x="790.9173999999998" y="146.2" /><text fill="black" x="790.9173999999998" y="173.8">H25</text><rect fill="rgb(255,93,118)" height="2.4" stroke="rgb(0,0,0)" width="17.5" x="859.6015999999998" y="73.8" /><text fill="black" x="859.6015999999998" y="96.2">H26</text><rect fill="rgb(118,92,255)" height="0.8" stroke="rgb(0,0,0)" width="5.0" x="859.6015999999998" y="224.6" /><text fill="black" x="859.6015999999998" y="245.4">E27</text><rect fill="rgb(167,131,255)" height="10.0" stroke="rgb(0,0,0)" width="5.4" x="897.1015999999998" y="145.0" /><text fill="black" x="897.1015999999998" y="175.0">E28</text><rect fill="rgb(214,168,255)" height="1.2" stroke="rgb(0,0,0)" width="6.66665" x="922.5015999999999" y="149.4" /><text fill="black" x="922.5015999999999" y="170.6">E29</text><rect fill="rgb(0,0,255)" height="0.0" stroke="rgb(0,0,0)" width="0.0" x="949.16825" y="150.0" /><text fill="black" x="949.16825" y="170.0">X30</text><rect fill="rgb(255,132,168)" height="10.0" stroke="rgb(0,0,0)" width="15.2" x="969.16825" y="145.0" /><text fill="black" x="969.16825" y="175.0">H31</text><rect fill="rgb(234,184,255)" height="90.0" stroke="rgb(0,0,0)" width="60.0" x="1004.3682499999999" y="105.0" /><text fill="black" x="1004.3682499999999" y="215.0">H32</text><rect fill="rgb(255,138,176)" height="11.600000000000001" stroke="rgb(0,0,0)" width="24.13795" x="1084.3682499999998" y="144.2" /><text fill="black" x="1084.3682499999998" y="175.8">H33</text><rect fill="rgb(0,0,255)" height="0.0" stroke="rgb(0,0,0)" width="0.0" x="1128.5061999999998" y="150.0" /><text fill="black" x="1128.5061999999998" y="170.0">X34</text><rect fill="rgb(0,0,255)" height="0.0" stroke="rgb(0,0,0)" width="0.0" x="1148.5061999999998" y="150.0" /><text fill="black" x="1148.5061999999998" y="170.0">X35</text><rect fill="rgb(0,0,255)" height="0.0" stroke="rgb(0,0,0)" width="0.0" x="1168.5061999999998" y="150.0" /><text fill="black" x="1168.5061999999998" y="170.0">X36</text><rect fill="rgb(177,139,255)" height="4.8" stroke="rgb(0,0,0)" width="5.83335" x="1188.5061999999998" y="147.6" /><text fill="black" x="1188.5061999999998" y="172.4">E37</text><rect fill="rgb(128,101,255)" height="99.2" stroke="rgb(0,0,0)" width="22.3387" x="1214.33955" y="100.4" /><text fill="black" x="1214.33955" y="219.6">E38</text><rect fill="rgb(255,138,176)" height="2.4" stroke="rgb(0,0,0)" width="15.0" x="1256.6782499999997" y="73.8" /><text fill="black" x="1256.6782499999997" y="96.2">H39</text><rect fill="rgb(66,51,255)" height="4.8" stroke="rgb(0,0,0)" width="6.25" x="1256.6782499999997" y="222.6" /><text fill="black" x="1256.6782499999997" y="247.4">E40</text><rect fill="rgb(252,197,255)" height="8.0" stroke="rgb(0,0,0)" width="36.0" x="1291.67825" y="71.0" /><text fill="black" x="1291.67825" y="99.0">H41</text><rect fill="rgb(145,114,255)" height="4.8" stroke="rgb(0,0,0)" width="6.25" x="1291.67825" y="222.6" /><text fill="black" x="1291.67825" y="247.4">E42</text><rect fill="rgb(239,187,255)" height="88.4" stroke="rgb(0,0,0)" width="61.56100000000001" x="1347.67825" y="105.8" /><text fill="black" x="1347.67825" y="214.2">H43</text><rect fill="rgb(23,18,255)" height="1.2" stroke="rgb(0,0,0)" width="5.0" x="1429.23925" y="74.4" /><text fill="black" x="1429.23925" y="95.6">E44</text><rect fill="rgb(0,0,255)" height="0.0" stroke="rgb(0,0,0)" width="0.0" x="1429.23925" y="225.0" /><text fill="black" x="1429.23925" y="245.0">X45</text><rect fill="rgb(255,160,204)" height="16.0" stroke="rgb(0,0,0)" width="25.625" x="1454.23925" y="142.0" /><text fill="black" x="1454.23925" y="178.0">H46</text><rect fill="rgb(253,198,255)" height="22.400000000000002" stroke="rgb(0,0,0)" width="19.64285" x="1499.86425" y="138.8" /><text fill="black" x="1499.86425" y="181.2">H47</text><rect fill="rgb(9,7,255)" height="1.2" stroke="rgb(0,0,0)" width="5.0" x="1539.5070999999998" y="149.4" /><text fill="black" x="1539.5070999999998" y="170.6">E48</text><rect fill="rgb(193,152,255)" height="99.6" stroke="rgb(0,0,0)" width="22.9719" x="1564.5070999999998" y="100.2" /><text fill="black" x="1564.5070999999998" y="219.8">E49</text><rect fill="rgb(0,0,255)" height="0.4" stroke="rgb(0,0,0)" width="5.0" x="1607.4789999999998" y="74.8" /><text fill="black" x="1607.4789999999998" y="95.2">E50</text><rect fill="rgb(255,185,236)" height="8.4" stroke="rgb(0,0,0)" width="18.33335" x="1607.4789999999998" y="220.8" /><text fill="black" x="1607.4789999999998" y="249.2">H51</text><rect fill="rgb(202,159,255)" height="4.3999999999999995" stroke="rgb(0,0,0)" width="20.909100000000002" x="1645.81235" y="72.8" /><text fill="black" x="1645.81235" y="97.2">H52</text><rect fill="rgb(255,172,219)" height="4.8" stroke="rgb(0,0,0)" width="5.41665" x="1645.81235" y="222.6" /><text fill="black" x="1645.81235" y="247.4">E53</text><rect fill="rgb(180,141,255)" height="54.400000000000006" stroke="rgb(0,0,0)" width="41.6912" x="1686.72145" y="122.8" /><text fill="black" x="1686.72145" y="197.2">H54</text><rect fill="rgb(247,193,255)" height="15.6" stroke="rgb(0,0,0)" width="24.23075" x="1748.41265" y="142.2" /><text fill="black" x="1748.41265" y="177.8">H55</text><rect fill="rgb(188,147,255)" height="16.0" stroke="rgb(0,0,0)" width="9.125" x="1792.6434" y="67.0" /><text fill="black" x="1792.6434" y="103.0">E56</text><rect fill="rgb(172,135,255)" height="1.6" stroke="rgb(0,0,0)" width="15.0" x="1792.6434" y="224.2" /><text fill="black" x="1792.6434" y="245.8">H57</text><rect fill="rgb(160,125,255)" height="70.0" stroke="rgb(0,0,0)" width="18.6857" x="1827.6434" y="115.0" /><text fill="black" x="1827.6434" y="205.0">E58</text><rect fill="rgb(0,0,255)" height="0.4" stroke="rgb(0,0,0)" width="20.0" x="1866.3291000000002" y="149.8" /><text fill="black" x="1866.3291000000002" y="170.2">H59</text><rect fill="rgb(255,170,216)" height="15.2" stroke="rgb(0,0,0)" width="21.1842" x="1906.3291000000002" y="142.4" /><text fill="black" x="1906.3291000000002" y="177.6">E60</text><rect fill="rgb(255,134,171)" height="5.2" stroke="rgb(0,0,0)" width="38.0769" x="1947.5133" y="147.4" /><text fill="black" x="1947.5133" y="172.6">E61</text><rect fill="rgb(255,104,133)" height="18.4" stroke="rgb(0,0,0)" width="24.565199999999997" x="2005.5902" y="140.8" /><text fill="black" x="2005.5902" y="179.2">H62</text><rect fill="rgb(255,69,88)" height="3.5999999999999996" stroke="rgb(0,0,0)" width="16.66665" x="2050.1554" y="148.2" /><text fill="black" x="2050.1554" y="171.8">H63</text><rect fill="rgb(72,56,255)" height="1.2" stroke="rgb(0,0,0)" width="5.0" x="2086.82205" y="149.4" /><text fill="black" x="2086.82205" y="170.6">E64</text><rect fill="rgb(255,77,98)" height="1.2" stroke="rgb(0,0,0)" width="6.66665" x="2111.82205" y="149.4" /><text fill="black" x="2111.82205" y="170.6">E65</text><rect fill="rgb(0,0,255)" height="0.0" stroke="rgb(0,0,0)" width="0.0" x="2138.4887" y="150.0" /><text fill="black" x="2138.4887" y="170.0">X66</text><rect fill="rgb(255,66,85)" height="8.799999999999999" stroke="rgb(0,0,0)" width="62.045500000000004" x="2158.4887" y="145.6" /><text fill="black" x="2158.4887" y="174.4">H67</text><rect fill="rgb(255,54,70)" height="2.0" stroke="rgb(0,0,0)" width="20.0" x="2240.5342" y="149.0" /><text fill="black" x="2240.5342" y="171.0">H68</text><rect fill="rgb(0,0,255)" height="0.4" stroke="rgb(0,0,0)" width="15.0" x="2280.5342" y="74.8" /><text fill="black" x="2280.5342" y="95.2">H69</text><rect fill="rgb(255,62,80)" height="1.2" stroke="rgb(0,0,0)" width="6.66665" x="2280.5342" y="224.4" /><text fill="black" x="2280.5342" y="245.6">E70</text><rect fill="rgb(255,184,235)" height="1.2" stroke="rgb(0,0,0)" width="55.0" x="2315.5342" y="149.4" /><text fill="black" x="2315.5342" y="170.6">H71</text><rect fill="rgb(0,0,255)" height="0.4" stroke="rgb(0,0,0)" width="15.0" x="2390.5342" y="74.8" /><text fill="black" x="2390.5342" y="95.2">H72</text><rect fill="rgb(0,0,255)" height="0.4" stroke="rgb(0,0,0)" width="5.0" x="2390.5342" y="224.8" /><text fill="black" x="2390.5342" y="245.2">E73</text><rect fill="rgb(0,0,255)" height="0.4" stroke="rgb(0,0,0)" width="20.0" x="2425.5342" y="74.8" /><text fill="black" x="2425.5342" y="95.2">H74</text><rect fill="rgb(0,0,255)" height="0.4" stroke="rgb(0,0,0)" width="5.0" x="2425.5342" y="224.8" /><text fill="black" x="2425.5342" y="245.2">E75</text><rect fill="rgb(255,22,28)" height="1.6" stroke="rgb(0,0,0)" width="20.0" x="2465.5342" y="149.2" /><text fill="black" x="2465.5342" y="170.8">H76</text><rect fill="rgb(255,28,36)" height="4.8" stroke="rgb(0,0,0)" width="20.0" x="2505.5342" y="147.6" /><text fill="black" x="2505.5342" y="172.4">H77</text><rect fill="rgb(176,138,255)" height="1.2" stroke="rgb(0,0,0)" width="5.0" x="2545.5342" y="149.4" /><text fill="black" x="2545.5342" y="170.6">E78</text><rect fill="rgb(255,88,112)" height="80.80000000000001" stroke="rgb(0,0,0)" width="83.688" x="2570.5342" y="109.6" /><text fill="black" x="2570.5342" y="210.4">H79</text><rect fill="rgb(0,0,255)" height="0.4" stroke="rgb(0,0,0)" width="15.0" x="2674.2222" y="74.8" /><text fill="black" x="2674.2222" y="95.2">H80</text><rect fill="rgb(199,156,255)" height="7.199999999999999" stroke="rgb(0,0,0)" width="5.0" x="2674.2222" y="221.4" /><text fill="black" x="2674.2222" y="248.6">E81</text><rect fill="rgb(255,31,40)" height="3.5999999999999996" stroke="rgb(0,0,0)" width="18.8889" x="2709.2222" y="148.2" /><text fill="black" x="2709.2222" y="171.8">H82</text><rect fill="rgb(241,189,255)" height="10.0" stroke="rgb(0,0,0)" width="53.8" x="2748.1111000000005" y="145.0" /><text fill="black" x="2748.1111000000005" y="175.0">H83</text><rect fill="rgb(255,67,85)" height="2.8000000000000003" stroke="rgb(0,0,0)" width="55.714499999999994" x="2821.9111000000003" y="148.6" /><text fill="black" x="2821.9111000000003" y="171.4">H84</text><rect fill="rgb(215,168,255)" height="9.6" stroke="rgb(0,0,0)" width="15.20835" x="2897.6256000000008" y="145.2" /><text fill="black" x="2897.6256000000008" y="174.8">E85</text><rect fill="rgb(216,169,255)" height="2.0" stroke="rgb(0,0,0)" width="15.0" x="2932.83395" y="149.0" /><text fill="black" x="2932.83395" y="171.0">H86</text><rect fill="rgb(165,129,255)" height="0.8" stroke="rgb(0,0,0)" width="15.0" x="2967.83395" y="149.6" /><text fill="black" x="2967.83395" y="170.4">H87</text><rect fill="rgb(249,195,255)" height="9.6" stroke="rgb(0,0,0)" width="17.08335" x="3002.83395" y="145.2" /><text fill="black" x="3002.83395" y="174.8">E88</text><rect fill="rgb(255,134,172)" height="5.6000000000000005" stroke="rgb(0,0,0)" width="9.64285" x="3039.9173" y="147.2" /><text fill="black" x="3039.9173" y="172.8">E89</text><rect fill="rgb(255,109,139)" height="9.2" stroke="rgb(0,0,0)" width="16.52175" x="3069.5601500000002" y="145.4" /><text fill="black" x="3069.5601500000002" y="174.6">H90</text><rect fill="rgb(0,0,255)" height="0.0" stroke="rgb(0,0,0)" width="0.0" x="3106.0819" y="150.0" /><text fill="black" x="3106.0819" y="170.0">X91</text><rect fill="rgb(255,141,179)" height="6.800000000000001" stroke="rgb(0,0,0)" width="29.7059" x="3126.0819" y="146.6" /><text fill="black" x="3126.0819" y="173.4">H92</text><rect fill="rgb(251,197,255)" height="18.8" stroke="rgb(0,0,0)" width="11.1702" x="3175.7878000000005" y="140.6" /><text fill="black" x="3175.7878000000005" y="179.4">E93</text><rect fill="rgb(0,0,255)" height="0.0" stroke="rgb(0,0,0)" width="0.0" x="3206.9580000000005" y="150.0" /><text fill="black" x="3206.9580000000005" y="170.0">X94</text><rect fill="rgb(255,175,223)" height="8.799999999999999" stroke="rgb(0,0,0)" width="9.545449999999999" x="3226.9580000000005" y="145.6" /><text fill="black" x="3226.9580000000005" y="174.4">E95</text><rect fill="rgb(0,0,255)" height="0.0" stroke="rgb(0,0,0)" width="0.0" x="3256.5034500000006" y="75.0" /><text fill="black" x="3256.5034500000006" y="95.0">X96</text><rect fill="rgb(255,48,62)" height="3.5999999999999996" stroke="rgb(0,0,0)" width="24.44445" x="3256.5034500000006" y="223.2" /><text fill="black" x="3256.5034500000006" y="246.8">H97</text><rect fill="rgb(0,0,255)" height="0.0" stroke="rgb(0,0,0)" width="0.0" x="3300.9479000000006" y="150.0" /><text fill="black" x="3300.9479000000006" y="170.0">X98</text><path d="M 65.87320000000001,150.0 a 92.18120655754028,92.18120655754028 0 0,0 -55.305025000000015,-0.0" stroke="rgb(255,146,186)" stroke-width="2" /><path d="M 65.87320000000001,150.0 a 92.18120655754028,92.18120655754028 0 0,0 -55.305025000000015,-0.0" stroke="rgb(0,0,0)" stroke-width="0.2" /><path d="M 3231.7307250000003,150.0 a 28444.833134349636,28444.833134349636 0 0,0 -3221.1625500000005,-0.0" stroke="rgb(255,146,186)" stroke-width="2" /><path d="M 3231.7307250000003,150.0 a 28444.833134349636,28444.833134349636 0 0,0 -3221.1625500000005,-0.0" stroke="rgb(0,0,0)" stroke-width="0.2" /><path d="M 250.50605000000002,150.0 a 427.0708540442305,427.0708540442305 0 0,0 -211.86970000000002,-0.0" stroke="rgb(1,0,255)" stroke-width="2" /><path d="M 250.50605000000002,150.0 a 427.0708540442305,427.0708540442305 0 0,0 -211.86970000000002,-0.0" stroke="rgb(0,0,0)" stroke-width="0.2" /><path d="M 160.61005,75.0 a 114.33498703509194,114.33498703509194 0 0,0 -67.49999999999999,-0.0" stroke="rgb(16,13,255)" stroke-width="2" /><path d="M 160.61005,75.0 a 114.33498703509194,114.33498703509194 0 0,0 -67.49999999999999,-0.0" stroke="rgb(0,0,0)" stroke-width="0.2" /><path d="M 2676.7222,225.0 a 16748.60429924968,16748.60429924968 0 0,0 -2401.21615,-75.0" stroke="rgb(219,172,255)" stroke-width="2" /><path d="M 2676.7222,225.0 a 16748.60429924968,16748.60429924968 0 0,0 -2401.21615,-75.0" stroke="rgb(0,0,0)" stroke-width="0.2" /><path d="M 301.00605,225.0 a 310.0998860094102,310.0998860094102 0 0,0 352.6243749999998,-0.0" stroke="rgb(134,105,255)" stroke-width="2" /><path d="M 301.00605,225.0 a 310.0998860094102,310.0998860094102 0 0,0 352.6243749999998,-0.0" stroke="rgb(0,0,0)" stroke-width="0.2" /><path d="M 351.22225,150.0 a 248.12660069734213,248.12660069734213 0 0,0 302.40817499999986,75.0" stroke="rgb(166,130,255)" stroke-width="2" /><path d="M 351.22225,150.0 a 248.12660069734213,248.12660069734213 0 0,0 302.40817499999986,75.0" stroke="rgb(0,0,0)" stroke-width="0.2" /><path d="M 351.22225,150.0 a 301.39949593666057,301.39949593666057 0 0,0 347.15382500000004,-0.0" stroke="rgb(166,130,255)" stroke-width="2" /><path d="M 351.22225,150.0 a 301.39949593666057,301.39949593666057 0 0,0 347.15382500000004,-0.0" stroke="rgb(0,0,0)" stroke-width="0.2" /><path d="M 351.22225,150.0 a 1631.9024778417956,1631.9024778417956 0 0,0 840.2006249999997,-0.0" stroke="rgb(166,130,255)" stroke-width="2" /><path d="M 351.22225,150.0 a 1631.9024778417956,1631.9024778417956 0 0,0 840.2006249999997,-0.0" stroke="rgb(0,0,0)" stroke-width="0.2" /><path d="M 351.22225,150.0 a 1764.7207872005047,1764.7207872005047 0 0,0 874.2866499999998,-0.0" stroke="rgb(166,130,255)" stroke-width="2" /><path d="M 351.22225,150.0 a 1764.7207872005047,1764.7207872005047 0 0,0 874.2866499999998,-0.0" stroke="rgb(0,0,0)" stroke-width="0.2" /><path d="M 432.2162,75.0 a 145.80159999191838,145.80159999191838 0 0,0 -38.333325,75.0" stroke="rgb(82,64,255)" stroke-width="2" /><path d="M 432.2162,75.0 a 145.80159999191838,145.80159999191838 0 0,0 -38.333325,75.0" stroke="rgb(0,0,0)" stroke-width="0.2" /><path d="M 562.0252,150.0 a 69.75354798469459,69.75354798469459 0 0,0 136.35087499999997,-0.0" stroke="rgb(0,0,255)" stroke-width="2" /><path d="M 562.0252,150.0 a 69.75354798469459,69.75354798469459 0 0,0 136.35087499999997,-0.0" stroke="rgb(0,0,0)" stroke-width="0.2" /><path d="M 653.6304249999998,225.0 a 138.99729170321794,138.99729170321794 0 0,0 -29.700449999999933,-75.0" stroke="rgb(125,98,255)" stroke-width="2" /><path d="M 653.6304249999998,225.0 a 138.99729170321794,138.99729170321794 0 0,0 -29.700449999999933,-75.0" stroke="rgb(0,0,0)" stroke-width="0.2" /><path d="M 698.376075,150.0 a 119.70964118528539,119.70964118528539 0 0,0 201.42552499999988,-0.0" stroke="rgb(255,192,244)" stroke-width="2" /><path d="M 698.376075,150.0 a 119.70964118528539,119.70964118528539 0 0,0 201.42552499999988,-0.0" stroke="rgb(0,0,0)" stroke-width="0.2" /><path d="M 733.4173999999998,150.0 a 90.4175045673637,90.4175045673637 0 0,0 166.38420000000008,-0.0" stroke="rgb(81,64,255)" stroke-width="2" /><path d="M 733.4173999999998,150.0 a 90.4175045673637,90.4175045673637 0 0,0 166.38420000000008,-0.0" stroke="rgb(0,0,0)" stroke-width="0.2" /><path d="M 862.1015999999998,225.0 a 355.5272148431683,355.5272148431683 0 0,0 -103.68420000000003,-150.0" stroke="rgb(128,100,255)" stroke-width="2" /><path d="M 862.1015999999998,225.0 a 355.5272148431683,355.5272148431683 0 0,0 -103.68420000000003,-150.0" stroke="rgb(0,0,0)" stroke-width="0.2" /><path d="M 925.8349249999999,150.0 a 41.70242840590339,41.70242840590339 0 0,0 -26.03332499999999,-0.0" stroke="rgb(167,131,255)" stroke-width="2" /><path d="M 925.8349249999999,150.0 a 41.70242840590339,41.70242840590339 0 0,0 -26.03332499999999,-0.0" stroke="rgb(0,0,0)" stroke-width="0.2" /><path d="M 1225.5088999999998,150.0 a 306.6798622755057,306.6798622755057 0 0,0 350.48415,-0.0" stroke="rgb(128,101,255)" stroke-width="2" /><path d="M 1225.5088999999998,150.0 a 306.6798622755057,306.6798622755057 0 0,0 350.48415,-0.0" stroke="rgb(0,0,0)" stroke-width="0.2" /><path d="M 1294.80325,225.0 a 56.7612423104125,56.7612423104125 0 0,0 -35.00000000000023,-0.0" stroke="rgb(66,51,255)" stroke-width="2" /><path d="M 1294.80325,225.0 a 56.7612423104125,56.7612423104125 0 0,0 -35.00000000000023,-0.0" stroke="rgb(0,0,0)" stroke-width="0.2" /><path d="M 1431.73925,75.0 a 67.91817896277827,67.91817896277827 0 0,0 110.26784999999973,75.0" stroke="rgb(23,18,255)" stroke-width="2" /><path d="M 1431.73925,75.0 a 67.91817896277827,67.91817896277827 0 0,0 110.26784999999973,75.0" stroke="rgb(0,0,0)" stroke-width="0.2" /><path d="M 1575.9930499999998,150.0 a 151.50028410255123,151.50028410255123 0 0,0 221.21285000000012,-75.0" stroke="rgb(193,152,255)" stroke-width="2" /><path d="M 1575.9930499999998,150.0 a 151.50028410255123,151.50028410255123 0 0,0 221.21285000000012,-75.0" stroke="rgb(0,0,0)" stroke-width="0.2" /><path d="M 1575.9930499999998,150.0 a 182.31238737781834,182.31238737781834 0 0,0 260.9932000000001,-0.0" stroke="rgb(193,152,255)" stroke-width="2" /><path d="M 1575.9930499999998,150.0 a 182.31238737781834,182.31238737781834 0 0,0 260.9932000000001,-0.0" stroke="rgb(0,0,0)" stroke-width="0.2" /><path d="M 1648.520675,225.0 a 292.45867975093074,292.45867975093074 0 0,0 -38.54167500000017,-150.0" stroke="rgb(0,0,255)" stroke-width="2" /><path d="M 1648.520675,225.0 a 292.45867975093074,292.45867975093074 0 0,0 -38.54167500000017,-150.0" stroke="rgb(0,0,0)" stroke-width="0.2" /><path d="M 1648.520675,225.0 a 121.00971127291047,121.00971127291047 0 0,0 188.46557499999994,-75.0" stroke="rgb(255,172,219)" stroke-width="2" /><path d="M 1648.520675,225.0 a 121.00971127291047,121.00971127291047 0 0,0 188.46557499999994,-75.0" stroke="rgb(0,0,0)" stroke-width="0.2" /><path d="M 1916.9212000000002,150.0 a 137.60639428436144,137.60639428436144 0 0,0 -79.9349500000003,-0.0" stroke="rgb(160,125,255)" stroke-width="2" /><path d="M 1916.9212000000002,150.0 a 137.60639428436144,137.60639428436144 0 0,0 -79.9349500000003,-0.0" stroke="rgb(0,0,0)" stroke-width="0.2" /><path d="M 1836.98625,150.0 a 4135.17151067778,4135.17151067778 0 0,0 1344.3866500000004,-0.0" stroke="rgb(160,125,255)" stroke-width="2" /><path d="M 1836.98625,150.0 a 4135.17151067778,4135.17151067778 0 0,0 1344.3866500000004,-0.0" stroke="rgb(0,0,0)" stroke-width="0.2" /><path d="M 1966.55175,150.0 a 82.09826030104429,82.09826030104429 0 0,0 -49.63054999999986,-0.0" stroke="rgb(255,170,216)" stroke-width="2" /><path d="M 1966.55175,150.0 a 82.09826030104429,82.09826030104429 0 0,0 -49.63054999999986,-0.0" stroke="rgb(0,0,0)" stroke-width="0.2" /><path d="M 2548.0342,150.0 a 1178.7924879406069,1178.7924879406069 0 0,0 -458.71214999999984,-0.0" stroke="rgb(72,56,255)" stroke-width="2" /><path d="M 2548.0342,150.0 a 1178.7924879406069,1178.7924879406069 0 0,0 -458.71214999999984,-0.0" stroke="rgb(0,0,0)" stroke-width="0.2" /><path d="M 2283.867525,225.0 a 360.9238191564775,360.9238191564775 0 0,0 -168.71214999999984,-75.0" stroke="rgb(255,77,98)" stroke-width="2" /><path d="M 2283.867525,225.0 a 360.9238191564775,360.9238191564775 0 0,0 -168.71214999999984,-75.0" stroke="rgb(0,0,0)" stroke-width="0.2" /><path d="M 2393.0342,225.0 a 30.28409090909091,30.28409090909091 0 0,0 35.0,-0.0" stroke="rgb(0,0,255)" stroke-width="2" /><path d="M 2393.0342,225.0 a 30.28409090909091,30.28409090909091 0 0,0 35.0,-0.0" stroke="rgb(0,0,0)" stroke-width="0.2" /><path d="M 3011.375625,150.0 a 188.9165223031186,188.9165223031186 0 0,0 -106.14584999999943,-0.0" stroke="rgb(215,168,255)" stroke-width="2" /><path d="M 3011.375625,150.0 a 188.9165223031186,188.9165223031186 0 0,0 -106.14584999999943,-0.0" stroke="rgb(0,0,0)" stroke-width="0.2" /><path d="M 3181.3729000000003,150.0 a 252.45958989587965,252.45958989587965 0 0,0 -136.63417500000014,-0.0" stroke="rgb(255,134,172)" stroke-width="2" /><path d="M 3181.3729000000003,150.0 a 252.45958989587965,252.45958989587965 0 0,0 -136.63417500000014,-0.0" stroke="rgb(0,0,0)" stroke-width="0.2" /></svg>