<?xml version="1.0" encoding="utf-8" ?>
<svg baseProfile="full" height="100%" style="font-size:14;font-family:Sans, Arial;stroke-width:1;fill:none" version="1.1" width="100%" xmlns="http://www.w3.org/2000/svg" xmlns:ev="http://www.w3.org/2001/xml-events" xmlns:xlink="http://www.w3.org/1999/xlink"><defs /><rect fill="none" height="280.0" stroke="none" width="4990.0" x="0" y="0" /><line stroke="rgb(0,0,0)" x1="5.0" x2="25.0" y1="130.0" y2="130.0" /><line stroke="rgb(0,0,0)" x1="25.0" x2="45.0" y1="130.0" y2="130.0" /><line stroke="rgb(0,0,0)" x1="45.0" x2="50.0" y1="130.0" y2="130.0" /><line stroke="rgb(0,0,0)" x1="50.0" x2="60.0" y1="130.0" y2="130.0" /><line stroke="rgb(0,0,0)" x1="60.0" x2="80.0" y1="130.0" y2="130.0" /><line stroke="rgb(0,0,0)" x1="80.0" x2="85.0" y1="130.0" y2="130.0" /><line stroke="rgb(0,0,0)" x1="85.0" x2="105.0" y1="130.0" y2="130.0" /><line stroke="rgb(0,0,0)" x1="105.0" x2="125.0" y1="130.0" y2="55.0" /><line stroke="rgb(0,0,0)" x1="125.0" x2="130.0" y1="55.0" y2="55.0" /><line stroke="rgb(0,0,0)" x1="85.0" x2="105.0" y1="130.0" y2="130.0" /><line stroke="rgb(0,0,0)" x1="105.0" x2="125.0" y1="130.0" y2="205.0" /><line stroke="rgb(0,0,0)" x1="125.0" x2="130.0" y1="205.0" y2="205.0" /><line stroke="rgb(0,0,0)" x1="130.0" x2="140.0" y1="55.0" y2="55.0" /><line stroke="rgb(0,0,0)" x1="140.0" x2="230.0" y1="55.0" y2="55.0" /><line stroke="rgb(0,0,0)" x1="230.0" x2="235.0" y1="55.0" y2="55.0" /><line stroke="rgb(0,0,0)" x1="130.0" x2="210.0" y1="205.0" y2="205.0" /><line stroke="rgb(0,0,0)" x1="210.0" x2="230.0" y1="205.0" y2="205.0" /><line stroke="rgb(0,0,0)" x1="230.0" x2="235.0" y1="205.0" y2="205.0" /><line stroke="rgb(0,0,0)" x1="235.0" x2="245.0" y1="55.0" y2="55.0" /><line stroke="rgb(0,0,0)" x1="245.0" x2="355.0" y1="55.0" y2="130.0" /><line stroke="rgb(0,0,0)" x1="355.0" x2="360.0" y1="130.0" y2="130.0" /><line stroke="rgb(0,0,0)" x1="360.0" x2="370.0" y1="130.0" y2="130.0" /><line stroke="rgb(0,0,0)" x1="370.0" x2="390.0" y1="130.0" y2="130.0" /><line stroke="rgb(0,0,0)" x1="390.0" x2="395.0" y1="130.0" y2="130.0" /><line stroke="rgb(0,0,0)" x1="235.0" x2="335.0" y1="205.0" y2="205.0" /><line stroke="rgb(0,0,0)" x1="335.0" x2="390.0" y1="205.0" y2="130.0" /><line stroke="rgb(0,0,0)" x1="390.0" x2="395.0" y1="130.0" y2="130.0" /><line stroke="rgb(0,0,0)" x1="395.0" x2="405.0" y1="130.0" y2="130.0" /><line stroke="rgb(0,0,0)" x1="405.0" x2="425.0" y1="130.0" y2="55.0" /><line stroke="rgb(0,0,0)" x1="425.0" x2="430.0" y1="55.0" y2="55.0" /><line stroke="rgb(0,0,0)" x1="395.0" x2="405.0" y1="130.0" y2="130.0" /><line stroke="rgb(0,0,0)" x1="405.0" x2="425.0" y1="130.0" y2="205.0" /><line stroke="rgb(0,0,0)" x1="425.0" x2="430.0" y1="205.0" y2="205.0" /><line stroke="rgb(0,0,0)" x1="430.0" x2="460.0" y1="55.0" y2="55.0" /><line stroke="rgb(0,0,0)" x1="460.0" x2="480.0" y1="55.0" y2="130.0" /><line stroke="rgb(0,0,0)" x1="480.0" x2="485.0" y1="130.0" y2="130.0" /><line stroke="rgb(0,0,0)" x1="430.0" x2="445.0" y1="205.0" y2="205.0" /><line stroke="rgb(0,0,0)" x1="445.0" x2="480.0" y1="205.0" y2="130.0" /><line stroke="rgb(0,0,0)" x1="480.0" x2="485.0" y1="130.0" y2="130.0" /><line stroke="rgb(0,0,0)" x1="485.0" x2="545.0" y1="130.0" y2="130.0" /><line stroke="rgb(0,0,0)" x1="545.0" x2="565.0" y1="130.0" y2="130.0" /><line stroke="rgb(0,0,0)" x1="565.0" x2="570.0" y1="130.0" y2="130.0" /><line stroke="rgb(0,0,0)" x1="570.0" x2="595.0" y1="130.0" y2="130.0" /><line stroke="rgb(0,0,0)" x1="595.0" x2="615.0" y1="130.0" y2="55.0" /><line stroke="rgb(0,0,0)" x1="615.0" x2="620.0" y1="55.0" y2="55.0" /><line stroke="rgb(0,0,0)" x1="570.0" x2="595.0" y1="130.0" y2="130.0" /><line stroke="rgb(0,0,0)" x1="595.0" x2="615.0" y1="130.0" y2="205.0" /><line stroke="rgb(0,0,0)" x1="615.0" x2="620.0" y1="205.0" y2="205.0" /><line stroke="rgb(0,0,0)" x1="620.0" x2="645.0" y1="55.0" y2="55.0" /><line stroke="rgb(0,0,0)" x1="645.0" x2="680.0" y1="55.0" y2="130.0" /><line stroke="rgb(0,0,0)" x1="680.0" x2="685.0" y1="130.0" y2="130.0" /><line stroke="rgb(0,0,0)" x1="620.0" x2="660.0" y1="205.0" y2="205.0" /><line stroke="rgb(0,0,0)" x1="660.0" x2="680.0" y1="205.0" y2="130.0" /><line stroke="rgb(0,0,0)" x1="680.0" x2="685.0" y1="130.0" y2="130.0" /><line stroke="rgb(0,0,0)" x1="685.0" x2="805.0" y1="130.0" y2="130.0" /><line stroke="rgb(0,0,0)" x1="805.0" x2="825.0" y1="130.0" y2="130.0" /><line stroke="rgb(0,0,0)" x1="825.0" x2="830.0" y1="130.0" y2="130.0" /><line stroke="rgb(0,0,0)" x1="830.0" x2="840.0" y1="130.0" y2="130.0" /><line stroke="rgb(0,0,0)" x1="840.0" x2="860.0" y1="130.0" y2="130.0" /><line stroke="rgb(0,0,0)" x1="860.0" x2="865.0" y1="130.0" y2="130.0" /><line stroke="rgb(0,0,0)" x1="865.0" x2="895.0" y1="130.0" y2="130.0" /><line stroke="rgb(0,0,0)" x1="895.0" x2="915.0" y1="130.0" y2="130.0" /><line stroke="rgb(0,0,0)" x1="915.0" x2="920.0" y1="130.0" y2="130.0" /><line stroke="rgb(0,0,0)" x1="920.0" x2="935.0" y1="130.0" y2="130.0" /><line stroke="rgb(0,0,0)" x1="935.0" x2="955.0" y1="130.0" y2="55.0" /><line stroke="rgb(0,0,0)" x1="955.0" x2="960.0" y1="55.0" y2="55.0" /><line stroke="rgb(0,0,0)" x1="920.0" x2="935.0" y1="130.0" y2="130.0" /><line stroke="rgb(0,0,0)" x1="935.0" x2="955.0" y1="130.0" y2="205.0" /><line stroke="rgb(0,0,0)" x1="955.0" x2="960.0" y1="205.0" y2="205.0" /><line stroke="rgb(0,0,0)" x1="960.0" x2="985.0" y1="55.0" y2="55.0" /><line stroke="rgb(0,0,0)" x1="985.0" x2="1030.0" y1="55.0" y2="130.0" /><line stroke="rgb(0,0,0)" x1="1030.0" x2="1035.0" y1="130.0" y2="130.0" /><line stroke="rgb(0,0,0)" x1="960.0" x2="1010.0" y1="205.0" y2="205.0" /><line stroke="rgb(0,0,0)" x1="1010.0" x2="1030.0" y1="205.0" y2="130.0" /><line stroke="rgb(0,0,0)" x1="1030.0" x2="1035.0" y1="130.0" y2="130.0" /><line stroke="rgb(0,0,0)" x1="1035.0" x2="1095.0" y1="130.0" y2="130.0" /><line stroke="rgb(0,0,0)" x1="1095.0" x2="1115.0" y1="130.0" y2="130.0" /><line stroke="rgb(0,0,0)" x1="1115.0" x2="1120.0" y1="130.0" y2="130.0" /><line stroke="rgb(0,0,0)" x1="1120.0" x2="1130.0" y1="130.0" y2="130.0" /><line stroke="rgb(0,0,0)" x1="1130.0" x2="1150.0" y1="130.0" y2="55.0" /><line stroke="rgb(0,0,0)" x1="1150.0" x2="1155.0" y1="55.0" y2="55.0" /><line stroke="rgb(0,0,0)" x1="1120.0" x2="1130.0" y1="130.0" y2="130.0" /><line stroke="rgb(0,0,0)" x1="1130.0" x2="1150.0" y1="130.0" y2="205.0" /><line stroke="rgb(0,0,0)" x1="1150.0" x2="1155.0" y1="205.0" y2="205.0" /><line stroke="rgb(0,0,0)" x1="1155.0" x2="1165.0" y1="55.0" y2="55.0" /><line stroke="rgb(0,0,0)" x1="1165.0" x2="1195.0" y1="55.0" y2="130.0" /><line stroke="rgb(0,0,0)" x1="1195.0" x2="1200.0" y1="130.0" y2="130.0" /><line stroke="rgb(0,0,0)" x1="1155.0" x2="1175.0" y1="205.0" y2="205.0" /><line stroke="rgb(0,0,0)" x1="1175.0" x2="1195.0" y1="205.0" y2="130.0" /><line stroke="rgb(0,0,0)" x1="1195.0" x2="1200.0" y1="130.0" y2="130.0" /><line stroke="rgb(0,0,0)" x1="1200.0" x2="1255.0" y1="130.0" y2="130.0" /><line stroke="rgb(0,0,0)" x1="1255.0" x2="1275.0" y1="130.0" y2="55.0" /><line stroke="rgb(0,0,0)" x1="1275.0" x2="1280.0" y1="55.0" y2="55.0" /><line stroke="rgb(0,0,0)" x1="1200.0" x2="1255.0" y1="130.0" y2="130.0" /><line stroke="rgb(0,0,0)" x1="1255.0" x2="1275.0" y1="130.0" y2="205.0" /><line stroke="rgb(0,0,0)" x1="1275.0" x2="1280.0" y1="205.0" y2="205.0" /><line stroke="rgb(0,0,0)" x1="1280.0" x2="1305.0" y1="55.0" y2="55.0" /><line stroke="rgb(0,0,0)" x1="1305.0" x2="1325.0" y1="55.0" y2="130.0" /><line stroke="rgb(0,0,0)" x1="1325.0" x2="1330.0" y1="130.0" y2="130.0" /><line stroke="rgb(0,0,0)" x1="1280.0" x2="1290.0" y1="205.0" y2="205.0" /><line stroke="rgb(0,0,0)" x1="1290.0" x2="1325.0" y1="205.0" y2="130.0" /><line stroke="rgb(0,0,0)" x1="1325.0" x2="1330.0" y1="130.0" y2="130.0" /><line stroke="rgb(0,0,0)" x1="1330.0" x2="1345.0" y1="130.0" y2="130.0" /><line stroke="rgb(0,0,0)" x1="1345.0" x2="1365.0" y1="130.0" y2="130.0" /><line stroke="rgb(0,0,0)" x1="1365.0" x2="1370.0" y1="130.0" y2="130.0" /><line stroke="rgb(0,0,0)" x1="1370.0" x2="1385.0" y1="130.0" y2="130.0" /><line stroke="rgb(0,0,0)" x1="1385.0" x2="1405.0" y1="130.0" y2="130.0" /><line stroke="rgb(0,0,0)" x1="1405.0" x2="1410.0" y1="130.0" y2="130.0" /><line stroke="rgb(0,0,0)" x1="1410.0" x2="1415.0" y1="130.0" y2="130.0" /><line stroke="rgb(0,0,0)" x1="1415.0" x2="1435.0" y1="130.0" y2="130.0" /><line stroke="rgb(0,0,0)" x1="1435.0" x2="1440.0" y1="130.0" y2="130.0" /><line stroke="rgb(0,0,0)" x1="1440.0" x2="1465.0" y1="130.0" y2="130.0" /><line stroke="rgb(0,0,0)" x1="1465.0" x2="1485.0" y1="130.0" y2="130.0" /><line stroke="rgb(0,0,0)" x1="1485.0" x2="1490.0" y1="130.0" y2="130.0" /><line stroke="rgb(0,0,0)" x1="1490.0" x2="1585.0" y1="130.0" y2="130.0" /><line stroke="rgb(0,0,0)" x1="1585.0" x2="1605.0" y1="130.0" y2="130.0" /><line stroke="rgb(0,0,0)" x1="1605.0" x2="1610.0" y1="130.0" y2="130.0" /><line stroke="rgb(0,0,0)" x1="1610.0" x2="1650.0" y1="130.0" y2="130.0" /><line stroke="rgb(0,0,0)" x1="1650.0" x2="1670.0" y1="130.0" y2="130.0" /><line stroke="rgb(0,0,0)" x1="1670.0" x2="1675.0" y1="130.0" y2="130.0" /><line stroke="rgb(0,0,0)" x1="1675.0" x2="1680.0" y1="130.0" y2="130.0" /><line stroke="rgb(0,0,0)" x1="1680.0" x2="1700.0" y1="130.0" y2="130.0" /><line stroke="rgb(0,0,0)" x1="1700.0" x2="1705.0" y1="130.0" y2="130.0" /><line stroke="rgb(0,0,0)" x1="1705.0" x2="1710.0" y1="130.0" y2="130.0" /><line stroke="rgb(0,0,0)" x1="1710.0" x2="1730.0" y1="130.0" y2="130.0" /><line stroke="rgb(0,0,0)" x1="1730.0" x2="1735.0" y1="130.0" y2="130.0" /><line stroke="rgb(0,0,0)" x1="1735.0" x2="1740.0" y1="130.0" y2="130.0" /><line stroke="rgb(0,0,0)" x1="1740.0" x2="1760.0" y1="130.0" y2="130.0" /><line stroke="rgb(0,0,0)" x1="1760.0" x2="1765.0" y1="130.0" y2="130.0" /><line stroke="rgb(0,0,0)" x1="1765.0" x2="1785.0" y1="130.0" y2="130.0" /><line stroke="rgb(0,0,0)" x1="1785.0" x2="1805.0" y1="130.0" y2="130.0" /><line stroke="rgb(0,0,0)" x1="1805.0" x2="1810.0" y1="130.0" y2="130.0" /><line stroke="rgb(0,0,0)" x1="1810.0" x2="1850.0" y1="130.0" y2="130.0" /><line stroke="rgb(0,0,0)" x1="1850.0" x2="1870.0" y1="130.0" y2="55.0" /><line stroke="rgb(0,0,0)" x1="1870.0" x2="1875.0" y1="55.0" y2="55.0" /><line stroke="rgb(0,0,0)" x1="1810.0" x2="1850.0" y1="130.0" y2="130.0" /><line stroke="rgb(0,0,0)" x1="1850.0" x2="1870.0" y1="130.0" y2="205.0" /><line stroke="rgb(0,0,0)" x1="1870.0" x2="1875.0" y1="205.0" y2="205.0" /><line stroke="rgb(0,0,0)" x1="1875.0" x2="1895.0" y1="55.0" y2="55.0" /><line stroke="rgb(0,0,0)" x1="1895.0" x2="1915.0" y1="55.0" y2="55.0" /><line stroke="rgb(0,0,0)" x1="1915.0" x2="1920.0" y1="55.0" y2="55.0" /><line stroke="rgb(0,0,0)" x1="1875.0" x2="1890.0" y1="205.0" y2="205.0" /><line stroke="rgb(0,0,0)" x1="1890.0" x2="1915.0" y1="205.0" y2="205.0" /><line stroke="rgb(0,0,0)" x1="1915.0" x2="1920.0" y1="205.0" y2="205.0" /><line stroke="rgb(0,0,0)" x1="1920.0" x2="1990.0" y1="55.0" y2="55.0" /><line stroke="rgb(0,0,0)" x1="1990.0" x2="2010.0" y1="55.0" y2="130.0" /><line stroke="rgb(0,0,0)" x1="2010.0" x2="2015.0" y1="130.0" y2="130.0" /><line stroke="rgb(0,0,0)" x1="1920.0" x2="1935.0" y1="205.0" y2="205.0" /><line stroke="rgb(0,0,0)" x1="1935.0" x2="2010.0" y1="205.0" y2="130.0" /><line stroke="rgb(0,0,0)" x1="2010.0" x2="2015.0" y1="130.0" y2="130.0" /><line stroke="rgb(0,0,0)" x1="2015.0" x2="2110.0" y1="130.0" y2="130.0" /><line stroke="rgb(0,0,0)" x1="2110.0" x2="2130.0" y1="130.0" y2="55.0" /><line stroke="rgb(0,0,0)" x1="2130.0" x2="2135.0" y1="55.0" y2="55.0" /><line stroke="rgb(0,0,0)" x1="2015.0" x2="2110.0" y1="130.0" y2="130.0" /><line stroke="rgb(0,0,0)" x1="2110.0" x2="2130.0" y1="130.0" y2="205.0" /><line stroke="rgb(0,0,0)" x1="2130.0" x2="2135.0" y1="205.0" y2="205.0" /><line stroke="rgb(0,0,0)" x1="2135.0" x2="2140.0" y1="205.0" y2="205.0" /><line stroke="rgb(0,0,0)" x1="2140.0" x2="2165.0" y1="205.0" y2="130.0" /><line stroke="rgb(0,0,0)" x1="2165.0" x2="2170.0" y1="130.0" y2="130.0" /><line stroke="rgb(0,0,0)" x1="2170.0" x2="2245.0" y1="130.0" y2="130.0" /><line stroke="rgb(0,0,0)" x1="2245.0" x2="2265.0" y1="130.0" y2="130.0" /><line stroke="rgb(0,0,0)" x1="2265.0" x2="2270.0" y1="130.0" y2="130.0" /><line stroke="rgb(0,0,0)" x1="2135.0" x2="2145.0" y1="55.0" y2="55.0" /><line stroke="rgb(0,0,0)" x1="2145.0" x2="2265.0" y1="55.0" y2="130.0" /><line stroke="rgb(0,0,0)" x1="2265.0" x2="2270.0" y1="130.0" y2="130.0" /><line stroke="rgb(0,0,0)" x1="2270.0" x2="2305.0" y1="130.0" y2="130.0" /><line stroke="rgb(0,0,0)" x1="2305.0" x2="2325.0" y1="130.0" y2="130.0" /><line stroke="rgb(0,0,0)" x1="2325.0" x2="2330.0" y1="130.0" y2="130.0" /><line stroke="rgb(0,0,0)" x1="2330.0" x2="2340.0" y1="130.0" y2="130.0" /><line stroke="rgb(0,0,0)" x1="2340.0" x2="2360.0" y1="130.0" y2="130.0" /><line stroke="rgb(0,0,0)" x1="2360.0" x2="2365.0" y1="130.0" y2="130.0" /><line stroke="rgb(0,0,0)" x1="2365.0" x2="2405.0" y1="130.0" y2="130.0" /><line stroke="rgb(0,0,0)" x1="2405.0" x2="2425.0" y1="130.0" y2="55.0" /><line stroke="rgb(0,0,0)" x1="2425.0" x2="2430.0" y1="55.0" y2="55.0" /><line stroke="rgb(0,0,0)" x1="2365.0" x2="2405.0" y1="130.0" y2="130.0" /><line stroke="rgb(0,0,0)" x1="2405.0" x2="2425.0" y1="130.0" y2="205.0" /><line stroke="rgb(0,0,0)" x1="2425.0" x2="2430.0" y1="205.0" y2="205.0" /><line stroke="rgb(0,0,0)" x1="2430.0" x2="2470.0" y1="205.0" y2="205.0" /><line stroke="rgb(0,0,0)" x1="2470.0" x2="2490.0" y1="205.0" y2="55.0" /><line stroke="rgb(0,0,0)" x1="2490.0" x2="2495.0" y1="55.0" y2="55.0" /><line stroke="rgb(0,0,0)" x1="2430.0" x2="2440.0" y1="55.0" y2="55.0" /><line stroke="rgb(0,0,0)" x1="2440.0" x2="2490.0" y1="55.0" y2="205.0" /><line stroke="rgb(0,0,0)" x1="2490.0" x2="2495.0" y1="205.0" y2="205.0" /><line stroke="rgb(0,0,0)" x1="2495.0" x2="2535.0" y1="55.0" y2="55.0" /><line stroke="rgb(0,0,0)" x1="2535.0" x2="2555.0" y1="55.0" y2="130.0" /><line stroke="rgb(0,0,0)" x1="2555.0" x2="2560.0" y1="130.0" y2="130.0" /><line stroke="rgb(0,0,0)" x1="2495.0" x2="2510.0" y1="205.0" y2="205.0" /><line stroke="rgb(0,0,0)" x1="2510.0" x2="2555.0" y1="205.0" y2="130.0" /><line stroke="rgb(0,0,0)" x1="2555.0" x2="2560.0" y1="130.0" y2="130.0" /><line stroke="rgb(0,0,0)" x1="2560.0" x2="2630.0" y1="130.0" y2="130.0" /><line stroke="rgb(0,0,0)" x1="2630.0" x2="2650.0" y1="130.0" y2="130.0" /><line stroke="rgb(0,0,0)" x1="2650.0" x2="2655.0" y1="130.0" y2="130.0" /><line stroke="rgb(0,0,0)" x1="2655.0" x2="2710.0" y1="130.0" y2="130.0" /><line stroke="rgb(0,0,0)" x1="2710.0" x2="2730.0" y1="130.0" y2="55.0" /><line stroke="rgb(0,0,0)" x1="2730.0" x2="2735.0" y1="55.0" y2="55.0" /><line stroke="rgb(0,0,0)" x1="2655.0" x2="2710.0" y1="130.0" y2="130.0" /><line stroke="rgb(0,0,0)" x1="2710.0" x2="2730.0" y1="130.0" y2="205.0" /><line stroke="rgb(0,0,0)" x1="2730.0" x2="2735.0" y1="205.0" y2="205.0" /><line stroke="rgb(0,0,0)" x1="2735.0" x2="2760.0" y1="55.0" y2="55.0" /><line stroke="rgb(0,0,0)" x1="2760.0" x2="2780.0" y1="55.0" y2="130.0" /><line stroke="rgb(0,0,0)" x1="2780.0" x2="2785.0" y1="130.0" y2="130.0" /><line stroke="rgb(0,0,0)" x1="2735.0" x2="2755.0" y1="205.0" y2="205.0" /><line stroke="rgb(0,0,0)" x1="2755.0" x2="2780.0" y1="205.0" y2="130.0" /><line stroke="rgb(0,0,0)" x1="2780.0" x2="2785.0" y1="130.0" y2="130.0" /><line stroke="rgb(0,0,0)" x1="2785.0" x2="2820.0" y1="130.0" y2="130.0" /><line stroke="rgb(0,0,0)" x1="2820.0" x2="2840.0" y1="130.0" y2="130.0" /><line stroke="rgb(0,0,0)" x1="2840.0" x2="2845.0" y1="130.0" y2="130.0" /><line stroke="rgb(0,0,0)" x1="2845.0" x2="2870.0" y1="130.0" y2="130.0" /><line stroke="rgb(0,0,0)" x1="2870.0" x2="2890.0" y1="130.0" y2="130.0" /><line stroke="rgb(0,0,0)" x1="2890.0" x2="2895.0" y1="130.0" y2="130.0" /><line stroke="rgb(0,0,0)" x1="2895.0" x2="2945.0" y1="130.0" y2="130.0" /><line stroke="rgb(0,0,0)" x1="2945.0" x2="2965.0" y1="130.0" y2="130.0" /><line stroke="rgb(0,0,0)" x1="2965.0" x2="2970.0" y1="130.0" y2="130.0" /><line stroke="rgb(0,0,0)" x1="2970.0" x2="3025.0" y1="130.0" y2="130.0" /><line stroke="rgb(0,0,0)" x1="3025.0" x2="3045.0" y1="130.0" y2="130.0" /><line stroke="rgb(0,0,0)" x1="3045.0" x2="3050.0" y1="130.0" y2="130.0" /><line stroke="rgb(0,0,0)" x1="3050.0" x2="3090.0" y1="130.0" y2="130.0" /><line stroke="rgb(0,0,0)" x1="3090.0" x2="3110.0" y1="130.0" y2="130.0" /><line stroke="rgb(0,0,0)" x1="3110.0" x2="3115.0" y1="130.0" y2="130.0" /><line stroke="rgb(0,0,0)" x1="3115.0" x2="3145.0" y1="130.0" y2="130.0" /><line stroke="rgb(0,0,0)" x1="3145.0" x2="3165.0" y1="130.0" y2="130.0" /><line stroke="rgb(0,0,0)" x1="3165.0" x2="3170.0" y1="130.0" y2="130.0" /><line stroke="rgb(0,0,0)" x1="3170.0" x2="3180.0" y1="130.0" y2="130.0" /><line stroke="rgb(0,0,0)" x1="3180.0" x2="3200.0" y1="130.0" y2="130.0" /><line stroke="rgb(0,0,0)" x1="3200.0" x2="3205.0" y1="130.0" y2="130.0" /><line stroke="rgb(0,0,0)" x1="3205.0" x2="3220.0" y1="130.0" y2="130.0" /><line stroke="rgb(0,0,0)" x1="3220.0" x2="3240.0" y1="130.0" y2="130.0" /><line stroke="rgb(0,0,0)" x1="3240.0" x2="3245.0" y1="130.0" y2="130.0" /><line stroke="rgb(0,0,0)" x1="3245.0" x2="3250.0" y1="130.0" y2="130.0" /><line stroke="rgb(0,0,0)" x1="3250.0" x2="3270.0" y1="130.0" y2="130.0" /><line stroke="rgb(0,0,0)" x1="3270.0" x2="3275.0" y1="130.0" y2="130.0" /><line stroke="rgb(0,0,0)" x1="3275.0" x2="3370.0" y1="130.0" y2="130.0" /><line stroke="rgb(0,0,0)" x1="3370.0" x2="3390.0" y1="130.0" y2="130.0" /><line stroke="rgb(0,0,0)" x1="3390.0" x2="3395.0" y1="130.0" y2="130.0" /><line stroke="rgb(0,0,0)" x1="3395.0" x2="3420.0" y1="130.0" y2="130.0" /><line stroke="rgb(0,0,0)" x1="3420.0" x2="3440.0" y1="130.0" y2="55.0" /><line stroke="rgb(0,0,0)" x1="3440.0" x2="3445.0" y1="55.0" y2="55.0" /><line stroke="rgb(0,0,0)" x1="3395.0" x2="3420.0" y1="130.0" y2="130.0" /><line stroke="rgb(0,0,0)" x1="3420.0" x2="3440.0" y1="130.0" y2="205.0" /><line stroke="rgb(0,0,0)" x1="3440.0" x2="3445.0" y1="205.0" y2="205.0" /><line stroke="rgb(0,0,0)" x1="3445.0" x2="3465.0" y1="55.0" y2="55.0" /><line stroke="rgb(0,0,0)" x1="3465.0" x2="3485.0" y1="55.0" y2="130.0" /><line stroke="rgb(0,0,0)" x1="3485.0" x2="3490.0" y1="130.0" y2="130.0" /><line stroke="rgb(0,0,0)" x1="3445.0" x2="3460.0" y1="205.0" y2="205.0" /><line stroke="rgb(0,0,0)" x1="3460.0" x2="3485.0" y1="205.0" y2="130.0" /><line stroke="rgb(0,0,0)" x1="3485.0" x2="3490.0" y1="130.0" y2="130.0" /><line stroke="rgb(0,0,0)" x1="3490.0" x2="3550.0" y1="130.0" y2="130.0" /><line stroke="rgb(0,0,0)" x1="3550.0" x2="3570.0" y1="130.0" y2="55.0" /><line stroke="rgb(0,0,0)" x1="3570.0" x2="3575.0" y1="55.0" y2="55.0" /><line stroke="rgb(0,0,0)" x1="3490.0" x2="3550.0" y1="130.0" y2="130.0" /><line stroke="rgb(0,0,0)" x1="3550.0" x2="3570.0" y1="130.0" y2="205.0" /><line stroke="rgb(0,0,0)" x1="3570.0" x2="3575.0" y1="205.0" y2="205.0" /><line stroke="rgb(0,0,0)" x1="3575.0" x2="3595.0" y1="55.0" y2="55.0" /><line stroke="rgb(0,0,0)" x1="3595.0" x2="3615.0" y1="55.0" y2="55.0" /><line stroke="rgb(0,0,0)" x1="3615.0" x2="3620.0" y1="55.0" y2="55.0" /><line stroke="rgb(0,0,0)" x1="3575.0" x2="3585.0" y1="205.0" y2="205.0" /><line stroke="rgb(0,0,0)" x1="3585.0" x2="3615.0" y1="205.0" y2="205.0" /><line stroke="rgb(0,0,0)" x1="3615.0" x2="3620.0" y1="205.0" y2="205.0" /><line stroke="rgb(0,0,0)" x1="3620.0" x2="3645.0" y1="55.0" y2="55.0" /><line stroke="rgb(0,0,0)" x1="3645.0" x2="3665.0" y1="55.0" y2="130.0" /><line stroke="rgb(0,0,0)" x1="3665.0" x2="3670.0" y1="130.0" y2="130.0" /><line stroke="rgb(0,0,0)" x1="3620.0" x2="3630.0" y1="205.0" y2="205.0" /><line stroke="rgb(0,0,0)" x1="3630.0" x2="3665.0" y1="205.0" y2="130.0" /><line stroke="rgb(0,0,0)" x1="3665.0" x2="3670.0" y1="130.0" y2="130.0" /><line stroke="rgb(0,0,0)" x1="3670.0" x2="3700.0" y1="130.0" y2="130.0" /><line stroke="rgb(0,0,0)" x1="3700.0" x2="3720.0" y1="130.0" y2="130.0" /><line stroke="rgb(0,0,0)" x1="3720.0" x2="3725.0" y1="130.0" y2="130.0" /><line stroke="rgb(0,0,0)" x1="3725.0" x2="3765.0" y1="130.0" y2="130.0" /><line stroke="rgb(0,0,0)" x1="3765.0" x2="3785.0" y1="130.0" y2="130.0" /><line stroke="rgb(0,0,0)" x1="3785.0" x2="3790.0" y1="130.0" y2="130.0" /><line stroke="rgb(0,0,0)" x1="3790.0" x2="3800.0" y1="130.0" y2="130.0" /><line stroke="rgb(0,0,0)" x1="3800.0" x2="3820.0" y1="130.0" y2="130.0" /><line stroke="rgb(0,0,0)" x1="3820.0" x2="3825.0" y1="130.0" y2="130.0" /><line stroke="rgb(0,0,0)" x1="3825.0" x2="3985.0" y1="130.0" y2="130.0" /><line stroke="rgb(0,0,0)" x1="3985.0" x2="4005.0" y1="130.0" y2="55.0" /><line stroke="rgb(0,0,0)" x1="4005.0" x2="4010.0" y1="55.0" y2="55.0" /><line stroke="rgb(0,0,0)" x1="3825.0" x2="3985.0" y1="130.0" y2="130.0" /><line stroke="rgb(0,0,0)" x1="3985.0" x2="4005.0" y1="130.0" y2="205.0" /><line stroke="rgb(0,0,0)" x1="4005.0" x2="4010.0" y1="205.0" y2="205.0" /><line stroke="rgb(0,0,0)" x1="4010.0" x2="4030.0" y1="55.0" y2="55.0" /><line stroke="rgb(0,0,0)" x1="4030.0" x2="4050.0" y1="55.0" y2="130.0" /><line stroke="rgb(0,0,0)" x1="4050.0" x2="4055.0" y1="130.0" y2="130.0" /><line stroke="rgb(0,0,0)" x1="4010.0" x2="4020.0" y1="205.0" y2="205.0" /><line stroke="rgb(0,0,0)" x1="4020.0" x2="4050.0" y1="205.0" y2="130.0" /><line stroke="rgb(0,0,0)" x1="4050.0" x2="4055.0" y1="130.0" y2="130.0" /><line stroke="rgb(0,0,0)" x1="4055.0" x2="4110.0" y1="130.0" y2="130.0" /><line stroke="rgb(0,0,0)" x1="4110.0" x2="4130.0" y1="130.0" y2="130.0" /><line stroke="rgb(0,0,0)" x1="4130.0" x2="4135.0" y1="130.0" y2="130.0" /><line stroke="rgb(0,0,0)" x1="4135.0" x2="4210.0" y1="130.0" y2="130.0" /><line stroke="rgb(0,0,0)" x1="4210.0" x2="4230.0" y1="130.0" y2="130.0" /><line stroke="rgb(0,0,0)" x1="4230.0" x2="4235.0" y1="130.0" y2="130.0" /><line stroke="rgb(0,0,0)" x1="4235.0" x2="4320.0" y1="130.0" y2="130.0" /><line stroke="rgb(0,0,0)" x1="4320.0" x2="4340.0" y1="130.0" y2="130.0" /><line stroke="rgb(0,0,0)" x1="4340.0" x2="4345.0" y1="130.0" y2="130.0" /><line stroke="rgb(0,0,0)" x1="4345.0" x2="4375.0" y1="130.0" y2="130.0" /><line stroke="rgb(0,0,0)" x1="4375.0" x2="4395.0" y1="130.0" y2="130.0" /><line stroke="rgb(0,0,0)" x1="4395.0" x2="4400.0" y1="130.0" y2="130.0" /><line stroke="rgb(0,0,0)" x1="4400.0" x2="4420.0" y1="130.0" y2="130.0" /><line stroke="rgb(0,0,0)" x1="4420.0" x2="4440.0" y1="130.0" y2="130.0" /><line stroke="rgb(0,0,0)" x1="4440.0" x2="4445.0" y1="130.0" y2="130.0" /><line stroke="rgb(0,0,0)" x1="4445.0" x2="4465.0" y1="130.0" y2="130.0" /><line stroke="rgb(0,0,0)" x1="4465.0" x2="4485.0" y1="130.0" y2="130.0" /><line stroke="rgb(0,0,0)" x1="4485.0" x2="4490.0" y1="130.0" y2="130.0" /><line stroke="rgb(0,0,0)" x1="4490.0" x2="4525.0" y1="130.0" y2="130.0" /><line stroke="rgb(0,0,0)" x1="4525.0" x2="4545.0" y1="130.0" y2="130.0" /><line stroke="rgb(0,0,0)" x1="4545.0" x2="4550.0" y1="130.0" y2="130.0" /><line stroke="rgb(0,0,0)" x1="4550.0" x2="4580.0" y1="130.0" y2="130.0" /><line stroke="rgb(0,0,0)" x1="4580.0" x2="4600.0" y1="130.0" y2="130.0" /><line stroke="rgb(0,0,0)" x1="4600.0" x2="4605.0" y1="130.0" y2="130.0" /><line stroke="rgb(0,0,0)" x1="4605.0" x2="4645.0" y1="130.0" y2="130.0" /><line stroke="rgb(0,0,0)" x1="4645.0" x2="4665.0" y1="130.0" y2="130.0" /><line stroke="rgb(0,0,0)" x1="4665.0" x2="4670.0" y1="130.0" y2="130.0" /><line stroke="rgb(0,0,0)" x1="4670.0" x2="4675.0" y1="130.0" y2="130.0" /><line stroke="rgb(0,0,0)" x1="4675.0" x2="4695.0" y1="130.0" y2="130.0" /><line stroke="rgb(0,0,0)" x1="4695.0" x2="4700.0" y1="130.0" y2="130.0" /><line stroke="rgb(0,0,0)" x1="4700.0" x2="4760.0" y1="130.0" y2="130.0" /><line stroke="rgb(0,0,0)" x1="4760.0" x2="4780.0" y1="130.0" y2="130.0" /><line stroke="rgb(0,0,0)" x1="4780.0" x2="4785.0" y1="130.0" y2="130.0" /><line stroke="rgb(0,0,0)" x1="4785.0" x2="4815.0" y1="130.0" y2="130.0" /><line stroke="rgb(0,0,0)" x1="4815.0" x2="4835.0" y1="130.0" y2="130.0" /><line stroke="rgb(0,0,0)" x1="4835.0" x2="4840.0" y1="130.0" y2="130.0" /><line stroke="rgb(0,0,0)" x1="4840.0" x2="4845.0" y1="130.0" y2="130.0" /><line stroke="rgb(0,0,0)" x1="4845.0" x2="4865.0" y1="130.0" y2="130.0" /><line stroke="rgb(0,0,0)" x1="4865.0" x2="4870.0" y1="130.0" y2="130.0" /><line stroke="rgb(0,0,0)" x1="4870.0" x2="4885.0" y1="130.0" y2="130.0" /><line stroke="rgb(0,0,0)" x1="4885.0" x2="4905.0" y1="130.0" y2="55.0" /><line stroke="rgb(0,0,0)" x1="4905.0" x2="4910.0" y1="55.0" y2="55.0" /><line stroke="rgb(0,0,0)" x1="4870.0" x2="4885.0" y1="130.0" y2="130.0" /><line stroke="rgb(0,0,0)" x1="4885.0" x2="4905.0" y1="130.0" y2="205.0" /><line stroke="rgb(0,0,0)" x1="4905.0" x2="4910.0" y1="205.0" y2="205.0" /><line stroke="rgb(0,0,0)" x1="4910.0" x2="4915.0" y1="55.0" y2="55.0" /><line stroke="rgb(0,0,0)" x1="4915.0" x2="4980.0" y1="55.0" y2="130.0" /><line stroke="rgb(0,0,0)" x1="4980.0" x2="4985.0" y1="130.0" y2="130.0" /><polygon fill="rgb(150,255,150)" points="20.0,130.0 20.0,128.8 17.5,128.8 17.5,125.8 15.0,125.8 15.0,125.6 12.5,125.6 12.5,125.6 10.0,125.6 10.0,125.8 7.5,125.8 7.5,128.8 5.0,128.8 5.0,130.0 5.0,130.0 5.0,131.2 7.5,131.2 7.5,134.2 10.0,134.2 10.0,134.4 12.5,134.4 12.5,134.4 15.0,134.4 15.0,134.2 17.5,134.2 17.5,131.2 20.0,131.2 20.0,130.0" stroke="rgb(0,0,0)" /><text fill="black" x="5.0" y="154.4">E0</text><polygon fill="rgb(70,175,175)" points="55.0,130.0 55.0,129.6 52.5,129.6 52.5,129.6 50.0,129.6 50.0,130.0 50.0,130.0 50.0,130.4 52.5,130.4 52.5,130.4 55.0,130.4 55.0,130.0" stroke="rgb(0,0,0)" /><text fill="black" x="50.0" y="150.4">E1</text><polygon fill="rgb(150,255,150)" points="100.0,130.0 100.0,129.4 97.5,129.4 97.5,127.2 95.0,127.2 95.0,126.2 92.5,126.2 92.5,126.2 90.0,126.2 90.0,127.2 87.5,127.2 87.5,129.4 85.0,129.4 85.0,130.0 85.0,130.0 85.0,130.6 87.5,130.6 87.5,132.8 90.0,132.8 90.0,133.8 92.5,133.8 92.5,133.8 95.0,133.8 95.0,132.8 97.5,132.8 97.5,130.6 100.0,130.6 100.0,130.0" stroke="rgb(0,0,0)" /><text fill="black" x="85.0" y="153.8">E2</text><polygon fill="rgb(175,70,70)" points="135.0,55.0 135.0,53.199999999999996 132.5,53.199999999999996 132.5,53.199999999999996 130.0,53.199999999999996 130.0,55.0 130.0,55.0 130.0,56.800000000000004 132.5,56.800000000000004 132.5,56.800000000000004 135.0,56.800000000000004 135.0,55.0" stroke="rgb(0,0,0)" /><text fill="black" x="130.0" y="76.8">E3</text><polygon fill="rgb(150,150,150)" points="205.0,205.0 205.0,204.8 177.5,204.8 177.5,204.6 167.5,204.6 167.5,204.6 157.5,204.6 157.5,204.8 130.0,204.8 130.0,205.0 130.0,205.0 130.0,205.2 157.5,205.2 157.5,205.4 167.5,205.4 167.5,205.4 177.5,205.4 177.5,205.2 205.0,205.2 205.0,205.0" stroke="rgb(0,0,0)" /><text fill="black" x="130.0" y="225.4">H4</text><polygon fill="rgb(175,70,70)" points="240.0,55.0 240.0,53.199999999999996 237.5,53.199999999999996 237.5,53.199999999999996 235.0,53.199999999999996 235.0,55.0 235.0,55.0 235.0,56.800000000000004 237.5,56.800000000000004 237.5,56.800000000000004 240.0,56.800000000000004 240.0,55.0" stroke="rgb(0,0,0)" /><text fill="black" x="235.0" y="76.8">E5</text><polygon fill="rgb(150,150,150)" points="330.0,205.0 330.0,204.2 322.5,204.2 322.5,202.4 320.0,202.4 320.0,198.4 317.5,198.4 317.5,197.4 312.5,197.4 312.5,197.2 310.0,197.2 310.0,197.0 307.5,197.0 307.5,196.8 300.0,196.8 300.0,195.6 297.5,195.6 297.5,195.4 282.5,195.4 282.5,195.4 267.5,195.4 267.5,195.6 265.0,195.6 265.0,196.8 257.5,196.8 257.5,197.0 255.0,197.0 255.0,197.2 252.5,197.2 252.5,197.4 247.5,197.4 247.5,198.4 245.0,198.4 245.0,202.4 242.5,202.4 242.5,204.2 235.0,204.2 235.0,205.0 235.0,205.0 235.0,205.8 242.5,205.8 242.5,207.6 245.0,207.6 245.0,211.6 247.5,211.6 247.5,212.6 252.5,212.6 252.5,212.8 255.0,212.8 255.0,213.0 257.5,213.0 257.5,213.2 265.0,213.2 265.0,214.4 267.5,214.4 267.5,214.6 282.5,214.6 282.5,214.6 297.5,214.6 297.5,214.4 300.0,214.4 300.0,213.2 307.5,213.2 307.5,213.0 310.0,213.0 310.0,212.8 312.5,212.8 312.5,212.6 317.5,212.6 317.5,211.6 320.0,211.6 320.0,207.6 322.5,207.6 322.5,205.8 330.0,205.8 330.0,205.0" stroke="rgb(0,0,0)" /><text fill="black" x="235.0" y="234.6">H6</text><polygon fill="rgb(70,175,175)" points="365.0,130.0 365.0,129.6 362.5,129.6 362.5,129.6 360.0,129.6 360.0,130.0 360.0,130.0 360.0,130.4 362.5,130.4 362.5,130.4 365.0,130.4 365.0,130.0" stroke="rgb(0,0,0)" /><text fill="black" x="360.0" y="150.4">E7</text><polygon fill="rgb(255,150,255)" points="400.0,130.0 400.0,126.4 397.5,126.4 397.5,126.4 395.0,126.4 395.0,130.0 395.0,130.0 395.0,133.6 397.5,133.6 397.5,133.6 400.0,133.6 400.0,130.0" stroke="rgb(0,0,0)" /><text fill="black" x="395.0" y="153.6">E8</text><polygon fill="rgb(150,150,150)" points="455.0,55.0 455.0,54.6 452.5,54.6 452.5,54.0 450.0,54.0 450.0,53.199999999999996 442.5,53.199999999999996 442.5,53.199999999999996 435.0,53.199999999999996 435.0,54.0 432.5,54.0 432.5,54.6 430.0,54.6 430.0,55.0 430.0,55.0 430.0,55.4 432.5,55.4 432.5,56.0 435.0,56.0 435.0,56.800000000000004 442.5,56.800000000000004 442.5,56.800000000000004 450.0,56.800000000000004 450.0,56.0 452.5,56.0 452.5,55.4 455.0,55.4 455.0,55.0" stroke="rgb(0,0,0)" /><text fill="black" x="430.0" y="76.8">H9</text><polygon fill="rgb(255,150,150)" points="440.0,205.0 440.0,204.2 437.5,204.2 437.5,201.0 435.0,201.0 435.0,201.0 432.5,201.0 432.5,204.2 430.0,204.2 430.0,205.0 430.0,205.0 430.0,205.8 432.5,205.8 432.5,209.0 435.0,209.0 435.0,209.0 437.5,209.0 437.5,205.8 440.0,205.8 440.0,205.0" stroke="rgb(0,0,0)" /><text fill="black" x="430.0" y="229.0">E10</text><polygon fill="rgb(255,150,150)" points="540.0,130.0 540.0,129.8 537.5,129.8 537.5,129.6 535.0,129.6 535.0,129.4 532.5,129.4 532.5,127.39999999999999 530.0,127.39999999999999 530.0,116.0 527.5,116.0 527.5,104.6 525.0,104.6 525.0,86.6 522.5,86.6 522.5,80.6 520.0,80.6 520.0,80.2 512.5,80.2 512.5,80.2 505.0,80.2 505.0,80.6 502.5,80.6 502.5,86.6 500.0,86.6 500.0,104.6 497.5,104.6 497.5,116.0 495.0,116.0 495.0,127.39999999999999 492.5,127.39999999999999 492.5,129.4 490.0,129.4 490.0,129.6 487.5,129.6 487.5,129.8 485.0,129.8 485.0,130.0 485.0,130.0 485.0,130.2 487.5,130.2 487.5,130.4 490.0,130.4 490.0,130.6 492.5,130.6 492.5,132.6 495.0,132.6 495.0,144.0 497.5,144.0 497.5,155.4 500.0,155.4 500.0,173.4 502.5,173.4 502.5,179.4 505.0,179.4 505.0,179.8 512.5,179.8 512.5,179.8 520.0,179.8 520.0,179.4 522.5,179.4 522.5,173.4 525.0,173.4 525.0,155.4 527.5,155.4 527.5,144.0 530.0,144.0 530.0,132.6 532.5,132.6 532.5,130.6 535.0,130.6 535.0,130.4 537.5,130.4 537.5,130.2 540.0,130.2 540.0,130.0" stroke="rgb(0,0,0)" /><text fill="black" x="485.0" y="199.8">E11</text><polygon fill="rgb(255,255,150)" points="590.0,130.0 590.0,129.8 587.5,129.8 587.5,129.4 580.0,129.4 580.0,129.4 572.5,129.4 572.5,129.8 570.0,129.8 570.0,130.0 570.0,130.0 570.0,130.2 572.5,130.2 572.5,130.6 580.0,130.6 580.0,130.6 587.5,130.6 587.5,130.2 590.0,130.2 590.0,130.0" stroke="rgb(0,0,0)" /><text fill="black" x="570.0" y="150.6">E12</text><polygon fill="rgb(255,255,150)" points="640.0,55.0 640.0,54.4 630.0,54.4 630.0,54.4 620.0,54.4 620.0,55.0 620.0,55.0 620.0,55.6 630.0,55.6 630.0,55.6 640.0,55.6 640.0,55.0" stroke="rgb(0,0,0)" /><text fill="black" x="620.0" y="75.6">E13</text><polygon fill="rgb(150,150,150)" points="655.0,205.0 655.0,204.8 650.0,204.8 650.0,204.6 647.5,204.6 647.5,201.8 645.0,201.8 645.0,197.6 637.5,197.6 637.5,197.6 630.0,197.6 630.0,201.8 627.5,201.8 627.5,204.6 625.0,204.6 625.0,204.8 620.0,204.8 620.0,205.0 620.0,205.0 620.0,205.2 625.0,205.2 625.0,205.4 627.5,205.4 627.5,208.2 630.0,208.2 630.0,212.4 637.5,212.4 637.5,212.4 645.0,212.4 645.0,208.2 647.5,208.2 647.5,205.4 650.0,205.4 650.0,205.2 655.0,205.2 655.0,205.0" stroke="rgb(0,0,0)" /><text fill="black" x="620.0" y="232.4">H14</text><polygon fill="rgb(150,150,150)" points="800.0,130.0 800.0,129.2 795.0,129.2 795.0,128.4 792.5,128.4 792.5,127.2 790.0,127.2 790.0,125.0 787.5,125.0 787.5,120.0 785.0,120.0 785.0,109.4 782.5,109.4 782.5,107.80000000000001 780.0,107.80000000000001 780.0,106.0 777.5,106.0 777.5,87.4 775.0,87.4 775.0,82.2 772.5,82.2 772.5,82.0 770.0,82.0 770.0,81.4 767.5,81.4 767.5,81.0 765.0,81.0 765.0,80.8 760.0,80.8 760.0,80.6 755.0,80.6 755.0,80.2 742.5,80.2 742.5,80.2 730.0,80.2 730.0,80.6 725.0,80.6 725.0,80.8 720.0,80.8 720.0,81.0 717.5,81.0 717.5,81.4 715.0,81.4 715.0,82.0 712.5,82.0 712.5,82.2 710.0,82.2 710.0,87.4 707.5,87.4 707.5,106.0 705.0,106.0 705.0,107.80000000000001 702.5,107.80000000000001 702.5,109.4 700.0,109.4 700.0,120.0 697.5,120.0 697.5,125.0 695.0,125.0 695.0,127.2 692.5,127.2 692.5,128.4 690.0,128.4 690.0,129.2 685.0,129.2 685.0,130.0 685.0,130.0 685.0,130.8 690.0,130.8 690.0,131.6 692.5,131.6 692.5,132.8 695.0,132.8 695.0,135.0 697.5,135.0 697.5,140.0 700.0,140.0 700.0,150.6 702.5,150.6 702.5,152.2 705.0,152.2 705.0,154.0 707.5,154.0 707.5,172.6 710.0,172.6 710.0,177.8 712.5,177.8 712.5,178.0 715.0,178.0 715.0,178.6 717.5,178.6 717.5,179.0 720.0,179.0 720.0,179.2 725.0,179.2 725.0,179.4 730.0,179.4 730.0,179.8 742.5,179.8 742.5,179.8 755.0,179.8 755.0,179.4 760.0,179.4 760.0,179.2 765.0,179.2 765.0,179.0 767.5,179.0 767.5,178.6 770.0,178.6 770.0,178.0 772.5,178.0 772.5,177.8 775.0,177.8 775.0,172.6 777.5,172.6 777.5,154.0 780.0,154.0 780.0,152.2 782.5,152.2 782.5,150.6 785.0,150.6 785.0,140.0 787.5,140.0 787.5,135.0 790.0,135.0 790.0,132.8 792.5,132.8 792.5,131.6 795.0,131.6 795.0,130.8 800.0,130.8 800.0,130.0" stroke="rgb(0,0,0)" /><text fill="black" x="685.0" y="199.8">H15</text><polygon fill="rgb(255,150,150)" points="835.0,130.0 835.0,129.8 832.5,129.8 832.5,129.8 830.0,129.8 830.0,130.0 830.0,130.0 830.0,130.2 832.5,130.2 832.5,130.2 835.0,130.2 835.0,130.0" stroke="rgb(0,0,0)" /><text fill="black" x="830.0" y="150.2">E16</text><polygon fill="rgb(150,150,150)" points="890.0,130.0 890.0,129.8 887.5,129.8 887.5,129.0 885.0,129.0 885.0,122.8 877.5,122.8 877.5,122.8 870.0,122.8 870.0,129.0 867.5,129.0 867.5,129.8 865.0,129.8 865.0,130.0 865.0,130.0 865.0,130.2 867.5,130.2 867.5,131.0 870.0,131.0 870.0,137.2 877.5,137.2 877.5,137.2 885.0,137.2 885.0,131.0 887.5,131.0 887.5,130.2 890.0,130.2 890.0,130.0" stroke="rgb(0,0,0)" /><text fill="black" x="865.0" y="157.2">H17</text><polygon fill="rgb(255,150,150)" points="930.0,130.0 930.0,129.4 927.5,129.4 927.5,128.6 925.0,128.6 925.0,128.6 922.5,128.6 922.5,129.4 920.0,129.4 920.0,130.0 920.0,130.0 920.0,130.6 922.5,130.6 922.5,131.4 925.0,131.4 925.0,131.4 927.5,131.4 927.5,130.6 930.0,130.6 930.0,130.0" stroke="rgb(0,0,0)" /><text fill="black" x="920.0" y="151.4">E18</text><polygon fill="rgb(150,150,150)" points="980.0,55.0 980.0,54.2 977.5,54.2 977.5,53.8 970.0,53.8 970.0,53.8 962.5,53.8 962.5,54.2 960.0,54.2 960.0,55.0 960.0,55.0 960.0,55.8 962.5,55.8 962.5,56.2 970.0,56.2 970.0,56.2 977.5,56.2 977.5,55.8 980.0,55.8 980.0,55.0" stroke="rgb(0,0,0)" /><text fill="black" x="960.0" y="76.2">H19</text><polygon fill="rgb(255,150,150)" points="1005.0,205.0 1005.0,204.4 997.5,204.4 997.5,204.2 992.5,204.2 992.5,203.6 990.0,203.6 990.0,200.0 987.5,200.0 987.5,196.8 985.0,196.8 985.0,192.6 982.5,192.6 982.5,192.6 980.0,192.6 980.0,196.8 977.5,196.8 977.5,200.0 975.0,200.0 975.0,203.6 972.5,203.6 972.5,204.2 967.5,204.2 967.5,204.4 960.0,204.4 960.0,205.0 960.0,205.0 960.0,205.6 967.5,205.6 967.5,205.8 972.5,205.8 972.5,206.4 975.0,206.4 975.0,210.0 977.5,210.0 977.5,213.2 980.0,213.2 980.0,217.4 982.5,217.4 982.5,217.4 985.0,217.4 985.0,213.2 987.5,213.2 987.5,210.0 990.0,210.0 990.0,206.4 992.5,206.4 992.5,205.8 997.5,205.8 997.5,205.6 1005.0,205.6 1005.0,205.0" stroke="rgb(0,0,0)" /><text fill="black" x="960.0" y="237.4">E20</text><polygon fill="rgb(255,150,150)" points="1090.0,130.0 1090.0,129.8 1085.0,129.8 1085.0,129.6 1082.5,129.6 1082.5,126.8 1080.0,126.8 1080.0,121.2 1077.5,121.2 1077.5,113.8 1075.0,113.8 1075.0,98.4 1072.5,98.4 1072.5,88.6 1070.0,88.6 1070.0,84.6 1067.5,84.6 1067.5,83.0 1065.0,83.0 1065.0,81.6 1062.5,81.6 1062.5,81.6 1060.0,81.6 1060.0,83.0 1057.5,83.0 1057.5,84.6 1055.0,84.6 1055.0,88.6 1052.5,88.6 1052.5,98.4 1050.0,98.4 1050.0,113.8 1047.5,113.8 1047.5,121.2 1045.0,121.2 1045.0,126.8 1042.5,126.8 1042.5,129.6 1040.0,129.6 1040.0,129.8 1035.0,129.8 1035.0,130.0 1035.0,130.0 1035.0,130.2 1040.0,130.2 1040.0,130.4 1042.5,130.4 1042.5,133.2 1045.0,133.2 1045.0,138.8 1047.5,138.8 1047.5,146.2 1050.0,146.2 1050.0,161.6 1052.5,161.6 1052.5,171.4 1055.0,171.4 1055.0,175.4 1057.5,175.4 1057.5,177.0 1060.0,177.0 1060.0,178.4 1062.5,178.4 1062.5,178.4 1065.0,178.4 1065.0,177.0 1067.5,177.0 1067.5,175.4 1070.0,175.4 1070.0,171.4 1072.5,171.4 1072.5,161.6 1075.0,161.6 1075.0,146.2 1077.5,146.2 1077.5,138.8 1080.0,138.8 1080.0,133.2 1082.5,133.2 1082.5,130.4 1085.0,130.4 1085.0,130.2 1090.0,130.2 1090.0,130.0" stroke="rgb(0,0,0)" /><text fill="black" x="1035.0" y="198.4">E21</text><polygon fill="rgb(255,150,150)" points="1125.0,130.0 1125.0,129.6 1122.5,129.6 1122.5,129.6 1120.0,129.6 1120.0,130.0 1120.0,130.0 1120.0,130.4 1122.5,130.4 1122.5,130.4 1125.0,130.4 1125.0,130.0" stroke="rgb(0,0,0)" /><text fill="black" x="1120.0" y="150.4">E22</text><polygon fill="rgb(175,175,70)" points="1160.0,55.0 1160.0,54.6 1157.5,54.6 1157.5,54.6 1155.0,54.6 1155.0,55.0 1155.0,55.0 1155.0,55.4 1157.5,55.4 1157.5,55.4 1160.0,55.4 1160.0,55.0" stroke="rgb(0,0,0)" /><text fill="black" x="1155.0" y="75.4">E23</text><polygon fill="rgb(150,150,150)" points="1170.0,205.0 1170.0,204.6 1162.5,204.6 1162.5,204.6 1155.0,204.6 1155.0,205.0 1155.0,205.0 1155.0,205.4 1162.5,205.4 1162.5,205.4 1170.0,205.4 1170.0,205.0" stroke="rgb(0,0,0)" /><text fill="black" x="1155.0" y="225.4">H24</text><polygon fill="rgb(150,150,150)" points="1250.0,130.0 1250.0,126.4 1237.5,126.4 1237.5,126.2 1225.0,126.2 1225.0,126.2 1212.5,126.2 1212.5,126.4 1200.0,126.4 1200.0,130.0 1200.0,130.0 1200.0,133.6 1212.5,133.6 1212.5,133.8 1225.0,133.8 1225.0,133.8 1237.5,133.8 1237.5,133.6 1250.0,133.6 1250.0,130.0" stroke="rgb(0,0,0)" /><text fill="black" x="1200.0" y="153.8">H25</text><polygon fill="rgb(150,150,150)" points="1300.0,55.0 1300.0,54.4 1297.5,54.4 1297.5,53.8 1290.0,53.8 1290.0,53.8 1282.5,53.8 1282.5,54.4 1280.0,54.4 1280.0,55.0 1280.0,55.0 1280.0,55.6 1282.5,55.6 1282.5,56.2 1290.0,56.2 1290.0,56.2 1297.5,56.2 1297.5,55.6 1300.0,55.6 1300.0,55.0" stroke="rgb(0,0,0)" /><text fill="black" x="1280.0" y="76.2">H26</text><polygon fill="rgb(175,175,70)" points="1285.0,205.0 1285.0,204.6 1282.5,204.6 1282.5,204.6 1280.0,204.6 1280.0,205.0 1280.0,205.0 1280.0,205.4 1282.5,205.4 1282.5,205.4 1285.0,205.4 1285.0,205.0" stroke="rgb(0,0,0)" /><text fill="black" x="1280.0" y="225.4">E27</text><polygon fill="rgb(255,150,150)" points="1340.0,130.0 1340.0,129.6 1337.5,129.6 1337.5,125.0 1335.0,125.0 1335.0,125.0 1332.5,125.0 1332.5,129.6 1330.0,129.6 1330.0,130.0 1330.0,130.0 1330.0,130.4 1332.5,130.4 1332.5,135.0 1335.0,135.0 1335.0,135.0 1337.5,135.0 1337.5,130.4 1340.0,130.4 1340.0,130.0" stroke="rgb(0,0,0)" /><text fill="black" x="1330.0" y="155.0">E28</text><polygon fill="rgb(255,150,150)" points="1380.0,130.0 1380.0,129.8 1377.5,129.8 1377.5,129.4 1375.0,129.4 1375.0,129.4 1372.5,129.4 1372.5,129.8 1370.0,129.8 1370.0,130.0 1370.0,130.0 1370.0,130.2 1372.5,130.2 1372.5,130.6 1375.0,130.6 1375.0,130.6 1377.5,130.6 1377.5,130.2 1380.0,130.2 1380.0,130.0" stroke="rgb(0,0,0)" /><text fill="black" x="1370.0" y="150.6">E29</text><polygon fill="rgb(150,150,150)" points="1410.0,130.0 1410.0,130.0 1410.0,130.0 1410.0,130.0" stroke="rgb(0,0,0)" /><text fill="black" x="1410.0" y="150.0">X30</text><polygon fill="rgb(150,150,150)" points="1460.0,130.0 1460.0,129.8 1457.5,129.8 1457.5,125.0 1450.0,125.0 1450.0,125.0 1442.5,125.0 1442.5,129.8 1440.0,129.8 1440.0,130.0 1440.0,130.0 1440.0,130.2 1442.5,130.2 1442.5,135.0 1450.0,135.0 1450.0,135.0 1457.5,135.0 1457.5,130.2 1460.0,130.2 1460.0,130.0" stroke="rgb(0,0,0)" /><text fill="black" x="1440.0" y="155.0">H31</text><polygon fill="rgb(150,150,150)" points="1580.0,130.0 1580.0,129.6 1575.0,129.6 1575.0,129.0 1572.5,129.0 1572.5,121.0 1570.0,121.0 1570.0,110.8 1567.5,110.8 1567.5,108.8 1565.0,108.8 1565.0,108.4 1562.5,108.4 1562.5,99.4 1560.0,99.4 1560.0,89.6 1557.5,89.6 1557.5,89.0 1555.0,89.0 1555.0,87.6 1552.5,87.6 1552.5,86.2 1550.0,86.2 1550.0,85.4 1545.0,85.4 1545.0,85.19999999999999 1542.5,85.19999999999999 1542.5,85.0 1535.0,85.0 1535.0,85.0 1527.5,85.0 1527.5,85.19999999999999 1525.0,85.19999999999999 1525.0,85.4 1520.0,85.4 1520.0,86.2 1517.5,86.2 1517.5,87.6 1515.0,87.6 1515.0,89.0 1512.5,89.0 1512.5,89.6 1510.0,89.6 1510.0,99.4 1507.5,99.4 1507.5,108.4 1505.0,108.4 1505.0,108.8 1502.5,108.8 1502.5,110.8 1500.0,110.8 1500.0,121.0 1497.5,121.0 1497.5,129.0 1495.0,129.0 1495.0,129.6 1490.0,129.6 1490.0,130.0 1490.0,130.0 1490.0,130.4 1495.0,130.4 1495.0,131.0 1497.5,131.0 1497.5,139.0 1500.0,139.0 1500.0,149.2 1502.5,149.2 1502.5,151.2 1505.0,151.2 1505.0,151.6 1507.5,151.6 1507.5,160.6 1510.0,160.6 1510.0,170.4 1512.5,170.4 1512.5,171.0 1515.0,171.0 1515.0,172.4 1517.5,172.4 1517.5,173.8 1520.0,173.8 1520.0,174.6 1525.0,174.6 1525.0,174.8 1527.5,174.8 1527.5,175.0 1535.0,175.0 1535.0,175.0 1542.5,175.0 1542.5,174.8 1545.0,174.8 1545.0,174.6 1550.0,174.6 1550.0,173.8 1552.5,173.8 1552.5,172.4 1555.0,172.4 1555.0,171.0 1557.5,171.0 1557.5,170.4 1560.0,170.4 1560.0,160.6 1562.5,160.6 1562.5,151.6 1565.0,151.6 1565.0,151.2 1567.5,151.2 1567.5,149.2 1570.0,149.2 1570.0,139.0 1572.5,139.0 1572.5,131.0 1575.0,131.0 1575.0,130.4 1580.0,130.4 1580.0,130.0" stroke="rgb(0,0,0)" /><text fill="black" x="1490.0" y="195.0">H32</text><polygon fill="rgb(150,150,150)" points="1645.0,130.0 1645.0,129.6 1642.5,129.6 1642.5,127.2 1640.0,127.2 1640.0,126.8 1637.5,126.8 1637.5,125.8 1635.0,125.8 1635.0,124.2 1627.5,124.2 1627.5,124.2 1620.0,124.2 1620.0,125.8 1617.5,125.8 1617.5,126.8 1615.0,126.8 1615.0,127.2 1612.5,127.2 1612.5,129.6 1610.0,129.6 1610.0,130.0 1610.0,130.0 1610.0,130.4 1612.5,130.4 1612.5,132.8 1615.0,132.8 1615.0,133.2 1617.5,133.2 1617.5,134.2 1620.0,134.2 1620.0,135.8 1627.5,135.8 1627.5,135.8 1635.0,135.8 1635.0,134.2 1637.5,134.2 1637.5,133.2 1640.0,133.2 1640.0,132.8 1642.5,132.8 1642.5,130.4 1645.0,130.4 1645.0,130.0" stroke="rgb(0,0,0)" /><text fill="black" x="1610.0" y="155.8">H33</text><polygon fill="rgb(150,150,150)" points="1675.0,130.0 1675.0,130.0 1675.0,130.0 1675.0,130.0" stroke="rgb(0,0,0)" /><text fill="black" x="1675.0" y="150.0">X34</text><polygon fill="rgb(150,150,150)" points="1705.0,130.0 1705.0,130.0 1705.0,130.0 1705.0,130.0" stroke="rgb(0,0,0)" /><text fill="black" x="1705.0" y="150.0">X35</text><polygon fill="rgb(150,150,150)" points="1735.0,130.0 1735.0,130.0 1735.0,130.0 1735.0,130.0" stroke="rgb(0,0,0)" /><text fill="black" x="1735.0" y="150.0">X36</text><polygon fill="rgb(255,150,150)" points="1780.0,130.0 1780.0,129.8 1775.0,129.8 1775.0,127.6 1772.5,127.6 1772.5,127.6 1770.0,127.6 1770.0,129.8 1765.0,129.8 1765.0,130.0 1765.0,130.0 1765.0,130.2 1770.0,130.2 1770.0,132.4 1772.5,132.4 1772.5,132.4 1775.0,132.4 1775.0,130.2 1780.0,130.2 1780.0,130.0" stroke="rgb(0,0,0)" /><text fill="black" x="1765.0" y="152.4">E37</text><polygon fill="rgb(255,150,150)" points="1845.0,130.0 1845.0,129.4 1842.5,129.4 1842.5,123.8 1840.0,123.8 1840.0,108.4 1837.5,108.4 1837.5,84.4 1835.0,84.4 1835.0,81.4 1832.5,81.4 1832.5,80.6 1830.0,80.6 1830.0,80.4 1827.5,80.4 1827.5,80.4 1825.0,80.4 1825.0,80.6 1822.5,80.6 1822.5,81.4 1820.0,81.4 1820.0,84.4 1817.5,84.4 1817.5,108.4 1815.0,108.4 1815.0,123.8 1812.5,123.8 1812.5,129.4 1810.0,129.4 1810.0,130.0 1810.0,130.0 1810.0,130.6 1812.5,130.6 1812.5,136.2 1815.0,136.2 1815.0,151.6 1817.5,151.6 1817.5,175.6 1820.0,175.6 1820.0,178.6 1822.5,178.6 1822.5,179.4 1825.0,179.4 1825.0,179.6 1827.5,179.6 1827.5,179.6 1830.0,179.6 1830.0,179.4 1832.5,179.4 1832.5,178.6 1835.0,178.6 1835.0,175.6 1837.5,175.6 1837.5,151.6 1840.0,151.6 1840.0,136.2 1842.5,136.2 1842.5,130.6 1845.0,130.6 1845.0,130.0" stroke="rgb(0,0,0)" /><text fill="black" x="1810.0" y="199.6">E38</text><polygon fill="rgb(150,150,150)" points="1890.0,55.0 1890.0,53.8 1882.5,53.8 1882.5,53.8 1875.0,53.8 1875.0,55.0 1875.0,55.0 1875.0,56.2 1882.5,56.2 1882.5,56.2 1890.0,56.2 1890.0,55.0" stroke="rgb(0,0,0)" /><text fill="black" x="1875.0" y="76.2">H39</text><polygon fill="rgb(150,255,255)" points="1885.0,205.0 1885.0,204.4 1882.5,204.4 1882.5,202.6 1880.0,202.6 1880.0,202.6 1877.5,202.6 1877.5,204.4 1875.0,204.4 1875.0,205.0 1875.0,205.0 1875.0,205.6 1877.5,205.6 1877.5,207.4 1880.0,207.4 1880.0,207.4 1882.5,207.4 1882.5,205.6 1885.0,205.6 1885.0,205.0" stroke="rgb(0,0,0)" /><text fill="black" x="1875.0" y="227.4">E40</text><polygon fill="rgb(150,150,150)" points="1985.0,55.0 1985.0,54.8 1980.0,54.8 1980.0,53.8 1977.5,53.8 1977.5,53.6 1975.0,53.6 1975.0,53.4 1970.0,53.4 1970.0,53.199999999999996 1967.5,53.199999999999996 1967.5,52.4 1962.5,52.4 1962.5,51.400000000000006 1960.0,51.400000000000006 1960.0,51.0 1952.5,51.0 1952.5,51.0 1945.0,51.0 1945.0,51.400000000000006 1942.5,51.400000000000006 1942.5,52.4 1937.5,52.4 1937.5,53.199999999999996 1935.0,53.199999999999996 1935.0,53.4 1930.0,53.4 1930.0,53.6 1927.5,53.6 1927.5,53.8 1925.0,53.8 1925.0,54.8 1920.0,54.8 1920.0,55.0 1920.0,55.0 1920.0,55.2 1925.0,55.2 1925.0,56.2 1927.5,56.2 1927.5,56.4 1930.0,56.4 1930.0,56.6 1935.0,56.6 1935.0,56.800000000000004 1937.5,56.800000000000004 1937.5,57.6 1942.5,57.6 1942.5,58.599999999999994 1945.0,58.599999999999994 1945.0,59.0 1952.5,59.0 1952.5,59.0 1960.0,59.0 1960.0,58.599999999999994 1962.5,58.599999999999994 1962.5,57.6 1967.5,57.6 1967.5,56.800000000000004 1970.0,56.800000000000004 1970.0,56.6 1975.0,56.6 1975.0,56.4 1977.5,56.4 1977.5,56.2 1980.0,56.2 1980.0,55.2 1985.0,55.2 1985.0,55.0" stroke="rgb(0,0,0)" /><text fill="black" x="1920.0" y="79.0">H41</text><polygon fill="rgb(150,255,255)" points="1930.0,205.0 1930.0,204.4 1927.5,204.4 1927.5,202.6 1925.0,202.6 1925.0,202.6 1922.5,202.6 1922.5,204.4 1920.0,204.4 1920.0,205.0 1920.0,205.0 1920.0,205.6 1922.5,205.6 1922.5,207.4 1925.0,207.4 1925.0,207.4 1927.5,207.4 1927.5,205.6 1930.0,205.6 1930.0,205.0" stroke="rgb(0,0,0)" /><text fill="black" x="1920.0" y="227.4">E42</text><polygon fill="rgb(150,150,150)" points="2105.0,130.0 2105.0,129.8 2097.5,129.8 2097.5,128.8 2095.0,128.8 2095.0,109.4 2092.5,109.4 2092.5,107.2 2090.0,107.2 2090.0,102.19999999999999 2087.5,102.19999999999999 2087.5,94.4 2085.0,94.4 2085.0,88.0 2082.5,88.0 2082.5,87.6 2080.0,87.6 2080.0,86.6 2077.5,86.6 2077.5,86.4 2075.0,86.4 2075.0,86.2 2070.0,86.2 2070.0,86.0 2067.5,86.0 2067.5,85.8 2060.0,85.8 2060.0,85.8 2052.5,85.8 2052.5,86.0 2050.0,86.0 2050.0,86.2 2045.0,86.2 2045.0,86.4 2042.5,86.4 2042.5,86.6 2040.0,86.6 2040.0,87.6 2037.5,87.6 2037.5,88.0 2035.0,88.0 2035.0,94.4 2032.5,94.4 2032.5,102.19999999999999 2030.0,102.19999999999999 2030.0,107.2 2027.5,107.2 2027.5,109.4 2025.0,109.4 2025.0,128.8 2022.5,128.8 2022.5,129.8 2015.0,129.8 2015.0,130.0 2015.0,130.0 2015.0,130.2 2022.5,130.2 2022.5,131.2 2025.0,131.2 2025.0,150.6 2027.5,150.6 2027.5,152.8 2030.0,152.8 2030.0,157.8 2032.5,157.8 2032.5,165.6 2035.0,165.6 2035.0,172.0 2037.5,172.0 2037.5,172.4 2040.0,172.4 2040.0,173.4 2042.5,173.4 2042.5,173.6 2045.0,173.6 2045.0,173.8 2050.0,173.8 2050.0,174.0 2052.5,174.0 2052.5,174.2 2060.0,174.2 2060.0,174.2 2067.5,174.2 2067.5,174.0 2070.0,174.0 2070.0,173.8 2075.0,173.8 2075.0,173.6 2077.5,173.6 2077.5,173.4 2080.0,173.4 2080.0,172.4 2082.5,172.4 2082.5,172.0 2085.0,172.0 2085.0,165.6 2087.5,165.6 2087.5,157.8 2090.0,157.8 2090.0,152.8 2092.5,152.8 2092.5,150.6 2095.0,150.6 2095.0,131.2 2097.5,131.2 2097.5,130.2 2105.0,130.2 2105.0,130.0" stroke="rgb(0,0,0)" /><text fill="black" x="2015.0" y="194.2">H43</text><polygon fill="rgb(70,175,70)" points="2140.0,55.0 2140.0,54.4 2137.5,54.4 2137.5,54.4 2135.0,54.4 2135.0,55.0 2135.0,55.0 2135.0,55.6 2137.5,55.6 2137.5,55.6 2140.0,55.6 2140.0,55.0" stroke="rgb(0,0,0)" /><text fill="black" x="2135.0" y="75.6">E44</text><polygon fill="rgb(150,150,150)" points="2135.0,205.0 2135.0,205.0 2135.0,205.0 2135.0,205.0" stroke="rgb(0,0,0)" /><text fill="black" x="2135.0" y="225.0">X45</text><polygon fill="rgb(150,150,150)" points="2240.0,130.0 2240.0,129.8 2230.0,129.8 2230.0,128.6 2227.5,128.6 2227.5,128.4 2225.0,128.4 2225.0,128.2 2222.5,128.2 2222.5,128.0 2220.0,128.0 2220.0,127.6 2217.5,127.6 2217.5,127.0 2215.0,127.0 2215.0,126.0 2212.5,126.0 2212.5,122.0 2205.0,122.0 2205.0,122.0 2197.5,122.0 2197.5,126.0 2195.0,126.0 2195.0,127.0 2192.5,127.0 2192.5,127.6 2190.0,127.6 2190.0,128.0 2187.5,128.0 2187.5,128.2 2185.0,128.2 2185.0,128.4 2182.5,128.4 2182.5,128.6 2180.0,128.6 2180.0,129.8 2170.0,129.8 2170.0,130.0 2170.0,130.0 2170.0,130.2 2180.0,130.2 2180.0,131.4 2182.5,131.4 2182.5,131.6 2185.0,131.6 2185.0,131.8 2187.5,131.8 2187.5,132.0 2190.0,132.0 2190.0,132.4 2192.5,132.4 2192.5,133.0 2195.0,133.0 2195.0,134.0 2197.5,134.0 2197.5,138.0 2205.0,138.0 2205.0,138.0 2212.5,138.0 2212.5,134.0 2215.0,134.0 2215.0,133.0 2217.5,133.0 2217.5,132.4 2220.0,132.4 2220.0,132.0 2222.5,132.0 2222.5,131.8 2225.0,131.8 2225.0,131.6 2227.5,131.6 2227.5,131.4 2230.0,131.4 2230.0,130.2 2240.0,130.2 2240.0,130.0" stroke="rgb(0,0,0)" /><text fill="black" x="2170.0" y="158.0">H46</text><polygon fill="rgb(150,150,150)" points="2300.0,130.0 2300.0,129.8 2297.5,129.8 2297.5,126.0 2295.0,126.0 2295.0,123.8 2292.5,123.8 2292.5,118.8 2285.0,118.8 2285.0,118.8 2277.5,118.8 2277.5,123.8 2275.0,123.8 2275.0,126.0 2272.5,126.0 2272.5,129.8 2270.0,129.8 2270.0,130.0 2270.0,130.0 2270.0,130.2 2272.5,130.2 2272.5,134.0 2275.0,134.0 2275.0,136.2 2277.5,136.2 2277.5,141.2 2285.0,141.2 2285.0,141.2 2292.5,141.2 2292.5,136.2 2295.0,136.2 2295.0,134.0 2297.5,134.0 2297.5,130.2 2300.0,130.2 2300.0,130.0" stroke="rgb(0,0,0)" /><text fill="black" x="2270.0" y="161.2">H47</text><polygon fill="rgb(70,175,70)" points="2335.0,130.0 2335.0,129.4 2332.5,129.4 2332.5,129.4 2330.0,129.4 2330.0,130.0 2330.0,130.0 2330.0,130.6 2332.5,130.6 2332.5,130.6 2335.0,130.6 2335.0,130.0" stroke="rgb(0,0,0)" /><text fill="black" x="2330.0" y="150.6">E48</text><polygon fill="rgb(255,150,150)" points="2400.0,130.0 2400.0,128.8 2397.5,128.8 2397.5,120.0 2395.0,120.0 2395.0,99.6 2392.5,99.6 2392.5,90.19999999999999 2390.0,90.19999999999999 2390.0,82.0 2387.5,82.0 2387.5,80.4 2385.0,80.4 2385.0,80.2 2382.5,80.2 2382.5,80.2 2380.0,80.2 2380.0,80.4 2377.5,80.4 2377.5,82.0 2375.0,82.0 2375.0,90.19999999999999 2372.5,90.19999999999999 2372.5,99.6 2370.0,99.6 2370.0,120.0 2367.5,120.0 2367.5,128.8 2365.0,128.8 2365.0,130.0 2365.0,130.0 2365.0,131.2 2367.5,131.2 2367.5,140.0 2370.0,140.0 2370.0,160.4 2372.5,160.4 2372.5,169.8 2375.0,169.8 2375.0,178.0 2377.5,178.0 2377.5,179.6 2380.0,179.6 2380.0,179.8 2382.5,179.8 2382.5,179.8 2385.0,179.8 2385.0,179.6 2387.5,179.6 2387.5,178.0 2390.0,178.0 2390.0,169.8 2392.5,169.8 2392.5,160.4 2395.0,160.4 2395.0,140.0 2397.5,140.0 2397.5,131.2 2400.0,131.2 2400.0,130.0" stroke="rgb(0,0,0)" /><text fill="black" x="2365.0" y="199.8">E49</text><polygon fill="rgb(255,150,150)" points="2435.0,55.0 2435.0,54.8 2432.5,54.8 2432.5,54.8 2430.0,54.8 2430.0,55.0 2430.0,55.0 2430.0,55.2 2432.5,55.2 2432.5,55.2 2435.0,55.2 2435.0,55.0" stroke="rgb(0,0,0)" /><text fill="black" x="2430.0" y="75.2">E50</text><polygon fill="rgb(150,150,150)" points="2465.0,205.0 2465.0,204.8 2462.5,204.8 2462.5,204.6 2457.5,204.6 2457.5,203.2 2455.0,203.2 2455.0,200.8 2447.5,200.8 2447.5,200.8 2440.0,200.8 2440.0,203.2 2437.5,203.2 2437.5,204.6 2432.5,204.6 2432.5,204.8 2430.0,204.8 2430.0,205.0 2430.0,205.0 2430.0,205.2 2432.5,205.2 2432.5,205.4 2437.5,205.4 2437.5,206.8 2440.0,206.8 2440.0,209.2 2447.5,209.2 2447.5,209.2 2455.0,209.2 2455.0,206.8 2457.5,206.8 2457.5,205.4 2462.5,205.4 2462.5,205.2 2465.0,205.2 2465.0,205.0" stroke="rgb(0,0,0)" /><text fill="black" x="2430.0" y="229.2">H51</text><polygon fill="rgb(150,150,150)" points="2530.0,55.0 2530.0,54.6 2525.0,54.6 2525.0,54.2 2522.5,54.2 2522.5,54.0 2520.0,54.0 2520.0,52.8 2512.5,52.8 2512.5,52.8 2505.0,52.8 2505.0,54.0 2502.5,54.0 2502.5,54.2 2500.0,54.2 2500.0,54.6 2495.0,54.6 2495.0,55.0 2495.0,55.0 2495.0,55.4 2500.0,55.4 2500.0,55.8 2502.5,55.8 2502.5,56.0 2505.0,56.0 2505.0,57.2 2512.5,57.2 2512.5,57.2 2520.0,57.2 2520.0,56.0 2522.5,56.0 2522.5,55.8 2525.0,55.8 2525.0,55.4 2530.0,55.4 2530.0,55.0" stroke="rgb(0,0,0)" /><text fill="black" x="2495.0" y="77.2">H52</text><polygon fill="rgb(255,150,150)" points="2505.0,205.0 2505.0,204.8 2502.5,204.8 2502.5,202.6 2500.0,202.6 2500.0,202.6 2497.5,202.6 2497.5,204.8 2495.0,204.8 2495.0,205.0 2495.0,205.0 2495.0,205.2 2497.5,205.2 2497.5,207.4 2500.0,207.4 2500.0,207.4 2502.5,207.4 2502.5,205.2 2505.0,205.2 2505.0,205.0" stroke="rgb(0,0,0)" /><text fill="black" x="2495.0" y="227.4">E53</text><polygon fill="rgb(150,150,150)" points="2625.0,130.0 2625.0,129.8 2620.0,129.8 2620.0,129.6 2617.5,129.6 2617.5,115.2 2615.0,115.2 2615.0,112.4 2612.5,112.4 2612.5,111.4 2610.0,111.4 2610.0,109.2 2607.5,109.2 2607.5,108.19999999999999 2605.0,108.19999999999999 2605.0,105.6 2602.5,105.6 2602.5,103.6 2600.0,103.6 2600.0,102.8 2592.5,102.8 2592.5,102.8 2585.0,102.8 2585.0,103.6 2582.5,103.6 2582.5,105.6 2580.0,105.6 2580.0,108.19999999999999 2577.5,108.19999999999999 2577.5,109.2 2575.0,109.2 2575.0,111.4 2572.5,111.4 2572.5,112.4 2570.0,112.4 2570.0,115.2 2567.5,115.2 2567.5,129.6 2565.0,129.6 2565.0,129.8 2560.0,129.8 2560.0,130.0 2560.0,130.0 2560.0,130.2 2565.0,130.2 2565.0,130.4 2567.5,130.4 2567.5,144.8 2570.0,144.8 2570.0,147.6 2572.5,147.6 2572.5,148.6 2575.0,148.6 2575.0,150.8 2577.5,150.8 2577.5,151.8 2580.0,151.8 2580.0,154.4 2582.5,154.4 2582.5,156.4 2585.0,156.4 2585.0,157.2 2592.5,157.2 2592.5,157.2 2600.0,157.2 2600.0,156.4 2602.5,156.4 2602.5,154.4 2605.0,154.4 2605.0,151.8 2607.5,151.8 2607.5,150.8 2610.0,150.8 2610.0,148.6 2612.5,148.6 2612.5,147.6 2615.0,147.6 2615.0,144.8 2617.5,144.8 2617.5,130.4 2620.0,130.4 2620.0,130.2 2625.0,130.2 2625.0,130.0" stroke="rgb(0,0,0)" /><text fill="black" x="2560.0" y="177.2">H54</text><polygon fill="rgb(150,150,150)" points="2705.0,130.0 2705.0,129.8 2700.0,129.8 2700.0,129.6 2697.5,129.6 2697.5,128.2 2695.0,128.2 2695.0,127.2 2692.5,127.2 2692.5,126.60000000000001 2690.0,126.60000000000001 2690.0,124.4 2687.5,124.4 2687.5,122.2 2680.0,122.2 2680.0,122.2 2672.5,122.2 2672.5,124.4 2670.0,124.4 2670.0,126.60000000000001 2667.5,126.60000000000001 2667.5,127.2 2665.0,127.2 2665.0,128.2 2662.5,128.2 2662.5,129.6 2660.0,129.6 2660.0,129.8 2655.0,129.8 2655.0,130.0 2655.0,130.0 2655.0,130.2 2660.0,130.2 2660.0,130.4 2662.5,130.4 2662.5,131.8 2665.0,131.8 2665.0,132.8 2667.5,132.8 2667.5,133.4 2670.0,133.4 2670.0,135.6 2672.5,135.6 2672.5,137.8 2680.0,137.8 2680.0,137.8 2687.5,137.8 2687.5,135.6 2690.0,135.6 2690.0,133.4 2692.5,133.4 2692.5,132.8 2695.0,132.8 2695.0,131.8 2697.5,131.8 2697.5,130.4 2700.0,130.4 2700.0,130.2 2705.0,130.2 2705.0,130.0" stroke="rgb(0,0,0)" /><text fill="black" x="2655.0" y="157.8">H55</text><polygon fill="rgb(255,150,150)" points="2755.0,55.0 2755.0,54.8 2752.5,54.8 2752.5,52.0 2750.0,52.0 2750.0,51.6 2747.5,51.6 2747.5,47.0 2745.0,47.0 2745.0,47.0 2742.5,47.0 2742.5,51.6 2740.0,51.6 2740.0,52.0 2737.5,52.0 2737.5,54.8 2735.0,54.8 2735.0,55.0 2735.0,55.0 2735.0,55.2 2737.5,55.2 2737.5,58.0 2740.0,58.0 2740.0,58.4 2742.5,58.4 2742.5,63.0 2745.0,63.0 2745.0,63.0 2747.5,63.0 2747.5,58.4 2750.0,58.4 2750.0,58.0 2752.5,58.0 2752.5,55.2 2755.0,55.2 2755.0,55.0" stroke="rgb(0,0,0)" /><text fill="black" x="2735.0" y="83.0">E56</text><polygon fill="rgb(150,150,150)" points="2750.0,205.0 2750.0,204.2 2742.5,204.2 2742.5,204.2 2735.0,204.2 2735.0,205.0 2735.0,205.0 2735.0,205.8 2742.5,205.8 2742.5,205.8 2750.0,205.8 2750.0,205.0" stroke="rgb(0,0,0)" /><text fill="black" x="2735.0" y="225.8">H57</text><polygon fill="rgb(255,150,150)" points="2815.0,130.0 2815.0,129.0 2812.5,129.0 2812.5,125.4 2810.0,125.4 2810.0,105.6 2807.5,105.6 2807.5,97.6 2805.0,97.6 2805.0,96.6 2802.5,96.6 2802.5,95.0 2800.0,95.0 2800.0,95.0 2797.5,95.0 2797.5,96.6 2795.0,96.6 2795.0,97.6 2792.5,97.6 2792.5,105.6 2790.0,105.6 2790.0,125.4 2787.5,125.4 2787.5,129.0 2785.0,129.0 2785.0,130.0 2785.0,130.0 2785.0,131.0 2787.5,131.0 2787.5,134.6 2790.0,134.6 2790.0,154.4 2792.5,154.4 2792.5,162.4 2795.0,162.4 2795.0,163.4 2797.5,163.4 2797.5,165.0 2800.0,165.0 2800.0,165.0 2802.5,165.0 2802.5,163.4 2805.0,163.4 2805.0,162.4 2807.5,162.4 2807.5,154.4 2810.0,154.4 2810.0,134.6 2812.5,134.6 2812.5,131.0 2815.0,131.0 2815.0,130.0" stroke="rgb(0,0,0)" /><text fill="black" x="2785.0" y="185.0">E58</text><polygon fill="rgb(150,150,150)" points="2865.0,130.0 2865.0,129.8 2855.0,129.8 2855.0,129.8 2845.0,129.8 2845.0,130.0 2845.0,130.0 2845.0,130.2 2855.0,130.2 2855.0,130.2 2865.0,130.2 2865.0,130.0" stroke="rgb(0,0,0)" /><text fill="black" x="2845.0" y="150.2">H59</text><polygon fill="rgb(255,150,150)" points="2940.0,130.0 2940.0,129.6 2937.5,129.6 2937.5,129.4 2935.0,129.4 2935.0,128.6 2932.5,128.6 2932.5,127.39999999999999 2927.5,127.39999999999999 2927.5,126.60000000000001 2925.0,126.60000000000001 2925.0,123.8 2922.5,123.8 2922.5,122.6 2920.0,122.6 2920.0,122.4 2917.5,122.4 2917.5,122.4 2915.0,122.4 2915.0,122.6 2912.5,122.6 2912.5,123.8 2910.0,123.8 2910.0,126.60000000000001 2907.5,126.60000000000001 2907.5,127.39999999999999 2902.5,127.39999999999999 2902.5,128.6 2900.0,128.6 2900.0,129.4 2897.5,129.4 2897.5,129.6 2895.0,129.6 2895.0,130.0 2895.0,130.0 2895.0,130.4 2897.5,130.4 2897.5,130.6 2900.0,130.6 2900.0,131.4 2902.5,131.4 2902.5,132.6 2907.5,132.6 2907.5,133.4 2910.0,133.4 2910.0,136.2 2912.5,136.2 2912.5,137.4 2915.0,137.4 2915.0,137.6 2917.5,137.6 2917.5,137.6 2920.0,137.6 2920.0,137.4 2922.5,137.4 2922.5,136.2 2925.0,136.2 2925.0,133.4 2927.5,133.4 2927.5,132.6 2932.5,132.6 2932.5,131.4 2935.0,131.4 2935.0,130.6 2937.5,130.6 2937.5,130.4 2940.0,130.4 2940.0,130.0" stroke="rgb(0,0,0)" /><text fill="black" x="2895.0" y="157.6">E60</text><polygon fill="rgb(255,150,150)" points="3020.0,130.0 3020.0,129.6 3017.5,129.6 3017.5,129.2 3015.0,129.2 3015.0,128.8 3012.5,128.8 3012.5,127.8 3007.5,127.8 3007.5,127.39999999999999 2995.0,127.39999999999999 2995.0,127.39999999999999 2982.5,127.39999999999999 2982.5,127.8 2977.5,127.8 2977.5,128.8 2975.0,128.8 2975.0,129.2 2972.5,129.2 2972.5,129.6 2970.0,129.6 2970.0,130.0 2970.0,130.0 2970.0,130.4 2972.5,130.4 2972.5,130.8 2975.0,130.8 2975.0,131.2 2977.5,131.2 2977.5,132.2 2982.5,132.2 2982.5,132.6 2995.0,132.6 2995.0,132.6 3007.5,132.6 3007.5,132.2 3012.5,132.2 3012.5,131.2 3015.0,131.2 3015.0,130.8 3017.5,130.8 3017.5,130.4 3020.0,130.4 3020.0,130.0" stroke="rgb(0,0,0)" /><text fill="black" x="2970.0" y="152.6">E61</text><polygon fill="rgb(150,150,150)" points="3085.0,130.0 3085.0,129.4 3082.5,129.4 3082.5,125.0 3080.0,125.0 3080.0,124.8 3077.5,124.8 3077.5,123.2 3075.0,123.2 3075.0,120.8 3067.5,120.8 3067.5,120.8 3060.0,120.8 3060.0,123.2 3057.5,123.2 3057.5,124.8 3055.0,124.8 3055.0,125.0 3052.5,125.0 3052.5,129.4 3050.0,129.4 3050.0,130.0 3050.0,130.0 3050.0,130.6 3052.5,130.6 3052.5,135.0 3055.0,135.0 3055.0,135.2 3057.5,135.2 3057.5,136.8 3060.0,136.8 3060.0,139.2 3067.5,139.2 3067.5,139.2 3075.0,139.2 3075.0,136.8 3077.5,136.8 3077.5,135.2 3080.0,135.2 3080.0,135.0 3082.5,135.0 3082.5,130.6 3085.0,130.6 3085.0,130.0" stroke="rgb(0,0,0)" /><text fill="black" x="3050.0" y="159.2">H62</text><polygon fill="rgb(150,150,150)" points="3140.0,130.0 3140.0,129.8 3137.5,129.8 3137.5,129.6 3135.0,129.6 3135.0,128.2 3127.5,128.2 3127.5,128.2 3120.0,128.2 3120.0,129.6 3117.5,129.6 3117.5,129.8 3115.0,129.8 3115.0,130.0 3115.0,130.0 3115.0,130.2 3117.5,130.2 3117.5,130.4 3120.0,130.4 3120.0,131.8 3127.5,131.8 3127.5,131.8 3135.0,131.8 3135.0,130.4 3137.5,130.4 3137.5,130.2 3140.0,130.2 3140.0,130.0" stroke="rgb(0,0,0)" /><text fill="black" x="3115.0" y="151.8">H63</text><polygon fill="rgb(175,70,175)" points="3175.0,130.0 3175.0,129.4 3172.5,129.4 3172.5,129.4 3170.0,129.4 3170.0,130.0 3170.0,130.0 3170.0,130.6 3172.5,130.6 3172.5,130.6 3175.0,130.6 3175.0,130.0" stroke="rgb(0,0,0)" /><text fill="black" x="3170.0" y="150.6">E64</text><polygon fill="rgb(70,70,175)" points="3215.0,130.0 3215.0,129.8 3212.5,129.8 3212.5,129.4 3210.0,129.4 3210.0,129.4 3207.5,129.4 3207.5,129.8 3205.0,129.8 3205.0,130.0 3205.0,130.0 3205.0,130.2 3207.5,130.2 3207.5,130.6 3210.0,130.6 3210.0,130.6 3212.5,130.6 3212.5,130.2 3215.0,130.2 3215.0,130.0" stroke="rgb(0,0,0)" /><text fill="black" x="3205.0" y="150.6">E65</text><polygon fill="rgb(150,150,150)" points="3245.0,130.0 3245.0,130.0 3245.0,130.0 3245.0,130.0" stroke="rgb(0,0,0)" /><text fill="black" x="3245.0" y="150.0">X66</text><polygon fill="rgb(150,150,150)" points="3365.0,130.0 3365.0,129.6 3362.5,129.6 3362.5,128.8 3357.5,128.8 3357.5,128.6 3355.0,128.6 3355.0,128.4 3352.5,128.4 3352.5,127.8 3350.0,127.8 3350.0,126.8 3345.0,126.8 3345.0,126.60000000000001 3342.5,126.60000000000001 3342.5,126.2 3337.5,126.2 3337.5,126.0 3327.5,126.0 3327.5,125.6 3320.0,125.6 3320.0,125.6 3312.5,125.6 3312.5,126.0 3302.5,126.0 3302.5,126.2 3297.5,126.2 3297.5,126.60000000000001 3295.0,126.60000000000001 3295.0,126.8 3290.0,126.8 3290.0,127.8 3287.5,127.8 3287.5,128.4 3285.0,128.4 3285.0,128.6 3282.5,128.6 3282.5,128.8 3277.5,128.8 3277.5,129.6 3275.0,129.6 3275.0,130.0 3275.0,130.0 3275.0,130.4 3277.5,130.4 3277.5,131.2 3282.5,131.2 3282.5,131.4 3285.0,131.4 3285.0,131.6 3287.5,131.6 3287.5,132.2 3290.0,132.2 3290.0,133.2 3295.0,133.2 3295.0,133.4 3297.5,133.4 3297.5,133.8 3302.5,133.8 3302.5,134.0 3312.5,134.0 3312.5,134.4 3320.0,134.4 3320.0,134.4 3327.5,134.4 3327.5,134.0 3337.5,134.0 3337.5,133.8 3342.5,133.8 3342.5,133.4 3345.0,133.4 3345.0,133.2 3350.0,133.2 3350.0,132.2 3352.5,132.2 3352.5,131.6 3355.0,131.6 3355.0,131.4 3357.5,131.4 3357.5,131.2 3362.5,131.2 3362.5,130.4 3365.0,130.4 3365.0,130.0" stroke="rgb(0,0,0)" /><text fill="black" x="3275.0" y="154.4">H67</text><polygon fill="rgb(150,150,150)" points="3415.0,130.0 3415.0,129.0 3405.0,129.0 3405.0,129.0 3395.0,129.0 3395.0,130.0 3395.0,130.0 3395.0,131.0 3405.0,131.0 3405.0,131.0 3415.0,131.0 3415.0,130.0" stroke="rgb(0,0,0)" /><text fill="black" x="3395.0" y="151.0">H68</text><polygon fill="rgb(150,150,150)" points="3460.0,55.0 3460.0,54.8 3452.5,54.8 3452.5,54.8 3445.0,54.8 3445.0,55.0 3445.0,55.0 3445.0,55.2 3452.5,55.2 3452.5,55.2 3460.0,55.2 3460.0,55.0" stroke="rgb(0,0,0)" /><text fill="black" x="3445.0" y="75.2">H69</text><polygon fill="rgb(70,70,175)" points="3455.0,205.0 3455.0,204.8 3452.5,204.8 3452.5,204.4 3450.0,204.4 3450.0,204.4 3447.5,204.4 3447.5,204.8 3445.0,204.8 3445.0,205.0 3445.0,205.0 3445.0,205.2 3447.5,205.2 3447.5,205.6 3450.0,205.6 3450.0,205.6 3452.5,205.6 3452.5,205.2 3455.0,205.2 3455.0,205.0" stroke="rgb(0,0,0)" /><text fill="black" x="3445.0" y="225.6">E70</text><polygon fill="rgb(150,150,150)" points="3545.0,130.0 3545.0,129.4 3517.5,129.4 3517.5,129.4 3490.0,129.4 3490.0,130.0 3490.0,130.0 3490.0,130.6 3517.5,130.6 3517.5,130.6 3545.0,130.6 3545.0,130.0" stroke="rgb(0,0,0)" /><text fill="black" x="3490.0" y="150.6">H71</text><polygon fill="rgb(150,150,150)" points="3590.0,55.0 3590.0,54.8 3582.5,54.8 3582.5,54.8 3575.0,54.8 3575.0,55.0 3575.0,55.0 3575.0,55.2 3582.5,55.2 3582.5,55.2 3590.0,55.2 3590.0,55.0" stroke="rgb(0,0,0)" /><text fill="black" x="3575.0" y="75.2">H72</text><polygon fill="rgb(115,10,10)" points="3580.0,205.0 3580.0,204.8 3577.5,204.8 3577.5,204.8 3575.0,204.8 3575.0,205.0 3575.0,205.0 3575.0,205.2 3577.5,205.2 3577.5,205.2 3580.0,205.2 3580.0,205.0" stroke="rgb(0,0,0)" /><text fill="black" x="3575.0" y="225.2">E73</text><polygon fill="rgb(150,150,150)" points="3640.0,55.0 3640.0,54.8 3630.0,54.8 3630.0,54.8 3620.0,54.8 3620.0,55.0 3620.0,55.0 3620.0,55.2 3630.0,55.2 3630.0,55.2 3640.0,55.2 3640.0,55.0" stroke="rgb(0,0,0)" /><text fill="black" x="3620.0" y="75.2">H74</text><polygon fill="rgb(115,10,10)" points="3625.0,205.0 3625.0,204.8 3622.5,204.8 3622.5,204.8 3620.0,204.8 3620.0,205.0 3620.0,205.0 3620.0,205.2 3622.5,205.2 3622.5,205.2 3625.0,205.2 3625.0,205.0" stroke="rgb(0,0,0)" /><text fill="black" x="3620.0" y="225.2">E75</text><polygon fill="rgb(150,150,150)" points="3695.0,130.0 3695.0,129.8 3692.5,129.8 3692.5,129.4 3690.0,129.4 3690.0,129.2 3682.5,129.2 3682.5,129.2 3675.0,129.2 3675.0,129.4 3672.5,129.4 3672.5,129.8 3670.0,129.8 3670.0,130.0 3670.0,130.0 3670.0,130.2 3672.5,130.2 3672.5,130.6 3675.0,130.6 3675.0,130.8 3682.5,130.8 3682.5,130.8 3690.0,130.8 3690.0,130.6 3692.5,130.6 3692.5,130.2 3695.0,130.2 3695.0,130.0" stroke="rgb(0,0,0)" /><text fill="black" x="3670.0" y="150.8">H76</text><polygon fill="rgb(150,150,150)" points="3760.0,130.0 3760.0,129.8 3755.0,129.8 3755.0,129.2 3752.5,129.2 3752.5,128.8 3750.0,128.8 3750.0,127.6 3742.5,127.6 3742.5,127.6 3735.0,127.6 3735.0,128.8 3732.5,128.8 3732.5,129.2 3730.0,129.2 3730.0,129.8 3725.0,129.8 3725.0,130.0 3725.0,130.0 3725.0,130.2 3730.0,130.2 3730.0,130.8 3732.5,130.8 3732.5,131.2 3735.0,131.2 3735.0,132.4 3742.5,132.4 3742.5,132.4 3750.0,132.4 3750.0,131.2 3752.5,131.2 3752.5,130.8 3755.0,130.8 3755.0,130.2 3760.0,130.2 3760.0,130.0" stroke="rgb(0,0,0)" /><text fill="black" x="3725.0" y="152.4">H77</text><polygon fill="rgb(175,70,175)" points="3795.0,130.0 3795.0,129.4 3792.5,129.4 3792.5,129.4 3790.0,129.4 3790.0,130.0 3790.0,130.0 3790.0,130.6 3792.5,130.6 3792.5,130.6 3795.0,130.6 3795.0,130.0" stroke="rgb(0,0,0)" /><text fill="black" x="3790.0" y="150.6">E78</text><polygon fill="rgb(150,150,150)" points="3980.0,130.0 3980.0,129.4 3967.5,129.4 3967.5,128.8 3965.0,128.8 3965.0,128.2 3962.5,128.2 3962.5,127.6 3960.0,127.6 3960.0,125.6 3957.5,125.6 3957.5,123.8 3955.0,123.8 3955.0,123.0 3952.5,123.0 3952.5,120.4 3950.0,120.4 3950.0,119.0 3947.5,119.0 3947.5,117.4 3945.0,117.4 3945.0,113.2 3942.5,113.2 3942.5,110.4 3940.0,110.4 3940.0,100.39999999999999 3937.5,100.39999999999999 3937.5,98.0 3935.0,98.0 3935.0,93.4 3932.5,93.4 3932.5,91.19999999999999 3930.0,91.19999999999999 3930.0,90.0 3927.5,90.0 3927.5,89.8 3922.5,89.8 3922.5,89.6 3902.5,89.6 3902.5,89.6 3882.5,89.6 3882.5,89.8 3877.5,89.8 3877.5,90.0 3875.0,90.0 3875.0,91.19999999999999 3872.5,91.19999999999999 3872.5,93.4 3870.0,93.4 3870.0,98.0 3867.5,98.0 3867.5,100.39999999999999 3865.0,100.39999999999999 3865.0,110.4 3862.5,110.4 3862.5,113.2 3860.0,113.2 3860.0,117.4 3857.5,117.4 3857.5,119.0 3855.0,119.0 3855.0,120.4 3852.5,120.4 3852.5,123.0 3850.0,123.0 3850.0,123.8 3847.5,123.8 3847.5,125.6 3845.0,125.6 3845.0,127.6 3842.5,127.6 3842.5,128.2 3840.0,128.2 3840.0,128.8 3837.5,128.8 3837.5,129.4 3825.0,129.4 3825.0,130.0 3825.0,130.0 3825.0,130.6 3837.5,130.6 3837.5,131.2 3840.0,131.2 3840.0,131.8 3842.5,131.8 3842.5,132.4 3845.0,132.4 3845.0,134.4 3847.5,134.4 3847.5,136.2 3850.0,136.2 3850.0,137.0 3852.5,137.0 3852.5,139.6 3855.0,139.6 3855.0,141.0 3857.5,141.0 3857.5,142.6 3860.0,142.6 3860.0,146.8 3862.5,146.8 3862.5,149.6 3865.0,149.6 3865.0,159.6 3867.5,159.6 3867.5,162.0 3870.0,162.0 3870.0,166.6 3872.5,166.6 3872.5,168.8 3875.0,168.8 3875.0,170.0 3877.5,170.0 3877.5,170.2 3882.5,170.2 3882.5,170.4 3902.5,170.4 3902.5,170.4 3922.5,170.4 3922.5,170.2 3927.5,170.2 3927.5,170.0 3930.0,170.0 3930.0,168.8 3932.5,168.8 3932.5,166.6 3935.0,166.6 3935.0,162.0 3937.5,162.0 3937.5,159.6 3940.0,159.6 3940.0,149.6 3942.5,149.6 3942.5,146.8 3945.0,146.8 3945.0,142.6 3947.5,142.6 3947.5,141.0 3950.0,141.0 3950.0,139.6 3952.5,139.6 3952.5,137.0 3955.0,137.0 3955.0,136.2 3957.5,136.2 3957.5,134.4 3960.0,134.4 3960.0,132.4 3962.5,132.4 3962.5,131.8 3965.0,131.8 3965.0,131.2 3967.5,131.2 3967.5,130.6 3980.0,130.6 3980.0,130.0" stroke="rgb(0,0,0)" /><text fill="black" x="3825.0" y="190.4">H79</text><polygon fill="rgb(150,150,150)" points="4025.0,55.0 4025.0,54.8 4017.5,54.8 4017.5,54.8 4010.0,54.8 4010.0,55.0 4010.0,55.0 4010.0,55.2 4017.5,55.2 4017.5,55.2 4025.0,55.2 4025.0,55.0" stroke="rgb(0,0,0)" /><text fill="black" x="4010.0" y="75.2">H80</text><polygon fill="rgb(255,150,255)" points="4015.0,205.0 4015.0,201.4 4012.5,201.4 4012.5,201.4 4010.0,201.4 4010.0,205.0 4010.0,205.0 4010.0,208.6 4012.5,208.6 4012.5,208.6 4015.0,208.6 4015.0,205.0" stroke="rgb(0,0,0)" /><text fill="black" x="4010.0" y="228.6">E81</text><polygon fill="rgb(150,150,150)" points="4105.0,130.0 4105.0,129.8 4087.5,129.8 4087.5,128.2 4080.0,128.2 4080.0,128.2 4072.5,128.2 4072.5,129.8 4055.0,129.8 4055.0,130.0 4055.0,130.0 4055.0,130.2 4072.5,130.2 4072.5,131.8 4080.0,131.8 4080.0,131.8 4087.5,131.8 4087.5,130.2 4105.0,130.2 4105.0,130.0" stroke="rgb(0,0,0)" /><text fill="black" x="4055.0" y="151.8">H82</text><polygon fill="rgb(150,150,150)" points="4205.0,130.0 4205.0,129.6 4202.5,129.6 4202.5,128.4 4200.0,128.4 4200.0,127.39999999999999 4197.5,127.39999999999999 4197.5,127.2 4195.0,127.2 4195.0,126.0 4190.0,126.0 4190.0,125.4 4180.0,125.4 4180.0,125.0 4170.0,125.0 4170.0,125.0 4160.0,125.0 4160.0,125.4 4150.0,125.4 4150.0,126.0 4145.0,126.0 4145.0,127.2 4142.5,127.2 4142.5,127.39999999999999 4140.0,127.39999999999999 4140.0,128.4 4137.5,128.4 4137.5,129.6 4135.0,129.6 4135.0,130.0 4135.0,130.0 4135.0,130.4 4137.5,130.4 4137.5,131.6 4140.0,131.6 4140.0,132.6 4142.5,132.6 4142.5,132.8 4145.0,132.8 4145.0,134.0 4150.0,134.0 4150.0,134.6 4160.0,134.6 4160.0,135.0 4170.0,135.0 4170.0,135.0 4180.0,135.0 4180.0,134.6 4190.0,134.6 4190.0,134.0 4195.0,134.0 4195.0,132.8 4197.5,132.8 4197.5,132.6 4200.0,132.6 4200.0,131.6 4202.5,131.6 4202.5,130.4 4205.0,130.4 4205.0,130.0" stroke="rgb(0,0,0)" /><text fill="black" x="4135.0" y="155.0">H83</text><polygon fill="rgb(150,150,150)" points="4315.0,130.0 4315.0,129.4 4305.0,129.4 4305.0,129.0 4282.5,129.0 4282.5,128.6 4275.0,128.6 4275.0,128.6 4267.5,128.6 4267.5,129.0 4245.0,129.0 4245.0,129.4 4235.0,129.4 4235.0,130.0 4235.0,130.0 4235.0,130.6 4245.0,130.6 4245.0,131.0 4267.5,131.0 4267.5,131.4 4275.0,131.4 4275.0,131.4 4282.5,131.4 4282.5,131.0 4305.0,131.0 4305.0,130.6 4315.0,130.6 4315.0,130.0" stroke="rgb(0,0,0)" /><text fill="black" x="4235.0" y="151.4">H84</text><polygon fill="rgb(150,150,255)" points="4370.0,130.0 4370.0,129.6 4367.5,129.6 4367.5,128.4 4365.0,128.4 4365.0,126.60000000000001 4362.5,126.60000000000001 4362.5,125.6 4360.0,125.6 4360.0,125.2 4357.5,125.2 4357.5,125.2 4355.0,125.2 4355.0,125.6 4352.5,125.6 4352.5,126.60000000000001 4350.0,126.60000000000001 4350.0,128.4 4347.5,128.4 4347.5,129.6 4345.0,129.6 4345.0,130.0 4345.0,130.0 4345.0,130.4 4347.5,130.4 4347.5,131.6 4350.0,131.6 4350.0,133.4 4352.5,133.4 4352.5,134.4 4355.0,134.4 4355.0,134.8 4357.5,134.8 4357.5,134.8 4360.0,134.8 4360.0,134.4 4362.5,134.4 4362.5,133.4 4365.0,133.4 4365.0,131.6 4367.5,131.6 4367.5,130.4 4370.0,130.4 4370.0,130.0" stroke="rgb(0,0,0)" /><text fill="black" x="4345.0" y="154.8">E85</text><polygon fill="rgb(150,150,150)" points="4415.0,130.0 4415.0,129.0 4407.5,129.0 4407.5,129.0 4400.0,129.0 4400.0,130.0 4400.0,130.0 4400.0,131.0 4407.5,131.0 4407.5,131.0 4415.0,131.0 4415.0,130.0" stroke="rgb(0,0,0)" /><text fill="black" x="4400.0" y="151.0">H86</text><polygon fill="rgb(150,150,150)" points="4460.0,130.0 4460.0,129.6 4452.5,129.6 4452.5,129.6 4445.0,129.6 4445.0,130.0 4445.0,130.0 4445.0,130.4 4452.5,130.4 4452.5,130.4 4460.0,130.4 4460.0,130.0" stroke="rgb(0,0,0)" /><text fill="black" x="4445.0" y="150.4">H87</text><polygon fill="rgb(150,150,255)" points="4520.0,130.0 4520.0,129.2 4517.5,129.2 4517.5,128.8 4515.0,128.8 4515.0,128.4 4512.5,128.4 4512.5,126.4 4510.0,126.4 4510.0,125.6 4507.5,125.6 4507.5,125.2 4505.0,125.2 4505.0,125.2 4502.5,125.2 4502.5,125.6 4500.0,125.6 4500.0,126.4 4497.5,126.4 4497.5,128.4 4495.0,128.4 4495.0,128.8 4492.5,128.8 4492.5,129.2 4490.0,129.2 4490.0,130.0 4490.0,130.0 4490.0,130.8 4492.5,130.8 4492.5,131.2 4495.0,131.2 4495.0,131.6 4497.5,131.6 4497.5,133.6 4500.0,133.6 4500.0,134.4 4502.5,134.4 4502.5,134.8 4505.0,134.8 4505.0,134.8 4507.5,134.8 4507.5,134.4 4510.0,134.4 4510.0,133.6 4512.5,133.6 4512.5,131.6 4515.0,131.6 4515.0,131.2 4517.5,131.2 4517.5,130.8 4520.0,130.8 4520.0,130.0" stroke="rgb(0,0,0)" /><text fill="black" x="4490.0" y="154.8">E88</text><polygon fill="rgb(255,150,150)" points="4575.0,130.0 4575.0,129.6 4570.0,129.6 4570.0,129.4 4567.5,129.4 4567.5,128.8 4565.0,128.8 4565.0,127.2 4562.5,127.2 4562.5,127.2 4560.0,127.2 4560.0,128.8 4557.5,128.8 4557.5,129.4 4555.0,129.4 4555.0,129.6 4550.0,129.6 4550.0,130.0 4550.0,130.0 4550.0,130.4 4555.0,130.4 4555.0,130.6 4557.5,130.6 4557.5,131.2 4560.0,131.2 4560.0,132.8 4562.5,132.8 4562.5,132.8 4565.0,132.8 4565.0,131.2 4567.5,131.2 4567.5,130.6 4570.0,130.6 4570.0,130.4 4575.0,130.4 4575.0,130.0" stroke="rgb(0,0,0)" /><text fill="black" x="4550.0" y="152.8">E89</text><polygon fill="rgb(150,150,150)" points="4640.0,130.0 4640.0,129.8 4632.5,129.8 4632.5,129.2 4630.0,129.2 4630.0,125.4 4622.5,125.4 4622.5,125.4 4615.0,125.4 4615.0,129.2 4612.5,129.2 4612.5,129.8 4605.0,129.8 4605.0,130.0 4605.0,130.0 4605.0,130.2 4612.5,130.2 4612.5,130.8 4615.0,130.8 4615.0,134.6 4622.5,134.6 4622.5,134.6 4630.0,134.6 4630.0,130.8 4632.5,130.8 4632.5,130.2 4640.0,130.2 4640.0,130.0" stroke="rgb(0,0,0)" /><text fill="black" x="4605.0" y="154.6">H90</text><polygon fill="rgb(150,150,150)" points="4670.0,130.0 4670.0,130.0 4670.0,130.0 4670.0,130.0" stroke="rgb(0,0,0)" /><text fill="black" x="4670.0" y="150.0">X91</text><polygon fill="rgb(150,150,150)" points="4755.0,130.0 4755.0,129.6 4752.5,129.6 4752.5,129.4 4747.5,129.4 4747.5,128.6 4742.5,128.6 4742.5,128.4 4737.5,128.4 4737.5,127.6 4735.0,127.6 4735.0,126.60000000000001 4727.5,126.60000000000001 4727.5,126.60000000000001 4720.0,126.60000000000001 4720.0,127.6 4717.5,127.6 4717.5,128.4 4712.5,128.4 4712.5,128.6 4707.5,128.6 4707.5,129.4 4702.5,129.4 4702.5,129.6 4700.0,129.6 4700.0,130.0 4700.0,130.0 4700.0,130.4 4702.5,130.4 4702.5,130.6 4707.5,130.6 4707.5,131.4 4712.5,131.4 4712.5,131.6 4717.5,131.6 4717.5,132.4 4720.0,132.4 4720.0,133.4 4727.5,133.4 4727.5,133.4 4735.0,133.4 4735.0,132.4 4737.5,132.4 4737.5,131.6 4742.5,131.6 4742.5,131.4 4747.5,131.4 4747.5,130.6 4752.5,130.6 4752.5,130.4 4755.0,130.4 4755.0,130.0" stroke="rgb(0,0,0)" /><text fill="black" x="4700.0" y="153.4">H92</text><polygon fill="rgb(255,150,150)" points="4810.0,130.0 4810.0,129.8 4807.5,129.8 4807.5,129.0 4805.0,129.0 4805.0,126.2 4802.5,126.2 4802.5,123.4 4800.0,123.4 4800.0,120.60000000000001 4797.5,120.60000000000001 4797.5,120.60000000000001 4795.0,120.60000000000001 4795.0,123.4 4792.5,123.4 4792.5,126.2 4790.0,126.2 4790.0,129.0 4787.5,129.0 4787.5,129.8 4785.0,129.8 4785.0,130.0 4785.0,130.0 4785.0,130.2 4787.5,130.2 4787.5,131.0 4790.0,131.0 4790.0,133.8 4792.5,133.8 4792.5,136.6 4795.0,136.6 4795.0,139.4 4797.5,139.4 4797.5,139.4 4800.0,139.4 4800.0,136.6 4802.5,136.6 4802.5,133.8 4805.0,133.8 4805.0,131.0 4807.5,131.0 4807.5,130.2 4810.0,130.2 4810.0,130.0" stroke="rgb(0,0,0)" /><text fill="black" x="4785.0" y="159.4">E93</text><polygon fill="rgb(150,150,150)" points="4840.0,130.0 4840.0,130.0 4840.0,130.0 4840.0,130.0" stroke="rgb(0,0,0)" /><text fill="black" x="4840.0" y="150.0">X94</text><polygon fill="rgb(150,255,150)" points="4880.0,130.0 4880.0,126.0 4877.5,126.0 4877.5,125.6 4875.0,125.6 4875.0,125.6 4872.5,125.6 4872.5,126.0 4870.0,126.0 4870.0,130.0 4870.0,130.0 4870.0,134.0 4872.5,134.0 4872.5,134.4 4875.0,134.4 4875.0,134.4 4877.5,134.4 4877.5,134.0 4880.0,134.0 4880.0,130.0" stroke="rgb(0,0,0)" /><text fill="black" x="4870.0" y="154.4">E95</text><polygon fill="rgb(150,150,150)" points="4910.0,55.0 4910.0,55.0 4910.0,55.0 4910.0,55.0" stroke="rgb(0,0,0)" /><text fill="black" x="4910.0" y="75.0">X96</text><polygon fill="rgb(150,150,150)" points="4955.0,205.0 4955.0,204.8 4950.0,204.8 4950.0,204.6 4947.5,204.6 4947.5,204.4 4942.5,204.4 4942.5,203.6 4940.0,203.6 4940.0,203.2 4932.5,203.2 4932.5,203.2 4925.0,203.2 4925.0,203.6 4922.5,203.6 4922.5,204.4 4917.5,204.4 4917.5,204.6 4915.0,204.6 4915.0,204.8 4910.0,204.8 4910.0,205.0 4910.0,205.0 4910.0,205.2 4915.0,205.2 4915.0,205.4 4917.5,205.4 4917.5,205.6 4922.5,205.6 4922.5,206.4 4925.0,206.4 4925.0,206.8 4932.5,206.8 4932.5,206.8 4940.0,206.8 4940.0,206.4 4942.5,206.4 4942.5,205.6 4947.5,205.6 4947.5,205.4 4950.0,205.4 4950.0,205.2 4955.0,205.2 4955.0,205.0" stroke="rgb(0,0,0)" /><text fill="black" x="4910.0" y="226.8">H97</text><polygon fill="rgb(150,150,150)" points="4985.0,130.0 4985.0,130.0 4985.0,130.0 4985.0,130.0" stroke="rgb(0,0,0)" /><text fill="black" x="4985.0" y="150.0">X98</text><path d="M 92.5,130.0 a 198.0408163265306,198.0408163265306 0 0,0 -80.0,-0.0" stroke="rgb(150,255,150)" stroke-width="2" /><path d="M 92.5,130.0 a 198.0408163265306,198.0408163265306 0 0,0 -80.0,-0.0" stroke="rgb(0,0,0)" stroke-width="0.2" /><path d="M 4875.0,130.0 a 64788.00161156937,64788.00161156937 0 0,0 -4862.5,-0.0" stroke="rgb(150,255,150)" stroke-width="2" /><path d="M 4875.0,130.0 a 64788.00161156937,64788.00161156937 0 0,0 -4862.5,-0.0" stroke="rgb(0,0,0)" stroke-width="0.2" /><path d="M 362.5,130.0 a 928.0630386433138,928.0630386433138 0 0,0 -310.0,-0.0" stroke="rgb(70,175,175)" stroke-width="2" /><path d="M 362.5,130.0 a 928.0630386433138,928.0630386433138 0 0,0 -310.0,-0.0" stroke="rgb(0,0,0)" stroke-width="0.2" /><path d="M 237.5,55.0 a 265.8337694716888,265.8337694716888 0 0,0 -105.0,-0.0" stroke="rgb(175,70,70)" stroke-width="2" /><path d="M 237.5,55.0 a 265.8337694716888,265.8337694716888 0 0,0 -105.0,-0.0" stroke="rgb(0,0,0)" stroke-width="0.2" /><path d="M 4012.5,205.0 a 37936.0887142663,37936.0887142663 0 0,0 -3615.0,-75.0" stroke="rgb(255,150,255)" stroke-width="2" /><path d="M 4012.5,205.0 a 37936.0887142663,37936.0887142663 0 0,0 -3615.0,-75.0" stroke="rgb(0,0,0)" stroke-width="0.2" /><path d="M 435.0,205.0 a 708.7642045454545,708.7642045454545 0 0,0 547.5,-0.0" stroke="rgb(255,150,150)" stroke-width="2" /><path d="M 435.0,205.0 a 708.7642045454545,708.7642045454545 0 0,0 547.5,-0.0" stroke="rgb(0,0,0)" stroke-width="0.2" /><path d="M 512.5,130.0 a 542.3295454545455,542.3295454545455 0 0,0 470.0,75.0" stroke="rgb(255,150,150)" stroke-width="2" /><path d="M 512.5,130.0 a 542.3295454545455,542.3295454545455 0 0,0 470.0,75.0" stroke="rgb(0,0,0)" stroke-width="0.2" /><path d="M 512.5,130.0 a 715.0,715.0 0 0,0 550.0,-0.0" stroke="rgb(255,150,150)" stroke-width="2" /><path d="M 512.5,130.0 a 715.0,715.0 0 0,0 550.0,-0.0" stroke="rgb(0,0,0)" stroke-width="0.2" /><path d="M 512.5,130.0 a 3635.681818181818,3635.681818181818 0 0,0 1260.0,-0.0" stroke="rgb(255,150,150)" stroke-width="2" /><path d="M 512.5,130.0 a 3635.681818181818,3635.681818181818 0 0,0 1260.0,-0.0" stroke="rgb(0,0,0)" stroke-width="0.2" /><path d="M 512.5,130.0 a 3957.556818181818,3957.556818181818 0 0,0 1315.0,-0.0" stroke="rgb(255,150,150)" stroke-width="2" /><path d="M 512.5,130.0 a 3957.556818181818,3957.556818181818 0 0,0 1315.0,-0.0" stroke="rgb(0,0,0)" stroke-width="0.2" /><path d="M 630.0,55.0 a 225.1950886910141,225.1950886910141 0 0,0 -50.0,75.0" stroke="rgb(255,255,150)" stroke-width="2" /><path d="M 630.0,55.0 a 225.1950886910141,225.1950886910141 0 0,0 -50.0,75.0" stroke="rgb(0,0,0)" stroke-width="0.2" /><path d="M 832.5,130.0 a 147.72727272727275,147.72727272727275 0 0,0 230.0,-0.0" stroke="rgb(255,150,150)" stroke-width="2" /><path d="M 832.5,130.0 a 147.72727272727275,147.72727272727275 0 0,0 230.0,-0.0" stroke="rgb(0,0,0)" stroke-width="0.2" /><path d="M 982.5,205.0 a 237.03231809326266,237.03231809326266 0 0,0 -57.5,-75.0" stroke="rgb(255,150,150)" stroke-width="2" /><path d="M 982.5,205.0 a 237.03231809326266,237.03231809326266 0 0,0 -57.5,-75.0" stroke="rgb(0,0,0)" stroke-width="0.2" /><path d="M 1062.5,130.0 a 196.26420454545453,196.26420454545453 0 0,0 272.5,-0.0" stroke="rgb(255,150,150)" stroke-width="2" /><path d="M 1062.5,130.0 a 196.26420454545453,196.26420454545453 0 0,0 272.5,-0.0" stroke="rgb(0,0,0)" stroke-width="0.2" /><path d="M 1122.5,130.0 a 130.1278409090909,130.1278409090909 0 0,0 212.5,-0.0" stroke="rgb(255,150,150)" stroke-width="2" /><path d="M 1122.5,130.0 a 130.1278409090909,130.1278409090909 0 0,0 212.5,-0.0" stroke="rgb(0,0,0)" stroke-width="0.2" /><path d="M 1282.5,205.0 a 534.0242958332874,534.0242958332874 0 0,0 -125.0,-150.0" stroke="rgb(175,175,70)" stroke-width="2" /><path d="M 1282.5,205.0 a 534.0242958332874,534.0242958332874 0 0,0 -125.0,-150.0" stroke="rgb(0,0,0)" stroke-width="0.2" /><path d="M 1375.0,130.0 a 95.42336661411807,95.42336661411807 0 0,0 -40.0,-0.0" stroke="rgb(255,150,150)" stroke-width="2" /><path d="M 1375.0,130.0 a 95.42336661411807,95.42336661411807 0 0,0 -40.0,-0.0" stroke="rgb(0,0,0)" stroke-width="0.2" /><path d="M 1827.5,130.0 a 727.5568181818181,727.5568181818181 0 0,0 555.0,-0.0" stroke="rgb(255,150,150)" stroke-width="2" /><path d="M 1827.5,130.0 a 727.5568181818181,727.5568181818181 0 0,0 555.0,-0.0" stroke="rgb(0,0,0)" stroke-width="0.2" /><path d="M 1925.0,205.0 a 107.85693584938552,107.85693584938552 0 0,0 -45.0,-0.0" stroke="rgb(150,255,255)" stroke-width="2" /><path d="M 1925.0,205.0 a 107.85693584938552,107.85693584938552 0 0,0 -45.0,-0.0" stroke="rgb(0,0,0)" stroke-width="0.2" /><path d="M 2137.5,55.0 a 126.70454545454545,126.70454545454545 0 0,0 195.0,75.0" stroke="rgb(70,175,70)" stroke-width="2" /><path d="M 2137.5,55.0 a 126.70454545454545,126.70454545454545 0 0,0 195.0,75.0" stroke="rgb(0,0,0)" stroke-width="0.2" /><path d="M 2382.5,130.0 a 338.93465909090907,338.93465909090907 0 0,0 362.5,-75.0" stroke="rgb(255,150,150)" stroke-width="2" /><path d="M 2382.5,130.0 a 338.93465909090907,338.93465909090907 0 0,0 362.5,-75.0" stroke="rgb(0,0,0)" stroke-width="0.2" /><path d="M 2382.5,130.0 a 423.6505681818182,423.6505681818182 0 0,0 417.5,-0.0" stroke="rgb(255,150,150)" stroke-width="2" /><path d="M 2382.5,130.0 a 423.6505681818182,423.6505681818182 0 0,0 417.5,-0.0" stroke="rgb(0,0,0)" stroke-width="0.2" /><path d="M 2500.0,205.0 a 438.47095959204097,438.47095959204097 0 0,0 -67.5,-150.0" stroke="rgb(255,150,150)" stroke-width="2" /><path d="M 2500.0,205.0 a 438.47095959204097,438.47095959204097 0 0,0 -67.5,-150.0" stroke="rgb(0,0,0)" stroke-width="0.2" /><path d="M 2500.0,205.0 a 244.82954545454547,244.82954545454547 0 0,0 300.0,-75.0" stroke="rgb(255,150,150)" stroke-width="2" /><path d="M 2500.0,205.0 a 244.82954545454547,244.82954545454547 0 0,0 300.0,-75.0" stroke="rgb(0,0,0)" stroke-width="0.2" /><path d="M 2917.5,130.0 a 300.78588764720257,300.78588764720257 0 0,0 -117.5,-0.0" stroke="rgb(255,150,150)" stroke-width="2" /><path d="M 2917.5,130.0 a 300.78588764720257,300.78588764720257 0 0,0 -117.5,-0.0" stroke="rgb(0,0,0)" stroke-width="0.2" /><path d="M 2800.0,130.0 a 9095.696022727272,9095.696022727272 0 0,0 1997.5,-0.0" stroke="rgb(255,150,150)" stroke-width="2" /><path d="M 2800.0,130.0 a 9095.696022727272,9095.696022727272 0 0,0 1997.5,-0.0" stroke="rgb(0,0,0)" stroke-width="0.2" /><path d="M 2995.0,130.0 a 191.41629553907273,191.41629553907273 0 0,0 -77.5,-0.0" stroke="rgb(255,150,150)" stroke-width="2" /><path d="M 2995.0,130.0 a 191.41629553907273,191.41629553907273 0 0,0 -77.5,-0.0" stroke="rgb(0,0,0)" stroke-width="0.2" /><path d="M 3792.5,130.0 a 2290.446791774357,2290.446791774357 0 0,0 -620.0,-0.0" stroke="rgb(175,70,175)" stroke-width="2" /><path d="M 3792.5,130.0 a 2290.446791774357,2290.446791774357 0 0,0 -620.0,-0.0" stroke="rgb(0,0,0)" stroke-width="0.2" /><path d="M 3450.0,205.0 a 719.5522788241681,719.5522788241681 0 0,0 -240.0,-75.0" stroke="rgb(70,70,175)" stroke-width="2" /><path d="M 3450.0,205.0 a 719.5522788241681,719.5522788241681 0 0,0 -240.0,-75.0" stroke="rgb(0,0,0)" stroke-width="0.2" /><path d="M 3577.5,205.0 a 32.10227272727273,32.10227272727273 0 0,0 45.0,-0.0" stroke="rgb(115,10,10)" stroke-width="2" /><path d="M 3577.5,205.0 a 32.10227272727273,32.10227272727273 0 0,0 45.0,-0.0" stroke="rgb(0,0,0)" stroke-width="0.2" /><path d="M 4505.0,130.0 a 387.54387102694335,387.54387102694335 0 0,0 -147.5,-0.0" stroke="rgb(150,150,255)" stroke-width="2" /><path d="M 4505.0,130.0 a 387.54387102694335,387.54387102694335 0 0,0 -147.5,-0.0" stroke="rgb(0,0,0)" stroke-width="0.2" /><path d="M 4797.5,130.0 a 663.7753723365037,663.7753723365037 0 0,0 -235.0,-0.0" stroke="rgb(255,150,150)" stroke-width="2" /><path d="M 4797.5,130.0 a 663.7753723365037,663.7753723365037 0 0,0 -235.0,-0.0" stroke="rgb(0,0,0)" stroke-width="0.2" /></svg>