<?xml version="1.0" encoding="utf-8" ?>
<svg baseProfile="full" height="100%" style="font-size:14;font-family:Sans, Arial;stroke-width:1;fill:none" version="1.1" width="100%" xmlns="http://www.w3.org/2000/svg" xmlns:ev="http://www.w3.org/2001/xml-events" xmlns:xlink="http://www.w3.org/1999/xlink"><defs /><rect fill="none" height="150.0" stroke="none" width="703.88365" x="0" y="0" /><line stroke="rgb(0,0,0)" x1="5.0" x2="38.6546" y1="75.0" y2="75.0" /><line stroke="rgb(0,0,0)" x1="38.6546" x2="48.6546" y1="75.0" y2="75.0" /><line stroke="rgb(0,0,0)" x1="48.6546" x2="53.6546" y1="75.0" y2="75.0" /><line stroke="rgb(0,0,0)" x1="53.6546" x2="135.9636" y1="75.0" y2="75.0" /><line stroke="rgb(0,0,0)" x1="135.9636" x2="145.9636" y1="75.0" y2="75.0" /><line stroke="rgb(0,0,0)" x1="145.9636" x2="150.9636" y1="75.0" y2="75.0" /><line stroke="rgb(0,0,0)" x1="150.9636" x2="168.22165" y1="75.0" y2="75.0" /><line stroke="rgb(0,0,0)" x1="168.22165" x2="178.22164999999998" y1="75.0" y2="75.0" /><line stroke="rgb(0,0,0)" x1="178.22164999999998" x2="183.22164999999998" y1="75.0" y2="75.0" /><line stroke="rgb(0,0,0)" x1="183.22164999999998" x2="213.3043" y1="75.0" y2="75.0" /><line stroke="rgb(0,0,0)" x1="213.3043" x2="223.3043" y1="75.0" y2="75.0" /><line stroke="rgb(0,0,0)" x1="223.3043" x2="228.3043" y1="75.0" y2="75.0" /><line stroke="rgb(0,0,0)" x1="228.3043" x2="293.3043" y1="75.0" y2="75.0" /><line stroke="rgb(0,0,0)" x1="293.3043" x2="303.3043" y1="75.0" y2="75.0" /><line stroke="rgb(0,0,0)" x1="303.3043" x2="308.3043" y1="75.0" y2="75.0" /><line stroke="rgb(0,0,0)" x1="308.3043" x2="335.64300000000003" y1="75.0" y2="75.0" /><line stroke="rgb(0,0,0)" x1="335.64300000000003" x2="345.64300000000003" y1="75.0" y2="75.0" /><line stroke="rgb(0,0,0)" x1="345.64300000000003" x2="350.64300000000003" y1="75.0" y2="75.0" /><line stroke="rgb(0,0,0)" x1="350.64300000000003" x2="417.20400000000006" y1="75.0" y2="75.0" /><line stroke="rgb(0,0,0)" x1="417.20400000000006" x2="427.20400000000006" y1="75.0" y2="75.0" /><line stroke="rgb(0,0,0)" x1="427.20400000000006" x2="432.20400000000006" y1="75.0" y2="75.0" /><line stroke="rgb(0,0,0)" x1="432.20400000000006" x2="456.84685" y1="75.0" y2="75.0" /><line stroke="rgb(0,0,0)" x1="456.84685" x2="466.84685" y1="75.0" y2="75.0" /><line stroke="rgb(0,0,0)" x1="466.84685" x2="471.84685" y1="75.0" y2="75.0" /><line stroke="rgb(0,0,0)" x1="471.84685" x2="499.81875" y1="75.0" y2="75.0" /><line stroke="rgb(0,0,0)" x1="499.81875" x2="509.81875" y1="75.0" y2="75.0" /><line stroke="rgb(0,0,0)" x1="509.81875" x2="514.81875" y1="75.0" y2="75.0" /><line stroke="rgb(0,0,0)" x1="514.81875" x2="561.50995" y1="75.0" y2="75.0" /><line stroke="rgb(0,0,0)" x1="561.50995" x2="571.50995" y1="75.0" y2="75.0" /><line stroke="rgb(0,0,0)" x1="571.50995" x2="576.50995" y1="75.0" y2="75.0" /><line stroke="rgb(0,0,0)" x1="576.50995" x2="600.19565" y1="75.0" y2="75.0" /><line stroke="rgb(0,0,0)" x1="600.19565" x2="610.19565" y1="75.0" y2="75.0" /><line stroke="rgb(0,0,0)" x1="610.19565" x2="615.19565" y1="75.0" y2="75.0" /><rect fill="rgb(166,130,255)" height="99.6" stroke="rgb(0,0,0)" width="28.654600000000002" x="5.0" y="25.200000000000003" /><text fill="black" x="5.0" y="144.8">E11</text><rect fill="rgb(255,180,230)" height="99.6" stroke="rgb(0,0,0)" width="77.309" x="53.6546" y="25.200000000000003" /><text fill="black" x="53.6546" y="144.8">H15</text><rect fill="rgb(255,107,137)" height="24.8" stroke="rgb(0,0,0)" width="12.25805" x="150.9636" y="62.6" /><text fill="black" x="150.9636" y="107.4">E20</text><rect fill="rgb(255,192,244)" height="96.8" stroke="rgb(0,0,0)" width="25.08265" x="183.22164999999998" y="26.6" /><text fill="black" x="183.22164999999998" y="143.4">E21</text><rect fill="rgb(234,184,255)" height="90.0" stroke="rgb(0,0,0)" width="60.0" x="228.3043" y="30.0" /><text fill="black" x="228.3043" y="140.0">H32</text><rect fill="rgb(128,101,255)" height="99.2" stroke="rgb(0,0,0)" width="22.3387" x="308.3043" y="25.4" /><text fill="black" x="308.3043" y="144.6">E38</text><rect fill="rgb(239,187,255)" height="88.4" stroke="rgb(0,0,0)" width="61.56100000000001" x="350.64300000000003" y="30.799999999999997" /><text fill="black" x="350.64300000000003" y="139.2">H43</text><rect fill="rgb(253,198,255)" height="22.400000000000002" stroke="rgb(0,0,0)" width="19.64285" x="432.20400000000006" y="63.8" /><text fill="black" x="432.20400000000006" y="106.2">H47</text><rect fill="rgb(193,152,255)" height="99.6" stroke="rgb(0,0,0)" width="22.9719" x="471.84685" y="25.200000000000003" /><text fill="black" x="471.84685" y="144.8">E49</text><rect fill="rgb(180,141,255)" height="54.400000000000006" stroke="rgb(0,0,0)" width="41.6912" x="514.81875" y="47.8" /><text fill="black" x="514.81875" y="122.2">H54</text><rect fill="rgb(160,125,255)" height="70.0" stroke="rgb(0,0,0)" width="18.6857" x="576.50995" y="40.0" /><text fill="black" x="576.50995" y="130.0">E58</text><rect fill="rgb(255,88,112)" height="80.80000000000001" stroke="rgb(0,0,0)" width="83.688" x="615.19565" y="34.599999999999994" /><text fill="black" x="615.19565" y="135.4">H79</text><path d="M 19.3273,75.0 a 70.63473811899007,70.63473811899007 0 0,0 137.76532500000002,-0.0" stroke="rgb(166,130,255)" stroke-width="2" /><path d="M 19.3273,75.0 a 70.63473811899007,70.63473811899007 0 0,0 137.76532500000002,-0.0" stroke="rgb(0,0,0)" stroke-width="0.2" /><path d="M 19.3273,75.0 a 98.24897139251276,98.24897139251276 0 0,0 176.43567499999997,-0.0" stroke="rgb(166,130,255)" stroke-width="2" /><path d="M 19.3273,75.0 a 98.24897139251276,98.24897139251276 0 0,0 176.43567499999997,-0.0" stroke="rgb(0,0,0)" stroke-width="0.2" /><path d="M 19.3273,75.0 a 232.24507140527848,232.24507140527848 0 0,0 300.14635000000004,-0.0" stroke="rgb(166,130,255)" stroke-width="2" /><path d="M 19.3273,75.0 a 232.24507140527848,232.24507140527848 0 0,0 300.14635000000004,-0.0" stroke="rgb(0,0,0)" stroke-width="0.2" /><path d="M 319.47365,75.0 a 88.52232054255114,88.52232054255114 0 0,0 163.85915,-0.0" stroke="rgb(128,101,255)" stroke-width="2" /><path d="M 319.47365,75.0 a 88.52232054255114,88.52232054255114 0 0,0 163.85915,-0.0" stroke="rgb(0,0,0)" stroke-width="0.2" /><path d="M 483.3328,75.0 a 51.387159999999994,51.387159999999994 0 0,0 102.51999999999998,-0.0" stroke="rgb(193,152,255)" stroke-width="2" /><path d="M 483.3328,75.0 a 51.387159999999994,51.387159999999994 0 0,0 102.51999999999998,-0.0" stroke="rgb(0,0,0)" stroke-width="0.2" /></svg>