<?xml version="1.0" encoding="utf-8" ?>
<svg baseProfile="full" height="100%" style="font-size:14;font-family:Sans, Arial;stroke-width:1;fill:none" version="1.1" width="100%" xmlns="http://www.w3.org/2000/svg" xmlns:ev="http://www.w3.org/2001/xml-events" xmlns:xlink="http://www.w3.org/1999/xlink"><defs /><rect fill="none" height="150.0" stroke="none" width="884.1666499999999" x="0" y="0" /><line stroke="rgb(0,0,0)" x1="5.0" x2="92.5" y1="75.0" y2="75.0" /><line stroke="rgb(0,0,0)" x1="92.5" x2="102.5" y1="75.0" y2="75.0" /><line stroke="rgb(0,0,0)" x1="102.5" x2="107.5" y1="75.0" y2="75.0" /><line stroke="rgb(0,0,0)" x1="107.5" x2="132.5" y1="75.0" y2="75.0" /><line stroke="rgb(0,0,0)" x1="132.5" x2="142.5" y1="75.0" y2="75.0" /><line stroke="rgb(0,0,0)" x1="142.5" x2="147.5" y1="75.0" y2="75.0" /><line stroke="rgb(0,0,0)" x1="147.5" x2="181.25" y1="75.0" y2="75.0" /><line stroke="rgb(0,0,0)" x1="181.25" x2="191.25" y1="75.0" y2="75.0" /><line stroke="rgb(0,0,0)" x1="191.25" x2="196.25" y1="75.0" y2="75.0" /><line stroke="rgb(0,0,0)" x1="196.25" x2="280.0" y1="75.0" y2="75.0" /><line stroke="rgb(0,0,0)" x1="280.0" x2="290.0" y1="75.0" y2="75.0" /><line stroke="rgb(0,0,0)" x1="290.0" x2="295.0" y1="75.0" y2="75.0" /><line stroke="rgb(0,0,0)" x1="295.0" x2="320.0" y1="75.0" y2="75.0" /><line stroke="rgb(0,0,0)" x1="320.0" x2="330.0" y1="75.0" y2="75.0" /><line stroke="rgb(0,0,0)" x1="330.0" x2="335.0" y1="75.0" y2="75.0" /><line stroke="rgb(0,0,0)" x1="335.0" x2="366.25" y1="75.0" y2="75.0" /><line stroke="rgb(0,0,0)" x1="366.25" x2="376.25" y1="75.0" y2="75.0" /><line stroke="rgb(0,0,0)" x1="376.25" x2="381.25" y1="75.0" y2="75.0" /><line stroke="rgb(0,0,0)" x1="381.25" x2="446.25" y1="75.0" y2="75.0" /><line stroke="rgb(0,0,0)" x1="446.25" x2="456.25" y1="75.0" y2="75.0" /><line stroke="rgb(0,0,0)" x1="456.25" x2="461.25" y1="75.0" y2="75.0" /><line stroke="rgb(0,0,0)" x1="461.25" x2="487.5" y1="75.0" y2="75.0" /><line stroke="rgb(0,0,0)" x1="487.5" x2="497.5" y1="75.0" y2="75.0" /><line stroke="rgb(0,0,0)" x1="497.5" x2="502.5" y1="75.0" y2="75.0" /><line stroke="rgb(0,0,0)" x1="502.5" x2="517.5" y1="75.0" y2="75.0" /><line stroke="rgb(0,0,0)" x1="517.5" x2="527.5" y1="75.0" y2="75.0" /><line stroke="rgb(0,0,0)" x1="527.5" x2="532.5" y1="75.0" y2="75.0" /><line stroke="rgb(0,0,0)" x1="532.5" x2="547.5" y1="75.0" y2="75.0" /><line stroke="rgb(0,0,0)" x1="547.5" x2="557.5" y1="75.0" y2="75.0" /><line stroke="rgb(0,0,0)" x1="557.5" x2="562.5" y1="75.0" y2="75.0" /><line stroke="rgb(0,0,0)" x1="562.5" x2="632.5" y1="75.0" y2="75.0" /><line stroke="rgb(0,0,0)" x1="632.5" x2="642.5" y1="75.0" y2="75.0" /><line stroke="rgb(0,0,0)" x1="642.5" x2="647.5" y1="75.0" y2="75.0" /><line stroke="rgb(0,0,0)" x1="647.5" x2="675.0" y1="75.0" y2="75.0" /><line stroke="rgb(0,0,0)" x1="675.0" x2="685.0" y1="75.0" y2="75.0" /><line stroke="rgb(0,0,0)" x1="685.0" x2="690.0" y1="75.0" y2="75.0" /><line stroke="rgb(0,0,0)" x1="690.0" x2="730.0" y1="75.0" y2="75.0" /><line stroke="rgb(0,0,0)" x1="730.0" x2="740.0" y1="75.0" y2="75.0" /><line stroke="rgb(0,0,0)" x1="740.0" x2="745.0" y1="75.0" y2="75.0" /><line stroke="rgb(0,0,0)" x1="745.0" x2="755.0" y1="75.0" y2="75.0" /><line stroke="rgb(0,0,0)" x1="755.0" x2="765.0" y1="75.0" y2="75.0" /><line stroke="rgb(0,0,0)" x1="765.0" x2="770.0" y1="75.0" y2="75.0" /><line stroke="rgb(0,0,0)" x1="770.0" x2="790.0" y1="75.0" y2="75.0" /><line stroke="rgb(0,0,0)" x1="790.0" x2="800.0" y1="75.0" y2="75.0" /><line stroke="rgb(0,0,0)" x1="800.0" x2="805.0" y1="75.0" y2="75.0" /><line stroke="rgb(0,0,0)" x1="805.0" x2="822.5" y1="75.0" y2="75.0" /><line stroke="rgb(0,0,0)" x1="822.5" x2="832.5" y1="75.0" y2="75.0" /><line stroke="rgb(0,0,0)" x1="832.5" x2="837.5" y1="75.0" y2="75.0" /><rect fill="rgb(150,150,150)" height="50.0" stroke="rgb(0,0,0)" width="82.5" x="5.0" y="50.0" /><text fill="black" x="5.0" y="120.0">H0</text><rect fill="rgb(150,150,150)" height="25.0" stroke="rgb(0,0,0)" width="20.0" x="107.5" y="62.5" /><text fill="black" x="107.5" y="107.5">H1</text><rect fill="rgb(255,150,150)" height="100.0" stroke="rgb(0,0,0)" width="28.75" x="147.5" y="25.0" /><text fill="black" x="147.5" y="145.0">E2</text><rect fill="rgb(150,150,150)" height="100.0" stroke="rgb(0,0,0)" width="78.75" x="196.25" y="25.0" /><text fill="black" x="196.25" y="145.0">H3</text><rect fill="rgb(150,150,150)" height="25.0" stroke="rgb(0,0,0)" width="20.0" x="295.0" y="62.5" /><text fill="black" x="295.0" y="107.5">H4</text><rect fill="rgb(255,150,150)" height="100.0" stroke="rgb(0,0,0)" width="26.25" x="335.0" y="25.0" /><text fill="black" x="335.0" y="145.0">E5</text><rect fill="rgb(150,150,150)" height="100.0" stroke="rgb(0,0,0)" width="60.0" x="381.25" y="25.0" /><text fill="black" x="381.25" y="145.0">H6</text><rect fill="rgb(255,150,150)" height="100.0" stroke="rgb(0,0,0)" width="21.25" x="461.25" y="25.0" /><text fill="black" x="461.25" y="145.0">E7</text><rect fill="rgb(150,150,255)" height="25.0" stroke="rgb(0,0,0)" width="10.0" x="502.5" y="62.5" /><text fill="black" x="502.5" y="107.5">E8</text><rect fill="rgb(150,150,255)" height="25.0" stroke="rgb(0,0,0)" width="10.0" x="532.5" y="62.5" /><text fill="black" x="532.5" y="107.5">E9</text><rect fill="rgb(150,150,150)" height="100.0" stroke="rgb(0,0,0)" width="65.0" x="562.5" y="25.0" /><text fill="black" x="562.5" y="145.0">H10</text><rect fill="rgb(255,150,150)" height="100.0" stroke="rgb(0,0,0)" width="22.5" x="647.5" y="25.0" /><text fill="black" x="647.5" y="145.0">E11</text><rect fill="rgb(150,150,150)" height="100.0" stroke="rgb(0,0,0)" width="35.0" x="690.0" y="25.0" /><text fill="black" x="690.0" y="145.0">H12</text><rect fill="rgb(255,150,150)" height="25.0" stroke="rgb(0,0,0)" width="5.0" x="745.0" y="62.5" /><text fill="black" x="745.0" y="107.5">E13</text><rect fill="rgb(255,150,150)" height="75.0" stroke="rgb(0,0,0)" width="15.0" x="770.0" y="37.5" /><text fill="black" x="770.0" y="132.5">E14</text><rect fill="rgb(255,150,150)" height="50.0" stroke="rgb(0,0,0)" width="12.5" x="805.0" y="50.0" /><text fill="black" x="805.0" y="120.0">E15</text><rect fill="rgb(150,150,150)" height="75.0" stroke="rgb(0,0,0)" width="41.666650000000004" x="837.5" y="37.5" /><text fill="black" x="837.5" y="132.5">H16</text><path d="M 161.875,75.0 a 106.3387784090909,106.3387784090909 0 0,0 186.25,-0.0" stroke="rgb(255,150,150)" stroke-width="2" /><path d="M 161.875,75.0 a 106.3387784090909,106.3387784090909 0 0,0 186.25,-0.0" stroke="rgb(0,0,0)" stroke-width="0.2" /><path d="M 161.875,75.0 a 245.9090909090909,245.9090909090909 0 0,0 310.0,-0.0" stroke="rgb(255,150,150)" stroke-width="2" /><path d="M 161.875,75.0 a 245.9090909090909,245.9090909090909 0 0,0 310.0,-0.0" stroke="rgb(0,0,0)" stroke-width="0.2" /><path d="M 471.875,75.0 a 106.86878551136364,106.86878551136364 0 0,0 186.875,-0.0" stroke="rgb(255,150,150)" stroke-width="2" /><path d="M 471.875,75.0 a 106.86878551136364,106.86878551136364 0 0,0 186.875,-0.0" stroke="rgb(0,0,0)" stroke-width="0.2" /><path d="M 537.5,75.0 a 18.09099133946364,18.09099133946364 0 0,0 -30.0,-0.0" stroke="rgb(150,150,255)" stroke-width="2" /><path d="M 537.5,75.0 a 18.09099133946364,18.09099133946364 0 0,0 -30.0,-0.0" stroke="rgb(0,0,0)" stroke-width="0.2" /><path d="M 658.75,75.0 a 45.40127840909091,45.40127840909091 0 0,0 88.75,-0.0" stroke="rgb(255,150,150)" stroke-width="2" /><path d="M 658.75,75.0 a 45.40127840909091,45.40127840909091 0 0,0 88.75,-0.0" stroke="rgb(0,0,0)" stroke-width="0.2" /><path d="M 658.75,75.0 a 59.54900568181818,59.54900568181818 0 0,0 118.75,-0.0" stroke="rgb(255,150,150)" stroke-width="2" /><path d="M 658.75,75.0 a 59.54900568181818,59.54900568181818 0 0,0 118.75,-0.0" stroke="rgb(0,0,0)" stroke-width="0.2" /><path d="M 811.25,75.0 a 20.56009875686472,20.56009875686472 0 0,0 -33.75,-0.0" stroke="rgb(255,150,150)" stroke-width="2" /><path d="M 811.25,75.0 a 20.56009875686472,20.56009875686472 0 0,0 -33.75,-0.0" stroke="rgb(0,0,0)" stroke-width="0.2" /></svg>