<?xml version="1.0" encoding="utf-8" ?>
<svg baseProfile="full" height="100%" style="font-size:14;font-family:Sans, Arial;stroke-width:1;fill:none" version="1.1" width="100%" xmlns="http://www.w3.org/2000/svg" xmlns:ev="http://www.w3.org/2001/xml-events" xmlns:xlink="http://www.w3.org/1999/xlink"><defs /><rect fill="none" height="150.0" stroke="none" width="839.3125" x="0" y="0" /><line stroke="rgb(0,0,0)" x1="13.90625" x2="27.8125" y1="75.0" y2="75.0" /><line stroke="rgb(0,0,0)" x1="27.8125" x2="37.8125" y1="75.0" y2="75.0" /><line stroke="rgb(0,0,0)" x1="37.8125" x2="63.5625" y1="75.0" y2="75.0" /><line stroke="rgb(0,0,0)" x1="63.5625" x2="89.3125" y1="75.0" y2="75.0" /><line stroke="rgb(0,0,0)" x1="89.3125" x2="99.3125" y1="75.0" y2="75.0" /><line stroke="rgb(0,0,0)" x1="99.3125" x2="124.3125" y1="75.0" y2="75.0" /><line stroke="rgb(0,0,0)" x1="124.3125" x2="149.3125" y1="75.0" y2="75.0" /><line stroke="rgb(0,0,0)" x1="149.3125" x2="159.3125" y1="75.0" y2="75.0" /><line stroke="rgb(0,0,0)" x1="159.3125" x2="186.9375" y1="75.0" y2="75.0" /><line stroke="rgb(0,0,0)" x1="186.9375" x2="214.5625" y1="75.0" y2="75.0" /><line stroke="rgb(0,0,0)" x1="214.5625" x2="224.5625" y1="75.0" y2="75.0" /><line stroke="rgb(0,0,0)" x1="224.5625" x2="252.0625" y1="75.0" y2="75.0" /><line stroke="rgb(0,0,0)" x1="252.0625" x2="279.5625" y1="75.0" y2="75.0" /><line stroke="rgb(0,0,0)" x1="279.5625" x2="289.5625" y1="75.0" y2="75.0" /><line stroke="rgb(0,0,0)" x1="289.5625" x2="312.194075" y1="75.0" y2="75.0" /><line stroke="rgb(0,0,0)" x1="312.194075" x2="334.82565" y1="75.0" y2="75.0" /><line stroke="rgb(0,0,0)" x1="334.82565" x2="344.82565" y1="75.0" y2="75.0" /><line stroke="rgb(0,0,0)" x1="344.82565" x2="367.07565" y1="75.0" y2="75.0" /><line stroke="rgb(0,0,0)" x1="367.07565" x2="389.32565" y1="75.0" y2="75.0" /><line stroke="rgb(0,0,0)" x1="389.32565" x2="399.32565" y1="75.0" y2="75.0" /><line stroke="rgb(0,0,0)" x1="399.32565" x2="419.70065" y1="75.0" y2="75.0" /><line stroke="rgb(0,0,0)" x1="419.70065" x2="440.07565" y1="75.0" y2="75.0" /><line stroke="rgb(0,0,0)" x1="440.07565" x2="450.07565" y1="75.0" y2="75.0" /><line stroke="rgb(0,0,0)" x1="450.07565" x2="465.70065" y1="75.0" y2="75.0" /><line stroke="rgb(0,0,0)" x1="465.70065" x2="481.32565" y1="75.0" y2="75.0" /><line stroke="rgb(0,0,0)" x1="481.32565" x2="491.32565" y1="75.0" y2="75.0" /><line stroke="rgb(0,0,0)" x1="491.32565" x2="506.32565" y1="75.0" y2="75.0" /><line stroke="rgb(0,0,0)" x1="506.32565" x2="521.32565" y1="75.0" y2="75.0" /><line stroke="rgb(0,0,0)" x1="521.32565" x2="531.32565" y1="75.0" y2="75.0" /><line stroke="rgb(0,0,0)" x1="531.32565" x2="558.32565" y1="75.0" y2="75.0" /><line stroke="rgb(0,0,0)" x1="558.32565" x2="585.32565" y1="75.0" y2="75.0" /><line stroke="rgb(0,0,0)" x1="585.32565" x2="595.32565" y1="75.0" y2="75.0" /><line stroke="rgb(0,0,0)" x1="595.32565" x2="620.20065" y1="75.0" y2="75.0" /><line stroke="rgb(0,0,0)" x1="620.20065" x2="645.07565" y1="75.0" y2="75.0" /><line stroke="rgb(0,0,0)" x1="645.07565" x2="655.07565" y1="75.0" y2="75.0" /><line stroke="rgb(0,0,0)" x1="655.07565" x2="684.82565" y1="75.0" y2="75.0" /><line stroke="rgb(0,0,0)" x1="684.82565" x2="714.57565" y1="75.0" y2="75.0" /><line stroke="rgb(0,0,0)" x1="714.57565" x2="724.57565" y1="75.0" y2="75.0" /><line stroke="rgb(0,0,0)" x1="724.57565" x2="749.444075" y1="75.0" y2="75.0" /><line stroke="rgb(0,0,0)" x1="749.444075" x2="774.3125" y1="75.0" y2="75.0" /><line stroke="rgb(0,0,0)" x1="774.3125" x2="784.3125" y1="75.0" y2="75.0" /><line stroke="rgb(0,0,0)" x1="784.3125" x2="811.8125" y1="75.0" y2="75.0" /><rect fill="rgb(255,2,3)" height="80.0" stroke="rgb(0,0,0)" width="17.8125" x="5.0" y="35.0" /><text fill="black" x="5.0" y="135.0">H0</text><rect fill="rgb(255,14,18)" height="100.0" stroke="rgb(0,0,0)" width="41.5" x="42.8125" y="25.0" /><text fill="black" x="42.8125" y="145.0">E1</text><rect fill="rgb(254,5,6)" height="100.0" stroke="rgb(0,0,0)" width="40.0" x="104.3125" y="25.0" /><text fill="black" x="104.3125" y="145.0">H2</text><rect fill="rgb(255,133,170)" height="100.0" stroke="rgb(0,0,0)" width="45.25" x="164.3125" y="25.0" /><text fill="black" x="164.3125" y="145.0">H3</text><rect fill="rgb(0,0,255)" height="5.0" stroke="rgb(0,0,0)" width="45.0" x="229.5625" y="72.5" /><text fill="black" x="229.5625" y="97.5">E4</text><rect fill="rgb(255,30,38)" height="95.0" stroke="rgb(0,0,0)" width="35.263149999999996" x="294.5625" y="27.5" /><text fill="black" x="294.5625" y="142.5">E5</text><rect fill="rgb(255,31,40)" height="100.0" stroke="rgb(0,0,0)" width="34.5" x="349.82565" y="25.0" /><text fill="black" x="349.82565" y="145.0">E6</text><rect fill="rgb(255,26,33)" height="100.0" stroke="rgb(0,0,0)" width="30.75" x="404.32565" y="25.0" /><text fill="black" x="404.32565" y="145.0">E7</text><rect fill="rgb(109,86,255)" height="100.0" stroke="rgb(0,0,0)" width="21.25" x="455.07565" y="25.0" /><text fill="black" x="455.07565" y="145.0">E8</text><rect fill="rgb(0,0,255)" height="5.0" stroke="rgb(0,0,0)" width="20.0" x="496.32565" y="72.5" /><text fill="black" x="496.32565" y="97.5">E9</text><rect fill="rgb(97,76,255)" height="100.0" stroke="rgb(0,0,0)" width="44.0" x="536.32565" y="25.0" /><text fill="black" x="536.32565" y="145.0">E10</text><rect fill="rgb(25,19,255)" height="100.0" stroke="rgb(0,0,0)" width="39.75" x="600.32565" y="25.0" /><text fill="black" x="600.32565" y="145.0">E11</text><rect fill="rgb(38,30,255)" height="100.0" stroke="rgb(0,0,0)" width="49.5" x="660.07565" y="25.0" /><text fill="black" x="660.07565" y="145.0">E12</text><rect fill="rgb(8,6,255)" height="95.0" stroke="rgb(0,0,0)" width="39.736850000000004" x="729.57565" y="27.5" /><text fill="black" x="729.57565" y="142.5">E13</text><rect fill="rgb(19,15,255)" height="95.0" stroke="rgb(0,0,0)" width="45.0" x="789.3125" y="27.5" /><text fill="black" x="789.3125" y="142.5">E14</text><path d="M 252.0625,75.0 a 167.2152182888219,167.2152182888219 0 0,0 -188.5,-0.0" stroke="rgb(255,14,18)" stroke-width="2" /><path d="M 252.0625,75.0 a 167.2152182888219,167.2152182888219 0 0,0 -188.5,-0.0" stroke="rgb(0,0,0)" stroke-width="0.2" /><path d="M 312.194075,75.0 a 251.76552454376517,251.76552454376517 0 0,0 -248.631575,-0.0" stroke="rgb(255,14,18)" stroke-width="2" /><path d="M 312.194075,75.0 a 251.76552454376517,251.76552454376517 0 0,0 -248.631575,-0.0" stroke="rgb(0,0,0)" stroke-width="0.2" /><path d="M 811.8125,75.0 a 1580.3728472089674,1580.3728472089674 0 0,0 -748.25,-0.0" stroke="rgb(255,14,18)" stroke-width="2" /><path d="M 811.8125,75.0 a 1580.3728472089674,1580.3728472089674 0 0,0 -748.25,-0.0" stroke="rgb(0,0,0)" stroke-width="0.2" /><path d="M 367.07565,75.0 a 34.55874162848347,34.55874162848347 0 0,0 -54.881575,-0.0" stroke="rgb(255,30,38)" stroke-width="2" /><path d="M 367.07565,75.0 a 34.55874162848347,34.55874162848347 0 0,0 -54.881575,-0.0" stroke="rgb(0,0,0)" stroke-width="0.2" /><path d="M 419.70065,75.0 a 32.934386809808395,32.934386809808395 0 0,0 -52.625,-0.0" stroke="rgb(255,31,40)" stroke-width="2" /><path d="M 419.70065,75.0 a 32.934386809808395,32.934386809808395 0 0,0 -52.625,-0.0" stroke="rgb(0,0,0)" stroke-width="0.2" /><path d="M 506.32565,75.0 a 24.60809079228814,24.60809079228814 0 0,0 -40.625,-0.0" stroke="rgb(109,86,255)" stroke-width="2" /><path d="M 506.32565,75.0 a 24.60809079228814,24.60809079228814 0 0,0 -40.625,-0.0" stroke="rgb(0,0,0)" stroke-width="0.2" /><path d="M 558.32565,75.0 a 64.6141190722828,64.6141190722828 0 0,0 -92.625,-0.0" stroke="rgb(109,86,255)" stroke-width="2" /><path d="M 558.32565,75.0 a 64.6141190722828,64.6141190722828 0 0,0 -92.625,-0.0" stroke="rgb(0,0,0)" stroke-width="0.2" /><path d="M 620.20065,75.0 a 39.71338689239417,39.71338689239417 0 0,0 -61.875,-0.0" stroke="rgb(97,76,255)" stroke-width="2" /><path d="M 620.20065,75.0 a 39.71338689239417,39.71338689239417 0 0,0 -61.875,-0.0" stroke="rgb(0,0,0)" stroke-width="0.2" /><path d="M 684.82565,75.0 a 41.790829746810985,41.790829746810985 0 0,0 -64.625,-0.0" stroke="rgb(25,19,255)" stroke-width="2" /><path d="M 684.82565,75.0 a 41.790829746810985,41.790829746810985 0 0,0 -64.625,-0.0" stroke="rgb(0,0,0)" stroke-width="0.2" /><path d="M 749.444075,75.0 a 41.78582848019565,41.78582848019565 0 0,0 -64.618425,-0.0" stroke="rgb(38,30,255)" stroke-width="2" /><path d="M 749.444075,75.0 a 41.78582848019565,41.78582848019565 0 0,0 -64.618425,-0.0" stroke="rgb(0,0,0)" stroke-width="0.2" /><path d="M 811.8125,75.0 a 40.084024215041815,40.084024215041815 0 0,0 -62.368425,-0.0" stroke="rgb(8,6,255)" stroke-width="2" /><path d="M 811.8125,75.0 a 40.084024215041815,40.084024215041815 0 0,0 -62.368425,-0.0" stroke="rgb(0,0,0)" stroke-width="0.2" /></svg>