<?xml version="1.0" encoding="utf-8" ?>
<svg baseProfile="full" height="100%" style="font-size:14;font-family:Sans, Arial;stroke-width:1;fill:none" version="1.1" width="100%" xmlns="http://www.w3.org/2000/svg" xmlns:ev="http://www.w3.org/2001/xml-events" xmlns:xlink="http://www.w3.org/1999/xlink"><defs /><rect fill="none" height="150.0" stroke="none" width="734.3125" x="0" y="0" /><line stroke="rgb(0,0,0)" x1="13.90625" x2="27.8125" y1="75.0" y2="75.0" /><line stroke="rgb(0,0,0)" x1="27.8125" x2="37.8125" y1="75.0" y2="75.0" /><line stroke="rgb(0,0,0)" x1="37.8125" x2="63.5625" y1="75.0" y2="75.0" /><line stroke="rgb(0,0,0)" x1="63.5625" x2="89.3125" y1="75.0" y2="75.0" /><line stroke="rgb(0,0,0)" x1="89.3125" x2="99.3125" y1="75.0" y2="75.0" /><line stroke="rgb(0,0,0)" x1="99.3125" x2="124.3125" y1="75.0" y2="75.0" /><line stroke="rgb(0,0,0)" x1="124.3125" x2="149.3125" y1="75.0" y2="75.0" /><line stroke="rgb(0,0,0)" x1="149.3125" x2="159.3125" y1="75.0" y2="75.0" /><line stroke="rgb(0,0,0)" x1="159.3125" x2="186.9375" y1="75.0" y2="75.0" /><line stroke="rgb(0,0,0)" x1="186.9375" x2="214.5625" y1="75.0" y2="75.0" /><line stroke="rgb(0,0,0)" x1="214.5625" x2="224.5625" y1="75.0" y2="75.0" /><line stroke="rgb(0,0,0)" x1="224.5625" x2="247.194075" y1="75.0" y2="75.0" /><line stroke="rgb(0,0,0)" x1="247.194075" x2="269.82565" y1="75.0" y2="75.0" /><line stroke="rgb(0,0,0)" x1="269.82565" x2="279.82565" y1="75.0" y2="75.0" /><line stroke="rgb(0,0,0)" x1="279.82565" x2="302.07565" y1="75.0" y2="75.0" /><line stroke="rgb(0,0,0)" x1="302.07565" x2="324.32565" y1="75.0" y2="75.0" /><line stroke="rgb(0,0,0)" x1="324.32565" x2="334.32565" y1="75.0" y2="75.0" /><line stroke="rgb(0,0,0)" x1="334.32565" x2="354.70065" y1="75.0" y2="75.0" /><line stroke="rgb(0,0,0)" x1="354.70065" x2="375.07565" y1="75.0" y2="75.0" /><line stroke="rgb(0,0,0)" x1="375.07565" x2="385.07565" y1="75.0" y2="75.0" /><line stroke="rgb(0,0,0)" x1="385.07565" x2="400.70065" y1="75.0" y2="75.0" /><line stroke="rgb(0,0,0)" x1="400.70065" x2="416.32565" y1="75.0" y2="75.0" /><line stroke="rgb(0,0,0)" x1="416.32565" x2="426.32565" y1="75.0" y2="75.0" /><line stroke="rgb(0,0,0)" x1="426.32565" x2="453.32565" y1="75.0" y2="75.0" /><line stroke="rgb(0,0,0)" x1="453.32565" x2="480.32565" y1="75.0" y2="75.0" /><line stroke="rgb(0,0,0)" x1="480.32565" x2="490.32565" y1="75.0" y2="75.0" /><line stroke="rgb(0,0,0)" x1="490.32565" x2="515.20065" y1="75.0" y2="75.0" /><line stroke="rgb(0,0,0)" x1="515.20065" x2="540.07565" y1="75.0" y2="75.0" /><line stroke="rgb(0,0,0)" x1="540.07565" x2="550.07565" y1="75.0" y2="75.0" /><line stroke="rgb(0,0,0)" x1="550.07565" x2="579.82565" y1="75.0" y2="75.0" /><line stroke="rgb(0,0,0)" x1="579.82565" x2="609.57565" y1="75.0" y2="75.0" /><line stroke="rgb(0,0,0)" x1="609.57565" x2="619.57565" y1="75.0" y2="75.0" /><line stroke="rgb(0,0,0)" x1="619.57565" x2="644.444075" y1="75.0" y2="75.0" /><line stroke="rgb(0,0,0)" x1="644.444075" x2="669.3125" y1="75.0" y2="75.0" /><line stroke="rgb(0,0,0)" x1="669.3125" x2="679.3125" y1="75.0" y2="75.0" /><line stroke="rgb(0,0,0)" x1="679.3125" x2="706.8125" y1="75.0" y2="75.0" /><rect fill="rgb(255,2,3)" height="80.0" stroke="rgb(0,0,0)" width="17.8125" x="5.0" y="35.0" /><text fill="black" x="5.0" y="135.0">H0</text><rect fill="rgb(255,14,18)" height="100.0" stroke="rgb(0,0,0)" width="41.5" x="42.8125" y="25.0" /><text fill="black" x="42.8125" y="145.0">E1</text><rect fill="rgb(254,5,6)" height="100.0" stroke="rgb(0,0,0)" width="40.0" x="104.3125" y="25.0" /><text fill="black" x="104.3125" y="145.0">H2</text><rect fill="rgb(255,133,170)" height="100.0" stroke="rgb(0,0,0)" width="45.25" x="164.3125" y="25.0" /><text fill="black" x="164.3125" y="145.0">H3</text><rect fill="rgb(255,30,38)" height="95.0" stroke="rgb(0,0,0)" width="35.263149999999996" x="229.5625" y="27.5" /><text fill="black" x="229.5625" y="142.5">E5</text><rect fill="rgb(255,31,40)" height="100.0" stroke="rgb(0,0,0)" width="34.5" x="284.82565" y="25.0" /><text fill="black" x="284.82565" y="145.0">E6</text><rect fill="rgb(255,26,33)" height="100.0" stroke="rgb(0,0,0)" width="30.75" x="339.32565" y="25.0" /><text fill="black" x="339.32565" y="145.0">E7</text><rect fill="rgb(109,86,255)" height="100.0" stroke="rgb(0,0,0)" width="21.25" x="390.07565" y="25.0" /><text fill="black" x="390.07565" y="145.0">E8</text><rect fill="rgb(97,76,255)" height="100.0" stroke="rgb(0,0,0)" width="44.0" x="431.32565" y="25.0" /><text fill="black" x="431.32565" y="145.0">E10</text><rect fill="rgb(25,19,255)" height="100.0" stroke="rgb(0,0,0)" width="39.75" x="495.32565" y="25.0" /><text fill="black" x="495.32565" y="145.0">E11</text><rect fill="rgb(38,30,255)" height="100.0" stroke="rgb(0,0,0)" width="49.5" x="555.07565" y="25.0" /><text fill="black" x="555.07565" y="145.0">E12</text><rect fill="rgb(8,6,255)" height="95.0" stroke="rgb(0,0,0)" width="39.736850000000004" x="624.57565" y="27.5" /><text fill="black" x="624.57565" y="142.5">E13</text><rect fill="rgb(19,15,255)" height="95.0" stroke="rgb(0,0,0)" width="45.0" x="684.3125" y="27.5" /><text fill="black" x="684.3125" y="142.5">E14</text><path d="M 247.194075,75.0 a 153.20963517616582,153.20963517616582 0 0,0 -183.631575,-0.0" stroke="rgb(255,14,18)" stroke-width="2" /><path d="M 247.194075,75.0 a 153.20963517616582,153.20963517616582 0 0,0 -183.631575,-0.0" stroke="rgb(0,0,0)" stroke-width="0.2" /><path d="M 706.8125,75.0 a 1177.4790293920537,1177.4790293920537 0 0,0 -643.25,-0.0" stroke="rgb(255,14,18)" stroke-width="2" /><path d="M 706.8125,75.0 a 1177.4790293920537,1177.4790293920537 0 0,0 -643.25,-0.0" stroke="rgb(0,0,0)" stroke-width="0.2" /><path d="M 302.07565,75.0 a 32.64469003061381,32.64469003061381 0 0,0 -54.881575,-0.0" stroke="rgb(255,30,38)" stroke-width="2" /><path d="M 302.07565,75.0 a 32.64469003061381,32.64469003061381 0 0,0 -54.881575,-0.0" stroke="rgb(0,0,0)" stroke-width="0.2" /><path d="M 354.70065,75.0 a 31.113685606698485,31.113685606698485 0 0,0 -52.625,-0.0" stroke="rgb(255,31,40)" stroke-width="2" /><path d="M 354.70065,75.0 a 31.113685606698485,31.113685606698485 0 0,0 -52.625,-0.0" stroke="rgb(0,0,0)" stroke-width="0.2" /><path d="M 453.32565,75.0 a 31.113685606698485,31.113685606698485 0 0,0 -52.625,-0.0" stroke="rgb(109,86,255)" stroke-width="2" /><path d="M 453.32565,75.0 a 31.113685606698485,31.113685606698485 0 0,0 -52.625,-0.0" stroke="rgb(0,0,0)" stroke-width="0.2" /><path d="M 515.20065,75.0 a 37.505396667184414,37.505396667184414 0 0,0 -61.875,-0.0" stroke="rgb(97,76,255)" stroke-width="2" /><path d="M 515.20065,75.0 a 37.505396667184414,37.505396667184414 0 0,0 -61.875,-0.0" stroke="rgb(0,0,0)" stroke-width="0.2" /><path d="M 579.82565,75.0 a 39.465500987702434,39.465500987702434 0 0,0 -64.625,-0.0" stroke="rgb(25,19,255)" stroke-width="2" /><path d="M 579.82565,75.0 a 39.465500987702434,39.465500987702434 0 0,0 -64.625,-0.0" stroke="rgb(0,0,0)" stroke-width="0.2" /><path d="M 644.444075,75.0 a 39.46078136422479,39.46078136422479 0 0,0 -64.618425,-0.0" stroke="rgb(38,30,255)" stroke-width="2" /><path d="M 644.444075,75.0 a 39.46078136422479,39.46078136422479 0 0,0 -64.618425,-0.0" stroke="rgb(0,0,0)" stroke-width="0.2" /><path d="M 706.8125,75.0 a 37.85504912962075,37.85504912962075 0 0,0 -62.368425,-0.0" stroke="rgb(8,6,255)" stroke-width="2" /><path d="M 706.8125,75.0 a 37.85504912962075,37.85504912962075 0 0,0 -62.368425,-0.0" stroke="rgb(0,0,0)" stroke-width="0.2" /></svg>