<?xml version="1.0" encoding="utf-8" ?>
<svg baseProfile="full" height="100%" style="font-size:14;font-family:Sans, Arial;stroke-width:1;fill:none" version="1.1" width="100%" xmlns="http://www.w3.org/2000/svg" xmlns:ev="http://www.w3.org/2001/xml-events" xmlns:xlink="http://www.w3.org/1999/xlink"><defs /><rect fill="none" height="150.0" stroke="none" width="839.3125" x="0" y="0" /><line stroke="rgb(0,0,0)" x1="13.90625" x2="27.8125" y1="75.0" y2="75.0" /><line stroke="rgb(0,0,0)" x1="27.8125" x2="37.8125" y1="75.0" y2="75.0" /><line stroke="rgb(0,0,0)" x1="37.8125" x2="63.5625" y1="75.0" y2="75.0" /><line stroke="rgb(0,0,0)" x1="63.5625" x2="89.3125" y1="75.0" y2="75.0" /><line stroke="rgb(0,0,0)" x1="89.3125" x2="99.3125" y1="75.0" y2="75.0" /><line stroke="rgb(0,0,0)" x1="99.3125" x2="124.3125" y1="75.0" y2="75.0" /><line stroke="rgb(0,0,0)" x1="124.3125" x2="149.3125" y1="75.0" y2="75.0" /><line stroke="rgb(0,0,0)" x1="149.3125" x2="159.3125" y1="75.0" y2="75.0" /><line stroke="rgb(0,0,0)" x1="159.3125" x2="186.9375" y1="75.0" y2="75.0" /><line stroke="rgb(0,0,0)" x1="186.9375" x2="214.5625" y1="75.0" y2="75.0" /><line stroke="rgb(0,0,0)" x1="214.5625" x2="224.5625" y1="75.0" y2="75.0" /><line stroke="rgb(0,0,0)" x1="224.5625" x2="252.0625" y1="75.0" y2="75.0" /><line stroke="rgb(0,0,0)" x1="252.0625" x2="279.5625" y1="75.0" y2="75.0" /><line stroke="rgb(0,0,0)" x1="279.5625" x2="289.5625" y1="75.0" y2="75.0" /><line stroke="rgb(0,0,0)" x1="289.5625" x2="312.194075" y1="75.0" y2="75.0" /><line stroke="rgb(0,0,0)" x1="312.194075" x2="334.82565" y1="75.0" y2="75.0" /><line stroke="rgb(0,0,0)" x1="334.82565" x2="344.82565" y1="75.0" y2="75.0" /><line stroke="rgb(0,0,0)" x1="344.82565" x2="367.07565" y1="75.0" y2="75.0" /><line stroke="rgb(0,0,0)" x1="367.07565" x2="389.32565" y1="75.0" y2="75.0" /><line stroke="rgb(0,0,0)" x1="389.32565" x2="399.32565" y1="75.0" y2="75.0" /><line stroke="rgb(0,0,0)" x1="399.32565" x2="419.70065" y1="75.0" y2="75.0" /><line stroke="rgb(0,0,0)" x1="419.70065" x2="440.07565" y1="75.0" y2="75.0" /><line stroke="rgb(0,0,0)" x1="440.07565" x2="450.07565" y1="75.0" y2="75.0" /><line stroke="rgb(0,0,0)" x1="450.07565" x2="465.70065" y1="75.0" y2="75.0" /><line stroke="rgb(0,0,0)" x1="465.70065" x2="481.32565" y1="75.0" y2="75.0" /><line stroke="rgb(0,0,0)" x1="481.32565" x2="491.32565" y1="75.0" y2="75.0" /><line stroke="rgb(0,0,0)" x1="491.32565" x2="506.32565" y1="75.0" y2="75.0" /><line stroke="rgb(0,0,0)" x1="506.32565" x2="521.32565" y1="75.0" y2="75.0" /><line stroke="rgb(0,0,0)" x1="521.32565" x2="531.32565" y1="75.0" y2="75.0" /><line stroke="rgb(0,0,0)" x1="531.32565" x2="558.32565" y1="75.0" y2="75.0" /><line stroke="rgb(0,0,0)" x1="558.32565" x2="585.32565" y1="75.0" y2="75.0" /><line stroke="rgb(0,0,0)" x1="585.32565" x2="595.32565" y1="75.0" y2="75.0" /><line stroke="rgb(0,0,0)" x1="595.32565" x2="620.20065" y1="75.0" y2="75.0" /><line stroke="rgb(0,0,0)" x1="620.20065" x2="645.07565" y1="75.0" y2="75.0" /><line stroke="rgb(0,0,0)" x1="645.07565" x2="655.07565" y1="75.0" y2="75.0" /><line stroke="rgb(0,0,0)" x1="655.07565" x2="684.82565" y1="75.0" y2="75.0" /><line stroke="rgb(0,0,0)" x1="684.82565" x2="714.57565" y1="75.0" y2="75.0" /><line stroke="rgb(0,0,0)" x1="714.57565" x2="724.57565" y1="75.0" y2="75.0" /><line stroke="rgb(0,0,0)" x1="724.57565" x2="749.444075" y1="75.0" y2="75.0" /><line stroke="rgb(0,0,0)" x1="749.444075" x2="774.3125" y1="75.0" y2="75.0" /><line stroke="rgb(0,0,0)" x1="774.3125" x2="784.3125" y1="75.0" y2="75.0" /><line stroke="rgb(0,0,0)" x1="784.3125" x2="811.8125" y1="75.0" y2="75.0" /><rect fill="rgb(150,150,150)" height="80.0" stroke="rgb(0,0,0)" width="17.8125" x="5.0" y="35.0" /><text fill="black" x="5.0" y="135.0">H0</text><rect fill="rgb(255,150,150)" height="100.0" stroke="rgb(0,0,0)" width="41.5" x="42.8125" y="25.0" /><text fill="black" x="42.8125" y="145.0">E1</text><rect fill="rgb(150,150,150)" height="100.0" stroke="rgb(0,0,0)" width="40.0" x="104.3125" y="25.0" /><text fill="black" x="104.3125" y="145.0">H2</text><rect fill="rgb(150,150,150)" height="100.0" stroke="rgb(0,0,0)" width="45.25" x="164.3125" y="25.0" /><text fill="black" x="164.3125" y="145.0">H3</text><rect fill="rgb(255,150,150)" height="5.0" stroke="rgb(0,0,0)" width="45.0" x="229.5625" y="72.5" /><text fill="black" x="229.5625" y="97.5">E4</text><rect fill="rgb(255,150,150)" height="95.0" stroke="rgb(0,0,0)" width="35.263149999999996" x="294.5625" y="27.5" /><text fill="black" x="294.5625" y="142.5">E5</text><rect fill="rgb(255,150,150)" height="100.0" stroke="rgb(0,0,0)" width="34.5" x="349.82565" y="25.0" /><text fill="black" x="349.82565" y="145.0">E6</text><rect fill="rgb(255,150,150)" height="100.0" stroke="rgb(0,0,0)" width="30.75" x="404.32565" y="25.0" /><text fill="black" x="404.32565" y="145.0">E7</text><rect fill="rgb(255,150,150)" height="100.0" stroke="rgb(0,0,0)" width="21.25" x="455.07565" y="25.0" /><text fill="black" x="455.07565" y="145.0">E8</text><rect fill="rgb(255,150,150)" height="5.0" stroke="rgb(0,0,0)" width="20.0" x="496.32565" y="72.5" /><text fill="black" x="496.32565" y="97.5">E9</text><rect fill="rgb(255,150,150)" height="100.0" stroke="rgb(0,0,0)" width="44.0" x="536.32565" y="25.0" /><text fill="black" x="536.32565" y="145.0">E10</text><rect fill="rgb(255,150,150)" height="100.0" stroke="rgb(0,0,0)" width="39.75" x="600.32565" y="25.0" /><text fill="black" x="600.32565" y="145.0">E11</text><rect fill="rgb(255,150,150)" height="100.0" stroke="rgb(0,0,0)" width="49.5" x="660.07565" y="25.0" /><text fill="black" x="660.07565" y="145.0">E12</text><rect fill="rgb(255,150,150)" height="95.0" stroke="rgb(0,0,0)" width="39.736850000000004" x="729.57565" y="27.5" /><text fill="black" x="729.57565" y="142.5">E13</text><rect fill="rgb(255,150,150)" height="95.0" stroke="rgb(0,0,0)" width="45.0" x="789.3125" y="27.5" /><text fill="black" x="789.3125" y="142.5">E14</text></svg>