<?xml version="1.0" encoding="utf-8" ?>
<svg baseProfile="full" height="100%" style="font-size:14;font-family:Sans, Arial;stroke-width:1;fill:none" version="1.1" width="100%" xmlns="http://www.w3.org/2000/svg" xmlns:ev="http://www.w3.org/2001/xml-events" xmlns:xlink="http://www.w3.org/1999/xlink"><defs /><rect fill="none" height="150.0" stroke="none" width="915.0" x="0" y="0" /><line stroke="rgb(0,0,0)" x1="17.5" x2="35.0" y1="75.0" y2="75.0" /><line stroke="rgb(0,0,0)" x1="35.0" x2="45.0" y1="75.0" y2="75.0" /><line stroke="rgb(0,0,0)" x1="45.0" x2="72.5" y1="75.0" y2="75.0" /><line stroke="rgb(0,0,0)" x1="72.5" x2="100.0" y1="75.0" y2="75.0" /><line stroke="rgb(0,0,0)" x1="100.0" x2="110.0" y1="75.0" y2="75.0" /><line stroke="rgb(0,0,0)" x1="110.0" x2="135.0" y1="75.0" y2="75.0" /><line stroke="rgb(0,0,0)" x1="135.0" x2="160.0" y1="75.0" y2="75.0" /><line stroke="rgb(0,0,0)" x1="160.0" x2="170.0" y1="75.0" y2="75.0" /><line stroke="rgb(0,0,0)" x1="170.0" x2="200.0" y1="75.0" y2="75.0" /><line stroke="rgb(0,0,0)" x1="200.0" x2="230.0" y1="75.0" y2="75.0" /><line stroke="rgb(0,0,0)" x1="230.0" x2="240.0" y1="75.0" y2="75.0" /><line stroke="rgb(0,0,0)" x1="240.0" x2="267.5" y1="75.0" y2="75.0" /><line stroke="rgb(0,0,0)" x1="267.5" x2="295.0" y1="75.0" y2="75.0" /><line stroke="rgb(0,0,0)" x1="295.0" x2="305.0" y1="75.0" y2="75.0" /><line stroke="rgb(0,0,0)" x1="305.0" x2="332.5" y1="75.0" y2="75.0" /><line stroke="rgb(0,0,0)" x1="332.5" x2="360.0" y1="75.0" y2="75.0" /><line stroke="rgb(0,0,0)" x1="360.0" x2="370.0" y1="75.0" y2="75.0" /><line stroke="rgb(0,0,0)" x1="370.0" x2="395.0" y1="75.0" y2="75.0" /><line stroke="rgb(0,0,0)" x1="395.0" x2="420.0" y1="75.0" y2="75.0" /><line stroke="rgb(0,0,0)" x1="420.0" x2="430.0" y1="75.0" y2="75.0" /><line stroke="rgb(0,0,0)" x1="430.0" x2="457.5" y1="75.0" y2="75.0" /><line stroke="rgb(0,0,0)" x1="457.5" x2="485.0" y1="75.0" y2="75.0" /><line stroke="rgb(0,0,0)" x1="485.0" x2="495.0" y1="75.0" y2="75.0" /><line stroke="rgb(0,0,0)" x1="495.0" x2="520.0" y1="75.0" y2="75.0" /><line stroke="rgb(0,0,0)" x1="520.0" x2="545.0" y1="75.0" y2="75.0" /><line stroke="rgb(0,0,0)" x1="545.0" x2="555.0" y1="75.0" y2="75.0" /><line stroke="rgb(0,0,0)" x1="555.0" x2="570.0" y1="75.0" y2="75.0" /><line stroke="rgb(0,0,0)" x1="570.0" x2="585.0" y1="75.0" y2="75.0" /><line stroke="rgb(0,0,0)" x1="585.0" x2="595.0" y1="75.0" y2="75.0" /><line stroke="rgb(0,0,0)" x1="595.0" x2="625.0" y1="75.0" y2="75.0" /><line stroke="rgb(0,0,0)" x1="625.0" x2="655.0" y1="75.0" y2="75.0" /><line stroke="rgb(0,0,0)" x1="655.0" x2="665.0" y1="75.0" y2="75.0" /><line stroke="rgb(0,0,0)" x1="665.0" x2="690.0" y1="75.0" y2="75.0" /><line stroke="rgb(0,0,0)" x1="690.0" x2="715.0" y1="75.0" y2="75.0" /><line stroke="rgb(0,0,0)" x1="715.0" x2="725.0" y1="75.0" y2="75.0" /><line stroke="rgb(0,0,0)" x1="725.0" x2="755.0" y1="75.0" y2="75.0" /><line stroke="rgb(0,0,0)" x1="755.0" x2="785.0" y1="75.0" y2="75.0" /><line stroke="rgb(0,0,0)" x1="785.0" x2="795.0" y1="75.0" y2="75.0" /><line stroke="rgb(0,0,0)" x1="795.0" x2="820.0" y1="75.0" y2="75.0" /><line stroke="rgb(0,0,0)" x1="820.0" x2="845.0" y1="75.0" y2="75.0" /><line stroke="rgb(0,0,0)" x1="845.0" x2="855.0" y1="75.0" y2="75.0" /><line stroke="rgb(0,0,0)" x1="855.0" x2="885.0" y1="75.0" y2="75.0" /><polygon fill="rgb(150,150,150)" points="30.0,75.0 30.0,72.5 27.5,72.5 27.5,55.0 25.0,55.0 25.0,35.0 17.5,35.0 17.5,35.0 10.0,35.0 10.0,55.0 7.5,55.0 7.5,72.5 5.0,72.5 5.0,75.0 5.0,75.0 5.0,77.5 7.5,77.5 7.5,95.0 10.0,95.0 10.0,115.0 17.5,115.0 17.5,115.0 25.0,115.0 25.0,95.0 27.5,95.0 27.5,77.5 30.0,77.5 30.0,75.0" stroke="rgb(0,0,0)" /><text fill="black" x="5.0" y="135.0">H0</text><polygon fill="rgb(255,150,150)" points="95.0,75.0 95.0,35.0 90.0,35.0 90.0,30.0 82.5,30.0 82.5,25.0 72.5,25.0 72.5,25.0 62.5,25.0 62.5,30.0 55.0,30.0 55.0,35.0 50.0,35.0 50.0,75.0 50.0,75.0 50.0,115.0 55.0,115.0 55.0,120.0 62.5,120.0 62.5,125.0 72.5,125.0 72.5,125.0 82.5,125.0 82.5,120.0 90.0,120.0 90.0,115.0 95.0,115.0 95.0,75.0" stroke="rgb(0,0,0)" /><text fill="black" x="50.0" y="145.0">E1</text><polygon fill="rgb(150,150,150)" points="155.0,75.0 155.0,25.0 135.0,25.0 135.0,25.0 115.0,25.0 115.0,75.0 115.0,75.0 115.0,125.0 135.0,125.0 135.0,125.0 155.0,125.0 155.0,75.0" stroke="rgb(0,0,0)" /><text fill="black" x="115.0" y="145.0">H2</text><polygon fill="rgb(150,150,150)" points="225.0,75.0 225.0,72.5 222.5,72.5 222.5,25.0 200.0,25.0 200.0,25.0 177.5,25.0 177.5,72.5 175.0,72.5 175.0,75.0 175.0,75.0 175.0,77.5 177.5,77.5 177.5,125.0 200.0,125.0 200.0,125.0 222.5,125.0 222.5,77.5 225.0,77.5 225.0,75.0" stroke="rgb(0,0,0)" /><text fill="black" x="175.0" y="145.0">H3</text><polygon fill="rgb(255,150,150)" points="290.0,75.0 290.0,72.5 267.5,72.5 267.5,72.5 245.0,72.5 245.0,75.0 245.0,75.0 245.0,77.5 267.5,77.5 267.5,77.5 290.0,77.5 290.0,75.0" stroke="rgb(0,0,0)" /><text fill="black" x="245.0" y="97.5">E4</text><polygon fill="rgb(255,150,150)" points="355.0,75.0 355.0,72.5 350.0,72.5 350.0,30.0 347.5,30.0 347.5,27.5 332.5,27.5 332.5,27.5 317.5,27.5 317.5,30.0 315.0,30.0 315.0,72.5 310.0,72.5 310.0,75.0 310.0,75.0 310.0,77.5 315.0,77.5 315.0,120.0 317.5,120.0 317.5,122.5 332.5,122.5 332.5,122.5 347.5,122.5 347.5,120.0 350.0,120.0 350.0,77.5 355.0,77.5 355.0,75.0" stroke="rgb(0,0,0)" /><text fill="black" x="310.0" y="142.5">E5</text><polygon fill="rgb(255,150,150)" points="415.0,75.0 415.0,72.5 412.5,72.5 412.5,27.5 405.0,27.5 405.0,25.0 395.0,25.0 395.0,25.0 385.0,25.0 385.0,27.5 377.5,27.5 377.5,72.5 375.0,72.5 375.0,75.0 375.0,75.0 375.0,77.5 377.5,77.5 377.5,122.5 385.0,122.5 385.0,125.0 395.0,125.0 395.0,125.0 405.0,125.0 405.0,122.5 412.5,122.5 412.5,77.5 415.0,77.5 415.0,75.0" stroke="rgb(0,0,0)" /><text fill="black" x="375.0" y="145.0">E6</text><polygon fill="rgb(255,150,150)" points="480.0,75.0 480.0,72.5 475.0,72.5 475.0,55.0 472.5,55.0 472.5,42.5 470.0,42.5 470.0,25.0 457.5,25.0 457.5,25.0 445.0,25.0 445.0,42.5 442.5,42.5 442.5,55.0 440.0,55.0 440.0,72.5 435.0,72.5 435.0,75.0 435.0,75.0 435.0,77.5 440.0,77.5 440.0,95.0 442.5,95.0 442.5,107.5 445.0,107.5 445.0,125.0 457.5,125.0 457.5,125.0 470.0,125.0 470.0,107.5 472.5,107.5 472.5,95.0 475.0,95.0 475.0,77.5 480.0,77.5 480.0,75.0" stroke="rgb(0,0,0)" /><text fill="black" x="435.0" y="145.0">E7</text><polygon fill="rgb(255,150,150)" points="540.0,75.0 540.0,72.5 532.5,72.5 532.5,70.0 530.0,70.0 530.0,25.0 520.0,25.0 520.0,25.0 510.0,25.0 510.0,70.0 507.5,70.0 507.5,72.5 500.0,72.5 500.0,75.0 500.0,75.0 500.0,77.5 507.5,77.5 507.5,80.0 510.0,80.0 510.0,125.0 520.0,125.0 520.0,125.0 530.0,125.0 530.0,80.0 532.5,80.0 532.5,77.5 540.0,77.5 540.0,75.0" stroke="rgb(0,0,0)" /><text fill="black" x="500.0" y="145.0">E8</text><polygon fill="rgb(255,150,150)" points="580.0,75.0 580.0,72.5 570.0,72.5 570.0,72.5 560.0,72.5 560.0,75.0 560.0,75.0 560.0,77.5 570.0,77.5 570.0,77.5 580.0,77.5 580.0,75.0" stroke="rgb(0,0,0)" /><text fill="black" x="560.0" y="97.5">E9</text><polygon fill="rgb(255,150,150)" points="650.0,75.0 650.0,72.5 647.5,72.5 647.5,30.0 645.0,30.0 645.0,27.5 637.5,27.5 637.5,25.0 625.0,25.0 625.0,25.0 612.5,25.0 612.5,27.5 605.0,27.5 605.0,30.0 602.5,30.0 602.5,72.5 600.0,72.5 600.0,75.0 600.0,75.0 600.0,77.5 602.5,77.5 602.5,120.0 605.0,120.0 605.0,122.5 612.5,122.5 612.5,125.0 625.0,125.0 625.0,125.0 637.5,125.0 637.5,122.5 645.0,122.5 645.0,120.0 647.5,120.0 647.5,77.5 650.0,77.5 650.0,75.0" stroke="rgb(0,0,0)" /><text fill="black" x="600.0" y="145.0">E10</text><polygon fill="rgb(255,150,150)" points="710.0,75.0 710.0,27.5 707.5,27.5 707.5,25.0 690.0,25.0 690.0,25.0 672.5,25.0 672.5,27.5 670.0,27.5 670.0,75.0 670.0,75.0 670.0,122.5 672.5,122.5 672.5,125.0 690.0,125.0 690.0,125.0 707.5,125.0 707.5,122.5 710.0,122.5 710.0,75.0" stroke="rgb(0,0,0)" /><text fill="black" x="670.0" y="145.0">E11</text><polygon fill="rgb(255,150,150)" points="780.0,75.0 780.0,27.5 775.0,27.5 775.0,25.0 755.0,25.0 755.0,25.0 735.0,25.0 735.0,27.5 730.0,27.5 730.0,75.0 730.0,75.0 730.0,122.5 735.0,122.5 735.0,125.0 755.0,125.0 755.0,125.0 775.0,125.0 775.0,122.5 780.0,122.5 780.0,75.0" stroke="rgb(0,0,0)" /><text fill="black" x="730.0" y="145.0">E12</text><polygon fill="rgb(255,150,150)" points="840.0,75.0 840.0,30.0 837.5,30.0 837.5,27.5 820.0,27.5 820.0,27.5 802.5,27.5 802.5,30.0 800.0,30.0 800.0,75.0 800.0,75.0 800.0,120.0 802.5,120.0 802.5,122.5 820.0,122.5 820.0,122.5 837.5,122.5 837.5,120.0 840.0,120.0 840.0,75.0" stroke="rgb(0,0,0)" /><text fill="black" x="800.0" y="142.5">E13</text><polygon fill="rgb(255,150,150)" points="910.0,75.0 910.0,70.0 907.5,70.0 907.5,32.5 905.0,32.5 905.0,27.5 885.0,27.5 885.0,27.5 865.0,27.5 865.0,32.5 862.5,32.5 862.5,70.0 860.0,70.0 860.0,75.0 860.0,75.0 860.0,80.0 862.5,80.0 862.5,117.5 865.0,117.5 865.0,122.5 885.0,122.5 885.0,122.5 905.0,122.5 905.0,117.5 907.5,117.5 907.5,80.0 910.0,80.0 910.0,75.0" stroke="rgb(0,0,0)" /><text fill="black" x="860.0" y="142.5">E14</text><path d="M 267.5,75.0 a 181.7092352092352,181.7092352092352 0 0,0 -195.0,-0.0" stroke="rgb(255,150,150)" stroke-width="2" /><path d="M 267.5,75.0 a 181.7092352092352,181.7092352092352 0 0,0 -195.0,-0.0" stroke="rgb(0,0,0)" stroke-width="0.2" /><path d="M 332.5,75.0 a 277.9126821260004,277.9126821260004 0 0,0 -260.0,-0.0" stroke="rgb(255,150,150)" stroke-width="2" /><path d="M 332.5,75.0 a 277.9126821260004,277.9126821260004 0 0,0 -260.0,-0.0" stroke="rgb(0,0,0)" stroke-width="0.2" /><path d="M 885.0,75.0 a 1860.7260013812152,1860.7260013812152 0 0,0 -812.5,-0.0" stroke="rgb(255,150,150)" stroke-width="2" /><path d="M 885.0,75.0 a 1860.7260013812152,1860.7260013812152 0 0,0 -812.5,-0.0" stroke="rgb(0,0,0)" stroke-width="0.2" /><path d="M 395.0,75.0 a 41.873177420847995,41.873177420847995 0 0,0 -62.5,-0.0" stroke="rgb(255,150,150)" stroke-width="2" /><path d="M 395.0,75.0 a 41.873177420847995,41.873177420847995 0 0,0 -62.5,-0.0" stroke="rgb(0,0,0)" stroke-width="0.2" /><path d="M 457.5,75.0 a 41.873177420847995,41.873177420847995 0 0,0 -62.5,-0.0" stroke="rgb(255,150,150)" stroke-width="2" /><path d="M 457.5,75.0 a 41.873177420847995,41.873177420847995 0 0,0 -62.5,-0.0" stroke="rgb(0,0,0)" stroke-width="0.2" /><path d="M 570.0,75.0 a 32.378560280920794,32.378560280920794 0 0,0 -50.0,-0.0" stroke="rgb(255,150,150)" stroke-width="2" /><path d="M 570.0,75.0 a 32.378560280920794,32.378560280920794 0 0,0 -50.0,-0.0" stroke="rgb(0,0,0)" stroke-width="0.2" /><path d="M 625.0,75.0 a 78.7533143939394,78.7533143939394 0 0,0 -105.0,-0.0" stroke="rgb(255,150,150)" stroke-width="2" /><path d="M 625.0,75.0 a 78.7533143939394,78.7533143939394 0 0,0 -105.0,-0.0" stroke="rgb(0,0,0)" stroke-width="0.2" /><path d="M 690.0,75.0 a 43.84402492668622,43.84402492668622 0 0,0 -65.0,-0.0" stroke="rgb(255,150,150)" stroke-width="2" /><path d="M 690.0,75.0 a 43.84402492668622,43.84402492668622 0 0,0 -65.0,-0.0" stroke="rgb(0,0,0)" stroke-width="0.2" /><path d="M 755.0,75.0 a 43.84402492668622,43.84402492668622 0 0,0 -65.0,-0.0" stroke="rgb(255,150,150)" stroke-width="2" /><path d="M 755.0,75.0 a 43.84402492668622,43.84402492668622 0 0,0 -65.0,-0.0" stroke="rgb(0,0,0)" stroke-width="0.2" /><path d="M 820.0,75.0 a 43.84402492668622,43.84402492668622 0 0,0 -65.0,-0.0" stroke="rgb(255,150,150)" stroke-width="2" /><path d="M 820.0,75.0 a 43.84402492668622,43.84402492668622 0 0,0 -65.0,-0.0" stroke="rgb(0,0,0)" stroke-width="0.2" /><path d="M 885.0,75.0 a 43.84402492668622,43.84402492668622 0 0,0 -65.0,-0.0" stroke="rgb(255,150,150)" stroke-width="2" /><path d="M 885.0,75.0 a 43.84402492668622,43.84402492668622 0 0,0 -65.0,-0.0" stroke="rgb(0,0,0)" stroke-width="0.2" /></svg>