<?xml version="1.0" encoding="utf-8" ?>
<svg baseProfile="full" height="100%" style="font-size:14;font-family:Sans, Arial;stroke-width:1;fill:none" version="1.1" width="100%" xmlns="http://www.w3.org/2000/svg" xmlns:ev="http://www.w3.org/2001/xml-events" xmlns:xlink="http://www.w3.org/1999/xlink"><defs /><rect fill="none" height="150.0" stroke="none" width="810.0" x="0" y="0" /><line stroke="rgb(0,0,0)" x1="17.5" x2="35.0" y1="75.0" y2="75.0" /><line stroke="rgb(0,0,0)" x1="35.0" x2="45.0" y1="75.0" y2="75.0" /><line stroke="rgb(0,0,0)" x1="45.0" x2="72.5" y1="75.0" y2="75.0" /><line stroke="rgb(0,0,0)" x1="72.5" x2="100.0" y1="75.0" y2="75.0" /><line stroke="rgb(0,0,0)" x1="100.0" x2="110.0" y1="75.0" y2="75.0" /><line stroke="rgb(0,0,0)" x1="110.0" x2="135.0" y1="75.0" y2="75.0" /><line stroke="rgb(0,0,0)" x1="135.0" x2="160.0" y1="75.0" y2="75.0" /><line stroke="rgb(0,0,0)" x1="160.0" x2="170.0" y1="75.0" y2="75.0" /><line stroke="rgb(0,0,0)" x1="170.0" x2="200.0" y1="75.0" y2="75.0" /><line stroke="rgb(0,0,0)" x1="200.0" x2="230.0" y1="75.0" y2="75.0" /><line stroke="rgb(0,0,0)" x1="230.0" x2="240.0" y1="75.0" y2="75.0" /><line stroke="rgb(0,0,0)" x1="240.0" x2="267.5" y1="75.0" y2="75.0" /><line stroke="rgb(0,0,0)" x1="267.5" x2="295.0" y1="75.0" y2="75.0" /><line stroke="rgb(0,0,0)" x1="295.0" x2="305.0" y1="75.0" y2="75.0" /><line stroke="rgb(0,0,0)" x1="305.0" x2="330.0" y1="75.0" y2="75.0" /><line stroke="rgb(0,0,0)" x1="330.0" x2="355.0" y1="75.0" y2="75.0" /><line stroke="rgb(0,0,0)" x1="355.0" x2="365.0" y1="75.0" y2="75.0" /><line stroke="rgb(0,0,0)" x1="365.0" x2="392.5" y1="75.0" y2="75.0" /><line stroke="rgb(0,0,0)" x1="392.5" x2="420.0" y1="75.0" y2="75.0" /><line stroke="rgb(0,0,0)" x1="420.0" x2="430.0" y1="75.0" y2="75.0" /><line stroke="rgb(0,0,0)" x1="430.0" x2="455.0" y1="75.0" y2="75.0" /><line stroke="rgb(0,0,0)" x1="455.0" x2="480.0" y1="75.0" y2="75.0" /><line stroke="rgb(0,0,0)" x1="480.0" x2="490.0" y1="75.0" y2="75.0" /><line stroke="rgb(0,0,0)" x1="490.0" x2="520.0" y1="75.0" y2="75.0" /><line stroke="rgb(0,0,0)" x1="520.0" x2="550.0" y1="75.0" y2="75.0" /><line stroke="rgb(0,0,0)" x1="550.0" x2="560.0" y1="75.0" y2="75.0" /><line stroke="rgb(0,0,0)" x1="560.0" x2="585.0" y1="75.0" y2="75.0" /><line stroke="rgb(0,0,0)" x1="585.0" x2="610.0" y1="75.0" y2="75.0" /><line stroke="rgb(0,0,0)" x1="610.0" x2="620.0" y1="75.0" y2="75.0" /><line stroke="rgb(0,0,0)" x1="620.0" x2="650.0" y1="75.0" y2="75.0" /><line stroke="rgb(0,0,0)" x1="650.0" x2="680.0" y1="75.0" y2="75.0" /><line stroke="rgb(0,0,0)" x1="680.0" x2="690.0" y1="75.0" y2="75.0" /><line stroke="rgb(0,0,0)" x1="690.0" x2="715.0" y1="75.0" y2="75.0" /><line stroke="rgb(0,0,0)" x1="715.0" x2="740.0" y1="75.0" y2="75.0" /><line stroke="rgb(0,0,0)" x1="740.0" x2="750.0" y1="75.0" y2="75.0" /><line stroke="rgb(0,0,0)" x1="750.0" x2="780.0" y1="75.0" y2="75.0" /><polygon fill="rgb(150,150,150)" points="30.0,75.0 30.0,72.5 27.5,72.5 27.5,55.0 25.0,55.0 25.0,35.0 17.5,35.0 17.5,35.0 10.0,35.0 10.0,55.0 7.5,55.0 7.5,72.5 5.0,72.5 5.0,75.0 5.0,75.0 5.0,77.5 7.5,77.5 7.5,95.0 10.0,95.0 10.0,115.0 17.5,115.0 17.5,115.0 25.0,115.0 25.0,95.0 27.5,95.0 27.5,77.5 30.0,77.5 30.0,75.0" stroke="rgb(0,0,0)" /><text fill="black" x="5.0" y="135.0">H0</text><polygon fill="rgb(255,150,150)" points="95.0,75.0 95.0,35.0 90.0,35.0 90.0,30.0 82.5,30.0 82.5,25.0 72.5,25.0 72.5,25.0 62.5,25.0 62.5,30.0 55.0,30.0 55.0,35.0 50.0,35.0 50.0,75.0 50.0,75.0 50.0,115.0 55.0,115.0 55.0,120.0 62.5,120.0 62.5,125.0 72.5,125.0 72.5,125.0 82.5,125.0 82.5,120.0 90.0,120.0 90.0,115.0 95.0,115.0 95.0,75.0" stroke="rgb(0,0,0)" /><text fill="black" x="50.0" y="145.0">E1</text><polygon fill="rgb(150,150,150)" points="155.0,75.0 155.0,25.0 135.0,25.0 135.0,25.0 115.0,25.0 115.0,75.0 115.0,75.0 115.0,125.0 135.0,125.0 135.0,125.0 155.0,125.0 155.0,75.0" stroke="rgb(0,0,0)" /><text fill="black" x="115.0" y="145.0">H2</text><polygon fill="rgb(150,150,150)" points="225.0,75.0 225.0,72.5 222.5,72.5 222.5,25.0 200.0,25.0 200.0,25.0 177.5,25.0 177.5,72.5 175.0,72.5 175.0,75.0 175.0,75.0 175.0,77.5 177.5,77.5 177.5,125.0 200.0,125.0 200.0,125.0 222.5,125.0 222.5,77.5 225.0,77.5 225.0,75.0" stroke="rgb(0,0,0)" /><text fill="black" x="175.0" y="145.0">H3</text><polygon fill="rgb(255,150,150)" points="290.0,75.0 290.0,72.5 285.0,72.5 285.0,30.0 282.5,30.0 282.5,27.5 267.5,27.5 267.5,27.5 252.5,27.5 252.5,30.0 250.0,30.0 250.0,72.5 245.0,72.5 245.0,75.0 245.0,75.0 245.0,77.5 250.0,77.5 250.0,120.0 252.5,120.0 252.5,122.5 267.5,122.5 267.5,122.5 282.5,122.5 282.5,120.0 285.0,120.0 285.0,77.5 290.0,77.5 290.0,75.0" stroke="rgb(0,0,0)" /><text fill="black" x="245.0" y="142.5">E5</text><polygon fill="rgb(255,150,150)" points="350.0,75.0 350.0,72.5 347.5,72.5 347.5,27.5 340.0,27.5 340.0,25.0 330.0,25.0 330.0,25.0 320.0,25.0 320.0,27.5 312.5,27.5 312.5,72.5 310.0,72.5 310.0,75.0 310.0,75.0 310.0,77.5 312.5,77.5 312.5,122.5 320.0,122.5 320.0,125.0 330.0,125.0 330.0,125.0 340.0,125.0 340.0,122.5 347.5,122.5 347.5,77.5 350.0,77.5 350.0,75.0" stroke="rgb(0,0,0)" /><text fill="black" x="310.0" y="145.0">E6</text><polygon fill="rgb(255,150,150)" points="415.0,75.0 415.0,72.5 410.0,72.5 410.0,55.0 407.5,55.0 407.5,42.5 405.0,42.5 405.0,25.0 392.5,25.0 392.5,25.0 380.0,25.0 380.0,42.5 377.5,42.5 377.5,55.0 375.0,55.0 375.0,72.5 370.0,72.5 370.0,75.0 370.0,75.0 370.0,77.5 375.0,77.5 375.0,95.0 377.5,95.0 377.5,107.5 380.0,107.5 380.0,125.0 392.5,125.0 392.5,125.0 405.0,125.0 405.0,107.5 407.5,107.5 407.5,95.0 410.0,95.0 410.0,77.5 415.0,77.5 415.0,75.0" stroke="rgb(0,0,0)" /><text fill="black" x="370.0" y="145.0">E7</text><polygon fill="rgb(255,150,150)" points="475.0,75.0 475.0,72.5 467.5,72.5 467.5,70.0 465.0,70.0 465.0,25.0 455.0,25.0 455.0,25.0 445.0,25.0 445.0,70.0 442.5,70.0 442.5,72.5 435.0,72.5 435.0,75.0 435.0,75.0 435.0,77.5 442.5,77.5 442.5,80.0 445.0,80.0 445.0,125.0 455.0,125.0 455.0,125.0 465.0,125.0 465.0,80.0 467.5,80.0 467.5,77.5 475.0,77.5 475.0,75.0" stroke="rgb(0,0,0)" /><text fill="black" x="435.0" y="145.0">E8</text><polygon fill="rgb(255,150,150)" points="545.0,75.0 545.0,72.5 542.5,72.5 542.5,30.0 540.0,30.0 540.0,27.5 532.5,27.5 532.5,25.0 520.0,25.0 520.0,25.0 507.5,25.0 507.5,27.5 500.0,27.5 500.0,30.0 497.5,30.0 497.5,72.5 495.0,72.5 495.0,75.0 495.0,75.0 495.0,77.5 497.5,77.5 497.5,120.0 500.0,120.0 500.0,122.5 507.5,122.5 507.5,125.0 520.0,125.0 520.0,125.0 532.5,125.0 532.5,122.5 540.0,122.5 540.0,120.0 542.5,120.0 542.5,77.5 545.0,77.5 545.0,75.0" stroke="rgb(0,0,0)" /><text fill="black" x="495.0" y="145.0">E10</text><polygon fill="rgb(255,150,150)" points="605.0,75.0 605.0,27.5 602.5,27.5 602.5,25.0 585.0,25.0 585.0,25.0 567.5,25.0 567.5,27.5 565.0,27.5 565.0,75.0 565.0,75.0 565.0,122.5 567.5,122.5 567.5,125.0 585.0,125.0 585.0,125.0 602.5,125.0 602.5,122.5 605.0,122.5 605.0,75.0" stroke="rgb(0,0,0)" /><text fill="black" x="565.0" y="145.0">E11</text><polygon fill="rgb(255,150,150)" points="675.0,75.0 675.0,27.5 670.0,27.5 670.0,25.0 650.0,25.0 650.0,25.0 630.0,25.0 630.0,27.5 625.0,27.5 625.0,75.0 625.0,75.0 625.0,122.5 630.0,122.5 630.0,125.0 650.0,125.0 650.0,125.0 670.0,125.0 670.0,122.5 675.0,122.5 675.0,75.0" stroke="rgb(0,0,0)" /><text fill="black" x="625.0" y="145.0">E12</text><polygon fill="rgb(255,150,150)" points="735.0,75.0 735.0,30.0 732.5,30.0 732.5,27.5 715.0,27.5 715.0,27.5 697.5,27.5 697.5,30.0 695.0,30.0 695.0,75.0 695.0,75.0 695.0,120.0 697.5,120.0 697.5,122.5 715.0,122.5 715.0,122.5 732.5,122.5 732.5,120.0 735.0,120.0 735.0,75.0" stroke="rgb(0,0,0)" /><text fill="black" x="695.0" y="142.5">E13</text><polygon fill="rgb(255,150,150)" points="805.0,75.0 805.0,70.0 802.5,70.0 802.5,32.5 800.0,32.5 800.0,27.5 780.0,27.5 780.0,27.5 760.0,27.5 760.0,32.5 757.5,32.5 757.5,70.0 755.0,70.0 755.0,75.0 755.0,75.0 755.0,80.0 757.5,80.0 757.5,117.5 760.0,117.5 760.0,122.5 780.0,122.5 780.0,122.5 800.0,122.5 800.0,117.5 802.5,117.5 802.5,80.0 805.0,80.0 805.0,75.0" stroke="rgb(0,0,0)" /><text fill="black" x="755.0" y="142.5">E14</text><path d="M 267.5,75.0 a 173.23691749427047,173.23691749427047 0 0,0 -195.0,-0.0" stroke="rgb(255,150,150)" stroke-width="2" /><path d="M 267.5,75.0 a 173.23691749427047,173.23691749427047 0 0,0 -195.0,-0.0" stroke="rgb(0,0,0)" stroke-width="0.2" /><path d="M 780.0,75.0 a 1420.492843000157,1420.492843000157 0 0,0 -707.5,-0.0" stroke="rgb(255,150,150)" stroke-width="2" /><path d="M 780.0,75.0 a 1420.492843000157,1420.492843000157 0 0,0 -707.5,-0.0" stroke="rgb(0,0,0)" stroke-width="0.2" /><path d="M 330.0,75.0 a 39.54510654990889,39.54510654990889 0 0,0 -62.5,-0.0" stroke="rgb(255,150,150)" stroke-width="2" /><path d="M 330.0,75.0 a 39.54510654990889,39.54510654990889 0 0,0 -62.5,-0.0" stroke="rgb(0,0,0)" stroke-width="0.2" /><path d="M 392.5,75.0 a 39.54510654990889,39.54510654990889 0 0,0 -62.5,-0.0" stroke="rgb(255,150,150)" stroke-width="2" /><path d="M 392.5,75.0 a 39.54510654990889,39.54510654990889 0 0,0 -62.5,-0.0" stroke="rgb(0,0,0)" stroke-width="0.2" /><path d="M 520.0,75.0 a 41.40854024829795,41.40854024829795 0 0,0 -65.0,-0.0" stroke="rgb(255,150,150)" stroke-width="2" /><path d="M 520.0,75.0 a 41.40854024829795,41.40854024829795 0 0,0 -65.0,-0.0" stroke="rgb(0,0,0)" stroke-width="0.2" /><path d="M 585.0,75.0 a 41.40854024829795,41.40854024829795 0 0,0 -65.0,-0.0" stroke="rgb(255,150,150)" stroke-width="2" /><path d="M 585.0,75.0 a 41.40854024829795,41.40854024829795 0 0,0 -65.0,-0.0" stroke="rgb(0,0,0)" stroke-width="0.2" /><path d="M 650.0,75.0 a 41.40854024829795,41.40854024829795 0 0,0 -65.0,-0.0" stroke="rgb(255,150,150)" stroke-width="2" /><path d="M 650.0,75.0 a 41.40854024829795,41.40854024829795 0 0,0 -65.0,-0.0" stroke="rgb(0,0,0)" stroke-width="0.2" /><path d="M 715.0,75.0 a 41.40854024829795,41.40854024829795 0 0,0 -65.0,-0.0" stroke="rgb(255,150,150)" stroke-width="2" /><path d="M 715.0,75.0 a 41.40854024829795,41.40854024829795 0 0,0 -65.0,-0.0" stroke="rgb(0,0,0)" stroke-width="0.2" /><path d="M 780.0,75.0 a 41.40854024829795,41.40854024829795 0 0,0 -65.0,-0.0" stroke="rgb(255,150,150)" stroke-width="2" /><path d="M 780.0,75.0 a 41.40854024829795,41.40854024829795 0 0,0 -65.0,-0.0" stroke="rgb(0,0,0)" stroke-width="0.2" /></svg>