<?xml version="1.0" encoding="utf-8" ?>
<svg baseProfile="full" height="100%" style="font-size:14;font-family:Sans, Arial;stroke-width:1;fill:none" version="1.1" width="100%" xmlns="http://www.w3.org/2000/svg" xmlns:ev="http://www.w3.org/2001/xml-events" xmlns:xlink="http://www.w3.org/1999/xlink"><defs /><rect fill="none" height="300.0" stroke="none" width="1726.8959999999997" x="0" y="0" /><line stroke="rgb(0,0,0)" x1="5.0" x2="41.666650000000004" y1="150.0" y2="150.0" /><line stroke="rgb(0,0,0)" x1="41.666650000000004" x2="51.666650000000004" y1="150.0" y2="150.0" /><line stroke="rgb(0,0,0)" x1="51.666650000000004" x2="56.666650000000004" y1="150.0" y2="150.0" /><line stroke="rgb(0,0,0)" x1="56.666650000000004" x2="66.66665" y1="150.0" y2="150.0" /><line stroke="rgb(0,0,0)" x1="66.66665" x2="76.66665" y1="150.0" y2="150.0" /><line stroke="rgb(0,0,0)" x1="76.66665" x2="81.66665" y1="150.0" y2="150.0" /><line stroke="rgb(0,0,0)" x1="81.66665" x2="91.66665" y1="150.0" y2="150.0" /><line stroke="rgb(0,0,0)" x1="91.66665" x2="101.66665" y1="150.0" y2="150.0" /><line stroke="rgb(0,0,0)" x1="101.66665" x2="106.66665" y1="150.0" y2="150.0" /><line stroke="rgb(0,0,0)" x1="106.66665" x2="116.66665" y1="150.0" y2="150.0" /><line stroke="rgb(0,0,0)" x1="116.66665" x2="126.66665" y1="150.0" y2="150.0" /><line stroke="rgb(0,0,0)" x1="126.66665" x2="131.66665" y1="150.0" y2="150.0" /><line stroke="rgb(0,0,0)" x1="131.66665" x2="183.66665" y1="150.0" y2="150.0" /><line stroke="rgb(0,0,0)" x1="183.66665" x2="193.66665" y1="150.0" y2="150.0" /><line stroke="rgb(0,0,0)" x1="193.66665" x2="198.66665" y1="150.0" y2="150.0" /><line stroke="rgb(0,0,0)" x1="198.66665" x2="208.66665" y1="150.0" y2="150.0" /><line stroke="rgb(0,0,0)" x1="208.66665" x2="218.66665" y1="150.0" y2="150.0" /><line stroke="rgb(0,0,0)" x1="218.66665" x2="223.66665" y1="150.0" y2="150.0" /><line stroke="rgb(0,0,0)" x1="223.66665" x2="273.48445000000004" y1="150.0" y2="150.0" /><line stroke="rgb(0,0,0)" x1="273.48445000000004" x2="283.48445000000004" y1="150.0" y2="150.0" /><line stroke="rgb(0,0,0)" x1="283.48445000000004" x2="288.48445000000004" y1="150.0" y2="150.0" /><line stroke="rgb(0,0,0)" x1="288.48445000000004" x2="308.48445000000004" y1="150.0" y2="150.0" /><line stroke="rgb(0,0,0)" x1="308.48445000000004" x2="318.48445000000004" y1="150.0" y2="150.0" /><line stroke="rgb(0,0,0)" x1="318.48445000000004" x2="323.48445000000004" y1="150.0" y2="150.0" /><line stroke="rgb(0,0,0)" x1="323.48445000000004" x2="333.48445" y1="150.0" y2="150.0" /><line stroke="rgb(0,0,0)" x1="333.48445" x2="343.48445" y1="150.0" y2="150.0" /><line stroke="rgb(0,0,0)" x1="343.48445" x2="348.48445" y1="150.0" y2="150.0" /><line stroke="rgb(0,0,0)" x1="348.48445" x2="358.48445" y1="150.0" y2="150.0" /><line stroke="rgb(0,0,0)" x1="358.48445" x2="368.48445" y1="150.0" y2="150.0" /><line stroke="rgb(0,0,0)" x1="368.48445" x2="373.48445" y1="150.0" y2="150.0" /><line stroke="rgb(0,0,0)" x1="373.48445" x2="388.36394999999993" y1="150.0" y2="150.0" /><line stroke="rgb(0,0,0)" x1="388.36394999999993" x2="398.36394999999993" y1="150.0" y2="150.0" /><line stroke="rgb(0,0,0)" x1="398.36394999999993" x2="403.36394999999993" y1="150.0" y2="150.0" /><line stroke="rgb(0,0,0)" x1="403.36394999999993" x2="423.36394999999993" y1="150.0" y2="150.0" /><line stroke="rgb(0,0,0)" x1="423.36394999999993" x2="433.36394999999993" y1="150.0" y2="150.0" /><line stroke="rgb(0,0,0)" x1="433.36394999999993" x2="438.36394999999993" y1="150.0" y2="150.0" /><line stroke="rgb(0,0,0)" x1="438.36394999999993" x2="448.36394999999993" y1="150.0" y2="150.0" /><line stroke="rgb(0,0,0)" x1="448.36394999999993" x2="458.36394999999993" y1="150.0" y2="150.0" /><line stroke="rgb(0,0,0)" x1="458.36394999999993" x2="463.36394999999993" y1="150.0" y2="150.0" /><line stroke="rgb(0,0,0)" x1="463.36394999999993" x2="483.2635499999999" y1="150.0" y2="150.0" /><line stroke="rgb(0,0,0)" x1="483.2635499999999" x2="493.2635499999999" y1="150.0" y2="150.0" /><line stroke="rgb(0,0,0)" x1="493.2635499999999" x2="498.2635499999999" y1="150.0" y2="150.0" /><line stroke="rgb(0,0,0)" x1="498.2635499999999" x2="508.2635499999999" y1="150.0" y2="150.0" /><line stroke="rgb(0,0,0)" x1="508.2635499999999" x2="518.2635499999999" y1="150.0" y2="150.0" /><line stroke="rgb(0,0,0)" x1="518.2635499999999" x2="523.2635499999999" y1="150.0" y2="150.0" /><line stroke="rgb(0,0,0)" x1="523.2635499999999" x2="533.2635499999999" y1="150.0" y2="150.0" /><line stroke="rgb(0,0,0)" x1="533.2635499999999" x2="543.2635499999999" y1="150.0" y2="150.0" /><line stroke="rgb(0,0,0)" x1="543.2635499999999" x2="548.2635499999999" y1="150.0" y2="150.0" /><line stroke="rgb(0,0,0)" x1="548.2635499999999" x2="571.0546999999999" y1="150.0" y2="150.0" /><line stroke="rgb(0,0,0)" x1="571.0546999999999" x2="581.0546999999999" y1="150.0" y2="75.0" /><line stroke="rgb(0,0,0)" x1="581.0546999999999" x2="586.0546999999999" y1="75.0" y2="75.0" /><line stroke="rgb(0,0,0)" x1="548.2635499999999" x2="571.0546999999999" y1="150.0" y2="150.0" /><line stroke="rgb(0,0,0)" x1="571.0546999999999" x2="581.0546999999999" y1="150.0" y2="225.0" /><line stroke="rgb(0,0,0)" x1="581.0546999999999" x2="586.0546999999999" y1="225.0" y2="225.0" /><line stroke="rgb(0,0,0)" x1="586.0546999999999" x2="626.0546999999999" y1="225.0" y2="225.0" /><line stroke="rgb(0,0,0)" x1="626.0546999999999" x2="636.0546999999999" y1="225.0" y2="150.0" /><line stroke="rgb(0,0,0)" x1="636.0546999999999" x2="641.0546999999999" y1="150.0" y2="150.0" /><line stroke="rgb(0,0,0)" x1="641.0546999999999" x2="681.0546999999999" y1="150.0" y2="150.0" /><line stroke="rgb(0,0,0)" x1="681.0546999999999" x2="691.0546999999999" y1="150.0" y2="150.0" /><line stroke="rgb(0,0,0)" x1="691.0546999999999" x2="696.0546999999999" y1="150.0" y2="150.0" /><line stroke="rgb(0,0,0)" x1="696.0546999999999" x2="716.0546999999999" y1="150.0" y2="150.0" /><line stroke="rgb(0,0,0)" x1="716.0546999999999" x2="726.0546999999999" y1="150.0" y2="150.0" /><line stroke="rgb(0,0,0)" x1="726.0546999999999" x2="731.0546999999999" y1="150.0" y2="150.0" /><line stroke="rgb(0,0,0)" x1="586.0546999999999" x2="596.0546999999999" y1="75.0" y2="75.0" /><line stroke="rgb(0,0,0)" x1="596.0546999999999" x2="726.0546999999999" y1="75.0" y2="150.0" /><line stroke="rgb(0,0,0)" x1="726.0546999999999" x2="731.0546999999999" y1="150.0" y2="150.0" /><line stroke="rgb(0,0,0)" x1="731.0546999999999" x2="741.0546999999999" y1="150.0" y2="150.0" /><line stroke="rgb(0,0,0)" x1="741.0546999999999" x2="751.0546999999999" y1="150.0" y2="150.0" /><line stroke="rgb(0,0,0)" x1="751.0546999999999" x2="756.0546999999999" y1="150.0" y2="150.0" /><line stroke="rgb(0,0,0)" x1="756.0546999999999" x2="821.3202" y1="150.0" y2="150.0" /><line stroke="rgb(0,0,0)" x1="821.3202" x2="831.3202" y1="150.0" y2="150.0" /><line stroke="rgb(0,0,0)" x1="831.3202" x2="836.3202" y1="150.0" y2="150.0" /><line stroke="rgb(0,0,0)" x1="836.3202" x2="846.3202" y1="150.0" y2="150.0" /><line stroke="rgb(0,0,0)" x1="846.3202" x2="856.3202" y1="150.0" y2="150.0" /><line stroke="rgb(0,0,0)" x1="856.3202" x2="861.3202" y1="150.0" y2="150.0" /><line stroke="rgb(0,0,0)" x1="861.3202" x2="972.4602" y1="150.0" y2="150.0" /><line stroke="rgb(0,0,0)" x1="972.4602" x2="982.4602" y1="150.0" y2="150.0" /><line stroke="rgb(0,0,0)" x1="982.4602" x2="987.4602" y1="150.0" y2="150.0" /><line stroke="rgb(0,0,0)" x1="987.4602" x2="1036.9360000000001" y1="150.0" y2="150.0" /><line stroke="rgb(0,0,0)" x1="1036.9360000000001" x2="1046.9360000000001" y1="150.0" y2="150.0" /><line stroke="rgb(0,0,0)" x1="1046.9360000000001" x2="1051.9360000000001" y1="150.0" y2="150.0" /><line stroke="rgb(0,0,0)" x1="1051.9360000000001" x2="1126.816" y1="150.0" y2="150.0" /><line stroke="rgb(0,0,0)" x1="1126.816" x2="1136.816" y1="150.0" y2="150.0" /><line stroke="rgb(0,0,0)" x1="1136.816" x2="1141.816" y1="150.0" y2="150.0" /><line stroke="rgb(0,0,0)" x1="1141.816" x2="1181.41275" y1="150.0" y2="150.0" /><line stroke="rgb(0,0,0)" x1="1181.41275" x2="1191.41275" y1="150.0" y2="150.0" /><line stroke="rgb(0,0,0)" x1="1191.41275" x2="1196.41275" y1="150.0" y2="150.0" /><line stroke="rgb(0,0,0)" x1="1196.41275" x2="1221.41275" y1="150.0" y2="150.0" /><line stroke="rgb(0,0,0)" x1="1221.41275" x2="1231.41275" y1="150.0" y2="150.0" /><line stroke="rgb(0,0,0)" x1="1231.41275" x2="1236.41275" y1="150.0" y2="150.0" /><line stroke="rgb(0,0,0)" x1="1236.41275" x2="1257.41275" y1="150.0" y2="150.0" /><line stroke="rgb(0,0,0)" x1="1257.41275" x2="1267.41275" y1="150.0" y2="150.0" /><line stroke="rgb(0,0,0)" x1="1267.41275" x2="1272.41275" y1="150.0" y2="150.0" /><line stroke="rgb(0,0,0)" x1="1272.41275" x2="1297.41275" y1="150.0" y2="150.0" /><line stroke="rgb(0,0,0)" x1="1297.41275" x2="1307.41275" y1="150.0" y2="150.0" /><line stroke="rgb(0,0,0)" x1="1307.41275" x2="1312.41275" y1="150.0" y2="150.0" /><line stroke="rgb(0,0,0)" x1="1312.41275" x2="1362.6536999999998" y1="150.0" y2="150.0" /><line stroke="rgb(0,0,0)" x1="1362.6536999999998" x2="1372.6536999999998" y1="150.0" y2="150.0" /><line stroke="rgb(0,0,0)" x1="1372.6536999999998" x2="1377.6536999999998" y1="150.0" y2="150.0" /><line stroke="rgb(0,0,0)" x1="1377.6536999999998" x2="1432.7136999999998" y1="150.0" y2="150.0" /><line stroke="rgb(0,0,0)" x1="1432.7136999999998" x2="1442.7136999999998" y1="150.0" y2="75.0" /><line stroke="rgb(0,0,0)" x1="1442.7136999999998" x2="1447.7136999999998" y1="75.0" y2="75.0" /><line stroke="rgb(0,0,0)" x1="1377.6536999999998" x2="1432.7136999999998" y1="150.0" y2="150.0" /><line stroke="rgb(0,0,0)" x1="1432.7136999999998" x2="1442.7136999999998" y1="150.0" y2="225.0" /><line stroke="rgb(0,0,0)" x1="1442.7136999999998" x2="1447.7136999999998" y1="225.0" y2="225.0" /><line stroke="rgb(0,0,0)" x1="1447.7136999999998" x2="1467.7136999999998" y1="75.0" y2="75.0" /><line stroke="rgb(0,0,0)" x1="1467.7136999999998" x2="1477.7136999999998" y1="75.0" y2="75.0" /><line stroke="rgb(0,0,0)" x1="1477.7136999999998" x2="1482.7136999999998" y1="75.0" y2="75.0" /><line stroke="rgb(0,0,0)" x1="1447.7136999999998" x2="1460.2136999999998" y1="225.0" y2="225.0" /><line stroke="rgb(0,0,0)" x1="1460.2136999999998" x2="1477.7136999999998" y1="225.0" y2="225.0" /><line stroke="rgb(0,0,0)" x1="1477.7136999999998" x2="1482.7136999999998" y1="225.0" y2="225.0" /><line stroke="rgb(0,0,0)" x1="1482.7136999999998" x2="1517.6727" y1="75.0" y2="75.0" /><line stroke="rgb(0,0,0)" x1="1517.6727" x2="1527.6727" y1="75.0" y2="150.0" /><line stroke="rgb(0,0,0)" x1="1527.6727" x2="1532.6727" y1="150.0" y2="150.0" /><line stroke="rgb(0,0,0)" x1="1482.7136999999998" x2="1495.2136999999998" y1="225.0" y2="225.0" /><line stroke="rgb(0,0,0)" x1="1495.2136999999998" x2="1527.6727" y1="225.0" y2="150.0" /><line stroke="rgb(0,0,0)" x1="1527.6727" x2="1532.6727" y1="150.0" y2="150.0" /><line stroke="rgb(0,0,0)" x1="1532.6727" x2="1603.0327" y1="150.0" y2="150.0" /><line stroke="rgb(0,0,0)" x1="1603.0327" x2="1613.0327" y1="150.0" y2="150.0" /><line stroke="rgb(0,0,0)" x1="1613.0327" x2="1618.0327" y1="150.0" y2="150.0" /><line stroke="rgb(0,0,0)" x1="1618.0327" x2="1628.0327" y1="150.0" y2="150.0" /><line stroke="rgb(0,0,0)" x1="1628.0327" x2="1638.0327" y1="150.0" y2="150.0" /><line stroke="rgb(0,0,0)" x1="1638.0327" x2="1643.0327" y1="150.0" y2="150.0" /><line stroke="rgb(0,0,0)" x1="1643.0327" x2="1665.2293499999998" y1="150.0" y2="150.0" /><line stroke="rgb(0,0,0)" x1="1665.2293499999998" x2="1675.2293499999998" y1="150.0" y2="75.0" /><line stroke="rgb(0,0,0)" x1="1675.2293499999998" x2="1680.2293499999998" y1="75.0" y2="75.0" /><line stroke="rgb(0,0,0)" x1="1643.0327" x2="1665.2293499999998" y1="150.0" y2="150.0" /><line stroke="rgb(0,0,0)" x1="1665.2293499999998" x2="1675.2293499999998" y1="150.0" y2="225.0" /><line stroke="rgb(0,0,0)" x1="1675.2293499999998" x2="1680.2293499999998" y1="225.0" y2="225.0" /><rect fill="rgb(255,14,18)" height="1.2" stroke="rgb(0,0,0)" width="31.66665" x="5.0" y="149.4" /><text fill="black" x="5.0" y="170.6">H0</text><rect fill="rgb(13,10,255)" height="0.8" stroke="rgb(0,0,0)" width="5.0" x="56.666650000000004" y="149.6" /><text fill="black" x="56.666650000000004" y="170.4">E1</text><rect fill="rgb(74,58,255)" height="0.8" stroke="rgb(0,0,0)" width="5.0" x="81.66665" y="149.6" /><text fill="black" x="81.66665" y="170.4">E2</text><rect fill="rgb(61,48,255)" height="0.8" stroke="rgb(0,0,0)" width="5.0" x="106.66665" y="149.6" /><text fill="black" x="106.66665" y="170.4">E3</text><rect fill="rgb(255,108,138)" height="4.0" stroke="rgb(0,0,0)" width="47.0" x="131.66665" y="148.0" /><text fill="black" x="131.66665" y="172.0">H4</text><rect fill="rgb(7,6,255)" height="0.8" stroke="rgb(0,0,0)" width="5.0" x="198.66665" y="149.6" /><text fill="black" x="198.66665" y="170.4">E5</text><rect fill="rgb(13,10,255)" height="98.8" stroke="rgb(0,0,0)" width="44.8178" x="223.66665" y="100.6" /><text fill="black" x="223.66665" y="219.4">H6</text><rect fill="rgb(5,3,255)" height="1.2" stroke="rgb(0,0,0)" width="15.0" x="288.48445000000004" y="149.4" /><text fill="black" x="288.48445000000004" y="170.6">H7</text><rect fill="rgb(5,4,255)" height="96.39999999999999" stroke="rgb(0,0,0)" width="5.0" x="323.48445000000004" y="101.80000000000001" /><text fill="black" x="323.48445000000004" y="218.2">E8</text><rect fill="rgb(3,3,255)" height="94.39999999999999" stroke="rgb(0,0,0)" width="5.0" x="348.48445" y="102.80000000000001" /><text fill="black" x="348.48445" y="217.2">E9</text><rect fill="rgb(18,14,255)" height="99.6" stroke="rgb(0,0,0)" width="9.8795" x="373.48445" y="100.2" /><text fill="black" x="373.48445" y="219.8">E10</text><rect fill="rgb(16,13,255)" height="0.8" stroke="rgb(0,0,0)" width="15.0" x="403.36394999999993" y="149.6" /><text fill="black" x="403.36394999999993" y="170.4">H11</text><rect fill="rgb(15,11,255)" height="1.2" stroke="rgb(0,0,0)" width="5.0" x="438.36394999999993" y="149.4" /><text fill="black" x="438.36394999999993" y="170.6">E12</text><rect fill="rgb(15,12,255)" height="99.6" stroke="rgb(0,0,0)" width="14.8996" x="463.36394999999993" y="100.2" /><text fill="black" x="463.36394999999993" y="219.8">E13</text><rect fill="rgb(20,16,255)" height="1.6" stroke="rgb(0,0,0)" width="5.0" x="498.2635499999999" y="149.2" /><text fill="black" x="498.2635499999999" y="170.8">E14</text><rect fill="rgb(3,2,255)" height="96.39999999999999" stroke="rgb(0,0,0)" width="5.0" x="523.2635499999999" y="101.80000000000001" /><text fill="black" x="523.2635499999999" y="218.2">E15</text><rect fill="rgb(62,49,255)" height="99.6" stroke="rgb(0,0,0)" width="17.791150000000002" x="548.2635499999999" y="100.2" /><text fill="black" x="548.2635499999999" y="219.8">E16</text><rect fill="rgb(0,0,255)" height="0.4" stroke="rgb(0,0,0)" width="5.0" x="586.0546999999999" y="74.8" /><text fill="black" x="586.0546999999999" y="95.2">E17</text><rect fill="rgb(18,14,255)" height="1.2" stroke="rgb(0,0,0)" width="35.0" x="586.0546999999999" y="224.4" /><text fill="black" x="586.0546999999999" y="245.6">H18</text><rect fill="rgb(25,20,255)" height="1.2" stroke="rgb(0,0,0)" width="35.0" x="641.0546999999999" y="149.4" /><text fill="black" x="641.0546999999999" y="170.6">H19</text><rect fill="rgb(255,87,111)" height="1.6" stroke="rgb(0,0,0)" width="15.0" x="696.0546999999999" y="149.2" /><text fill="black" x="696.0546999999999" y="170.8">H20</text><rect fill="rgb(255,45,58)" height="1.6" stroke="rgb(0,0,0)" width="5.0" x="731.0546999999999" y="149.2" /><text fill="black" x="731.0546999999999" y="170.8">E21</text><rect fill="rgb(62,49,255)" height="98.0" stroke="rgb(0,0,0)" width="60.2655" x="756.0546999999999" y="101.0" /><text fill="black" x="756.0546999999999" y="219.0">H22</text><rect fill="rgb(7,5,255)" height="94.39999999999999" stroke="rgb(0,0,0)" width="5.0" x="836.3202" y="102.80000000000001" /><text fill="black" x="836.3202" y="217.2">E23</text><rect fill="rgb(35,27,255)" height="100.0" stroke="rgb(0,0,0)" width="106.14000000000001" x="861.3202" y="100.0" /><text fill="black" x="861.3202" y="220.0">H24</text><rect fill="rgb(38,30,255)" height="99.2" stroke="rgb(0,0,0)" width="44.47580000000001" x="987.4602" y="100.4" /><text fill="black" x="987.4602" y="219.6">H25</text><rect fill="rgb(13,10,255)" height="100.0" stroke="rgb(0,0,0)" width="69.88000000000001" x="1051.9360000000001" y="100.0" /><text fill="black" x="1051.9360000000001" y="220.0">H26</text><rect fill="rgb(32,25,255)" height="99.2" stroke="rgb(0,0,0)" width="34.59675" x="1141.816" y="100.4" /><text fill="black" x="1141.816" y="219.6">H27</text><rect fill="rgb(0,0,255)" height="0.4" stroke="rgb(0,0,0)" width="20.0" x="1196.41275" y="149.8" /><text fill="black" x="1196.41275" y="170.2">E28</text><rect fill="rgb(255,66,84)" height="2.0" stroke="rgb(0,0,0)" width="16.0" x="1236.41275" y="149.0" /><text fill="black" x="1236.41275" y="171.0">H29</text><rect fill="rgb(0,0,255)" height="0.4" stroke="rgb(0,0,0)" width="20.0" x="1272.41275" y="149.8" /><text fill="black" x="1272.41275" y="170.2">E30</text><rect fill="rgb(23,18,255)" height="99.6" stroke="rgb(0,0,0)" width="45.24095" x="1312.41275" y="100.2" /><text fill="black" x="1312.41275" y="219.8">H31</text><rect fill="rgb(30,24,255)" height="100.0" stroke="rgb(0,0,0)" width="50.06" x="1377.6536999999998" y="100.0" /><text fill="black" x="1377.6536999999998" y="220.0">H32</text><rect fill="rgb(0,0,255)" height="0.4" stroke="rgb(0,0,0)" width="15.0" x="1447.7136999999998" y="74.8" /><text fill="black" x="1447.7136999999998" y="95.2">H33</text><rect fill="rgb(104,81,255)" height="0.8" stroke="rgb(0,0,0)" width="7.5" x="1447.7136999999998" y="224.6" /><text fill="black" x="1447.7136999999998" y="245.4">E34</text><rect fill="rgb(17,13,255)" height="97.6" stroke="rgb(0,0,0)" width="29.958999999999996" x="1482.7136999999998" y="26.200000000000003" /><text fill="black" x="1482.7136999999998" y="143.8">H35</text><rect fill="rgb(128,101,255)" height="0.8" stroke="rgb(0,0,0)" width="7.5" x="1482.7136999999998" y="224.6" /><text fill="black" x="1482.7136999999998" y="245.4">E36</text><rect fill="rgb(21,16,255)" height="100.0" stroke="rgb(0,0,0)" width="65.36" x="1532.6727" y="100.0" /><text fill="black" x="1532.6727" y="220.0">H37</text><rect fill="rgb(0,0,255)" height="0.4" stroke="rgb(0,0,0)" width="5.0" x="1618.0327" y="149.8" /><text fill="black" x="1618.0327" y="170.2">E38</text><rect fill="rgb(59,46,255)" height="95.6" stroke="rgb(0,0,0)" width="17.196649999999998" x="1643.0327" y="102.2" /><text fill="black" x="1643.0327" y="217.8">H39</text><rect fill="rgb(0,0,255)" height="0.4" stroke="rgb(0,0,0)" width="5.0" x="1680.2293499999998" y="74.8" /><text fill="black" x="1680.2293499999998" y="95.2">E40</text><rect fill="rgb(15,12,255)" height="1.2" stroke="rgb(0,0,0)" width="41.666650000000004" x="1680.2293499999998" y="224.4" /><text fill="black" x="1680.2293499999998" y="245.6">H41</text><path d="M 201.16665,150.0 a 165.3028018026867,165.3028018026867 0 0,0 -142.0,-0.0" stroke="rgb(13,10,255)" stroke-width="2" /><path d="M 201.16665,150.0 a 165.3028018026867,165.3028018026867 0 0,0 -142.0,-0.0" stroke="rgb(0,0,0)" stroke-width="0.2" /><path d="M 109.16665,150.0 a 22.90047847532769,22.90047847532769 0 0,0 -25.0,-0.0" stroke="rgb(74,58,255)" stroke-width="2" /><path d="M 109.16665,150.0 a 22.90047847532769,22.90047847532769 0 0,0 -25.0,-0.0" stroke="rgb(0,0,0)" stroke-width="0.2" /><path d="M 525.7635499999999,150.0 a 257.6032026682147,257.6032026682147 0 0,0 -199.77909999999986,-0.0" stroke="rgb(5,4,255)" stroke-width="2" /><path d="M 525.7635499999999,150.0 a 257.6032026682147,257.6032026682147 0 0,0 -199.77909999999986,-0.0" stroke="rgb(0,0,0)" stroke-width="0.2" /><path d="M 838.8202,150.0 a 939.9009580493138,939.9009580493138 0 0,0 -487.83575,-0.0" stroke="rgb(3,3,255)" stroke-width="2" /><path d="M 838.8202,150.0 a 939.9009580493138,939.9009580493138 0 0,0 -487.83575,-0.0" stroke="rgb(0,0,0)" stroke-width="0.2" /><path d="M 470.8137499999999,150.0 a 97.72481845715178,97.72481845715178 0 0,0 -92.38954999999993,-0.0" stroke="rgb(18,14,255)" stroke-width="2" /><path d="M 470.8137499999999,150.0 a 97.72481845715178,97.72481845715178 0 0,0 -92.38954999999993,-0.0" stroke="rgb(0,0,0)" stroke-width="0.2" /><path d="M 733.5546999999999,150.0 a 437.0627162224879,437.0627162224879 0 0,0 -292.69075,-0.0" stroke="rgb(15,11,255)" stroke-width="2" /><path d="M 733.5546999999999,150.0 a 437.0627162224879,437.0627162224879 0 0,0 -292.69075,-0.0" stroke="rgb(0,0,0)" stroke-width="0.2" /><path d="M 557.1591249999999,150.0 a 90.22143913083995,90.22143913083995 0 0,0 -86.34537499999999,-0.0" stroke="rgb(15,12,255)" stroke-width="2" /><path d="M 557.1591249999999,150.0 a 90.22143913083995,90.22143913083995 0 0,0 -86.34537499999999,-0.0" stroke="rgb(0,0,0)" stroke-width="0.2" /><path d="M 557.1591249999999,150.0 a 55.35624948003786,55.35624948003786 0 0,0 -56.39557500000001,-0.0" stroke="rgb(20,16,255)" stroke-width="2" /><path d="M 557.1591249999999,150.0 a 55.35624948003786,55.35624948003786 0 0,0 -56.39557500000001,-0.0" stroke="rgb(0,0,0)" stroke-width="0.2" /><path d="M 733.5546999999999,150.0 a 197.53671906767815,197.53671906767815 0 0,0 -145.0,-75.0" stroke="rgb(0,0,255)" stroke-width="2" /><path d="M 733.5546999999999,150.0 a 197.53671906767815,197.53671906767815 0 0,0 -145.0,-75.0" stroke="rgb(0,0,0)" stroke-width="0.2" /><path d="M 1282.41275,150.0 a 77.7435830991563,77.7435830991563 0 0,0 -76.0,-0.0" stroke="rgb(0,0,255)" stroke-width="2" /><path d="M 1282.41275,150.0 a 77.7435830991563,77.7435830991563 0 0,0 -76.0,-0.0" stroke="rgb(0,0,0)" stroke-width="0.2" /><path d="M 1486.4636999999998,225.0 a 32.78780605787832,32.78780605787832 0 0,0 -35.0,-0.0" stroke="rgb(104,81,255)" stroke-width="2" /><path d="M 1486.4636999999998,225.0 a 32.78780605787832,32.78780605787832 0 0,0 -35.0,-0.0" stroke="rgb(0,0,0)" stroke-width="0.2" /><path d="M 1620.5327,150.0 a 49.075961980051105,49.075961980051105 0 0,0 62.19664999999986,-75.0" stroke="rgb(0,0,255)" stroke-width="2" /><path d="M 1620.5327,150.0 a 49.075961980051105,49.075961980051105 0 0,0 62.19664999999986,-75.0" stroke="rgb(0,0,0)" stroke-width="0.2" /></svg>