<?xml version="1.0" encoding="utf-8" ?>
<svg baseProfile="full" height="100%" style="font-size:14;font-family:Sans, Arial;stroke-width:1;fill:none" version="1.1" width="100%" xmlns="http://www.w3.org/2000/svg" xmlns:ev="http://www.w3.org/2001/xml-events" xmlns:xlink="http://www.w3.org/1999/xlink"><defs /><rect fill="none" height="280.0" stroke="none" width="2096.8959999999997" x="0" y="0" /><line stroke="rgb(0,0,0)" x1="5.0" x2="41.666650000000004" y1="130.0" y2="130.0" /><line stroke="rgb(0,0,0)" x1="41.666650000000004" x2="61.666650000000004" y1="130.0" y2="130.0" /><line stroke="rgb(0,0,0)" x1="61.666650000000004" x2="66.66665" y1="130.0" y2="130.0" /><line stroke="rgb(0,0,0)" x1="66.66665" x2="76.66665" y1="130.0" y2="130.0" /><line stroke="rgb(0,0,0)" x1="76.66665" x2="96.66665" y1="130.0" y2="130.0" /><line stroke="rgb(0,0,0)" x1="96.66665" x2="101.66665" y1="130.0" y2="130.0" /><line stroke="rgb(0,0,0)" x1="101.66665" x2="111.66665" y1="130.0" y2="130.0" /><line stroke="rgb(0,0,0)" x1="111.66665" x2="131.66665" y1="130.0" y2="130.0" /><line stroke="rgb(0,0,0)" x1="131.66665" x2="136.66665" y1="130.0" y2="130.0" /><line stroke="rgb(0,0,0)" x1="136.66665" x2="146.66665" y1="130.0" y2="130.0" /><line stroke="rgb(0,0,0)" x1="146.66665" x2="166.66665" y1="130.0" y2="130.0" /><line stroke="rgb(0,0,0)" x1="166.66665" x2="171.66665" y1="130.0" y2="130.0" /><line stroke="rgb(0,0,0)" x1="171.66665" x2="223.66665" y1="130.0" y2="130.0" /><line stroke="rgb(0,0,0)" x1="223.66665" x2="243.66665" y1="130.0" y2="130.0" /><line stroke="rgb(0,0,0)" x1="243.66665" x2="248.66665" y1="130.0" y2="130.0" /><line stroke="rgb(0,0,0)" x1="248.66665" x2="258.66665" y1="130.0" y2="130.0" /><line stroke="rgb(0,0,0)" x1="258.66665" x2="278.66665" y1="130.0" y2="130.0" /><line stroke="rgb(0,0,0)" x1="278.66665" x2="283.66665" y1="130.0" y2="130.0" /><line stroke="rgb(0,0,0)" x1="283.66665" x2="333.48445" y1="130.0" y2="130.0" /><line stroke="rgb(0,0,0)" x1="333.48445" x2="353.48445" y1="130.0" y2="130.0" /><line stroke="rgb(0,0,0)" x1="353.48445" x2="358.48445" y1="130.0" y2="130.0" /><line stroke="rgb(0,0,0)" x1="358.48445" x2="378.48445" y1="130.0" y2="130.0" /><line stroke="rgb(0,0,0)" x1="378.48445" x2="398.48445" y1="130.0" y2="130.0" /><line stroke="rgb(0,0,0)" x1="398.48445" x2="403.48445" y1="130.0" y2="130.0" /><line stroke="rgb(0,0,0)" x1="403.48445" x2="413.48445" y1="130.0" y2="130.0" /><line stroke="rgb(0,0,0)" x1="413.48445" x2="433.48445" y1="130.0" y2="130.0" /><line stroke="rgb(0,0,0)" x1="433.48445" x2="438.48445" y1="130.0" y2="130.0" /><line stroke="rgb(0,0,0)" x1="438.48445" x2="448.48445" y1="130.0" y2="130.0" /><line stroke="rgb(0,0,0)" x1="448.48445" x2="468.48445" y1="130.0" y2="130.0" /><line stroke="rgb(0,0,0)" x1="468.48445" x2="473.48445" y1="130.0" y2="130.0" /><line stroke="rgb(0,0,0)" x1="473.48445" x2="488.36394999999993" y1="130.0" y2="130.0" /><line stroke="rgb(0,0,0)" x1="488.36394999999993" x2="508.36394999999993" y1="130.0" y2="130.0" /><line stroke="rgb(0,0,0)" x1="508.36394999999993" x2="513.3639499999999" y1="130.0" y2="130.0" /><line stroke="rgb(0,0,0)" x1="513.3639499999999" x2="533.3639499999999" y1="130.0" y2="130.0" /><line stroke="rgb(0,0,0)" x1="533.3639499999999" x2="553.3639499999999" y1="130.0" y2="130.0" /><line stroke="rgb(0,0,0)" x1="553.3639499999999" x2="558.3639499999999" y1="130.0" y2="130.0" /><line stroke="rgb(0,0,0)" x1="558.3639499999999" x2="568.3639499999999" y1="130.0" y2="130.0" /><line stroke="rgb(0,0,0)" x1="568.3639499999999" x2="588.3639499999999" y1="130.0" y2="130.0" /><line stroke="rgb(0,0,0)" x1="588.3639499999999" x2="593.3639499999999" y1="130.0" y2="130.0" /><line stroke="rgb(0,0,0)" x1="593.3639499999999" x2="613.2635499999999" y1="130.0" y2="130.0" /><line stroke="rgb(0,0,0)" x1="613.2635499999999" x2="633.2635499999999" y1="130.0" y2="130.0" /><line stroke="rgb(0,0,0)" x1="633.2635499999999" x2="638.2635499999999" y1="130.0" y2="130.0" /><line stroke="rgb(0,0,0)" x1="638.2635499999999" x2="648.2635499999999" y1="130.0" y2="130.0" /><line stroke="rgb(0,0,0)" x1="648.2635499999999" x2="668.2635499999999" y1="130.0" y2="130.0" /><line stroke="rgb(0,0,0)" x1="668.2635499999999" x2="673.2635499999999" y1="130.0" y2="130.0" /><line stroke="rgb(0,0,0)" x1="673.2635499999999" x2="683.2635499999999" y1="130.0" y2="130.0" /><line stroke="rgb(0,0,0)" x1="683.2635499999999" x2="703.2635499999999" y1="130.0" y2="130.0" /><line stroke="rgb(0,0,0)" x1="703.2635499999999" x2="708.2635499999999" y1="130.0" y2="130.0" /><line stroke="rgb(0,0,0)" x1="708.2635499999999" x2="731.0546999999999" y1="130.0" y2="130.0" /><line stroke="rgb(0,0,0)" x1="731.0546999999999" x2="751.0546999999999" y1="130.0" y2="55.0" /><line stroke="rgb(0,0,0)" x1="751.0546999999999" x2="756.0546999999999" y1="55.0" y2="55.0" /><line stroke="rgb(0,0,0)" x1="708.2635499999999" x2="731.0546999999999" y1="130.0" y2="130.0" /><line stroke="rgb(0,0,0)" x1="731.0546999999999" x2="751.0546999999999" y1="130.0" y2="205.0" /><line stroke="rgb(0,0,0)" x1="751.0546999999999" x2="756.0546999999999" y1="205.0" y2="205.0" /><line stroke="rgb(0,0,0)" x1="756.0546999999999" x2="796.0546999999999" y1="205.0" y2="205.0" /><line stroke="rgb(0,0,0)" x1="796.0546999999999" x2="816.0546999999999" y1="205.0" y2="130.0" /><line stroke="rgb(0,0,0)" x1="816.0546999999999" x2="821.0546999999999" y1="130.0" y2="130.0" /><line stroke="rgb(0,0,0)" x1="821.0546999999999" x2="861.0546999999999" y1="130.0" y2="130.0" /><line stroke="rgb(0,0,0)" x1="861.0546999999999" x2="881.0546999999999" y1="130.0" y2="130.0" /><line stroke="rgb(0,0,0)" x1="881.0546999999999" x2="886.0546999999999" y1="130.0" y2="130.0" /><line stroke="rgb(0,0,0)" x1="886.0546999999999" x2="906.0546999999999" y1="130.0" y2="130.0" /><line stroke="rgb(0,0,0)" x1="906.0546999999999" x2="926.0546999999999" y1="130.0" y2="130.0" /><line stroke="rgb(0,0,0)" x1="926.0546999999999" x2="931.0546999999999" y1="130.0" y2="130.0" /><line stroke="rgb(0,0,0)" x1="756.0546999999999" x2="766.0546999999999" y1="55.0" y2="55.0" /><line stroke="rgb(0,0,0)" x1="766.0546999999999" x2="926.0546999999999" y1="55.0" y2="130.0" /><line stroke="rgb(0,0,0)" x1="926.0546999999999" x2="931.0546999999999" y1="130.0" y2="130.0" /><line stroke="rgb(0,0,0)" x1="931.0546999999999" x2="941.0546999999999" y1="130.0" y2="130.0" /><line stroke="rgb(0,0,0)" x1="941.0546999999999" x2="961.0546999999999" y1="130.0" y2="130.0" /><line stroke="rgb(0,0,0)" x1="961.0546999999999" x2="966.0546999999999" y1="130.0" y2="130.0" /><line stroke="rgb(0,0,0)" x1="966.0546999999999" x2="1031.3202" y1="130.0" y2="130.0" /><line stroke="rgb(0,0,0)" x1="1031.3202" x2="1051.3201999999999" y1="130.0" y2="130.0" /><line stroke="rgb(0,0,0)" x1="1051.3201999999999" x2="1056.3201999999999" y1="130.0" y2="130.0" /><line stroke="rgb(0,0,0)" x1="1056.3201999999999" x2="1066.3201999999999" y1="130.0" y2="130.0" /><line stroke="rgb(0,0,0)" x1="1066.3201999999999" x2="1086.3201999999999" y1="130.0" y2="130.0" /><line stroke="rgb(0,0,0)" x1="1086.3201999999999" x2="1091.3201999999999" y1="130.0" y2="130.0" /><line stroke="rgb(0,0,0)" x1="1091.3201999999999" x2="1202.4602" y1="130.0" y2="130.0" /><line stroke="rgb(0,0,0)" x1="1202.4602" x2="1222.4602" y1="130.0" y2="130.0" /><line stroke="rgb(0,0,0)" x1="1222.4602" x2="1227.4602" y1="130.0" y2="130.0" /><line stroke="rgb(0,0,0)" x1="1227.4602" x2="1276.9360000000001" y1="130.0" y2="130.0" /><line stroke="rgb(0,0,0)" x1="1276.9360000000001" x2="1296.9360000000001" y1="130.0" y2="130.0" /><line stroke="rgb(0,0,0)" x1="1296.9360000000001" x2="1301.9360000000001" y1="130.0" y2="130.0" /><line stroke="rgb(0,0,0)" x1="1301.9360000000001" x2="1376.816" y1="130.0" y2="130.0" /><line stroke="rgb(0,0,0)" x1="1376.816" x2="1396.816" y1="130.0" y2="130.0" /><line stroke="rgb(0,0,0)" x1="1396.816" x2="1401.816" y1="130.0" y2="130.0" /><line stroke="rgb(0,0,0)" x1="1401.816" x2="1441.41275" y1="130.0" y2="130.0" /><line stroke="rgb(0,0,0)" x1="1441.41275" x2="1461.41275" y1="130.0" y2="130.0" /><line stroke="rgb(0,0,0)" x1="1461.41275" x2="1466.41275" y1="130.0" y2="130.0" /><line stroke="rgb(0,0,0)" x1="1466.41275" x2="1491.41275" y1="130.0" y2="130.0" /><line stroke="rgb(0,0,0)" x1="1491.41275" x2="1511.41275" y1="130.0" y2="130.0" /><line stroke="rgb(0,0,0)" x1="1511.41275" x2="1516.41275" y1="130.0" y2="130.0" /><line stroke="rgb(0,0,0)" x1="1516.41275" x2="1537.41275" y1="130.0" y2="130.0" /><line stroke="rgb(0,0,0)" x1="1537.41275" x2="1557.41275" y1="130.0" y2="130.0" /><line stroke="rgb(0,0,0)" x1="1557.41275" x2="1562.41275" y1="130.0" y2="130.0" /><line stroke="rgb(0,0,0)" x1="1562.41275" x2="1587.41275" y1="130.0" y2="130.0" /><line stroke="rgb(0,0,0)" x1="1587.41275" x2="1607.41275" y1="130.0" y2="130.0" /><line stroke="rgb(0,0,0)" x1="1607.41275" x2="1612.41275" y1="130.0" y2="130.0" /><line stroke="rgb(0,0,0)" x1="1612.41275" x2="1662.6536999999998" y1="130.0" y2="130.0" /><line stroke="rgb(0,0,0)" x1="1662.6536999999998" x2="1682.6536999999998" y1="130.0" y2="130.0" /><line stroke="rgb(0,0,0)" x1="1682.6536999999998" x2="1687.6536999999998" y1="130.0" y2="130.0" /><line stroke="rgb(0,0,0)" x1="1687.6536999999998" x2="1742.7136999999998" y1="130.0" y2="130.0" /><line stroke="rgb(0,0,0)" x1="1742.7136999999998" x2="1762.7136999999998" y1="130.0" y2="55.0" /><line stroke="rgb(0,0,0)" x1="1762.7136999999998" x2="1767.7136999999998" y1="55.0" y2="55.0" /><line stroke="rgb(0,0,0)" x1="1687.6536999999998" x2="1742.7136999999998" y1="130.0" y2="130.0" /><line stroke="rgb(0,0,0)" x1="1742.7136999999998" x2="1762.7136999999998" y1="130.0" y2="205.0" /><line stroke="rgb(0,0,0)" x1="1762.7136999999998" x2="1767.7136999999998" y1="205.0" y2="205.0" /><line stroke="rgb(0,0,0)" x1="1767.7136999999998" x2="1787.7136999999998" y1="55.0" y2="55.0" /><line stroke="rgb(0,0,0)" x1="1787.7136999999998" x2="1807.7136999999998" y1="55.0" y2="55.0" /><line stroke="rgb(0,0,0)" x1="1807.7136999999998" x2="1812.7136999999998" y1="55.0" y2="55.0" /><line stroke="rgb(0,0,0)" x1="1767.7136999999998" x2="1780.2136999999998" y1="205.0" y2="205.0" /><line stroke="rgb(0,0,0)" x1="1780.2136999999998" x2="1807.7136999999998" y1="205.0" y2="205.0" /><line stroke="rgb(0,0,0)" x1="1807.7136999999998" x2="1812.7136999999998" y1="205.0" y2="205.0" /><line stroke="rgb(0,0,0)" x1="1812.7136999999998" x2="1847.6727" y1="55.0" y2="55.0" /><line stroke="rgb(0,0,0)" x1="1847.6727" x2="1867.6727" y1="55.0" y2="130.0" /><line stroke="rgb(0,0,0)" x1="1867.6727" x2="1872.6727" y1="130.0" y2="130.0" /><line stroke="rgb(0,0,0)" x1="1812.7136999999998" x2="1825.2136999999998" y1="205.0" y2="205.0" /><line stroke="rgb(0,0,0)" x1="1825.2136999999998" x2="1867.6727" y1="205.0" y2="130.0" /><line stroke="rgb(0,0,0)" x1="1867.6727" x2="1872.6727" y1="130.0" y2="130.0" /><line stroke="rgb(0,0,0)" x1="1872.6727" x2="1943.0327" y1="130.0" y2="130.0" /><line stroke="rgb(0,0,0)" x1="1943.0327" x2="1963.0327" y1="130.0" y2="130.0" /><line stroke="rgb(0,0,0)" x1="1963.0327" x2="1968.0327" y1="130.0" y2="130.0" /><line stroke="rgb(0,0,0)" x1="1968.0327" x2="1978.0327" y1="130.0" y2="130.0" /><line stroke="rgb(0,0,0)" x1="1978.0327" x2="1998.0327" y1="130.0" y2="130.0" /><line stroke="rgb(0,0,0)" x1="1998.0327" x2="2003.0327" y1="130.0" y2="130.0" /><line stroke="rgb(0,0,0)" x1="2003.0327" x2="2025.2293499999998" y1="130.0" y2="130.0" /><line stroke="rgb(0,0,0)" x1="2025.2293499999998" x2="2045.2293499999996" y1="130.0" y2="55.0" /><line stroke="rgb(0,0,0)" x1="2045.2293499999996" x2="2050.2293499999996" y1="55.0" y2="55.0" /><line stroke="rgb(0,0,0)" x1="2003.0327" x2="2025.2293499999998" y1="130.0" y2="130.0" /><line stroke="rgb(0,0,0)" x1="2025.2293499999998" x2="2045.2293499999996" y1="130.0" y2="205.0" /><line stroke="rgb(0,0,0)" x1="2045.2293499999996" x2="2050.2293499999996" y1="205.0" y2="205.0" /><rect fill="rgb(150,150,150)" height="1.2" stroke="rgb(0,0,0)" width="31.66665" x="5.0" y="129.4" /><text fill="black" x="5.0" y="150.6">H0</text><rect fill="rgb(175,70,70)" height="0.8" stroke="rgb(0,0,0)" width="5.0" x="66.66665" y="129.6" /><text fill="black" x="66.66665" y="150.4">E1</text><rect fill="rgb(70,70,175)" height="0.8" stroke="rgb(0,0,0)" width="5.0" x="101.66665" y="129.6" /><text fill="black" x="101.66665" y="150.4">E2</text><rect fill="rgb(70,70,175)" height="0.8" stroke="rgb(0,0,0)" width="5.0" x="136.66665" y="129.6" /><text fill="black" x="136.66665" y="150.4">E3</text><rect fill="rgb(150,150,150)" height="4.0" stroke="rgb(0,0,0)" width="47.0" x="171.66665" y="128.0" /><text fill="black" x="171.66665" y="152.0">H4</text><rect fill="rgb(175,70,70)" height="0.8" stroke="rgb(0,0,0)" width="5.0" x="248.66665" y="129.6" /><text fill="black" x="248.66665" y="150.4">E5</text><rect fill="rgb(150,150,150)" height="98.8" stroke="rgb(0,0,0)" width="44.8178" x="283.66665" y="80.6" /><text fill="black" x="283.66665" y="199.4">H6</text><rect fill="rgb(150,150,150)" height="1.2" stroke="rgb(0,0,0)" width="15.0" x="358.48445" y="129.4" /><text fill="black" x="358.48445" y="150.6">H7</text><rect fill="rgb(150,150,255)" height="96.39999999999999" stroke="rgb(0,0,0)" width="5.0" x="403.48445" y="81.80000000000001" /><text fill="black" x="403.48445" y="198.2">E8</text><rect fill="rgb(150,255,150)" height="94.39999999999999" stroke="rgb(0,0,0)" width="5.0" x="438.48445" y="82.80000000000001" /><text fill="black" x="438.48445" y="197.2">E9</text><rect fill="rgb(255,150,150)" height="99.6" stroke="rgb(0,0,0)" width="9.8795" x="473.48445" y="80.2" /><text fill="black" x="473.48445" y="199.8">E10</text><rect fill="rgb(150,150,150)" height="0.8" stroke="rgb(0,0,0)" width="15.0" x="513.3639499999999" y="129.6" /><text fill="black" x="513.3639499999999" y="150.4">H11</text><rect fill="rgb(255,150,255)" height="1.2" stroke="rgb(0,0,0)" width="5.0" x="558.3639499999999" y="129.4" /><text fill="black" x="558.3639499999999" y="150.6">E12</text><rect fill="rgb(255,150,150)" height="99.6" stroke="rgb(0,0,0)" width="14.8996" x="593.3639499999999" y="80.2" /><text fill="black" x="593.3639499999999" y="199.8">E13</text><rect fill="rgb(255,150,150)" height="1.6" stroke="rgb(0,0,0)" width="5.0" x="638.2635499999999" y="129.2" /><text fill="black" x="638.2635499999999" y="150.8">E14</text><rect fill="rgb(150,150,255)" height="96.39999999999999" stroke="rgb(0,0,0)" width="5.0" x="673.2635499999999" y="81.80000000000001" /><text fill="black" x="673.2635499999999" y="198.2">E15</text><rect fill="rgb(255,150,150)" height="99.6" stroke="rgb(0,0,0)" width="17.791150000000002" x="708.2635499999999" y="80.2" /><text fill="black" x="708.2635499999999" y="199.8">E16</text><rect fill="rgb(255,150,255)" height="0.4" stroke="rgb(0,0,0)" width="5.0" x="756.0546999999999" y="54.8" /><text fill="black" x="756.0546999999999" y="75.2">E17</text><rect fill="rgb(150,150,150)" height="1.2" stroke="rgb(0,0,0)" width="35.0" x="756.0546999999999" y="204.4" /><text fill="black" x="756.0546999999999" y="225.6">H18</text><rect fill="rgb(150,150,150)" height="1.2" stroke="rgb(0,0,0)" width="35.0" x="821.0546999999999" y="129.4" /><text fill="black" x="821.0546999999999" y="150.6">H19</text><rect fill="rgb(150,150,150)" height="1.6" stroke="rgb(0,0,0)" width="15.0" x="886.0546999999999" y="129.2" /><text fill="black" x="886.0546999999999" y="150.8">H20</text><rect fill="rgb(255,150,255)" height="1.6" stroke="rgb(0,0,0)" width="5.0" x="931.0546999999999" y="129.2" /><text fill="black" x="931.0546999999999" y="150.8">E21</text><rect fill="rgb(150,150,150)" height="98.0" stroke="rgb(0,0,0)" width="60.2655" x="966.0546999999999" y="81.0" /><text fill="black" x="966.0546999999999" y="199.0">H22</text><rect fill="rgb(150,255,150)" height="94.39999999999999" stroke="rgb(0,0,0)" width="5.0" x="1056.3201999999999" y="82.80000000000001" /><text fill="black" x="1056.3201999999999" y="197.2">E23</text><rect fill="rgb(150,150,150)" height="100.0" stroke="rgb(0,0,0)" width="106.14000000000001" x="1091.3201999999999" y="80.0" /><text fill="black" x="1091.3201999999999" y="200.0">H24</text><rect fill="rgb(150,150,150)" height="99.2" stroke="rgb(0,0,0)" width="44.47580000000001" x="1227.4602" y="80.4" /><text fill="black" x="1227.4602" y="199.6">H25</text><rect fill="rgb(150,150,150)" height="100.0" stroke="rgb(0,0,0)" width="69.88000000000001" x="1301.9360000000001" y="80.0" /><text fill="black" x="1301.9360000000001" y="200.0">H26</text><rect fill="rgb(150,150,150)" height="99.2" stroke="rgb(0,0,0)" width="34.59675" x="1401.816" y="80.4" /><text fill="black" x="1401.816" y="199.6">H27</text><rect fill="rgb(150,255,255)" height="0.4" stroke="rgb(0,0,0)" width="20.0" x="1466.41275" y="129.8" /><text fill="black" x="1466.41275" y="150.2">E28</text><rect fill="rgb(150,150,150)" height="2.0" stroke="rgb(0,0,0)" width="16.0" x="1516.41275" y="129.0" /><text fill="black" x="1516.41275" y="151.0">H29</text><rect fill="rgb(150,255,255)" height="0.4" stroke="rgb(0,0,0)" width="20.0" x="1562.41275" y="129.8" /><text fill="black" x="1562.41275" y="150.2">E30</text><rect fill="rgb(150,150,150)" height="99.6" stroke="rgb(0,0,0)" width="45.24095" x="1612.41275" y="80.2" /><text fill="black" x="1612.41275" y="199.8">H31</text><rect fill="rgb(150,150,150)" height="100.0" stroke="rgb(0,0,0)" width="50.06" x="1687.6536999999998" y="80.0" /><text fill="black" x="1687.6536999999998" y="200.0">H32</text><rect fill="rgb(150,150,150)" height="0.4" stroke="rgb(0,0,0)" width="15.0" x="1767.7136999999998" y="54.8" /><text fill="black" x="1767.7136999999998" y="75.2">H33</text><rect fill="rgb(255,255,150)" height="0.8" stroke="rgb(0,0,0)" width="7.5" x="1767.7136999999998" y="204.6" /><text fill="black" x="1767.7136999999998" y="225.4">E34</text><rect fill="rgb(150,150,150)" height="97.6" stroke="rgb(0,0,0)" width="29.958999999999996" x="1812.7136999999998" y="6.200000000000003" /><text fill="black" x="1812.7136999999998" y="123.8">H35</text><rect fill="rgb(255,255,150)" height="0.8" stroke="rgb(0,0,0)" width="7.5" x="1812.7136999999998" y="204.6" /><text fill="black" x="1812.7136999999998" y="225.4">E36</text><rect fill="rgb(150,150,150)" height="100.0" stroke="rgb(0,0,0)" width="65.36" x="1872.6727" y="80.0" /><text fill="black" x="1872.6727" y="200.0">H37</text><rect fill="rgb(70,175,70)" height="0.4" stroke="rgb(0,0,0)" width="5.0" x="1968.0327" y="129.8" /><text fill="black" x="1968.0327" y="150.2">E38</text><rect fill="rgb(150,150,150)" height="95.6" stroke="rgb(0,0,0)" width="17.196649999999998" x="2003.0327" y="82.2" /><text fill="black" x="2003.0327" y="197.8">H39</text><rect fill="rgb(70,175,70)" height="0.4" stroke="rgb(0,0,0)" width="5.0" x="2050.2293499999996" y="54.8" /><text fill="black" x="2050.2293499999996" y="75.2">E40</text><rect fill="rgb(150,150,150)" height="1.2" stroke="rgb(0,0,0)" width="41.666650000000004" x="2050.2293499999996" y="204.4" /><text fill="black" x="2050.2293499999996" y="225.6">H41</text><path d="M 251.16665,130.0 a 257.074841385286,257.074841385286 0 0,0 -182.0,-0.0" stroke="rgb(175,70,70)" stroke-width="2" /><path d="M 251.16665,130.0 a 257.074841385286,257.074841385286 0 0,0 -182.0,-0.0" stroke="rgb(0,0,0)" stroke-width="0.2" /><path d="M 139.16665,130.0 a 38.262074780183596,38.262074780183596 0 0,0 -35.0,-0.0" stroke="rgb(70,70,175)" stroke-width="2" /><path d="M 139.16665,130.0 a 38.262074780183596,38.262074780183596 0 0,0 -35.0,-0.0" stroke="rgb(0,0,0)" stroke-width="0.2" /><path d="M 675.7635499999999,130.0 a 433.31180195040116,433.31180195040116 0 0,0 -269.7790999999999,-0.0" stroke="rgb(150,150,255)" stroke-width="2" /><path d="M 675.7635499999999,130.0 a 433.31180195040116,433.31180195040116 0 0,0 -269.7790999999999,-0.0" stroke="rgb(0,0,0)" stroke-width="0.2" /><path d="M 1058.8201999999999,130.0 a 1472.8092256546352,1472.8092256546352 0 0,0 -617.83575,-0.0" stroke="rgb(150,255,150)" stroke-width="2" /><path d="M 1058.8201999999999,130.0 a 1472.8092256546352,1472.8092256546352 0 0,0 -617.83575,-0.0" stroke="rgb(0,0,0)" stroke-width="0.2" /><path d="M 600.8137499999999,130.0 a 156.90980140061495,156.90980140061495 0 0,0 -122.38954999999993,-0.0" stroke="rgb(255,150,150)" stroke-width="2" /><path d="M 600.8137499999999,130.0 a 156.90980140061495,156.90980140061495 0 0,0 -122.38954999999993,-0.0" stroke="rgb(0,0,0)" stroke-width="0.2" /><path d="M 933.5546999999999,130.0 a 683.8421075741576,683.8421075741576 0 0,0 -372.69075,-0.0" stroke="rgb(255,150,255)" stroke-width="2" /><path d="M 933.5546999999999,130.0 a 683.8421075741576,683.8421075741576 0 0,0 -372.69075,-0.0" stroke="rgb(0,0,0)" stroke-width="0.2" /><path d="M 717.1591249999999,130.0 a 147.6292734251673,147.6292734251673 0 0,0 -116.34537499999999,-0.0" stroke="rgb(255,150,150)" stroke-width="2" /><path d="M 717.1591249999999,130.0 a 147.6292734251673,147.6292734251673 0 0,0 -116.34537499999999,-0.0" stroke="rgb(0,0,0)" stroke-width="0.2" /><path d="M 717.1591249999999,130.0 a 90.3171091611681,90.3171091611681 0 0,0 -76.39557500000001,-0.0" stroke="rgb(255,150,150)" stroke-width="2" /><path d="M 717.1591249999999,130.0 a 90.3171091611681,90.3171091611681 0 0,0 -76.39557500000001,-0.0" stroke="rgb(0,0,0)" stroke-width="0.2" /><path d="M 933.5546999999999,130.0 a 272.4443133026564,272.4443133026564 0 0,0 -175.0,-75.0" stroke="rgb(255,150,255)" stroke-width="2" /><path d="M 933.5546999999999,130.0 a 272.4443133026564,272.4443133026564 0 0,0 -175.0,-75.0" stroke="rgb(0,0,0)" stroke-width="0.2" /><path d="M 1572.41275,130.0 a 117.56881279265934,117.56881279265934 0 0,0 -96.0,-0.0" stroke="rgb(150,255,255)" stroke-width="2" /><path d="M 1572.41275,130.0 a 117.56881279265934,117.56881279265934 0 0,0 -96.0,-0.0" stroke="rgb(0,0,0)" stroke-width="0.2" /><path d="M 1816.4636999999998,205.0 a 50.15817531071002,50.15817531071002 0 0,0 -45.0,-0.0" stroke="rgb(255,255,150)" stroke-width="2" /><path d="M 1816.4636999999998,205.0 a 50.15817531071002,50.15817531071002 0 0,0 -45.0,-0.0" stroke="rgb(0,0,0)" stroke-width="0.2" /><path d="M 1970.5327,130.0 a 55.63929379823281,55.63929379823281 0 0,0 82.19664999999964,-75.0" stroke="rgb(70,175,70)" stroke-width="2" /><path d="M 1970.5327,130.0 a 55.63929379823281,55.63929379823281 0 0,0 82.19664999999964,-75.0" stroke="rgb(0,0,0)" stroke-width="0.2" /></svg>