<?xml version="1.0" encoding="utf-8" ?>
<svg baseProfile="full" height="100%" style="font-size:14;font-family:Sans, Arial;stroke-width:1;fill:none" version="1.1" width="100%" xmlns="http://www.w3.org/2000/svg" xmlns:ev="http://www.w3.org/2001/xml-events" xmlns:xlink="http://www.w3.org/1999/xlink"><defs /><rect fill="none" height="130.0" stroke="none" width="1150.5627000000002" x="0" y="0" /><line stroke="rgb(0,0,0)" x1="5.0" x2="54.8178" y1="55.0" y2="55.0" /><line stroke="rgb(0,0,0)" x1="54.8178" x2="74.81779999999999" y1="55.0" y2="55.0" /><line stroke="rgb(0,0,0)" x1="74.81779999999999" x2="79.81779999999999" y1="55.0" y2="55.0" /><line stroke="rgb(0,0,0)" x1="79.81779999999999" x2="89.81779999999999" y1="55.0" y2="55.0" /><line stroke="rgb(0,0,0)" x1="89.81779999999999" x2="109.8178" y1="55.0" y2="55.0" /><line stroke="rgb(0,0,0)" x1="109.8178" x2="114.8178" y1="55.0" y2="55.0" /><line stroke="rgb(0,0,0)" x1="114.8178" x2="124.8178" y1="55.0" y2="55.0" /><line stroke="rgb(0,0,0)" x1="124.8178" x2="144.8178" y1="55.0" y2="55.0" /><line stroke="rgb(0,0,0)" x1="144.8178" x2="149.8178" y1="55.0" y2="55.0" /><line stroke="rgb(0,0,0)" x1="149.8178" x2="164.6973" y1="55.0" y2="55.0" /><line stroke="rgb(0,0,0)" x1="164.6973" x2="184.69729999999998" y1="55.0" y2="55.0" /><line stroke="rgb(0,0,0)" x1="184.69729999999998" x2="189.69729999999998" y1="55.0" y2="55.0" /><line stroke="rgb(0,0,0)" x1="189.69729999999998" x2="209.59689999999998" y1="55.0" y2="55.0" /><line stroke="rgb(0,0,0)" x1="209.59689999999998" x2="229.59689999999998" y1="55.0" y2="55.0" /><line stroke="rgb(0,0,0)" x1="229.59689999999998" x2="234.59689999999998" y1="55.0" y2="55.0" /><line stroke="rgb(0,0,0)" x1="234.59689999999998" x2="244.59689999999998" y1="55.0" y2="55.0" /><line stroke="rgb(0,0,0)" x1="244.59689999999998" x2="264.5969" y1="55.0" y2="55.0" /><line stroke="rgb(0,0,0)" x1="264.5969" x2="269.5969" y1="55.0" y2="55.0" /><line stroke="rgb(0,0,0)" x1="269.5969" x2="292.38805" y1="55.0" y2="55.0" /><line stroke="rgb(0,0,0)" x1="292.38805" x2="312.38805" y1="55.0" y2="55.0" /><line stroke="rgb(0,0,0)" x1="312.38805" x2="317.38805" y1="55.0" y2="55.0" /><line stroke="rgb(0,0,0)" x1="317.38805" x2="382.65355" y1="55.0" y2="55.0" /><line stroke="rgb(0,0,0)" x1="382.65355" x2="402.65355" y1="55.0" y2="55.0" /><line stroke="rgb(0,0,0)" x1="402.65355" x2="407.65355" y1="55.0" y2="55.0" /><line stroke="rgb(0,0,0)" x1="407.65355" x2="417.65355" y1="55.0" y2="55.0" /><line stroke="rgb(0,0,0)" x1="417.65355" x2="437.65355" y1="55.0" y2="55.0" /><line stroke="rgb(0,0,0)" x1="437.65355" x2="442.65355" y1="55.0" y2="55.0" /><line stroke="rgb(0,0,0)" x1="442.65355" x2="553.7935500000001" y1="55.0" y2="55.0" /><line stroke="rgb(0,0,0)" x1="553.7935500000001" x2="573.7935500000001" y1="55.0" y2="55.0" /><line stroke="rgb(0,0,0)" x1="573.7935500000001" x2="578.7935500000001" y1="55.0" y2="55.0" /><line stroke="rgb(0,0,0)" x1="578.7935500000001" x2="628.26935" y1="55.0" y2="55.0" /><line stroke="rgb(0,0,0)" x1="628.26935" x2="648.26935" y1="55.0" y2="55.0" /><line stroke="rgb(0,0,0)" x1="648.26935" x2="653.26935" y1="55.0" y2="55.0" /><line stroke="rgb(0,0,0)" x1="653.26935" x2="728.14935" y1="55.0" y2="55.0" /><line stroke="rgb(0,0,0)" x1="728.14935" x2="748.14935" y1="55.0" y2="55.0" /><line stroke="rgb(0,0,0)" x1="748.14935" x2="753.14935" y1="55.0" y2="55.0" /><line stroke="rgb(0,0,0)" x1="753.14935" x2="792.7461000000001" y1="55.0" y2="55.0" /><line stroke="rgb(0,0,0)" x1="792.7461000000001" x2="812.7461000000001" y1="55.0" y2="55.0" /><line stroke="rgb(0,0,0)" x1="812.7461000000001" x2="817.7461000000001" y1="55.0" y2="55.0" /><line stroke="rgb(0,0,0)" x1="817.7461000000001" x2="867.9870500000002" y1="55.0" y2="55.0" /><line stroke="rgb(0,0,0)" x1="867.9870500000002" x2="887.9870500000002" y1="55.0" y2="55.0" /><line stroke="rgb(0,0,0)" x1="887.9870500000002" x2="892.9870500000002" y1="55.0" y2="55.0" /><line stroke="rgb(0,0,0)" x1="892.9870500000002" x2="948.0470500000001" y1="55.0" y2="55.0" /><line stroke="rgb(0,0,0)" x1="948.0470500000001" x2="968.0470500000001" y1="55.0" y2="55.0" /><line stroke="rgb(0,0,0)" x1="968.0470500000001" x2="973.0470500000001" y1="55.0" y2="55.0" /><line stroke="rgb(0,0,0)" x1="973.0470500000001" x2="1008.0060500000002" y1="55.0" y2="55.0" /><line stroke="rgb(0,0,0)" x1="1008.0060500000002" x2="1028.0060500000002" y1="55.0" y2="55.0" /><line stroke="rgb(0,0,0)" x1="1028.0060500000002" x2="1033.0060500000002" y1="55.0" y2="55.0" /><line stroke="rgb(0,0,0)" x1="1033.0060500000002" x2="1103.36605" y1="55.0" y2="55.0" /><line stroke="rgb(0,0,0)" x1="1103.36605" x2="1123.36605" y1="55.0" y2="55.0" /><line stroke="rgb(0,0,0)" x1="1123.36605" x2="1128.36605" y1="55.0" y2="55.0" /><rect fill="rgb(150,150,150)" height="98.8" stroke="rgb(0,0,0)" width="44.8178" x="5.0" y="5.600000000000001" /><text fill="black" x="5.0" y="124.4">H6</text><rect fill="rgb(150,150,255)" height="96.39999999999999" stroke="rgb(0,0,0)" width="5.0" x="79.81779999999999" y="6.800000000000004" /><text fill="black" x="79.81779999999999" y="123.19999999999999">E8</text><rect fill="rgb(150,255,150)" height="94.39999999999999" stroke="rgb(0,0,0)" width="5.0" x="114.8178" y="7.800000000000004" /><text fill="black" x="114.8178" y="122.19999999999999">E9</text><rect fill="rgb(255,150,150)" height="99.6" stroke="rgb(0,0,0)" width="9.8795" x="149.8178" y="5.200000000000003" /><text fill="black" x="149.8178" y="124.8">E10</text><rect fill="rgb(255,150,150)" height="99.6" stroke="rgb(0,0,0)" width="14.8996" x="189.69729999999998" y="5.200000000000003" /><text fill="black" x="189.69729999999998" y="124.8">E13</text><rect fill="rgb(150,150,255)" height="96.39999999999999" stroke="rgb(0,0,0)" width="5.0" x="234.59689999999998" y="6.800000000000004" /><text fill="black" x="234.59689999999998" y="123.19999999999999">E15</text><rect fill="rgb(255,150,150)" height="99.6" stroke="rgb(0,0,0)" width="17.791150000000002" x="269.5969" y="5.200000000000003" /><text fill="black" x="269.5969" y="124.8">E16</text><rect fill="rgb(150,150,150)" height="98.0" stroke="rgb(0,0,0)" width="60.2655" x="317.38805" y="6.0" /><text fill="black" x="317.38805" y="124.0">H22</text><rect fill="rgb(150,255,150)" height="94.39999999999999" stroke="rgb(0,0,0)" width="5.0" x="407.65355" y="7.800000000000004" /><text fill="black" x="407.65355" y="122.19999999999999">E23</text><rect fill="rgb(150,150,150)" height="100.0" stroke="rgb(0,0,0)" width="106.14000000000001" x="442.65355" y="5.0" /><text fill="black" x="442.65355" y="125.0">H24</text><rect fill="rgb(150,150,150)" height="99.2" stroke="rgb(0,0,0)" width="44.47580000000001" x="578.7935500000001" y="5.399999999999999" /><text fill="black" x="578.7935500000001" y="124.6">H25</text><rect fill="rgb(150,150,150)" height="100.0" stroke="rgb(0,0,0)" width="69.88000000000001" x="653.26935" y="5.0" /><text fill="black" x="653.26935" y="125.0">H26</text><rect fill="rgb(150,150,150)" height="99.2" stroke="rgb(0,0,0)" width="34.59675" x="753.14935" y="5.399999999999999" /><text fill="black" x="753.14935" y="124.6">H27</text><rect fill="rgb(150,150,150)" height="99.6" stroke="rgb(0,0,0)" width="45.24095" x="817.7461000000001" y="5.200000000000003" /><text fill="black" x="817.7461000000001" y="124.8">H31</text><rect fill="rgb(150,150,150)" height="100.0" stroke="rgb(0,0,0)" width="50.06" x="892.9870500000002" y="5.0" /><text fill="black" x="892.9870500000002" y="125.0">H32</text><rect fill="rgb(150,150,150)" height="97.6" stroke="rgb(0,0,0)" width="29.958999999999996" x="973.0470500000001" y="6.200000000000003" /><text fill="black" x="973.0470500000001" y="123.8">H35</text><rect fill="rgb(150,150,150)" height="100.0" stroke="rgb(0,0,0)" width="65.36" x="1033.0060500000002" y="5.0" /><text fill="black" x="1033.0060500000002" y="125.0">H37</text><rect fill="rgb(150,150,150)" height="95.6" stroke="rgb(0,0,0)" width="17.196649999999998" x="1128.36605" y="7.200000000000003" /><text fill="black" x="1128.36605" y="122.8">H39</text><path d="M 237.09689999999998,55.0 a 146.45235716790188,146.45235716790188 0 0,0 -154.77909999999997,-0.0" stroke="rgb(150,150,255)" stroke-width="2" /><path d="M 237.09689999999998,55.0 a 146.45235716790188,146.45235716790188 0 0,0 -154.77909999999997,-0.0" stroke="rgb(0,0,0)" stroke-width="0.2" /><path d="M 410.15355,55.0 a 363.4400019935439,363.4400019935439 0 0,0 -292.83574999999996,-0.0" stroke="rgb(150,255,150)" stroke-width="2" /><path d="M 410.15355,55.0 a 363.4400019935439,363.4400019935439 0 0,0 -292.83574999999996,-0.0" stroke="rgb(0,0,0)" stroke-width="0.2" /><path d="M 197.1471,55.0 a 30.530632070227995,30.530632070227995 0 0,0 -42.389549999999986,-0.0" stroke="rgb(255,150,150)" stroke-width="2" /><path d="M 197.1471,55.0 a 30.530632070227995,30.530632070227995 0 0,0 -42.389549999999986,-0.0" stroke="rgb(0,0,0)" stroke-width="0.2" /><path d="M 278.492475,55.0 a 64.76339124334463,64.76339124334463 0 0,0 -81.34537500000002,-0.0" stroke="rgb(255,150,150)" stroke-width="2" /><path d="M 278.492475,55.0 a 64.76339124334463,64.76339124334463 0 0,0 -81.34537500000002,-0.0" stroke="rgb(0,0,0)" stroke-width="0.2" /></svg>