<?xml version="1.0" encoding="utf-8" ?>
<svg baseProfile="full" height="100%" style="font-size:14;font-family:Sans, Arial;stroke-width:1;fill:none" version="1.1" width="100%" xmlns="http://www.w3.org/2000/svg" xmlns:ev="http://www.w3.org/2001/xml-events" xmlns:xlink="http://www.w3.org/1999/xlink"><defs /><rect fill="none" height="130.0" stroke="none" width="1375.0" x="0" y="0" /><line stroke="rgb(0,0,0)" x1="5.0" x2="65.0" y1="55.0" y2="55.0" /><line stroke="rgb(0,0,0)" x1="65.0" x2="85.0" y1="55.0" y2="55.0" /><line stroke="rgb(0,0,0)" x1="85.0" x2="90.0" y1="55.0" y2="55.0" /><line stroke="rgb(0,0,0)" x1="90.0" x2="100.0" y1="55.0" y2="55.0" /><line stroke="rgb(0,0,0)" x1="100.0" x2="120.0" y1="55.0" y2="55.0" /><line stroke="rgb(0,0,0)" x1="120.0" x2="125.0" y1="55.0" y2="55.0" /><line stroke="rgb(0,0,0)" x1="125.0" x2="135.0" y1="55.0" y2="55.0" /><line stroke="rgb(0,0,0)" x1="135.0" x2="155.0" y1="55.0" y2="55.0" /><line stroke="rgb(0,0,0)" x1="155.0" x2="160.0" y1="55.0" y2="55.0" /><line stroke="rgb(0,0,0)" x1="160.0" x2="175.0" y1="55.0" y2="55.0" /><line stroke="rgb(0,0,0)" x1="175.0" x2="195.0" y1="55.0" y2="55.0" /><line stroke="rgb(0,0,0)" x1="195.0" x2="200.0" y1="55.0" y2="55.0" /><line stroke="rgb(0,0,0)" x1="200.0" x2="225.0" y1="55.0" y2="55.0" /><line stroke="rgb(0,0,0)" x1="225.0" x2="245.0" y1="55.0" y2="55.0" /><line stroke="rgb(0,0,0)" x1="245.0" x2="250.0" y1="55.0" y2="55.0" /><line stroke="rgb(0,0,0)" x1="250.0" x2="260.0" y1="55.0" y2="55.0" /><line stroke="rgb(0,0,0)" x1="260.0" x2="280.0" y1="55.0" y2="55.0" /><line stroke="rgb(0,0,0)" x1="280.0" x2="285.0" y1="55.0" y2="55.0" /><line stroke="rgb(0,0,0)" x1="285.0" x2="315.0" y1="55.0" y2="55.0" /><line stroke="rgb(0,0,0)" x1="315.0" x2="335.0" y1="55.0" y2="55.0" /><line stroke="rgb(0,0,0)" x1="335.0" x2="340.0" y1="55.0" y2="55.0" /><line stroke="rgb(0,0,0)" x1="340.0" x2="440.0" y1="55.0" y2="55.0" /><line stroke="rgb(0,0,0)" x1="440.0" x2="460.0" y1="55.0" y2="55.0" /><line stroke="rgb(0,0,0)" x1="460.0" x2="465.0" y1="55.0" y2="55.0" /><line stroke="rgb(0,0,0)" x1="465.0" x2="475.0" y1="55.0" y2="55.0" /><line stroke="rgb(0,0,0)" x1="475.0" x2="495.0" y1="55.0" y2="55.0" /><line stroke="rgb(0,0,0)" x1="495.0" x2="500.0" y1="55.0" y2="55.0" /><line stroke="rgb(0,0,0)" x1="500.0" x2="635.0" y1="55.0" y2="55.0" /><line stroke="rgb(0,0,0)" x1="635.0" x2="655.0" y1="55.0" y2="55.0" /><line stroke="rgb(0,0,0)" x1="655.0" x2="660.0" y1="55.0" y2="55.0" /><line stroke="rgb(0,0,0)" x1="660.0" x2="715.0" y1="55.0" y2="55.0" /><line stroke="rgb(0,0,0)" x1="715.0" x2="735.0" y1="55.0" y2="55.0" /><line stroke="rgb(0,0,0)" x1="735.0" x2="740.0" y1="55.0" y2="55.0" /><line stroke="rgb(0,0,0)" x1="740.0" x2="815.0" y1="55.0" y2="55.0" /><line stroke="rgb(0,0,0)" x1="815.0" x2="835.0" y1="55.0" y2="55.0" /><line stroke="rgb(0,0,0)" x1="835.0" x2="840.0" y1="55.0" y2="55.0" /><line stroke="rgb(0,0,0)" x1="840.0" x2="915.0" y1="55.0" y2="55.0" /><line stroke="rgb(0,0,0)" x1="915.0" x2="935.0" y1="55.0" y2="55.0" /><line stroke="rgb(0,0,0)" x1="935.0" x2="940.0" y1="55.0" y2="55.0" /><line stroke="rgb(0,0,0)" x1="940.0" x2="1030.0" y1="55.0" y2="55.0" /><line stroke="rgb(0,0,0)" x1="1030.0" x2="1050.0" y1="55.0" y2="55.0" /><line stroke="rgb(0,0,0)" x1="1050.0" x2="1055.0" y1="55.0" y2="55.0" /><line stroke="rgb(0,0,0)" x1="1055.0" x2="1140.0" y1="55.0" y2="55.0" /><line stroke="rgb(0,0,0)" x1="1140.0" x2="1160.0" y1="55.0" y2="55.0" /><line stroke="rgb(0,0,0)" x1="1160.0" x2="1165.0" y1="55.0" y2="55.0" /><line stroke="rgb(0,0,0)" x1="1165.0" x2="1200.0" y1="55.0" y2="55.0" /><line stroke="rgb(0,0,0)" x1="1200.0" x2="1220.0" y1="55.0" y2="55.0" /><line stroke="rgb(0,0,0)" x1="1220.0" x2="1225.0" y1="55.0" y2="55.0" /><line stroke="rgb(0,0,0)" x1="1225.0" x2="1315.0" y1="55.0" y2="55.0" /><line stroke="rgb(0,0,0)" x1="1315.0" x2="1335.0" y1="55.0" y2="55.0" /><line stroke="rgb(0,0,0)" x1="1335.0" x2="1340.0" y1="55.0" y2="55.0" /><polygon fill="rgb(150,150,150)" points="60.0,55.0 60.0,54.6 57.5,54.6 57.5,54.0 55.0,54.0 55.0,7.0 52.5,7.0 52.5,6.200000000000003 45.0,6.200000000000003 45.0,5.600000000000001 32.5,5.600000000000001 32.5,5.600000000000001 20.0,5.600000000000001 20.0,6.200000000000003 12.5,6.200000000000003 12.5,7.0 10.0,7.0 10.0,54.0 7.5,54.0 7.5,54.6 5.0,54.6 5.0,55.0 5.0,55.0 5.0,55.4 7.5,55.4 7.5,56.0 10.0,56.0 10.0,103.0 12.5,103.0 12.5,103.8 20.0,103.8 20.0,104.4 32.5,104.4 32.5,104.4 45.0,104.4 45.0,103.8 52.5,103.8 52.5,103.0 55.0,103.0 55.0,56.0 57.5,56.0 57.5,55.4 60.0,55.4 60.0,55.0" stroke="rgb(0,0,0)" /><text fill="black" x="5.0" y="124.4">H6</text><polygon fill="rgb(150,150,255)" points="95.0,55.0 95.0,6.800000000000004 92.5,6.800000000000004 92.5,6.800000000000004 90.0,6.800000000000004 90.0,55.0 90.0,55.0 90.0,103.19999999999999 92.5,103.19999999999999 92.5,103.19999999999999 95.0,103.19999999999999 95.0,55.0" stroke="rgb(0,0,0)" /><text fill="black" x="90.0" y="123.19999999999999">E8</text><polygon fill="rgb(150,255,150)" points="130.0,55.0 130.0,7.800000000000004 127.5,7.800000000000004 127.5,7.800000000000004 125.0,7.800000000000004 125.0,55.0 125.0,55.0 125.0,102.19999999999999 127.5,102.19999999999999 127.5,102.19999999999999 130.0,102.19999999999999 130.0,55.0" stroke="rgb(0,0,0)" /><text fill="black" x="125.0" y="122.19999999999999">E9</text><polygon fill="rgb(255,150,150)" points="170.0,55.0 170.0,6.399999999999999 167.5,6.399999999999999 167.5,5.200000000000003 165.0,5.200000000000003 165.0,5.200000000000003 162.5,5.200000000000003 162.5,6.399999999999999 160.0,6.399999999999999 160.0,55.0 160.0,55.0 160.0,103.6 162.5,103.6 162.5,104.8 165.0,104.8 165.0,104.8 167.5,104.8 167.5,103.6 170.0,103.6 170.0,55.0" stroke="rgb(0,0,0)" /><text fill="black" x="160.0" y="124.8">E10</text><polygon fill="rgb(255,150,150)" points="220.0,55.0 220.0,54.6 217.5,54.6 217.5,6.600000000000001 215.0,6.600000000000001 215.0,5.200000000000003 210.0,5.200000000000003 210.0,5.200000000000003 205.0,5.200000000000003 205.0,6.600000000000001 202.5,6.600000000000001 202.5,54.6 200.0,54.6 200.0,55.0 200.0,55.0 200.0,55.4 202.5,55.4 202.5,103.4 205.0,103.4 205.0,104.8 210.0,104.8 210.0,104.8 215.0,104.8 215.0,103.4 217.5,103.4 217.5,55.4 220.0,55.4 220.0,55.0" stroke="rgb(0,0,0)" /><text fill="black" x="200.0" y="124.8">E13</text><polygon fill="rgb(150,150,255)" points="255.0,55.0 255.0,6.800000000000004 252.5,6.800000000000004 252.5,6.800000000000004 250.0,6.800000000000004 250.0,55.0 250.0,55.0 250.0,103.19999999999999 252.5,103.19999999999999 252.5,103.19999999999999 255.0,103.19999999999999 255.0,55.0" stroke="rgb(0,0,0)" /><text fill="black" x="250.0" y="123.19999999999999">E15</text><polygon fill="rgb(255,150,150)" points="310.0,55.0 310.0,54.6 307.5,54.6 307.5,16.0 302.5,16.0 302.5,6.0 300.0,6.0 300.0,5.200000000000003 297.5,5.200000000000003 297.5,5.200000000000003 295.0,5.200000000000003 295.0,6.0 292.5,6.0 292.5,16.0 287.5,16.0 287.5,54.6 285.0,54.6 285.0,55.0 285.0,55.0 285.0,55.4 287.5,55.4 287.5,94.0 292.5,94.0 292.5,104.0 295.0,104.0 295.0,104.8 297.5,104.8 297.5,104.8 300.0,104.8 300.0,104.0 302.5,104.0 302.5,94.0 307.5,94.0 307.5,55.4 310.0,55.4 310.0,55.0" stroke="rgb(0,0,0)" /><text fill="black" x="285.0" y="124.8">E16</text><polygon fill="rgb(150,150,150)" points="435.0,55.0 435.0,54.6 422.5,54.6 422.5,54.4 417.5,54.4 417.5,6.600000000000001 415.0,6.600000000000001 415.0,6.0 387.5,6.0 387.5,6.0 360.0,6.0 360.0,6.600000000000001 357.5,6.600000000000001 357.5,54.4 352.5,54.4 352.5,54.6 340.0,54.6 340.0,55.0 340.0,55.0 340.0,55.4 352.5,55.4 352.5,55.6 357.5,55.6 357.5,103.4 360.0,103.4 360.0,104.0 387.5,104.0 387.5,104.0 415.0,104.0 415.0,103.4 417.5,103.4 417.5,55.6 422.5,55.6 422.5,55.4 435.0,55.4 435.0,55.0" stroke="rgb(0,0,0)" /><text fill="black" x="340.0" y="124.0">H22</text><polygon fill="rgb(150,255,150)" points="470.0,55.0 470.0,7.800000000000004 467.5,7.800000000000004 467.5,7.800000000000004 465.0,7.800000000000004 465.0,55.0 465.0,55.0 465.0,102.19999999999999 467.5,102.19999999999999 467.5,102.19999999999999 470.0,102.19999999999999 470.0,55.0" stroke="rgb(0,0,0)" /><text fill="black" x="465.0" y="122.19999999999999">E23</text><polygon fill="rgb(150,150,150)" points="630.0,55.0 630.0,54.2 622.5,54.2 622.5,53.8 620.0,53.8 620.0,45.0 617.5,45.0 617.5,5.600000000000001 615.0,5.600000000000001 615.0,5.399999999999999 610.0,5.399999999999999 610.0,5.200000000000003 600.0,5.200000000000003 600.0,5.0 565.0,5.0 565.0,5.0 530.0,5.0 530.0,5.200000000000003 520.0,5.200000000000003 520.0,5.399999999999999 515.0,5.399999999999999 515.0,5.600000000000001 512.5,5.600000000000001 512.5,45.0 510.0,45.0 510.0,53.8 507.5,53.8 507.5,54.2 500.0,54.2 500.0,55.0 500.0,55.0 500.0,55.8 507.5,55.8 507.5,56.2 510.0,56.2 510.0,65.0 512.5,65.0 512.5,104.4 515.0,104.4 515.0,104.6 520.0,104.6 520.0,104.8 530.0,104.8 530.0,105.0 565.0,105.0 565.0,105.0 600.0,105.0 600.0,104.8 610.0,104.8 610.0,104.6 615.0,104.6 615.0,104.4 617.5,104.4 617.5,65.0 620.0,65.0 620.0,56.2 622.5,56.2 622.5,55.8 630.0,55.8 630.0,55.0" stroke="rgb(0,0,0)" /><text fill="black" x="500.0" y="125.0">H24</text><polygon fill="rgb(150,150,150)" points="710.0,55.0 710.0,54.8 707.5,54.8 707.5,6.399999999999999 700.0,6.399999999999999 700.0,6.200000000000003 692.5,6.200000000000003 692.5,5.399999999999999 685.0,5.399999999999999 685.0,5.399999999999999 677.5,5.399999999999999 677.5,6.200000000000003 670.0,6.200000000000003 670.0,6.399999999999999 662.5,6.399999999999999 662.5,54.8 660.0,54.8 660.0,55.0 660.0,55.0 660.0,55.2 662.5,55.2 662.5,103.6 670.0,103.6 670.0,103.8 677.5,103.8 677.5,104.6 685.0,104.6 685.0,104.6 692.5,104.6 692.5,103.8 700.0,103.8 700.0,103.6 707.5,103.6 707.5,55.2 710.0,55.2 710.0,55.0" stroke="rgb(0,0,0)" /><text fill="black" x="660.0" y="124.6">H25</text><polygon fill="rgb(150,150,150)" points="810.0,55.0 810.0,5.399999999999999 802.5,5.399999999999999 802.5,5.0 775.0,5.0 775.0,5.0 747.5,5.0 747.5,5.399999999999999 740.0,5.399999999999999 740.0,55.0 740.0,55.0 740.0,104.6 747.5,104.6 747.5,105.0 775.0,105.0 775.0,105.0 802.5,105.0 802.5,104.6 810.0,104.6 810.0,55.0" stroke="rgb(0,0,0)" /><text fill="black" x="740.0" y="125.0">H26</text><polygon fill="rgb(150,150,150)" points="910.0,55.0 910.0,54.8 892.5,54.8 892.5,7.600000000000001 890.0,7.600000000000001 890.0,7.200000000000003 887.5,7.200000000000003 887.5,6.399999999999999 885.0,6.399999999999999 885.0,5.799999999999997 882.5,5.799999999999997 882.5,5.399999999999999 875.0,5.399999999999999 875.0,5.399999999999999 867.5,5.399999999999999 867.5,5.799999999999997 865.0,5.799999999999997 865.0,6.399999999999999 862.5,6.399999999999999 862.5,7.200000000000003 860.0,7.200000000000003 860.0,7.600000000000001 857.5,7.600000000000001 857.5,54.8 840.0,54.8 840.0,55.0 840.0,55.0 840.0,55.2 857.5,55.2 857.5,102.4 860.0,102.4 860.0,102.8 862.5,102.8 862.5,103.6 865.0,103.6 865.0,104.2 867.5,104.2 867.5,104.6 875.0,104.6 875.0,104.6 882.5,104.6 882.5,104.2 885.0,104.2 885.0,103.6 887.5,103.6 887.5,102.8 890.0,102.8 890.0,102.4 892.5,102.4 892.5,55.2 910.0,55.2 910.0,55.0" stroke="rgb(0,0,0)" /><text fill="black" x="840.0" y="124.6">H27</text><polygon fill="rgb(150,150,150)" points="1025.0,55.0 1025.0,54.8 1022.5,54.8 1022.5,54.6 1005.0,54.6 1005.0,5.799999999999997 1002.5,5.799999999999997 1002.5,5.200000000000003 982.5,5.200000000000003 982.5,5.200000000000003 962.5,5.200000000000003 962.5,5.799999999999997 960.0,5.799999999999997 960.0,54.6 942.5,54.6 942.5,54.8 940.0,54.8 940.0,55.0 940.0,55.0 940.0,55.2 942.5,55.2 942.5,55.4 960.0,55.4 960.0,104.2 962.5,104.2 962.5,104.8 982.5,104.8 982.5,104.8 1002.5,104.8 1002.5,104.2 1005.0,104.2 1005.0,55.4 1022.5,55.4 1022.5,55.2 1025.0,55.2 1025.0,55.0" stroke="rgb(0,0,0)" /><text fill="black" x="940.0" y="124.8">H31</text><polygon fill="rgb(150,150,150)" points="1135.0,55.0 1135.0,54.8 1122.5,54.8 1122.5,54.2 1120.0,54.2 1120.0,5.200000000000003 1105.0,5.200000000000003 1105.0,5.0 1095.0,5.0 1095.0,5.0 1085.0,5.0 1085.0,5.200000000000003 1070.0,5.200000000000003 1070.0,54.2 1067.5,54.2 1067.5,54.8 1055.0,54.8 1055.0,55.0 1055.0,55.0 1055.0,55.2 1067.5,55.2 1067.5,55.8 1070.0,55.8 1070.0,104.8 1085.0,104.8 1085.0,105.0 1095.0,105.0 1095.0,105.0 1105.0,105.0 1105.0,104.8 1120.0,104.8 1120.0,55.8 1122.5,55.8 1122.5,55.2 1135.0,55.2 1135.0,55.0" stroke="rgb(0,0,0)" /><text fill="black" x="1055.0" y="125.0">H32</text><polygon fill="rgb(150,150,150)" points="1195.0,55.0 1195.0,6.399999999999999 1190.0,6.399999999999999 1190.0,6.200000000000003 1180.0,6.200000000000003 1180.0,6.200000000000003 1170.0,6.200000000000003 1170.0,6.399999999999999 1165.0,6.399999999999999 1165.0,55.0 1165.0,55.0 1165.0,103.6 1170.0,103.6 1170.0,103.8 1180.0,103.8 1180.0,103.8 1190.0,103.8 1190.0,103.6 1195.0,103.6 1195.0,55.0" stroke="rgb(0,0,0)" /><text fill="black" x="1165.0" y="123.8">H35</text><polygon fill="rgb(150,150,150)" points="1310.0,55.0 1310.0,54.4 1307.5,54.4 1307.5,54.2 1305.0,54.2 1305.0,54.0 1302.5,54.0 1302.5,53.8 1300.0,53.8 1300.0,5.0 1267.5,5.0 1267.5,5.0 1235.0,5.0 1235.0,53.8 1232.5,53.8 1232.5,54.0 1230.0,54.0 1230.0,54.2 1227.5,54.2 1227.5,54.4 1225.0,54.4 1225.0,55.0 1225.0,55.0 1225.0,55.6 1227.5,55.6 1227.5,55.8 1230.0,55.8 1230.0,56.0 1232.5,56.0 1232.5,56.2 1235.0,56.2 1235.0,105.0 1267.5,105.0 1267.5,105.0 1300.0,105.0 1300.0,56.2 1302.5,56.2 1302.5,56.0 1305.0,56.0 1305.0,55.8 1307.5,55.8 1307.5,55.6 1310.0,55.6 1310.0,55.0" stroke="rgb(0,0,0)" /><text fill="black" x="1225.0" y="125.0">H37</text><polygon fill="rgb(150,150,150)" points="1370.0,55.0 1370.0,54.8 1367.5,54.8 1367.5,45.2 1365.0,45.2 1365.0,44.0 1362.5,44.0 1362.5,7.200000000000003 1355.0,7.200000000000003 1355.0,7.200000000000003 1347.5,7.200000000000003 1347.5,44.0 1345.0,44.0 1345.0,45.2 1342.5,45.2 1342.5,54.8 1340.0,54.8 1340.0,55.0 1340.0,55.0 1340.0,55.2 1342.5,55.2 1342.5,64.8 1345.0,64.8 1345.0,66.0 1347.5,66.0 1347.5,102.8 1355.0,102.8 1355.0,102.8 1362.5,102.8 1362.5,66.0 1365.0,66.0 1365.0,64.8 1367.5,64.8 1367.5,55.2 1370.0,55.2 1370.0,55.0" stroke="rgb(0,0,0)" /><text fill="black" x="1340.0" y="122.8">H39</text><path d="M 252.5,55.0 a 168.29676071055383,168.29676071055383 0 0,0 -160.0,-0.0" stroke="rgb(150,150,255)" stroke-width="2" /><path d="M 252.5,55.0 a 168.29676071055383,168.29676071055383 0 0,0 -160.0,-0.0" stroke="rgb(0,0,0)" stroke-width="0.2" /><path d="M 467.5,55.0 a 490.43052475979306,490.43052475979306 0 0,0 -340.0,-0.0" stroke="rgb(150,255,150)" stroke-width="2" /><path d="M 467.5,55.0 a 490.43052475979306,490.43052475979306 0 0,0 -340.0,-0.0" stroke="rgb(0,0,0)" stroke-width="0.2" /><path d="M 210.0,55.0 a 36.59446022727273,36.59446022727273 0 0,0 -45.0,-0.0" stroke="rgb(255,150,150)" stroke-width="2" /><path d="M 210.0,55.0 a 36.59446022727273,36.59446022727273 0 0,0 -45.0,-0.0" stroke="rgb(0,0,0)" stroke-width="0.2" /><path d="M 297.5,55.0 a 78.72599921630093,78.72599921630093 0 0,0 -87.5,-0.0" stroke="rgb(255,150,150)" stroke-width="2" /><path d="M 297.5,55.0 a 78.72599921630093,78.72599921630093 0 0,0 -87.5,-0.0" stroke="rgb(0,0,0)" stroke-width="0.2" /></svg>