<?xml version="1.0" encoding="utf-8" ?>
<svg baseProfile="full" height="100%" style="font-size:14;font-family:Sans, Arial;stroke-width:1;fill:none" version="1.1" width="100%" xmlns="http://www.w3.org/2000/svg" xmlns:ev="http://www.w3.org/2001/xml-events" xmlns:xlink="http://www.w3.org/1999/xlink"><defs /><rect fill="none" height="150.0" stroke="none" width="980.5627000000003" x="0" y="0" /><line stroke="rgb(0,0,0)" x1="5.0" x2="54.8178" y1="75.0" y2="75.0" /><line stroke="rgb(0,0,0)" x1="54.8178" x2="64.81779999999999" y1="75.0" y2="75.0" /><line stroke="rgb(0,0,0)" x1="64.81779999999999" x2="69.81779999999999" y1="75.0" y2="75.0" /><line stroke="rgb(0,0,0)" x1="69.81779999999999" x2="79.81779999999999" y1="75.0" y2="75.0" /><line stroke="rgb(0,0,0)" x1="79.81779999999999" x2="89.8178" y1="75.0" y2="75.0" /><line stroke="rgb(0,0,0)" x1="89.8178" x2="94.8178" y1="75.0" y2="75.0" /><line stroke="rgb(0,0,0)" x1="94.8178" x2="104.8178" y1="75.0" y2="75.0" /><line stroke="rgb(0,0,0)" x1="104.8178" x2="114.8178" y1="75.0" y2="75.0" /><line stroke="rgb(0,0,0)" x1="114.8178" x2="119.8178" y1="75.0" y2="75.0" /><line stroke="rgb(0,0,0)" x1="119.8178" x2="134.69729999999998" y1="75.0" y2="75.0" /><line stroke="rgb(0,0,0)" x1="134.69729999999998" x2="144.6973" y1="75.0" y2="75.0" /><line stroke="rgb(0,0,0)" x1="144.6973" x2="149.6973" y1="75.0" y2="75.0" /><line stroke="rgb(0,0,0)" x1="149.6973" x2="169.5969" y1="75.0" y2="75.0" /><line stroke="rgb(0,0,0)" x1="169.5969" x2="179.5969" y1="75.0" y2="75.0" /><line stroke="rgb(0,0,0)" x1="179.5969" x2="184.5969" y1="75.0" y2="75.0" /><line stroke="rgb(0,0,0)" x1="184.5969" x2="194.5969" y1="75.0" y2="75.0" /><line stroke="rgb(0,0,0)" x1="194.5969" x2="204.5969" y1="75.0" y2="75.0" /><line stroke="rgb(0,0,0)" x1="204.5969" x2="209.5969" y1="75.0" y2="75.0" /><line stroke="rgb(0,0,0)" x1="209.5969" x2="232.38805000000002" y1="75.0" y2="75.0" /><line stroke="rgb(0,0,0)" x1="232.38805000000002" x2="242.38805000000002" y1="75.0" y2="75.0" /><line stroke="rgb(0,0,0)" x1="242.38805000000002" x2="247.38805000000002" y1="75.0" y2="75.0" /><line stroke="rgb(0,0,0)" x1="247.38805000000002" x2="312.65355000000005" y1="75.0" y2="75.0" /><line stroke="rgb(0,0,0)" x1="312.65355000000005" x2="322.65355" y1="75.0" y2="75.0" /><line stroke="rgb(0,0,0)" x1="322.65355" x2="327.65355" y1="75.0" y2="75.0" /><line stroke="rgb(0,0,0)" x1="327.65355" x2="337.65355" y1="75.0" y2="75.0" /><line stroke="rgb(0,0,0)" x1="337.65355" x2="347.65355" y1="75.0" y2="75.0" /><line stroke="rgb(0,0,0)" x1="347.65355" x2="352.65355" y1="75.0" y2="75.0" /><line stroke="rgb(0,0,0)" x1="352.65355" x2="463.79355000000004" y1="75.0" y2="75.0" /><line stroke="rgb(0,0,0)" x1="463.79355000000004" x2="473.79355000000004" y1="75.0" y2="75.0" /><line stroke="rgb(0,0,0)" x1="473.79355000000004" x2="478.79355000000004" y1="75.0" y2="75.0" /><line stroke="rgb(0,0,0)" x1="478.79355000000004" x2="528.26935" y1="75.0" y2="75.0" /><line stroke="rgb(0,0,0)" x1="528.26935" x2="538.26935" y1="75.0" y2="75.0" /><line stroke="rgb(0,0,0)" x1="538.26935" x2="543.26935" y1="75.0" y2="75.0" /><line stroke="rgb(0,0,0)" x1="543.26935" x2="618.14935" y1="75.0" y2="75.0" /><line stroke="rgb(0,0,0)" x1="618.14935" x2="628.14935" y1="75.0" y2="75.0" /><line stroke="rgb(0,0,0)" x1="628.14935" x2="633.14935" y1="75.0" y2="75.0" /><line stroke="rgb(0,0,0)" x1="633.14935" x2="672.7461000000001" y1="75.0" y2="75.0" /><line stroke="rgb(0,0,0)" x1="672.7461000000001" x2="682.7461000000001" y1="75.0" y2="75.0" /><line stroke="rgb(0,0,0)" x1="682.7461000000001" x2="687.7461000000001" y1="75.0" y2="75.0" /><line stroke="rgb(0,0,0)" x1="687.7461000000001" x2="737.9870500000002" y1="75.0" y2="75.0" /><line stroke="rgb(0,0,0)" x1="737.9870500000002" x2="747.9870500000002" y1="75.0" y2="75.0" /><line stroke="rgb(0,0,0)" x1="747.9870500000002" x2="752.9870500000002" y1="75.0" y2="75.0" /><line stroke="rgb(0,0,0)" x1="752.9870500000002" x2="808.0470500000001" y1="75.0" y2="75.0" /><line stroke="rgb(0,0,0)" x1="808.0470500000001" x2="818.0470500000001" y1="75.0" y2="75.0" /><line stroke="rgb(0,0,0)" x1="818.0470500000001" x2="823.0470500000001" y1="75.0" y2="75.0" /><line stroke="rgb(0,0,0)" x1="823.0470500000001" x2="858.0060500000002" y1="75.0" y2="75.0" /><line stroke="rgb(0,0,0)" x1="858.0060500000002" x2="868.0060500000002" y1="75.0" y2="75.0" /><line stroke="rgb(0,0,0)" x1="868.0060500000002" x2="873.0060500000002" y1="75.0" y2="75.0" /><line stroke="rgb(0,0,0)" x1="873.0060500000002" x2="943.3660500000002" y1="75.0" y2="75.0" /><line stroke="rgb(0,0,0)" x1="943.3660500000002" x2="953.3660500000002" y1="75.0" y2="75.0" /><line stroke="rgb(0,0,0)" x1="953.3660500000002" x2="958.3660500000002" y1="75.0" y2="75.0" /><rect fill="rgb(13,10,255)" height="98.8" stroke="rgb(0,0,0)" width="44.8178" x="5.0" y="25.6" /><text fill="black" x="5.0" y="144.4">H6</text><rect fill="rgb(5,4,255)" height="96.39999999999999" stroke="rgb(0,0,0)" width="5.0" x="69.81779999999999" y="26.800000000000004" /><text fill="black" x="69.81779999999999" y="143.2">E8</text><rect fill="rgb(3,3,255)" height="94.39999999999999" stroke="rgb(0,0,0)" width="5.0" x="94.8178" y="27.800000000000004" /><text fill="black" x="94.8178" y="142.2">E9</text><rect fill="rgb(18,14,255)" height="99.6" stroke="rgb(0,0,0)" width="9.8795" x="119.8178" y="25.200000000000003" /><text fill="black" x="119.8178" y="144.8">E10</text><rect fill="rgb(15,12,255)" height="99.6" stroke="rgb(0,0,0)" width="14.8996" x="149.6973" y="25.200000000000003" /><text fill="black" x="149.6973" y="144.8">E13</text><rect fill="rgb(3,2,255)" height="96.39999999999999" stroke="rgb(0,0,0)" width="5.0" x="184.5969" y="26.800000000000004" /><text fill="black" x="184.5969" y="143.2">E15</text><rect fill="rgb(62,49,255)" height="99.6" stroke="rgb(0,0,0)" width="17.791150000000002" x="209.5969" y="25.200000000000003" /><text fill="black" x="209.5969" y="144.8">E16</text><rect fill="rgb(62,49,255)" height="98.0" stroke="rgb(0,0,0)" width="60.2655" x="247.38805000000002" y="26.0" /><text fill="black" x="247.38805000000002" y="144.0">H22</text><rect fill="rgb(7,5,255)" height="94.39999999999999" stroke="rgb(0,0,0)" width="5.0" x="327.65355" y="27.800000000000004" /><text fill="black" x="327.65355" y="142.2">E23</text><rect fill="rgb(35,27,255)" height="100.0" stroke="rgb(0,0,0)" width="106.14000000000001" x="352.65355" y="25.0" /><text fill="black" x="352.65355" y="145.0">H24</text><rect fill="rgb(38,30,255)" height="99.2" stroke="rgb(0,0,0)" width="44.47580000000001" x="478.79355000000004" y="25.4" /><text fill="black" x="478.79355000000004" y="144.6">H25</text><rect fill="rgb(13,10,255)" height="100.0" stroke="rgb(0,0,0)" width="69.88000000000001" x="543.26935" y="25.0" /><text fill="black" x="543.26935" y="145.0">H26</text><rect fill="rgb(32,25,255)" height="99.2" stroke="rgb(0,0,0)" width="34.59675" x="633.14935" y="25.4" /><text fill="black" x="633.14935" y="144.6">H27</text><rect fill="rgb(23,18,255)" height="99.6" stroke="rgb(0,0,0)" width="45.24095" x="687.7461000000001" y="25.200000000000003" /><text fill="black" x="687.7461000000001" y="144.8">H31</text><rect fill="rgb(30,24,255)" height="100.0" stroke="rgb(0,0,0)" width="50.06" x="752.9870500000002" y="25.0" /><text fill="black" x="752.9870500000002" y="145.0">H32</text><rect fill="rgb(17,13,255)" height="97.6" stroke="rgb(0,0,0)" width="29.958999999999996" x="823.0470500000001" y="26.200000000000003" /><text fill="black" x="823.0470500000001" y="143.8">H35</text><rect fill="rgb(21,16,255)" height="100.0" stroke="rgb(0,0,0)" width="65.36" x="873.0060500000002" y="25.0" /><text fill="black" x="873.0060500000002" y="145.0">H37</text><rect fill="rgb(59,46,255)" height="95.6" stroke="rgb(0,0,0)" width="17.196649999999998" x="958.3660500000002" y="27.200000000000003" /><text fill="black" x="958.3660500000002" y="142.8">H39</text><path d="M 187.0969,75.0 a 91.25250263071676,91.25250263071676 0 0,0 -114.77910000000001,-0.0" stroke="rgb(5,4,255)" stroke-width="2" /><path d="M 187.0969,75.0 a 91.25250263071676,91.25250263071676 0 0,0 -114.77910000000001,-0.0" stroke="rgb(0,0,0)" stroke-width="0.2" /><path d="M 330.15355,75.0 a 241.91466061044983,241.91466061044983 0 0,0 -232.83575,-0.0" stroke="rgb(3,3,255)" stroke-width="2" /><path d="M 330.15355,75.0 a 241.91466061044983,241.91466061044983 0 0,0 -232.83575,-0.0" stroke="rgb(0,0,0)" stroke-width="0.2" /><path d="M 157.14710000000002,75.0 a 20.71868629854738,20.71868629854738 0 0,0 -32.389550000000014,-0.0" stroke="rgb(18,14,255)" stroke-width="2" /><path d="M 157.14710000000002,75.0 a 20.71868629854738,20.71868629854738 0 0,0 -32.389550000000014,-0.0" stroke="rgb(0,0,0)" stroke-width="0.2" /><path d="M 218.492475,75.0 a 42.4476376988237,42.4476376988237 0 0,0 -61.34537499999999,-0.0" stroke="rgb(15,12,255)" stroke-width="2" /><path d="M 218.492475,75.0 a 42.4476376988237,42.4476376988237 0 0,0 -61.34537499999999,-0.0" stroke="rgb(0,0,0)" stroke-width="0.2" /></svg>