<?xml version="1.0" encoding="utf-8" ?>
<svg baseProfile="full" height="100%" style="font-size:14;font-family:Sans, Arial;stroke-width:1;fill:none" version="1.1" width="100%" xmlns="http://www.w3.org/2000/svg" xmlns:ev="http://www.w3.org/2001/xml-events" xmlns:xlink="http://www.w3.org/1999/xlink"><defs /><rect fill="none" height="280.0" stroke="none" width="2370.0" x="0" y="0" /><line stroke="rgb(0,0,0)" x1="5.0" x2="65.0" y1="130.0" y2="130.0" /><line stroke="rgb(0,0,0)" x1="65.0" x2="85.0" y1="130.0" y2="130.0" /><line stroke="rgb(0,0,0)" x1="85.0" x2="90.0" y1="130.0" y2="130.0" /><line stroke="rgb(0,0,0)" x1="90.0" x2="100.0" y1="130.0" y2="130.0" /><line stroke="rgb(0,0,0)" x1="100.0" x2="120.0" y1="130.0" y2="130.0" /><line stroke="rgb(0,0,0)" x1="120.0" x2="125.0" y1="130.0" y2="130.0" /><line stroke="rgb(0,0,0)" x1="125.0" x2="135.0" y1="130.0" y2="130.0" /><line stroke="rgb(0,0,0)" x1="135.0" x2="155.0" y1="130.0" y2="130.0" /><line stroke="rgb(0,0,0)" x1="155.0" x2="160.0" y1="130.0" y2="130.0" /><line stroke="rgb(0,0,0)" x1="160.0" x2="170.0" y1="130.0" y2="130.0" /><line stroke="rgb(0,0,0)" x1="170.0" x2="190.0" y1="130.0" y2="130.0" /><line stroke="rgb(0,0,0)" x1="190.0" x2="195.0" y1="130.0" y2="130.0" /><line stroke="rgb(0,0,0)" x1="195.0" x2="265.0" y1="130.0" y2="130.0" /><line stroke="rgb(0,0,0)" x1="265.0" x2="285.0" y1="130.0" y2="130.0" /><line stroke="rgb(0,0,0)" x1="285.0" x2="290.0" y1="130.0" y2="130.0" /><line stroke="rgb(0,0,0)" x1="290.0" x2="300.0" y1="130.0" y2="130.0" /><line stroke="rgb(0,0,0)" x1="300.0" x2="320.0" y1="130.0" y2="130.0" /><line stroke="rgb(0,0,0)" x1="320.0" x2="325.0" y1="130.0" y2="130.0" /><line stroke="rgb(0,0,0)" x1="325.0" x2="385.0" y1="130.0" y2="130.0" /><line stroke="rgb(0,0,0)" x1="385.0" x2="405.0" y1="130.0" y2="130.0" /><line stroke="rgb(0,0,0)" x1="405.0" x2="410.0" y1="130.0" y2="130.0" /><line stroke="rgb(0,0,0)" x1="410.0" x2="430.0" y1="130.0" y2="130.0" /><line stroke="rgb(0,0,0)" x1="430.0" x2="450.0" y1="130.0" y2="130.0" /><line stroke="rgb(0,0,0)" x1="450.0" x2="455.0" y1="130.0" y2="130.0" /><line stroke="rgb(0,0,0)" x1="455.0" x2="465.0" y1="130.0" y2="130.0" /><line stroke="rgb(0,0,0)" x1="465.0" x2="485.0" y1="130.0" y2="130.0" /><line stroke="rgb(0,0,0)" x1="485.0" x2="490.0" y1="130.0" y2="130.0" /><line stroke="rgb(0,0,0)" x1="490.0" x2="500.0" y1="130.0" y2="130.0" /><line stroke="rgb(0,0,0)" x1="500.0" x2="520.0" y1="130.0" y2="130.0" /><line stroke="rgb(0,0,0)" x1="520.0" x2="525.0" y1="130.0" y2="130.0" /><line stroke="rgb(0,0,0)" x1="525.0" x2="540.0" y1="130.0" y2="130.0" /><line stroke="rgb(0,0,0)" x1="540.0" x2="560.0" y1="130.0" y2="130.0" /><line stroke="rgb(0,0,0)" x1="560.0" x2="565.0" y1="130.0" y2="130.0" /><line stroke="rgb(0,0,0)" x1="565.0" x2="585.0" y1="130.0" y2="130.0" /><line stroke="rgb(0,0,0)" x1="585.0" x2="605.0" y1="130.0" y2="130.0" /><line stroke="rgb(0,0,0)" x1="605.0" x2="610.0" y1="130.0" y2="130.0" /><line stroke="rgb(0,0,0)" x1="610.0" x2="620.0" y1="130.0" y2="130.0" /><line stroke="rgb(0,0,0)" x1="620.0" x2="640.0" y1="130.0" y2="130.0" /><line stroke="rgb(0,0,0)" x1="640.0" x2="645.0" y1="130.0" y2="130.0" /><line stroke="rgb(0,0,0)" x1="645.0" x2="670.0" y1="130.0" y2="130.0" /><line stroke="rgb(0,0,0)" x1="670.0" x2="690.0" y1="130.0" y2="130.0" /><line stroke="rgb(0,0,0)" x1="690.0" x2="695.0" y1="130.0" y2="130.0" /><line stroke="rgb(0,0,0)" x1="695.0" x2="705.0" y1="130.0" y2="130.0" /><line stroke="rgb(0,0,0)" x1="705.0" x2="725.0" y1="130.0" y2="130.0" /><line stroke="rgb(0,0,0)" x1="725.0" x2="730.0" y1="130.0" y2="130.0" /><line stroke="rgb(0,0,0)" x1="730.0" x2="740.0" y1="130.0" y2="130.0" /><line stroke="rgb(0,0,0)" x1="740.0" x2="760.0" y1="130.0" y2="130.0" /><line stroke="rgb(0,0,0)" x1="760.0" x2="765.0" y1="130.0" y2="130.0" /><line stroke="rgb(0,0,0)" x1="765.0" x2="795.0" y1="130.0" y2="130.0" /><line stroke="rgb(0,0,0)" x1="795.0" x2="815.0" y1="130.0" y2="55.0" /><line stroke="rgb(0,0,0)" x1="815.0" x2="820.0" y1="55.0" y2="55.0" /><line stroke="rgb(0,0,0)" x1="765.0" x2="795.0" y1="130.0" y2="130.0" /><line stroke="rgb(0,0,0)" x1="795.0" x2="815.0" y1="130.0" y2="205.0" /><line stroke="rgb(0,0,0)" x1="815.0" x2="820.0" y1="205.0" y2="205.0" /><line stroke="rgb(0,0,0)" x1="820.0" x2="860.0" y1="205.0" y2="205.0" /><line stroke="rgb(0,0,0)" x1="860.0" x2="880.0" y1="205.0" y2="130.0" /><line stroke="rgb(0,0,0)" x1="880.0" x2="885.0" y1="130.0" y2="130.0" /><line stroke="rgb(0,0,0)" x1="885.0" x2="925.0" y1="130.0" y2="130.0" /><line stroke="rgb(0,0,0)" x1="925.0" x2="945.0" y1="130.0" y2="130.0" /><line stroke="rgb(0,0,0)" x1="945.0" x2="950.0" y1="130.0" y2="130.0" /><line stroke="rgb(0,0,0)" x1="950.0" x2="970.0" y1="130.0" y2="130.0" /><line stroke="rgb(0,0,0)" x1="970.0" x2="990.0" y1="130.0" y2="130.0" /><line stroke="rgb(0,0,0)" x1="990.0" x2="995.0" y1="130.0" y2="130.0" /><line stroke="rgb(0,0,0)" x1="820.0" x2="830.0" y1="55.0" y2="55.0" /><line stroke="rgb(0,0,0)" x1="830.0" x2="990.0" y1="55.0" y2="130.0" /><line stroke="rgb(0,0,0)" x1="990.0" x2="995.0" y1="130.0" y2="130.0" /><line stroke="rgb(0,0,0)" x1="995.0" x2="1005.0" y1="130.0" y2="130.0" /><line stroke="rgb(0,0,0)" x1="1005.0" x2="1025.0" y1="130.0" y2="130.0" /><line stroke="rgb(0,0,0)" x1="1025.0" x2="1030.0" y1="130.0" y2="130.0" /><line stroke="rgb(0,0,0)" x1="1030.0" x2="1130.0" y1="130.0" y2="130.0" /><line stroke="rgb(0,0,0)" x1="1130.0" x2="1150.0" y1="130.0" y2="130.0" /><line stroke="rgb(0,0,0)" x1="1150.0" x2="1155.0" y1="130.0" y2="130.0" /><line stroke="rgb(0,0,0)" x1="1155.0" x2="1165.0" y1="130.0" y2="130.0" /><line stroke="rgb(0,0,0)" x1="1165.0" x2="1185.0" y1="130.0" y2="130.0" /><line stroke="rgb(0,0,0)" x1="1185.0" x2="1190.0" y1="130.0" y2="130.0" /><line stroke="rgb(0,0,0)" x1="1190.0" x2="1325.0" y1="130.0" y2="130.0" /><line stroke="rgb(0,0,0)" x1="1325.0" x2="1345.0" y1="130.0" y2="130.0" /><line stroke="rgb(0,0,0)" x1="1345.0" x2="1350.0" y1="130.0" y2="130.0" /><line stroke="rgb(0,0,0)" x1="1350.0" x2="1405.0" y1="130.0" y2="130.0" /><line stroke="rgb(0,0,0)" x1="1405.0" x2="1425.0" y1="130.0" y2="130.0" /><line stroke="rgb(0,0,0)" x1="1425.0" x2="1430.0" y1="130.0" y2="130.0" /><line stroke="rgb(0,0,0)" x1="1430.0" x2="1505.0" y1="130.0" y2="130.0" /><line stroke="rgb(0,0,0)" x1="1505.0" x2="1525.0" y1="130.0" y2="130.0" /><line stroke="rgb(0,0,0)" x1="1525.0" x2="1530.0" y1="130.0" y2="130.0" /><line stroke="rgb(0,0,0)" x1="1530.0" x2="1605.0" y1="130.0" y2="130.0" /><line stroke="rgb(0,0,0)" x1="1605.0" x2="1625.0" y1="130.0" y2="130.0" /><line stroke="rgb(0,0,0)" x1="1625.0" x2="1630.0" y1="130.0" y2="130.0" /><line stroke="rgb(0,0,0)" x1="1630.0" x2="1655.0" y1="130.0" y2="130.0" /><line stroke="rgb(0,0,0)" x1="1655.0" x2="1675.0" y1="130.0" y2="130.0" /><line stroke="rgb(0,0,0)" x1="1675.0" x2="1680.0" y1="130.0" y2="130.0" /><line stroke="rgb(0,0,0)" x1="1680.0" x2="1705.0" y1="130.0" y2="130.0" /><line stroke="rgb(0,0,0)" x1="1705.0" x2="1725.0" y1="130.0" y2="130.0" /><line stroke="rgb(0,0,0)" x1="1725.0" x2="1730.0" y1="130.0" y2="130.0" /><line stroke="rgb(0,0,0)" x1="1730.0" x2="1755.0" y1="130.0" y2="130.0" /><line stroke="rgb(0,0,0)" x1="1755.0" x2="1775.0" y1="130.0" y2="130.0" /><line stroke="rgb(0,0,0)" x1="1775.0" x2="1780.0" y1="130.0" y2="130.0" /><line stroke="rgb(0,0,0)" x1="1780.0" x2="1870.0" y1="130.0" y2="130.0" /><line stroke="rgb(0,0,0)" x1="1870.0" x2="1890.0" y1="130.0" y2="130.0" /><line stroke="rgb(0,0,0)" x1="1890.0" x2="1895.0" y1="130.0" y2="130.0" /><line stroke="rgb(0,0,0)" x1="1895.0" x2="1980.0" y1="130.0" y2="130.0" /><line stroke="rgb(0,0,0)" x1="1980.0" x2="2000.0" y1="130.0" y2="55.0" /><line stroke="rgb(0,0,0)" x1="2000.0" x2="2005.0" y1="55.0" y2="55.0" /><line stroke="rgb(0,0,0)" x1="1895.0" x2="1980.0" y1="130.0" y2="130.0" /><line stroke="rgb(0,0,0)" x1="1980.0" x2="2000.0" y1="130.0" y2="205.0" /><line stroke="rgb(0,0,0)" x1="2000.0" x2="2005.0" y1="205.0" y2="205.0" /><line stroke="rgb(0,0,0)" x1="2005.0" x2="2025.0" y1="55.0" y2="55.0" /><line stroke="rgb(0,0,0)" x1="2025.0" x2="2045.0" y1="55.0" y2="55.0" /><line stroke="rgb(0,0,0)" x1="2045.0" x2="2050.0" y1="55.0" y2="55.0" /><line stroke="rgb(0,0,0)" x1="2005.0" x2="2020.0" y1="205.0" y2="205.0" /><line stroke="rgb(0,0,0)" x1="2020.0" x2="2045.0" y1="205.0" y2="205.0" /><line stroke="rgb(0,0,0)" x1="2045.0" x2="2050.0" y1="205.0" y2="205.0" /><line stroke="rgb(0,0,0)" x1="2050.0" x2="2085.0" y1="55.0" y2="55.0" /><line stroke="rgb(0,0,0)" x1="2085.0" x2="2105.0" y1="55.0" y2="130.0" /><line stroke="rgb(0,0,0)" x1="2105.0" x2="2110.0" y1="130.0" y2="130.0" /><line stroke="rgb(0,0,0)" x1="2050.0" x2="2065.0" y1="205.0" y2="205.0" /><line stroke="rgb(0,0,0)" x1="2065.0" x2="2105.0" y1="205.0" y2="130.0" /><line stroke="rgb(0,0,0)" x1="2105.0" x2="2110.0" y1="130.0" y2="130.0" /><line stroke="rgb(0,0,0)" x1="2110.0" x2="2200.0" y1="130.0" y2="130.0" /><line stroke="rgb(0,0,0)" x1="2200.0" x2="2220.0" y1="130.0" y2="130.0" /><line stroke="rgb(0,0,0)" x1="2220.0" x2="2225.0" y1="130.0" y2="130.0" /><line stroke="rgb(0,0,0)" x1="2225.0" x2="2235.0" y1="130.0" y2="130.0" /><line stroke="rgb(0,0,0)" x1="2235.0" x2="2255.0" y1="130.0" y2="130.0" /><line stroke="rgb(0,0,0)" x1="2255.0" x2="2260.0" y1="130.0" y2="130.0" /><line stroke="rgb(0,0,0)" x1="2260.0" x2="2295.0" y1="130.0" y2="130.0" /><line stroke="rgb(0,0,0)" x1="2295.0" x2="2315.0" y1="130.0" y2="55.0" /><line stroke="rgb(0,0,0)" x1="2315.0" x2="2320.0" y1="55.0" y2="55.0" /><line stroke="rgb(0,0,0)" x1="2260.0" x2="2295.0" y1="130.0" y2="130.0" /><line stroke="rgb(0,0,0)" x1="2295.0" x2="2315.0" y1="130.0" y2="205.0" /><line stroke="rgb(0,0,0)" x1="2315.0" x2="2320.0" y1="205.0" y2="205.0" /><polygon fill="rgb(150,150,150)" points="60.0,130.0 60.0,129.8 42.5,129.8 42.5,129.4 32.5,129.4 32.5,129.4 22.5,129.4 22.5,129.8 5.0,129.8 5.0,130.0 5.0,130.0 5.0,130.2 22.5,130.2 22.5,130.6 32.5,130.6 32.5,130.6 42.5,130.6 42.5,130.2 60.0,130.2 60.0,130.0" stroke="rgb(0,0,0)" /><text fill="black" x="5.0" y="150.6">H0</text><polygon fill="rgb(175,70,70)" points="95.0,130.0 95.0,129.6 92.5,129.6 92.5,129.6 90.0,129.6 90.0,130.0 90.0,130.0 90.0,130.4 92.5,130.4 92.5,130.4 95.0,130.4 95.0,130.0" stroke="rgb(0,0,0)" /><text fill="black" x="90.0" y="150.4">E1</text><polygon fill="rgb(70,70,175)" points="130.0,130.0 130.0,129.6 127.5,129.6 127.5,129.6 125.0,129.6 125.0,130.0 125.0,130.0 125.0,130.4 127.5,130.4 127.5,130.4 130.0,130.4 130.0,130.0" stroke="rgb(0,0,0)" /><text fill="black" x="125.0" y="150.4">E2</text><polygon fill="rgb(70,70,175)" points="165.0,130.0 165.0,129.6 162.5,129.6 162.5,129.6 160.0,129.6 160.0,130.0 160.0,130.0 160.0,130.4 162.5,130.4 162.5,130.4 165.0,130.4 165.0,130.0" stroke="rgb(0,0,0)" /><text fill="black" x="160.0" y="150.4">E3</text><polygon fill="rgb(150,150,150)" points="260.0,130.0 260.0,129.6 252.5,129.6 252.5,129.4 250.0,129.4 250.0,128.4 245.0,128.4 245.0,128.2 242.5,128.2 242.5,128.0 227.5,128.0 227.5,128.0 212.5,128.0 212.5,128.2 210.0,128.2 210.0,128.4 205.0,128.4 205.0,129.4 202.5,129.4 202.5,129.6 195.0,129.6 195.0,130.0 195.0,130.0 195.0,130.4 202.5,130.4 202.5,130.6 205.0,130.6 205.0,131.6 210.0,131.6 210.0,131.8 212.5,131.8 212.5,132.0 227.5,132.0 227.5,132.0 242.5,132.0 242.5,131.8 245.0,131.8 245.0,131.6 250.0,131.6 250.0,130.6 252.5,130.6 252.5,130.4 260.0,130.4 260.0,130.0" stroke="rgb(0,0,0)" /><text fill="black" x="195.0" y="152.0">H4</text><polygon fill="rgb(175,70,70)" points="295.0,130.0 295.0,129.6 292.5,129.6 292.5,129.6 290.0,129.6 290.0,130.0 290.0,130.0 290.0,130.4 292.5,130.4 292.5,130.4 295.0,130.4 295.0,130.0" stroke="rgb(0,0,0)" /><text fill="black" x="290.0" y="150.4">E5</text><polygon fill="rgb(150,150,150)" points="380.0,130.0 380.0,129.6 377.5,129.6 377.5,129.0 375.0,129.0 375.0,82.0 372.5,82.0 372.5,81.2 365.0,81.2 365.0,80.6 352.5,80.6 352.5,80.6 340.0,80.6 340.0,81.2 332.5,81.2 332.5,82.0 330.0,82.0 330.0,129.0 327.5,129.0 327.5,129.6 325.0,129.6 325.0,130.0 325.0,130.0 325.0,130.4 327.5,130.4 327.5,131.0 330.0,131.0 330.0,178.0 332.5,178.0 332.5,178.8 340.0,178.8 340.0,179.4 352.5,179.4 352.5,179.4 365.0,179.4 365.0,178.8 372.5,178.8 372.5,178.0 375.0,178.0 375.0,131.0 377.5,131.0 377.5,130.4 380.0,130.4 380.0,130.0" stroke="rgb(0,0,0)" /><text fill="black" x="325.0" y="199.4">H6</text><polygon fill="rgb(150,150,150)" points="425.0,130.0 425.0,129.4 417.5,129.4 417.5,129.4 410.0,129.4 410.0,130.0 410.0,130.0 410.0,130.6 417.5,130.6 417.5,130.6 425.0,130.6 425.0,130.0" stroke="rgb(0,0,0)" /><text fill="black" x="410.0" y="150.6">H7</text><polygon fill="rgb(150,150,255)" points="460.0,130.0 460.0,81.80000000000001 457.5,81.80000000000001 457.5,81.80000000000001 455.0,81.80000000000001 455.0,130.0 455.0,130.0 455.0,178.2 457.5,178.2 457.5,178.2 460.0,178.2 460.0,130.0" stroke="rgb(0,0,0)" /><text fill="black" x="455.0" y="198.2">E8</text><polygon fill="rgb(150,255,150)" points="495.0,130.0 495.0,82.80000000000001 492.5,82.80000000000001 492.5,82.80000000000001 490.0,82.80000000000001 490.0,130.0 490.0,130.0 490.0,177.2 492.5,177.2 492.5,177.2 495.0,177.2 495.0,130.0" stroke="rgb(0,0,0)" /><text fill="black" x="490.0" y="197.2">E9</text><polygon fill="rgb(255,150,150)" points="535.0,130.0 535.0,81.4 532.5,81.4 532.5,80.2 530.0,80.2 530.0,80.2 527.5,80.2 527.5,81.4 525.0,81.4 525.0,130.0 525.0,130.0 525.0,178.6 527.5,178.6 527.5,179.8 530.0,179.8 530.0,179.8 532.5,179.8 532.5,178.6 535.0,178.6 535.0,130.0" stroke="rgb(0,0,0)" /><text fill="black" x="525.0" y="199.8">E10</text><polygon fill="rgb(150,150,150)" points="580.0,130.0 580.0,129.6 572.5,129.6 572.5,129.6 565.0,129.6 565.0,130.0 565.0,130.0 565.0,130.4 572.5,130.4 572.5,130.4 580.0,130.4 580.0,130.0" stroke="rgb(0,0,0)" /><text fill="black" x="565.0" y="150.4">H11</text><polygon fill="rgb(255,150,255)" points="615.0,130.0 615.0,129.4 612.5,129.4 612.5,129.4 610.0,129.4 610.0,130.0 610.0,130.0 610.0,130.6 612.5,130.6 612.5,130.6 615.0,130.6 615.0,130.0" stroke="rgb(0,0,0)" /><text fill="black" x="610.0" y="150.6">E12</text><polygon fill="rgb(255,150,150)" points="665.0,130.0 665.0,129.6 662.5,129.6 662.5,81.6 660.0,81.6 660.0,80.2 655.0,80.2 655.0,80.2 650.0,80.2 650.0,81.6 647.5,81.6 647.5,129.6 645.0,129.6 645.0,130.0 645.0,130.0 645.0,130.4 647.5,130.4 647.5,178.4 650.0,178.4 650.0,179.8 655.0,179.8 655.0,179.8 660.0,179.8 660.0,178.4 662.5,178.4 662.5,130.4 665.0,130.4 665.0,130.0" stroke="rgb(0,0,0)" /><text fill="black" x="645.0" y="199.8">E13</text><polygon fill="rgb(255,150,150)" points="700.0,130.0 700.0,129.2 697.5,129.2 697.5,129.2 695.0,129.2 695.0,130.0 695.0,130.0 695.0,130.8 697.5,130.8 697.5,130.8 700.0,130.8 700.0,130.0" stroke="rgb(0,0,0)" /><text fill="black" x="695.0" y="150.8">E14</text><polygon fill="rgb(150,150,255)" points="735.0,130.0 735.0,81.80000000000001 732.5,81.80000000000001 732.5,81.80000000000001 730.0,81.80000000000001 730.0,130.0 730.0,130.0 730.0,178.2 732.5,178.2 732.5,178.2 735.0,178.2 735.0,130.0" stroke="rgb(0,0,0)" /><text fill="black" x="730.0" y="198.2">E15</text><polygon fill="rgb(255,150,150)" points="790.0,130.0 790.0,129.6 787.5,129.6 787.5,91.0 782.5,91.0 782.5,81.0 780.0,81.0 780.0,80.2 777.5,80.2 777.5,80.2 775.0,80.2 775.0,81.0 772.5,81.0 772.5,91.0 767.5,91.0 767.5,129.6 765.0,129.6 765.0,130.0 765.0,130.0 765.0,130.4 767.5,130.4 767.5,169.0 772.5,169.0 772.5,179.0 775.0,179.0 775.0,179.8 777.5,179.8 777.5,179.8 780.0,179.8 780.0,179.0 782.5,179.0 782.5,169.0 787.5,169.0 787.5,130.4 790.0,130.4 790.0,130.0" stroke="rgb(0,0,0)" /><text fill="black" x="765.0" y="199.8">E16</text><polygon fill="rgb(255,150,255)" points="825.0,55.0 825.0,54.8 822.5,54.8 822.5,54.8 820.0,54.8 820.0,55.0 820.0,55.0 820.0,55.2 822.5,55.2 822.5,55.2 825.0,55.2 825.0,55.0" stroke="rgb(0,0,0)" /><text fill="black" x="820.0" y="75.2">E17</text><polygon fill="rgb(150,150,150)" points="855.0,205.0 855.0,204.4 837.5,204.4 837.5,204.4 820.0,204.4 820.0,205.0 820.0,205.0 820.0,205.6 837.5,205.6 837.5,205.6 855.0,205.6 855.0,205.0" stroke="rgb(0,0,0)" /><text fill="black" x="820.0" y="225.6">H18</text><polygon fill="rgb(150,150,150)" points="920.0,130.0 920.0,129.4 902.5,129.4 902.5,129.4 885.0,129.4 885.0,130.0 885.0,130.0 885.0,130.6 902.5,130.6 902.5,130.6 920.0,130.6 920.0,130.0" stroke="rgb(0,0,0)" /><text fill="black" x="885.0" y="150.6">H19</text><polygon fill="rgb(150,150,150)" points="965.0,130.0 965.0,129.2 957.5,129.2 957.5,129.2 950.0,129.2 950.0,130.0 950.0,130.0 950.0,130.8 957.5,130.8 957.5,130.8 965.0,130.8 965.0,130.0" stroke="rgb(0,0,0)" /><text fill="black" x="950.0" y="150.8">H20</text><polygon fill="rgb(255,150,255)" points="1000.0,130.0 1000.0,129.2 997.5,129.2 997.5,129.2 995.0,129.2 995.0,130.0 995.0,130.0 995.0,130.8 997.5,130.8 997.5,130.8 1000.0,130.8 1000.0,130.0" stroke="rgb(0,0,0)" /><text fill="black" x="995.0" y="150.8">E21</text><polygon fill="rgb(150,150,150)" points="1125.0,130.0 1125.0,129.6 1112.5,129.6 1112.5,129.4 1107.5,129.4 1107.5,81.6 1105.0,81.6 1105.0,81.0 1077.5,81.0 1077.5,81.0 1050.0,81.0 1050.0,81.6 1047.5,81.6 1047.5,129.4 1042.5,129.4 1042.5,129.6 1030.0,129.6 1030.0,130.0 1030.0,130.0 1030.0,130.4 1042.5,130.4 1042.5,130.6 1047.5,130.6 1047.5,178.4 1050.0,178.4 1050.0,179.0 1077.5,179.0 1077.5,179.0 1105.0,179.0 1105.0,178.4 1107.5,178.4 1107.5,130.6 1112.5,130.6 1112.5,130.4 1125.0,130.4 1125.0,130.0" stroke="rgb(0,0,0)" /><text fill="black" x="1030.0" y="199.0">H22</text><polygon fill="rgb(150,255,150)" points="1160.0,130.0 1160.0,82.80000000000001 1157.5,82.80000000000001 1157.5,82.80000000000001 1155.0,82.80000000000001 1155.0,130.0 1155.0,130.0 1155.0,177.2 1157.5,177.2 1157.5,177.2 1160.0,177.2 1160.0,130.0" stroke="rgb(0,0,0)" /><text fill="black" x="1155.0" y="197.2">E23</text><polygon fill="rgb(150,150,150)" points="1320.0,130.0 1320.0,129.2 1312.5,129.2 1312.5,128.8 1310.0,128.8 1310.0,120.0 1307.5,120.0 1307.5,80.6 1305.0,80.6 1305.0,80.4 1300.0,80.4 1300.0,80.2 1290.0,80.2 1290.0,80.0 1255.0,80.0 1255.0,80.0 1220.0,80.0 1220.0,80.2 1210.0,80.2 1210.0,80.4 1205.0,80.4 1205.0,80.6 1202.5,80.6 1202.5,120.0 1200.0,120.0 1200.0,128.8 1197.5,128.8 1197.5,129.2 1190.0,129.2 1190.0,130.0 1190.0,130.0 1190.0,130.8 1197.5,130.8 1197.5,131.2 1200.0,131.2 1200.0,140.0 1202.5,140.0 1202.5,179.4 1205.0,179.4 1205.0,179.6 1210.0,179.6 1210.0,179.8 1220.0,179.8 1220.0,180.0 1255.0,180.0 1255.0,180.0 1290.0,180.0 1290.0,179.8 1300.0,179.8 1300.0,179.6 1305.0,179.6 1305.0,179.4 1307.5,179.4 1307.5,140.0 1310.0,140.0 1310.0,131.2 1312.5,131.2 1312.5,130.8 1320.0,130.8 1320.0,130.0" stroke="rgb(0,0,0)" /><text fill="black" x="1190.0" y="200.0">H24</text><polygon fill="rgb(150,150,150)" points="1400.0,130.0 1400.0,129.8 1397.5,129.8 1397.5,81.4 1390.0,81.4 1390.0,81.2 1382.5,81.2 1382.5,80.4 1375.0,80.4 1375.0,80.4 1367.5,80.4 1367.5,81.2 1360.0,81.2 1360.0,81.4 1352.5,81.4 1352.5,129.8 1350.0,129.8 1350.0,130.0 1350.0,130.0 1350.0,130.2 1352.5,130.2 1352.5,178.6 1360.0,178.6 1360.0,178.8 1367.5,178.8 1367.5,179.6 1375.0,179.6 1375.0,179.6 1382.5,179.6 1382.5,178.8 1390.0,178.8 1390.0,178.6 1397.5,178.6 1397.5,130.2 1400.0,130.2 1400.0,130.0" stroke="rgb(0,0,0)" /><text fill="black" x="1350.0" y="199.6">H25</text><polygon fill="rgb(150,150,150)" points="1500.0,130.0 1500.0,80.4 1492.5,80.4 1492.5,80.0 1465.0,80.0 1465.0,80.0 1437.5,80.0 1437.5,80.4 1430.0,80.4 1430.0,130.0 1430.0,130.0 1430.0,179.6 1437.5,179.6 1437.5,180.0 1465.0,180.0 1465.0,180.0 1492.5,180.0 1492.5,179.6 1500.0,179.6 1500.0,130.0" stroke="rgb(0,0,0)" /><text fill="black" x="1430.0" y="200.0">H26</text><polygon fill="rgb(150,150,150)" points="1600.0,130.0 1600.0,129.8 1582.5,129.8 1582.5,82.6 1580.0,82.6 1580.0,82.2 1577.5,82.2 1577.5,81.4 1575.0,81.4 1575.0,80.8 1572.5,80.8 1572.5,80.4 1565.0,80.4 1565.0,80.4 1557.5,80.4 1557.5,80.8 1555.0,80.8 1555.0,81.4 1552.5,81.4 1552.5,82.2 1550.0,82.2 1550.0,82.6 1547.5,82.6 1547.5,129.8 1530.0,129.8 1530.0,130.0 1530.0,130.0 1530.0,130.2 1547.5,130.2 1547.5,177.4 1550.0,177.4 1550.0,177.8 1552.5,177.8 1552.5,178.6 1555.0,178.6 1555.0,179.2 1557.5,179.2 1557.5,179.6 1565.0,179.6 1565.0,179.6 1572.5,179.6 1572.5,179.2 1575.0,179.2 1575.0,178.6 1577.5,178.6 1577.5,177.8 1580.0,177.8 1580.0,177.4 1582.5,177.4 1582.5,130.2 1600.0,130.2 1600.0,130.0" stroke="rgb(0,0,0)" /><text fill="black" x="1530.0" y="199.6">H27</text><polygon fill="rgb(150,255,255)" points="1650.0,130.0 1650.0,129.8 1640.0,129.8 1640.0,129.8 1630.0,129.8 1630.0,130.0 1630.0,130.0 1630.0,130.2 1640.0,130.2 1640.0,130.2 1650.0,130.2 1650.0,130.0" stroke="rgb(0,0,0)" /><text fill="black" x="1630.0" y="150.2">E28</text><polygon fill="rgb(150,150,150)" points="1700.0,130.0 1700.0,129.8 1697.5,129.8 1697.5,129.0 1690.0,129.0 1690.0,129.0 1682.5,129.0 1682.5,129.8 1680.0,129.8 1680.0,130.0 1680.0,130.0 1680.0,130.2 1682.5,130.2 1682.5,131.0 1690.0,131.0 1690.0,131.0 1697.5,131.0 1697.5,130.2 1700.0,130.2 1700.0,130.0" stroke="rgb(0,0,0)" /><text fill="black" x="1680.0" y="151.0">H29</text><polygon fill="rgb(150,255,255)" points="1750.0,130.0 1750.0,129.8 1740.0,129.8 1740.0,129.8 1730.0,129.8 1730.0,130.0 1730.0,130.0 1730.0,130.2 1740.0,130.2 1740.0,130.2 1750.0,130.2 1750.0,130.0" stroke="rgb(0,0,0)" /><text fill="black" x="1730.0" y="150.2">E30</text><polygon fill="rgb(150,150,150)" points="1865.0,130.0 1865.0,129.8 1862.5,129.8 1862.5,129.6 1845.0,129.6 1845.0,80.8 1842.5,80.8 1842.5,80.2 1822.5,80.2 1822.5,80.2 1802.5,80.2 1802.5,80.8 1800.0,80.8 1800.0,129.6 1782.5,129.6 1782.5,129.8 1780.0,129.8 1780.0,130.0 1780.0,130.0 1780.0,130.2 1782.5,130.2 1782.5,130.4 1800.0,130.4 1800.0,179.2 1802.5,179.2 1802.5,179.8 1822.5,179.8 1822.5,179.8 1842.5,179.8 1842.5,179.2 1845.0,179.2 1845.0,130.4 1862.5,130.4 1862.5,130.2 1865.0,130.2 1865.0,130.0" stroke="rgb(0,0,0)" /><text fill="black" x="1780.0" y="199.8">H31</text><polygon fill="rgb(150,150,150)" points="1975.0,130.0 1975.0,129.8 1962.5,129.8 1962.5,129.2 1960.0,129.2 1960.0,80.2 1945.0,80.2 1945.0,80.0 1935.0,80.0 1935.0,80.0 1925.0,80.0 1925.0,80.2 1910.0,80.2 1910.0,129.2 1907.5,129.2 1907.5,129.8 1895.0,129.8 1895.0,130.0 1895.0,130.0 1895.0,130.2 1907.5,130.2 1907.5,130.8 1910.0,130.8 1910.0,179.8 1925.0,179.8 1925.0,180.0 1935.0,180.0 1935.0,180.0 1945.0,180.0 1945.0,179.8 1960.0,179.8 1960.0,130.8 1962.5,130.8 1962.5,130.2 1975.0,130.2 1975.0,130.0" stroke="rgb(0,0,0)" /><text fill="black" x="1895.0" y="200.0">H32</text><polygon fill="rgb(150,150,150)" points="2020.0,55.0 2020.0,54.8 2012.5,54.8 2012.5,54.8 2005.0,54.8 2005.0,55.0 2005.0,55.0 2005.0,55.2 2012.5,55.2 2012.5,55.2 2020.0,55.2 2020.0,55.0" stroke="rgb(0,0,0)" /><text fill="black" x="2005.0" y="75.2">H33</text><polygon fill="rgb(255,255,150)" points="2015.0,205.0 2015.0,204.8 2012.5,204.8 2012.5,204.6 2010.0,204.6 2010.0,204.6 2007.5,204.6 2007.5,204.8 2005.0,204.8 2005.0,205.0 2005.0,205.0 2005.0,205.2 2007.5,205.2 2007.5,205.4 2010.0,205.4 2010.0,205.4 2012.5,205.4 2012.5,205.2 2015.0,205.2 2015.0,205.0" stroke="rgb(0,0,0)" /><text fill="black" x="2005.0" y="225.4">E34</text><polygon fill="rgb(150,150,150)" points="2080.0,55.0 2080.0,6.399999999999999 2075.0,6.399999999999999 2075.0,6.200000000000003 2065.0,6.200000000000003 2065.0,6.200000000000003 2055.0,6.200000000000003 2055.0,6.399999999999999 2050.0,6.399999999999999 2050.0,55.0 2050.0,55.0 2050.0,103.6 2055.0,103.6 2055.0,103.8 2065.0,103.8 2065.0,103.8 2075.0,103.8 2075.0,103.6 2080.0,103.6 2080.0,55.0" stroke="rgb(0,0,0)" /><text fill="black" x="2050.0" y="123.8">H35</text><polygon fill="rgb(255,255,150)" points="2060.0,205.0 2060.0,204.8 2057.5,204.8 2057.5,204.6 2055.0,204.6 2055.0,204.6 2052.5,204.6 2052.5,204.8 2050.0,204.8 2050.0,205.0 2050.0,205.0 2050.0,205.2 2052.5,205.2 2052.5,205.4 2055.0,205.4 2055.0,205.4 2057.5,205.4 2057.5,205.2 2060.0,205.2 2060.0,205.0" stroke="rgb(0,0,0)" /><text fill="black" x="2050.0" y="225.4">E36</text><polygon fill="rgb(150,150,150)" points="2195.0,130.0 2195.0,129.4 2192.5,129.4 2192.5,129.2 2190.0,129.2 2190.0,129.0 2187.5,129.0 2187.5,128.8 2185.0,128.8 2185.0,80.0 2152.5,80.0 2152.5,80.0 2120.0,80.0 2120.0,128.8 2117.5,128.8 2117.5,129.0 2115.0,129.0 2115.0,129.2 2112.5,129.2 2112.5,129.4 2110.0,129.4 2110.0,130.0 2110.0,130.0 2110.0,130.6 2112.5,130.6 2112.5,130.8 2115.0,130.8 2115.0,131.0 2117.5,131.0 2117.5,131.2 2120.0,131.2 2120.0,180.0 2152.5,180.0 2152.5,180.0 2185.0,180.0 2185.0,131.2 2187.5,131.2 2187.5,131.0 2190.0,131.0 2190.0,130.8 2192.5,130.8 2192.5,130.6 2195.0,130.6 2195.0,130.0" stroke="rgb(0,0,0)" /><text fill="black" x="2110.0" y="200.0">H37</text><polygon fill="rgb(70,175,70)" points="2230.0,130.0 2230.0,129.8 2227.5,129.8 2227.5,129.8 2225.0,129.8 2225.0,130.0 2225.0,130.0 2225.0,130.2 2227.5,130.2 2227.5,130.2 2230.0,130.2 2230.0,130.0" stroke="rgb(0,0,0)" /><text fill="black" x="2225.0" y="150.2">E38</text><polygon fill="rgb(150,150,150)" points="2290.0,130.0 2290.0,129.8 2287.5,129.8 2287.5,120.2 2285.0,120.2 2285.0,119.0 2282.5,119.0 2282.5,82.2 2275.0,82.2 2275.0,82.2 2267.5,82.2 2267.5,119.0 2265.0,119.0 2265.0,120.2 2262.5,120.2 2262.5,129.8 2260.0,129.8 2260.0,130.0 2260.0,130.0 2260.0,130.2 2262.5,130.2 2262.5,139.8 2265.0,139.8 2265.0,141.0 2267.5,141.0 2267.5,177.8 2275.0,177.8 2275.0,177.8 2282.5,177.8 2282.5,141.0 2285.0,141.0 2285.0,139.8 2287.5,139.8 2287.5,130.2 2290.0,130.2 2290.0,130.0" stroke="rgb(0,0,0)" /><text fill="black" x="2260.0" y="197.8">H39</text><polygon fill="rgb(70,175,70)" points="2325.0,55.0 2325.0,54.8 2322.5,54.8 2322.5,54.8 2320.0,54.8 2320.0,55.0 2320.0,55.0 2320.0,55.2 2322.5,55.2 2322.5,55.2 2325.0,55.2 2325.0,55.0" stroke="rgb(0,0,0)" /><text fill="black" x="2320.0" y="75.2">E40</text><polygon fill="rgb(150,150,150)" points="2365.0,205.0 2365.0,204.8 2362.5,204.8 2362.5,204.4 2342.5,204.4 2342.5,204.4 2322.5,204.4 2322.5,204.8 2320.0,204.8 2320.0,205.0 2320.0,205.0 2320.0,205.2 2322.5,205.2 2322.5,205.6 2342.5,205.6 2342.5,205.6 2362.5,205.6 2362.5,205.2 2365.0,205.2 2365.0,205.0" stroke="rgb(0,0,0)" /><text fill="black" x="2320.0" y="225.6">H41</text><path d="M 292.5,130.0 a 314.52387375236043,314.52387375236043 0 0,0 -200.0,-0.0" stroke="rgb(175,70,70)" stroke-width="2" /><path d="M 292.5,130.0 a 314.52387375236043,314.52387375236043 0 0,0 -200.0,-0.0" stroke="rgb(0,0,0)" stroke-width="0.2" /><path d="M 162.5,130.0 a 42.37959903554206,42.37959903554206 0 0,0 -35.0,-0.0" stroke="rgb(70,70,175)" stroke-width="2" /><path d="M 162.5,130.0 a 42.37959903554206,42.37959903554206 0 0,0 -35.0,-0.0" stroke="rgb(0,0,0)" stroke-width="0.2" /><path d="M 732.5,130.0 a 478.22179572763685,478.22179572763685 0 0,0 -275.0,-0.0" stroke="rgb(150,150,255)" stroke-width="2" /><path d="M 732.5,130.0 a 478.22179572763685,478.22179572763685 0 0,0 -275.0,-0.0" stroke="rgb(0,0,0)" stroke-width="0.2" /><path d="M 1157.5,130.0 a 1737.498932476654,1737.498932476654 0 0,0 -665.0,-0.0" stroke="rgb(150,255,150)" stroke-width="2" /><path d="M 1157.5,130.0 a 1737.498932476654,1737.498932476654 0 0,0 -665.0,-0.0" stroke="rgb(0,0,0)" stroke-width="0.2" /><path d="M 655.0,130.0 a 175.90918576415237,175.90918576415237 0 0,0 -125.0,-0.0" stroke="rgb(255,150,150)" stroke-width="2" /><path d="M 655.0,130.0 a 175.90918576415237,175.90918576415237 0 0,0 -125.0,-0.0" stroke="rgb(0,0,0)" stroke-width="0.2" /><path d="M 997.5,130.0 a 763.9503783469152,763.9503783469152 0 0,0 -385.0,-0.0" stroke="rgb(255,150,255)" stroke-width="2" /><path d="M 997.5,130.0 a 763.9503783469152,763.9503783469152 0 0,0 -385.0,-0.0" stroke="rgb(0,0,0)" stroke-width="0.2" /><path d="M 777.5,130.0 a 171.7185499695192,171.7185499695192 0 0,0 -122.5,-0.0" stroke="rgb(255,150,150)" stroke-width="2" /><path d="M 777.5,130.0 a 171.7185499695192,171.7185499695192 0 0,0 -122.5,-0.0" stroke="rgb(0,0,0)" stroke-width="0.2" /><path d="M 777.5,130.0 a 104.69839186084673,104.69839186084673 0 0,0 -80.0,-0.0" stroke="rgb(255,150,150)" stroke-width="2" /><path d="M 777.5,130.0 a 104.69839186084673,104.69839186084673 0 0,0 -80.0,-0.0" stroke="rgb(0,0,0)" stroke-width="0.2" /><path d="M 997.5,130.0 a 295.3736074379286,295.3736074379286 0 0,0 -175.0,-75.0" stroke="rgb(255,150,255)" stroke-width="2" /><path d="M 997.5,130.0 a 295.3736074379286,295.3736074379286 0 0,0 -175.0,-75.0" stroke="rgb(0,0,0)" stroke-width="0.2" /><path d="M 1740.0,130.0 a 135.245486221096,135.245486221096 0 0,0 -100.0,-0.0" stroke="rgb(150,255,255)" stroke-width="2" /><path d="M 1740.0,130.0 a 135.245486221096,135.245486221096 0 0,0 -100.0,-0.0" stroke="rgb(0,0,0)" stroke-width="0.2" /><path d="M 2055.0,205.0 a 55.463938518129275,55.463938518129275 0 0,0 -45.0,-0.0" stroke="rgb(255,255,150)" stroke-width="2" /><path d="M 2055.0,205.0 a 55.463938518129275,55.463938518129275 0 0,0 -45.0,-0.0" stroke="rgb(0,0,0)" stroke-width="0.2" /><path d="M 2227.5,130.0 a 60.79545454545455,60.79545454545455 0 0,0 95.0,-75.0" stroke="rgb(70,175,70)" stroke-width="2" /><path d="M 2227.5,130.0 a 60.79545454545455,60.79545454545455 0 0,0 95.0,-75.0" stroke="rgb(0,0,0)" stroke-width="0.2" /></svg>