<?xml version="1.0" encoding="utf-8" ?>
<svg baseProfile="full" height="100%" style="font-size:14;font-family:Sans, Arial;stroke-width:1;fill:none" version="1.1" width="100%" xmlns="http://www.w3.org/2000/svg" xmlns:ev="http://www.w3.org/2001/xml-events" xmlns:xlink="http://www.w3.org/1999/xlink"><defs /><rect fill="none" height="280.0" stroke="none" width="6140.4581499999995" x="0" y="0" /><line stroke="rgb(0,0,0)" x1="5.0" x2="27.0" y1="205.0" y2="205.0" /><line stroke="rgb(0,0,0)" x1="27.0" x2="50.0" y1="205.0" y2="130.0" /><line stroke="rgb(0,0,0)" x1="50.0" x2="55.0" y1="130.0" y2="130.0" /><line stroke="rgb(0,0,0)" x1="55.0" x2="100.0" y1="130.0" y2="130.0" /><line stroke="rgb(0,0,0)" x1="100.0" x2="120.0" y1="130.0" y2="55.0" /><line stroke="rgb(0,0,0)" x1="120.0" x2="125.0" y1="55.0" y2="55.0" /><line stroke="rgb(0,0,0)" x1="55.0" x2="100.0" y1="130.0" y2="130.0" /><line stroke="rgb(0,0,0)" x1="100.0" x2="120.0" y1="130.0" y2="205.0" /><line stroke="rgb(0,0,0)" x1="120.0" x2="125.0" y1="205.0" y2="205.0" /><line stroke="rgb(0,0,0)" x1="5.0" x2="30.0" y1="55.0" y2="55.0" /><line stroke="rgb(0,0,0)" x1="30.0" x2="120.0" y1="55.0" y2="205.0" /><line stroke="rgb(0,0,0)" x1="120.0" x2="125.0" y1="205.0" y2="205.0" /><line stroke="rgb(0,0,0)" x1="125.0" x2="150.0" y1="55.0" y2="55.0" /><line stroke="rgb(0,0,0)" x1="150.0" x2="172.0" y1="55.0" y2="130.0" /><line stroke="rgb(0,0,0)" x1="172.0" x2="177.0" y1="130.0" y2="130.0" /><line stroke="rgb(0,0,0)" x1="177.0" x2="199.5" y1="130.0" y2="130.0" /><line stroke="rgb(0,0,0)" x1="199.5" x2="219.5" y1="130.0" y2="130.0" /><line stroke="rgb(0,0,0)" x1="219.5" x2="224.5" y1="130.0" y2="130.0" /><line stroke="rgb(0,0,0)" x1="224.5" x2="252.83335" y1="130.0" y2="130.0" /><line stroke="rgb(0,0,0)" x1="252.83335" x2="272.83335" y1="130.0" y2="130.0" /><line stroke="rgb(0,0,0)" x1="272.83335" x2="277.83335" y1="130.0" y2="130.0" /><line stroke="rgb(0,0,0)" x1="125.0" x2="152.0" y1="205.0" y2="205.0" /><line stroke="rgb(0,0,0)" x1="152.0" x2="272.83335" y1="205.0" y2="130.0" /><line stroke="rgb(0,0,0)" x1="272.83335" x2="277.83335" y1="130.0" y2="130.0" /><line stroke="rgb(0,0,0)" x1="277.83335" x2="357.73435" y1="130.0" y2="130.0" /><line stroke="rgb(0,0,0)" x1="357.73435" x2="377.73435" y1="130.0" y2="130.0" /><line stroke="rgb(0,0,0)" x1="377.73435" x2="382.73435" y1="130.0" y2="130.0" /><line stroke="rgb(0,0,0)" x1="382.73435" x2="404.52004999999997" y1="130.0" y2="130.0" /><line stroke="rgb(0,0,0)" x1="404.52004999999997" x2="424.52004999999997" y1="130.0" y2="130.0" /><line stroke="rgb(0,0,0)" x1="424.52004999999997" x2="429.52004999999997" y1="130.0" y2="130.0" /><line stroke="rgb(0,0,0)" x1="429.52004999999997" x2="439.52004999999997" y1="130.0" y2="130.0" /><line stroke="rgb(0,0,0)" x1="439.52004999999997" x2="459.52004999999997" y1="130.0" y2="130.0" /><line stroke="rgb(0,0,0)" x1="459.52004999999997" x2="464.52004999999997" y1="130.0" y2="130.0" /><line stroke="rgb(0,0,0)" x1="464.52004999999997" x2="515.8358499999999" y1="130.0" y2="130.0" /><line stroke="rgb(0,0,0)" x1="515.8358499999999" x2="535.8358499999999" y1="130.0" y2="130.0" /><line stroke="rgb(0,0,0)" x1="535.8358499999999" x2="540.8358499999999" y1="130.0" y2="130.0" /><line stroke="rgb(0,0,0)" x1="540.8358499999999" x2="545.8358499999999" y1="130.0" y2="130.0" /><line stroke="rgb(0,0,0)" x1="545.8358499999999" x2="565.8358499999999" y1="130.0" y2="130.0" /><line stroke="rgb(0,0,0)" x1="565.8358499999999" x2="570.8358499999999" y1="130.0" y2="130.0" /><line stroke="rgb(0,0,0)" x1="570.8358499999999" x2="575.8358499999999" y1="130.0" y2="130.0" /><line stroke="rgb(0,0,0)" x1="575.8358499999999" x2="595.8358499999999" y1="130.0" y2="130.0" /><line stroke="rgb(0,0,0)" x1="595.8358499999999" x2="600.8358499999999" y1="130.0" y2="130.0" /><line stroke="rgb(0,0,0)" x1="600.8358499999999" x2="673.69285" y1="130.0" y2="130.0" /><line stroke="rgb(0,0,0)" x1="673.69285" x2="693.69285" y1="130.0" y2="130.0" /><line stroke="rgb(0,0,0)" x1="693.69285" x2="698.69285" y1="130.0" y2="130.0" /><line stroke="rgb(0,0,0)" x1="698.69285" x2="708.69285" y1="130.0" y2="130.0" /><line stroke="rgb(0,0,0)" x1="708.69285" x2="728.69285" y1="130.0" y2="130.0" /><line stroke="rgb(0,0,0)" x1="728.69285" x2="733.69285" y1="130.0" y2="130.0" /><line stroke="rgb(0,0,0)" x1="733.69285" x2="743.69285" y1="130.0" y2="130.0" /><line stroke="rgb(0,0,0)" x1="743.69285" x2="763.69285" y1="130.0" y2="130.0" /><line stroke="rgb(0,0,0)" x1="763.69285" x2="768.69285" y1="130.0" y2="130.0" /><line stroke="rgb(0,0,0)" x1="768.69285" x2="843.50235" y1="130.0" y2="130.0" /><line stroke="rgb(0,0,0)" x1="843.50235" x2="863.50235" y1="130.0" y2="130.0" /><line stroke="rgb(0,0,0)" x1="863.50235" x2="868.50235" y1="130.0" y2="130.0" /><line stroke="rgb(0,0,0)" x1="868.50235" x2="888.50235" y1="130.0" y2="130.0" /><line stroke="rgb(0,0,0)" x1="888.50235" x2="908.50235" y1="130.0" y2="130.0" /><line stroke="rgb(0,0,0)" x1="908.50235" x2="913.50235" y1="130.0" y2="130.0" /><line stroke="rgb(0,0,0)" x1="913.50235" x2="976.19085" y1="130.0" y2="130.0" /><line stroke="rgb(0,0,0)" x1="976.19085" x2="996.19085" y1="130.0" y2="130.0" /><line stroke="rgb(0,0,0)" x1="996.19085" x2="1001.19085" y1="130.0" y2="130.0" /><line stroke="rgb(0,0,0)" x1="1001.19085" x2="1011.19085" y1="130.0" y2="130.0" /><line stroke="rgb(0,0,0)" x1="1011.19085" x2="1031.19085" y1="130.0" y2="130.0" /><line stroke="rgb(0,0,0)" x1="1031.19085" x2="1036.19085" y1="130.0" y2="130.0" /><line stroke="rgb(0,0,0)" x1="1036.19085" x2="1056.69085" y1="130.0" y2="130.0" /><line stroke="rgb(0,0,0)" x1="1056.69085" x2="1076.69085" y1="130.0" y2="130.0" /><line stroke="rgb(0,0,0)" x1="1076.69085" x2="1081.69085" y1="130.0" y2="130.0" /><line stroke="rgb(0,0,0)" x1="1081.69085" x2="1091.69085" y1="130.0" y2="130.0" /><line stroke="rgb(0,0,0)" x1="1091.69085" x2="1111.69085" y1="130.0" y2="130.0" /><line stroke="rgb(0,0,0)" x1="1111.69085" x2="1116.69085" y1="130.0" y2="130.0" /><line stroke="rgb(0,0,0)" x1="1116.69085" x2="1127.5242" y1="130.0" y2="130.0" /><line stroke="rgb(0,0,0)" x1="1127.5242" x2="1147.5242" y1="130.0" y2="130.0" /><line stroke="rgb(0,0,0)" x1="1147.5242" x2="1152.5242" y1="130.0" y2="130.0" /><line stroke="rgb(0,0,0)" x1="1152.5242" x2="1172.5242" y1="130.0" y2="130.0" /><line stroke="rgb(0,0,0)" x1="1172.5242" x2="1192.5242" y1="130.0" y2="130.0" /><line stroke="rgb(0,0,0)" x1="1192.5242" x2="1197.5242" y1="130.0" y2="130.0" /><line stroke="rgb(0,0,0)" x1="1197.5242" x2="1208.2385000000002" y1="130.0" y2="130.0" /><line stroke="rgb(0,0,0)" x1="1208.2385000000002" x2="1228.2385000000002" y1="130.0" y2="130.0" /><line stroke="rgb(0,0,0)" x1="1228.2385000000002" x2="1233.2385000000002" y1="130.0" y2="130.0" /><line stroke="rgb(0,0,0)" x1="1233.2385000000002" x2="1256.57185" y1="130.0" y2="130.0" /><line stroke="rgb(0,0,0)" x1="1256.57185" x2="1276.57185" y1="130.0" y2="130.0" /><line stroke="rgb(0,0,0)" x1="1276.57185" x2="1281.57185" y1="130.0" y2="130.0" /><line stroke="rgb(0,0,0)" x1="1281.57185" x2="1307.5718500000003" y1="130.0" y2="130.0" /><line stroke="rgb(0,0,0)" x1="1307.5718500000003" x2="1327.5718500000003" y1="130.0" y2="130.0" /><line stroke="rgb(0,0,0)" x1="1327.5718500000003" x2="1332.5718500000003" y1="130.0" y2="130.0" /><line stroke="rgb(0,0,0)" x1="1332.5718500000003" x2="1342.5718500000003" y1="130.0" y2="130.0" /><line stroke="rgb(0,0,0)" x1="1342.5718500000003" x2="1362.5718500000003" y1="130.0" y2="130.0" /><line stroke="rgb(0,0,0)" x1="1362.5718500000003" x2="1367.5718500000003" y1="130.0" y2="130.0" /><line stroke="rgb(0,0,0)" x1="1367.5718500000003" x2="1424.3943500000003" y1="130.0" y2="130.0" /><line stroke="rgb(0,0,0)" x1="1424.3943500000003" x2="1444.3943500000003" y1="130.0" y2="55.0" /><line stroke="rgb(0,0,0)" x1="1444.3943500000003" x2="1449.3943500000003" y1="55.0" y2="55.0" /><line stroke="rgb(0,0,0)" x1="1367.5718500000003" x2="1424.3943500000003" y1="130.0" y2="130.0" /><line stroke="rgb(0,0,0)" x1="1424.3943500000003" x2="1444.3943500000003" y1="130.0" y2="205.0" /><line stroke="rgb(0,0,0)" x1="1444.3943500000003" x2="1449.3943500000003" y1="205.0" y2="205.0" /><line stroke="rgb(0,0,0)" x1="1449.3943500000003" x2="1454.3943500000003" y1="55.0" y2="55.0" /><line stroke="rgb(0,0,0)" x1="1454.3943500000003" x2="1489.3943500000003" y1="55.0" y2="130.0" /><line stroke="rgb(0,0,0)" x1="1489.3943500000003" x2="1494.3943500000003" y1="130.0" y2="130.0" /><line stroke="rgb(0,0,0)" x1="1449.3943500000003" x2="1469.3943500000003" y1="205.0" y2="205.0" /><line stroke="rgb(0,0,0)" x1="1469.3943500000003" x2="1489.3943500000003" y1="205.0" y2="130.0" /><line stroke="rgb(0,0,0)" x1="1489.3943500000003" x2="1494.3943500000003" y1="130.0" y2="130.0" /><line stroke="rgb(0,0,0)" x1="1494.3943500000003" x2="1504.3943500000003" y1="130.0" y2="130.0" /><line stroke="rgb(0,0,0)" x1="1504.3943500000003" x2="1524.3943500000003" y1="130.0" y2="130.0" /><line stroke="rgb(0,0,0)" x1="1524.3943500000003" x2="1529.3943500000003" y1="130.0" y2="130.0" /><line stroke="rgb(0,0,0)" x1="1529.3943500000003" x2="1534.3943500000003" y1="130.0" y2="130.0" /><line stroke="rgb(0,0,0)" x1="1534.3943500000003" x2="1554.3943500000003" y1="130.0" y2="130.0" /><line stroke="rgb(0,0,0)" x1="1554.3943500000003" x2="1559.3943500000003" y1="130.0" y2="130.0" /><line stroke="rgb(0,0,0)" x1="1559.3943500000003" x2="1605.9364000000003" y1="130.0" y2="130.0" /><line stroke="rgb(0,0,0)" x1="1605.9364000000003" x2="1625.9364000000003" y1="130.0" y2="130.0" /><line stroke="rgb(0,0,0)" x1="1625.9364000000003" x2="1630.9364000000003" y1="130.0" y2="130.0" /><line stroke="rgb(0,0,0)" x1="1630.9364000000003" x2="1645.0273000000002" y1="130.0" y2="130.0" /><line stroke="rgb(0,0,0)" x1="1645.0273000000002" x2="1665.0273000000002" y1="130.0" y2="130.0" /><line stroke="rgb(0,0,0)" x1="1665.0273000000002" x2="1670.0273000000002" y1="130.0" y2="130.0" /><line stroke="rgb(0,0,0)" x1="1670.0273000000002" x2="1714.4526" y1="130.0" y2="130.0" /><line stroke="rgb(0,0,0)" x1="1714.4526" x2="1734.4526" y1="130.0" y2="130.0" /><line stroke="rgb(0,0,0)" x1="1734.4526" x2="1739.4526" y1="130.0" y2="130.0" /><line stroke="rgb(0,0,0)" x1="1739.4526" x2="1749.4526" y1="130.0" y2="130.0" /><line stroke="rgb(0,0,0)" x1="1749.4526" x2="1769.4526" y1="130.0" y2="130.0" /><line stroke="rgb(0,0,0)" x1="1769.4526" x2="1774.4526" y1="130.0" y2="130.0" /><line stroke="rgb(0,0,0)" x1="1774.4526" x2="1794.4526" y1="130.0" y2="130.0" /><line stroke="rgb(0,0,0)" x1="1794.4526" x2="1814.4526" y1="130.0" y2="130.0" /><line stroke="rgb(0,0,0)" x1="1814.4526" x2="1819.4526" y1="130.0" y2="130.0" /><line stroke="rgb(0,0,0)" x1="1819.4526" x2="1844.4526" y1="130.0" y2="130.0" /><line stroke="rgb(0,0,0)" x1="1844.4526" x2="1864.4526" y1="130.0" y2="130.0" /><line stroke="rgb(0,0,0)" x1="1864.4526" x2="1869.4526" y1="130.0" y2="130.0" /><line stroke="rgb(0,0,0)" x1="1869.4526" x2="1893.6386500000003" y1="130.0" y2="130.0" /><line stroke="rgb(0,0,0)" x1="1893.6386500000003" x2="1913.6386500000003" y1="130.0" y2="130.0" /><line stroke="rgb(0,0,0)" x1="1913.6386500000003" x2="1918.6386500000003" y1="130.0" y2="130.0" /><line stroke="rgb(0,0,0)" x1="1918.6386500000003" x2="1939.0136500000003" y1="130.0" y2="130.0" /><line stroke="rgb(0,0,0)" x1="1939.0136500000003" x2="1959.0136500000003" y1="130.0" y2="130.0" /><line stroke="rgb(0,0,0)" x1="1959.0136500000003" x2="1964.0136500000003" y1="130.0" y2="130.0" /><line stroke="rgb(0,0,0)" x1="1964.0136500000003" x2="1974.0136500000003" y1="130.0" y2="130.0" /><line stroke="rgb(0,0,0)" x1="1974.0136500000003" x2="1994.0136500000003" y1="130.0" y2="130.0" /><line stroke="rgb(0,0,0)" x1="1994.0136500000003" x2="1999.0136500000003" y1="130.0" y2="130.0" /><line stroke="rgb(0,0,0)" x1="1999.0136500000003" x2="2004.0136500000003" y1="130.0" y2="130.0" /><line stroke="rgb(0,0,0)" x1="2004.0136500000003" x2="2024.0136500000003" y1="130.0" y2="130.0" /><line stroke="rgb(0,0,0)" x1="2024.0136500000003" x2="2029.0136500000003" y1="130.0" y2="130.0" /><line stroke="rgb(0,0,0)" x1="2029.0136500000003" x2="2041.8708000000004" y1="130.0" y2="130.0" /><line stroke="rgb(0,0,0)" x1="2041.8708000000004" x2="2061.8708000000006" y1="130.0" y2="130.0" /><line stroke="rgb(0,0,0)" x1="2061.8708000000006" x2="2066.8708000000006" y1="130.0" y2="130.0" /><line stroke="rgb(0,0,0)" x1="2066.8708000000006" x2="2117.9557000000004" y1="130.0" y2="130.0" /><line stroke="rgb(0,0,0)" x1="2117.9557000000004" x2="2137.9557000000004" y1="130.0" y2="130.0" /><line stroke="rgb(0,0,0)" x1="2137.9557000000004" x2="2142.9557000000004" y1="130.0" y2="130.0" /><line stroke="rgb(0,0,0)" x1="2142.9557000000004" x2="2147.9557000000004" y1="130.0" y2="130.0" /><line stroke="rgb(0,0,0)" x1="2147.9557000000004" x2="2167.9557000000004" y1="130.0" y2="130.0" /><line stroke="rgb(0,0,0)" x1="2167.9557000000004" x2="2172.9557000000004" y1="130.0" y2="130.0" /><line stroke="rgb(0,0,0)" x1="2172.9557000000004" x2="2177.9557000000004" y1="130.0" y2="130.0" /><line stroke="rgb(0,0,0)" x1="2177.9557000000004" x2="2197.9557000000004" y1="130.0" y2="130.0" /><line stroke="rgb(0,0,0)" x1="2197.9557000000004" x2="2202.9557000000004" y1="130.0" y2="130.0" /><line stroke="rgb(0,0,0)" x1="2202.9557000000004" x2="2207.9557000000004" y1="130.0" y2="130.0" /><line stroke="rgb(0,0,0)" x1="2207.9557000000004" x2="2227.9557000000004" y1="130.0" y2="130.0" /><line stroke="rgb(0,0,0)" x1="2227.9557000000004" x2="2232.9557000000004" y1="130.0" y2="130.0" /><line stroke="rgb(0,0,0)" x1="2232.9557000000004" x2="2237.9557000000004" y1="130.0" y2="130.0" /><line stroke="rgb(0,0,0)" x1="2237.9557000000004" x2="2257.9557000000004" y1="130.0" y2="130.0" /><line stroke="rgb(0,0,0)" x1="2257.9557000000004" x2="2262.9557000000004" y1="130.0" y2="130.0" /><line stroke="rgb(0,0,0)" x1="2262.9557000000004" x2="2267.9557000000004" y1="130.0" y2="130.0" /><line stroke="rgb(0,0,0)" x1="2267.9557000000004" x2="2287.9557000000004" y1="130.0" y2="130.0" /><line stroke="rgb(0,0,0)" x1="2287.9557000000004" x2="2292.9557000000004" y1="130.0" y2="130.0" /><line stroke="rgb(0,0,0)" x1="2292.9557000000004" x2="2297.9557000000004" y1="130.0" y2="130.0" /><line stroke="rgb(0,0,0)" x1="2297.9557000000004" x2="2317.9557000000004" y1="130.0" y2="130.0" /><line stroke="rgb(0,0,0)" x1="2317.9557000000004" x2="2322.9557000000004" y1="130.0" y2="130.0" /><line stroke="rgb(0,0,0)" x1="2322.9557000000004" x2="2342.9557000000004" y1="130.0" y2="130.0" /><line stroke="rgb(0,0,0)" x1="2342.9557000000004" x2="2362.9557000000004" y1="130.0" y2="130.0" /><line stroke="rgb(0,0,0)" x1="2362.9557000000004" x2="2367.9557000000004" y1="130.0" y2="130.0" /><line stroke="rgb(0,0,0)" x1="2367.9557000000004" x2="2372.9557000000004" y1="130.0" y2="130.0" /><line stroke="rgb(0,0,0)" x1="2372.9557000000004" x2="2392.9557000000004" y1="130.0" y2="130.0" /><line stroke="rgb(0,0,0)" x1="2392.9557000000004" x2="2397.9557000000004" y1="130.0" y2="130.0" /><line stroke="rgb(0,0,0)" x1="2397.9557000000004" x2="2407.9557000000004" y1="130.0" y2="130.0" /><line stroke="rgb(0,0,0)" x1="2407.9557000000004" x2="2427.9557000000004" y1="130.0" y2="130.0" /><line stroke="rgb(0,0,0)" x1="2427.9557000000004" x2="2432.9557000000004" y1="130.0" y2="130.0" /><line stroke="rgb(0,0,0)" x1="2432.9557000000004" x2="2482.1538000000005" y1="130.0" y2="130.0" /><line stroke="rgb(0,0,0)" x1="2482.1538000000005" x2="2502.1538000000005" y1="130.0" y2="55.0" /><line stroke="rgb(0,0,0)" x1="2502.1538000000005" x2="2507.1538000000005" y1="55.0" y2="55.0" /><line stroke="rgb(0,0,0)" x1="2432.9557000000004" x2="2482.1538000000005" y1="130.0" y2="130.0" /><line stroke="rgb(0,0,0)" x1="2482.1538000000005" x2="2502.1538000000005" y1="130.0" y2="205.0" /><line stroke="rgb(0,0,0)" x1="2502.1538000000005" x2="2507.1538000000005" y1="205.0" y2="205.0" /><line stroke="rgb(0,0,0)" x1="2507.1538000000005" x2="2518.6031000000003" y1="205.0" y2="205.0" /><line stroke="rgb(0,0,0)" x1="2518.6031000000003" x2="2552.1538000000005" y1="205.0" y2="130.0" /><line stroke="rgb(0,0,0)" x1="2552.1538000000005" x2="2557.1538000000005" y1="130.0" y2="130.0" /><line stroke="rgb(0,0,0)" x1="2557.1538000000005" x2="2567.1538000000005" y1="130.0" y2="130.0" /><line stroke="rgb(0,0,0)" x1="2567.1538000000005" x2="2587.1538000000005" y1="130.0" y2="130.0" /><line stroke="rgb(0,0,0)" x1="2587.1538000000005" x2="2592.1538000000005" y1="130.0" y2="130.0" /><line stroke="rgb(0,0,0)" x1="2507.1538000000005" x2="2532.1538000000005" y1="55.0" y2="55.0" /><line stroke="rgb(0,0,0)" x1="2532.1538000000005" x2="2587.1538000000005" y1="55.0" y2="130.0" /><line stroke="rgb(0,0,0)" x1="2587.1538000000005" x2="2592.1538000000005" y1="130.0" y2="130.0" /><line stroke="rgb(0,0,0)" x1="2592.1538000000005" x2="2613.1954500000006" y1="130.0" y2="130.0" /><line stroke="rgb(0,0,0)" x1="2613.1954500000006" x2="2633.1954500000006" y1="130.0" y2="130.0" /><line stroke="rgb(0,0,0)" x1="2633.1954500000006" x2="2638.1954500000006" y1="130.0" y2="130.0" /><line stroke="rgb(0,0,0)" x1="2638.1954500000006" x2="2648.1954500000006" y1="130.0" y2="130.0" /><line stroke="rgb(0,0,0)" x1="2648.1954500000006" x2="2668.1954500000006" y1="130.0" y2="130.0" /><line stroke="rgb(0,0,0)" x1="2668.1954500000006" x2="2673.1954500000006" y1="130.0" y2="130.0" /><line stroke="rgb(0,0,0)" x1="2673.1954500000006" x2="2693.1954500000006" y1="130.0" y2="130.0" /><line stroke="rgb(0,0,0)" x1="2693.1954500000006" x2="2713.1954500000006" y1="130.0" y2="130.0" /><line stroke="rgb(0,0,0)" x1="2713.1954500000006" x2="2718.1954500000006" y1="130.0" y2="130.0" /><line stroke="rgb(0,0,0)" x1="2718.1954500000006" x2="2728.9307500000004" y1="130.0" y2="130.0" /><line stroke="rgb(0,0,0)" x1="2728.9307500000004" x2="2748.9307500000004" y1="130.0" y2="130.0" /><line stroke="rgb(0,0,0)" x1="2748.9307500000004" x2="2753.9307500000004" y1="130.0" y2="130.0" /><line stroke="rgb(0,0,0)" x1="2753.9307500000004" x2="2758.9307500000004" y1="130.0" y2="130.0" /><line stroke="rgb(0,0,0)" x1="2758.9307500000004" x2="2778.9307500000004" y1="130.0" y2="130.0" /><line stroke="rgb(0,0,0)" x1="2778.9307500000004" x2="2783.9307500000004" y1="130.0" y2="130.0" /><line stroke="rgb(0,0,0)" x1="2783.9307500000004" x2="2808.9307500000004" y1="130.0" y2="130.0" /><line stroke="rgb(0,0,0)" x1="2808.9307500000004" x2="2828.9307500000004" y1="130.0" y2="55.0" /><line stroke="rgb(0,0,0)" x1="2828.9307500000004" x2="2833.9307500000004" y1="55.0" y2="55.0" /><line stroke="rgb(0,0,0)" x1="2783.9307500000004" x2="2808.9307500000004" y1="130.0" y2="130.0" /><line stroke="rgb(0,0,0)" x1="2808.9307500000004" x2="2828.9307500000004" y1="130.0" y2="205.0" /><line stroke="rgb(0,0,0)" x1="2828.9307500000004" x2="2833.9307500000004" y1="205.0" y2="205.0" /><line stroke="rgb(0,0,0)" x1="2833.9307500000004" x2="2838.9307500000004" y1="55.0" y2="55.0" /><line stroke="rgb(0,0,0)" x1="2838.9307500000004" x2="2858.9307500000004" y1="55.0" y2="130.0" /><line stroke="rgb(0,0,0)" x1="2858.9307500000004" x2="2863.9307500000004" y1="130.0" y2="130.0" /><line stroke="rgb(0,0,0)" x1="2833.9307500000004" x2="2838.9307500000004" y1="205.0" y2="205.0" /><line stroke="rgb(0,0,0)" x1="2838.9307500000004" x2="2858.9307500000004" y1="205.0" y2="130.0" /><line stroke="rgb(0,0,0)" x1="2858.9307500000004" x2="2863.9307500000004" y1="130.0" y2="130.0" /><line stroke="rgb(0,0,0)" x1="2863.9307500000004" x2="2888.9307500000004" y1="130.0" y2="130.0" /><line stroke="rgb(0,0,0)" x1="2888.9307500000004" x2="2908.9307500000004" y1="130.0" y2="130.0" /><line stroke="rgb(0,0,0)" x1="2908.9307500000004" x2="2913.9307500000004" y1="130.0" y2="130.0" /><line stroke="rgb(0,0,0)" x1="2913.9307500000004" x2="2969.9587500000007" y1="130.0" y2="130.0" /><line stroke="rgb(0,0,0)" x1="2969.9587500000007" x2="2989.9587500000007" y1="130.0" y2="130.0" /><line stroke="rgb(0,0,0)" x1="2989.9587500000007" x2="2994.9587500000007" y1="130.0" y2="130.0" /><line stroke="rgb(0,0,0)" x1="2994.9587500000007" x2="3014.9587500000007" y1="130.0" y2="130.0" /><line stroke="rgb(0,0,0)" x1="3014.9587500000007" x2="3034.9587500000007" y1="130.0" y2="130.0" /><line stroke="rgb(0,0,0)" x1="3034.9587500000007" x2="3039.9587500000007" y1="130.0" y2="130.0" /><line stroke="rgb(0,0,0)" x1="3039.9587500000007" x2="3100.145750000001" y1="130.0" y2="130.0" /><line stroke="rgb(0,0,0)" x1="3100.145750000001" x2="3120.145750000001" y1="130.0" y2="55.0" /><line stroke="rgb(0,0,0)" x1="3120.145750000001" x2="3125.145750000001" y1="55.0" y2="55.0" /><line stroke="rgb(0,0,0)" x1="3039.9587500000007" x2="3100.145750000001" y1="130.0" y2="130.0" /><line stroke="rgb(0,0,0)" x1="3100.145750000001" x2="3120.145750000001" y1="130.0" y2="205.0" /><line stroke="rgb(0,0,0)" x1="3120.145750000001" x2="3125.145750000001" y1="205.0" y2="205.0" /><line stroke="rgb(0,0,0)" x1="3125.145750000001" x2="3135.145750000001" y1="55.0" y2="55.0" /><line stroke="rgb(0,0,0)" x1="3135.145750000001" x2="3172.115450000001" y1="55.0" y2="130.0" /><line stroke="rgb(0,0,0)" x1="3172.115450000001" x2="3177.115450000001" y1="130.0" y2="130.0" /><line stroke="rgb(0,0,0)" x1="3125.145750000001" x2="3152.115450000001" y1="205.0" y2="205.0" /><line stroke="rgb(0,0,0)" x1="3152.115450000001" x2="3172.115450000001" y1="205.0" y2="130.0" /><line stroke="rgb(0,0,0)" x1="3172.115450000001" x2="3177.115450000001" y1="130.0" y2="130.0" /><line stroke="rgb(0,0,0)" x1="3177.115450000001" x2="3192.115450000001" y1="130.0" y2="130.0" /><line stroke="rgb(0,0,0)" x1="3192.115450000001" x2="3212.115450000001" y1="130.0" y2="130.0" /><line stroke="rgb(0,0,0)" x1="3212.115450000001" x2="3217.115450000001" y1="130.0" y2="130.0" /><line stroke="rgb(0,0,0)" x1="3217.115450000001" x2="3229.615450000001" y1="130.0" y2="130.0" /><line stroke="rgb(0,0,0)" x1="3229.615450000001" x2="3249.615450000001" y1="130.0" y2="130.0" /><line stroke="rgb(0,0,0)" x1="3249.615450000001" x2="3254.615450000001" y1="130.0" y2="130.0" /><line stroke="rgb(0,0,0)" x1="3254.615450000001" x2="3279.615450000001" y1="130.0" y2="130.0" /><line stroke="rgb(0,0,0)" x1="3279.615450000001" x2="3299.615450000001" y1="130.0" y2="130.0" /><line stroke="rgb(0,0,0)" x1="3299.615450000001" x2="3304.615450000001" y1="130.0" y2="130.0" /><line stroke="rgb(0,0,0)" x1="3304.615450000001" x2="3317.948800000001" y1="130.0" y2="130.0" /><line stroke="rgb(0,0,0)" x1="3317.948800000001" x2="3337.948800000001" y1="130.0" y2="130.0" /><line stroke="rgb(0,0,0)" x1="3337.948800000001" x2="3342.948800000001" y1="130.0" y2="130.0" /><line stroke="rgb(0,0,0)" x1="3342.948800000001" x2="3362.948800000001" y1="130.0" y2="130.0" /><line stroke="rgb(0,0,0)" x1="3362.948800000001" x2="3382.948800000001" y1="130.0" y2="130.0" /><line stroke="rgb(0,0,0)" x1="3382.948800000001" x2="3387.948800000001" y1="130.0" y2="130.0" /><line stroke="rgb(0,0,0)" x1="3387.948800000001" x2="3397.948800000001" y1="130.0" y2="130.0" /><line stroke="rgb(0,0,0)" x1="3397.948800000001" x2="3417.948800000001" y1="130.0" y2="130.0" /><line stroke="rgb(0,0,0)" x1="3417.948800000001" x2="3422.948800000001" y1="130.0" y2="130.0" /><line stroke="rgb(0,0,0)" x1="3422.948800000001" x2="3433.282150000001" y1="130.0" y2="130.0" /><line stroke="rgb(0,0,0)" x1="3433.282150000001" x2="3453.282150000001" y1="130.0" y2="130.0" /><line stroke="rgb(0,0,0)" x1="3453.282150000001" x2="3458.282150000001" y1="130.0" y2="130.0" /><line stroke="rgb(0,0,0)" x1="3458.282150000001" x2="3472.282150000001" y1="130.0" y2="130.0" /><line stroke="rgb(0,0,0)" x1="3472.282150000001" x2="3492.282150000001" y1="130.0" y2="130.0" /><line stroke="rgb(0,0,0)" x1="3492.282150000001" x2="3497.282150000001" y1="130.0" y2="130.0" /><line stroke="rgb(0,0,0)" x1="3497.282150000001" x2="3565.786650000001" y1="130.0" y2="130.0" /><line stroke="rgb(0,0,0)" x1="3565.786650000001" x2="3585.786650000001" y1="130.0" y2="130.0" /><line stroke="rgb(0,0,0)" x1="3585.786650000001" x2="3590.786650000001" y1="130.0" y2="130.0" /><line stroke="rgb(0,0,0)" x1="3590.786650000001" x2="3610.786650000001" y1="130.0" y2="130.0" /><line stroke="rgb(0,0,0)" x1="3610.786650000001" x2="3630.786650000001" y1="130.0" y2="130.0" /><line stroke="rgb(0,0,0)" x1="3630.786650000001" x2="3635.786650000001" y1="130.0" y2="130.0" /><line stroke="rgb(0,0,0)" x1="3635.786650000001" x2="3698.543650000001" y1="130.0" y2="130.0" /><line stroke="rgb(0,0,0)" x1="3698.543650000001" x2="3718.543650000001" y1="130.0" y2="130.0" /><line stroke="rgb(0,0,0)" x1="3718.543650000001" x2="3723.543650000001" y1="130.0" y2="130.0" /><line stroke="rgb(0,0,0)" x1="3723.543650000001" x2="3746.321450000001" y1="130.0" y2="130.0" /><line stroke="rgb(0,0,0)" x1="3746.321450000001" x2="3766.321450000001" y1="130.0" y2="130.0" /><line stroke="rgb(0,0,0)" x1="3766.321450000001" x2="3771.321450000001" y1="130.0" y2="130.0" /><line stroke="rgb(0,0,0)" x1="3771.321450000001" x2="3776.321450000001" y1="130.0" y2="130.0" /><line stroke="rgb(0,0,0)" x1="3776.321450000001" x2="3796.321450000001" y1="130.0" y2="130.0" /><line stroke="rgb(0,0,0)" x1="3796.321450000001" x2="3801.321450000001" y1="130.0" y2="130.0" /><line stroke="rgb(0,0,0)" x1="3801.321450000001" x2="3806.321450000001" y1="130.0" y2="130.0" /><line stroke="rgb(0,0,0)" x1="3806.321450000001" x2="3826.321450000001" y1="130.0" y2="55.0" /><line stroke="rgb(0,0,0)" x1="3826.321450000001" x2="3831.321450000001" y1="55.0" y2="55.0" /><line stroke="rgb(0,0,0)" x1="3801.321450000001" x2="3806.321450000001" y1="130.0" y2="130.0" /><line stroke="rgb(0,0,0)" x1="3806.321450000001" x2="3826.321450000001" y1="130.0" y2="205.0" /><line stroke="rgb(0,0,0)" x1="3826.321450000001" x2="3831.321450000001" y1="205.0" y2="205.0" /><line stroke="rgb(0,0,0)" x1="3831.321450000001" x2="3836.321450000001" y1="55.0" y2="55.0" /><line stroke="rgb(0,0,0)" x1="3836.321450000001" x2="3856.321450000001" y1="55.0" y2="130.0" /><line stroke="rgb(0,0,0)" x1="3856.321450000001" x2="3861.321450000001" y1="130.0" y2="130.0" /><line stroke="rgb(0,0,0)" x1="3861.321450000001" x2="3884.1475500000006" y1="130.0" y2="130.0" /><line stroke="rgb(0,0,0)" x1="3884.1475500000006" x2="3904.1475500000006" y1="130.0" y2="130.0" /><line stroke="rgb(0,0,0)" x1="3904.1475500000006" x2="3909.1475500000006" y1="130.0" y2="130.0" /><line stroke="rgb(0,0,0)" x1="3831.321450000001" x2="3836.321450000001" y1="205.0" y2="205.0" /><line stroke="rgb(0,0,0)" x1="3836.321450000001" x2="3904.1475500000006" y1="205.0" y2="130.0" /><line stroke="rgb(0,0,0)" x1="3904.1475500000006" x2="3909.1475500000006" y1="130.0" y2="130.0" /><line stroke="rgb(0,0,0)" x1="3909.1475500000006" x2="3930.228650000001" y1="130.0" y2="130.0" /><line stroke="rgb(0,0,0)" x1="3930.228650000001" x2="3950.228650000001" y1="130.0" y2="130.0" /><line stroke="rgb(0,0,0)" x1="3950.228650000001" x2="3955.228650000001" y1="130.0" y2="130.0" /><line stroke="rgb(0,0,0)" x1="3955.228650000001" x2="3978.101000000001" y1="130.0" y2="130.0" /><line stroke="rgb(0,0,0)" x1="3978.101000000001" x2="3998.101000000001" y1="130.0" y2="130.0" /><line stroke="rgb(0,0,0)" x1="3998.101000000001" x2="4003.101000000001" y1="130.0" y2="130.0" /><line stroke="rgb(0,0,0)" x1="4003.101000000001" x2="4066.792500000001" y1="130.0" y2="130.0" /><line stroke="rgb(0,0,0)" x1="4066.792500000001" x2="4086.792500000001" y1="130.0" y2="130.0" /><line stroke="rgb(0,0,0)" x1="4086.792500000001" x2="4091.792500000001" y1="130.0" y2="130.0" /><line stroke="rgb(0,0,0)" x1="4091.792500000001" x2="4096.792500000001" y1="130.0" y2="130.0" /><line stroke="rgb(0,0,0)" x1="4096.792500000001" x2="4116.7925000000005" y1="130.0" y2="130.0" /><line stroke="rgb(0,0,0)" x1="4116.7925000000005" x2="4121.7925000000005" y1="130.0" y2="130.0" /><line stroke="rgb(0,0,0)" x1="4121.7925000000005" x2="4126.7925000000005" y1="130.0" y2="130.0" /><line stroke="rgb(0,0,0)" x1="4126.7925000000005" x2="4146.7925000000005" y1="130.0" y2="130.0" /><line stroke="rgb(0,0,0)" x1="4146.7925000000005" x2="4151.7925000000005" y1="130.0" y2="130.0" /><line stroke="rgb(0,0,0)" x1="4151.7925000000005" x2="4156.7925000000005" y1="130.0" y2="130.0" /><line stroke="rgb(0,0,0)" x1="4156.7925000000005" x2="4176.7925000000005" y1="130.0" y2="130.0" /><line stroke="rgb(0,0,0)" x1="4176.7925000000005" x2="4181.7925000000005" y1="130.0" y2="130.0" /><line stroke="rgb(0,0,0)" x1="4181.7925000000005" x2="4186.7925000000005" y1="130.0" y2="130.0" /><line stroke="rgb(0,0,0)" x1="4186.7925000000005" x2="4206.7925000000005" y1="130.0" y2="130.0" /><line stroke="rgb(0,0,0)" x1="4206.7925000000005" x2="4211.7925000000005" y1="130.0" y2="130.0" /><line stroke="rgb(0,0,0)" x1="4211.7925000000005" x2="4216.7925000000005" y1="130.0" y2="130.0" /><line stroke="rgb(0,0,0)" x1="4216.7925000000005" x2="4236.7925000000005" y1="130.0" y2="130.0" /><line stroke="rgb(0,0,0)" x1="4236.7925000000005" x2="4241.7925000000005" y1="130.0" y2="130.0" /><line stroke="rgb(0,0,0)" x1="4241.7925000000005" x2="4246.7925000000005" y1="130.0" y2="130.0" /><line stroke="rgb(0,0,0)" x1="4246.7925000000005" x2="4266.7925000000005" y1="130.0" y2="130.0" /><line stroke="rgb(0,0,0)" x1="4266.7925000000005" x2="4271.7925000000005" y1="130.0" y2="130.0" /><line stroke="rgb(0,0,0)" x1="4271.7925000000005" x2="4332.5425000000005" y1="130.0" y2="130.0" /><line stroke="rgb(0,0,0)" x1="4332.5425000000005" x2="4352.5425000000005" y1="130.0" y2="130.0" /><line stroke="rgb(0,0,0)" x1="4352.5425000000005" x2="4357.5425000000005" y1="130.0" y2="130.0" /><line stroke="rgb(0,0,0)" x1="4357.5425000000005" x2="4369.328200000001" y1="130.0" y2="130.0" /><line stroke="rgb(0,0,0)" x1="4369.328200000001" x2="4389.328200000001" y1="130.0" y2="130.0" /><line stroke="rgb(0,0,0)" x1="4389.328200000001" x2="4394.328200000001" y1="130.0" y2="130.0" /><line stroke="rgb(0,0,0)" x1="4394.328200000001" x2="4407.661550000001" y1="130.0" y2="130.0" /><line stroke="rgb(0,0,0)" x1="4407.661550000001" x2="4427.661550000001" y1="130.0" y2="130.0" /><line stroke="rgb(0,0,0)" x1="4427.661550000001" x2="4432.661550000001" y1="130.0" y2="130.0" /><line stroke="rgb(0,0,0)" x1="4432.661550000001" x2="4452.661550000001" y1="130.0" y2="130.0" /><line stroke="rgb(0,0,0)" x1="4452.661550000001" x2="4472.661550000001" y1="130.0" y2="130.0" /><line stroke="rgb(0,0,0)" x1="4472.661550000001" x2="4477.661550000001" y1="130.0" y2="130.0" /><line stroke="rgb(0,0,0)" x1="4477.661550000001" x2="4487.661550000001" y1="130.0" y2="130.0" /><line stroke="rgb(0,0,0)" x1="4487.661550000001" x2="4507.661550000001" y1="130.0" y2="130.0" /><line stroke="rgb(0,0,0)" x1="4507.661550000001" x2="4512.661550000001" y1="130.0" y2="130.0" /><line stroke="rgb(0,0,0)" x1="4512.661550000001" x2="4522.661550000001" y1="130.0" y2="130.0" /><line stroke="rgb(0,0,0)" x1="4522.661550000001" x2="4542.661550000001" y1="130.0" y2="130.0" /><line stroke="rgb(0,0,0)" x1="4542.661550000001" x2="4547.661550000001" y1="130.0" y2="130.0" /><line stroke="rgb(0,0,0)" x1="4547.661550000001" x2="4557.661550000001" y1="130.0" y2="130.0" /><line stroke="rgb(0,0,0)" x1="4557.661550000001" x2="4577.661550000001" y1="130.0" y2="130.0" /><line stroke="rgb(0,0,0)" x1="4577.661550000001" x2="4582.661550000001" y1="130.0" y2="130.0" /><line stroke="rgb(0,0,0)" x1="4582.661550000001" x2="4637.16155" y1="130.0" y2="130.0" /><line stroke="rgb(0,0,0)" x1="4637.16155" x2="4657.16155" y1="130.0" y2="130.0" /><line stroke="rgb(0,0,0)" x1="4657.16155" x2="4662.16155" y1="130.0" y2="130.0" /><line stroke="rgb(0,0,0)" x1="4662.16155" x2="4683.8282" y1="130.0" y2="130.0" /><line stroke="rgb(0,0,0)" x1="4683.8282" x2="4703.8282" y1="130.0" y2="130.0" /><line stroke="rgb(0,0,0)" x1="4703.8282" x2="4708.8282" y1="130.0" y2="130.0" /><line stroke="rgb(0,0,0)" x1="4708.8282" x2="4728.8282" y1="130.0" y2="130.0" /><line stroke="rgb(0,0,0)" x1="4728.8282" x2="4748.8282" y1="130.0" y2="130.0" /><line stroke="rgb(0,0,0)" x1="4748.8282" x2="4753.8282" y1="130.0" y2="130.0" /><line stroke="rgb(0,0,0)" x1="4753.8282" x2="4778.8282" y1="130.0" y2="130.0" /><line stroke="rgb(0,0,0)" x1="4778.8282" x2="4798.8282" y1="130.0" y2="130.0" /><line stroke="rgb(0,0,0)" x1="4798.8282" x2="4803.8282" y1="130.0" y2="130.0" /><line stroke="rgb(0,0,0)" x1="4803.8282" x2="4827.2282000000005" y1="130.0" y2="130.0" /><line stroke="rgb(0,0,0)" x1="4827.2282000000005" x2="4847.2282000000005" y1="130.0" y2="130.0" /><line stroke="rgb(0,0,0)" x1="4847.2282000000005" x2="4852.2282000000005" y1="130.0" y2="130.0" /><line stroke="rgb(0,0,0)" x1="4852.2282000000005" x2="4921.4857" y1="130.0" y2="130.0" /><line stroke="rgb(0,0,0)" x1="4921.4857" x2="4941.4857" y1="130.0" y2="130.0" /><line stroke="rgb(0,0,0)" x1="4941.4857" x2="4946.4857" y1="130.0" y2="130.0" /><line stroke="rgb(0,0,0)" x1="4946.4857" x2="4959.81905" y1="130.0" y2="130.0" /><line stroke="rgb(0,0,0)" x1="4959.81905" x2="4979.81905" y1="130.0" y2="130.0" /><line stroke="rgb(0,0,0)" x1="4979.81905" x2="4984.81905" y1="130.0" y2="130.0" /><line stroke="rgb(0,0,0)" x1="4984.81905" x2="5000.2036499999995" y1="130.0" y2="130.0" /><line stroke="rgb(0,0,0)" x1="5000.2036499999995" x2="5020.2036499999995" y1="130.0" y2="130.0" /><line stroke="rgb(0,0,0)" x1="5020.2036499999995" x2="5025.2036499999995" y1="130.0" y2="130.0" /><line stroke="rgb(0,0,0)" x1="5025.2036499999995" x2="5043.7751" y1="130.0" y2="130.0" /><line stroke="rgb(0,0,0)" x1="5043.7751" x2="5063.7751" y1="130.0" y2="130.0" /><line stroke="rgb(0,0,0)" x1="5063.7751" x2="5068.7751" y1="130.0" y2="130.0" /><line stroke="rgb(0,0,0)" x1="5068.7751" x2="5088.7751" y1="130.0" y2="130.0" /><line stroke="rgb(0,0,0)" x1="5088.7751" x2="5108.7751" y1="130.0" y2="130.0" /><line stroke="rgb(0,0,0)" x1="5108.7751" x2="5113.7751" y1="130.0" y2="130.0" /><line stroke="rgb(0,0,0)" x1="5113.7751" x2="5133.775100000001" y1="130.0" y2="130.0" /><line stroke="rgb(0,0,0)" x1="5133.775100000001" x2="5153.775100000001" y1="130.0" y2="130.0" /><line stroke="rgb(0,0,0)" x1="5153.775100000001" x2="5158.775100000001" y1="130.0" y2="130.0" /><line stroke="rgb(0,0,0)" x1="5158.775100000001" x2="5190.025100000001" y1="130.0" y2="130.0" /><line stroke="rgb(0,0,0)" x1="5190.025100000001" x2="5210.025100000001" y1="130.0" y2="130.0" /><line stroke="rgb(0,0,0)" x1="5210.025100000001" x2="5215.025100000001" y1="130.0" y2="130.0" /><line stroke="rgb(0,0,0)" x1="5215.025100000001" x2="5235.2473" y1="130.0" y2="130.0" /><line stroke="rgb(0,0,0)" x1="5235.2473" x2="5255.2473" y1="130.0" y2="130.0" /><line stroke="rgb(0,0,0)" x1="5255.2473" x2="5260.2473" y1="130.0" y2="130.0" /><line stroke="rgb(0,0,0)" x1="5260.2473" x2="5270.2473" y1="130.0" y2="130.0" /><line stroke="rgb(0,0,0)" x1="5270.2473" x2="5290.2473" y1="130.0" y2="130.0" /><line stroke="rgb(0,0,0)" x1="5290.2473" x2="5295.2473" y1="130.0" y2="130.0" /><line stroke="rgb(0,0,0)" x1="5295.2473" x2="5369.9502999999995" y1="130.0" y2="130.0" /><line stroke="rgb(0,0,0)" x1="5369.9502999999995" x2="5389.9502999999995" y1="130.0" y2="130.0" /><line stroke="rgb(0,0,0)" x1="5389.9502999999995" x2="5394.9502999999995" y1="130.0" y2="130.0" /><line stroke="rgb(0,0,0)" x1="5394.9502999999995" x2="5416.8252999999995" y1="130.0" y2="130.0" /><line stroke="rgb(0,0,0)" x1="5416.8252999999995" x2="5436.8252999999995" y1="130.0" y2="130.0" /><line stroke="rgb(0,0,0)" x1="5436.8252999999995" x2="5441.8252999999995" y1="130.0" y2="130.0" /><line stroke="rgb(0,0,0)" x1="5441.8252999999995" x2="5499.722299999999" y1="130.0" y2="130.0" /><line stroke="rgb(0,0,0)" x1="5499.722299999999" x2="5519.722299999999" y1="130.0" y2="55.0" /><line stroke="rgb(0,0,0)" x1="5519.722299999999" x2="5524.722299999999" y1="55.0" y2="55.0" /><line stroke="rgb(0,0,0)" x1="5441.8252999999995" x2="5499.722299999999" y1="130.0" y2="130.0" /><line stroke="rgb(0,0,0)" x1="5499.722299999999" x2="5519.722299999999" y1="130.0" y2="205.0" /><line stroke="rgb(0,0,0)" x1="5519.722299999999" x2="5524.722299999999" y1="205.0" y2="205.0" /><line stroke="rgb(0,0,0)" x1="5524.722299999999" x2="5534.722299999999" y1="55.0" y2="55.0" /><line stroke="rgb(0,0,0)" x1="5534.722299999999" x2="5564.722299999999" y1="55.0" y2="130.0" /><line stroke="rgb(0,0,0)" x1="5564.722299999999" x2="5569.722299999999" y1="130.0" y2="130.0" /><line stroke="rgb(0,0,0)" x1="5524.722299999999" x2="5544.722299999999" y1="205.0" y2="205.0" /><line stroke="rgb(0,0,0)" x1="5544.722299999999" x2="5564.722299999999" y1="205.0" y2="130.0" /><line stroke="rgb(0,0,0)" x1="5564.722299999999" x2="5569.722299999999" y1="130.0" y2="130.0" /><line stroke="rgb(0,0,0)" x1="5569.722299999999" x2="5598.3223" y1="130.0" y2="130.0" /><line stroke="rgb(0,0,0)" x1="5598.3223" x2="5618.3223" y1="130.0" y2="130.0" /><line stroke="rgb(0,0,0)" x1="5618.3223" x2="5623.3223" y1="130.0" y2="130.0" /><line stroke="rgb(0,0,0)" x1="5623.3223" x2="5633.3223" y1="130.0" y2="130.0" /><line stroke="rgb(0,0,0)" x1="5633.3223" x2="5653.3223" y1="130.0" y2="130.0" /><line stroke="rgb(0,0,0)" x1="5653.3223" x2="5658.3223" y1="130.0" y2="130.0" /><line stroke="rgb(0,0,0)" x1="5658.3223" x2="5719.3973" y1="130.0" y2="130.0" /><line stroke="rgb(0,0,0)" x1="5719.3973" x2="5739.3973" y1="130.0" y2="130.0" /><line stroke="rgb(0,0,0)" x1="5739.3973" x2="5744.3973" y1="130.0" y2="130.0" /><line stroke="rgb(0,0,0)" x1="5744.3973" x2="5767.7306499999995" y1="130.0" y2="130.0" /><line stroke="rgb(0,0,0)" x1="5767.7306499999995" x2="5787.7306499999995" y1="130.0" y2="130.0" /><line stroke="rgb(0,0,0)" x1="5787.7306499999995" x2="5792.7306499999995" y1="130.0" y2="130.0" /><line stroke="rgb(0,0,0)" x1="5792.7306499999995" x2="5797.7306499999995" y1="130.0" y2="130.0" /><line stroke="rgb(0,0,0)" x1="5797.7306499999995" x2="5817.7306499999995" y1="130.0" y2="130.0" /><line stroke="rgb(0,0,0)" x1="5817.7306499999995" x2="5822.7306499999995" y1="130.0" y2="130.0" /><line stroke="rgb(0,0,0)" x1="5822.7306499999995" x2="5827.7306499999995" y1="130.0" y2="130.0" /><line stroke="rgb(0,0,0)" x1="5827.7306499999995" x2="5847.7306499999995" y1="130.0" y2="130.0" /><line stroke="rgb(0,0,0)" x1="5847.7306499999995" x2="5852.7306499999995" y1="130.0" y2="130.0" /><line stroke="rgb(0,0,0)" x1="5852.7306499999995" x2="5857.7306499999995" y1="130.0" y2="130.0" /><line stroke="rgb(0,0,0)" x1="5857.7306499999995" x2="5877.7306499999995" y1="130.0" y2="130.0" /><line stroke="rgb(0,0,0)" x1="5877.7306499999995" x2="5882.7306499999995" y1="130.0" y2="130.0" /><line stroke="rgb(0,0,0)" x1="5882.7306499999995" x2="5887.7306499999995" y1="130.0" y2="130.0" /><line stroke="rgb(0,0,0)" x1="5887.7306499999995" x2="5907.7306499999995" y1="130.0" y2="130.0" /><line stroke="rgb(0,0,0)" x1="5907.7306499999995" x2="5912.7306499999995" y1="130.0" y2="130.0" /><line stroke="rgb(0,0,0)" x1="5912.7306499999995" x2="5970.4581499999995" y1="130.0" y2="130.0" /><line stroke="rgb(0,0,0)" x1="5970.4581499999995" x2="5990.4581499999995" y1="130.0" y2="130.0" /><line stroke="rgb(0,0,0)" x1="5990.4581499999995" x2="5995.4581499999995" y1="130.0" y2="130.0" /><line stroke="rgb(0,0,0)" x1="5995.4581499999995" x2="6015.4581499999995" y1="130.0" y2="130.0" /><line stroke="rgb(0,0,0)" x1="6015.4581499999995" x2="6035.4581499999995" y1="130.0" y2="130.0" /><line stroke="rgb(0,0,0)" x1="6035.4581499999995" x2="6040.4581499999995" y1="130.0" y2="130.0" /><line stroke="rgb(0,0,0)" x1="6040.4581499999995" x2="6045.4581499999995" y1="130.0" y2="130.0" /><line stroke="rgb(0,0,0)" x1="6045.4581499999995" x2="6065.4581499999995" y1="130.0" y2="130.0" /><line stroke="rgb(0,0,0)" x1="6065.4581499999995" x2="6070.4581499999995" y1="130.0" y2="130.0" /><rect fill="rgb(255,150,150)" height="2.80374" stroke="rgb(0,0,0)" width="20.0" x="5.0" y="53.59813" /><text fill="black" x="5.0" y="76.40187">E0</text><rect fill="rgb(150,150,150)" height="4.6729" stroke="rgb(0,0,0)" width="17.0" x="5.0" y="202.66355" /><text fill="black" x="5.0" y="227.33645">H1</text><rect fill="rgb(150,150,150)" height="4.6729" stroke="rgb(0,0,0)" width="40.0" x="55.0" y="127.66355" /><text fill="black" x="55.0" y="152.33645">H2</text><rect fill="rgb(150,150,150)" height="0.9345789999999999" stroke="rgb(0,0,0)" width="20.0" x="125.0" y="54.5327105" /><text fill="black" x="125.0" y="75.46728949999999">H3</text><rect fill="rgb(255,150,150)" height="42.0561" stroke="rgb(0,0,0)" width="22.0" x="125.0" y="183.97195" /><text fill="black" x="125.0" y="246.02805">E4</text><rect fill="rgb(150,150,150)" height="1.86916" stroke="rgb(0,0,0)" width="17.5" x="177.0" y="129.06542" /><text fill="black" x="177.0" y="150.93458">H5</text><rect fill="rgb(150,150,150)" height="2.80374" stroke="rgb(0,0,0)" width="23.33335" x="224.5" y="128.59813" /><text fill="black" x="224.5" y="151.40187">H6</text><rect fill="rgb(255,150,150)" height="94.3925" stroke="rgb(0,0,0)" width="74.901" x="277.83335" y="82.80375000000001" /><text fill="black" x="277.83335" y="197.19625">E7</text><rect fill="rgb(150,150,150)" height="26.168200000000002" stroke="rgb(0,0,0)" width="16.7857" x="382.73435" y="116.9159" /><text fill="black" x="382.73435" y="163.0841">H8</text><rect fill="rgb(255,150,150)" height="5.60748" stroke="rgb(0,0,0)" width="5.0" x="429.52004999999997" y="127.19626" /><text fill="black" x="429.52004999999997" y="152.80374">E9</text><rect fill="rgb(255,150,150)" height="17.757" stroke="rgb(0,0,0)" width="46.315799999999996" x="464.52004999999997" y="121.1215" /><text fill="black" x="464.52004999999997" y="158.8785">E10</text><rect fill="rgb(150,150,150)" height="0.0" stroke="rgb(0,0,0)" width="0.0" x="540.8358499999999" y="130.0" /><text fill="black" x="540.8358499999999" y="150.0">X11</text><rect fill="rgb(150,150,150)" height="0.0" stroke="rgb(0,0,0)" width="0.0" x="570.8358499999999" y="130.0" /><text fill="black" x="570.8358499999999" y="150.0">X12</text><rect fill="rgb(255,150,150)" height="6.542059999999999" stroke="rgb(0,0,0)" width="67.857" x="600.8358499999999" y="126.72897" /><text fill="black" x="600.8358499999999" y="153.27103">E13</text><rect fill="rgb(150,255,255)" height="31.7757" stroke="rgb(0,0,0)" width="5.0" x="698.69285" y="114.11215" /><text fill="black" x="698.69285" y="165.88785000000001">E14</text><rect fill="rgb(150,255,255)" height="0.9345789999999999" stroke="rgb(0,0,0)" width="5.0" x="733.69285" y="129.5327105" /><text fill="black" x="733.69285" y="150.4672895">E15</text><rect fill="rgb(255,150,150)" height="98.1308" stroke="rgb(0,0,0)" width="69.8095" x="768.69285" y="80.9346" /><text fill="black" x="768.69285" y="199.0654">E16</text><rect fill="rgb(150,150,150)" height="0.9345789999999999" stroke="rgb(0,0,0)" width="15.0" x="868.50235" y="129.5327105" /><text fill="black" x="868.50235" y="150.4672895">H17</text><rect fill="rgb(255,150,150)" height="99.0654" stroke="rgb(0,0,0)" width="57.6885" x="913.50235" y="80.4673" /><text fill="black" x="913.50235" y="199.5327">E18</text><rect fill="rgb(70,175,70)" height="0.9345789999999999" stroke="rgb(0,0,0)" width="5.0" x="1001.19085" y="129.5327105" /><text fill="black" x="1001.19085" y="150.4672895">E19</text><rect fill="rgb(150,150,150)" height="18.6916" stroke="rgb(0,0,0)" width="15.5" x="1036.19085" y="120.6542" /><text fill="black" x="1036.19085" y="159.3458">H20</text><rect fill="rgb(255,150,150)" height="0.9345789999999999" stroke="rgb(0,0,0)" width="5.0" x="1081.69085" y="129.5327105" /><text fill="black" x="1081.69085" y="150.4672895">E21</text><rect fill="rgb(70,175,70)" height="5.60748" stroke="rgb(0,0,0)" width="5.83335" x="1116.69085" y="127.19626" /><text fill="black" x="1116.69085" y="152.80374">E22</text><rect fill="rgb(150,150,150)" height="1.86916" stroke="rgb(0,0,0)" width="15.0" x="1152.5242" y="129.06542" /><text fill="black" x="1152.5242" y="150.93458">H23</text><rect fill="rgb(70,175,70)" height="6.542059999999999" stroke="rgb(0,0,0)" width="5.7143" x="1197.5242" y="126.72897" /><text fill="black" x="1197.5242" y="153.27103">E24</text><rect fill="rgb(150,150,150)" height="5.60748" stroke="rgb(0,0,0)" width="18.33335" x="1233.2385000000002" y="127.19626" /><text fill="black" x="1233.2385000000002" y="152.80374">H25</text><rect fill="rgb(150,150,150)" height="4.6729" stroke="rgb(0,0,0)" width="21.0" x="1281.57185" y="127.66355" /><text fill="black" x="1281.57185" y="152.33645">H26</text><rect fill="rgb(255,150,150)" height="8.411209999999999" stroke="rgb(0,0,0)" width="5.0" x="1332.5718500000003" y="125.794395" /><text fill="black" x="1332.5718500000003" y="154.205605">E27</text><rect fill="rgb(255,150,150)" height="100.0" stroke="rgb(0,0,0)" width="51.8225" x="1367.5718500000003" y="80.0" /><text fill="black" x="1367.5718500000003" y="200.0">E28</text><rect fill="rgb(150,150,150)" height="0.0" stroke="rgb(0,0,0)" width="0.0" x="1449.3943500000003" y="55.0" /><text fill="black" x="1449.3943500000003" y="75.0">X29</text><rect fill="rgb(150,150,150)" height="28.0374" stroke="rgb(0,0,0)" width="15.0" x="1449.3943500000003" y="190.9813" /><text fill="black" x="1449.3943500000003" y="239.0187">H30</text><rect fill="rgb(255,150,150)" height="0.9345789999999999" stroke="rgb(0,0,0)" width="5.0" x="1494.3943500000003" y="129.5327105" /><text fill="black" x="1494.3943500000003" y="150.4672895">E31</text><rect fill="rgb(150,150,150)" height="0.0" stroke="rgb(0,0,0)" width="0.0" x="1529.3943500000003" y="130.0" /><text fill="black" x="1529.3943500000003" y="150.0">X32</text><rect fill="rgb(255,150,150)" height="100.0" stroke="rgb(0,0,0)" width="41.54205" x="1559.3943500000003" y="80.0" /><text fill="black" x="1559.3943500000003" y="200.0">E33</text><rect fill="rgb(255,150,255)" height="20.5607" stroke="rgb(0,0,0)" width="9.0909" x="1630.9364000000003" y="119.71965" /><text fill="black" x="1630.9364000000003" y="160.28035">E34</text><rect fill="rgb(150,150,150)" height="81.3084" stroke="rgb(0,0,0)" width="39.4253" x="1670.0273000000002" y="89.3458" /><text fill="black" x="1670.0273000000002" y="190.6542">H35</text><rect fill="rgb(255,150,255)" height="0.9345789999999999" stroke="rgb(0,0,0)" width="5.0" x="1739.4526" y="129.5327105" /><text fill="black" x="1739.4526" y="150.4672895">E36</text><rect fill="rgb(150,150,150)" height="5.60748" stroke="rgb(0,0,0)" width="15.0" x="1774.4526" y="127.19626" /><text fill="black" x="1774.4526" y="152.80374">H37</text><rect fill="rgb(150,150,150)" height="12.1495" stroke="rgb(0,0,0)" width="20.0" x="1819.4526" y="123.92525" /><text fill="black" x="1819.4526" y="156.07475">H38</text><rect fill="rgb(150,150,150)" height="40.186899999999994" stroke="rgb(0,0,0)" width="19.186049999999998" x="1869.4526" y="109.90655000000001" /><text fill="black" x="1869.4526" y="170.09345">H39</text><rect fill="rgb(150,150,150)" height="37.3832" stroke="rgb(0,0,0)" width="15.375" x="1918.6386500000003" y="111.3084" /><text fill="black" x="1918.6386500000003" y="168.6916">H40</text><rect fill="rgb(255,150,255)" height="8.411209999999999" stroke="rgb(0,0,0)" width="5.0" x="1964.0136500000003" y="125.794395" /><text fill="black" x="1964.0136500000003" y="154.205605">E41</text><rect fill="rgb(150,150,150)" height="0.0" stroke="rgb(0,0,0)" width="0.0" x="1999.0136500000003" y="130.0" /><text fill="black" x="1999.0136500000003" y="150.0">X42</text><rect fill="rgb(255,150,255)" height="32.7103" stroke="rgb(0,0,0)" width="7.857150000000001" x="2029.0136500000003" y="113.64485" /><text fill="black" x="2029.0136500000003" y="166.35515">E43</text><rect fill="rgb(255,150,150)" height="99.0654" stroke="rgb(0,0,0)" width="46.0849" x="2066.8708000000006" y="80.4673" /><text fill="black" x="2066.8708000000006" y="199.5327">E44</text><rect fill="rgb(150,150,150)" height="0.0" stroke="rgb(0,0,0)" width="0.0" x="2142.9557000000004" y="130.0" /><text fill="black" x="2142.9557000000004" y="150.0">X45</text><rect fill="rgb(150,150,150)" height="0.0" stroke="rgb(0,0,0)" width="0.0" x="2172.9557000000004" y="130.0" /><text fill="black" x="2172.9557000000004" y="150.0">X46</text><rect fill="rgb(150,150,150)" height="0.0" stroke="rgb(0,0,0)" width="0.0" x="2202.9557000000004" y="130.0" /><text fill="black" x="2202.9557000000004" y="150.0">X47</text><rect fill="rgb(150,150,150)" height="0.0" stroke="rgb(0,0,0)" width="0.0" x="2232.9557000000004" y="130.0" /><text fill="black" x="2232.9557000000004" y="150.0">X48</text><rect fill="rgb(150,150,150)" height="0.0" stroke="rgb(0,0,0)" width="0.0" x="2262.9557000000004" y="130.0" /><text fill="black" x="2262.9557000000004" y="150.0">X49</text><rect fill="rgb(150,150,150)" height="0.0" stroke="rgb(0,0,0)" width="0.0" x="2292.9557000000004" y="130.0" /><text fill="black" x="2292.9557000000004" y="150.0">X50</text><rect fill="rgb(150,150,150)" height="22.4299" stroke="rgb(0,0,0)" width="15.0" x="2322.9557000000004" y="118.78505" /><text fill="black" x="2322.9557000000004" y="161.21495">H51</text><rect fill="rgb(150,150,150)" height="0.0" stroke="rgb(0,0,0)" width="0.0" x="2367.9557000000004" y="130.0" /><text fill="black" x="2367.9557000000004" y="150.0">X52</text><rect fill="rgb(255,150,150)" height="9.34579" stroke="rgb(0,0,0)" width="5.0" x="2397.9557000000004" y="125.327105" /><text fill="black" x="2397.9557000000004" y="154.672895">E53</text><rect fill="rgb(255,150,150)" height="99.0654" stroke="rgb(0,0,0)" width="44.1981" x="2432.9557000000004" y="80.4673" /><text fill="black" x="2432.9557000000004" y="199.5327">E54</text><rect fill="rgb(150,150,150)" height="14.0187" stroke="rgb(0,0,0)" width="20.0" x="2507.1538000000005" y="47.99065" /><text fill="black" x="2507.1538000000005" y="82.00935">H55</text><rect fill="rgb(150,255,150)" height="64.486" stroke="rgb(0,0,0)" width="6.4493" x="2507.1538000000005" y="172.757" /><text fill="black" x="2507.1538000000005" y="257.243">E56</text><rect fill="rgb(175,70,175)" height="7.47664" stroke="rgb(0,0,0)" width="5.0" x="2557.1538000000005" y="126.26168" /><text fill="black" x="2557.1538000000005" y="153.73832">E57</text><rect fill="rgb(150,150,150)" height="22.4299" stroke="rgb(0,0,0)" width="16.04165" x="2592.1538000000005" y="118.78505" /><text fill="black" x="2592.1538000000005" y="161.21495">H58</text><rect fill="rgb(175,70,175)" height="7.47664" stroke="rgb(0,0,0)" width="5.0" x="2638.1954500000006" y="126.26168" /><text fill="black" x="2638.1954500000006" y="153.73832">E59</text><rect fill="rgb(150,150,150)" height="54.2056" stroke="rgb(0,0,0)" width="15.0" x="2673.1954500000006" y="102.8972" /><text fill="black" x="2673.1954500000006" y="177.1028">H60</text><rect fill="rgb(150,255,150)" height="63.5514" stroke="rgb(0,0,0)" width="5.7353" x="2718.1954500000006" y="98.2243" /><text fill="black" x="2718.1954500000006" y="181.7757">E61</text><rect fill="rgb(150,150,150)" height="0.0" stroke="rgb(0,0,0)" width="0.0" x="2753.9307500000004" y="130.0" /><text fill="black" x="2753.9307500000004" y="150.0">X62</text><rect fill="rgb(70,175,175)" height="0.9345789999999999" stroke="rgb(0,0,0)" width="20.0" x="2783.9307500000004" y="129.5327105" /><text fill="black" x="2783.9307500000004" y="150.4672895">E63</text><rect fill="rgb(150,150,150)" height="0.0" stroke="rgb(0,0,0)" width="0.0" x="2833.9307500000004" y="55.0" /><text fill="black" x="2833.9307500000004" y="75.0">X64</text><rect fill="rgb(150,150,150)" height="0.0" stroke="rgb(0,0,0)" width="0.0" x="2833.9307500000004" y="205.0" /><text fill="black" x="2833.9307500000004" y="225.0">X65</text><rect fill="rgb(70,175,175)" height="0.9345789999999999" stroke="rgb(0,0,0)" width="20.0" x="2863.9307500000004" y="129.5327105" /><text fill="black" x="2863.9307500000004" y="150.4672895">E66</text><rect fill="rgb(255,150,150)" height="100.0" stroke="rgb(0,0,0)" width="51.028000000000006" x="2913.9307500000004" y="80.0" /><text fill="black" x="2913.9307500000004" y="200.0">E67</text><rect fill="rgb(150,150,150)" height="3.73832" stroke="rgb(0,0,0)" width="15.0" x="2994.9587500000007" y="128.13084" /><text fill="black" x="2994.9587500000007" y="151.86916">H68</text><rect fill="rgb(255,150,150)" height="100.0" stroke="rgb(0,0,0)" width="55.187" x="3039.9587500000007" y="80.0" /><text fill="black" x="3039.9587500000007" y="200.0">E69</text><rect fill="rgb(150,255,150)" height="2.80374" stroke="rgb(0,0,0)" width="5.0" x="3125.145750000001" y="53.59813" /><text fill="black" x="3125.145750000001" y="76.40187">E70</text><rect fill="rgb(150,150,150)" height="61.682199999999995" stroke="rgb(0,0,0)" width="21.9697" x="3125.145750000001" y="174.15890000000002" /><text fill="black" x="3125.145750000001" y="255.84109999999998">H71</text><rect fill="rgb(70,70,175)" height="4.6729" stroke="rgb(0,0,0)" width="10.0" x="3177.115450000001" y="127.66355" /><text fill="black" x="3177.115450000001" y="152.33645">E72</text><rect fill="rgb(150,150,255)" height="3.73832" stroke="rgb(0,0,0)" width="7.5" x="3217.115450000001" y="128.13084" /><text fill="black" x="3217.115450000001" y="151.86916">E73</text><rect fill="rgb(150,150,150)" height="2.80374" stroke="rgb(0,0,0)" width="20.0" x="3254.615450000001" y="128.59813" /><text fill="black" x="3254.615450000001" y="151.40187">H74</text><rect fill="rgb(255,150,150)" height="2.80374" stroke="rgb(0,0,0)" width="8.333350000000001" x="3304.615450000001" y="128.59813" /><text fill="black" x="3304.615450000001" y="151.40187">E75</text><rect fill="rgb(150,150,150)" height="2.80374" stroke="rgb(0,0,0)" width="15.0" x="3342.948800000001" y="128.59813" /><text fill="black" x="3342.948800000001" y="151.40187">H76</text><rect fill="rgb(150,255,255)" height="2.80374" stroke="rgb(0,0,0)" width="5.0" x="3387.948800000001" y="128.59813" /><text fill="black" x="3387.948800000001" y="151.40187">E77</text><rect fill="rgb(150,150,255)" height="42.0561" stroke="rgb(0,0,0)" width="5.33335" x="3422.948800000001" y="108.97194999999999" /><text fill="black" x="3422.948800000001" y="171.02805">E78</text><rect fill="rgb(70,70,175)" height="4.6729" stroke="rgb(0,0,0)" width="9.0" x="3458.282150000001" y="127.66355" /><text fill="black" x="3458.282150000001" y="152.33645">E79</text><rect fill="rgb(255,150,150)" height="100.0" stroke="rgb(0,0,0)" width="63.50450000000001" x="3497.282150000001" y="80.0" /><text fill="black" x="3497.282150000001" y="200.0">E80</text><rect fill="rgb(150,150,150)" height="1.86916" stroke="rgb(0,0,0)" width="15.0" x="3590.786650000001" y="129.06542" /><text fill="black" x="3590.786650000001" y="150.93458">H81</text><rect fill="rgb(255,150,150)" height="100.0" stroke="rgb(0,0,0)" width="57.757" x="3635.786650000001" y="80.0" /><text fill="black" x="3635.786650000001" y="200.0">E82</text><rect fill="rgb(150,150,150)" height="8.411209999999999" stroke="rgb(0,0,0)" width="17.7778" x="3723.543650000001" y="125.794395" /><text fill="black" x="3723.543650000001" y="154.205605">H83</text><rect fill="rgb(150,150,150)" height="0.0" stroke="rgb(0,0,0)" width="0.0" x="3771.321450000001" y="130.0" /><text fill="black" x="3771.321450000001" y="150.0">X84</text><rect fill="rgb(150,150,150)" height="0.0" stroke="rgb(0,0,0)" width="0.0" x="3801.321450000001" y="130.0" /><text fill="black" x="3801.321450000001" y="150.0">X85</text><rect fill="rgb(150,150,150)" height="0.0" stroke="rgb(0,0,0)" width="0.0" x="3831.321450000001" y="55.0" /><text fill="black" x="3831.321450000001" y="75.0">X86</text><rect fill="rgb(150,150,150)" height="0.0" stroke="rgb(0,0,0)" width="0.0" x="3831.321450000001" y="205.0" /><text fill="black" x="3831.321450000001" y="225.0">X87</text><rect fill="rgb(150,150,255)" height="42.9907" stroke="rgb(0,0,0)" width="17.8261" x="3861.321450000001" y="108.50465" /><text fill="black" x="3861.321450000001" y="171.49535">E88</text><rect fill="rgb(150,150,150)" height="34.5794" stroke="rgb(0,0,0)" width="16.0811" x="3909.1475500000006" y="112.7103" /><text fill="black" x="3909.1475500000006" y="167.2897">H89</text><rect fill="rgb(150,150,255)" height="43.9252" stroke="rgb(0,0,0)" width="17.872349999999997" x="3955.228650000001" y="108.0374" /><text fill="black" x="3955.228650000001" y="171.9626">E90</text><rect fill="rgb(255,150,150)" height="100.0" stroke="rgb(0,0,0)" width="58.691500000000005" x="4003.101000000001" y="80.0" /><text fill="black" x="4003.101000000001" y="200.0">E91</text><rect fill="rgb(150,150,150)" height="0.0" stroke="rgb(0,0,0)" width="0.0" x="4091.792500000001" y="130.0" /><text fill="black" x="4091.792500000001" y="150.0">X92</text><rect fill="rgb(150,150,150)" height="0.0" stroke="rgb(0,0,0)" width="0.0" x="4121.7925000000005" y="130.0" /><text fill="black" x="4121.7925000000005" y="150.0">X93</text><rect fill="rgb(150,150,150)" height="0.0" stroke="rgb(0,0,0)" width="0.0" x="4151.7925000000005" y="130.0" /><text fill="black" x="4151.7925000000005" y="150.0">X94</text><rect fill="rgb(150,150,150)" height="0.0" stroke="rgb(0,0,0)" width="0.0" x="4181.7925000000005" y="130.0" /><text fill="black" x="4181.7925000000005" y="150.0">X95</text><rect fill="rgb(150,150,150)" height="0.0" stroke="rgb(0,0,0)" width="0.0" x="4211.7925000000005" y="130.0" /><text fill="black" x="4211.7925000000005" y="150.0">X96</text><rect fill="rgb(150,150,150)" height="0.0" stroke="rgb(0,0,0)" width="0.0" x="4241.7925000000005" y="130.0" /><text fill="black" x="4241.7925000000005" y="150.0">X97</text><rect fill="rgb(255,150,150)" height="18.6916" stroke="rgb(0,0,0)" width="55.75" x="4271.7925000000005" y="120.6542" /><text fill="black" x="4271.7925000000005" y="159.3458">E98</text><rect fill="rgb(150,255,150)" height="13.084100000000001" stroke="rgb(0,0,0)" width="6.7857" x="4357.5425000000005" y="123.45795" /><text fill="black" x="4357.5425000000005" y="156.54205">E99</text><rect fill="rgb(255,150,255)" height="5.60748" stroke="rgb(0,0,0)" width="8.333350000000001" x="4394.328200000001" y="127.19626" /><text fill="black" x="4394.328200000001" y="152.80374">E100</text><rect fill="rgb(150,150,150)" height="3.73832" stroke="rgb(0,0,0)" width="15.0" x="4432.661550000001" y="128.13084" /><text fill="black" x="4432.661550000001" y="151.86916">H101</text><rect fill="rgb(175,175,70)" height="2.80374" stroke="rgb(0,0,0)" width="5.0" x="4477.661550000001" y="128.59813" /><text fill="black" x="4477.661550000001" y="151.40187">E102</text><rect fill="rgb(175,175,70)" height="2.80374" stroke="rgb(0,0,0)" width="5.0" x="4512.661550000001" y="128.59813" /><text fill="black" x="4512.661550000001" y="151.40187">E103</text><rect fill="rgb(255,255,150)" height="2.80374" stroke="rgb(0,0,0)" width="5.0" x="4547.661550000001" y="128.59813" /><text fill="black" x="4547.661550000001" y="151.40187">E104</text><rect fill="rgb(255,150,150)" height="18.6916" stroke="rgb(0,0,0)" width="49.5" x="4582.661550000001" y="120.6542" /><text fill="black" x="4582.661550000001" y="159.3458">E105</text><rect fill="rgb(175,70,70)" height="2.80374" stroke="rgb(0,0,0)" width="16.66665" x="4662.16155" y="128.59813" /><text fill="black" x="4662.16155" y="151.40187">E106</text><rect fill="rgb(150,150,150)" height="2.80374" stroke="rgb(0,0,0)" width="15.0" x="4708.8282" y="128.59813" /><text fill="black" x="4708.8282" y="151.40187">H107</text><rect fill="rgb(175,70,70)" height="2.80374" stroke="rgb(0,0,0)" width="20.0" x="4753.8282" y="128.59813" /><text fill="black" x="4753.8282" y="151.40187">E108</text><rect fill="rgb(150,150,150)" height="23.3645" stroke="rgb(0,0,0)" width="18.400000000000002" x="4803.8282" y="118.31775" /><text fill="black" x="4803.8282" y="161.68225">H109</text><rect fill="rgb(255,150,150)" height="94.3925" stroke="rgb(0,0,0)" width="64.2575" x="4852.2282000000005" y="82.80375000000001" /><text fill="black" x="4852.2282000000005" y="197.19625">E110</text><rect fill="rgb(255,255,150)" height="2.80374" stroke="rgb(0,0,0)" width="8.333350000000001" x="4946.4857" y="128.59813" /><text fill="black" x="4946.4857" y="151.40187">E111</text><rect fill="rgb(255,255,150)" height="12.1495" stroke="rgb(0,0,0)" width="10.384599999999999" x="4984.81905" y="123.92525" /><text fill="black" x="4984.81905" y="156.07475">E112</text><rect fill="rgb(255,255,150)" height="6.542059999999999" stroke="rgb(0,0,0)" width="13.57145" x="5025.2036499999995" y="126.72897" /><text fill="black" x="5025.2036499999995" y="153.27103">E113</text><rect fill="rgb(150,150,150)" height="8.411209999999999" stroke="rgb(0,0,0)" width="15.0" x="5068.7751" y="125.794395" /><text fill="black" x="5068.7751" y="154.205605">H114</text><rect fill="rgb(150,150,150)" height="2.80374" stroke="rgb(0,0,0)" width="15.0" x="5113.7751" y="128.59813" /><text fill="black" x="5113.7751" y="151.40187">H115</text><rect fill="rgb(150,150,150)" height="3.73832" stroke="rgb(0,0,0)" width="26.25" x="5158.775100000001" y="128.13084" /><text fill="black" x="5158.775100000001" y="151.86916">H116</text><rect fill="rgb(150,150,150)" height="42.0561" stroke="rgb(0,0,0)" width="15.222199999999999" x="5215.025100000001" y="108.97194999999999" /><text fill="black" x="5215.025100000001" y="171.02805">H117</text><rect fill="rgb(150,255,255)" height="2.80374" stroke="rgb(0,0,0)" width="5.0" x="5260.2473" y="128.59813" /><text fill="black" x="5260.2473" y="151.40187">E118</text><rect fill="rgb(255,150,150)" height="94.3925" stroke="rgb(0,0,0)" width="69.703" x="5295.2473" y="82.80375000000001" /><text fill="black" x="5295.2473" y="197.19625">E119</text><rect fill="rgb(150,150,150)" height="7.47664" stroke="rgb(0,0,0)" width="16.875" x="5394.9502999999995" y="126.26168" /><text fill="black" x="5394.9502999999995" y="153.73832">H120</text><rect fill="rgb(255,150,150)" height="100.0" stroke="rgb(0,0,0)" width="52.897" x="5441.8252999999995" y="80.0" /><text fill="black" x="5441.8252999999995" y="200.0">E121</text><rect fill="rgb(150,255,255)" height="33.6449" stroke="rgb(0,0,0)" width="5.0" x="5524.722299999999" y="38.17755" /><text fill="black" x="5524.722299999999" y="91.82245">E122</text><rect fill="rgb(150,150,150)" height="2.80374" stroke="rgb(0,0,0)" width="15.0" x="5524.722299999999" y="203.59813" /><text fill="black" x="5524.722299999999" y="226.40187">H123</text><rect fill="rgb(150,150,150)" height="23.3645" stroke="rgb(0,0,0)" width="23.599999999999998" x="5569.722299999999" y="118.31775" /><text fill="black" x="5569.722299999999" y="161.68225">H124</text><rect fill="rgb(150,255,255)" height="2.80374" stroke="rgb(0,0,0)" width="5.0" x="5623.3223" y="128.59813" /><text fill="black" x="5623.3223" y="151.40187">E125</text><rect fill="rgb(255,150,150)" height="100.0" stroke="rgb(0,0,0)" width="56.075" x="5658.3223" y="80.0" /><text fill="black" x="5658.3223" y="200.0">E126</text><rect fill="rgb(150,150,150)" height="2.80374" stroke="rgb(0,0,0)" width="18.33335" x="5744.3973" y="128.59813" /><text fill="black" x="5744.3973" y="151.40187">H127</text><rect fill="rgb(150,150,150)" height="0.0" stroke="rgb(0,0,0)" width="0.0" x="5792.7306499999995" y="130.0" /><text fill="black" x="5792.7306499999995" y="150.0">X128</text><rect fill="rgb(150,150,150)" height="0.0" stroke="rgb(0,0,0)" width="0.0" x="5822.7306499999995" y="130.0" /><text fill="black" x="5822.7306499999995" y="150.0">X129</text><rect fill="rgb(150,150,150)" height="0.0" stroke="rgb(0,0,0)" width="0.0" x="5852.7306499999995" y="130.0" /><text fill="black" x="5852.7306499999995" y="150.0">X130</text><rect fill="rgb(150,150,150)" height="0.0" stroke="rgb(0,0,0)" width="0.0" x="5882.7306499999995" y="130.0" /><text fill="black" x="5882.7306499999995" y="150.0">X131</text><rect fill="rgb(255,150,150)" height="10.2804" stroke="rgb(0,0,0)" width="52.727500000000006" x="5912.7306499999995" y="124.8598" /><text fill="black" x="5912.7306499999995" y="155.1402">E132</text><rect fill="rgb(150,150,150)" height="0.9345789999999999" stroke="rgb(0,0,0)" width="15.0" x="5995.4581499999995" y="129.5327105" /><text fill="black" x="5995.4581499999995" y="150.4672895">H133</text><rect fill="rgb(150,150,150)" height="0.0" stroke="rgb(0,0,0)" width="0.0" x="6040.4581499999995" y="130.0" /><text fill="black" x="6040.4581499999995" y="150.0">X134</text><rect fill="rgb(255,150,150)" height="10.2804" stroke="rgb(0,0,0)" width="65.0" x="6070.4581499999995" y="124.8598" /><text fill="black" x="6070.4581499999995" y="155.1402">E135</text><path d="M 136.0,205.0 a 626.0456307260262,626.0456307260262 0 0,0 -121.0,-150.0" stroke="rgb(255,150,150)" stroke-width="2" /><path d="M 136.0,205.0 a 626.0456307260262,626.0456307260262 0 0,0 -121.0,-150.0" stroke="rgb(0,0,0)" stroke-width="0.2" /><path d="M 315.28385,130.0 a 632.0161836456234,632.0161836456234 0 0,0 -179.28384999999997,75.0" stroke="rgb(255,150,150)" stroke-width="2" /><path d="M 315.28385,130.0 a 632.0161836456234,632.0161836456234 0 0,0 -179.28384999999997,75.0" stroke="rgb(0,0,0)" stroke-width="0.2" /><path d="M 432.02004999999997,130.0 a 359.18276548738845,359.18276548738845 0 0,0 -116.7362,-0.0" stroke="rgb(255,150,150)" stroke-width="2" /><path d="M 432.02004999999997,130.0 a 359.18276548738845,359.18276548738845 0 0,0 -116.7362,-0.0" stroke="rgb(0,0,0)" stroke-width="0.2" /><path d="M 487.67794999999995,130.0 a 552.1021313553098,552.1021313553098 0 0,0 -172.39409999999998,-0.0" stroke="rgb(255,150,150)" stroke-width="2" /><path d="M 487.67794999999995,130.0 a 552.1021313553098,552.1021313553098 0 0,0 -172.39409999999998,-0.0" stroke="rgb(0,0,0)" stroke-width="0.2" /><path d="M 803.5976,130.0 a 1912.697209968289,1912.697209968289 0 0,0 -488.3137500000001,-0.0" stroke="rgb(255,150,150)" stroke-width="2" /><path d="M 803.5976,130.0 a 1912.697209968289,1912.697209968289 0 0,0 -488.3137500000001,-0.0" stroke="rgb(0,0,0)" stroke-width="0.2" /><path d="M 5686.3598,130.0 a 80578.36021279845,80578.36021279845 0 0,0 -5371.07595,-0.0" stroke="rgb(255,150,150)" stroke-width="2" /><path d="M 5686.3598,130.0 a 80578.36021279845,80578.36021279845 0 0,0 -5371.07595,-0.0" stroke="rgb(0,0,0)" stroke-width="0.2" /><path d="M 634.7643499999999,130.0 a 462.6458603282283,462.6458603282283 0 0,0 -147.08639999999997,-0.0" stroke="rgb(255,150,150)" stroke-width="2" /><path d="M 634.7643499999999,130.0 a 462.6458603282283,462.6458603282283 0 0,0 -147.08639999999997,-0.0" stroke="rgb(0,0,0)" stroke-width="0.2" /><path d="M 736.19285,130.0 a 101.23521698278242,101.23521698278242 0 0,0 -35.0,-0.0" stroke="rgb(150,255,255)" stroke-width="2" /><path d="M 736.19285,130.0 a 101.23521698278242,101.23521698278242 0 0,0 -35.0,-0.0" stroke="rgb(0,0,0)" stroke-width="0.2" /><path d="M 3390.448800000001,130.0 a 23961.493018093377,23961.493018093377 0 0,0 -2689.255950000001,-0.0" stroke="rgb(150,255,255)" stroke-width="2" /><path d="M 3390.448800000001,130.0 a 23961.493018093377,23961.493018093377 0 0,0 -2689.255950000001,-0.0" stroke="rgb(0,0,0)" stroke-width="0.2" /><path d="M 701.19285,130.0 a 52973.37557333476,52973.37557333476 0 0,0 4826.029449999999,-75.0" stroke="rgb(150,255,255)" stroke-width="2" /><path d="M 701.19285,130.0 a 52973.37557333476,52973.37557333476 0 0,0 4826.029449999999,-75.0" stroke="rgb(0,0,0)" stroke-width="0.2" /><path d="M 942.3466,130.0 a 433.8092056638907,433.8092056638907 0 0,0 -138.7489999999999,-0.0" stroke="rgb(255,150,150)" stroke-width="2" /><path d="M 942.3466,130.0 a 433.8092056638907,433.8092056638907 0 0,0 -138.7489999999999,-0.0" stroke="rgb(0,0,0)" stroke-width="0.2" /><path d="M 803.5976,130.0 a 206.43766351264193,206.43766351264193 0 0,0 280.5932499999999,-0.0" stroke="rgb(255,150,150)" stroke-width="2" /><path d="M 803.5976,130.0 a 206.43766351264193,206.43766351264193 0 0,0 280.5932499999999,-0.0" stroke="rgb(0,0,0)" stroke-width="0.2" /><path d="M 3308.782125000001,130.0 a 21274.239221367337,21274.239221367337 0 0,0 -2505.184525000001,-0.0" stroke="rgb(255,150,150)" stroke-width="2" /><path d="M 3308.782125000001,130.0 a 21274.239221367337,21274.239221367337 0 0,0 -2505.184525000001,-0.0" stroke="rgb(0,0,0)" stroke-width="0.2" /><path d="M 1335.0718500000003,130.0 a 1453.3353505825721,1453.3353505825721 0 0,0 -392.7252500000003,-0.0" stroke="rgb(255,150,150)" stroke-width="2" /><path d="M 1335.0718500000003,130.0 a 1453.3353505825721,1453.3353505825721 0 0,0 -392.7252500000003,-0.0" stroke="rgb(0,0,0)" stroke-width="0.2" /><path d="M 1393.4831000000004,130.0 a 1729.1178448862909,1729.1178448862909 0 0,0 -451.1365000000004,-0.0" stroke="rgb(255,150,150)" stroke-width="2" /><path d="M 1393.4831000000004,130.0 a 1729.1178448862909,1729.1178448862909 0 0,0 -451.1365000000004,-0.0" stroke="rgb(0,0,0)" stroke-width="0.2" /><path d="M 1200.38135,130.0 a 640.7079746020454,640.7079746020454 0 0,0 -196.69050000000016,-0.0" stroke="rgb(70,175,70)" stroke-width="2" /><path d="M 1200.38135,130.0 a 640.7079746020454,640.7079746020454 0 0,0 -196.69050000000016,-0.0" stroke="rgb(0,0,0)" stroke-width="0.2" /><path d="M 1200.38135,130.0 a 241.97453355704653,241.97453355704653 0 0,0 -80.77382500000022,-0.0" stroke="rgb(70,175,70)" stroke-width="2" /><path d="M 1200.38135,130.0 a 241.97453355704653,241.97453355704653 0 0,0 -80.77382500000022,-0.0" stroke="rgb(0,0,0)" stroke-width="0.2" /><path d="M 1580.1653750000003,130.0 a 603.8859787304227,603.8859787304227 0 0,0 -186.6822749999999,-0.0" stroke="rgb(255,150,150)" stroke-width="2" /><path d="M 1580.1653750000003,130.0 a 603.8859787304227,603.8859787304227 0 0,0 -186.6822749999999,-0.0" stroke="rgb(0,0,0)" stroke-width="0.2" /><path d="M 1496.8943500000003,130.0 a 826.7532176300234,826.7532176300234 0 0,0 593.0189000000003,-0.0" stroke="rgb(255,150,150)" stroke-width="2" /><path d="M 1496.8943500000003,130.0 a 826.7532176300234,826.7532176300234 0 0,0 593.0189000000003,-0.0" stroke="rgb(0,0,0)" stroke-width="0.2" /><path d="M 2089.9132500000005,130.0 a 2021.384545740194,2021.384545740194 0 0,0 -509.74787500000025,-0.0" stroke="rgb(255,150,150)" stroke-width="2" /><path d="M 2089.9132500000005,130.0 a 2021.384545740194,2021.384545740194 0 0,0 -509.74787500000025,-0.0" stroke="rgb(0,0,0)" stroke-width="0.2" /><path d="M 2032.9422250000002,130.0 a 1475.1160354201086,1475.1160354201086 0 0,0 -397.4603749999999,-0.0" stroke="rgb(255,150,255)" stroke-width="2" /><path d="M 2032.9422250000002,130.0 a 1475.1160354201086,1475.1160354201086 0 0,0 -397.4603749999999,-0.0" stroke="rgb(0,0,0)" stroke-width="0.2" /><path d="M 1741.9526,130.0 a 219.94309513100166,219.94309513100166 0 0,0 290.98962500000016,-0.0" stroke="rgb(255,150,255)" stroke-width="2" /><path d="M 1741.9526,130.0 a 219.94309513100166,219.94309513100166 0 0,0 290.98962500000016,-0.0" stroke="rgb(0,0,0)" stroke-width="0.2" /><path d="M 2032.9422250000002,130.0 a 196.85010581121068,196.85010581121068 0 0,0 -66.42857499999991,-0.0" stroke="rgb(255,150,255)" stroke-width="2" /><path d="M 2032.9422250000002,130.0 a 196.85010581121068,196.85010581121068 0 0,0 -66.42857499999991,-0.0" stroke="rgb(0,0,0)" stroke-width="0.2" /><path d="M 4398.494875000001,130.0 a 19338.453856692096,19338.453856692096 0 0,0 -2365.552650000001,-0.0" stroke="rgb(255,150,255)" stroke-width="2" /><path d="M 4398.494875000001,130.0 a 19338.453856692096,19338.453856692096 0 0,0 -2365.552650000001,-0.0" stroke="rgb(0,0,0)" stroke-width="0.2" /><path d="M 2455.0547500000002,130.0 a 1328.4741950732223,1328.4741950732223 0 0,0 -365.1414999999997,-0.0" stroke="rgb(255,150,150)" stroke-width="2" /><path d="M 2455.0547500000002,130.0 a 1328.4741950732223,1328.4741950732223 0 0,0 -365.1414999999997,-0.0" stroke="rgb(0,0,0)" stroke-width="0.2" /><path d="M 2455.0547500000002,130.0 a 160.33804894358687,160.33804894358687 0 0,0 -54.59904999999981,-0.0" stroke="rgb(255,150,150)" stroke-width="2" /><path d="M 2455.0547500000002,130.0 a 160.33804894358687,160.33804894358687 0 0,0 -54.59904999999981,-0.0" stroke="rgb(0,0,0)" stroke-width="0.2" /><path d="M 2939.4447500000006,130.0 a 1893.026283433415,1893.026283433415 0 0,0 -484.3900000000003,-0.0" stroke="rgb(255,150,150)" stroke-width="2" /><path d="M 2939.4447500000006,130.0 a 1893.026283433415,1893.026283433415 0 0,0 -484.3900000000003,-0.0" stroke="rgb(0,0,0)" stroke-width="0.2" /><path d="M 2721.0631000000008,130.0 a 742.0963579255126,742.0963579255126 0 0,0 -210.68465000000015,75.0" stroke="rgb(150,255,150)" stroke-width="2" /><path d="M 2721.0631000000008,130.0 a 742.0963579255126,742.0963579255126 0 0,0 -210.68465000000015,75.0" stroke="rgb(0,0,0)" stroke-width="0.2" /><path d="M 3127.645750000001,55.0 a 2699.468916303304,2699.468916303304 0 0,0 -617.2673000000004,150.0" stroke="rgb(150,255,150)" stroke-width="2" /><path d="M 3127.645750000001,55.0 a 2699.468916303304,2699.468916303304 0 0,0 -617.2673000000004,150.0" stroke="rgb(0,0,0)" stroke-width="0.2" /><path d="M 4360.935350000001,130.0 a 12981.774091841186,12981.774091841186 0 0,0 -1850.5569,75.0" stroke="rgb(150,255,150)" stroke-width="2" /><path d="M 4360.935350000001,130.0 a 12981.774091841186,12981.774091841186 0 0,0 -1850.5569,75.0" stroke="rgb(0,0,0)" stroke-width="0.2" /><path d="M 2559.6538000000005,130.0 a 42.42670235164209,42.42670235164209 0 0,0 81.04165000000012,-0.0" stroke="rgb(175,70,175)" stroke-width="2" /><path d="M 2559.6538000000005,130.0 a 42.42670235164209,42.42670235164209 0 0,0 81.04165000000012,-0.0" stroke="rgb(0,0,0)" stroke-width="0.2" /><path d="M 2873.9307500000004,130.0 a 239.5166811859637,239.5166811859637 0 0,0 -80.0,-0.0" stroke="rgb(70,175,175)" stroke-width="2" /><path d="M 2873.9307500000004,130.0 a 239.5166811859637,239.5166811859637 0 0,0 -80.0,-0.0" stroke="rgb(0,0,0)" stroke-width="0.2" /><path d="M 3067.5522500000006,130.0 a 397.4596689671294,397.4596689671294 0 0,0 -128.10750000000007,-0.0" stroke="rgb(255,150,150)" stroke-width="2" /><path d="M 3067.5522500000006,130.0 a 397.4596689671294,397.4596689671294 0 0,0 -128.10750000000007,-0.0" stroke="rgb(0,0,0)" stroke-width="0.2" /><path d="M 3529.034400000001,130.0 a 1779.5751751235769,1779.5751751235769 0 0,0 -461.4821500000003,-0.0" stroke="rgb(255,150,150)" stroke-width="2" /><path d="M 3529.034400000001,130.0 a 1779.5751751235769,1779.5751751235769 0 0,0 -461.4821500000003,-0.0" stroke="rgb(0,0,0)" stroke-width="0.2" /><path d="M 3462.782150000001,130.0 a 967.5207352967017,967.5207352967017 0 0,0 -280.66669999999976,-0.0" stroke="rgb(70,70,175)" stroke-width="2" /><path d="M 3462.782150000001,130.0 a 967.5207352967017,967.5207352967017 0 0,0 -280.66669999999976,-0.0" stroke="rgb(0,0,0)" stroke-width="0.2" /><path d="M 3425.615475000001,130.0 a 670.6896112429488,670.6896112429488 0 0,0 -204.75002499999982,-0.0" stroke="rgb(150,150,255)" stroke-width="2" /><path d="M 3425.615475000001,130.0 a 670.6896112429488,670.6896112429488 0 0,0 -204.75002499999982,-0.0" stroke="rgb(0,0,0)" stroke-width="0.2" /><path d="M 3425.615475000001,130.0 a 686.6713690577778,686.6713690577778 0 0,0 538.5493499999998,-0.0" stroke="rgb(150,150,255)" stroke-width="2" /><path d="M 3425.615475000001,130.0 a 686.6713690577778,686.6713690577778 0 0,0 538.5493499999998,-0.0" stroke="rgb(0,0,0)" stroke-width="0.2" /><path d="M 3664.6651500000007,130.0 a 423.10479576362735,423.10479576362735 0 0,0 -135.6307499999998,-0.0" stroke="rgb(255,150,150)" stroke-width="2" /><path d="M 3664.6651500000007,130.0 a 423.10479576362735,423.10479576362735 0 0,0 -135.6307499999998,-0.0" stroke="rgb(0,0,0)" stroke-width="0.2" /><path d="M 4032.446750000001,130.0 a 1340.2757967448456,1340.2757967448456 0 0,0 -367.78160000000025,-0.0" stroke="rgb(255,150,150)" stroke-width="2" /><path d="M 4032.446750000001,130.0 a 1340.2757967448456,1340.2757967448456 0 0,0 -367.78160000000025,-0.0" stroke="rgb(0,0,0)" stroke-width="0.2" /><path d="M 3964.1648250000007,130.0 a 284.1765067674666,284.1765067674666 0 0,0 -93.93032499999981,-0.0" stroke="rgb(150,150,255)" stroke-width="2" /><path d="M 3964.1648250000007,130.0 a 284.1765067674666,284.1765067674666 0 0,0 -93.93032499999981,-0.0" stroke="rgb(0,0,0)" stroke-width="0.2" /><path d="M 4299.6675000000005,130.0 a 913.0473496918227,913.0473496918227 0 0,0 -267.2207499999995,-0.0" stroke="rgb(255,150,150)" stroke-width="2" /><path d="M 4299.6675000000005,130.0 a 913.0473496918227,913.0473496918227 0 0,0 -267.2207499999995,-0.0" stroke="rgb(0,0,0)" stroke-width="0.2" /><path d="M 4884.35695,130.0 a 4038.478623625253,4038.478623625253 0 0,0 -851.9101999999993,-0.0" stroke="rgb(255,150,150)" stroke-width="2" /><path d="M 4884.35695,130.0 a 4038.478623625253,4038.478623625253 0 0,0 -851.9101999999993,-0.0" stroke="rgb(0,0,0)" stroke-width="0.2" /><path d="M 4607.411550000001,130.0 a 1079.7019033728975,1079.7019033728975 0 0,0 -307.74405000000024,-0.0" stroke="rgb(255,150,150)" stroke-width="2" /><path d="M 4607.411550000001,130.0 a 1079.7019033728975,1079.7019033728975 0 0,0 -307.74405000000024,-0.0" stroke="rgb(0,0,0)" stroke-width="0.2" /><path d="M 4515.161550000001,130.0 a 101.23521698278242,101.23521698278242 0 0,0 -35.0,-0.0" stroke="rgb(175,175,70)" stroke-width="2" /><path d="M 4515.161550000001,130.0 a 101.23521698278242,101.23521698278242 0 0,0 -35.0,-0.0" stroke="rgb(0,0,0)" stroke-width="0.2" /><path d="M 4990.01135,130.0 a 1674.624030417138,1674.624030417138 0 0,0 -439.84979999999905,-0.0" stroke="rgb(255,255,150)" stroke-width="2" /><path d="M 4990.01135,130.0 a 1674.624030417138,1674.624030417138 0 0,0 -439.84979999999905,-0.0" stroke="rgb(0,0,0)" stroke-width="0.2" /><path d="M 4763.8282,130.0 a 282.24458563948355,282.24458563948355 0 0,0 -93.33332500000051,-0.0" stroke="rgb(175,70,70)" stroke-width="2" /><path d="M 4763.8282,130.0 a 282.24458563948355,282.24458563948355 0 0,0 -93.33332500000051,-0.0" stroke="rgb(0,0,0)" stroke-width="0.2" /><path d="M 5330.0988,130.0 a 1702.9996861949055,1702.9996861949055 0 0,0 -445.74184999999943,-0.0" stroke="rgb(255,150,150)" stroke-width="2" /><path d="M 5330.0988,130.0 a 1702.9996861949055,1702.9996861949055 0 0,0 -445.74184999999943,-0.0" stroke="rgb(0,0,0)" stroke-width="0.2" /><path d="M 4990.01135,130.0 a 114.23024071072857,114.23024071072857 0 0,0 -39.35897499999919,-0.0" stroke="rgb(255,255,150)" stroke-width="2" /><path d="M 4990.01135,130.0 a 114.23024071072857,114.23024071072857 0 0,0 -39.35897499999919,-0.0" stroke="rgb(0,0,0)" stroke-width="0.2" /><path d="M 5031.989374999999,130.0 a 122.07941342500357,122.07941342500357 0 0,0 -41.978024999999434,-0.0" stroke="rgb(255,255,150)" stroke-width="2" /><path d="M 5031.989374999999,130.0 a 122.07941342500357,122.07941342500357 0 0,0 -41.978024999999434,-0.0" stroke="rgb(0,0,0)" stroke-width="0.2" /><path d="M 5527.222299999999,55.0 a 944.0728497774619,944.0728497774619 0 0,0 -264.47499999999945,75.0" stroke="rgb(150,255,255)" stroke-width="2" /><path d="M 5527.222299999999,55.0 a 944.0728497774619,944.0728497774619 0 0,0 -264.47499999999945,75.0" stroke="rgb(0,0,0)" stroke-width="0.2" /><path d="M 5468.2738,130.0 a 431.8354637752702,431.8354637752702 0 0,0 -138.17500000000018,-0.0" stroke="rgb(255,150,150)" stroke-width="2" /><path d="M 5468.2738,130.0 a 431.8354637752702,431.8354637752702 0 0,0 -138.17500000000018,-0.0" stroke="rgb(0,0,0)" stroke-width="0.2" /><path d="M 5686.3598,130.0 a 720.9449882017817,720.9449882017817 0 0,0 -218.08600000000024,-0.0" stroke="rgb(255,150,150)" stroke-width="2" /><path d="M 5686.3598,130.0 a 720.9449882017817,720.9449882017817 0 0,0 -218.08600000000024,-0.0" stroke="rgb(0,0,0)" stroke-width="0.2" /><path d="M 5625.8223,130.0 a 383.17087353278555,383.17087353278555 0 0,0 -98.60000000000036,-75.0" stroke="rgb(150,255,255)" stroke-width="2" /><path d="M 5625.8223,130.0 a 383.17087353278555,383.17087353278555 0 0,0 -98.60000000000036,-75.0" stroke="rgb(0,0,0)" stroke-width="0.2" /><path d="M 5939.0944,130.0 a 855.2753366982366,855.2753366982366 0 0,0 -252.73459999999977,-0.0" stroke="rgb(255,150,150)" stroke-width="2" /><path d="M 5939.0944,130.0 a 855.2753366982366,855.2753366982366 0 0,0 -252.73459999999977,-0.0" stroke="rgb(0,0,0)" stroke-width="0.2" /><path d="M 6102.9581499999995,130.0 a 521.6260554881843,521.6260554881843 0 0,0 -163.86374999999953,-0.0" stroke="rgb(255,150,150)" stroke-width="2" /><path d="M 6102.9581499999995,130.0 a 521.6260554881843,521.6260554881843 0 0,0 -163.86374999999953,-0.0" stroke="rgb(0,0,0)" stroke-width="0.2" /></svg>