<?xml version="1.0" encoding="utf-8" ?>
<svg baseProfile="full" height="100%" style="font-size:14;font-family:Sans, Arial;stroke-width:1;fill:none" version="1.1" width="100%" xmlns="http://www.w3.org/2000/svg" xmlns:ev="http://www.w3.org/2001/xml-events" xmlns:xlink="http://www.w3.org/1999/xlink"><defs /><rect fill="none" height="150.0" stroke="none" width="2034.3982000000003" x="0" y="0" /><line stroke="rgb(0,0,0)" x1="5.0" x2="32.0" y1="75.0" y2="75.0" /><line stroke="rgb(0,0,0)" x1="32.0" x2="42.0" y1="75.0" y2="75.0" /><line stroke="rgb(0,0,0)" x1="42.0" x2="47.0" y1="75.0" y2="75.0" /><line stroke="rgb(0,0,0)" x1="47.0" x2="126.90100000000001" y1="75.0" y2="75.0" /><line stroke="rgb(0,0,0)" x1="126.90100000000001" x2="136.901" y1="75.0" y2="75.0" /><line stroke="rgb(0,0,0)" x1="136.901" x2="141.901" y1="75.0" y2="75.0" /><line stroke="rgb(0,0,0)" x1="141.901" x2="163.68670000000003" y1="75.0" y2="75.0" /><line stroke="rgb(0,0,0)" x1="163.68670000000003" x2="173.68670000000003" y1="75.0" y2="75.0" /><line stroke="rgb(0,0,0)" x1="173.68670000000003" x2="178.68670000000003" y1="75.0" y2="75.0" /><line stroke="rgb(0,0,0)" x1="178.68670000000003" x2="188.68670000000003" y1="75.0" y2="75.0" /><line stroke="rgb(0,0,0)" x1="188.68670000000003" x2="198.68670000000003" y1="75.0" y2="75.0" /><line stroke="rgb(0,0,0)" x1="198.68670000000003" x2="203.68670000000003" y1="75.0" y2="75.0" /><line stroke="rgb(0,0,0)" x1="203.68670000000003" x2="278.49620000000004" y1="75.0" y2="75.0" /><line stroke="rgb(0,0,0)" x1="278.49620000000004" x2="288.49620000000004" y1="75.0" y2="75.0" /><line stroke="rgb(0,0,0)" x1="288.49620000000004" x2="293.49620000000004" y1="75.0" y2="75.0" /><line stroke="rgb(0,0,0)" x1="293.49620000000004" x2="356.1847" y1="75.0" y2="75.0" /><line stroke="rgb(0,0,0)" x1="356.1847" x2="366.1847" y1="75.0" y2="75.0" /><line stroke="rgb(0,0,0)" x1="366.1847" x2="371.1847" y1="75.0" y2="75.0" /><line stroke="rgb(0,0,0)" x1="371.1847" x2="428.0072" y1="75.0" y2="75.0" /><line stroke="rgb(0,0,0)" x1="428.0072" x2="438.0072" y1="75.0" y2="75.0" /><line stroke="rgb(0,0,0)" x1="438.0072" x2="443.0072" y1="75.0" y2="75.0" /><line stroke="rgb(0,0,0)" x1="443.0072" x2="463.0072" y1="75.0" y2="75.0" /><line stroke="rgb(0,0,0)" x1="463.0072" x2="473.0072" y1="75.0" y2="75.0" /><line stroke="rgb(0,0,0)" x1="473.0072" x2="478.0072" y1="75.0" y2="75.0" /><line stroke="rgb(0,0,0)" x1="478.0072" x2="524.5492499999999" y1="75.0" y2="75.0" /><line stroke="rgb(0,0,0)" x1="524.5492499999999" x2="534.5492499999999" y1="75.0" y2="75.0" /><line stroke="rgb(0,0,0)" x1="534.5492499999999" x2="539.5492499999999" y1="75.0" y2="75.0" /><line stroke="rgb(0,0,0)" x1="539.5492499999999" x2="553.64015" y1="75.0" y2="75.0" /><line stroke="rgb(0,0,0)" x1="553.64015" x2="563.64015" y1="75.0" y2="75.0" /><line stroke="rgb(0,0,0)" x1="563.64015" x2="568.64015" y1="75.0" y2="75.0" /><line stroke="rgb(0,0,0)" x1="568.64015" x2="613.0654499999999" y1="75.0" y2="75.0" /><line stroke="rgb(0,0,0)" x1="613.0654499999999" x2="623.0654499999999" y1="75.0" y2="75.0" /><line stroke="rgb(0,0,0)" x1="623.0654499999999" x2="628.0654499999999" y1="75.0" y2="75.0" /><line stroke="rgb(0,0,0)" x1="628.0654499999999" x2="652.2515" y1="75.0" y2="75.0" /><line stroke="rgb(0,0,0)" x1="652.2515" x2="662.2515" y1="75.0" y2="75.0" /><line stroke="rgb(0,0,0)" x1="662.2515" x2="667.2515" y1="75.0" y2="75.0" /><line stroke="rgb(0,0,0)" x1="667.2515" x2="687.6265" y1="75.0" y2="75.0" /><line stroke="rgb(0,0,0)" x1="687.6265" x2="697.6265" y1="75.0" y2="75.0" /><line stroke="rgb(0,0,0)" x1="697.6265" x2="702.6265" y1="75.0" y2="75.0" /><line stroke="rgb(0,0,0)" x1="702.6265" x2="715.4836499999999" y1="75.0" y2="75.0" /><line stroke="rgb(0,0,0)" x1="715.4836499999999" x2="725.4836499999999" y1="75.0" y2="75.0" /><line stroke="rgb(0,0,0)" x1="725.4836499999999" x2="730.4836499999999" y1="75.0" y2="75.0" /><line stroke="rgb(0,0,0)" x1="730.4836499999999" x2="781.56855" y1="75.0" y2="75.0" /><line stroke="rgb(0,0,0)" x1="781.56855" x2="791.56855" y1="75.0" y2="75.0" /><line stroke="rgb(0,0,0)" x1="791.56855" x2="796.56855" y1="75.0" y2="75.0" /><line stroke="rgb(0,0,0)" x1="796.56855" x2="816.56855" y1="75.0" y2="75.0" /><line stroke="rgb(0,0,0)" x1="816.56855" x2="826.56855" y1="75.0" y2="75.0" /><line stroke="rgb(0,0,0)" x1="826.56855" x2="831.56855" y1="75.0" y2="75.0" /><line stroke="rgb(0,0,0)" x1="831.56855" x2="880.7666499999999" y1="75.0" y2="75.0" /><line stroke="rgb(0,0,0)" x1="880.7666499999999" x2="890.7666499999999" y1="75.0" y2="75.0" /><line stroke="rgb(0,0,0)" x1="890.7666499999999" x2="895.7666499999999" y1="75.0" y2="75.0" /><line stroke="rgb(0,0,0)" x1="895.7666499999999" x2="907.2159499999999" y1="75.0" y2="75.0" /><line stroke="rgb(0,0,0)" x1="907.2159499999999" x2="917.2159499999999" y1="75.0" y2="75.0" /><line stroke="rgb(0,0,0)" x1="917.2159499999999" x2="922.2159499999999" y1="75.0" y2="75.0" /><line stroke="rgb(0,0,0)" x1="922.2159499999999" x2="943.2575999999999" y1="75.0" y2="75.0" /><line stroke="rgb(0,0,0)" x1="943.2575999999999" x2="953.2575999999999" y1="75.0" y2="75.0" /><line stroke="rgb(0,0,0)" x1="953.2575999999999" x2="958.2575999999999" y1="75.0" y2="75.0" /><line stroke="rgb(0,0,0)" x1="958.2575999999999" x2="978.2575999999999" y1="75.0" y2="75.0" /><line stroke="rgb(0,0,0)" x1="978.2575999999999" x2="988.2575999999999" y1="75.0" y2="75.0" /><line stroke="rgb(0,0,0)" x1="988.2575999999999" x2="993.2575999999999" y1="75.0" y2="75.0" /><line stroke="rgb(0,0,0)" x1="993.2575999999999" x2="1003.9929" y1="75.0" y2="75.0" /><line stroke="rgb(0,0,0)" x1="1003.9929" x2="1013.9929" y1="75.0" y2="75.0" /><line stroke="rgb(0,0,0)" x1="1013.9929" x2="1018.9929" y1="75.0" y2="75.0" /><line stroke="rgb(0,0,0)" x1="1018.9929" x2="1075.0209" y1="75.0" y2="75.0" /><line stroke="rgb(0,0,0)" x1="1075.0209" x2="1085.0209" y1="75.0" y2="75.0" /><line stroke="rgb(0,0,0)" x1="1085.0209" x2="1090.0209" y1="75.0" y2="75.0" /><line stroke="rgb(0,0,0)" x1="1090.0209" x2="1150.2078999999999" y1="75.0" y2="75.0" /><line stroke="rgb(0,0,0)" x1="1150.2078999999999" x2="1160.2078999999999" y1="75.0" y2="75.0" /><line stroke="rgb(0,0,0)" x1="1160.2078999999999" x2="1165.2078999999999" y1="75.0" y2="75.0" /><line stroke="rgb(0,0,0)" x1="1165.2078999999999" x2="1192.1775999999998" y1="75.0" y2="75.0" /><line stroke="rgb(0,0,0)" x1="1192.1775999999998" x2="1202.1775999999998" y1="75.0" y2="75.0" /><line stroke="rgb(0,0,0)" x1="1202.1775999999998" x2="1207.1775999999998" y1="75.0" y2="75.0" /><line stroke="rgb(0,0,0)" x1="1207.1775999999998" x2="1217.5109499999999" y1="75.0" y2="75.0" /><line stroke="rgb(0,0,0)" x1="1217.5109499999999" x2="1227.5109499999999" y1="75.0" y2="75.0" /><line stroke="rgb(0,0,0)" x1="1227.5109499999999" x2="1232.5109499999999" y1="75.0" y2="75.0" /><line stroke="rgb(0,0,0)" x1="1232.5109499999999" x2="1301.0154499999999" y1="75.0" y2="75.0" /><line stroke="rgb(0,0,0)" x1="1301.0154499999999" x2="1311.0154499999999" y1="75.0" y2="75.0" /><line stroke="rgb(0,0,0)" x1="1311.0154499999999" x2="1316.0154499999999" y1="75.0" y2="75.0" /><line stroke="rgb(0,0,0)" x1="1316.0154499999999" x2="1378.77245" y1="75.0" y2="75.0" /><line stroke="rgb(0,0,0)" x1="1378.77245" x2="1388.77245" y1="75.0" y2="75.0" /><line stroke="rgb(0,0,0)" x1="1388.77245" x2="1393.77245" y1="75.0" y2="75.0" /><line stroke="rgb(0,0,0)" x1="1393.77245" x2="1416.59855" y1="75.0" y2="75.0" /><line stroke="rgb(0,0,0)" x1="1416.59855" x2="1426.59855" y1="75.0" y2="75.0" /><line stroke="rgb(0,0,0)" x1="1426.59855" x2="1431.59855" y1="75.0" y2="75.0" /><line stroke="rgb(0,0,0)" x1="1431.59855" x2="1452.67965" y1="75.0" y2="75.0" /><line stroke="rgb(0,0,0)" x1="1452.67965" x2="1462.67965" y1="75.0" y2="75.0" /><line stroke="rgb(0,0,0)" x1="1462.67965" x2="1467.67965" y1="75.0" y2="75.0" /><line stroke="rgb(0,0,0)" x1="1467.67965" x2="1490.5520000000001" y1="75.0" y2="75.0" /><line stroke="rgb(0,0,0)" x1="1490.5520000000001" x2="1500.5520000000001" y1="75.0" y2="75.0" /><line stroke="rgb(0,0,0)" x1="1500.5520000000001" x2="1505.5520000000001" y1="75.0" y2="75.0" /><line stroke="rgb(0,0,0)" x1="1505.5520000000001" x2="1569.2435" y1="75.0" y2="75.0" /><line stroke="rgb(0,0,0)" x1="1569.2435" x2="1579.2435" y1="75.0" y2="75.0" /><line stroke="rgb(0,0,0)" x1="1579.2435" x2="1584.2435" y1="75.0" y2="75.0" /><line stroke="rgb(0,0,0)" x1="1584.2435" x2="1607.6435000000001" y1="75.0" y2="75.0" /><line stroke="rgb(0,0,0)" x1="1607.6435000000001" x2="1617.6435000000001" y1="75.0" y2="75.0" /><line stroke="rgb(0,0,0)" x1="1617.6435000000001" x2="1622.6435000000001" y1="75.0" y2="75.0" /><line stroke="rgb(0,0,0)" x1="1622.6435000000001" x2="1691.901" y1="75.0" y2="75.0" /><line stroke="rgb(0,0,0)" x1="1691.901" x2="1701.901" y1="75.0" y2="75.0" /><line stroke="rgb(0,0,0)" x1="1701.901" x2="1706.901" y1="75.0" y2="75.0" /><line stroke="rgb(0,0,0)" x1="1706.901" x2="1727.1232" y1="75.0" y2="75.0" /><line stroke="rgb(0,0,0)" x1="1727.1232" x2="1737.1232" y1="75.0" y2="75.0" /><line stroke="rgb(0,0,0)" x1="1737.1232" x2="1742.1232" y1="75.0" y2="75.0" /><line stroke="rgb(0,0,0)" x1="1742.1232" x2="1816.8262000000002" y1="75.0" y2="75.0" /><line stroke="rgb(0,0,0)" x1="1816.8262000000002" x2="1826.8262000000002" y1="75.0" y2="75.0" /><line stroke="rgb(0,0,0)" x1="1826.8262000000002" x2="1831.8262000000002" y1="75.0" y2="75.0" /><line stroke="rgb(0,0,0)" x1="1831.8262000000002" x2="1889.7232000000004" y1="75.0" y2="75.0" /><line stroke="rgb(0,0,0)" x1="1889.7232000000004" x2="1899.7232000000004" y1="75.0" y2="75.0" /><line stroke="rgb(0,0,0)" x1="1899.7232000000004" x2="1904.7232000000004" y1="75.0" y2="75.0" /><line stroke="rgb(0,0,0)" x1="1904.7232000000004" x2="1914.7232000000004" y1="75.0" y2="75.0" /><line stroke="rgb(0,0,0)" x1="1914.7232000000004" x2="1924.7232000000004" y1="75.0" y2="75.0" /><line stroke="rgb(0,0,0)" x1="1924.7232000000004" x2="1929.7232000000004" y1="75.0" y2="75.0" /><line stroke="rgb(0,0,0)" x1="1929.7232000000004" x2="1958.3232000000003" y1="75.0" y2="75.0" /><line stroke="rgb(0,0,0)" x1="1958.3232000000003" x2="1968.3232000000003" y1="75.0" y2="75.0" /><line stroke="rgb(0,0,0)" x1="1968.3232000000003" x2="1973.3232000000003" y1="75.0" y2="75.0" /><rect fill="rgb(144,113,255)" height="42.0561" stroke="rgb(0,0,0)" width="22.0" x="5.0" y="53.97195" /><text fill="black" x="5.0" y="116.02805000000001">E4</text><rect fill="rgb(255,96,122)" height="94.3925" stroke="rgb(0,0,0)" width="74.901" x="47.0" y="27.80375" /><text fill="black" x="47.0" y="142.19625">E7</text><rect fill="rgb(255,67,86)" height="26.168200000000002" stroke="rgb(0,0,0)" width="16.7857" x="141.901" y="61.9159" /><text fill="black" x="141.901" y="108.0841">H8</text><rect fill="rgb(123,96,255)" height="31.7757" stroke="rgb(0,0,0)" width="5.0" x="178.68670000000003" y="59.11215" /><text fill="black" x="178.68670000000003" y="110.88785">E14</text><rect fill="rgb(255,37,47)" height="98.1308" stroke="rgb(0,0,0)" width="69.8095" x="203.68670000000003" y="25.934600000000003" /><text fill="black" x="203.68670000000003" y="144.0654">E16</text><rect fill="rgb(255,106,136)" height="99.0654" stroke="rgb(0,0,0)" width="57.6885" x="293.49620000000004" y="25.4673" /><text fill="black" x="293.49620000000004" y="144.5327">E18</text><rect fill="rgb(255,85,108)" height="100.0" stroke="rgb(0,0,0)" width="51.8225" x="371.1847" y="25.0" /><text fill="black" x="371.1847" y="145.0">E28</text><rect fill="rgb(40,32,255)" height="28.0374" stroke="rgb(0,0,0)" width="15.0" x="443.0072" y="60.9813" /><text fill="black" x="443.0072" y="109.0187">H30</text><rect fill="rgb(255,189,241)" height="100.0" stroke="rgb(0,0,0)" width="41.54205" x="478.0072" y="25.0" /><text fill="black" x="478.0072" y="145.0">E33</text><rect fill="rgb(255,121,155)" height="20.5607" stroke="rgb(0,0,0)" width="9.0909" x="539.5492499999999" y="64.71965" /><text fill="black" x="539.5492499999999" y="105.28035">E34</text><rect fill="rgb(237,185,255)" height="81.3084" stroke="rgb(0,0,0)" width="39.4253" x="568.64015" y="34.3458" /><text fill="black" x="568.64015" y="135.6542">H35</text><rect fill="rgb(77,60,255)" height="40.186899999999994" stroke="rgb(0,0,0)" width="19.186049999999998" x="628.0654499999999" y="54.90655" /><text fill="black" x="628.0654499999999" y="115.09344999999999">H39</text><rect fill="rgb(255,166,212)" height="37.3832" stroke="rgb(0,0,0)" width="15.375" x="667.2515" y="56.3084" /><text fill="black" x="667.2515" y="113.6916">H40</text><rect fill="rgb(255,31,40)" height="32.7103" stroke="rgb(0,0,0)" width="7.857150000000001" x="702.6265" y="58.644850000000005" /><text fill="black" x="702.6265" y="111.35515">E43</text><rect fill="rgb(255,175,224)" height="99.0654" stroke="rgb(0,0,0)" width="46.0849" x="730.4836499999999" y="25.4673" /><text fill="black" x="730.4836499999999" y="144.5327">E44</text><rect fill="rgb(138,109,255)" height="22.4299" stroke="rgb(0,0,0)" width="15.0" x="796.56855" y="63.78505" /><text fill="black" x="796.56855" y="106.21495">H51</text><rect fill="rgb(231,181,255)" height="99.0654" stroke="rgb(0,0,0)" width="44.1981" x="831.56855" y="25.4673" /><text fill="black" x="831.56855" y="144.5327">E54</text><rect fill="rgb(255,118,150)" height="64.486" stroke="rgb(0,0,0)" width="6.4493" x="895.7666499999999" y="42.757" /><text fill="black" x="895.7666499999999" y="127.243">E56</text><rect fill="rgb(255,118,150)" height="22.4299" stroke="rgb(0,0,0)" width="16.04165" x="922.2159499999999" y="63.78505" /><text fill="black" x="922.2159499999999" y="106.21495">H58</text><rect fill="rgb(255,172,219)" height="54.2056" stroke="rgb(0,0,0)" width="15.0" x="958.2575999999999" y="47.8972" /><text fill="black" x="958.2575999999999" y="122.1028">H60</text><rect fill="rgb(255,177,226)" height="63.5514" stroke="rgb(0,0,0)" width="5.7353" x="993.2575999999999" y="43.2243" /><text fill="black" x="993.2575999999999" y="126.7757">E61</text><rect fill="rgb(170,133,255)" height="100.0" stroke="rgb(0,0,0)" width="51.028000000000006" x="1018.9929" y="25.0" /><text fill="black" x="1018.9929" y="145.0">E67</text><rect fill="rgb(190,149,255)" height="100.0" stroke="rgb(0,0,0)" width="55.187" x="1090.0209" y="25.0" /><text fill="black" x="1090.0209" y="145.0">E69</text><rect fill="rgb(255,140,179)" height="61.682199999999995" stroke="rgb(0,0,0)" width="21.9697" x="1165.2078999999999" y="44.1589" /><text fill="black" x="1165.2078999999999" y="125.8411">H71</text><rect fill="rgb(101,79,255)" height="42.0561" stroke="rgb(0,0,0)" width="5.33335" x="1207.1775999999998" y="53.97195" /><text fill="black" x="1207.1775999999998" y="116.02805000000001">E78</text><rect fill="rgb(255,191,244)" height="100.0" stroke="rgb(0,0,0)" width="63.50450000000001" x="1232.5109499999999" y="25.0" /><text fill="black" x="1232.5109499999999" y="145.0">E80</text><rect fill="rgb(242,190,255)" height="100.0" stroke="rgb(0,0,0)" width="57.757" x="1316.0154499999999" y="25.0" /><text fill="black" x="1316.0154499999999" y="145.0">E82</text><rect fill="rgb(157,123,255)" height="42.9907" stroke="rgb(0,0,0)" width="17.8261" x="1393.77245" y="53.50465" /><text fill="black" x="1393.77245" y="116.49535">E88</text><rect fill="rgb(178,139,255)" height="34.5794" stroke="rgb(0,0,0)" width="16.0811" x="1431.59855" y="57.710300000000004" /><text fill="black" x="1431.59855" y="112.2897">H89</text><rect fill="rgb(130,102,255)" height="43.9252" stroke="rgb(0,0,0)" width="17.872349999999997" x="1467.67965" y="53.037400000000005" /><text fill="black" x="1467.67965" y="116.9626">E90</text><rect fill="rgb(255,187,239)" height="100.0" stroke="rgb(0,0,0)" width="58.691500000000005" x="1505.5520000000001" y="25.0" /><text fill="black" x="1505.5520000000001" y="145.0">E91</text><rect fill="rgb(255,71,91)" height="23.3645" stroke="rgb(0,0,0)" width="18.400000000000002" x="1584.2435" y="63.317750000000004" /><text fill="black" x="1584.2435" y="106.68225">H109</text><rect fill="rgb(255,120,153)" height="94.3925" stroke="rgb(0,0,0)" width="64.2575" x="1622.6435000000001" y="27.80375" /><text fill="black" x="1622.6435000000001" y="142.19625">E110</text><rect fill="rgb(179,140,255)" height="42.0561" stroke="rgb(0,0,0)" width="15.222199999999999" x="1706.901" y="53.97195" /><text fill="black" x="1706.901" y="116.02805000000001">H117</text><rect fill="rgb(255,102,131)" height="94.3925" stroke="rgb(0,0,0)" width="69.703" x="1742.1232" y="27.80375" /><text fill="black" x="1742.1232" y="142.19625">E119</text><rect fill="rgb(255,191,243)" height="100.0" stroke="rgb(0,0,0)" width="52.897" x="1831.8262000000002" y="25.0" /><text fill="black" x="1831.8262000000002" y="145.0">E121</text><rect fill="rgb(255,199,254)" height="33.6449" stroke="rgb(0,0,0)" width="5.0" x="1904.7232000000004" y="58.17755" /><text fill="black" x="1904.7232000000004" y="111.82245">E122</text><rect fill="rgb(255,151,192)" height="23.3645" stroke="rgb(0,0,0)" width="23.599999999999998" x="1929.7232000000004" y="63.317750000000004" /><text fill="black" x="1929.7232000000004" y="106.68225">H124</text><rect fill="rgb(255,121,155)" height="100.0" stroke="rgb(0,0,0)" width="56.075" x="1973.3232000000003" y="25.0" /><text fill="black" x="1973.3232000000003" y="145.0">E126</text><path d="M 84.4505,75.0 a 77.90695703120879,77.90695703120879 0 0,0 -68.4505,-0.0" stroke="rgb(144,113,255)" stroke-width="2" /><path d="M 84.4505,75.0 a 77.90695703120879,77.90695703120879 0 0,0 -68.4505,-0.0" stroke="rgb(0,0,0)" stroke-width="0.2" /><path d="M 238.59145000000004,75.0 a 204.0925759574652,204.0925759574652 0 0,0 -154.14095000000003,-0.0" stroke="rgb(255,96,122)" stroke-width="2" /><path d="M 238.59145000000004,75.0 a 204.0925759574652,204.0925759574652 0 0,0 -154.14095000000003,-0.0" stroke="rgb(0,0,0)" stroke-width="0.2" /><path d="M 2001.3607000000002,75.0 a 10146.540500139532,10146.540500139532 0 0,0 -1916.9102000000003,-0.0" stroke="rgb(255,96,122)" stroke-width="2" /><path d="M 2001.3607000000002,75.0 a 10146.540500139532,10146.540500139532 0 0,0 -1916.9102000000003,-0.0" stroke="rgb(0,0,0)" stroke-width="0.2" /><path d="M 181.18670000000003,75.0 a 6798.413634846026,6798.413634846026 0 0,0 1726.0365000000004,-0.0" stroke="rgb(123,96,255)" stroke-width="2" /><path d="M 181.18670000000003,75.0 a 6798.413634846026,6798.413634846026 0 0,0 1726.0365000000004,-0.0" stroke="rgb(0,0,0)" stroke-width="0.2" /><path d="M 322.34045000000003,75.0 a 98.07976293690884,98.07976293690884 0 0,0 -83.749,-0.0" stroke="rgb(255,37,47)" stroke-width="2" /><path d="M 322.34045000000003,75.0 a 98.07976293690884,98.07976293690884 0 0,0 -83.749,-0.0" stroke="rgb(0,0,0)" stroke-width="0.2" /><path d="M 397.09595,75.0 a 86.09758992722554,86.09758992722554 0 0,0 -74.75549999999998,-0.0" stroke="rgb(255,106,136)" stroke-width="2" /><path d="M 397.09595,75.0 a 86.09758992722554,86.09758992722554 0 0,0 -74.75549999999998,-0.0" stroke="rgb(0,0,0)" stroke-width="0.2" /><path d="M 498.778225,75.0 a 123.02503670127456,123.02503670127456 0 0,0 -101.682275,-0.0" stroke="rgb(255,85,108)" stroke-width="2" /><path d="M 498.778225,75.0 a 123.02503670127456,123.02503670127456 0 0,0 -101.682275,-0.0" stroke="rgb(0,0,0)" stroke-width="0.2" /><path d="M 753.5260999999999,75.0 a 393.6524833931486,393.6524833931486 0 0,0 -254.7478749999999,-0.0" stroke="rgb(255,189,241)" stroke-width="2" /><path d="M 753.5260999999999,75.0 a 393.6524833931486,393.6524833931486 0 0,0 -254.7478749999999,-0.0" stroke="rgb(0,0,0)" stroke-width="0.2" /><path d="M 706.555075,75.0 a 218.06343266775596,218.06343266775596 0 0,0 -162.4603750000001,-0.0" stroke="rgb(255,121,155)" stroke-width="2" /><path d="M 706.555075,75.0 a 218.06343266775596,218.06343266775596 0 0,0 -162.4603750000001,-0.0" stroke="rgb(0,0,0)" stroke-width="0.2" /><path d="M 853.6676,75.0 a 120.82664235406598,120.82664235406598 0 0,0 -100.14150000000006,-0.0" stroke="rgb(255,175,224)" stroke-width="2" /><path d="M 853.6676,75.0 a 120.82664235406598,120.82664235406598 0 0,0 -100.14150000000006,-0.0" stroke="rgb(0,0,0)" stroke-width="0.2" /><path d="M 1044.5068999999999,75.0 a 268.0262362383091,268.0262362383091 0 0,0 -190.83929999999987,-0.0" stroke="rgb(231,181,255)" stroke-width="2" /><path d="M 1044.5068999999999,75.0 a 268.0262362383091,268.0262362383091 0 0,0 -190.83929999999987,-0.0" stroke="rgb(0,0,0)" stroke-width="0.2" /><path d="M 996.1252499999999,75.0 a 116.56534926389152,116.56534926389152 0 0,0 -97.13395000000003,-0.0" stroke="rgb(255,118,150)" stroke-width="2" /><path d="M 996.1252499999999,75.0 a 116.56534926389152,116.56534926389152 0 0,0 -97.13395000000003,-0.0" stroke="rgb(0,0,0)" stroke-width="0.2" /><path d="M 1117.6144,75.0 a 83.94006237020562,83.94006237020562 0 0,0 -73.10750000000007,-0.0" stroke="rgb(170,133,255)" stroke-width="2" /><path d="M 1117.6144,75.0 a 83.94006237020562,83.94006237020562 0 0,0 -73.10750000000007,-0.0" stroke="rgb(0,0,0)" stroke-width="0.2" /><path d="M 1264.2631999999999,75.0 a 191.7727031100399,191.7727031100399 0 0,0 -146.64879999999994,-0.0" stroke="rgb(190,149,255)" stroke-width="2" /><path d="M 1264.2631999999999,75.0 a 191.7727031100399,191.7727031100399 0 0,0 -146.64879999999994,-0.0" stroke="rgb(0,0,0)" stroke-width="0.2" /><path d="M 1209.8442749999997,75.0 a 189.2433179304607,189.2433179304607 0 0,0 266.7715500000004,-0.0" stroke="rgb(101,79,255)" stroke-width="2" /><path d="M 1209.8442749999997,75.0 a 189.2433179304607,189.2433179304607 0 0,0 266.7715500000004,-0.0" stroke="rgb(0,0,0)" stroke-width="0.2" /><path d="M 1344.89395,75.0 a 93.88541429597652,93.88541429597652 0 0,0 -80.63075000000003,-0.0" stroke="rgb(255,191,244)" stroke-width="2" /><path d="M 1344.89395,75.0 a 93.88541429597652,93.88541429597652 0 0,0 -80.63075000000003,-0.0" stroke="rgb(0,0,0)" stroke-width="0.2" /><path d="M 1534.89775,75.0 a 266.50425471672446,266.50425471672446 0 0,0 -190.00380000000018,-0.0" stroke="rgb(242,190,255)" stroke-width="2" /><path d="M 1534.89775,75.0 a 266.50425471672446,266.50425471672446 0 0,0 -190.00380000000018,-0.0" stroke="rgb(0,0,0)" stroke-width="0.2" /><path d="M 1476.615825,75.0 a 85.01581308766404,85.01581308766404 0 0,0 -73.93032500000004,-0.0" stroke="rgb(157,123,255)" stroke-width="2" /><path d="M 1476.615825,75.0 a 85.01581308766404,85.01581308766404 0 0,0 -73.93032500000004,-0.0" stroke="rgb(0,0,0)" stroke-width="0.2" /><path d="M 1654.7722500000002,75.0 a 149.7682057109651,149.7682057109651 0 0,0 -119.87450000000013,-0.0" stroke="rgb(255,187,239)" stroke-width="2" /><path d="M 1654.7722500000002,75.0 a 149.7682057109651,149.7682057109651 0 0,0 -119.87450000000013,-0.0" stroke="rgb(0,0,0)" stroke-width="0.2" /><path d="M 1776.9747,75.0 a 153.29516562445912,153.29516562445912 0 0,0 -122.20244999999977,-0.0" stroke="rgb(255,120,153)" stroke-width="2" /><path d="M 1776.9747,75.0 a 153.29516562445912,153.29516562445912 0 0,0 -122.20244999999977,-0.0" stroke="rgb(0,0,0)" stroke-width="0.2" /><path d="M 1858.2747000000002,75.0 a 94.78205251929816,94.78205251929816 0 0,0 -81.30000000000018,-0.0" stroke="rgb(255,102,131)" stroke-width="2" /><path d="M 1858.2747000000002,75.0 a 94.78205251929816,94.78205251929816 0 0,0 -81.30000000000018,-0.0" stroke="rgb(0,0,0)" stroke-width="0.2" /><path d="M 2001.3607000000002,75.0 a 186.00107326073845,186.00107326073845 0 0,0 -143.086,-0.0" stroke="rgb(255,191,243)" stroke-width="2" /><path d="M 2001.3607000000002,75.0 a 186.00107326073845,186.00107326073845 0 0,0 -143.086,-0.0" stroke="rgb(0,0,0)" stroke-width="0.2" /></svg>