<?xml version="1.0" encoding="utf-8" ?>
<svg baseProfile="full" height="100%" style="font-size:14;font-family:Sans, Arial;stroke-width:1;fill:none" version="1.1" width="100%" xmlns="http://www.w3.org/2000/svg" xmlns:ev="http://www.w3.org/2001/xml-events" xmlns:xlink="http://www.w3.org/1999/xlink"><defs /><rect fill="none" height="300.0" stroke="none" width="4870.458149999999" x="0" y="0" /><line stroke="rgb(0,0,0)" x1="5.0" x2="27.0" y1="225.0" y2="225.0" /><line stroke="rgb(0,0,0)" x1="27.0" x2="40.0" y1="225.0" y2="150.0" /><line stroke="rgb(0,0,0)" x1="40.0" x2="45.0" y1="150.0" y2="150.0" /><line stroke="rgb(0,0,0)" x1="45.0" x2="90.0" y1="150.0" y2="150.0" /><line stroke="rgb(0,0,0)" x1="90.0" x2="100.0" y1="150.0" y2="75.0" /><line stroke="rgb(0,0,0)" x1="100.0" x2="105.0" y1="75.0" y2="75.0" /><line stroke="rgb(0,0,0)" x1="45.0" x2="90.0" y1="150.0" y2="150.0" /><line stroke="rgb(0,0,0)" x1="90.0" x2="100.0" y1="150.0" y2="225.0" /><line stroke="rgb(0,0,0)" x1="100.0" x2="105.0" y1="225.0" y2="225.0" /><line stroke="rgb(0,0,0)" x1="5.0" x2="30.0" y1="75.0" y2="75.0" /><line stroke="rgb(0,0,0)" x1="30.0" x2="100.0" y1="75.0" y2="225.0" /><line stroke="rgb(0,0,0)" x1="100.0" x2="105.0" y1="225.0" y2="225.0" /><line stroke="rgb(0,0,0)" x1="105.0" x2="130.0" y1="75.0" y2="75.0" /><line stroke="rgb(0,0,0)" x1="130.0" x2="142.0" y1="75.0" y2="150.0" /><line stroke="rgb(0,0,0)" x1="142.0" x2="147.0" y1="150.0" y2="150.0" /><line stroke="rgb(0,0,0)" x1="147.0" x2="169.5" y1="150.0" y2="150.0" /><line stroke="rgb(0,0,0)" x1="169.5" x2="179.5" y1="150.0" y2="150.0" /><line stroke="rgb(0,0,0)" x1="179.5" x2="184.5" y1="150.0" y2="150.0" /><line stroke="rgb(0,0,0)" x1="184.5" x2="212.83335" y1="150.0" y2="150.0" /><line stroke="rgb(0,0,0)" x1="212.83335" x2="222.83335" y1="150.0" y2="150.0" /><line stroke="rgb(0,0,0)" x1="222.83335" x2="227.83335" y1="150.0" y2="150.0" /><line stroke="rgb(0,0,0)" x1="105.0" x2="132.0" y1="225.0" y2="225.0" /><line stroke="rgb(0,0,0)" x1="132.0" x2="222.83335" y1="225.0" y2="150.0" /><line stroke="rgb(0,0,0)" x1="222.83335" x2="227.83335" y1="150.0" y2="150.0" /><line stroke="rgb(0,0,0)" x1="227.83335" x2="307.73435" y1="150.0" y2="150.0" /><line stroke="rgb(0,0,0)" x1="307.73435" x2="317.73435" y1="150.0" y2="150.0" /><line stroke="rgb(0,0,0)" x1="317.73435" x2="322.73435" y1="150.0" y2="150.0" /><line stroke="rgb(0,0,0)" x1="322.73435" x2="344.52004999999997" y1="150.0" y2="150.0" /><line stroke="rgb(0,0,0)" x1="344.52004999999997" x2="354.52004999999997" y1="150.0" y2="150.0" /><line stroke="rgb(0,0,0)" x1="354.52004999999997" x2="359.52004999999997" y1="150.0" y2="150.0" /><line stroke="rgb(0,0,0)" x1="359.52004999999997" x2="369.52004999999997" y1="150.0" y2="150.0" /><line stroke="rgb(0,0,0)" x1="369.52004999999997" x2="379.52004999999997" y1="150.0" y2="150.0" /><line stroke="rgb(0,0,0)" x1="379.52004999999997" x2="384.52004999999997" y1="150.0" y2="150.0" /><line stroke="rgb(0,0,0)" x1="384.52004999999997" x2="435.83585" y1="150.0" y2="150.0" /><line stroke="rgb(0,0,0)" x1="435.83585" x2="445.83585" y1="150.0" y2="150.0" /><line stroke="rgb(0,0,0)" x1="445.83585" x2="450.83585" y1="150.0" y2="150.0" /><line stroke="rgb(0,0,0)" x1="450.83585" x2="455.83585" y1="150.0" y2="150.0" /><line stroke="rgb(0,0,0)" x1="455.83585" x2="465.83585" y1="150.0" y2="150.0" /><line stroke="rgb(0,0,0)" x1="465.83585" x2="470.83585" y1="150.0" y2="150.0" /><line stroke="rgb(0,0,0)" x1="470.83585" x2="475.83585" y1="150.0" y2="150.0" /><line stroke="rgb(0,0,0)" x1="475.83585" x2="485.83585" y1="150.0" y2="150.0" /><line stroke="rgb(0,0,0)" x1="485.83585" x2="490.83585" y1="150.0" y2="150.0" /><line stroke="rgb(0,0,0)" x1="490.83585" x2="563.69285" y1="150.0" y2="150.0" /><line stroke="rgb(0,0,0)" x1="563.69285" x2="573.69285" y1="150.0" y2="150.0" /><line stroke="rgb(0,0,0)" x1="573.69285" x2="578.69285" y1="150.0" y2="150.0" /><line stroke="rgb(0,0,0)" x1="578.69285" x2="588.69285" y1="150.0" y2="150.0" /><line stroke="rgb(0,0,0)" x1="588.69285" x2="598.69285" y1="150.0" y2="150.0" /><line stroke="rgb(0,0,0)" x1="598.69285" x2="603.69285" y1="150.0" y2="150.0" /><line stroke="rgb(0,0,0)" x1="603.69285" x2="613.69285" y1="150.0" y2="150.0" /><line stroke="rgb(0,0,0)" x1="613.69285" x2="623.69285" y1="150.0" y2="150.0" /><line stroke="rgb(0,0,0)" x1="623.69285" x2="628.69285" y1="150.0" y2="150.0" /><line stroke="rgb(0,0,0)" x1="628.69285" x2="703.50235" y1="150.0" y2="150.0" /><line stroke="rgb(0,0,0)" x1="703.50235" x2="713.50235" y1="150.0" y2="150.0" /><line stroke="rgb(0,0,0)" x1="713.50235" x2="718.50235" y1="150.0" y2="150.0" /><line stroke="rgb(0,0,0)" x1="718.50235" x2="738.50235" y1="150.0" y2="150.0" /><line stroke="rgb(0,0,0)" x1="738.50235" x2="748.50235" y1="150.0" y2="150.0" /><line stroke="rgb(0,0,0)" x1="748.50235" x2="753.50235" y1="150.0" y2="150.0" /><line stroke="rgb(0,0,0)" x1="753.50235" x2="816.19085" y1="150.0" y2="150.0" /><line stroke="rgb(0,0,0)" x1="816.19085" x2="826.19085" y1="150.0" y2="150.0" /><line stroke="rgb(0,0,0)" x1="826.19085" x2="831.19085" y1="150.0" y2="150.0" /><line stroke="rgb(0,0,0)" x1="831.19085" x2="841.19085" y1="150.0" y2="150.0" /><line stroke="rgb(0,0,0)" x1="841.19085" x2="851.19085" y1="150.0" y2="150.0" /><line stroke="rgb(0,0,0)" x1="851.19085" x2="856.19085" y1="150.0" y2="150.0" /><line stroke="rgb(0,0,0)" x1="856.19085" x2="876.69085" y1="150.0" y2="150.0" /><line stroke="rgb(0,0,0)" x1="876.69085" x2="886.69085" y1="150.0" y2="150.0" /><line stroke="rgb(0,0,0)" x1="886.69085" x2="891.69085" y1="150.0" y2="150.0" /><line stroke="rgb(0,0,0)" x1="891.69085" x2="901.69085" y1="150.0" y2="150.0" /><line stroke="rgb(0,0,0)" x1="901.69085" x2="911.69085" y1="150.0" y2="150.0" /><line stroke="rgb(0,0,0)" x1="911.69085" x2="916.69085" y1="150.0" y2="150.0" /><line stroke="rgb(0,0,0)" x1="916.69085" x2="927.5242000000001" y1="150.0" y2="150.0" /><line stroke="rgb(0,0,0)" x1="927.5242000000001" x2="937.5242000000001" y1="150.0" y2="150.0" /><line stroke="rgb(0,0,0)" x1="937.5242000000001" x2="942.5242000000001" y1="150.0" y2="150.0" /><line stroke="rgb(0,0,0)" x1="942.5242000000001" x2="962.5242000000001" y1="150.0" y2="150.0" /><line stroke="rgb(0,0,0)" x1="962.5242000000001" x2="972.5242000000001" y1="150.0" y2="150.0" /><line stroke="rgb(0,0,0)" x1="972.5242000000001" x2="977.5242000000001" y1="150.0" y2="150.0" /><line stroke="rgb(0,0,0)" x1="977.5242000000001" x2="988.2385" y1="150.0" y2="150.0" /><line stroke="rgb(0,0,0)" x1="988.2385" x2="998.2385" y1="150.0" y2="150.0" /><line stroke="rgb(0,0,0)" x1="998.2385" x2="1003.2385" y1="150.0" y2="150.0" /><line stroke="rgb(0,0,0)" x1="1003.2385" x2="1026.5718500000003" y1="150.0" y2="150.0" /><line stroke="rgb(0,0,0)" x1="1026.5718500000003" x2="1036.57185" y1="150.0" y2="150.0" /><line stroke="rgb(0,0,0)" x1="1036.57185" x2="1041.57185" y1="150.0" y2="150.0" /><line stroke="rgb(0,0,0)" x1="1041.57185" x2="1067.57185" y1="150.0" y2="150.0" /><line stroke="rgb(0,0,0)" x1="1067.57185" x2="1077.57185" y1="150.0" y2="150.0" /><line stroke="rgb(0,0,0)" x1="1077.57185" x2="1082.57185" y1="150.0" y2="150.0" /><line stroke="rgb(0,0,0)" x1="1082.57185" x2="1092.57185" y1="150.0" y2="150.0" /><line stroke="rgb(0,0,0)" x1="1092.57185" x2="1102.57185" y1="150.0" y2="150.0" /><line stroke="rgb(0,0,0)" x1="1102.57185" x2="1107.57185" y1="150.0" y2="150.0" /><line stroke="rgb(0,0,0)" x1="1107.57185" x2="1164.39435" y1="150.0" y2="150.0" /><line stroke="rgb(0,0,0)" x1="1164.39435" x2="1174.39435" y1="150.0" y2="75.0" /><line stroke="rgb(0,0,0)" x1="1174.39435" x2="1179.39435" y1="75.0" y2="75.0" /><line stroke="rgb(0,0,0)" x1="1107.57185" x2="1164.39435" y1="150.0" y2="150.0" /><line stroke="rgb(0,0,0)" x1="1164.39435" x2="1174.39435" y1="150.0" y2="225.0" /><line stroke="rgb(0,0,0)" x1="1174.39435" x2="1179.39435" y1="225.0" y2="225.0" /><line stroke="rgb(0,0,0)" x1="1179.39435" x2="1184.39435" y1="75.0" y2="75.0" /><line stroke="rgb(0,0,0)" x1="1184.39435" x2="1209.39435" y1="75.0" y2="150.0" /><line stroke="rgb(0,0,0)" x1="1209.39435" x2="1214.39435" y1="150.0" y2="150.0" /><line stroke="rgb(0,0,0)" x1="1179.39435" x2="1199.39435" y1="225.0" y2="225.0" /><line stroke="rgb(0,0,0)" x1="1199.39435" x2="1209.39435" y1="225.0" y2="150.0" /><line stroke="rgb(0,0,0)" x1="1209.39435" x2="1214.39435" y1="150.0" y2="150.0" /><line stroke="rgb(0,0,0)" x1="1214.39435" x2="1224.39435" y1="150.0" y2="150.0" /><line stroke="rgb(0,0,0)" x1="1224.39435" x2="1234.39435" y1="150.0" y2="150.0" /><line stroke="rgb(0,0,0)" x1="1234.39435" x2="1239.39435" y1="150.0" y2="150.0" /><line stroke="rgb(0,0,0)" x1="1239.39435" x2="1244.39435" y1="150.0" y2="150.0" /><line stroke="rgb(0,0,0)" x1="1244.39435" x2="1254.39435" y1="150.0" y2="150.0" /><line stroke="rgb(0,0,0)" x1="1254.39435" x2="1259.39435" y1="150.0" y2="150.0" /><line stroke="rgb(0,0,0)" x1="1259.39435" x2="1305.9364" y1="150.0" y2="150.0" /><line stroke="rgb(0,0,0)" x1="1305.9364" x2="1315.9364" y1="150.0" y2="150.0" /><line stroke="rgb(0,0,0)" x1="1315.9364" x2="1320.9364" y1="150.0" y2="150.0" /><line stroke="rgb(0,0,0)" x1="1320.9364" x2="1335.0272999999997" y1="150.0" y2="150.0" /><line stroke="rgb(0,0,0)" x1="1335.0272999999997" x2="1345.0272999999997" y1="150.0" y2="150.0" /><line stroke="rgb(0,0,0)" x1="1345.0272999999997" x2="1350.0272999999997" y1="150.0" y2="150.0" /><line stroke="rgb(0,0,0)" x1="1350.0272999999997" x2="1394.4525999999998" y1="150.0" y2="150.0" /><line stroke="rgb(0,0,0)" x1="1394.4525999999998" x2="1404.4525999999998" y1="150.0" y2="150.0" /><line stroke="rgb(0,0,0)" x1="1404.4525999999998" x2="1409.4525999999998" y1="150.0" y2="150.0" /><line stroke="rgb(0,0,0)" x1="1409.4525999999998" x2="1419.4525999999998" y1="150.0" y2="150.0" /><line stroke="rgb(0,0,0)" x1="1419.4525999999998" x2="1429.4525999999998" y1="150.0" y2="150.0" /><line stroke="rgb(0,0,0)" x1="1429.4525999999998" x2="1434.4525999999998" y1="150.0" y2="150.0" /><line stroke="rgb(0,0,0)" x1="1434.4525999999998" x2="1454.4525999999998" y1="150.0" y2="150.0" /><line stroke="rgb(0,0,0)" x1="1454.4525999999998" x2="1464.4525999999998" y1="150.0" y2="150.0" /><line stroke="rgb(0,0,0)" x1="1464.4525999999998" x2="1469.4525999999998" y1="150.0" y2="150.0" /><line stroke="rgb(0,0,0)" x1="1469.4525999999998" x2="1494.4525999999998" y1="150.0" y2="150.0" /><line stroke="rgb(0,0,0)" x1="1494.4525999999998" x2="1504.4525999999998" y1="150.0" y2="150.0" /><line stroke="rgb(0,0,0)" x1="1504.4525999999998" x2="1509.4525999999998" y1="150.0" y2="150.0" /><line stroke="rgb(0,0,0)" x1="1509.4525999999998" x2="1533.63865" y1="150.0" y2="150.0" /><line stroke="rgb(0,0,0)" x1="1533.63865" x2="1543.63865" y1="150.0" y2="150.0" /><line stroke="rgb(0,0,0)" x1="1543.63865" x2="1548.63865" y1="150.0" y2="150.0" /><line stroke="rgb(0,0,0)" x1="1548.63865" x2="1569.0136499999999" y1="150.0" y2="150.0" /><line stroke="rgb(0,0,0)" x1="1569.0136499999999" x2="1579.0136499999999" y1="150.0" y2="150.0" /><line stroke="rgb(0,0,0)" x1="1579.0136499999999" x2="1584.0136499999999" y1="150.0" y2="150.0" /><line stroke="rgb(0,0,0)" x1="1584.0136499999999" x2="1594.0136499999999" y1="150.0" y2="150.0" /><line stroke="rgb(0,0,0)" x1="1594.0136499999999" x2="1604.0136499999999" y1="150.0" y2="150.0" /><line stroke="rgb(0,0,0)" x1="1604.0136499999999" x2="1609.0136499999999" y1="150.0" y2="150.0" /><line stroke="rgb(0,0,0)" x1="1609.0136499999999" x2="1614.0136499999999" y1="150.0" y2="150.0" /><line stroke="rgb(0,0,0)" x1="1614.0136499999999" x2="1624.0136499999999" y1="150.0" y2="150.0" /><line stroke="rgb(0,0,0)" x1="1624.0136499999999" x2="1629.0136499999999" y1="150.0" y2="150.0" /><line stroke="rgb(0,0,0)" x1="1629.0136499999999" x2="1641.8708000000001" y1="150.0" y2="150.0" /><line stroke="rgb(0,0,0)" x1="1641.8708000000001" x2="1651.8708000000001" y1="150.0" y2="150.0" /><line stroke="rgb(0,0,0)" x1="1651.8708000000001" x2="1656.8708000000001" y1="150.0" y2="150.0" /><line stroke="rgb(0,0,0)" x1="1656.8708000000001" x2="1707.9557" y1="150.0" y2="150.0" /><line stroke="rgb(0,0,0)" x1="1707.9557" x2="1717.9557" y1="150.0" y2="150.0" /><line stroke="rgb(0,0,0)" x1="1717.9557" x2="1722.9557" y1="150.0" y2="150.0" /><line stroke="rgb(0,0,0)" x1="1722.9557" x2="1727.9557" y1="150.0" y2="150.0" /><line stroke="rgb(0,0,0)" x1="1727.9557" x2="1737.9557" y1="150.0" y2="150.0" /><line stroke="rgb(0,0,0)" x1="1737.9557" x2="1742.9557" y1="150.0" y2="150.0" /><line stroke="rgb(0,0,0)" x1="1742.9557" x2="1747.9557" y1="150.0" y2="150.0" /><line stroke="rgb(0,0,0)" x1="1747.9557" x2="1757.9557" y1="150.0" y2="150.0" /><line stroke="rgb(0,0,0)" x1="1757.9557" x2="1762.9557" y1="150.0" y2="150.0" /><line stroke="rgb(0,0,0)" x1="1762.9557" x2="1767.9557" y1="150.0" y2="150.0" /><line stroke="rgb(0,0,0)" x1="1767.9557" x2="1777.9557" y1="150.0" y2="150.0" /><line stroke="rgb(0,0,0)" x1="1777.9557" x2="1782.9557" y1="150.0" y2="150.0" /><line stroke="rgb(0,0,0)" x1="1782.9557" x2="1787.9557" y1="150.0" y2="150.0" /><line stroke="rgb(0,0,0)" x1="1787.9557" x2="1797.9557" y1="150.0" y2="150.0" /><line stroke="rgb(0,0,0)" x1="1797.9557" x2="1802.9557" y1="150.0" y2="150.0" /><line stroke="rgb(0,0,0)" x1="1802.9557" x2="1807.9557" y1="150.0" y2="150.0" /><line stroke="rgb(0,0,0)" x1="1807.9557" x2="1817.9557" y1="150.0" y2="150.0" /><line stroke="rgb(0,0,0)" x1="1817.9557" x2="1822.9557" y1="150.0" y2="150.0" /><line stroke="rgb(0,0,0)" x1="1822.9557" x2="1827.9557" y1="150.0" y2="150.0" /><line stroke="rgb(0,0,0)" x1="1827.9557" x2="1837.9557" y1="150.0" y2="150.0" /><line stroke="rgb(0,0,0)" x1="1837.9557" x2="1842.9557" y1="150.0" y2="150.0" /><line stroke="rgb(0,0,0)" x1="1842.9557" x2="1862.9557" y1="150.0" y2="150.0" /><line stroke="rgb(0,0,0)" x1="1862.9557" x2="1872.9557" y1="150.0" y2="150.0" /><line stroke="rgb(0,0,0)" x1="1872.9557" x2="1877.9557" y1="150.0" y2="150.0" /><line stroke="rgb(0,0,0)" x1="1877.9557" x2="1882.9557" y1="150.0" y2="150.0" /><line stroke="rgb(0,0,0)" x1="1882.9557" x2="1892.9557" y1="150.0" y2="150.0" /><line stroke="rgb(0,0,0)" x1="1892.9557" x2="1897.9557" y1="150.0" y2="150.0" /><line stroke="rgb(0,0,0)" x1="1897.9557" x2="1907.9557" y1="150.0" y2="150.0" /><line stroke="rgb(0,0,0)" x1="1907.9557" x2="1917.9557" y1="150.0" y2="150.0" /><line stroke="rgb(0,0,0)" x1="1917.9557" x2="1922.9557" y1="150.0" y2="150.0" /><line stroke="rgb(0,0,0)" x1="1922.9557" x2="1972.1538" y1="150.0" y2="150.0" /><line stroke="rgb(0,0,0)" x1="1972.1538" x2="1982.1538" y1="150.0" y2="75.0" /><line stroke="rgb(0,0,0)" x1="1982.1538" x2="1987.1538" y1="75.0" y2="75.0" /><line stroke="rgb(0,0,0)" x1="1922.9557" x2="1972.1538" y1="150.0" y2="150.0" /><line stroke="rgb(0,0,0)" x1="1972.1538" x2="1982.1538" y1="150.0" y2="225.0" /><line stroke="rgb(0,0,0)" x1="1982.1538" x2="1987.1538" y1="225.0" y2="225.0" /><line stroke="rgb(0,0,0)" x1="1987.1538" x2="1998.6031" y1="225.0" y2="225.0" /><line stroke="rgb(0,0,0)" x1="1998.6031" x2="2022.1538" y1="225.0" y2="150.0" /><line stroke="rgb(0,0,0)" x1="2022.1538" x2="2027.1538" y1="150.0" y2="150.0" /><line stroke="rgb(0,0,0)" x1="2027.1538" x2="2037.1538" y1="150.0" y2="150.0" /><line stroke="rgb(0,0,0)" x1="2037.1538" x2="2047.1538" y1="150.0" y2="150.0" /><line stroke="rgb(0,0,0)" x1="2047.1538" x2="2052.1538" y1="150.0" y2="150.0" /><line stroke="rgb(0,0,0)" x1="1987.1538" x2="2012.1538" y1="75.0" y2="75.0" /><line stroke="rgb(0,0,0)" x1="2012.1538" x2="2047.1538" y1="75.0" y2="150.0" /><line stroke="rgb(0,0,0)" x1="2047.1538" x2="2052.1538" y1="150.0" y2="150.0" /><line stroke="rgb(0,0,0)" x1="2052.1538" x2="2073.19545" y1="150.0" y2="150.0" /><line stroke="rgb(0,0,0)" x1="2073.19545" x2="2083.19545" y1="150.0" y2="150.0" /><line stroke="rgb(0,0,0)" x1="2083.19545" x2="2088.19545" y1="150.0" y2="150.0" /><line stroke="rgb(0,0,0)" x1="2088.19545" x2="2098.19545" y1="150.0" y2="150.0" /><line stroke="rgb(0,0,0)" x1="2098.19545" x2="2108.19545" y1="150.0" y2="150.0" /><line stroke="rgb(0,0,0)" x1="2108.19545" x2="2113.19545" y1="150.0" y2="150.0" /><line stroke="rgb(0,0,0)" x1="2113.19545" x2="2133.19545" y1="150.0" y2="150.0" /><line stroke="rgb(0,0,0)" x1="2133.19545" x2="2143.19545" y1="150.0" y2="150.0" /><line stroke="rgb(0,0,0)" x1="2143.19545" x2="2148.19545" y1="150.0" y2="150.0" /><line stroke="rgb(0,0,0)" x1="2148.19545" x2="2158.93075" y1="150.0" y2="150.0" /><line stroke="rgb(0,0,0)" x1="2158.93075" x2="2168.93075" y1="150.0" y2="150.0" /><line stroke="rgb(0,0,0)" x1="2168.93075" x2="2173.93075" y1="150.0" y2="150.0" /><line stroke="rgb(0,0,0)" x1="2173.93075" x2="2178.93075" y1="150.0" y2="150.0" /><line stroke="rgb(0,0,0)" x1="2178.93075" x2="2188.93075" y1="150.0" y2="150.0" /><line stroke="rgb(0,0,0)" x1="2188.93075" x2="2193.93075" y1="150.0" y2="150.0" /><line stroke="rgb(0,0,0)" x1="2193.93075" x2="2218.93075" y1="150.0" y2="150.0" /><line stroke="rgb(0,0,0)" x1="2218.93075" x2="2228.93075" y1="150.0" y2="75.0" /><line stroke="rgb(0,0,0)" x1="2228.93075" x2="2233.93075" y1="75.0" y2="75.0" /><line stroke="rgb(0,0,0)" x1="2193.93075" x2="2218.93075" y1="150.0" y2="150.0" /><line stroke="rgb(0,0,0)" x1="2218.93075" x2="2228.93075" y1="150.0" y2="225.0" /><line stroke="rgb(0,0,0)" x1="2228.93075" x2="2233.93075" y1="225.0" y2="225.0" /><line stroke="rgb(0,0,0)" x1="2233.93075" x2="2238.93075" y1="75.0" y2="75.0" /><line stroke="rgb(0,0,0)" x1="2238.93075" x2="2248.93075" y1="75.0" y2="150.0" /><line stroke="rgb(0,0,0)" x1="2248.93075" x2="2253.93075" y1="150.0" y2="150.0" /><line stroke="rgb(0,0,0)" x1="2233.93075" x2="2238.93075" y1="225.0" y2="225.0" /><line stroke="rgb(0,0,0)" x1="2238.93075" x2="2248.93075" y1="225.0" y2="150.0" /><line stroke="rgb(0,0,0)" x1="2248.93075" x2="2253.93075" y1="150.0" y2="150.0" /><line stroke="rgb(0,0,0)" x1="2253.93075" x2="2278.93075" y1="150.0" y2="150.0" /><line stroke="rgb(0,0,0)" x1="2278.93075" x2="2288.93075" y1="150.0" y2="150.0" /><line stroke="rgb(0,0,0)" x1="2288.93075" x2="2293.93075" y1="150.0" y2="150.0" /><line stroke="rgb(0,0,0)" x1="2293.93075" x2="2349.9587500000002" y1="150.0" y2="150.0" /><line stroke="rgb(0,0,0)" x1="2349.9587500000002" x2="2359.9587500000002" y1="150.0" y2="150.0" /><line stroke="rgb(0,0,0)" x1="2359.9587500000002" x2="2364.9587500000002" y1="150.0" y2="150.0" /><line stroke="rgb(0,0,0)" x1="2364.9587500000002" x2="2384.9587500000002" y1="150.0" y2="150.0" /><line stroke="rgb(0,0,0)" x1="2384.9587500000002" x2="2394.9587500000002" y1="150.0" y2="150.0" /><line stroke="rgb(0,0,0)" x1="2394.9587500000002" x2="2399.9587500000002" y1="150.0" y2="150.0" /><line stroke="rgb(0,0,0)" x1="2399.9587500000002" x2="2460.14575" y1="150.0" y2="150.0" /><line stroke="rgb(0,0,0)" x1="2460.14575" x2="2470.14575" y1="150.0" y2="75.0" /><line stroke="rgb(0,0,0)" x1="2470.14575" x2="2475.14575" y1="75.0" y2="75.0" /><line stroke="rgb(0,0,0)" x1="2399.9587500000002" x2="2460.14575" y1="150.0" y2="150.0" /><line stroke="rgb(0,0,0)" x1="2460.14575" x2="2470.14575" y1="150.0" y2="225.0" /><line stroke="rgb(0,0,0)" x1="2470.14575" x2="2475.14575" y1="225.0" y2="225.0" /><line stroke="rgb(0,0,0)" x1="2475.14575" x2="2485.14575" y1="75.0" y2="75.0" /><line stroke="rgb(0,0,0)" x1="2485.14575" x2="2512.1154500000002" y1="75.0" y2="150.0" /><line stroke="rgb(0,0,0)" x1="2512.1154500000002" x2="2517.1154500000002" y1="150.0" y2="150.0" /><line stroke="rgb(0,0,0)" x1="2475.14575" x2="2502.1154500000002" y1="225.0" y2="225.0" /><line stroke="rgb(0,0,0)" x1="2502.1154500000002" x2="2512.1154500000002" y1="225.0" y2="150.0" /><line stroke="rgb(0,0,0)" x1="2512.1154500000002" x2="2517.1154500000002" y1="150.0" y2="150.0" /><line stroke="rgb(0,0,0)" x1="2517.1154500000002" x2="2532.1154500000002" y1="150.0" y2="150.0" /><line stroke="rgb(0,0,0)" x1="2532.1154500000002" x2="2542.1154500000002" y1="150.0" y2="150.0" /><line stroke="rgb(0,0,0)" x1="2542.1154500000002" x2="2547.1154500000002" y1="150.0" y2="150.0" /><line stroke="rgb(0,0,0)" x1="2547.1154500000002" x2="2559.6154500000002" y1="150.0" y2="150.0" /><line stroke="rgb(0,0,0)" x1="2559.6154500000002" x2="2569.6154500000002" y1="150.0" y2="150.0" /><line stroke="rgb(0,0,0)" x1="2569.6154500000002" x2="2574.6154500000002" y1="150.0" y2="150.0" /><line stroke="rgb(0,0,0)" x1="2574.6154500000002" x2="2599.6154500000002" y1="150.0" y2="150.0" /><line stroke="rgb(0,0,0)" x1="2599.6154500000002" x2="2609.6154500000002" y1="150.0" y2="150.0" /><line stroke="rgb(0,0,0)" x1="2609.6154500000002" x2="2614.6154500000002" y1="150.0" y2="150.0" /><line stroke="rgb(0,0,0)" x1="2614.6154500000002" x2="2627.9487999999997" y1="150.0" y2="150.0" /><line stroke="rgb(0,0,0)" x1="2627.9487999999997" x2="2637.9487999999997" y1="150.0" y2="150.0" /><line stroke="rgb(0,0,0)" x1="2637.9487999999997" x2="2642.9487999999997" y1="150.0" y2="150.0" /><line stroke="rgb(0,0,0)" x1="2642.9487999999997" x2="2662.9487999999997" y1="150.0" y2="150.0" /><line stroke="rgb(0,0,0)" x1="2662.9487999999997" x2="2672.9487999999997" y1="150.0" y2="150.0" /><line stroke="rgb(0,0,0)" x1="2672.9487999999997" x2="2677.9487999999997" y1="150.0" y2="150.0" /><line stroke="rgb(0,0,0)" x1="2677.9487999999997" x2="2687.9487999999997" y1="150.0" y2="150.0" /><line stroke="rgb(0,0,0)" x1="2687.9487999999997" x2="2697.9487999999997" y1="150.0" y2="150.0" /><line stroke="rgb(0,0,0)" x1="2697.9487999999997" x2="2702.9487999999997" y1="150.0" y2="150.0" /><line stroke="rgb(0,0,0)" x1="2702.9487999999997" x2="2713.28215" y1="150.0" y2="150.0" /><line stroke="rgb(0,0,0)" x1="2713.28215" x2="2723.28215" y1="150.0" y2="150.0" /><line stroke="rgb(0,0,0)" x1="2723.28215" x2="2728.28215" y1="150.0" y2="150.0" /><line stroke="rgb(0,0,0)" x1="2728.28215" x2="2742.28215" y1="150.0" y2="150.0" /><line stroke="rgb(0,0,0)" x1="2742.28215" x2="2752.28215" y1="150.0" y2="150.0" /><line stroke="rgb(0,0,0)" x1="2752.28215" x2="2757.28215" y1="150.0" y2="150.0" /><line stroke="rgb(0,0,0)" x1="2757.28215" x2="2825.78665" y1="150.0" y2="150.0" /><line stroke="rgb(0,0,0)" x1="2825.78665" x2="2835.78665" y1="150.0" y2="150.0" /><line stroke="rgb(0,0,0)" x1="2835.78665" x2="2840.78665" y1="150.0" y2="150.0" /><line stroke="rgb(0,0,0)" x1="2840.78665" x2="2860.78665" y1="150.0" y2="150.0" /><line stroke="rgb(0,0,0)" x1="2860.78665" x2="2870.78665" y1="150.0" y2="150.0" /><line stroke="rgb(0,0,0)" x1="2870.78665" x2="2875.78665" y1="150.0" y2="150.0" /><line stroke="rgb(0,0,0)" x1="2875.78665" x2="2938.5436499999996" y1="150.0" y2="150.0" /><line stroke="rgb(0,0,0)" x1="2938.5436499999996" x2="2948.5436499999996" y1="150.0" y2="150.0" /><line stroke="rgb(0,0,0)" x1="2948.5436499999996" x2="2953.5436499999996" y1="150.0" y2="150.0" /><line stroke="rgb(0,0,0)" x1="2953.5436499999996" x2="2976.32145" y1="150.0" y2="150.0" /><line stroke="rgb(0,0,0)" x1="2976.32145" x2="2986.32145" y1="150.0" y2="150.0" /><line stroke="rgb(0,0,0)" x1="2986.32145" x2="2991.32145" y1="150.0" y2="150.0" /><line stroke="rgb(0,0,0)" x1="2991.32145" x2="2996.32145" y1="150.0" y2="150.0" /><line stroke="rgb(0,0,0)" x1="2996.32145" x2="3006.32145" y1="150.0" y2="150.0" /><line stroke="rgb(0,0,0)" x1="3006.32145" x2="3011.32145" y1="150.0" y2="150.0" /><line stroke="rgb(0,0,0)" x1="3011.32145" x2="3016.32145" y1="150.0" y2="150.0" /><line stroke="rgb(0,0,0)" x1="3016.32145" x2="3026.32145" y1="150.0" y2="75.0" /><line stroke="rgb(0,0,0)" x1="3026.32145" x2="3031.32145" y1="75.0" y2="75.0" /><line stroke="rgb(0,0,0)" x1="3011.32145" x2="3016.32145" y1="150.0" y2="150.0" /><line stroke="rgb(0,0,0)" x1="3016.32145" x2="3026.32145" y1="150.0" y2="225.0" /><line stroke="rgb(0,0,0)" x1="3026.32145" x2="3031.32145" y1="225.0" y2="225.0" /><line stroke="rgb(0,0,0)" x1="3031.32145" x2="3036.32145" y1="75.0" y2="75.0" /><line stroke="rgb(0,0,0)" x1="3036.32145" x2="3046.32145" y1="75.0" y2="150.0" /><line stroke="rgb(0,0,0)" x1="3046.32145" x2="3051.32145" y1="150.0" y2="150.0" /><line stroke="rgb(0,0,0)" x1="3051.32145" x2="3074.1475499999997" y1="150.0" y2="150.0" /><line stroke="rgb(0,0,0)" x1="3074.1475499999997" x2="3084.1475499999997" y1="150.0" y2="150.0" /><line stroke="rgb(0,0,0)" x1="3084.1475499999997" x2="3089.1475499999997" y1="150.0" y2="150.0" /><line stroke="rgb(0,0,0)" x1="3031.32145" x2="3036.32145" y1="225.0" y2="225.0" /><line stroke="rgb(0,0,0)" x1="3036.32145" x2="3084.1475499999997" y1="225.0" y2="150.0" /><line stroke="rgb(0,0,0)" x1="3084.1475499999997" x2="3089.1475499999997" y1="150.0" y2="150.0" /><line stroke="rgb(0,0,0)" x1="3089.1475499999997" x2="3110.2286499999996" y1="150.0" y2="150.0" /><line stroke="rgb(0,0,0)" x1="3110.2286499999996" x2="3120.2286499999996" y1="150.0" y2="150.0" /><line stroke="rgb(0,0,0)" x1="3120.2286499999996" x2="3125.2286499999996" y1="150.0" y2="150.0" /><line stroke="rgb(0,0,0)" x1="3125.2286499999996" x2="3148.1009999999997" y1="150.0" y2="150.0" /><line stroke="rgb(0,0,0)" x1="3148.1009999999997" x2="3158.1009999999997" y1="150.0" y2="150.0" /><line stroke="rgb(0,0,0)" x1="3158.1009999999997" x2="3163.1009999999997" y1="150.0" y2="150.0" /><line stroke="rgb(0,0,0)" x1="3163.1009999999997" x2="3226.7924999999996" y1="150.0" y2="150.0" /><line stroke="rgb(0,0,0)" x1="3226.7924999999996" x2="3236.7924999999996" y1="150.0" y2="150.0" /><line stroke="rgb(0,0,0)" x1="3236.7924999999996" x2="3241.7924999999996" y1="150.0" y2="150.0" /><line stroke="rgb(0,0,0)" x1="3241.7924999999996" x2="3246.7924999999996" y1="150.0" y2="150.0" /><line stroke="rgb(0,0,0)" x1="3246.7924999999996" x2="3256.7924999999996" y1="150.0" y2="150.0" /><line stroke="rgb(0,0,0)" x1="3256.7924999999996" x2="3261.7924999999996" y1="150.0" y2="150.0" /><line stroke="rgb(0,0,0)" x1="3261.7924999999996" x2="3266.7924999999996" y1="150.0" y2="150.0" /><line stroke="rgb(0,0,0)" x1="3266.7924999999996" x2="3276.7924999999996" y1="150.0" y2="150.0" /><line stroke="rgb(0,0,0)" x1="3276.7924999999996" x2="3281.7924999999996" y1="150.0" y2="150.0" /><line stroke="rgb(0,0,0)" x1="3281.7924999999996" x2="3286.7924999999996" y1="150.0" y2="150.0" /><line stroke="rgb(0,0,0)" x1="3286.7924999999996" x2="3296.7924999999996" y1="150.0" y2="150.0" /><line stroke="rgb(0,0,0)" x1="3296.7924999999996" x2="3301.7924999999996" y1="150.0" y2="150.0" /><line stroke="rgb(0,0,0)" x1="3301.7924999999996" x2="3306.7924999999996" y1="150.0" y2="150.0" /><line stroke="rgb(0,0,0)" x1="3306.7924999999996" x2="3316.7924999999996" y1="150.0" y2="150.0" /><line stroke="rgb(0,0,0)" x1="3316.7924999999996" x2="3321.7924999999996" y1="150.0" y2="150.0" /><line stroke="rgb(0,0,0)" x1="3321.7924999999996" x2="3326.7924999999996" y1="150.0" y2="150.0" /><line stroke="rgb(0,0,0)" x1="3326.7924999999996" x2="3336.7924999999996" y1="150.0" y2="150.0" /><line stroke="rgb(0,0,0)" x1="3336.7924999999996" x2="3341.7924999999996" y1="150.0" y2="150.0" /><line stroke="rgb(0,0,0)" x1="3341.7924999999996" x2="3346.7924999999996" y1="150.0" y2="150.0" /><line stroke="rgb(0,0,0)" x1="3346.7924999999996" x2="3356.7924999999996" y1="150.0" y2="150.0" /><line stroke="rgb(0,0,0)" x1="3356.7924999999996" x2="3361.7924999999996" y1="150.0" y2="150.0" /><line stroke="rgb(0,0,0)" x1="3361.7924999999996" x2="3422.5424999999996" y1="150.0" y2="150.0" /><line stroke="rgb(0,0,0)" x1="3422.5424999999996" x2="3432.5424999999996" y1="150.0" y2="150.0" /><line stroke="rgb(0,0,0)" x1="3432.5424999999996" x2="3437.5424999999996" y1="150.0" y2="150.0" /><line stroke="rgb(0,0,0)" x1="3437.5424999999996" x2="3449.3281999999995" y1="150.0" y2="150.0" /><line stroke="rgb(0,0,0)" x1="3449.3281999999995" x2="3459.3281999999995" y1="150.0" y2="150.0" /><line stroke="rgb(0,0,0)" x1="3459.3281999999995" x2="3464.3281999999995" y1="150.0" y2="150.0" /><line stroke="rgb(0,0,0)" x1="3464.3281999999995" x2="3477.661549999999" y1="150.0" y2="150.0" /><line stroke="rgb(0,0,0)" x1="3477.661549999999" x2="3487.661549999999" y1="150.0" y2="150.0" /><line stroke="rgb(0,0,0)" x1="3487.661549999999" x2="3492.661549999999" y1="150.0" y2="150.0" /><line stroke="rgb(0,0,0)" x1="3492.661549999999" x2="3512.661549999999" y1="150.0" y2="150.0" /><line stroke="rgb(0,0,0)" x1="3512.661549999999" x2="3522.661549999999" y1="150.0" y2="150.0" /><line stroke="rgb(0,0,0)" x1="3522.661549999999" x2="3527.661549999999" y1="150.0" y2="150.0" /><line stroke="rgb(0,0,0)" x1="3527.661549999999" x2="3537.661549999999" y1="150.0" y2="150.0" /><line stroke="rgb(0,0,0)" x1="3537.661549999999" x2="3547.661549999999" y1="150.0" y2="150.0" /><line stroke="rgb(0,0,0)" x1="3547.661549999999" x2="3552.661549999999" y1="150.0" y2="150.0" /><line stroke="rgb(0,0,0)" x1="3552.661549999999" x2="3562.661549999999" y1="150.0" y2="150.0" /><line stroke="rgb(0,0,0)" x1="3562.661549999999" x2="3572.661549999999" y1="150.0" y2="150.0" /><line stroke="rgb(0,0,0)" x1="3572.661549999999" x2="3577.661549999999" y1="150.0" y2="150.0" /><line stroke="rgb(0,0,0)" x1="3577.661549999999" x2="3587.661549999999" y1="150.0" y2="150.0" /><line stroke="rgb(0,0,0)" x1="3587.661549999999" x2="3597.661549999999" y1="150.0" y2="150.0" /><line stroke="rgb(0,0,0)" x1="3597.661549999999" x2="3602.661549999999" y1="150.0" y2="150.0" /><line stroke="rgb(0,0,0)" x1="3602.661549999999" x2="3657.161549999999" y1="150.0" y2="150.0" /><line stroke="rgb(0,0,0)" x1="3657.161549999999" x2="3667.161549999999" y1="150.0" y2="150.0" /><line stroke="rgb(0,0,0)" x1="3667.161549999999" x2="3672.161549999999" y1="150.0" y2="150.0" /><line stroke="rgb(0,0,0)" x1="3672.161549999999" x2="3693.828199999999" y1="150.0" y2="150.0" /><line stroke="rgb(0,0,0)" x1="3693.828199999999" x2="3703.828199999999" y1="150.0" y2="150.0" /><line stroke="rgb(0,0,0)" x1="3703.828199999999" x2="3708.828199999999" y1="150.0" y2="150.0" /><line stroke="rgb(0,0,0)" x1="3708.828199999999" x2="3728.828199999999" y1="150.0" y2="150.0" /><line stroke="rgb(0,0,0)" x1="3728.828199999999" x2="3738.828199999999" y1="150.0" y2="150.0" /><line stroke="rgb(0,0,0)" x1="3738.828199999999" x2="3743.828199999999" y1="150.0" y2="150.0" /><line stroke="rgb(0,0,0)" x1="3743.828199999999" x2="3768.828199999999" y1="150.0" y2="150.0" /><line stroke="rgb(0,0,0)" x1="3768.828199999999" x2="3778.828199999999" y1="150.0" y2="150.0" /><line stroke="rgb(0,0,0)" x1="3778.828199999999" x2="3783.828199999999" y1="150.0" y2="150.0" /><line stroke="rgb(0,0,0)" x1="3783.828199999999" x2="3807.228199999999" y1="150.0" y2="150.0" /><line stroke="rgb(0,0,0)" x1="3807.228199999999" x2="3817.228199999999" y1="150.0" y2="150.0" /><line stroke="rgb(0,0,0)" x1="3817.228199999999" x2="3822.228199999999" y1="150.0" y2="150.0" /><line stroke="rgb(0,0,0)" x1="3822.228199999999" x2="3891.485699999999" y1="150.0" y2="150.0" /><line stroke="rgb(0,0,0)" x1="3891.485699999999" x2="3901.485699999999" y1="150.0" y2="150.0" /><line stroke="rgb(0,0,0)" x1="3901.485699999999" x2="3906.485699999999" y1="150.0" y2="150.0" /><line stroke="rgb(0,0,0)" x1="3906.485699999999" x2="3919.8190499999987" y1="150.0" y2="150.0" /><line stroke="rgb(0,0,0)" x1="3919.8190499999987" x2="3929.8190499999987" y1="150.0" y2="150.0" /><line stroke="rgb(0,0,0)" x1="3929.8190499999987" x2="3934.8190499999987" y1="150.0" y2="150.0" /><line stroke="rgb(0,0,0)" x1="3934.8190499999987" x2="3950.2036499999986" y1="150.0" y2="150.0" /><line stroke="rgb(0,0,0)" x1="3950.2036499999986" x2="3960.2036499999986" y1="150.0" y2="150.0" /><line stroke="rgb(0,0,0)" x1="3960.2036499999986" x2="3965.2036499999986" y1="150.0" y2="150.0" /><line stroke="rgb(0,0,0)" x1="3965.2036499999986" x2="3983.7750999999985" y1="150.0" y2="150.0" /><line stroke="rgb(0,0,0)" x1="3983.7750999999985" x2="3993.7750999999985" y1="150.0" y2="150.0" /><line stroke="rgb(0,0,0)" x1="3993.7750999999985" x2="3998.7750999999985" y1="150.0" y2="150.0" /><line stroke="rgb(0,0,0)" x1="3998.7750999999985" x2="4018.7750999999985" y1="150.0" y2="150.0" /><line stroke="rgb(0,0,0)" x1="4018.7750999999985" x2="4028.7750999999985" y1="150.0" y2="150.0" /><line stroke="rgb(0,0,0)" x1="4028.7750999999985" x2="4033.7750999999985" y1="150.0" y2="150.0" /><line stroke="rgb(0,0,0)" x1="4033.7750999999985" x2="4053.7750999999985" y1="150.0" y2="150.0" /><line stroke="rgb(0,0,0)" x1="4053.7750999999985" x2="4063.7750999999985" y1="150.0" y2="150.0" /><line stroke="rgb(0,0,0)" x1="4063.7750999999985" x2="4068.7750999999985" y1="150.0" y2="150.0" /><line stroke="rgb(0,0,0)" x1="4068.7750999999985" x2="4100.025099999999" y1="150.0" y2="150.0" /><line stroke="rgb(0,0,0)" x1="4100.025099999999" x2="4110.025099999999" y1="150.0" y2="150.0" /><line stroke="rgb(0,0,0)" x1="4110.025099999999" x2="4115.025099999999" y1="150.0" y2="150.0" /><line stroke="rgb(0,0,0)" x1="4115.025099999999" x2="4135.247299999999" y1="150.0" y2="150.0" /><line stroke="rgb(0,0,0)" x1="4135.247299999999" x2="4145.247299999999" y1="150.0" y2="150.0" /><line stroke="rgb(0,0,0)" x1="4145.247299999999" x2="4150.247299999999" y1="150.0" y2="150.0" /><line stroke="rgb(0,0,0)" x1="4150.247299999999" x2="4160.247299999999" y1="150.0" y2="150.0" /><line stroke="rgb(0,0,0)" x1="4160.247299999999" x2="4170.247299999999" y1="150.0" y2="150.0" /><line stroke="rgb(0,0,0)" x1="4170.247299999999" x2="4175.247299999999" y1="150.0" y2="150.0" /><line stroke="rgb(0,0,0)" x1="4175.247299999999" x2="4249.950299999999" y1="150.0" y2="150.0" /><line stroke="rgb(0,0,0)" x1="4249.950299999999" x2="4259.950299999999" y1="150.0" y2="150.0" /><line stroke="rgb(0,0,0)" x1="4259.950299999999" x2="4264.950299999999" y1="150.0" y2="150.0" /><line stroke="rgb(0,0,0)" x1="4264.950299999999" x2="4286.825299999999" y1="150.0" y2="150.0" /><line stroke="rgb(0,0,0)" x1="4286.825299999999" x2="4296.825299999999" y1="150.0" y2="150.0" /><line stroke="rgb(0,0,0)" x1="4296.825299999999" x2="4301.825299999999" y1="150.0" y2="150.0" /><line stroke="rgb(0,0,0)" x1="4301.825299999999" x2="4359.7222999999985" y1="150.0" y2="150.0" /><line stroke="rgb(0,0,0)" x1="4359.7222999999985" x2="4369.7222999999985" y1="150.0" y2="75.0" /><line stroke="rgb(0,0,0)" x1="4369.7222999999985" x2="4374.7222999999985" y1="75.0" y2="75.0" /><line stroke="rgb(0,0,0)" x1="4301.825299999999" x2="4359.7222999999985" y1="150.0" y2="150.0" /><line stroke="rgb(0,0,0)" x1="4359.7222999999985" x2="4369.7222999999985" y1="150.0" y2="225.0" /><line stroke="rgb(0,0,0)" x1="4369.7222999999985" x2="4374.7222999999985" y1="225.0" y2="225.0" /><line stroke="rgb(0,0,0)" x1="4374.7222999999985" x2="4384.7222999999985" y1="75.0" y2="75.0" /><line stroke="rgb(0,0,0)" x1="4384.7222999999985" x2="4404.7222999999985" y1="75.0" y2="150.0" /><line stroke="rgb(0,0,0)" x1="4404.7222999999985" x2="4409.7222999999985" y1="150.0" y2="150.0" /><line stroke="rgb(0,0,0)" x1="4374.7222999999985" x2="4394.7222999999985" y1="225.0" y2="225.0" /><line stroke="rgb(0,0,0)" x1="4394.7222999999985" x2="4404.7222999999985" y1="225.0" y2="150.0" /><line stroke="rgb(0,0,0)" x1="4404.7222999999985" x2="4409.7222999999985" y1="150.0" y2="150.0" /><line stroke="rgb(0,0,0)" x1="4409.7222999999985" x2="4438.322299999999" y1="150.0" y2="150.0" /><line stroke="rgb(0,0,0)" x1="4438.322299999999" x2="4448.322299999999" y1="150.0" y2="150.0" /><line stroke="rgb(0,0,0)" x1="4448.322299999999" x2="4453.322299999999" y1="150.0" y2="150.0" /><line stroke="rgb(0,0,0)" x1="4453.322299999999" x2="4463.322299999999" y1="150.0" y2="150.0" /><line stroke="rgb(0,0,0)" x1="4463.322299999999" x2="4473.322299999999" y1="150.0" y2="150.0" /><line stroke="rgb(0,0,0)" x1="4473.322299999999" x2="4478.322299999999" y1="150.0" y2="150.0" /><line stroke="rgb(0,0,0)" x1="4478.322299999999" x2="4539.397299999999" y1="150.0" y2="150.0" /><line stroke="rgb(0,0,0)" x1="4539.397299999999" x2="4549.397299999999" y1="150.0" y2="150.0" /><line stroke="rgb(0,0,0)" x1="4549.397299999999" x2="4554.397299999999" y1="150.0" y2="150.0" /><line stroke="rgb(0,0,0)" x1="4554.397299999999" x2="4577.730649999999" y1="150.0" y2="150.0" /><line stroke="rgb(0,0,0)" x1="4577.730649999999" x2="4587.730649999999" y1="150.0" y2="150.0" /><line stroke="rgb(0,0,0)" x1="4587.730649999999" x2="4592.730649999999" y1="150.0" y2="150.0" /><line stroke="rgb(0,0,0)" x1="4592.730649999999" x2="4597.730649999999" y1="150.0" y2="150.0" /><line stroke="rgb(0,0,0)" x1="4597.730649999999" x2="4607.730649999999" y1="150.0" y2="150.0" /><line stroke="rgb(0,0,0)" x1="4607.730649999999" x2="4612.730649999999" y1="150.0" y2="150.0" /><line stroke="rgb(0,0,0)" x1="4612.730649999999" x2="4617.730649999999" y1="150.0" y2="150.0" /><line stroke="rgb(0,0,0)" x1="4617.730649999999" x2="4627.730649999999" y1="150.0" y2="150.0" /><line stroke="rgb(0,0,0)" x1="4627.730649999999" x2="4632.730649999999" y1="150.0" y2="150.0" /><line stroke="rgb(0,0,0)" x1="4632.730649999999" x2="4637.730649999999" y1="150.0" y2="150.0" /><line stroke="rgb(0,0,0)" x1="4637.730649999999" x2="4647.730649999999" y1="150.0" y2="150.0" /><line stroke="rgb(0,0,0)" x1="4647.730649999999" x2="4652.730649999999" y1="150.0" y2="150.0" /><line stroke="rgb(0,0,0)" x1="4652.730649999999" x2="4657.730649999999" y1="150.0" y2="150.0" /><line stroke="rgb(0,0,0)" x1="4657.730649999999" x2="4667.730649999999" y1="150.0" y2="150.0" /><line stroke="rgb(0,0,0)" x1="4667.730649999999" x2="4672.730649999999" y1="150.0" y2="150.0" /><line stroke="rgb(0,0,0)" x1="4672.730649999999" x2="4730.458149999999" y1="150.0" y2="150.0" /><line stroke="rgb(0,0,0)" x1="4730.458149999999" x2="4740.458149999999" y1="150.0" y2="150.0" /><line stroke="rgb(0,0,0)" x1="4740.458149999999" x2="4745.458149999999" y1="150.0" y2="150.0" /><line stroke="rgb(0,0,0)" x1="4745.458149999999" x2="4765.458149999999" y1="150.0" y2="150.0" /><line stroke="rgb(0,0,0)" x1="4765.458149999999" x2="4775.458149999999" y1="150.0" y2="150.0" /><line stroke="rgb(0,0,0)" x1="4775.458149999999" x2="4780.458149999999" y1="150.0" y2="150.0" /><line stroke="rgb(0,0,0)" x1="4780.458149999999" x2="4785.458149999999" y1="150.0" y2="150.0" /><line stroke="rgb(0,0,0)" x1="4785.458149999999" x2="4795.458149999999" y1="150.0" y2="150.0" /><line stroke="rgb(0,0,0)" x1="4795.458149999999" x2="4800.458149999999" y1="150.0" y2="150.0" /><rect fill="rgb(75,59,255)" height="2.80374" stroke="rgb(0,0,0)" width="20.0" x="5.0" y="73.59813" /><text fill="black" x="5.0" y="96.40187">E0</text><rect fill="rgb(255,67,86)" height="4.6729" stroke="rgb(0,0,0)" width="17.0" x="5.0" y="222.66355" /><text fill="black" x="5.0" y="247.33645">H1</text><rect fill="rgb(255,85,108)" height="4.6729" stroke="rgb(0,0,0)" width="40.0" x="45.0" y="147.66355" /><text fill="black" x="45.0" y="172.33645">H2</text><rect fill="rgb(0,0,255)" height="0.9345789999999999" stroke="rgb(0,0,0)" width="20.0" x="105.0" y="74.5327105" /><text fill="black" x="105.0" y="95.4672895">H3</text><rect fill="rgb(144,113,255)" height="42.0561" stroke="rgb(0,0,0)" width="22.0" x="105.0" y="203.97195" /><text fill="black" x="105.0" y="266.02805">E4</text><rect fill="rgb(255,140,178)" height="1.86916" stroke="rgb(0,0,0)" width="17.5" x="147.0" y="149.06542" /><text fill="black" x="147.0" y="170.93458">H5</text><rect fill="rgb(255,179,229)" height="2.80374" stroke="rgb(0,0,0)" width="23.33335" x="184.5" y="148.59813" /><text fill="black" x="184.5" y="171.40187">H6</text><rect fill="rgb(255,96,122)" height="94.3925" stroke="rgb(0,0,0)" width="74.901" x="227.83335" y="102.80375000000001" /><text fill="black" x="227.83335" y="217.19625">E7</text><rect fill="rgb(255,67,86)" height="26.168200000000002" stroke="rgb(0,0,0)" width="16.7857" x="322.73435" y="136.9159" /><text fill="black" x="322.73435" y="183.0841">H8</text><rect fill="rgb(5,4,255)" height="5.60748" stroke="rgb(0,0,0)" width="5.0" x="359.52004999999997" y="147.19626" /><text fill="black" x="359.52004999999997" y="172.80374">E9</text><rect fill="rgb(255,13,17)" height="17.757" stroke="rgb(0,0,0)" width="46.315799999999996" x="384.52004999999997" y="141.1215" /><text fill="black" x="384.52004999999997" y="178.8785">E10</text><rect fill="rgb(0,0,255)" height="0.0" stroke="rgb(0,0,0)" width="0.0" x="450.83585" y="150.0" /><text fill="black" x="450.83585" y="170.0">X11</text><rect fill="rgb(0,0,255)" height="0.0" stroke="rgb(0,0,0)" width="0.0" x="470.83585" y="150.0" /><text fill="black" x="470.83585" y="170.0">X12</text><rect fill="rgb(255,66,84)" height="6.542059999999999" stroke="rgb(0,0,0)" width="67.857" x="490.83585" y="146.72897" /><text fill="black" x="490.83585" y="173.27103">E13</text><rect fill="rgb(123,96,255)" height="31.7757" stroke="rgb(0,0,0)" width="5.0" x="578.69285" y="134.11214999999999" /><text fill="black" x="578.69285" y="185.88785000000001">E14</text><rect fill="rgb(0,0,255)" height="0.9345789999999999" stroke="rgb(0,0,0)" width="5.0" x="603.69285" y="149.5327105" /><text fill="black" x="603.69285" y="170.4672895">E15</text><rect fill="rgb(255,37,47)" height="98.1308" stroke="rgb(0,0,0)" width="69.8095" x="628.69285" y="100.9346" /><text fill="black" x="628.69285" y="219.0654">E16</text><rect fill="rgb(0,0,255)" height="0.9345789999999999" stroke="rgb(0,0,0)" width="15.0" x="718.50235" y="149.5327105" /><text fill="black" x="718.50235" y="170.4672895">H17</text><rect fill="rgb(255,106,136)" height="99.0654" stroke="rgb(0,0,0)" width="57.6885" x="753.50235" y="100.4673" /><text fill="black" x="753.50235" y="219.5327">E18</text><rect fill="rgb(0,0,255)" height="0.9345789999999999" stroke="rgb(0,0,0)" width="5.0" x="831.19085" y="149.5327105" /><text fill="black" x="831.19085" y="170.4672895">E19</text><rect fill="rgb(255,112,142)" height="18.6916" stroke="rgb(0,0,0)" width="15.5" x="856.19085" y="140.6542" /><text fill="black" x="856.19085" y="179.3458">H20</text><rect fill="rgb(0,0,255)" height="0.9345789999999999" stroke="rgb(0,0,0)" width="5.0" x="891.69085" y="149.5327105" /><text fill="black" x="891.69085" y="170.4672895">E21</text><rect fill="rgb(224,175,255)" height="5.60748" stroke="rgb(0,0,0)" width="5.83335" x="916.69085" y="147.19626" /><text fill="black" x="916.69085" y="172.80374">E22</text><rect fill="rgb(255,98,126)" height="1.86916" stroke="rgb(0,0,0)" width="15.0" x="942.5242000000001" y="149.06542" /><text fill="black" x="942.5242000000001" y="170.93458">H23</text><rect fill="rgb(255,196,250)" height="6.542059999999999" stroke="rgb(0,0,0)" width="5.7143" x="977.5242000000001" y="146.72897" /><text fill="black" x="977.5242000000001" y="173.27103">E24</text><rect fill="rgb(255,85,108)" height="5.60748" stroke="rgb(0,0,0)" width="18.33335" x="1003.2385" y="147.19626" /><text fill="black" x="1003.2385" y="172.80374">H25</text><rect fill="rgb(188,147,255)" height="4.6729" stroke="rgb(0,0,0)" width="21.0" x="1041.57185" y="147.66355" /><text fill="black" x="1041.57185" y="172.33645">H26</text><rect fill="rgb(15,11,255)" height="8.411209999999999" stroke="rgb(0,0,0)" width="5.0" x="1082.57185" y="145.794395" /><text fill="black" x="1082.57185" y="174.205605">E27</text><rect fill="rgb(255,85,108)" height="100.0" stroke="rgb(0,0,0)" width="51.8225" x="1107.57185" y="100.0" /><text fill="black" x="1107.57185" y="220.0">E28</text><rect fill="rgb(0,0,255)" height="0.0" stroke="rgb(0,0,0)" width="0.0" x="1179.39435" y="75.0" /><text fill="black" x="1179.39435" y="95.0">X29</text><rect fill="rgb(40,32,255)" height="28.0374" stroke="rgb(0,0,0)" width="15.0" x="1179.39435" y="210.9813" /><text fill="black" x="1179.39435" y="259.01869999999997">H30</text><rect fill="rgb(0,0,255)" height="0.9345789999999999" stroke="rgb(0,0,0)" width="5.0" x="1214.39435" y="149.5327105" /><text fill="black" x="1214.39435" y="170.4672895">E31</text><rect fill="rgb(0,0,255)" height="0.0" stroke="rgb(0,0,0)" width="0.0" x="1239.39435" y="150.0" /><text fill="black" x="1239.39435" y="170.0">X32</text><rect fill="rgb(255,189,241)" height="100.0" stroke="rgb(0,0,0)" width="41.54205" x="1259.39435" y="100.0" /><text fill="black" x="1259.39435" y="220.0">E33</text><rect fill="rgb(255,121,155)" height="20.5607" stroke="rgb(0,0,0)" width="9.0909" x="1320.9364" y="139.71965" /><text fill="black" x="1320.9364" y="180.28035">E34</text><rect fill="rgb(237,185,255)" height="81.3084" stroke="rgb(0,0,0)" width="39.4253" x="1350.0272999999997" y="109.3458" /><text fill="black" x="1350.0272999999997" y="210.6542">H35</text><rect fill="rgb(0,0,255)" height="0.9345789999999999" stroke="rgb(0,0,0)" width="5.0" x="1409.4525999999998" y="149.5327105" /><text fill="black" x="1409.4525999999998" y="170.4672895">E36</text><rect fill="rgb(2,1,255)" height="5.60748" stroke="rgb(0,0,0)" width="15.0" x="1434.4525999999998" y="147.19626" /><text fill="black" x="1434.4525999999998" y="172.80374">H37</text><rect fill="rgb(255,24,30)" height="12.1495" stroke="rgb(0,0,0)" width="20.0" x="1469.4525999999998" y="143.92525" /><text fill="black" x="1469.4525999999998" y="176.07475">H38</text><rect fill="rgb(77,60,255)" height="40.186899999999994" stroke="rgb(0,0,0)" width="19.186049999999998" x="1509.4525999999998" y="129.90655" /><text fill="black" x="1509.4525999999998" y="190.09345">H39</text><rect fill="rgb(255,166,212)" height="37.3832" stroke="rgb(0,0,0)" width="15.375" x="1548.63865" y="131.3084" /><text fill="black" x="1548.63865" y="188.6916">H40</text><rect fill="rgb(1,1,255)" height="8.411209999999999" stroke="rgb(0,0,0)" width="5.0" x="1584.0136499999999" y="145.794395" /><text fill="black" x="1584.0136499999999" y="174.205605">E41</text><rect fill="rgb(0,0,255)" height="0.0" stroke="rgb(0,0,0)" width="0.0" x="1609.0136499999999" y="150.0" /><text fill="black" x="1609.0136499999999" y="170.0">X42</text><rect fill="rgb(255,31,40)" height="32.7103" stroke="rgb(0,0,0)" width="7.857150000000001" x="1629.0136499999999" y="133.64485" /><text fill="black" x="1629.0136499999999" y="186.35515">E43</text><rect fill="rgb(255,175,224)" height="99.0654" stroke="rgb(0,0,0)" width="46.0849" x="1656.8708000000001" y="100.4673" /><text fill="black" x="1656.8708000000001" y="219.5327">E44</text><rect fill="rgb(0,0,255)" height="0.0" stroke="rgb(0,0,0)" width="0.0" x="1722.9557" y="150.0" /><text fill="black" x="1722.9557" y="170.0">X45</text><rect fill="rgb(0,0,255)" height="0.0" stroke="rgb(0,0,0)" width="0.0" x="1742.9557" y="150.0" /><text fill="black" x="1742.9557" y="170.0">X46</text><rect fill="rgb(0,0,255)" height="0.0" stroke="rgb(0,0,0)" width="0.0" x="1762.9557" y="150.0" /><text fill="black" x="1762.9557" y="170.0">X47</text><rect fill="rgb(0,0,255)" height="0.0" stroke="rgb(0,0,0)" width="0.0" x="1782.9557" y="150.0" /><text fill="black" x="1782.9557" y="170.0">X48</text><rect fill="rgb(0,0,255)" height="0.0" stroke="rgb(0,0,0)" width="0.0" x="1802.9557" y="150.0" /><text fill="black" x="1802.9557" y="170.0">X49</text><rect fill="rgb(0,0,255)" height="0.0" stroke="rgb(0,0,0)" width="0.0" x="1822.9557" y="150.0" /><text fill="black" x="1822.9557" y="170.0">X50</text><rect fill="rgb(138,109,255)" height="22.4299" stroke="rgb(0,0,0)" width="15.0" x="1842.9557" y="138.78505" /><text fill="black" x="1842.9557" y="181.21495">H51</text><rect fill="rgb(0,0,255)" height="0.0" stroke="rgb(0,0,0)" width="0.0" x="1877.9557" y="150.0" /><text fill="black" x="1877.9557" y="170.0">X52</text><rect fill="rgb(32,25,255)" height="9.34579" stroke="rgb(0,0,0)" width="5.0" x="1897.9557" y="145.327105" /><text fill="black" x="1897.9557" y="174.672895">E53</text><rect fill="rgb(231,181,255)" height="99.0654" stroke="rgb(0,0,0)" width="44.1981" x="1922.9557" y="100.4673" /><text fill="black" x="1922.9557" y="219.5327">E54</text><rect fill="rgb(255,190,242)" height="14.0187" stroke="rgb(0,0,0)" width="20.0" x="1987.1538" y="67.99065" /><text fill="black" x="1987.1538" y="102.00935">H55</text><rect fill="rgb(255,118,150)" height="64.486" stroke="rgb(0,0,0)" width="6.4493" x="1987.1538" y="192.757" /><text fill="black" x="1987.1538" y="277.243">E56</text><rect fill="rgb(8,6,255)" height="7.47664" stroke="rgb(0,0,0)" width="5.0" x="2027.1538" y="146.26168" /><text fill="black" x="2027.1538" y="173.73832">E57</text><rect fill="rgb(255,118,150)" height="22.4299" stroke="rgb(0,0,0)" width="16.04165" x="2052.1538" y="138.78505" /><text fill="black" x="2052.1538" y="181.21495">H58</text><rect fill="rgb(7,5,255)" height="7.47664" stroke="rgb(0,0,0)" width="5.0" x="2088.19545" y="146.26168" /><text fill="black" x="2088.19545" y="173.73832">E59</text><rect fill="rgb(255,172,219)" height="54.2056" stroke="rgb(0,0,0)" width="15.0" x="2113.19545" y="122.8972" /><text fill="black" x="2113.19545" y="197.1028">H60</text><rect fill="rgb(255,177,226)" height="63.5514" stroke="rgb(0,0,0)" width="5.7353" x="2148.19545" y="118.2243" /><text fill="black" x="2148.19545" y="201.7757">E61</text><rect fill="rgb(0,0,255)" height="0.0" stroke="rgb(0,0,0)" width="0.0" x="2173.93075" y="150.0" /><text fill="black" x="2173.93075" y="170.0">X62</text><rect fill="rgb(0,0,255)" height="0.9345789999999999" stroke="rgb(0,0,0)" width="20.0" x="2193.93075" y="149.5327105" /><text fill="black" x="2193.93075" y="170.4672895">E63</text><rect fill="rgb(0,0,255)" height="0.0" stroke="rgb(0,0,0)" width="0.0" x="2233.93075" y="75.0" /><text fill="black" x="2233.93075" y="95.0">X64</text><rect fill="rgb(0,0,255)" height="0.0" stroke="rgb(0,0,0)" width="0.0" x="2233.93075" y="225.0" /><text fill="black" x="2233.93075" y="245.0">X65</text><rect fill="rgb(0,0,255)" height="0.9345789999999999" stroke="rgb(0,0,0)" width="20.0" x="2253.93075" y="149.5327105" /><text fill="black" x="2253.93075" y="170.4672895">E66</text><rect fill="rgb(170,133,255)" height="100.0" stroke="rgb(0,0,0)" width="51.028000000000006" x="2293.93075" y="100.0" /><text fill="black" x="2293.93075" y="220.0">E67</text><rect fill="rgb(190,149,255)" height="3.73832" stroke="rgb(0,0,0)" width="15.0" x="2364.9587500000002" y="148.13084" /><text fill="black" x="2364.9587500000002" y="171.86916">H68</text><rect fill="rgb(190,149,255)" height="100.0" stroke="rgb(0,0,0)" width="55.187" x="2399.9587500000002" y="100.0" /><text fill="black" x="2399.9587500000002" y="220.0">E69</text><rect fill="rgb(8,6,255)" height="2.80374" stroke="rgb(0,0,0)" width="5.0" x="2475.14575" y="73.59813" /><text fill="black" x="2475.14575" y="96.40187">E70</text><rect fill="rgb(255,140,179)" height="61.682199999999995" stroke="rgb(0,0,0)" width="21.9697" x="2475.14575" y="194.15890000000002" /><text fill="black" x="2475.14575" y="275.8411">H71</text><rect fill="rgb(255,59,76)" height="4.6729" stroke="rgb(0,0,0)" width="10.0" x="2517.1154500000002" y="147.66355" /><text fill="black" x="2517.1154500000002" y="172.33645">E72</text><rect fill="rgb(255,176,224)" height="3.73832" stroke="rgb(0,0,0)" width="7.5" x="2547.1154500000002" y="148.13084" /><text fill="black" x="2547.1154500000002" y="171.86916">E73</text><rect fill="rgb(46,36,255)" height="2.80374" stroke="rgb(0,0,0)" width="20.0" x="2574.6154500000002" y="148.59813" /><text fill="black" x="2574.6154500000002" y="171.40187">H74</text><rect fill="rgb(32,25,255)" height="2.80374" stroke="rgb(0,0,0)" width="8.333350000000001" x="2614.6154500000002" y="148.59813" /><text fill="black" x="2614.6154500000002" y="171.40187">E75</text><rect fill="rgb(51,40,255)" height="2.80374" stroke="rgb(0,0,0)" width="15.0" x="2642.9487999999997" y="148.59813" /><text fill="black" x="2642.9487999999997" y="171.40187">H76</text><rect fill="rgb(48,38,255)" height="2.80374" stroke="rgb(0,0,0)" width="5.0" x="2677.9487999999997" y="148.59813" /><text fill="black" x="2677.9487999999997" y="171.40187">E77</text><rect fill="rgb(101,79,255)" height="42.0561" stroke="rgb(0,0,0)" width="5.33335" x="2702.9487999999997" y="128.97195" /><text fill="black" x="2702.9487999999997" y="191.02805">E78</text><rect fill="rgb(255,50,64)" height="4.6729" stroke="rgb(0,0,0)" width="9.0" x="2728.28215" y="147.66355" /><text fill="black" x="2728.28215" y="172.33645">E79</text><rect fill="rgb(255,191,244)" height="100.0" stroke="rgb(0,0,0)" width="63.50450000000001" x="2757.28215" y="100.0" /><text fill="black" x="2757.28215" y="220.0">E80</text><rect fill="rgb(74,58,255)" height="1.86916" stroke="rgb(0,0,0)" width="15.0" x="2840.78665" y="149.06542" /><text fill="black" x="2840.78665" y="170.93458">H81</text><rect fill="rgb(242,190,255)" height="100.0" stroke="rgb(0,0,0)" width="57.757" x="2875.78665" y="100.0" /><text fill="black" x="2875.78665" y="220.0">E82</text><rect fill="rgb(255,31,40)" height="8.411209999999999" stroke="rgb(0,0,0)" width="17.7778" x="2953.5436499999996" y="145.794395" /><text fill="black" x="2953.5436499999996" y="174.205605">H83</text><rect fill="rgb(0,0,255)" height="0.0" stroke="rgb(0,0,0)" width="0.0" x="2991.32145" y="150.0" /><text fill="black" x="2991.32145" y="170.0">X84</text><rect fill="rgb(0,0,255)" height="0.0" stroke="rgb(0,0,0)" width="0.0" x="3011.32145" y="150.0" /><text fill="black" x="3011.32145" y="170.0">X85</text><rect fill="rgb(0,0,255)" height="0.0" stroke="rgb(0,0,0)" width="0.0" x="3031.32145" y="75.0" /><text fill="black" x="3031.32145" y="95.0">X86</text><rect fill="rgb(0,0,255)" height="0.0" stroke="rgb(0,0,0)" width="0.0" x="3031.32145" y="225.0" /><text fill="black" x="3031.32145" y="245.0">X87</text><rect fill="rgb(157,123,255)" height="42.9907" stroke="rgb(0,0,0)" width="17.8261" x="3051.32145" y="128.50465" /><text fill="black" x="3051.32145" y="191.49535">E88</text><rect fill="rgb(178,139,255)" height="34.5794" stroke="rgb(0,0,0)" width="16.0811" x="3089.1475499999997" y="132.7103" /><text fill="black" x="3089.1475499999997" y="187.2897">H89</text><rect fill="rgb(130,102,255)" height="43.9252" stroke="rgb(0,0,0)" width="17.872349999999997" x="3125.2286499999996" y="128.0374" /><text fill="black" x="3125.2286499999996" y="191.9626">E90</text><rect fill="rgb(255,187,239)" height="100.0" stroke="rgb(0,0,0)" width="58.691500000000005" x="3163.1009999999997" y="100.0" /><text fill="black" x="3163.1009999999997" y="220.0">E91</text><rect fill="rgb(0,0,255)" height="0.0" stroke="rgb(0,0,0)" width="0.0" x="3241.7924999999996" y="150.0" /><text fill="black" x="3241.7924999999996" y="170.0">X92</text><rect fill="rgb(0,0,255)" height="0.0" stroke="rgb(0,0,0)" width="0.0" x="3261.7924999999996" y="150.0" /><text fill="black" x="3261.7924999999996" y="170.0">X93</text><rect fill="rgb(0,0,255)" height="0.0" stroke="rgb(0,0,0)" width="0.0" x="3281.7924999999996" y="150.0" /><text fill="black" x="3281.7924999999996" y="170.0">X94</text><rect fill="rgb(0,0,255)" height="0.0" stroke="rgb(0,0,0)" width="0.0" x="3301.7924999999996" y="150.0" /><text fill="black" x="3301.7924999999996" y="170.0">X95</text><rect fill="rgb(0,0,255)" height="0.0" stroke="rgb(0,0,0)" width="0.0" x="3321.7924999999996" y="150.0" /><text fill="black" x="3321.7924999999996" y="170.0">X96</text><rect fill="rgb(0,0,255)" height="0.0" stroke="rgb(0,0,0)" width="0.0" x="3341.7924999999996" y="150.0" /><text fill="black" x="3341.7924999999996" y="170.0">X97</text><rect fill="rgb(200,157,255)" height="18.6916" stroke="rgb(0,0,0)" width="55.75" x="3361.7924999999996" y="140.6542" /><text fill="black" x="3361.7924999999996" y="179.3458">E98</text><rect fill="rgb(132,103,255)" height="13.084100000000001" stroke="rgb(0,0,0)" width="6.7857" x="3437.5424999999996" y="143.45795" /><text fill="black" x="3437.5424999999996" y="176.54205">E99</text><rect fill="rgb(85,66,255)" height="5.60748" stroke="rgb(0,0,0)" width="8.333350000000001" x="3464.3281999999995" y="147.19626" /><text fill="black" x="3464.3281999999995" y="172.80374">E100</text><rect fill="rgb(255,154,197)" height="3.73832" stroke="rgb(0,0,0)" width="15.0" x="3492.661549999999" y="148.13084" /><text fill="black" x="3492.661549999999" y="171.86916">H101</text><rect fill="rgb(118,92,255)" height="2.80374" stroke="rgb(0,0,0)" width="5.0" x="3527.661549999999" y="148.59813" /><text fill="black" x="3527.661549999999" y="171.40187">E102</text><rect fill="rgb(123,97,255)" height="2.80374" stroke="rgb(0,0,0)" width="5.0" x="3552.661549999999" y="148.59813" /><text fill="black" x="3552.661549999999" y="171.40187">E103</text><rect fill="rgb(146,114,255)" height="2.80374" stroke="rgb(0,0,0)" width="5.0" x="3577.661549999999" y="148.59813" /><text fill="black" x="3577.661549999999" y="171.40187">E104</text><rect fill="rgb(121,95,255)" height="18.6916" stroke="rgb(0,0,0)" width="49.5" x="3602.661549999999" y="140.6542" /><text fill="black" x="3602.661549999999" y="179.3458">E105</text><rect fill="rgb(127,99,255)" height="2.80374" stroke="rgb(0,0,0)" width="16.66665" x="3672.161549999999" y="148.59813" /><text fill="black" x="3672.161549999999" y="171.40187">E106</text><rect fill="rgb(18,14,255)" height="2.80374" stroke="rgb(0,0,0)" width="15.0" x="3708.828199999999" y="148.59813" /><text fill="black" x="3708.828199999999" y="171.40187">H107</text><rect fill="rgb(255,188,240)" height="2.80374" stroke="rgb(0,0,0)" width="20.0" x="3743.828199999999" y="148.59813" /><text fill="black" x="3743.828199999999" y="171.40187">E108</text><rect fill="rgb(255,71,91)" height="23.3645" stroke="rgb(0,0,0)" width="18.400000000000002" x="3783.828199999999" y="138.31775" /><text fill="black" x="3783.828199999999" y="181.68225">H109</text><rect fill="rgb(255,120,153)" height="94.3925" stroke="rgb(0,0,0)" width="64.2575" x="3822.228199999999" y="102.80375000000001" /><text fill="black" x="3822.228199999999" y="217.19625">E110</text><rect fill="rgb(138,108,255)" height="2.80374" stroke="rgb(0,0,0)" width="8.333350000000001" x="3906.485699999999" y="148.59813" /><text fill="black" x="3906.485699999999" y="171.40187">E111</text><rect fill="rgb(255,91,116)" height="12.1495" stroke="rgb(0,0,0)" width="10.384599999999999" x="3934.8190499999987" y="143.92525" /><text fill="black" x="3934.8190499999987" y="176.07475">E112</text><rect fill="rgb(71,55,255)" height="6.542059999999999" stroke="rgb(0,0,0)" width="13.57145" x="3965.2036499999986" y="146.72897" /><text fill="black" x="3965.2036499999986" y="173.27103">E113</text><rect fill="rgb(255,72,92)" height="8.411209999999999" stroke="rgb(0,0,0)" width="15.0" x="3998.7750999999985" y="145.794395" /><text fill="black" x="3998.7750999999985" y="174.205605">H114</text><rect fill="rgb(255,72,92)" height="2.80374" stroke="rgb(0,0,0)" width="15.0" x="4033.7750999999985" y="148.59813" /><text fill="black" x="4033.7750999999985" y="171.40187">H115</text><rect fill="rgb(128,101,255)" height="3.73832" stroke="rgb(0,0,0)" width="26.25" x="4068.7750999999985" y="148.13084" /><text fill="black" x="4068.7750999999985" y="171.86916">H116</text><rect fill="rgb(179,140,255)" height="42.0561" stroke="rgb(0,0,0)" width="15.222199999999999" x="4115.025099999999" y="128.97195" /><text fill="black" x="4115.025099999999" y="191.02805">H117</text><rect fill="rgb(31,24,255)" height="2.80374" stroke="rgb(0,0,0)" width="5.0" x="4150.247299999999" y="148.59813" /><text fill="black" x="4150.247299999999" y="171.40187">E118</text><rect fill="rgb(255,102,131)" height="94.3925" stroke="rgb(0,0,0)" width="69.703" x="4175.247299999999" y="102.80375000000001" /><text fill="black" x="4175.247299999999" y="217.19625">E119</text><rect fill="rgb(255,23,29)" height="7.47664" stroke="rgb(0,0,0)" width="16.875" x="4264.950299999999" y="146.26168" /><text fill="black" x="4264.950299999999" y="173.73832">H120</text><rect fill="rgb(255,191,243)" height="100.0" stroke="rgb(0,0,0)" width="52.897" x="4301.825299999999" y="100.0" /><text fill="black" x="4301.825299999999" y="220.0">E121</text><rect fill="rgb(255,199,254)" height="33.6449" stroke="rgb(0,0,0)" width="5.0" x="4374.7222999999985" y="58.17755" /><text fill="black" x="4374.7222999999985" y="111.82245">E122</text><rect fill="rgb(255,36,46)" height="2.80374" stroke="rgb(0,0,0)" width="15.0" x="4374.7222999999985" y="223.59813" /><text fill="black" x="4374.7222999999985" y="246.40187">H123</text><rect fill="rgb(255,151,192)" height="23.3645" stroke="rgb(0,0,0)" width="23.599999999999998" x="4409.7222999999985" y="138.31775" /><text fill="black" x="4409.7222999999985" y="181.68225">H124</text><rect fill="rgb(0,0,255)" height="2.80374" stroke="rgb(0,0,0)" width="5.0" x="4453.322299999999" y="148.59813" /><text fill="black" x="4453.322299999999" y="171.40187">E125</text><rect fill="rgb(255,121,155)" height="100.0" stroke="rgb(0,0,0)" width="56.075" x="4478.322299999999" y="100.0" /><text fill="black" x="4478.322299999999" y="220.0">E126</text><rect fill="rgb(255,122,156)" height="2.80374" stroke="rgb(0,0,0)" width="18.33335" x="4554.397299999999" y="148.59813" /><text fill="black" x="4554.397299999999" y="171.40187">H127</text><rect fill="rgb(0,0,255)" height="0.0" stroke="rgb(0,0,0)" width="0.0" x="4592.730649999999" y="150.0" /><text fill="black" x="4592.730649999999" y="170.0">X128</text><rect fill="rgb(0,0,255)" height="0.0" stroke="rgb(0,0,0)" width="0.0" x="4612.730649999999" y="150.0" /><text fill="black" x="4612.730649999999" y="170.0">X129</text><rect fill="rgb(0,0,255)" height="0.0" stroke="rgb(0,0,0)" width="0.0" x="4632.730649999999" y="150.0" /><text fill="black" x="4632.730649999999" y="170.0">X130</text><rect fill="rgb(0,0,255)" height="0.0" stroke="rgb(0,0,0)" width="0.0" x="4652.730649999999" y="150.0" /><text fill="black" x="4652.730649999999" y="170.0">X131</text><rect fill="rgb(255,33,42)" height="10.2804" stroke="rgb(0,0,0)" width="52.727500000000006" x="4672.730649999999" y="144.8598" /><text fill="black" x="4672.730649999999" y="175.1402">E132</text><rect fill="rgb(0,0,255)" height="0.9345789999999999" stroke="rgb(0,0,0)" width="15.0" x="4745.458149999999" y="149.5327105" /><text fill="black" x="4745.458149999999" y="170.4672895">H133</text><rect fill="rgb(0,0,255)" height="0.0" stroke="rgb(0,0,0)" width="0.0" x="4780.458149999999" y="150.0" /><text fill="black" x="4780.458149999999" y="170.0">X134</text><rect fill="rgb(255,33,42)" height="10.2804" stroke="rgb(0,0,0)" width="65.0" x="4800.458149999999" y="144.8598" /><text fill="black" x="4800.458149999999" y="175.1402">E135</text><path d="M 116.0,225.0 a 478.9650781415817,478.9650781415817 0 0,0 -101.0,-150.0" stroke="rgb(75,59,255)" stroke-width="2" /><path d="M 116.0,225.0 a 478.9650781415817,478.9650781415817 0 0,0 -101.0,-150.0" stroke="rgb(0,0,0)" stroke-width="0.2" /><path d="M 265.28385,150.0 a 437.31496849684567,437.31496849684567 0 0,0 -149.28384999999997,75.0" stroke="rgb(144,113,255)" stroke-width="2" /><path d="M 265.28385,150.0 a 437.31496849684567,437.31496849684567 0 0,0 -149.28384999999997,75.0" stroke="rgb(0,0,0)" stroke-width="0.2" /><path d="M 362.02004999999997,150.0 a 237.91114128546144,237.91114128546144 0 0,0 -96.7362,-0.0" stroke="rgb(255,96,122)" stroke-width="2" /><path d="M 362.02004999999997,150.0 a 237.91114128546144,237.91114128546144 0 0,0 -96.7362,-0.0" stroke="rgb(0,0,0)" stroke-width="0.2" /><path d="M 407.67794999999995,150.0 a 364.82769931950196,364.82769931950196 0 0,0 -142.39409999999998,-0.0" stroke="rgb(255,96,122)" stroke-width="2" /><path d="M 407.67794999999995,150.0 a 364.82769931950196,364.82769931950196 0 0,0 -142.39409999999998,-0.0" stroke="rgb(0,0,0)" stroke-width="0.2" /><path d="M 663.5976,150.0 a 1250.3630026333014,1250.3630026333014 0 0,0 -398.3137500000001,-0.0" stroke="rgb(255,96,122)" stroke-width="2" /><path d="M 663.5976,150.0 a 1250.3630026333014,1250.3630026333014 0 0,0 -398.3137500000001,-0.0" stroke="rgb(0,0,0)" stroke-width="0.2" /><path d="M 4506.359799999999,150.0 a 50290.3676242206,50290.3676242206 0 0,0 -4241.0759499999995,-0.0" stroke="rgb(255,96,122)" stroke-width="2" /><path d="M 4506.359799999999,150.0 a 50290.3676242206,50290.3676242206 0 0,0 -4241.0759499999995,-0.0" stroke="rgb(0,0,0)" stroke-width="0.2" /><path d="M 524.76435,150.0 a 293.3192512035204,293.3192512035204 0 0,0 -117.08640000000008,-0.0" stroke="rgb(255,13,17)" stroke-width="2" /><path d="M 524.76435,150.0 a 293.3192512035204,293.3192512035204 0 0,0 -117.08640000000008,-0.0" stroke="rgb(0,0,0)" stroke-width="0.2" /><path d="M 606.19285,150.0 a 57.45469495853542,57.45469495853542 0 0,0 -25.0,-0.0" stroke="rgb(123,96,255)" stroke-width="2" /><path d="M 606.19285,150.0 a 57.45469495853542,57.45469495853542 0 0,0 -25.0,-0.0" stroke="rgb(0,0,0)" stroke-width="0.2" /><path d="M 2680.4487999999997,150.0 a 14681.836640692452,14681.836640692452 0 0,0 -2099.2559499999998,-0.0" stroke="rgb(123,96,255)" stroke-width="2" /><path d="M 2680.4487999999997,150.0 a 14681.836640692452,14681.836640692452 0 0,0 -2099.2559499999998,-0.0" stroke="rgb(0,0,0)" stroke-width="0.2" /><path d="M 581.19285,150.0 a 32789.91951197112,32789.91951197112 0 0,0 3796.0294499999986,-75.0" stroke="rgb(123,96,255)" stroke-width="2" /><path d="M 581.19285,150.0 a 32789.91951197112,32789.91951197112 0 0,0 3796.0294499999986,-75.0" stroke="rgb(0,0,0)" stroke-width="0.2" /><path d="M 782.3466,150.0 a 297.9284735181574,297.9284735181574 0 0,0 -118.74899999999991,-0.0" stroke="rgb(255,37,47)" stroke-width="2" /><path d="M 782.3466,150.0 a 297.9284735181574,297.9284735181574 0 0,0 -118.74899999999991,-0.0" stroke="rgb(0,0,0)" stroke-width="0.2" /><path d="M 663.5976,150.0 a 148.34828851264194,148.34828851264194 0 0,0 230.5932499999999,-0.0" stroke="rgb(255,37,47)" stroke-width="2" /><path d="M 663.5976,150.0 a 148.34828851264194,148.34828851264194 0 0,0 230.5932499999999,-0.0" stroke="rgb(0,0,0)" stroke-width="0.2" /><path d="M 2618.782125,150.0 a 13034.890260106833,13034.890260106833 0 0,0 -1955.1845250000001,-0.0" stroke="rgb(255,37,47)" stroke-width="2" /><path d="M 2618.782125,150.0 a 13034.890260106833,13034.890260106833 0 0,0 -1955.1845250000001,-0.0" stroke="rgb(0,0,0)" stroke-width="0.2" /><path d="M 1085.07185,150.0 a 884.9853251888219,884.9853251888219 0 0,0 -302.7252500000001,-0.0" stroke="rgb(255,106,136)" stroke-width="2" /><path d="M 1085.07185,150.0 a 884.9853251888219,884.9853251888219 0 0,0 -302.7252500000001,-0.0" stroke="rgb(0,0,0)" stroke-width="0.2" /><path d="M 1133.4831000000001,150.0 a 1064.8682279340253,1064.8682279340253 0 0,0 -351.1365000000002,-0.0" stroke="rgb(255,106,136)" stroke-width="2" /><path d="M 1133.4831000000001,150.0 a 1064.8682279340253,1064.8682279340253 0 0,0 -351.1365000000002,-0.0" stroke="rgb(0,0,0)" stroke-width="0.2" /><path d="M 980.3813500000001,150.0 a 377.25401456096375,377.25401456096375 0 0,0 -146.69050000000016,-0.0" stroke="rgb(0,0,255)" stroke-width="2" /><path d="M 980.3813500000001,150.0 a 377.25401456096375,377.25401456096375 0 0,0 -146.69050000000016,-0.0" stroke="rgb(0,0,0)" stroke-width="0.2" /><path d="M 980.3813500000001,150.0 a 144.55300081564138,144.55300081564138 0 0,0 -60.7738250000001,-0.0" stroke="rgb(224,175,255)" stroke-width="2" /><path d="M 980.3813500000001,150.0 a 144.55300081564138,144.55300081564138 0 0,0 -60.7738250000001,-0.0" stroke="rgb(0,0,0)" stroke-width="0.2" /><path d="M 1280.165375,150.0 a 377.2301462185479,377.2301462185479 0 0,0 -146.6822749999999,-0.0" stroke="rgb(255,85,108)" stroke-width="2" /><path d="M 1280.165375,150.0 a 377.2301462185479,377.2301462185479 0 0,0 -146.6822749999999,-0.0" stroke="rgb(0,0,0)" stroke-width="0.2" /><path d="M 1216.89435,150.0 a 514.7420494482046,514.7420494482046 0 0,0 463.01890000000003,-0.0" stroke="rgb(0,0,255)" stroke-width="2" /><path d="M 1216.89435,150.0 a 514.7420494482046,514.7420494482046 0 0,0 463.01890000000003,-0.0" stroke="rgb(0,0,0)" stroke-width="0.2" /><path d="M 1679.91325,150.0 a 1256.1594898121919,1256.1594898121919 0 0,0 -399.747875,-0.0" stroke="rgb(255,189,241)" stroke-width="2" /><path d="M 1679.91325,150.0 a 1256.1594898121919,1256.1594898121919 0 0,0 -399.747875,-0.0" stroke="rgb(0,0,0)" stroke-width="0.2" /><path d="M 1632.9422249999998,150.0 a 902.1122762926796,902.1122762926796 0 0,0 -307.46037499999966,-0.0" stroke="rgb(255,121,155)" stroke-width="2" /><path d="M 1632.9422249999998,150.0 a 902.1122762926796,902.1122762926796 0 0,0 -307.46037499999966,-0.0" stroke="rgb(0,0,0)" stroke-width="0.2" /><path d="M 1411.9525999999998,150.0 a 138.49185081281954,138.49185081281954 0 0,0 220.98962499999993,-0.0" stroke="rgb(0,0,255)" stroke-width="2" /><path d="M 1411.9525999999998,150.0 a 138.49185081281954,138.49185081281954 0 0,0 220.98962499999993,-0.0" stroke="rgb(0,0,0)" stroke-width="0.2" /><path d="M 1632.9422249999998,150.0 a 108.93588289762376,108.93588289762376 0 0,0 -46.42857499999991,-0.0" stroke="rgb(1,1,255)" stroke-width="2" /><path d="M 1632.9422249999998,150.0 a 108.93588289762376,108.93588289762376 0 0,0 -46.42857499999991,-0.0" stroke="rgb(0,0,0)" stroke-width="0.2" /><path d="M 3468.4948749999994,150.0 a 11738.988603570055,11738.988603570055 0 0,0 -1835.5526499999996,-0.0" stroke="rgb(255,31,40)" stroke-width="2" /><path d="M 3468.4948749999994,150.0 a 11738.988603570055,11738.988603570055 0 0,0 -1835.5526499999996,-0.0" stroke="rgb(0,0,0)" stroke-width="0.2" /><path d="M 1945.05475,150.0 a 752.6386360683791,752.6386360683791 0 0,0 -265.14149999999995,-0.0" stroke="rgb(255,175,224)" stroke-width="2" /><path d="M 1945.05475,150.0 a 752.6386360683791,752.6386360683791 0 0,0 -265.14149999999995,-0.0" stroke="rgb(0,0,0)" stroke-width="0.2" /><path d="M 1945.05475,150.0 a 104.45996305003551,104.45996305003551 0 0,0 -44.599050000000034,-0.0" stroke="rgb(32,25,255)" stroke-width="2" /><path d="M 1945.05475,150.0 a 104.45996305003551,104.45996305003551 0 0,0 -44.599050000000034,-0.0" stroke="rgb(0,0,0)" stroke-width="0.2" /><path d="M 2319.44475,150.0 a 1155.0396808265002,1155.0396808265002 0 0,0 -374.3900000000001,-0.0" stroke="rgb(231,181,255)" stroke-width="2" /><path d="M 2319.44475,150.0 a 1155.0396808265002,1155.0396808265002 0 0,0 -374.3900000000001,-0.0" stroke="rgb(0,0,0)" stroke-width="0.2" /><path d="M 2151.0631000000003,150.0 a 468.2725879220375,468.2725879220375 0 0,0 -160.68465000000015,75.0" stroke="rgb(255,118,150)" stroke-width="2" /><path d="M 2151.0631000000003,150.0 a 468.2725879220375,468.2725879220375 0 0,0 -160.68465000000015,75.0" stroke="rgb(0,0,0)" stroke-width="0.2" /><path d="M 2477.64575,75.0 a 1728.8873390561903,1728.8873390561903 0 0,0 -487.2673,150.0" stroke="rgb(255,118,150)" stroke-width="2" /><path d="M 2477.64575,75.0 a 1728.8873390561903,1728.8873390561903 0 0,0 -487.2673,150.0" stroke="rgb(0,0,0)" stroke-width="0.2" /><path d="M 3440.9353499999997,150.0 a 8026.922345980846,8026.922345980846 0 0,0 -1450.5568999999996,75.0" stroke="rgb(255,118,150)" stroke-width="2" /><path d="M 3440.9353499999997,150.0 a 8026.922345980846,8026.922345980846 0 0,0 -1450.5568999999996,75.0" stroke="rgb(0,0,0)" stroke-width="0.2" /><path d="M 2029.6538,150.0 a 35.96837053346026,35.96837053346026 0 0,0 61.04165000000012,-0.0" stroke="rgb(8,6,255)" stroke-width="2" /><path d="M 2029.6538,150.0 a 35.96837053346026,35.96837053346026 0 0,0 61.04165000000012,-0.0" stroke="rgb(0,0,0)" stroke-width="0.2" /><path d="M 2263.93075,150.0 a 142.6080982832409,142.6080982832409 0 0,0 -60.0,-0.0" stroke="rgb(0,0,255)" stroke-width="2" /><path d="M 2263.93075,150.0 a 142.6080982832409,142.6080982832409 0 0,0 -60.0,-0.0" stroke="rgb(0,0,0)" stroke-width="0.2" /><path d="M 2427.55225,150.0 a 268.6422399178059,268.6422399178059 0 0,0 -108.10750000000007,-0.0" stroke="rgb(170,133,255)" stroke-width="2" /><path d="M 2427.55225,150.0 a 268.6422399178059,268.6422399178059 0 0,0 -108.10750000000007,-0.0" stroke="rgb(0,0,0)" stroke-width="0.2" /><path d="M 2789.0344,150.0 a 1104.6841567735573,1104.6841567735573 0 0,0 -361.4821499999998,-0.0" stroke="rgb(190,149,255)" stroke-width="2" /><path d="M 2789.0344,150.0 a 1104.6841567735573,1104.6841567735573 0 0,0 -361.4821499999998,-0.0" stroke="rgb(0,0,0)" stroke-width="0.2" /><path d="M 2732.78215,150.0 a 572.1379043619106,572.1379043619106 0 0,0 -210.66669999999976,-0.0" stroke="rgb(255,59,76)" stroke-width="2" /><path d="M 2732.78215,150.0 a 572.1379043619106,572.1379043619106 0 0,0 -210.66669999999976,-0.0" stroke="rgb(0,0,0)" stroke-width="0.2" /><path d="M 2705.6154749999996,150.0 a 400.78871020153844,400.78871020153844 0 0,0 -154.75002499999937,-0.0" stroke="rgb(255,176,224)" stroke-width="2" /><path d="M 2705.6154749999996,150.0 a 400.78871020153844,400.78871020153844 0 0,0 -154.75002499999937,-0.0" stroke="rgb(0,0,0)" stroke-width="0.2" /><path d="M 2705.6154749999996,150.0 a 444.89669405777795,444.89669405777795 0 0,0 428.5493499999998,-0.0" stroke="rgb(101,79,255)" stroke-width="2" /><path d="M 2705.6154749999996,150.0 a 444.89669405777795,444.89669405777795 0 0,0 428.5493499999998,-0.0" stroke="rgb(0,0,0)" stroke-width="0.2" /><path d="M 2904.66515,150.0 a 289.29397844092114,289.29397844092114 0 0,0 -115.63074999999981,-0.0" stroke="rgb(255,191,244)" stroke-width="2" /><path d="M 2904.66515,150.0 a 289.29397844092114,289.29397844092114 0 0,0 -115.63074999999981,-0.0" stroke="rgb(0,0,0)" stroke-width="0.2" /><path d="M 3192.4467499999996,150.0 a 831.5986625799054,831.5986625799054 0 0,0 -287.7815999999998,-0.0" stroke="rgb(242,190,255)" stroke-width="2" /><path d="M 3192.4467499999996,150.0 a 831.5986625799054,831.5986625799054 0 0,0 -287.7815999999998,-0.0" stroke="rgb(0,0,0)" stroke-width="0.2" /><path d="M 3134.1648249999994,150.0 a 178.03220617682013,178.03220617682013 0 0,0 -73.93032499999936,-0.0" stroke="rgb(157,123,255)" stroke-width="2" /><path d="M 3134.1648249999994,150.0 a 178.03220617682013,178.03220617682013 0 0,0 -73.93032499999936,-0.0" stroke="rgb(0,0,0)" stroke-width="0.2" /><path d="M 3389.6674999999996,150.0 a 529.6464867900154,529.6464867900154 0 0,0 -197.22074999999995,-0.0" stroke="rgb(255,187,239)" stroke-width="2" /><path d="M 3389.6674999999996,150.0 a 529.6464867900154,529.6464867900154 0 0,0 -197.22074999999995,-0.0" stroke="rgb(0,0,0)" stroke-width="0.2" /><path d="M 3854.356949999999,150.0 a 2472.231452545104,2472.231452545104 0 0,0 -661.9101999999993,-0.0" stroke="rgb(255,187,239)" stroke-width="2" /><path d="M 3854.356949999999,150.0 a 2472.231452545104,2472.231452545104 0 0,0 -661.9101999999993,-0.0" stroke="rgb(0,0,0)" stroke-width="0.2" /><path d="M 3627.411549999999,150.0 a 660.1830946997233,660.1830946997233 0 0,0 -237.74404999999933,-0.0" stroke="rgb(200,157,255)" stroke-width="2" /><path d="M 3627.411549999999,150.0 a 660.1830946997233,660.1830946997233 0 0,0 -237.74404999999933,-0.0" stroke="rgb(0,0,0)" stroke-width="0.2" /><path d="M 3555.161549999999,150.0 a 57.45469495853542,57.45469495853542 0 0,0 -25.0,-0.0" stroke="rgb(118,92,255)" stroke-width="2" /><path d="M 3555.161549999999,150.0 a 57.45469495853542,57.45469495853542 0 0,0 -25.0,-0.0" stroke="rgb(0,0,0)" stroke-width="0.2" /><path d="M 3940.011349999999,150.0 a 1098.369784190824,1098.369784190824 0 0,0 -359.84979999999996,-0.0" stroke="rgb(146,114,255)" stroke-width="2" /><path d="M 3940.011349999999,150.0 a 1098.369784190824,1098.369784190824 0 0,0 -359.84979999999996,-0.0" stroke="rgb(0,0,0)" stroke-width="0.2" /><path d="M 3753.828199999999,150.0 a 176.49616248822454,176.49616248822454 0 0,0 -73.33332500000006,-0.0" stroke="rgb(127,99,255)" stroke-width="2" /><path d="M 3753.828199999999,150.0 a 176.49616248822454,176.49616248822454 0 0,0 -73.33332500000006,-0.0" stroke="rgb(0,0,0)" stroke-width="0.2" /><path d="M 4210.098799999999,150.0 a 1082.5324455471066,1082.5324455471066 0 0,0 -355.7418499999999,-0.0" stroke="rgb(255,120,153)" stroke-width="2" /><path d="M 4210.098799999999,150.0 a 1082.5324455471066,1082.5324455471066 0 0,0 -355.7418499999999,-0.0" stroke="rgb(0,0,0)" stroke-width="0.2" /><path d="M 3940.011349999999,150.0 a 67.7597800757299,67.7597800757299 0 0,0 -29.3589750000001,-0.0" stroke="rgb(138,108,255)" stroke-width="2" /><path d="M 3940.011349999999,150.0 a 67.7597800757299,67.7597800757299 0 0,0 -29.3589750000001,-0.0" stroke="rgb(0,0,0)" stroke-width="0.2" /><path d="M 3971.9893749999987,150.0 a 73.99254612329227,73.99254612329227 0 0,0 -31.97802499999989,-0.0" stroke="rgb(255,91,116)" stroke-width="2" /><path d="M 3971.9893749999987,150.0 a 73.99254612329227,73.99254612329227 0 0,0 -31.97802499999989,-0.0" stroke="rgb(0,0,0)" stroke-width="0.2" /><path d="M 4377.2222999999985,75.0 a 656.6369919865274,656.6369919865274 0 0,0 -224.47499999999945,75.0" stroke="rgb(31,24,255)" stroke-width="2" /><path d="M 4377.2222999999985,75.0 a 656.6369919865274,656.6369919865274 0 0,0 -224.47499999999945,75.0" stroke="rgb(0,0,0)" stroke-width="0.2" /><path d="M 4328.273799999999,150.0 a 296.3357673062577,296.3357673062577 0 0,0 -118.17500000000018,-0.0" stroke="rgb(255,102,131)" stroke-width="2" /><path d="M 4328.273799999999,150.0 a 296.3357673062577,296.3357673062577 0 0,0 -118.17500000000018,-0.0" stroke="rgb(0,0,0)" stroke-width="0.2" /><path d="M 4506.359799999999,150.0 a 470.5839508955883,470.5839508955883 0 0,0 -178.08600000000024,-0.0" stroke="rgb(255,191,243)" stroke-width="2" /><path d="M 4506.359799999999,150.0 a 470.5839508955883,470.5839508955883 0 0,0 -178.08600000000024,-0.0" stroke="rgb(0,0,0)" stroke-width="0.2" /><path d="M 4455.822299999999,150.0 a 270.0995003647762,270.0995003647762 0 0,0 -78.60000000000036,-75.0" stroke="rgb(255,199,254)" stroke-width="2" /><path d="M 4455.822299999999,150.0 a 270.0995003647762,270.0995003647762 0 0,0 -78.60000000000036,-75.0" stroke="rgb(0,0,0)" stroke-width="0.2" /><path d="M 4699.094399999999,150.0 a 515.6510147542208,515.6510147542208 0 0,0 -192.73459999999977,-0.0" stroke="rgb(255,121,155)" stroke-width="2" /><path d="M 4699.094399999999,150.0 a 515.6510147542208,515.6510147542208 0 0,0 -192.73459999999977,-0.0" stroke="rgb(0,0,0)" stroke-width="0.2" /><path d="M 4832.958149999999,150.0 a 340.4022507828609,340.4022507828609 0 0,0 -133.86374999999953,-0.0" stroke="rgb(255,33,42)" stroke-width="2" /><path d="M 4832.958149999999,150.0 a 340.4022507828609,340.4022507828609 0 0,0 -133.86374999999953,-0.0" stroke="rgb(0,0,0)" stroke-width="0.2" /></svg>