<?xml version="1.0" encoding="utf-8" ?>
<svg baseProfile="full" height="100%" style="font-size:14;font-family:Sans, Arial;stroke-width:1;fill:none" version="1.1" width="100%" xmlns="http://www.w3.org/2000/svg" xmlns:ev="http://www.w3.org/2001/xml-events" xmlns:xlink="http://www.w3.org/1999/xlink"><defs /><rect fill="none" height="130.0" stroke="none" width="2414.3982" x="0" y="0" /><line stroke="rgb(0,0,0)" x1="5.0" x2="32.0" y1="55.0" y2="55.0" /><line stroke="rgb(0,0,0)" x1="32.0" x2="52.0" y1="55.0" y2="55.0" /><line stroke="rgb(0,0,0)" x1="52.0" x2="57.0" y1="55.0" y2="55.0" /><line stroke="rgb(0,0,0)" x1="57.0" x2="136.901" y1="55.0" y2="55.0" /><line stroke="rgb(0,0,0)" x1="136.901" x2="156.901" y1="55.0" y2="55.0" /><line stroke="rgb(0,0,0)" x1="156.901" x2="161.901" y1="55.0" y2="55.0" /><line stroke="rgb(0,0,0)" x1="161.901" x2="183.68670000000003" y1="55.0" y2="55.0" /><line stroke="rgb(0,0,0)" x1="183.68670000000003" x2="203.68670000000003" y1="55.0" y2="55.0" /><line stroke="rgb(0,0,0)" x1="203.68670000000003" x2="208.68670000000003" y1="55.0" y2="55.0" /><line stroke="rgb(0,0,0)" x1="208.68670000000003" x2="218.68670000000003" y1="55.0" y2="55.0" /><line stroke="rgb(0,0,0)" x1="218.68670000000003" x2="238.68670000000003" y1="55.0" y2="55.0" /><line stroke="rgb(0,0,0)" x1="238.68670000000003" x2="243.68670000000003" y1="55.0" y2="55.0" /><line stroke="rgb(0,0,0)" x1="243.68670000000003" x2="318.49620000000004" y1="55.0" y2="55.0" /><line stroke="rgb(0,0,0)" x1="318.49620000000004" x2="338.49620000000004" y1="55.0" y2="55.0" /><line stroke="rgb(0,0,0)" x1="338.49620000000004" x2="343.49620000000004" y1="55.0" y2="55.0" /><line stroke="rgb(0,0,0)" x1="343.49620000000004" x2="406.1847" y1="55.0" y2="55.0" /><line stroke="rgb(0,0,0)" x1="406.1847" x2="426.1847" y1="55.0" y2="55.0" /><line stroke="rgb(0,0,0)" x1="426.1847" x2="431.1847" y1="55.0" y2="55.0" /><line stroke="rgb(0,0,0)" x1="431.1847" x2="488.0072" y1="55.0" y2="55.0" /><line stroke="rgb(0,0,0)" x1="488.0072" x2="508.0072" y1="55.0" y2="55.0" /><line stroke="rgb(0,0,0)" x1="508.0072" x2="513.0072" y1="55.0" y2="55.0" /><line stroke="rgb(0,0,0)" x1="513.0072" x2="533.0072" y1="55.0" y2="55.0" /><line stroke="rgb(0,0,0)" x1="533.0072" x2="553.0072" y1="55.0" y2="55.0" /><line stroke="rgb(0,0,0)" x1="553.0072" x2="558.0072" y1="55.0" y2="55.0" /><line stroke="rgb(0,0,0)" x1="558.0072" x2="604.5492499999999" y1="55.0" y2="55.0" /><line stroke="rgb(0,0,0)" x1="604.5492499999999" x2="624.5492499999999" y1="55.0" y2="55.0" /><line stroke="rgb(0,0,0)" x1="624.5492499999999" x2="629.5492499999999" y1="55.0" y2="55.0" /><line stroke="rgb(0,0,0)" x1="629.5492499999999" x2="643.64015" y1="55.0" y2="55.0" /><line stroke="rgb(0,0,0)" x1="643.64015" x2="663.64015" y1="55.0" y2="55.0" /><line stroke="rgb(0,0,0)" x1="663.64015" x2="668.64015" y1="55.0" y2="55.0" /><line stroke="rgb(0,0,0)" x1="668.64015" x2="713.06545" y1="55.0" y2="55.0" /><line stroke="rgb(0,0,0)" x1="713.06545" x2="733.06545" y1="55.0" y2="55.0" /><line stroke="rgb(0,0,0)" x1="733.06545" x2="738.06545" y1="55.0" y2="55.0" /><line stroke="rgb(0,0,0)" x1="738.06545" x2="762.2515" y1="55.0" y2="55.0" /><line stroke="rgb(0,0,0)" x1="762.2515" x2="782.2515" y1="55.0" y2="55.0" /><line stroke="rgb(0,0,0)" x1="782.2515" x2="787.2515" y1="55.0" y2="55.0" /><line stroke="rgb(0,0,0)" x1="787.2515" x2="807.6265" y1="55.0" y2="55.0" /><line stroke="rgb(0,0,0)" x1="807.6265" x2="827.6265" y1="55.0" y2="55.0" /><line stroke="rgb(0,0,0)" x1="827.6265" x2="832.6265" y1="55.0" y2="55.0" /><line stroke="rgb(0,0,0)" x1="832.6265" x2="845.4836499999999" y1="55.0" y2="55.0" /><line stroke="rgb(0,0,0)" x1="845.4836499999999" x2="865.4836499999999" y1="55.0" y2="55.0" /><line stroke="rgb(0,0,0)" x1="865.4836499999999" x2="870.4836499999999" y1="55.0" y2="55.0" /><line stroke="rgb(0,0,0)" x1="870.4836499999999" x2="921.56855" y1="55.0" y2="55.0" /><line stroke="rgb(0,0,0)" x1="921.56855" x2="941.56855" y1="55.0" y2="55.0" /><line stroke="rgb(0,0,0)" x1="941.56855" x2="946.56855" y1="55.0" y2="55.0" /><line stroke="rgb(0,0,0)" x1="946.56855" x2="966.56855" y1="55.0" y2="55.0" /><line stroke="rgb(0,0,0)" x1="966.56855" x2="986.56855" y1="55.0" y2="55.0" /><line stroke="rgb(0,0,0)" x1="986.56855" x2="991.56855" y1="55.0" y2="55.0" /><line stroke="rgb(0,0,0)" x1="991.56855" x2="1040.76665" y1="55.0" y2="55.0" /><line stroke="rgb(0,0,0)" x1="1040.76665" x2="1060.76665" y1="55.0" y2="55.0" /><line stroke="rgb(0,0,0)" x1="1060.76665" x2="1065.76665" y1="55.0" y2="55.0" /><line stroke="rgb(0,0,0)" x1="1065.76665" x2="1077.21595" y1="55.0" y2="55.0" /><line stroke="rgb(0,0,0)" x1="1077.21595" x2="1097.21595" y1="55.0" y2="55.0" /><line stroke="rgb(0,0,0)" x1="1097.21595" x2="1102.21595" y1="55.0" y2="55.0" /><line stroke="rgb(0,0,0)" x1="1102.21595" x2="1123.2576" y1="55.0" y2="55.0" /><line stroke="rgb(0,0,0)" x1="1123.2576" x2="1143.2576" y1="55.0" y2="55.0" /><line stroke="rgb(0,0,0)" x1="1143.2576" x2="1148.2576" y1="55.0" y2="55.0" /><line stroke="rgb(0,0,0)" x1="1148.2576" x2="1168.2576" y1="55.0" y2="55.0" /><line stroke="rgb(0,0,0)" x1="1168.2576" x2="1188.2576" y1="55.0" y2="55.0" /><line stroke="rgb(0,0,0)" x1="1188.2576" x2="1193.2576" y1="55.0" y2="55.0" /><line stroke="rgb(0,0,0)" x1="1193.2576" x2="1203.9929" y1="55.0" y2="55.0" /><line stroke="rgb(0,0,0)" x1="1203.9929" x2="1223.9929" y1="55.0" y2="55.0" /><line stroke="rgb(0,0,0)" x1="1223.9929" x2="1228.9929" y1="55.0" y2="55.0" /><line stroke="rgb(0,0,0)" x1="1228.9929" x2="1285.0209" y1="55.0" y2="55.0" /><line stroke="rgb(0,0,0)" x1="1285.0209" x2="1305.0209" y1="55.0" y2="55.0" /><line stroke="rgb(0,0,0)" x1="1305.0209" x2="1310.0209" y1="55.0" y2="55.0" /><line stroke="rgb(0,0,0)" x1="1310.0209" x2="1370.2079" y1="55.0" y2="55.0" /><line stroke="rgb(0,0,0)" x1="1370.2079" x2="1390.2079" y1="55.0" y2="55.0" /><line stroke="rgb(0,0,0)" x1="1390.2079" x2="1395.2079" y1="55.0" y2="55.0" /><line stroke="rgb(0,0,0)" x1="1395.2079" x2="1422.1776" y1="55.0" y2="55.0" /><line stroke="rgb(0,0,0)" x1="1422.1776" x2="1442.1776" y1="55.0" y2="55.0" /><line stroke="rgb(0,0,0)" x1="1442.1776" x2="1447.1776" y1="55.0" y2="55.0" /><line stroke="rgb(0,0,0)" x1="1447.1776" x2="1457.5109499999999" y1="55.0" y2="55.0" /><line stroke="rgb(0,0,0)" x1="1457.5109499999999" x2="1477.5109499999999" y1="55.0" y2="55.0" /><line stroke="rgb(0,0,0)" x1="1477.5109499999999" x2="1482.5109499999999" y1="55.0" y2="55.0" /><line stroke="rgb(0,0,0)" x1="1482.5109499999999" x2="1551.0154499999999" y1="55.0" y2="55.0" /><line stroke="rgb(0,0,0)" x1="1551.0154499999999" x2="1571.0154499999999" y1="55.0" y2="55.0" /><line stroke="rgb(0,0,0)" x1="1571.0154499999999" x2="1576.0154499999999" y1="55.0" y2="55.0" /><line stroke="rgb(0,0,0)" x1="1576.0154499999999" x2="1638.77245" y1="55.0" y2="55.0" /><line stroke="rgb(0,0,0)" x1="1638.77245" x2="1658.77245" y1="55.0" y2="55.0" /><line stroke="rgb(0,0,0)" x1="1658.77245" x2="1663.77245" y1="55.0" y2="55.0" /><line stroke="rgb(0,0,0)" x1="1663.77245" x2="1686.59855" y1="55.0" y2="55.0" /><line stroke="rgb(0,0,0)" x1="1686.59855" x2="1706.59855" y1="55.0" y2="55.0" /><line stroke="rgb(0,0,0)" x1="1706.59855" x2="1711.59855" y1="55.0" y2="55.0" /><line stroke="rgb(0,0,0)" x1="1711.59855" x2="1732.67965" y1="55.0" y2="55.0" /><line stroke="rgb(0,0,0)" x1="1732.67965" x2="1752.67965" y1="55.0" y2="55.0" /><line stroke="rgb(0,0,0)" x1="1752.67965" x2="1757.67965" y1="55.0" y2="55.0" /><line stroke="rgb(0,0,0)" x1="1757.67965" x2="1780.5520000000001" y1="55.0" y2="55.0" /><line stroke="rgb(0,0,0)" x1="1780.5520000000001" x2="1800.5520000000001" y1="55.0" y2="55.0" /><line stroke="rgb(0,0,0)" x1="1800.5520000000001" x2="1805.5520000000001" y1="55.0" y2="55.0" /><line stroke="rgb(0,0,0)" x1="1805.5520000000001" x2="1869.2435" y1="55.0" y2="55.0" /><line stroke="rgb(0,0,0)" x1="1869.2435" x2="1889.2435" y1="55.0" y2="55.0" /><line stroke="rgb(0,0,0)" x1="1889.2435" x2="1894.2435" y1="55.0" y2="55.0" /><line stroke="rgb(0,0,0)" x1="1894.2435" x2="1917.6435000000001" y1="55.0" y2="55.0" /><line stroke="rgb(0,0,0)" x1="1917.6435000000001" x2="1937.6435000000001" y1="55.0" y2="55.0" /><line stroke="rgb(0,0,0)" x1="1937.6435000000001" x2="1942.6435000000001" y1="55.0" y2="55.0" /><line stroke="rgb(0,0,0)" x1="1942.6435000000001" x2="2011.901" y1="55.0" y2="55.0" /><line stroke="rgb(0,0,0)" x1="2011.901" x2="2031.901" y1="55.0" y2="55.0" /><line stroke="rgb(0,0,0)" x1="2031.901" x2="2036.901" y1="55.0" y2="55.0" /><line stroke="rgb(0,0,0)" x1="2036.901" x2="2057.1232" y1="55.0" y2="55.0" /><line stroke="rgb(0,0,0)" x1="2057.1232" x2="2077.1232" y1="55.0" y2="55.0" /><line stroke="rgb(0,0,0)" x1="2077.1232" x2="2082.1232" y1="55.0" y2="55.0" /><line stroke="rgb(0,0,0)" x1="2082.1232" x2="2156.8262" y1="55.0" y2="55.0" /><line stroke="rgb(0,0,0)" x1="2156.8262" x2="2176.8262" y1="55.0" y2="55.0" /><line stroke="rgb(0,0,0)" x1="2176.8262" x2="2181.8262" y1="55.0" y2="55.0" /><line stroke="rgb(0,0,0)" x1="2181.8262" x2="2239.7232000000004" y1="55.0" y2="55.0" /><line stroke="rgb(0,0,0)" x1="2239.7232000000004" x2="2259.7232000000004" y1="55.0" y2="55.0" /><line stroke="rgb(0,0,0)" x1="2259.7232000000004" x2="2264.7232000000004" y1="55.0" y2="55.0" /><line stroke="rgb(0,0,0)" x1="2264.7232000000004" x2="2274.7232000000004" y1="55.0" y2="55.0" /><line stroke="rgb(0,0,0)" x1="2274.7232000000004" x2="2294.7232000000004" y1="55.0" y2="55.0" /><line stroke="rgb(0,0,0)" x1="2294.7232000000004" x2="2299.7232000000004" y1="55.0" y2="55.0" /><line stroke="rgb(0,0,0)" x1="2299.7232000000004" x2="2328.3232000000003" y1="55.0" y2="55.0" /><line stroke="rgb(0,0,0)" x1="2328.3232000000003" x2="2348.3232000000003" y1="55.0" y2="55.0" /><line stroke="rgb(0,0,0)" x1="2348.3232000000003" x2="2353.3232000000003" y1="55.0" y2="55.0" /><rect fill="rgb(255,150,150)" height="42.0561" stroke="rgb(0,0,0)" width="22.0" x="5.0" y="33.97195" /><text fill="black" x="5.0" y="96.02805000000001">E4</text><rect fill="rgb(255,150,150)" height="94.3925" stroke="rgb(0,0,0)" width="74.901" x="57.0" y="7.803750000000001" /><text fill="black" x="57.0" y="122.19624999999999">E7</text><rect fill="rgb(150,150,150)" height="26.168200000000002" stroke="rgb(0,0,0)" width="16.7857" x="161.901" y="41.9159" /><text fill="black" x="161.901" y="88.0841">H8</text><rect fill="rgb(150,255,255)" height="31.7757" stroke="rgb(0,0,0)" width="5.0" x="208.68670000000003" y="39.11215" /><text fill="black" x="208.68670000000003" y="90.88785">E14</text><rect fill="rgb(255,150,150)" height="98.1308" stroke="rgb(0,0,0)" width="69.8095" x="243.68670000000003" y="5.934600000000003" /><text fill="black" x="243.68670000000003" y="124.0654">E16</text><rect fill="rgb(255,150,150)" height="99.0654" stroke="rgb(0,0,0)" width="57.6885" x="343.49620000000004" y="5.467300000000002" /><text fill="black" x="343.49620000000004" y="124.5327">E18</text><rect fill="rgb(255,150,150)" height="100.0" stroke="rgb(0,0,0)" width="51.8225" x="431.1847" y="5.0" /><text fill="black" x="431.1847" y="125.0">E28</text><rect fill="rgb(150,150,150)" height="28.0374" stroke="rgb(0,0,0)" width="15.0" x="513.0072" y="40.9813" /><text fill="black" x="513.0072" y="89.0187">H30</text><rect fill="rgb(255,150,150)" height="100.0" stroke="rgb(0,0,0)" width="41.54205" x="558.0072" y="5.0" /><text fill="black" x="558.0072" y="125.0">E33</text><rect fill="rgb(255,150,255)" height="20.5607" stroke="rgb(0,0,0)" width="9.0909" x="629.5492499999999" y="44.71965" /><text fill="black" x="629.5492499999999" y="85.28035">E34</text><rect fill="rgb(150,150,150)" height="81.3084" stroke="rgb(0,0,0)" width="39.4253" x="668.64015" y="14.345799999999997" /><text fill="black" x="668.64015" y="115.6542">H35</text><rect fill="rgb(150,150,150)" height="40.186899999999994" stroke="rgb(0,0,0)" width="19.186049999999998" x="738.06545" y="34.90655" /><text fill="black" x="738.06545" y="95.09344999999999">H39</text><rect fill="rgb(150,150,150)" height="37.3832" stroke="rgb(0,0,0)" width="15.375" x="787.2515" y="36.3084" /><text fill="black" x="787.2515" y="93.6916">H40</text><rect fill="rgb(255,150,255)" height="32.7103" stroke="rgb(0,0,0)" width="7.857150000000001" x="832.6265" y="38.644850000000005" /><text fill="black" x="832.6265" y="91.35515">E43</text><rect fill="rgb(255,150,150)" height="99.0654" stroke="rgb(0,0,0)" width="46.0849" x="870.4836499999999" y="5.467300000000002" /><text fill="black" x="870.4836499999999" y="124.5327">E44</text><rect fill="rgb(150,150,150)" height="22.4299" stroke="rgb(0,0,0)" width="15.0" x="946.56855" y="43.78505" /><text fill="black" x="946.56855" y="86.21495">H51</text><rect fill="rgb(255,150,150)" height="99.0654" stroke="rgb(0,0,0)" width="44.1981" x="991.56855" y="5.467300000000002" /><text fill="black" x="991.56855" y="124.5327">E54</text><rect fill="rgb(150,255,150)" height="64.486" stroke="rgb(0,0,0)" width="6.4493" x="1065.76665" y="22.756999999999998" /><text fill="black" x="1065.76665" y="107.243">E56</text><rect fill="rgb(150,150,150)" height="22.4299" stroke="rgb(0,0,0)" width="16.04165" x="1102.21595" y="43.78505" /><text fill="black" x="1102.21595" y="86.21495">H58</text><rect fill="rgb(150,150,150)" height="54.2056" stroke="rgb(0,0,0)" width="15.0" x="1148.2576" y="27.8972" /><text fill="black" x="1148.2576" y="102.1028">H60</text><rect fill="rgb(150,255,150)" height="63.5514" stroke="rgb(0,0,0)" width="5.7353" x="1193.2576" y="23.2243" /><text fill="black" x="1193.2576" y="106.7757">E61</text><rect fill="rgb(255,150,150)" height="100.0" stroke="rgb(0,0,0)" width="51.028000000000006" x="1228.9929" y="5.0" /><text fill="black" x="1228.9929" y="125.0">E67</text><rect fill="rgb(255,150,150)" height="100.0" stroke="rgb(0,0,0)" width="55.187" x="1310.0209" y="5.0" /><text fill="black" x="1310.0209" y="125.0">E69</text><rect fill="rgb(150,150,150)" height="61.682199999999995" stroke="rgb(0,0,0)" width="21.9697" x="1395.2079" y="24.158900000000003" /><text fill="black" x="1395.2079" y="105.8411">H71</text><rect fill="rgb(150,150,255)" height="42.0561" stroke="rgb(0,0,0)" width="5.33335" x="1447.1776" y="33.97195" /><text fill="black" x="1447.1776" y="96.02805000000001">E78</text><rect fill="rgb(255,150,150)" height="100.0" stroke="rgb(0,0,0)" width="63.50450000000001" x="1482.5109499999999" y="5.0" /><text fill="black" x="1482.5109499999999" y="125.0">E80</text><rect fill="rgb(255,150,150)" height="100.0" stroke="rgb(0,0,0)" width="57.757" x="1576.0154499999999" y="5.0" /><text fill="black" x="1576.0154499999999" y="125.0">E82</text><rect fill="rgb(150,150,255)" height="42.9907" stroke="rgb(0,0,0)" width="17.8261" x="1663.77245" y="33.50465" /><text fill="black" x="1663.77245" y="96.49535">E88</text><rect fill="rgb(150,150,150)" height="34.5794" stroke="rgb(0,0,0)" width="16.0811" x="1711.59855" y="37.710300000000004" /><text fill="black" x="1711.59855" y="92.2897">H89</text><rect fill="rgb(150,150,255)" height="43.9252" stroke="rgb(0,0,0)" width="17.872349999999997" x="1757.67965" y="33.037400000000005" /><text fill="black" x="1757.67965" y="96.9626">E90</text><rect fill="rgb(255,150,150)" height="100.0" stroke="rgb(0,0,0)" width="58.691500000000005" x="1805.5520000000001" y="5.0" /><text fill="black" x="1805.5520000000001" y="125.0">E91</text><rect fill="rgb(150,150,150)" height="23.3645" stroke="rgb(0,0,0)" width="18.400000000000002" x="1894.2435" y="43.317750000000004" /><text fill="black" x="1894.2435" y="86.68225">H109</text><rect fill="rgb(255,150,150)" height="94.3925" stroke="rgb(0,0,0)" width="64.2575" x="1942.6435000000001" y="7.803750000000001" /><text fill="black" x="1942.6435000000001" y="122.19624999999999">E110</text><rect fill="rgb(150,150,150)" height="42.0561" stroke="rgb(0,0,0)" width="15.222199999999999" x="2036.901" y="33.97195" /><text fill="black" x="2036.901" y="96.02805000000001">H117</text><rect fill="rgb(255,150,150)" height="94.3925" stroke="rgb(0,0,0)" width="69.703" x="2082.1232" y="7.803750000000001" /><text fill="black" x="2082.1232" y="122.19624999999999">E119</text><rect fill="rgb(255,150,150)" height="100.0" stroke="rgb(0,0,0)" width="52.897" x="2181.8262" y="5.0" /><text fill="black" x="2181.8262" y="125.0">E121</text><rect fill="rgb(150,255,255)" height="33.6449" stroke="rgb(0,0,0)" width="5.0" x="2264.7232000000004" y="38.17755" /><text fill="black" x="2264.7232000000004" y="91.82245">E122</text><rect fill="rgb(150,150,150)" height="23.3645" stroke="rgb(0,0,0)" width="23.599999999999998" x="2299.7232000000004" y="43.317750000000004" /><text fill="black" x="2299.7232000000004" y="86.68225">H124</text><rect fill="rgb(255,150,150)" height="100.0" stroke="rgb(0,0,0)" width="56.075" x="2353.3232000000003" y="5.0" /><text fill="black" x="2353.3232000000003" y="125.0">E126</text></svg>