<?xml version="1.0" encoding="utf-8" ?>
<svg baseProfile="full" height="100%" style="font-size:14;font-family:Sans, Arial;stroke-width:1;fill:none" version="1.1" width="100%" xmlns="http://www.w3.org/2000/svg" xmlns:ev="http://www.w3.org/2001/xml-events" xmlns:xlink="http://www.w3.org/1999/xlink"><defs /><rect fill="none" height="130.0" stroke="none" width="2905.0" x="0" y="0" /><line stroke="rgb(0,0,0)" x1="5.0" x2="35.0" y1="55.0" y2="55.0" /><line stroke="rgb(0,0,0)" x1="35.0" x2="55.0" y1="55.0" y2="55.0" /><line stroke="rgb(0,0,0)" x1="55.0" x2="60.0" y1="55.0" y2="55.0" /><line stroke="rgb(0,0,0)" x1="60.0" x2="165.0" y1="55.0" y2="55.0" /><line stroke="rgb(0,0,0)" x1="165.0" x2="185.0" y1="55.0" y2="55.0" /><line stroke="rgb(0,0,0)" x1="185.0" x2="190.0" y1="55.0" y2="55.0" /><line stroke="rgb(0,0,0)" x1="190.0" x2="215.0" y1="55.0" y2="55.0" /><line stroke="rgb(0,0,0)" x1="215.0" x2="235.0" y1="55.0" y2="55.0" /><line stroke="rgb(0,0,0)" x1="235.0" x2="240.0" y1="55.0" y2="55.0" /><line stroke="rgb(0,0,0)" x1="240.0" x2="250.0" y1="55.0" y2="55.0" /><line stroke="rgb(0,0,0)" x1="250.0" x2="270.0" y1="55.0" y2="55.0" /><line stroke="rgb(0,0,0)" x1="270.0" x2="275.0" y1="55.0" y2="55.0" /><line stroke="rgb(0,0,0)" x1="275.0" x2="370.0" y1="55.0" y2="55.0" /><line stroke="rgb(0,0,0)" x1="370.0" x2="390.0" y1="55.0" y2="55.0" /><line stroke="rgb(0,0,0)" x1="390.0" x2="395.0" y1="55.0" y2="55.0" /><line stroke="rgb(0,0,0)" x1="395.0" x2="485.0" y1="55.0" y2="55.0" /><line stroke="rgb(0,0,0)" x1="485.0" x2="505.0" y1="55.0" y2="55.0" /><line stroke="rgb(0,0,0)" x1="505.0" x2="510.0" y1="55.0" y2="55.0" /><line stroke="rgb(0,0,0)" x1="510.0" x2="590.0" y1="55.0" y2="55.0" /><line stroke="rgb(0,0,0)" x1="590.0" x2="610.0" y1="55.0" y2="55.0" /><line stroke="rgb(0,0,0)" x1="610.0" x2="615.0" y1="55.0" y2="55.0" /><line stroke="rgb(0,0,0)" x1="615.0" x2="635.0" y1="55.0" y2="55.0" /><line stroke="rgb(0,0,0)" x1="635.0" x2="655.0" y1="55.0" y2="55.0" /><line stroke="rgb(0,0,0)" x1="655.0" x2="660.0" y1="55.0" y2="55.0" /><line stroke="rgb(0,0,0)" x1="660.0" x2="740.0" y1="55.0" y2="55.0" /><line stroke="rgb(0,0,0)" x1="740.0" x2="760.0" y1="55.0" y2="55.0" /><line stroke="rgb(0,0,0)" x1="760.0" x2="765.0" y1="55.0" y2="55.0" /><line stroke="rgb(0,0,0)" x1="765.0" x2="785.0" y1="55.0" y2="55.0" /><line stroke="rgb(0,0,0)" x1="785.0" x2="805.0" y1="55.0" y2="55.0" /><line stroke="rgb(0,0,0)" x1="805.0" x2="810.0" y1="55.0" y2="55.0" /><line stroke="rgb(0,0,0)" x1="810.0" x2="865.0" y1="55.0" y2="55.0" /><line stroke="rgb(0,0,0)" x1="865.0" x2="885.0" y1="55.0" y2="55.0" /><line stroke="rgb(0,0,0)" x1="885.0" x2="890.0" y1="55.0" y2="55.0" /><line stroke="rgb(0,0,0)" x1="890.0" x2="925.0" y1="55.0" y2="55.0" /><line stroke="rgb(0,0,0)" x1="925.0" x2="945.0" y1="55.0" y2="55.0" /><line stroke="rgb(0,0,0)" x1="945.0" x2="950.0" y1="55.0" y2="55.0" /><line stroke="rgb(0,0,0)" x1="950.0" x2="975.0" y1="55.0" y2="55.0" /><line stroke="rgb(0,0,0)" x1="975.0" x2="995.0" y1="55.0" y2="55.0" /><line stroke="rgb(0,0,0)" x1="995.0" x2="1000.0" y1="55.0" y2="55.0" /><line stroke="rgb(0,0,0)" x1="1000.0" x2="1020.0" y1="55.0" y2="55.0" /><line stroke="rgb(0,0,0)" x1="1020.0" x2="1040.0" y1="55.0" y2="55.0" /><line stroke="rgb(0,0,0)" x1="1040.0" x2="1045.0" y1="55.0" y2="55.0" /><line stroke="rgb(0,0,0)" x1="1045.0" x2="1110.0" y1="55.0" y2="55.0" /><line stroke="rgb(0,0,0)" x1="1110.0" x2="1130.0" y1="55.0" y2="55.0" /><line stroke="rgb(0,0,0)" x1="1130.0" x2="1135.0" y1="55.0" y2="55.0" /><line stroke="rgb(0,0,0)" x1="1135.0" x2="1155.0" y1="55.0" y2="55.0" /><line stroke="rgb(0,0,0)" x1="1155.0" x2="1175.0" y1="55.0" y2="55.0" /><line stroke="rgb(0,0,0)" x1="1175.0" x2="1180.0" y1="55.0" y2="55.0" /><line stroke="rgb(0,0,0)" x1="1180.0" x2="1245.0" y1="55.0" y2="55.0" /><line stroke="rgb(0,0,0)" x1="1245.0" x2="1265.0" y1="55.0" y2="55.0" /><line stroke="rgb(0,0,0)" x1="1265.0" x2="1270.0" y1="55.0" y2="55.0" /><line stroke="rgb(0,0,0)" x1="1270.0" x2="1290.0" y1="55.0" y2="55.0" /><line stroke="rgb(0,0,0)" x1="1290.0" x2="1310.0" y1="55.0" y2="55.0" /><line stroke="rgb(0,0,0)" x1="1310.0" x2="1315.0" y1="55.0" y2="55.0" /><line stroke="rgb(0,0,0)" x1="1315.0" x2="1340.0" y1="55.0" y2="55.0" /><line stroke="rgb(0,0,0)" x1="1340.0" x2="1360.0" y1="55.0" y2="55.0" /><line stroke="rgb(0,0,0)" x1="1360.0" x2="1365.0" y1="55.0" y2="55.0" /><line stroke="rgb(0,0,0)" x1="1365.0" x2="1385.0" y1="55.0" y2="55.0" /><line stroke="rgb(0,0,0)" x1="1385.0" x2="1405.0" y1="55.0" y2="55.0" /><line stroke="rgb(0,0,0)" x1="1405.0" x2="1410.0" y1="55.0" y2="55.0" /><line stroke="rgb(0,0,0)" x1="1410.0" x2="1435.0" y1="55.0" y2="55.0" /><line stroke="rgb(0,0,0)" x1="1435.0" x2="1455.0" y1="55.0" y2="55.0" /><line stroke="rgb(0,0,0)" x1="1455.0" x2="1460.0" y1="55.0" y2="55.0" /><line stroke="rgb(0,0,0)" x1="1460.0" x2="1540.0" y1="55.0" y2="55.0" /><line stroke="rgb(0,0,0)" x1="1540.0" x2="1560.0" y1="55.0" y2="55.0" /><line stroke="rgb(0,0,0)" x1="1560.0" x2="1565.0" y1="55.0" y2="55.0" /><line stroke="rgb(0,0,0)" x1="1565.0" x2="1645.0" y1="55.0" y2="55.0" /><line stroke="rgb(0,0,0)" x1="1645.0" x2="1665.0" y1="55.0" y2="55.0" /><line stroke="rgb(0,0,0)" x1="1665.0" x2="1670.0" y1="55.0" y2="55.0" /><line stroke="rgb(0,0,0)" x1="1670.0" x2="1705.0" y1="55.0" y2="55.0" /><line stroke="rgb(0,0,0)" x1="1705.0" x2="1725.0" y1="55.0" y2="55.0" /><line stroke="rgb(0,0,0)" x1="1725.0" x2="1730.0" y1="55.0" y2="55.0" /><line stroke="rgb(0,0,0)" x1="1730.0" x2="1755.0" y1="55.0" y2="55.0" /><line stroke="rgb(0,0,0)" x1="1755.0" x2="1775.0" y1="55.0" y2="55.0" /><line stroke="rgb(0,0,0)" x1="1775.0" x2="1780.0" y1="55.0" y2="55.0" /><line stroke="rgb(0,0,0)" x1="1780.0" x2="1870.0" y1="55.0" y2="55.0" /><line stroke="rgb(0,0,0)" x1="1870.0" x2="1890.0" y1="55.0" y2="55.0" /><line stroke="rgb(0,0,0)" x1="1890.0" x2="1895.0" y1="55.0" y2="55.0" /><line stroke="rgb(0,0,0)" x1="1895.0" x2="1970.0" y1="55.0" y2="55.0" /><line stroke="rgb(0,0,0)" x1="1970.0" x2="1990.0" y1="55.0" y2="55.0" /><line stroke="rgb(0,0,0)" x1="1990.0" x2="1995.0" y1="55.0" y2="55.0" /><line stroke="rgb(0,0,0)" x1="1995.0" x2="2025.0" y1="55.0" y2="55.0" /><line stroke="rgb(0,0,0)" x1="2025.0" x2="2045.0" y1="55.0" y2="55.0" /><line stroke="rgb(0,0,0)" x1="2045.0" x2="2050.0" y1="55.0" y2="55.0" /><line stroke="rgb(0,0,0)" x1="2050.0" x2="2095.0" y1="55.0" y2="55.0" /><line stroke="rgb(0,0,0)" x1="2095.0" x2="2115.0" y1="55.0" y2="55.0" /><line stroke="rgb(0,0,0)" x1="2115.0" x2="2120.0" y1="55.0" y2="55.0" /><line stroke="rgb(0,0,0)" x1="2120.0" x2="2150.0" y1="55.0" y2="55.0" /><line stroke="rgb(0,0,0)" x1="2150.0" x2="2170.0" y1="55.0" y2="55.0" /><line stroke="rgb(0,0,0)" x1="2170.0" x2="2175.0" y1="55.0" y2="55.0" /><line stroke="rgb(0,0,0)" x1="2175.0" x2="2260.0" y1="55.0" y2="55.0" /><line stroke="rgb(0,0,0)" x1="2260.0" x2="2280.0" y1="55.0" y2="55.0" /><line stroke="rgb(0,0,0)" x1="2280.0" x2="2285.0" y1="55.0" y2="55.0" /><line stroke="rgb(0,0,0)" x1="2285.0" x2="2310.0" y1="55.0" y2="55.0" /><line stroke="rgb(0,0,0)" x1="2310.0" x2="2330.0" y1="55.0" y2="55.0" /><line stroke="rgb(0,0,0)" x1="2330.0" x2="2335.0" y1="55.0" y2="55.0" /><line stroke="rgb(0,0,0)" x1="2335.0" x2="2415.0" y1="55.0" y2="55.0" /><line stroke="rgb(0,0,0)" x1="2415.0" x2="2435.0" y1="55.0" y2="55.0" /><line stroke="rgb(0,0,0)" x1="2435.0" x2="2440.0" y1="55.0" y2="55.0" /><line stroke="rgb(0,0,0)" x1="2440.0" x2="2470.0" y1="55.0" y2="55.0" /><line stroke="rgb(0,0,0)" x1="2470.0" x2="2490.0" y1="55.0" y2="55.0" /><line stroke="rgb(0,0,0)" x1="2490.0" x2="2495.0" y1="55.0" y2="55.0" /><line stroke="rgb(0,0,0)" x1="2495.0" x2="2590.0" y1="55.0" y2="55.0" /><line stroke="rgb(0,0,0)" x1="2590.0" x2="2610.0" y1="55.0" y2="55.0" /><line stroke="rgb(0,0,0)" x1="2610.0" x2="2615.0" y1="55.0" y2="55.0" /><line stroke="rgb(0,0,0)" x1="2615.0" x2="2695.0" y1="55.0" y2="55.0" /><line stroke="rgb(0,0,0)" x1="2695.0" x2="2715.0" y1="55.0" y2="55.0" /><line stroke="rgb(0,0,0)" x1="2715.0" x2="2720.0" y1="55.0" y2="55.0" /><line stroke="rgb(0,0,0)" x1="2720.0" x2="2730.0" y1="55.0" y2="55.0" /><line stroke="rgb(0,0,0)" x1="2730.0" x2="2750.0" y1="55.0" y2="55.0" /><line stroke="rgb(0,0,0)" x1="2750.0" x2="2755.0" y1="55.0" y2="55.0" /><line stroke="rgb(0,0,0)" x1="2755.0" x2="2790.0" y1="55.0" y2="55.0" /><line stroke="rgb(0,0,0)" x1="2790.0" x2="2810.0" y1="55.0" y2="55.0" /><line stroke="rgb(0,0,0)" x1="2810.0" x2="2815.0" y1="55.0" y2="55.0" /><polygon fill="rgb(255,150,150)" points="30.0,55.0 30.0,39.57943925233645 27.5,39.57943925233645 27.5,37.71028037383178 25.0,37.71028037383178 25.0,35.8411214953271 22.5,35.8411214953271 22.5,35.373831775700936 20.0,35.373831775700936 20.0,33.971962616822424 17.5,33.971962616822424 17.5,33.971962616822424 15.0,33.971962616822424 15.0,35.373831775700936 12.5,35.373831775700936 12.5,35.8411214953271 10.0,35.8411214953271 10.0,37.71028037383178 7.5,37.71028037383178 7.5,39.57943925233645 5.0,39.57943925233645 5.0,55.0 5.0,55.0 5.0,70.42056074766356 7.5,70.42056074766356 7.5,72.28971962616822 10.0,72.28971962616822 10.0,74.1588785046729 12.5,74.1588785046729 12.5,74.62616822429906 15.0,74.62616822429906 15.0,76.02803738317758 17.5,76.02803738317758 17.5,76.02803738317758 20.0,76.02803738317758 20.0,74.62616822429906 22.5,74.62616822429906 22.5,74.1588785046729 25.0,74.1588785046729 25.0,72.28971962616822 27.5,72.28971962616822 27.5,70.42056074766356 30.0,70.42056074766356 30.0,55.0" stroke="rgb(0,0,0)" /><text fill="black" x="5.0" y="96.02805000000001">E4</text><polygon fill="rgb(255,150,150)" points="160.0,55.0 160.0,54.532710280373834 157.5,54.532710280373834 157.5,53.598130841121495 155.0,53.598130841121495 155.0,50.794392523364486 152.5,50.794392523364486 152.5,50.32710280373831 150.0,50.32710280373831 150.0,45.18691588785047 147.5,45.18691588785047 147.5,21.355140186915882 145.0,21.355140186915882 145.0,12.476635514018696 142.5,12.476635514018696 142.5,9.205607476635514 140.0,9.205607476635514 140.0,8.271028037383175 130.0,8.271028037383175 130.0,7.803738317757009 110.0,7.803738317757009 110.0,7.803738317757009 90.0,7.803738317757009 90.0,8.271028037383175 80.0,8.271028037383175 80.0,9.205607476635514 77.5,9.205607476635514 77.5,12.476635514018696 75.0,12.476635514018696 75.0,21.355140186915882 72.5,21.355140186915882 72.5,45.18691588785047 70.0,45.18691588785047 70.0,50.32710280373831 67.5,50.32710280373831 67.5,50.794392523364486 65.0,50.794392523364486 65.0,53.598130841121495 62.5,53.598130841121495 62.5,54.532710280373834 60.0,54.532710280373834 60.0,55.0 60.0,55.0 60.0,55.467289719626166 62.5,55.467289719626166 62.5,56.401869158878505 65.0,56.401869158878505 65.0,59.205607476635514 67.5,59.205607476635514 67.5,59.67289719626169 70.0,59.67289719626169 70.0,64.81308411214954 72.5,64.81308411214954 72.5,88.64485981308411 75.0,88.64485981308411 75.0,97.5233644859813 77.5,97.5233644859813 77.5,100.79439252336448 80.0,100.79439252336448 80.0,101.72897196261682 90.0,101.72897196261682 90.0,102.19626168224299 110.0,102.19626168224299 110.0,102.19626168224299 130.0,102.19626168224299 130.0,101.72897196261682 140.0,101.72897196261682 140.0,100.79439252336448 142.5,100.79439252336448 142.5,97.5233644859813 145.0,97.5233644859813 145.0,88.64485981308411 147.5,88.64485981308411 147.5,64.81308411214954 150.0,64.81308411214954 150.0,59.67289719626169 152.5,59.67289719626169 152.5,59.205607476635514 155.0,59.205607476635514 155.0,56.401869158878505 157.5,56.401869158878505 157.5,55.467289719626166 160.0,55.467289719626166 160.0,55.0" stroke="rgb(0,0,0)" /><text fill="black" x="60.0" y="122.19624999999999">E7</text><polygon fill="rgb(150,150,150)" points="210.0,55.0 210.0,50.32710280373831 207.5,50.32710280373831 207.5,41.915887850467286 200.0,41.915887850467286 200.0,41.915887850467286 192.5,41.915887850467286 192.5,50.32710280373831 190.0,50.32710280373831 190.0,55.0 190.0,55.0 190.0,59.67289719626169 192.5,59.67289719626169 192.5,68.08411214953271 200.0,68.08411214953271 200.0,68.08411214953271 207.5,68.08411214953271 207.5,59.67289719626169 210.0,59.67289719626169 210.0,55.0" stroke="rgb(0,0,0)" /><text fill="black" x="190.0" y="88.0841">H8</text><polygon fill="rgb(150,255,255)" points="245.0,55.0 245.0,39.112149532710276 242.5,39.112149532710276 242.5,39.112149532710276 240.0,39.112149532710276 240.0,55.0 240.0,55.0 240.0,70.88785046728972 242.5,70.88785046728972 242.5,70.88785046728972 245.0,70.88785046728972 245.0,55.0" stroke="rgb(0,0,0)" /><text fill="black" x="240.0" y="90.88785">E14</text><polygon fill="rgb(255,150,150)" points="365.0,55.0 365.0,54.532710280373834 362.5,54.532710280373834 362.5,47.523364485981304 360.0,47.523364485981304 360.0,43.78504672897196 357.5,43.78504672897196 357.5,26.495327102803742 355.0,26.495327102803742 355.0,23.691588785046733 352.5,23.691588785046733 352.5,15.280373831775705 350.0,15.280373831775705 350.0,14.813084112149532 347.5,14.813084112149532 347.5,11.074766355140184 342.5,11.074766355140184 342.5,8.271028037383175 340.0,8.271028037383175 340.0,6.86915887850467 337.5,6.86915887850467 337.5,5.934579439252339 320.0,5.934579439252339 320.0,5.934579439252339 302.5,5.934579439252339 302.5,6.86915887850467 300.0,6.86915887850467 300.0,8.271028037383175 297.5,8.271028037383175 297.5,11.074766355140184 292.5,11.074766355140184 292.5,14.813084112149532 290.0,14.813084112149532 290.0,15.280373831775705 287.5,15.280373831775705 287.5,23.691588785046733 285.0,23.691588785046733 285.0,26.495327102803742 282.5,26.495327102803742 282.5,43.78504672897196 280.0,43.78504672897196 280.0,47.523364485981304 277.5,47.523364485981304 277.5,54.532710280373834 275.0,54.532710280373834 275.0,55.0 275.0,55.0 275.0,55.467289719626166 277.5,55.467289719626166 277.5,62.476635514018696 280.0,62.476635514018696 280.0,66.21495327102804 282.5,66.21495327102804 282.5,83.50467289719626 285.0,83.50467289719626 285.0,86.30841121495327 287.5,86.30841121495327 287.5,94.7196261682243 290.0,94.7196261682243 290.0,95.18691588785046 292.5,95.18691588785046 292.5,98.92523364485982 297.5,98.92523364485982 297.5,101.72897196261682 300.0,101.72897196261682 300.0,103.13084112149534 302.5,103.13084112149534 302.5,104.06542056074767 320.0,104.06542056074767 320.0,104.06542056074767 337.5,104.06542056074767 337.5,103.13084112149534 340.0,103.13084112149534 340.0,101.72897196261682 342.5,101.72897196261682 342.5,98.92523364485982 347.5,98.92523364485982 347.5,95.18691588785046 350.0,95.18691588785046 350.0,94.7196261682243 352.5,94.7196261682243 352.5,86.30841121495327 355.0,86.30841121495327 355.0,83.50467289719626 357.5,83.50467289719626 357.5,66.21495327102804 360.0,66.21495327102804 360.0,62.476635514018696 362.5,62.476635514018696 362.5,55.467289719626166 365.0,55.467289719626166 365.0,55.0" stroke="rgb(0,0,0)" /><text fill="black" x="275.0" y="124.0654">E16</text><polygon fill="rgb(255,150,150)" points="480.0,55.0 480.0,53.13084112149533 477.5,53.13084112149533 477.5,52.19626168224299 475.0,52.19626168224299 475.0,51.26168224299065 472.5,51.26168224299065 472.5,47.05607476635514 470.0,47.05607476635514 470.0,46.12149532710281 467.5,46.12149532710281 467.5,25.09345794392523 465.0,25.09345794392523 465.0,18.084112149532714 462.5,18.084112149532714 462.5,14.813084112149532 460.0,14.813084112149532 460.0,11.074766355140184 457.5,11.074766355140184 457.5,6.401869158878505 455.0,6.401869158878505 455.0,5.467289719626166 437.5,5.467289719626166 437.5,5.467289719626166 420.0,5.467289719626166 420.0,6.401869158878505 417.5,6.401869158878505 417.5,11.074766355140184 415.0,11.074766355140184 415.0,14.813084112149532 412.5,14.813084112149532 412.5,18.084112149532714 410.0,18.084112149532714 410.0,25.09345794392523 407.5,25.09345794392523 407.5,46.12149532710281 405.0,46.12149532710281 405.0,47.05607476635514 402.5,47.05607476635514 402.5,51.26168224299065 400.0,51.26168224299065 400.0,52.19626168224299 397.5,52.19626168224299 397.5,53.13084112149533 395.0,53.13084112149533 395.0,55.0 395.0,55.0 395.0,56.86915887850467 397.5,56.86915887850467 397.5,57.80373831775701 400.0,57.80373831775701 400.0,58.73831775700935 402.5,58.73831775700935 402.5,62.94392523364486 405.0,62.94392523364486 405.0,63.87850467289719 407.5,63.87850467289719 407.5,84.90654205607477 410.0,84.90654205607477 410.0,91.91588785046729 412.5,91.91588785046729 412.5,95.18691588785046 415.0,95.18691588785046 415.0,98.92523364485982 417.5,98.92523364485982 417.5,103.5981308411215 420.0,103.5981308411215 420.0,104.53271028037383 437.5,104.53271028037383 437.5,104.53271028037383 455.0,104.53271028037383 455.0,103.5981308411215 457.5,103.5981308411215 457.5,98.92523364485982 460.0,98.92523364485982 460.0,95.18691588785046 462.5,95.18691588785046 462.5,91.91588785046729 465.0,91.91588785046729 465.0,84.90654205607477 467.5,84.90654205607477 467.5,63.87850467289719 470.0,63.87850467289719 470.0,62.94392523364486 472.5,62.94392523364486 472.5,58.73831775700935 475.0,58.73831775700935 475.0,57.80373831775701 477.5,57.80373831775701 477.5,56.86915887850467 480.0,56.86915887850467 480.0,55.0" stroke="rgb(0,0,0)" /><text fill="black" x="395.0" y="124.5327">E18</text><polygon fill="rgb(255,150,150)" points="585.0,55.0 585.0,54.06542056074766 582.5,54.06542056074766 582.5,52.19626168224299 580.0,52.19626168224299 580.0,47.99065420560748 577.5,47.99065420560748 577.5,39.112149532710276 575.0,39.112149532710276 575.0,21.822429906542055 572.5,21.822429906542055 572.5,20.887850467289724 570.0,20.887850467289724 570.0,17.149532710280376 567.5,17.149532710280376 567.5,12.943925233644862 565.0,12.943925233644862 565.0,10.607476635514018 562.5,10.607476635514018 562.5,5.0 547.5,5.0 547.5,5.0 532.5,5.0 532.5,10.607476635514018 530.0,10.607476635514018 530.0,12.943925233644862 527.5,12.943925233644862 527.5,17.149532710280376 525.0,17.149532710280376 525.0,20.887850467289724 522.5,20.887850467289724 522.5,21.822429906542055 520.0,21.822429906542055 520.0,39.112149532710276 517.5,39.112149532710276 517.5,47.99065420560748 515.0,47.99065420560748 515.0,52.19626168224299 512.5,52.19626168224299 512.5,54.06542056074766 510.0,54.06542056074766 510.0,55.0 510.0,55.0 510.0,55.93457943925234 512.5,55.93457943925234 512.5,57.80373831775701 515.0,57.80373831775701 515.0,62.00934579439252 517.5,62.00934579439252 517.5,70.88785046728972 520.0,70.88785046728972 520.0,88.17757009345794 522.5,88.17757009345794 522.5,89.11214953271028 525.0,89.11214953271028 525.0,92.85046728971963 527.5,92.85046728971963 527.5,97.05607476635514 530.0,97.05607476635514 530.0,99.39252336448598 532.5,99.39252336448598 532.5,105.0 547.5,105.0 547.5,105.0 562.5,105.0 562.5,99.39252336448598 565.0,99.39252336448598 565.0,97.05607476635514 567.5,97.05607476635514 567.5,92.85046728971963 570.0,92.85046728971963 570.0,89.11214953271028 572.5,89.11214953271028 572.5,88.17757009345794 575.0,88.17757009345794 575.0,70.88785046728972 577.5,70.88785046728972 577.5,62.00934579439252 580.0,62.00934579439252 580.0,57.80373831775701 582.5,57.80373831775701 582.5,55.93457943925234 585.0,55.93457943925234 585.0,55.0" stroke="rgb(0,0,0)" /><text fill="black" x="510.0" y="125.0">E28</text><polygon fill="rgb(150,150,150)" points="630.0,55.0 630.0,40.981308411214954 622.5,40.981308411214954 622.5,40.981308411214954 615.0,40.981308411214954 615.0,55.0 615.0,55.0 615.0,69.01869158878505 622.5,69.01869158878505 622.5,69.01869158878505 630.0,69.01869158878505 630.0,55.0" stroke="rgb(0,0,0)" /><text fill="black" x="615.0" y="89.0187">H30</text><polygon fill="rgb(255,150,150)" points="735.0,55.0 735.0,54.532710280373834 727.5,54.532710280373834 727.5,52.19626168224299 722.5,52.19626168224299 722.5,51.728971962616825 720.0,51.728971962616825 720.0,27.89719626168224 717.5,27.89719626168224 717.5,15.747663551401871 715.0,15.747663551401871 715.0,14.813084112149532 712.5,14.813084112149532 712.5,6.401869158878505 710.0,6.401869158878505 710.0,5.0 697.5,5.0 697.5,5.0 685.0,5.0 685.0,6.401869158878505 682.5,6.401869158878505 682.5,14.813084112149532 680.0,14.813084112149532 680.0,15.747663551401871 677.5,15.747663551401871 677.5,27.89719626168224 675.0,27.89719626168224 675.0,51.728971962616825 672.5,51.728971962616825 672.5,52.19626168224299 667.5,52.19626168224299 667.5,54.532710280373834 660.0,54.532710280373834 660.0,55.0 660.0,55.0 660.0,55.467289719626166 667.5,55.467289719626166 667.5,57.80373831775701 672.5,57.80373831775701 672.5,58.271028037383175 675.0,58.271028037383175 675.0,82.10280373831776 677.5,82.10280373831776 677.5,94.25233644859813 680.0,94.25233644859813 680.0,95.18691588785046 682.5,95.18691588785046 682.5,103.5981308411215 685.0,103.5981308411215 685.0,105.0 697.5,105.0 697.5,105.0 710.0,105.0 710.0,103.5981308411215 712.5,103.5981308411215 712.5,95.18691588785046 715.0,95.18691588785046 715.0,94.25233644859813 717.5,94.25233644859813 717.5,82.10280373831776 720.0,82.10280373831776 720.0,58.271028037383175 722.5,58.271028037383175 722.5,57.80373831775701 727.5,57.80373831775701 727.5,55.467289719626166 735.0,55.467289719626166 735.0,55.0" stroke="rgb(0,0,0)" /><text fill="black" x="660.0" y="125.0">E33</text><polygon fill="rgb(255,150,255)" points="780.0,55.0 780.0,54.532710280373834 777.5,54.532710280373834 777.5,47.05607476635514 775.0,47.05607476635514 775.0,44.719626168224295 772.5,44.719626168224295 772.5,44.719626168224295 770.0,44.719626168224295 770.0,47.05607476635514 767.5,47.05607476635514 767.5,54.532710280373834 765.0,54.532710280373834 765.0,55.0 765.0,55.0 765.0,55.467289719626166 767.5,55.467289719626166 767.5,62.94392523364486 770.0,62.94392523364486 770.0,65.2803738317757 772.5,65.2803738317757 772.5,65.2803738317757 775.0,65.2803738317757 775.0,62.94392523364486 777.5,62.94392523364486 777.5,55.467289719626166 780.0,55.467289719626166 780.0,55.0" stroke="rgb(0,0,0)" /><text fill="black" x="765.0" y="85.28035">E34</text><polygon fill="rgb(150,150,150)" points="860.0,55.0 860.0,29.766355140186914 857.5,29.766355140186914 857.5,28.364485981308412 850.0,28.364485981308412 850.0,27.429906542056077 847.5,27.429906542056077 847.5,24.158878504672895 845.0,24.158878504672895 845.0,19.953271028037385 842.5,19.953271028037385 842.5,14.345794392523366 835.0,14.345794392523366 835.0,14.345794392523366 827.5,14.345794392523366 827.5,19.953271028037385 825.0,19.953271028037385 825.0,24.158878504672895 822.5,24.158878504672895 822.5,27.429906542056077 820.0,27.429906542056077 820.0,28.364485981308412 812.5,28.364485981308412 812.5,29.766355140186914 810.0,29.766355140186914 810.0,55.0 810.0,55.0 810.0,80.23364485981308 812.5,80.23364485981308 812.5,81.6355140186916 820.0,81.6355140186916 820.0,82.57009345794393 822.5,82.57009345794393 822.5,85.8411214953271 825.0,85.8411214953271 825.0,90.04672897196261 827.5,90.04672897196261 827.5,95.65420560747663 835.0,95.65420560747663 835.0,95.65420560747663 842.5,95.65420560747663 842.5,90.04672897196261 845.0,90.04672897196261 845.0,85.8411214953271 847.5,85.8411214953271 847.5,82.57009345794393 850.0,82.57009345794393 850.0,81.6355140186916 857.5,81.6355140186916 857.5,80.23364485981308 860.0,80.23364485981308 860.0,55.0" stroke="rgb(0,0,0)" /><text fill="black" x="810.0" y="115.6542">H35</text><polygon fill="rgb(150,150,150)" points="920.0,55.0 920.0,49.85981308411215 917.5,49.85981308411215 917.5,49.39252336448598 915.0,49.39252336448598 915.0,48.925233644859816 912.5,48.925233644859816 912.5,34.90654205607476 905.0,34.90654205607476 905.0,34.90654205607476 897.5,34.90654205607476 897.5,48.925233644859816 895.0,48.925233644859816 895.0,49.39252336448598 892.5,49.39252336448598 892.5,49.85981308411215 890.0,49.85981308411215 890.0,55.0 890.0,55.0 890.0,60.14018691588785 892.5,60.14018691588785 892.5,60.60747663551402 895.0,60.60747663551402 895.0,61.074766355140184 897.5,61.074766355140184 897.5,75.09345794392524 905.0,75.09345794392524 905.0,75.09345794392524 912.5,75.09345794392524 912.5,61.074766355140184 915.0,61.074766355140184 915.0,60.60747663551402 917.5,60.60747663551402 917.5,60.14018691588785 920.0,60.14018691588785 920.0,55.0" stroke="rgb(0,0,0)" /><text fill="black" x="890.0" y="95.09344999999999">H39</text><polygon fill="rgb(150,150,150)" points="970.0,55.0 970.0,53.598130841121495 967.5,53.598130841121495 967.5,36.30841121495327 960.0,36.30841121495327 960.0,36.30841121495327 952.5,36.30841121495327 952.5,53.598130841121495 950.0,53.598130841121495 950.0,55.0 950.0,55.0 950.0,56.401869158878505 952.5,56.401869158878505 952.5,73.69158878504673 960.0,73.69158878504673 960.0,73.69158878504673 967.5,73.69158878504673 967.5,56.401869158878505 970.0,56.401869158878505 970.0,55.0" stroke="rgb(0,0,0)" /><text fill="black" x="950.0" y="93.6916">H40</text><polygon fill="rgb(255,150,255)" points="1015.0,55.0 1015.0,54.532710280373834 1012.5,54.532710280373834 1012.5,46.12149532710281 1010.0,46.12149532710281 1010.0,38.64485981308411 1007.5,38.64485981308411 1007.5,38.64485981308411 1005.0,38.64485981308411 1005.0,46.12149532710281 1002.5,46.12149532710281 1002.5,54.532710280373834 1000.0,54.532710280373834 1000.0,55.0 1000.0,55.0 1000.0,55.467289719626166 1002.5,55.467289719626166 1002.5,63.87850467289719 1005.0,63.87850467289719 1005.0,71.35514018691589 1007.5,71.35514018691589 1007.5,71.35514018691589 1010.0,71.35514018691589 1010.0,63.87850467289719 1012.5,63.87850467289719 1012.5,55.467289719626166 1015.0,55.467289719626166 1015.0,55.0" stroke="rgb(0,0,0)" /><text fill="black" x="1000.0" y="91.35515">E43</text><polygon fill="rgb(255,150,150)" points="1105.0,55.0 1105.0,52.19626168224299 1102.5,52.19626168224299 1102.5,46.12149532710281 1100.0,46.12149532710281 1100.0,28.83177570093458 1097.5,28.83177570093458 1097.5,19.485981308411212 1095.0,19.485981308411212 1095.0,11.074766355140184 1092.5,11.074766355140184 1092.5,10.140186915887853 1090.0,10.140186915887853 1090.0,8.271028037383175 1087.5,8.271028037383175 1087.5,5.467289719626166 1075.0,5.467289719626166 1075.0,5.467289719626166 1062.5,5.467289719626166 1062.5,8.271028037383175 1060.0,8.271028037383175 1060.0,10.140186915887853 1057.5,10.140186915887853 1057.5,11.074766355140184 1055.0,11.074766355140184 1055.0,19.485981308411212 1052.5,19.485981308411212 1052.5,28.83177570093458 1050.0,28.83177570093458 1050.0,46.12149532710281 1047.5,46.12149532710281 1047.5,52.19626168224299 1045.0,52.19626168224299 1045.0,55.0 1045.0,55.0 1045.0,57.80373831775701 1047.5,57.80373831775701 1047.5,63.87850467289719 1050.0,63.87850467289719 1050.0,81.16822429906543 1052.5,81.16822429906543 1052.5,90.51401869158879 1055.0,90.51401869158879 1055.0,98.92523364485982 1057.5,98.92523364485982 1057.5,99.85981308411215 1060.0,99.85981308411215 1060.0,101.72897196261682 1062.5,101.72897196261682 1062.5,104.53271028037383 1075.0,104.53271028037383 1075.0,104.53271028037383 1087.5,104.53271028037383 1087.5,101.72897196261682 1090.0,101.72897196261682 1090.0,99.85981308411215 1092.5,99.85981308411215 1092.5,98.92523364485982 1095.0,98.92523364485982 1095.0,90.51401869158879 1097.5,90.51401869158879 1097.5,81.16822429906543 1100.0,81.16822429906543 1100.0,63.87850467289719 1102.5,63.87850467289719 1102.5,57.80373831775701 1105.0,57.80373831775701 1105.0,55.0" stroke="rgb(0,0,0)" /><text fill="black" x="1045.0" y="124.5327">E44</text><polygon fill="rgb(150,150,150)" points="1150.0,55.0 1150.0,43.78504672897196 1142.5,43.78504672897196 1142.5,43.78504672897196 1135.0,43.78504672897196 1135.0,55.0 1135.0,55.0 1135.0,66.21495327102804 1142.5,66.21495327102804 1142.5,66.21495327102804 1150.0,66.21495327102804 1150.0,55.0" stroke="rgb(0,0,0)" /><text fill="black" x="1135.0" y="86.21495">H51</text><polygon fill="rgb(255,150,150)" points="1240.0,55.0 1240.0,47.99065420560748 1237.5,47.99065420560748 1237.5,47.523364485981304 1235.0,47.523364485981304 1235.0,42.850467289719624 1232.5,42.850467289719624 1232.5,35.373831775700936 1230.0,35.373831775700936 1230.0,9.67289719626168 1227.5,9.67289719626168 1227.5,5.934579439252339 1225.0,5.934579439252339 1225.0,5.467289719626166 1210.0,5.467289719626166 1210.0,5.467289719626166 1195.0,5.467289719626166 1195.0,5.934579439252339 1192.5,5.934579439252339 1192.5,9.67289719626168 1190.0,9.67289719626168 1190.0,35.373831775700936 1187.5,35.373831775700936 1187.5,42.850467289719624 1185.0,42.850467289719624 1185.0,47.523364485981304 1182.5,47.523364485981304 1182.5,47.99065420560748 1180.0,47.99065420560748 1180.0,55.0 1180.0,55.0 1180.0,62.00934579439252 1182.5,62.00934579439252 1182.5,62.476635514018696 1185.0,62.476635514018696 1185.0,67.14953271028037 1187.5,67.14953271028037 1187.5,74.62616822429906 1190.0,74.62616822429906 1190.0,100.32710280373831 1192.5,100.32710280373831 1192.5,104.06542056074767 1195.0,104.06542056074767 1195.0,104.53271028037383 1210.0,104.53271028037383 1210.0,104.53271028037383 1225.0,104.53271028037383 1225.0,104.06542056074767 1227.5,104.06542056074767 1227.5,100.32710280373831 1230.0,100.32710280373831 1230.0,74.62616822429906 1232.5,74.62616822429906 1232.5,67.14953271028037 1235.0,67.14953271028037 1235.0,62.476635514018696 1237.5,62.476635514018696 1237.5,62.00934579439252 1240.0,62.00934579439252 1240.0,55.0" stroke="rgb(0,0,0)" /><text fill="black" x="1180.0" y="124.5327">E54</text><polygon fill="rgb(150,255,150)" points="1285.0,55.0 1285.0,52.66355140186916 1282.5,52.66355140186916 1282.5,47.99065420560748 1280.0,47.99065420560748 1280.0,22.757009345794394 1277.5,22.757009345794394 1277.5,22.757009345794394 1275.0,22.757009345794394 1275.0,47.99065420560748 1272.5,47.99065420560748 1272.5,52.66355140186916 1270.0,52.66355140186916 1270.0,55.0 1270.0,55.0 1270.0,57.33644859813084 1272.5,57.33644859813084 1272.5,62.00934579439252 1275.0,62.00934579439252 1275.0,87.24299065420561 1277.5,87.24299065420561 1277.5,87.24299065420561 1280.0,87.24299065420561 1280.0,62.00934579439252 1282.5,62.00934579439252 1282.5,57.33644859813084 1285.0,57.33644859813084 1285.0,55.0" stroke="rgb(0,0,0)" /><text fill="black" x="1270.0" y="107.243">E56</text><polygon fill="rgb(150,150,150)" points="1335.0,55.0 1335.0,52.66355140186916 1332.5,52.66355140186916 1332.5,43.78504672897196 1325.0,43.78504672897196 1325.0,43.78504672897196 1317.5,43.78504672897196 1317.5,52.66355140186916 1315.0,52.66355140186916 1315.0,55.0 1315.0,55.0 1315.0,57.33644859813084 1317.5,57.33644859813084 1317.5,66.21495327102804 1325.0,66.21495327102804 1325.0,66.21495327102804 1332.5,66.21495327102804 1332.5,57.33644859813084 1335.0,57.33644859813084 1335.0,55.0" stroke="rgb(0,0,0)" /><text fill="black" x="1315.0" y="86.21495">H58</text><polygon fill="rgb(150,150,150)" points="1380.0,55.0 1380.0,27.89719626168224 1372.5,27.89719626168224 1372.5,27.89719626168224 1365.0,27.89719626168224 1365.0,55.0 1365.0,55.0 1365.0,82.10280373831776 1372.5,82.10280373831776 1372.5,82.10280373831776 1380.0,82.10280373831776 1380.0,55.0" stroke="rgb(0,0,0)" /><text fill="black" x="1365.0" y="102.1028">H60</text><polygon fill="rgb(150,255,150)" points="1430.0,55.0 1430.0,54.532710280373834 1427.5,54.532710280373834 1427.5,54.06542056074766 1425.0,54.06542056074766 1425.0,51.728971962616825 1422.5,51.728971962616825 1422.5,23.224299065420556 1420.0,23.224299065420556 1420.0,23.224299065420556 1417.5,23.224299065420556 1417.5,51.728971962616825 1415.0,51.728971962616825 1415.0,54.06542056074766 1412.5,54.06542056074766 1412.5,54.532710280373834 1410.0,54.532710280373834 1410.0,55.0 1410.0,55.0 1410.0,55.467289719626166 1412.5,55.467289719626166 1412.5,55.93457943925234 1415.0,55.93457943925234 1415.0,58.271028037383175 1417.5,58.271028037383175 1417.5,86.77570093457945 1420.0,86.77570093457945 1420.0,86.77570093457945 1422.5,86.77570093457945 1422.5,58.271028037383175 1425.0,58.271028037383175 1425.0,55.93457943925234 1427.5,55.93457943925234 1427.5,55.467289719626166 1430.0,55.467289719626166 1430.0,55.0" stroke="rgb(0,0,0)" /><text fill="black" x="1410.0" y="106.7757">E61</text><polygon fill="rgb(255,150,150)" points="1535.0,55.0 1535.0,54.06542056074766 1532.5,54.06542056074766 1532.5,51.728971962616825 1530.0,51.728971962616825 1530.0,50.32710280373831 1527.5,50.32710280373831 1527.5,48.925233644859816 1525.0,48.925233644859816 1525.0,42.850467289719624 1522.5,42.850467289719624 1522.5,18.084112149532714 1520.0,18.084112149532714 1520.0,7.336448598130843 1517.5,7.336448598130843 1517.5,5.467289719626166 1510.0,5.467289719626166 1510.0,5.0 1497.5,5.0 1497.5,5.0 1485.0,5.0 1485.0,5.467289719626166 1477.5,5.467289719626166 1477.5,7.336448598130843 1475.0,7.336448598130843 1475.0,18.084112149532714 1472.5,18.084112149532714 1472.5,42.850467289719624 1470.0,42.850467289719624 1470.0,48.925233644859816 1467.5,48.925233644859816 1467.5,50.32710280373831 1465.0,50.32710280373831 1465.0,51.728971962616825 1462.5,51.728971962616825 1462.5,54.06542056074766 1460.0,54.06542056074766 1460.0,55.0 1460.0,55.0 1460.0,55.93457943925234 1462.5,55.93457943925234 1462.5,58.271028037383175 1465.0,58.271028037383175 1465.0,59.67289719626169 1467.5,59.67289719626169 1467.5,61.074766355140184 1470.0,61.074766355140184 1470.0,67.14953271028037 1472.5,67.14953271028037 1472.5,91.91588785046729 1475.0,91.91588785046729 1475.0,102.66355140186916 1477.5,102.66355140186916 1477.5,104.53271028037383 1485.0,104.53271028037383 1485.0,105.0 1497.5,105.0 1497.5,105.0 1510.0,105.0 1510.0,104.53271028037383 1517.5,104.53271028037383 1517.5,102.66355140186916 1520.0,102.66355140186916 1520.0,91.91588785046729 1522.5,91.91588785046729 1522.5,67.14953271028037 1525.0,67.14953271028037 1525.0,61.074766355140184 1527.5,61.074766355140184 1527.5,59.67289719626169 1530.0,59.67289719626169 1530.0,58.271028037383175 1532.5,58.271028037383175 1532.5,55.93457943925234 1535.0,55.93457943925234 1535.0,55.0" stroke="rgb(0,0,0)" /><text fill="black" x="1460.0" y="125.0">E67</text><polygon fill="rgb(255,150,150)" points="1640.0,55.0 1640.0,52.19626168224299 1637.5,52.19626168224299 1637.5,47.99065420560748 1635.0,47.99065420560748 1635.0,46.12149532710281 1632.5,46.12149532710281 1632.5,44.719626168224295 1630.0,44.719626168224295 1630.0,23.691588785046733 1627.5,23.691588785046733 1627.5,12.476635514018696 1625.0,12.476635514018696 1625.0,5.934579439252339 1622.5,5.934579439252339 1622.5,5.0 1602.5,5.0 1602.5,5.0 1582.5,5.0 1582.5,5.934579439252339 1580.0,5.934579439252339 1580.0,12.476635514018696 1577.5,12.476635514018696 1577.5,23.691588785046733 1575.0,23.691588785046733 1575.0,44.719626168224295 1572.5,44.719626168224295 1572.5,46.12149532710281 1570.0,46.12149532710281 1570.0,47.99065420560748 1567.5,47.99065420560748 1567.5,52.19626168224299 1565.0,52.19626168224299 1565.0,55.0 1565.0,55.0 1565.0,57.80373831775701 1567.5,57.80373831775701 1567.5,62.00934579439252 1570.0,62.00934579439252 1570.0,63.87850467289719 1572.5,63.87850467289719 1572.5,65.2803738317757 1575.0,65.2803738317757 1575.0,86.30841121495327 1577.5,86.30841121495327 1577.5,97.5233644859813 1580.0,97.5233644859813 1580.0,104.06542056074767 1582.5,104.06542056074767 1582.5,105.0 1602.5,105.0 1602.5,105.0 1622.5,105.0 1622.5,104.06542056074767 1625.0,104.06542056074767 1625.0,97.5233644859813 1627.5,97.5233644859813 1627.5,86.30841121495327 1630.0,86.30841121495327 1630.0,65.2803738317757 1632.5,65.2803738317757 1632.5,63.87850467289719 1635.0,63.87850467289719 1635.0,62.00934579439252 1637.5,62.00934579439252 1637.5,57.80373831775701 1640.0,57.80373831775701 1640.0,55.0" stroke="rgb(0,0,0)" /><text fill="black" x="1565.0" y="125.0">E69</text><polygon fill="rgb(150,150,150)" points="1700.0,55.0 1700.0,52.19626168224299 1697.5,52.19626168224299 1697.5,35.8411214953271 1695.0,35.8411214953271 1695.0,33.971962616822424 1692.5,33.971962616822424 1692.5,24.158878504672895 1685.0,24.158878504672895 1685.0,24.158878504672895 1677.5,24.158878504672895 1677.5,33.971962616822424 1675.0,33.971962616822424 1675.0,35.8411214953271 1672.5,35.8411214953271 1672.5,52.19626168224299 1670.0,52.19626168224299 1670.0,55.0 1670.0,55.0 1670.0,57.80373831775701 1672.5,57.80373831775701 1672.5,74.1588785046729 1675.0,74.1588785046729 1675.0,76.02803738317758 1677.5,76.02803738317758 1677.5,85.8411214953271 1685.0,85.8411214953271 1685.0,85.8411214953271 1692.5,85.8411214953271 1692.5,76.02803738317758 1695.0,76.02803738317758 1695.0,74.1588785046729 1697.5,74.1588785046729 1697.5,57.80373831775701 1700.0,57.80373831775701 1700.0,55.0" stroke="rgb(0,0,0)" /><text fill="black" x="1670.0" y="105.8411">H71</text><polygon fill="rgb(150,150,255)" points="1750.0,55.0 1750.0,54.532710280373834 1742.5,54.532710280373834 1742.5,33.971962616822424 1740.0,33.971962616822424 1740.0,33.971962616822424 1737.5,33.971962616822424 1737.5,54.532710280373834 1730.0,54.532710280373834 1730.0,55.0 1730.0,55.0 1730.0,55.467289719626166 1737.5,55.467289719626166 1737.5,76.02803738317758 1740.0,76.02803738317758 1740.0,76.02803738317758 1742.5,76.02803738317758 1742.5,55.467289719626166 1750.0,55.467289719626166 1750.0,55.0" stroke="rgb(0,0,0)" /><text fill="black" x="1730.0" y="96.02805000000001">E78</text><polygon fill="rgb(255,150,150)" points="1865.0,55.0 1865.0,52.66355140186916 1860.0,52.66355140186916 1860.0,47.523364485981304 1857.5,47.523364485981304 1857.5,44.719626168224295 1855.0,44.719626168224295 1855.0,18.084112149532714 1852.5,18.084112149532714 1852.5,14.345794392523366 1850.0,14.345794392523366 1850.0,12.009345794392523 1847.5,12.009345794392523 1847.5,10.140186915887853 1845.0,10.140186915887853 1845.0,7.803738317757009 1842.5,7.803738317757009 1842.5,5.0 1822.5,5.0 1822.5,5.0 1802.5,5.0 1802.5,7.803738317757009 1800.0,7.803738317757009 1800.0,10.140186915887853 1797.5,10.140186915887853 1797.5,12.009345794392523 1795.0,12.009345794392523 1795.0,14.345794392523366 1792.5,14.345794392523366 1792.5,18.084112149532714 1790.0,18.084112149532714 1790.0,44.719626168224295 1787.5,44.719626168224295 1787.5,47.523364485981304 1785.0,47.523364485981304 1785.0,52.66355140186916 1780.0,52.66355140186916 1780.0,55.0 1780.0,55.0 1780.0,57.33644859813084 1785.0,57.33644859813084 1785.0,62.476635514018696 1787.5,62.476635514018696 1787.5,65.2803738317757 1790.0,65.2803738317757 1790.0,91.91588785046729 1792.5,91.91588785046729 1792.5,95.65420560747663 1795.0,95.65420560747663 1795.0,97.99065420560748 1797.5,97.99065420560748 1797.5,99.85981308411215 1800.0,99.85981308411215 1800.0,102.19626168224299 1802.5,102.19626168224299 1802.5,105.0 1822.5,105.0 1822.5,105.0 1842.5,105.0 1842.5,102.19626168224299 1845.0,102.19626168224299 1845.0,99.85981308411215 1847.5,99.85981308411215 1847.5,97.99065420560748 1850.0,97.99065420560748 1850.0,95.65420560747663 1852.5,95.65420560747663 1852.5,91.91588785046729 1855.0,91.91588785046729 1855.0,65.2803738317757 1857.5,65.2803738317757 1857.5,62.476635514018696 1860.0,62.476635514018696 1860.0,57.33644859813084 1865.0,57.33644859813084 1865.0,55.0" stroke="rgb(0,0,0)" /><text fill="black" x="1780.0" y="125.0">E80</text><polygon fill="rgb(255,150,150)" points="1965.0,55.0 1965.0,45.18691588785047 1962.5,45.18691588785047 1962.5,38.64485981308411 1960.0,38.64485981308411 1960.0,37.71028037383178 1957.5,37.71028037383178 1957.5,15.280373831775705 1955.0,15.280373831775705 1955.0,9.67289719626168 1952.5,9.67289719626168 1952.5,5.934579439252339 1950.0,5.934579439252339 1950.0,5.0 1930.0,5.0 1930.0,5.0 1910.0,5.0 1910.0,5.934579439252339 1907.5,5.934579439252339 1907.5,9.67289719626168 1905.0,9.67289719626168 1905.0,15.280373831775705 1902.5,15.280373831775705 1902.5,37.71028037383178 1900.0,37.71028037383178 1900.0,38.64485981308411 1897.5,38.64485981308411 1897.5,45.18691588785047 1895.0,45.18691588785047 1895.0,55.0 1895.0,55.0 1895.0,64.81308411214954 1897.5,64.81308411214954 1897.5,71.35514018691589 1900.0,71.35514018691589 1900.0,72.28971962616822 1902.5,72.28971962616822 1902.5,94.7196261682243 1905.0,94.7196261682243 1905.0,100.32710280373831 1907.5,100.32710280373831 1907.5,104.06542056074767 1910.0,104.06542056074767 1910.0,105.0 1930.0,105.0 1930.0,105.0 1950.0,105.0 1950.0,104.06542056074767 1952.5,104.06542056074767 1952.5,100.32710280373831 1955.0,100.32710280373831 1955.0,94.7196261682243 1957.5,94.7196261682243 1957.5,72.28971962616822 1960.0,72.28971962616822 1960.0,71.35514018691589 1962.5,71.35514018691589 1962.5,64.81308411214954 1965.0,64.81308411214954 1965.0,55.0" stroke="rgb(0,0,0)" /><text fill="black" x="1895.0" y="125.0">E82</text><polygon fill="rgb(150,150,255)" points="2020.0,55.0 2020.0,49.39252336448598 2017.5,49.39252336448598 2017.5,40.51401869158878 2015.0,40.51401869158878 2015.0,40.046728971962615 2012.5,40.046728971962615 2012.5,34.90654205607476 2010.0,34.90654205607476 2010.0,33.50467289719626 2007.5,33.50467289719626 2007.5,33.50467289719626 2005.0,33.50467289719626 2005.0,34.90654205607476 2002.5,34.90654205607476 2002.5,40.046728971962615 2000.0,40.046728971962615 2000.0,40.51401869158878 1997.5,40.51401869158878 1997.5,49.39252336448598 1995.0,49.39252336448598 1995.0,55.0 1995.0,55.0 1995.0,60.60747663551402 1997.5,60.60747663551402 1997.5,69.48598130841121 2000.0,69.48598130841121 2000.0,69.95327102803739 2002.5,69.95327102803739 2002.5,75.09345794392524 2005.0,75.09345794392524 2005.0,76.49532710280374 2007.5,76.49532710280374 2007.5,76.49532710280374 2010.0,76.49532710280374 2010.0,75.09345794392524 2012.5,75.09345794392524 2012.5,69.95327102803739 2015.0,69.95327102803739 2015.0,69.48598130841121 2017.5,69.48598130841121 2017.5,60.60747663551402 2020.0,60.60747663551402 2020.0,55.0" stroke="rgb(0,0,0)" /><text fill="black" x="1995.0" y="96.49535">E88</text><polygon fill="rgb(150,150,150)" points="2090.0,55.0 2090.0,54.532710280373834 2085.0,54.532710280373834 2085.0,54.06542056074766 2077.5,54.06542056074766 2077.5,37.71028037383178 2070.0,37.71028037383178 2070.0,37.71028037383178 2062.5,37.71028037383178 2062.5,54.06542056074766 2055.0,54.06542056074766 2055.0,54.532710280373834 2050.0,54.532710280373834 2050.0,55.0 2050.0,55.0 2050.0,55.467289719626166 2055.0,55.467289719626166 2055.0,55.93457943925234 2062.5,55.93457943925234 2062.5,72.28971962616822 2070.0,72.28971962616822 2070.0,72.28971962616822 2077.5,72.28971962616822 2077.5,55.93457943925234 2085.0,55.93457943925234 2085.0,55.467289719626166 2090.0,55.467289719626166 2090.0,55.0" stroke="rgb(0,0,0)" /><text fill="black" x="2050.0" y="92.2897">H89</text><polygon fill="rgb(150,150,255)" points="2145.0,55.0 2145.0,49.39252336448598 2142.5,49.39252336448598 2142.5,40.51401869158878 2140.0,40.51401869158878 2140.0,39.57943925233645 2137.5,39.57943925233645 2137.5,33.971962616822424 2135.0,33.971962616822424 2135.0,33.03738317757009 2132.5,33.03738317757009 2132.5,33.03738317757009 2130.0,33.03738317757009 2130.0,33.971962616822424 2127.5,33.971962616822424 2127.5,39.57943925233645 2125.0,39.57943925233645 2125.0,40.51401869158878 2122.5,40.51401869158878 2122.5,49.39252336448598 2120.0,49.39252336448598 2120.0,55.0 2120.0,55.0 2120.0,60.60747663551402 2122.5,60.60747663551402 2122.5,69.48598130841121 2125.0,69.48598130841121 2125.0,70.42056074766356 2127.5,70.42056074766356 2127.5,76.02803738317758 2130.0,76.02803738317758 2130.0,76.96261682242991 2132.5,76.96261682242991 2132.5,76.96261682242991 2135.0,76.96261682242991 2135.0,76.02803738317758 2137.5,76.02803738317758 2137.5,70.42056074766356 2140.0,70.42056074766356 2140.0,69.48598130841121 2142.5,69.48598130841121 2142.5,60.60747663551402 2145.0,60.60747663551402 2145.0,55.0" stroke="rgb(0,0,0)" /><text fill="black" x="2120.0" y="96.9626">E90</text><polygon fill="rgb(255,150,150)" points="2255.0,55.0 2255.0,54.532710280373834 2252.5,54.532710280373834 2252.5,49.39252336448598 2250.0,49.39252336448598 2250.0,48.45794392523364 2247.5,48.45794392523364 2247.5,38.177570093457945 2245.0,38.177570093457945 2245.0,35.8411214953271 2242.5,35.8411214953271 2242.5,13.8785046728972 2240.0,13.8785046728972 2240.0,6.401869158878505 2235.0,6.401869158878505 2235.0,5.0 2215.0,5.0 2215.0,5.0 2195.0,5.0 2195.0,6.401869158878505 2190.0,6.401869158878505 2190.0,13.8785046728972 2187.5,13.8785046728972 2187.5,35.8411214953271 2185.0,35.8411214953271 2185.0,38.177570093457945 2182.5,38.177570093457945 2182.5,48.45794392523364 2180.0,48.45794392523364 2180.0,49.39252336448598 2177.5,49.39252336448598 2177.5,54.532710280373834 2175.0,54.532710280373834 2175.0,55.0 2175.0,55.0 2175.0,55.467289719626166 2177.5,55.467289719626166 2177.5,60.60747663551402 2180.0,60.60747663551402 2180.0,61.54205607476636 2182.5,61.54205607476636 2182.5,71.82242990654206 2185.0,71.82242990654206 2185.0,74.1588785046729 2187.5,74.1588785046729 2187.5,96.12149532710279 2190.0,96.12149532710279 2190.0,103.5981308411215 2195.0,103.5981308411215 2195.0,105.0 2215.0,105.0 2215.0,105.0 2235.0,105.0 2235.0,103.5981308411215 2240.0,103.5981308411215 2240.0,96.12149532710279 2242.5,96.12149532710279 2242.5,74.1588785046729 2245.0,74.1588785046729 2245.0,71.82242990654206 2247.5,71.82242990654206 2247.5,61.54205607476636 2250.0,61.54205607476636 2250.0,60.60747663551402 2252.5,60.60747663551402 2252.5,55.467289719626166 2255.0,55.467289719626166 2255.0,55.0" stroke="rgb(0,0,0)" /><text fill="black" x="2175.0" y="125.0">E91</text><polygon fill="rgb(150,150,150)" points="2305.0,55.0 2305.0,47.05607476635514 2302.5,47.05607476635514 2302.5,43.3177570093458 2295.0,43.3177570093458 2295.0,43.3177570093458 2287.5,43.3177570093458 2287.5,47.05607476635514 2285.0,47.05607476635514 2285.0,55.0 2285.0,55.0 2285.0,62.94392523364486 2287.5,62.94392523364486 2287.5,66.6822429906542 2295.0,66.6822429906542 2295.0,66.6822429906542 2302.5,66.6822429906542 2302.5,62.94392523364486 2305.0,62.94392523364486 2305.0,55.0" stroke="rgb(0,0,0)" /><text fill="black" x="2285.0" y="86.68225">H109</text><polygon fill="rgb(255,150,150)" points="2410.0,55.0 2410.0,37.242990654205606 2407.5,37.242990654205606 2407.5,34.4392523364486 2405.0,34.4392523364486 2405.0,24.158878504672895 2402.5,24.158878504672895 2402.5,20.887850467289724 2400.0,20.887850467289724 2400.0,19.018691588785046 2397.5,19.018691588785046 2397.5,10.140186915887853 2392.5,10.140186915887853 2392.5,7.803738317757009 2372.5,7.803738317757009 2372.5,7.803738317757009 2352.5,7.803738317757009 2352.5,10.140186915887853 2347.5,10.140186915887853 2347.5,19.018691588785046 2345.0,19.018691588785046 2345.0,20.887850467289724 2342.5,20.887850467289724 2342.5,24.158878504672895 2340.0,24.158878504672895 2340.0,34.4392523364486 2337.5,34.4392523364486 2337.5,37.242990654205606 2335.0,37.242990654205606 2335.0,55.0 2335.0,55.0 2335.0,72.75700934579439 2337.5,72.75700934579439 2337.5,75.56074766355141 2340.0,75.56074766355141 2340.0,85.8411214953271 2342.5,85.8411214953271 2342.5,89.11214953271028 2345.0,89.11214953271028 2345.0,90.98130841121495 2347.5,90.98130841121495 2347.5,99.85981308411215 2352.5,99.85981308411215 2352.5,102.19626168224299 2372.5,102.19626168224299 2372.5,102.19626168224299 2392.5,102.19626168224299 2392.5,99.85981308411215 2397.5,99.85981308411215 2397.5,90.98130841121495 2400.0,90.98130841121495 2400.0,89.11214953271028 2402.5,89.11214953271028 2402.5,85.8411214953271 2405.0,85.8411214953271 2405.0,75.56074766355141 2407.5,75.56074766355141 2407.5,72.75700934579439 2410.0,72.75700934579439 2410.0,55.0" stroke="rgb(0,0,0)" /><text fill="black" x="2335.0" y="122.19624999999999">E110</text><polygon fill="rgb(150,150,150)" points="2465.0,55.0 2465.0,54.532710280373834 2460.0,54.532710280373834 2460.0,33.971962616822424 2452.5,33.971962616822424 2452.5,33.971962616822424 2445.0,33.971962616822424 2445.0,54.532710280373834 2440.0,54.532710280373834 2440.0,55.0 2440.0,55.0 2440.0,55.467289719626166 2445.0,55.467289719626166 2445.0,76.02803738317758 2452.5,76.02803738317758 2452.5,76.02803738317758 2460.0,76.02803738317758 2460.0,55.467289719626166 2465.0,55.467289719626166 2465.0,55.0" stroke="rgb(0,0,0)" /><text fill="black" x="2440.0" y="96.02805000000001">H117</text><polygon fill="rgb(255,150,150)" points="2585.0,55.0 2585.0,52.19626168224299 2580.0,52.19626168224299 2580.0,35.8411214953271 2577.5,35.8411214953271 2577.5,33.50467289719626 2575.0,33.50467289719626 2575.0,28.83177570093458 2572.5,28.83177570093458 2572.5,20.42056074766355 2570.0,20.42056074766355 2570.0,19.953271028037385 2567.5,19.953271028037385 2567.5,9.67289719626168 2565.0,9.67289719626168 2565.0,9.205607476635514 2562.5,9.205607476635514 2562.5,7.803738317757009 2540.0,7.803738317757009 2540.0,7.803738317757009 2517.5,7.803738317757009 2517.5,9.205607476635514 2515.0,9.205607476635514 2515.0,9.67289719626168 2512.5,9.67289719626168 2512.5,19.953271028037385 2510.0,19.953271028037385 2510.0,20.42056074766355 2507.5,20.42056074766355 2507.5,28.83177570093458 2505.0,28.83177570093458 2505.0,33.50467289719626 2502.5,33.50467289719626 2502.5,35.8411214953271 2500.0,35.8411214953271 2500.0,52.19626168224299 2495.0,52.19626168224299 2495.0,55.0 2495.0,55.0 2495.0,57.80373831775701 2500.0,57.80373831775701 2500.0,74.1588785046729 2502.5,74.1588785046729 2502.5,76.49532710280374 2505.0,76.49532710280374 2505.0,81.16822429906543 2507.5,81.16822429906543 2507.5,89.57943925233644 2510.0,89.57943925233644 2510.0,90.04672897196261 2512.5,90.04672897196261 2512.5,100.32710280373831 2515.0,100.32710280373831 2515.0,100.79439252336448 2517.5,100.79439252336448 2517.5,102.19626168224299 2540.0,102.19626168224299 2540.0,102.19626168224299 2562.5,102.19626168224299 2562.5,100.79439252336448 2565.0,100.79439252336448 2565.0,100.32710280373831 2567.5,100.32710280373831 2567.5,90.04672897196261 2570.0,90.04672897196261 2570.0,89.57943925233644 2572.5,89.57943925233644 2572.5,81.16822429906543 2575.0,81.16822429906543 2575.0,76.49532710280374 2577.5,76.49532710280374 2577.5,74.1588785046729 2580.0,74.1588785046729 2580.0,57.80373831775701 2585.0,57.80373831775701 2585.0,55.0" stroke="rgb(0,0,0)" /><text fill="black" x="2495.0" y="122.19624999999999">E119</text><polygon fill="rgb(255,150,150)" points="2690.0,55.0 2690.0,54.532710280373834 2685.0,54.532710280373834 2685.0,51.26168224299065 2682.5,51.26168224299065 2682.5,45.18691588785047 2680.0,45.18691588785047 2680.0,35.373831775700936 2677.5,35.373831775700936 2677.5,10.140186915887853 2675.0,10.140186915887853 2675.0,5.0 2652.5,5.0 2652.5,5.0 2630.0,5.0 2630.0,10.140186915887853 2627.5,10.140186915887853 2627.5,35.373831775700936 2625.0,35.373831775700936 2625.0,45.18691588785047 2622.5,45.18691588785047 2622.5,51.26168224299065 2620.0,51.26168224299065 2620.0,54.532710280373834 2615.0,54.532710280373834 2615.0,55.0 2615.0,55.0 2615.0,55.467289719626166 2620.0,55.467289719626166 2620.0,58.73831775700935 2622.5,58.73831775700935 2622.5,64.81308411214954 2625.0,64.81308411214954 2625.0,74.62616822429906 2627.5,74.62616822429906 2627.5,99.85981308411215 2630.0,99.85981308411215 2630.0,105.0 2652.5,105.0 2652.5,105.0 2675.0,105.0 2675.0,99.85981308411215 2677.5,99.85981308411215 2677.5,74.62616822429906 2680.0,74.62616822429906 2680.0,64.81308411214954 2682.5,64.81308411214954 2682.5,58.73831775700935 2685.0,58.73831775700935 2685.0,55.467289719626166 2690.0,55.467289719626166 2690.0,55.0" stroke="rgb(0,0,0)" /><text fill="black" x="2615.0" y="125.0">E121</text><polygon fill="rgb(150,255,255)" points="2725.0,55.0 2725.0,38.177570093457945 2722.5,38.177570093457945 2722.5,38.177570093457945 2720.0,38.177570093457945 2720.0,55.0 2720.0,55.0 2720.0,71.82242990654206 2722.5,71.82242990654206 2722.5,71.82242990654206 2725.0,71.82242990654206 2725.0,55.0" stroke="rgb(0,0,0)" /><text fill="black" x="2720.0" y="91.82245">E122</text><polygon fill="rgb(150,150,150)" points="2785.0,55.0 2785.0,48.925233644859816 2780.0,48.925233644859816 2780.0,47.05607476635514 2777.5,47.05607476635514 2777.5,43.3177570093458 2770.0,43.3177570093458 2770.0,43.3177570093458 2762.5,43.3177570093458 2762.5,47.05607476635514 2760.0,47.05607476635514 2760.0,48.925233644859816 2755.0,48.925233644859816 2755.0,55.0 2755.0,55.0 2755.0,61.074766355140184 2760.0,61.074766355140184 2760.0,62.94392523364486 2762.5,62.94392523364486 2762.5,66.6822429906542 2770.0,66.6822429906542 2770.0,66.6822429906542 2777.5,66.6822429906542 2777.5,62.94392523364486 2780.0,62.94392523364486 2780.0,61.074766355140184 2785.0,61.074766355140184 2785.0,55.0" stroke="rgb(0,0,0)" /><text fill="black" x="2755.0" y="86.68225">H124</text><polygon fill="rgb(255,150,150)" points="2900.0,55.0 2900.0,54.532710280373834 2897.5,54.532710280373834 2897.5,54.06542056074766 2895.0,54.06542056074766 2895.0,52.66355140186916 2892.5,52.66355140186916 2892.5,47.99065420560748 2890.0,47.99065420560748 2890.0,38.64485981308411 2887.5,38.64485981308411 2887.5,37.242990654205606 2885.0,37.242990654205606 2885.0,35.373831775700936 2882.5,35.373831775700936 2882.5,7.803738317757009 2880.0,7.803738317757009 2880.0,5.934579439252339 2877.5,5.934579439252339 2877.5,5.0 2857.5,5.0 2857.5,5.0 2837.5,5.0 2837.5,5.934579439252339 2835.0,5.934579439252339 2835.0,7.803738317757009 2832.5,7.803738317757009 2832.5,35.373831775700936 2830.0,35.373831775700936 2830.0,37.242990654205606 2827.5,37.242990654205606 2827.5,38.64485981308411 2825.0,38.64485981308411 2825.0,47.99065420560748 2822.5,47.99065420560748 2822.5,52.66355140186916 2820.0,52.66355140186916 2820.0,54.06542056074766 2817.5,54.06542056074766 2817.5,54.532710280373834 2815.0,54.532710280373834 2815.0,55.0 2815.0,55.0 2815.0,55.467289719626166 2817.5,55.467289719626166 2817.5,55.93457943925234 2820.0,55.93457943925234 2820.0,57.33644859813084 2822.5,57.33644859813084 2822.5,62.00934579439252 2825.0,62.00934579439252 2825.0,71.35514018691589 2827.5,71.35514018691589 2827.5,72.75700934579439 2830.0,72.75700934579439 2830.0,74.62616822429906 2832.5,74.62616822429906 2832.5,102.19626168224299 2835.0,102.19626168224299 2835.0,104.06542056074767 2837.5,104.06542056074767 2837.5,105.0 2857.5,105.0 2857.5,105.0 2877.5,105.0 2877.5,104.06542056074767 2880.0,104.06542056074767 2880.0,102.19626168224299 2882.5,102.19626168224299 2882.5,74.62616822429906 2885.0,74.62616822429906 2885.0,72.75700934579439 2887.5,72.75700934579439 2887.5,71.35514018691589 2890.0,71.35514018691589 2890.0,62.00934579439252 2892.5,62.00934579439252 2892.5,57.33644859813084 2895.0,57.33644859813084 2895.0,55.93457943925234 2897.5,55.93457943925234 2897.5,55.467289719626166 2900.0,55.467289719626166 2900.0,55.0" stroke="rgb(0,0,0)" /><text fill="black" x="2815.0" y="125.0">E126</text><path d="M 110.0,55.0 a 145.36497983734898,145.36497983734898 0 0,0 -92.5,-0.0" stroke="rgb(255,150,150)" stroke-width="2" /><path d="M 110.0,55.0 a 145.36497983734898,145.36497983734898 0 0,0 -92.5,-0.0" stroke="rgb(0,0,0)" stroke-width="0.2" /><path d="M 320.0,55.0 a 384.8236122284795,384.8236122284795 0 0,0 -210.0,-0.0" stroke="rgb(255,150,150)" stroke-width="2" /><path d="M 320.0,55.0 a 384.8236122284795,384.8236122284795 0 0,0 -210.0,-0.0" stroke="rgb(0,0,0)" stroke-width="0.2" /><path d="M 2857.5,55.0 a 20806.912857876872,20806.912857876872 0 0,0 -2747.5,-0.0" stroke="rgb(255,150,150)" stroke-width="2" /><path d="M 2857.5,55.0 a 20806.912857876872,20806.912857876872 0 0,0 -2747.5,-0.0" stroke="rgb(0,0,0)" stroke-width="0.2" /><path d="M 242.5,55.0 a 14005.681818181818,14005.681818181818 0 0,0 2480.0,-0.0" stroke="rgb(150,255,255)" stroke-width="2" /><path d="M 242.5,55.0 a 14005.681818181818,14005.681818181818 0 0,0 2480.0,-0.0" stroke="rgb(0,0,0)" stroke-width="0.2" /><path d="M 437.5,55.0 a 191.1572342519685,191.1572342519685 0 0,0 -117.5,-0.0" stroke="rgb(255,150,150)" stroke-width="2" /><path d="M 437.5,55.0 a 191.1572342519685,191.1572342519685 0 0,0 -117.5,-0.0" stroke="rgb(0,0,0)" stroke-width="0.2" /><path d="M 547.5,55.0 a 177.12771345875547,177.12771345875547 0 0,0 -110.0,-0.0" stroke="rgb(255,150,150)" stroke-width="2" /><path d="M 547.5,55.0 a 177.12771345875547,177.12771345875547 0 0,0 -110.0,-0.0" stroke="rgb(0,0,0)" stroke-width="0.2" /><path d="M 697.5,55.0 a 254.8475003109066,254.8475003109066 0 0,0 -150.0,-0.0" stroke="rgb(255,150,150)" stroke-width="2" /><path d="M 697.5,55.0 a 254.8475003109066,254.8475003109066 0 0,0 -150.0,-0.0" stroke="rgb(0,0,0)" stroke-width="0.2" /><path d="M 1075.0,55.0 a 833.1801569094704,833.1801569094704 0 0,0 -377.5,-0.0" stroke="rgb(255,150,150)" stroke-width="2" /><path d="M 1075.0,55.0 a 833.1801569094704,833.1801569094704 0 0,0 -377.5,-0.0" stroke="rgb(0,0,0)" stroke-width="0.2" /><path d="M 1007.5,55.0 a 443.7379122103387,443.7379122103387 0 0,0 -235.0,-0.0" stroke="rgb(255,150,255)" stroke-width="2" /><path d="M 1007.5,55.0 a 443.7379122103387,443.7379122103387 0 0,0 -235.0,-0.0" stroke="rgb(0,0,0)" stroke-width="0.2" /><path d="M 1210.0,55.0 a 224.86687404773997,224.86687404773997 0 0,0 -135.0,-0.0" stroke="rgb(255,150,150)" stroke-width="2" /><path d="M 1210.0,55.0 a 224.86687404773997,224.86687404773997 0 0,0 -135.0,-0.0" stroke="rgb(0,0,0)" stroke-width="0.2" /><path d="M 1497.5,55.0 a 576.5891345449312,576.5891345449312 0 0,0 -287.5,-0.0" stroke="rgb(255,150,150)" stroke-width="2" /><path d="M 1497.5,55.0 a 576.5891345449312,576.5891345449312 0 0,0 -287.5,-0.0" stroke="rgb(0,0,0)" stroke-width="0.2" /><path d="M 1420.0,55.0 a 239.73171962367283,239.73171962367283 0 0,0 -142.5,-0.0" stroke="rgb(150,255,150)" stroke-width="2" /><path d="M 1420.0,55.0 a 239.73171962367283,239.73171962367283 0 0,0 -142.5,-0.0" stroke="rgb(0,0,0)" stroke-width="0.2" /><path d="M 1602.5,55.0 a 167.91372912801484,167.91372912801484 0 0,0 -105.0,-0.0" stroke="rgb(255,150,150)" stroke-width="2" /><path d="M 1602.5,55.0 a 167.91372912801484,167.91372912801484 0 0,0 -105.0,-0.0" stroke="rgb(0,0,0)" stroke-width="0.2" /><path d="M 1822.5,55.0 a 408.0530586766542,408.0530586766542 0 0,0 -220.0,-0.0" stroke="rgb(255,150,150)" stroke-width="2" /><path d="M 1822.5,55.0 a 408.0530586766542,408.0530586766542 0 0,0 -220.0,-0.0" stroke="rgb(0,0,0)" stroke-width="0.2" /><path d="M 1740.0,55.0 a 377.62784090909093,377.62784090909093 0 0,0 392.5,-0.0" stroke="rgb(150,150,255)" stroke-width="2" /><path d="M 1740.0,55.0 a 377.62784090909093,377.62784090909093 0 0,0 392.5,-0.0" stroke="rgb(0,0,0)" stroke-width="0.2" /><path d="M 1930.0,55.0 a 172.50682272067078,172.50682272067078 0 0,0 -107.5,-0.0" stroke="rgb(255,150,150)" stroke-width="2" /><path d="M 1930.0,55.0 a 172.50682272067078,172.50682272067078 0 0,0 -107.5,-0.0" stroke="rgb(0,0,0)" stroke-width="0.2" /><path d="M 2215.0,55.0 a 569.9820491287004,569.9820491287004 0 0,0 -285.0,-0.0" stroke="rgb(255,150,150)" stroke-width="2" /><path d="M 2215.0,55.0 a 569.9820491287004,569.9820491287004 0 0,0 -285.0,-0.0" stroke="rgb(0,0,0)" stroke-width="0.2" /><path d="M 2132.5,55.0 a 205.43716198815352,205.43716198815352 0 0,0 -125.0,-0.0" stroke="rgb(150,150,255)" stroke-width="2" /><path d="M 2132.5,55.0 a 205.43716198815352,205.43716198815352 0 0,0 -125.0,-0.0" stroke="rgb(0,0,0)" stroke-width="0.2" /><path d="M 2372.5,55.0 a 270.2143607281344,270.2143607281344 0 0,0 -157.5,-0.0" stroke="rgb(255,150,150)" stroke-width="2" /><path d="M 2372.5,55.0 a 270.2143607281344,270.2143607281344 0 0,0 -157.5,-0.0" stroke="rgb(0,0,0)" stroke-width="0.2" /><path d="M 2540.0,55.0 a 291.0943155249894,291.0943155249894 0 0,0 -167.5,-0.0" stroke="rgb(255,150,150)" stroke-width="2" /><path d="M 2540.0,55.0 a 291.0943155249894,291.0943155249894 0 0,0 -167.5,-0.0" stroke="rgb(0,0,0)" stroke-width="0.2" /><path d="M 2652.5,55.0 a 181.77640796028052,181.77640796028052 0 0,0 -112.5,-0.0" stroke="rgb(255,150,150)" stroke-width="2" /><path d="M 2652.5,55.0 a 181.77640796028052,181.77640796028052 0 0,0 -112.5,-0.0" stroke="rgb(0,0,0)" stroke-width="0.2" /><path d="M 2857.5,55.0 a 373.3769373120518,373.3769373120518 0 0,0 -205.0,-0.0" stroke="rgb(255,150,150)" stroke-width="2" /><path d="M 2857.5,55.0 a 373.3769373120518,373.3769373120518 0 0,0 -205.0,-0.0" stroke="rgb(0,0,0)" stroke-width="0.2" /></svg>