<?xml version="1.0" encoding="utf-8" ?>
<svg baseProfile="full" height="100%" style="font-size:14;font-family:Sans, Arial;stroke-width:1;fill:none" version="1.1" width="100%" xmlns="http://www.w3.org/2000/svg" xmlns:ev="http://www.w3.org/2001/xml-events" xmlns:xlink="http://www.w3.org/1999/xlink"><defs /><rect fill="none" height="150.0" stroke="none" width="363.782" x="0" y="0" /><line stroke="rgb(0,0,0)" x1="5.0" x2="91.0315" y1="75.0" y2="75.0" /><line stroke="rgb(0,0,0)" x1="91.0315" x2="101.0315" y1="75.0" y2="75.0" /><line stroke="rgb(0,0,0)" x1="101.0315" x2="106.0315" y1="75.0" y2="75.0" /><line stroke="rgb(0,0,0)" x1="106.0315" x2="131.0315" y1="75.0" y2="75.0" /><line stroke="rgb(0,0,0)" x1="131.0315" x2="141.0315" y1="75.0" y2="75.0" /><line stroke="rgb(0,0,0)" x1="141.0315" x2="146.0315" y1="75.0" y2="75.0" /><line stroke="rgb(0,0,0)" x1="146.0315" x2="222.14249999999998" y1="75.0" y2="75.0" /><line stroke="rgb(0,0,0)" x1="222.14249999999998" x2="232.14249999999998" y1="75.0" y2="75.0" /><line stroke="rgb(0,0,0)" x1="232.14249999999998" x2="237.14249999999998" y1="75.0" y2="75.0" /><rect fill="rgb(149,117,255)" height="100.0" stroke="rgb(0,0,0)" width="81.0315" x="5.0" y="25.0" /><text fill="black" x="5.0" y="145.0">H2</text><rect fill="rgb(255,193,246)" height="23.8095" stroke="rgb(0,0,0)" width="20.0" x="106.0315" y="63.09525" /><text fill="black" x="106.0315" y="106.90475">H3</text><rect fill="rgb(125,98,255)" height="100.0" stroke="rgb(0,0,0)" width="71.111" x="146.0315" y="25.0" /><text fill="black" x="146.0315" y="145.0">H4</text><rect fill="rgb(255,166,211)" height="96.8254" stroke="rgb(0,0,0)" width="121.6395" x="237.14249999999998" y="26.5873" /><text fill="black" x="237.14249999999998" y="143.4127">H6</text></svg>