<?xml version="1.0" encoding="utf-8" ?>
<svg baseProfile="full" height="100%" style="font-size:14;font-family:Sans, Arial;stroke-width:1;fill:none" version="1.1" width="100%" xmlns="http://www.w3.org/2000/svg" xmlns:ev="http://www.w3.org/2001/xml-events" xmlns:xlink="http://www.w3.org/1999/xlink"><defs /><rect fill="none" height="150.0" stroke="none" width="543.782" x="0" y="0" /><line stroke="rgb(0,0,0)" x1="5.0" x2="31.66665" y1="75.0" y2="75.0" /><line stroke="rgb(0,0,0)" x1="31.66665" x2="41.666650000000004" y1="75.0" y2="75.0" /><line stroke="rgb(0,0,0)" x1="41.666650000000004" x2="46.666650000000004" y1="75.0" y2="75.0" /><line stroke="rgb(0,0,0)" x1="46.666650000000004" x2="66.66665" y1="75.0" y2="75.0" /><line stroke="rgb(0,0,0)" x1="66.66665" x2="76.66665" y1="75.0" y2="75.0" /><line stroke="rgb(0,0,0)" x1="76.66665" x2="81.66665" y1="75.0" y2="75.0" /><line stroke="rgb(0,0,0)" x1="81.66665" x2="167.69815" y1="75.0" y2="75.0" /><line stroke="rgb(0,0,0)" x1="167.69815" x2="177.69815" y1="75.0" y2="75.0" /><line stroke="rgb(0,0,0)" x1="177.69815" x2="182.69815" y1="75.0" y2="75.0" /><line stroke="rgb(0,0,0)" x1="182.69815" x2="207.69815" y1="75.0" y2="75.0" /><line stroke="rgb(0,0,0)" x1="207.69815" x2="217.69815" y1="75.0" y2="75.0" /><line stroke="rgb(0,0,0)" x1="217.69815" x2="222.69815" y1="75.0" y2="75.0" /><line stroke="rgb(0,0,0)" x1="222.69815" x2="298.80915000000005" y1="75.0" y2="75.0" /><line stroke="rgb(0,0,0)" x1="298.80915000000005" x2="308.80915000000005" y1="75.0" y2="75.0" /><line stroke="rgb(0,0,0)" x1="308.80915000000005" x2="313.80915000000005" y1="75.0" y2="75.0" /><line stroke="rgb(0,0,0)" x1="313.80915000000005" x2="352.1425" y1="75.0" y2="75.0" /><line stroke="rgb(0,0,0)" x1="352.1425" x2="362.1425" y1="75.0" y2="75.0" /><line stroke="rgb(0,0,0)" x1="362.1425" x2="367.1425" y1="75.0" y2="75.0" /><line stroke="rgb(0,0,0)" x1="367.1425" x2="493.782" y1="75.0" y2="75.0" /><line stroke="rgb(0,0,0)" x1="493.782" x2="503.782" y1="75.0" y2="75.0" /><line stroke="rgb(0,0,0)" x1="503.782" x2="508.782" y1="75.0" y2="75.0" /><rect fill="rgb(255,188,239)" height="4.7619" stroke="rgb(0,0,0)" width="21.66665" x="5.0" y="72.61905" /><text fill="black" x="5.0" y="97.38095">H0</text><rect fill="rgb(255,40,51)" height="3.1746000000000003" stroke="rgb(0,0,0)" width="15.0" x="46.666650000000004" y="73.4127" /><text fill="black" x="46.666650000000004" y="96.5873">H1</text><rect fill="rgb(149,117,255)" height="100.0" stroke="rgb(0,0,0)" width="81.0315" x="81.66665" y="25.0" /><text fill="black" x="81.66665" y="145.0">H2</text><rect fill="rgb(255,193,246)" height="23.8095" stroke="rgb(0,0,0)" width="20.0" x="182.69815" y="63.09525" /><text fill="black" x="182.69815" y="106.90475">H3</text><rect fill="rgb(125,98,255)" height="100.0" stroke="rgb(0,0,0)" width="71.111" x="222.69815" y="25.0" /><text fill="black" x="222.69815" y="145.0">H4</text><rect fill="rgb(255,100,127)" height="4.7619" stroke="rgb(0,0,0)" width="33.333349999999996" x="313.80915000000005" y="72.61905" /><text fill="black" x="313.80915000000005" y="97.38095">H5</text><rect fill="rgb(255,166,211)" height="96.8254" stroke="rgb(0,0,0)" width="121.6395" x="367.1425" y="26.5873" /><text fill="black" x="367.1425" y="143.4127">H6</text><rect fill="rgb(255,8,10)" height="15.873000000000001" stroke="rgb(0,0,0)" width="30.0" x="508.782" y="67.0635" /><text fill="black" x="508.782" y="102.9365">H7</text></svg>