<?xml version="1.0" encoding="utf-8" ?>
<svg baseProfile="full" height="100%" style="font-size:14;font-family:Sans, Arial;stroke-width:1;fill:none" version="1.1" width="100%" xmlns="http://www.w3.org/2000/svg" xmlns:ev="http://www.w3.org/2001/xml-events" xmlns:xlink="http://www.w3.org/1999/xlink"><defs /><rect fill="none" height="130.0" stroke="none" width="500.0" x="0" y="0" /><line stroke="rgb(0,0,0)" x1="5.0" x2="100.0" y1="55.0" y2="55.0" /><line stroke="rgb(0,0,0)" x1="100.0" x2="120.0" y1="55.0" y2="55.0" /><line stroke="rgb(0,0,0)" x1="120.0" x2="125.0" y1="55.0" y2="55.0" /><line stroke="rgb(0,0,0)" x1="125.0" x2="170.0" y1="55.0" y2="55.0" /><line stroke="rgb(0,0,0)" x1="170.0" x2="190.0" y1="55.0" y2="55.0" /><line stroke="rgb(0,0,0)" x1="190.0" x2="195.0" y1="55.0" y2="55.0" /><line stroke="rgb(0,0,0)" x1="195.0" x2="310.0" y1="55.0" y2="55.0" /><line stroke="rgb(0,0,0)" x1="310.0" x2="330.0" y1="55.0" y2="55.0" /><line stroke="rgb(0,0,0)" x1="330.0" x2="335.0" y1="55.0" y2="55.0" /><polygon fill="rgb(150,150,150)" points="95.0,55.0 95.0,53.41269841269841 92.5,53.41269841269841 92.5,14.523809523809526 90.0,14.523809523809526 90.0,12.142857142857139 87.5,12.142857142857139 87.5,11.349206349206348 82.5,11.349206349206348 82.5,10.555555555555557 80.0,10.555555555555557 80.0,7.380952380952387 75.0,7.380952380952387 75.0,6.587301587301589 72.5,6.587301587301589 72.5,5.0 50.0,5.0 50.0,5.0 27.5,5.0 27.5,6.587301587301589 25.0,6.587301587301589 25.0,7.380952380952387 20.0,7.380952380952387 20.0,10.555555555555557 17.5,10.555555555555557 17.5,11.349206349206348 12.5,11.349206349206348 12.5,12.142857142857139 10.0,12.142857142857139 10.0,14.523809523809526 7.5,14.523809523809526 7.5,53.41269841269841 5.0,53.41269841269841 5.0,55.0 5.0,55.0 5.0,56.58730158730159 7.5,56.58730158730159 7.5,95.47619047619048 10.0,95.47619047619048 10.0,97.85714285714286 12.5,97.85714285714286 12.5,98.65079365079364 17.5,98.65079365079364 17.5,99.44444444444444 20.0,99.44444444444444 20.0,102.61904761904762 25.0,102.61904761904762 25.0,103.4126984126984 27.5,103.4126984126984 27.5,105.0 50.0,105.0 50.0,105.0 72.5,105.0 72.5,103.4126984126984 75.0,103.4126984126984 75.0,102.61904761904762 80.0,102.61904761904762 80.0,99.44444444444444 82.5,99.44444444444444 82.5,98.65079365079364 87.5,98.65079365079364 87.5,97.85714285714286 90.0,97.85714285714286 90.0,95.47619047619048 92.5,95.47619047619048 92.5,56.58730158730159 95.0,56.58730158730159 95.0,55.0" stroke="rgb(0,0,0)" /><text fill="black" x="5.0" y="125.0">H2</text><polygon fill="rgb(150,150,150)" points="165.0,55.0 165.0,53.41269841269841 160.0,53.41269841269841 160.0,52.61904761904761 157.5,52.61904761904761 157.5,51.82539682539682 152.5,51.82539682539682 152.5,43.095238095238095 145.0,43.095238095238095 145.0,43.095238095238095 137.5,43.095238095238095 137.5,51.82539682539682 132.5,51.82539682539682 132.5,52.61904761904761 130.0,52.61904761904761 130.0,53.41269841269841 125.0,53.41269841269841 125.0,55.0 125.0,55.0 125.0,56.58730158730159 130.0,56.58730158730159 130.0,57.38095238095239 132.5,57.38095238095239 132.5,58.17460317460318 137.5,58.17460317460318 137.5,66.90476190476191 145.0,66.90476190476191 145.0,66.90476190476191 152.5,66.90476190476191 152.5,58.17460317460318 157.5,58.17460317460318 157.5,57.38095238095239 160.0,57.38095238095239 160.0,56.58730158730159 165.0,56.58730158730159 165.0,55.0" stroke="rgb(0,0,0)" /><text fill="black" x="125.0" y="86.90475">H3</text><polygon fill="rgb(150,150,150)" points="305.0,55.0 305.0,54.2063492063492 287.5,54.2063492063492 287.5,45.476190476190474 285.0,45.476190476190474 285.0,7.380952380952387 282.5,7.380952380952387 282.5,6.587301587301589 280.0,6.587301587301589 280.0,5.0 250.0,5.0 250.0,5.0 220.0,5.0 220.0,6.587301587301589 217.5,6.587301587301589 217.5,7.380952380952387 215.0,7.380952380952387 215.0,45.476190476190474 212.5,45.476190476190474 212.5,54.2063492063492 195.0,54.2063492063492 195.0,55.0 195.0,55.0 195.0,55.7936507936508 212.5,55.7936507936508 212.5,64.52380952380952 215.0,64.52380952380952 215.0,102.61904761904762 217.5,102.61904761904762 217.5,103.4126984126984 220.0,103.4126984126984 220.0,105.0 250.0,105.0 250.0,105.0 280.0,105.0 280.0,103.4126984126984 282.5,103.4126984126984 282.5,102.61904761904762 285.0,102.61904761904762 285.0,64.52380952380952 287.5,64.52380952380952 287.5,55.7936507936508 305.0,55.7936507936508 305.0,55.0" stroke="rgb(0,0,0)" /><text fill="black" x="195.0" y="125.0">H4</text><polygon fill="rgb(150,150,150)" points="495.0,55.0 495.0,54.2063492063492 492.5,54.2063492063492 492.5,53.41269841269841 487.5,53.41269841269841 487.5,50.23809523809524 485.0,50.23809523809524 485.0,45.476190476190474 482.5,45.476190476190474 482.5,40.714285714285715 480.0,40.714285714285715 480.0,37.539682539682545 477.5,37.539682539682545 477.5,31.984126984126984 475.0,31.984126984126984 475.0,27.22222222222222 472.5,27.22222222222222 472.5,24.84126984126984 470.0,24.84126984126984 470.0,11.349206349206348 467.5,11.349206349206348 467.5,10.555555555555557 465.0,10.555555555555557 465.0,9.76190476190476 460.0,9.76190476190476 460.0,7.380952380952387 450.0,7.380952380952387 450.0,6.587301587301589 415.0,6.587301587301589 415.0,6.587301587301589 380.0,6.587301587301589 380.0,7.380952380952387 370.0,7.380952380952387 370.0,9.76190476190476 365.0,9.76190476190476 365.0,10.555555555555557 362.5,10.555555555555557 362.5,11.349206349206348 360.0,11.349206349206348 360.0,24.84126984126984 357.5,24.84126984126984 357.5,27.22222222222222 355.0,27.22222222222222 355.0,31.984126984126984 352.5,31.984126984126984 352.5,37.539682539682545 350.0,37.539682539682545 350.0,40.714285714285715 347.5,40.714285714285715 347.5,45.476190476190474 345.0,45.476190476190474 345.0,50.23809523809524 342.5,50.23809523809524 342.5,53.41269841269841 337.5,53.41269841269841 337.5,54.2063492063492 335.0,54.2063492063492 335.0,55.0 335.0,55.0 335.0,55.7936507936508 337.5,55.7936507936508 337.5,56.58730158730159 342.5,56.58730158730159 342.5,59.76190476190476 345.0,59.76190476190476 345.0,64.52380952380952 347.5,64.52380952380952 347.5,69.28571428571428 350.0,69.28571428571428 350.0,72.46031746031746 352.5,72.46031746031746 352.5,78.01587301587301 355.0,78.01587301587301 355.0,82.77777777777777 357.5,82.77777777777777 357.5,85.15873015873017 360.0,85.15873015873017 360.0,98.65079365079364 362.5,98.65079365079364 362.5,99.44444444444444 365.0,99.44444444444444 365.0,100.23809523809524 370.0,100.23809523809524 370.0,102.61904761904762 380.0,102.61904761904762 380.0,103.4126984126984 415.0,103.4126984126984 415.0,103.4126984126984 450.0,103.4126984126984 450.0,102.61904761904762 460.0,102.61904761904762 460.0,100.23809523809524 465.0,100.23809523809524 465.0,99.44444444444444 467.5,99.44444444444444 467.5,98.65079365079364 470.0,98.65079365079364 470.0,85.15873015873017 472.5,85.15873015873017 472.5,82.77777777777777 475.0,82.77777777777777 475.0,78.01587301587301 477.5,78.01587301587301 477.5,72.46031746031746 480.0,72.46031746031746 480.0,69.28571428571428 482.5,69.28571428571428 482.5,64.52380952380952 485.0,64.52380952380952 485.0,59.76190476190476 487.5,59.76190476190476 487.5,56.58730158730159 492.5,56.58730158730159 492.5,55.7936507936508 495.0,55.7936507936508 495.0,55.0" stroke="rgb(0,0,0)" /><text fill="black" x="335.0" y="123.4127">H6</text></svg>