<?xml version="1.0" encoding="utf-8" ?>
<svg baseProfile="full" height="100%" style="font-size:14;font-family:Sans, Arial;stroke-width:1;fill:none" version="1.1" width="100%" xmlns="http://www.w3.org/2000/svg" xmlns:ev="http://www.w3.org/2001/xml-events" xmlns:xlink="http://www.w3.org/1999/xlink"><defs /><rect fill="none" height="130.0" stroke="none" width="790.0" x="0" y="0" /><line stroke="rgb(0,0,0)" x1="5.0" x2="35.0" y1="55.0" y2="55.0" /><line stroke="rgb(0,0,0)" x1="35.0" x2="55.0" y1="55.0" y2="55.0" /><line stroke="rgb(0,0,0)" x1="55.0" x2="60.0" y1="55.0" y2="55.0" /><line stroke="rgb(0,0,0)" x1="60.0" x2="80.0" y1="55.0" y2="55.0" /><line stroke="rgb(0,0,0)" x1="80.0" x2="100.0" y1="55.0" y2="55.0" /><line stroke="rgb(0,0,0)" x1="100.0" x2="105.0" y1="55.0" y2="55.0" /><line stroke="rgb(0,0,0)" x1="105.0" x2="200.0" y1="55.0" y2="55.0" /><line stroke="rgb(0,0,0)" x1="200.0" x2="220.0" y1="55.0" y2="55.0" /><line stroke="rgb(0,0,0)" x1="220.0" x2="225.0" y1="55.0" y2="55.0" /><line stroke="rgb(0,0,0)" x1="225.0" x2="270.0" y1="55.0" y2="55.0" /><line stroke="rgb(0,0,0)" x1="270.0" x2="290.0" y1="55.0" y2="55.0" /><line stroke="rgb(0,0,0)" x1="290.0" x2="295.0" y1="55.0" y2="55.0" /><line stroke="rgb(0,0,0)" x1="295.0" x2="410.0" y1="55.0" y2="55.0" /><line stroke="rgb(0,0,0)" x1="410.0" x2="430.0" y1="55.0" y2="55.0" /><line stroke="rgb(0,0,0)" x1="430.0" x2="435.0" y1="55.0" y2="55.0" /><line stroke="rgb(0,0,0)" x1="435.0" x2="500.0" y1="55.0" y2="55.0" /><line stroke="rgb(0,0,0)" x1="500.0" x2="520.0" y1="55.0" y2="55.0" /><line stroke="rgb(0,0,0)" x1="520.0" x2="525.0" y1="55.0" y2="55.0" /><line stroke="rgb(0,0,0)" x1="525.0" x2="690.0" y1="55.0" y2="55.0" /><line stroke="rgb(0,0,0)" x1="690.0" x2="710.0" y1="55.0" y2="55.0" /><line stroke="rgb(0,0,0)" x1="710.0" x2="715.0" y1="55.0" y2="55.0" /><polygon fill="rgb(150,150,150)" points="30.0,55.0 30.0,54.2063492063492 27.5,54.2063492063492 27.5,52.61904761904761 17.5,52.61904761904761 17.5,52.61904761904761 7.5,52.61904761904761 7.5,54.2063492063492 5.0,54.2063492063492 5.0,55.0 5.0,55.0 5.0,55.7936507936508 7.5,55.7936507936508 7.5,57.38095238095239 17.5,57.38095238095239 17.5,57.38095238095239 27.5,57.38095238095239 27.5,55.7936507936508 30.0,55.7936507936508 30.0,55.0" stroke="rgb(0,0,0)" /><text fill="black" x="5.0" y="77.38095">H0</text><polygon fill="rgb(150,150,150)" points="75.0,55.0 75.0,53.41269841269841 67.5,53.41269841269841 67.5,53.41269841269841 60.0,53.41269841269841 60.0,55.0 60.0,55.0 60.0,56.58730158730159 67.5,56.58730158730159 67.5,56.58730158730159 75.0,56.58730158730159 75.0,55.0" stroke="rgb(0,0,0)" /><text fill="black" x="60.0" y="76.5873">H1</text><polygon fill="rgb(150,150,150)" points="195.0,55.0 195.0,53.41269841269841 192.5,53.41269841269841 192.5,14.523809523809526 190.0,14.523809523809526 190.0,12.142857142857139 187.5,12.142857142857139 187.5,11.349206349206348 182.5,11.349206349206348 182.5,10.555555555555557 180.0,10.555555555555557 180.0,7.380952380952387 175.0,7.380952380952387 175.0,6.587301587301589 172.5,6.587301587301589 172.5,5.0 150.0,5.0 150.0,5.0 127.5,5.0 127.5,6.587301587301589 125.0,6.587301587301589 125.0,7.380952380952387 120.0,7.380952380952387 120.0,10.555555555555557 117.5,10.555555555555557 117.5,11.349206349206348 112.5,11.349206349206348 112.5,12.142857142857139 110.0,12.142857142857139 110.0,14.523809523809526 107.5,14.523809523809526 107.5,53.41269841269841 105.0,53.41269841269841 105.0,55.0 105.0,55.0 105.0,56.58730158730159 107.5,56.58730158730159 107.5,95.47619047619048 110.0,95.47619047619048 110.0,97.85714285714286 112.5,97.85714285714286 112.5,98.65079365079364 117.5,98.65079365079364 117.5,99.44444444444444 120.0,99.44444444444444 120.0,102.61904761904762 125.0,102.61904761904762 125.0,103.4126984126984 127.5,103.4126984126984 127.5,105.0 150.0,105.0 150.0,105.0 172.5,105.0 172.5,103.4126984126984 175.0,103.4126984126984 175.0,102.61904761904762 180.0,102.61904761904762 180.0,99.44444444444444 182.5,99.44444444444444 182.5,98.65079365079364 187.5,98.65079365079364 187.5,97.85714285714286 190.0,97.85714285714286 190.0,95.47619047619048 192.5,95.47619047619048 192.5,56.58730158730159 195.0,56.58730158730159 195.0,55.0" stroke="rgb(0,0,0)" /><text fill="black" x="105.0" y="125.0">H2</text><polygon fill="rgb(150,150,150)" points="265.0,55.0 265.0,53.41269841269841 260.0,53.41269841269841 260.0,52.61904761904761 257.5,52.61904761904761 257.5,51.82539682539682 252.5,51.82539682539682 252.5,43.095238095238095 245.0,43.095238095238095 245.0,43.095238095238095 237.5,43.095238095238095 237.5,51.82539682539682 232.5,51.82539682539682 232.5,52.61904761904761 230.0,52.61904761904761 230.0,53.41269841269841 225.0,53.41269841269841 225.0,55.0 225.0,55.0 225.0,56.58730158730159 230.0,56.58730158730159 230.0,57.38095238095239 232.5,57.38095238095239 232.5,58.17460317460318 237.5,58.17460317460318 237.5,66.90476190476191 245.0,66.90476190476191 245.0,66.90476190476191 252.5,66.90476190476191 252.5,58.17460317460318 257.5,58.17460317460318 257.5,57.38095238095239 260.0,57.38095238095239 260.0,56.58730158730159 265.0,56.58730158730159 265.0,55.0" stroke="rgb(0,0,0)" /><text fill="black" x="225.0" y="86.90475">H3</text><polygon fill="rgb(150,150,150)" points="405.0,55.0 405.0,54.2063492063492 387.5,54.2063492063492 387.5,45.476190476190474 385.0,45.476190476190474 385.0,7.380952380952387 382.5,7.380952380952387 382.5,6.587301587301589 380.0,6.587301587301589 380.0,5.0 350.0,5.0 350.0,5.0 320.0,5.0 320.0,6.587301587301589 317.5,6.587301587301589 317.5,7.380952380952387 315.0,7.380952380952387 315.0,45.476190476190474 312.5,45.476190476190474 312.5,54.2063492063492 295.0,54.2063492063492 295.0,55.0 295.0,55.0 295.0,55.7936507936508 312.5,55.7936507936508 312.5,64.52380952380952 315.0,64.52380952380952 315.0,102.61904761904762 317.5,102.61904761904762 317.5,103.4126984126984 320.0,103.4126984126984 320.0,105.0 350.0,105.0 350.0,105.0 380.0,105.0 380.0,103.4126984126984 382.5,103.4126984126984 382.5,102.61904761904762 385.0,102.61904761904762 385.0,64.52380952380952 387.5,64.52380952380952 387.5,55.7936507936508 405.0,55.7936507936508 405.0,55.0" stroke="rgb(0,0,0)" /><text fill="black" x="295.0" y="125.0">H4</text><polygon fill="rgb(150,150,150)" points="495.0,55.0 495.0,54.2063492063492 475.0,54.2063492063492 475.0,52.61904761904761 465.0,52.61904761904761 465.0,52.61904761904761 455.0,52.61904761904761 455.0,54.2063492063492 435.0,54.2063492063492 435.0,55.0 435.0,55.0 435.0,55.7936507936508 455.0,55.7936507936508 455.0,57.38095238095239 465.0,57.38095238095239 465.0,57.38095238095239 475.0,57.38095238095239 475.0,55.7936507936508 495.0,55.7936507936508 495.0,55.0" stroke="rgb(0,0,0)" /><text fill="black" x="435.0" y="77.38095">H5</text><polygon fill="rgb(150,150,150)" points="685.0,55.0 685.0,54.2063492063492 682.5,54.2063492063492 682.5,53.41269841269841 677.5,53.41269841269841 677.5,50.23809523809524 675.0,50.23809523809524 675.0,45.476190476190474 672.5,45.476190476190474 672.5,40.714285714285715 670.0,40.714285714285715 670.0,37.539682539682545 667.5,37.539682539682545 667.5,31.984126984126984 665.0,31.984126984126984 665.0,27.22222222222222 662.5,27.22222222222222 662.5,24.84126984126984 660.0,24.84126984126984 660.0,11.349206349206348 657.5,11.349206349206348 657.5,10.555555555555557 655.0,10.555555555555557 655.0,9.76190476190476 650.0,9.76190476190476 650.0,7.380952380952387 640.0,7.380952380952387 640.0,6.587301587301589 605.0,6.587301587301589 605.0,6.587301587301589 570.0,6.587301587301589 570.0,7.380952380952387 560.0,7.380952380952387 560.0,9.76190476190476 555.0,9.76190476190476 555.0,10.555555555555557 552.5,10.555555555555557 552.5,11.349206349206348 550.0,11.349206349206348 550.0,24.84126984126984 547.5,24.84126984126984 547.5,27.22222222222222 545.0,27.22222222222222 545.0,31.984126984126984 542.5,31.984126984126984 542.5,37.539682539682545 540.0,37.539682539682545 540.0,40.714285714285715 537.5,40.714285714285715 537.5,45.476190476190474 535.0,45.476190476190474 535.0,50.23809523809524 532.5,50.23809523809524 532.5,53.41269841269841 527.5,53.41269841269841 527.5,54.2063492063492 525.0,54.2063492063492 525.0,55.0 525.0,55.0 525.0,55.7936507936508 527.5,55.7936507936508 527.5,56.58730158730159 532.5,56.58730158730159 532.5,59.76190476190476 535.0,59.76190476190476 535.0,64.52380952380952 537.5,64.52380952380952 537.5,69.28571428571428 540.0,69.28571428571428 540.0,72.46031746031746 542.5,72.46031746031746 542.5,78.01587301587301 545.0,78.01587301587301 545.0,82.77777777777777 547.5,82.77777777777777 547.5,85.15873015873017 550.0,85.15873015873017 550.0,98.65079365079364 552.5,98.65079365079364 552.5,99.44444444444444 555.0,99.44444444444444 555.0,100.23809523809524 560.0,100.23809523809524 560.0,102.61904761904762 570.0,102.61904761904762 570.0,103.4126984126984 605.0,103.4126984126984 605.0,103.4126984126984 640.0,103.4126984126984 640.0,102.61904761904762 650.0,102.61904761904762 650.0,100.23809523809524 655.0,100.23809523809524 655.0,99.44444444444444 657.5,99.44444444444444 657.5,98.65079365079364 660.0,98.65079365079364 660.0,85.15873015873017 662.5,85.15873015873017 662.5,82.77777777777777 665.0,82.77777777777777 665.0,78.01587301587301 667.5,78.01587301587301 667.5,72.46031746031746 670.0,72.46031746031746 670.0,69.28571428571428 672.5,69.28571428571428 672.5,64.52380952380952 675.0,64.52380952380952 675.0,59.76190476190476 677.5,59.76190476190476 677.5,56.58730158730159 682.5,56.58730158730159 682.5,55.7936507936508 685.0,55.7936507936508 685.0,55.0" stroke="rgb(0,0,0)" /><text fill="black" x="525.0" y="123.4127">H6</text><polygon fill="rgb(150,150,150)" points="785.0,55.0 785.0,53.41269841269841 770.0,53.41269841269841 770.0,52.61904761904761 762.5,52.61904761904761 762.5,51.82539682539682 760.0,51.82539682539682 760.0,51.03174603174603 757.5,51.03174603174603 757.5,47.06349206349206 750.0,47.06349206349206 750.0,47.06349206349206 742.5,47.06349206349206 742.5,51.03174603174603 740.0,51.03174603174603 740.0,51.82539682539682 737.5,51.82539682539682 737.5,52.61904761904761 730.0,52.61904761904761 730.0,53.41269841269841 715.0,53.41269841269841 715.0,55.0 715.0,55.0 715.0,56.58730158730159 730.0,56.58730158730159 730.0,57.38095238095239 737.5,57.38095238095239 737.5,58.17460317460318 740.0,58.17460317460318 740.0,58.96825396825397 742.5,58.96825396825397 742.5,62.93650793650794 750.0,62.93650793650794 750.0,62.93650793650794 757.5,62.93650793650794 757.5,58.96825396825397 760.0,58.96825396825397 760.0,58.17460317460318 762.5,58.17460317460318 762.5,57.38095238095239 770.0,57.38095238095239 770.0,56.58730158730159 785.0,56.58730158730159 785.0,55.0" stroke="rgb(0,0,0)" /><text fill="black" x="715.0" y="82.9365">H7</text></svg>