<?xml version="1.0" encoding="utf-8" ?>
<svg baseProfile="full" height="100%" style="font-size:14;font-family:Sans, Arial;stroke-width:1;fill:none" version="1.1" width="100%" xmlns="http://www.w3.org/2000/svg" xmlns:ev="http://www.w3.org/2001/xml-events" xmlns:xlink="http://www.w3.org/1999/xlink"><defs /><rect fill="none" height="130.0" stroke="none" width="393.782" x="0" y="0" /><line stroke="rgb(0,0,0)" x1="5.0" x2="91.0315" y1="55.0" y2="55.0" /><line stroke="rgb(0,0,0)" x1="91.0315" x2="111.0315" y1="55.0" y2="55.0" /><line stroke="rgb(0,0,0)" x1="111.0315" x2="116.0315" y1="55.0" y2="55.0" /><line stroke="rgb(0,0,0)" x1="116.0315" x2="141.0315" y1="55.0" y2="55.0" /><line stroke="rgb(0,0,0)" x1="141.0315" x2="161.0315" y1="55.0" y2="55.0" /><line stroke="rgb(0,0,0)" x1="161.0315" x2="166.0315" y1="55.0" y2="55.0" /><line stroke="rgb(0,0,0)" x1="166.0315" x2="242.14249999999998" y1="55.0" y2="55.0" /><line stroke="rgb(0,0,0)" x1="242.14249999999998" x2="262.1425" y1="55.0" y2="55.0" /><line stroke="rgb(0,0,0)" x1="262.1425" x2="267.1425" y1="55.0" y2="55.0" /><rect fill="rgb(150,150,150)" height="100.0" stroke="rgb(0,0,0)" width="81.0315" x="5.0" y="5.0" /><text fill="black" x="5.0" y="125.0">H2</text><rect fill="rgb(150,150,150)" height="23.8095" stroke="rgb(0,0,0)" width="20.0" x="116.0315" y="43.09525" /><text fill="black" x="116.0315" y="86.90475">H3</text><rect fill="rgb(150,150,150)" height="100.0" stroke="rgb(0,0,0)" width="71.111" x="166.0315" y="5.0" /><text fill="black" x="166.0315" y="125.0">H4</text><rect fill="rgb(150,150,150)" height="96.8254" stroke="rgb(0,0,0)" width="121.6395" x="267.1425" y="6.587299999999999" /><text fill="black" x="267.1425" y="123.4127">H6</text></svg>