<?xml version="1.0" encoding="utf-8" ?>
<svg baseProfile="full" height="100%" style="font-size:14;font-family:Sans, Arial;stroke-width:1;fill:none" version="1.1" width="100%" xmlns="http://www.w3.org/2000/svg" xmlns:ev="http://www.w3.org/2001/xml-events" xmlns:xlink="http://www.w3.org/1999/xlink"><defs /><rect fill="none" height="130.0" stroke="none" width="613.782" x="0" y="0" /><line stroke="rgb(0,0,0)" x1="5.0" x2="31.66665" y1="55.0" y2="55.0" /><line stroke="rgb(0,0,0)" x1="31.66665" x2="51.666650000000004" y1="55.0" y2="55.0" /><line stroke="rgb(0,0,0)" x1="51.666650000000004" x2="56.666650000000004" y1="55.0" y2="55.0" /><line stroke="rgb(0,0,0)" x1="56.666650000000004" x2="76.66665" y1="55.0" y2="55.0" /><line stroke="rgb(0,0,0)" x1="76.66665" x2="96.66665" y1="55.0" y2="55.0" /><line stroke="rgb(0,0,0)" x1="96.66665" x2="101.66665" y1="55.0" y2="55.0" /><line stroke="rgb(0,0,0)" x1="101.66665" x2="187.69815" y1="55.0" y2="55.0" /><line stroke="rgb(0,0,0)" x1="187.69815" x2="207.69815" y1="55.0" y2="55.0" /><line stroke="rgb(0,0,0)" x1="207.69815" x2="212.69815" y1="55.0" y2="55.0" /><line stroke="rgb(0,0,0)" x1="212.69815" x2="237.69815" y1="55.0" y2="55.0" /><line stroke="rgb(0,0,0)" x1="237.69815" x2="257.69815" y1="55.0" y2="55.0" /><line stroke="rgb(0,0,0)" x1="257.69815" x2="262.69815" y1="55.0" y2="55.0" /><line stroke="rgb(0,0,0)" x1="262.69815" x2="338.80915000000005" y1="55.0" y2="55.0" /><line stroke="rgb(0,0,0)" x1="338.80915000000005" x2="358.80915000000005" y1="55.0" y2="55.0" /><line stroke="rgb(0,0,0)" x1="358.80915000000005" x2="363.80915000000005" y1="55.0" y2="55.0" /><line stroke="rgb(0,0,0)" x1="363.80915000000005" x2="402.1425" y1="55.0" y2="55.0" /><line stroke="rgb(0,0,0)" x1="402.1425" x2="422.1425" y1="55.0" y2="55.0" /><line stroke="rgb(0,0,0)" x1="422.1425" x2="427.1425" y1="55.0" y2="55.0" /><line stroke="rgb(0,0,0)" x1="427.1425" x2="553.782" y1="55.0" y2="55.0" /><line stroke="rgb(0,0,0)" x1="553.782" x2="573.782" y1="55.0" y2="55.0" /><line stroke="rgb(0,0,0)" x1="573.782" x2="578.782" y1="55.0" y2="55.0" /><rect fill="rgb(150,150,150)" height="4.7619" stroke="rgb(0,0,0)" width="21.66665" x="5.0" y="52.61905" /><text fill="black" x="5.0" y="77.38095">H0</text><rect fill="rgb(150,150,150)" height="3.1746000000000003" stroke="rgb(0,0,0)" width="15.0" x="56.666650000000004" y="53.4127" /><text fill="black" x="56.666650000000004" y="76.5873">H1</text><rect fill="rgb(150,150,150)" height="100.0" stroke="rgb(0,0,0)" width="81.0315" x="101.66665" y="5.0" /><text fill="black" x="101.66665" y="125.0">H2</text><rect fill="rgb(150,150,150)" height="23.8095" stroke="rgb(0,0,0)" width="20.0" x="212.69815" y="43.09525" /><text fill="black" x="212.69815" y="86.90475">H3</text><rect fill="rgb(150,150,150)" height="100.0" stroke="rgb(0,0,0)" width="71.111" x="262.69815" y="5.0" /><text fill="black" x="262.69815" y="125.0">H4</text><rect fill="rgb(150,150,150)" height="4.7619" stroke="rgb(0,0,0)" width="33.333349999999996" x="363.80915000000005" y="52.61905" /><text fill="black" x="363.80915000000005" y="77.38095">H5</text><rect fill="rgb(150,150,150)" height="96.8254" stroke="rgb(0,0,0)" width="121.6395" x="427.1425" y="6.587299999999999" /><text fill="black" x="427.1425" y="123.4127">H6</text><rect fill="rgb(150,150,150)" height="15.873000000000001" stroke="rgb(0,0,0)" width="30.0" x="578.782" y="47.0635" /><text fill="black" x="578.782" y="82.9365">H7</text></svg>