<?xml version="1.0" encoding="utf-8" ?>
<svg baseProfile="full" height="100%" style="font-size:14;font-family:Sans, Arial;stroke-width:1;fill:none" version="1.1" width="100%" xmlns="http://www.w3.org/2000/svg" xmlns:ev="http://www.w3.org/2001/xml-events" xmlns:xlink="http://www.w3.org/1999/xlink"><defs /><rect fill="none" height="150.0" stroke="none" width="898.5460499999999" x="0" y="0" /><line stroke="rgb(0,0,0)" x1="5.0" x2="85.508" y1="75.0" y2="75.0" /><line stroke="rgb(0,0,0)" x1="85.508" x2="95.50799999999998" y1="75.0" y2="75.0" /><line stroke="rgb(0,0,0)" x1="95.50799999999998" x2="100.50799999999998" y1="75.0" y2="75.0" /><line stroke="rgb(0,0,0)" x1="100.50799999999998" x2="186.208" y1="75.0" y2="75.0" /><line stroke="rgb(0,0,0)" x1="186.208" x2="196.208" y1="75.0" y2="75.0" /><line stroke="rgb(0,0,0)" x1="196.208" x2="201.208" y1="75.0" y2="75.0" /><line stroke="rgb(0,0,0)" x1="201.208" x2="240.96409999999997" y1="75.0" y2="75.0" /><line stroke="rgb(0,0,0)" x1="240.96409999999997" x2="250.96409999999997" y1="75.0" y2="75.0" /><line stroke="rgb(0,0,0)" x1="250.96409999999997" x2="255.96409999999997" y1="75.0" y2="75.0" /><line stroke="rgb(0,0,0)" x1="255.96409999999997" x2="277.668" y1="75.0" y2="75.0" /><line stroke="rgb(0,0,0)" x1="277.668" x2="287.668" y1="75.0" y2="75.0" /><line stroke="rgb(0,0,0)" x1="287.668" x2="292.668" y1="75.0" y2="75.0" /><line stroke="rgb(0,0,0)" x1="292.668" x2="326.59655" y1="75.0" y2="75.0" /><line stroke="rgb(0,0,0)" x1="326.59655" x2="336.59655" y1="75.0" y2="75.0" /><line stroke="rgb(0,0,0)" x1="336.59655" x2="341.59655" y1="75.0" y2="75.0" /><line stroke="rgb(0,0,0)" x1="341.59655" x2="446.13655" y1="75.0" y2="75.0" /><line stroke="rgb(0,0,0)" x1="446.13655" x2="456.13655" y1="75.0" y2="75.0" /><line stroke="rgb(0,0,0)" x1="456.13655" x2="461.13655" y1="75.0" y2="75.0" /><line stroke="rgb(0,0,0)" x1="461.13655" x2="481.18415" y1="75.0" y2="75.0" /><line stroke="rgb(0,0,0)" x1="481.18415" x2="491.18415" y1="75.0" y2="75.0" /><line stroke="rgb(0,0,0)" x1="491.18415" x2="496.18415" y1="75.0" y2="75.0" /><line stroke="rgb(0,0,0)" x1="496.18415" x2="526.37895" y1="75.0" y2="75.0" /><line stroke="rgb(0,0,0)" x1="526.37895" x2="536.37895" y1="75.0" y2="75.0" /><line stroke="rgb(0,0,0)" x1="536.37895" x2="541.37895" y1="75.0" y2="75.0" /><line stroke="rgb(0,0,0)" x1="541.37895" x2="614.63195" y1="75.0" y2="75.0" /><line stroke="rgb(0,0,0)" x1="614.63195" x2="624.63195" y1="75.0" y2="75.0" /><line stroke="rgb(0,0,0)" x1="624.63195" x2="629.63195" y1="75.0" y2="75.0" /><line stroke="rgb(0,0,0)" x1="629.63195" x2="728.61195" y1="75.0" y2="75.0" /><line stroke="rgb(0,0,0)" x1="728.61195" x2="738.61195" y1="75.0" y2="75.0" /><line stroke="rgb(0,0,0)" x1="738.61195" x2="743.61195" y1="75.0" y2="75.0" /><line stroke="rgb(0,0,0)" x1="743.61195" x2="768.3660499999999" y1="75.0" y2="75.0" /><line stroke="rgb(0,0,0)" x1="768.3660499999999" x2="778.3660499999999" y1="75.0" y2="75.0" /><line stroke="rgb(0,0,0)" x1="778.3660499999999" x2="783.3660499999999" y1="75.0" y2="75.0" /><rect fill="rgb(195,153,255)" height="98.4" stroke="rgb(0,0,0)" width="75.508" x="5.0" y="25.799999999999997" /><text fill="black" x="5.0" y="144.2">H5</text><rect fill="rgb(100,79,255)" height="100.0" stroke="rgb(0,0,0)" width="80.7" x="100.50799999999998" y="25.0" /><text fill="black" x="100.50799999999998" y="145.0">H7</text><rect fill="rgb(37,29,255)" height="98.4" stroke="rgb(0,0,0)" width="34.7561" x="201.208" y="25.799999999999997" /><text fill="black" x="201.208" y="144.2">H9</text><rect fill="rgb(90,71,255)" height="71.6" stroke="rgb(0,0,0)" width="16.7039" x="255.96409999999997" y="39.2" /><text fill="black" x="255.96409999999997" y="130.8">H12</text><rect fill="rgb(83,65,255)" height="72.8" stroke="rgb(0,0,0)" width="28.92855" x="292.668" y="38.6" /><text fill="black" x="292.668" y="131.4">H15</text><rect fill="rgb(96,75,255)" height="100.0" stroke="rgb(0,0,0)" width="99.54" x="341.59655" y="25.0" /><text fill="black" x="341.59655" y="145.0">H16</text><rect fill="rgb(72,57,255)" height="42.0" stroke="rgb(0,0,0)" width="15.047600000000001" x="461.13655" y="54.0" /><text fill="black" x="461.13655" y="116.0">H18</text><rect fill="rgb(133,105,255)" height="30.8" stroke="rgb(0,0,0)" width="25.1948" x="496.18415" y="59.6" /><text fill="black" x="496.18415" y="110.4">H20</text><rect fill="rgb(211,165,255)" height="99.6" stroke="rgb(0,0,0)" width="68.253" x="541.37895" y="25.200000000000003" /><text fill="black" x="541.37895" y="144.8">H21</text><rect fill="rgb(63,49,255)" height="100.0" stroke="rgb(0,0,0)" width="93.97999999999999" x="629.63195" y="25.0" /><text fill="black" x="629.63195" y="145.0">H25</text><rect fill="rgb(34,26,255)" height="73.2" stroke="rgb(0,0,0)" width="19.7541" x="743.61195" y="38.4" /><text fill="black" x="743.61195" y="131.6">H26</text><rect fill="rgb(216,169,255)" height="100.0" stroke="rgb(0,0,0)" width="110.18" x="783.3660499999999" y="25.0" /><text fill="black" x="783.3660499999999" y="145.0">H27</text></svg>