<?xml version="1.0" encoding="utf-8" ?>
<svg baseProfile="full" height="100%" style="font-size:14;font-family:Sans, Arial;stroke-width:1;fill:none" version="1.1" width="100%" xmlns="http://www.w3.org/2000/svg" xmlns:ev="http://www.w3.org/2001/xml-events" xmlns:xlink="http://www.w3.org/1999/xlink"><defs /><rect fill="none" height="280.0" stroke="none" width="1880.0" x="0" y="0" /><line stroke="rgb(0,0,0)" x1="5.0" x2="15.0" y1="55.0" y2="55.0" /><line stroke="rgb(0,0,0)" x1="15.0" x2="45.0" y1="55.0" y2="55.0" /><line stroke="rgb(0,0,0)" x1="45.0" x2="50.0" y1="55.0" y2="55.0" /><line stroke="rgb(0,0,0)" x1="5.0" x2="25.0" y1="205.0" y2="205.0" /><line stroke="rgb(0,0,0)" x1="25.0" x2="45.0" y1="205.0" y2="205.0" /><line stroke="rgb(0,0,0)" x1="45.0" x2="50.0" y1="205.0" y2="205.0" /><line stroke="rgb(0,0,0)" x1="50.0" x2="120.0" y1="205.0" y2="205.0" /><line stroke="rgb(0,0,0)" x1="120.0" x2="140.0" y1="205.0" y2="130.0" /><line stroke="rgb(0,0,0)" x1="140.0" x2="145.0" y1="130.0" y2="130.0" /><line stroke="rgb(0,0,0)" x1="145.0" x2="185.0" y1="130.0" y2="130.0" /><line stroke="rgb(0,0,0)" x1="185.0" x2="205.0" y1="130.0" y2="130.0" /><line stroke="rgb(0,0,0)" x1="205.0" x2="210.0" y1="130.0" y2="130.0" /><line stroke="rgb(0,0,0)" x1="50.0" x2="60.0" y1="55.0" y2="55.0" /><line stroke="rgb(0,0,0)" x1="60.0" x2="205.0" y1="55.0" y2="130.0" /><line stroke="rgb(0,0,0)" x1="205.0" x2="210.0" y1="130.0" y2="130.0" /><line stroke="rgb(0,0,0)" x1="210.0" x2="300.0" y1="130.0" y2="130.0" /><line stroke="rgb(0,0,0)" x1="300.0" x2="320.0" y1="130.0" y2="130.0" /><line stroke="rgb(0,0,0)" x1="320.0" x2="325.0" y1="130.0" y2="130.0" /><line stroke="rgb(0,0,0)" x1="325.0" x2="350.0" y1="130.0" y2="130.0" /><line stroke="rgb(0,0,0)" x1="350.0" x2="370.0" y1="130.0" y2="130.0" /><line stroke="rgb(0,0,0)" x1="370.0" x2="375.0" y1="130.0" y2="130.0" /><line stroke="rgb(0,0,0)" x1="375.0" x2="475.0" y1="130.0" y2="130.0" /><line stroke="rgb(0,0,0)" x1="475.0" x2="495.0" y1="130.0" y2="130.0" /><line stroke="rgb(0,0,0)" x1="495.0" x2="500.0" y1="130.0" y2="130.0" /><line stroke="rgb(0,0,0)" x1="500.0" x2="535.0" y1="130.0" y2="130.0" /><line stroke="rgb(0,0,0)" x1="535.0" x2="555.0" y1="130.0" y2="130.0" /><line stroke="rgb(0,0,0)" x1="555.0" x2="560.0" y1="130.0" y2="130.0" /><line stroke="rgb(0,0,0)" x1="560.0" x2="610.0" y1="130.0" y2="130.0" /><line stroke="rgb(0,0,0)" x1="610.0" x2="630.0" y1="130.0" y2="55.0" /><line stroke="rgb(0,0,0)" x1="630.0" x2="635.0" y1="55.0" y2="55.0" /><line stroke="rgb(0,0,0)" x1="560.0" x2="610.0" y1="130.0" y2="130.0" /><line stroke="rgb(0,0,0)" x1="610.0" x2="630.0" y1="130.0" y2="205.0" /><line stroke="rgb(0,0,0)" x1="630.0" x2="635.0" y1="205.0" y2="205.0" /><line stroke="rgb(0,0,0)" x1="635.0" x2="690.0" y1="55.0" y2="55.0" /><line stroke="rgb(0,0,0)" x1="690.0" x2="710.0" y1="55.0" y2="55.0" /><line stroke="rgb(0,0,0)" x1="710.0" x2="715.0" y1="55.0" y2="55.0" /><line stroke="rgb(0,0,0)" x1="635.0" x2="650.0" y1="205.0" y2="205.0" /><line stroke="rgb(0,0,0)" x1="650.0" x2="710.0" y1="205.0" y2="205.0" /><line stroke="rgb(0,0,0)" x1="710.0" x2="715.0" y1="205.0" y2="205.0" /><line stroke="rgb(0,0,0)" x1="715.0" x2="750.0" y1="55.0" y2="55.0" /><line stroke="rgb(0,0,0)" x1="750.0" x2="770.0" y1="55.0" y2="130.0" /><line stroke="rgb(0,0,0)" x1="770.0" x2="775.0" y1="130.0" y2="130.0" /><line stroke="rgb(0,0,0)" x1="715.0" x2="730.0" y1="205.0" y2="205.0" /><line stroke="rgb(0,0,0)" x1="730.0" x2="770.0" y1="205.0" y2="130.0" /><line stroke="rgb(0,0,0)" x1="770.0" x2="775.0" y1="130.0" y2="130.0" /><line stroke="rgb(0,0,0)" x1="775.0" x2="795.0" y1="130.0" y2="130.0" /><line stroke="rgb(0,0,0)" x1="795.0" x2="815.0" y1="130.0" y2="130.0" /><line stroke="rgb(0,0,0)" x1="815.0" x2="820.0" y1="130.0" y2="130.0" /><line stroke="rgb(0,0,0)" x1="820.0" x2="860.0" y1="130.0" y2="130.0" /><line stroke="rgb(0,0,0)" x1="860.0" x2="880.0" y1="130.0" y2="130.0" /><line stroke="rgb(0,0,0)" x1="880.0" x2="885.0" y1="130.0" y2="130.0" /><line stroke="rgb(0,0,0)" x1="885.0" x2="1015.0" y1="130.0" y2="130.0" /><line stroke="rgb(0,0,0)" x1="1015.0" x2="1035.0" y1="130.0" y2="55.0" /><line stroke="rgb(0,0,0)" x1="1035.0" x2="1040.0" y1="55.0" y2="55.0" /><line stroke="rgb(0,0,0)" x1="885.0" x2="1015.0" y1="130.0" y2="130.0" /><line stroke="rgb(0,0,0)" x1="1015.0" x2="1035.0" y1="130.0" y2="205.0" /><line stroke="rgb(0,0,0)" x1="1035.0" x2="1040.0" y1="205.0" y2="205.0" /><line stroke="rgb(0,0,0)" x1="1040.0" x2="1050.0" y1="55.0" y2="55.0" /><line stroke="rgb(0,0,0)" x1="1050.0" x2="1085.0" y1="55.0" y2="55.0" /><line stroke="rgb(0,0,0)" x1="1085.0" x2="1090.0" y1="55.0" y2="55.0" /><line stroke="rgb(0,0,0)" x1="1040.0" x2="1065.0" y1="205.0" y2="205.0" /><line stroke="rgb(0,0,0)" x1="1065.0" x2="1085.0" y1="205.0" y2="205.0" /><line stroke="rgb(0,0,0)" x1="1085.0" x2="1090.0" y1="205.0" y2="205.0" /><line stroke="rgb(0,0,0)" x1="1090.0" x2="1100.0" y1="55.0" y2="55.0" /><line stroke="rgb(0,0,0)" x1="1100.0" x2="1160.0" y1="55.0" y2="130.0" /><line stroke="rgb(0,0,0)" x1="1160.0" x2="1165.0" y1="130.0" y2="130.0" /><line stroke="rgb(0,0,0)" x1="1090.0" x2="1140.0" y1="205.0" y2="205.0" /><line stroke="rgb(0,0,0)" x1="1140.0" x2="1160.0" y1="205.0" y2="130.0" /><line stroke="rgb(0,0,0)" x1="1160.0" x2="1165.0" y1="130.0" y2="130.0" /><line stroke="rgb(0,0,0)" x1="1165.0" x2="1275.0" y1="130.0" y2="130.0" /><line stroke="rgb(0,0,0)" x1="1275.0" x2="1295.0" y1="130.0" y2="130.0" /><line stroke="rgb(0,0,0)" x1="1295.0" x2="1300.0" y1="130.0" y2="130.0" /><line stroke="rgb(0,0,0)" x1="1300.0" x2="1340.0" y1="130.0" y2="130.0" /><line stroke="rgb(0,0,0)" x1="1340.0" x2="1360.0" y1="130.0" y2="55.0" /><line stroke="rgb(0,0,0)" x1="1360.0" x2="1365.0" y1="55.0" y2="55.0" /><line stroke="rgb(0,0,0)" x1="1300.0" x2="1340.0" y1="130.0" y2="130.0" /><line stroke="rgb(0,0,0)" x1="1340.0" x2="1360.0" y1="130.0" y2="205.0" /><line stroke="rgb(0,0,0)" x1="1360.0" x2="1365.0" y1="205.0" y2="205.0" /><line stroke="rgb(0,0,0)" x1="1365.0" x2="1395.0" y1="55.0" y2="55.0" /><line stroke="rgb(0,0,0)" x1="1395.0" x2="1415.0" y1="55.0" y2="130.0" /><line stroke="rgb(0,0,0)" x1="1415.0" x2="1420.0" y1="130.0" y2="130.0" /><line stroke="rgb(0,0,0)" x1="1365.0" x2="1375.0" y1="205.0" y2="205.0" /><line stroke="rgb(0,0,0)" x1="1375.0" x2="1415.0" y1="205.0" y2="130.0" /><line stroke="rgb(0,0,0)" x1="1415.0" x2="1420.0" y1="130.0" y2="130.0" /><line stroke="rgb(0,0,0)" x1="1420.0" x2="1540.0" y1="130.0" y2="130.0" /><line stroke="rgb(0,0,0)" x1="1540.0" x2="1560.0" y1="130.0" y2="130.0" /><line stroke="rgb(0,0,0)" x1="1560.0" x2="1565.0" y1="130.0" y2="130.0" /><line stroke="rgb(0,0,0)" x1="1565.0" x2="1590.0" y1="130.0" y2="130.0" /><line stroke="rgb(0,0,0)" x1="1590.0" x2="1610.0" y1="130.0" y2="130.0" /><line stroke="rgb(0,0,0)" x1="1610.0" x2="1615.0" y1="130.0" y2="130.0" /><line stroke="rgb(0,0,0)" x1="1615.0" x2="1775.0" y1="130.0" y2="130.0" /><line stroke="rgb(0,0,0)" x1="1775.0" x2="1795.0" y1="130.0" y2="55.0" /><line stroke="rgb(0,0,0)" x1="1795.0" x2="1800.0" y1="55.0" y2="55.0" /><line stroke="rgb(0,0,0)" x1="1615.0" x2="1775.0" y1="130.0" y2="130.0" /><line stroke="rgb(0,0,0)" x1="1775.0" x2="1795.0" y1="130.0" y2="205.0" /><line stroke="rgb(0,0,0)" x1="1795.0" x2="1800.0" y1="205.0" y2="205.0" /><line stroke="rgb(0,0,0)" x1="1800.0" x2="1810.0" y1="205.0" y2="205.0" /><line stroke="rgb(0,0,0)" x1="1810.0" x2="1850.0" y1="205.0" y2="55.0" /><line stroke="rgb(0,0,0)" x1="1850.0" x2="1855.0" y1="55.0" y2="55.0" /><line stroke="rgb(0,0,0)" x1="1800.0" x2="1830.0" y1="55.0" y2="55.0" /><line stroke="rgb(0,0,0)" x1="1830.0" x2="1850.0" y1="55.0" y2="205.0" /><line stroke="rgb(0,0,0)" x1="1850.0" x2="1855.0" y1="205.0" y2="205.0" /><polygon fill="rgb(255,150,255)" points="10.0,55.0 10.0,54.8 7.5,54.8 7.5,54.8 5.0,54.8 5.0,55.0 5.0,55.0 5.0,55.2 7.5,55.2 7.5,55.2 10.0,55.2 10.0,55.0" stroke="rgb(0,0,0)" /><text fill="black" x="5.0" y="75.2">E0</text><polygon fill="rgb(150,150,150)" points="20.0,205.0 20.0,203.8 12.5,203.8 12.5,203.8 5.0,203.8 5.0,205.0 5.0,205.0 5.0,206.2 12.5,206.2 12.5,206.2 20.0,206.2 20.0,205.0" stroke="rgb(0,0,0)" /><text fill="black" x="5.0" y="226.2">H1</text><polygon fill="rgb(255,150,255)" points="55.0,55.0 55.0,54.8 52.5,54.8 52.5,54.8 50.0,54.8 50.0,55.0 50.0,55.0 50.0,55.2 52.5,55.2 52.5,55.2 55.0,55.2 55.0,55.0" stroke="rgb(0,0,0)" /><text fill="black" x="50.0" y="75.2">E2</text><polygon fill="rgb(150,150,150)" points="115.0,205.0 115.0,204.8 110.0,204.8 110.0,203.6 107.5,203.6 107.5,203.4 102.5,203.4 102.5,201.0 100.0,201.0 100.0,200.8 82.5,200.8 82.5,200.8 65.0,200.8 65.0,201.0 62.5,201.0 62.5,203.4 57.5,203.4 57.5,203.6 55.0,203.6 55.0,204.8 50.0,204.8 50.0,205.0 50.0,205.0 50.0,205.2 55.0,205.2 55.0,206.4 57.5,206.4 57.5,206.6 62.5,206.6 62.5,209.0 65.0,209.0 65.0,209.2 82.5,209.2 82.5,209.2 100.0,209.2 100.0,209.0 102.5,209.0 102.5,206.6 107.5,206.6 107.5,206.4 110.0,206.4 110.0,205.2 115.0,205.2 115.0,205.0" stroke="rgb(0,0,0)" /><text fill="black" x="50.0" y="229.2">H3</text><polygon fill="rgb(150,150,150)" points="180.0,130.0 180.0,129.4 162.5,129.4 162.5,129.4 145.0,129.4 145.0,130.0 145.0,130.0 145.0,130.6 162.5,130.6 162.5,130.6 180.0,130.6 180.0,130.0" stroke="rgb(0,0,0)" /><text fill="black" x="145.0" y="150.6">H4</text><polygon fill="rgb(150,150,150)" points="295.0,130.0 295.0,101.19999999999999 292.5,101.19999999999999 292.5,100.2 290.0,100.2 290.0,98.4 287.5,98.4 287.5,93.2 285.0,93.2 285.0,84.8 280.0,84.8 280.0,83.4 265.0,83.4 265.0,80.8 252.5,80.8 252.5,80.8 240.0,80.8 240.0,83.4 225.0,83.4 225.0,84.8 220.0,84.8 220.0,93.2 217.5,93.2 217.5,98.4 215.0,98.4 215.0,100.2 212.5,100.2 212.5,101.19999999999999 210.0,101.19999999999999 210.0,130.0 210.0,130.0 210.0,158.8 212.5,158.8 212.5,159.8 215.0,159.8 215.0,161.6 217.5,161.6 217.5,166.8 220.0,166.8 220.0,175.2 225.0,175.2 225.0,176.6 240.0,176.6 240.0,179.2 252.5,179.2 252.5,179.2 265.0,179.2 265.0,176.6 280.0,176.6 280.0,175.2 285.0,175.2 285.0,166.8 287.5,166.8 287.5,161.6 290.0,161.6 290.0,159.8 292.5,159.8 292.5,158.8 295.0,158.8 295.0,130.0" stroke="rgb(0,0,0)" /><text fill="black" x="210.0" y="199.2">H5</text><polygon fill="rgb(150,150,150)" points="345.0,130.0 345.0,129.8 342.5,129.8 342.5,127.6 335.0,127.6 335.0,127.6 327.5,127.6 327.5,129.8 325.0,129.8 325.0,130.0 325.0,130.0 325.0,130.2 327.5,130.2 327.5,132.4 335.0,132.4 335.0,132.4 342.5,132.4 342.5,130.2 345.0,130.2 345.0,130.0" stroke="rgb(0,0,0)" /><text fill="black" x="325.0" y="152.4">H6</text><polygon fill="rgb(150,150,150)" points="470.0,130.0 470.0,127.39999999999999 467.5,127.39999999999999 467.5,125.6 465.0,125.6 465.0,124.4 462.5,124.4 462.5,83.2 460.0,83.2 460.0,81.0 457.5,81.0 457.5,80.8 455.0,80.8 455.0,80.6 452.5,80.6 452.5,80.0 422.5,80.0 422.5,80.0 392.5,80.0 392.5,80.6 390.0,80.6 390.0,80.8 387.5,80.8 387.5,81.0 385.0,81.0 385.0,83.2 382.5,83.2 382.5,124.4 380.0,124.4 380.0,125.6 377.5,125.6 377.5,127.39999999999999 375.0,127.39999999999999 375.0,130.0 375.0,130.0 375.0,132.6 377.5,132.6 377.5,134.4 380.0,134.4 380.0,135.6 382.5,135.6 382.5,176.8 385.0,176.8 385.0,179.0 387.5,179.0 387.5,179.2 390.0,179.2 390.0,179.4 392.5,179.4 392.5,180.0 422.5,180.0 422.5,180.0 452.5,180.0 452.5,179.4 455.0,179.4 455.0,179.2 457.5,179.2 457.5,179.0 460.0,179.0 460.0,176.8 462.5,176.8 462.5,135.6 465.0,135.6 465.0,134.4 467.5,134.4 467.5,132.6 470.0,132.6 470.0,130.0" stroke="rgb(0,0,0)" /><text fill="black" x="375.0" y="200.0">H7</text><polygon fill="rgb(150,150,150)" points="530.0,130.0 530.0,129.8 525.0,129.8 525.0,129.6 522.5,129.6 522.5,128.6 515.0,128.6 515.0,128.6 507.5,128.6 507.5,129.6 505.0,129.6 505.0,129.8 500.0,129.8 500.0,130.0 500.0,130.0 500.0,130.2 505.0,130.2 505.0,130.4 507.5,130.4 507.5,131.4 515.0,131.4 515.0,131.4 522.5,131.4 522.5,130.4 525.0,130.4 525.0,130.2 530.0,130.2 530.0,130.0" stroke="rgb(0,0,0)" /><text fill="black" x="500.0" y="151.4">H8</text><polygon fill="rgb(150,150,150)" points="605.0,130.0 605.0,129.6 602.5,129.6 602.5,129.4 600.0,129.4 600.0,83.0 597.5,83.0 597.5,81.4 592.5,81.4 592.5,80.8 582.5,80.8 582.5,80.8 572.5,80.8 572.5,81.4 567.5,81.4 567.5,83.0 565.0,83.0 565.0,129.4 562.5,129.4 562.5,129.6 560.0,129.6 560.0,130.0 560.0,130.0 560.0,130.4 562.5,130.4 562.5,130.6 565.0,130.6 565.0,177.0 567.5,177.0 567.5,178.6 572.5,178.6 572.5,179.2 582.5,179.2 582.5,179.2 592.5,179.2 592.5,178.6 597.5,178.6 597.5,177.0 600.0,177.0 600.0,130.6 602.5,130.6 602.5,130.4 605.0,130.4 605.0,130.0" stroke="rgb(0,0,0)" /><text fill="black" x="560.0" y="199.2">H9</text><polygon fill="rgb(150,150,150)" points="685.0,55.0 685.0,54.8 670.0,54.8 670.0,54.6 667.5,54.6 667.5,54.4 660.0,54.4 660.0,54.4 652.5,54.4 652.5,54.6 650.0,54.6 650.0,54.8 635.0,54.8 635.0,55.0 635.0,55.0 635.0,55.2 650.0,55.2 650.0,55.4 652.5,55.4 652.5,55.6 660.0,55.6 660.0,55.6 667.5,55.6 667.5,55.4 670.0,55.4 670.0,55.2 685.0,55.2 685.0,55.0" stroke="rgb(0,0,0)" /><text fill="black" x="635.0" y="75.6">H10</text><polygon fill="rgb(255,150,150)" points="645.0,205.0 645.0,204.8 642.5,204.8 642.5,203.0 640.0,203.0 640.0,203.0 637.5,203.0 637.5,204.8 635.0,204.8 635.0,205.0 635.0,205.0 635.0,205.2 637.5,205.2 637.5,207.0 640.0,207.0 640.0,207.0 642.5,207.0 642.5,205.2 645.0,205.2 645.0,205.0" stroke="rgb(0,0,0)" /><text fill="black" x="635.0" y="227.0">E11</text><polygon fill="rgb(150,150,150)" points="745.0,55.0 745.0,53.4 742.5,53.4 742.5,50.0 740.0,50.0 740.0,49.4 737.5,49.4 737.5,19.200000000000003 730.0,19.200000000000003 730.0,19.200000000000003 722.5,19.200000000000003 722.5,49.4 720.0,49.4 720.0,50.0 717.5,50.0 717.5,53.4 715.0,53.4 715.0,55.0 715.0,55.0 715.0,56.6 717.5,56.6 717.5,60.0 720.0,60.0 720.0,60.6 722.5,60.6 722.5,90.8 730.0,90.8 730.0,90.8 737.5,90.8 737.5,60.6 740.0,60.6 740.0,60.0 742.5,60.0 742.5,56.6 745.0,56.6 745.0,55.0" stroke="rgb(0,0,0)" /><text fill="black" x="715.0" y="110.8">H12</text><polygon fill="rgb(255,150,150)" points="725.0,205.0 725.0,204.8 722.5,204.8 722.5,203.0 720.0,203.0 720.0,203.0 717.5,203.0 717.5,204.8 715.0,204.8 715.0,205.0 715.0,205.0 715.0,205.2 717.5,205.2 717.5,207.0 720.0,207.0 720.0,207.0 722.5,207.0 722.5,205.2 725.0,205.2 725.0,205.0" stroke="rgb(0,0,0)" /><text fill="black" x="715.0" y="227.0">E13</text><polygon fill="rgb(150,150,150)" points="790.0,130.0 790.0,126.4 782.5,126.4 782.5,126.4 775.0,126.4 775.0,130.0 775.0,130.0 775.0,133.6 782.5,133.6 782.5,133.6 790.0,133.6 790.0,130.0" stroke="rgb(0,0,0)" /><text fill="black" x="775.0" y="153.6">H14</text><polygon fill="rgb(150,150,150)" points="855.0,130.0 855.0,129.6 852.5,129.6 852.5,97.19999999999999 847.5,97.19999999999999 847.5,94.6 845.0,94.6 845.0,93.6 837.5,93.6 837.5,93.6 830.0,93.6 830.0,94.6 827.5,94.6 827.5,97.19999999999999 822.5,97.19999999999999 822.5,129.6 820.0,129.6 820.0,130.0 820.0,130.0 820.0,130.4 822.5,130.4 822.5,162.8 827.5,162.8 827.5,165.4 830.0,165.4 830.0,166.4 837.5,166.4 837.5,166.4 845.0,166.4 845.0,165.4 847.5,165.4 847.5,162.8 852.5,162.8 852.5,130.4 855.0,130.4 855.0,130.0" stroke="rgb(0,0,0)" /><text fill="black" x="820.0" y="186.4">H15</text><polygon fill="rgb(150,150,150)" points="1010.0,130.0 1010.0,129.8 1007.5,129.8 1007.5,128.6 1005.0,128.6 1005.0,126.60000000000001 997.5,126.60000000000001 997.5,84.8 995.0,84.8 995.0,83.8 992.5,83.8 992.5,83.4 990.0,83.4 990.0,83.2 987.5,83.2 987.5,80.6 985.0,80.6 985.0,80.4 982.5,80.4 982.5,80.2 980.0,80.2 980.0,80.0 947.5,80.0 947.5,80.0 915.0,80.0 915.0,80.2 912.5,80.2 912.5,80.4 910.0,80.4 910.0,80.6 907.5,80.6 907.5,83.2 905.0,83.2 905.0,83.4 902.5,83.4 902.5,83.8 900.0,83.8 900.0,84.8 897.5,84.8 897.5,126.60000000000001 890.0,126.60000000000001 890.0,128.6 887.5,128.6 887.5,129.8 885.0,129.8 885.0,130.0 885.0,130.0 885.0,130.2 887.5,130.2 887.5,131.4 890.0,131.4 890.0,133.4 897.5,133.4 897.5,175.2 900.0,175.2 900.0,176.2 902.5,176.2 902.5,176.6 905.0,176.6 905.0,176.8 907.5,176.8 907.5,179.4 910.0,179.4 910.0,179.6 912.5,179.6 912.5,179.8 915.0,179.8 915.0,180.0 947.5,180.0 947.5,180.0 980.0,180.0 980.0,179.8 982.5,179.8 982.5,179.6 985.0,179.6 985.0,179.4 987.5,179.4 987.5,176.8 990.0,176.8 990.0,176.6 992.5,176.6 992.5,176.2 995.0,176.2 995.0,175.2 997.5,175.2 997.5,133.4 1005.0,133.4 1005.0,131.4 1007.5,131.4 1007.5,130.2 1010.0,130.2 1010.0,130.0" stroke="rgb(0,0,0)" /><text fill="black" x="885.0" y="200.0">H16</text><polygon fill="rgb(150,150,255)" points="1045.0,55.0 1045.0,53.6 1042.5,53.6 1042.5,53.6 1040.0,53.6 1040.0,55.0 1040.0,55.0 1040.0,56.4 1042.5,56.4 1042.5,56.4 1045.0,56.4 1045.0,55.0" stroke="rgb(0,0,0)" /><text fill="black" x="1040.0" y="76.4">E17</text><polygon fill="rgb(150,150,150)" points="1060.0,205.0 1060.0,204.8 1057.5,204.8 1057.5,184.0 1050.0,184.0 1050.0,184.0 1042.5,184.0 1042.5,204.8 1040.0,204.8 1040.0,205.0 1040.0,205.0 1040.0,205.2 1042.5,205.2 1042.5,226.0 1050.0,226.0 1050.0,226.0 1057.5,226.0 1057.5,205.2 1060.0,205.2 1060.0,205.0" stroke="rgb(0,0,0)" /><text fill="black" x="1040.0" y="246.0">H18</text><polygon fill="rgb(150,150,255)" points="1095.0,55.0 1095.0,53.6 1092.5,53.6 1092.5,53.6 1090.0,53.6 1090.0,55.0 1090.0,55.0 1090.0,56.4 1092.5,56.4 1092.5,56.4 1095.0,56.4 1095.0,55.0" stroke="rgb(0,0,0)" /><text fill="black" x="1090.0" y="76.4">E19</text><polygon fill="rgb(150,150,150)" points="1135.0,205.0 1135.0,204.8 1127.5,204.8 1127.5,204.2 1125.0,204.2 1125.0,190.4 1122.5,190.4 1122.5,189.6 1112.5,189.6 1112.5,189.6 1102.5,189.6 1102.5,190.4 1100.0,190.4 1100.0,204.2 1097.5,204.2 1097.5,204.8 1090.0,204.8 1090.0,205.0 1090.0,205.0 1090.0,205.2 1097.5,205.2 1097.5,205.8 1100.0,205.8 1100.0,219.6 1102.5,219.6 1102.5,220.4 1112.5,220.4 1112.5,220.4 1122.5,220.4 1122.5,219.6 1125.0,219.6 1125.0,205.8 1127.5,205.8 1127.5,205.2 1135.0,205.2 1135.0,205.0" stroke="rgb(0,0,0)" /><text fill="black" x="1090.0" y="240.4">H20</text><polygon fill="rgb(150,150,150)" points="1270.0,130.0 1270.0,129.8 1265.0,129.8 1265.0,128.2 1262.5,128.2 1262.5,123.0 1260.0,123.0 1260.0,121.2 1257.5,121.2 1257.5,120.8 1255.0,120.8 1255.0,101.6 1252.5,101.6 1252.5,100.0 1250.0,100.0 1250.0,98.8 1245.0,98.8 1245.0,84.4 1242.5,84.4 1242.5,84.0 1240.0,84.0 1240.0,82.80000000000001 1237.5,82.80000000000001 1237.5,82.4 1235.0,82.4 1235.0,81.80000000000001 1230.0,81.80000000000001 1230.0,80.2 1217.5,80.2 1217.5,80.2 1205.0,80.2 1205.0,81.80000000000001 1200.0,81.80000000000001 1200.0,82.4 1197.5,82.4 1197.5,82.80000000000001 1195.0,82.80000000000001 1195.0,84.0 1192.5,84.0 1192.5,84.4 1190.0,84.4 1190.0,98.8 1185.0,98.8 1185.0,100.0 1182.5,100.0 1182.5,101.6 1180.0,101.6 1180.0,120.8 1177.5,120.8 1177.5,121.2 1175.0,121.2 1175.0,123.0 1172.5,123.0 1172.5,128.2 1170.0,128.2 1170.0,129.8 1165.0,129.8 1165.0,130.0 1165.0,130.0 1165.0,130.2 1170.0,130.2 1170.0,131.8 1172.5,131.8 1172.5,137.0 1175.0,137.0 1175.0,138.8 1177.5,138.8 1177.5,139.2 1180.0,139.2 1180.0,158.4 1182.5,158.4 1182.5,160.0 1185.0,160.0 1185.0,161.2 1190.0,161.2 1190.0,175.6 1192.5,175.6 1192.5,176.0 1195.0,176.0 1195.0,177.2 1197.5,177.2 1197.5,177.6 1200.0,177.6 1200.0,178.2 1205.0,178.2 1205.0,179.8 1217.5,179.8 1217.5,179.8 1230.0,179.8 1230.0,178.2 1235.0,178.2 1235.0,177.6 1237.5,177.6 1237.5,177.2 1240.0,177.2 1240.0,176.0 1242.5,176.0 1242.5,175.6 1245.0,175.6 1245.0,161.2 1250.0,161.2 1250.0,160.0 1252.5,160.0 1252.5,158.4 1255.0,158.4 1255.0,139.2 1257.5,139.2 1257.5,138.8 1260.0,138.8 1260.0,137.0 1262.5,137.0 1262.5,131.8 1265.0,131.8 1265.0,130.2 1270.0,130.2 1270.0,130.0" stroke="rgb(0,0,0)" /><text fill="black" x="1165.0" y="199.8">H21</text><polygon fill="rgb(150,150,150)" points="1335.0,130.0 1335.0,129.8 1327.5,129.8 1327.5,129.6 1325.0,129.6 1325.0,126.4 1317.5,126.4 1317.5,126.4 1310.0,126.4 1310.0,129.6 1307.5,129.6 1307.5,129.8 1300.0,129.8 1300.0,130.0 1300.0,130.0 1300.0,130.2 1307.5,130.2 1307.5,130.4 1310.0,130.4 1310.0,133.6 1317.5,133.6 1317.5,133.6 1325.0,133.6 1325.0,130.4 1327.5,130.4 1327.5,130.2 1335.0,130.2 1335.0,130.0" stroke="rgb(0,0,0)" /><text fill="black" x="1300.0" y="153.6">H22</text><polygon fill="rgb(150,150,150)" points="1390.0,55.0 1390.0,54.0 1385.0,54.0 1385.0,53.8 1377.5,53.8 1377.5,53.8 1370.0,53.8 1370.0,54.0 1365.0,54.0 1365.0,55.0 1365.0,55.0 1365.0,56.0 1370.0,56.0 1370.0,56.2 1377.5,56.2 1377.5,56.2 1385.0,56.2 1385.0,56.0 1390.0,56.0 1390.0,55.0" stroke="rgb(0,0,0)" /><text fill="black" x="1365.0" y="76.2">H23</text><polygon fill="rgb(150,255,150)" points="1370.0,205.0 1370.0,204.2 1367.5,204.2 1367.5,204.2 1365.0,204.2 1365.0,205.0 1365.0,205.0 1365.0,205.8 1367.5,205.8 1367.5,205.8 1370.0,205.8 1370.0,205.0" stroke="rgb(0,0,0)" /><text fill="black" x="1365.0" y="225.8">E24</text><polygon fill="rgb(150,150,150)" points="1535.0,130.0 1535.0,129.8 1532.5,129.8 1532.5,128.6 1530.0,128.6 1530.0,128.4 1525.0,128.4 1525.0,90.0 1522.5,90.0 1522.5,82.6 1520.0,82.6 1520.0,81.2 1515.0,81.2 1515.0,80.0 1477.5,80.0 1477.5,80.0 1440.0,80.0 1440.0,81.2 1435.0,81.2 1435.0,82.6 1432.5,82.6 1432.5,90.0 1430.0,90.0 1430.0,128.4 1425.0,128.4 1425.0,128.6 1422.5,128.6 1422.5,129.8 1420.0,129.8 1420.0,130.0 1420.0,130.0 1420.0,130.2 1422.5,130.2 1422.5,131.4 1425.0,131.4 1425.0,131.6 1430.0,131.6 1430.0,170.0 1432.5,170.0 1432.5,177.4 1435.0,177.4 1435.0,178.8 1440.0,178.8 1440.0,180.0 1477.5,180.0 1477.5,180.0 1515.0,180.0 1515.0,178.8 1520.0,178.8 1520.0,177.4 1522.5,177.4 1522.5,170.0 1525.0,170.0 1525.0,131.6 1530.0,131.6 1530.0,131.4 1532.5,131.4 1532.5,130.2 1535.0,130.2 1535.0,130.0" stroke="rgb(0,0,0)" /><text fill="black" x="1420.0" y="200.0">H25</text><polygon fill="rgb(150,150,150)" points="1585.0,130.0 1585.0,95.2 1582.5,95.2 1582.5,93.4 1575.0,93.4 1575.0,93.4 1567.5,93.4 1567.5,95.2 1565.0,95.2 1565.0,130.0 1565.0,130.0 1565.0,164.8 1567.5,164.8 1567.5,166.6 1575.0,166.6 1575.0,166.6 1582.5,166.6 1582.5,164.8 1585.0,164.8 1585.0,130.0" stroke="rgb(0,0,0)" /><text fill="black" x="1565.0" y="186.6">H26</text><polygon fill="rgb(150,150,150)" points="1770.0,130.0 1770.0,129.6 1767.5,129.6 1767.5,129.4 1762.5,129.4 1762.5,129.2 1760.0,129.2 1760.0,128.8 1757.5,128.8 1757.5,127.8 1755.0,127.8 1755.0,107.80000000000001 1752.5,107.80000000000001 1752.5,107.2 1750.0,107.2 1750.0,105.6 1747.5,105.6 1747.5,102.6 1745.0,102.6 1745.0,95.4 1742.5,95.4 1742.5,94.80000000000001 1740.0,94.80000000000001 1740.0,88.6 1737.5,88.6 1737.5,84.6 1735.0,84.6 1735.0,81.6 1732.5,81.6 1732.5,81.2 1727.5,81.2 1727.5,81.0 1725.0,81.0 1725.0,80.8 1717.5,80.8 1717.5,80.0 1692.5,80.0 1692.5,80.0 1667.5,80.0 1667.5,80.8 1660.0,80.8 1660.0,81.0 1657.5,81.0 1657.5,81.2 1652.5,81.2 1652.5,81.6 1650.0,81.6 1650.0,84.6 1647.5,84.6 1647.5,88.6 1645.0,88.6 1645.0,94.80000000000001 1642.5,94.80000000000001 1642.5,95.4 1640.0,95.4 1640.0,102.6 1637.5,102.6 1637.5,105.6 1635.0,105.6 1635.0,107.2 1632.5,107.2 1632.5,107.80000000000001 1630.0,107.80000000000001 1630.0,127.8 1627.5,127.8 1627.5,128.8 1625.0,128.8 1625.0,129.2 1622.5,129.2 1622.5,129.4 1617.5,129.4 1617.5,129.6 1615.0,129.6 1615.0,130.0 1615.0,130.0 1615.0,130.4 1617.5,130.4 1617.5,130.6 1622.5,130.6 1622.5,130.8 1625.0,130.8 1625.0,131.2 1627.5,131.2 1627.5,132.2 1630.0,132.2 1630.0,152.2 1632.5,152.2 1632.5,152.8 1635.0,152.8 1635.0,154.4 1637.5,154.4 1637.5,157.4 1640.0,157.4 1640.0,164.6 1642.5,164.6 1642.5,165.2 1645.0,165.2 1645.0,171.4 1647.5,171.4 1647.5,175.4 1650.0,175.4 1650.0,178.4 1652.5,178.4 1652.5,178.8 1657.5,178.8 1657.5,179.0 1660.0,179.0 1660.0,179.2 1667.5,179.2 1667.5,180.0 1692.5,180.0 1692.5,180.0 1717.5,180.0 1717.5,179.2 1725.0,179.2 1725.0,179.0 1727.5,179.0 1727.5,178.8 1732.5,178.8 1732.5,178.4 1735.0,178.4 1735.0,175.4 1737.5,175.4 1737.5,171.4 1740.0,171.4 1740.0,165.2 1742.5,165.2 1742.5,164.6 1745.0,164.6 1745.0,157.4 1747.5,157.4 1747.5,154.4 1750.0,154.4 1750.0,152.8 1752.5,152.8 1752.5,152.2 1755.0,152.2 1755.0,132.2 1757.5,132.2 1757.5,131.2 1760.0,131.2 1760.0,130.8 1762.5,130.8 1762.5,130.6 1767.5,130.6 1767.5,130.4 1770.0,130.4 1770.0,130.0" stroke="rgb(0,0,0)" /><text fill="black" x="1615.0" y="200.0">H27</text><polygon fill="rgb(150,150,150)" points="1825.0,55.0 1825.0,54.8 1820.0,54.8 1820.0,52.4 1812.5,52.4 1812.5,52.4 1805.0,52.4 1805.0,54.8 1800.0,54.8 1800.0,55.0 1800.0,55.0 1800.0,55.2 1805.0,55.2 1805.0,57.6 1812.5,57.6 1812.5,57.6 1820.0,57.6 1820.0,55.2 1825.0,55.2 1825.0,55.0" stroke="rgb(0,0,0)" /><text fill="black" x="1800.0" y="77.6">H28</text><polygon fill="rgb(150,255,150)" points="1805.0,205.0 1805.0,204.0 1802.5,204.0 1802.5,204.0 1800.0,204.0 1800.0,205.0 1800.0,205.0 1800.0,206.0 1802.5,206.0 1802.5,206.0 1805.0,206.0 1805.0,205.0" stroke="rgb(0,0,0)" /><text fill="black" x="1800.0" y="226.0">E29</text><polygon fill="rgb(150,255,150)" points="1860.0,55.0 1860.0,54.8 1857.5,54.8 1857.5,54.8 1855.0,54.8 1855.0,55.0 1855.0,55.0 1855.0,55.2 1857.5,55.2 1857.5,55.2 1860.0,55.2 1860.0,55.0" stroke="rgb(0,0,0)" /><text fill="black" x="1855.0" y="75.2">E30</text><polygon fill="rgb(150,150,150)" points="1875.0,205.0 1875.0,204.2 1872.5,204.2 1872.5,203.0 1865.0,203.0 1865.0,203.0 1857.5,203.0 1857.5,204.2 1855.0,204.2 1855.0,205.0 1855.0,205.0 1855.0,205.8 1857.5,205.8 1857.5,207.0 1865.0,207.0 1865.0,207.0 1872.5,207.0 1872.5,205.8 1875.0,205.8 1875.0,205.0" stroke="rgb(0,0,0)" /><text fill="black" x="1855.0" y="227.0">H31</text><path d="M 52.5,55.0 a 45.99624811055927,45.99624811055927 0 0,0 -45.0,-0.0" stroke="rgb(255,150,255)" stroke-width="2" /><path d="M 52.5,55.0 a 45.99624811055927,45.99624811055927 0 0,0 -45.0,-0.0" stroke="rgb(0,0,0)" stroke-width="0.2" /><path d="M 720.0,205.0 a 87.73365231259969,87.73365231259969 0 0,0 -80.0,-0.0" stroke="rgb(255,150,150)" stroke-width="2" /><path d="M 720.0,205.0 a 87.73365231259969,87.73365231259969 0 0,0 -80.0,-0.0" stroke="rgb(0,0,0)" stroke-width="0.2" /><path d="M 1092.5,55.0 a 51.63679043960734,51.63679043960734 0 0,0 -50.0,-0.0" stroke="rgb(150,150,255)" stroke-width="2" /><path d="M 1092.5,55.0 a 51.63679043960734,51.63679043960734 0 0,0 -50.0,-0.0" stroke="rgb(0,0,0)" stroke-width="0.2" /><path d="M 1367.5,205.0 a 457.5568181818182,457.5568181818182 0 0,0 435.0,-0.0" stroke="rgb(150,255,150)" stroke-width="2" /><path d="M 1367.5,205.0 a 457.5568181818182,457.5568181818182 0 0,0 435.0,-0.0" stroke="rgb(0,0,0)" stroke-width="0.2" /><path d="M 1857.5,55.0 a 202.73871537282702,202.73871537282702 0 0,0 -55.0,150.0" stroke="rgb(150,255,150)" stroke-width="2" /><path d="M 1857.5,55.0 a 202.73871537282702,202.73871537282702 0 0,0 -55.0,150.0" stroke="rgb(0,0,0)" stroke-width="0.2" /></svg>