<?xml version="1.0" encoding="utf-8" ?>
<svg baseProfile="full" height="100%" style="font-size:14;font-family:Sans, Arial;stroke-width:1;fill:none" version="1.1" width="100%" xmlns="http://www.w3.org/2000/svg" xmlns:ev="http://www.w3.org/2001/xml-events" xmlns:xlink="http://www.w3.org/1999/xlink"><defs /><rect fill="none" height="300.0" stroke="none" width="1363.359" x="0" y="0" /><line stroke="rgb(0,0,0)" x1="5.0" x2="15.0" y1="75.0" y2="75.0" /><line stroke="rgb(0,0,0)" x1="15.0" x2="35.0" y1="75.0" y2="75.0" /><line stroke="rgb(0,0,0)" x1="35.0" x2="40.0" y1="75.0" y2="75.0" /><line stroke="rgb(0,0,0)" x1="5.0" x2="25.0" y1="225.0" y2="225.0" /><line stroke="rgb(0,0,0)" x1="25.0" x2="35.0" y1="225.0" y2="225.0" /><line stroke="rgb(0,0,0)" x1="35.0" x2="40.0" y1="225.0" y2="225.0" /><line stroke="rgb(0,0,0)" x1="40.0" x2="90.7143" y1="225.0" y2="225.0" /><line stroke="rgb(0,0,0)" x1="90.7143" x2="100.7143" y1="225.0" y2="150.0" /><line stroke="rgb(0,0,0)" x1="100.7143" x2="105.7143" y1="150.0" y2="150.0" /><line stroke="rgb(0,0,0)" x1="105.7143" x2="145.71429999999998" y1="150.0" y2="150.0" /><line stroke="rgb(0,0,0)" x1="145.71429999999998" x2="155.71429999999998" y1="150.0" y2="150.0" /><line stroke="rgb(0,0,0)" x1="155.71429999999998" x2="160.71429999999998" y1="150.0" y2="150.0" /><line stroke="rgb(0,0,0)" x1="40.0" x2="50.0" y1="75.0" y2="75.0" /><line stroke="rgb(0,0,0)" x1="50.0" x2="155.71429999999998" y1="75.0" y2="150.0" /><line stroke="rgb(0,0,0)" x1="155.71429999999998" x2="160.71429999999998" y1="150.0" y2="150.0" /><line stroke="rgb(0,0,0)" x1="160.71429999999998" x2="241.2223" y1="150.0" y2="150.0" /><line stroke="rgb(0,0,0)" x1="241.2223" x2="251.22230000000002" y1="150.0" y2="150.0" /><line stroke="rgb(0,0,0)" x1="251.22230000000002" x2="256.2223" y1="150.0" y2="150.0" /><line stroke="rgb(0,0,0)" x1="256.2223" x2="276.63894999999997" y1="150.0" y2="150.0" /><line stroke="rgb(0,0,0)" x1="276.63894999999997" x2="286.63894999999997" y1="150.0" y2="150.0" /><line stroke="rgb(0,0,0)" x1="286.63894999999997" x2="291.63894999999997" y1="150.0" y2="150.0" /><line stroke="rgb(0,0,0)" x1="291.63894999999997" x2="377.33894999999995" y1="150.0" y2="150.0" /><line stroke="rgb(0,0,0)" x1="377.33894999999995" x2="387.33894999999995" y1="150.0" y2="150.0" /><line stroke="rgb(0,0,0)" x1="387.33894999999995" x2="392.33894999999995" y1="150.0" y2="150.0" /><line stroke="rgb(0,0,0)" x1="392.33894999999995" x2="415.1961" y1="150.0" y2="150.0" /><line stroke="rgb(0,0,0)" x1="415.1961" x2="425.1961" y1="150.0" y2="150.0" /><line stroke="rgb(0,0,0)" x1="425.1961" x2="430.1961" y1="150.0" y2="150.0" /><line stroke="rgb(0,0,0)" x1="430.1961" x2="469.95220000000006" y1="150.0" y2="150.0" /><line stroke="rgb(0,0,0)" x1="469.95220000000006" x2="479.95220000000006" y1="150.0" y2="75.0" /><line stroke="rgb(0,0,0)" x1="479.95220000000006" x2="484.95220000000006" y1="75.0" y2="75.0" /><line stroke="rgb(0,0,0)" x1="430.1961" x2="469.95220000000006" y1="150.0" y2="150.0" /><line stroke="rgb(0,0,0)" x1="469.95220000000006" x2="479.95220000000006" y1="150.0" y2="225.0" /><line stroke="rgb(0,0,0)" x1="479.95220000000006" x2="484.95220000000006" y1="225.0" y2="225.0" /><line stroke="rgb(0,0,0)" x1="484.95220000000006" x2="518.2855500000001" y1="75.0" y2="75.0" /><line stroke="rgb(0,0,0)" x1="518.2855500000001" x2="528.2855500000001" y1="75.0" y2="75.0" /><line stroke="rgb(0,0,0)" x1="528.2855500000001" x2="533.2855500000001" y1="75.0" y2="75.0" /><line stroke="rgb(0,0,0)" x1="484.95220000000006" x2="495.4522" y1="225.0" y2="225.0" /><line stroke="rgb(0,0,0)" x1="495.4522" x2="528.2855500000001" y1="225.0" y2="225.0" /><line stroke="rgb(0,0,0)" x1="528.2855500000001" x2="533.2855500000001" y1="225.0" y2="225.0" /><line stroke="rgb(0,0,0)" x1="533.2855500000001" x2="554.98945" y1="75.0" y2="75.0" /><line stroke="rgb(0,0,0)" x1="554.98945" x2="564.98945" y1="75.0" y2="150.0" /><line stroke="rgb(0,0,0)" x1="564.98945" x2="569.98945" y1="150.0" y2="150.0" /><line stroke="rgb(0,0,0)" x1="533.2855500000001" x2="543.78555" y1="225.0" y2="225.0" /><line stroke="rgb(0,0,0)" x1="543.78555" x2="564.98945" y1="225.0" y2="150.0" /><line stroke="rgb(0,0,0)" x1="564.98945" x2="569.98945" y1="150.0" y2="150.0" /><line stroke="rgb(0,0,0)" x1="569.98945" x2="589.98945" y1="150.0" y2="150.0" /><line stroke="rgb(0,0,0)" x1="589.98945" x2="599.98945" y1="150.0" y2="150.0" /><line stroke="rgb(0,0,0)" x1="599.98945" x2="604.98945" y1="150.0" y2="150.0" /><line stroke="rgb(0,0,0)" x1="604.98945" x2="638.918" y1="150.0" y2="150.0" /><line stroke="rgb(0,0,0)" x1="638.918" x2="648.9179999999999" y1="150.0" y2="150.0" /><line stroke="rgb(0,0,0)" x1="648.9179999999999" x2="653.9179999999999" y1="150.0" y2="150.0" /><line stroke="rgb(0,0,0)" x1="653.9179999999999" x2="758.458" y1="150.0" y2="150.0" /><line stroke="rgb(0,0,0)" x1="758.458" x2="768.458" y1="150.0" y2="75.0" /><line stroke="rgb(0,0,0)" x1="768.458" x2="773.458" y1="75.0" y2="75.0" /><line stroke="rgb(0,0,0)" x1="653.9179999999999" x2="758.458" y1="150.0" y2="150.0" /><line stroke="rgb(0,0,0)" x1="758.458" x2="768.458" y1="150.0" y2="225.0" /><line stroke="rgb(0,0,0)" x1="768.458" x2="773.458" y1="225.0" y2="225.0" /><line stroke="rgb(0,0,0)" x1="773.458" x2="783.458" y1="75.0" y2="75.0" /><line stroke="rgb(0,0,0)" x1="783.458" x2="803.5056" y1="75.0" y2="75.0" /><line stroke="rgb(0,0,0)" x1="803.5056" x2="808.5056" y1="75.0" y2="75.0" /><line stroke="rgb(0,0,0)" x1="773.458" x2="793.5056" y1="225.0" y2="225.0" /><line stroke="rgb(0,0,0)" x1="793.5056" x2="803.5056" y1="225.0" y2="225.0" /><line stroke="rgb(0,0,0)" x1="803.5056" x2="808.5056" y1="225.0" y2="225.0" /><line stroke="rgb(0,0,0)" x1="808.5056" x2="818.5056" y1="75.0" y2="75.0" /><line stroke="rgb(0,0,0)" x1="818.5056" x2="848.7004000000001" y1="75.0" y2="150.0" /><line stroke="rgb(0,0,0)" x1="848.7004000000001" x2="853.7004000000001" y1="150.0" y2="150.0" /><line stroke="rgb(0,0,0)" x1="808.5056" x2="838.7004000000001" y1="225.0" y2="225.0" /><line stroke="rgb(0,0,0)" x1="838.7004000000001" x2="848.7004000000001" y1="225.0" y2="150.0" /><line stroke="rgb(0,0,0)" x1="848.7004000000001" x2="853.7004000000001" y1="150.0" y2="150.0" /><line stroke="rgb(0,0,0)" x1="853.7004000000001" x2="926.9534" y1="150.0" y2="150.0" /><line stroke="rgb(0,0,0)" x1="926.9534" x2="936.9534" y1="150.0" y2="150.0" /><line stroke="rgb(0,0,0)" x1="936.9534" x2="941.9534" y1="150.0" y2="150.0" /><line stroke="rgb(0,0,0)" x1="941.9534" x2="963.3423" y1="150.0" y2="150.0" /><line stroke="rgb(0,0,0)" x1="963.3423" x2="973.3423" y1="150.0" y2="75.0" /><line stroke="rgb(0,0,0)" x1="973.3423" x2="978.3423" y1="75.0" y2="75.0" /><line stroke="rgb(0,0,0)" x1="941.9534" x2="963.3423" y1="150.0" y2="150.0" /><line stroke="rgb(0,0,0)" x1="963.3423" x2="973.3423" y1="150.0" y2="225.0" /><line stroke="rgb(0,0,0)" x1="973.3423" x2="978.3423" y1="225.0" y2="225.0" /><line stroke="rgb(0,0,0)" x1="978.3423" x2="1006.6756500000001" y1="75.0" y2="75.0" /><line stroke="rgb(0,0,0)" x1="1006.6756500000001" x2="1016.6756500000001" y1="75.0" y2="150.0" /><line stroke="rgb(0,0,0)" x1="1016.6756500000001" x2="1021.6756500000001" y1="150.0" y2="150.0" /><line stroke="rgb(0,0,0)" x1="978.3423" x2="988.3423" y1="225.0" y2="225.0" /><line stroke="rgb(0,0,0)" x1="988.3423" x2="1016.6756500000001" y1="225.0" y2="150.0" /><line stroke="rgb(0,0,0)" x1="1016.6756500000001" x2="1021.6756500000001" y1="150.0" y2="150.0" /><line stroke="rgb(0,0,0)" x1="1021.6756500000001" x2="1120.6556500000002" y1="150.0" y2="150.0" /><line stroke="rgb(0,0,0)" x1="1120.6556500000002" x2="1130.6556500000002" y1="150.0" y2="150.0" /><line stroke="rgb(0,0,0)" x1="1130.6556500000002" x2="1135.6556500000002" y1="150.0" y2="150.0" /><line stroke="rgb(0,0,0)" x1="1135.6556500000002" x2="1160.40975" y1="150.0" y2="150.0" /><line stroke="rgb(0,0,0)" x1="1160.40975" x2="1170.40975" y1="150.0" y2="150.0" /><line stroke="rgb(0,0,0)" x1="1170.40975" x2="1175.40975" y1="150.0" y2="150.0" /><line stroke="rgb(0,0,0)" x1="1175.40975" x2="1290.58975" y1="150.0" y2="150.0" /><line stroke="rgb(0,0,0)" x1="1290.58975" x2="1300.58975" y1="150.0" y2="75.0" /><line stroke="rgb(0,0,0)" x1="1300.58975" x2="1305.58975" y1="75.0" y2="75.0" /><line stroke="rgb(0,0,0)" x1="1175.40975" x2="1290.58975" y1="150.0" y2="150.0" /><line stroke="rgb(0,0,0)" x1="1290.58975" x2="1300.58975" y1="150.0" y2="225.0" /><line stroke="rgb(0,0,0)" x1="1300.58975" x2="1305.58975" y1="225.0" y2="225.0" /><line stroke="rgb(0,0,0)" x1="1305.58975" x2="1315.58975" y1="225.0" y2="225.0" /><line stroke="rgb(0,0,0)" x1="1315.58975" x2="1336.359" y1="225.0" y2="75.0" /><line stroke="rgb(0,0,0)" x1="1336.359" x2="1341.359" y1="75.0" y2="75.0" /><line stroke="rgb(0,0,0)" x1="1305.58975" x2="1326.359" y1="75.0" y2="75.0" /><line stroke="rgb(0,0,0)" x1="1326.359" x2="1336.359" y1="75.0" y2="225.0" /><line stroke="rgb(0,0,0)" x1="1336.359" x2="1341.359" y1="225.0" y2="225.0" /><rect fill="rgb(0,0,255)" height="0.4" stroke="rgb(0,0,0)" width="5.0" x="5.0" y="74.8" /><text fill="black" x="5.0" y="95.2">E0</text><rect fill="rgb(8,6,255)" height="2.4" stroke="rgb(0,0,0)" width="15.0" x="5.0" y="223.8" /><text fill="black" x="5.0" y="246.2">H1</text><rect fill="rgb(0,0,255)" height="0.4" stroke="rgb(0,0,0)" width="5.0" x="40.0" y="74.8" /><text fill="black" x="40.0" y="95.2">E2</text><rect fill="rgb(255,165,211)" height="8.4" stroke="rgb(0,0,0)" width="45.7143" x="40.0" y="220.8" /><text fill="black" x="40.0" y="249.2">H3</text><rect fill="rgb(141,111,255)" height="1.2" stroke="rgb(0,0,0)" width="35.0" x="105.7143" y="149.4" /><text fill="black" x="105.7143" y="170.6">H4</text><rect fill="rgb(195,153,255)" height="98.4" stroke="rgb(0,0,0)" width="75.508" x="160.71429999999998" y="100.8" /><text fill="black" x="160.71429999999998" y="219.2">H5</text><rect fill="rgb(88,69,255)" height="4.8" stroke="rgb(0,0,0)" width="15.41665" x="256.2223" y="147.6" /><text fill="black" x="256.2223" y="172.4">H6</text><rect fill="rgb(100,79,255)" height="100.0" stroke="rgb(0,0,0)" width="80.7" x="291.63894999999997" y="100.0" /><text fill="black" x="291.63894999999997" y="220.0">H7</text><rect fill="rgb(95,74,255)" height="2.8000000000000003" stroke="rgb(0,0,0)" width="17.85715" x="392.33894999999995" y="148.6" /><text fill="black" x="392.33894999999995" y="171.4">H8</text><rect fill="rgb(37,29,255)" height="98.4" stroke="rgb(0,0,0)" width="34.7561" x="430.1961" y="100.8" /><text fill="black" x="430.1961" y="219.2">H9</text><rect fill="rgb(246,193,255)" height="1.2" stroke="rgb(0,0,0)" width="28.33335" x="484.95220000000006" y="74.4" /><text fill="black" x="484.95220000000006" y="95.6">H10</text><rect fill="rgb(167,131,255)" height="4.0" stroke="rgb(0,0,0)" width="5.5" x="484.95220000000006" y="223.0" /><text fill="black" x="484.95220000000006" y="247.0">E11</text><rect fill="rgb(90,71,255)" height="71.6" stroke="rgb(0,0,0)" width="16.7039" x="533.2855500000001" y="39.2" /><text fill="black" x="533.2855500000001" y="130.8">H12</text><rect fill="rgb(158,124,255)" height="4.0" stroke="rgb(0,0,0)" width="5.5" x="533.2855500000001" y="223.0" /><text fill="black" x="533.2855500000001" y="247.0">E13</text><rect fill="rgb(162,127,255)" height="7.199999999999999" stroke="rgb(0,0,0)" width="15.0" x="569.98945" y="146.4" /><text fill="black" x="569.98945" y="173.6">H14</text><rect fill="rgb(83,65,255)" height="72.8" stroke="rgb(0,0,0)" width="28.92855" x="604.98945" y="113.6" /><text fill="black" x="604.98945" y="206.4">H15</text><rect fill="rgb(96,75,255)" height="100.0" stroke="rgb(0,0,0)" width="99.54" x="653.9179999999999" y="100.0" /><text fill="black" x="653.9179999999999" y="220.0">H16</text><rect fill="rgb(1,1,255)" height="2.8000000000000003" stroke="rgb(0,0,0)" width="5.0" x="773.458" y="73.6" /><text fill="black" x="773.458" y="96.4">E17</text><rect fill="rgb(72,57,255)" height="42.0" stroke="rgb(0,0,0)" width="15.047600000000001" x="773.458" y="204.0" /><text fill="black" x="773.458" y="266.0">H18</text><rect fill="rgb(1,0,255)" height="2.8000000000000003" stroke="rgb(0,0,0)" width="5.0" x="808.5056" y="73.6" /><text fill="black" x="808.5056" y="96.4">E19</text><rect fill="rgb(133,105,255)" height="30.8" stroke="rgb(0,0,0)" width="25.1948" x="808.5056" y="209.6" /><text fill="black" x="808.5056" y="260.4">H20</text><rect fill="rgb(211,165,255)" height="99.6" stroke="rgb(0,0,0)" width="68.253" x="853.7004000000001" y="100.2" /><text fill="black" x="853.7004000000001" y="219.8">H21</text><rect fill="rgb(203,159,255)" height="7.199999999999999" stroke="rgb(0,0,0)" width="16.3889" x="941.9534" y="146.4" /><text fill="black" x="941.9534" y="173.6">H22</text><rect fill="rgb(46,36,255)" height="2.4" stroke="rgb(0,0,0)" width="23.33335" x="978.3423" y="73.8" /><text fill="black" x="978.3423" y="96.2">H23</text><rect fill="rgb(86,67,255)" height="1.6" stroke="rgb(0,0,0)" width="5.0" x="978.3423" y="224.2" /><text fill="black" x="978.3423" y="245.8">E24</text><rect fill="rgb(63,49,255)" height="100.0" stroke="rgb(0,0,0)" width="93.97999999999999" x="1021.6756500000001" y="100.0" /><text fill="black" x="1021.6756500000001" y="220.0">H25</text><rect fill="rgb(34,26,255)" height="73.2" stroke="rgb(0,0,0)" width="19.7541" x="1135.6556500000002" y="113.4" /><text fill="black" x="1135.6556500000002" y="206.6">H26</text><rect fill="rgb(216,169,255)" height="100.0" stroke="rgb(0,0,0)" width="110.18" x="1175.40975" y="100.0" /><text fill="black" x="1175.40975" y="220.0">H27</text><rect fill="rgb(75,59,255)" height="5.2" stroke="rgb(0,0,0)" width="15.76925" x="1305.58975" y="72.4" /><text fill="black" x="1305.58975" y="97.6">H28</text><rect fill="rgb(167,130,255)" height="2.0" stroke="rgb(0,0,0)" width="5.0" x="1305.58975" y="224.0" /><text fill="black" x="1305.58975" y="246.0">E29</text><rect fill="rgb(0,0,255)" height="0.4" stroke="rgb(0,0,0)" width="5.0" x="1341.359" y="74.8" /><text fill="black" x="1341.359" y="95.2">E30</text><rect fill="rgb(255,79,101)" height="4.0" stroke="rgb(0,0,0)" width="17.0" x="1341.359" y="223.0" /><text fill="black" x="1341.359" y="247.0">H31</text><path d="M 42.5,75.0 a 27.602226685246183,27.602226685246183 0 0,0 -35.0,-0.0" stroke="rgb(0,0,255)" stroke-width="2" /><path d="M 42.5,75.0 a 27.602226685246183,27.602226685246183 0 0,0 -35.0,-0.0" stroke="rgb(0,0,0)" stroke-width="0.2" /><path d="M 536.0355500000001,225.0 a 39.402582639017034,39.402582639017034 0 0,0 -48.333349999999996,-0.0" stroke="rgb(167,131,255)" stroke-width="2" /><path d="M 536.0355500000001,225.0 a 39.402582639017034,39.402582639017034 0 0,0 -48.333349999999996,-0.0" stroke="rgb(0,0,0)" stroke-width="0.2" /><path d="M 811.0056,75.0 a 27.643072657925973,27.643072657925973 0 0,0 -35.04759999999999,-0.0" stroke="rgb(1,1,255)" stroke-width="2" /><path d="M 811.0056,75.0 a 27.643072657925973,27.643072657925973 0 0,0 -35.04759999999999,-0.0" stroke="rgb(0,0,0)" stroke-width="0.2" /><path d="M 980.8423,225.0 a 270.8883943897785,270.8883943897785 0 0,0 327.2474500000001,-0.0" stroke="rgb(86,67,255)" stroke-width="2" /><path d="M 980.8423,225.0 a 270.8883943897785,270.8883943897785 0 0,0 327.2474500000001,-0.0" stroke="rgb(0,0,0)" stroke-width="0.2" /><path d="M 1343.859,75.0 a 159.54100313817054,159.54100313817054 0 0,0 -35.76924999999983,150.0" stroke="rgb(167,130,255)" stroke-width="2" /><path d="M 1343.859,75.0 a 159.54100313817054,159.54100313817054 0 0,0 -35.76924999999983,150.0" stroke="rgb(0,0,0)" stroke-width="0.2" /></svg>