<?xml version="1.0" encoding="utf-8" ?>
<svg baseProfile="full" height="100%" style="font-size:14;font-family:Sans, Arial;stroke-width:1;fill:none" version="1.1" width="100%" xmlns="http://www.w3.org/2000/svg" xmlns:ev="http://www.w3.org/2001/xml-events" xmlns:xlink="http://www.w3.org/1999/xlink"><defs /><rect fill="none" height="130.0" stroke="none" width="1008.5460499999999" x="0" y="0" /><line stroke="rgb(0,0,0)" x1="5.0" x2="85.508" y1="55.0" y2="55.0" /><line stroke="rgb(0,0,0)" x1="85.508" x2="105.50799999999998" y1="55.0" y2="55.0" /><line stroke="rgb(0,0,0)" x1="105.50799999999998" x2="110.50799999999998" y1="55.0" y2="55.0" /><line stroke="rgb(0,0,0)" x1="110.50799999999998" x2="196.208" y1="55.0" y2="55.0" /><line stroke="rgb(0,0,0)" x1="196.208" x2="216.208" y1="55.0" y2="55.0" /><line stroke="rgb(0,0,0)" x1="216.208" x2="221.208" y1="55.0" y2="55.0" /><line stroke="rgb(0,0,0)" x1="221.208" x2="260.9641" y1="55.0" y2="55.0" /><line stroke="rgb(0,0,0)" x1="260.9641" x2="280.9641" y1="55.0" y2="55.0" /><line stroke="rgb(0,0,0)" x1="280.9641" x2="285.9641" y1="55.0" y2="55.0" /><line stroke="rgb(0,0,0)" x1="285.9641" x2="307.668" y1="55.0" y2="55.0" /><line stroke="rgb(0,0,0)" x1="307.668" x2="327.668" y1="55.0" y2="55.0" /><line stroke="rgb(0,0,0)" x1="327.668" x2="332.668" y1="55.0" y2="55.0" /><line stroke="rgb(0,0,0)" x1="332.668" x2="366.59655" y1="55.0" y2="55.0" /><line stroke="rgb(0,0,0)" x1="366.59655" x2="386.59655" y1="55.0" y2="55.0" /><line stroke="rgb(0,0,0)" x1="386.59655" x2="391.59655" y1="55.0" y2="55.0" /><line stroke="rgb(0,0,0)" x1="391.59655" x2="496.13655" y1="55.0" y2="55.0" /><line stroke="rgb(0,0,0)" x1="496.13655" x2="516.13655" y1="55.0" y2="55.0" /><line stroke="rgb(0,0,0)" x1="516.13655" x2="521.13655" y1="55.0" y2="55.0" /><line stroke="rgb(0,0,0)" x1="521.13655" x2="541.18415" y1="55.0" y2="55.0" /><line stroke="rgb(0,0,0)" x1="541.18415" x2="561.18415" y1="55.0" y2="55.0" /><line stroke="rgb(0,0,0)" x1="561.18415" x2="566.18415" y1="55.0" y2="55.0" /><line stroke="rgb(0,0,0)" x1="566.18415" x2="596.37895" y1="55.0" y2="55.0" /><line stroke="rgb(0,0,0)" x1="596.37895" x2="616.37895" y1="55.0" y2="55.0" /><line stroke="rgb(0,0,0)" x1="616.37895" x2="621.37895" y1="55.0" y2="55.0" /><line stroke="rgb(0,0,0)" x1="621.37895" x2="694.63195" y1="55.0" y2="55.0" /><line stroke="rgb(0,0,0)" x1="694.63195" x2="714.63195" y1="55.0" y2="55.0" /><line stroke="rgb(0,0,0)" x1="714.63195" x2="719.63195" y1="55.0" y2="55.0" /><line stroke="rgb(0,0,0)" x1="719.63195" x2="818.61195" y1="55.0" y2="55.0" /><line stroke="rgb(0,0,0)" x1="818.61195" x2="838.61195" y1="55.0" y2="55.0" /><line stroke="rgb(0,0,0)" x1="838.61195" x2="843.61195" y1="55.0" y2="55.0" /><line stroke="rgb(0,0,0)" x1="843.61195" x2="868.3660499999999" y1="55.0" y2="55.0" /><line stroke="rgb(0,0,0)" x1="868.3660499999999" x2="888.3660499999999" y1="55.0" y2="55.0" /><line stroke="rgb(0,0,0)" x1="888.3660499999999" x2="893.3660499999999" y1="55.0" y2="55.0" /><rect fill="rgb(150,150,150)" height="98.4" stroke="rgb(0,0,0)" width="75.508" x="5.0" y="5.799999999999997" /><text fill="black" x="5.0" y="124.2">H5</text><rect fill="rgb(150,150,150)" height="100.0" stroke="rgb(0,0,0)" width="80.7" x="110.50799999999998" y="5.0" /><text fill="black" x="110.50799999999998" y="125.0">H7</text><rect fill="rgb(150,150,150)" height="98.4" stroke="rgb(0,0,0)" width="34.7561" x="221.208" y="5.799999999999997" /><text fill="black" x="221.208" y="124.2">H9</text><rect fill="rgb(150,150,150)" height="71.6" stroke="rgb(0,0,0)" width="16.7039" x="285.9641" y="19.200000000000003" /><text fill="black" x="285.9641" y="110.8">H12</text><rect fill="rgb(150,150,150)" height="72.8" stroke="rgb(0,0,0)" width="28.92855" x="332.668" y="18.6" /><text fill="black" x="332.668" y="111.4">H15</text><rect fill="rgb(150,150,150)" height="100.0" stroke="rgb(0,0,0)" width="99.54" x="391.59655" y="5.0" /><text fill="black" x="391.59655" y="125.0">H16</text><rect fill="rgb(150,150,150)" height="42.0" stroke="rgb(0,0,0)" width="15.047600000000001" x="521.13655" y="34.0" /><text fill="black" x="521.13655" y="96.0">H18</text><rect fill="rgb(150,150,150)" height="30.8" stroke="rgb(0,0,0)" width="25.1948" x="566.18415" y="39.6" /><text fill="black" x="566.18415" y="90.4">H20</text><rect fill="rgb(150,150,150)" height="99.6" stroke="rgb(0,0,0)" width="68.253" x="621.37895" y="5.200000000000003" /><text fill="black" x="621.37895" y="124.8">H21</text><rect fill="rgb(150,150,150)" height="100.0" stroke="rgb(0,0,0)" width="93.97999999999999" x="719.63195" y="5.0" /><text fill="black" x="719.63195" y="125.0">H25</text><rect fill="rgb(150,150,150)" height="73.2" stroke="rgb(0,0,0)" width="19.7541" x="843.61195" y="18.4" /><text fill="black" x="843.61195" y="111.6">H26</text><rect fill="rgb(150,150,150)" height="100.0" stroke="rgb(0,0,0)" width="110.18" x="893.3660499999999" y="5.0" /><text fill="black" x="893.3660499999999" y="125.0">H27</text></svg>