<?xml version="1.0" encoding="utf-8" ?>
<svg baseProfile="full" height="100%" style="font-size:14;font-family:Sans, Arial;stroke-width:1;fill:none" version="1.1" width="100%" xmlns="http://www.w3.org/2000/svg" xmlns:ev="http://www.w3.org/2001/xml-events" xmlns:xlink="http://www.w3.org/1999/xlink"><defs /><rect fill="none" height="280.0" stroke="none" width="1583.3590000000002" x="0" y="0" /><line stroke="rgb(0,0,0)" x1="5.0" x2="15.0" y1="55.0" y2="55.0" /><line stroke="rgb(0,0,0)" x1="15.0" x2="45.0" y1="55.0" y2="55.0" /><line stroke="rgb(0,0,0)" x1="45.0" x2="50.0" y1="55.0" y2="55.0" /><line stroke="rgb(0,0,0)" x1="5.0" x2="25.0" y1="205.0" y2="205.0" /><line stroke="rgb(0,0,0)" x1="25.0" x2="45.0" y1="205.0" y2="205.0" /><line stroke="rgb(0,0,0)" x1="45.0" x2="50.0" y1="205.0" y2="205.0" /><line stroke="rgb(0,0,0)" x1="50.0" x2="100.7143" y1="205.0" y2="205.0" /><line stroke="rgb(0,0,0)" x1="100.7143" x2="120.7143" y1="205.0" y2="130.0" /><line stroke="rgb(0,0,0)" x1="120.7143" x2="125.7143" y1="130.0" y2="130.0" /><line stroke="rgb(0,0,0)" x1="125.7143" x2="165.71429999999998" y1="130.0" y2="130.0" /><line stroke="rgb(0,0,0)" x1="165.71429999999998" x2="185.71429999999998" y1="130.0" y2="130.0" /><line stroke="rgb(0,0,0)" x1="185.71429999999998" x2="190.71429999999998" y1="130.0" y2="130.0" /><line stroke="rgb(0,0,0)" x1="50.0" x2="60.0" y1="55.0" y2="55.0" /><line stroke="rgb(0,0,0)" x1="60.0" x2="185.71429999999998" y1="55.0" y2="130.0" /><line stroke="rgb(0,0,0)" x1="185.71429999999998" x2="190.71429999999998" y1="130.0" y2="130.0" /><line stroke="rgb(0,0,0)" x1="190.71429999999998" x2="271.22229999999996" y1="130.0" y2="130.0" /><line stroke="rgb(0,0,0)" x1="271.22229999999996" x2="291.22229999999996" y1="130.0" y2="130.0" /><line stroke="rgb(0,0,0)" x1="291.22229999999996" x2="296.22229999999996" y1="130.0" y2="130.0" /><line stroke="rgb(0,0,0)" x1="296.22229999999996" x2="316.63894999999997" y1="130.0" y2="130.0" /><line stroke="rgb(0,0,0)" x1="316.63894999999997" x2="336.63894999999997" y1="130.0" y2="130.0" /><line stroke="rgb(0,0,0)" x1="336.63894999999997" x2="341.63894999999997" y1="130.0" y2="130.0" /><line stroke="rgb(0,0,0)" x1="341.63894999999997" x2="427.33894999999995" y1="130.0" y2="130.0" /><line stroke="rgb(0,0,0)" x1="427.33894999999995" x2="447.33894999999995" y1="130.0" y2="130.0" /><line stroke="rgb(0,0,0)" x1="447.33894999999995" x2="452.33894999999995" y1="130.0" y2="130.0" /><line stroke="rgb(0,0,0)" x1="452.33894999999995" x2="475.1961" y1="130.0" y2="130.0" /><line stroke="rgb(0,0,0)" x1="475.1961" x2="495.1961" y1="130.0" y2="130.0" /><line stroke="rgb(0,0,0)" x1="495.1961" x2="500.1961" y1="130.0" y2="130.0" /><line stroke="rgb(0,0,0)" x1="500.1961" x2="539.9522000000001" y1="130.0" y2="130.0" /><line stroke="rgb(0,0,0)" x1="539.9522000000001" x2="559.9522000000001" y1="130.0" y2="55.0" /><line stroke="rgb(0,0,0)" x1="559.9522000000001" x2="564.9522000000001" y1="55.0" y2="55.0" /><line stroke="rgb(0,0,0)" x1="500.1961" x2="539.9522000000001" y1="130.0" y2="130.0" /><line stroke="rgb(0,0,0)" x1="539.9522000000001" x2="559.9522000000001" y1="130.0" y2="205.0" /><line stroke="rgb(0,0,0)" x1="559.9522000000001" x2="564.9522000000001" y1="205.0" y2="205.0" /><line stroke="rgb(0,0,0)" x1="564.9522000000001" x2="598.2855500000001" y1="55.0" y2="55.0" /><line stroke="rgb(0,0,0)" x1="598.2855500000001" x2="618.2855500000001" y1="55.0" y2="55.0" /><line stroke="rgb(0,0,0)" x1="618.2855500000001" x2="623.2855500000001" y1="55.0" y2="55.0" /><line stroke="rgb(0,0,0)" x1="564.9522000000001" x2="575.4522" y1="205.0" y2="205.0" /><line stroke="rgb(0,0,0)" x1="575.4522" x2="618.2855500000001" y1="205.0" y2="205.0" /><line stroke="rgb(0,0,0)" x1="618.2855500000001" x2="623.2855500000001" y1="205.0" y2="205.0" /><line stroke="rgb(0,0,0)" x1="623.2855500000001" x2="644.98945" y1="55.0" y2="55.0" /><line stroke="rgb(0,0,0)" x1="644.98945" x2="664.9894499999999" y1="55.0" y2="130.0" /><line stroke="rgb(0,0,0)" x1="664.9894499999999" x2="669.9894499999999" y1="130.0" y2="130.0" /><line stroke="rgb(0,0,0)" x1="623.2855500000001" x2="633.78555" y1="205.0" y2="205.0" /><line stroke="rgb(0,0,0)" x1="633.78555" x2="664.9894499999999" y1="205.0" y2="130.0" /><line stroke="rgb(0,0,0)" x1="664.9894499999999" x2="669.9894499999999" y1="130.0" y2="130.0" /><line stroke="rgb(0,0,0)" x1="669.9894499999999" x2="689.9894499999999" y1="130.0" y2="130.0" /><line stroke="rgb(0,0,0)" x1="689.9894499999999" x2="709.9894499999999" y1="130.0" y2="130.0" /><line stroke="rgb(0,0,0)" x1="709.9894499999999" x2="714.9894499999999" y1="130.0" y2="130.0" /><line stroke="rgb(0,0,0)" x1="714.9894499999999" x2="748.9179999999999" y1="130.0" y2="130.0" /><line stroke="rgb(0,0,0)" x1="748.9179999999999" x2="768.9179999999999" y1="130.0" y2="130.0" /><line stroke="rgb(0,0,0)" x1="768.9179999999999" x2="773.9179999999999" y1="130.0" y2="130.0" /><line stroke="rgb(0,0,0)" x1="773.9179999999999" x2="878.458" y1="130.0" y2="130.0" /><line stroke="rgb(0,0,0)" x1="878.458" x2="898.458" y1="130.0" y2="55.0" /><line stroke="rgb(0,0,0)" x1="898.458" x2="903.458" y1="55.0" y2="55.0" /><line stroke="rgb(0,0,0)" x1="773.9179999999999" x2="878.458" y1="130.0" y2="130.0" /><line stroke="rgb(0,0,0)" x1="878.458" x2="898.458" y1="130.0" y2="205.0" /><line stroke="rgb(0,0,0)" x1="898.458" x2="903.458" y1="205.0" y2="205.0" /><line stroke="rgb(0,0,0)" x1="903.458" x2="913.458" y1="55.0" y2="55.0" /><line stroke="rgb(0,0,0)" x1="913.458" x2="943.5056" y1="55.0" y2="55.0" /><line stroke="rgb(0,0,0)" x1="943.5056" x2="948.5056" y1="55.0" y2="55.0" /><line stroke="rgb(0,0,0)" x1="903.458" x2="923.5056" y1="205.0" y2="205.0" /><line stroke="rgb(0,0,0)" x1="923.5056" x2="943.5056" y1="205.0" y2="205.0" /><line stroke="rgb(0,0,0)" x1="943.5056" x2="948.5056" y1="205.0" y2="205.0" /><line stroke="rgb(0,0,0)" x1="948.5056" x2="958.5056" y1="55.0" y2="55.0" /><line stroke="rgb(0,0,0)" x1="958.5056" x2="998.7004000000001" y1="55.0" y2="130.0" /><line stroke="rgb(0,0,0)" x1="998.7004000000001" x2="1003.7004000000001" y1="130.0" y2="130.0" /><line stroke="rgb(0,0,0)" x1="948.5056" x2="978.7004000000001" y1="205.0" y2="205.0" /><line stroke="rgb(0,0,0)" x1="978.7004000000001" x2="998.7004000000001" y1="205.0" y2="130.0" /><line stroke="rgb(0,0,0)" x1="998.7004000000001" x2="1003.7004000000001" y1="130.0" y2="130.0" /><line stroke="rgb(0,0,0)" x1="1003.7004000000001" x2="1076.9534" y1="130.0" y2="130.0" /><line stroke="rgb(0,0,0)" x1="1076.9534" x2="1096.9534" y1="130.0" y2="130.0" /><line stroke="rgb(0,0,0)" x1="1096.9534" x2="1101.9534" y1="130.0" y2="130.0" /><line stroke="rgb(0,0,0)" x1="1101.9534" x2="1123.3423" y1="130.0" y2="130.0" /><line stroke="rgb(0,0,0)" x1="1123.3423" x2="1143.3423" y1="130.0" y2="55.0" /><line stroke="rgb(0,0,0)" x1="1143.3423" x2="1148.3423" y1="55.0" y2="55.0" /><line stroke="rgb(0,0,0)" x1="1101.9534" x2="1123.3423" y1="130.0" y2="130.0" /><line stroke="rgb(0,0,0)" x1="1123.3423" x2="1143.3423" y1="130.0" y2="205.0" /><line stroke="rgb(0,0,0)" x1="1143.3423" x2="1148.3423" y1="205.0" y2="205.0" /><line stroke="rgb(0,0,0)" x1="1148.3423" x2="1176.6756500000001" y1="55.0" y2="55.0" /><line stroke="rgb(0,0,0)" x1="1176.6756500000001" x2="1196.6756500000001" y1="55.0" y2="130.0" /><line stroke="rgb(0,0,0)" x1="1196.6756500000001" x2="1201.6756500000001" y1="130.0" y2="130.0" /><line stroke="rgb(0,0,0)" x1="1148.3423" x2="1158.3423" y1="205.0" y2="205.0" /><line stroke="rgb(0,0,0)" x1="1158.3423" x2="1196.6756500000001" y1="205.0" y2="130.0" /><line stroke="rgb(0,0,0)" x1="1196.6756500000001" x2="1201.6756500000001" y1="130.0" y2="130.0" /><line stroke="rgb(0,0,0)" x1="1201.6756500000001" x2="1300.6556500000002" y1="130.0" y2="130.0" /><line stroke="rgb(0,0,0)" x1="1300.6556500000002" x2="1320.6556500000002" y1="130.0" y2="130.0" /><line stroke="rgb(0,0,0)" x1="1320.6556500000002" x2="1325.6556500000002" y1="130.0" y2="130.0" /><line stroke="rgb(0,0,0)" x1="1325.6556500000002" x2="1350.4097500000003" y1="130.0" y2="130.0" /><line stroke="rgb(0,0,0)" x1="1350.4097500000003" x2="1370.4097500000003" y1="130.0" y2="130.0" /><line stroke="rgb(0,0,0)" x1="1370.4097500000003" x2="1375.4097500000003" y1="130.0" y2="130.0" /><line stroke="rgb(0,0,0)" x1="1375.4097500000003" x2="1490.5897500000003" y1="130.0" y2="130.0" /><line stroke="rgb(0,0,0)" x1="1490.5897500000003" x2="1510.5897500000003" y1="130.0" y2="55.0" /><line stroke="rgb(0,0,0)" x1="1510.5897500000003" x2="1515.5897500000003" y1="55.0" y2="55.0" /><line stroke="rgb(0,0,0)" x1="1375.4097500000003" x2="1490.5897500000003" y1="130.0" y2="130.0" /><line stroke="rgb(0,0,0)" x1="1490.5897500000003" x2="1510.5897500000003" y1="130.0" y2="205.0" /><line stroke="rgb(0,0,0)" x1="1510.5897500000003" x2="1515.5897500000003" y1="205.0" y2="205.0" /><line stroke="rgb(0,0,0)" x1="1515.5897500000003" x2="1525.5897500000003" y1="205.0" y2="205.0" /><line stroke="rgb(0,0,0)" x1="1525.5897500000003" x2="1556.3590000000002" y1="205.0" y2="55.0" /><line stroke="rgb(0,0,0)" x1="1556.3590000000002" x2="1561.3590000000002" y1="55.0" y2="55.0" /><line stroke="rgb(0,0,0)" x1="1515.5897500000003" x2="1536.3590000000002" y1="55.0" y2="55.0" /><line stroke="rgb(0,0,0)" x1="1536.3590000000002" x2="1556.3590000000002" y1="55.0" y2="205.0" /><line stroke="rgb(0,0,0)" x1="1556.3590000000002" x2="1561.3590000000002" y1="205.0" y2="205.0" /><rect fill="rgb(255,150,255)" height="0.4" stroke="rgb(0,0,0)" width="5.0" x="5.0" y="54.8" /><text fill="black" x="5.0" y="75.2">E0</text><rect fill="rgb(150,150,150)" height="2.4" stroke="rgb(0,0,0)" width="15.0" x="5.0" y="203.8" /><text fill="black" x="5.0" y="226.2">H1</text><rect fill="rgb(255,150,255)" height="0.4" stroke="rgb(0,0,0)" width="5.0" x="50.0" y="54.8" /><text fill="black" x="50.0" y="75.2">E2</text><rect fill="rgb(150,150,150)" height="8.4" stroke="rgb(0,0,0)" width="45.7143" x="50.0" y="200.8" /><text fill="black" x="50.0" y="229.2">H3</text><rect fill="rgb(150,150,150)" height="1.2" stroke="rgb(0,0,0)" width="35.0" x="125.7143" y="129.4" /><text fill="black" x="125.7143" y="150.6">H4</text><rect fill="rgb(150,150,150)" height="98.4" stroke="rgb(0,0,0)" width="75.508" x="190.71429999999998" y="80.8" /><text fill="black" x="190.71429999999998" y="199.2">H5</text><rect fill="rgb(150,150,150)" height="4.8" stroke="rgb(0,0,0)" width="15.41665" x="296.22229999999996" y="127.6" /><text fill="black" x="296.22229999999996" y="152.4">H6</text><rect fill="rgb(150,150,150)" height="100.0" stroke="rgb(0,0,0)" width="80.7" x="341.63894999999997" y="80.0" /><text fill="black" x="341.63894999999997" y="200.0">H7</text><rect fill="rgb(150,150,150)" height="2.8000000000000003" stroke="rgb(0,0,0)" width="17.85715" x="452.33894999999995" y="128.6" /><text fill="black" x="452.33894999999995" y="151.4">H8</text><rect fill="rgb(150,150,150)" height="98.4" stroke="rgb(0,0,0)" width="34.7561" x="500.1961" y="80.8" /><text fill="black" x="500.1961" y="199.2">H9</text><rect fill="rgb(150,150,150)" height="1.2" stroke="rgb(0,0,0)" width="28.33335" x="564.9522000000001" y="54.4" /><text fill="black" x="564.9522000000001" y="75.6">H10</text><rect fill="rgb(255,150,150)" height="4.0" stroke="rgb(0,0,0)" width="5.5" x="564.9522000000001" y="203.0" /><text fill="black" x="564.9522000000001" y="227.0">E11</text><rect fill="rgb(150,150,150)" height="71.6" stroke="rgb(0,0,0)" width="16.7039" x="623.2855500000001" y="19.200000000000003" /><text fill="black" x="623.2855500000001" y="110.8">H12</text><rect fill="rgb(255,150,150)" height="4.0" stroke="rgb(0,0,0)" width="5.5" x="623.2855500000001" y="203.0" /><text fill="black" x="623.2855500000001" y="227.0">E13</text><rect fill="rgb(150,150,150)" height="7.199999999999999" stroke="rgb(0,0,0)" width="15.0" x="669.9894499999999" y="126.4" /><text fill="black" x="669.9894499999999" y="153.6">H14</text><rect fill="rgb(150,150,150)" height="72.8" stroke="rgb(0,0,0)" width="28.92855" x="714.9894499999999" y="93.6" /><text fill="black" x="714.9894499999999" y="186.4">H15</text><rect fill="rgb(150,150,150)" height="100.0" stroke="rgb(0,0,0)" width="99.54" x="773.9179999999999" y="80.0" /><text fill="black" x="773.9179999999999" y="200.0">H16</text><rect fill="rgb(150,150,255)" height="2.8000000000000003" stroke="rgb(0,0,0)" width="5.0" x="903.458" y="53.6" /><text fill="black" x="903.458" y="76.4">E17</text><rect fill="rgb(150,150,150)" height="42.0" stroke="rgb(0,0,0)" width="15.047600000000001" x="903.458" y="184.0" /><text fill="black" x="903.458" y="246.0">H18</text><rect fill="rgb(150,150,255)" height="2.8000000000000003" stroke="rgb(0,0,0)" width="5.0" x="948.5056" y="53.6" /><text fill="black" x="948.5056" y="76.4">E19</text><rect fill="rgb(150,150,150)" height="30.8" stroke="rgb(0,0,0)" width="25.1948" x="948.5056" y="189.6" /><text fill="black" x="948.5056" y="240.4">H20</text><rect fill="rgb(150,150,150)" height="99.6" stroke="rgb(0,0,0)" width="68.253" x="1003.7004000000001" y="80.2" /><text fill="black" x="1003.7004000000001" y="199.8">H21</text><rect fill="rgb(150,150,150)" height="7.199999999999999" stroke="rgb(0,0,0)" width="16.3889" x="1101.9534" y="126.4" /><text fill="black" x="1101.9534" y="153.6">H22</text><rect fill="rgb(150,150,150)" height="2.4" stroke="rgb(0,0,0)" width="23.33335" x="1148.3423" y="53.8" /><text fill="black" x="1148.3423" y="76.2">H23</text><rect fill="rgb(150,255,150)" height="1.6" stroke="rgb(0,0,0)" width="5.0" x="1148.3423" y="204.2" /><text fill="black" x="1148.3423" y="225.8">E24</text><rect fill="rgb(150,150,150)" height="100.0" stroke="rgb(0,0,0)" width="93.97999999999999" x="1201.6756500000001" y="80.0" /><text fill="black" x="1201.6756500000001" y="200.0">H25</text><rect fill="rgb(150,150,150)" height="73.2" stroke="rgb(0,0,0)" width="19.7541" x="1325.6556500000002" y="93.4" /><text fill="black" x="1325.6556500000002" y="186.6">H26</text><rect fill="rgb(150,150,150)" height="100.0" stroke="rgb(0,0,0)" width="110.18" x="1375.4097500000003" y="80.0" /><text fill="black" x="1375.4097500000003" y="200.0">H27</text><rect fill="rgb(150,150,150)" height="5.2" stroke="rgb(0,0,0)" width="15.76925" x="1515.5897500000003" y="52.4" /><text fill="black" x="1515.5897500000003" y="77.6">H28</text><rect fill="rgb(150,255,150)" height="2.0" stroke="rgb(0,0,0)" width="5.0" x="1515.5897500000003" y="204.0" /><text fill="black" x="1515.5897500000003" y="226.0">E29</text><rect fill="rgb(150,255,150)" height="0.4" stroke="rgb(0,0,0)" width="5.0" x="1561.3590000000002" y="54.8" /><text fill="black" x="1561.3590000000002" y="75.2">E30</text><rect fill="rgb(150,150,150)" height="4.0" stroke="rgb(0,0,0)" width="17.0" x="1561.3590000000002" y="203.0" /><text fill="black" x="1561.3590000000002" y="227.0">H31</text></svg>