<?xml version="1.0" encoding="utf-8" ?>
<svg baseProfile="full" height="100%" style="font-size:14;font-family:Sans, Arial;stroke-width:1;fill:none" version="1.1" width="100%" xmlns="http://www.w3.org/2000/svg" xmlns:ev="http://www.w3.org/2001/xml-events" xmlns:xlink="http://www.w3.org/1999/xlink"><defs /><rect fill="none" height="130.0" stroke="none" width="1215.0" x="0" y="0" /><line stroke="rgb(0,0,0)" x1="5.0" x2="95.0" y1="55.0" y2="55.0" /><line stroke="rgb(0,0,0)" x1="95.0" x2="115.0" y1="55.0" y2="55.0" /><line stroke="rgb(0,0,0)" x1="115.0" x2="120.0" y1="55.0" y2="55.0" /><line stroke="rgb(0,0,0)" x1="120.0" x2="220.0" y1="55.0" y2="55.0" /><line stroke="rgb(0,0,0)" x1="220.0" x2="240.0" y1="55.0" y2="55.0" /><line stroke="rgb(0,0,0)" x1="240.0" x2="245.0" y1="55.0" y2="55.0" /><line stroke="rgb(0,0,0)" x1="245.0" x2="295.0" y1="55.0" y2="55.0" /><line stroke="rgb(0,0,0)" x1="295.0" x2="315.0" y1="55.0" y2="55.0" /><line stroke="rgb(0,0,0)" x1="315.0" x2="320.0" y1="55.0" y2="55.0" /><line stroke="rgb(0,0,0)" x1="320.0" x2="355.0" y1="55.0" y2="55.0" /><line stroke="rgb(0,0,0)" x1="355.0" x2="375.0" y1="55.0" y2="55.0" /><line stroke="rgb(0,0,0)" x1="375.0" x2="380.0" y1="55.0" y2="55.0" /><line stroke="rgb(0,0,0)" x1="380.0" x2="420.0" y1="55.0" y2="55.0" /><line stroke="rgb(0,0,0)" x1="420.0" x2="440.0" y1="55.0" y2="55.0" /><line stroke="rgb(0,0,0)" x1="440.0" x2="445.0" y1="55.0" y2="55.0" /><line stroke="rgb(0,0,0)" x1="445.0" x2="575.0" y1="55.0" y2="55.0" /><line stroke="rgb(0,0,0)" x1="575.0" x2="595.0" y1="55.0" y2="55.0" /><line stroke="rgb(0,0,0)" x1="595.0" x2="600.0" y1="55.0" y2="55.0" /><line stroke="rgb(0,0,0)" x1="600.0" x2="625.0" y1="55.0" y2="55.0" /><line stroke="rgb(0,0,0)" x1="625.0" x2="645.0" y1="55.0" y2="55.0" /><line stroke="rgb(0,0,0)" x1="645.0" x2="650.0" y1="55.0" y2="55.0" /><line stroke="rgb(0,0,0)" x1="650.0" x2="700.0" y1="55.0" y2="55.0" /><line stroke="rgb(0,0,0)" x1="700.0" x2="720.0" y1="55.0" y2="55.0" /><line stroke="rgb(0,0,0)" x1="720.0" x2="725.0" y1="55.0" y2="55.0" /><line stroke="rgb(0,0,0)" x1="725.0" x2="835.0" y1="55.0" y2="55.0" /><line stroke="rgb(0,0,0)" x1="835.0" x2="855.0" y1="55.0" y2="55.0" /><line stroke="rgb(0,0,0)" x1="855.0" x2="860.0" y1="55.0" y2="55.0" /><line stroke="rgb(0,0,0)" x1="860.0" x2="980.0" y1="55.0" y2="55.0" /><line stroke="rgb(0,0,0)" x1="980.0" x2="1000.0" y1="55.0" y2="55.0" /><line stroke="rgb(0,0,0)" x1="1000.0" x2="1005.0" y1="55.0" y2="55.0" /><line stroke="rgb(0,0,0)" x1="1005.0" x2="1030.0" y1="55.0" y2="55.0" /><line stroke="rgb(0,0,0)" x1="1030.0" x2="1050.0" y1="55.0" y2="55.0" /><line stroke="rgb(0,0,0)" x1="1050.0" x2="1055.0" y1="55.0" y2="55.0" /><polygon fill="rgb(150,150,150)" points="90.0,55.0 90.0,26.199999999999996 87.5,26.199999999999996 87.5,25.200000000000003 85.0,25.200000000000003 85.0,23.4 82.5,23.4 82.5,18.200000000000003 80.0,18.200000000000003 80.0,9.799999999999997 75.0,9.799999999999997 75.0,8.400000000000006 60.0,8.400000000000006 60.0,5.799999999999997 47.5,5.799999999999997 47.5,5.799999999999997 35.0,5.799999999999997 35.0,8.400000000000006 20.0,8.400000000000006 20.0,9.799999999999997 15.0,9.799999999999997 15.0,18.200000000000003 12.5,18.200000000000003 12.5,23.4 10.0,23.4 10.0,25.200000000000003 7.5,25.200000000000003 7.5,26.199999999999996 5.0,26.199999999999996 5.0,55.0 5.0,55.0 5.0,83.80000000000001 7.5,83.80000000000001 7.5,84.8 10.0,84.8 10.0,86.6 12.5,86.6 12.5,91.8 15.0,91.8 15.0,100.2 20.0,100.2 20.0,101.6 35.0,101.6 35.0,104.2 47.5,104.2 47.5,104.2 60.0,104.2 60.0,101.6 75.0,101.6 75.0,100.2 80.0,100.2 80.0,91.8 82.5,91.8 82.5,86.6 85.0,86.6 85.0,84.8 87.5,84.8 87.5,83.80000000000001 90.0,83.80000000000001 90.0,55.0" stroke="rgb(0,0,0)" /><text fill="black" x="5.0" y="124.2">H5</text><polygon fill="rgb(150,150,150)" points="215.0,55.0 215.0,52.4 212.5,52.4 212.5,50.6 210.0,50.6 210.0,49.4 207.5,49.4 207.5,8.200000000000003 205.0,8.200000000000003 205.0,6.0 202.5,6.0 202.5,5.799999999999997 200.0,5.799999999999997 200.0,5.600000000000001 197.5,5.600000000000001 197.5,5.0 167.5,5.0 167.5,5.0 137.5,5.0 137.5,5.600000000000001 135.0,5.600000000000001 135.0,5.799999999999997 132.5,5.799999999999997 132.5,6.0 130.0,6.0 130.0,8.200000000000003 127.5,8.200000000000003 127.5,49.4 125.0,49.4 125.0,50.6 122.5,50.6 122.5,52.4 120.0,52.4 120.0,55.0 120.0,55.0 120.0,57.6 122.5,57.6 122.5,59.4 125.0,59.4 125.0,60.6 127.5,60.6 127.5,101.8 130.0,101.8 130.0,104.0 132.5,104.0 132.5,104.2 135.0,104.2 135.0,104.4 137.5,104.4 137.5,105.0 167.5,105.0 167.5,105.0 197.5,105.0 197.5,104.4 200.0,104.4 200.0,104.2 202.5,104.2 202.5,104.0 205.0,104.0 205.0,101.8 207.5,101.8 207.5,60.6 210.0,60.6 210.0,59.4 212.5,59.4 212.5,57.6 215.0,57.6 215.0,55.0" stroke="rgb(0,0,0)" /><text fill="black" x="120.0" y="125.0">H7</text><polygon fill="rgb(150,150,150)" points="290.0,55.0 290.0,54.6 287.5,54.6 287.5,54.4 285.0,54.4 285.0,8.0 282.5,8.0 282.5,6.399999999999999 277.5,6.399999999999999 277.5,5.799999999999997 267.5,5.799999999999997 267.5,5.799999999999997 257.5,5.799999999999997 257.5,6.399999999999999 252.5,6.399999999999999 252.5,8.0 250.0,8.0 250.0,54.4 247.5,54.4 247.5,54.6 245.0,54.6 245.0,55.0 245.0,55.0 245.0,55.4 247.5,55.4 247.5,55.6 250.0,55.6 250.0,102.0 252.5,102.0 252.5,103.6 257.5,103.6 257.5,104.2 267.5,104.2 267.5,104.2 277.5,104.2 277.5,103.6 282.5,103.6 282.5,102.0 285.0,102.0 285.0,55.6 287.5,55.6 287.5,55.4 290.0,55.4 290.0,55.0" stroke="rgb(0,0,0)" /><text fill="black" x="245.0" y="124.2">H9</text><polygon fill="rgb(150,150,150)" points="350.0,55.0 350.0,53.4 347.5,53.4 347.5,50.0 345.0,50.0 345.0,49.4 342.5,49.4 342.5,19.200000000000003 335.0,19.200000000000003 335.0,19.200000000000003 327.5,19.200000000000003 327.5,49.4 325.0,49.4 325.0,50.0 322.5,50.0 322.5,53.4 320.0,53.4 320.0,55.0 320.0,55.0 320.0,56.6 322.5,56.6 322.5,60.0 325.0,60.0 325.0,60.6 327.5,60.6 327.5,90.8 335.0,90.8 335.0,90.8 342.5,90.8 342.5,60.6 345.0,60.6 345.0,60.0 347.5,60.0 347.5,56.6 350.0,56.6 350.0,55.0" stroke="rgb(0,0,0)" /><text fill="black" x="320.0" y="110.8">H12</text><polygon fill="rgb(150,150,150)" points="415.0,55.0 415.0,54.6 412.5,54.6 412.5,22.199999999999996 407.5,22.199999999999996 407.5,19.6 405.0,19.6 405.0,18.6 397.5,18.6 397.5,18.6 390.0,18.6 390.0,19.6 387.5,19.6 387.5,22.199999999999996 382.5,22.199999999999996 382.5,54.6 380.0,54.6 380.0,55.0 380.0,55.0 380.0,55.4 382.5,55.4 382.5,87.80000000000001 387.5,87.80000000000001 387.5,90.4 390.0,90.4 390.0,91.4 397.5,91.4 397.5,91.4 405.0,91.4 405.0,90.4 407.5,90.4 407.5,87.80000000000001 412.5,87.80000000000001 412.5,55.4 415.0,55.4 415.0,55.0" stroke="rgb(0,0,0)" /><text fill="black" x="380.0" y="111.4">H15</text><polygon fill="rgb(150,150,150)" points="570.0,55.0 570.0,54.8 567.5,54.8 567.5,53.6 565.0,53.6 565.0,51.6 557.5,51.6 557.5,9.799999999999997 555.0,9.799999999999997 555.0,8.799999999999997 552.5,8.799999999999997 552.5,8.400000000000006 550.0,8.400000000000006 550.0,8.200000000000003 547.5,8.200000000000003 547.5,5.600000000000001 545.0,5.600000000000001 545.0,5.399999999999999 542.5,5.399999999999999 542.5,5.200000000000003 540.0,5.200000000000003 540.0,5.0 507.5,5.0 507.5,5.0 475.0,5.0 475.0,5.200000000000003 472.5,5.200000000000003 472.5,5.399999999999999 470.0,5.399999999999999 470.0,5.600000000000001 467.5,5.600000000000001 467.5,8.200000000000003 465.0,8.200000000000003 465.0,8.400000000000006 462.5,8.400000000000006 462.5,8.799999999999997 460.0,8.799999999999997 460.0,9.799999999999997 457.5,9.799999999999997 457.5,51.6 450.0,51.6 450.0,53.6 447.5,53.6 447.5,54.8 445.0,54.8 445.0,55.0 445.0,55.0 445.0,55.2 447.5,55.2 447.5,56.4 450.0,56.4 450.0,58.4 457.5,58.4 457.5,100.2 460.0,100.2 460.0,101.2 462.5,101.2 462.5,101.6 465.0,101.6 465.0,101.8 467.5,101.8 467.5,104.4 470.0,104.4 470.0,104.6 472.5,104.6 472.5,104.8 475.0,104.8 475.0,105.0 507.5,105.0 507.5,105.0 540.0,105.0 540.0,104.8 542.5,104.8 542.5,104.6 545.0,104.6 545.0,104.4 547.5,104.4 547.5,101.8 550.0,101.8 550.0,101.6 552.5,101.6 552.5,101.2 555.0,101.2 555.0,100.2 557.5,100.2 557.5,58.4 565.0,58.4 565.0,56.4 567.5,56.4 567.5,55.2 570.0,55.2 570.0,55.0" stroke="rgb(0,0,0)" /><text fill="black" x="445.0" y="125.0">H16</text><polygon fill="rgb(150,150,150)" points="620.0,55.0 620.0,54.8 617.5,54.8 617.5,34.0 610.0,34.0 610.0,34.0 602.5,34.0 602.5,54.8 600.0,54.8 600.0,55.0 600.0,55.0 600.0,55.2 602.5,55.2 602.5,76.0 610.0,76.0 610.0,76.0 617.5,76.0 617.5,55.2 620.0,55.2 620.0,55.0" stroke="rgb(0,0,0)" /><text fill="black" x="600.0" y="96.0">H18</text><polygon fill="rgb(150,150,150)" points="695.0,55.0 695.0,54.8 687.5,54.8 687.5,54.2 685.0,54.2 685.0,40.4 682.5,40.4 682.5,39.599999999999994 672.5,39.599999999999994 672.5,39.599999999999994 662.5,39.599999999999994 662.5,40.4 660.0,40.4 660.0,54.2 657.5,54.2 657.5,54.8 650.0,54.8 650.0,55.0 650.0,55.0 650.0,55.2 657.5,55.2 657.5,55.8 660.0,55.8 660.0,69.6 662.5,69.6 662.5,70.4 672.5,70.4 672.5,70.4 682.5,70.4 682.5,69.6 685.0,69.6 685.0,55.8 687.5,55.8 687.5,55.2 695.0,55.2 695.0,55.0" stroke="rgb(0,0,0)" /><text fill="black" x="650.0" y="90.4">H20</text><polygon fill="rgb(150,150,150)" points="830.0,55.0 830.0,54.8 825.0,54.8 825.0,53.199999999999996 822.5,53.199999999999996 822.5,48.0 820.0,48.0 820.0,46.199999999999996 817.5,46.199999999999996 817.5,45.8 815.0,45.8 815.0,26.599999999999998 812.5,26.599999999999998 812.5,25.0 810.0,25.0 810.0,23.8 805.0,23.8 805.0,9.399999999999999 802.5,9.399999999999999 802.5,9.0 800.0,9.0 800.0,7.800000000000004 797.5,7.800000000000004 797.5,7.400000000000006 795.0,7.400000000000006 795.0,6.800000000000004 790.0,6.800000000000004 790.0,5.200000000000003 777.5,5.200000000000003 777.5,5.200000000000003 765.0,5.200000000000003 765.0,6.800000000000004 760.0,6.800000000000004 760.0,7.400000000000006 757.5,7.400000000000006 757.5,7.800000000000004 755.0,7.800000000000004 755.0,9.0 752.5,9.0 752.5,9.399999999999999 750.0,9.399999999999999 750.0,23.8 745.0,23.8 745.0,25.0 742.5,25.0 742.5,26.599999999999998 740.0,26.599999999999998 740.0,45.8 737.5,45.8 737.5,46.199999999999996 735.0,46.199999999999996 735.0,48.0 732.5,48.0 732.5,53.199999999999996 730.0,53.199999999999996 730.0,54.8 725.0,54.8 725.0,55.0 725.0,55.0 725.0,55.2 730.0,55.2 730.0,56.800000000000004 732.5,56.800000000000004 732.5,62.0 735.0,62.0 735.0,63.800000000000004 737.5,63.800000000000004 737.5,64.2 740.0,64.2 740.0,83.4 742.5,83.4 742.5,85.0 745.0,85.0 745.0,86.2 750.0,86.2 750.0,100.6 752.5,100.6 752.5,101.0 755.0,101.0 755.0,102.19999999999999 757.5,102.19999999999999 757.5,102.6 760.0,102.6 760.0,103.19999999999999 765.0,103.19999999999999 765.0,104.8 777.5,104.8 777.5,104.8 790.0,104.8 790.0,103.19999999999999 795.0,103.19999999999999 795.0,102.6 797.5,102.6 797.5,102.19999999999999 800.0,102.19999999999999 800.0,101.0 802.5,101.0 802.5,100.6 805.0,100.6 805.0,86.2 810.0,86.2 810.0,85.0 812.5,85.0 812.5,83.4 815.0,83.4 815.0,64.2 817.5,64.2 817.5,63.800000000000004 820.0,63.800000000000004 820.0,62.0 822.5,62.0 822.5,56.800000000000004 825.0,56.800000000000004 825.0,55.2 830.0,55.2 830.0,55.0" stroke="rgb(0,0,0)" /><text fill="black" x="725.0" y="124.8">H21</text><polygon fill="rgb(150,150,150)" points="975.0,55.0 975.0,54.8 972.5,54.8 972.5,53.6 970.0,53.6 970.0,53.4 965.0,53.4 965.0,15.0 962.5,15.0 962.5,7.600000000000001 960.0,7.600000000000001 960.0,6.200000000000003 955.0,6.200000000000003 955.0,5.0 917.5,5.0 917.5,5.0 880.0,5.0 880.0,6.200000000000003 875.0,6.200000000000003 875.0,7.600000000000001 872.5,7.600000000000001 872.5,15.0 870.0,15.0 870.0,53.4 865.0,53.4 865.0,53.6 862.5,53.6 862.5,54.8 860.0,54.8 860.0,55.0 860.0,55.0 860.0,55.2 862.5,55.2 862.5,56.4 865.0,56.4 865.0,56.6 870.0,56.6 870.0,95.0 872.5,95.0 872.5,102.4 875.0,102.4 875.0,103.8 880.0,103.8 880.0,105.0 917.5,105.0 917.5,105.0 955.0,105.0 955.0,103.8 960.0,103.8 960.0,102.4 962.5,102.4 962.5,95.0 965.0,95.0 965.0,56.6 970.0,56.6 970.0,56.4 972.5,56.4 972.5,55.2 975.0,55.2 975.0,55.0" stroke="rgb(0,0,0)" /><text fill="black" x="860.0" y="125.0">H25</text><polygon fill="rgb(150,150,150)" points="1025.0,55.0 1025.0,20.200000000000003 1022.5,20.200000000000003 1022.5,18.4 1015.0,18.4 1015.0,18.4 1007.5,18.4 1007.5,20.200000000000003 1005.0,20.200000000000003 1005.0,55.0 1005.0,55.0 1005.0,89.8 1007.5,89.8 1007.5,91.6 1015.0,91.6 1015.0,91.6 1022.5,91.6 1022.5,89.8 1025.0,89.8 1025.0,55.0" stroke="rgb(0,0,0)" /><text fill="black" x="1005.0" y="111.6">H26</text><polygon fill="rgb(150,150,150)" points="1210.0,55.0 1210.0,54.6 1207.5,54.6 1207.5,54.4 1202.5,54.4 1202.5,54.2 1200.0,54.2 1200.0,53.8 1197.5,53.8 1197.5,52.8 1195.0,52.8 1195.0,32.800000000000004 1192.5,32.800000000000004 1192.5,32.2 1190.0,32.2 1190.0,30.6 1187.5,30.6 1187.5,27.599999999999998 1185.0,27.599999999999998 1185.0,20.400000000000006 1182.5,20.400000000000006 1182.5,19.800000000000004 1180.0,19.800000000000004 1180.0,13.599999999999994 1177.5,13.599999999999994 1177.5,9.600000000000001 1175.0,9.600000000000001 1175.0,6.600000000000001 1172.5,6.600000000000001 1172.5,6.200000000000003 1167.5,6.200000000000003 1167.5,6.0 1165.0,6.0 1165.0,5.799999999999997 1157.5,5.799999999999997 1157.5,5.0 1132.5,5.0 1132.5,5.0 1107.5,5.0 1107.5,5.799999999999997 1100.0,5.799999999999997 1100.0,6.0 1097.5,6.0 1097.5,6.200000000000003 1092.5,6.200000000000003 1092.5,6.600000000000001 1090.0,6.600000000000001 1090.0,9.600000000000001 1087.5,9.600000000000001 1087.5,13.599999999999994 1085.0,13.599999999999994 1085.0,19.800000000000004 1082.5,19.800000000000004 1082.5,20.400000000000006 1080.0,20.400000000000006 1080.0,27.599999999999998 1077.5,27.599999999999998 1077.5,30.6 1075.0,30.6 1075.0,32.2 1072.5,32.2 1072.5,32.800000000000004 1070.0,32.800000000000004 1070.0,52.8 1067.5,52.8 1067.5,53.8 1065.0,53.8 1065.0,54.2 1062.5,54.2 1062.5,54.4 1057.5,54.4 1057.5,54.6 1055.0,54.6 1055.0,55.0 1055.0,55.0 1055.0,55.4 1057.5,55.4 1057.5,55.6 1062.5,55.6 1062.5,55.8 1065.0,55.8 1065.0,56.2 1067.5,56.2 1067.5,57.2 1070.0,57.2 1070.0,77.19999999999999 1072.5,77.19999999999999 1072.5,77.8 1075.0,77.8 1075.0,79.4 1077.5,79.4 1077.5,82.4 1080.0,82.4 1080.0,89.6 1082.5,89.6 1082.5,90.19999999999999 1085.0,90.19999999999999 1085.0,96.4 1087.5,96.4 1087.5,100.4 1090.0,100.4 1090.0,103.4 1092.5,103.4 1092.5,103.8 1097.5,103.8 1097.5,104.0 1100.0,104.0 1100.0,104.2 1107.5,104.2 1107.5,105.0 1132.5,105.0 1132.5,105.0 1157.5,105.0 1157.5,104.2 1165.0,104.2 1165.0,104.0 1167.5,104.0 1167.5,103.8 1172.5,103.8 1172.5,103.4 1175.0,103.4 1175.0,100.4 1177.5,100.4 1177.5,96.4 1180.0,96.4 1180.0,90.19999999999999 1182.5,90.19999999999999 1182.5,89.6 1185.0,89.6 1185.0,82.4 1187.5,82.4 1187.5,79.4 1190.0,79.4 1190.0,77.8 1192.5,77.8 1192.5,77.19999999999999 1195.0,77.19999999999999 1195.0,57.2 1197.5,57.2 1197.5,56.2 1200.0,56.2 1200.0,55.8 1202.5,55.8 1202.5,55.6 1207.5,55.6 1207.5,55.4 1210.0,55.4 1210.0,55.0" stroke="rgb(0,0,0)" /><text fill="black" x="1055.0" y="125.0">H27</text></svg>