<?xml version="1.0" encoding="utf-8" ?>
<svg baseProfile="full" height="100%" style="font-size:14;font-family:Sans, Arial;stroke-width:1;fill:none" version="1.1" width="100%" xmlns="http://www.w3.org/2000/svg" xmlns:ev="http://www.w3.org/2001/xml-events" xmlns:xlink="http://www.w3.org/1999/xlink"><defs /><rect fill="none" height="280.0" stroke="none" width="4105.947900000001" x="0" y="0" /><line stroke="rgb(0,0,0)" x1="5.0" x2="21.13635" y1="130.0" y2="130.0" /><line stroke="rgb(0,0,0)" x1="21.13635" x2="41.13635000000001" y1="130.0" y2="130.0" /><line stroke="rgb(0,0,0)" x1="41.13635000000001" x2="46.13635000000001" y1="130.0" y2="130.0" /><line stroke="rgb(0,0,0)" x1="46.13635000000001" x2="56.13635000000001" y1="130.0" y2="130.0" /><line stroke="rgb(0,0,0)" x1="56.13635000000001" x2="76.13635000000001" y1="130.0" y2="130.0" /><line stroke="rgb(0,0,0)" x1="76.13635000000001" x2="81.13635000000001" y1="130.0" y2="130.0" /><line stroke="rgb(0,0,0)" x1="81.13635000000001" x2="95.61005" y1="130.0" y2="130.0" /><line stroke="rgb(0,0,0)" x1="95.61005" x2="115.61005" y1="130.0" y2="55.0" /><line stroke="rgb(0,0,0)" x1="115.61005" x2="120.61005" y1="55.0" y2="55.0" /><line stroke="rgb(0,0,0)" x1="81.13635000000001" x2="95.61005" y1="130.0" y2="130.0" /><line stroke="rgb(0,0,0)" x1="95.61005" x2="115.61005" y1="130.0" y2="205.0" /><line stroke="rgb(0,0,0)" x1="115.61005" x2="120.61005" y1="205.0" y2="205.0" /><line stroke="rgb(0,0,0)" x1="120.61005" x2="130.61005" y1="55.0" y2="55.0" /><line stroke="rgb(0,0,0)" x1="130.61005" x2="193.11005" y1="55.0" y2="55.0" /><line stroke="rgb(0,0,0)" x1="193.11005" x2="198.11005" y1="55.0" y2="55.0" /><line stroke="rgb(0,0,0)" x1="120.61005" x2="173.11005" y1="205.0" y2="205.0" /><line stroke="rgb(0,0,0)" x1="173.11005" x2="193.11005" y1="205.0" y2="205.0" /><line stroke="rgb(0,0,0)" x1="193.11005" x2="198.11005" y1="205.0" y2="205.0" /><line stroke="rgb(0,0,0)" x1="198.11005" x2="208.11005" y1="55.0" y2="55.0" /><line stroke="rgb(0,0,0)" x1="208.11005" x2="293.00605" y1="55.0" y2="130.0" /><line stroke="rgb(0,0,0)" x1="293.00605" x2="298.00605" y1="130.0" y2="130.0" /><line stroke="rgb(0,0,0)" x1="298.00605" x2="308.00605" y1="130.0" y2="130.0" /><line stroke="rgb(0,0,0)" x1="308.00605" x2="328.0060500000001" y1="130.0" y2="130.0" /><line stroke="rgb(0,0,0)" x1="328.0060500000001" x2="333.0060500000001" y1="130.0" y2="130.0" /><line stroke="rgb(0,0,0)" x1="198.11005" x2="273.00605" y1="205.0" y2="205.0" /><line stroke="rgb(0,0,0)" x1="273.00605" x2="328.0060500000001" y1="205.0" y2="130.0" /><line stroke="rgb(0,0,0)" x1="328.0060500000001" x2="333.0060500000001" y1="130.0" y2="130.0" /><line stroke="rgb(0,0,0)" x1="333.0060500000001" x2="343.0060500000001" y1="130.0" y2="130.0" /><line stroke="rgb(0,0,0)" x1="343.0060500000001" x2="363.0060500000001" y1="130.0" y2="55.0" /><line stroke="rgb(0,0,0)" x1="363.0060500000001" x2="368.0060500000001" y1="55.0" y2="55.0" /><line stroke="rgb(0,0,0)" x1="333.0060500000001" x2="343.0060500000001" y1="130.0" y2="130.0" /><line stroke="rgb(0,0,0)" x1="343.0060500000001" x2="363.0060500000001" y1="130.0" y2="205.0" /><line stroke="rgb(0,0,0)" x1="363.0060500000001" x2="368.0060500000001" y1="205.0" y2="205.0" /><line stroke="rgb(0,0,0)" x1="368.0060500000001" x2="391.8949500000001" y1="55.0" y2="55.0" /><line stroke="rgb(0,0,0)" x1="391.8949500000001" x2="411.8949500000001" y1="55.0" y2="130.0" /><line stroke="rgb(0,0,0)" x1="411.8949500000001" x2="416.8949500000001" y1="130.0" y2="130.0" /><line stroke="rgb(0,0,0)" x1="368.0060500000001" x2="379.0060500000001" y1="205.0" y2="205.0" /><line stroke="rgb(0,0,0)" x1="379.0060500000001" x2="411.8949500000001" y1="205.0" y2="130.0" /><line stroke="rgb(0,0,0)" x1="411.8949500000001" x2="416.8949500000001" y1="130.0" y2="130.0" /><line stroke="rgb(0,0,0)" x1="416.8949500000001" x2="450.54955000000007" y1="130.0" y2="130.0" /><line stroke="rgb(0,0,0)" x1="450.54955000000007" x2="470.54955000000007" y1="130.0" y2="130.0" /><line stroke="rgb(0,0,0)" x1="470.54955000000007" x2="475.54955000000007" y1="130.0" y2="130.0" /><line stroke="rgb(0,0,0)" x1="475.54955000000007" x2="497.2162000000001" y1="130.0" y2="130.0" /><line stroke="rgb(0,0,0)" x1="497.2162000000001" x2="517.2162000000001" y1="130.0" y2="55.0" /><line stroke="rgb(0,0,0)" x1="517.2162000000001" x2="522.2162000000001" y1="55.0" y2="55.0" /><line stroke="rgb(0,0,0)" x1="475.54955000000007" x2="497.2162000000001" y1="130.0" y2="130.0" /><line stroke="rgb(0,0,0)" x1="497.2162000000001" x2="517.2162000000001" y1="130.0" y2="205.0" /><line stroke="rgb(0,0,0)" x1="517.2162000000001" x2="522.2162000000001" y1="205.0" y2="205.0" /><line stroke="rgb(0,0,0)" x1="522.2162000000001" x2="547.2162000000001" y1="55.0" y2="55.0" /><line stroke="rgb(0,0,0)" x1="547.2162000000001" x2="567.2162000000001" y1="55.0" y2="130.0" /><line stroke="rgb(0,0,0)" x1="567.2162000000001" x2="572.2162000000001" y1="130.0" y2="130.0" /><line stroke="rgb(0,0,0)" x1="522.2162000000001" x2="544.9189000000001" y1="205.0" y2="205.0" /><line stroke="rgb(0,0,0)" x1="544.9189000000001" x2="567.2162000000001" y1="205.0" y2="130.0" /><line stroke="rgb(0,0,0)" x1="567.2162000000001" x2="572.2162000000001" y1="130.0" y2="130.0" /><line stroke="rgb(0,0,0)" x1="572.2162000000001" x2="654.5252" y1="130.0" y2="130.0" /><line stroke="rgb(0,0,0)" x1="654.5252" x2="674.5252" y1="130.0" y2="130.0" /><line stroke="rgb(0,0,0)" x1="674.5252" x2="679.5252" y1="130.0" y2="130.0" /><line stroke="rgb(0,0,0)" x1="679.5252" x2="689.5252" y1="130.0" y2="130.0" /><line stroke="rgb(0,0,0)" x1="689.5252" x2="709.5252" y1="130.0" y2="130.0" /><line stroke="rgb(0,0,0)" x1="709.5252" x2="714.5252" y1="130.0" y2="130.0" /><line stroke="rgb(0,0,0)" x1="714.5252" x2="735.3585500000002" y1="130.0" y2="130.0" /><line stroke="rgb(0,0,0)" x1="735.3585500000002" x2="755.3585500000002" y1="130.0" y2="130.0" /><line stroke="rgb(0,0,0)" x1="755.3585500000002" x2="760.3585500000002" y1="130.0" y2="130.0" /><line stroke="rgb(0,0,0)" x1="760.3585500000002" x2="772.5014000000001" y1="130.0" y2="130.0" /><line stroke="rgb(0,0,0)" x1="772.5014000000001" x2="792.5014000000001" y1="130.0" y2="55.0" /><line stroke="rgb(0,0,0)" x1="792.5014000000001" x2="797.5014000000001" y1="55.0" y2="55.0" /><line stroke="rgb(0,0,0)" x1="760.3585500000002" x2="772.5014000000001" y1="130.0" y2="130.0" /><line stroke="rgb(0,0,0)" x1="772.5014000000001" x2="792.5014000000001" y1="130.0" y2="205.0" /><line stroke="rgb(0,0,0)" x1="792.5014000000001" x2="797.5014000000001" y1="205.0" y2="205.0" /><line stroke="rgb(0,0,0)" x1="797.5014000000001" x2="820.8347500000002" y1="55.0" y2="55.0" /><line stroke="rgb(0,0,0)" x1="820.8347500000002" x2="840.8347500000002" y1="55.0" y2="130.0" /><line stroke="rgb(0,0,0)" x1="840.8347500000002" x2="845.8347500000002" y1="130.0" y2="130.0" /><line stroke="rgb(0,0,0)" x1="797.5014000000001" x2="814.7594500000001" y1="205.0" y2="205.0" /><line stroke="rgb(0,0,0)" x1="814.7594500000001" x2="840.8347500000002" y1="205.0" y2="130.0" /><line stroke="rgb(0,0,0)" x1="840.8347500000002" x2="845.8347500000002" y1="130.0" y2="130.0" /><line stroke="rgb(0,0,0)" x1="845.8347500000002" x2="875.9174000000002" y1="130.0" y2="130.0" /><line stroke="rgb(0,0,0)" x1="875.9174000000002" x2="895.9174000000002" y1="130.0" y2="130.0" /><line stroke="rgb(0,0,0)" x1="895.9174000000002" x2="900.9174000000002" y1="130.0" y2="130.0" /><line stroke="rgb(0,0,0)" x1="900.9174000000002" x2="910.9174000000002" y1="130.0" y2="130.0" /><line stroke="rgb(0,0,0)" x1="910.9174000000002" x2="930.9174000000002" y1="130.0" y2="55.0" /><line stroke="rgb(0,0,0)" x1="930.9174000000002" x2="935.9174000000002" y1="55.0" y2="55.0" /><line stroke="rgb(0,0,0)" x1="900.9174000000002" x2="910.9174000000002" y1="130.0" y2="130.0" /><line stroke="rgb(0,0,0)" x1="910.9174000000002" x2="930.9174000000002" y1="130.0" y2="205.0" /><line stroke="rgb(0,0,0)" x1="930.9174000000002" x2="935.9174000000002" y1="205.0" y2="205.0" /><line stroke="rgb(0,0,0)" x1="935.9174000000002" x2="945.9174000000002" y1="55.0" y2="55.0" /><line stroke="rgb(0,0,0)" x1="945.9174000000002" x2="975.9174000000002" y1="55.0" y2="130.0" /><line stroke="rgb(0,0,0)" x1="975.9174000000002" x2="980.9174000000002" y1="130.0" y2="130.0" /><line stroke="rgb(0,0,0)" x1="935.9174000000002" x2="955.9174000000002" y1="205.0" y2="205.0" /><line stroke="rgb(0,0,0)" x1="955.9174000000002" x2="975.9174000000002" y1="205.0" y2="130.0" /><line stroke="rgb(0,0,0)" x1="975.9174000000002" x2="980.9174000000002" y1="130.0" y2="130.0" /><line stroke="rgb(0,0,0)" x1="980.9174000000002" x2="1034.6016000000002" y1="130.0" y2="130.0" /><line stroke="rgb(0,0,0)" x1="1034.6016000000002" x2="1054.6016000000002" y1="130.0" y2="55.0" /><line stroke="rgb(0,0,0)" x1="1054.6016000000002" x2="1059.6016000000002" y1="55.0" y2="55.0" /><line stroke="rgb(0,0,0)" x1="980.9174000000002" x2="1034.6016000000002" y1="130.0" y2="130.0" /><line stroke="rgb(0,0,0)" x1="1034.6016000000002" x2="1054.6016000000002" y1="130.0" y2="205.0" /><line stroke="rgb(0,0,0)" x1="1054.6016000000002" x2="1059.6016000000002" y1="205.0" y2="205.0" /><line stroke="rgb(0,0,0)" x1="1059.6016000000002" x2="1082.1016000000002" y1="55.0" y2="55.0" /><line stroke="rgb(0,0,0)" x1="1082.1016000000002" x2="1102.1016000000002" y1="55.0" y2="130.0" /><line stroke="rgb(0,0,0)" x1="1102.1016000000002" x2="1107.1016000000002" y1="130.0" y2="130.0" /><line stroke="rgb(0,0,0)" x1="1059.6016000000002" x2="1069.6016000000002" y1="205.0" y2="205.0" /><line stroke="rgb(0,0,0)" x1="1069.6016000000002" x2="1102.1016000000002" y1="205.0" y2="130.0" /><line stroke="rgb(0,0,0)" x1="1102.1016000000002" x2="1107.1016000000002" y1="130.0" y2="130.0" /><line stroke="rgb(0,0,0)" x1="1107.1016000000002" x2="1117.5016000000003" y1="130.0" y2="130.0" /><line stroke="rgb(0,0,0)" x1="1117.5016000000003" x2="1137.5016000000003" y1="130.0" y2="130.0" /><line stroke="rgb(0,0,0)" x1="1137.5016000000003" x2="1142.5016000000003" y1="130.0" y2="130.0" /><line stroke="rgb(0,0,0)" x1="1142.5016000000003" x2="1154.1682500000002" y1="130.0" y2="130.0" /><line stroke="rgb(0,0,0)" x1="1154.1682500000002" x2="1174.1682500000002" y1="130.0" y2="130.0" /><line stroke="rgb(0,0,0)" x1="1174.1682500000002" x2="1179.1682500000002" y1="130.0" y2="130.0" /><line stroke="rgb(0,0,0)" x1="1179.1682500000002" x2="1184.1682500000002" y1="130.0" y2="130.0" /><line stroke="rgb(0,0,0)" x1="1184.1682500000002" x2="1204.1682500000002" y1="130.0" y2="130.0" /><line stroke="rgb(0,0,0)" x1="1204.1682500000002" x2="1209.1682500000002" y1="130.0" y2="130.0" /><line stroke="rgb(0,0,0)" x1="1209.1682500000002" x2="1229.3682500000002" y1="130.0" y2="130.0" /><line stroke="rgb(0,0,0)" x1="1229.3682500000002" x2="1249.3682500000002" y1="130.0" y2="130.0" /><line stroke="rgb(0,0,0)" x1="1249.3682500000002" x2="1254.3682500000002" y1="130.0" y2="130.0" /><line stroke="rgb(0,0,0)" x1="1254.3682500000002" x2="1319.36825" y1="130.0" y2="130.0" /><line stroke="rgb(0,0,0)" x1="1319.36825" x2="1339.36825" y1="130.0" y2="130.0" /><line stroke="rgb(0,0,0)" x1="1339.36825" x2="1344.36825" y1="130.0" y2="130.0" /><line stroke="rgb(0,0,0)" x1="1344.36825" x2="1373.5061999999998" y1="130.0" y2="130.0" /><line stroke="rgb(0,0,0)" x1="1373.5061999999998" x2="1393.5061999999998" y1="130.0" y2="130.0" /><line stroke="rgb(0,0,0)" x1="1393.5061999999998" x2="1398.5061999999998" y1="130.0" y2="130.0" /><line stroke="rgb(0,0,0)" x1="1398.5061999999998" x2="1403.5061999999998" y1="130.0" y2="130.0" /><line stroke="rgb(0,0,0)" x1="1403.5061999999998" x2="1423.5061999999998" y1="130.0" y2="130.0" /><line stroke="rgb(0,0,0)" x1="1423.5061999999998" x2="1428.5061999999998" y1="130.0" y2="130.0" /><line stroke="rgb(0,0,0)" x1="1428.5061999999998" x2="1433.5061999999998" y1="130.0" y2="130.0" /><line stroke="rgb(0,0,0)" x1="1433.5061999999998" x2="1453.5061999999998" y1="130.0" y2="130.0" /><line stroke="rgb(0,0,0)" x1="1453.5061999999998" x2="1458.5061999999998" y1="130.0" y2="130.0" /><line stroke="rgb(0,0,0)" x1="1458.5061999999998" x2="1463.5061999999998" y1="130.0" y2="130.0" /><line stroke="rgb(0,0,0)" x1="1463.5061999999998" x2="1483.5061999999998" y1="130.0" y2="130.0" /><line stroke="rgb(0,0,0)" x1="1483.5061999999998" x2="1488.5061999999998" y1="130.0" y2="130.0" /><line stroke="rgb(0,0,0)" x1="1488.5061999999998" x2="1499.33955" y1="130.0" y2="130.0" /><line stroke="rgb(0,0,0)" x1="1499.33955" x2="1519.33955" y1="130.0" y2="130.0" /><line stroke="rgb(0,0,0)" x1="1519.33955" x2="1524.33955" y1="130.0" y2="130.0" /><line stroke="rgb(0,0,0)" x1="1524.33955" x2="1551.67825" y1="130.0" y2="130.0" /><line stroke="rgb(0,0,0)" x1="1551.67825" x2="1571.67825" y1="130.0" y2="55.0" /><line stroke="rgb(0,0,0)" x1="1571.67825" x2="1576.67825" y1="55.0" y2="55.0" /><line stroke="rgb(0,0,0)" x1="1524.33955" x2="1551.67825" y1="130.0" y2="130.0" /><line stroke="rgb(0,0,0)" x1="1551.67825" x2="1571.67825" y1="130.0" y2="205.0" /><line stroke="rgb(0,0,0)" x1="1571.67825" x2="1576.67825" y1="205.0" y2="205.0" /><line stroke="rgb(0,0,0)" x1="1576.67825" x2="1596.67825" y1="55.0" y2="55.0" /><line stroke="rgb(0,0,0)" x1="1596.67825" x2="1616.67825" y1="55.0" y2="55.0" /><line stroke="rgb(0,0,0)" x1="1616.67825" x2="1621.67825" y1="55.0" y2="55.0" /><line stroke="rgb(0,0,0)" x1="1576.67825" x2="1587.92825" y1="205.0" y2="205.0" /><line stroke="rgb(0,0,0)" x1="1587.92825" x2="1616.67825" y1="205.0" y2="205.0" /><line stroke="rgb(0,0,0)" x1="1616.67825" x2="1621.67825" y1="205.0" y2="205.0" /><line stroke="rgb(0,0,0)" x1="1621.67825" x2="1662.67825" y1="55.0" y2="55.0" /><line stroke="rgb(0,0,0)" x1="1662.67825" x2="1682.67825" y1="55.0" y2="130.0" /><line stroke="rgb(0,0,0)" x1="1682.67825" x2="1687.67825" y1="130.0" y2="130.0" /><line stroke="rgb(0,0,0)" x1="1621.67825" x2="1632.92825" y1="205.0" y2="205.0" /><line stroke="rgb(0,0,0)" x1="1632.92825" x2="1682.67825" y1="205.0" y2="130.0" /><line stroke="rgb(0,0,0)" x1="1682.67825" x2="1687.67825" y1="130.0" y2="130.0" /><line stroke="rgb(0,0,0)" x1="1687.67825" x2="1754.23925" y1="130.0" y2="130.0" /><line stroke="rgb(0,0,0)" x1="1754.23925" x2="1774.23925" y1="130.0" y2="55.0" /><line stroke="rgb(0,0,0)" x1="1774.23925" x2="1779.23925" y1="55.0" y2="55.0" /><line stroke="rgb(0,0,0)" x1="1687.67825" x2="1754.23925" y1="130.0" y2="130.0" /><line stroke="rgb(0,0,0)" x1="1754.23925" x2="1774.23925" y1="130.0" y2="205.0" /><line stroke="rgb(0,0,0)" x1="1774.23925" x2="1779.23925" y1="205.0" y2="205.0" /><line stroke="rgb(0,0,0)" x1="1779.23925" x2="1784.23925" y1="205.0" y2="205.0" /><line stroke="rgb(0,0,0)" x1="1784.23925" x2="1809.23925" y1="205.0" y2="130.0" /><line stroke="rgb(0,0,0)" x1="1809.23925" x2="1814.23925" y1="130.0" y2="130.0" /><line stroke="rgb(0,0,0)" x1="1814.23925" x2="1844.86425" y1="130.0" y2="130.0" /><line stroke="rgb(0,0,0)" x1="1844.86425" x2="1864.86425" y1="130.0" y2="130.0" /><line stroke="rgb(0,0,0)" x1="1864.86425" x2="1869.86425" y1="130.0" y2="130.0" /><line stroke="rgb(0,0,0)" x1="1779.23925" x2="1789.23925" y1="55.0" y2="55.0" /><line stroke="rgb(0,0,0)" x1="1789.23925" x2="1864.86425" y1="55.0" y2="130.0" /><line stroke="rgb(0,0,0)" x1="1864.86425" x2="1869.86425" y1="130.0" y2="130.0" /><line stroke="rgb(0,0,0)" x1="1869.86425" x2="1894.5070999999998" y1="130.0" y2="130.0" /><line stroke="rgb(0,0,0)" x1="1894.5070999999998" x2="1914.5070999999998" y1="130.0" y2="130.0" /><line stroke="rgb(0,0,0)" x1="1914.5070999999998" x2="1919.5070999999998" y1="130.0" y2="130.0" /><line stroke="rgb(0,0,0)" x1="1919.5070999999998" x2="1929.5070999999998" y1="130.0" y2="130.0" /><line stroke="rgb(0,0,0)" x1="1929.5070999999998" x2="1949.5070999999998" y1="130.0" y2="130.0" /><line stroke="rgb(0,0,0)" x1="1949.5070999999998" x2="1954.5070999999998" y1="130.0" y2="130.0" /><line stroke="rgb(0,0,0)" x1="1954.5070999999998" x2="1982.4789999999998" y1="130.0" y2="130.0" /><line stroke="rgb(0,0,0)" x1="1982.4789999999998" x2="2002.4789999999998" y1="130.0" y2="55.0" /><line stroke="rgb(0,0,0)" x1="2002.4789999999998" x2="2007.4789999999998" y1="55.0" y2="55.0" /><line stroke="rgb(0,0,0)" x1="1954.5070999999998" x2="1982.4789999999998" y1="130.0" y2="130.0" /><line stroke="rgb(0,0,0)" x1="1982.4789999999998" x2="2002.4789999999998" y1="130.0" y2="205.0" /><line stroke="rgb(0,0,0)" x1="2002.4789999999998" x2="2007.4789999999998" y1="205.0" y2="205.0" /><line stroke="rgb(0,0,0)" x1="2007.4789999999998" x2="2030.81235" y1="205.0" y2="205.0" /><line stroke="rgb(0,0,0)" x1="2030.81235" x2="2050.81235" y1="205.0" y2="55.0" /><line stroke="rgb(0,0,0)" x1="2050.81235" x2="2055.81235" y1="55.0" y2="55.0" /><line stroke="rgb(0,0,0)" x1="2007.4789999999998" x2="2017.4789999999998" y1="55.0" y2="55.0" /><line stroke="rgb(0,0,0)" x1="2017.4789999999998" x2="2050.81235" y1="55.0" y2="205.0" /><line stroke="rgb(0,0,0)" x1="2050.81235" x2="2055.81235" y1="205.0" y2="205.0" /><line stroke="rgb(0,0,0)" x1="2055.81235" x2="2081.72145" y1="55.0" y2="55.0" /><line stroke="rgb(0,0,0)" x1="2081.72145" x2="2101.72145" y1="55.0" y2="130.0" /><line stroke="rgb(0,0,0)" x1="2101.72145" x2="2106.72145" y1="130.0" y2="130.0" /><line stroke="rgb(0,0,0)" x1="2055.81235" x2="2066.229" y1="205.0" y2="205.0" /><line stroke="rgb(0,0,0)" x1="2066.229" x2="2101.72145" y1="205.0" y2="130.0" /><line stroke="rgb(0,0,0)" x1="2101.72145" x2="2106.72145" y1="130.0" y2="130.0" /><line stroke="rgb(0,0,0)" x1="2106.72145" x2="2153.4126499999998" y1="130.0" y2="130.0" /><line stroke="rgb(0,0,0)" x1="2153.4126499999998" x2="2173.4126499999998" y1="130.0" y2="130.0" /><line stroke="rgb(0,0,0)" x1="2173.4126499999998" x2="2178.4126499999998" y1="130.0" y2="130.0" /><line stroke="rgb(0,0,0)" x1="2178.4126499999998" x2="2207.6434" y1="130.0" y2="130.0" /><line stroke="rgb(0,0,0)" x1="2207.6434" x2="2227.6434" y1="130.0" y2="55.0" /><line stroke="rgb(0,0,0)" x1="2227.6434" x2="2232.6434" y1="55.0" y2="55.0" /><line stroke="rgb(0,0,0)" x1="2178.4126499999998" x2="2207.6434" y1="130.0" y2="130.0" /><line stroke="rgb(0,0,0)" x1="2207.6434" x2="2227.6434" y1="130.0" y2="205.0" /><line stroke="rgb(0,0,0)" x1="2227.6434" x2="2232.6434" y1="205.0" y2="205.0" /><line stroke="rgb(0,0,0)" x1="2232.6434" x2="2246.7684" y1="55.0" y2="55.0" /><line stroke="rgb(0,0,0)" x1="2246.7684" x2="2272.6434" y1="55.0" y2="130.0" /><line stroke="rgb(0,0,0)" x1="2272.6434" x2="2277.6434" y1="130.0" y2="130.0" /><line stroke="rgb(0,0,0)" x1="2232.6434" x2="2252.6434" y1="205.0" y2="205.0" /><line stroke="rgb(0,0,0)" x1="2252.6434" x2="2272.6434" y1="205.0" y2="130.0" /><line stroke="rgb(0,0,0)" x1="2272.6434" x2="2277.6434" y1="130.0" y2="130.0" /><line stroke="rgb(0,0,0)" x1="2277.6434" x2="2301.3291" y1="130.0" y2="130.0" /><line stroke="rgb(0,0,0)" x1="2301.3291" x2="2321.3291" y1="130.0" y2="130.0" /><line stroke="rgb(0,0,0)" x1="2321.3291" x2="2326.3291" y1="130.0" y2="130.0" /><line stroke="rgb(0,0,0)" x1="2326.3291" x2="2351.3291" y1="130.0" y2="130.0" /><line stroke="rgb(0,0,0)" x1="2351.3291" x2="2371.3291" y1="130.0" y2="130.0" /><line stroke="rgb(0,0,0)" x1="2371.3291" x2="2376.3291" y1="130.0" y2="130.0" /><line stroke="rgb(0,0,0)" x1="2376.3291" x2="2402.5133" y1="130.0" y2="130.0" /><line stroke="rgb(0,0,0)" x1="2402.5133" x2="2422.5133" y1="130.0" y2="130.0" /><line stroke="rgb(0,0,0)" x1="2422.5133" x2="2427.5133" y1="130.0" y2="130.0" /><line stroke="rgb(0,0,0)" x1="2427.5133" x2="2470.5902" y1="130.0" y2="130.0" /><line stroke="rgb(0,0,0)" x1="2470.5902" x2="2490.5902" y1="130.0" y2="130.0" /><line stroke="rgb(0,0,0)" x1="2490.5902" x2="2495.5902" y1="130.0" y2="130.0" /><line stroke="rgb(0,0,0)" x1="2495.5902" x2="2525.1554" y1="130.0" y2="130.0" /><line stroke="rgb(0,0,0)" x1="2525.1554" x2="2545.1554" y1="130.0" y2="130.0" /><line stroke="rgb(0,0,0)" x1="2545.1554" x2="2550.1554" y1="130.0" y2="130.0" /><line stroke="rgb(0,0,0)" x1="2550.1554" x2="2571.82205" y1="130.0" y2="130.0" /><line stroke="rgb(0,0,0)" x1="2571.82205" x2="2591.82205" y1="130.0" y2="130.0" /><line stroke="rgb(0,0,0)" x1="2591.82205" x2="2596.82205" y1="130.0" y2="130.0" /><line stroke="rgb(0,0,0)" x1="2596.82205" x2="2606.82205" y1="130.0" y2="130.0" /><line stroke="rgb(0,0,0)" x1="2606.82205" x2="2626.82205" y1="130.0" y2="130.0" /><line stroke="rgb(0,0,0)" x1="2626.82205" x2="2631.82205" y1="130.0" y2="130.0" /><line stroke="rgb(0,0,0)" x1="2631.82205" x2="2643.4887000000003" y1="130.0" y2="130.0" /><line stroke="rgb(0,0,0)" x1="2643.4887000000003" x2="2663.4887000000003" y1="130.0" y2="130.0" /><line stroke="rgb(0,0,0)" x1="2663.4887000000003" x2="2668.4887000000003" y1="130.0" y2="130.0" /><line stroke="rgb(0,0,0)" x1="2668.4887000000003" x2="2673.4887000000003" y1="130.0" y2="130.0" /><line stroke="rgb(0,0,0)" x1="2673.4887000000003" x2="2693.4887000000003" y1="130.0" y2="130.0" /><line stroke="rgb(0,0,0)" x1="2693.4887000000003" x2="2698.4887000000003" y1="130.0" y2="130.0" /><line stroke="rgb(0,0,0)" x1="2698.4887000000003" x2="2765.5342" y1="130.0" y2="130.0" /><line stroke="rgb(0,0,0)" x1="2765.5342" x2="2785.5342" y1="130.0" y2="130.0" /><line stroke="rgb(0,0,0)" x1="2785.5342" x2="2790.5342" y1="130.0" y2="130.0" /><line stroke="rgb(0,0,0)" x1="2790.5342" x2="2815.5342" y1="130.0" y2="130.0" /><line stroke="rgb(0,0,0)" x1="2815.5342" x2="2835.5342" y1="130.0" y2="55.0" /><line stroke="rgb(0,0,0)" x1="2835.5342" x2="2840.5342" y1="55.0" y2="55.0" /><line stroke="rgb(0,0,0)" x1="2790.5342" x2="2815.5342" y1="130.0" y2="130.0" /><line stroke="rgb(0,0,0)" x1="2815.5342" x2="2835.5342" y1="130.0" y2="205.0" /><line stroke="rgb(0,0,0)" x1="2835.5342" x2="2840.5342" y1="205.0" y2="205.0" /><line stroke="rgb(0,0,0)" x1="2840.5342" x2="2860.5342" y1="55.0" y2="55.0" /><line stroke="rgb(0,0,0)" x1="2860.5342" x2="2880.5342" y1="55.0" y2="130.0" /><line stroke="rgb(0,0,0)" x1="2880.5342" x2="2885.5342" y1="130.0" y2="130.0" /><line stroke="rgb(0,0,0)" x1="2840.5342" x2="2852.20085" y1="205.0" y2="205.0" /><line stroke="rgb(0,0,0)" x1="2852.20085" x2="2880.5342" y1="205.0" y2="130.0" /><line stroke="rgb(0,0,0)" x1="2880.5342" x2="2885.5342" y1="130.0" y2="130.0" /><line stroke="rgb(0,0,0)" x1="2885.5342" x2="2945.5342" y1="130.0" y2="130.0" /><line stroke="rgb(0,0,0)" x1="2945.5342" x2="2965.5342" y1="130.0" y2="55.0" /><line stroke="rgb(0,0,0)" x1="2965.5342" x2="2970.5342" y1="55.0" y2="55.0" /><line stroke="rgb(0,0,0)" x1="2885.5342" x2="2945.5342" y1="130.0" y2="130.0" /><line stroke="rgb(0,0,0)" x1="2945.5342" x2="2965.5342" y1="130.0" y2="205.0" /><line stroke="rgb(0,0,0)" x1="2965.5342" x2="2970.5342" y1="205.0" y2="205.0" /><line stroke="rgb(0,0,0)" x1="2970.5342" x2="2990.5342" y1="55.0" y2="55.0" /><line stroke="rgb(0,0,0)" x1="2990.5342" x2="3010.5342" y1="55.0" y2="55.0" /><line stroke="rgb(0,0,0)" x1="3010.5342" x2="3015.5342" y1="55.0" y2="55.0" /><line stroke="rgb(0,0,0)" x1="2970.5342" x2="2980.5342" y1="205.0" y2="205.0" /><line stroke="rgb(0,0,0)" x1="2980.5342" x2="3010.5342" y1="205.0" y2="205.0" /><line stroke="rgb(0,0,0)" x1="3010.5342" x2="3015.5342" y1="205.0" y2="205.0" /><line stroke="rgb(0,0,0)" x1="3015.5342" x2="3040.5342" y1="55.0" y2="55.0" /><line stroke="rgb(0,0,0)" x1="3040.5342" x2="3060.5342" y1="55.0" y2="130.0" /><line stroke="rgb(0,0,0)" x1="3060.5342" x2="3065.5342" y1="130.0" y2="130.0" /><line stroke="rgb(0,0,0)" x1="3015.5342" x2="3025.5342" y1="205.0" y2="205.0" /><line stroke="rgb(0,0,0)" x1="3025.5342" x2="3060.5342" y1="205.0" y2="130.0" /><line stroke="rgb(0,0,0)" x1="3060.5342" x2="3065.5342" y1="130.0" y2="130.0" /><line stroke="rgb(0,0,0)" x1="3065.5342" x2="3090.5342" y1="130.0" y2="130.0" /><line stroke="rgb(0,0,0)" x1="3090.5342" x2="3110.5342" y1="130.0" y2="130.0" /><line stroke="rgb(0,0,0)" x1="3110.5342" x2="3115.5342" y1="130.0" y2="130.0" /><line stroke="rgb(0,0,0)" x1="3115.5342" x2="3140.5342" y1="130.0" y2="130.0" /><line stroke="rgb(0,0,0)" x1="3140.5342" x2="3160.5342" y1="130.0" y2="130.0" /><line stroke="rgb(0,0,0)" x1="3160.5342" x2="3165.5342" y1="130.0" y2="130.0" /><line stroke="rgb(0,0,0)" x1="3165.5342" x2="3175.5342" y1="130.0" y2="130.0" /><line stroke="rgb(0,0,0)" x1="3175.5342" x2="3195.5342" y1="130.0" y2="130.0" /><line stroke="rgb(0,0,0)" x1="3195.5342" x2="3200.5342" y1="130.0" y2="130.0" /><line stroke="rgb(0,0,0)" x1="3200.5342" x2="3289.2222" y1="130.0" y2="130.0" /><line stroke="rgb(0,0,0)" x1="3289.2222" x2="3309.2222" y1="130.0" y2="55.0" /><line stroke="rgb(0,0,0)" x1="3309.2222" x2="3314.2222" y1="55.0" y2="55.0" /><line stroke="rgb(0,0,0)" x1="3200.5342" x2="3289.2222" y1="130.0" y2="130.0" /><line stroke="rgb(0,0,0)" x1="3289.2222" x2="3309.2222" y1="130.0" y2="205.0" /><line stroke="rgb(0,0,0)" x1="3309.2222" x2="3314.2222" y1="205.0" y2="205.0" /><line stroke="rgb(0,0,0)" x1="3314.2222" x2="3334.2222" y1="55.0" y2="55.0" /><line stroke="rgb(0,0,0)" x1="3334.2222" x2="3354.2222" y1="55.0" y2="130.0" /><line stroke="rgb(0,0,0)" x1="3354.2222" x2="3359.2222" y1="130.0" y2="130.0" /><line stroke="rgb(0,0,0)" x1="3314.2222" x2="3324.2222" y1="205.0" y2="205.0" /><line stroke="rgb(0,0,0)" x1="3324.2222" x2="3354.2222" y1="205.0" y2="130.0" /><line stroke="rgb(0,0,0)" x1="3354.2222" x2="3359.2222" y1="130.0" y2="130.0" /><line stroke="rgb(0,0,0)" x1="3359.2222" x2="3383.1111000000005" y1="130.0" y2="130.0" /><line stroke="rgb(0,0,0)" x1="3383.1111000000005" x2="3403.1111000000005" y1="130.0" y2="130.0" /><line stroke="rgb(0,0,0)" x1="3403.1111000000005" x2="3408.1111000000005" y1="130.0" y2="130.0" /><line stroke="rgb(0,0,0)" x1="3408.1111000000005" x2="3466.9111000000003" y1="130.0" y2="130.0" /><line stroke="rgb(0,0,0)" x1="3466.9111000000003" x2="3486.9111000000003" y1="130.0" y2="130.0" /><line stroke="rgb(0,0,0)" x1="3486.9111000000003" x2="3491.9111000000003" y1="130.0" y2="130.0" /><line stroke="rgb(0,0,0)" x1="3491.9111000000003" x2="3552.6256000000008" y1="130.0" y2="130.0" /><line stroke="rgb(0,0,0)" x1="3552.6256000000008" x2="3572.6256000000008" y1="130.0" y2="130.0" /><line stroke="rgb(0,0,0)" x1="3572.6256000000008" x2="3577.6256000000008" y1="130.0" y2="130.0" /><line stroke="rgb(0,0,0)" x1="3577.6256000000008" x2="3597.83395" y1="130.0" y2="130.0" /><line stroke="rgb(0,0,0)" x1="3597.83395" x2="3617.83395" y1="130.0" y2="130.0" /><line stroke="rgb(0,0,0)" x1="3617.83395" x2="3622.83395" y1="130.0" y2="130.0" /><line stroke="rgb(0,0,0)" x1="3622.83395" x2="3642.83395" y1="130.0" y2="130.0" /><line stroke="rgb(0,0,0)" x1="3642.83395" x2="3662.83395" y1="130.0" y2="130.0" /><line stroke="rgb(0,0,0)" x1="3662.83395" x2="3667.83395" y1="130.0" y2="130.0" /><line stroke="rgb(0,0,0)" x1="3667.83395" x2="3687.83395" y1="130.0" y2="130.0" /><line stroke="rgb(0,0,0)" x1="3687.83395" x2="3707.83395" y1="130.0" y2="130.0" /><line stroke="rgb(0,0,0)" x1="3707.83395" x2="3712.83395" y1="130.0" y2="130.0" /><line stroke="rgb(0,0,0)" x1="3712.83395" x2="3734.9173" y1="130.0" y2="130.0" /><line stroke="rgb(0,0,0)" x1="3734.9173" x2="3754.9173" y1="130.0" y2="130.0" /><line stroke="rgb(0,0,0)" x1="3754.9173" x2="3759.9173" y1="130.0" y2="130.0" /><line stroke="rgb(0,0,0)" x1="3759.9173" x2="3774.5601500000002" y1="130.0" y2="130.0" /><line stroke="rgb(0,0,0)" x1="3774.5601500000002" x2="3794.5601500000002" y1="130.0" y2="130.0" /><line stroke="rgb(0,0,0)" x1="3794.5601500000002" x2="3799.5601500000002" y1="130.0" y2="130.0" /><line stroke="rgb(0,0,0)" x1="3799.5601500000002" x2="3821.0819" y1="130.0" y2="130.0" /><line stroke="rgb(0,0,0)" x1="3821.0819" x2="3841.0819" y1="130.0" y2="130.0" /><line stroke="rgb(0,0,0)" x1="3841.0819" x2="3846.0819" y1="130.0" y2="130.0" /><line stroke="rgb(0,0,0)" x1="3846.0819" x2="3851.0819" y1="130.0" y2="130.0" /><line stroke="rgb(0,0,0)" x1="3851.0819" x2="3871.0819" y1="130.0" y2="130.0" /><line stroke="rgb(0,0,0)" x1="3871.0819" x2="3876.0819" y1="130.0" y2="130.0" /><line stroke="rgb(0,0,0)" x1="3876.0819" x2="3910.7878000000005" y1="130.0" y2="130.0" /><line stroke="rgb(0,0,0)" x1="3910.7878000000005" x2="3930.7878000000005" y1="130.0" y2="130.0" /><line stroke="rgb(0,0,0)" x1="3930.7878000000005" x2="3935.7878000000005" y1="130.0" y2="130.0" /><line stroke="rgb(0,0,0)" x1="3935.7878000000005" x2="3951.9580000000005" y1="130.0" y2="130.0" /><line stroke="rgb(0,0,0)" x1="3951.9580000000005" x2="3971.9580000000005" y1="130.0" y2="130.0" /><line stroke="rgb(0,0,0)" x1="3971.9580000000005" x2="3976.9580000000005" y1="130.0" y2="130.0" /><line stroke="rgb(0,0,0)" x1="3976.9580000000005" x2="3981.9580000000005" y1="130.0" y2="130.0" /><line stroke="rgb(0,0,0)" x1="3981.9580000000005" x2="4001.9580000000005" y1="130.0" y2="130.0" /><line stroke="rgb(0,0,0)" x1="4001.9580000000005" x2="4006.9580000000005" y1="130.0" y2="130.0" /><line stroke="rgb(0,0,0)" x1="4006.9580000000005" x2="4021.5034500000006" y1="130.0" y2="130.0" /><line stroke="rgb(0,0,0)" x1="4021.5034500000006" x2="4041.5034500000006" y1="130.0" y2="55.0" /><line stroke="rgb(0,0,0)" x1="4041.5034500000006" x2="4046.5034500000006" y1="55.0" y2="55.0" /><line stroke="rgb(0,0,0)" x1="4006.9580000000005" x2="4021.5034500000006" y1="130.0" y2="130.0" /><line stroke="rgb(0,0,0)" x1="4021.5034500000006" x2="4041.5034500000006" y1="130.0" y2="205.0" /><line stroke="rgb(0,0,0)" x1="4041.5034500000006" x2="4046.5034500000006" y1="205.0" y2="205.0" /><line stroke="rgb(0,0,0)" x1="4046.5034500000006" x2="4051.5034500000006" y1="55.0" y2="55.0" /><line stroke="rgb(0,0,0)" x1="4051.5034500000006" x2="4095.947900000001" y1="55.0" y2="130.0" /><line stroke="rgb(0,0,0)" x1="4095.947900000001" x2="4100.947900000001" y1="130.0" y2="130.0" /><rect fill="rgb(150,255,150)" height="8.799999999999999" stroke="rgb(0,0,0)" width="11.13635" x="5.0" y="125.6" /><text fill="black" x="5.0" y="154.4">E0</text><rect fill="rgb(70,175,175)" height="0.8" stroke="rgb(0,0,0)" width="5.0" x="46.13635000000001" y="129.6" /><text fill="black" x="46.13635000000001" y="150.4">E1</text><rect fill="rgb(150,255,150)" height="7.6" stroke="rgb(0,0,0)" width="9.473700000000001" x="81.13635000000001" y="126.2" /><text fill="black" x="81.13635000000001" y="153.8">E2</text><rect fill="rgb(175,70,70)" height="3.5999999999999996" stroke="rgb(0,0,0)" width="5.0" x="120.61005" y="53.2" /><text fill="black" x="120.61005" y="76.8">E3</text><rect fill="rgb(150,150,150)" height="0.8" stroke="rgb(0,0,0)" width="47.5" x="120.61005" y="204.6" /><text fill="black" x="120.61005" y="225.4">H4</text><rect fill="rgb(175,70,70)" height="3.5999999999999996" stroke="rgb(0,0,0)" width="5.0" x="198.11005" y="53.2" /><text fill="black" x="198.11005" y="76.8">E5</text><rect fill="rgb(150,150,150)" height="19.2" stroke="rgb(0,0,0)" width="69.896" x="198.11005" y="195.4" /><text fill="black" x="198.11005" y="234.6">H6</text><rect fill="rgb(70,175,175)" height="0.8" stroke="rgb(0,0,0)" width="5.0" x="298.00605" y="129.6" /><text fill="black" x="298.00605" y="150.4">E7</text><rect fill="rgb(255,150,255)" height="7.199999999999999" stroke="rgb(0,0,0)" width="5.0" x="333.0060500000001" y="126.4" /><text fill="black" x="333.0060500000001" y="153.6">E8</text><rect fill="rgb(150,150,150)" height="3.5999999999999996" stroke="rgb(0,0,0)" width="18.8889" x="368.0060500000001" y="53.2" /><text fill="black" x="368.0060500000001" y="76.8">H9</text><rect fill="rgb(255,150,150)" height="8.0" stroke="rgb(0,0,0)" width="6.0" x="368.0060500000001" y="201.0" /><text fill="black" x="368.0060500000001" y="229.0">E10</text><rect fill="rgb(255,150,150)" height="99.6" stroke="rgb(0,0,0)" width="28.654600000000002" x="416.8949500000001" y="80.2" /><text fill="black" x="416.8949500000001" y="199.8">E11</text><rect fill="rgb(255,255,150)" height="1.2" stroke="rgb(0,0,0)" width="16.66665" x="475.54955000000007" y="129.4" /><text fill="black" x="475.54955000000007" y="150.6">E12</text><rect fill="rgb(255,255,150)" height="1.2" stroke="rgb(0,0,0)" width="20.0" x="522.2162000000001" y="54.4" /><text fill="black" x="522.2162000000001" y="75.6">E13</text><rect fill="rgb(150,150,150)" height="14.799999999999999" stroke="rgb(0,0,0)" width="17.7027" x="522.2162000000001" y="197.6" /><text fill="black" x="522.2162000000001" y="232.4">H14</text><rect fill="rgb(150,150,150)" height="99.6" stroke="rgb(0,0,0)" width="77.309" x="572.2162000000001" y="80.2" /><text fill="black" x="572.2162000000001" y="199.8">H15</text><rect fill="rgb(255,150,150)" height="0.4" stroke="rgb(0,0,0)" width="5.0" x="679.5252" y="129.8" /><text fill="black" x="679.5252" y="150.2">E16</text><rect fill="rgb(150,150,150)" height="14.399999999999999" stroke="rgb(0,0,0)" width="15.83335" x="714.5252" y="122.8" /><text fill="black" x="714.5252" y="157.2">H17</text><rect fill="rgb(255,150,150)" height="2.8000000000000003" stroke="rgb(0,0,0)" width="7.142849999999999" x="760.3585500000002" y="128.6" /><text fill="black" x="760.3585500000002" y="151.4">E18</text><rect fill="rgb(150,150,150)" height="2.4" stroke="rgb(0,0,0)" width="18.33335" x="797.5014000000001" y="53.8" /><text fill="black" x="797.5014000000001" y="76.2">H19</text><rect fill="rgb(255,150,150)" height="24.8" stroke="rgb(0,0,0)" width="12.25805" x="797.5014000000001" y="192.6" /><text fill="black" x="797.5014000000001" y="237.4">E20</text><rect fill="rgb(255,150,150)" height="96.8" stroke="rgb(0,0,0)" width="25.08265" x="845.8347500000002" y="81.6" /><text fill="black" x="845.8347500000002" y="198.4">E21</text><rect fill="rgb(255,150,150)" height="0.8" stroke="rgb(0,0,0)" width="5.0" x="900.9174000000002" y="129.6" /><text fill="black" x="900.9174000000002" y="150.4">E22</text><rect fill="rgb(175,175,70)" height="0.8" stroke="rgb(0,0,0)" width="5.0" x="935.9174000000002" y="54.6" /><text fill="black" x="935.9174000000002" y="75.4">E23</text><rect fill="rgb(150,150,150)" height="0.8" stroke="rgb(0,0,0)" width="15.0" x="935.9174000000002" y="204.6" /><text fill="black" x="935.9174000000002" y="225.4">H24</text><rect fill="rgb(150,150,150)" height="7.6" stroke="rgb(0,0,0)" width="48.684200000000004" x="980.9174000000002" y="126.2" /><text fill="black" x="980.9174000000002" y="153.8">H25</text><rect fill="rgb(150,150,150)" height="2.4" stroke="rgb(0,0,0)" width="17.5" x="1059.6016000000002" y="53.8" /><text fill="black" x="1059.6016000000002" y="76.2">H26</text><rect fill="rgb(175,175,70)" height="0.8" stroke="rgb(0,0,0)" width="5.0" x="1059.6016000000002" y="204.6" /><text fill="black" x="1059.6016000000002" y="225.4">E27</text><rect fill="rgb(255,150,150)" height="10.0" stroke="rgb(0,0,0)" width="5.4" x="1107.1016000000002" y="125.0" /><text fill="black" x="1107.1016000000002" y="155.0">E28</text><rect fill="rgb(255,150,150)" height="1.2" stroke="rgb(0,0,0)" width="6.66665" x="1142.5016000000003" y="129.4" /><text fill="black" x="1142.5016000000003" y="150.6">E29</text><rect fill="rgb(150,150,150)" height="0.0" stroke="rgb(0,0,0)" width="0.0" x="1179.1682500000002" y="130.0" /><text fill="black" x="1179.1682500000002" y="150.0">X30</text><rect fill="rgb(150,150,150)" height="10.0" stroke="rgb(0,0,0)" width="15.2" x="1209.1682500000002" y="125.0" /><text fill="black" x="1209.1682500000002" y="155.0">H31</text><rect fill="rgb(150,150,150)" height="90.0" stroke="rgb(0,0,0)" width="60.0" x="1254.3682500000002" y="85.0" /><text fill="black" x="1254.3682500000002" y="195.0">H32</text><rect fill="rgb(150,150,150)" height="11.600000000000001" stroke="rgb(0,0,0)" width="24.13795" x="1344.36825" y="124.2" /><text fill="black" x="1344.36825" y="155.8">H33</text><rect fill="rgb(150,150,150)" height="0.0" stroke="rgb(0,0,0)" width="0.0" x="1398.5061999999998" y="130.0" /><text fill="black" x="1398.5061999999998" y="150.0">X34</text><rect fill="rgb(150,150,150)" height="0.0" stroke="rgb(0,0,0)" width="0.0" x="1428.5061999999998" y="130.0" /><text fill="black" x="1428.5061999999998" y="150.0">X35</text><rect fill="rgb(150,150,150)" height="0.0" stroke="rgb(0,0,0)" width="0.0" x="1458.5061999999998" y="130.0" /><text fill="black" x="1458.5061999999998" y="150.0">X36</text><rect fill="rgb(255,150,150)" height="4.8" stroke="rgb(0,0,0)" width="5.83335" x="1488.5061999999998" y="127.6" /><text fill="black" x="1488.5061999999998" y="152.4">E37</text><rect fill="rgb(255,150,150)" height="99.2" stroke="rgb(0,0,0)" width="22.3387" x="1524.33955" y="80.4" /><text fill="black" x="1524.33955" y="199.6">E38</text><rect fill="rgb(150,150,150)" height="2.4" stroke="rgb(0,0,0)" width="15.0" x="1576.67825" y="53.8" /><text fill="black" x="1576.67825" y="76.2">H39</text><rect fill="rgb(150,255,255)" height="4.8" stroke="rgb(0,0,0)" width="6.25" x="1576.67825" y="202.6" /><text fill="black" x="1576.67825" y="227.4">E40</text><rect fill="rgb(150,150,150)" height="8.0" stroke="rgb(0,0,0)" width="36.0" x="1621.67825" y="51.0" /><text fill="black" x="1621.67825" y="79.0">H41</text><rect fill="rgb(150,255,255)" height="4.8" stroke="rgb(0,0,0)" width="6.25" x="1621.67825" y="202.6" /><text fill="black" x="1621.67825" y="227.4">E42</text><rect fill="rgb(150,150,150)" height="88.4" stroke="rgb(0,0,0)" width="61.56100000000001" x="1687.67825" y="85.8" /><text fill="black" x="1687.67825" y="194.2">H43</text><rect fill="rgb(70,175,70)" height="1.2" stroke="rgb(0,0,0)" width="5.0" x="1779.23925" y="54.4" /><text fill="black" x="1779.23925" y="75.6">E44</text><rect fill="rgb(150,150,150)" height="0.0" stroke="rgb(0,0,0)" width="0.0" x="1779.23925" y="205.0" /><text fill="black" x="1779.23925" y="225.0">X45</text><rect fill="rgb(150,150,150)" height="16.0" stroke="rgb(0,0,0)" width="25.625" x="1814.23925" y="122.0" /><text fill="black" x="1814.23925" y="158.0">H46</text><rect fill="rgb(150,150,150)" height="22.400000000000002" stroke="rgb(0,0,0)" width="19.64285" x="1869.86425" y="118.8" /><text fill="black" x="1869.86425" y="161.2">H47</text><rect fill="rgb(70,175,70)" height="1.2" stroke="rgb(0,0,0)" width="5.0" x="1919.5070999999998" y="129.4" /><text fill="black" x="1919.5070999999998" y="150.6">E48</text><rect fill="rgb(255,150,150)" height="99.6" stroke="rgb(0,0,0)" width="22.9719" x="1954.5070999999998" y="80.2" /><text fill="black" x="1954.5070999999998" y="199.8">E49</text><rect fill="rgb(255,150,150)" height="0.4" stroke="rgb(0,0,0)" width="5.0" x="2007.4789999999998" y="54.8" /><text fill="black" x="2007.4789999999998" y="75.2">E50</text><rect fill="rgb(150,150,150)" height="8.4" stroke="rgb(0,0,0)" width="18.33335" x="2007.4789999999998" y="200.8" /><text fill="black" x="2007.4789999999998" y="229.2">H51</text><rect fill="rgb(150,150,150)" height="4.3999999999999995" stroke="rgb(0,0,0)" width="20.909100000000002" x="2055.81235" y="52.8" /><text fill="black" x="2055.81235" y="77.2">H52</text><rect fill="rgb(255,150,150)" height="4.8" stroke="rgb(0,0,0)" width="5.41665" x="2055.81235" y="202.6" /><text fill="black" x="2055.81235" y="227.4">E53</text><rect fill="rgb(150,150,150)" height="54.400000000000006" stroke="rgb(0,0,0)" width="41.6912" x="2106.72145" y="102.8" /><text fill="black" x="2106.72145" y="177.2">H54</text><rect fill="rgb(150,150,150)" height="15.6" stroke="rgb(0,0,0)" width="24.23075" x="2178.4126499999998" y="122.2" /><text fill="black" x="2178.4126499999998" y="157.8">H55</text><rect fill="rgb(255,150,150)" height="16.0" stroke="rgb(0,0,0)" width="9.125" x="2232.6434" y="47.0" /><text fill="black" x="2232.6434" y="83.0">E56</text><rect fill="rgb(150,150,150)" height="1.6" stroke="rgb(0,0,0)" width="15.0" x="2232.6434" y="204.2" /><text fill="black" x="2232.6434" y="225.8">H57</text><rect fill="rgb(255,150,150)" height="70.0" stroke="rgb(0,0,0)" width="18.6857" x="2277.6434" y="95.0" /><text fill="black" x="2277.6434" y="185.0">E58</text><rect fill="rgb(150,150,150)" height="0.4" stroke="rgb(0,0,0)" width="20.0" x="2326.3291" y="129.8" /><text fill="black" x="2326.3291" y="150.2">H59</text><rect fill="rgb(255,150,150)" height="15.2" stroke="rgb(0,0,0)" width="21.1842" x="2376.3291" y="122.4" /><text fill="black" x="2376.3291" y="157.6">E60</text><rect fill="rgb(255,150,150)" height="5.2" stroke="rgb(0,0,0)" width="38.0769" x="2427.5133" y="127.4" /><text fill="black" x="2427.5133" y="152.6">E61</text><rect fill="rgb(150,150,150)" height="18.4" stroke="rgb(0,0,0)" width="24.565199999999997" x="2495.5902" y="120.8" /><text fill="black" x="2495.5902" y="159.2">H62</text><rect fill="rgb(150,150,150)" height="3.5999999999999996" stroke="rgb(0,0,0)" width="16.66665" x="2550.1554" y="128.2" /><text fill="black" x="2550.1554" y="151.8">H63</text><rect fill="rgb(175,70,175)" height="1.2" stroke="rgb(0,0,0)" width="5.0" x="2596.82205" y="129.4" /><text fill="black" x="2596.82205" y="150.6">E64</text><rect fill="rgb(70,70,175)" height="1.2" stroke="rgb(0,0,0)" width="6.66665" x="2631.82205" y="129.4" /><text fill="black" x="2631.82205" y="150.6">E65</text><rect fill="rgb(150,150,150)" height="0.0" stroke="rgb(0,0,0)" width="0.0" x="2668.4887000000003" y="130.0" /><text fill="black" x="2668.4887000000003" y="150.0">X66</text><rect fill="rgb(150,150,150)" height="8.799999999999999" stroke="rgb(0,0,0)" width="62.045500000000004" x="2698.4887000000003" y="125.6" /><text fill="black" x="2698.4887000000003" y="154.4">H67</text><rect fill="rgb(150,150,150)" height="2.0" stroke="rgb(0,0,0)" width="20.0" x="2790.5342" y="129.0" /><text fill="black" x="2790.5342" y="151.0">H68</text><rect fill="rgb(150,150,150)" height="0.4" stroke="rgb(0,0,0)" width="15.0" x="2840.5342" y="54.8" /><text fill="black" x="2840.5342" y="75.2">H69</text><rect fill="rgb(70,70,175)" height="1.2" stroke="rgb(0,0,0)" width="6.66665" x="2840.5342" y="204.4" /><text fill="black" x="2840.5342" y="225.6">E70</text><rect fill="rgb(150,150,150)" height="1.2" stroke="rgb(0,0,0)" width="55.0" x="2885.5342" y="129.4" /><text fill="black" x="2885.5342" y="150.6">H71</text><rect fill="rgb(150,150,150)" height="0.4" stroke="rgb(0,0,0)" width="15.0" x="2970.5342" y="54.8" /><text fill="black" x="2970.5342" y="75.2">H72</text><rect fill="rgb(115,10,10)" height="0.4" stroke="rgb(0,0,0)" width="5.0" x="2970.5342" y="204.8" /><text fill="black" x="2970.5342" y="225.2">E73</text><rect fill="rgb(150,150,150)" height="0.4" stroke="rgb(0,0,0)" width="20.0" x="3015.5342" y="54.8" /><text fill="black" x="3015.5342" y="75.2">H74</text><rect fill="rgb(115,10,10)" height="0.4" stroke="rgb(0,0,0)" width="5.0" x="3015.5342" y="204.8" /><text fill="black" x="3015.5342" y="225.2">E75</text><rect fill="rgb(150,150,150)" height="1.6" stroke="rgb(0,0,0)" width="20.0" x="3065.5342" y="129.2" /><text fill="black" x="3065.5342" y="150.8">H76</text><rect fill="rgb(150,150,150)" height="4.8" stroke="rgb(0,0,0)" width="20.0" x="3115.5342" y="127.6" /><text fill="black" x="3115.5342" y="152.4">H77</text><rect fill="rgb(175,70,175)" height="1.2" stroke="rgb(0,0,0)" width="5.0" x="3165.5342" y="129.4" /><text fill="black" x="3165.5342" y="150.6">E78</text><rect fill="rgb(150,150,150)" height="80.80000000000001" stroke="rgb(0,0,0)" width="83.688" x="3200.5342" y="89.6" /><text fill="black" x="3200.5342" y="190.4">H79</text><rect fill="rgb(150,150,150)" height="0.4" stroke="rgb(0,0,0)" width="15.0" x="3314.2222" y="54.8" /><text fill="black" x="3314.2222" y="75.2">H80</text><rect fill="rgb(255,150,255)" height="7.199999999999999" stroke="rgb(0,0,0)" width="5.0" x="3314.2222" y="201.4" /><text fill="black" x="3314.2222" y="228.6">E81</text><rect fill="rgb(150,150,150)" height="3.5999999999999996" stroke="rgb(0,0,0)" width="18.8889" x="3359.2222" y="128.2" /><text fill="black" x="3359.2222" y="151.8">H82</text><rect fill="rgb(150,150,150)" height="10.0" stroke="rgb(0,0,0)" width="53.8" x="3408.1111000000005" y="125.0" /><text fill="black" x="3408.1111000000005" y="155.0">H83</text><rect fill="rgb(150,150,150)" height="2.8000000000000003" stroke="rgb(0,0,0)" width="55.714499999999994" x="3491.9111000000003" y="128.6" /><text fill="black" x="3491.9111000000003" y="151.4">H84</text><rect fill="rgb(150,150,255)" height="9.6" stroke="rgb(0,0,0)" width="15.20835" x="3577.6256000000008" y="125.2" /><text fill="black" x="3577.6256000000008" y="154.8">E85</text><rect fill="rgb(150,150,150)" height="2.0" stroke="rgb(0,0,0)" width="15.0" x="3622.83395" y="129.0" /><text fill="black" x="3622.83395" y="151.0">H86</text><rect fill="rgb(150,150,150)" height="0.8" stroke="rgb(0,0,0)" width="15.0" x="3667.83395" y="129.6" /><text fill="black" x="3667.83395" y="150.4">H87</text><rect fill="rgb(150,150,255)" height="9.6" stroke="rgb(0,0,0)" width="17.08335" x="3712.83395" y="125.2" /><text fill="black" x="3712.83395" y="154.8">E88</text><rect fill="rgb(255,150,150)" height="5.6000000000000005" stroke="rgb(0,0,0)" width="9.64285" x="3759.9173" y="127.2" /><text fill="black" x="3759.9173" y="152.8">E89</text><rect fill="rgb(150,150,150)" height="9.2" stroke="rgb(0,0,0)" width="16.52175" x="3799.5601500000002" y="125.4" /><text fill="black" x="3799.5601500000002" y="154.6">H90</text><rect fill="rgb(150,150,150)" height="0.0" stroke="rgb(0,0,0)" width="0.0" x="3846.0819" y="130.0" /><text fill="black" x="3846.0819" y="150.0">X91</text><rect fill="rgb(150,150,150)" height="6.800000000000001" stroke="rgb(0,0,0)" width="29.7059" x="3876.0819" y="126.6" /><text fill="black" x="3876.0819" y="153.4">H92</text><rect fill="rgb(255,150,150)" height="18.8" stroke="rgb(0,0,0)" width="11.1702" x="3935.7878000000005" y="120.6" /><text fill="black" x="3935.7878000000005" y="159.4">E93</text><rect fill="rgb(150,150,150)" height="0.0" stroke="rgb(0,0,0)" width="0.0" x="3976.9580000000005" y="130.0" /><text fill="black" x="3976.9580000000005" y="150.0">X94</text><rect fill="rgb(150,255,150)" height="8.799999999999999" stroke="rgb(0,0,0)" width="9.545449999999999" x="4006.9580000000005" y="125.6" /><text fill="black" x="4006.9580000000005" y="154.4">E95</text><rect fill="rgb(150,150,150)" height="0.0" stroke="rgb(0,0,0)" width="0.0" x="4046.5034500000006" y="55.0" /><text fill="black" x="4046.5034500000006" y="75.0">X96</text><rect fill="rgb(150,150,150)" height="3.5999999999999996" stroke="rgb(0,0,0)" width="24.44445" x="4046.5034500000006" y="203.2" /><text fill="black" x="4046.5034500000006" y="226.8">H97</text><rect fill="rgb(150,150,150)" height="0.0" stroke="rgb(0,0,0)" width="0.0" x="4100.947900000001" y="130.0" /><text fill="black" x="4100.947900000001" y="150.0">X98</text><path d="M 85.87320000000001,130.0 a 155.74304908836012,155.74304908836012 0 0,0 -75.30502500000001,-0.0" stroke="rgb(150,255,150)" stroke-width="2" /><path d="M 85.87320000000001,130.0 a 155.74304908836012,155.74304908836012 0 0,0 -75.30502500000001,-0.0" stroke="rgb(0,0,0)" stroke-width="0.2" /><path d="M 4011.7307250000003,130.0 a 43875.123314680604,43875.123314680604 0 0,0 -4001.1625500000005,-0.0" stroke="rgb(150,255,150)" stroke-width="2" /><path d="M 4011.7307250000003,130.0 a 43875.123314680604,43875.123314680604 0 0,0 -4001.1625500000005,-0.0" stroke="rgb(0,0,0)" stroke-width="0.2" /><path d="M 300.50605,130.0 a 620.7073744502921,620.7073744502921 0 0,0 -251.86970000000002,-0.0" stroke="rgb(70,175,175)" stroke-width="2" /><path d="M 300.50605,130.0 a 620.7073744502921,620.7073744502921 0 0,0 -251.86970000000002,-0.0" stroke="rgb(0,0,0)" stroke-width="0.2" /><path d="M 200.61005,55.0 a 160.66342318375862,160.66342318375862 0 0,0 -77.5,-0.0" stroke="rgb(175,70,70)" stroke-width="2" /><path d="M 200.61005,55.0 a 160.66342318375862,160.66342318375862 0 0,0 -77.5,-0.0" stroke="rgb(0,0,0)" stroke-width="0.2" /><path d="M 3316.7222,205.0 a 25799.273696574746,25799.273696574746 0 0,0 -2981.21615,-75.0" stroke="rgb(255,150,255)" stroke-width="2" /><path d="M 3316.7222,205.0 a 25799.273696574746,25799.273696574746 0 0,0 -2981.21615,-75.0" stroke="rgb(0,0,0)" stroke-width="0.2" /><path d="M 371.0060500000001,205.0 a 452.8723860094105,452.8723860094105 0 0,0 432.624375,-0.0" stroke="rgb(255,150,150)" stroke-width="2" /><path d="M 371.0060500000001,205.0 a 452.8723860094105,452.8723860094105 0 0,0 432.624375,-0.0" stroke="rgb(0,0,0)" stroke-width="0.2" /><path d="M 431.2222500000001,130.0 a 355.4837472882514,355.4837472882514 0 0,0 372.40817499999997,75.0" stroke="rgb(255,150,150)" stroke-width="2" /><path d="M 431.2222500000001,130.0 a 355.4837472882514,355.4837472882514 0 0,0 372.40817499999997,75.0" stroke="rgb(0,0,0)" stroke-width="0.2" /><path d="M 431.2222500000001,130.0 a 442.1827050275699,442.1827050275699 0 0,0 427.15382500000015,-0.0" stroke="rgb(255,150,150)" stroke-width="2" /><path d="M 431.2222500000001,130.0 a 442.1827050275699,442.1827050275699 0 0,0 427.15382500000015,-0.0" stroke="rgb(0,0,0)" stroke-width="0.2" /><path d="M 431.2222500000001,130.0 a 2582.1031028417956,2582.1031028417956 0 0,0 1060.2006249999997,-0.0" stroke="rgb(255,150,150)" stroke-width="2" /><path d="M 431.2222500000001,130.0 a 2582.1031028417956,2582.1031028417956 0 0,0 1060.2006249999997,-0.0" stroke="rgb(0,0,0)" stroke-width="0.2" /><path d="M 431.2222500000001,130.0 a 2798.975012200505,2798.975012200505 0 0,0 1104.2866499999998,-0.0" stroke="rgb(255,150,150)" stroke-width="2" /><path d="M 431.2222500000001,130.0 a 2798.975012200505,2798.975012200505 0 0,0 1104.2866499999998,-0.0" stroke="rgb(0,0,0)" stroke-width="0.2" /><path d="M 532.2162000000001,55.0 a 187.31284971548882,187.31284971548882 0 0,0 -48.333325,75.0" stroke="rgb(255,255,150)" stroke-width="2" /><path d="M 532.2162000000001,55.0 a 187.31284971548882,187.31284971548882 0 0,0 -48.333325,75.0" stroke="rgb(0,0,0)" stroke-width="0.2" /><path d="M 682.0252,130.0 a 98.18097980287658,98.18097980287658 0 0,0 176.3508750000002,-0.0" stroke="rgb(255,150,150)" stroke-width="2" /><path d="M 682.0252,130.0 a 98.18097980287658,98.18097980287658 0 0,0 176.3508750000002,-0.0" stroke="rgb(0,0,0)" stroke-width="0.2" /><path d="M 803.6304250000001,205.0 a 177.31838759686266,177.31838759686266 0 0,0 -39.70044999999993,-75.0" stroke="rgb(255,150,150)" stroke-width="2" /><path d="M 803.6304250000001,205.0 a 177.31838759686266,177.31838759686266 0 0,0 -39.70044999999993,-75.0" stroke="rgb(0,0,0)" stroke-width="0.2" /><path d="M 858.3760750000002,130.0 a 171.1699877761946,171.1699877761946 0 0,0 251.425525,-0.0" stroke="rgb(255,150,150)" stroke-width="2" /><path d="M 858.3760750000002,130.0 a 171.1699877761946,171.1699877761946 0 0,0 251.425525,-0.0" stroke="rgb(0,0,0)" stroke-width="0.2" /><path d="M 903.4174000000002,130.0 a 124.30554093100008,124.30554093100008 0 0,0 206.38420000000008,-0.0" stroke="rgb(255,150,150)" stroke-width="2" /><path d="M 903.4174000000002,130.0 a 124.30554093100008,124.30554093100008 0 0,0 206.38420000000008,-0.0" stroke="rgb(0,0,0)" stroke-width="0.2" /><path d="M 1062.1016000000002,205.0 a 454.0156573773434,454.0156573773434 0 0,0 -123.68420000000003,-150.0" stroke="rgb(175,175,70)" stroke-width="2" /><path d="M 1062.1016000000002,205.0 a 454.0156573773434,454.0156573773434 0 0,0 -123.68420000000003,-150.0" stroke="rgb(0,0,0)" stroke-width="0.2" /><path d="M 1145.8349250000003,130.0 a 71.35730561671265,71.35730561671265 0 0,0 -36.033325000000104,-0.0" stroke="rgb(255,150,150)" stroke-width="2" /><path d="M 1145.8349250000003,130.0 a 71.35730561671265,71.35730561671265 0 0,0 -36.033325000000104,-0.0" stroke="rgb(0,0,0)" stroke-width="0.2" /><path d="M 1535.5088999999998,130.0 a 448.674098639142,448.674098639142 0 0,0 430.48415,-0.0" stroke="rgb(255,150,150)" stroke-width="2" /><path d="M 1535.5088999999998,130.0 a 448.674098639142,448.674098639142 0 0,0 430.48415,-0.0" stroke="rgb(0,0,0)" stroke-width="0.2" /><path d="M 1624.80325,205.0 a 90.01624175865106,90.01624175865106 0 0,0 -45.0,-0.0" stroke="rgb(150,255,255)" stroke-width="2" /><path d="M 1624.80325,205.0 a 90.01624175865106,90.01624175865106 0 0,0 -45.0,-0.0" stroke="rgb(0,0,0)" stroke-width="0.2" /><path d="M 1781.73925,55.0 a 85.00015850823277,85.00015850823277 0 0,0 140.26784999999973,75.0" stroke="rgb(70,175,70)" stroke-width="2" /><path d="M 1781.73925,55.0 a 85.00015850823277,85.00015850823277 0 0,0 140.26784999999973,75.0" stroke="rgb(0,0,0)" stroke-width="0.2" /><path d="M 1965.9930499999998,130.0 a 207.4577500116422,207.4577500116422 0 0,0 271.2128500000001,-75.0" stroke="rgb(255,150,150)" stroke-width="2" /><path d="M 1965.9930499999998,130.0 a 207.4577500116422,207.4577500116422 0 0,0 271.2128500000001,-75.0" stroke="rgb(0,0,0)" stroke-width="0.2" /><path d="M 1965.9930499999998,130.0 a 261.6741691960002,261.6741691960002 0 0,0 320.9932000000001,-0.0" stroke="rgb(255,150,150)" stroke-width="2" /><path d="M 1965.9930499999998,130.0 a 261.6741691960002,261.6741691960002 0 0,0 320.9932000000001,-0.0" stroke="rgb(0,0,0)" stroke-width="0.2" /><path d="M 2058.520675,205.0 a 355.1657813191199,355.1657813191199 0 0,0 -48.541675000000396,-150.0" stroke="rgb(255,150,150)" stroke-width="2" /><path d="M 2058.520675,205.0 a 355.1657813191199,355.1657813191199 0 0,0 -48.541675000000396,-150.0" stroke="rgb(0,0,0)" stroke-width="0.2" /><path d="M 2058.520675,205.0 a 158.91254309109203,158.91254309109203 0 0,0 228.46557499999972,-75.0" stroke="rgb(255,150,150)" stroke-width="2" /><path d="M 2058.520675,205.0 a 158.91254309109203,158.91254309109203 0 0,0 228.46557499999972,-75.0" stroke="rgb(0,0,0)" stroke-width="0.2" /><path d="M 2386.9211999999998,130.0 a 212.19384338310093,212.19384338310093 0 0,0 -99.93494999999984,-0.0" stroke="rgb(255,150,150)" stroke-width="2" /><path d="M 2386.9211999999998,130.0 a 212.19384338310093,212.19384338310093 0 0,0 -99.93494999999984,-0.0" stroke="rgb(0,0,0)" stroke-width="0.2" /><path d="M 2286.98625,130.0 a 6247.943608405054,6247.943608405054 0 0,0 1654.3866500000004,-0.0" stroke="rgb(255,150,150)" stroke-width="2" /><path d="M 2286.98625,130.0 a 6247.943608405054,6247.943608405054 0 0,0 1654.3866500000004,-0.0" stroke="rgb(0,0,0)" stroke-width="0.2" /><path d="M 2446.55175,130.0 a 121.23396690775554,121.23396690775554 0 0,0 -59.63055000000031,-0.0" stroke="rgb(255,150,150)" stroke-width="2" /><path d="M 2446.55175,130.0 a 121.23396690775554,121.23396690775554 0 0,0 -59.63055000000031,-0.0" stroke="rgb(0,0,0)" stroke-width="0.2" /><path d="M 3168.0342,130.0 a 1807.738661149419,1807.738661149419 0 0,0 -568.7121499999998,-0.0" stroke="rgb(175,70,175)" stroke-width="2" /><path d="M 3168.0342,130.0 a 1807.738661149419,1807.738661149419 0 0,0 -568.7121499999998,-0.0" stroke="rgb(0,0,0)" stroke-width="0.2" /><path d="M 2843.867525,205.0 a 531.5477928007568,531.5477928007568 0 0,0 -208.71214999999984,-75.0" stroke="rgb(70,70,175)" stroke-width="2" /><path d="M 2843.867525,205.0 a 531.5477928007568,531.5477928007568 0 0,0 -208.71214999999984,-75.0" stroke="rgb(0,0,0)" stroke-width="0.2" /><path d="M 2973.0342,205.0 a 32.10227272727273,32.10227272727273 0 0,0 45.0,-0.0" stroke="rgb(115,10,10)" stroke-width="2" /><path d="M 2973.0342,205.0 a 32.10227272727273,32.10227272727273 0 0,0 45.0,-0.0" stroke="rgb(0,0,0)" stroke-width="0.2" /><path d="M 3721.375625,130.0 a 300.13187960525266,300.13187960525266 0 0,0 -136.14584999999943,-0.0" stroke="rgb(150,150,255)" stroke-width="2" /><path d="M 3721.375625,130.0 a 300.13187960525266,300.13187960525266 0 0,0 -136.14584999999943,-0.0" stroke="rgb(0,0,0)" stroke-width="0.2" /><path d="M 3941.3729000000003,130.0 a 405.4357060282447,405.4357060282447 0 0,0 -176.63417500000014,-0.0" stroke="rgb(255,150,150)" stroke-width="2" /><path d="M 3941.3729000000003,130.0 a 405.4357060282447,405.4357060282447 0 0,0 -176.63417500000014,-0.0" stroke="rgb(0,0,0)" stroke-width="0.2" /></svg>