<?xml version="1.0" encoding="utf-8" ?>
<svg baseProfile="full" height="100%" style="font-size:14;font-family:Sans, Arial;stroke-width:1;fill:none" version="1.1" width="100%" xmlns="http://www.w3.org/2000/svg" xmlns:ev="http://www.w3.org/2001/xml-events" xmlns:xlink="http://www.w3.org/1999/xlink"><defs /><rect fill="none" height="130.0" stroke="none" width="1140.0" x="0" y="0" /><line stroke="rgb(0,0,0)" x1="5.0" x2="65.0" y1="55.0" y2="55.0" /><line stroke="rgb(0,0,0)" x1="65.0" x2="85.0" y1="55.0" y2="55.0" /><line stroke="rgb(0,0,0)" x1="85.0" x2="90.0" y1="55.0" y2="55.0" /><line stroke="rgb(0,0,0)" x1="90.0" x2="210.0" y1="55.0" y2="55.0" /><line stroke="rgb(0,0,0)" x1="210.0" x2="230.0" y1="55.0" y2="55.0" /><line stroke="rgb(0,0,0)" x1="230.0" x2="235.0" y1="55.0" y2="55.0" /><line stroke="rgb(0,0,0)" x1="235.0" x2="285.0" y1="55.0" y2="55.0" /><line stroke="rgb(0,0,0)" x1="285.0" x2="305.0" y1="55.0" y2="55.0" /><line stroke="rgb(0,0,0)" x1="305.0" x2="310.0" y1="55.0" y2="55.0" /><line stroke="rgb(0,0,0)" x1="310.0" x2="370.0" y1="55.0" y2="55.0" /><line stroke="rgb(0,0,0)" x1="370.0" x2="390.0" y1="55.0" y2="55.0" /><line stroke="rgb(0,0,0)" x1="390.0" x2="395.0" y1="55.0" y2="55.0" /><line stroke="rgb(0,0,0)" x1="395.0" x2="490.0" y1="55.0" y2="55.0" /><line stroke="rgb(0,0,0)" x1="490.0" x2="510.0" y1="55.0" y2="55.0" /><line stroke="rgb(0,0,0)" x1="510.0" x2="515.0" y1="55.0" y2="55.0" /><line stroke="rgb(0,0,0)" x1="515.0" x2="555.0" y1="55.0" y2="55.0" /><line stroke="rgb(0,0,0)" x1="555.0" x2="575.0" y1="55.0" y2="55.0" /><line stroke="rgb(0,0,0)" x1="575.0" x2="580.0" y1="55.0" y2="55.0" /><line stroke="rgb(0,0,0)" x1="580.0" x2="675.0" y1="55.0" y2="55.0" /><line stroke="rgb(0,0,0)" x1="675.0" x2="695.0" y1="55.0" y2="55.0" /><line stroke="rgb(0,0,0)" x1="695.0" x2="700.0" y1="55.0" y2="55.0" /><line stroke="rgb(0,0,0)" x1="700.0" x2="735.0" y1="55.0" y2="55.0" /><line stroke="rgb(0,0,0)" x1="735.0" x2="755.0" y1="55.0" y2="55.0" /><line stroke="rgb(0,0,0)" x1="755.0" x2="760.0" y1="55.0" y2="55.0" /><line stroke="rgb(0,0,0)" x1="760.0" x2="800.0" y1="55.0" y2="55.0" /><line stroke="rgb(0,0,0)" x1="800.0" x2="820.0" y1="55.0" y2="55.0" /><line stroke="rgb(0,0,0)" x1="820.0" x2="825.0" y1="55.0" y2="55.0" /><line stroke="rgb(0,0,0)" x1="825.0" x2="895.0" y1="55.0" y2="55.0" /><line stroke="rgb(0,0,0)" x1="895.0" x2="915.0" y1="55.0" y2="55.0" /><line stroke="rgb(0,0,0)" x1="915.0" x2="920.0" y1="55.0" y2="55.0" /><line stroke="rgb(0,0,0)" x1="920.0" x2="955.0" y1="55.0" y2="55.0" /><line stroke="rgb(0,0,0)" x1="955.0" x2="975.0" y1="55.0" y2="55.0" /><line stroke="rgb(0,0,0)" x1="975.0" x2="980.0" y1="55.0" y2="55.0" /><polygon fill="rgb(255,150,150)" points="60.0,55.0 60.0,54.8 57.5,54.8 57.5,54.6 55.0,54.6 55.0,54.4 52.5,54.4 52.5,52.4 50.0,52.4 50.0,41.0 47.5,41.0 47.5,29.6 45.0,29.6 45.0,11.600000000000001 42.5,11.600000000000001 42.5,5.600000000000001 40.0,5.600000000000001 40.0,5.200000000000003 32.5,5.200000000000003 32.5,5.200000000000003 25.0,5.200000000000003 25.0,5.600000000000001 22.5,5.600000000000001 22.5,11.600000000000001 20.0,11.600000000000001 20.0,29.6 17.5,29.6 17.5,41.0 15.0,41.0 15.0,52.4 12.5,52.4 12.5,54.4 10.0,54.4 10.0,54.6 7.5,54.6 7.5,54.8 5.0,54.8 5.0,55.0 5.0,55.0 5.0,55.2 7.5,55.2 7.5,55.4 10.0,55.4 10.0,55.6 12.5,55.6 12.5,57.6 15.0,57.6 15.0,69.0 17.5,69.0 17.5,80.4 20.0,80.4 20.0,98.4 22.5,98.4 22.5,104.4 25.0,104.4 25.0,104.8 32.5,104.8 32.5,104.8 40.0,104.8 40.0,104.4 42.5,104.4 42.5,98.4 45.0,98.4 45.0,80.4 47.5,80.4 47.5,69.0 50.0,69.0 50.0,57.6 52.5,57.6 52.5,55.6 55.0,55.6 55.0,55.4 57.5,55.4 57.5,55.2 60.0,55.2 60.0,55.0" stroke="rgb(0,0,0)" /><text fill="black" x="5.0" y="124.8">E11</text><polygon fill="rgb(150,150,150)" points="205.0,55.0 205.0,54.2 200.0,54.2 200.0,53.4 197.5,53.4 197.5,52.199999999999996 195.0,52.199999999999996 195.0,50.0 192.5,50.0 192.5,45.0 190.0,45.0 190.0,34.4 187.5,34.4 187.5,32.800000000000004 185.0,32.800000000000004 185.0,31.0 182.5,31.0 182.5,12.399999999999999 180.0,12.399999999999999 180.0,7.200000000000003 177.5,7.200000000000003 177.5,7.0 175.0,7.0 175.0,6.399999999999999 172.5,6.399999999999999 172.5,6.0 170.0,6.0 170.0,5.799999999999997 165.0,5.799999999999997 165.0,5.600000000000001 160.0,5.600000000000001 160.0,5.200000000000003 147.5,5.200000000000003 147.5,5.200000000000003 135.0,5.200000000000003 135.0,5.600000000000001 130.0,5.600000000000001 130.0,5.799999999999997 125.0,5.799999999999997 125.0,6.0 122.5,6.0 122.5,6.399999999999999 120.0,6.399999999999999 120.0,7.0 117.5,7.0 117.5,7.200000000000003 115.0,7.200000000000003 115.0,12.399999999999999 112.5,12.399999999999999 112.5,31.0 110.0,31.0 110.0,32.800000000000004 107.5,32.800000000000004 107.5,34.4 105.0,34.4 105.0,45.0 102.5,45.0 102.5,50.0 100.0,50.0 100.0,52.199999999999996 97.5,52.199999999999996 97.5,53.4 95.0,53.4 95.0,54.2 90.0,54.2 90.0,55.0 90.0,55.0 90.0,55.8 95.0,55.8 95.0,56.6 97.5,56.6 97.5,57.800000000000004 100.0,57.800000000000004 100.0,60.0 102.5,60.0 102.5,65.0 105.0,65.0 105.0,75.6 107.5,75.6 107.5,77.19999999999999 110.0,77.19999999999999 110.0,79.0 112.5,79.0 112.5,97.6 115.0,97.6 115.0,102.8 117.5,102.8 117.5,103.0 120.0,103.0 120.0,103.6 122.5,103.6 122.5,104.0 125.0,104.0 125.0,104.2 130.0,104.2 130.0,104.4 135.0,104.4 135.0,104.8 147.5,104.8 147.5,104.8 160.0,104.8 160.0,104.4 165.0,104.4 165.0,104.2 170.0,104.2 170.0,104.0 172.5,104.0 172.5,103.6 175.0,103.6 175.0,103.0 177.5,103.0 177.5,102.8 180.0,102.8 180.0,97.6 182.5,97.6 182.5,79.0 185.0,79.0 185.0,77.19999999999999 187.5,77.19999999999999 187.5,75.6 190.0,75.6 190.0,65.0 192.5,65.0 192.5,60.0 195.0,60.0 195.0,57.800000000000004 197.5,57.800000000000004 197.5,56.6 200.0,56.6 200.0,55.8 205.0,55.8 205.0,55.0" stroke="rgb(0,0,0)" /><text fill="black" x="90.0" y="124.8">H15</text><polygon fill="rgb(255,150,150)" points="280.0,55.0 280.0,54.4 272.5,54.4 272.5,54.2 267.5,54.2 267.5,53.6 265.0,53.6 265.0,50.0 262.5,50.0 262.5,46.8 260.0,46.8 260.0,42.6 257.5,42.6 257.5,42.6 255.0,42.6 255.0,46.8 252.5,46.8 252.5,50.0 250.0,50.0 250.0,53.6 247.5,53.6 247.5,54.2 242.5,54.2 242.5,54.4 235.0,54.4 235.0,55.0 235.0,55.0 235.0,55.6 242.5,55.6 242.5,55.8 247.5,55.8 247.5,56.4 250.0,56.4 250.0,60.0 252.5,60.0 252.5,63.2 255.0,63.2 255.0,67.4 257.5,67.4 257.5,67.4 260.0,67.4 260.0,63.2 262.5,63.2 262.5,60.0 265.0,60.0 265.0,56.4 267.5,56.4 267.5,55.8 272.5,55.8 272.5,55.6 280.0,55.6 280.0,55.0" stroke="rgb(0,0,0)" /><text fill="black" x="235.0" y="87.4">E20</text><polygon fill="rgb(255,150,150)" points="365.0,55.0 365.0,54.8 360.0,54.8 360.0,54.6 357.5,54.6 357.5,51.800000000000004 355.0,51.800000000000004 355.0,46.199999999999996 352.5,46.199999999999996 352.5,38.8 350.0,38.8 350.0,23.4 347.5,23.4 347.5,13.599999999999994 345.0,13.599999999999994 345.0,9.600000000000001 342.5,9.600000000000001 342.5,8.0 340.0,8.0 340.0,6.600000000000001 337.5,6.600000000000001 337.5,6.600000000000001 335.0,6.600000000000001 335.0,8.0 332.5,8.0 332.5,9.600000000000001 330.0,9.600000000000001 330.0,13.599999999999994 327.5,13.599999999999994 327.5,23.4 325.0,23.4 325.0,38.8 322.5,38.8 322.5,46.199999999999996 320.0,46.199999999999996 320.0,51.800000000000004 317.5,51.800000000000004 317.5,54.6 315.0,54.6 315.0,54.8 310.0,54.8 310.0,55.0 310.0,55.0 310.0,55.2 315.0,55.2 315.0,55.4 317.5,55.4 317.5,58.199999999999996 320.0,58.199999999999996 320.0,63.800000000000004 322.5,63.800000000000004 322.5,71.2 325.0,71.2 325.0,86.6 327.5,86.6 327.5,96.4 330.0,96.4 330.0,100.4 332.5,100.4 332.5,102.0 335.0,102.0 335.0,103.4 337.5,103.4 337.5,103.4 340.0,103.4 340.0,102.0 342.5,102.0 342.5,100.4 345.0,100.4 345.0,96.4 347.5,96.4 347.5,86.6 350.0,86.6 350.0,71.2 352.5,71.2 352.5,63.800000000000004 355.0,63.800000000000004 355.0,58.199999999999996 357.5,58.199999999999996 357.5,55.4 360.0,55.4 360.0,55.2 365.0,55.2 365.0,55.0" stroke="rgb(0,0,0)" /><text fill="black" x="310.0" y="123.4">E21</text><polygon fill="rgb(150,150,150)" points="485.0,55.0 485.0,54.6 480.0,54.6 480.0,54.0 477.5,54.0 477.5,46.0 475.0,46.0 475.0,35.8 472.5,35.8 472.5,33.8 470.0,33.8 470.0,33.4 467.5,33.4 467.5,24.400000000000002 465.0,24.400000000000002 465.0,14.599999999999994 462.5,14.599999999999994 462.5,14.0 460.0,14.0 460.0,12.600000000000001 457.5,12.600000000000001 457.5,11.200000000000003 455.0,11.200000000000003 455.0,10.399999999999999 450.0,10.399999999999999 450.0,10.199999999999996 447.5,10.199999999999996 447.5,10.0 440.0,10.0 440.0,10.0 432.5,10.0 432.5,10.199999999999996 430.0,10.199999999999996 430.0,10.399999999999999 425.0,10.399999999999999 425.0,11.200000000000003 422.5,11.200000000000003 422.5,12.600000000000001 420.0,12.600000000000001 420.0,14.0 417.5,14.0 417.5,14.599999999999994 415.0,14.599999999999994 415.0,24.400000000000002 412.5,24.400000000000002 412.5,33.4 410.0,33.4 410.0,33.8 407.5,33.8 407.5,35.8 405.0,35.8 405.0,46.0 402.5,46.0 402.5,54.0 400.0,54.0 400.0,54.6 395.0,54.6 395.0,55.0 395.0,55.0 395.0,55.4 400.0,55.4 400.0,56.0 402.5,56.0 402.5,64.0 405.0,64.0 405.0,74.2 407.5,74.2 407.5,76.2 410.0,76.2 410.0,76.6 412.5,76.6 412.5,85.6 415.0,85.6 415.0,95.4 417.5,95.4 417.5,96.0 420.0,96.0 420.0,97.4 422.5,97.4 422.5,98.8 425.0,98.8 425.0,99.6 430.0,99.6 430.0,99.80000000000001 432.5,99.80000000000001 432.5,100.0 440.0,100.0 440.0,100.0 447.5,100.0 447.5,99.80000000000001 450.0,99.80000000000001 450.0,99.6 455.0,99.6 455.0,98.8 457.5,98.8 457.5,97.4 460.0,97.4 460.0,96.0 462.5,96.0 462.5,95.4 465.0,95.4 465.0,85.6 467.5,85.6 467.5,76.6 470.0,76.6 470.0,76.2 472.5,76.2 472.5,74.2 475.0,74.2 475.0,64.0 477.5,64.0 477.5,56.0 480.0,56.0 480.0,55.4 485.0,55.4 485.0,55.0" stroke="rgb(0,0,0)" /><text fill="black" x="395.0" y="120.0">H32</text><polygon fill="rgb(255,150,150)" points="550.0,55.0 550.0,54.4 547.5,54.4 547.5,48.8 545.0,48.8 545.0,33.4 542.5,33.4 542.5,9.399999999999999 540.0,9.399999999999999 540.0,6.399999999999999 537.5,6.399999999999999 537.5,5.600000000000001 535.0,5.600000000000001 535.0,5.399999999999999 532.5,5.399999999999999 532.5,5.399999999999999 530.0,5.399999999999999 530.0,5.600000000000001 527.5,5.600000000000001 527.5,6.399999999999999 525.0,6.399999999999999 525.0,9.399999999999999 522.5,9.399999999999999 522.5,33.4 520.0,33.4 520.0,48.8 517.5,48.8 517.5,54.4 515.0,54.4 515.0,55.0 515.0,55.0 515.0,55.6 517.5,55.6 517.5,61.2 520.0,61.2 520.0,76.6 522.5,76.6 522.5,100.6 525.0,100.6 525.0,103.6 527.5,103.6 527.5,104.4 530.0,104.4 530.0,104.6 532.5,104.6 532.5,104.6 535.0,104.6 535.0,104.4 537.5,104.4 537.5,103.6 540.0,103.6 540.0,100.6 542.5,100.6 542.5,76.6 545.0,76.6 545.0,61.2 547.5,61.2 547.5,55.6 550.0,55.6 550.0,55.0" stroke="rgb(0,0,0)" /><text fill="black" x="515.0" y="124.6">E38</text><polygon fill="rgb(150,150,150)" points="670.0,55.0 670.0,54.8 662.5,54.8 662.5,53.8 660.0,53.8 660.0,34.4 657.5,34.4 657.5,32.2 655.0,32.2 655.0,27.199999999999996 652.5,27.199999999999996 652.5,19.4 650.0,19.4 650.0,13.0 647.5,13.0 647.5,12.600000000000001 645.0,12.600000000000001 645.0,11.600000000000001 642.5,11.600000000000001 642.5,11.399999999999999 640.0,11.399999999999999 640.0,11.200000000000003 635.0,11.200000000000003 635.0,11.0 632.5,11.0 632.5,10.799999999999997 625.0,10.799999999999997 625.0,10.799999999999997 617.5,10.799999999999997 617.5,11.0 615.0,11.0 615.0,11.200000000000003 610.0,11.200000000000003 610.0,11.399999999999999 607.5,11.399999999999999 607.5,11.600000000000001 605.0,11.600000000000001 605.0,12.600000000000001 602.5,12.600000000000001 602.5,13.0 600.0,13.0 600.0,19.4 597.5,19.4 597.5,27.199999999999996 595.0,27.199999999999996 595.0,32.2 592.5,32.2 592.5,34.4 590.0,34.4 590.0,53.8 587.5,53.8 587.5,54.8 580.0,54.8 580.0,55.0 580.0,55.0 580.0,55.2 587.5,55.2 587.5,56.2 590.0,56.2 590.0,75.6 592.5,75.6 592.5,77.8 595.0,77.8 595.0,82.80000000000001 597.5,82.80000000000001 597.5,90.6 600.0,90.6 600.0,97.0 602.5,97.0 602.5,97.4 605.0,97.4 605.0,98.4 607.5,98.4 607.5,98.6 610.0,98.6 610.0,98.8 615.0,98.8 615.0,99.0 617.5,99.0 617.5,99.2 625.0,99.2 625.0,99.2 632.5,99.2 632.5,99.0 635.0,99.0 635.0,98.8 640.0,98.8 640.0,98.6 642.5,98.6 642.5,98.4 645.0,98.4 645.0,97.4 647.5,97.4 647.5,97.0 650.0,97.0 650.0,90.6 652.5,90.6 652.5,82.80000000000001 655.0,82.80000000000001 655.0,77.8 657.5,77.8 657.5,75.6 660.0,75.6 660.0,56.2 662.5,56.2 662.5,55.2 670.0,55.2 670.0,55.0" stroke="rgb(0,0,0)" /><text fill="black" x="580.0" y="119.2">H43</text><polygon fill="rgb(150,150,150)" points="730.0,55.0 730.0,54.8 727.5,54.8 727.5,51.0 725.0,51.0 725.0,48.8 722.5,48.8 722.5,43.8 715.0,43.8 715.0,43.8 707.5,43.8 707.5,48.8 705.0,48.8 705.0,51.0 702.5,51.0 702.5,54.8 700.0,54.8 700.0,55.0 700.0,55.0 700.0,55.2 702.5,55.2 702.5,59.0 705.0,59.0 705.0,61.2 707.5,61.2 707.5,66.2 715.0,66.2 715.0,66.2 722.5,66.2 722.5,61.2 725.0,61.2 725.0,59.0 727.5,59.0 727.5,55.2 730.0,55.2 730.0,55.0" stroke="rgb(0,0,0)" /><text fill="black" x="700.0" y="86.2">H47</text><polygon fill="rgb(255,150,150)" points="795.0,55.0 795.0,53.8 792.5,53.8 792.5,45.0 790.0,45.0 790.0,24.6 787.5,24.6 787.5,15.199999999999996 785.0,15.199999999999996 785.0,7.0 782.5,7.0 782.5,5.399999999999999 780.0,5.399999999999999 780.0,5.200000000000003 777.5,5.200000000000003 777.5,5.200000000000003 775.0,5.200000000000003 775.0,5.399999999999999 772.5,5.399999999999999 772.5,7.0 770.0,7.0 770.0,15.199999999999996 767.5,15.199999999999996 767.5,24.6 765.0,24.6 765.0,45.0 762.5,45.0 762.5,53.8 760.0,53.8 760.0,55.0 760.0,55.0 760.0,56.2 762.5,56.2 762.5,65.0 765.0,65.0 765.0,85.4 767.5,85.4 767.5,94.80000000000001 770.0,94.80000000000001 770.0,103.0 772.5,103.0 772.5,104.6 775.0,104.6 775.0,104.8 777.5,104.8 777.5,104.8 780.0,104.8 780.0,104.6 782.5,104.6 782.5,103.0 785.0,103.0 785.0,94.80000000000001 787.5,94.80000000000001 787.5,85.4 790.0,85.4 790.0,65.0 792.5,65.0 792.5,56.2 795.0,56.2 795.0,55.0" stroke="rgb(0,0,0)" /><text fill="black" x="760.0" y="124.8">E49</text><polygon fill="rgb(150,150,150)" points="890.0,55.0 890.0,54.8 885.0,54.8 885.0,54.6 882.5,54.6 882.5,40.199999999999996 880.0,40.199999999999996 880.0,37.400000000000006 877.5,37.400000000000006 877.5,36.4 875.0,36.4 875.0,34.2 872.5,34.2 872.5,33.199999999999996 870.0,33.199999999999996 870.0,30.6 867.5,30.6 867.5,28.599999999999998 865.0,28.599999999999998 865.0,27.799999999999997 857.5,27.799999999999997 857.5,27.799999999999997 850.0,27.799999999999997 850.0,28.599999999999998 847.5,28.599999999999998 847.5,30.6 845.0,30.6 845.0,33.199999999999996 842.5,33.199999999999996 842.5,34.2 840.0,34.2 840.0,36.4 837.5,36.4 837.5,37.400000000000006 835.0,37.400000000000006 835.0,40.199999999999996 832.5,40.199999999999996 832.5,54.6 830.0,54.6 830.0,54.8 825.0,54.8 825.0,55.0 825.0,55.0 825.0,55.2 830.0,55.2 830.0,55.4 832.5,55.4 832.5,69.8 835.0,69.8 835.0,72.6 837.5,72.6 837.5,73.6 840.0,73.6 840.0,75.8 842.5,75.8 842.5,76.80000000000001 845.0,76.80000000000001 845.0,79.4 847.5,79.4 847.5,81.4 850.0,81.4 850.0,82.2 857.5,82.2 857.5,82.2 865.0,82.2 865.0,81.4 867.5,81.4 867.5,79.4 870.0,79.4 870.0,76.80000000000001 872.5,76.80000000000001 872.5,75.8 875.0,75.8 875.0,73.6 877.5,73.6 877.5,72.6 880.0,72.6 880.0,69.8 882.5,69.8 882.5,55.4 885.0,55.4 885.0,55.2 890.0,55.2 890.0,55.0" stroke="rgb(0,0,0)" /><text fill="black" x="825.0" y="102.2">H54</text><polygon fill="rgb(255,150,150)" points="950.0,55.0 950.0,54.0 947.5,54.0 947.5,50.4 945.0,50.4 945.0,30.6 942.5,30.6 942.5,22.6 940.0,22.6 940.0,21.6 937.5,21.6 937.5,20.0 935.0,20.0 935.0,20.0 932.5,20.0 932.5,21.6 930.0,21.6 930.0,22.6 927.5,22.6 927.5,30.6 925.0,30.6 925.0,50.4 922.5,50.4 922.5,54.0 920.0,54.0 920.0,55.0 920.0,55.0 920.0,56.0 922.5,56.0 922.5,59.6 925.0,59.6 925.0,79.4 927.5,79.4 927.5,87.4 930.0,87.4 930.0,88.4 932.5,88.4 932.5,90.0 935.0,90.0 935.0,90.0 937.5,90.0 937.5,88.4 940.0,88.4 940.0,87.4 942.5,87.4 942.5,79.4 945.0,79.4 945.0,59.6 947.5,59.6 947.5,56.0 950.0,56.0 950.0,55.0" stroke="rgb(0,0,0)" /><text fill="black" x="920.0" y="110.0">E58</text><polygon fill="rgb(150,150,150)" points="1135.0,55.0 1135.0,54.4 1122.5,54.4 1122.5,53.8 1120.0,53.8 1120.0,53.199999999999996 1117.5,53.199999999999996 1117.5,52.599999999999994 1115.0,52.599999999999994 1115.0,50.6 1112.5,50.6 1112.5,48.8 1110.0,48.8 1110.0,48.0 1107.5,48.0 1107.5,45.400000000000006 1105.0,45.400000000000006 1105.0,44.0 1102.5,44.0 1102.5,42.4 1100.0,42.4 1100.0,38.2 1097.5,38.2 1097.5,35.4 1095.0,35.4 1095.0,25.399999999999995 1092.5,25.399999999999995 1092.5,23.0 1090.0,23.0 1090.0,18.4 1087.5,18.4 1087.5,16.199999999999996 1085.0,16.199999999999996 1085.0,15.0 1082.5,15.0 1082.5,14.799999999999997 1077.5,14.799999999999997 1077.5,14.599999999999994 1057.5,14.599999999999994 1057.5,14.599999999999994 1037.5,14.599999999999994 1037.5,14.799999999999997 1032.5,14.799999999999997 1032.5,15.0 1030.0,15.0 1030.0,16.199999999999996 1027.5,16.199999999999996 1027.5,18.4 1025.0,18.4 1025.0,23.0 1022.5,23.0 1022.5,25.399999999999995 1020.0,25.399999999999995 1020.0,35.4 1017.5,35.4 1017.5,38.2 1015.0,38.2 1015.0,42.4 1012.5,42.4 1012.5,44.0 1010.0,44.0 1010.0,45.400000000000006 1007.5,45.400000000000006 1007.5,48.0 1005.0,48.0 1005.0,48.8 1002.5,48.8 1002.5,50.6 1000.0,50.6 1000.0,52.599999999999994 997.5,52.599999999999994 997.5,53.199999999999996 995.0,53.199999999999996 995.0,53.8 992.5,53.8 992.5,54.4 980.0,54.4 980.0,55.0 980.0,55.0 980.0,55.6 992.5,55.6 992.5,56.2 995.0,56.2 995.0,56.800000000000004 997.5,56.800000000000004 997.5,57.400000000000006 1000.0,57.400000000000006 1000.0,59.4 1002.5,59.4 1002.5,61.2 1005.0,61.2 1005.0,62.0 1007.5,62.0 1007.5,64.6 1010.0,64.6 1010.0,66.0 1012.5,66.0 1012.5,67.6 1015.0,67.6 1015.0,71.8 1017.5,71.8 1017.5,74.6 1020.0,74.6 1020.0,84.60000000000001 1022.5,84.60000000000001 1022.5,87.0 1025.0,87.0 1025.0,91.6 1027.5,91.6 1027.5,93.80000000000001 1030.0,93.80000000000001 1030.0,95.0 1032.5,95.0 1032.5,95.2 1037.5,95.2 1037.5,95.4 1057.5,95.4 1057.5,95.4 1077.5,95.4 1077.5,95.2 1082.5,95.2 1082.5,95.0 1085.0,95.0 1085.0,93.80000000000001 1087.5,93.80000000000001 1087.5,91.6 1090.0,91.6 1090.0,87.0 1092.5,87.0 1092.5,84.60000000000001 1095.0,84.60000000000001 1095.0,74.6 1097.5,74.6 1097.5,71.8 1100.0,71.8 1100.0,67.6 1102.5,67.6 1102.5,66.0 1105.0,66.0 1105.0,64.6 1107.5,64.6 1107.5,62.0 1110.0,62.0 1110.0,61.2 1112.5,61.2 1112.5,59.4 1115.0,59.4 1115.0,57.400000000000006 1117.5,57.400000000000006 1117.5,56.800000000000004 1120.0,56.800000000000004 1120.0,56.2 1122.5,56.2 1122.5,55.6 1135.0,55.6 1135.0,55.0" stroke="rgb(0,0,0)" /><text fill="black" x="980.0" y="115.4">H79</text><path d="M 32.5,55.0 a 142.5568181818182,142.5568181818182 0 0,0 225.0,-0.0" stroke="rgb(255,150,150)" stroke-width="2" /><path d="M 32.5,55.0 a 142.5568181818182,142.5568181818182 0 0,0 225.0,-0.0" stroke="rgb(0,0,0)" stroke-width="0.2" /><path d="M 32.5,55.0 a 238.92045454545453,238.92045454545453 0 0,0 305.0,-0.0" stroke="rgb(255,150,150)" stroke-width="2" /><path d="M 32.5,55.0 a 238.92045454545453,238.92045454545453 0 0,0 305.0,-0.0" stroke="rgb(0,0,0)" stroke-width="0.2" /><path d="M 32.5,55.0 a 595.6818181818181,595.6818181818181 0 0,0 500.0,-0.0" stroke="rgb(255,150,150)" stroke-width="2" /><path d="M 32.5,55.0 a 595.6818181818181,595.6818181818181 0 0,0 500.0,-0.0" stroke="rgb(0,0,0)" stroke-width="0.2" /><path d="M 532.5,55.0 a 163.92045454545453,163.92045454545453 0 0,0 245.0,-0.0" stroke="rgb(255,150,150)" stroke-width="2" /><path d="M 532.5,55.0 a 163.92045454545453,163.92045454545453 0 0,0 245.0,-0.0" stroke="rgb(0,0,0)" stroke-width="0.2" /><path d="M 777.5,55.0 a 83.8778409090909,83.8778409090909 0 0,0 157.5,-0.0" stroke="rgb(255,150,150)" stroke-width="2" /><path d="M 777.5,55.0 a 83.8778409090909,83.8778409090909 0 0,0 157.5,-0.0" stroke="rgb(0,0,0)" stroke-width="0.2" /></svg>