<?xml version="1.0" encoding="utf-8" ?>
<svg baseProfile="full" height="100%" style="font-size:14;font-family:Sans, Arial;stroke-width:1;fill:none" version="1.1" width="100%" xmlns="http://www.w3.org/2000/svg" xmlns:ev="http://www.w3.org/2001/xml-events" xmlns:xlink="http://www.w3.org/1999/xlink"><defs /><rect fill="none" height="130.0" stroke="none" width="813.8836500000002" x="0" y="0" /><line stroke="rgb(0,0,0)" x1="5.0" x2="38.6546" y1="55.0" y2="55.0" /><line stroke="rgb(0,0,0)" x1="38.6546" x2="58.6546" y1="55.0" y2="55.0" /><line stroke="rgb(0,0,0)" x1="58.6546" x2="63.6546" y1="55.0" y2="55.0" /><line stroke="rgb(0,0,0)" x1="63.6546" x2="145.9636" y1="55.0" y2="55.0" /><line stroke="rgb(0,0,0)" x1="145.9636" x2="165.9636" y1="55.0" y2="55.0" /><line stroke="rgb(0,0,0)" x1="165.9636" x2="170.9636" y1="55.0" y2="55.0" /><line stroke="rgb(0,0,0)" x1="170.9636" x2="188.22165" y1="55.0" y2="55.0" /><line stroke="rgb(0,0,0)" x1="188.22165" x2="208.22165" y1="55.0" y2="55.0" /><line stroke="rgb(0,0,0)" x1="208.22165" x2="213.22165" y1="55.0" y2="55.0" /><line stroke="rgb(0,0,0)" x1="213.22165" x2="243.30430000000004" y1="55.0" y2="55.0" /><line stroke="rgb(0,0,0)" x1="243.30430000000004" x2="263.3043" y1="55.0" y2="55.0" /><line stroke="rgb(0,0,0)" x1="263.3043" x2="268.3043" y1="55.0" y2="55.0" /><line stroke="rgb(0,0,0)" x1="268.3043" x2="333.30430000000007" y1="55.0" y2="55.0" /><line stroke="rgb(0,0,0)" x1="333.30430000000007" x2="353.30430000000007" y1="55.0" y2="55.0" /><line stroke="rgb(0,0,0)" x1="353.30430000000007" x2="358.30430000000007" y1="55.0" y2="55.0" /><line stroke="rgb(0,0,0)" x1="358.30430000000007" x2="385.6430000000001" y1="55.0" y2="55.0" /><line stroke="rgb(0,0,0)" x1="385.6430000000001" x2="405.6430000000001" y1="55.0" y2="55.0" /><line stroke="rgb(0,0,0)" x1="405.6430000000001" x2="410.6430000000001" y1="55.0" y2="55.0" /><line stroke="rgb(0,0,0)" x1="410.6430000000001" x2="477.2040000000001" y1="55.0" y2="55.0" /><line stroke="rgb(0,0,0)" x1="477.2040000000001" x2="497.2040000000001" y1="55.0" y2="55.0" /><line stroke="rgb(0,0,0)" x1="497.2040000000001" x2="502.2040000000001" y1="55.0" y2="55.0" /><line stroke="rgb(0,0,0)" x1="502.2040000000001" x2="526.8468500000001" y1="55.0" y2="55.0" /><line stroke="rgb(0,0,0)" x1="526.8468500000001" x2="546.8468500000001" y1="55.0" y2="55.0" /><line stroke="rgb(0,0,0)" x1="546.8468500000001" x2="551.8468500000001" y1="55.0" y2="55.0" /><line stroke="rgb(0,0,0)" x1="551.8468500000001" x2="579.8187500000001" y1="55.0" y2="55.0" /><line stroke="rgb(0,0,0)" x1="579.8187500000001" x2="599.8187500000001" y1="55.0" y2="55.0" /><line stroke="rgb(0,0,0)" x1="599.8187500000001" x2="604.8187500000001" y1="55.0" y2="55.0" /><line stroke="rgb(0,0,0)" x1="604.8187500000001" x2="651.5099500000001" y1="55.0" y2="55.0" /><line stroke="rgb(0,0,0)" x1="651.5099500000001" x2="671.5099500000001" y1="55.0" y2="55.0" /><line stroke="rgb(0,0,0)" x1="671.5099500000001" x2="676.5099500000001" y1="55.0" y2="55.0" /><line stroke="rgb(0,0,0)" x1="676.5099500000001" x2="700.1956500000001" y1="55.0" y2="55.0" /><line stroke="rgb(0,0,0)" x1="700.1956500000001" x2="720.1956500000001" y1="55.0" y2="55.0" /><line stroke="rgb(0,0,0)" x1="720.1956500000001" x2="725.1956500000001" y1="55.0" y2="55.0" /><rect fill="rgb(255,150,150)" height="99.6" stroke="rgb(0,0,0)" width="28.654600000000002" x="5.0" y="5.200000000000003" /><text fill="black" x="5.0" y="124.8">E11</text><rect fill="rgb(150,150,150)" height="99.6" stroke="rgb(0,0,0)" width="77.309" x="63.6546" y="5.200000000000003" /><text fill="black" x="63.6546" y="124.8">H15</text><rect fill="rgb(255,150,150)" height="24.8" stroke="rgb(0,0,0)" width="12.25805" x="170.9636" y="42.6" /><text fill="black" x="170.9636" y="87.4">E20</text><rect fill="rgb(255,150,150)" height="96.8" stroke="rgb(0,0,0)" width="25.08265" x="213.22165" y="6.600000000000001" /><text fill="black" x="213.22165" y="123.4">E21</text><rect fill="rgb(150,150,150)" height="90.0" stroke="rgb(0,0,0)" width="60.0" x="268.3043" y="10.0" /><text fill="black" x="268.3043" y="120.0">H32</text><rect fill="rgb(255,150,150)" height="99.2" stroke="rgb(0,0,0)" width="22.3387" x="358.30430000000007" y="5.399999999999999" /><text fill="black" x="358.30430000000007" y="124.6">E38</text><rect fill="rgb(150,150,150)" height="88.4" stroke="rgb(0,0,0)" width="61.56100000000001" x="410.6430000000001" y="10.799999999999997" /><text fill="black" x="410.6430000000001" y="119.2">H43</text><rect fill="rgb(150,150,150)" height="22.400000000000002" stroke="rgb(0,0,0)" width="19.64285" x="502.2040000000001" y="43.8" /><text fill="black" x="502.2040000000001" y="86.2">H47</text><rect fill="rgb(255,150,150)" height="99.6" stroke="rgb(0,0,0)" width="22.9719" x="551.8468500000001" y="5.200000000000003" /><text fill="black" x="551.8468500000001" y="124.8">E49</text><rect fill="rgb(150,150,150)" height="54.400000000000006" stroke="rgb(0,0,0)" width="41.6912" x="604.8187500000001" y="27.799999999999997" /><text fill="black" x="604.8187500000001" y="102.2">H54</text><rect fill="rgb(255,150,150)" height="70.0" stroke="rgb(0,0,0)" width="18.6857" x="676.5099500000001" y="20.0" /><text fill="black" x="676.5099500000001" y="110.0">E58</text><rect fill="rgb(150,150,150)" height="80.80000000000001" stroke="rgb(0,0,0)" width="83.688" x="725.1956500000001" y="14.599999999999994" /><text fill="black" x="725.1956500000001" y="115.4">H79</text><path d="M 19.3273,55.0 a 84.06794948262643,84.06794948262643 0 0,0 157.76532500000002,-0.0" stroke="rgb(255,150,150)" stroke-width="2" /><path d="M 19.3273,55.0 a 84.06794948262643,84.06794948262643 0 0,0 157.76532500000002,-0.0" stroke="rgb(0,0,0)" stroke-width="0.2" /><path d="M 19.3273,55.0 a 124.35383616524005,124.35383616524005 0 0,0 206.435675,-0.0" stroke="rgb(255,150,150)" stroke-width="2" /><path d="M 19.3273,55.0 a 124.35383616524005,124.35383616524005 0 0,0 206.435675,-0.0" stroke="rgb(0,0,0)" stroke-width="0.2" /><path d="M 19.3273,55.0 a 306.1419691325513,306.1419691325513 0 0,0 350.1463500000001,-0.0" stroke="rgb(255,150,150)" stroke-width="2" /><path d="M 19.3273,55.0 a 306.1419691325513,306.1419691325513 0 0,0 350.1463500000001,-0.0" stroke="rgb(0,0,0)" stroke-width="0.2" /><path d="M 369.4736500000001,55.0 a 112.91220463346029,112.91220463346029 0 0,0 193.85915000000006,-0.0" stroke="rgb(255,150,150)" stroke-width="2" /><path d="M 369.4736500000001,55.0 a 112.91220463346029,112.91220463346029 0 0,0 193.85915000000006,-0.0" stroke="rgb(0,0,0)" stroke-width="0.2" /><path d="M 563.3328000000001,55.0 a 61.6162509090909,61.6162509090909 0 0,0 122.51999999999998,-0.0" stroke="rgb(255,150,150)" stroke-width="2" /><path d="M 563.3328000000001,55.0 a 61.6162509090909,61.6162509090909 0 0,0 122.51999999999998,-0.0" stroke="rgb(0,0,0)" stroke-width="0.2" /></svg>