<?xml version="1.0" encoding="utf-8" ?>
<svg baseProfile="full" height="100%" style="font-size:14;font-family:Sans, Arial;stroke-width:1;fill:none" version="1.1" width="100%" xmlns="http://www.w3.org/2000/svg" xmlns:ev="http://www.w3.org/2001/xml-events" xmlns:xlink="http://www.w3.org/1999/xlink"><defs /><rect fill="none" height="150.0" stroke="none" width="1030.70245" x="0" y="0" /><line stroke="rgb(0,0,0)" x1="5.0" x2="16.410249999999998" y1="75.0" y2="75.0" /><line stroke="rgb(0,0,0)" x1="16.410249999999998" x2="26.410249999999998" y1="75.0" y2="75.0" /><line stroke="rgb(0,0,0)" x1="26.410249999999998" x2="31.410249999999998" y1="75.0" y2="75.0" /><line stroke="rgb(0,0,0)" x1="31.410249999999998" x2="74.84375" y1="75.0" y2="75.0" /><line stroke="rgb(0,0,0)" x1="74.84375" x2="84.84375" y1="75.0" y2="75.0" /><line stroke="rgb(0,0,0)" x1="84.84375" x2="89.84375" y1="75.0" y2="75.0" /><line stroke="rgb(0,0,0)" x1="89.84375" x2="111.95219999999999" y1="75.0" y2="75.0" /><line stroke="rgb(0,0,0)" x1="111.95219999999999" x2="121.95219999999999" y1="75.0" y2="75.0" /><line stroke="rgb(0,0,0)" x1="121.95219999999999" x2="126.95219999999999" y1="75.0" y2="75.0" /><line stroke="rgb(0,0,0)" x1="126.95219999999999" x2="236.41219999999998" y1="75.0" y2="75.0" /><line stroke="rgb(0,0,0)" x1="236.41219999999998" x2="246.41219999999998" y1="75.0" y2="75.0" /><line stroke="rgb(0,0,0)" x1="246.41219999999998" x2="251.41219999999998" y1="75.0" y2="75.0" /><line stroke="rgb(0,0,0)" x1="251.41219999999998" x2="266.21059999999994" y1="75.0" y2="75.0" /><line stroke="rgb(0,0,0)" x1="266.21059999999994" x2="276.21059999999994" y1="75.0" y2="75.0" /><line stroke="rgb(0,0,0)" x1="276.21059999999994" x2="281.21059999999994" y1="75.0" y2="75.0" /><line stroke="rgb(0,0,0)" x1="281.21059999999994" x2="304.89059999999995" y1="75.0" y2="75.0" /><line stroke="rgb(0,0,0)" x1="304.89059999999995" x2="314.89059999999995" y1="75.0" y2="75.0" /><line stroke="rgb(0,0,0)" x1="314.89059999999995" x2="319.89059999999995" y1="75.0" y2="75.0" /><line stroke="rgb(0,0,0)" x1="319.89059999999995" x2="341.5906" y1="75.0" y2="75.0" /><line stroke="rgb(0,0,0)" x1="341.5906" x2="351.5906" y1="75.0" y2="75.0" /><line stroke="rgb(0,0,0)" x1="351.5906" x2="356.5906" y1="75.0" y2="75.0" /><line stroke="rgb(0,0,0)" x1="356.5906" x2="377.69059999999996" y1="75.0" y2="75.0" /><line stroke="rgb(0,0,0)" x1="377.69059999999996" x2="387.69059999999996" y1="75.0" y2="75.0" /><line stroke="rgb(0,0,0)" x1="387.69059999999996" x2="392.69059999999996" y1="75.0" y2="75.0" /><line stroke="rgb(0,0,0)" x1="392.69059999999996" x2="407.5293" y1="75.0" y2="75.0" /><line stroke="rgb(0,0,0)" x1="407.5293" x2="417.5293" y1="75.0" y2="75.0" /><line stroke="rgb(0,0,0)" x1="417.5293" x2="422.5293" y1="75.0" y2="75.0" /><line stroke="rgb(0,0,0)" x1="422.5293" x2="435.39445" y1="75.0" y2="75.0" /><line stroke="rgb(0,0,0)" x1="435.39445" x2="445.39445" y1="75.0" y2="75.0" /><line stroke="rgb(0,0,0)" x1="445.39445" x2="450.39445" y1="75.0" y2="75.0" /><line stroke="rgb(0,0,0)" x1="450.39445" x2="471.2961" y1="75.0" y2="75.0" /><line stroke="rgb(0,0,0)" x1="471.2961" x2="481.2961" y1="75.0" y2="75.0" /><line stroke="rgb(0,0,0)" x1="481.2961" x2="486.2961" y1="75.0" y2="75.0" /><line stroke="rgb(0,0,0)" x1="486.2961" x2="518.20785" y1="75.0" y2="75.0" /><line stroke="rgb(0,0,0)" x1="518.20785" x2="528.20785" y1="75.0" y2="75.0" /><line stroke="rgb(0,0,0)" x1="528.20785" x2="533.20785" y1="75.0" y2="75.0" /><line stroke="rgb(0,0,0)" x1="533.20785" x2="545.7773" y1="75.0" y2="75.0" /><line stroke="rgb(0,0,0)" x1="545.7773" x2="555.7773" y1="75.0" y2="75.0" /><line stroke="rgb(0,0,0)" x1="555.7773" x2="560.7773" y1="75.0" y2="75.0" /><line stroke="rgb(0,0,0)" x1="560.7773" x2="651.3973" y1="75.0" y2="75.0" /><line stroke="rgb(0,0,0)" x1="651.3973" x2="661.3973" y1="75.0" y2="75.0" /><line stroke="rgb(0,0,0)" x1="661.3973" x2="666.3973" y1="75.0" y2="75.0" /><line stroke="rgb(0,0,0)" x1="666.3973" x2="723.0572999999999" y1="75.0" y2="75.0" /><line stroke="rgb(0,0,0)" x1="723.0572999999999" x2="733.0572999999999" y1="75.0" y2="75.0" /><line stroke="rgb(0,0,0)" x1="733.0572999999999" x2="738.0572999999999" y1="75.0" y2="75.0" /><line stroke="rgb(0,0,0)" x1="738.0572999999999" x2="769.8689" y1="75.0" y2="75.0" /><line stroke="rgb(0,0,0)" x1="769.8689" x2="779.8689" y1="75.0" y2="75.0" /><line stroke="rgb(0,0,0)" x1="779.8689" x2="784.8689" y1="75.0" y2="75.0" /><line stroke="rgb(0,0,0)" x1="784.8689" x2="813.5436" y1="75.0" y2="75.0" /><line stroke="rgb(0,0,0)" x1="813.5436" x2="823.5436" y1="75.0" y2="75.0" /><line stroke="rgb(0,0,0)" x1="823.5436" x2="828.5436" y1="75.0" y2="75.0" /><line stroke="rgb(0,0,0)" x1="828.5436" x2="889.9491" y1="75.0" y2="75.0" /><line stroke="rgb(0,0,0)" x1="889.9491" x2="899.9491" y1="75.0" y2="75.0" /><line stroke="rgb(0,0,0)" x1="899.9491" x2="904.9491" y1="75.0" y2="75.0" /><line stroke="rgb(0,0,0)" x1="904.9491" x2="925.5001" y1="75.0" y2="75.0" /><line stroke="rgb(0,0,0)" x1="925.5001" x2="935.5001" y1="75.0" y2="75.0" /><line stroke="rgb(0,0,0)" x1="935.5001" x2="940.5001" y1="75.0" y2="75.0" /><line stroke="rgb(0,0,0)" x1="940.5001" x2="989.92865" y1="75.0" y2="75.0" /><line stroke="rgb(0,0,0)" x1="989.92865" x2="999.92865" y1="75.0" y2="75.0" /><line stroke="rgb(0,0,0)" x1="999.92865" x2="1004.92865" y1="75.0" y2="75.0" /><rect fill="rgb(66,51,255)" height="78.0" stroke="rgb(0,0,0)" width="6.41025" x="5.0" y="36.0" /><text fill="black" x="5.0" y="134.0">E17</text><rect fill="rgb(105,83,255)" height="93.2" stroke="rgb(0,0,0)" width="38.4335" x="31.410249999999998" y="28.4" /><text fill="black" x="31.410249999999998" y="141.6">H18</text><rect fill="rgb(203,159,255)" height="33.2" stroke="rgb(0,0,0)" width="17.108449999999998" x="89.84375" y="58.4" /><text fill="black" x="89.84375" y="111.6">H20</text><rect fill="rgb(44,34,255)" height="100.0" stroke="rgb(0,0,0)" width="104.46" x="126.95219999999999" y="25.0" /><text fill="black" x="126.95219999999999" y="145.0">H24</text><rect fill="rgb(42,33,255)" height="49.6" stroke="rgb(0,0,0)" width="9.7984" x="251.41219999999998" y="50.2" /><text fill="black" x="251.41219999999998" y="119.8">E29</text><rect fill="rgb(40,31,255)" height="100.0" stroke="rgb(0,0,0)" width="18.68" x="281.21059999999994" y="25.0" /><text fill="black" x="281.21059999999994" y="145.0">H30</text><rect fill="rgb(54,42,255)" height="100.0" stroke="rgb(0,0,0)" width="16.7" x="319.89059999999995" y="25.0" /><text fill="black" x="319.89059999999995" y="145.0">E31</text><rect fill="rgb(53,41,255)" height="100.0" stroke="rgb(0,0,0)" width="16.1" x="356.5906" y="25.0" /><text fill="black" x="356.5906" y="145.0">E33</text><rect fill="rgb(58,45,255)" height="49.6" stroke="rgb(0,0,0)" width="9.8387" x="392.69059999999996" y="50.2" /><text fill="black" x="392.69059999999996" y="119.8">E35</text><rect fill="rgb(254,35,45)" height="35.6" stroke="rgb(0,0,0)" width="7.86515" x="422.5293" y="57.2" /><text fill="black" x="422.5293" y="112.8">E41</text><rect fill="rgb(39,30,255)" height="73.2" stroke="rgb(0,0,0)" width="15.90165" x="450.39445" y="38.4" /><text fill="black" x="450.39445" y="131.6">H44</text><rect fill="rgb(40,31,255)" height="95.19999999999999" stroke="rgb(0,0,0)" width="26.911749999999998" x="486.2961" y="27.400000000000006" /><text fill="black" x="486.2961" y="142.6">H45</text><rect fill="rgb(107,84,255)" height="28.799999999999997" stroke="rgb(0,0,0)" width="7.56945" x="533.20785" y="60.6" /><text fill="black" x="533.20785" y="109.4">E49</text><rect fill="rgb(37,29,255)" height="100.0" stroke="rgb(0,0,0)" width="85.61999999999999" x="560.7773" y="25.0" /><text fill="black" x="560.7773" y="145.0">H50</text><rect fill="rgb(209,164,255)" height="96.39999999999999" stroke="rgb(0,0,0)" width="51.660000000000004" x="666.3973" y="26.800000000000004" /><text fill="black" x="666.3973" y="143.2">H57</text><rect fill="rgb(255,188,240)" height="27.6" stroke="rgb(0,0,0)" width="26.811600000000002" x="738.0572999999999" y="61.2" /><text fill="black" x="738.0572999999999" y="108.8">H60</text><rect fill="rgb(95,75,255)" height="33.2" stroke="rgb(0,0,0)" width="23.6747" x="784.8689" y="58.4" /><text fill="black" x="784.8689" y="111.6">H64</text><rect fill="rgb(101,79,255)" height="99.6" stroke="rgb(0,0,0)" width="56.4055" x="828.5436" y="25.200000000000003" /><text fill="black" x="828.5436" y="144.8">H68</text><rect fill="rgb(57,44,255)" height="98.0" stroke="rgb(0,0,0)" width="15.550999999999998" x="904.9491" y="26.0" /><text fill="black" x="904.9491" y="144.0">H69</text><rect fill="rgb(255,187,239)" height="98.0" stroke="rgb(0,0,0)" width="44.42855" x="940.5001" y="26.0" /><text fill="black" x="940.5001" y="144.0">H72</text><rect fill="rgb(255,179,228)" height="67.2" stroke="rgb(0,0,0)" width="20.773799999999998" x="1004.92865" y="41.4" /><text fill="black" x="1004.92865" y="128.6">H73</text><path d="M 328.2406,75.0 a 399.4421492136684,399.4421492136684 0 0,0 -320.03547499999996,-0.0" stroke="rgb(66,51,255)" stroke-width="2" /><path d="M 328.2406,75.0 a 399.4421492136684,399.4421492136684 0 0,0 -320.03547499999996,-0.0" stroke="rgb(0,0,0)" stroke-width="0.2" /><path d="M 397.60994999999997,75.0 a 122.75802648451346,122.75802648451346 0 0,0 -141.29854999999998,-0.0" stroke="rgb(42,33,255)" stroke-width="2" /><path d="M 397.60994999999997,75.0 a 122.75802648451346,122.75802648451346 0 0,0 -141.29854999999998,-0.0" stroke="rgb(0,0,0)" stroke-width="0.2" /><path d="M 364.6406,75.0 a 24.19185920945352,24.19185920945352 0 0,0 -36.400000000000034,-0.0" stroke="rgb(54,42,255)" stroke-width="2" /><path d="M 364.6406,75.0 a 24.19185920945352,24.19185920945352 0 0,0 -36.400000000000034,-0.0" stroke="rgb(0,0,0)" stroke-width="0.2" /><path d="M 536.992575,75.0 a 89.14832771362558,89.14832771362558 0 0,0 -110.53070000000002,-0.0" stroke="rgb(254,35,45)" stroke-width="2" /><path d="M 536.992575,75.0 a 89.14832771362558,89.14832771362558 0 0,0 -110.53070000000002,-0.0" stroke="rgb(0,0,0)" stroke-width="0.2" /></svg>