<?xml version="1.0" encoding="utf-8" ?>
<svg baseProfile="full" height="100%" style="font-size:14;font-family:Sans, Arial;stroke-width:1;fill:none" version="1.1" width="100%" xmlns="http://www.w3.org/2000/svg" xmlns:ev="http://www.w3.org/2001/xml-events" xmlns:xlink="http://www.w3.org/1999/xlink"><defs /><rect fill="none" height="280.0" stroke="none" width="3795.4315500000002" x="0" y="0" /><line stroke="rgb(0,0,0)" x1="5.0" x2="25.0" y1="130.0" y2="130.0" /><line stroke="rgb(0,0,0)" x1="25.0" x2="45.0" y1="130.0" y2="130.0" /><line stroke="rgb(0,0,0)" x1="45.0" x2="50.0" y1="130.0" y2="130.0" /><line stroke="rgb(0,0,0)" x1="50.0" x2="70.0" y1="130.0" y2="130.0" /><line stroke="rgb(0,0,0)" x1="70.0" x2="90.0" y1="130.0" y2="130.0" /><line stroke="rgb(0,0,0)" x1="90.0" x2="95.0" y1="130.0" y2="130.0" /><line stroke="rgb(0,0,0)" x1="95.0" x2="110.0" y1="130.0" y2="130.0" /><line stroke="rgb(0,0,0)" x1="110.0" x2="130.0" y1="130.0" y2="130.0" /><line stroke="rgb(0,0,0)" x1="130.0" x2="135.0" y1="130.0" y2="130.0" /><line stroke="rgb(0,0,0)" x1="135.0" x2="145.0" y1="130.0" y2="130.0" /><line stroke="rgb(0,0,0)" x1="145.0" x2="165.0" y1="130.0" y2="130.0" /><line stroke="rgb(0,0,0)" x1="165.0" x2="170.0" y1="130.0" y2="130.0" /><line stroke="rgb(0,0,0)" x1="170.0" x2="207.5" y1="130.0" y2="130.0" /><line stroke="rgb(0,0,0)" x1="207.5" x2="227.5" y1="130.0" y2="130.0" /><line stroke="rgb(0,0,0)" x1="227.5" x2="232.5" y1="130.0" y2="130.0" /><line stroke="rgb(0,0,0)" x1="232.5" x2="281.25" y1="130.0" y2="130.0" /><line stroke="rgb(0,0,0)" x1="281.25" x2="301.25" y1="130.0" y2="130.0" /><line stroke="rgb(0,0,0)" x1="301.25" x2="306.25" y1="130.0" y2="130.0" /><line stroke="rgb(0,0,0)" x1="306.25" x2="347.5" y1="130.0" y2="130.0" /><line stroke="rgb(0,0,0)" x1="347.5" x2="367.5" y1="130.0" y2="55.0" /><line stroke="rgb(0,0,0)" x1="367.5" x2="372.5" y1="55.0" y2="55.0" /><line stroke="rgb(0,0,0)" x1="306.25" x2="347.5" y1="130.0" y2="130.0" /><line stroke="rgb(0,0,0)" x1="347.5" x2="367.5" y1="130.0" y2="205.0" /><line stroke="rgb(0,0,0)" x1="367.5" x2="372.5" y1="205.0" y2="205.0" /><line stroke="rgb(0,0,0)" x1="372.5" x2="377.5" y1="55.0" y2="55.0" /><line stroke="rgb(0,0,0)" x1="377.5" x2="412.5" y1="55.0" y2="130.0" /><line stroke="rgb(0,0,0)" x1="412.5" x2="417.5" y1="130.0" y2="130.0" /><line stroke="rgb(0,0,0)" x1="372.5" x2="392.5" y1="205.0" y2="205.0" /><line stroke="rgb(0,0,0)" x1="392.5" x2="412.5" y1="205.0" y2="130.0" /><line stroke="rgb(0,0,0)" x1="412.5" x2="417.5" y1="130.0" y2="130.0" /><line stroke="rgb(0,0,0)" x1="417.5" x2="457.5" y1="130.0" y2="130.0" /><line stroke="rgb(0,0,0)" x1="457.5" x2="477.5" y1="130.0" y2="130.0" /><line stroke="rgb(0,0,0)" x1="477.5" x2="482.5" y1="130.0" y2="130.0" /><line stroke="rgb(0,0,0)" x1="482.5" x2="556.875" y1="130.0" y2="130.0" /><line stroke="rgb(0,0,0)" x1="556.875" x2="576.875" y1="130.0" y2="130.0" /><line stroke="rgb(0,0,0)" x1="576.875" x2="581.875" y1="130.0" y2="130.0" /><line stroke="rgb(0,0,0)" x1="581.875" x2="635.99265" y1="130.0" y2="130.0" /><line stroke="rgb(0,0,0)" x1="635.99265" x2="655.99265" y1="130.0" y2="130.0" /><line stroke="rgb(0,0,0)" x1="655.99265" x2="660.99265" y1="130.0" y2="130.0" /><line stroke="rgb(0,0,0)" x1="660.99265" x2="680.99265" y1="130.0" y2="130.0" /><line stroke="rgb(0,0,0)" x1="680.99265" x2="700.99265" y1="130.0" y2="130.0" /><line stroke="rgb(0,0,0)" x1="700.99265" x2="705.99265" y1="130.0" y2="130.0" /><line stroke="rgb(0,0,0)" x1="705.99265" x2="715.99265" y1="130.0" y2="130.0" /><line stroke="rgb(0,0,0)" x1="715.99265" x2="735.99265" y1="130.0" y2="130.0" /><line stroke="rgb(0,0,0)" x1="735.99265" x2="740.99265" y1="130.0" y2="130.0" /><line stroke="rgb(0,0,0)" x1="740.99265" x2="774.9926500000001" y1="130.0" y2="130.0" /><line stroke="rgb(0,0,0)" x1="774.9926500000001" x2="794.9926500000001" y1="130.0" y2="130.0" /><line stroke="rgb(0,0,0)" x1="794.9926500000001" x2="799.9926500000001" y1="130.0" y2="130.0" /><line stroke="rgb(0,0,0)" x1="799.9926500000001" x2="819.9926500000001" y1="130.0" y2="130.0" /><line stroke="rgb(0,0,0)" x1="819.9926500000001" x2="839.9926500000001" y1="130.0" y2="130.0" /><line stroke="rgb(0,0,0)" x1="839.9926500000001" x2="844.9926500000001" y1="130.0" y2="130.0" /><line stroke="rgb(0,0,0)" x1="844.9926500000001" x2="879.9926500000001" y1="130.0" y2="130.0" /><line stroke="rgb(0,0,0)" x1="879.9926500000001" x2="899.9926500000001" y1="130.0" y2="130.0" /><line stroke="rgb(0,0,0)" x1="899.9926500000001" x2="904.9926500000001" y1="130.0" y2="130.0" /><line stroke="rgb(0,0,0)" x1="904.9926500000001" x2="916.4029" y1="130.0" y2="130.0" /><line stroke="rgb(0,0,0)" x1="916.4029" x2="936.4029" y1="130.0" y2="130.0" /><line stroke="rgb(0,0,0)" x1="936.4029" x2="941.4029" y1="130.0" y2="130.0" /><line stroke="rgb(0,0,0)" x1="941.4029" x2="984.8364000000001" y1="130.0" y2="130.0" /><line stroke="rgb(0,0,0)" x1="984.8364000000001" x2="1004.8364000000001" y1="130.0" y2="130.0" /><line stroke="rgb(0,0,0)" x1="1004.8364000000001" x2="1009.8364000000001" y1="130.0" y2="130.0" /><line stroke="rgb(0,0,0)" x1="1009.8364000000001" x2="1019.8364000000001" y1="130.0" y2="130.0" /><line stroke="rgb(0,0,0)" x1="1019.8364000000001" x2="1039.8364000000001" y1="130.0" y2="130.0" /><line stroke="rgb(0,0,0)" x1="1039.8364000000001" x2="1044.8364000000001" y1="130.0" y2="130.0" /><line stroke="rgb(0,0,0)" x1="1044.8364000000001" x2="1066.94485" y1="130.0" y2="130.0" /><line stroke="rgb(0,0,0)" x1="1066.94485" x2="1086.94485" y1="130.0" y2="130.0" /><line stroke="rgb(0,0,0)" x1="1086.94485" x2="1091.94485" y1="130.0" y2="130.0" /><line stroke="rgb(0,0,0)" x1="1091.94485" x2="1103.3734000000002" y1="130.0" y2="130.0" /><line stroke="rgb(0,0,0)" x1="1103.3734000000002" x2="1123.3734000000002" y1="130.0" y2="130.0" /><line stroke="rgb(0,0,0)" x1="1123.3734000000002" x2="1128.3734000000002" y1="130.0" y2="130.0" /><line stroke="rgb(0,0,0)" x1="1128.3734000000002" x2="1153.3734000000002" y1="130.0" y2="130.0" /><line stroke="rgb(0,0,0)" x1="1153.3734000000002" x2="1173.3734000000002" y1="130.0" y2="130.0" /><line stroke="rgb(0,0,0)" x1="1173.3734000000002" x2="1178.3734000000002" y1="130.0" y2="130.0" /><line stroke="rgb(0,0,0)" x1="1178.3734000000002" x2="1189.9359000000002" y1="130.0" y2="130.0" /><line stroke="rgb(0,0,0)" x1="1189.9359000000002" x2="1209.9359000000002" y1="130.0" y2="130.0" /><line stroke="rgb(0,0,0)" x1="1209.9359000000002" x2="1214.9359000000002" y1="130.0" y2="130.0" /><line stroke="rgb(0,0,0)" x1="1214.9359000000002" x2="1324.3959" y1="130.0" y2="130.0" /><line stroke="rgb(0,0,0)" x1="1324.3959" x2="1344.3959" y1="130.0" y2="55.0" /><line stroke="rgb(0,0,0)" x1="1344.3959" x2="1349.3959" y1="55.0" y2="55.0" /><line stroke="rgb(0,0,0)" x1="1214.9359000000002" x2="1324.3959" y1="130.0" y2="130.0" /><line stroke="rgb(0,0,0)" x1="1324.3959" x2="1344.3959" y1="130.0" y2="205.0" /><line stroke="rgb(0,0,0)" x1="1344.3959" x2="1349.3959" y1="205.0" y2="205.0" /><line stroke="rgb(0,0,0)" x1="1349.3959" x2="1384.3959" y1="55.0" y2="55.0" /><line stroke="rgb(0,0,0)" x1="1384.3959" x2="1404.3959" y1="55.0" y2="130.0" /><line stroke="rgb(0,0,0)" x1="1404.3959" x2="1409.3959" y1="130.0" y2="130.0" /><line stroke="rgb(0,0,0)" x1="1349.3959" x2="1359.3959" y1="205.0" y2="205.0" /><line stroke="rgb(0,0,0)" x1="1359.3959" x2="1404.3959" y1="205.0" y2="130.0" /><line stroke="rgb(0,0,0)" x1="1404.3959" x2="1409.3959" y1="130.0" y2="130.0" /><line stroke="rgb(0,0,0)" x1="1409.3959" x2="1419.3959" y1="130.0" y2="130.0" /><line stroke="rgb(0,0,0)" x1="1419.3959" x2="1439.3959" y1="130.0" y2="130.0" /><line stroke="rgb(0,0,0)" x1="1439.3959" x2="1444.3959" y1="130.0" y2="130.0" /><line stroke="rgb(0,0,0)" x1="1444.3959" x2="1464.3959" y1="130.0" y2="130.0" /><line stroke="rgb(0,0,0)" x1="1464.3959" x2="1484.3959" y1="130.0" y2="130.0" /><line stroke="rgb(0,0,0)" x1="1484.3959" x2="1489.3959" y1="130.0" y2="130.0" /><line stroke="rgb(0,0,0)" x1="1489.3959" x2="1504.1943" y1="130.0" y2="130.0" /><line stroke="rgb(0,0,0)" x1="1504.1943" x2="1524.1943" y1="130.0" y2="130.0" /><line stroke="rgb(0,0,0)" x1="1524.1943" x2="1529.1943" y1="130.0" y2="130.0" /><line stroke="rgb(0,0,0)" x1="1529.1943" x2="1552.8743" y1="130.0" y2="130.0" /><line stroke="rgb(0,0,0)" x1="1552.8743" x2="1572.8743" y1="130.0" y2="130.0" /><line stroke="rgb(0,0,0)" x1="1572.8743" x2="1577.8743" y1="130.0" y2="130.0" /><line stroke="rgb(0,0,0)" x1="1577.8743" x2="1599.5742999999998" y1="130.0" y2="130.0" /><line stroke="rgb(0,0,0)" x1="1599.5742999999998" x2="1619.5742999999998" y1="130.0" y2="130.0" /><line stroke="rgb(0,0,0)" x1="1619.5742999999998" x2="1624.5742999999998" y1="130.0" y2="130.0" /><line stroke="rgb(0,0,0)" x1="1624.5742999999998" x2="1645.0187499999997" y1="130.0" y2="130.0" /><line stroke="rgb(0,0,0)" x1="1645.0187499999997" x2="1665.0187499999997" y1="130.0" y2="130.0" /><line stroke="rgb(0,0,0)" x1="1665.0187499999997" x2="1670.0187499999997" y1="130.0" y2="130.0" /><line stroke="rgb(0,0,0)" x1="1670.0187499999997" x2="1691.11875" y1="130.0" y2="130.0" /><line stroke="rgb(0,0,0)" x1="1691.11875" x2="1711.11875" y1="130.0" y2="130.0" /><line stroke="rgb(0,0,0)" x1="1711.11875" x2="1716.11875" y1="130.0" y2="130.0" /><line stroke="rgb(0,0,0)" x1="1716.11875" x2="1745.64255" y1="130.0" y2="130.0" /><line stroke="rgb(0,0,0)" x1="1745.64255" x2="1765.64255" y1="130.0" y2="55.0" /><line stroke="rgb(0,0,0)" x1="1765.64255" x2="1770.64255" y1="55.0" y2="55.0" /><line stroke="rgb(0,0,0)" x1="1716.11875" x2="1745.64255" y1="130.0" y2="130.0" /><line stroke="rgb(0,0,0)" x1="1745.64255" x2="1765.64255" y1="130.0" y2="205.0" /><line stroke="rgb(0,0,0)" x1="1765.64255" x2="1770.64255" y1="205.0" y2="205.0" /><line stroke="rgb(0,0,0)" x1="1770.64255" x2="1785.48125" y1="55.0" y2="55.0" /><line stroke="rgb(0,0,0)" x1="1785.48125" x2="1811.26755" y1="55.0" y2="55.0" /><line stroke="rgb(0,0,0)" x1="1811.26755" x2="1816.26755" y1="55.0" y2="55.0" /><line stroke="rgb(0,0,0)" x1="1770.64255" x2="1785.48125" y1="55.0" y2="55.0" /><line stroke="rgb(0,0,0)" x1="1785.48125" x2="1811.26755" y1="55.0" y2="205.0" /><line stroke="rgb(0,0,0)" x1="1811.26755" x2="1816.26755" y1="205.0" y2="205.0" /><line stroke="rgb(0,0,0)" x1="1770.64255" x2="1791.26755" y1="205.0" y2="205.0" /><line stroke="rgb(0,0,0)" x1="1791.26755" x2="1811.26755" y1="205.0" y2="205.0" /><line stroke="rgb(0,0,0)" x1="1811.26755" x2="1816.26755" y1="205.0" y2="205.0" /><line stroke="rgb(0,0,0)" x1="1816.26755" x2="1841.7221" y1="205.0" y2="205.0" /><line stroke="rgb(0,0,0)" x1="1841.7221" x2="1861.7221" y1="205.0" y2="55.0" /><line stroke="rgb(0,0,0)" x1="1861.7221" x2="1866.7221" y1="55.0" y2="55.0" /><line stroke="rgb(0,0,0)" x1="1816.26755" x2="1830.8509000000001" y1="55.0" y2="55.0" /><line stroke="rgb(0,0,0)" x1="1830.8509000000001" x2="1861.7221" y1="55.0" y2="205.0" /><line stroke="rgb(0,0,0)" x1="1861.7221" x2="1866.7221" y1="205.0" y2="205.0" /><line stroke="rgb(0,0,0)" x1="1816.26755" x2="1841.7221" y1="205.0" y2="205.0" /><line stroke="rgb(0,0,0)" x1="1841.7221" x2="1861.7221" y1="205.0" y2="205.0" /><line stroke="rgb(0,0,0)" x1="1861.7221" x2="1866.7221" y1="205.0" y2="205.0" /><line stroke="rgb(0,0,0)" x1="1866.7221" x2="1881.30545" y1="205.0" y2="205.0" /><line stroke="rgb(0,0,0)" x1="1881.30545" x2="1906.7221" y1="205.0" y2="130.0" /><line stroke="rgb(0,0,0)" x1="1906.7221" x2="1911.7221" y1="130.0" y2="130.0" /><line stroke="rgb(0,0,0)" x1="1911.7221" x2="1924.58725" y1="130.0" y2="130.0" /><line stroke="rgb(0,0,0)" x1="1924.58725" x2="1944.58725" y1="130.0" y2="130.0" /><line stroke="rgb(0,0,0)" x1="1944.58725" x2="1949.58725" y1="130.0" y2="130.0" /><line stroke="rgb(0,0,0)" x1="1866.7221" x2="1886.7221" y1="55.0" y2="55.0" /><line stroke="rgb(0,0,0)" x1="1886.7221" x2="1944.58725" y1="55.0" y2="130.0" /><line stroke="rgb(0,0,0)" x1="1944.58725" x2="1949.58725" y1="130.0" y2="130.0" /><line stroke="rgb(0,0,0)" x1="1949.58725" x2="1976.3519500000002" y1="130.0" y2="130.0" /><line stroke="rgb(0,0,0)" x1="1976.3519500000002" x2="1996.3519500000002" y1="130.0" y2="130.0" /><line stroke="rgb(0,0,0)" x1="1996.3519500000002" x2="2001.3519500000002" y1="130.0" y2="130.0" /><line stroke="rgb(0,0,0)" x1="2001.3519500000002" x2="2015.2408500000001" y1="130.0" y2="130.0" /><line stroke="rgb(0,0,0)" x1="2015.2408500000001" x2="2035.2408500000001" y1="130.0" y2="130.0" /><line stroke="rgb(0,0,0)" x1="2035.2408500000001" x2="2040.2408500000001" y1="130.0" y2="130.0" /><line stroke="rgb(0,0,0)" x1="2040.2408500000001" x2="2061.1425000000004" y1="130.0" y2="130.0" /><line stroke="rgb(0,0,0)" x1="2061.1425000000004" x2="2081.1425000000004" y1="130.0" y2="130.0" /><line stroke="rgb(0,0,0)" x1="2081.1425000000004" x2="2086.1425000000004" y1="130.0" y2="130.0" /><line stroke="rgb(0,0,0)" x1="2086.1425000000004" x2="2118.05425" y1="130.0" y2="130.0" /><line stroke="rgb(0,0,0)" x1="2118.05425" x2="2138.05425" y1="130.0" y2="130.0" /><line stroke="rgb(0,0,0)" x1="2138.05425" x2="2143.05425" y1="130.0" y2="130.0" /><line stroke="rgb(0,0,0)" x1="2143.05425" x2="2153.05425" y1="130.0" y2="130.0" /><line stroke="rgb(0,0,0)" x1="2153.05425" x2="2173.05425" y1="130.0" y2="130.0" /><line stroke="rgb(0,0,0)" x1="2173.05425" x2="2178.05425" y1="130.0" y2="130.0" /><line stroke="rgb(0,0,0)" x1="2178.05425" x2="2198.05425" y1="130.0" y2="130.0" /><line stroke="rgb(0,0,0)" x1="2198.05425" x2="2218.05425" y1="130.0" y2="130.0" /><line stroke="rgb(0,0,0)" x1="2218.05425" x2="2223.05425" y1="130.0" y2="130.0" /><line stroke="rgb(0,0,0)" x1="2223.05425" x2="2250.7815" y1="130.0" y2="130.0" /><line stroke="rgb(0,0,0)" x1="2250.7815" x2="2270.7815" y1="130.0" y2="130.0" /><line stroke="rgb(0,0,0)" x1="2270.7815" x2="2275.7815" y1="130.0" y2="130.0" /><line stroke="rgb(0,0,0)" x1="2275.7815" x2="2288.35095" y1="130.0" y2="130.0" /><line stroke="rgb(0,0,0)" x1="2288.35095" x2="2308.35095" y1="130.0" y2="130.0" /><line stroke="rgb(0,0,0)" x1="2308.35095" x2="2313.35095" y1="130.0" y2="130.0" /><line stroke="rgb(0,0,0)" x1="2313.35095" x2="2403.9709500000004" y1="130.0" y2="130.0" /><line stroke="rgb(0,0,0)" x1="2403.9709500000004" x2="2423.9709500000004" y1="130.0" y2="55.0" /><line stroke="rgb(0,0,0)" x1="2423.9709500000004" x2="2428.9709500000004" y1="55.0" y2="55.0" /><line stroke="rgb(0,0,0)" x1="2313.35095" x2="2403.9709500000004" y1="130.0" y2="130.0" /><line stroke="rgb(0,0,0)" x1="2403.9709500000004" x2="2423.9709500000004" y1="130.0" y2="205.0" /><line stroke="rgb(0,0,0)" x1="2423.9709500000004" x2="2428.9709500000004" y1="205.0" y2="205.0" /><line stroke="rgb(0,0,0)" x1="2428.9709500000004" x2="2438.9709500000004" y1="205.0" y2="205.0" /><line stroke="rgb(0,0,0)" x1="2438.9709500000004" x2="2474.9709500000004" y1="205.0" y2="130.0" /><line stroke="rgb(0,0,0)" x1="2474.9709500000004" x2="2479.9709500000004" y1="130.0" y2="130.0" /><line stroke="rgb(0,0,0)" x1="2479.9709500000004" x2="2489.9709500000004" y1="130.0" y2="130.0" /><line stroke="rgb(0,0,0)" x1="2489.9709500000004" x2="2509.9709500000004" y1="130.0" y2="130.0" /><line stroke="rgb(0,0,0)" x1="2509.9709500000004" x2="2514.9709500000004" y1="130.0" y2="130.0" /><line stroke="rgb(0,0,0)" x1="2514.9709500000004" x2="2524.9709500000004" y1="130.0" y2="130.0" /><line stroke="rgb(0,0,0)" x1="2524.9709500000004" x2="2544.9709500000004" y1="130.0" y2="130.0" /><line stroke="rgb(0,0,0)" x1="2544.9709500000004" x2="2549.9709500000004" y1="130.0" y2="130.0" /><line stroke="rgb(0,0,0)" x1="2428.9709500000004" x2="2454.9709500000004" y1="55.0" y2="55.0" /><line stroke="rgb(0,0,0)" x1="2454.9709500000004" x2="2544.9709500000004" y1="55.0" y2="130.0" /><line stroke="rgb(0,0,0)" x1="2544.9709500000004" x2="2549.9709500000004" y1="130.0" y2="130.0" /><line stroke="rgb(0,0,0)" x1="2549.9709500000004" x2="2576.58385" y1="130.0" y2="130.0" /><line stroke="rgb(0,0,0)" x1="2576.58385" x2="2596.58385" y1="130.0" y2="130.0" /><line stroke="rgb(0,0,0)" x1="2596.58385" x2="2601.58385" y1="130.0" y2="130.0" /><line stroke="rgb(0,0,0)" x1="2601.58385" x2="2621.58385" y1="130.0" y2="130.0" /><line stroke="rgb(0,0,0)" x1="2621.58385" x2="2641.58385" y1="130.0" y2="130.0" /><line stroke="rgb(0,0,0)" x1="2641.58385" x2="2646.58385" y1="130.0" y2="130.0" /><line stroke="rgb(0,0,0)" x1="2646.58385" x2="2703.24385" y1="130.0" y2="130.0" /><line stroke="rgb(0,0,0)" x1="2703.24385" x2="2723.24385" y1="130.0" y2="130.0" /><line stroke="rgb(0,0,0)" x1="2723.24385" x2="2728.24385" y1="130.0" y2="130.0" /><line stroke="rgb(0,0,0)" x1="2728.24385" x2="2743.24385" y1="130.0" y2="130.0" /><line stroke="rgb(0,0,0)" x1="2743.24385" x2="2763.24385" y1="130.0" y2="130.0" /><line stroke="rgb(0,0,0)" x1="2763.24385" x2="2768.24385" y1="130.0" y2="130.0" /><line stroke="rgb(0,0,0)" x1="2768.24385" x2="2793.24385" y1="130.0" y2="130.0" /><line stroke="rgb(0,0,0)" x1="2793.24385" x2="2813.24385" y1="130.0" y2="130.0" /><line stroke="rgb(0,0,0)" x1="2813.24385" x2="2818.24385" y1="130.0" y2="130.0" /><line stroke="rgb(0,0,0)" x1="2818.24385" x2="2850.05545" y1="130.0" y2="130.0" /><line stroke="rgb(0,0,0)" x1="2850.05545" x2="2870.05545" y1="130.0" y2="130.0" /><line stroke="rgb(0,0,0)" x1="2870.05545" x2="2875.05545" y1="130.0" y2="130.0" /><line stroke="rgb(0,0,0)" x1="2875.05545" x2="2921.2093" y1="130.0" y2="130.0" /><line stroke="rgb(0,0,0)" x1="2921.2093" x2="2941.2093" y1="130.0" y2="55.0" /><line stroke="rgb(0,0,0)" x1="2941.2093" x2="2946.2093" y1="55.0" y2="55.0" /><line stroke="rgb(0,0,0)" x1="2875.05545" x2="2921.2093" y1="130.0" y2="130.0" /><line stroke="rgb(0,0,0)" x1="2921.2093" x2="2941.2093" y1="130.0" y2="205.0" /><line stroke="rgb(0,0,0)" x1="2941.2093" x2="2946.2093" y1="205.0" y2="205.0" /><line stroke="rgb(0,0,0)" x1="2946.2093" x2="2960.2092999999995" y1="55.0" y2="55.0" /><line stroke="rgb(0,0,0)" x1="2960.2092999999995" x2="2987.63785" y1="55.0" y2="55.0" /><line stroke="rgb(0,0,0)" x1="2987.63785" x2="2992.63785" y1="55.0" y2="55.0" /><line stroke="rgb(0,0,0)" x1="2946.2093" x2="2967.63785" y1="205.0" y2="205.0" /><line stroke="rgb(0,0,0)" x1="2967.63785" x2="2987.63785" y1="205.0" y2="55.0" /><line stroke="rgb(0,0,0)" x1="2987.63785" x2="2992.63785" y1="55.0" y2="55.0" /><line stroke="rgb(0,0,0)" x1="2946.2093" x2="2960.2092999999995" y1="55.0" y2="55.0" /><line stroke="rgb(0,0,0)" x1="2960.2092999999995" x2="2987.63785" y1="55.0" y2="205.0" /><line stroke="rgb(0,0,0)" x1="2987.63785" x2="2992.63785" y1="205.0" y2="205.0" /><line stroke="rgb(0,0,0)" x1="2992.63785" x2="3021.31255" y1="55.0" y2="55.0" /><line stroke="rgb(0,0,0)" x1="3021.31255" x2="3041.31255" y1="55.0" y2="130.0" /><line stroke="rgb(0,0,0)" x1="3041.31255" x2="3046.31255" y1="130.0" y2="130.0" /><line stroke="rgb(0,0,0)" x1="3046.31255" x2="3069.7741" y1="130.0" y2="130.0" /><line stroke="rgb(0,0,0)" x1="3069.7741" x2="3089.7741" y1="130.0" y2="130.0" /><line stroke="rgb(0,0,0)" x1="3089.7741" x2="3094.7741" y1="130.0" y2="130.0" /><line stroke="rgb(0,0,0)" x1="3094.7741" x2="3120.6251500000003" y1="130.0" y2="130.0" /><line stroke="rgb(0,0,0)" x1="3120.6251500000003" x2="3140.6251500000003" y1="130.0" y2="130.0" /><line stroke="rgb(0,0,0)" x1="3140.6251500000003" x2="3145.6251500000003" y1="130.0" y2="130.0" /><line stroke="rgb(0,0,0)" x1="2992.63785" x2="3002.63785" y1="205.0" y2="205.0" /><line stroke="rgb(0,0,0)" x1="3002.63785" x2="3140.6251500000003" y1="205.0" y2="130.0" /><line stroke="rgb(0,0,0)" x1="3140.6251500000003" x2="3145.6251500000003" y1="130.0" y2="130.0" /><line stroke="rgb(0,0,0)" x1="3145.6251500000003" x2="3207.0306500000006" y1="130.0" y2="130.0" /><line stroke="rgb(0,0,0)" x1="3207.0306500000006" x2="3227.0306500000006" y1="130.0" y2="130.0" /><line stroke="rgb(0,0,0)" x1="3227.0306500000006" x2="3232.0306500000006" y1="130.0" y2="130.0" /><line stroke="rgb(0,0,0)" x1="3232.0306500000006" x2="3252.58165" y1="130.0" y2="130.0" /><line stroke="rgb(0,0,0)" x1="3252.58165" x2="3272.58165" y1="130.0" y2="130.0" /><line stroke="rgb(0,0,0)" x1="3272.58165" x2="3277.58165" y1="130.0" y2="130.0" /><line stroke="rgb(0,0,0)" x1="3277.58165" x2="3299.64045" y1="130.0" y2="130.0" /><line stroke="rgb(0,0,0)" x1="3299.64045" x2="3319.64045" y1="130.0" y2="130.0" /><line stroke="rgb(0,0,0)" x1="3319.64045" x2="3324.64045" y1="130.0" y2="130.0" /><line stroke="rgb(0,0,0)" x1="3324.64045" x2="3344.64045" y1="130.0" y2="130.0" /><line stroke="rgb(0,0,0)" x1="3344.64045" x2="3364.64045" y1="130.0" y2="130.0" /><line stroke="rgb(0,0,0)" x1="3364.64045" x2="3369.64045" y1="130.0" y2="130.0" /><line stroke="rgb(0,0,0)" x1="3369.64045" x2="3419.069" y1="130.0" y2="130.0" /><line stroke="rgb(0,0,0)" x1="3419.069" x2="3439.069" y1="130.0" y2="130.0" /><line stroke="rgb(0,0,0)" x1="3439.069" x2="3444.069" y1="130.0" y2="130.0" /><line stroke="rgb(0,0,0)" x1="3444.069" x2="3469.8428000000004" y1="130.0" y2="130.0" /><line stroke="rgb(0,0,0)" x1="3469.8428000000004" x2="3489.8428000000004" y1="130.0" y2="55.0" /><line stroke="rgb(0,0,0)" x1="3489.8428000000004" x2="3494.8428000000004" y1="55.0" y2="55.0" /><line stroke="rgb(0,0,0)" x1="3444.069" x2="3469.8428000000004" y1="130.0" y2="130.0" /><line stroke="rgb(0,0,0)" x1="3469.8428000000004" x2="3489.8428000000004" y1="130.0" y2="205.0" /><line stroke="rgb(0,0,0)" x1="3489.8428000000004" x2="3494.8428000000004" y1="205.0" y2="205.0" /><line stroke="rgb(0,0,0)" x1="3494.8428000000004" x2="3519.9539" y1="55.0" y2="55.0" /><line stroke="rgb(0,0,0)" x1="3519.9539" x2="3539.9539" y1="55.0" y2="130.0" /><line stroke="rgb(0,0,0)" x1="3539.9539" x2="3544.9539" y1="130.0" y2="130.0" /><line stroke="rgb(0,0,0)" x1="3494.8428000000004" x2="3504.8428000000004" y1="205.0" y2="205.0" /><line stroke="rgb(0,0,0)" x1="3504.8428000000004" x2="3539.9539" y1="205.0" y2="130.0" /><line stroke="rgb(0,0,0)" x1="3539.9539" x2="3544.9539" y1="130.0" y2="130.0" /><line stroke="rgb(0,0,0)" x1="3544.9539" x2="3565.4539" y1="130.0" y2="130.0" /><line stroke="rgb(0,0,0)" x1="3565.4539" x2="3585.4539" y1="130.0" y2="130.0" /><line stroke="rgb(0,0,0)" x1="3585.4539" x2="3590.4539" y1="130.0" y2="130.0" /><line stroke="rgb(0,0,0)" x1="3590.4539" x2="3602.59675" y1="130.0" y2="130.0" /><line stroke="rgb(0,0,0)" x1="3602.59675" x2="3622.59675" y1="130.0" y2="55.0" /><line stroke="rgb(0,0,0)" x1="3622.59675" x2="3627.59675" y1="55.0" y2="55.0" /><line stroke="rgb(0,0,0)" x1="3590.4539" x2="3602.59675" y1="130.0" y2="130.0" /><line stroke="rgb(0,0,0)" x1="3602.59675" x2="3622.59675" y1="130.0" y2="205.0" /><line stroke="rgb(0,0,0)" x1="3622.59675" x2="3627.59675" y1="205.0" y2="205.0" /><line stroke="rgb(0,0,0)" x1="3627.59675" x2="3632.59675" y1="55.0" y2="55.0" /><line stroke="rgb(0,0,0)" x1="3632.59675" x2="3689.003" y1="55.0" y2="55.0" /><line stroke="rgb(0,0,0)" x1="3689.003" x2="3694.003" y1="55.0" y2="55.0" /><line stroke="rgb(0,0,0)" x1="3627.59675" x2="3669.003" y1="205.0" y2="205.0" /><line stroke="rgb(0,0,0)" x1="3669.003" x2="3689.003" y1="205.0" y2="205.0" /><line stroke="rgb(0,0,0)" x1="3689.003" x2="3694.003" y1="205.0" y2="205.0" /><line stroke="rgb(0,0,0)" x1="3694.003" x2="3704.003" y1="55.0" y2="55.0" /><line stroke="rgb(0,0,0)" x1="3704.003" x2="3740.4315500000002" y1="55.0" y2="55.0" /><line stroke="rgb(0,0,0)" x1="3740.4315500000002" x2="3745.4315500000002" y1="55.0" y2="55.0" /><line stroke="rgb(0,0,0)" x1="3694.003" x2="3720.4315500000002" y1="205.0" y2="205.0" /><line stroke="rgb(0,0,0)" x1="3720.4315500000002" x2="3740.4315500000002" y1="205.0" y2="205.0" /><line stroke="rgb(0,0,0)" x1="3740.4315500000002" x2="3745.4315500000002" y1="205.0" y2="205.0" /><line stroke="rgb(0,0,0)" x1="3745.4315500000002" x2="3757.9315500000002" y1="55.0" y2="55.0" /><line stroke="rgb(0,0,0)" x1="3757.9315500000002" x2="3785.4315500000002" y1="55.0" y2="130.0" /><line stroke="rgb(0,0,0)" x1="3785.4315500000002" x2="3790.4315500000002" y1="130.0" y2="130.0" /><line stroke="rgb(0,0,0)" x1="3745.4315500000002" x2="3765.4315500000002" y1="205.0" y2="205.0" /><line stroke="rgb(0,0,0)" x1="3765.4315500000002" x2="3785.4315500000002" y1="205.0" y2="130.0" /><line stroke="rgb(0,0,0)" x1="3785.4315500000002" x2="3790.4315500000002" y1="130.0" y2="130.0" /><rect fill="rgb(150,150,150)" height="0.8" stroke="rgb(0,0,0)" width="15.0" x="5.0" y="129.6" /><text fill="black" x="5.0" y="150.4">H0</text><rect fill="rgb(255,150,255)" height="0.8" stroke="rgb(0,0,0)" width="15.0" x="50.0" y="129.6" /><text fill="black" x="50.0" y="150.4">E1</text><rect fill="rgb(255,150,255)" height="0.4" stroke="rgb(0,0,0)" width="10.0" x="95.0" y="129.8" /><text fill="black" x="95.0" y="150.2">E2</text><rect fill="rgb(255,150,255)" height="0.4" stroke="rgb(0,0,0)" width="5.0" x="135.0" y="129.8" /><text fill="black" x="135.0" y="150.2">E3</text><rect fill="rgb(150,150,150)" height="0.8" stroke="rgb(0,0,0)" width="32.5" x="170.0" y="129.6" /><text fill="black" x="170.0" y="150.4">H4</text><rect fill="rgb(255,150,255)" height="1.6" stroke="rgb(0,0,0)" width="43.75" x="232.5" y="129.2" /><text fill="black" x="232.5" y="150.8">E5</text><rect fill="rgb(255,150,255)" height="1.6" stroke="rgb(0,0,0)" width="36.25" x="306.25" y="129.2" /><text fill="black" x="306.25" y="150.8">E6</text><rect fill="rgb(150,150,150)" height="0.0" stroke="rgb(0,0,0)" width="0.0" x="372.5" y="55.0" /><text fill="black" x="372.5" y="75.0">X7</text><rect fill="rgb(150,150,150)" height="1.2" stroke="rgb(0,0,0)" width="15.0" x="372.5" y="204.4" /><text fill="black" x="372.5" y="225.6">H8</text><rect fill="rgb(255,150,255)" height="2.0" stroke="rgb(0,0,0)" width="35.0" x="417.5" y="129.0" /><text fill="black" x="417.5" y="151.0">E9</text><rect fill="rgb(150,150,150)" height="3.2" stroke="rgb(0,0,0)" width="69.375" x="482.5" y="128.4" /><text fill="black" x="482.5" y="151.6">H10</text><rect fill="rgb(150,150,150)" height="6.800000000000001" stroke="rgb(0,0,0)" width="49.11765" x="581.875" y="126.6" /><text fill="black" x="581.875" y="153.4">H11</text><rect fill="rgb(150,150,150)" height="3.5999999999999996" stroke="rgb(0,0,0)" width="15.0" x="660.99265" y="128.2" /><text fill="black" x="660.99265" y="151.8">H12</text><rect fill="rgb(255,150,150)" height="3.5999999999999996" stroke="rgb(0,0,0)" width="5.0" x="705.99265" y="128.2" /><text fill="black" x="705.99265" y="151.8">E13</text><rect fill="rgb(255,150,255)" height="2.0" stroke="rgb(0,0,0)" width="29.0" x="740.99265" y="129.0" /><text fill="black" x="740.99265" y="151.0">E14</text><rect fill="rgb(150,150,150)" height="0.4" stroke="rgb(0,0,0)" width="15.0" x="799.9926500000001" y="129.8" /><text fill="black" x="799.9926500000001" y="150.2">H15</text><rect fill="rgb(255,150,255)" height="2.0" stroke="rgb(0,0,0)" width="30.0" x="844.9926500000001" y="129.0" /><text fill="black" x="844.9926500000001" y="151.0">E16</text><rect fill="rgb(255,150,150)" height="78.0" stroke="rgb(0,0,0)" width="6.41025" x="904.9926500000001" y="91.0" /><text fill="black" x="904.9926500000001" y="189.0">E17</text><rect fill="rgb(150,150,150)" height="93.2" stroke="rgb(0,0,0)" width="38.4335" x="941.4029" y="83.4" /><text fill="black" x="941.4029" y="196.6">H18</text><rect fill="rgb(255,255,150)" height="0.4" stroke="rgb(0,0,0)" width="5.0" x="1009.8364000000001" y="129.8" /><text fill="black" x="1009.8364000000001" y="150.2">E19</text><rect fill="rgb(150,150,150)" height="33.2" stroke="rgb(0,0,0)" width="17.108449999999998" x="1044.8364000000001" y="113.4" /><text fill="black" x="1044.8364000000001" y="166.6">H20</text><rect fill="rgb(255,255,150)" height="2.8000000000000003" stroke="rgb(0,0,0)" width="6.4285499999999995" x="1091.94485" y="128.6" /><text fill="black" x="1091.94485" y="151.4">E21</text><rect fill="rgb(150,150,150)" height="0.8" stroke="rgb(0,0,0)" width="20.0" x="1128.3734000000002" y="129.6" /><text fill="black" x="1128.3734000000002" y="150.4">H22</text><rect fill="rgb(255,255,150)" height="6.4" stroke="rgb(0,0,0)" width="6.5625" x="1178.3734000000002" y="126.8" /><text fill="black" x="1178.3734000000002" y="153.2">E23</text><rect fill="rgb(150,150,150)" height="100.0" stroke="rgb(0,0,0)" width="104.46" x="1214.9359000000002" y="80.0" /><text fill="black" x="1214.9359000000002" y="200.0">H24</text><rect fill="rgb(150,150,150)" height="0.4" stroke="rgb(0,0,0)" width="30.0" x="1349.3959" y="54.8" /><text fill="black" x="1349.3959" y="75.2">H25</text><rect fill="rgb(70,175,70)" height="1.2" stroke="rgb(0,0,0)" width="5.0" x="1349.3959" y="204.4" /><text fill="black" x="1349.3959" y="225.6">E26</text><rect fill="rgb(70,175,70)" height="1.2" stroke="rgb(0,0,0)" width="5.0" x="1409.3959" y="129.4" /><text fill="black" x="1409.3959" y="150.6">E27</text><rect fill="rgb(150,150,150)" height="0.4" stroke="rgb(0,0,0)" width="15.0" x="1444.3959" y="129.8" /><text fill="black" x="1444.3959" y="150.2">H28</text><rect fill="rgb(150,150,255)" height="49.6" stroke="rgb(0,0,0)" width="9.7984" x="1489.3959" y="105.2" /><text fill="black" x="1489.3959" y="174.8">E29</text><rect fill="rgb(150,150,150)" height="100.0" stroke="rgb(0,0,0)" width="18.68" x="1529.1943" y="80.0" /><text fill="black" x="1529.1943" y="200.0">H30</text><rect fill="rgb(255,150,150)" height="100.0" stroke="rgb(0,0,0)" width="16.7" x="1577.8743" y="80.0" /><text fill="black" x="1577.8743" y="200.0">E31</text><rect fill="rgb(150,150,150)" height="18.0" stroke="rgb(0,0,0)" width="15.44445" x="1624.5742999999998" y="121.0" /><text fill="black" x="1624.5742999999998" y="159.0">H32</text><rect fill="rgb(255,150,150)" height="100.0" stroke="rgb(0,0,0)" width="16.1" x="1670.0187499999997" y="80.0" /><text fill="black" x="1670.0187499999997" y="200.0">E33</text><rect fill="rgb(150,150,150)" height="16.8" stroke="rgb(0,0,0)" width="24.523799999999998" x="1716.11875" y="121.6" /><text fill="black" x="1716.11875" y="158.4">H34</text><rect fill="rgb(150,150,255)" height="49.6" stroke="rgb(0,0,0)" width="9.8387" x="1770.64255" y="30.2" /><text fill="black" x="1770.64255" y="99.8">E35</text><rect fill="rgb(150,150,150)" height="3.2" stroke="rgb(0,0,0)" width="15.625" x="1770.64255" y="203.4" /><text fill="black" x="1770.64255" y="226.6">H36</text><rect fill="rgb(150,255,255)" height="4.8" stroke="rgb(0,0,0)" width="9.583350000000001" x="1816.26755" y="52.6" /><text fill="black" x="1816.26755" y="77.4">E37</text><rect fill="rgb(150,150,150)" height="4.3999999999999995" stroke="rgb(0,0,0)" width="20.45455" x="1816.26755" y="202.8" /><text fill="black" x="1816.26755" y="227.2">H38</text><rect fill="rgb(150,150,150)" height="0.8" stroke="rgb(0,0,0)" width="15.0" x="1866.7221" y="54.6" /><text fill="black" x="1866.7221" y="75.4">H39</text><rect fill="rgb(150,255,255)" height="4.8" stroke="rgb(0,0,0)" width="9.583350000000001" x="1866.7221" y="202.6" /><text fill="black" x="1866.7221" y="227.4">E40</text><rect fill="rgb(150,255,150)" height="35.6" stroke="rgb(0,0,0)" width="7.86515" x="1911.7221" y="112.2" /><text fill="black" x="1911.7221" y="167.8">E41</text><rect fill="rgb(150,150,150)" height="6.800000000000001" stroke="rgb(0,0,0)" width="21.7647" x="1949.58725" y="126.6" /><text fill="black" x="1949.58725" y="153.4">H42</text><rect fill="rgb(150,255,150)" height="7.199999999999999" stroke="rgb(0,0,0)" width="8.8889" x="2001.3519500000002" y="126.4" /><text fill="black" x="2001.3519500000002" y="153.6">E43</text><rect fill="rgb(150,150,150)" height="73.2" stroke="rgb(0,0,0)" width="15.90165" x="2040.2408500000001" y="93.4" /><text fill="black" x="2040.2408500000001" y="186.6">H44</text><rect fill="rgb(150,150,150)" height="95.19999999999999" stroke="rgb(0,0,0)" width="26.911749999999998" x="2086.1425000000004" y="82.4" /><text fill="black" x="2086.1425000000004" y="197.6">H45</text><rect fill="rgb(150,255,150)" height="0.4" stroke="rgb(0,0,0)" width="5.0" x="2143.05425" y="129.8" /><text fill="black" x="2143.05425" y="150.2">E46</text><rect fill="rgb(150,150,150)" height="0.4" stroke="rgb(0,0,0)" width="15.0" x="2178.05425" y="129.8" /><text fill="black" x="2178.05425" y="150.2">H47</text><rect fill="rgb(150,150,150)" height="4.3999999999999995" stroke="rgb(0,0,0)" width="22.727249999999998" x="2223.05425" y="127.8" /><text fill="black" x="2223.05425" y="152.2">H48</text><rect fill="rgb(150,255,150)" height="28.799999999999997" stroke="rgb(0,0,0)" width="7.56945" x="2275.7815" y="115.6" /><text fill="black" x="2275.7815" y="164.4">E49</text><rect fill="rgb(150,150,150)" height="100.0" stroke="rgb(0,0,0)" width="85.61999999999999" x="2313.35095" y="80.0" /><text fill="black" x="2313.35095" y="200.0">H50</text><rect fill="rgb(150,150,150)" height="4.0" stroke="rgb(0,0,0)" width="21.0" x="2428.9709500000004" y="53.0" /><text fill="black" x="2428.9709500000004" y="77.0">H51</text><rect fill="rgb(255,255,150)" height="0.8" stroke="rgb(0,0,0)" width="5.0" x="2428.9709500000004" y="204.6" /><text fill="black" x="2428.9709500000004" y="225.4">E52</text><rect fill="rgb(175,70,175)" height="0.8" stroke="rgb(0,0,0)" width="5.0" x="2479.9709500000004" y="129.6" /><text fill="black" x="2479.9709500000004" y="150.4">E53</text><rect fill="rgb(175,70,175)" height="0.8" stroke="rgb(0,0,0)" width="5.0" x="2514.9709500000004" y="129.6" /><text fill="black" x="2514.9709500000004" y="150.4">E54</text><rect fill="rgb(150,150,150)" height="12.4" stroke="rgb(0,0,0)" width="21.612900000000003" x="2549.9709500000004" y="123.8" /><text fill="black" x="2549.9709500000004" y="156.2">H55</text><rect fill="rgb(150,150,150)" height="0.8" stroke="rgb(0,0,0)" width="15.0" x="2601.58385" y="129.6" /><text fill="black" x="2601.58385" y="150.4">H56</text><rect fill="rgb(150,150,150)" height="96.39999999999999" stroke="rgb(0,0,0)" width="51.660000000000004" x="2646.58385" y="81.80000000000001" /><text fill="black" x="2646.58385" y="198.2">H57</text><rect fill="rgb(70,70,175)" height="1.2" stroke="rgb(0,0,0)" width="10.0" x="2728.24385" y="129.4" /><text fill="black" x="2728.24385" y="150.6">E58</text><rect fill="rgb(150,150,150)" height="13.200000000000001" stroke="rgb(0,0,0)" width="20.0" x="2768.24385" y="123.4" /><text fill="black" x="2768.24385" y="156.6">H59</text><rect fill="rgb(150,150,150)" height="27.6" stroke="rgb(0,0,0)" width="26.811600000000002" x="2818.24385" y="116.2" /><text fill="black" x="2818.24385" y="163.8">H60</text><rect fill="rgb(150,150,150)" height="15.6" stroke="rgb(0,0,0)" width="41.15385" x="2875.05545" y="122.2" /><text fill="black" x="2875.05545" y="157.8">H61</text><rect fill="rgb(70,70,175)" height="2.0" stroke="rgb(0,0,0)" width="9.0" x="2946.2093" y="54.0" /><text fill="black" x="2946.2093" y="76.0">E62</text><rect fill="rgb(150,150,150)" height="2.8000000000000003" stroke="rgb(0,0,0)" width="16.42855" x="2946.2093" y="203.6" /><text fill="black" x="2946.2093" y="226.4">H63</text><rect fill="rgb(150,150,150)" height="33.2" stroke="rgb(0,0,0)" width="23.6747" x="2992.63785" y="38.4" /><text fill="black" x="2992.63785" y="91.6">H64</text><rect fill="rgb(175,70,70)" height="7.6" stroke="rgb(0,0,0)" width="5.0" x="2992.63785" y="201.2" /><text fill="black" x="2992.63785" y="228.8">E65</text><rect fill="rgb(150,150,150)" height="5.2" stroke="rgb(0,0,0)" width="18.46155" x="3046.31255" y="127.4" /><text fill="black" x="3046.31255" y="152.6">H66</text><rect fill="rgb(150,150,150)" height="18.8" stroke="rgb(0,0,0)" width="20.85105" x="3094.7741" y="120.6" /><text fill="black" x="3094.7741" y="159.4">H67</text><rect fill="rgb(150,150,150)" height="99.6" stroke="rgb(0,0,0)" width="56.4055" x="3145.6251500000003" y="80.2" /><text fill="black" x="3145.6251500000003" y="199.8">H68</text><rect fill="rgb(150,150,150)" height="98.0" stroke="rgb(0,0,0)" width="15.550999999999998" x="3232.0306500000006" y="81.0" /><text fill="black" x="3232.0306500000006" y="199.0">H69</text><rect fill="rgb(150,150,150)" height="6.800000000000001" stroke="rgb(0,0,0)" width="17.0588" x="3277.58165" y="126.6" /><text fill="black" x="3277.58165" y="153.4">H70</text><rect fill="rgb(150,150,150)" height="0.4" stroke="rgb(0,0,0)" width="15.0" x="3324.64045" y="129.8" /><text fill="black" x="3324.64045" y="150.2">H71</text><rect fill="rgb(150,150,150)" height="98.0" stroke="rgb(0,0,0)" width="44.42855" x="3369.64045" y="81.0" /><text fill="black" x="3369.64045" y="199.0">H72</text><rect fill="rgb(150,150,150)" height="67.2" stroke="rgb(0,0,0)" width="20.773799999999998" x="3444.069" y="96.4" /><text fill="black" x="3444.069" y="183.6">H73</text><rect fill="rgb(150,150,150)" height="18.0" stroke="rgb(0,0,0)" width="20.1111" x="3494.8428000000004" y="46.0" /><text fill="black" x="3494.8428000000004" y="84.0">H74</text><rect fill="rgb(175,70,70)" height="7.6" stroke="rgb(0,0,0)" width="5.0" x="3494.8428000000004" y="201.2" /><text fill="black" x="3494.8428000000004" y="228.8">E75</text><rect fill="rgb(150,150,150)" height="4.0" stroke="rgb(0,0,0)" width="15.5" x="3544.9539" y="128.0" /><text fill="black" x="3544.9539" y="152.0">H76</text><rect fill="rgb(255,255,150)" height="2.8000000000000003" stroke="rgb(0,0,0)" width="7.142849999999999" x="3590.4539" y="128.6" /><text fill="black" x="3590.4539" y="151.4">E77</text><rect fill="rgb(150,150,150)" height="0.0" stroke="rgb(0,0,0)" width="0.0" x="3627.59675" y="55.0" /><text fill="black" x="3627.59675" y="75.0">X78</text><rect fill="rgb(150,150,150)" height="12.8" stroke="rgb(0,0,0)" width="36.40625" x="3627.59675" y="198.6" /><text fill="black" x="3627.59675" y="231.4">H79</text><rect fill="rgb(255,255,150)" height="0.4" stroke="rgb(0,0,0)" width="5.0" x="3694.003" y="54.8" /><text fill="black" x="3694.003" y="75.2">E80</text><rect fill="rgb(150,150,150)" height="14.000000000000002" stroke="rgb(0,0,0)" width="21.42855" x="3694.003" y="198.0" /><text fill="black" x="3694.003" y="232.0">H81</text><rect fill="rgb(70,70,175)" height="0.8" stroke="rgb(0,0,0)" width="7.5" x="3745.4315500000002" y="54.6" /><text fill="black" x="3745.4315500000002" y="75.4">E82</text><rect fill="rgb(150,150,150)" height="0.8" stroke="rgb(0,0,0)" width="15.0" x="3745.4315500000002" y="204.6" /><text fill="black" x="3745.4315500000002" y="225.4">H83</text><rect fill="rgb(150,150,150)" height="0.0" stroke="rgb(0,0,0)" width="0.0" x="3790.4315500000002" y="130.0" /><text fill="black" x="3790.4315500000002" y="150.0">X84</text><path d="M 100.0,130.0 a 78.88399675582937,78.88399675582937 0 0,0 -42.5,-0.0" stroke="rgb(255,150,255)" stroke-width="2" /><path d="M 100.0,130.0 a 78.88399675582937,78.88399675582937 0 0,0 -42.5,-0.0" stroke="rgb(0,0,0)" stroke-width="0.2" /><path d="M 254.375,130.0 a 433.40184473920567,433.40184473920567 0 0,0 -196.875,-0.0" stroke="rgb(255,150,255)" stroke-width="2" /><path d="M 254.375,130.0 a 433.40184473920567,433.40184473920567 0 0,0 -196.875,-0.0" stroke="rgb(0,0,0)" stroke-width="0.2" /><path d="M 137.5,130.0 a 895.4884442136876,895.4884442136876 0 0,0 617.99265,-0.0" stroke="rgb(255,150,255)" stroke-width="2" /><path d="M 137.5,130.0 a 895.4884442136876,895.4884442136876 0 0,0 617.99265,-0.0" stroke="rgb(0,0,0)" stroke-width="0.2" /><path d="M 324.375,130.0 a 134.22192782772007,134.22192782772007 0 0,0 -70.0,-0.0" stroke="rgb(255,150,255)" stroke-width="2" /><path d="M 324.375,130.0 a 134.22192782772007,134.22192782772007 0 0,0 -70.0,-0.0" stroke="rgb(0,0,0)" stroke-width="0.2" /><path d="M 435.0,130.0 a 222.16114083389053,222.16114083389053 0 0,0 -110.625,-0.0" stroke="rgb(255,150,255)" stroke-width="2" /><path d="M 435.0,130.0 a 222.16114083389053,222.16114083389053 0 0,0 -110.625,-0.0" stroke="rgb(0,0,0)" stroke-width="0.2" /><path d="M 859.9926500000001,130.0 a 1153.5632226810187,1153.5632226810187 0 0,0 -424.99265000000014,-0.0" stroke="rgb(255,150,255)" stroke-width="2" /><path d="M 859.9926500000001,130.0 a 1153.5632226810187,1153.5632226810187 0 0,0 -424.99265000000014,-0.0" stroke="rgb(0,0,0)" stroke-width="0.2" /><path d="M 708.49265,130.0 a 2164.0404856618393,2164.0404856618393 0 0,0 969.5760999999997,-0.0" stroke="rgb(255,150,150)" stroke-width="2" /><path d="M 708.49265,130.0 a 2164.0404856618393,2164.0404856618393 0 0,0 969.5760999999997,-0.0" stroke="rgb(0,0,0)" stroke-width="0.2" /><path d="M 859.9926500000001,130.0 a 208.42944148757005,208.42944148757005 0 0,0 -104.50000000000011,-0.0" stroke="rgb(255,150,255)" stroke-width="2" /><path d="M 859.9926500000001,130.0 a 208.42944148757005,208.42944148757005 0 0,0 -104.50000000000011,-0.0" stroke="rgb(0,0,0)" stroke-width="0.2" /><path d="M 1586.2242999999999,130.0 a 2227.521303805047,2227.521303805047 0 0,0 -678.0265249999998,-0.0" stroke="rgb(255,150,150)" stroke-width="2" /><path d="M 1586.2242999999999,130.0 a 2227.521303805047,2227.521303805047 0 0,0 -678.0265249999998,-0.0" stroke="rgb(0,0,0)" stroke-width="0.2" /><path d="M 1181.6546500000002,130.0 a 362.2785886262236,362.2785886262236 0 0,0 -169.31825000000003,-0.0" stroke="rgb(255,255,150)" stroke-width="2" /><path d="M 1181.6546500000002,130.0 a 362.2785886262236,362.2785886262236 0 0,0 -169.31825000000003,-0.0" stroke="rgb(0,0,0)" stroke-width="0.2" /><path d="M 1095.1591250000001,130.0 a 44.50335419324007,44.50335419324007 0 0,0 86.49552500000004,-0.0" stroke="rgb(255,255,150)" stroke-width="2" /><path d="M 1095.1591250000001,130.0 a 44.50335419324007,44.50335419324007 0 0,0 86.49552500000004,-0.0" stroke="rgb(0,0,0)" stroke-width="0.2" /><path d="M 1181.6546500000002,130.0 a 3590.3767812402057,3590.3767812402057 0 0,0 1249.8163000000002,75.0" stroke="rgb(255,255,150)" stroke-width="2" /><path d="M 1181.6546500000002,130.0 a 3590.3767812402057,3590.3767812402057 0 0,0 1249.8163000000002,75.0" stroke="rgb(0,0,0)" stroke-width="0.2" /><path d="M 3594.025325,130.0 a 17408.940227183666,17408.940227183666 0 0,0 -2412.370675,-0.0" stroke="rgb(255,255,150)" stroke-width="2" /><path d="M 3594.025325,130.0 a 17408.940227183666,17408.940227183666 0 0,0 -2412.370675,-0.0" stroke="rgb(0,0,0)" stroke-width="0.2" /><path d="M 1411.8959,130.0 a 189.75433470717792,189.75433470717792 0 0,0 -60.0,75.0" stroke="rgb(70,175,70)" stroke-width="2" /><path d="M 1411.8959,130.0 a 189.75433470717792,189.75433470717792 0 0,0 -60.0,75.0" stroke="rgb(0,0,0)" stroke-width="0.2" /><path d="M 1775.5619,55.0 a 702.3995660617246,702.3995660617246 0 0,0 -281.2667999999999,75.0" stroke="rgb(150,150,255)" stroke-width="2" /><path d="M 1775.5619,55.0 a 702.3995660617246,702.3995660617246 0 0,0 -281.2667999999999,75.0" stroke="rgb(0,0,0)" stroke-width="0.2" /><path d="M 1678.0687499999997,130.0 a 180.5892507064009,180.5892507064009 0 0,0 -91.84444999999982,-0.0" stroke="rgb(255,150,150)" stroke-width="2" /><path d="M 1678.0687499999997,130.0 a 180.5892507064009,180.5892507064009 0 0,0 -91.84444999999982,-0.0" stroke="rgb(0,0,0)" stroke-width="0.2" /><path d="M 1871.513775,205.0 a 334.69265552723357,334.69265552723357 0 0,0 -50.45454999999993,-150.0" stroke="rgb(150,255,255)" stroke-width="2" /><path d="M 1871.513775,205.0 a 334.69265552723357,334.69265552723357 0 0,0 -50.45454999999993,-150.0" stroke="rgb(0,0,0)" stroke-width="0.2" /><path d="M 2005.7964000000002,130.0 a 176.8982736579149,176.8982736579149 0 0,0 -90.14172500000018,-0.0" stroke="rgb(150,255,150)" stroke-width="2" /><path d="M 2005.7964000000002,130.0 a 176.8982736579149,176.8982736579149 0 0,0 -90.14172500000018,-0.0" stroke="rgb(0,0,0)" stroke-width="0.2" /><path d="M 2279.566225,130.0 a 937.7112295120212,937.7112295120212 0 0,0 -363.91155000000003,-0.0" stroke="rgb(150,255,150)" stroke-width="2" /><path d="M 2279.566225,130.0 a 937.7112295120212,937.7112295120212 0 0,0 -363.91155000000003,-0.0" stroke="rgb(0,0,0)" stroke-width="0.2" /><path d="M 2279.566225,130.0 a 276.1397840013319,276.1397840013319 0 0,0 -134.0119749999999,-0.0" stroke="rgb(150,255,150)" stroke-width="2" /><path d="M 2279.566225,130.0 a 276.1397840013319,276.1397840013319 0 0,0 -134.0119749999999,-0.0" stroke="rgb(0,0,0)" stroke-width="0.2" /><path d="M 2517.4709500000004,130.0 a 64.37804134497432,64.37804134497432 0 0,0 -35.0,-0.0" stroke="rgb(175,70,175)" stroke-width="2" /><path d="M 2517.4709500000004,130.0 a 64.37804134497432,64.37804134497432 0 0,0 -35.0,-0.0" stroke="rgb(0,0,0)" stroke-width="0.2" /><path d="M 2950.7093,55.0 a 523.5156350842457,523.5156350842457 0 0,0 -217.46545000000015,75.0" stroke="rgb(70,70,175)" stroke-width="2" /><path d="M 2950.7093,55.0 a 523.5156350842457,523.5156350842457 0 0,0 -217.46545000000015,75.0" stroke="rgb(0,0,0)" stroke-width="0.2" /><path d="M 3749.1815500000002,55.0 a 2840.6142592994206,2840.6142592994206 0 0,0 -798.4722500000003,-0.0" stroke="rgb(70,70,175)" stroke-width="2" /><path d="M 3749.1815500000002,55.0 a 2840.6142592994206,2840.6142592994206 0 0,0 -798.4722500000003,-0.0" stroke="rgb(0,0,0)" stroke-width="0.2" /><path d="M 3497.3428000000004,205.0 a 1450.5557696199232,1450.5557696199232 0 0,0 -502.2049500000003,-0.0" stroke="rgb(175,70,70)" stroke-width="2" /><path d="M 3497.3428000000004,205.0 a 1450.5557696199232,1450.5557696199232 0 0,0 -502.2049500000003,-0.0" stroke="rgb(0,0,0)" stroke-width="0.2" /><path d="M 3696.503,55.0 a 259.6768899873338,259.6768899873338 0 0,0 -102.47767500000009,75.0" stroke="rgb(255,255,150)" stroke-width="2" /><path d="M 3696.503,55.0 a 259.6768899873338,259.6768899873338 0 0,0 -102.47767500000009,75.0" stroke="rgb(0,0,0)" stroke-width="0.2" /></svg>