<?xml version="1.0" encoding="utf-8" ?>
<svg baseProfile="full" height="100%" style="font-size:14;font-family:Sans, Arial;stroke-width:1;fill:none" version="1.1" width="100%" xmlns="http://www.w3.org/2000/svg" xmlns:ev="http://www.w3.org/2001/xml-events" xmlns:xlink="http://www.w3.org/1999/xlink"><defs /><rect fill="none" height="130.0" stroke="none" width="1690.0" x="0" y="0" /><line stroke="rgb(0,0,0)" x1="5.0" x2="25.0" y1="55.0" y2="55.0" /><line stroke="rgb(0,0,0)" x1="25.0" x2="45.0" y1="55.0" y2="55.0" /><line stroke="rgb(0,0,0)" x1="45.0" x2="50.0" y1="55.0" y2="55.0" /><line stroke="rgb(0,0,0)" x1="50.0" x2="130.0" y1="55.0" y2="55.0" /><line stroke="rgb(0,0,0)" x1="130.0" x2="150.0" y1="55.0" y2="55.0" /><line stroke="rgb(0,0,0)" x1="150.0" x2="155.0" y1="55.0" y2="55.0" /><line stroke="rgb(0,0,0)" x1="155.0" x2="200.0" y1="55.0" y2="55.0" /><line stroke="rgb(0,0,0)" x1="200.0" x2="220.0" y1="55.0" y2="55.0" /><line stroke="rgb(0,0,0)" x1="220.0" x2="225.0" y1="55.0" y2="55.0" /><line stroke="rgb(0,0,0)" x1="225.0" x2="350.0" y1="55.0" y2="55.0" /><line stroke="rgb(0,0,0)" x1="350.0" x2="370.0" y1="55.0" y2="55.0" /><line stroke="rgb(0,0,0)" x1="370.0" x2="375.0" y1="55.0" y2="55.0" /><line stroke="rgb(0,0,0)" x1="375.0" x2="400.0" y1="55.0" y2="55.0" /><line stroke="rgb(0,0,0)" x1="400.0" x2="420.0" y1="55.0" y2="55.0" /><line stroke="rgb(0,0,0)" x1="420.0" x2="425.0" y1="55.0" y2="55.0" /><line stroke="rgb(0,0,0)" x1="425.0" x2="470.0" y1="55.0" y2="55.0" /><line stroke="rgb(0,0,0)" x1="470.0" x2="490.0" y1="55.0" y2="55.0" /><line stroke="rgb(0,0,0)" x1="490.0" x2="495.0" y1="55.0" y2="55.0" /><line stroke="rgb(0,0,0)" x1="495.0" x2="525.0" y1="55.0" y2="55.0" /><line stroke="rgb(0,0,0)" x1="525.0" x2="545.0" y1="55.0" y2="55.0" /><line stroke="rgb(0,0,0)" x1="545.0" x2="550.0" y1="55.0" y2="55.0" /><line stroke="rgb(0,0,0)" x1="550.0" x2="575.0" y1="55.0" y2="55.0" /><line stroke="rgb(0,0,0)" x1="575.0" x2="595.0" y1="55.0" y2="55.0" /><line stroke="rgb(0,0,0)" x1="595.0" x2="600.0" y1="55.0" y2="55.0" /><line stroke="rgb(0,0,0)" x1="600.0" x2="625.0" y1="55.0" y2="55.0" /><line stroke="rgb(0,0,0)" x1="625.0" x2="645.0" y1="55.0" y2="55.0" /><line stroke="rgb(0,0,0)" x1="645.0" x2="650.0" y1="55.0" y2="55.0" /><line stroke="rgb(0,0,0)" x1="650.0" x2="670.0" y1="55.0" y2="55.0" /><line stroke="rgb(0,0,0)" x1="670.0" x2="690.0" y1="55.0" y2="55.0" /><line stroke="rgb(0,0,0)" x1="690.0" x2="695.0" y1="55.0" y2="55.0" /><line stroke="rgb(0,0,0)" x1="695.0" x2="735.0" y1="55.0" y2="55.0" /><line stroke="rgb(0,0,0)" x1="735.0" x2="755.0" y1="55.0" y2="55.0" /><line stroke="rgb(0,0,0)" x1="755.0" x2="760.0" y1="55.0" y2="55.0" /><line stroke="rgb(0,0,0)" x1="760.0" x2="800.0" y1="55.0" y2="55.0" /><line stroke="rgb(0,0,0)" x1="800.0" x2="820.0" y1="55.0" y2="55.0" /><line stroke="rgb(0,0,0)" x1="820.0" x2="825.0" y1="55.0" y2="55.0" /><line stroke="rgb(0,0,0)" x1="825.0" x2="845.0" y1="55.0" y2="55.0" /><line stroke="rgb(0,0,0)" x1="845.0" x2="865.0" y1="55.0" y2="55.0" /><line stroke="rgb(0,0,0)" x1="865.0" x2="870.0" y1="55.0" y2="55.0" /><line stroke="rgb(0,0,0)" x1="870.0" x2="985.0" y1="55.0" y2="55.0" /><line stroke="rgb(0,0,0)" x1="985.0" x2="1005.0" y1="55.0" y2="55.0" /><line stroke="rgb(0,0,0)" x1="1005.0" x2="1010.0" y1="55.0" y2="55.0" /><line stroke="rgb(0,0,0)" x1="1010.0" x2="1085.0" y1="55.0" y2="55.0" /><line stroke="rgb(0,0,0)" x1="1085.0" x2="1105.0" y1="55.0" y2="55.0" /><line stroke="rgb(0,0,0)" x1="1105.0" x2="1110.0" y1="55.0" y2="55.0" /><line stroke="rgb(0,0,0)" x1="1110.0" x2="1170.0" y1="55.0" y2="55.0" /><line stroke="rgb(0,0,0)" x1="1170.0" x2="1190.0" y1="55.0" y2="55.0" /><line stroke="rgb(0,0,0)" x1="1190.0" x2="1195.0" y1="55.0" y2="55.0" /><line stroke="rgb(0,0,0)" x1="1195.0" x2="1245.0" y1="55.0" y2="55.0" /><line stroke="rgb(0,0,0)" x1="1245.0" x2="1265.0" y1="55.0" y2="55.0" /><line stroke="rgb(0,0,0)" x1="1265.0" x2="1270.0" y1="55.0" y2="55.0" /><line stroke="rgb(0,0,0)" x1="1270.0" x2="1365.0" y1="55.0" y2="55.0" /><line stroke="rgb(0,0,0)" x1="1365.0" x2="1385.0" y1="55.0" y2="55.0" /><line stroke="rgb(0,0,0)" x1="1385.0" x2="1390.0" y1="55.0" y2="55.0" /><line stroke="rgb(0,0,0)" x1="1390.0" x2="1470.0" y1="55.0" y2="55.0" /><line stroke="rgb(0,0,0)" x1="1470.0" x2="1490.0" y1="55.0" y2="55.0" /><line stroke="rgb(0,0,0)" x1="1490.0" x2="1495.0" y1="55.0" y2="55.0" /><line stroke="rgb(0,0,0)" x1="1495.0" x2="1600.0" y1="55.0" y2="55.0" /><line stroke="rgb(0,0,0)" x1="1600.0" x2="1620.0" y1="55.0" y2="55.0" /><line stroke="rgb(0,0,0)" x1="1620.0" x2="1625.0" y1="55.0" y2="55.0" /><polygon fill="rgb(255,150,150)" points="20.0,55.0 20.0,53.6 17.5,53.6 17.5,45.400000000000006 15.0,45.400000000000006 15.0,16.0 12.5,16.0 12.5,16.0 10.0,16.0 10.0,45.400000000000006 7.5,45.400000000000006 7.5,53.6 5.0,53.6 5.0,55.0 5.0,55.0 5.0,56.4 7.5,56.4 7.5,64.6 10.0,64.6 10.0,94.0 12.5,94.0 12.5,94.0 15.0,94.0 15.0,64.6 17.5,64.6 17.5,56.4 20.0,56.4 20.0,55.0" stroke="rgb(0,0,0)" /><text fill="black" x="5.0" y="114.0">E17</text><polygon fill="rgb(150,150,150)" points="125.0,55.0 125.0,54.8 120.0,54.8 120.0,54.6 115.0,54.6 115.0,52.599999999999994 112.5,52.599999999999994 112.5,52.4 110.0,52.4 110.0,52.199999999999996 107.5,52.199999999999996 107.5,22.6 105.0,22.6 105.0,14.799999999999997 102.5,14.799999999999997 102.5,10.199999999999996 100.0,10.199999999999996 100.0,9.199999999999996 97.5,9.199999999999996 97.5,8.799999999999997 95.0,8.799999999999997 95.0,8.400000000000006 87.5,8.400000000000006 87.5,8.400000000000006 80.0,8.400000000000006 80.0,8.799999999999997 77.5,8.799999999999997 77.5,9.199999999999996 75.0,9.199999999999996 75.0,10.199999999999996 72.5,10.199999999999996 72.5,14.799999999999997 70.0,14.799999999999997 70.0,22.6 67.5,22.6 67.5,52.199999999999996 65.0,52.199999999999996 65.0,52.4 62.5,52.4 62.5,52.599999999999994 60.0,52.599999999999994 60.0,54.6 55.0,54.6 55.0,54.8 50.0,54.8 50.0,55.0 50.0,55.0 50.0,55.2 55.0,55.2 55.0,55.4 60.0,55.4 60.0,57.400000000000006 62.5,57.400000000000006 62.5,57.6 65.0,57.6 65.0,57.800000000000004 67.5,57.800000000000004 67.5,87.4 70.0,87.4 70.0,95.2 72.5,95.2 72.5,99.80000000000001 75.0,99.80000000000001 75.0,100.80000000000001 77.5,100.80000000000001 77.5,101.2 80.0,101.2 80.0,101.6 87.5,101.6 87.5,101.6 95.0,101.6 95.0,101.2 97.5,101.2 97.5,100.80000000000001 100.0,100.80000000000001 100.0,99.80000000000001 102.5,99.80000000000001 102.5,95.2 105.0,95.2 105.0,87.4 107.5,87.4 107.5,57.800000000000004 110.0,57.800000000000004 110.0,57.6 112.5,57.6 112.5,57.400000000000006 115.0,57.400000000000006 115.0,55.4 120.0,55.4 120.0,55.2 125.0,55.2 125.0,55.0" stroke="rgb(0,0,0)" /><text fill="black" x="50.0" y="121.6">H18</text><polygon fill="rgb(150,150,150)" points="195.0,55.0 195.0,54.8 192.5,54.8 192.5,54.6 187.5,54.6 187.5,52.8 185.0,52.8 185.0,51.2 182.5,51.2 182.5,38.400000000000006 175.0,38.400000000000006 175.0,38.400000000000006 167.5,38.400000000000006 167.5,51.2 165.0,51.2 165.0,52.8 162.5,52.8 162.5,54.6 157.5,54.6 157.5,54.8 155.0,54.8 155.0,55.0 155.0,55.0 155.0,55.2 157.5,55.2 157.5,55.4 162.5,55.4 162.5,57.2 165.0,57.2 165.0,58.8 167.5,58.8 167.5,71.6 175.0,71.6 175.0,71.6 182.5,71.6 182.5,58.8 185.0,58.8 185.0,57.2 187.5,57.2 187.5,55.4 192.5,55.4 192.5,55.2 195.0,55.2 195.0,55.0" stroke="rgb(0,0,0)" /><text fill="black" x="155.0" y="91.6">H20</text><polygon fill="rgb(150,150,150)" points="345.0,55.0 345.0,54.8 340.0,54.8 340.0,53.4 337.5,53.4 337.5,8.400000000000006 335.0,8.400000000000006 335.0,6.800000000000004 332.5,6.800000000000004 332.5,6.200000000000003 330.0,6.200000000000003 330.0,5.799999999999997 327.5,5.799999999999997 327.5,5.200000000000003 325.0,5.200000000000003 325.0,5.0 285.0,5.0 285.0,5.0 245.0,5.0 245.0,5.200000000000003 242.5,5.200000000000003 242.5,5.799999999999997 240.0,5.799999999999997 240.0,6.200000000000003 237.5,6.200000000000003 237.5,6.800000000000004 235.0,6.800000000000004 235.0,8.400000000000006 232.5,8.400000000000006 232.5,53.4 230.0,53.4 230.0,54.8 225.0,54.8 225.0,55.0 225.0,55.0 225.0,55.2 230.0,55.2 230.0,56.6 232.5,56.6 232.5,101.6 235.0,101.6 235.0,103.19999999999999 237.5,103.19999999999999 237.5,103.8 240.0,103.8 240.0,104.2 242.5,104.2 242.5,104.8 245.0,104.8 245.0,105.0 285.0,105.0 285.0,105.0 325.0,105.0 325.0,104.8 327.5,104.8 327.5,104.2 330.0,104.2 330.0,103.8 332.5,103.8 332.5,103.19999999999999 335.0,103.19999999999999 335.0,101.6 337.5,101.6 337.5,56.6 340.0,56.6 340.0,55.2 345.0,55.2 345.0,55.0" stroke="rgb(0,0,0)" /><text fill="black" x="225.0" y="125.0">H24</text><polygon fill="rgb(150,150,255)" points="395.0,55.0 395.0,54.8 392.5,54.8 392.5,53.6 390.0,53.6 390.0,32.800000000000004 387.5,32.800000000000004 387.5,30.2 385.0,30.2 385.0,30.2 382.5,30.2 382.5,32.800000000000004 380.0,32.800000000000004 380.0,53.6 377.5,53.6 377.5,54.8 375.0,54.8 375.0,55.0 375.0,55.0 375.0,55.2 377.5,55.2 377.5,56.4 380.0,56.4 380.0,77.19999999999999 382.5,77.19999999999999 382.5,79.8 385.0,79.8 385.0,79.8 387.5,79.8 387.5,77.19999999999999 390.0,77.19999999999999 390.0,56.4 392.5,56.4 392.5,55.2 395.0,55.2 395.0,55.0" stroke="rgb(0,0,0)" /><text fill="black" x="375.0" y="99.8">E29</text><polygon fill="rgb(150,150,150)" points="465.0,55.0 465.0,54.8 455.0,54.8 455.0,19.0 452.5,19.0 452.5,5.0 445.0,5.0 445.0,5.0 437.5,5.0 437.5,19.0 435.0,19.0 435.0,54.8 425.0,54.8 425.0,55.0 425.0,55.0 425.0,55.2 435.0,55.2 435.0,91.0 437.5,91.0 437.5,105.0 445.0,105.0 445.0,105.0 452.5,105.0 452.5,91.0 455.0,91.0 455.0,55.2 465.0,55.2 465.0,55.0" stroke="rgb(0,0,0)" /><text fill="black" x="425.0" y="125.0">H30</text><polygon fill="rgb(255,150,150)" points="520.0,55.0 520.0,49.0 517.5,49.0 517.5,43.2 515.0,43.2 515.0,5.600000000000001 512.5,5.600000000000001 512.5,5.200000000000003 510.0,5.200000000000003 510.0,5.0 507.5,5.0 507.5,5.0 505.0,5.0 505.0,5.200000000000003 502.5,5.200000000000003 502.5,5.600000000000001 500.0,5.600000000000001 500.0,43.2 497.5,43.2 497.5,49.0 495.0,49.0 495.0,55.0 495.0,55.0 495.0,61.0 497.5,61.0 497.5,66.8 500.0,66.8 500.0,104.4 502.5,104.4 502.5,104.8 505.0,104.8 505.0,105.0 507.5,105.0 507.5,105.0 510.0,105.0 510.0,104.8 512.5,104.8 512.5,104.4 515.0,104.4 515.0,66.8 517.5,66.8 517.5,61.0 520.0,61.0 520.0,55.0" stroke="rgb(0,0,0)" /><text fill="black" x="495.0" y="125.0">E31</text><polygon fill="rgb(255,150,150)" points="570.0,55.0 570.0,43.2 567.5,43.2 567.5,5.600000000000001 565.0,5.600000000000001 565.0,5.200000000000003 562.5,5.200000000000003 562.5,5.0 560.0,5.0 560.0,5.0 557.5,5.0 557.5,5.200000000000003 555.0,5.200000000000003 555.0,5.600000000000001 552.5,5.600000000000001 552.5,43.2 550.0,43.2 550.0,55.0 550.0,55.0 550.0,66.8 552.5,66.8 552.5,104.4 555.0,104.4 555.0,104.8 557.5,104.8 557.5,105.0 560.0,105.0 560.0,105.0 562.5,105.0 562.5,104.8 565.0,104.8 565.0,104.4 567.5,104.4 567.5,66.8 570.0,66.8 570.0,55.0" stroke="rgb(0,0,0)" /><text fill="black" x="550.0" y="125.0">E33</text><polygon fill="rgb(150,150,255)" points="620.0,55.0 620.0,54.6 617.5,54.6 617.5,53.6 615.0,53.6 615.0,32.800000000000004 612.5,32.800000000000004 612.5,30.2 610.0,30.2 610.0,30.2 607.5,30.2 607.5,32.800000000000004 605.0,32.800000000000004 605.0,53.6 602.5,53.6 602.5,54.6 600.0,54.6 600.0,55.0 600.0,55.0 600.0,55.4 602.5,55.4 602.5,56.4 605.0,56.4 605.0,77.19999999999999 607.5,77.19999999999999 607.5,79.8 610.0,79.8 610.0,79.8 612.5,79.8 612.5,77.19999999999999 615.0,77.19999999999999 615.0,56.4 617.5,56.4 617.5,55.4 620.0,55.4 620.0,55.0" stroke="rgb(0,0,0)" /><text fill="black" x="600.0" y="99.8">E35</text><polygon fill="rgb(150,255,150)" points="665.0,55.0 665.0,51.800000000000004 662.5,51.800000000000004 662.5,48.0 660.0,48.0 660.0,37.2 657.5,37.2 657.5,37.2 655.0,37.2 655.0,48.0 652.5,48.0 652.5,51.800000000000004 650.0,51.800000000000004 650.0,55.0 650.0,55.0 650.0,58.199999999999996 652.5,58.199999999999996 652.5,62.0 655.0,62.0 655.0,72.8 657.5,72.8 657.5,72.8 660.0,72.8 660.0,62.0 662.5,62.0 662.5,58.199999999999996 665.0,58.199999999999996 665.0,55.0" stroke="rgb(0,0,0)" /><text fill="black" x="650.0" y="92.8">E41</text><polygon fill="rgb(150,150,150)" points="730.0,55.0 730.0,54.8 727.5,54.8 727.5,54.4 725.0,54.4 725.0,53.8 722.5,53.8 722.5,50.4 720.0,50.4 720.0,18.4 712.5,18.4 712.5,18.4 705.0,18.4 705.0,50.4 702.5,50.4 702.5,53.8 700.0,53.8 700.0,54.4 697.5,54.4 697.5,54.8 695.0,54.8 695.0,55.0 695.0,55.0 695.0,55.2 697.5,55.2 697.5,55.6 700.0,55.6 700.0,56.2 702.5,56.2 702.5,59.6 705.0,59.6 705.0,91.6 712.5,91.6 712.5,91.6 720.0,91.6 720.0,59.6 722.5,59.6 722.5,56.2 725.0,56.2 725.0,55.6 727.5,55.6 727.5,55.2 730.0,55.2 730.0,55.0" stroke="rgb(0,0,0)" /><text fill="black" x="695.0" y="111.6">H44</text><polygon fill="rgb(150,150,150)" points="795.0,55.0 795.0,54.8 792.5,54.8 792.5,35.4 790.0,35.4 790.0,8.599999999999994 787.5,8.599999999999994 787.5,7.800000000000004 785.0,7.800000000000004 785.0,7.400000000000006 777.5,7.400000000000006 777.5,7.400000000000006 770.0,7.400000000000006 770.0,7.800000000000004 767.5,7.800000000000004 767.5,8.599999999999994 765.0,8.599999999999994 765.0,35.4 762.5,35.4 762.5,54.8 760.0,54.8 760.0,55.0 760.0,55.0 760.0,55.2 762.5,55.2 762.5,74.6 765.0,74.6 765.0,101.4 767.5,101.4 767.5,102.19999999999999 770.0,102.19999999999999 770.0,102.6 777.5,102.6 777.5,102.6 785.0,102.6 785.0,102.19999999999999 787.5,102.19999999999999 787.5,101.4 790.0,101.4 790.0,74.6 792.5,74.6 792.5,55.2 795.0,55.2 795.0,55.0" stroke="rgb(0,0,0)" /><text fill="black" x="760.0" y="122.6">H45</text><polygon fill="rgb(150,255,150)" points="840.0,55.0 840.0,53.0 837.5,53.0 837.5,49.6 835.0,49.6 835.0,40.599999999999994 832.5,40.599999999999994 832.5,40.599999999999994 830.0,40.599999999999994 830.0,49.6 827.5,49.6 827.5,53.0 825.0,53.0 825.0,55.0 825.0,55.0 825.0,57.0 827.5,57.0 827.5,60.4 830.0,60.4 830.0,69.4 832.5,69.4 832.5,69.4 835.0,69.4 835.0,60.4 837.5,60.4 837.5,57.0 840.0,57.0 840.0,55.0" stroke="rgb(0,0,0)" /><text fill="black" x="825.0" y="89.4">E49</text><polygon fill="rgb(150,150,150)" points="980.0,55.0 980.0,54.6 975.0,54.6 975.0,54.2 972.5,54.2 972.5,53.6 970.0,53.6 970.0,48.8 967.5,48.8 967.5,6.200000000000003 965.0,6.200000000000003 965.0,5.399999999999999 960.0,5.399999999999999 960.0,5.200000000000003 947.5,5.200000000000003 947.5,5.0 925.0,5.0 925.0,5.0 902.5,5.0 902.5,5.200000000000003 890.0,5.200000000000003 890.0,5.399999999999999 885.0,5.399999999999999 885.0,6.200000000000003 882.5,6.200000000000003 882.5,48.8 880.0,48.8 880.0,53.6 877.5,53.6 877.5,54.2 875.0,54.2 875.0,54.6 870.0,54.6 870.0,55.0 870.0,55.0 870.0,55.4 875.0,55.4 875.0,55.8 877.5,55.8 877.5,56.4 880.0,56.4 880.0,61.2 882.5,61.2 882.5,103.8 885.0,103.8 885.0,104.6 890.0,104.6 890.0,104.8 902.5,104.8 902.5,105.0 925.0,105.0 925.0,105.0 947.5,105.0 947.5,104.8 960.0,104.8 960.0,104.6 965.0,104.6 965.0,103.8 967.5,103.8 967.5,61.2 970.0,61.2 970.0,56.4 972.5,56.4 972.5,55.8 975.0,55.8 975.0,55.4 980.0,55.4 980.0,55.0" stroke="rgb(0,0,0)" /><text fill="black" x="870.0" y="125.0">H50</text><polygon fill="rgb(150,150,150)" points="1080.0,55.0 1080.0,53.8 1077.5,53.8 1077.5,53.6 1075.0,53.6 1075.0,40.199999999999996 1072.5,40.199999999999996 1072.5,38.6 1070.0,38.6 1070.0,14.399999999999999 1067.5,14.399999999999999 1067.5,11.600000000000001 1065.0,11.600000000000001 1065.0,9.399999999999999 1062.5,9.399999999999999 1062.5,8.799999999999997 1060.0,8.799999999999997 1060.0,7.200000000000003 1057.5,7.200000000000003 1057.5,7.0 1052.5,7.0 1052.5,6.800000000000004 1045.0,6.800000000000004 1045.0,6.800000000000004 1037.5,6.800000000000004 1037.5,7.0 1032.5,7.0 1032.5,7.200000000000003 1030.0,7.200000000000003 1030.0,8.799999999999997 1027.5,8.799999999999997 1027.5,9.399999999999999 1025.0,9.399999999999999 1025.0,11.600000000000001 1022.5,11.600000000000001 1022.5,14.399999999999999 1020.0,14.399999999999999 1020.0,38.6 1017.5,38.6 1017.5,40.199999999999996 1015.0,40.199999999999996 1015.0,53.6 1012.5,53.6 1012.5,53.8 1010.0,53.8 1010.0,55.0 1010.0,55.0 1010.0,56.2 1012.5,56.2 1012.5,56.4 1015.0,56.4 1015.0,69.8 1017.5,69.8 1017.5,71.4 1020.0,71.4 1020.0,95.6 1022.5,95.6 1022.5,98.4 1025.0,98.4 1025.0,100.6 1027.5,100.6 1027.5,101.2 1030.0,101.2 1030.0,102.8 1032.5,102.8 1032.5,103.0 1037.5,103.0 1037.5,103.19999999999999 1045.0,103.19999999999999 1045.0,103.19999999999999 1052.5,103.19999999999999 1052.5,103.0 1057.5,103.0 1057.5,102.8 1060.0,102.8 1060.0,101.2 1062.5,101.2 1062.5,100.6 1065.0,100.6 1065.0,98.4 1067.5,98.4 1067.5,95.6 1070.0,95.6 1070.0,71.4 1072.5,71.4 1072.5,69.8 1075.0,69.8 1075.0,56.4 1077.5,56.4 1077.5,56.2 1080.0,56.2 1080.0,55.0" stroke="rgb(0,0,0)" /><text fill="black" x="1010.0" y="123.19999999999999">H57</text><polygon fill="rgb(150,150,150)" points="1165.0,55.0 1165.0,53.199999999999996 1157.5,53.199999999999996 1157.5,53.0 1155.0,53.0 1155.0,52.4 1152.5,52.4 1152.5,48.0 1150.0,48.0 1150.0,47.199999999999996 1145.0,47.199999999999996 1145.0,41.2 1137.5,41.2 1137.5,41.2 1130.0,41.2 1130.0,47.199999999999996 1125.0,47.199999999999996 1125.0,48.0 1122.5,48.0 1122.5,52.4 1120.0,52.4 1120.0,53.0 1117.5,53.0 1117.5,53.199999999999996 1110.0,53.199999999999996 1110.0,55.0 1110.0,55.0 1110.0,56.800000000000004 1117.5,56.800000000000004 1117.5,57.0 1120.0,57.0 1120.0,57.6 1122.5,57.6 1122.5,62.0 1125.0,62.0 1125.0,62.800000000000004 1130.0,62.800000000000004 1130.0,68.8 1137.5,68.8 1137.5,68.8 1145.0,68.8 1145.0,62.800000000000004 1150.0,62.800000000000004 1150.0,62.0 1152.5,62.0 1152.5,57.6 1155.0,57.6 1155.0,57.0 1157.5,57.0 1157.5,56.800000000000004 1165.0,56.800000000000004 1165.0,55.0" stroke="rgb(0,0,0)" /><text fill="black" x="1110.0" y="88.8">H60</text><polygon fill="rgb(150,150,150)" points="1240.0,55.0 1240.0,54.8 1237.5,54.8 1237.5,54.4 1230.0,54.4 1230.0,42.6 1227.5,42.6 1227.5,40.599999999999994 1225.0,40.599999999999994 1225.0,38.400000000000006 1217.5,38.400000000000006 1217.5,38.400000000000006 1210.0,38.400000000000006 1210.0,40.599999999999994 1207.5,40.599999999999994 1207.5,42.6 1205.0,42.6 1205.0,54.4 1197.5,54.4 1197.5,54.8 1195.0,54.8 1195.0,55.0 1195.0,55.0 1195.0,55.2 1197.5,55.2 1197.5,55.6 1205.0,55.6 1205.0,67.4 1207.5,67.4 1207.5,69.4 1210.0,69.4 1210.0,71.6 1217.5,71.6 1217.5,71.6 1225.0,71.6 1225.0,69.4 1227.5,69.4 1227.5,67.4 1230.0,67.4 1230.0,55.6 1237.5,55.6 1237.5,55.2 1240.0,55.2 1240.0,55.0" stroke="rgb(0,0,0)" /><text fill="black" x="1195.0" y="91.6">H64</text><polygon fill="rgb(150,150,150)" points="1360.0,55.0 1360.0,53.6 1355.0,53.6 1355.0,53.4 1352.5,53.4 1352.5,52.8 1350.0,52.8 1350.0,52.4 1347.5,52.4 1347.5,52.199999999999996 1345.0,52.199999999999996 1345.0,52.0 1342.5,52.0 1342.5,5.799999999999997 1340.0,5.799999999999997 1340.0,5.399999999999999 1335.0,5.399999999999999 1335.0,5.200000000000003 1315.0,5.200000000000003 1315.0,5.200000000000003 1295.0,5.200000000000003 1295.0,5.399999999999999 1290.0,5.399999999999999 1290.0,5.799999999999997 1287.5,5.799999999999997 1287.5,52.0 1285.0,52.0 1285.0,52.199999999999996 1282.5,52.199999999999996 1282.5,52.4 1280.0,52.4 1280.0,52.8 1277.5,52.8 1277.5,53.4 1275.0,53.4 1275.0,53.6 1270.0,53.6 1270.0,55.0 1270.0,55.0 1270.0,56.4 1275.0,56.4 1275.0,56.6 1277.5,56.6 1277.5,57.2 1280.0,57.2 1280.0,57.6 1282.5,57.6 1282.5,57.800000000000004 1285.0,57.800000000000004 1285.0,58.0 1287.5,58.0 1287.5,104.2 1290.0,104.2 1290.0,104.6 1295.0,104.6 1295.0,104.8 1315.0,104.8 1315.0,104.8 1335.0,104.8 1335.0,104.6 1340.0,104.6 1340.0,104.2 1342.5,104.2 1342.5,58.0 1345.0,58.0 1345.0,57.800000000000004 1347.5,57.800000000000004 1347.5,57.6 1350.0,57.6 1350.0,57.2 1352.5,57.2 1352.5,56.6 1355.0,56.6 1355.0,56.4 1360.0,56.4 1360.0,55.0" stroke="rgb(0,0,0)" /><text fill="black" x="1270.0" y="124.8">H68</text><polygon fill="rgb(150,150,150)" points="1465.0,55.0 1465.0,54.8 1462.5,54.8 1462.5,54.6 1437.5,54.6 1437.5,53.8 1435.0,53.8 1435.0,6.0 1427.5,6.0 1427.5,6.0 1420.0,6.0 1420.0,53.8 1417.5,53.8 1417.5,54.6 1392.5,54.6 1392.5,54.8 1390.0,54.8 1390.0,55.0 1390.0,55.0 1390.0,55.2 1392.5,55.2 1392.5,55.4 1417.5,55.4 1417.5,56.2 1420.0,56.2 1420.0,104.0 1427.5,104.0 1427.5,104.0 1435.0,104.0 1435.0,56.2 1437.5,56.2 1437.5,55.4 1462.5,55.4 1462.5,55.2 1465.0,55.2 1465.0,55.0" stroke="rgb(0,0,0)" /><text fill="black" x="1390.0" y="124.0">H69</text><polygon fill="rgb(150,150,150)" points="1595.0,55.0 1595.0,54.6 1592.5,54.6 1592.5,54.4 1587.5,54.4 1587.5,54.2 1585.0,54.2 1585.0,52.8 1582.5,52.8 1582.5,50.800000000000004 1580.0,50.800000000000004 1580.0,44.2 1577.5,44.2 1577.5,41.8 1575.0,41.8 1575.0,39.599999999999994 1572.5,39.599999999999994 1572.5,38.8 1570.0,38.8 1570.0,36.8 1565.0,36.8 1565.0,36.0 1562.5,36.0 1562.5,33.4 1560.0,33.4 1560.0,6.0 1545.0,6.0 1545.0,6.0 1530.0,6.0 1530.0,33.4 1527.5,33.4 1527.5,36.0 1525.0,36.0 1525.0,36.8 1520.0,36.8 1520.0,38.8 1517.5,38.8 1517.5,39.599999999999994 1515.0,39.599999999999994 1515.0,41.8 1512.5,41.8 1512.5,44.2 1510.0,44.2 1510.0,50.800000000000004 1507.5,50.800000000000004 1507.5,52.8 1505.0,52.8 1505.0,54.2 1502.5,54.2 1502.5,54.4 1497.5,54.4 1497.5,54.6 1495.0,54.6 1495.0,55.0 1495.0,55.0 1495.0,55.4 1497.5,55.4 1497.5,55.6 1502.5,55.6 1502.5,55.8 1505.0,55.8 1505.0,57.2 1507.5,57.2 1507.5,59.199999999999996 1510.0,59.199999999999996 1510.0,65.8 1512.5,65.8 1512.5,68.2 1515.0,68.2 1515.0,70.4 1517.5,70.4 1517.5,71.2 1520.0,71.2 1520.0,73.2 1525.0,73.2 1525.0,74.0 1527.5,74.0 1527.5,76.6 1530.0,76.6 1530.0,104.0 1545.0,104.0 1545.0,104.0 1560.0,104.0 1560.0,76.6 1562.5,76.6 1562.5,74.0 1565.0,74.0 1565.0,73.2 1570.0,73.2 1570.0,71.2 1572.5,71.2 1572.5,70.4 1575.0,70.4 1575.0,68.2 1577.5,68.2 1577.5,65.8 1580.0,65.8 1580.0,59.199999999999996 1582.5,59.199999999999996 1582.5,57.2 1585.0,57.2 1585.0,55.8 1587.5,55.8 1587.5,55.6 1592.5,55.6 1592.5,55.4 1595.0,55.4 1595.0,55.0" stroke="rgb(0,0,0)" /><text fill="black" x="1495.0" y="124.0">H72</text><polygon fill="rgb(150,150,150)" points="1685.0,55.0 1685.0,54.8 1675.0,54.8 1675.0,53.6 1672.5,53.6 1672.5,52.8 1670.0,52.8 1670.0,50.2 1667.5,50.2 1667.5,42.8 1665.0,42.8 1665.0,37.6 1662.5,37.6 1662.5,21.400000000000006 1655.0,21.400000000000006 1655.0,21.400000000000006 1647.5,21.400000000000006 1647.5,37.6 1645.0,37.6 1645.0,42.8 1642.5,42.8 1642.5,50.2 1640.0,50.2 1640.0,52.8 1637.5,52.8 1637.5,53.6 1635.0,53.6 1635.0,54.8 1625.0,54.8 1625.0,55.0 1625.0,55.0 1625.0,55.2 1635.0,55.2 1635.0,56.4 1637.5,56.4 1637.5,57.2 1640.0,57.2 1640.0,59.8 1642.5,59.8 1642.5,67.2 1645.0,67.2 1645.0,72.4 1647.5,72.4 1647.5,88.6 1655.0,88.6 1655.0,88.6 1662.5,88.6 1662.5,72.4 1665.0,72.4 1665.0,67.2 1667.5,67.2 1667.5,59.8 1670.0,59.8 1670.0,57.2 1672.5,57.2 1672.5,56.4 1675.0,56.4 1675.0,55.2 1685.0,55.2 1685.0,55.0" stroke="rgb(0,0,0)" /><text fill="black" x="1625.0" y="108.6">H73</text><path d="M 507.5,55.0 a 953.4665366146457,953.4665366146457 0 0,0 -495.0,-0.0" stroke="rgb(255,150,150)" stroke-width="2" /><path d="M 507.5,55.0 a 953.4665366146457,953.4665366146457 0 0,0 -495.0,-0.0" stroke="rgb(0,0,0)" stroke-width="0.2" /><path d="M 610.0,55.0 a 298.8879581785887,298.8879581785887 0 0,0 -225.0,-0.0" stroke="rgb(150,150,255)" stroke-width="2" /><path d="M 610.0,55.0 a 298.8879581785887,298.8879581785887 0 0,0 -225.0,-0.0" stroke="rgb(0,0,0)" stroke-width="0.2" /><path d="M 560.0,55.0 a 50.29093309859155,50.29093309859155 0 0,0 -52.5,-0.0" stroke="rgb(255,150,150)" stroke-width="2" /><path d="M 560.0,55.0 a 50.29093309859155,50.29093309859155 0 0,0 -52.5,-0.0" stroke="rgb(0,0,0)" stroke-width="0.2" /><path d="M 832.5,55.0 a 213.41518252702463,213.41518252702463 0 0,0 -175.0,-0.0" stroke="rgb(150,255,150)" stroke-width="2" /><path d="M 832.5,55.0 a 213.41518252702463,213.41518252702463 0 0,0 -175.0,-0.0" stroke="rgb(0,0,0)" stroke-width="0.2" /></svg>