<?xml version="1.0" encoding="utf-8" ?>
<svg baseProfile="full" height="100%" style="font-size:14;font-family:Sans, Arial;stroke-width:1;fill:none" version="1.1" width="100%" xmlns="http://www.w3.org/2000/svg" xmlns:ev="http://www.w3.org/2001/xml-events" xmlns:xlink="http://www.w3.org/1999/xlink"><defs /><rect fill="none" height="300.0" stroke="none" width="3075.4315500000002" x="0" y="0" /><line stroke="rgb(0,0,0)" x1="5.0" x2="25.0" y1="150.0" y2="150.0" /><line stroke="rgb(0,0,0)" x1="25.0" x2="35.0" y1="150.0" y2="150.0" /><line stroke="rgb(0,0,0)" x1="35.0" x2="40.0" y1="150.0" y2="150.0" /><line stroke="rgb(0,0,0)" x1="40.0" x2="60.0" y1="150.0" y2="150.0" /><line stroke="rgb(0,0,0)" x1="60.0" x2="70.0" y1="150.0" y2="150.0" /><line stroke="rgb(0,0,0)" x1="70.0" x2="75.0" y1="150.0" y2="150.0" /><line stroke="rgb(0,0,0)" x1="75.0" x2="90.0" y1="150.0" y2="150.0" /><line stroke="rgb(0,0,0)" x1="90.0" x2="100.0" y1="150.0" y2="150.0" /><line stroke="rgb(0,0,0)" x1="100.0" x2="105.0" y1="150.0" y2="150.0" /><line stroke="rgb(0,0,0)" x1="105.0" x2="115.0" y1="150.0" y2="150.0" /><line stroke="rgb(0,0,0)" x1="115.0" x2="125.0" y1="150.0" y2="150.0" /><line stroke="rgb(0,0,0)" x1="125.0" x2="130.0" y1="150.0" y2="150.0" /><line stroke="rgb(0,0,0)" x1="130.0" x2="167.5" y1="150.0" y2="150.0" /><line stroke="rgb(0,0,0)" x1="167.5" x2="177.5" y1="150.0" y2="150.0" /><line stroke="rgb(0,0,0)" x1="177.5" x2="182.5" y1="150.0" y2="150.0" /><line stroke="rgb(0,0,0)" x1="182.5" x2="231.25" y1="150.0" y2="150.0" /><line stroke="rgb(0,0,0)" x1="231.25" x2="241.25" y1="150.0" y2="150.0" /><line stroke="rgb(0,0,0)" x1="241.25" x2="246.25" y1="150.0" y2="150.0" /><line stroke="rgb(0,0,0)" x1="246.25" x2="287.5" y1="150.0" y2="150.0" /><line stroke="rgb(0,0,0)" x1="287.5" x2="297.5" y1="150.0" y2="75.0" /><line stroke="rgb(0,0,0)" x1="297.5" x2="302.5" y1="75.0" y2="75.0" /><line stroke="rgb(0,0,0)" x1="246.25" x2="287.5" y1="150.0" y2="150.0" /><line stroke="rgb(0,0,0)" x1="287.5" x2="297.5" y1="150.0" y2="225.0" /><line stroke="rgb(0,0,0)" x1="297.5" x2="302.5" y1="225.0" y2="225.0" /><line stroke="rgb(0,0,0)" x1="302.5" x2="307.5" y1="75.0" y2="75.0" /><line stroke="rgb(0,0,0)" x1="307.5" x2="332.5" y1="75.0" y2="150.0" /><line stroke="rgb(0,0,0)" x1="332.5" x2="337.5" y1="150.0" y2="150.0" /><line stroke="rgb(0,0,0)" x1="302.5" x2="322.5" y1="225.0" y2="225.0" /><line stroke="rgb(0,0,0)" x1="322.5" x2="332.5" y1="225.0" y2="150.0" /><line stroke="rgb(0,0,0)" x1="332.5" x2="337.5" y1="150.0" y2="150.0" /><line stroke="rgb(0,0,0)" x1="337.5" x2="377.5" y1="150.0" y2="150.0" /><line stroke="rgb(0,0,0)" x1="377.5" x2="387.5" y1="150.0" y2="150.0" /><line stroke="rgb(0,0,0)" x1="387.5" x2="392.5" y1="150.0" y2="150.0" /><line stroke="rgb(0,0,0)" x1="392.5" x2="466.875" y1="150.0" y2="150.0" /><line stroke="rgb(0,0,0)" x1="466.875" x2="476.875" y1="150.0" y2="150.0" /><line stroke="rgb(0,0,0)" x1="476.875" x2="481.875" y1="150.0" y2="150.0" /><line stroke="rgb(0,0,0)" x1="481.875" x2="535.99265" y1="150.0" y2="150.0" /><line stroke="rgb(0,0,0)" x1="535.99265" x2="545.99265" y1="150.0" y2="150.0" /><line stroke="rgb(0,0,0)" x1="545.99265" x2="550.99265" y1="150.0" y2="150.0" /><line stroke="rgb(0,0,0)" x1="550.99265" x2="570.99265" y1="150.0" y2="150.0" /><line stroke="rgb(0,0,0)" x1="570.99265" x2="580.99265" y1="150.0" y2="150.0" /><line stroke="rgb(0,0,0)" x1="580.99265" x2="585.99265" y1="150.0" y2="150.0" /><line stroke="rgb(0,0,0)" x1="585.99265" x2="595.99265" y1="150.0" y2="150.0" /><line stroke="rgb(0,0,0)" x1="595.99265" x2="605.99265" y1="150.0" y2="150.0" /><line stroke="rgb(0,0,0)" x1="605.99265" x2="610.99265" y1="150.0" y2="150.0" /><line stroke="rgb(0,0,0)" x1="610.99265" x2="644.99265" y1="150.0" y2="150.0" /><line stroke="rgb(0,0,0)" x1="644.99265" x2="654.9926500000001" y1="150.0" y2="150.0" /><line stroke="rgb(0,0,0)" x1="654.9926500000001" x2="659.9926500000001" y1="150.0" y2="150.0" /><line stroke="rgb(0,0,0)" x1="659.9926500000001" x2="679.9926500000001" y1="150.0" y2="150.0" /><line stroke="rgb(0,0,0)" x1="679.9926500000001" x2="689.9926500000001" y1="150.0" y2="150.0" /><line stroke="rgb(0,0,0)" x1="689.9926500000001" x2="694.9926500000001" y1="150.0" y2="150.0" /><line stroke="rgb(0,0,0)" x1="694.9926500000001" x2="729.9926500000001" y1="150.0" y2="150.0" /><line stroke="rgb(0,0,0)" x1="729.9926500000001" x2="739.9926500000001" y1="150.0" y2="150.0" /><line stroke="rgb(0,0,0)" x1="739.9926500000001" x2="744.9926500000001" y1="150.0" y2="150.0" /><line stroke="rgb(0,0,0)" x1="744.9926500000001" x2="756.4029" y1="150.0" y2="150.0" /><line stroke="rgb(0,0,0)" x1="756.4029" x2="766.4029" y1="150.0" y2="150.0" /><line stroke="rgb(0,0,0)" x1="766.4029" x2="771.4029" y1="150.0" y2="150.0" /><line stroke="rgb(0,0,0)" x1="771.4029" x2="814.8364000000001" y1="150.0" y2="150.0" /><line stroke="rgb(0,0,0)" x1="814.8364000000001" x2="824.8364000000001" y1="150.0" y2="150.0" /><line stroke="rgb(0,0,0)" x1="824.8364000000001" x2="829.8364000000001" y1="150.0" y2="150.0" /><line stroke="rgb(0,0,0)" x1="829.8364000000001" x2="839.8364000000001" y1="150.0" y2="150.0" /><line stroke="rgb(0,0,0)" x1="839.8364000000001" x2="849.8364000000001" y1="150.0" y2="150.0" /><line stroke="rgb(0,0,0)" x1="849.8364000000001" x2="854.8364000000001" y1="150.0" y2="150.0" /><line stroke="rgb(0,0,0)" x1="854.8364000000001" x2="876.9448500000001" y1="150.0" y2="150.0" /><line stroke="rgb(0,0,0)" x1="876.9448500000001" x2="886.9448500000001" y1="150.0" y2="150.0" /><line stroke="rgb(0,0,0)" x1="886.9448500000001" x2="891.9448500000001" y1="150.0" y2="150.0" /><line stroke="rgb(0,0,0)" x1="891.9448500000001" x2="903.3734000000002" y1="150.0" y2="150.0" /><line stroke="rgb(0,0,0)" x1="903.3734000000002" x2="913.3734000000002" y1="150.0" y2="150.0" /><line stroke="rgb(0,0,0)" x1="913.3734000000002" x2="918.3734000000002" y1="150.0" y2="150.0" /><line stroke="rgb(0,0,0)" x1="918.3734000000002" x2="943.3734000000002" y1="150.0" y2="150.0" /><line stroke="rgb(0,0,0)" x1="943.3734000000002" x2="953.3734000000002" y1="150.0" y2="150.0" /><line stroke="rgb(0,0,0)" x1="953.3734000000002" x2="958.3734000000002" y1="150.0" y2="150.0" /><line stroke="rgb(0,0,0)" x1="958.3734000000002" x2="969.9359000000002" y1="150.0" y2="150.0" /><line stroke="rgb(0,0,0)" x1="969.9359000000002" x2="979.9359000000002" y1="150.0" y2="150.0" /><line stroke="rgb(0,0,0)" x1="979.9359000000002" x2="984.9359000000002" y1="150.0" y2="150.0" /><line stroke="rgb(0,0,0)" x1="984.9359000000002" x2="1094.3959" y1="150.0" y2="150.0" /><line stroke="rgb(0,0,0)" x1="1094.3959" x2="1104.3959" y1="150.0" y2="75.0" /><line stroke="rgb(0,0,0)" x1="1104.3959" x2="1109.3959" y1="75.0" y2="75.0" /><line stroke="rgb(0,0,0)" x1="984.9359000000002" x2="1094.3959" y1="150.0" y2="150.0" /><line stroke="rgb(0,0,0)" x1="1094.3959" x2="1104.3959" y1="150.0" y2="225.0" /><line stroke="rgb(0,0,0)" x1="1104.3959" x2="1109.3959" y1="225.0" y2="225.0" /><line stroke="rgb(0,0,0)" x1="1109.3959" x2="1144.3959" y1="75.0" y2="75.0" /><line stroke="rgb(0,0,0)" x1="1144.3959" x2="1154.3959" y1="75.0" y2="150.0" /><line stroke="rgb(0,0,0)" x1="1154.3959" x2="1159.3959" y1="150.0" y2="150.0" /><line stroke="rgb(0,0,0)" x1="1109.3959" x2="1119.3959" y1="225.0" y2="225.0" /><line stroke="rgb(0,0,0)" x1="1119.3959" x2="1154.3959" y1="225.0" y2="150.0" /><line stroke="rgb(0,0,0)" x1="1154.3959" x2="1159.3959" y1="150.0" y2="150.0" /><line stroke="rgb(0,0,0)" x1="1159.3959" x2="1169.3959" y1="150.0" y2="150.0" /><line stroke="rgb(0,0,0)" x1="1169.3959" x2="1179.3959" y1="150.0" y2="150.0" /><line stroke="rgb(0,0,0)" x1="1179.3959" x2="1184.3959" y1="150.0" y2="150.0" /><line stroke="rgb(0,0,0)" x1="1184.3959" x2="1204.3959" y1="150.0" y2="150.0" /><line stroke="rgb(0,0,0)" x1="1204.3959" x2="1214.3959" y1="150.0" y2="150.0" /><line stroke="rgb(0,0,0)" x1="1214.3959" x2="1219.3959" y1="150.0" y2="150.0" /><line stroke="rgb(0,0,0)" x1="1219.3959" x2="1234.1943" y1="150.0" y2="150.0" /><line stroke="rgb(0,0,0)" x1="1234.1943" x2="1244.1943" y1="150.0" y2="150.0" /><line stroke="rgb(0,0,0)" x1="1244.1943" x2="1249.1943" y1="150.0" y2="150.0" /><line stroke="rgb(0,0,0)" x1="1249.1943" x2="1272.8743" y1="150.0" y2="150.0" /><line stroke="rgb(0,0,0)" x1="1272.8743" x2="1282.8743" y1="150.0" y2="150.0" /><line stroke="rgb(0,0,0)" x1="1282.8743" x2="1287.8743" y1="150.0" y2="150.0" /><line stroke="rgb(0,0,0)" x1="1287.8743" x2="1309.5742999999998" y1="150.0" y2="150.0" /><line stroke="rgb(0,0,0)" x1="1309.5742999999998" x2="1319.5742999999998" y1="150.0" y2="150.0" /><line stroke="rgb(0,0,0)" x1="1319.5742999999998" x2="1324.5742999999998" y1="150.0" y2="150.0" /><line stroke="rgb(0,0,0)" x1="1324.5742999999998" x2="1345.0187499999997" y1="150.0" y2="150.0" /><line stroke="rgb(0,0,0)" x1="1345.0187499999997" x2="1355.0187499999997" y1="150.0" y2="150.0" /><line stroke="rgb(0,0,0)" x1="1355.0187499999997" x2="1360.0187499999997" y1="150.0" y2="150.0" /><line stroke="rgb(0,0,0)" x1="1360.0187499999997" x2="1381.11875" y1="150.0" y2="150.0" /><line stroke="rgb(0,0,0)" x1="1381.11875" x2="1391.11875" y1="150.0" y2="150.0" /><line stroke="rgb(0,0,0)" x1="1391.11875" x2="1396.11875" y1="150.0" y2="150.0" /><line stroke="rgb(0,0,0)" x1="1396.11875" x2="1425.64255" y1="150.0" y2="150.0" /><line stroke="rgb(0,0,0)" x1="1425.64255" x2="1435.64255" y1="150.0" y2="75.0" /><line stroke="rgb(0,0,0)" x1="1435.64255" x2="1440.64255" y1="75.0" y2="75.0" /><line stroke="rgb(0,0,0)" x1="1396.11875" x2="1425.64255" y1="150.0" y2="150.0" /><line stroke="rgb(0,0,0)" x1="1425.64255" x2="1435.64255" y1="150.0" y2="225.0" /><line stroke="rgb(0,0,0)" x1="1435.64255" x2="1440.64255" y1="225.0" y2="225.0" /><line stroke="rgb(0,0,0)" x1="1440.64255" x2="1455.48125" y1="75.0" y2="75.0" /><line stroke="rgb(0,0,0)" x1="1455.48125" x2="1471.26755" y1="75.0" y2="75.0" /><line stroke="rgb(0,0,0)" x1="1471.26755" x2="1476.26755" y1="75.0" y2="75.0" /><line stroke="rgb(0,0,0)" x1="1440.64255" x2="1455.48125" y1="75.0" y2="75.0" /><line stroke="rgb(0,0,0)" x1="1455.48125" x2="1471.26755" y1="75.0" y2="225.0" /><line stroke="rgb(0,0,0)" x1="1471.26755" x2="1476.26755" y1="225.0" y2="225.0" /><line stroke="rgb(0,0,0)" x1="1440.64255" x2="1461.26755" y1="225.0" y2="225.0" /><line stroke="rgb(0,0,0)" x1="1461.26755" x2="1471.26755" y1="225.0" y2="225.0" /><line stroke="rgb(0,0,0)" x1="1471.26755" x2="1476.26755" y1="225.0" y2="225.0" /><line stroke="rgb(0,0,0)" x1="1476.26755" x2="1501.7221" y1="225.0" y2="225.0" /><line stroke="rgb(0,0,0)" x1="1501.7221" x2="1511.7221" y1="225.0" y2="75.0" /><line stroke="rgb(0,0,0)" x1="1511.7221" x2="1516.7221" y1="75.0" y2="75.0" /><line stroke="rgb(0,0,0)" x1="1476.26755" x2="1490.8509000000001" y1="75.0" y2="75.0" /><line stroke="rgb(0,0,0)" x1="1490.8509000000001" x2="1511.7221" y1="75.0" y2="225.0" /><line stroke="rgb(0,0,0)" x1="1511.7221" x2="1516.7221" y1="225.0" y2="225.0" /><line stroke="rgb(0,0,0)" x1="1476.26755" x2="1501.7221" y1="225.0" y2="225.0" /><line stroke="rgb(0,0,0)" x1="1501.7221" x2="1511.7221" y1="225.0" y2="225.0" /><line stroke="rgb(0,0,0)" x1="1511.7221" x2="1516.7221" y1="225.0" y2="225.0" /><line stroke="rgb(0,0,0)" x1="1516.7221" x2="1531.30545" y1="225.0" y2="225.0" /><line stroke="rgb(0,0,0)" x1="1531.30545" x2="1546.7221" y1="225.0" y2="150.0" /><line stroke="rgb(0,0,0)" x1="1546.7221" x2="1551.7221" y1="150.0" y2="150.0" /><line stroke="rgb(0,0,0)" x1="1551.7221" x2="1564.58725" y1="150.0" y2="150.0" /><line stroke="rgb(0,0,0)" x1="1564.58725" x2="1574.58725" y1="150.0" y2="150.0" /><line stroke="rgb(0,0,0)" x1="1574.58725" x2="1579.58725" y1="150.0" y2="150.0" /><line stroke="rgb(0,0,0)" x1="1516.7221" x2="1536.7221" y1="75.0" y2="75.0" /><line stroke="rgb(0,0,0)" x1="1536.7221" x2="1574.58725" y1="75.0" y2="150.0" /><line stroke="rgb(0,0,0)" x1="1574.58725" x2="1579.58725" y1="150.0" y2="150.0" /><line stroke="rgb(0,0,0)" x1="1579.58725" x2="1606.3519500000002" y1="150.0" y2="150.0" /><line stroke="rgb(0,0,0)" x1="1606.3519500000002" x2="1616.3519500000002" y1="150.0" y2="150.0" /><line stroke="rgb(0,0,0)" x1="1616.3519500000002" x2="1621.3519500000002" y1="150.0" y2="150.0" /><line stroke="rgb(0,0,0)" x1="1621.3519500000002" x2="1635.2408500000001" y1="150.0" y2="150.0" /><line stroke="rgb(0,0,0)" x1="1635.2408500000001" x2="1645.2408500000001" y1="150.0" y2="150.0" /><line stroke="rgb(0,0,0)" x1="1645.2408500000001" x2="1650.2408500000001" y1="150.0" y2="150.0" /><line stroke="rgb(0,0,0)" x1="1650.2408500000001" x2="1671.1425000000004" y1="150.0" y2="150.0" /><line stroke="rgb(0,0,0)" x1="1671.1425000000004" x2="1681.1425000000004" y1="150.0" y2="150.0" /><line stroke="rgb(0,0,0)" x1="1681.1425000000004" x2="1686.1425000000004" y1="150.0" y2="150.0" /><line stroke="rgb(0,0,0)" x1="1686.1425000000004" x2="1718.0542500000001" y1="150.0" y2="150.0" /><line stroke="rgb(0,0,0)" x1="1718.0542500000001" x2="1728.0542500000001" y1="150.0" y2="150.0" /><line stroke="rgb(0,0,0)" x1="1728.0542500000001" x2="1733.0542500000001" y1="150.0" y2="150.0" /><line stroke="rgb(0,0,0)" x1="1733.0542500000001" x2="1743.0542500000001" y1="150.0" y2="150.0" /><line stroke="rgb(0,0,0)" x1="1743.0542500000001" x2="1753.0542500000001" y1="150.0" y2="150.0" /><line stroke="rgb(0,0,0)" x1="1753.0542500000001" x2="1758.0542500000001" y1="150.0" y2="150.0" /><line stroke="rgb(0,0,0)" x1="1758.0542500000001" x2="1778.0542500000001" y1="150.0" y2="150.0" /><line stroke="rgb(0,0,0)" x1="1778.0542500000001" x2="1788.0542500000001" y1="150.0" y2="150.0" /><line stroke="rgb(0,0,0)" x1="1788.0542500000001" x2="1793.0542500000001" y1="150.0" y2="150.0" /><line stroke="rgb(0,0,0)" x1="1793.0542500000001" x2="1820.7815000000003" y1="150.0" y2="150.0" /><line stroke="rgb(0,0,0)" x1="1820.7815000000003" x2="1830.7815000000003" y1="150.0" y2="150.0" /><line stroke="rgb(0,0,0)" x1="1830.7815000000003" x2="1835.7815000000003" y1="150.0" y2="150.0" /><line stroke="rgb(0,0,0)" x1="1835.7815000000003" x2="1848.3509500000002" y1="150.0" y2="150.0" /><line stroke="rgb(0,0,0)" x1="1848.3509500000002" x2="1858.3509500000002" y1="150.0" y2="150.0" /><line stroke="rgb(0,0,0)" x1="1858.3509500000002" x2="1863.3509500000002" y1="150.0" y2="150.0" /><line stroke="rgb(0,0,0)" x1="1863.3509500000002" x2="1953.9709500000004" y1="150.0" y2="150.0" /><line stroke="rgb(0,0,0)" x1="1953.9709500000004" x2="1963.9709500000004" y1="150.0" y2="75.0" /><line stroke="rgb(0,0,0)" x1="1963.9709500000004" x2="1968.9709500000004" y1="75.0" y2="75.0" /><line stroke="rgb(0,0,0)" x1="1863.3509500000002" x2="1953.9709500000004" y1="150.0" y2="150.0" /><line stroke="rgb(0,0,0)" x1="1953.9709500000004" x2="1963.9709500000004" y1="150.0" y2="225.0" /><line stroke="rgb(0,0,0)" x1="1963.9709500000004" x2="1968.9709500000004" y1="225.0" y2="225.0" /><line stroke="rgb(0,0,0)" x1="1968.9709500000004" x2="1978.9709500000004" y1="225.0" y2="225.0" /><line stroke="rgb(0,0,0)" x1="1978.9709500000004" x2="2004.9709500000004" y1="225.0" y2="150.0" /><line stroke="rgb(0,0,0)" x1="2004.9709500000004" x2="2009.9709500000004" y1="150.0" y2="150.0" /><line stroke="rgb(0,0,0)" x1="2009.9709500000004" x2="2019.9709500000004" y1="150.0" y2="150.0" /><line stroke="rgb(0,0,0)" x1="2019.9709500000004" x2="2029.9709500000004" y1="150.0" y2="150.0" /><line stroke="rgb(0,0,0)" x1="2029.9709500000004" x2="2034.9709500000004" y1="150.0" y2="150.0" /><line stroke="rgb(0,0,0)" x1="2034.9709500000004" x2="2044.9709500000004" y1="150.0" y2="150.0" /><line stroke="rgb(0,0,0)" x1="2044.9709500000004" x2="2054.9709500000004" y1="150.0" y2="150.0" /><line stroke="rgb(0,0,0)" x1="2054.9709500000004" x2="2059.9709500000004" y1="150.0" y2="150.0" /><line stroke="rgb(0,0,0)" x1="1968.9709500000004" x2="1994.9709500000004" y1="75.0" y2="75.0" /><line stroke="rgb(0,0,0)" x1="1994.9709500000004" x2="2054.9709500000004" y1="75.0" y2="150.0" /><line stroke="rgb(0,0,0)" x1="2054.9709500000004" x2="2059.9709500000004" y1="150.0" y2="150.0" /><line stroke="rgb(0,0,0)" x1="2059.9709500000004" x2="2086.5838500000004" y1="150.0" y2="150.0" /><line stroke="rgb(0,0,0)" x1="2086.5838500000004" x2="2096.5838500000004" y1="150.0" y2="150.0" /><line stroke="rgb(0,0,0)" x1="2096.5838500000004" x2="2101.5838500000004" y1="150.0" y2="150.0" /><line stroke="rgb(0,0,0)" x1="2101.5838500000004" x2="2121.5838500000004" y1="150.0" y2="150.0" /><line stroke="rgb(0,0,0)" x1="2121.5838500000004" x2="2131.5838500000004" y1="150.0" y2="150.0" /><line stroke="rgb(0,0,0)" x1="2131.5838500000004" x2="2136.5838500000004" y1="150.0" y2="150.0" /><line stroke="rgb(0,0,0)" x1="2136.5838500000004" x2="2193.2438500000003" y1="150.0" y2="150.0" /><line stroke="rgb(0,0,0)" x1="2193.2438500000003" x2="2203.2438500000003" y1="150.0" y2="150.0" /><line stroke="rgb(0,0,0)" x1="2203.2438500000003" x2="2208.2438500000003" y1="150.0" y2="150.0" /><line stroke="rgb(0,0,0)" x1="2208.2438500000003" x2="2223.2438500000003" y1="150.0" y2="150.0" /><line stroke="rgb(0,0,0)" x1="2223.2438500000003" x2="2233.2438500000003" y1="150.0" y2="150.0" /><line stroke="rgb(0,0,0)" x1="2233.2438500000003" x2="2238.2438500000003" y1="150.0" y2="150.0" /><line stroke="rgb(0,0,0)" x1="2238.2438500000003" x2="2263.2438500000003" y1="150.0" y2="150.0" /><line stroke="rgb(0,0,0)" x1="2263.2438500000003" x2="2273.2438500000003" y1="150.0" y2="150.0" /><line stroke="rgb(0,0,0)" x1="2273.2438500000003" x2="2278.2438500000003" y1="150.0" y2="150.0" /><line stroke="rgb(0,0,0)" x1="2278.2438500000003" x2="2310.0554500000003" y1="150.0" y2="150.0" /><line stroke="rgb(0,0,0)" x1="2310.0554500000003" x2="2320.0554500000003" y1="150.0" y2="150.0" /><line stroke="rgb(0,0,0)" x1="2320.0554500000003" x2="2325.0554500000003" y1="150.0" y2="150.0" /><line stroke="rgb(0,0,0)" x1="2325.0554500000003" x2="2371.2093000000004" y1="150.0" y2="150.0" /><line stroke="rgb(0,0,0)" x1="2371.2093000000004" x2="2381.2093000000004" y1="150.0" y2="75.0" /><line stroke="rgb(0,0,0)" x1="2381.2093000000004" x2="2386.2093000000004" y1="75.0" y2="75.0" /><line stroke="rgb(0,0,0)" x1="2325.0554500000003" x2="2371.2093000000004" y1="150.0" y2="150.0" /><line stroke="rgb(0,0,0)" x1="2371.2093000000004" x2="2381.2093000000004" y1="150.0" y2="225.0" /><line stroke="rgb(0,0,0)" x1="2381.2093000000004" x2="2386.2093000000004" y1="225.0" y2="225.0" /><line stroke="rgb(0,0,0)" x1="2386.2093000000004" x2="2400.2093000000004" y1="75.0" y2="75.0" /><line stroke="rgb(0,0,0)" x1="2400.2093000000004" x2="2417.6378500000005" y1="75.0" y2="75.0" /><line stroke="rgb(0,0,0)" x1="2417.6378500000005" x2="2422.6378500000005" y1="75.0" y2="75.0" /><line stroke="rgb(0,0,0)" x1="2386.2093000000004" x2="2407.6378500000005" y1="225.0" y2="225.0" /><line stroke="rgb(0,0,0)" x1="2407.6378500000005" x2="2417.6378500000005" y1="225.0" y2="75.0" /><line stroke="rgb(0,0,0)" x1="2417.6378500000005" x2="2422.6378500000005" y1="75.0" y2="75.0" /><line stroke="rgb(0,0,0)" x1="2386.2093000000004" x2="2400.2093000000004" y1="75.0" y2="75.0" /><line stroke="rgb(0,0,0)" x1="2400.2093000000004" x2="2417.6378500000005" y1="75.0" y2="225.0" /><line stroke="rgb(0,0,0)" x1="2417.6378500000005" x2="2422.6378500000005" y1="225.0" y2="225.0" /><line stroke="rgb(0,0,0)" x1="2422.6378500000005" x2="2451.3125500000006" y1="75.0" y2="75.0" /><line stroke="rgb(0,0,0)" x1="2451.3125500000006" x2="2461.3125500000006" y1="75.0" y2="150.0" /><line stroke="rgb(0,0,0)" x1="2461.3125500000006" x2="2466.3125500000006" y1="150.0" y2="150.0" /><line stroke="rgb(0,0,0)" x1="2466.3125500000006" x2="2489.7741000000005" y1="150.0" y2="150.0" /><line stroke="rgb(0,0,0)" x1="2489.7741000000005" x2="2499.7741000000005" y1="150.0" y2="150.0" /><line stroke="rgb(0,0,0)" x1="2499.7741000000005" x2="2504.7741000000005" y1="150.0" y2="150.0" /><line stroke="rgb(0,0,0)" x1="2504.7741000000005" x2="2530.6251500000003" y1="150.0" y2="150.0" /><line stroke="rgb(0,0,0)" x1="2530.6251500000003" x2="2540.6251500000003" y1="150.0" y2="150.0" /><line stroke="rgb(0,0,0)" x1="2540.6251500000003" x2="2545.6251500000003" y1="150.0" y2="150.0" /><line stroke="rgb(0,0,0)" x1="2422.6378500000005" x2="2432.6378500000005" y1="225.0" y2="225.0" /><line stroke="rgb(0,0,0)" x1="2432.6378500000005" x2="2540.6251500000003" y1="225.0" y2="150.0" /><line stroke="rgb(0,0,0)" x1="2540.6251500000003" x2="2545.6251500000003" y1="150.0" y2="150.0" /><line stroke="rgb(0,0,0)" x1="2545.6251500000003" x2="2607.0306500000006" y1="150.0" y2="150.0" /><line stroke="rgb(0,0,0)" x1="2607.0306500000006" x2="2617.0306500000006" y1="150.0" y2="150.0" /><line stroke="rgb(0,0,0)" x1="2617.0306500000006" x2="2622.0306500000006" y1="150.0" y2="150.0" /><line stroke="rgb(0,0,0)" x1="2622.0306500000006" x2="2642.58165" y1="150.0" y2="150.0" /><line stroke="rgb(0,0,0)" x1="2642.58165" x2="2652.58165" y1="150.0" y2="150.0" /><line stroke="rgb(0,0,0)" x1="2652.58165" x2="2657.58165" y1="150.0" y2="150.0" /><line stroke="rgb(0,0,0)" x1="2657.58165" x2="2679.64045" y1="150.0" y2="150.0" /><line stroke="rgb(0,0,0)" x1="2679.64045" x2="2689.64045" y1="150.0" y2="150.0" /><line stroke="rgb(0,0,0)" x1="2689.64045" x2="2694.64045" y1="150.0" y2="150.0" /><line stroke="rgb(0,0,0)" x1="2694.64045" x2="2714.64045" y1="150.0" y2="150.0" /><line stroke="rgb(0,0,0)" x1="2714.64045" x2="2724.64045" y1="150.0" y2="150.0" /><line stroke="rgb(0,0,0)" x1="2724.64045" x2="2729.64045" y1="150.0" y2="150.0" /><line stroke="rgb(0,0,0)" x1="2729.64045" x2="2779.069" y1="150.0" y2="150.0" /><line stroke="rgb(0,0,0)" x1="2779.069" x2="2789.069" y1="150.0" y2="150.0" /><line stroke="rgb(0,0,0)" x1="2789.069" x2="2794.069" y1="150.0" y2="150.0" /><line stroke="rgb(0,0,0)" x1="2794.069" x2="2819.8428000000004" y1="150.0" y2="150.0" /><line stroke="rgb(0,0,0)" x1="2819.8428000000004" x2="2829.8428000000004" y1="150.0" y2="75.0" /><line stroke="rgb(0,0,0)" x1="2829.8428000000004" x2="2834.8428000000004" y1="75.0" y2="75.0" /><line stroke="rgb(0,0,0)" x1="2794.069" x2="2819.8428000000004" y1="150.0" y2="150.0" /><line stroke="rgb(0,0,0)" x1="2819.8428000000004" x2="2829.8428000000004" y1="150.0" y2="225.0" /><line stroke="rgb(0,0,0)" x1="2829.8428000000004" x2="2834.8428000000004" y1="225.0" y2="225.0" /><line stroke="rgb(0,0,0)" x1="2834.8428000000004" x2="2859.9539" y1="75.0" y2="75.0" /><line stroke="rgb(0,0,0)" x1="2859.9539" x2="2869.9539" y1="75.0" y2="150.0" /><line stroke="rgb(0,0,0)" x1="2869.9539" x2="2874.9539" y1="150.0" y2="150.0" /><line stroke="rgb(0,0,0)" x1="2834.8428000000004" x2="2844.8428000000004" y1="225.0" y2="225.0" /><line stroke="rgb(0,0,0)" x1="2844.8428000000004" x2="2869.9539" y1="225.0" y2="150.0" /><line stroke="rgb(0,0,0)" x1="2869.9539" x2="2874.9539" y1="150.0" y2="150.0" /><line stroke="rgb(0,0,0)" x1="2874.9539" x2="2895.4539" y1="150.0" y2="150.0" /><line stroke="rgb(0,0,0)" x1="2895.4539" x2="2905.4539" y1="150.0" y2="150.0" /><line stroke="rgb(0,0,0)" x1="2905.4539" x2="2910.4539" y1="150.0" y2="150.0" /><line stroke="rgb(0,0,0)" x1="2910.4539" x2="2922.59675" y1="150.0" y2="150.0" /><line stroke="rgb(0,0,0)" x1="2922.59675" x2="2932.59675" y1="150.0" y2="75.0" /><line stroke="rgb(0,0,0)" x1="2932.59675" x2="2937.59675" y1="75.0" y2="75.0" /><line stroke="rgb(0,0,0)" x1="2910.4539" x2="2922.59675" y1="150.0" y2="150.0" /><line stroke="rgb(0,0,0)" x1="2922.59675" x2="2932.59675" y1="150.0" y2="225.0" /><line stroke="rgb(0,0,0)" x1="2932.59675" x2="2937.59675" y1="225.0" y2="225.0" /><line stroke="rgb(0,0,0)" x1="2937.59675" x2="2942.59675" y1="75.0" y2="75.0" /><line stroke="rgb(0,0,0)" x1="2942.59675" x2="2989.003" y1="75.0" y2="75.0" /><line stroke="rgb(0,0,0)" x1="2989.003" x2="2994.003" y1="75.0" y2="75.0" /><line stroke="rgb(0,0,0)" x1="2937.59675" x2="2979.003" y1="225.0" y2="225.0" /><line stroke="rgb(0,0,0)" x1="2979.003" x2="2989.003" y1="225.0" y2="225.0" /><line stroke="rgb(0,0,0)" x1="2989.003" x2="2994.003" y1="225.0" y2="225.0" /><line stroke="rgb(0,0,0)" x1="2994.003" x2="3004.003" y1="75.0" y2="75.0" /><line stroke="rgb(0,0,0)" x1="3004.003" x2="3030.4315500000002" y1="75.0" y2="75.0" /><line stroke="rgb(0,0,0)" x1="3030.4315500000002" x2="3035.4315500000002" y1="75.0" y2="75.0" /><line stroke="rgb(0,0,0)" x1="2994.003" x2="3020.4315500000002" y1="225.0" y2="225.0" /><line stroke="rgb(0,0,0)" x1="3020.4315500000002" x2="3030.4315500000002" y1="225.0" y2="225.0" /><line stroke="rgb(0,0,0)" x1="3030.4315500000002" x2="3035.4315500000002" y1="225.0" y2="225.0" /><line stroke="rgb(0,0,0)" x1="3035.4315500000002" x2="3047.9315500000002" y1="75.0" y2="75.0" /><line stroke="rgb(0,0,0)" x1="3047.9315500000002" x2="3065.4315500000002" y1="75.0" y2="150.0" /><line stroke="rgb(0,0,0)" x1="3065.4315500000002" x2="3070.4315500000002" y1="150.0" y2="150.0" /><line stroke="rgb(0,0,0)" x1="3035.4315500000002" x2="3055.4315500000002" y1="225.0" y2="225.0" /><line stroke="rgb(0,0,0)" x1="3055.4315500000002" x2="3065.4315500000002" y1="225.0" y2="150.0" /><line stroke="rgb(0,0,0)" x1="3065.4315500000002" x2="3070.4315500000002" y1="150.0" y2="150.0" /><rect fill="rgb(254,25,33)" height="0.8" stroke="rgb(0,0,0)" width="15.0" x="5.0" y="149.6" /><text fill="black" x="5.0" y="170.4">H0</text><rect fill="rgb(255,0,0)" height="0.8" stroke="rgb(0,0,0)" width="15.0" x="40.0" y="149.6" /><text fill="black" x="40.0" y="170.4">E1</text><rect fill="rgb(0,0,255)" height="0.4" stroke="rgb(0,0,0)" width="10.0" x="75.0" y="149.8" /><text fill="black" x="75.0" y="170.2">E2</text><rect fill="rgb(0,0,255)" height="0.4" stroke="rgb(0,0,0)" width="5.0" x="105.0" y="149.8" /><text fill="black" x="105.0" y="170.2">E3</text><rect fill="rgb(255,128,164)" height="0.8" stroke="rgb(0,0,0)" width="32.5" x="130.0" y="149.6" /><text fill="black" x="130.0" y="170.4">H4</text><rect fill="rgb(255,192,245)" height="1.6" stroke="rgb(0,0,0)" width="43.75" x="182.5" y="149.2" /><text fill="black" x="182.5" y="170.8">E5</text><rect fill="rgb(101,79,255)" height="1.6" stroke="rgb(0,0,0)" width="36.25" x="246.25" y="149.2" /><text fill="black" x="246.25" y="170.8">E6</text><rect fill="rgb(0,0,255)" height="0.0" stroke="rgb(0,0,0)" width="0.0" x="302.5" y="75.0" /><text fill="black" x="302.5" y="95.0">X7</text><rect fill="rgb(255,106,135)" height="1.2" stroke="rgb(0,0,0)" width="15.0" x="302.5" y="224.4" /><text fill="black" x="302.5" y="245.6">H8</text><rect fill="rgb(218,171,255)" height="2.0" stroke="rgb(0,0,0)" width="35.0" x="337.5" y="149.0" /><text fill="black" x="337.5" y="171.0">E9</text><rect fill="rgb(255,145,185)" height="3.2" stroke="rgb(0,0,0)" width="69.375" x="392.5" y="148.4" /><text fill="black" x="392.5" y="171.6">H10</text><rect fill="rgb(255,16,20)" height="6.800000000000001" stroke="rgb(0,0,0)" width="49.11765" x="481.875" y="146.6" /><text fill="black" x="481.875" y="173.4">H11</text><rect fill="rgb(50,39,255)" height="3.5999999999999996" stroke="rgb(0,0,0)" width="15.0" x="550.99265" y="148.2" /><text fill="black" x="550.99265" y="171.8">H12</text><rect fill="rgb(45,35,255)" height="3.5999999999999996" stroke="rgb(0,0,0)" width="5.0" x="585.99265" y="148.2" /><text fill="black" x="585.99265" y="171.8">E13</text><rect fill="rgb(165,130,255)" height="2.0" stroke="rgb(0,0,0)" width="29.0" x="610.99265" y="149.0" /><text fill="black" x="610.99265" y="171.0">E14</text><rect fill="rgb(0,0,255)" height="0.4" stroke="rgb(0,0,0)" width="15.0" x="659.9926500000001" y="149.8" /><text fill="black" x="659.9926500000001" y="170.2">H15</text><rect fill="rgb(218,171,255)" height="2.0" stroke="rgb(0,0,0)" width="30.0" x="694.9926500000001" y="149.0" /><text fill="black" x="694.9926500000001" y="171.0">E16</text><rect fill="rgb(66,51,255)" height="78.0" stroke="rgb(0,0,0)" width="6.41025" x="744.9926500000001" y="111.0" /><text fill="black" x="744.9926500000001" y="209.0">E17</text><rect fill="rgb(105,83,255)" height="93.2" stroke="rgb(0,0,0)" width="38.4335" x="771.4029" y="103.4" /><text fill="black" x="771.4029" y="216.6">H18</text><rect fill="rgb(0,0,255)" height="0.4" stroke="rgb(0,0,0)" width="5.0" x="829.8364000000001" y="149.8" /><text fill="black" x="829.8364000000001" y="170.2">E19</text><rect fill="rgb(203,159,255)" height="33.2" stroke="rgb(0,0,0)" width="17.108449999999998" x="854.8364000000001" y="133.4" /><text fill="black" x="854.8364000000001" y="186.6">H20</text><rect fill="rgb(85,67,255)" height="2.8000000000000003" stroke="rgb(0,0,0)" width="6.4285499999999995" x="891.9448500000001" y="148.6" /><text fill="black" x="891.9448500000001" y="171.4">E21</text><rect fill="rgb(24,19,255)" height="0.8" stroke="rgb(0,0,0)" width="20.0" x="918.3734000000002" y="149.6" /><text fill="black" x="918.3734000000002" y="170.4">H22</text><rect fill="rgb(255,138,177)" height="6.4" stroke="rgb(0,0,0)" width="6.5625" x="958.3734000000002" y="146.8" /><text fill="black" x="958.3734000000002" y="173.2">E23</text><rect fill="rgb(44,34,255)" height="100.0" stroke="rgb(0,0,0)" width="104.46" x="984.9359000000002" y="100.0" /><text fill="black" x="984.9359000000002" y="220.0">H24</text><rect fill="rgb(0,0,255)" height="0.4" stroke="rgb(0,0,0)" width="30.0" x="1109.3959" y="74.8" /><text fill="black" x="1109.3959" y="95.2">H25</text><rect fill="rgb(175,137,255)" height="1.2" stroke="rgb(0,0,0)" width="5.0" x="1109.3959" y="224.4" /><text fill="black" x="1109.3959" y="245.6">E26</text><rect fill="rgb(90,70,255)" height="1.2" stroke="rgb(0,0,0)" width="5.0" x="1159.3959" y="149.4" /><text fill="black" x="1159.3959" y="170.6">E27</text><rect fill="rgb(0,0,255)" height="0.4" stroke="rgb(0,0,0)" width="15.0" x="1184.3959" y="149.8" /><text fill="black" x="1184.3959" y="170.2">H28</text><rect fill="rgb(42,33,255)" height="49.6" stroke="rgb(0,0,0)" width="9.7984" x="1219.3959" y="125.2" /><text fill="black" x="1219.3959" y="194.8">E29</text><rect fill="rgb(40,31,255)" height="100.0" stroke="rgb(0,0,0)" width="18.68" x="1249.1943" y="100.0" /><text fill="black" x="1249.1943" y="220.0">H30</text><rect fill="rgb(54,42,255)" height="100.0" stroke="rgb(0,0,0)" width="16.7" x="1287.8743" y="100.0" /><text fill="black" x="1287.8743" y="220.0">E31</text><rect fill="rgb(172,135,255)" height="18.0" stroke="rgb(0,0,0)" width="15.44445" x="1324.5742999999998" y="141.0" /><text fill="black" x="1324.5742999999998" y="179.0">H32</text><rect fill="rgb(53,41,255)" height="100.0" stroke="rgb(0,0,0)" width="16.1" x="1360.0187499999997" y="100.0" /><text fill="black" x="1360.0187499999997" y="220.0">E33</text><rect fill="rgb(255,95,121)" height="16.8" stroke="rgb(0,0,0)" width="24.523799999999998" x="1396.11875" y="141.6" /><text fill="black" x="1396.11875" y="178.4">H34</text><rect fill="rgb(58,45,255)" height="49.6" stroke="rgb(0,0,0)" width="9.8387" x="1440.64255" y="50.2" /><text fill="black" x="1440.64255" y="119.8">E35</text><rect fill="rgb(255,127,162)" height="3.2" stroke="rgb(0,0,0)" width="15.625" x="1440.64255" y="223.4" /><text fill="black" x="1440.64255" y="246.6">H36</text><rect fill="rgb(19,15,255)" height="4.8" stroke="rgb(0,0,0)" width="9.583350000000001" x="1476.26755" y="72.6" /><text fill="black" x="1476.26755" y="97.4">E37</text><rect fill="rgb(137,108,255)" height="4.3999999999999995" stroke="rgb(0,0,0)" width="20.45455" x="1476.26755" y="222.8" /><text fill="black" x="1476.26755" y="247.2">H38</text><rect fill="rgb(255,82,105)" height="0.8" stroke="rgb(0,0,0)" width="15.0" x="1516.7221" y="74.6" /><text fill="black" x="1516.7221" y="95.4">H39</text><rect fill="rgb(30,23,255)" height="4.8" stroke="rgb(0,0,0)" width="9.583350000000001" x="1516.7221" y="222.6" /><text fill="black" x="1516.7221" y="247.4">E40</text><rect fill="rgb(254,35,45)" height="35.6" stroke="rgb(0,0,0)" width="7.86515" x="1551.7221" y="132.2" /><text fill="black" x="1551.7221" y="187.8">E41</text><rect fill="rgb(255,85,109)" height="6.800000000000001" stroke="rgb(0,0,0)" width="21.7647" x="1579.58725" y="146.6" /><text fill="black" x="1579.58725" y="173.4">H42</text><rect fill="rgb(255,159,203)" height="7.199999999999999" stroke="rgb(0,0,0)" width="8.8889" x="1621.3519500000002" y="146.4" /><text fill="black" x="1621.3519500000002" y="173.6">E43</text><rect fill="rgb(39,30,255)" height="73.2" stroke="rgb(0,0,0)" width="15.90165" x="1650.2408500000001" y="113.4" /><text fill="black" x="1650.2408500000001" y="206.6">H44</text><rect fill="rgb(40,31,255)" height="95.19999999999999" stroke="rgb(0,0,0)" width="26.911749999999998" x="1686.1425000000004" y="102.4" /><text fill="black" x="1686.1425000000004" y="217.6">H45</text><rect fill="rgb(0,0,255)" height="0.4" stroke="rgb(0,0,0)" width="5.0" x="1733.0542500000001" y="149.8" /><text fill="black" x="1733.0542500000001" y="170.2">E46</text><rect fill="rgb(0,0,255)" height="0.4" stroke="rgb(0,0,0)" width="15.0" x="1758.0542500000001" y="149.8" /><text fill="black" x="1758.0542500000001" y="170.2">H47</text><rect fill="rgb(255,43,55)" height="4.3999999999999995" stroke="rgb(0,0,0)" width="22.727249999999998" x="1793.0542500000001" y="147.8" /><text fill="black" x="1793.0542500000001" y="172.2">H48</text><rect fill="rgb(107,84,255)" height="28.799999999999997" stroke="rgb(0,0,0)" width="7.56945" x="1835.7815000000003" y="135.6" /><text fill="black" x="1835.7815000000003" y="184.4">E49</text><rect fill="rgb(37,29,255)" height="100.0" stroke="rgb(0,0,0)" width="85.61999999999999" x="1863.3509500000002" y="100.0" /><text fill="black" x="1863.3509500000002" y="220.0">H50</text><rect fill="rgb(255,54,69)" height="4.0" stroke="rgb(0,0,0)" width="21.0" x="1968.9709500000004" y="73.0" /><text fill="black" x="1968.9709500000004" y="97.0">H51</text><rect fill="rgb(7,5,255)" height="0.8" stroke="rgb(0,0,0)" width="5.0" x="1968.9709500000004" y="224.6" /><text fill="black" x="1968.9709500000004" y="245.4">E52</text><rect fill="rgb(45,35,255)" height="0.8" stroke="rgb(0,0,0)" width="5.0" x="2009.9709500000004" y="149.6" /><text fill="black" x="2009.9709500000004" y="170.4">E53</text><rect fill="rgb(11,9,255)" height="0.8" stroke="rgb(0,0,0)" width="5.0" x="2034.9709500000004" y="149.6" /><text fill="black" x="2034.9709500000004" y="170.4">E54</text><rect fill="rgb(255,113,144)" height="12.4" stroke="rgb(0,0,0)" width="21.612900000000003" x="2059.9709500000004" y="143.8" /><text fill="black" x="2059.9709500000004" y="176.2">H55</text><rect fill="rgb(255,160,205)" height="0.8" stroke="rgb(0,0,0)" width="15.0" x="2101.5838500000004" y="149.6" /><text fill="black" x="2101.5838500000004" y="170.4">H56</text><rect fill="rgb(209,164,255)" height="96.39999999999999" stroke="rgb(0,0,0)" width="51.660000000000004" x="2136.5838500000004" y="101.80000000000001" /><text fill="black" x="2136.5838500000004" y="218.2">H57</text><rect fill="rgb(189,148,255)" height="1.2" stroke="rgb(0,0,0)" width="10.0" x="2208.2438500000003" y="149.4" /><text fill="black" x="2208.2438500000003" y="170.6">E58</text><rect fill="rgb(13,10,255)" height="13.200000000000001" stroke="rgb(0,0,0)" width="20.0" x="2238.2438500000003" y="143.4" /><text fill="black" x="2238.2438500000003" y="176.6">H59</text><rect fill="rgb(255,188,240)" height="27.6" stroke="rgb(0,0,0)" width="26.811600000000002" x="2278.2438500000003" y="136.2" /><text fill="black" x="2278.2438500000003" y="183.8">H60</text><rect fill="rgb(255,172,219)" height="15.6" stroke="rgb(0,0,0)" width="41.15385" x="2325.0554500000003" y="142.2" /><text fill="black" x="2325.0554500000003" y="177.8">H61</text><rect fill="rgb(255,49,62)" height="2.0" stroke="rgb(0,0,0)" width="9.0" x="2386.2093000000004" y="74.0" /><text fill="black" x="2386.2093000000004" y="96.0">E62</text><rect fill="rgb(203,159,255)" height="2.8000000000000003" stroke="rgb(0,0,0)" width="16.42855" x="2386.2093000000004" y="223.6" /><text fill="black" x="2386.2093000000004" y="246.4">H63</text><rect fill="rgb(95,75,255)" height="33.2" stroke="rgb(0,0,0)" width="23.6747" x="2422.6378500000005" y="58.4" /><text fill="black" x="2422.6378500000005" y="111.6">H64</text><rect fill="rgb(37,29,255)" height="7.6" stroke="rgb(0,0,0)" width="5.0" x="2422.6378500000005" y="221.2" /><text fill="black" x="2422.6378500000005" y="248.8">E65</text><rect fill="rgb(129,101,255)" height="5.2" stroke="rgb(0,0,0)" width="18.46155" x="2466.3125500000006" y="147.4" /><text fill="black" x="2466.3125500000006" y="172.6">H66</text><rect fill="rgb(255,185,236)" height="18.8" stroke="rgb(0,0,0)" width="20.85105" x="2504.7741000000005" y="140.6" /><text fill="black" x="2504.7741000000005" y="179.4">H67</text><rect fill="rgb(101,79,255)" height="99.6" stroke="rgb(0,0,0)" width="56.4055" x="2545.6251500000003" y="100.2" /><text fill="black" x="2545.6251500000003" y="219.8">H68</text><rect fill="rgb(57,44,255)" height="98.0" stroke="rgb(0,0,0)" width="15.550999999999998" x="2622.0306500000006" y="101.0" /><text fill="black" x="2622.0306500000006" y="219.0">H69</text><rect fill="rgb(180,141,255)" height="6.800000000000001" stroke="rgb(0,0,0)" width="17.0588" x="2657.58165" y="146.6" /><text fill="black" x="2657.58165" y="173.4">H70</text><rect fill="rgb(0,0,255)" height="0.4" stroke="rgb(0,0,0)" width="15.0" x="2694.64045" y="149.8" /><text fill="black" x="2694.64045" y="170.2">H71</text><rect fill="rgb(255,187,239)" height="98.0" stroke="rgb(0,0,0)" width="44.42855" x="2729.64045" y="101.0" /><text fill="black" x="2729.64045" y="219.0">H72</text><rect fill="rgb(255,179,228)" height="67.2" stroke="rgb(0,0,0)" width="20.773799999999998" x="2794.069" y="116.4" /><text fill="black" x="2794.069" y="203.6">H73</text><rect fill="rgb(246,193,255)" height="18.0" stroke="rgb(0,0,0)" width="20.1111" x="2834.8428000000004" y="66.0" /><text fill="black" x="2834.8428000000004" y="104.0">H74</text><rect fill="rgb(146,115,255)" height="7.6" stroke="rgb(0,0,0)" width="5.0" x="2834.8428000000004" y="221.2" /><text fill="black" x="2834.8428000000004" y="248.8">E75</text><rect fill="rgb(87,68,255)" height="4.0" stroke="rgb(0,0,0)" width="15.5" x="2874.9539" y="148.0" /><text fill="black" x="2874.9539" y="172.0">H76</text><rect fill="rgb(255,51,65)" height="2.8000000000000003" stroke="rgb(0,0,0)" width="7.142849999999999" x="2910.4539" y="148.6" /><text fill="black" x="2910.4539" y="171.4">E77</text><rect fill="rgb(0,0,255)" height="0.0" stroke="rgb(0,0,0)" width="0.0" x="2937.59675" y="75.0" /><text fill="black" x="2937.59675" y="95.0">X78</text><rect fill="rgb(254,13,17)" height="12.8" stroke="rgb(0,0,0)" width="36.40625" x="2937.59675" y="218.6" /><text fill="black" x="2937.59675" y="251.4">H79</text><rect fill="rgb(0,0,255)" height="0.4" stroke="rgb(0,0,0)" width="5.0" x="2994.003" y="74.8" /><text fill="black" x="2994.003" y="95.2">E80</text><rect fill="rgb(255,156,200)" height="14.000000000000002" stroke="rgb(0,0,0)" width="21.42855" x="2994.003" y="218.0" /><text fill="black" x="2994.003" y="252.0">H81</text><rect fill="rgb(255,12,16)" height="0.8" stroke="rgb(0,0,0)" width="7.5" x="3035.4315500000002" y="74.6" /><text fill="black" x="3035.4315500000002" y="95.4">E82</text><rect fill="rgb(15,11,255)" height="0.8" stroke="rgb(0,0,0)" width="15.0" x="3035.4315500000002" y="224.6" /><text fill="black" x="3035.4315500000002" y="245.4">H83</text><rect fill="rgb(0,0,255)" height="0.0" stroke="rgb(0,0,0)" width="0.0" x="3070.4315500000002" y="150.0" /><text fill="black" x="3070.4315500000002" y="170.0">X84</text><path d="M 80.0,150.0 a 49.21320462929709,49.21320462929709 0 0,0 -32.5,-0.0" stroke="rgb(255,0,0)" stroke-width="2" /><path d="M 80.0,150.0 a 49.21320462929709,49.21320462929709 0 0,0 -32.5,-0.0" stroke="rgb(0,0,0)" stroke-width="0.2" /><path d="M 204.375,150.0 a 280.8189678116438,280.8189678116438 0 0,0 -156.875,-0.0" stroke="rgb(255,0,0)" stroke-width="2" /><path d="M 204.375,150.0 a 280.8189678116438,280.8189678116438 0 0,0 -156.875,-0.0" stroke="rgb(0,0,0)" stroke-width="0.2" /><path d="M 107.5,150.0 a 637.3099669409602,637.3099669409602 0 0,0 517.99265,-0.0" stroke="rgb(0,0,255)" stroke-width="2" /><path d="M 107.5,150.0 a 637.3099669409602,637.3099669409602 0 0,0 517.99265,-0.0" stroke="rgb(0,0,0)" stroke-width="0.2" /><path d="M 264.375,150.0 a 94.50135601235185,94.50135601235185 0 0,0 -60.0,-0.0" stroke="rgb(255,192,245)" stroke-width="2" /><path d="M 264.375,150.0 a 94.50135601235185,94.50135601235185 0 0,0 -60.0,-0.0" stroke="rgb(0,0,0)" stroke-width="0.2" /><path d="M 355.0,150.0 a 148.88392618794316,148.88392618794316 0 0,0 -90.625,-0.0" stroke="rgb(101,79,255)" stroke-width="2" /><path d="M 355.0,150.0 a 148.88392618794316,148.88392618794316 0 0,0 -90.625,-0.0" stroke="rgb(0,0,0)" stroke-width="0.2" /><path d="M 709.9926500000001,150.0 a 792.724543430642,792.724543430642 0 0,0 -354.99265000000014,-0.0" stroke="rgb(218,171,255)" stroke-width="2" /><path d="M 709.9926500000001,150.0 a 792.724543430642,792.724543430642 0 0,0 -354.99265000000014,-0.0" stroke="rgb(0,0,0)" stroke-width="0.2" /><path d="M 588.49265,150.0 a 1408.724762934567,1408.724762934567 0 0,0 779.5760999999997,-0.0" stroke="rgb(45,35,255)" stroke-width="2" /><path d="M 588.49265,150.0 a 1408.724762934567,1408.724762934567 0 0,0 779.5760999999997,-0.0" stroke="rgb(0,0,0)" stroke-width="0.2" /><path d="M 709.9926500000001,150.0 a 137.6739767764932,137.6739767764932 0 0,0 -84.50000000000011,-0.0" stroke="rgb(165,130,255)" stroke-width="2" /><path d="M 709.9926500000001,150.0 a 137.6739767764932,137.6739767764932 0 0,0 -84.50000000000011,-0.0" stroke="rgb(0,0,0)" stroke-width="0.2" /><path d="M 1296.2242999999999,150.0 a 1461.6315220949,1461.6315220949 0 0,0 -548.0265249999998,-0.0" stroke="rgb(66,51,255)" stroke-width="2" /><path d="M 1296.2242999999999,150.0 a 1461.6315220949,1461.6315220949 0 0,0 -548.0265249999998,-0.0" stroke="rgb(0,0,0)" stroke-width="0.2" /><path d="M 961.6546500000002,150.0 a 223.5616175054589,223.5616175054589 0 0,0 -129.31825000000003,-0.0" stroke="rgb(0,0,255)" stroke-width="2" /><path d="M 961.6546500000002,150.0 a 223.5616175054589,223.5616175054589 0 0,0 -129.31825000000003,-0.0" stroke="rgb(0,0,0)" stroke-width="0.2" /><path d="M 895.1591250000001,150.0 a 37.54921555687643,37.54921555687643 0 0,0 66.49552500000004,-0.0" stroke="rgb(85,67,255)" stroke-width="2" /><path d="M 895.1591250000001,150.0 a 37.54921555687643,37.54921555687643 0 0,0 66.49552500000004,-0.0" stroke="rgb(0,0,0)" stroke-width="0.2" /><path d="M 961.6546500000002,150.0 a 2357.8499085129324,2357.8499085129324 0 0,0 1009.8163000000002,75.0" stroke="rgb(255,138,177)" stroke-width="2" /><path d="M 961.6546500000002,150.0 a 2357.8499085129324,2357.8499085129324 0 0,0 1009.8163000000002,75.0" stroke="rgb(0,0,0)" stroke-width="0.2" /><path d="M 2914.025325,150.0 a 11413.247560957298,11413.247560957298 0 0,0 -1952.370675,-0.0" stroke="rgb(255,138,177)" stroke-width="2" /><path d="M 2914.025325,150.0 a 11413.247560957298,11413.247560957298 0 0,0 -1952.370675,-0.0" stroke="rgb(0,0,0)" stroke-width="0.2" /><path d="M 1161.8959,150.0 a 147.98795393731243,147.98795393731243 0 0,0 -50.0,75.0" stroke="rgb(175,137,255)" stroke-width="2" /><path d="M 1161.8959,150.0 a 147.98795393731243,147.98795393731243 0 0,0 -50.0,75.0" stroke="rgb(0,0,0)" stroke-width="0.2" /><path d="M 1445.5619,75.0 a 458.22454210127626,458.22454210127626 0 0,0 -221.26679999999988,75.0" stroke="rgb(42,33,255)" stroke-width="2" /><path d="M 1445.5619,75.0 a 458.22454210127626,458.22454210127626 0 0,0 -221.26679999999988,75.0" stroke="rgb(0,0,0)" stroke-width="0.2" /><path d="M 1368.0687499999997,150.0 a 115.0401654188038,115.0401654188038 0 0,0 -71.84444999999982,-0.0" stroke="rgb(54,42,255)" stroke-width="2" /><path d="M 1368.0687499999997,150.0 a 115.0401654188038,115.0401654188038 0 0,0 -71.84444999999982,-0.0" stroke="rgb(0,0,0)" stroke-width="0.2" /><path d="M 1521.513775,225.0 a 277.58185403662867,277.58185403662867 0 0,0 -40.45454999999993,-150.0" stroke="rgb(19,15,255)" stroke-width="2" /><path d="M 1521.513775,225.0 a 277.58185403662867,277.58185403662867 0 0,0 -40.45454999999993,-150.0" stroke="rgb(0,0,0)" stroke-width="0.2" /><path d="M 1625.7964000000002,150.0 a 112.04923610014926,112.04923610014926 0 0,0 -70.14172500000018,-0.0" stroke="rgb(254,35,45)" stroke-width="2" /><path d="M 1625.7964000000002,150.0 a 112.04923610014926,112.04923610014926 0 0,0 -70.14172500000018,-0.0" stroke="rgb(0,0,0)" stroke-width="0.2" /><path d="M 1839.5662250000003,150.0 a 588.7662815957934,588.7662815957934 0 0,0 -283.91155000000026,-0.0" stroke="rgb(254,35,45)" stroke-width="2" /><path d="M 1839.5662250000003,150.0 a 588.7662815957934,588.7662815957934 0 0,0 -283.91155000000026,-0.0" stroke="rgb(0,0,0)" stroke-width="0.2" /><path d="M 1839.5662250000003,150.0 a 173.96591761070871,173.96591761070871 0 0,0 -104.01197500000012,-0.0" stroke="rgb(0,0,255)" stroke-width="2" /><path d="M 1839.5662250000003,150.0 a 173.96591761070871,173.96591761070871 0 0,0 -104.01197500000012,-0.0" stroke="rgb(0,0,0)" stroke-width="0.2" /><path d="M 2037.4709500000004,150.0 a 37.442614241974084,37.442614241974084 0 0,0 -25.0,-0.0" stroke="rgb(45,35,255)" stroke-width="2" /><path d="M 2037.4709500000004,150.0 a 37.442614241974084,37.442614241974084 0 0,0 -25.0,-0.0" stroke="rgb(0,0,0)" stroke-width="0.2" /><path d="M 2390.7093000000004,75.0 a 360.2485387549019,360.2485387549019 0 0,0 -177.46545000000015,75.0" stroke="rgb(189,148,255)" stroke-width="2" /><path d="M 2390.7093000000004,75.0 a 360.2485387549019,360.2485387549019 0 0,0 -177.46545000000015,75.0" stroke="rgb(0,0,0)" stroke-width="0.2" /><path d="M 3039.1815500000002,75.0 a 1876.346628288901,1876.346628288901 0 0,0 -648.4722499999998,-0.0" stroke="rgb(255,49,62)" stroke-width="2" /><path d="M 3039.1815500000002,75.0 a 1876.346628288901,1876.346628288901 0 0,0 -648.4722499999998,-0.0" stroke="rgb(0,0,0)" stroke-width="0.2" /><path d="M 2837.3428000000004,225.0 a 973.4311783807404,973.4311783807404 0 0,0 -412.2049499999998,-0.0" stroke="rgb(37,29,255)" stroke-width="2" /><path d="M 2837.3428000000004,225.0 a 973.4311783807404,973.4311783807404 0 0,0 -412.2049499999998,-0.0" stroke="rgb(0,0,0)" stroke-width="0.2" /><path d="M 2996.503,75.0 a 188.3029766785576,188.3029766785576 0 0,0 -82.47767500000009,75.0" stroke="rgb(255,51,65)" stroke-width="2" /><path d="M 2996.503,75.0 a 188.3029766785576,188.3029766785576 0 0,0 -82.47767500000009,75.0" stroke="rgb(0,0,0)" stroke-width="0.2" /></svg>