<?xml version="1.0" encoding="utf-8" ?>
<svg baseProfile="full" height="100%" style="font-size:14;font-family:Sans, Arial;stroke-width:1;fill:none" version="1.1" width="100%" xmlns="http://www.w3.org/2000/svg" xmlns:ev="http://www.w3.org/2001/xml-events" xmlns:xlink="http://www.w3.org/1999/xlink"><defs /><rect fill="none" height="280.0" stroke="none" width="4760.0" x="0" y="0" /><line stroke="rgb(0,0,0)" x1="5.0" x2="25.0" y1="130.0" y2="130.0" /><line stroke="rgb(0,0,0)" x1="25.0" x2="45.0" y1="130.0" y2="130.0" /><line stroke="rgb(0,0,0)" x1="45.0" x2="50.0" y1="130.0" y2="130.0" /><line stroke="rgb(0,0,0)" x1="50.0" x2="75.0" y1="130.0" y2="130.0" /><line stroke="rgb(0,0,0)" x1="75.0" x2="95.0" y1="130.0" y2="130.0" /><line stroke="rgb(0,0,0)" x1="95.0" x2="100.0" y1="130.0" y2="130.0" /><line stroke="rgb(0,0,0)" x1="100.0" x2="115.0" y1="130.0" y2="130.0" /><line stroke="rgb(0,0,0)" x1="115.0" x2="135.0" y1="130.0" y2="130.0" /><line stroke="rgb(0,0,0)" x1="135.0" x2="140.0" y1="130.0" y2="130.0" /><line stroke="rgb(0,0,0)" x1="140.0" x2="150.0" y1="130.0" y2="130.0" /><line stroke="rgb(0,0,0)" x1="150.0" x2="170.0" y1="130.0" y2="130.0" /><line stroke="rgb(0,0,0)" x1="170.0" x2="175.0" y1="130.0" y2="130.0" /><line stroke="rgb(0,0,0)" x1="175.0" x2="215.0" y1="130.0" y2="130.0" /><line stroke="rgb(0,0,0)" x1="215.0" x2="235.0" y1="130.0" y2="130.0" /><line stroke="rgb(0,0,0)" x1="235.0" x2="240.0" y1="130.0" y2="130.0" /><line stroke="rgb(0,0,0)" x1="240.0" x2="300.0" y1="130.0" y2="130.0" /><line stroke="rgb(0,0,0)" x1="300.0" x2="320.0" y1="130.0" y2="130.0" /><line stroke="rgb(0,0,0)" x1="320.0" x2="325.0" y1="130.0" y2="130.0" /><line stroke="rgb(0,0,0)" x1="325.0" x2="370.0" y1="130.0" y2="130.0" /><line stroke="rgb(0,0,0)" x1="370.0" x2="390.0" y1="130.0" y2="55.0" /><line stroke="rgb(0,0,0)" x1="390.0" x2="395.0" y1="55.0" y2="55.0" /><line stroke="rgb(0,0,0)" x1="325.0" x2="370.0" y1="130.0" y2="130.0" /><line stroke="rgb(0,0,0)" x1="370.0" x2="390.0" y1="130.0" y2="205.0" /><line stroke="rgb(0,0,0)" x1="390.0" x2="395.0" y1="205.0" y2="205.0" /><line stroke="rgb(0,0,0)" x1="395.0" x2="400.0" y1="55.0" y2="55.0" /><line stroke="rgb(0,0,0)" x1="400.0" x2="435.0" y1="55.0" y2="130.0" /><line stroke="rgb(0,0,0)" x1="435.0" x2="440.0" y1="130.0" y2="130.0" /><line stroke="rgb(0,0,0)" x1="395.0" x2="415.0" y1="205.0" y2="205.0" /><line stroke="rgb(0,0,0)" x1="415.0" x2="435.0" y1="205.0" y2="130.0" /><line stroke="rgb(0,0,0)" x1="435.0" x2="440.0" y1="130.0" y2="130.0" /><line stroke="rgb(0,0,0)" x1="440.0" x2="490.0" y1="130.0" y2="130.0" /><line stroke="rgb(0,0,0)" x1="490.0" x2="510.0" y1="130.0" y2="130.0" /><line stroke="rgb(0,0,0)" x1="510.0" x2="515.0" y1="130.0" y2="130.0" /><line stroke="rgb(0,0,0)" x1="515.0" x2="605.0" y1="130.0" y2="130.0" /><line stroke="rgb(0,0,0)" x1="605.0" x2="625.0" y1="130.0" y2="130.0" /><line stroke="rgb(0,0,0)" x1="625.0" x2="630.0" y1="130.0" y2="130.0" /><line stroke="rgb(0,0,0)" x1="630.0" x2="735.0" y1="130.0" y2="130.0" /><line stroke="rgb(0,0,0)" x1="735.0" x2="755.0" y1="130.0" y2="130.0" /><line stroke="rgb(0,0,0)" x1="755.0" x2="760.0" y1="130.0" y2="130.0" /><line stroke="rgb(0,0,0)" x1="760.0" x2="780.0" y1="130.0" y2="130.0" /><line stroke="rgb(0,0,0)" x1="780.0" x2="800.0" y1="130.0" y2="130.0" /><line stroke="rgb(0,0,0)" x1="800.0" x2="805.0" y1="130.0" y2="130.0" /><line stroke="rgb(0,0,0)" x1="805.0" x2="815.0" y1="130.0" y2="130.0" /><line stroke="rgb(0,0,0)" x1="815.0" x2="835.0" y1="130.0" y2="130.0" /><line stroke="rgb(0,0,0)" x1="835.0" x2="840.0" y1="130.0" y2="130.0" /><line stroke="rgb(0,0,0)" x1="840.0" x2="880.0" y1="130.0" y2="130.0" /><line stroke="rgb(0,0,0)" x1="880.0" x2="900.0" y1="130.0" y2="130.0" /><line stroke="rgb(0,0,0)" x1="900.0" x2="905.0" y1="130.0" y2="130.0" /><line stroke="rgb(0,0,0)" x1="905.0" x2="925.0" y1="130.0" y2="130.0" /><line stroke="rgb(0,0,0)" x1="925.0" x2="945.0" y1="130.0" y2="130.0" /><line stroke="rgb(0,0,0)" x1="945.0" x2="950.0" y1="130.0" y2="130.0" /><line stroke="rgb(0,0,0)" x1="950.0" x2="995.0" y1="130.0" y2="130.0" /><line stroke="rgb(0,0,0)" x1="995.0" x2="1015.0" y1="130.0" y2="130.0" /><line stroke="rgb(0,0,0)" x1="1015.0" x2="1020.0" y1="130.0" y2="130.0" /><line stroke="rgb(0,0,0)" x1="1020.0" x2="1040.0" y1="130.0" y2="130.0" /><line stroke="rgb(0,0,0)" x1="1040.0" x2="1060.0" y1="130.0" y2="130.0" /><line stroke="rgb(0,0,0)" x1="1060.0" x2="1065.0" y1="130.0" y2="130.0" /><line stroke="rgb(0,0,0)" x1="1065.0" x2="1145.0" y1="130.0" y2="130.0" /><line stroke="rgb(0,0,0)" x1="1145.0" x2="1165.0" y1="130.0" y2="130.0" /><line stroke="rgb(0,0,0)" x1="1165.0" x2="1170.0" y1="130.0" y2="130.0" /><line stroke="rgb(0,0,0)" x1="1170.0" x2="1180.0" y1="130.0" y2="130.0" /><line stroke="rgb(0,0,0)" x1="1180.0" x2="1200.0" y1="130.0" y2="130.0" /><line stroke="rgb(0,0,0)" x1="1200.0" x2="1205.0" y1="130.0" y2="130.0" /><line stroke="rgb(0,0,0)" x1="1205.0" x2="1250.0" y1="130.0" y2="130.0" /><line stroke="rgb(0,0,0)" x1="1250.0" x2="1270.0" y1="130.0" y2="130.0" /><line stroke="rgb(0,0,0)" x1="1270.0" x2="1275.0" y1="130.0" y2="130.0" /><line stroke="rgb(0,0,0)" x1="1275.0" x2="1290.0" y1="130.0" y2="130.0" /><line stroke="rgb(0,0,0)" x1="1290.0" x2="1310.0" y1="130.0" y2="130.0" /><line stroke="rgb(0,0,0)" x1="1310.0" x2="1315.0" y1="130.0" y2="130.0" /><line stroke="rgb(0,0,0)" x1="1315.0" x2="1340.0" y1="130.0" y2="130.0" /><line stroke="rgb(0,0,0)" x1="1340.0" x2="1360.0" y1="130.0" y2="130.0" /><line stroke="rgb(0,0,0)" x1="1360.0" x2="1365.0" y1="130.0" y2="130.0" /><line stroke="rgb(0,0,0)" x1="1365.0" x2="1380.0" y1="130.0" y2="130.0" /><line stroke="rgb(0,0,0)" x1="1380.0" x2="1400.0" y1="130.0" y2="130.0" /><line stroke="rgb(0,0,0)" x1="1400.0" x2="1405.0" y1="130.0" y2="130.0" /><line stroke="rgb(0,0,0)" x1="1405.0" x2="1530.0" y1="130.0" y2="130.0" /><line stroke="rgb(0,0,0)" x1="1530.0" x2="1550.0" y1="130.0" y2="55.0" /><line stroke="rgb(0,0,0)" x1="1550.0" x2="1555.0" y1="55.0" y2="55.0" /><line stroke="rgb(0,0,0)" x1="1405.0" x2="1530.0" y1="130.0" y2="130.0" /><line stroke="rgb(0,0,0)" x1="1530.0" x2="1550.0" y1="130.0" y2="205.0" /><line stroke="rgb(0,0,0)" x1="1550.0" x2="1555.0" y1="205.0" y2="205.0" /><line stroke="rgb(0,0,0)" x1="1555.0" x2="1590.0" y1="55.0" y2="55.0" /><line stroke="rgb(0,0,0)" x1="1590.0" x2="1610.0" y1="55.0" y2="130.0" /><line stroke="rgb(0,0,0)" x1="1610.0" x2="1615.0" y1="130.0" y2="130.0" /><line stroke="rgb(0,0,0)" x1="1555.0" x2="1565.0" y1="205.0" y2="205.0" /><line stroke="rgb(0,0,0)" x1="1565.0" x2="1610.0" y1="205.0" y2="130.0" /><line stroke="rgb(0,0,0)" x1="1610.0" x2="1615.0" y1="130.0" y2="130.0" /><line stroke="rgb(0,0,0)" x1="1615.0" x2="1625.0" y1="130.0" y2="130.0" /><line stroke="rgb(0,0,0)" x1="1625.0" x2="1645.0" y1="130.0" y2="130.0" /><line stroke="rgb(0,0,0)" x1="1645.0" x2="1650.0" y1="130.0" y2="130.0" /><line stroke="rgb(0,0,0)" x1="1650.0" x2="1670.0" y1="130.0" y2="130.0" /><line stroke="rgb(0,0,0)" x1="1670.0" x2="1690.0" y1="130.0" y2="130.0" /><line stroke="rgb(0,0,0)" x1="1690.0" x2="1695.0" y1="130.0" y2="130.0" /><line stroke="rgb(0,0,0)" x1="1695.0" x2="1720.0" y1="130.0" y2="130.0" /><line stroke="rgb(0,0,0)" x1="1720.0" x2="1740.0" y1="130.0" y2="130.0" /><line stroke="rgb(0,0,0)" x1="1740.0" x2="1745.0" y1="130.0" y2="130.0" /><line stroke="rgb(0,0,0)" x1="1745.0" x2="1790.0" y1="130.0" y2="130.0" /><line stroke="rgb(0,0,0)" x1="1790.0" x2="1810.0" y1="130.0" y2="130.0" /><line stroke="rgb(0,0,0)" x1="1810.0" x2="1815.0" y1="130.0" y2="130.0" /><line stroke="rgb(0,0,0)" x1="1815.0" x2="1845.0" y1="130.0" y2="130.0" /><line stroke="rgb(0,0,0)" x1="1845.0" x2="1865.0" y1="130.0" y2="130.0" /><line stroke="rgb(0,0,0)" x1="1865.0" x2="1870.0" y1="130.0" y2="130.0" /><line stroke="rgb(0,0,0)" x1="1870.0" x2="1905.0" y1="130.0" y2="130.0" /><line stroke="rgb(0,0,0)" x1="1905.0" x2="1925.0" y1="130.0" y2="130.0" /><line stroke="rgb(0,0,0)" x1="1925.0" x2="1930.0" y1="130.0" y2="130.0" /><line stroke="rgb(0,0,0)" x1="1930.0" x2="1955.0" y1="130.0" y2="130.0" /><line stroke="rgb(0,0,0)" x1="1955.0" x2="1975.0" y1="130.0" y2="130.0" /><line stroke="rgb(0,0,0)" x1="1975.0" x2="1980.0" y1="130.0" y2="130.0" /><line stroke="rgb(0,0,0)" x1="1980.0" x2="2040.0" y1="130.0" y2="130.0" /><line stroke="rgb(0,0,0)" x1="2040.0" x2="2060.0" y1="130.0" y2="55.0" /><line stroke="rgb(0,0,0)" x1="2060.0" x2="2065.0" y1="55.0" y2="55.0" /><line stroke="rgb(0,0,0)" x1="1980.0" x2="2040.0" y1="130.0" y2="130.0" /><line stroke="rgb(0,0,0)" x1="2040.0" x2="2060.0" y1="130.0" y2="205.0" /><line stroke="rgb(0,0,0)" x1="2060.0" x2="2065.0" y1="205.0" y2="205.0" /><line stroke="rgb(0,0,0)" x1="2065.0" x2="2090.0" y1="55.0" y2="55.0" /><line stroke="rgb(0,0,0)" x1="2090.0" x2="2110.0" y1="55.0" y2="55.0" /><line stroke="rgb(0,0,0)" x1="2110.0" x2="2115.0" y1="55.0" y2="55.0" /><line stroke="rgb(0,0,0)" x1="2065.0" x2="2090.0" y1="55.0" y2="55.0" /><line stroke="rgb(0,0,0)" x1="2090.0" x2="2110.0" y1="55.0" y2="205.0" /><line stroke="rgb(0,0,0)" x1="2110.0" x2="2115.0" y1="205.0" y2="205.0" /><line stroke="rgb(0,0,0)" x1="2065.0" x2="2090.0" y1="205.0" y2="205.0" /><line stroke="rgb(0,0,0)" x1="2090.0" x2="2110.0" y1="205.0" y2="205.0" /><line stroke="rgb(0,0,0)" x1="2110.0" x2="2115.0" y1="205.0" y2="205.0" /><line stroke="rgb(0,0,0)" x1="2115.0" x2="2175.0" y1="205.0" y2="205.0" /><line stroke="rgb(0,0,0)" x1="2175.0" x2="2195.0" y1="205.0" y2="55.0" /><line stroke="rgb(0,0,0)" x1="2195.0" x2="2200.0" y1="55.0" y2="55.0" /><line stroke="rgb(0,0,0)" x1="2115.0" x2="2130.0" y1="55.0" y2="55.0" /><line stroke="rgb(0,0,0)" x1="2130.0" x2="2195.0" y1="55.0" y2="205.0" /><line stroke="rgb(0,0,0)" x1="2195.0" x2="2200.0" y1="205.0" y2="205.0" /><line stroke="rgb(0,0,0)" x1="2115.0" x2="2175.0" y1="205.0" y2="205.0" /><line stroke="rgb(0,0,0)" x1="2175.0" x2="2195.0" y1="205.0" y2="205.0" /><line stroke="rgb(0,0,0)" x1="2195.0" x2="2200.0" y1="205.0" y2="205.0" /><line stroke="rgb(0,0,0)" x1="2200.0" x2="2215.0" y1="205.0" y2="205.0" /><line stroke="rgb(0,0,0)" x1="2215.0" x2="2240.0" y1="205.0" y2="130.0" /><line stroke="rgb(0,0,0)" x1="2240.0" x2="2245.0" y1="130.0" y2="130.0" /><line stroke="rgb(0,0,0)" x1="2245.0" x2="2265.0" y1="130.0" y2="130.0" /><line stroke="rgb(0,0,0)" x1="2265.0" x2="2285.0" y1="130.0" y2="130.0" /><line stroke="rgb(0,0,0)" x1="2285.0" x2="2290.0" y1="130.0" y2="130.0" /><line stroke="rgb(0,0,0)" x1="2200.0" x2="2220.0" y1="55.0" y2="55.0" /><line stroke="rgb(0,0,0)" x1="2220.0" x2="2285.0" y1="55.0" y2="130.0" /><line stroke="rgb(0,0,0)" x1="2285.0" x2="2290.0" y1="130.0" y2="130.0" /><line stroke="rgb(0,0,0)" x1="2290.0" x2="2365.0" y1="130.0" y2="130.0" /><line stroke="rgb(0,0,0)" x1="2365.0" x2="2385.0" y1="130.0" y2="130.0" /><line stroke="rgb(0,0,0)" x1="2385.0" x2="2390.0" y1="130.0" y2="130.0" /><line stroke="rgb(0,0,0)" x1="2390.0" x2="2410.0" y1="130.0" y2="130.0" /><line stroke="rgb(0,0,0)" x1="2410.0" x2="2430.0" y1="130.0" y2="130.0" /><line stroke="rgb(0,0,0)" x1="2430.0" x2="2435.0" y1="130.0" y2="130.0" /><line stroke="rgb(0,0,0)" x1="2435.0" x2="2475.0" y1="130.0" y2="130.0" /><line stroke="rgb(0,0,0)" x1="2475.0" x2="2495.0" y1="130.0" y2="130.0" /><line stroke="rgb(0,0,0)" x1="2495.0" x2="2500.0" y1="130.0" y2="130.0" /><line stroke="rgb(0,0,0)" x1="2500.0" x2="2540.0" y1="130.0" y2="130.0" /><line stroke="rgb(0,0,0)" x1="2540.0" x2="2560.0" y1="130.0" y2="130.0" /><line stroke="rgb(0,0,0)" x1="2560.0" x2="2565.0" y1="130.0" y2="130.0" /><line stroke="rgb(0,0,0)" x1="2565.0" x2="2575.0" y1="130.0" y2="130.0" /><line stroke="rgb(0,0,0)" x1="2575.0" x2="2595.0" y1="130.0" y2="130.0" /><line stroke="rgb(0,0,0)" x1="2595.0" x2="2600.0" y1="130.0" y2="130.0" /><line stroke="rgb(0,0,0)" x1="2600.0" x2="2620.0" y1="130.0" y2="130.0" /><line stroke="rgb(0,0,0)" x1="2620.0" x2="2640.0" y1="130.0" y2="130.0" /><line stroke="rgb(0,0,0)" x1="2640.0" x2="2645.0" y1="130.0" y2="130.0" /><line stroke="rgb(0,0,0)" x1="2645.0" x2="2700.0" y1="130.0" y2="130.0" /><line stroke="rgb(0,0,0)" x1="2700.0" x2="2720.0" y1="130.0" y2="130.0" /><line stroke="rgb(0,0,0)" x1="2720.0" x2="2725.0" y1="130.0" y2="130.0" /><line stroke="rgb(0,0,0)" x1="2725.0" x2="2745.0" y1="130.0" y2="130.0" /><line stroke="rgb(0,0,0)" x1="2745.0" x2="2765.0" y1="130.0" y2="130.0" /><line stroke="rgb(0,0,0)" x1="2765.0" x2="2770.0" y1="130.0" y2="130.0" /><line stroke="rgb(0,0,0)" x1="2770.0" x2="2885.0" y1="130.0" y2="130.0" /><line stroke="rgb(0,0,0)" x1="2885.0" x2="2905.0" y1="130.0" y2="55.0" /><line stroke="rgb(0,0,0)" x1="2905.0" x2="2910.0" y1="55.0" y2="55.0" /><line stroke="rgb(0,0,0)" x1="2770.0" x2="2885.0" y1="130.0" y2="130.0" /><line stroke="rgb(0,0,0)" x1="2885.0" x2="2905.0" y1="130.0" y2="205.0" /><line stroke="rgb(0,0,0)" x1="2905.0" x2="2910.0" y1="205.0" y2="205.0" /><line stroke="rgb(0,0,0)" x1="2910.0" x2="2920.0" y1="205.0" y2="205.0" /><line stroke="rgb(0,0,0)" x1="2920.0" x2="2975.0" y1="205.0" y2="130.0" /><line stroke="rgb(0,0,0)" x1="2975.0" x2="2980.0" y1="130.0" y2="130.0" /><line stroke="rgb(0,0,0)" x1="2980.0" x2="2990.0" y1="130.0" y2="130.0" /><line stroke="rgb(0,0,0)" x1="2990.0" x2="3010.0" y1="130.0" y2="130.0" /><line stroke="rgb(0,0,0)" x1="3010.0" x2="3015.0" y1="130.0" y2="130.0" /><line stroke="rgb(0,0,0)" x1="3015.0" x2="3025.0" y1="130.0" y2="130.0" /><line stroke="rgb(0,0,0)" x1="3025.0" x2="3045.0" y1="130.0" y2="130.0" /><line stroke="rgb(0,0,0)" x1="3045.0" x2="3050.0" y1="130.0" y2="130.0" /><line stroke="rgb(0,0,0)" x1="2910.0" x2="2955.0" y1="55.0" y2="55.0" /><line stroke="rgb(0,0,0)" x1="2955.0" x2="3045.0" y1="55.0" y2="130.0" /><line stroke="rgb(0,0,0)" x1="3045.0" x2="3050.0" y1="130.0" y2="130.0" /><line stroke="rgb(0,0,0)" x1="3050.0" x2="3100.0" y1="130.0" y2="130.0" /><line stroke="rgb(0,0,0)" x1="3100.0" x2="3120.0" y1="130.0" y2="130.0" /><line stroke="rgb(0,0,0)" x1="3120.0" x2="3125.0" y1="130.0" y2="130.0" /><line stroke="rgb(0,0,0)" x1="3125.0" x2="3145.0" y1="130.0" y2="130.0" /><line stroke="rgb(0,0,0)" x1="3145.0" x2="3165.0" y1="130.0" y2="130.0" /><line stroke="rgb(0,0,0)" x1="3165.0" x2="3170.0" y1="130.0" y2="130.0" /><line stroke="rgb(0,0,0)" x1="3170.0" x2="3245.0" y1="130.0" y2="130.0" /><line stroke="rgb(0,0,0)" x1="3245.0" x2="3265.0" y1="130.0" y2="130.0" /><line stroke="rgb(0,0,0)" x1="3265.0" x2="3270.0" y1="130.0" y2="130.0" /><line stroke="rgb(0,0,0)" x1="3270.0" x2="3295.0" y1="130.0" y2="130.0" /><line stroke="rgb(0,0,0)" x1="3295.0" x2="3315.0" y1="130.0" y2="130.0" /><line stroke="rgb(0,0,0)" x1="3315.0" x2="3320.0" y1="130.0" y2="130.0" /><line stroke="rgb(0,0,0)" x1="3320.0" x2="3345.0" y1="130.0" y2="130.0" /><line stroke="rgb(0,0,0)" x1="3345.0" x2="3365.0" y1="130.0" y2="130.0" /><line stroke="rgb(0,0,0)" x1="3365.0" x2="3370.0" y1="130.0" y2="130.0" /><line stroke="rgb(0,0,0)" x1="3370.0" x2="3430.0" y1="130.0" y2="130.0" /><line stroke="rgb(0,0,0)" x1="3430.0" x2="3450.0" y1="130.0" y2="130.0" /><line stroke="rgb(0,0,0)" x1="3450.0" x2="3455.0" y1="130.0" y2="130.0" /><line stroke="rgb(0,0,0)" x1="3455.0" x2="3515.0" y1="130.0" y2="130.0" /><line stroke="rgb(0,0,0)" x1="3515.0" x2="3535.0" y1="130.0" y2="55.0" /><line stroke="rgb(0,0,0)" x1="3535.0" x2="3540.0" y1="55.0" y2="55.0" /><line stroke="rgb(0,0,0)" x1="3455.0" x2="3515.0" y1="130.0" y2="130.0" /><line stroke="rgb(0,0,0)" x1="3515.0" x2="3535.0" y1="130.0" y2="205.0" /><line stroke="rgb(0,0,0)" x1="3535.0" x2="3540.0" y1="205.0" y2="205.0" /><line stroke="rgb(0,0,0)" x1="3540.0" x2="3565.0" y1="55.0" y2="55.0" /><line stroke="rgb(0,0,0)" x1="3565.0" x2="3585.0" y1="55.0" y2="55.0" /><line stroke="rgb(0,0,0)" x1="3585.0" x2="3590.0" y1="55.0" y2="55.0" /><line stroke="rgb(0,0,0)" x1="3540.0" x2="3565.0" y1="205.0" y2="205.0" /><line stroke="rgb(0,0,0)" x1="3565.0" x2="3585.0" y1="205.0" y2="55.0" /><line stroke="rgb(0,0,0)" x1="3585.0" x2="3590.0" y1="55.0" y2="55.0" /><line stroke="rgb(0,0,0)" x1="3540.0" x2="3565.0" y1="55.0" y2="55.0" /><line stroke="rgb(0,0,0)" x1="3565.0" x2="3585.0" y1="55.0" y2="205.0" /><line stroke="rgb(0,0,0)" x1="3585.0" x2="3590.0" y1="205.0" y2="205.0" /><line stroke="rgb(0,0,0)" x1="3590.0" x2="3640.0" y1="55.0" y2="55.0" /><line stroke="rgb(0,0,0)" x1="3640.0" x2="3660.0" y1="55.0" y2="130.0" /><line stroke="rgb(0,0,0)" x1="3660.0" x2="3665.0" y1="130.0" y2="130.0" /><line stroke="rgb(0,0,0)" x1="3665.0" x2="3700.0" y1="130.0" y2="130.0" /><line stroke="rgb(0,0,0)" x1="3700.0" x2="3720.0" y1="130.0" y2="130.0" /><line stroke="rgb(0,0,0)" x1="3720.0" x2="3725.0" y1="130.0" y2="130.0" /><line stroke="rgb(0,0,0)" x1="3725.0" x2="3760.0" y1="130.0" y2="130.0" /><line stroke="rgb(0,0,0)" x1="3760.0" x2="3780.0" y1="130.0" y2="130.0" /><line stroke="rgb(0,0,0)" x1="3780.0" x2="3785.0" y1="130.0" y2="130.0" /><line stroke="rgb(0,0,0)" x1="3590.0" x2="3600.0" y1="205.0" y2="205.0" /><line stroke="rgb(0,0,0)" x1="3600.0" x2="3780.0" y1="205.0" y2="130.0" /><line stroke="rgb(0,0,0)" x1="3780.0" x2="3785.0" y1="130.0" y2="130.0" /><line stroke="rgb(0,0,0)" x1="3785.0" x2="3880.0" y1="130.0" y2="130.0" /><line stroke="rgb(0,0,0)" x1="3880.0" x2="3900.0" y1="130.0" y2="130.0" /><line stroke="rgb(0,0,0)" x1="3900.0" x2="3905.0" y1="130.0" y2="130.0" /><line stroke="rgb(0,0,0)" x1="3905.0" x2="3985.0" y1="130.0" y2="130.0" /><line stroke="rgb(0,0,0)" x1="3985.0" x2="4005.0" y1="130.0" y2="130.0" /><line stroke="rgb(0,0,0)" x1="4005.0" x2="4010.0" y1="130.0" y2="130.0" /><line stroke="rgb(0,0,0)" x1="4010.0" x2="4065.0" y1="130.0" y2="130.0" /><line stroke="rgb(0,0,0)" x1="4065.0" x2="4085.0" y1="130.0" y2="130.0" /><line stroke="rgb(0,0,0)" x1="4085.0" x2="4090.0" y1="130.0" y2="130.0" /><line stroke="rgb(0,0,0)" x1="4090.0" x2="4110.0" y1="130.0" y2="130.0" /><line stroke="rgb(0,0,0)" x1="4110.0" x2="4130.0" y1="130.0" y2="130.0" /><line stroke="rgb(0,0,0)" x1="4130.0" x2="4135.0" y1="130.0" y2="130.0" /><line stroke="rgb(0,0,0)" x1="4135.0" x2="4240.0" y1="130.0" y2="130.0" /><line stroke="rgb(0,0,0)" x1="4240.0" x2="4260.0" y1="130.0" y2="130.0" /><line stroke="rgb(0,0,0)" x1="4260.0" x2="4265.0" y1="130.0" y2="130.0" /><line stroke="rgb(0,0,0)" x1="4265.0" x2="4330.0" y1="130.0" y2="130.0" /><line stroke="rgb(0,0,0)" x1="4330.0" x2="4350.0" y1="130.0" y2="55.0" /><line stroke="rgb(0,0,0)" x1="4350.0" x2="4355.0" y1="55.0" y2="55.0" /><line stroke="rgb(0,0,0)" x1="4265.0" x2="4330.0" y1="130.0" y2="130.0" /><line stroke="rgb(0,0,0)" x1="4330.0" x2="4350.0" y1="130.0" y2="205.0" /><line stroke="rgb(0,0,0)" x1="4350.0" x2="4355.0" y1="205.0" y2="205.0" /><line stroke="rgb(0,0,0)" x1="4355.0" x2="4415.0" y1="55.0" y2="55.0" /><line stroke="rgb(0,0,0)" x1="4415.0" x2="4435.0" y1="55.0" y2="130.0" /><line stroke="rgb(0,0,0)" x1="4435.0" x2="4440.0" y1="130.0" y2="130.0" /><line stroke="rgb(0,0,0)" x1="4355.0" x2="4365.0" y1="205.0" y2="205.0" /><line stroke="rgb(0,0,0)" x1="4365.0" x2="4435.0" y1="205.0" y2="130.0" /><line stroke="rgb(0,0,0)" x1="4435.0" x2="4440.0" y1="130.0" y2="130.0" /><line stroke="rgb(0,0,0)" x1="4440.0" x2="4465.0" y1="130.0" y2="130.0" /><line stroke="rgb(0,0,0)" x1="4465.0" x2="4485.0" y1="130.0" y2="130.0" /><line stroke="rgb(0,0,0)" x1="4485.0" x2="4490.0" y1="130.0" y2="130.0" /><line stroke="rgb(0,0,0)" x1="4490.0" x2="4505.0" y1="130.0" y2="130.0" /><line stroke="rgb(0,0,0)" x1="4505.0" x2="4525.0" y1="130.0" y2="55.0" /><line stroke="rgb(0,0,0)" x1="4525.0" x2="4530.0" y1="55.0" y2="55.0" /><line stroke="rgb(0,0,0)" x1="4490.0" x2="4505.0" y1="130.0" y2="130.0" /><line stroke="rgb(0,0,0)" x1="4505.0" x2="4525.0" y1="130.0" y2="205.0" /><line stroke="rgb(0,0,0)" x1="4525.0" x2="4530.0" y1="205.0" y2="205.0" /><line stroke="rgb(0,0,0)" x1="4530.0" x2="4535.0" y1="55.0" y2="55.0" /><line stroke="rgb(0,0,0)" x1="4535.0" x2="4645.0" y1="55.0" y2="55.0" /><line stroke="rgb(0,0,0)" x1="4645.0" x2="4650.0" y1="55.0" y2="55.0" /><line stroke="rgb(0,0,0)" x1="4530.0" x2="4625.0" y1="205.0" y2="205.0" /><line stroke="rgb(0,0,0)" x1="4625.0" x2="4645.0" y1="205.0" y2="205.0" /><line stroke="rgb(0,0,0)" x1="4645.0" x2="4650.0" y1="205.0" y2="205.0" /><line stroke="rgb(0,0,0)" x1="4650.0" x2="4660.0" y1="55.0" y2="55.0" /><line stroke="rgb(0,0,0)" x1="4660.0" x2="4705.0" y1="55.0" y2="55.0" /><line stroke="rgb(0,0,0)" x1="4705.0" x2="4710.0" y1="55.0" y2="55.0" /><line stroke="rgb(0,0,0)" x1="4650.0" x2="4685.0" y1="205.0" y2="205.0" /><line stroke="rgb(0,0,0)" x1="4685.0" x2="4705.0" y1="205.0" y2="205.0" /><line stroke="rgb(0,0,0)" x1="4705.0" x2="4710.0" y1="205.0" y2="205.0" /><line stroke="rgb(0,0,0)" x1="4710.0" x2="4725.0" y1="55.0" y2="55.0" /><line stroke="rgb(0,0,0)" x1="4725.0" x2="4750.0" y1="55.0" y2="130.0" /><line stroke="rgb(0,0,0)" x1="4750.0" x2="4755.0" y1="130.0" y2="130.0" /><line stroke="rgb(0,0,0)" x1="4710.0" x2="4730.0" y1="205.0" y2="205.0" /><line stroke="rgb(0,0,0)" x1="4730.0" x2="4750.0" y1="205.0" y2="130.0" /><line stroke="rgb(0,0,0)" x1="4750.0" x2="4755.0" y1="130.0" y2="130.0" /><polygon fill="rgb(150,150,150)" points="20.0,130.0 20.0,129.6 12.5,129.6 12.5,129.6 5.0,129.6 5.0,130.0 5.0,130.0 5.0,130.4 12.5,130.4 12.5,130.4 20.0,130.4 20.0,130.0" stroke="rgb(0,0,0)" /><text fill="black" x="5.0" y="150.4">H0</text><polygon fill="rgb(255,150,255)" points="70.0,130.0 70.0,129.8 65.0,129.8 65.0,129.6 60.0,129.6 60.0,129.6 55.0,129.6 55.0,129.8 50.0,129.8 50.0,130.0 50.0,130.0 50.0,130.2 55.0,130.2 55.0,130.4 60.0,130.4 60.0,130.4 65.0,130.4 65.0,130.2 70.0,130.2 70.0,130.0" stroke="rgb(0,0,0)" /><text fill="black" x="50.0" y="150.4">E1</text><polygon fill="rgb(255,150,255)" points="110.0,130.0 110.0,129.8 105.0,129.8 105.0,129.8 100.0,129.8 100.0,130.0 100.0,130.0 100.0,130.2 105.0,130.2 105.0,130.2 110.0,130.2 110.0,130.0" stroke="rgb(0,0,0)" /><text fill="black" x="100.0" y="150.2">E2</text><polygon fill="rgb(255,150,255)" points="145.0,130.0 145.0,129.8 142.5,129.8 142.5,129.8 140.0,129.8 140.0,130.0 140.0,130.0 140.0,130.2 142.5,130.2 142.5,130.2 145.0,130.2 145.0,130.0" stroke="rgb(0,0,0)" /><text fill="black" x="140.0" y="150.2">E3</text><polygon fill="rgb(150,150,150)" points="210.0,130.0 210.0,129.8 207.5,129.8 207.5,129.6 192.5,129.6 192.5,129.6 177.5,129.6 177.5,129.8 175.0,129.8 175.0,130.0 175.0,130.0 175.0,130.2 177.5,130.2 177.5,130.4 192.5,130.4 192.5,130.4 207.5,130.4 207.5,130.2 210.0,130.2 210.0,130.0" stroke="rgb(0,0,0)" /><text fill="black" x="175.0" y="150.4">H4</text><polygon fill="rgb(255,150,255)" points="295.0,130.0 295.0,129.8 292.5,129.8 292.5,129.6 287.5,129.6 287.5,129.4 282.5,129.4 282.5,129.2 267.5,129.2 267.5,129.2 252.5,129.2 252.5,129.4 247.5,129.4 247.5,129.6 242.5,129.6 242.5,129.8 240.0,129.8 240.0,130.0 240.0,130.0 240.0,130.2 242.5,130.2 242.5,130.4 247.5,130.4 247.5,130.6 252.5,130.6 252.5,130.8 267.5,130.8 267.5,130.8 282.5,130.8 282.5,130.6 287.5,130.6 287.5,130.4 292.5,130.4 292.5,130.2 295.0,130.2 295.0,130.0" stroke="rgb(0,0,0)" /><text fill="black" x="240.0" y="150.8">E5</text><polygon fill="rgb(255,150,255)" points="365.0,130.0 365.0,129.6 362.5,129.6 362.5,129.4 360.0,129.4 360.0,129.2 345.0,129.2 345.0,129.2 330.0,129.2 330.0,129.4 327.5,129.4 327.5,129.6 325.0,129.6 325.0,130.0 325.0,130.0 325.0,130.4 327.5,130.4 327.5,130.6 330.0,130.6 330.0,130.8 345.0,130.8 345.0,130.8 360.0,130.8 360.0,130.6 362.5,130.6 362.5,130.4 365.0,130.4 365.0,130.0" stroke="rgb(0,0,0)" /><text fill="black" x="325.0" y="150.8">E6</text><polygon fill="rgb(150,150,150)" points="395.0,55.0 395.0,55.0 395.0,55.0 395.0,55.0" stroke="rgb(0,0,0)" /><text fill="black" x="395.0" y="75.0">X7</text><polygon fill="rgb(150,150,150)" points="410.0,205.0 410.0,204.4 402.5,204.4 402.5,204.4 395.0,204.4 395.0,205.0 395.0,205.0 395.0,205.6 402.5,205.6 402.5,205.6 410.0,205.6 410.0,205.0" stroke="rgb(0,0,0)" /><text fill="black" x="395.0" y="225.6">H8</text><polygon fill="rgb(255,150,255)" points="485.0,130.0 485.0,129.8 482.5,129.8 482.5,129.6 480.0,129.6 480.0,129.4 477.5,129.4 477.5,129.2 475.0,129.2 475.0,129.0 462.5,129.0 462.5,129.0 450.0,129.0 450.0,129.2 447.5,129.2 447.5,129.4 445.0,129.4 445.0,129.6 442.5,129.6 442.5,129.8 440.0,129.8 440.0,130.0 440.0,130.0 440.0,130.2 442.5,130.2 442.5,130.4 445.0,130.4 445.0,130.6 447.5,130.6 447.5,130.8 450.0,130.8 450.0,131.0 462.5,131.0 462.5,131.0 475.0,131.0 475.0,130.8 477.5,130.8 477.5,130.6 480.0,130.6 480.0,130.4 482.5,130.4 482.5,130.2 485.0,130.2 485.0,130.0" stroke="rgb(0,0,0)" /><text fill="black" x="440.0" y="151.0">E9</text><polygon fill="rgb(150,150,150)" points="600.0,130.0 600.0,129.8 597.5,129.8 597.5,129.6 595.0,129.6 595.0,129.4 592.5,129.4 592.5,129.0 590.0,129.0 590.0,128.8 587.5,128.8 587.5,128.6 582.5,128.6 582.5,128.4 557.5,128.4 557.5,128.4 532.5,128.4 532.5,128.6 527.5,128.6 527.5,128.8 525.0,128.8 525.0,129.0 522.5,129.0 522.5,129.4 520.0,129.4 520.0,129.6 517.5,129.6 517.5,129.8 515.0,129.8 515.0,130.0 515.0,130.0 515.0,130.2 517.5,130.2 517.5,130.4 520.0,130.4 520.0,130.6 522.5,130.6 522.5,131.0 525.0,131.0 525.0,131.2 527.5,131.2 527.5,131.4 532.5,131.4 532.5,131.6 557.5,131.6 557.5,131.6 582.5,131.6 582.5,131.4 587.5,131.4 587.5,131.2 590.0,131.2 590.0,131.0 592.5,131.0 592.5,130.6 595.0,130.6 595.0,130.4 597.5,130.4 597.5,130.2 600.0,130.2 600.0,130.0" stroke="rgb(0,0,0)" /><text fill="black" x="515.0" y="151.6">H10</text><polygon fill="rgb(150,150,150)" points="730.0,130.0 730.0,129.8 722.5,129.8 722.5,129.6 720.0,129.6 720.0,128.6 715.0,128.6 715.0,128.4 690.0,128.4 690.0,126.60000000000001 680.0,126.60000000000001 680.0,126.60000000000001 670.0,126.60000000000001 670.0,128.4 645.0,128.4 645.0,128.6 640.0,128.6 640.0,129.6 637.5,129.6 637.5,129.8 630.0,129.8 630.0,130.0 630.0,130.0 630.0,130.2 637.5,130.2 637.5,130.4 640.0,130.4 640.0,131.4 645.0,131.4 645.0,131.6 670.0,131.6 670.0,133.4 680.0,133.4 680.0,133.4 690.0,133.4 690.0,131.6 715.0,131.6 715.0,131.4 720.0,131.4 720.0,130.4 722.5,130.4 722.5,130.2 730.0,130.2 730.0,130.0" stroke="rgb(0,0,0)" /><text fill="black" x="630.0" y="153.4">H11</text><polygon fill="rgb(150,150,150)" points="775.0,130.0 775.0,128.2 767.5,128.2 767.5,128.2 760.0,128.2 760.0,130.0 760.0,130.0 760.0,131.8 767.5,131.8 767.5,131.8 775.0,131.8 775.0,130.0" stroke="rgb(0,0,0)" /><text fill="black" x="760.0" y="151.8">H12</text><polygon fill="rgb(255,150,150)" points="810.0,130.0 810.0,128.2 807.5,128.2 807.5,128.2 805.0,128.2 805.0,130.0 805.0,130.0 805.0,131.8 807.5,131.8 807.5,131.8 810.0,131.8 810.0,130.0" stroke="rgb(0,0,0)" /><text fill="black" x="805.0" y="151.8">E13</text><polygon fill="rgb(255,150,255)" points="875.0,130.0 875.0,129.8 872.5,129.8 872.5,129.4 870.0,129.4 870.0,129.0 857.5,129.0 857.5,129.0 845.0,129.0 845.0,129.4 842.5,129.4 842.5,129.8 840.0,129.8 840.0,130.0 840.0,130.0 840.0,130.2 842.5,130.2 842.5,130.6 845.0,130.6 845.0,131.0 857.5,131.0 857.5,131.0 870.0,131.0 870.0,130.6 872.5,130.6 872.5,130.2 875.0,130.2 875.0,130.0" stroke="rgb(0,0,0)" /><text fill="black" x="840.0" y="151.0">E14</text><polygon fill="rgb(150,150,150)" points="920.0,130.0 920.0,129.8 912.5,129.8 912.5,129.8 905.0,129.8 905.0,130.0 905.0,130.0 905.0,130.2 912.5,130.2 912.5,130.2 920.0,130.2 920.0,130.0" stroke="rgb(0,0,0)" /><text fill="black" x="905.0" y="150.2">H15</text><polygon fill="rgb(255,150,255)" points="990.0,130.0 990.0,129.8 987.5,129.8 987.5,129.6 982.5,129.6 982.5,129.0 970.0,129.0 970.0,129.0 957.5,129.0 957.5,129.6 952.5,129.6 952.5,129.8 950.0,129.8 950.0,130.0 950.0,130.0 950.0,130.2 952.5,130.2 952.5,130.4 957.5,130.4 957.5,131.0 970.0,131.0 970.0,131.0 982.5,131.0 982.5,130.4 987.5,130.4 987.5,130.2 990.0,130.2 990.0,130.0" stroke="rgb(0,0,0)" /><text fill="black" x="950.0" y="151.0">E16</text><polygon fill="rgb(255,150,150)" points="1035.0,130.0 1035.0,128.6 1032.5,128.6 1032.5,120.4 1030.0,120.4 1030.0,91.0 1027.5,91.0 1027.5,91.0 1025.0,91.0 1025.0,120.4 1022.5,120.4 1022.5,128.6 1020.0,128.6 1020.0,130.0 1020.0,130.0 1020.0,131.4 1022.5,131.4 1022.5,139.6 1025.0,139.6 1025.0,169.0 1027.5,169.0 1027.5,169.0 1030.0,169.0 1030.0,139.6 1032.5,139.6 1032.5,131.4 1035.0,131.4 1035.0,130.0" stroke="rgb(0,0,0)" /><text fill="black" x="1020.0" y="189.0">E17</text><polygon fill="rgb(150,150,150)" points="1140.0,130.0 1140.0,129.8 1135.0,129.8 1135.0,129.6 1130.0,129.6 1130.0,127.6 1127.5,127.6 1127.5,127.39999999999999 1125.0,127.39999999999999 1125.0,127.2 1122.5,127.2 1122.5,97.6 1120.0,97.6 1120.0,89.8 1117.5,89.8 1117.5,85.19999999999999 1115.0,85.19999999999999 1115.0,84.19999999999999 1112.5,84.19999999999999 1112.5,83.8 1110.0,83.8 1110.0,83.4 1102.5,83.4 1102.5,83.4 1095.0,83.4 1095.0,83.8 1092.5,83.8 1092.5,84.19999999999999 1090.0,84.19999999999999 1090.0,85.19999999999999 1087.5,85.19999999999999 1087.5,89.8 1085.0,89.8 1085.0,97.6 1082.5,97.6 1082.5,127.2 1080.0,127.2 1080.0,127.39999999999999 1077.5,127.39999999999999 1077.5,127.6 1075.0,127.6 1075.0,129.6 1070.0,129.6 1070.0,129.8 1065.0,129.8 1065.0,130.0 1065.0,130.0 1065.0,130.2 1070.0,130.2 1070.0,130.4 1075.0,130.4 1075.0,132.4 1077.5,132.4 1077.5,132.6 1080.0,132.6 1080.0,132.8 1082.5,132.8 1082.5,162.4 1085.0,162.4 1085.0,170.2 1087.5,170.2 1087.5,174.8 1090.0,174.8 1090.0,175.8 1092.5,175.8 1092.5,176.2 1095.0,176.2 1095.0,176.6 1102.5,176.6 1102.5,176.6 1110.0,176.6 1110.0,176.2 1112.5,176.2 1112.5,175.8 1115.0,175.8 1115.0,174.8 1117.5,174.8 1117.5,170.2 1120.0,170.2 1120.0,162.4 1122.5,162.4 1122.5,132.8 1125.0,132.8 1125.0,132.6 1127.5,132.6 1127.5,132.4 1130.0,132.4 1130.0,130.4 1135.0,130.4 1135.0,130.2 1140.0,130.2 1140.0,130.0" stroke="rgb(0,0,0)" /><text fill="black" x="1065.0" y="196.6">H18</text><polygon fill="rgb(255,255,150)" points="1175.0,130.0 1175.0,129.8 1172.5,129.8 1172.5,129.8 1170.0,129.8 1170.0,130.0 1170.0,130.0 1170.0,130.2 1172.5,130.2 1172.5,130.2 1175.0,130.2 1175.0,130.0" stroke="rgb(0,0,0)" /><text fill="black" x="1170.0" y="150.2">E19</text><polygon fill="rgb(150,150,150)" points="1245.0,130.0 1245.0,129.8 1242.5,129.8 1242.5,129.6 1237.5,129.6 1237.5,127.8 1235.0,127.8 1235.0,126.2 1232.5,126.2 1232.5,113.4 1225.0,113.4 1225.0,113.4 1217.5,113.4 1217.5,126.2 1215.0,126.2 1215.0,127.8 1212.5,127.8 1212.5,129.6 1207.5,129.6 1207.5,129.8 1205.0,129.8 1205.0,130.0 1205.0,130.0 1205.0,130.2 1207.5,130.2 1207.5,130.4 1212.5,130.4 1212.5,132.2 1215.0,132.2 1215.0,133.8 1217.5,133.8 1217.5,146.6 1225.0,146.6 1225.0,146.6 1232.5,146.6 1232.5,133.8 1235.0,133.8 1235.0,132.2 1237.5,132.2 1237.5,130.4 1242.5,130.4 1242.5,130.2 1245.0,130.2 1245.0,130.0" stroke="rgb(0,0,0)" /><text fill="black" x="1205.0" y="166.6">H20</text><polygon fill="rgb(255,255,150)" points="1285.0,130.0 1285.0,129.6 1282.5,129.6 1282.5,128.6 1280.0,128.6 1280.0,128.6 1277.5,128.6 1277.5,129.6 1275.0,129.6 1275.0,130.0 1275.0,130.0 1275.0,130.4 1277.5,130.4 1277.5,131.4 1280.0,131.4 1280.0,131.4 1282.5,131.4 1282.5,130.4 1285.0,130.4 1285.0,130.0" stroke="rgb(0,0,0)" /><text fill="black" x="1275.0" y="151.4">E21</text><polygon fill="rgb(150,150,150)" points="1335.0,130.0 1335.0,129.6 1325.0,129.6 1325.0,129.6 1315.0,129.6 1315.0,130.0 1315.0,130.0 1315.0,130.4 1325.0,130.4 1325.0,130.4 1335.0,130.4 1335.0,130.0" stroke="rgb(0,0,0)" /><text fill="black" x="1315.0" y="150.4">H22</text><polygon fill="rgb(255,255,150)" points="1375.0,130.0 1375.0,129.0 1372.5,129.0 1372.5,126.8 1370.0,126.8 1370.0,126.8 1367.5,126.8 1367.5,129.0 1365.0,129.0 1365.0,130.0 1365.0,130.0 1365.0,131.0 1367.5,131.0 1367.5,133.2 1370.0,133.2 1370.0,133.2 1372.5,133.2 1372.5,131.0 1375.0,131.0 1375.0,130.0" stroke="rgb(0,0,0)" /><text fill="black" x="1365.0" y="153.2">E23</text><polygon fill="rgb(150,150,150)" points="1525.0,130.0 1525.0,129.8 1520.0,129.8 1520.0,128.4 1517.5,128.4 1517.5,83.4 1515.0,83.4 1515.0,81.80000000000001 1512.5,81.80000000000001 1512.5,81.2 1510.0,81.2 1510.0,80.8 1507.5,80.8 1507.5,80.2 1505.0,80.2 1505.0,80.0 1465.0,80.0 1465.0,80.0 1425.0,80.0 1425.0,80.2 1422.5,80.2 1422.5,80.8 1420.0,80.8 1420.0,81.2 1417.5,81.2 1417.5,81.80000000000001 1415.0,81.80000000000001 1415.0,83.4 1412.5,83.4 1412.5,128.4 1410.0,128.4 1410.0,129.8 1405.0,129.8 1405.0,130.0 1405.0,130.0 1405.0,130.2 1410.0,130.2 1410.0,131.6 1412.5,131.6 1412.5,176.6 1415.0,176.6 1415.0,178.2 1417.5,178.2 1417.5,178.8 1420.0,178.8 1420.0,179.2 1422.5,179.2 1422.5,179.8 1425.0,179.8 1425.0,180.0 1465.0,180.0 1465.0,180.0 1505.0,180.0 1505.0,179.8 1507.5,179.8 1507.5,179.2 1510.0,179.2 1510.0,178.8 1512.5,178.8 1512.5,178.2 1515.0,178.2 1515.0,176.6 1517.5,176.6 1517.5,131.6 1520.0,131.6 1520.0,130.2 1525.0,130.2 1525.0,130.0" stroke="rgb(0,0,0)" /><text fill="black" x="1405.0" y="200.0">H24</text><polygon fill="rgb(150,150,150)" points="1585.0,55.0 1585.0,54.8 1570.0,54.8 1570.0,54.8 1555.0,54.8 1555.0,55.0 1555.0,55.0 1555.0,55.2 1570.0,55.2 1570.0,55.2 1585.0,55.2 1585.0,55.0" stroke="rgb(0,0,0)" /><text fill="black" x="1555.0" y="75.2">H25</text><polygon fill="rgb(70,175,70)" points="1560.0,205.0 1560.0,204.4 1557.5,204.4 1557.5,204.4 1555.0,204.4 1555.0,205.0 1555.0,205.0 1555.0,205.6 1557.5,205.6 1557.5,205.6 1560.0,205.6 1560.0,205.0" stroke="rgb(0,0,0)" /><text fill="black" x="1555.0" y="225.6">E26</text><polygon fill="rgb(70,175,70)" points="1620.0,130.0 1620.0,129.4 1617.5,129.4 1617.5,129.4 1615.0,129.4 1615.0,130.0 1615.0,130.0 1615.0,130.6 1617.5,130.6 1617.5,130.6 1620.0,130.6 1620.0,130.0" stroke="rgb(0,0,0)" /><text fill="black" x="1615.0" y="150.6">E27</text><polygon fill="rgb(150,150,150)" points="1665.0,130.0 1665.0,129.8 1657.5,129.8 1657.5,129.8 1650.0,129.8 1650.0,130.0 1650.0,130.0 1650.0,130.2 1657.5,130.2 1657.5,130.2 1665.0,130.2 1665.0,130.0" stroke="rgb(0,0,0)" /><text fill="black" x="1650.0" y="150.2">H28</text><polygon fill="rgb(150,150,255)" points="1715.0,130.0 1715.0,129.8 1712.5,129.8 1712.5,128.6 1710.0,128.6 1710.0,107.80000000000001 1707.5,107.80000000000001 1707.5,105.2 1705.0,105.2 1705.0,105.2 1702.5,105.2 1702.5,107.80000000000001 1700.0,107.80000000000001 1700.0,128.6 1697.5,128.6 1697.5,129.8 1695.0,129.8 1695.0,130.0 1695.0,130.0 1695.0,130.2 1697.5,130.2 1697.5,131.4 1700.0,131.4 1700.0,152.2 1702.5,152.2 1702.5,154.8 1705.0,154.8 1705.0,154.8 1707.5,154.8 1707.5,152.2 1710.0,152.2 1710.0,131.4 1712.5,131.4 1712.5,130.2 1715.0,130.2 1715.0,130.0" stroke="rgb(0,0,0)" /><text fill="black" x="1695.0" y="174.8">E29</text><polygon fill="rgb(150,150,150)" points="1785.0,130.0 1785.0,129.8 1775.0,129.8 1775.0,94.0 1772.5,94.0 1772.5,80.0 1765.0,80.0 1765.0,80.0 1757.5,80.0 1757.5,94.0 1755.0,94.0 1755.0,129.8 1745.0,129.8 1745.0,130.0 1745.0,130.0 1745.0,130.2 1755.0,130.2 1755.0,166.0 1757.5,166.0 1757.5,180.0 1765.0,180.0 1765.0,180.0 1772.5,180.0 1772.5,166.0 1775.0,166.0 1775.0,130.2 1785.0,130.2 1785.0,130.0" stroke="rgb(0,0,0)" /><text fill="black" x="1745.0" y="200.0">H30</text><polygon fill="rgb(255,150,150)" points="1840.0,130.0 1840.0,124.0 1837.5,124.0 1837.5,118.2 1835.0,118.2 1835.0,80.6 1832.5,80.6 1832.5,80.2 1830.0,80.2 1830.0,80.0 1827.5,80.0 1827.5,80.0 1825.0,80.0 1825.0,80.2 1822.5,80.2 1822.5,80.6 1820.0,80.6 1820.0,118.2 1817.5,118.2 1817.5,124.0 1815.0,124.0 1815.0,130.0 1815.0,130.0 1815.0,136.0 1817.5,136.0 1817.5,141.8 1820.0,141.8 1820.0,179.4 1822.5,179.4 1822.5,179.8 1825.0,179.8 1825.0,180.0 1827.5,180.0 1827.5,180.0 1830.0,180.0 1830.0,179.8 1832.5,179.8 1832.5,179.4 1835.0,179.4 1835.0,141.8 1837.5,141.8 1837.5,136.0 1840.0,136.0 1840.0,130.0" stroke="rgb(0,0,0)" /><text fill="black" x="1815.0" y="200.0">E31</text><polygon fill="rgb(150,150,150)" points="1900.0,130.0 1900.0,129.8 1895.0,129.8 1895.0,129.6 1892.5,129.6 1892.5,121.0 1885.0,121.0 1885.0,121.0 1877.5,121.0 1877.5,129.6 1875.0,129.6 1875.0,129.8 1870.0,129.8 1870.0,130.0 1870.0,130.0 1870.0,130.2 1875.0,130.2 1875.0,130.4 1877.5,130.4 1877.5,139.0 1885.0,139.0 1885.0,139.0 1892.5,139.0 1892.5,130.4 1895.0,130.4 1895.0,130.2 1900.0,130.2 1900.0,130.0" stroke="rgb(0,0,0)" /><text fill="black" x="1870.0" y="159.0">H32</text><polygon fill="rgb(255,150,150)" points="1950.0,130.0 1950.0,118.2 1947.5,118.2 1947.5,80.6 1945.0,80.6 1945.0,80.2 1942.5,80.2 1942.5,80.0 1940.0,80.0 1940.0,80.0 1937.5,80.0 1937.5,80.2 1935.0,80.2 1935.0,80.6 1932.5,80.6 1932.5,118.2 1930.0,118.2 1930.0,130.0 1930.0,130.0 1930.0,141.8 1932.5,141.8 1932.5,179.4 1935.0,179.4 1935.0,179.8 1937.5,179.8 1937.5,180.0 1940.0,180.0 1940.0,180.0 1942.5,180.0 1942.5,179.8 1945.0,179.8 1945.0,179.4 1947.5,179.4 1947.5,141.8 1950.0,141.8 1950.0,130.0" stroke="rgb(0,0,0)" /><text fill="black" x="1930.0" y="200.0">E33</text><polygon fill="rgb(150,150,150)" points="2035.0,130.0 2035.0,129.8 2030.0,129.8 2030.0,129.6 2027.5,129.6 2027.5,129.4 2025.0,129.4 2025.0,128.4 2022.5,128.4 2022.5,127.8 2020.0,127.8 2020.0,125.6 2017.5,125.6 2017.5,123.6 2015.0,123.6 2015.0,121.6 2007.5,121.6 2007.5,121.6 2000.0,121.6 2000.0,123.6 1997.5,123.6 1997.5,125.6 1995.0,125.6 1995.0,127.8 1992.5,127.8 1992.5,128.4 1990.0,128.4 1990.0,129.4 1987.5,129.4 1987.5,129.6 1985.0,129.6 1985.0,129.8 1980.0,129.8 1980.0,130.0 1980.0,130.0 1980.0,130.2 1985.0,130.2 1985.0,130.4 1987.5,130.4 1987.5,130.6 1990.0,130.6 1990.0,131.6 1992.5,131.6 1992.5,132.2 1995.0,132.2 1995.0,134.4 1997.5,134.4 1997.5,136.4 2000.0,136.4 2000.0,138.4 2007.5,138.4 2007.5,138.4 2015.0,138.4 2015.0,136.4 2017.5,136.4 2017.5,134.4 2020.0,134.4 2020.0,132.2 2022.5,132.2 2022.5,131.6 2025.0,131.6 2025.0,130.6 2027.5,130.6 2027.5,130.4 2030.0,130.4 2030.0,130.2 2035.0,130.2 2035.0,130.0" stroke="rgb(0,0,0)" /><text fill="black" x="1980.0" y="158.4">H34</text><polygon fill="rgb(150,150,255)" points="2085.0,55.0 2085.0,54.6 2082.5,54.6 2082.5,53.6 2080.0,53.6 2080.0,32.800000000000004 2077.5,32.800000000000004 2077.5,30.2 2075.0,30.2 2075.0,30.2 2072.5,30.2 2072.5,32.800000000000004 2070.0,32.800000000000004 2070.0,53.6 2067.5,53.6 2067.5,54.6 2065.0,54.6 2065.0,55.0 2065.0,55.0 2065.0,55.4 2067.5,55.4 2067.5,56.4 2070.0,56.4 2070.0,77.19999999999999 2072.5,77.19999999999999 2072.5,79.8 2075.0,79.8 2075.0,79.8 2077.5,79.8 2077.5,77.19999999999999 2080.0,77.19999999999999 2080.0,56.4 2082.5,56.4 2082.5,55.4 2085.0,55.4 2085.0,55.0" stroke="rgb(0,0,0)" /><text fill="black" x="2065.0" y="99.8">E35</text><polygon fill="rgb(150,150,150)" points="2085.0,205.0 2085.0,204.8 2082.5,204.8 2082.5,203.4 2075.0,203.4 2075.0,203.4 2067.5,203.4 2067.5,204.8 2065.0,204.8 2065.0,205.0 2065.0,205.0 2065.0,205.2 2067.5,205.2 2067.5,206.6 2075.0,206.6 2075.0,206.6 2082.5,206.6 2082.5,205.2 2085.0,205.2 2085.0,205.0" stroke="rgb(0,0,0)" /><text fill="black" x="2065.0" y="226.6">H36</text><polygon fill="rgb(150,255,255)" points="2125.0,55.0 2125.0,52.8 2122.5,52.8 2122.5,52.599999999999994 2120.0,52.599999999999994 2120.0,52.599999999999994 2117.5,52.599999999999994 2117.5,52.8 2115.0,52.8 2115.0,55.0 2115.0,55.0 2115.0,57.2 2117.5,57.2 2117.5,57.400000000000006 2120.0,57.400000000000006 2120.0,57.400000000000006 2122.5,57.400000000000006 2122.5,57.2 2125.0,57.2 2125.0,55.0" stroke="rgb(0,0,0)" /><text fill="black" x="2115.0" y="77.4">E37</text><polygon fill="rgb(150,150,150)" points="2170.0,205.0 2170.0,204.8 2152.5,204.8 2152.5,204.0 2150.0,204.0 2150.0,202.8 2142.5,202.8 2142.5,202.8 2135.0,202.8 2135.0,204.0 2132.5,204.0 2132.5,204.8 2115.0,204.8 2115.0,205.0 2115.0,205.0 2115.0,205.2 2132.5,205.2 2132.5,206.0 2135.0,206.0 2135.0,207.2 2142.5,207.2 2142.5,207.2 2150.0,207.2 2150.0,206.0 2152.5,206.0 2152.5,205.2 2170.0,205.2 2170.0,205.0" stroke="rgb(0,0,0)" /><text fill="black" x="2115.0" y="227.2">H38</text><polygon fill="rgb(150,150,150)" points="2215.0,55.0 2215.0,54.6 2207.5,54.6 2207.5,54.6 2200.0,54.6 2200.0,55.0 2200.0,55.0 2200.0,55.4 2207.5,55.4 2207.5,55.4 2215.0,55.4 2215.0,55.0" stroke="rgb(0,0,0)" /><text fill="black" x="2200.0" y="75.4">H39</text><polygon fill="rgb(150,255,255)" points="2210.0,205.0 2210.0,202.8 2207.5,202.8 2207.5,202.6 2205.0,202.6 2205.0,202.6 2202.5,202.6 2202.5,202.8 2200.0,202.8 2200.0,205.0 2200.0,205.0 2200.0,207.2 2202.5,207.2 2202.5,207.4 2205.0,207.4 2205.0,207.4 2207.5,207.4 2207.5,207.2 2210.0,207.2 2210.0,205.0" stroke="rgb(0,0,0)" /><text fill="black" x="2200.0" y="227.4">E40</text><polygon fill="rgb(150,255,150)" points="2260.0,130.0 2260.0,126.8 2257.5,126.8 2257.5,123.0 2255.0,123.0 2255.0,112.2 2252.5,112.2 2252.5,112.2 2250.0,112.2 2250.0,123.0 2247.5,123.0 2247.5,126.8 2245.0,126.8 2245.0,130.0 2245.0,130.0 2245.0,133.2 2247.5,133.2 2247.5,137.0 2250.0,137.0 2250.0,147.8 2252.5,147.8 2252.5,147.8 2255.0,147.8 2255.0,137.0 2257.5,137.0 2257.5,133.2 2260.0,133.2 2260.0,130.0" stroke="rgb(0,0,0)" /><text fill="black" x="2245.0" y="167.8">E41</text><polygon fill="rgb(150,150,150)" points="2360.0,130.0 2360.0,129.8 2337.5,129.8 2337.5,129.6 2335.0,129.6 2335.0,127.6 2332.5,127.6 2332.5,126.60000000000001 2325.0,126.60000000000001 2325.0,126.60000000000001 2317.5,126.60000000000001 2317.5,127.6 2315.0,127.6 2315.0,129.6 2312.5,129.6 2312.5,129.8 2290.0,129.8 2290.0,130.0 2290.0,130.0 2290.0,130.2 2312.5,130.2 2312.5,130.4 2315.0,130.4 2315.0,132.4 2317.5,132.4 2317.5,133.4 2325.0,133.4 2325.0,133.4 2332.5,133.4 2332.5,132.4 2335.0,132.4 2335.0,130.4 2337.5,130.4 2337.5,130.2 2360.0,130.2 2360.0,130.0" stroke="rgb(0,0,0)" /><text fill="black" x="2290.0" y="153.4">H42</text><polygon fill="rgb(150,255,150)" points="2405.0,130.0 2405.0,128.8 2402.5,128.8 2402.5,128.4 2400.0,128.4 2400.0,126.4 2397.5,126.4 2397.5,126.4 2395.0,126.4 2395.0,128.4 2392.5,128.4 2392.5,128.8 2390.0,128.8 2390.0,130.0 2390.0,130.0 2390.0,131.2 2392.5,131.2 2392.5,131.6 2395.0,131.6 2395.0,133.6 2397.5,133.6 2397.5,133.6 2400.0,133.6 2400.0,131.6 2402.5,131.6 2402.5,131.2 2405.0,131.2 2405.0,130.0" stroke="rgb(0,0,0)" /><text fill="black" x="2390.0" y="153.6">E43</text><polygon fill="rgb(150,150,150)" points="2470.0,130.0 2470.0,129.8 2467.5,129.8 2467.5,129.4 2465.0,129.4 2465.0,128.8 2462.5,128.8 2462.5,125.4 2460.0,125.4 2460.0,93.4 2452.5,93.4 2452.5,93.4 2445.0,93.4 2445.0,125.4 2442.5,125.4 2442.5,128.8 2440.0,128.8 2440.0,129.4 2437.5,129.4 2437.5,129.8 2435.0,129.8 2435.0,130.0 2435.0,130.0 2435.0,130.2 2437.5,130.2 2437.5,130.6 2440.0,130.6 2440.0,131.2 2442.5,131.2 2442.5,134.6 2445.0,134.6 2445.0,166.6 2452.5,166.6 2452.5,166.6 2460.0,166.6 2460.0,134.6 2462.5,134.6 2462.5,131.2 2465.0,131.2 2465.0,130.6 2467.5,130.6 2467.5,130.2 2470.0,130.2 2470.0,130.0" stroke="rgb(0,0,0)" /><text fill="black" x="2435.0" y="186.6">H44</text><polygon fill="rgb(150,150,150)" points="2535.0,130.0 2535.0,129.8 2532.5,129.8 2532.5,110.4 2530.0,110.4 2530.0,83.6 2527.5,83.6 2527.5,82.80000000000001 2525.0,82.80000000000001 2525.0,82.4 2517.5,82.4 2517.5,82.4 2510.0,82.4 2510.0,82.80000000000001 2507.5,82.80000000000001 2507.5,83.6 2505.0,83.6 2505.0,110.4 2502.5,110.4 2502.5,129.8 2500.0,129.8 2500.0,130.0 2500.0,130.0 2500.0,130.2 2502.5,130.2 2502.5,149.6 2505.0,149.6 2505.0,176.4 2507.5,176.4 2507.5,177.2 2510.0,177.2 2510.0,177.6 2517.5,177.6 2517.5,177.6 2525.0,177.6 2525.0,177.2 2527.5,177.2 2527.5,176.4 2530.0,176.4 2530.0,149.6 2532.5,149.6 2532.5,130.2 2535.0,130.2 2535.0,130.0" stroke="rgb(0,0,0)" /><text fill="black" x="2500.0" y="197.6">H45</text><polygon fill="rgb(150,255,150)" points="2570.0,130.0 2570.0,129.8 2567.5,129.8 2567.5,129.8 2565.0,129.8 2565.0,130.0 2565.0,130.0 2565.0,130.2 2567.5,130.2 2567.5,130.2 2570.0,130.2 2570.0,130.0" stroke="rgb(0,0,0)" /><text fill="black" x="2565.0" y="150.2">E46</text><polygon fill="rgb(150,150,150)" points="2615.0,130.0 2615.0,129.8 2607.5,129.8 2607.5,129.8 2600.0,129.8 2600.0,130.0 2600.0,130.0 2600.0,130.2 2607.5,130.2 2607.5,130.2 2615.0,130.2 2615.0,130.0" stroke="rgb(0,0,0)" /><text fill="black" x="2600.0" y="150.2">H47</text><polygon fill="rgb(150,150,150)" points="2695.0,130.0 2695.0,129.8 2692.5,129.8 2692.5,129.6 2687.5,129.6 2687.5,129.4 2677.5,129.4 2677.5,127.8 2670.0,127.8 2670.0,127.8 2662.5,127.8 2662.5,129.4 2652.5,129.4 2652.5,129.6 2647.5,129.6 2647.5,129.8 2645.0,129.8 2645.0,130.0 2645.0,130.0 2645.0,130.2 2647.5,130.2 2647.5,130.4 2652.5,130.4 2652.5,130.6 2662.5,130.6 2662.5,132.2 2670.0,132.2 2670.0,132.2 2677.5,132.2 2677.5,130.6 2687.5,130.6 2687.5,130.4 2692.5,130.4 2692.5,130.2 2695.0,130.2 2695.0,130.0" stroke="rgb(0,0,0)" /><text fill="black" x="2645.0" y="152.2">H48</text><polygon fill="rgb(150,255,150)" points="2740.0,130.0 2740.0,128.0 2737.5,128.0 2737.5,124.6 2735.0,124.6 2735.0,115.6 2732.5,115.6 2732.5,115.6 2730.0,115.6 2730.0,124.6 2727.5,124.6 2727.5,128.0 2725.0,128.0 2725.0,130.0 2725.0,130.0 2725.0,132.0 2727.5,132.0 2727.5,135.4 2730.0,135.4 2730.0,144.4 2732.5,144.4 2732.5,144.4 2735.0,144.4 2735.0,135.4 2737.5,135.4 2737.5,132.0 2740.0,132.0 2740.0,130.0" stroke="rgb(0,0,0)" /><text fill="black" x="2725.0" y="164.4">E49</text><polygon fill="rgb(150,150,150)" points="2880.0,130.0 2880.0,129.6 2875.0,129.6 2875.0,129.2 2872.5,129.2 2872.5,128.6 2870.0,128.6 2870.0,123.8 2867.5,123.8 2867.5,81.2 2865.0,81.2 2865.0,80.4 2860.0,80.4 2860.0,80.2 2847.5,80.2 2847.5,80.0 2825.0,80.0 2825.0,80.0 2802.5,80.0 2802.5,80.2 2790.0,80.2 2790.0,80.4 2785.0,80.4 2785.0,81.2 2782.5,81.2 2782.5,123.8 2780.0,123.8 2780.0,128.6 2777.5,128.6 2777.5,129.2 2775.0,129.2 2775.0,129.6 2770.0,129.6 2770.0,130.0 2770.0,130.0 2770.0,130.4 2775.0,130.4 2775.0,130.8 2777.5,130.8 2777.5,131.4 2780.0,131.4 2780.0,136.2 2782.5,136.2 2782.5,178.8 2785.0,178.8 2785.0,179.6 2790.0,179.6 2790.0,179.8 2802.5,179.8 2802.5,180.0 2825.0,180.0 2825.0,180.0 2847.5,180.0 2847.5,179.8 2860.0,179.8 2860.0,179.6 2865.0,179.6 2865.0,178.8 2867.5,178.8 2867.5,136.2 2870.0,136.2 2870.0,131.4 2872.5,131.4 2872.5,130.8 2875.0,130.8 2875.0,130.4 2880.0,130.4 2880.0,130.0" stroke="rgb(0,0,0)" /><text fill="black" x="2770.0" y="200.0">H50</text><polygon fill="rgb(150,150,150)" points="2950.0,55.0 2950.0,54.8 2947.5,54.8 2947.5,54.6 2945.0,54.6 2945.0,54.4 2937.5,54.4 2937.5,53.0 2930.0,53.0 2930.0,53.0 2922.5,53.0 2922.5,54.4 2915.0,54.4 2915.0,54.6 2912.5,54.6 2912.5,54.8 2910.0,54.8 2910.0,55.0 2910.0,55.0 2910.0,55.2 2912.5,55.2 2912.5,55.4 2915.0,55.4 2915.0,55.6 2922.5,55.6 2922.5,57.0 2930.0,57.0 2930.0,57.0 2937.5,57.0 2937.5,55.6 2945.0,55.6 2945.0,55.4 2947.5,55.4 2947.5,55.2 2950.0,55.2 2950.0,55.0" stroke="rgb(0,0,0)" /><text fill="black" x="2910.0" y="77.0">H51</text><polygon fill="rgb(255,255,150)" points="2915.0,205.0 2915.0,204.6 2912.5,204.6 2912.5,204.6 2910.0,204.6 2910.0,205.0 2910.0,205.0 2910.0,205.4 2912.5,205.4 2912.5,205.4 2915.0,205.4 2915.0,205.0" stroke="rgb(0,0,0)" /><text fill="black" x="2910.0" y="225.4">E52</text><polygon fill="rgb(175,70,175)" points="2985.0,130.0 2985.0,129.6 2982.5,129.6 2982.5,129.6 2980.0,129.6 2980.0,130.0 2980.0,130.0 2980.0,130.4 2982.5,130.4 2982.5,130.4 2985.0,130.4 2985.0,130.0" stroke="rgb(0,0,0)" /><text fill="black" x="2980.0" y="150.4">E53</text><polygon fill="rgb(175,70,175)" points="3020.0,130.0 3020.0,129.6 3017.5,129.6 3017.5,129.6 3015.0,129.6 3015.0,130.0 3015.0,130.0 3015.0,130.4 3017.5,130.4 3017.5,130.4 3020.0,130.4 3020.0,130.0" stroke="rgb(0,0,0)" /><text fill="black" x="3015.0" y="150.4">E54</text><polygon fill="rgb(150,150,150)" points="3095.0,130.0 3095.0,128.8 3092.5,128.8 3092.5,128.6 3080.0,128.6 3080.0,123.8 3072.5,123.8 3072.5,123.8 3065.0,123.8 3065.0,128.6 3052.5,128.6 3052.5,128.8 3050.0,128.8 3050.0,130.0 3050.0,130.0 3050.0,131.2 3052.5,131.2 3052.5,131.4 3065.0,131.4 3065.0,136.2 3072.5,136.2 3072.5,136.2 3080.0,136.2 3080.0,131.4 3092.5,131.4 3092.5,131.2 3095.0,131.2 3095.0,130.0" stroke="rgb(0,0,0)" /><text fill="black" x="3050.0" y="156.2">H55</text><polygon fill="rgb(150,150,150)" points="3140.0,130.0 3140.0,129.6 3132.5,129.6 3132.5,129.6 3125.0,129.6 3125.0,130.0 3125.0,130.0 3125.0,130.4 3132.5,130.4 3132.5,130.4 3140.0,130.4 3140.0,130.0" stroke="rgb(0,0,0)" /><text fill="black" x="3125.0" y="150.4">H56</text><polygon fill="rgb(150,150,150)" points="3240.0,130.0 3240.0,128.8 3237.5,128.8 3237.5,128.6 3235.0,128.6 3235.0,115.2 3232.5,115.2 3232.5,113.6 3230.0,113.6 3230.0,89.4 3227.5,89.4 3227.5,86.6 3225.0,86.6 3225.0,84.4 3222.5,84.4 3222.5,83.8 3220.0,83.8 3220.0,82.2 3217.5,82.2 3217.5,82.0 3212.5,82.0 3212.5,81.80000000000001 3205.0,81.80000000000001 3205.0,81.80000000000001 3197.5,81.80000000000001 3197.5,82.0 3192.5,82.0 3192.5,82.2 3190.0,82.2 3190.0,83.8 3187.5,83.8 3187.5,84.4 3185.0,84.4 3185.0,86.6 3182.5,86.6 3182.5,89.4 3180.0,89.4 3180.0,113.6 3177.5,113.6 3177.5,115.2 3175.0,115.2 3175.0,128.6 3172.5,128.6 3172.5,128.8 3170.0,128.8 3170.0,130.0 3170.0,130.0 3170.0,131.2 3172.5,131.2 3172.5,131.4 3175.0,131.4 3175.0,144.8 3177.5,144.8 3177.5,146.4 3180.0,146.4 3180.0,170.6 3182.5,170.6 3182.5,173.4 3185.0,173.4 3185.0,175.6 3187.5,175.6 3187.5,176.2 3190.0,176.2 3190.0,177.8 3192.5,177.8 3192.5,178.0 3197.5,178.0 3197.5,178.2 3205.0,178.2 3205.0,178.2 3212.5,178.2 3212.5,178.0 3217.5,178.0 3217.5,177.8 3220.0,177.8 3220.0,176.2 3222.5,176.2 3222.5,175.6 3225.0,175.6 3225.0,173.4 3227.5,173.4 3227.5,170.6 3230.0,170.6 3230.0,146.4 3232.5,146.4 3232.5,144.8 3235.0,144.8 3235.0,131.4 3237.5,131.4 3237.5,131.2 3240.0,131.2 3240.0,130.0" stroke="rgb(0,0,0)" /><text fill="black" x="3170.0" y="198.2">H57</text><polygon fill="rgb(70,70,175)" points="3290.0,130.0 3290.0,129.8 3282.5,129.8 3282.5,129.4 3280.0,129.4 3280.0,129.4 3277.5,129.4 3277.5,129.8 3270.0,129.8 3270.0,130.0 3270.0,130.0 3270.0,130.2 3277.5,130.2 3277.5,130.6 3280.0,130.6 3280.0,130.6 3282.5,130.6 3282.5,130.2 3290.0,130.2 3290.0,130.0" stroke="rgb(0,0,0)" /><text fill="black" x="3270.0" y="150.6">E58</text><polygon fill="rgb(150,150,150)" points="3340.0,130.0 3340.0,123.4 3330.0,123.4 3330.0,123.4 3320.0,123.4 3320.0,130.0 3320.0,130.0 3320.0,136.6 3330.0,136.6 3330.0,136.6 3340.0,136.6 3340.0,130.0" stroke="rgb(0,0,0)" /><text fill="black" x="3320.0" y="156.6">H59</text><polygon fill="rgb(150,150,150)" points="3425.0,130.0 3425.0,128.2 3417.5,128.2 3417.5,128.0 3415.0,128.0 3415.0,127.39999999999999 3412.5,127.39999999999999 3412.5,123.0 3410.0,123.0 3410.0,122.2 3405.0,122.2 3405.0,116.2 3397.5,116.2 3397.5,116.2 3390.0,116.2 3390.0,122.2 3385.0,122.2 3385.0,123.0 3382.5,123.0 3382.5,127.39999999999999 3380.0,127.39999999999999 3380.0,128.0 3377.5,128.0 3377.5,128.2 3370.0,128.2 3370.0,130.0 3370.0,130.0 3370.0,131.8 3377.5,131.8 3377.5,132.0 3380.0,132.0 3380.0,132.6 3382.5,132.6 3382.5,137.0 3385.0,137.0 3385.0,137.8 3390.0,137.8 3390.0,143.8 3397.5,143.8 3397.5,143.8 3405.0,143.8 3405.0,137.8 3410.0,137.8 3410.0,137.0 3412.5,137.0 3412.5,132.6 3415.0,132.6 3415.0,132.0 3417.5,132.0 3417.5,131.8 3425.0,131.8 3425.0,130.0" stroke="rgb(0,0,0)" /><text fill="black" x="3370.0" y="163.8">H60</text><polygon fill="rgb(150,150,150)" points="3510.0,130.0 3510.0,129.8 3507.5,129.8 3507.5,129.4 3505.0,129.4 3505.0,125.2 3502.5,125.2 3502.5,125.0 3500.0,125.0 3500.0,122.6 3495.0,122.6 3495.0,122.4 3492.5,122.4 3492.5,122.2 3482.5,122.2 3482.5,122.2 3472.5,122.2 3472.5,122.4 3470.0,122.4 3470.0,122.6 3465.0,122.6 3465.0,125.0 3462.5,125.0 3462.5,125.2 3460.0,125.2 3460.0,129.4 3457.5,129.4 3457.5,129.8 3455.0,129.8 3455.0,130.0 3455.0,130.0 3455.0,130.2 3457.5,130.2 3457.5,130.6 3460.0,130.6 3460.0,134.8 3462.5,134.8 3462.5,135.0 3465.0,135.0 3465.0,137.4 3470.0,137.4 3470.0,137.6 3472.5,137.6 3472.5,137.8 3482.5,137.8 3482.5,137.8 3492.5,137.8 3492.5,137.6 3495.0,137.6 3495.0,137.4 3500.0,137.4 3500.0,135.0 3502.5,135.0 3502.5,134.8 3505.0,134.8 3505.0,130.6 3507.5,130.6 3507.5,130.2 3510.0,130.2 3510.0,130.0" stroke="rgb(0,0,0)" /><text fill="black" x="3455.0" y="157.8">H61</text><polygon fill="rgb(70,70,175)" points="3560.0,55.0 3560.0,54.8 3555.0,54.8 3555.0,54.6 3552.5,54.6 3552.5,54.0 3550.0,54.0 3550.0,54.0 3547.5,54.0 3547.5,54.6 3545.0,54.6 3545.0,54.8 3540.0,54.8 3540.0,55.0 3540.0,55.0 3540.0,55.2 3545.0,55.2 3545.0,55.4 3547.5,55.4 3547.5,56.0 3550.0,56.0 3550.0,56.0 3552.5,56.0 3552.5,55.4 3555.0,55.4 3555.0,55.2 3560.0,55.2 3560.0,55.0" stroke="rgb(0,0,0)" /><text fill="black" x="3540.0" y="76.0">E62</text><polygon fill="rgb(150,150,150)" points="3560.0,205.0 3560.0,204.6 3557.5,204.6 3557.5,203.6 3550.0,203.6 3550.0,203.6 3542.5,203.6 3542.5,204.6 3540.0,204.6 3540.0,205.0 3540.0,205.0 3540.0,205.4 3542.5,205.4 3542.5,206.4 3550.0,206.4 3550.0,206.4 3557.5,206.4 3557.5,205.4 3560.0,205.4 3560.0,205.0" stroke="rgb(0,0,0)" /><text fill="black" x="3540.0" y="226.4">H63</text><polygon fill="rgb(150,150,150)" points="3635.0,55.0 3635.0,54.8 3632.5,54.8 3632.5,54.4 3625.0,54.4 3625.0,42.6 3622.5,42.6 3622.5,40.599999999999994 3620.0,40.599999999999994 3620.0,38.400000000000006 3612.5,38.400000000000006 3612.5,38.400000000000006 3605.0,38.400000000000006 3605.0,40.599999999999994 3602.5,40.599999999999994 3602.5,42.6 3600.0,42.6 3600.0,54.4 3592.5,54.4 3592.5,54.8 3590.0,54.8 3590.0,55.0 3590.0,55.0 3590.0,55.2 3592.5,55.2 3592.5,55.6 3600.0,55.6 3600.0,67.4 3602.5,67.4 3602.5,69.4 3605.0,69.4 3605.0,71.6 3612.5,71.6 3612.5,71.6 3620.0,71.6 3620.0,69.4 3622.5,69.4 3622.5,67.4 3625.0,67.4 3625.0,55.6 3632.5,55.6 3632.5,55.2 3635.0,55.2 3635.0,55.0" stroke="rgb(0,0,0)" /><text fill="black" x="3590.0" y="91.6">H64</text><polygon fill="rgb(175,70,70)" points="3595.0,205.0 3595.0,201.2 3592.5,201.2 3592.5,201.2 3590.0,201.2 3590.0,205.0 3590.0,205.0 3590.0,208.8 3592.5,208.8 3592.5,208.8 3595.0,208.8 3595.0,205.0" stroke="rgb(0,0,0)" /><text fill="black" x="3590.0" y="228.8">E65</text><polygon fill="rgb(150,150,150)" points="3695.0,130.0 3695.0,129.6 3690.0,129.6 3690.0,129.0 3687.5,129.0 3687.5,127.39999999999999 3680.0,127.39999999999999 3680.0,127.39999999999999 3672.5,127.39999999999999 3672.5,129.0 3670.0,129.0 3670.0,129.6 3665.0,129.6 3665.0,130.0 3665.0,130.0 3665.0,130.4 3670.0,130.4 3670.0,131.0 3672.5,131.0 3672.5,132.6 3680.0,132.6 3680.0,132.6 3687.5,132.6 3687.5,131.0 3690.0,131.0 3690.0,130.4 3695.0,130.4 3695.0,130.0" stroke="rgb(0,0,0)" /><text fill="black" x="3665.0" y="152.6">H66</text><polygon fill="rgb(150,150,150)" points="3755.0,130.0 3755.0,128.2 3752.5,128.2 3752.5,126.0 3750.0,126.0 3750.0,124.8 3747.5,124.8 3747.5,120.60000000000001 3740.0,120.60000000000001 3740.0,120.60000000000001 3732.5,120.60000000000001 3732.5,124.8 3730.0,124.8 3730.0,126.0 3727.5,126.0 3727.5,128.2 3725.0,128.2 3725.0,130.0 3725.0,130.0 3725.0,131.8 3727.5,131.8 3727.5,134.0 3730.0,134.0 3730.0,135.2 3732.5,135.2 3732.5,139.4 3740.0,139.4 3740.0,139.4 3747.5,139.4 3747.5,135.2 3750.0,135.2 3750.0,134.0 3752.5,134.0 3752.5,131.8 3755.0,131.8 3755.0,130.0" stroke="rgb(0,0,0)" /><text fill="black" x="3725.0" y="159.4">H67</text><polygon fill="rgb(150,150,150)" points="3875.0,130.0 3875.0,128.6 3870.0,128.6 3870.0,128.4 3867.5,128.4 3867.5,127.8 3865.0,127.8 3865.0,127.39999999999999 3862.5,127.39999999999999 3862.5,127.2 3860.0,127.2 3860.0,127.0 3857.5,127.0 3857.5,80.8 3855.0,80.8 3855.0,80.4 3850.0,80.4 3850.0,80.2 3830.0,80.2 3830.0,80.2 3810.0,80.2 3810.0,80.4 3805.0,80.4 3805.0,80.8 3802.5,80.8 3802.5,127.0 3800.0,127.0 3800.0,127.2 3797.5,127.2 3797.5,127.39999999999999 3795.0,127.39999999999999 3795.0,127.8 3792.5,127.8 3792.5,128.4 3790.0,128.4 3790.0,128.6 3785.0,128.6 3785.0,130.0 3785.0,130.0 3785.0,131.4 3790.0,131.4 3790.0,131.6 3792.5,131.6 3792.5,132.2 3795.0,132.2 3795.0,132.6 3797.5,132.6 3797.5,132.8 3800.0,132.8 3800.0,133.0 3802.5,133.0 3802.5,179.2 3805.0,179.2 3805.0,179.6 3810.0,179.6 3810.0,179.8 3830.0,179.8 3830.0,179.8 3850.0,179.8 3850.0,179.6 3855.0,179.6 3855.0,179.2 3857.5,179.2 3857.5,133.0 3860.0,133.0 3860.0,132.8 3862.5,132.8 3862.5,132.6 3865.0,132.6 3865.0,132.2 3867.5,132.2 3867.5,131.6 3870.0,131.6 3870.0,131.4 3875.0,131.4 3875.0,130.0" stroke="rgb(0,0,0)" /><text fill="black" x="3785.0" y="199.8">H68</text><polygon fill="rgb(150,150,150)" points="3980.0,130.0 3980.0,129.8 3977.5,129.8 3977.5,129.6 3952.5,129.6 3952.5,128.8 3950.0,128.8 3950.0,81.0 3942.5,81.0 3942.5,81.0 3935.0,81.0 3935.0,128.8 3932.5,128.8 3932.5,129.6 3907.5,129.6 3907.5,129.8 3905.0,129.8 3905.0,130.0 3905.0,130.0 3905.0,130.2 3907.5,130.2 3907.5,130.4 3932.5,130.4 3932.5,131.2 3935.0,131.2 3935.0,179.0 3942.5,179.0 3942.5,179.0 3950.0,179.0 3950.0,131.2 3952.5,131.2 3952.5,130.4 3977.5,130.4 3977.5,130.2 3980.0,130.2 3980.0,130.0" stroke="rgb(0,0,0)" /><text fill="black" x="3905.0" y="199.0">H69</text><polygon fill="rgb(150,150,150)" points="4060.0,130.0 4060.0,129.8 4042.5,129.8 4042.5,126.60000000000001 4035.0,126.60000000000001 4035.0,126.60000000000001 4027.5,126.60000000000001 4027.5,129.8 4010.0,129.8 4010.0,130.0 4010.0,130.0 4010.0,130.2 4027.5,130.2 4027.5,133.4 4035.0,133.4 4035.0,133.4 4042.5,133.4 4042.5,130.2 4060.0,130.2 4060.0,130.0" stroke="rgb(0,0,0)" /><text fill="black" x="4010.0" y="153.4">H70</text><polygon fill="rgb(150,150,150)" points="4105.0,130.0 4105.0,129.8 4097.5,129.8 4097.5,129.8 4090.0,129.8 4090.0,130.0 4090.0,130.0 4090.0,130.2 4097.5,130.2 4097.5,130.2 4105.0,130.2 4105.0,130.0" stroke="rgb(0,0,0)" /><text fill="black" x="4090.0" y="150.2">H71</text><polygon fill="rgb(150,150,150)" points="4235.0,130.0 4235.0,129.6 4232.5,129.6 4232.5,129.4 4227.5,129.4 4227.5,129.2 4225.0,129.2 4225.0,127.8 4222.5,127.8 4222.5,125.8 4220.0,125.8 4220.0,119.2 4217.5,119.2 4217.5,116.8 4215.0,116.8 4215.0,114.6 4212.5,114.6 4212.5,113.8 4210.0,113.8 4210.0,111.8 4205.0,111.8 4205.0,111.0 4202.5,111.0 4202.5,108.4 4200.0,108.4 4200.0,81.0 4185.0,81.0 4185.0,81.0 4170.0,81.0 4170.0,108.4 4167.5,108.4 4167.5,111.0 4165.0,111.0 4165.0,111.8 4160.0,111.8 4160.0,113.8 4157.5,113.8 4157.5,114.6 4155.0,114.6 4155.0,116.8 4152.5,116.8 4152.5,119.2 4150.0,119.2 4150.0,125.8 4147.5,125.8 4147.5,127.8 4145.0,127.8 4145.0,129.2 4142.5,129.2 4142.5,129.4 4137.5,129.4 4137.5,129.6 4135.0,129.6 4135.0,130.0 4135.0,130.0 4135.0,130.4 4137.5,130.4 4137.5,130.6 4142.5,130.6 4142.5,130.8 4145.0,130.8 4145.0,132.2 4147.5,132.2 4147.5,134.2 4150.0,134.2 4150.0,140.8 4152.5,140.8 4152.5,143.2 4155.0,143.2 4155.0,145.4 4157.5,145.4 4157.5,146.2 4160.0,146.2 4160.0,148.2 4165.0,148.2 4165.0,149.0 4167.5,149.0 4167.5,151.6 4170.0,151.6 4170.0,179.0 4185.0,179.0 4185.0,179.0 4200.0,179.0 4200.0,151.6 4202.5,151.6 4202.5,149.0 4205.0,149.0 4205.0,148.2 4210.0,148.2 4210.0,146.2 4212.5,146.2 4212.5,145.4 4215.0,145.4 4215.0,143.2 4217.5,143.2 4217.5,140.8 4220.0,140.8 4220.0,134.2 4222.5,134.2 4222.5,132.2 4225.0,132.2 4225.0,130.8 4227.5,130.8 4227.5,130.6 4232.5,130.6 4232.5,130.4 4235.0,130.4 4235.0,130.0" stroke="rgb(0,0,0)" /><text fill="black" x="4135.0" y="199.0">H72</text><polygon fill="rgb(150,150,150)" points="4325.0,130.0 4325.0,129.8 4315.0,129.8 4315.0,128.6 4312.5,128.6 4312.5,127.8 4310.0,127.8 4310.0,125.2 4307.5,125.2 4307.5,117.8 4305.0,117.8 4305.0,112.6 4302.5,112.6 4302.5,96.4 4295.0,96.4 4295.0,96.4 4287.5,96.4 4287.5,112.6 4285.0,112.6 4285.0,117.8 4282.5,117.8 4282.5,125.2 4280.0,125.2 4280.0,127.8 4277.5,127.8 4277.5,128.6 4275.0,128.6 4275.0,129.8 4265.0,129.8 4265.0,130.0 4265.0,130.0 4265.0,130.2 4275.0,130.2 4275.0,131.4 4277.5,131.4 4277.5,132.2 4280.0,132.2 4280.0,134.8 4282.5,134.8 4282.5,142.2 4285.0,142.2 4285.0,147.4 4287.5,147.4 4287.5,163.6 4295.0,163.6 4295.0,163.6 4302.5,163.6 4302.5,147.4 4305.0,147.4 4305.0,142.2 4307.5,142.2 4307.5,134.8 4310.0,134.8 4310.0,132.2 4312.5,132.2 4312.5,131.4 4315.0,131.4 4315.0,130.2 4325.0,130.2 4325.0,130.0" stroke="rgb(0,0,0)" /><text fill="black" x="4265.0" y="183.6">H73</text><polygon fill="rgb(150,150,150)" points="4410.0,55.0 4410.0,54.8 4402.5,54.8 4402.5,54.6 4400.0,54.6 4400.0,54.4 4397.5,54.4 4397.5,52.599999999999994 4392.5,52.599999999999994 4392.5,52.199999999999996 4390.0,52.199999999999996 4390.0,46.0 4382.5,46.0 4382.5,46.0 4375.0,46.0 4375.0,52.199999999999996 4372.5,52.199999999999996 4372.5,52.599999999999994 4367.5,52.599999999999994 4367.5,54.4 4365.0,54.4 4365.0,54.6 4362.5,54.6 4362.5,54.8 4355.0,54.8 4355.0,55.0 4355.0,55.0 4355.0,55.2 4362.5,55.2 4362.5,55.4 4365.0,55.4 4365.0,55.6 4367.5,55.6 4367.5,57.400000000000006 4372.5,57.400000000000006 4372.5,57.800000000000004 4375.0,57.800000000000004 4375.0,64.0 4382.5,64.0 4382.5,64.0 4390.0,64.0 4390.0,57.800000000000004 4392.5,57.800000000000004 4392.5,57.400000000000006 4397.5,57.400000000000006 4397.5,55.6 4400.0,55.6 4400.0,55.4 4402.5,55.4 4402.5,55.2 4410.0,55.2 4410.0,55.0" stroke="rgb(0,0,0)" /><text fill="black" x="4355.0" y="84.0">H74</text><polygon fill="rgb(175,70,70)" points="4360.0,205.0 4360.0,201.2 4357.5,201.2 4357.5,201.2 4355.0,201.2 4355.0,205.0 4355.0,205.0 4355.0,208.8 4357.5,208.8 4357.5,208.8 4360.0,208.8 4360.0,205.0" stroke="rgb(0,0,0)" /><text fill="black" x="4355.0" y="228.8">E75</text><polygon fill="rgb(150,150,150)" points="4460.0,130.0 4460.0,129.8 4457.5,129.8 4457.5,128.0 4450.0,128.0 4450.0,128.0 4442.5,128.0 4442.5,129.8 4440.0,129.8 4440.0,130.0 4440.0,130.0 4440.0,130.2 4442.5,130.2 4442.5,132.0 4450.0,132.0 4450.0,132.0 4457.5,132.0 4457.5,130.2 4460.0,130.2 4460.0,130.0" stroke="rgb(0,0,0)" /><text fill="black" x="4440.0" y="152.0">H76</text><polygon fill="rgb(255,255,150)" points="4500.0,130.0 4500.0,129.4 4497.5,129.4 4497.5,128.6 4495.0,128.6 4495.0,128.6 4492.5,128.6 4492.5,129.4 4490.0,129.4 4490.0,130.0 4490.0,130.0 4490.0,130.6 4492.5,130.6 4492.5,131.4 4495.0,131.4 4495.0,131.4 4497.5,131.4 4497.5,130.6 4500.0,130.6 4500.0,130.0" stroke="rgb(0,0,0)" /><text fill="black" x="4490.0" y="151.4">E77</text><polygon fill="rgb(150,150,150)" points="4530.0,55.0 4530.0,55.0 4530.0,55.0 4530.0,55.0" stroke="rgb(0,0,0)" /><text fill="black" x="4530.0" y="75.0">X78</text><polygon fill="rgb(150,150,150)" points="4620.0,205.0 4620.0,204.8 4612.5,204.8 4612.5,204.6 4600.0,204.6 4600.0,204.2 4597.5,204.2 4597.5,202.4 4595.0,202.4 4595.0,202.0 4590.0,202.0 4590.0,200.0 4587.5,200.0 4587.5,199.8 4582.5,199.8 4582.5,198.6 4575.0,198.6 4575.0,198.6 4567.5,198.6 4567.5,199.8 4562.5,199.8 4562.5,200.0 4560.0,200.0 4560.0,202.0 4555.0,202.0 4555.0,202.4 4552.5,202.4 4552.5,204.2 4550.0,204.2 4550.0,204.6 4537.5,204.6 4537.5,204.8 4530.0,204.8 4530.0,205.0 4530.0,205.0 4530.0,205.2 4537.5,205.2 4537.5,205.4 4550.0,205.4 4550.0,205.8 4552.5,205.8 4552.5,207.6 4555.0,207.6 4555.0,208.0 4560.0,208.0 4560.0,210.0 4562.5,210.0 4562.5,210.2 4567.5,210.2 4567.5,211.4 4575.0,211.4 4575.0,211.4 4582.5,211.4 4582.5,210.2 4587.5,210.2 4587.5,210.0 4590.0,210.0 4590.0,208.0 4595.0,208.0 4595.0,207.6 4597.5,207.6 4597.5,205.8 4600.0,205.8 4600.0,205.4 4612.5,205.4 4612.5,205.2 4620.0,205.2 4620.0,205.0" stroke="rgb(0,0,0)" /><text fill="black" x="4530.0" y="231.4">H79</text><polygon fill="rgb(255,255,150)" points="4655.0,55.0 4655.0,54.8 4652.5,54.8 4652.5,54.8 4650.0,54.8 4650.0,55.0 4650.0,55.0 4650.0,55.2 4652.5,55.2 4652.5,55.2 4655.0,55.2 4655.0,55.0" stroke="rgb(0,0,0)" /><text fill="black" x="4650.0" y="75.2">E80</text><polygon fill="rgb(150,150,150)" points="4680.0,205.0 4680.0,203.8 4677.5,203.8 4677.5,203.0 4675.0,203.0 4675.0,199.2 4672.5,199.2 4672.5,198.0 4665.0,198.0 4665.0,198.0 4657.5,198.0 4657.5,199.2 4655.0,199.2 4655.0,203.0 4652.5,203.0 4652.5,203.8 4650.0,203.8 4650.0,205.0 4650.0,205.0 4650.0,206.2 4652.5,206.2 4652.5,207.0 4655.0,207.0 4655.0,210.8 4657.5,210.8 4657.5,212.0 4665.0,212.0 4665.0,212.0 4672.5,212.0 4672.5,210.8 4675.0,210.8 4675.0,207.0 4677.5,207.0 4677.5,206.2 4680.0,206.2 4680.0,205.0" stroke="rgb(0,0,0)" /><text fill="black" x="4650.0" y="232.0">H81</text><polygon fill="rgb(70,70,175)" points="4720.0,55.0 4720.0,54.8 4717.5,54.8 4717.5,54.6 4715.0,54.6 4715.0,54.6 4712.5,54.6 4712.5,54.8 4710.0,54.8 4710.0,55.0 4710.0,55.0 4710.0,55.2 4712.5,55.2 4712.5,55.4 4715.0,55.4 4715.0,55.4 4717.5,55.4 4717.5,55.2 4720.0,55.2 4720.0,55.0" stroke="rgb(0,0,0)" /><text fill="black" x="4710.0" y="75.4">E82</text><polygon fill="rgb(150,150,150)" points="4725.0,205.0 4725.0,204.6 4717.5,204.6 4717.5,204.6 4710.0,204.6 4710.0,205.0 4710.0,205.0 4710.0,205.4 4717.5,205.4 4717.5,205.4 4725.0,205.4 4725.0,205.0" stroke="rgb(0,0,0)" /><text fill="black" x="4710.0" y="225.4">H83</text><polygon fill="rgb(150,150,150)" points="4755.0,130.0 4755.0,130.0 4755.0,130.0 4755.0,130.0" stroke="rgb(0,0,0)" /><text fill="black" x="4755.0" y="150.0">X84</text><path d="M 105.0,130.0 a 103.20713276192214,103.20713276192214 0 0,0 -45.0,-0.0" stroke="rgb(255,150,255)" stroke-width="2" /><path d="M 105.0,130.0 a 103.20713276192214,103.20713276192214 0 0,0 -45.0,-0.0" stroke="rgb(0,0,0)" stroke-width="0.2" /><path d="M 267.5,130.0 a 551.730961376377,551.730961376377 0 0,0 -207.5,-0.0" stroke="rgb(255,150,255)" stroke-width="2" /><path d="M 267.5,130.0 a 551.730961376377,551.730961376377 0 0,0 -207.5,-0.0" stroke="rgb(0,0,0)" stroke-width="0.2" /><path d="M 142.5,130.0 a 1189.375,1189.375 0 0,0 715.0,-0.0" stroke="rgb(255,150,255)" stroke-width="2" /><path d="M 142.5,130.0 a 1189.375,1189.375 0 0,0 715.0,-0.0" stroke="rgb(0,0,0)" stroke-width="0.2" /><path d="M 345.0,130.0 a 183.40256606251933,183.40256606251933 0 0,0 -77.5,-0.0" stroke="rgb(255,150,255)" stroke-width="2" /><path d="M 345.0,130.0 a 183.40256606251933,183.40256606251933 0 0,0 -77.5,-0.0" stroke="rgb(0,0,0)" stroke-width="0.2" /><path d="M 462.5,130.0 a 288.626385258617,288.626385258617 0 0,0 -117.5,-0.0" stroke="rgb(255,150,255)" stroke-width="2" /><path d="M 462.5,130.0 a 288.626385258617,288.626385258617 0 0,0 -117.5,-0.0" stroke="rgb(0,0,0)" stroke-width="0.2" /><path d="M 970.0,130.0 a 1692.9629183017223,1692.9629183017223 0 0,0 -507.5,-0.0" stroke="rgb(255,150,255)" stroke-width="2" /><path d="M 970.0,130.0 a 1692.9629183017223,1692.9629183017223 0 0,0 -507.5,-0.0" stroke="rgb(0,0,0)" stroke-width="0.2" /><path d="M 807.5,130.0 a 2942.400568181818,2942.400568181818 0 0,0 1132.5,-0.0" stroke="rgb(255,150,150)" stroke-width="2" /><path d="M 807.5,130.0 a 2942.400568181818,2942.400568181818 0 0,0 1132.5,-0.0" stroke="rgb(0,0,0)" stroke-width="0.2" /><path d="M 970.0,130.0 a 275.0795894893036,275.0795894893036 0 0,0 -112.5,-0.0" stroke="rgb(255,150,255)" stroke-width="2" /><path d="M 970.0,130.0 a 275.0795894893036,275.0795894893036 0 0,0 -112.5,-0.0" stroke="rgb(0,0,0)" stroke-width="0.2" /><path d="M 1827.5,130.0 a 3198.0116230801164,3198.0116230801164 0 0,0 -800.0,-0.0" stroke="rgb(255,150,150)" stroke-width="2" /><path d="M 1827.5,130.0 a 3198.0116230801164,3198.0116230801164 0 0,0 -800.0,-0.0" stroke="rgb(0,0,0)" stroke-width="0.2" /><path d="M 1370.0,130.0 a 520.6936303827752,520.6936303827752 0 0,0 -197.5,-0.0" stroke="rgb(255,255,150)" stroke-width="2" /><path d="M 1370.0,130.0 a 520.6936303827752,520.6936303827752 0 0,0 -197.5,-0.0" stroke="rgb(0,0,0)" stroke-width="0.2" /><path d="M 1280.0,130.0 a 45.90909090909091,45.90909090909091 0 0,0 90.0,-0.0" stroke="rgb(255,255,150)" stroke-width="2" /><path d="M 1280.0,130.0 a 45.90909090909091,45.90909090909091 0 0,0 90.0,-0.0" stroke="rgb(0,0,0)" stroke-width="0.2" /><path d="M 1370.0,130.0 a 5447.798295454545,5447.798295454545 0 0,0 1542.5,75.0" stroke="rgb(255,255,150)" stroke-width="2" /><path d="M 1370.0,130.0 a 5447.798295454545,5447.798295454545 0 0,0 1542.5,75.0" stroke="rgb(0,0,0)" stroke-width="0.2" /><path d="M 4495.0,130.0 a 28977.044520815212,28977.044520815212 0 0,0 -3125.0,-0.0" stroke="rgb(255,255,150)" stroke-width="2" /><path d="M 4495.0,130.0 a 28977.044520815212,28977.044520815212 0 0,0 -3125.0,-0.0" stroke="rgb(0,0,0)" stroke-width="0.2" /><path d="M 1617.5,130.0 a 231.2965967003809,231.2965967003809 0 0,0 -60.0,75.0" stroke="rgb(70,175,70)" stroke-width="2" /><path d="M 1617.5,130.0 a 231.2965967003809,231.2965967003809 0 0,0 -60.0,75.0" stroke="rgb(0,0,0)" stroke-width="0.2" /><path d="M 2075.0,55.0 a 1148.5556671646543,1148.5556671646543 0 0,0 -370.0,75.0" stroke="rgb(150,150,255)" stroke-width="2" /><path d="M 2075.0,55.0 a 1148.5556671646543,1148.5556671646543 0 0,0 -370.0,75.0" stroke="rgb(0,0,0)" stroke-width="0.2" /><path d="M 1940.0,130.0 a 275.0795894893036,275.0795894893036 0 0,0 -112.5,-0.0" stroke="rgb(255,150,150)" stroke-width="2" /><path d="M 1940.0,130.0 a 275.0795894893036,275.0795894893036 0 0,0 -112.5,-0.0" stroke="rgb(0,0,0)" stroke-width="0.2" /><path d="M 2205.0,205.0 a 444.8047234556432,444.8047234556432 0 0,0 -85.0,-150.0" stroke="rgb(150,255,255)" stroke-width="2" /><path d="M 2205.0,205.0 a 444.8047234556432,444.8047234556432 0 0,0 -85.0,-150.0" stroke="rgb(0,0,0)" stroke-width="0.2" /><path d="M 2397.5,130.0 a 365.14627703654594,365.14627703654594 0 0,0 -145.0,-0.0" stroke="rgb(150,255,150)" stroke-width="2" /><path d="M 2397.5,130.0 a 365.14627703654594,365.14627703654594 0 0,0 -145.0,-0.0" stroke="rgb(0,0,0)" stroke-width="0.2" /><path d="M 2732.5,130.0 a 1571.3996952767902,1571.3996952767902 0 0,0 -480.0,-0.0" stroke="rgb(150,255,150)" stroke-width="2" /><path d="M 2732.5,130.0 a 1571.3996952767902,1571.3996952767902 0 0,0 -480.0,-0.0" stroke="rgb(0,0,0)" stroke-width="0.2" /><path d="M 2732.5,130.0 a 422.9372202327663,422.9372202327663 0 0,0 -165.0,-0.0" stroke="rgb(150,255,150)" stroke-width="2" /><path d="M 2732.5,130.0 a 422.9372202327663,422.9372202327663 0 0,0 -165.0,-0.0" stroke="rgb(0,0,0)" stroke-width="0.2" /><path d="M 3017.5,130.0 a 79.48654094132817,79.48654094132817 0 0,0 -35.0,-0.0" stroke="rgb(175,70,175)" stroke-width="2" /><path d="M 3017.5,130.0 a 79.48654094132817,79.48654094132817 0 0,0 -35.0,-0.0" stroke="rgb(0,0,0)" stroke-width="0.2" /><path d="M 3550.0,55.0 a 791.0207009574324,791.0207009574324 0 0,0 -270.0,75.0" stroke="rgb(70,70,175)" stroke-width="2" /><path d="M 3550.0,55.0 a 791.0207009574324,791.0207009574324 0 0,0 -270.0,75.0" stroke="rgb(0,0,0)" stroke-width="0.2" /><path d="M 4715.0,55.0 a 5620.372079915834,5620.372079915834 0 0,0 -1165.0,-0.0" stroke="rgb(70,70,175)" stroke-width="2" /><path d="M 4715.0,55.0 a 5620.372079915834,5620.372079915834 0 0,0 -1165.0,-0.0" stroke="rgb(0,0,0)" stroke-width="0.2" /><path d="M 4357.5,205.0 a 2997.4911116111607,2997.4911116111607 0 0,0 -765.0,-0.0" stroke="rgb(175,70,70)" stroke-width="2" /><path d="M 4357.5,205.0 a 2997.4911116111607,2997.4911116111607 0 0,0 -765.0,-0.0" stroke="rgb(0,0,0)" stroke-width="0.2" /><path d="M 4652.5,55.0 a 450.85742014882703,450.85742014882703 0 0,0 -157.5,75.0" stroke="rgb(255,255,150)" stroke-width="2" /><path d="M 4652.5,55.0 a 450.85742014882703,450.85742014882703 0 0,0 -157.5,75.0" stroke="rgb(0,0,0)" stroke-width="0.2" /></svg>