<?xml version="1.0" encoding="utf-8" ?>
<svg baseProfile="full" height="100%" style="font-size:14;font-family:Sans, Arial;stroke-width:1;fill:none" version="1.1" width="100%" xmlns="http://www.w3.org/2000/svg" xmlns:ev="http://www.w3.org/2001/xml-events" xmlns:xlink="http://www.w3.org/1999/xlink"><defs /><rect fill="none" height="130.0" stroke="none" width="1230.70245" x="0" y="0" /><line stroke="rgb(0,0,0)" x1="5.0" x2="16.410249999999998" y1="55.0" y2="55.0" /><line stroke="rgb(0,0,0)" x1="16.410249999999998" x2="36.41025" y1="55.0" y2="55.0" /><line stroke="rgb(0,0,0)" x1="36.41025" x2="41.41025" y1="55.0" y2="55.0" /><line stroke="rgb(0,0,0)" x1="41.41025" x2="84.84375" y1="55.0" y2="55.0" /><line stroke="rgb(0,0,0)" x1="84.84375" x2="104.84375" y1="55.0" y2="55.0" /><line stroke="rgb(0,0,0)" x1="104.84375" x2="109.84375" y1="55.0" y2="55.0" /><line stroke="rgb(0,0,0)" x1="109.84375" x2="131.9522" y1="55.0" y2="55.0" /><line stroke="rgb(0,0,0)" x1="131.9522" x2="151.9522" y1="55.0" y2="55.0" /><line stroke="rgb(0,0,0)" x1="151.9522" x2="156.9522" y1="55.0" y2="55.0" /><line stroke="rgb(0,0,0)" x1="156.9522" x2="266.4122" y1="55.0" y2="55.0" /><line stroke="rgb(0,0,0)" x1="266.4122" x2="286.4122" y1="55.0" y2="55.0" /><line stroke="rgb(0,0,0)" x1="286.4122" x2="291.4122" y1="55.0" y2="55.0" /><line stroke="rgb(0,0,0)" x1="291.4122" x2="306.21059999999994" y1="55.0" y2="55.0" /><line stroke="rgb(0,0,0)" x1="306.21059999999994" x2="326.2106" y1="55.0" y2="55.0" /><line stroke="rgb(0,0,0)" x1="326.2106" x2="331.2106" y1="55.0" y2="55.0" /><line stroke="rgb(0,0,0)" x1="331.2106" x2="354.8906" y1="55.0" y2="55.0" /><line stroke="rgb(0,0,0)" x1="354.8906" x2="374.8906" y1="55.0" y2="55.0" /><line stroke="rgb(0,0,0)" x1="374.8906" x2="379.8906" y1="55.0" y2="55.0" /><line stroke="rgb(0,0,0)" x1="379.8906" x2="401.59060000000005" y1="55.0" y2="55.0" /><line stroke="rgb(0,0,0)" x1="401.59060000000005" x2="421.59060000000005" y1="55.0" y2="55.0" /><line stroke="rgb(0,0,0)" x1="421.59060000000005" x2="426.59060000000005" y1="55.0" y2="55.0" /><line stroke="rgb(0,0,0)" x1="426.59060000000005" x2="447.6906" y1="55.0" y2="55.0" /><line stroke="rgb(0,0,0)" x1="447.6906" x2="467.6906" y1="55.0" y2="55.0" /><line stroke="rgb(0,0,0)" x1="467.6906" x2="472.6906" y1="55.0" y2="55.0" /><line stroke="rgb(0,0,0)" x1="472.6906" x2="487.52930000000003" y1="55.0" y2="55.0" /><line stroke="rgb(0,0,0)" x1="487.52930000000003" x2="507.52930000000003" y1="55.0" y2="55.0" /><line stroke="rgb(0,0,0)" x1="507.52930000000003" x2="512.5293" y1="55.0" y2="55.0" /><line stroke="rgb(0,0,0)" x1="512.5293" x2="525.3944500000001" y1="55.0" y2="55.0" /><line stroke="rgb(0,0,0)" x1="525.3944500000001" x2="545.3944500000001" y1="55.0" y2="55.0" /><line stroke="rgb(0,0,0)" x1="545.3944500000001" x2="550.3944500000001" y1="55.0" y2="55.0" /><line stroke="rgb(0,0,0)" x1="550.3944500000001" x2="571.2961" y1="55.0" y2="55.0" /><line stroke="rgb(0,0,0)" x1="571.2961" x2="591.2961" y1="55.0" y2="55.0" /><line stroke="rgb(0,0,0)" x1="591.2961" x2="596.2961" y1="55.0" y2="55.0" /><line stroke="rgb(0,0,0)" x1="596.2961" x2="628.2078500000001" y1="55.0" y2="55.0" /><line stroke="rgb(0,0,0)" x1="628.2078500000001" x2="648.20785" y1="55.0" y2="55.0" /><line stroke="rgb(0,0,0)" x1="648.20785" x2="653.20785" y1="55.0" y2="55.0" /><line stroke="rgb(0,0,0)" x1="653.20785" x2="665.7773" y1="55.0" y2="55.0" /><line stroke="rgb(0,0,0)" x1="665.7773" x2="685.7773" y1="55.0" y2="55.0" /><line stroke="rgb(0,0,0)" x1="685.7773" x2="690.7773" y1="55.0" y2="55.0" /><line stroke="rgb(0,0,0)" x1="690.7773" x2="781.3973" y1="55.0" y2="55.0" /><line stroke="rgb(0,0,0)" x1="781.3973" x2="801.3973" y1="55.0" y2="55.0" /><line stroke="rgb(0,0,0)" x1="801.3973" x2="806.3973" y1="55.0" y2="55.0" /><line stroke="rgb(0,0,0)" x1="806.3973" x2="863.0572999999999" y1="55.0" y2="55.0" /><line stroke="rgb(0,0,0)" x1="863.0572999999999" x2="883.0572999999999" y1="55.0" y2="55.0" /><line stroke="rgb(0,0,0)" x1="883.0572999999999" x2="888.0572999999999" y1="55.0" y2="55.0" /><line stroke="rgb(0,0,0)" x1="888.0572999999999" x2="919.8689" y1="55.0" y2="55.0" /><line stroke="rgb(0,0,0)" x1="919.8689" x2="939.8689" y1="55.0" y2="55.0" /><line stroke="rgb(0,0,0)" x1="939.8689" x2="944.8689" y1="55.0" y2="55.0" /><line stroke="rgb(0,0,0)" x1="944.8689" x2="973.5436" y1="55.0" y2="55.0" /><line stroke="rgb(0,0,0)" x1="973.5436" x2="993.5436" y1="55.0" y2="55.0" /><line stroke="rgb(0,0,0)" x1="993.5436" x2="998.5436" y1="55.0" y2="55.0" /><line stroke="rgb(0,0,0)" x1="998.5436" x2="1059.9491" y1="55.0" y2="55.0" /><line stroke="rgb(0,0,0)" x1="1059.9491" x2="1079.9491" y1="55.0" y2="55.0" /><line stroke="rgb(0,0,0)" x1="1079.9491" x2="1084.9491" y1="55.0" y2="55.0" /><line stroke="rgb(0,0,0)" x1="1084.9491" x2="1105.5001" y1="55.0" y2="55.0" /><line stroke="rgb(0,0,0)" x1="1105.5001" x2="1125.5001" y1="55.0" y2="55.0" /><line stroke="rgb(0,0,0)" x1="1125.5001" x2="1130.5001" y1="55.0" y2="55.0" /><line stroke="rgb(0,0,0)" x1="1130.5001" x2="1179.9286499999998" y1="55.0" y2="55.0" /><line stroke="rgb(0,0,0)" x1="1179.9286499999998" x2="1199.9286499999998" y1="55.0" y2="55.0" /><line stroke="rgb(0,0,0)" x1="1199.9286499999998" x2="1204.9286499999998" y1="55.0" y2="55.0" /><rect fill="rgb(255,150,150)" height="78.0" stroke="rgb(0,0,0)" width="6.41025" x="5.0" y="16.0" /><text fill="black" x="5.0" y="114.0">E17</text><rect fill="rgb(150,150,150)" height="93.2" stroke="rgb(0,0,0)" width="38.4335" x="41.41025" y="8.399999999999999" /><text fill="black" x="41.41025" y="121.6">H18</text><rect fill="rgb(150,150,150)" height="33.2" stroke="rgb(0,0,0)" width="17.108449999999998" x="109.84375" y="38.4" /><text fill="black" x="109.84375" y="91.6">H20</text><rect fill="rgb(150,150,150)" height="100.0" stroke="rgb(0,0,0)" width="104.46" x="156.9522" y="5.0" /><text fill="black" x="156.9522" y="125.0">H24</text><rect fill="rgb(150,150,255)" height="49.6" stroke="rgb(0,0,0)" width="9.7984" x="291.4122" y="30.2" /><text fill="black" x="291.4122" y="99.8">E29</text><rect fill="rgb(150,150,150)" height="100.0" stroke="rgb(0,0,0)" width="18.68" x="331.2106" y="5.0" /><text fill="black" x="331.2106" y="125.0">H30</text><rect fill="rgb(255,150,150)" height="100.0" stroke="rgb(0,0,0)" width="16.7" x="379.8906" y="5.0" /><text fill="black" x="379.8906" y="125.0">E31</text><rect fill="rgb(255,150,150)" height="100.0" stroke="rgb(0,0,0)" width="16.1" x="426.59060000000005" y="5.0" /><text fill="black" x="426.59060000000005" y="125.0">E33</text><rect fill="rgb(150,150,255)" height="49.6" stroke="rgb(0,0,0)" width="9.8387" x="472.6906" y="30.2" /><text fill="black" x="472.6906" y="99.8">E35</text><rect fill="rgb(150,255,150)" height="35.6" stroke="rgb(0,0,0)" width="7.86515" x="512.5293" y="37.2" /><text fill="black" x="512.5293" y="92.8">E41</text><rect fill="rgb(150,150,150)" height="73.2" stroke="rgb(0,0,0)" width="15.90165" x="550.3944500000001" y="18.4" /><text fill="black" x="550.3944500000001" y="111.6">H44</text><rect fill="rgb(150,150,150)" height="95.19999999999999" stroke="rgb(0,0,0)" width="26.911749999999998" x="596.2961" y="7.400000000000006" /><text fill="black" x="596.2961" y="122.6">H45</text><rect fill="rgb(150,255,150)" height="28.799999999999997" stroke="rgb(0,0,0)" width="7.56945" x="653.20785" y="40.6" /><text fill="black" x="653.20785" y="89.4">E49</text><rect fill="rgb(150,150,150)" height="100.0" stroke="rgb(0,0,0)" width="85.61999999999999" x="690.7773" y="5.0" /><text fill="black" x="690.7773" y="125.0">H50</text><rect fill="rgb(150,150,150)" height="96.39999999999999" stroke="rgb(0,0,0)" width="51.660000000000004" x="806.3973" y="6.800000000000004" /><text fill="black" x="806.3973" y="123.19999999999999">H57</text><rect fill="rgb(150,150,150)" height="27.6" stroke="rgb(0,0,0)" width="26.811600000000002" x="888.0572999999999" y="41.2" /><text fill="black" x="888.0572999999999" y="88.8">H60</text><rect fill="rgb(150,150,150)" height="33.2" stroke="rgb(0,0,0)" width="23.6747" x="944.8689" y="38.4" /><text fill="black" x="944.8689" y="91.6">H64</text><rect fill="rgb(150,150,150)" height="99.6" stroke="rgb(0,0,0)" width="56.4055" x="998.5436" y="5.200000000000003" /><text fill="black" x="998.5436" y="124.8">H68</text><rect fill="rgb(150,150,150)" height="98.0" stroke="rgb(0,0,0)" width="15.550999999999998" x="1084.9491" y="6.0" /><text fill="black" x="1084.9491" y="124.0">H69</text><rect fill="rgb(150,150,150)" height="98.0" stroke="rgb(0,0,0)" width="44.42855" x="1130.5001" y="6.0" /><text fill="black" x="1130.5001" y="124.0">H72</text><rect fill="rgb(150,150,150)" height="67.2" stroke="rgb(0,0,0)" width="20.773799999999998" x="1204.9286499999998" y="21.4" /><text fill="black" x="1204.9286499999998" y="108.6">H73</text><path d="M 388.24060000000003,55.0 a 557.5289764803136,557.5289764803136 0 0,0 -380.035475,-0.0" stroke="rgb(255,150,150)" stroke-width="2" /><path d="M 388.24060000000003,55.0 a 557.5289764803136,557.5289764803136 0 0,0 -380.035475,-0.0" stroke="rgb(0,0,0)" stroke-width="0.2" /><path d="M 477.60995,55.0 a 187.7870480117848,187.7870480117848 0 0,0 -181.29855000000003,-0.0" stroke="rgb(150,150,255)" stroke-width="2" /><path d="M 477.60995,55.0 a 187.7870480117848,187.7870480117848 0 0,0 -181.29855000000003,-0.0" stroke="rgb(0,0,0)" stroke-width="0.2" /><path d="M 434.64060000000006,55.0 a 35.21151377144738,35.21151377144738 0 0,0 -46.400000000000034,-0.0" stroke="rgb(255,150,150)" stroke-width="2" /><path d="M 434.64060000000006,55.0 a 35.21151377144738,35.21151377144738 0 0,0 -46.400000000000034,-0.0" stroke="rgb(0,0,0)" stroke-width="0.2" /><path d="M 656.992575,55.0 a 133.4926438387892,133.4926438387892 0 0,0 -140.5306999999999,-0.0" stroke="rgb(150,255,150)" stroke-width="2" /><path d="M 656.992575,55.0 a 133.4926438387892,133.4926438387892 0 0,0 -140.5306999999999,-0.0" stroke="rgb(0,0,0)" stroke-width="0.2" /></svg>