<?xml version="1.0" encoding="utf-8" ?>
<svg baseProfile="full" height="100%" style="font-size:14;font-family:Sans, Arial;stroke-width:1;fill:none" version="1.1" width="100%" xmlns="http://www.w3.org/2000/svg" xmlns:ev="http://www.w3.org/2001/xml-events" xmlns:xlink="http://www.w3.org/1999/xlink"><defs /><rect fill="none" height="300.0" stroke="none" width="3310.2414500000004" x="0" y="0" /><line stroke="rgb(0,0,0)" x1="5.0" x2="22.1875" y1="150.0" y2="150.0" /><line stroke="rgb(0,0,0)" x1="22.1875" x2="32.1875" y1="150.0" y2="150.0" /><line stroke="rgb(0,0,0)" x1="32.1875" x2="37.1875" y1="150.0" y2="150.0" /><line stroke="rgb(0,0,0)" x1="37.1875" x2="54.375" y1="150.0" y2="150.0" /><line stroke="rgb(0,0,0)" x1="54.375" x2="64.375" y1="150.0" y2="150.0" /><line stroke="rgb(0,0,0)" x1="64.375" x2="69.375" y1="150.0" y2="150.0" /><line stroke="rgb(0,0,0)" x1="69.375" x2="89.375" y1="150.0" y2="150.0" /><line stroke="rgb(0,0,0)" x1="89.375" x2="99.375" y1="150.0" y2="150.0" /><line stroke="rgb(0,0,0)" x1="99.375" x2="104.375" y1="150.0" y2="150.0" /><line stroke="rgb(0,0,0)" x1="104.375" x2="127.8935" y1="150.0" y2="150.0" /><line stroke="rgb(0,0,0)" x1="127.8935" x2="137.89350000000002" y1="150.0" y2="150.0" /><line stroke="rgb(0,0,0)" x1="137.89350000000002" x2="142.89350000000002" y1="150.0" y2="150.0" /><line stroke="rgb(0,0,0)" x1="142.89350000000002" x2="171.5972" y1="150.0" y2="150.0" /><line stroke="rgb(0,0,0)" x1="171.5972" x2="181.5972" y1="150.0" y2="150.0" /><line stroke="rgb(0,0,0)" x1="181.5972" x2="186.5972" y1="150.0" y2="150.0" /><line stroke="rgb(0,0,0)" x1="186.5972" x2="197.09720000000002" y1="150.0" y2="150.0" /><line stroke="rgb(0,0,0)" x1="197.09720000000002" x2="207.09720000000002" y1="150.0" y2="150.0" /><line stroke="rgb(0,0,0)" x1="207.09720000000002" x2="212.09720000000002" y1="150.0" y2="150.0" /><line stroke="rgb(0,0,0)" x1="212.09720000000002" x2="356.34270000000004" y1="150.0" y2="150.0" /><line stroke="rgb(0,0,0)" x1="356.34270000000004" x2="366.34270000000004" y1="150.0" y2="150.0" /><line stroke="rgb(0,0,0)" x1="366.34270000000004" x2="371.34270000000004" y1="150.0" y2="150.0" /><line stroke="rgb(0,0,0)" x1="371.34270000000004" x2="393.4946" y1="150.0" y2="150.0" /><line stroke="rgb(0,0,0)" x1="393.4946" x2="403.4946" y1="150.0" y2="150.0" /><line stroke="rgb(0,0,0)" x1="403.4946" x2="408.4946" y1="150.0" y2="150.0" /><line stroke="rgb(0,0,0)" x1="408.4946" x2="550.1471" y1="150.0" y2="150.0" /><line stroke="rgb(0,0,0)" x1="550.1471" x2="560.1471" y1="150.0" y2="150.0" /><line stroke="rgb(0,0,0)" x1="560.1471" x2="565.1471" y1="150.0" y2="150.0" /><line stroke="rgb(0,0,0)" x1="565.1471" x2="621.5756" y1="150.0" y2="150.0" /><line stroke="rgb(0,0,0)" x1="621.5756" x2="631.5756" y1="150.0" y2="150.0" /><line stroke="rgb(0,0,0)" x1="631.5756" x2="636.5756" y1="150.0" y2="150.0" /><line stroke="rgb(0,0,0)" x1="636.5756" x2="646.5756" y1="150.0" y2="150.0" /><line stroke="rgb(0,0,0)" x1="646.5756" x2="656.5756" y1="150.0" y2="150.0" /><line stroke="rgb(0,0,0)" x1="656.5756" x2="661.5756" y1="150.0" y2="150.0" /><line stroke="rgb(0,0,0)" x1="661.5756" x2="681.5756" y1="150.0" y2="150.0" /><line stroke="rgb(0,0,0)" x1="681.5756" x2="691.5756" y1="150.0" y2="150.0" /><line stroke="rgb(0,0,0)" x1="691.5756" x2="696.5756" y1="150.0" y2="150.0" /><line stroke="rgb(0,0,0)" x1="696.5756" x2="724.5527" y1="150.0" y2="150.0" /><line stroke="rgb(0,0,0)" x1="724.5527" x2="734.5527" y1="150.0" y2="150.0" /><line stroke="rgb(0,0,0)" x1="734.5527" x2="739.5527" y1="150.0" y2="150.0" /><line stroke="rgb(0,0,0)" x1="739.5527" x2="762.0527" y1="150.0" y2="150.0" /><line stroke="rgb(0,0,0)" x1="762.0527" x2="772.0527" y1="150.0" y2="150.0" /><line stroke="rgb(0,0,0)" x1="772.0527" x2="777.0527" y1="150.0" y2="150.0" /><line stroke="rgb(0,0,0)" x1="777.0527" x2="797.0527" y1="150.0" y2="150.0" /><line stroke="rgb(0,0,0)" x1="797.0527" x2="807.0527" y1="150.0" y2="150.0" /><line stroke="rgb(0,0,0)" x1="807.0527" x2="812.0527" y1="150.0" y2="150.0" /><line stroke="rgb(0,0,0)" x1="812.0527" x2="835.288" y1="150.0" y2="150.0" /><line stroke="rgb(0,0,0)" x1="835.288" x2="845.288" y1="150.0" y2="150.0" /><line stroke="rgb(0,0,0)" x1="845.288" x2="850.288" y1="150.0" y2="150.0" /><line stroke="rgb(0,0,0)" x1="850.288" x2="874.038" y1="150.0" y2="150.0" /><line stroke="rgb(0,0,0)" x1="874.038" x2="884.038" y1="150.0" y2="150.0" /><line stroke="rgb(0,0,0)" x1="884.038" x2="889.038" y1="150.0" y2="150.0" /><line stroke="rgb(0,0,0)" x1="889.038" x2="918.20465" y1="150.0" y2="150.0" /><line stroke="rgb(0,0,0)" x1="918.20465" x2="928.20465" y1="150.0" y2="150.0" /><line stroke="rgb(0,0,0)" x1="928.20465" x2="933.20465" y1="150.0" y2="150.0" /><line stroke="rgb(0,0,0)" x1="933.20465" x2="1073.18315" y1="150.0" y2="150.0" /><line stroke="rgb(0,0,0)" x1="1073.18315" x2="1083.18315" y1="150.0" y2="75.0" /><line stroke="rgb(0,0,0)" x1="1083.18315" x2="1088.18315" y1="75.0" y2="75.0" /><line stroke="rgb(0,0,0)" x1="933.20465" x2="1073.18315" y1="150.0" y2="150.0" /><line stroke="rgb(0,0,0)" x1="1073.18315" x2="1083.18315" y1="150.0" y2="225.0" /><line stroke="rgb(0,0,0)" x1="1083.18315" x2="1088.18315" y1="225.0" y2="225.0" /><line stroke="rgb(0,0,0)" x1="1088.18315" x2="1110.326" y1="225.0" y2="225.0" /><line stroke="rgb(0,0,0)" x1="1110.326" x2="1120.326" y1="225.0" y2="150.0" /><line stroke="rgb(0,0,0)" x1="1120.326" x2="1125.326" y1="150.0" y2="150.0" /><line stroke="rgb(0,0,0)" x1="1125.326" x2="1166.1593500000001" y1="150.0" y2="150.0" /><line stroke="rgb(0,0,0)" x1="1166.1593500000001" x2="1176.1593500000001" y1="150.0" y2="150.0" /><line stroke="rgb(0,0,0)" x1="1176.1593500000001" x2="1181.1593500000001" y1="150.0" y2="150.0" /><line stroke="rgb(0,0,0)" x1="1088.18315" x2="1098.18315" y1="75.0" y2="75.0" /><line stroke="rgb(0,0,0)" x1="1098.18315" x2="1176.1593500000001" y1="75.0" y2="150.0" /><line stroke="rgb(0,0,0)" x1="1176.1593500000001" x2="1181.1593500000001" y1="150.0" y2="150.0" /><line stroke="rgb(0,0,0)" x1="1181.1593500000001" x2="1305.23685" y1="150.0" y2="150.0" /><line stroke="rgb(0,0,0)" x1="1305.23685" x2="1315.23685" y1="150.0" y2="75.0" /><line stroke="rgb(0,0,0)" x1="1315.23685" x2="1320.23685" y1="75.0" y2="75.0" /><line stroke="rgb(0,0,0)" x1="1181.1593500000001" x2="1305.23685" y1="150.0" y2="150.0" /><line stroke="rgb(0,0,0)" x1="1305.23685" x2="1315.23685" y1="150.0" y2="225.0" /><line stroke="rgb(0,0,0)" x1="1315.23685" x2="1320.23685" y1="225.0" y2="225.0" /><line stroke="rgb(0,0,0)" x1="1320.23685" x2="1351.73685" y1="75.0" y2="75.0" /><line stroke="rgb(0,0,0)" x1="1351.73685" x2="1361.73685" y1="75.0" y2="150.0" /><line stroke="rgb(0,0,0)" x1="1361.73685" x2="1366.73685" y1="150.0" y2="150.0" /><line stroke="rgb(0,0,0)" x1="1366.73685" x2="1387.98685" y1="150.0" y2="150.0" /><line stroke="rgb(0,0,0)" x1="1387.98685" x2="1397.98685" y1="150.0" y2="150.0" /><line stroke="rgb(0,0,0)" x1="1397.98685" x2="1402.98685" y1="150.0" y2="150.0" /><line stroke="rgb(0,0,0)" x1="1320.23685" x2="1344.7822999999999" y1="225.0" y2="225.0" /><line stroke="rgb(0,0,0)" x1="1344.7822999999999" x2="1397.98685" y1="225.0" y2="150.0" /><line stroke="rgb(0,0,0)" x1="1397.98685" x2="1402.98685" y1="150.0" y2="150.0" /><line stroke="rgb(0,0,0)" x1="1402.98685" x2="1451.9154" y1="150.0" y2="150.0" /><line stroke="rgb(0,0,0)" x1="1451.9154" x2="1461.9154" y1="150.0" y2="150.0" /><line stroke="rgb(0,0,0)" x1="1461.9154" x2="1466.9154" y1="150.0" y2="150.0" /><line stroke="rgb(0,0,0)" x1="1466.9154" x2="1486.9154" y1="150.0" y2="150.0" /><line stroke="rgb(0,0,0)" x1="1486.9154" x2="1496.9154" y1="150.0" y2="150.0" /><line stroke="rgb(0,0,0)" x1="1496.9154" x2="1501.9154" y1="150.0" y2="150.0" /><line stroke="rgb(0,0,0)" x1="1501.9154" x2="1517.36995" y1="150.0" y2="150.0" /><line stroke="rgb(0,0,0)" x1="1517.36995" x2="1527.36995" y1="150.0" y2="150.0" /><line stroke="rgb(0,0,0)" x1="1527.36995" x2="1532.36995" y1="150.0" y2="150.0" /><line stroke="rgb(0,0,0)" x1="1532.36995" x2="1562.36995" y1="150.0" y2="150.0" /><line stroke="rgb(0,0,0)" x1="1562.36995" x2="1572.36995" y1="150.0" y2="150.0" /><line stroke="rgb(0,0,0)" x1="1572.36995" x2="1577.36995" y1="150.0" y2="150.0" /><line stroke="rgb(0,0,0)" x1="1577.36995" x2="1601.9154" y1="150.0" y2="150.0" /><line stroke="rgb(0,0,0)" x1="1601.9154" x2="1611.9154" y1="150.0" y2="150.0" /><line stroke="rgb(0,0,0)" x1="1611.9154" x2="1616.9154" y1="150.0" y2="150.0" /><line stroke="rgb(0,0,0)" x1="1616.9154" x2="1639.6932000000002" y1="150.0" y2="150.0" /><line stroke="rgb(0,0,0)" x1="1639.6932000000002" x2="1649.6932000000002" y1="150.0" y2="75.0" /><line stroke="rgb(0,0,0)" x1="1649.6932000000002" x2="1654.6932000000002" y1="75.0" y2="75.0" /><line stroke="rgb(0,0,0)" x1="1616.9154" x2="1639.6932000000002" y1="150.0" y2="150.0" /><line stroke="rgb(0,0,0)" x1="1639.6932000000002" x2="1649.6932000000002" y1="150.0" y2="225.0" /><line stroke="rgb(0,0,0)" x1="1649.6932000000002" x2="1654.6932000000002" y1="225.0" y2="225.0" /><line stroke="rgb(0,0,0)" x1="1654.6932000000002" x2="1676.35985" y1="225.0" y2="225.0" /><line stroke="rgb(0,0,0)" x1="1676.35985" x2="1686.35985" y1="225.0" y2="75.0" /><line stroke="rgb(0,0,0)" x1="1686.35985" x2="1691.35985" y1="75.0" y2="75.0" /><line stroke="rgb(0,0,0)" x1="1654.6932000000002" x2="1659.6932000000002" y1="75.0" y2="75.0" /><line stroke="rgb(0,0,0)" x1="1659.6932000000002" x2="1686.35985" y1="75.0" y2="225.0" /><line stroke="rgb(0,0,0)" x1="1686.35985" x2="1691.35985" y1="225.0" y2="225.0" /><line stroke="rgb(0,0,0)" x1="1691.35985" x2="1716.35985" y1="75.0" y2="75.0" /><line stroke="rgb(0,0,0)" x1="1716.35985" x2="1726.35985" y1="75.0" y2="150.0" /><line stroke="rgb(0,0,0)" x1="1726.35985" x2="1731.35985" y1="150.0" y2="150.0" /><line stroke="rgb(0,0,0)" x1="1691.35985" x2="1696.35985" y1="225.0" y2="225.0" /><line stroke="rgb(0,0,0)" x1="1696.35985" x2="1726.35985" y1="225.0" y2="150.0" /><line stroke="rgb(0,0,0)" x1="1726.35985" x2="1731.35985" y1="150.0" y2="150.0" /><line stroke="rgb(0,0,0)" x1="1731.35985" x2="1898.44685" y1="150.0" y2="150.0" /><line stroke="rgb(0,0,0)" x1="1898.44685" x2="1908.44685" y1="150.0" y2="75.0" /><line stroke="rgb(0,0,0)" x1="1908.44685" x2="1913.44685" y1="75.0" y2="75.0" /><line stroke="rgb(0,0,0)" x1="1731.35985" x2="1898.44685" y1="150.0" y2="150.0" /><line stroke="rgb(0,0,0)" x1="1898.44685" x2="1908.44685" y1="150.0" y2="225.0" /><line stroke="rgb(0,0,0)" x1="1908.44685" x2="1913.44685" y1="225.0" y2="225.0" /><line stroke="rgb(0,0,0)" x1="1913.44685" x2="1938.44685" y1="225.0" y2="225.0" /><line stroke="rgb(0,0,0)" x1="1938.44685" x2="1948.44685" y1="225.0" y2="150.0" /><line stroke="rgb(0,0,0)" x1="1948.44685" x2="1953.44685" y1="150.0" y2="150.0" /><line stroke="rgb(0,0,0)" x1="1953.44685" x2="1978.44685" y1="150.0" y2="150.0" /><line stroke="rgb(0,0,0)" x1="1978.44685" x2="1988.44685" y1="150.0" y2="150.0" /><line stroke="rgb(0,0,0)" x1="1988.44685" x2="1993.44685" y1="150.0" y2="150.0" /><line stroke="rgb(0,0,0)" x1="1913.44685" x2="1933.44685" y1="75.0" y2="75.0" /><line stroke="rgb(0,0,0)" x1="1933.44685" x2="1988.44685" y1="75.0" y2="150.0" /><line stroke="rgb(0,0,0)" x1="1988.44685" x2="1993.44685" y1="150.0" y2="150.0" /><line stroke="rgb(0,0,0)" x1="1993.44685" x2="2021.66115" y1="150.0" y2="150.0" /><line stroke="rgb(0,0,0)" x1="2021.66115" x2="2031.66115" y1="150.0" y2="150.0" /><line stroke="rgb(0,0,0)" x1="2031.66115" x2="2036.66115" y1="150.0" y2="150.0" /><line stroke="rgb(0,0,0)" x1="2036.66115" x2="2047.66115" y1="150.0" y2="150.0" /><line stroke="rgb(0,0,0)" x1="2047.66115" x2="2057.66115" y1="150.0" y2="150.0" /><line stroke="rgb(0,0,0)" x1="2057.66115" x2="2062.66115" y1="150.0" y2="150.0" /><line stroke="rgb(0,0,0)" x1="2062.66115" x2="2089.61235" y1="150.0" y2="150.0" /><line stroke="rgb(0,0,0)" x1="2089.61235" x2="2099.61235" y1="150.0" y2="150.0" /><line stroke="rgb(0,0,0)" x1="2099.61235" x2="2104.61235" y1="150.0" y2="150.0" /><line stroke="rgb(0,0,0)" x1="2104.61235" x2="2114.61235" y1="150.0" y2="150.0" /><line stroke="rgb(0,0,0)" x1="2114.61235" x2="2124.61235" y1="150.0" y2="150.0" /><line stroke="rgb(0,0,0)" x1="2124.61235" x2="2129.61235" y1="150.0" y2="150.0" /><line stroke="rgb(0,0,0)" x1="2129.61235" x2="2134.61235" y1="150.0" y2="150.0" /><line stroke="rgb(0,0,0)" x1="2134.61235" x2="2144.61235" y1="150.0" y2="150.0" /><line stroke="rgb(0,0,0)" x1="2144.61235" x2="2149.61235" y1="150.0" y2="150.0" /><line stroke="rgb(0,0,0)" x1="2149.61235" x2="2159.61235" y1="150.0" y2="150.0" /><line stroke="rgb(0,0,0)" x1="2159.61235" x2="2169.61235" y1="150.0" y2="150.0" /><line stroke="rgb(0,0,0)" x1="2169.61235" x2="2174.61235" y1="150.0" y2="150.0" /><line stroke="rgb(0,0,0)" x1="2174.61235" x2="2234.61235" y1="150.0" y2="150.0" /><line stroke="rgb(0,0,0)" x1="2234.61235" x2="2244.61235" y1="150.0" y2="150.0" /><line stroke="rgb(0,0,0)" x1="2244.61235" x2="2249.61235" y1="150.0" y2="150.0" /><line stroke="rgb(0,0,0)" x1="2249.61235" x2="2254.61235" y1="150.0" y2="150.0" /><line stroke="rgb(0,0,0)" x1="2254.61235" x2="2264.61235" y1="150.0" y2="150.0" /><line stroke="rgb(0,0,0)" x1="2264.61235" x2="2269.61235" y1="150.0" y2="150.0" /><line stroke="rgb(0,0,0)" x1="2269.61235" x2="2274.61235" y1="150.0" y2="150.0" /><line stroke="rgb(0,0,0)" x1="2274.61235" x2="2284.61235" y1="150.0" y2="150.0" /><line stroke="rgb(0,0,0)" x1="2284.61235" x2="2289.61235" y1="150.0" y2="150.0" /><line stroke="rgb(0,0,0)" x1="2289.61235" x2="2375.32685" y1="150.0" y2="150.0" /><line stroke="rgb(0,0,0)" x1="2375.32685" x2="2385.32685" y1="150.0" y2="150.0" /><line stroke="rgb(0,0,0)" x1="2385.32685" x2="2390.32685" y1="150.0" y2="150.0" /><line stroke="rgb(0,0,0)" x1="2390.32685" x2="2410.32685" y1="150.0" y2="150.0" /><line stroke="rgb(0,0,0)" x1="2410.32685" x2="2420.32685" y1="150.0" y2="150.0" /><line stroke="rgb(0,0,0)" x1="2420.32685" x2="2425.32685" y1="150.0" y2="150.0" /><line stroke="rgb(0,0,0)" x1="2425.32685" x2="2555.32685" y1="150.0" y2="150.0" /><line stroke="rgb(0,0,0)" x1="2555.32685" x2="2565.3268500000004" y1="150.0" y2="150.0" /><line stroke="rgb(0,0,0)" x1="2565.3268500000004" x2="2570.3268500000004" y1="150.0" y2="150.0" /><line stroke="rgb(0,0,0)" x1="2570.3268500000004" x2="2726.9363500000004" y1="150.0" y2="150.0" /><line stroke="rgb(0,0,0)" x1="2726.9363500000004" x2="2736.9363500000004" y1="150.0" y2="150.0" /><line stroke="rgb(0,0,0)" x1="2736.9363500000004" x2="2741.9363500000004" y1="150.0" y2="150.0" /><line stroke="rgb(0,0,0)" x1="2741.9363500000004" x2="2751.9363500000004" y1="150.0" y2="150.0" /><line stroke="rgb(0,0,0)" x1="2751.9363500000004" x2="2761.9363500000004" y1="150.0" y2="150.0" /><line stroke="rgb(0,0,0)" x1="2761.9363500000004" x2="2766.9363500000004" y1="150.0" y2="150.0" /><line stroke="rgb(0,0,0)" x1="2766.9363500000004" x2="2787.73635" y1="150.0" y2="150.0" /><line stroke="rgb(0,0,0)" x1="2787.73635" x2="2797.73635" y1="150.0" y2="75.0" /><line stroke="rgb(0,0,0)" x1="2797.73635" x2="2802.73635" y1="75.0" y2="75.0" /><line stroke="rgb(0,0,0)" x1="2766.9363500000004" x2="2787.73635" y1="150.0" y2="150.0" /><line stroke="rgb(0,0,0)" x1="2787.73635" x2="2797.73635" y1="150.0" y2="225.0" /><line stroke="rgb(0,0,0)" x1="2797.73635" x2="2802.73635" y1="225.0" y2="225.0" /><line stroke="rgb(0,0,0)" x1="2802.73635" x2="2812.73635" y1="75.0" y2="75.0" /><line stroke="rgb(0,0,0)" x1="2812.73635" x2="2838.5176" y1="75.0" y2="150.0" /><line stroke="rgb(0,0,0)" x1="2838.5176" x2="2843.5176" y1="150.0" y2="150.0" /><line stroke="rgb(0,0,0)" x1="2802.73635" x2="2828.5176" y1="225.0" y2="225.0" /><line stroke="rgb(0,0,0)" x1="2828.5176" x2="2838.5176" y1="225.0" y2="150.0" /><line stroke="rgb(0,0,0)" x1="2838.5176" x2="2843.5176" y1="150.0" y2="150.0" /><line stroke="rgb(0,0,0)" x1="2843.5176" x2="2981.1036000000004" y1="150.0" y2="150.0" /><line stroke="rgb(0,0,0)" x1="2981.1036000000004" x2="2991.1036000000004" y1="150.0" y2="150.0" /><line stroke="rgb(0,0,0)" x1="2991.1036000000004" x2="2996.1036000000004" y1="150.0" y2="150.0" /><line stroke="rgb(0,0,0)" x1="2996.1036000000004" x2="3051.9371" y1="150.0" y2="150.0" /><line stroke="rgb(0,0,0)" x1="3051.9371" x2="3061.9371" y1="150.0" y2="75.0" /><line stroke="rgb(0,0,0)" x1="3061.9371" x2="3066.9371" y1="75.0" y2="75.0" /><line stroke="rgb(0,0,0)" x1="2996.1036000000004" x2="3051.9371" y1="150.0" y2="150.0" /><line stroke="rgb(0,0,0)" x1="3051.9371" x2="3061.9371" y1="150.0" y2="225.0" /><line stroke="rgb(0,0,0)" x1="3061.9371" x2="3066.9371" y1="225.0" y2="225.0" /><line stroke="rgb(0,0,0)" x1="3066.9371" x2="3071.9371" y1="75.0" y2="75.0" /><line stroke="rgb(0,0,0)" x1="3071.9371" x2="3141.1346000000003" y1="75.0" y2="75.0" /><line stroke="rgb(0,0,0)" x1="3141.1346000000003" x2="3146.1346000000003" y1="75.0" y2="75.0" /><line stroke="rgb(0,0,0)" x1="3066.9371" x2="3131.1346000000003" y1="225.0" y2="225.0" /><line stroke="rgb(0,0,0)" x1="3131.1346000000003" x2="3141.1346000000003" y1="225.0" y2="225.0" /><line stroke="rgb(0,0,0)" x1="3141.1346000000003" x2="3146.1346000000003" y1="225.0" y2="225.0" /><line stroke="rgb(0,0,0)" x1="3146.1346000000003" x2="3171.1346000000003" y1="225.0" y2="225.0" /><line stroke="rgb(0,0,0)" x1="3171.1346000000003" x2="3181.1346000000003" y1="225.0" y2="150.0" /><line stroke="rgb(0,0,0)" x1="3181.1346000000003" x2="3186.1346000000003" y1="150.0" y2="150.0" /><line stroke="rgb(0,0,0)" x1="3186.1346000000003" x2="3214.46795" y1="150.0" y2="150.0" /><line stroke="rgb(0,0,0)" x1="3214.46795" x2="3224.46795" y1="150.0" y2="150.0" /><line stroke="rgb(0,0,0)" x1="3224.46795" x2="3229.46795" y1="150.0" y2="150.0" /><line stroke="rgb(0,0,0)" x1="3229.46795" x2="3270.09295" y1="150.0" y2="150.0" /><line stroke="rgb(0,0,0)" x1="3270.09295" x2="3280.09295" y1="150.0" y2="150.0" /><line stroke="rgb(0,0,0)" x1="3280.09295" x2="3285.09295" y1="150.0" y2="150.0" /><rect fill="rgb(92,72,255)" height="6.4" stroke="rgb(0,0,0)" width="12.1875" x="5.0" y="146.8" /><text fill="black" x="5.0" y="173.2">E0</text><rect fill="rgb(81,63,255)" height="6.4" stroke="rgb(0,0,0)" width="12.1875" x="37.1875" y="146.8" /><text fill="black" x="37.1875" y="173.2">E1</text><rect fill="rgb(255,170,217)" height="1.2" stroke="rgb(0,0,0)" width="15.0" x="69.375" y="149.4" /><text fill="black" x="69.375" y="170.6">H2</text><rect fill="rgb(255,166,212)" height="10.8" stroke="rgb(0,0,0)" width="18.5185" x="104.375" y="144.6" /><text fill="black" x="104.375" y="175.4">H3</text><rect fill="rgb(255,42,54)" height="21.6" stroke="rgb(0,0,0)" width="23.703699999999998" x="142.89350000000002" y="139.2" /><text fill="black" x="142.89350000000002" y="180.8">H4</text><rect fill="rgb(60,47,255)" height="4.0" stroke="rgb(0,0,0)" width="5.5" x="186.5972" y="148.0" /><text fill="black" x="186.5972" y="172.0">E5</text><rect fill="rgb(255,159,203)" height="92.80000000000001" stroke="rgb(0,0,0)" width="139.2455" x="212.09720000000002" y="103.6" /><text fill="black" x="212.09720000000002" y="216.4">H6</text><rect fill="rgb(149,116,255)" height="31.6" stroke="rgb(0,0,0)" width="17.1519" x="371.34270000000004" y="134.2" /><text fill="black" x="371.34270000000004" y="185.8">H7</text><rect fill="rgb(235,184,255)" height="93.2" stroke="rgb(0,0,0)" width="136.6525" x="408.4946" y="103.4" /><text fill="black" x="408.4946" y="216.6">H8</text><rect fill="rgb(150,118,255)" height="2.8000000000000003" stroke="rgb(0,0,0)" width="51.4285" x="565.1471" y="148.6" /><text fill="black" x="565.1471" y="171.4">H9</text><rect fill="rgb(0,0,255)" height="0.4" stroke="rgb(0,0,0)" width="5.0" x="636.5756" y="149.8" /><text fill="black" x="636.5756" y="170.2">E10</text><rect fill="rgb(126,98,255)" height="1.6" stroke="rgb(0,0,0)" width="15.0" x="661.5756" y="149.2" /><text fill="black" x="661.5756" y="170.8">H11</text><rect fill="rgb(234,183,255)" height="52.400000000000006" stroke="rgb(0,0,0)" width="22.9771" x="696.5756" y="123.8" /><text fill="black" x="696.5756" y="196.2">E12</text><rect fill="rgb(255,51,65)" height="7.199999999999999" stroke="rgb(0,0,0)" width="17.5" x="739.5527" y="146.4" /><text fill="black" x="739.5527" y="173.6">E13</text><rect fill="rgb(21,16,255)" height="1.6" stroke="rgb(0,0,0)" width="15.0" x="777.0527" y="149.2" /><text fill="black" x="777.0527" y="170.8">H14</text><rect fill="rgb(255,106,135)" height="6.800000000000001" stroke="rgb(0,0,0)" width="18.235300000000002" x="812.0527" y="146.6" /><text fill="black" x="812.0527" y="173.4">E15</text><rect fill="rgb(255,10,12)" height="3.2" stroke="rgb(0,0,0)" width="18.75" x="850.288" y="148.4" /><text fill="black" x="850.288" y="171.6">H16</text><rect fill="rgb(125,98,255)" height="48.0" stroke="rgb(0,0,0)" width="24.16665" x="889.038" y="126.0" /><text fill="black" x="889.038" y="194.0">E17</text><rect fill="rgb(255,157,201)" height="93.2" stroke="rgb(0,0,0)" width="134.9785" x="933.20465" y="103.4" /><text fill="black" x="933.20465" y="216.6">H18</text><rect fill="rgb(0,0,255)" height="1.2" stroke="rgb(0,0,0)" width="5.0" x="1088.18315" y="74.4" /><text fill="black" x="1088.18315" y="95.6">E19</text><rect fill="rgb(255,190,242)" height="5.6000000000000005" stroke="rgb(0,0,0)" width="17.14285" x="1088.18315" y="222.2" /><text fill="black" x="1088.18315" y="247.8">H20</text><rect fill="rgb(158,123,255)" height="19.2" stroke="rgb(0,0,0)" width="35.833349999999996" x="1125.326" y="140.4" /><text fill="black" x="1125.326" y="179.6">H21</text><rect fill="rgb(255,128,164)" height="93.2" stroke="rgb(0,0,0)" width="119.0775" x="1181.1593500000001" y="103.4" /><text fill="black" x="1181.1593500000001" y="216.6">H22</text><rect fill="rgb(255,116,148)" height="4.0" stroke="rgb(0,0,0)" width="26.5" x="1320.23685" y="73.0" /><text fill="black" x="1320.23685" y="97.0">H23</text><rect fill="rgb(255,83,106)" height="17.599999999999998" stroke="rgb(0,0,0)" width="19.54545" x="1320.23685" y="216.2" /><text fill="black" x="1320.23685" y="253.8">E24</text><rect fill="rgb(255,149,190)" height="1.6" stroke="rgb(0,0,0)" width="16.25" x="1366.73685" y="149.2" /><text fill="black" x="1366.73685" y="170.8">H25</text><rect fill="rgb(173,136,255)" height="11.200000000000001" stroke="rgb(0,0,0)" width="43.92855" x="1402.98685" y="144.4" /><text fill="black" x="1402.98685" y="175.6">H26</text><rect fill="rgb(255,143,183)" height="10.0" stroke="rgb(0,0,0)" width="15.0" x="1466.9154" y="145.0" /><text fill="black" x="1466.9154" y="175.0">H27</text><rect fill="rgb(245,192,255)" height="4.3999999999999995" stroke="rgb(0,0,0)" width="10.454550000000001" x="1501.9154" y="147.8" /><text fill="black" x="1501.9154" y="172.2">E28</text><rect fill="rgb(108,84,255)" height="4.0" stroke="rgb(0,0,0)" width="25.0" x="1532.36995" y="148.0" /><text fill="black" x="1532.36995" y="172.0">H29</text><rect fill="rgb(255,102,130)" height="17.599999999999998" stroke="rgb(0,0,0)" width="19.54545" x="1577.36995" y="141.2" /><text fill="black" x="1577.36995" y="178.8">E30</text><rect fill="rgb(255,137,175)" height="14.399999999999999" stroke="rgb(0,0,0)" width="17.7778" x="1616.9154" y="142.8" /><text fill="black" x="1616.9154" y="177.2">H31</text><rect fill="rgb(0,0,255)" height="0.0" stroke="rgb(0,0,0)" width="0.0" x="1654.6932000000002" y="75.0" /><text fill="black" x="1654.6932000000002" y="95.0">X32</text><rect fill="rgb(255,140,178)" height="1.2" stroke="rgb(0,0,0)" width="16.66665" x="1654.6932000000002" y="224.4" /><text fill="black" x="1654.6932000000002" y="245.6">H33</text><rect fill="rgb(0,0,255)" height="0.4" stroke="rgb(0,0,0)" width="20.0" x="1691.35985" y="74.8" /><text fill="black" x="1691.35985" y="95.2">H34</text><rect fill="rgb(0,0,255)" height="0.0" stroke="rgb(0,0,0)" width="0.0" x="1691.35985" y="225.0" /><text fill="black" x="1691.35985" y="245.0">X35</text><rect fill="rgb(255,92,117)" height="96.8" stroke="rgb(0,0,0)" width="162.087" x="1731.35985" y="101.6" /><text fill="black" x="1731.35985" y="218.4">H36</text><rect fill="rgb(0,0,255)" height="0.4" stroke="rgb(0,0,0)" width="15.0" x="1913.44685" y="74.8" /><text fill="black" x="1913.44685" y="95.2">E37</text><rect fill="rgb(0,0,255)" height="0.4" stroke="rgb(0,0,0)" width="20.0" x="1913.44685" y="224.8" /><text fill="black" x="1913.44685" y="245.2">H38</text><rect fill="rgb(0,0,255)" height="0.4" stroke="rgb(0,0,0)" width="20.0" x="1953.44685" y="149.8" /><text fill="black" x="1953.44685" y="170.2">H39</text><rect fill="rgb(255,180,230)" height="5.6000000000000005" stroke="rgb(0,0,0)" width="23.214299999999998" x="1993.44685" y="147.2" /><text fill="black" x="1993.44685" y="172.8">H40</text><rect fill="rgb(255,0,0)" height="2.0" stroke="rgb(0,0,0)" width="6.0" x="2036.66115" y="149.0" /><text fill="black" x="2036.66115" y="171.0">E41</text><rect fill="rgb(254,24,31)" height="16.400000000000002" stroke="rgb(0,0,0)" width="21.9512" x="2062.66115" y="141.8" /><text fill="black" x="2062.66115" y="178.2">H42</text><rect fill="rgb(0,0,255)" height="0.4" stroke="rgb(0,0,0)" width="5.0" x="2104.61235" y="149.8" /><text fill="black" x="2104.61235" y="170.2">E43</text><rect fill="rgb(0,0,255)" height="0.0" stroke="rgb(0,0,0)" width="0.0" x="2129.61235" y="150.0" /><text fill="black" x="2129.61235" y="170.0">X44</text><rect fill="rgb(255,0,0)" height="0.8" stroke="rgb(0,0,0)" width="5.0" x="2149.61235" y="149.6" /><text fill="black" x="2149.61235" y="170.4">E45</text><rect fill="rgb(255,55,70)" height="0.8" stroke="rgb(0,0,0)" width="55.0" x="2174.61235" y="149.6" /><text fill="black" x="2174.61235" y="170.4">H46</text><rect fill="rgb(0,0,255)" height="0.0" stroke="rgb(0,0,0)" width="0.0" x="2249.61235" y="150.0" /><text fill="black" x="2249.61235" y="170.0">X47</text><rect fill="rgb(0,0,255)" height="0.0" stroke="rgb(0,0,0)" width="0.0" x="2269.61235" y="150.0" /><text fill="black" x="2269.61235" y="170.0">X48</text><rect fill="rgb(255,160,204)" height="2.8000000000000003" stroke="rgb(0,0,0)" width="80.7145" x="2289.61235" y="148.6" /><text fill="black" x="2289.61235" y="171.4">H49</text><rect fill="rgb(0,0,255)" height="0.4" stroke="rgb(0,0,0)" width="15.0" x="2390.32685" y="149.8" /><text fill="black" x="2390.32685" y="170.2">E50</text><rect fill="rgb(255,104,133)" height="1.6" stroke="rgb(0,0,0)" width="125.0" x="2425.32685" y="149.2" /><text fill="black" x="2425.32685" y="170.8">H51</text><rect fill="rgb(255,130,166)" height="93.2" stroke="rgb(0,0,0)" width="151.6095" x="2570.3268500000004" y="103.4" /><text fill="black" x="2570.3268500000004" y="216.6">H52</text><rect fill="rgb(1,1,255)" height="1.2" stroke="rgb(0,0,0)" width="5.0" x="2741.9363500000004" y="149.4" /><text fill="black" x="2741.9363500000004" y="170.6">E53</text><rect fill="rgb(49,38,255)" height="50.0" stroke="rgb(0,0,0)" width="15.8" x="2766.9363500000004" y="125.0" /><text fill="black" x="2766.9363500000004" y="195.0">H54</text><rect fill="rgb(2,1,255)" height="1.2" stroke="rgb(0,0,0)" width="5.0" x="2802.73635" y="74.4" /><text fill="black" x="2802.73635" y="95.6">E55</text><rect fill="rgb(255,150,191)" height="12.8" stroke="rgb(0,0,0)" width="20.78125" x="2802.73635" y="218.6" /><text fill="black" x="2802.73635" y="251.4">H56</text><rect fill="rgb(255,178,227)" height="92.80000000000001" stroke="rgb(0,0,0)" width="132.58599999999998" x="2843.5176" y="103.6" /><text fill="black" x="2843.5176" y="216.4">H57</text><rect fill="rgb(255,122,156)" height="2.4" stroke="rgb(0,0,0)" width="50.8335" x="2996.1036000000004" y="148.8" /><text fill="black" x="2996.1036000000004" y="171.2">H58</text><rect fill="rgb(0,0,255)" height="0.0" stroke="rgb(0,0,0)" width="0.0" x="3066.9371" y="75.0" /><text fill="black" x="3066.9371" y="95.0">X59</text><rect fill="rgb(243,190,255)" height="32.4" stroke="rgb(0,0,0)" width="59.1975" x="3066.9371" y="208.8" /><text fill="black" x="3066.9371" y="261.2">H60</text><rect fill="rgb(0,0,255)" height="0.0" stroke="rgb(0,0,0)" width="0.0" x="3146.1346000000003" y="75.0" /><text fill="black" x="3146.1346000000003" y="95.0">X61</text><rect fill="rgb(12,9,255)" height="2.0" stroke="rgb(0,0,0)" width="20.0" x="3146.1346000000003" y="224.0" /><text fill="black" x="3146.1346000000003" y="246.0">H62</text><rect fill="rgb(255,104,133)" height="2.4" stroke="rgb(0,0,0)" width="23.33335" x="3186.1346000000003" y="148.8" /><text fill="black" x="3186.1346000000003" y="171.2">H63</text><rect fill="rgb(255,29,37)" height="3.2" stroke="rgb(0,0,0)" width="35.625" x="3229.46795" y="148.4" /><text fill="black" x="3229.46795" y="171.6">H64</text><rect fill="rgb(218,171,255)" height="40.400000000000006" stroke="rgb(0,0,0)" width="20.1485" x="3285.09295" y="129.8" /><text fill="black" x="3285.09295" y="190.2">H65</text><path d="M 43.28125,150.0 a 52.0607228434118,52.0607228434118 0 0,0 -32.1875,-0.0" stroke="rgb(92,72,255)" stroke-width="2" /><path d="M 43.28125,150.0 a 52.0607228434118,52.0607228434118 0 0,0 -32.1875,-0.0" stroke="rgb(0,0,0)" stroke-width="0.2" /><path d="M 821.17035,150.0 a 1871.3786352233765,1871.3786352233765 0 0,0 -631.8231499999999,-0.0" stroke="rgb(60,47,255)" stroke-width="2" /><path d="M 821.17035,150.0 a 1871.3786352233765,1871.3786352233765 0 0,0 -631.8231499999999,-0.0" stroke="rgb(0,0,0)" stroke-width="0.2" /><path d="M 639.0756,150.0 a 54.61490766911361,54.61490766911361 0 0,0 109.22709999999995,-0.0" stroke="rgb(0,0,255)" stroke-width="2" /><path d="M 639.0756,150.0 a 54.61490766911361,54.61490766911361 0 0,0 109.22709999999995,-0.0" stroke="rgb(0,0,0)" stroke-width="0.2" /><path d="M 901.121325,150.0 a 381.4001422736998,381.4001422736998 0 0,0 -193.05717499999992,-0.0" stroke="rgb(234,183,255)" stroke-width="2" /><path d="M 901.121325,150.0 a 381.4001422736998,381.4001422736998 0 0,0 -193.05717499999992,-0.0" stroke="rgb(0,0,0)" stroke-width="0.2" /><path d="M 1507.142675,150.0 a 2668.573756881166,2668.573756881166 0 0,0 -799.078525,-0.0" stroke="rgb(234,183,255)" stroke-width="2" /><path d="M 1507.142675,150.0 a 2668.573756881166,2668.573756881166 0 0,0 -799.078525,-0.0" stroke="rgb(0,0,0)" stroke-width="0.2" /><path d="M 821.17035,150.0 a 124.43482861204446,124.43482861204446 0 0,0 -72.86765000000003,-0.0" stroke="rgb(255,51,65)" stroke-width="2" /><path d="M 821.17035,150.0 a 124.43482861204446,124.43482861204446 0 0,0 -72.86765000000003,-0.0" stroke="rgb(0,0,0)" stroke-width="0.2" /><path d="M 2039.66115,150.0 a 3508.066405275832,3508.066405275832 0 0,0 -948.9779999999998,-75.0" stroke="rgb(0,0,255)" stroke-width="2" /><path d="M 2039.66115,150.0 a 3508.066405275832,3508.066405275832 0 0,0 -948.9779999999998,-75.0" stroke="rgb(0,0,0)" stroke-width="0.2" /><path d="M 1587.142675,150.0 a 573.9906451892548,573.9906451892548 0 0,0 -257.1331,75.0" stroke="rgb(255,83,106)" stroke-width="2" /><path d="M 1587.142675,150.0 a 573.9906451892548,573.9906451892548 0 0,0 -257.1331,75.0" stroke="rgb(0,0,0)" stroke-width="0.2" /><path d="M 2039.66115,150.0 a 260.91128845912107,260.91128845912107 0 0,0 -118.71429999999987,-75.0" stroke="rgb(0,0,255)" stroke-width="2" /><path d="M 2039.66115,150.0 a 260.91128845912107,260.91128845912107 0 0,0 -118.71429999999987,-75.0" stroke="rgb(0,0,0)" stroke-width="0.2" /><path d="M 2397.82685,150.0 a 1267.5914538888408,1267.5914538888408 0 0,0 -476.8799999999999,-75.0" stroke="rgb(0,0,255)" stroke-width="2" /><path d="M 2397.82685,150.0 a 1267.5914538888408,1267.5914538888408 0 0,0 -476.8799999999999,-75.0" stroke="rgb(0,0,0)" stroke-width="0.2" /><path d="M 2039.66115,150.0 a 56.23925541236362,56.23925541236362 0 0,0 112.45119999999997,-0.0" stroke="rgb(255,0,0)" stroke-width="2" /><path d="M 2039.66115,150.0 a 56.23925541236362,56.23925541236362 0 0,0 112.45119999999997,-0.0" stroke="rgb(0,0,0)" stroke-width="0.2" /><path d="M 2152.11235,150.0 a 74.06199099291746,74.06199099291746 0 0,0 -45.0,-0.0" stroke="rgb(0,0,255)" stroke-width="2" /><path d="M 2152.11235,150.0 a 74.06199099291746,74.06199099291746 0 0,0 -45.0,-0.0" stroke="rgb(0,0,0)" stroke-width="0.2" /><path d="M 2744.4363500000004,150.0 a 48.68554545454538,48.68554545454538 0 0,0 60.79999999999973,-75.0" stroke="rgb(1,1,255)" stroke-width="2" /><path d="M 2744.4363500000004,150.0 a 48.68554545454538,48.68554545454538 0 0,0 60.79999999999973,-75.0" stroke="rgb(0,0,0)" stroke-width="0.2" /></svg>