<?xml version="1.0" encoding="utf-8" ?>
<svg baseProfile="full" height="100%" style="font-size:14;font-family:Sans, Arial;stroke-width:1;fill:none" version="1.1" width="100%" xmlns="http://www.w3.org/2000/svg" xmlns:ev="http://www.w3.org/2001/xml-events" xmlns:xlink="http://www.w3.org/1999/xlink"><defs /><rect fill="none" height="280.0" stroke="none" width="3880.2414500000004" x="0" y="0" /><line stroke="rgb(0,0,0)" x1="5.0" x2="22.1875" y1="130.0" y2="130.0" /><line stroke="rgb(0,0,0)" x1="22.1875" x2="42.1875" y1="130.0" y2="130.0" /><line stroke="rgb(0,0,0)" x1="42.1875" x2="47.1875" y1="130.0" y2="130.0" /><line stroke="rgb(0,0,0)" x1="47.1875" x2="64.375" y1="130.0" y2="130.0" /><line stroke="rgb(0,0,0)" x1="64.375" x2="84.375" y1="130.0" y2="130.0" /><line stroke="rgb(0,0,0)" x1="84.375" x2="89.375" y1="130.0" y2="130.0" /><line stroke="rgb(0,0,0)" x1="89.375" x2="109.375" y1="130.0" y2="130.0" /><line stroke="rgb(0,0,0)" x1="109.375" x2="129.375" y1="130.0" y2="130.0" /><line stroke="rgb(0,0,0)" x1="129.375" x2="134.375" y1="130.0" y2="130.0" /><line stroke="rgb(0,0,0)" x1="134.375" x2="157.89350000000002" y1="130.0" y2="130.0" /><line stroke="rgb(0,0,0)" x1="157.89350000000002" x2="177.8935" y1="130.0" y2="130.0" /><line stroke="rgb(0,0,0)" x1="177.8935" x2="182.8935" y1="130.0" y2="130.0" /><line stroke="rgb(0,0,0)" x1="182.8935" x2="211.5972" y1="130.0" y2="130.0" /><line stroke="rgb(0,0,0)" x1="211.5972" x2="231.5972" y1="130.0" y2="130.0" /><line stroke="rgb(0,0,0)" x1="231.5972" x2="236.5972" y1="130.0" y2="130.0" /><line stroke="rgb(0,0,0)" x1="236.5972" x2="247.09720000000002" y1="130.0" y2="130.0" /><line stroke="rgb(0,0,0)" x1="247.09720000000002" x2="267.0972" y1="130.0" y2="130.0" /><line stroke="rgb(0,0,0)" x1="267.0972" x2="272.0972" y1="130.0" y2="130.0" /><line stroke="rgb(0,0,0)" x1="272.0972" x2="416.34270000000004" y1="130.0" y2="130.0" /><line stroke="rgb(0,0,0)" x1="416.34270000000004" x2="436.34270000000004" y1="130.0" y2="130.0" /><line stroke="rgb(0,0,0)" x1="436.34270000000004" x2="441.34270000000004" y1="130.0" y2="130.0" /><line stroke="rgb(0,0,0)" x1="441.34270000000004" x2="463.4946" y1="130.0" y2="130.0" /><line stroke="rgb(0,0,0)" x1="463.4946" x2="483.4946" y1="130.0" y2="130.0" /><line stroke="rgb(0,0,0)" x1="483.4946" x2="488.4946" y1="130.0" y2="130.0" /><line stroke="rgb(0,0,0)" x1="488.4946" x2="630.1471" y1="130.0" y2="130.0" /><line stroke="rgb(0,0,0)" x1="630.1471" x2="650.1471000000001" y1="130.0" y2="130.0" /><line stroke="rgb(0,0,0)" x1="650.1471000000001" x2="655.1471000000001" y1="130.0" y2="130.0" /><line stroke="rgb(0,0,0)" x1="655.1471000000001" x2="711.5756" y1="130.0" y2="130.0" /><line stroke="rgb(0,0,0)" x1="711.5756" x2="731.5756" y1="130.0" y2="130.0" /><line stroke="rgb(0,0,0)" x1="731.5756" x2="736.5756" y1="130.0" y2="130.0" /><line stroke="rgb(0,0,0)" x1="736.5756" x2="746.5756" y1="130.0" y2="130.0" /><line stroke="rgb(0,0,0)" x1="746.5756" x2="766.5756" y1="130.0" y2="130.0" /><line stroke="rgb(0,0,0)" x1="766.5756" x2="771.5756" y1="130.0" y2="130.0" /><line stroke="rgb(0,0,0)" x1="771.5756" x2="791.5756" y1="130.0" y2="130.0" /><line stroke="rgb(0,0,0)" x1="791.5756" x2="811.5756" y1="130.0" y2="130.0" /><line stroke="rgb(0,0,0)" x1="811.5756" x2="816.5756" y1="130.0" y2="130.0" /><line stroke="rgb(0,0,0)" x1="816.5756" x2="844.5527" y1="130.0" y2="130.0" /><line stroke="rgb(0,0,0)" x1="844.5527" x2="864.5527" y1="130.0" y2="130.0" /><line stroke="rgb(0,0,0)" x1="864.5527" x2="869.5527" y1="130.0" y2="130.0" /><line stroke="rgb(0,0,0)" x1="869.5527" x2="892.0527" y1="130.0" y2="130.0" /><line stroke="rgb(0,0,0)" x1="892.0527" x2="912.0527" y1="130.0" y2="130.0" /><line stroke="rgb(0,0,0)" x1="912.0527" x2="917.0527" y1="130.0" y2="130.0" /><line stroke="rgb(0,0,0)" x1="917.0527" x2="937.0527" y1="130.0" y2="130.0" /><line stroke="rgb(0,0,0)" x1="937.0527" x2="957.0527" y1="130.0" y2="130.0" /><line stroke="rgb(0,0,0)" x1="957.0527" x2="962.0527" y1="130.0" y2="130.0" /><line stroke="rgb(0,0,0)" x1="962.0527" x2="985.288" y1="130.0" y2="130.0" /><line stroke="rgb(0,0,0)" x1="985.288" x2="1005.288" y1="130.0" y2="130.0" /><line stroke="rgb(0,0,0)" x1="1005.288" x2="1010.288" y1="130.0" y2="130.0" /><line stroke="rgb(0,0,0)" x1="1010.288" x2="1034.038" y1="130.0" y2="130.0" /><line stroke="rgb(0,0,0)" x1="1034.038" x2="1054.038" y1="130.0" y2="130.0" /><line stroke="rgb(0,0,0)" x1="1054.038" x2="1059.038" y1="130.0" y2="130.0" /><line stroke="rgb(0,0,0)" x1="1059.038" x2="1088.20465" y1="130.0" y2="130.0" /><line stroke="rgb(0,0,0)" x1="1088.20465" x2="1108.20465" y1="130.0" y2="130.0" /><line stroke="rgb(0,0,0)" x1="1108.20465" x2="1113.20465" y1="130.0" y2="130.0" /><line stroke="rgb(0,0,0)" x1="1113.20465" x2="1253.18315" y1="130.0" y2="130.0" /><line stroke="rgb(0,0,0)" x1="1253.18315" x2="1273.18315" y1="130.0" y2="55.0" /><line stroke="rgb(0,0,0)" x1="1273.18315" x2="1278.18315" y1="55.0" y2="55.0" /><line stroke="rgb(0,0,0)" x1="1113.20465" x2="1253.18315" y1="130.0" y2="130.0" /><line stroke="rgb(0,0,0)" x1="1253.18315" x2="1273.18315" y1="130.0" y2="205.0" /><line stroke="rgb(0,0,0)" x1="1273.18315" x2="1278.18315" y1="205.0" y2="205.0" /><line stroke="rgb(0,0,0)" x1="1278.18315" x2="1300.326" y1="205.0" y2="205.0" /><line stroke="rgb(0,0,0)" x1="1300.326" x2="1320.326" y1="205.0" y2="130.0" /><line stroke="rgb(0,0,0)" x1="1320.326" x2="1325.326" y1="130.0" y2="130.0" /><line stroke="rgb(0,0,0)" x1="1325.326" x2="1366.1593500000001" y1="130.0" y2="130.0" /><line stroke="rgb(0,0,0)" x1="1366.1593500000001" x2="1386.1593500000001" y1="130.0" y2="130.0" /><line stroke="rgb(0,0,0)" x1="1386.1593500000001" x2="1391.1593500000001" y1="130.0" y2="130.0" /><line stroke="rgb(0,0,0)" x1="1278.18315" x2="1288.18315" y1="55.0" y2="55.0" /><line stroke="rgb(0,0,0)" x1="1288.18315" x2="1386.1593500000001" y1="55.0" y2="130.0" /><line stroke="rgb(0,0,0)" x1="1386.1593500000001" x2="1391.1593500000001" y1="130.0" y2="130.0" /><line stroke="rgb(0,0,0)" x1="1391.1593500000001" x2="1515.23685" y1="130.0" y2="130.0" /><line stroke="rgb(0,0,0)" x1="1515.23685" x2="1535.23685" y1="130.0" y2="55.0" /><line stroke="rgb(0,0,0)" x1="1535.23685" x2="1540.23685" y1="55.0" y2="55.0" /><line stroke="rgb(0,0,0)" x1="1391.1593500000001" x2="1515.23685" y1="130.0" y2="130.0" /><line stroke="rgb(0,0,0)" x1="1515.23685" x2="1535.23685" y1="130.0" y2="205.0" /><line stroke="rgb(0,0,0)" x1="1535.23685" x2="1540.23685" y1="205.0" y2="205.0" /><line stroke="rgb(0,0,0)" x1="1540.23685" x2="1571.73685" y1="55.0" y2="55.0" /><line stroke="rgb(0,0,0)" x1="1571.73685" x2="1591.73685" y1="55.0" y2="130.0" /><line stroke="rgb(0,0,0)" x1="1591.73685" x2="1596.73685" y1="130.0" y2="130.0" /><line stroke="rgb(0,0,0)" x1="1596.73685" x2="1617.98685" y1="130.0" y2="130.0" /><line stroke="rgb(0,0,0)" x1="1617.98685" x2="1637.98685" y1="130.0" y2="130.0" /><line stroke="rgb(0,0,0)" x1="1637.98685" x2="1642.98685" y1="130.0" y2="130.0" /><line stroke="rgb(0,0,0)" x1="1540.23685" x2="1564.7822999999999" y1="205.0" y2="205.0" /><line stroke="rgb(0,0,0)" x1="1564.7822999999999" x2="1637.98685" y1="205.0" y2="130.0" /><line stroke="rgb(0,0,0)" x1="1637.98685" x2="1642.98685" y1="130.0" y2="130.0" /><line stroke="rgb(0,0,0)" x1="1642.98685" x2="1691.9154" y1="130.0" y2="130.0" /><line stroke="rgb(0,0,0)" x1="1691.9154" x2="1711.9154" y1="130.0" y2="130.0" /><line stroke="rgb(0,0,0)" x1="1711.9154" x2="1716.9154" y1="130.0" y2="130.0" /><line stroke="rgb(0,0,0)" x1="1716.9154" x2="1736.9154" y1="130.0" y2="130.0" /><line stroke="rgb(0,0,0)" x1="1736.9154" x2="1756.9154" y1="130.0" y2="130.0" /><line stroke="rgb(0,0,0)" x1="1756.9154" x2="1761.9154" y1="130.0" y2="130.0" /><line stroke="rgb(0,0,0)" x1="1761.9154" x2="1777.36995" y1="130.0" y2="130.0" /><line stroke="rgb(0,0,0)" x1="1777.36995" x2="1797.36995" y1="130.0" y2="130.0" /><line stroke="rgb(0,0,0)" x1="1797.36995" x2="1802.36995" y1="130.0" y2="130.0" /><line stroke="rgb(0,0,0)" x1="1802.36995" x2="1832.36995" y1="130.0" y2="130.0" /><line stroke="rgb(0,0,0)" x1="1832.36995" x2="1852.36995" y1="130.0" y2="130.0" /><line stroke="rgb(0,0,0)" x1="1852.36995" x2="1857.36995" y1="130.0" y2="130.0" /><line stroke="rgb(0,0,0)" x1="1857.36995" x2="1881.9154" y1="130.0" y2="130.0" /><line stroke="rgb(0,0,0)" x1="1881.9154" x2="1901.9154" y1="130.0" y2="130.0" /><line stroke="rgb(0,0,0)" x1="1901.9154" x2="1906.9154" y1="130.0" y2="130.0" /><line stroke="rgb(0,0,0)" x1="1906.9154" x2="1929.6932000000002" y1="130.0" y2="130.0" /><line stroke="rgb(0,0,0)" x1="1929.6932000000002" x2="1949.6932000000002" y1="130.0" y2="55.0" /><line stroke="rgb(0,0,0)" x1="1949.6932000000002" x2="1954.6932000000002" y1="55.0" y2="55.0" /><line stroke="rgb(0,0,0)" x1="1906.9154" x2="1929.6932000000002" y1="130.0" y2="130.0" /><line stroke="rgb(0,0,0)" x1="1929.6932000000002" x2="1949.6932000000002" y1="130.0" y2="205.0" /><line stroke="rgb(0,0,0)" x1="1949.6932000000002" x2="1954.6932000000002" y1="205.0" y2="205.0" /><line stroke="rgb(0,0,0)" x1="1954.6932000000002" x2="1976.35985" y1="205.0" y2="205.0" /><line stroke="rgb(0,0,0)" x1="1976.35985" x2="1996.35985" y1="205.0" y2="55.0" /><line stroke="rgb(0,0,0)" x1="1996.35985" x2="2001.35985" y1="55.0" y2="55.0" /><line stroke="rgb(0,0,0)" x1="1954.6932000000002" x2="1959.6932000000002" y1="55.0" y2="55.0" /><line stroke="rgb(0,0,0)" x1="1959.6932000000002" x2="1996.35985" y1="55.0" y2="205.0" /><line stroke="rgb(0,0,0)" x1="1996.35985" x2="2001.35985" y1="205.0" y2="205.0" /><line stroke="rgb(0,0,0)" x1="2001.35985" x2="2026.35985" y1="55.0" y2="55.0" /><line stroke="rgb(0,0,0)" x1="2026.35985" x2="2046.3598499999998" y1="55.0" y2="130.0" /><line stroke="rgb(0,0,0)" x1="2046.3598499999998" x2="2051.35985" y1="130.0" y2="130.0" /><line stroke="rgb(0,0,0)" x1="2001.35985" x2="2006.35985" y1="205.0" y2="205.0" /><line stroke="rgb(0,0,0)" x1="2006.35985" x2="2046.3598499999998" y1="205.0" y2="130.0" /><line stroke="rgb(0,0,0)" x1="2046.3598499999998" x2="2051.35985" y1="130.0" y2="130.0" /><line stroke="rgb(0,0,0)" x1="2051.35985" x2="2218.44685" y1="130.0" y2="130.0" /><line stroke="rgb(0,0,0)" x1="2218.44685" x2="2238.44685" y1="130.0" y2="55.0" /><line stroke="rgb(0,0,0)" x1="2238.44685" x2="2243.44685" y1="55.0" y2="55.0" /><line stroke="rgb(0,0,0)" x1="2051.35985" x2="2218.44685" y1="130.0" y2="130.0" /><line stroke="rgb(0,0,0)" x1="2218.44685" x2="2238.44685" y1="130.0" y2="205.0" /><line stroke="rgb(0,0,0)" x1="2238.44685" x2="2243.44685" y1="205.0" y2="205.0" /><line stroke="rgb(0,0,0)" x1="2243.44685" x2="2268.44685" y1="205.0" y2="205.0" /><line stroke="rgb(0,0,0)" x1="2268.44685" x2="2288.44685" y1="205.0" y2="130.0" /><line stroke="rgb(0,0,0)" x1="2288.44685" x2="2293.44685" y1="130.0" y2="130.0" /><line stroke="rgb(0,0,0)" x1="2293.44685" x2="2318.44685" y1="130.0" y2="130.0" /><line stroke="rgb(0,0,0)" x1="2318.44685" x2="2338.44685" y1="130.0" y2="130.0" /><line stroke="rgb(0,0,0)" x1="2338.44685" x2="2343.44685" y1="130.0" y2="130.0" /><line stroke="rgb(0,0,0)" x1="2243.44685" x2="2263.44685" y1="55.0" y2="55.0" /><line stroke="rgb(0,0,0)" x1="2263.44685" x2="2338.44685" y1="55.0" y2="130.0" /><line stroke="rgb(0,0,0)" x1="2338.44685" x2="2343.44685" y1="130.0" y2="130.0" /><line stroke="rgb(0,0,0)" x1="2343.44685" x2="2371.66115" y1="130.0" y2="130.0" /><line stroke="rgb(0,0,0)" x1="2371.66115" x2="2391.66115" y1="130.0" y2="130.0" /><line stroke="rgb(0,0,0)" x1="2391.66115" x2="2396.66115" y1="130.0" y2="130.0" /><line stroke="rgb(0,0,0)" x1="2396.66115" x2="2407.66115" y1="130.0" y2="130.0" /><line stroke="rgb(0,0,0)" x1="2407.66115" x2="2427.66115" y1="130.0" y2="130.0" /><line stroke="rgb(0,0,0)" x1="2427.66115" x2="2432.66115" y1="130.0" y2="130.0" /><line stroke="rgb(0,0,0)" x1="2432.66115" x2="2459.61235" y1="130.0" y2="130.0" /><line stroke="rgb(0,0,0)" x1="2459.61235" x2="2479.61235" y1="130.0" y2="130.0" /><line stroke="rgb(0,0,0)" x1="2479.61235" x2="2484.61235" y1="130.0" y2="130.0" /><line stroke="rgb(0,0,0)" x1="2484.61235" x2="2494.61235" y1="130.0" y2="130.0" /><line stroke="rgb(0,0,0)" x1="2494.61235" x2="2514.61235" y1="130.0" y2="130.0" /><line stroke="rgb(0,0,0)" x1="2514.61235" x2="2519.61235" y1="130.0" y2="130.0" /><line stroke="rgb(0,0,0)" x1="2519.61235" x2="2524.61235" y1="130.0" y2="130.0" /><line stroke="rgb(0,0,0)" x1="2524.61235" x2="2544.61235" y1="130.0" y2="130.0" /><line stroke="rgb(0,0,0)" x1="2544.61235" x2="2549.61235" y1="130.0" y2="130.0" /><line stroke="rgb(0,0,0)" x1="2549.61235" x2="2559.61235" y1="130.0" y2="130.0" /><line stroke="rgb(0,0,0)" x1="2559.61235" x2="2579.61235" y1="130.0" y2="130.0" /><line stroke="rgb(0,0,0)" x1="2579.61235" x2="2584.61235" y1="130.0" y2="130.0" /><line stroke="rgb(0,0,0)" x1="2584.61235" x2="2644.61235" y1="130.0" y2="130.0" /><line stroke="rgb(0,0,0)" x1="2644.61235" x2="2664.61235" y1="130.0" y2="130.0" /><line stroke="rgb(0,0,0)" x1="2664.61235" x2="2669.61235" y1="130.0" y2="130.0" /><line stroke="rgb(0,0,0)" x1="2669.61235" x2="2674.61235" y1="130.0" y2="130.0" /><line stroke="rgb(0,0,0)" x1="2674.61235" x2="2694.61235" y1="130.0" y2="130.0" /><line stroke="rgb(0,0,0)" x1="2694.61235" x2="2699.61235" y1="130.0" y2="130.0" /><line stroke="rgb(0,0,0)" x1="2699.61235" x2="2704.61235" y1="130.0" y2="130.0" /><line stroke="rgb(0,0,0)" x1="2704.61235" x2="2724.61235" y1="130.0" y2="130.0" /><line stroke="rgb(0,0,0)" x1="2724.61235" x2="2729.61235" y1="130.0" y2="130.0" /><line stroke="rgb(0,0,0)" x1="2729.61235" x2="2815.3268500000004" y1="130.0" y2="130.0" /><line stroke="rgb(0,0,0)" x1="2815.3268500000004" x2="2835.3268500000004" y1="130.0" y2="130.0" /><line stroke="rgb(0,0,0)" x1="2835.3268500000004" x2="2840.3268500000004" y1="130.0" y2="130.0" /><line stroke="rgb(0,0,0)" x1="2840.3268500000004" x2="2860.3268500000004" y1="130.0" y2="130.0" /><line stroke="rgb(0,0,0)" x1="2860.3268500000004" x2="2880.3268500000004" y1="130.0" y2="130.0" /><line stroke="rgb(0,0,0)" x1="2880.3268500000004" x2="2885.3268500000004" y1="130.0" y2="130.0" /><line stroke="rgb(0,0,0)" x1="2885.3268500000004" x2="3015.3268500000004" y1="130.0" y2="130.0" /><line stroke="rgb(0,0,0)" x1="3015.3268500000004" x2="3035.3268500000004" y1="130.0" y2="130.0" /><line stroke="rgb(0,0,0)" x1="3035.3268500000004" x2="3040.3268500000004" y1="130.0" y2="130.0" /><line stroke="rgb(0,0,0)" x1="3040.3268500000004" x2="3196.9363500000004" y1="130.0" y2="130.0" /><line stroke="rgb(0,0,0)" x1="3196.9363500000004" x2="3216.9363500000004" y1="130.0" y2="130.0" /><line stroke="rgb(0,0,0)" x1="3216.9363500000004" x2="3221.9363500000004" y1="130.0" y2="130.0" /><line stroke="rgb(0,0,0)" x1="3221.9363500000004" x2="3231.9363500000004" y1="130.0" y2="130.0" /><line stroke="rgb(0,0,0)" x1="3231.9363500000004" x2="3251.9363500000004" y1="130.0" y2="130.0" /><line stroke="rgb(0,0,0)" x1="3251.9363500000004" x2="3256.9363500000004" y1="130.0" y2="130.0" /><line stroke="rgb(0,0,0)" x1="3256.9363500000004" x2="3277.73635" y1="130.0" y2="130.0" /><line stroke="rgb(0,0,0)" x1="3277.73635" x2="3297.73635" y1="130.0" y2="55.0" /><line stroke="rgb(0,0,0)" x1="3297.73635" x2="3302.73635" y1="55.0" y2="55.0" /><line stroke="rgb(0,0,0)" x1="3256.9363500000004" x2="3277.73635" y1="130.0" y2="130.0" /><line stroke="rgb(0,0,0)" x1="3277.73635" x2="3297.73635" y1="130.0" y2="205.0" /><line stroke="rgb(0,0,0)" x1="3297.73635" x2="3302.73635" y1="205.0" y2="205.0" /><line stroke="rgb(0,0,0)" x1="3302.73635" x2="3312.73635" y1="55.0" y2="55.0" /><line stroke="rgb(0,0,0)" x1="3312.73635" x2="3348.5176" y1="55.0" y2="130.0" /><line stroke="rgb(0,0,0)" x1="3348.5176" x2="3353.5176" y1="130.0" y2="130.0" /><line stroke="rgb(0,0,0)" x1="3302.73635" x2="3328.5176" y1="205.0" y2="205.0" /><line stroke="rgb(0,0,0)" x1="3328.5176" x2="3348.5176" y1="205.0" y2="130.0" /><line stroke="rgb(0,0,0)" x1="3348.5176" x2="3353.5176" y1="130.0" y2="130.0" /><line stroke="rgb(0,0,0)" x1="3353.5176" x2="3491.1036000000004" y1="130.0" y2="130.0" /><line stroke="rgb(0,0,0)" x1="3491.1036000000004" x2="3511.1036000000004" y1="130.0" y2="130.0" /><line stroke="rgb(0,0,0)" x1="3511.1036000000004" x2="3516.1036000000004" y1="130.0" y2="130.0" /><line stroke="rgb(0,0,0)" x1="3516.1036000000004" x2="3571.9371" y1="130.0" y2="130.0" /><line stroke="rgb(0,0,0)" x1="3571.9371" x2="3591.9371" y1="130.0" y2="55.0" /><line stroke="rgb(0,0,0)" x1="3591.9371" x2="3596.9371" y1="55.0" y2="55.0" /><line stroke="rgb(0,0,0)" x1="3516.1036000000004" x2="3571.9371" y1="130.0" y2="130.0" /><line stroke="rgb(0,0,0)" x1="3571.9371" x2="3591.9371" y1="130.0" y2="205.0" /><line stroke="rgb(0,0,0)" x1="3591.9371" x2="3596.9371" y1="205.0" y2="205.0" /><line stroke="rgb(0,0,0)" x1="3596.9371" x2="3601.9371" y1="55.0" y2="55.0" /><line stroke="rgb(0,0,0)" x1="3601.9371" x2="3681.1346000000003" y1="55.0" y2="55.0" /><line stroke="rgb(0,0,0)" x1="3681.1346000000003" x2="3686.1346000000003" y1="55.0" y2="55.0" /><line stroke="rgb(0,0,0)" x1="3596.9371" x2="3661.1346000000003" y1="205.0" y2="205.0" /><line stroke="rgb(0,0,0)" x1="3661.1346000000003" x2="3681.1346000000003" y1="205.0" y2="205.0" /><line stroke="rgb(0,0,0)" x1="3681.1346000000003" x2="3686.1346000000003" y1="205.0" y2="205.0" /><line stroke="rgb(0,0,0)" x1="3686.1346000000003" x2="3711.1346000000003" y1="205.0" y2="205.0" /><line stroke="rgb(0,0,0)" x1="3711.1346000000003" x2="3731.1346000000003" y1="205.0" y2="130.0" /><line stroke="rgb(0,0,0)" x1="3731.1346000000003" x2="3736.1346000000003" y1="130.0" y2="130.0" /><line stroke="rgb(0,0,0)" x1="3736.1346000000003" x2="3764.46795" y1="130.0" y2="130.0" /><line stroke="rgb(0,0,0)" x1="3764.46795" x2="3784.46795" y1="130.0" y2="130.0" /><line stroke="rgb(0,0,0)" x1="3784.46795" x2="3789.46795" y1="130.0" y2="130.0" /><line stroke="rgb(0,0,0)" x1="3789.46795" x2="3830.09295" y1="130.0" y2="130.0" /><line stroke="rgb(0,0,0)" x1="3830.09295" x2="3850.09295" y1="130.0" y2="130.0" /><line stroke="rgb(0,0,0)" x1="3850.09295" x2="3855.09295" y1="130.0" y2="130.0" /><rect fill="rgb(255,150,255)" height="6.4" stroke="rgb(0,0,0)" width="12.1875" x="5.0" y="126.8" /><text fill="black" x="5.0" y="153.2">E0</text><rect fill="rgb(255,150,255)" height="6.4" stroke="rgb(0,0,0)" width="12.1875" x="47.1875" y="126.8" /><text fill="black" x="47.1875" y="153.2">E1</text><rect fill="rgb(150,150,150)" height="1.2" stroke="rgb(0,0,0)" width="15.0" x="89.375" y="129.4" /><text fill="black" x="89.375" y="150.6">H2</text><rect fill="rgb(150,150,150)" height="10.8" stroke="rgb(0,0,0)" width="18.5185" x="134.375" y="124.6" /><text fill="black" x="134.375" y="155.4">H3</text><rect fill="rgb(150,150,150)" height="21.6" stroke="rgb(0,0,0)" width="23.703699999999998" x="182.8935" y="119.2" /><text fill="black" x="182.8935" y="160.8">H4</text><rect fill="rgb(150,255,150)" height="4.0" stroke="rgb(0,0,0)" width="5.5" x="236.5972" y="128.0" /><text fill="black" x="236.5972" y="152.0">E5</text><rect fill="rgb(150,150,150)" height="92.80000000000001" stroke="rgb(0,0,0)" width="139.2455" x="272.0972" y="83.6" /><text fill="black" x="272.0972" y="196.4">H6</text><rect fill="rgb(150,150,150)" height="31.6" stroke="rgb(0,0,0)" width="17.1519" x="441.34270000000004" y="114.2" /><text fill="black" x="441.34270000000004" y="165.8">H7</text><rect fill="rgb(150,150,150)" height="93.2" stroke="rgb(0,0,0)" width="136.6525" x="488.4946" y="83.4" /><text fill="black" x="488.4946" y="196.6">H8</text><rect fill="rgb(150,150,150)" height="2.8000000000000003" stroke="rgb(0,0,0)" width="51.4285" x="655.1471000000001" y="128.6" /><text fill="black" x="655.1471000000001" y="151.4">H9</text><rect fill="rgb(150,255,150)" height="0.4" stroke="rgb(0,0,0)" width="5.0" x="736.5756" y="129.8" /><text fill="black" x="736.5756" y="150.2">E10</text><rect fill="rgb(150,150,150)" height="1.6" stroke="rgb(0,0,0)" width="15.0" x="771.5756" y="129.2" /><text fill="black" x="771.5756" y="150.8">H11</text><rect fill="rgb(255,150,150)" height="52.400000000000006" stroke="rgb(0,0,0)" width="22.9771" x="816.5756" y="103.8" /><text fill="black" x="816.5756" y="176.2">E12</text><rect fill="rgb(150,255,150)" height="7.199999999999999" stroke="rgb(0,0,0)" width="17.5" x="869.5527" y="126.4" /><text fill="black" x="869.5527" y="153.6">E13</text><rect fill="rgb(150,150,150)" height="1.6" stroke="rgb(0,0,0)" width="15.0" x="917.0527" y="129.2" /><text fill="black" x="917.0527" y="150.8">H14</text><rect fill="rgb(150,255,150)" height="6.800000000000001" stroke="rgb(0,0,0)" width="18.235300000000002" x="962.0527" y="126.6" /><text fill="black" x="962.0527" y="153.4">E15</text><rect fill="rgb(150,150,150)" height="3.2" stroke="rgb(0,0,0)" width="18.75" x="1010.288" y="128.4" /><text fill="black" x="1010.288" y="151.6">H16</text><rect fill="rgb(255,150,150)" height="48.0" stroke="rgb(0,0,0)" width="24.16665" x="1059.038" y="106.0" /><text fill="black" x="1059.038" y="174.0">E17</text><rect fill="rgb(150,150,150)" height="93.2" stroke="rgb(0,0,0)" width="134.9785" x="1113.20465" y="83.4" /><text fill="black" x="1113.20465" y="196.6">H18</text><rect fill="rgb(150,255,255)" height="1.2" stroke="rgb(0,0,0)" width="5.0" x="1278.18315" y="54.4" /><text fill="black" x="1278.18315" y="75.6">E19</text><rect fill="rgb(150,150,150)" height="5.6000000000000005" stroke="rgb(0,0,0)" width="17.14285" x="1278.18315" y="202.2" /><text fill="black" x="1278.18315" y="227.8">H20</text><rect fill="rgb(150,150,150)" height="19.2" stroke="rgb(0,0,0)" width="35.833349999999996" x="1325.326" y="120.4" /><text fill="black" x="1325.326" y="159.6">H21</text><rect fill="rgb(150,150,150)" height="93.2" stroke="rgb(0,0,0)" width="119.0775" x="1391.1593500000001" y="83.4" /><text fill="black" x="1391.1593500000001" y="196.6">H22</text><rect fill="rgb(150,150,150)" height="4.0" stroke="rgb(0,0,0)" width="26.5" x="1540.23685" y="53.0" /><text fill="black" x="1540.23685" y="77.0">H23</text><rect fill="rgb(150,150,255)" height="17.599999999999998" stroke="rgb(0,0,0)" width="19.54545" x="1540.23685" y="196.2" /><text fill="black" x="1540.23685" y="233.8">E24</text><rect fill="rgb(150,150,150)" height="1.6" stroke="rgb(0,0,0)" width="16.25" x="1596.73685" y="129.2" /><text fill="black" x="1596.73685" y="150.8">H25</text><rect fill="rgb(150,150,150)" height="11.200000000000001" stroke="rgb(0,0,0)" width="43.92855" x="1642.98685" y="124.4" /><text fill="black" x="1642.98685" y="155.6">H26</text><rect fill="rgb(150,150,150)" height="10.0" stroke="rgb(0,0,0)" width="15.0" x="1716.9154" y="125.0" /><text fill="black" x="1716.9154" y="155.0">H27</text><rect fill="rgb(255,150,150)" height="4.3999999999999995" stroke="rgb(0,0,0)" width="10.454550000000001" x="1761.9154" y="127.8" /><text fill="black" x="1761.9154" y="152.2">E28</text><rect fill="rgb(150,150,150)" height="4.0" stroke="rgb(0,0,0)" width="25.0" x="1802.36995" y="128.0" /><text fill="black" x="1802.36995" y="152.0">H29</text><rect fill="rgb(150,150,255)" height="17.599999999999998" stroke="rgb(0,0,0)" width="19.54545" x="1857.36995" y="121.2" /><text fill="black" x="1857.36995" y="158.8">E30</text><rect fill="rgb(150,150,150)" height="14.399999999999999" stroke="rgb(0,0,0)" width="17.7778" x="1906.9154" y="122.8" /><text fill="black" x="1906.9154" y="157.2">H31</text><rect fill="rgb(150,150,150)" height="0.0" stroke="rgb(0,0,0)" width="0.0" x="1954.6932000000002" y="55.0" /><text fill="black" x="1954.6932000000002" y="75.0">X32</text><rect fill="rgb(150,150,150)" height="1.2" stroke="rgb(0,0,0)" width="16.66665" x="1954.6932000000002" y="204.4" /><text fill="black" x="1954.6932000000002" y="225.6">H33</text><rect fill="rgb(150,150,150)" height="0.4" stroke="rgb(0,0,0)" width="20.0" x="2001.35985" y="54.8" /><text fill="black" x="2001.35985" y="75.2">H34</text><rect fill="rgb(150,150,150)" height="0.0" stroke="rgb(0,0,0)" width="0.0" x="2001.35985" y="205.0" /><text fill="black" x="2001.35985" y="225.0">X35</text><rect fill="rgb(150,150,150)" height="96.8" stroke="rgb(0,0,0)" width="162.087" x="2051.35985" y="81.6" /><text fill="black" x="2051.35985" y="198.4">H36</text><rect fill="rgb(150,255,255)" height="0.4" stroke="rgb(0,0,0)" width="15.0" x="2243.44685" y="54.8" /><text fill="black" x="2243.44685" y="75.2">E37</text><rect fill="rgb(150,150,150)" height="0.4" stroke="rgb(0,0,0)" width="20.0" x="2243.44685" y="204.8" /><text fill="black" x="2243.44685" y="225.2">H38</text><rect fill="rgb(150,150,150)" height="0.4" stroke="rgb(0,0,0)" width="20.0" x="2293.44685" y="129.8" /><text fill="black" x="2293.44685" y="150.2">H39</text><rect fill="rgb(150,150,150)" height="5.6000000000000005" stroke="rgb(0,0,0)" width="23.214299999999998" x="2343.44685" y="127.2" /><text fill="black" x="2343.44685" y="152.8">H40</text><rect fill="rgb(150,255,255)" height="2.0" stroke="rgb(0,0,0)" width="6.0" x="2396.66115" y="129.0" /><text fill="black" x="2396.66115" y="151.0">E41</text><rect fill="rgb(150,150,150)" height="16.400000000000002" stroke="rgb(0,0,0)" width="21.9512" x="2432.66115" y="121.8" /><text fill="black" x="2432.66115" y="158.2">H42</text><rect fill="rgb(150,255,255)" height="0.4" stroke="rgb(0,0,0)" width="5.0" x="2484.61235" y="129.8" /><text fill="black" x="2484.61235" y="150.2">E43</text><rect fill="rgb(150,150,150)" height="0.0" stroke="rgb(0,0,0)" width="0.0" x="2519.61235" y="130.0" /><text fill="black" x="2519.61235" y="150.0">X44</text><rect fill="rgb(150,255,255)" height="0.8" stroke="rgb(0,0,0)" width="5.0" x="2549.61235" y="129.6" /><text fill="black" x="2549.61235" y="150.4">E45</text><rect fill="rgb(150,150,150)" height="0.8" stroke="rgb(0,0,0)" width="55.0" x="2584.61235" y="129.6" /><text fill="black" x="2584.61235" y="150.4">H46</text><rect fill="rgb(150,150,150)" height="0.0" stroke="rgb(0,0,0)" width="0.0" x="2669.61235" y="130.0" /><text fill="black" x="2669.61235" y="150.0">X47</text><rect fill="rgb(150,150,150)" height="0.0" stroke="rgb(0,0,0)" width="0.0" x="2699.61235" y="130.0" /><text fill="black" x="2699.61235" y="150.0">X48</text><rect fill="rgb(150,150,150)" height="2.8000000000000003" stroke="rgb(0,0,0)" width="80.7145" x="2729.61235" y="128.6" /><text fill="black" x="2729.61235" y="151.4">H49</text><rect fill="rgb(150,255,255)" height="0.4" stroke="rgb(0,0,0)" width="15.0" x="2840.3268500000004" y="129.8" /><text fill="black" x="2840.3268500000004" y="150.2">E50</text><rect fill="rgb(150,150,150)" height="1.6" stroke="rgb(0,0,0)" width="125.0" x="2885.3268500000004" y="129.2" /><text fill="black" x="2885.3268500000004" y="150.8">H51</text><rect fill="rgb(150,150,150)" height="93.2" stroke="rgb(0,0,0)" width="151.6095" x="3040.3268500000004" y="83.4" /><text fill="black" x="3040.3268500000004" y="196.6">H52</text><rect fill="rgb(255,255,150)" height="1.2" stroke="rgb(0,0,0)" width="5.0" x="3221.9363500000004" y="129.4" /><text fill="black" x="3221.9363500000004" y="150.6">E53</text><rect fill="rgb(150,150,150)" height="50.0" stroke="rgb(0,0,0)" width="15.8" x="3256.9363500000004" y="105.0" /><text fill="black" x="3256.9363500000004" y="175.0">H54</text><rect fill="rgb(255,255,150)" height="1.2" stroke="rgb(0,0,0)" width="5.0" x="3302.73635" y="54.4" /><text fill="black" x="3302.73635" y="75.6">E55</text><rect fill="rgb(150,150,150)" height="12.8" stroke="rgb(0,0,0)" width="20.78125" x="3302.73635" y="198.6" /><text fill="black" x="3302.73635" y="231.4">H56</text><rect fill="rgb(150,150,150)" height="92.80000000000001" stroke="rgb(0,0,0)" width="132.58599999999998" x="3353.5176" y="83.6" /><text fill="black" x="3353.5176" y="196.4">H57</text><rect fill="rgb(150,150,150)" height="2.4" stroke="rgb(0,0,0)" width="50.8335" x="3516.1036000000004" y="128.8" /><text fill="black" x="3516.1036000000004" y="151.2">H58</text><rect fill="rgb(150,150,150)" height="0.0" stroke="rgb(0,0,0)" width="0.0" x="3596.9371" y="55.0" /><text fill="black" x="3596.9371" y="75.0">X59</text><rect fill="rgb(150,150,150)" height="32.4" stroke="rgb(0,0,0)" width="59.1975" x="3596.9371" y="188.8" /><text fill="black" x="3596.9371" y="241.2">H60</text><rect fill="rgb(150,150,150)" height="0.0" stroke="rgb(0,0,0)" width="0.0" x="3686.1346000000003" y="55.0" /><text fill="black" x="3686.1346000000003" y="75.0">X61</text><rect fill="rgb(150,150,150)" height="2.0" stroke="rgb(0,0,0)" width="20.0" x="3686.1346000000003" y="204.0" /><text fill="black" x="3686.1346000000003" y="226.0">H62</text><rect fill="rgb(150,150,150)" height="2.4" stroke="rgb(0,0,0)" width="23.33335" x="3736.1346000000003" y="128.8" /><text fill="black" x="3736.1346000000003" y="151.2">H63</text><rect fill="rgb(150,150,150)" height="3.2" stroke="rgb(0,0,0)" width="35.625" x="3789.46795" y="128.4" /><text fill="black" x="3789.46795" y="151.6">H64</text><rect fill="rgb(150,150,150)" height="40.400000000000006" stroke="rgb(0,0,0)" width="20.1485" x="3855.09295" y="109.8" /><text fill="black" x="3855.09295" y="170.2">H65</text></svg>