<?xml version="1.0" encoding="utf-8" ?>
<svg baseProfile="full" height="100%" style="font-size:14;font-family:Sans, Arial;stroke-width:1;fill:none" version="1.1" width="100%" xmlns="http://www.w3.org/2000/svg" xmlns:ev="http://www.w3.org/2001/xml-events" xmlns:xlink="http://www.w3.org/1999/xlink"><defs /><rect fill="none" height="130.0" stroke="none" width="1559.3818499999998" x="0" y="0" /><line stroke="rgb(0,0,0)" x1="5.0" x2="33.7037" y1="55.0" y2="55.0" /><line stroke="rgb(0,0,0)" x1="33.7037" x2="53.7037" y1="55.0" y2="55.0" /><line stroke="rgb(0,0,0)" x1="53.7037" x2="58.7037" y1="55.0" y2="55.0" /><line stroke="rgb(0,0,0)" x1="58.7037" x2="202.94919999999996" y1="55.0" y2="55.0" /><line stroke="rgb(0,0,0)" x1="202.94919999999996" x2="222.94919999999996" y1="55.0" y2="55.0" /><line stroke="rgb(0,0,0)" x1="222.94919999999996" x2="227.94919999999996" y1="55.0" y2="55.0" /><line stroke="rgb(0,0,0)" x1="227.94919999999996" x2="250.10109999999997" y1="55.0" y2="55.0" /><line stroke="rgb(0,0,0)" x1="250.10109999999997" x2="270.1011" y1="55.0" y2="55.0" /><line stroke="rgb(0,0,0)" x1="270.1011" x2="275.1011" y1="55.0" y2="55.0" /><line stroke="rgb(0,0,0)" x1="275.1011" x2="416.7536" y1="55.0" y2="55.0" /><line stroke="rgb(0,0,0)" x1="416.7536" x2="436.7536" y1="55.0" y2="55.0" /><line stroke="rgb(0,0,0)" x1="436.7536" x2="441.7536" y1="55.0" y2="55.0" /><line stroke="rgb(0,0,0)" x1="441.7536" x2="469.7307" y1="55.0" y2="55.0" /><line stroke="rgb(0,0,0)" x1="469.7307" x2="489.7307" y1="55.0" y2="55.0" /><line stroke="rgb(0,0,0)" x1="489.7307" x2="494.7307" y1="55.0" y2="55.0" /><line stroke="rgb(0,0,0)" x1="494.7307" x2="523.89735" y1="55.0" y2="55.0" /><line stroke="rgb(0,0,0)" x1="523.89735" x2="543.89735" y1="55.0" y2="55.0" /><line stroke="rgb(0,0,0)" x1="543.89735" x2="548.89735" y1="55.0" y2="55.0" /><line stroke="rgb(0,0,0)" x1="548.89735" x2="688.87585" y1="55.0" y2="55.0" /><line stroke="rgb(0,0,0)" x1="688.87585" x2="708.87585" y1="55.0" y2="55.0" /><line stroke="rgb(0,0,0)" x1="708.87585" x2="713.87585" y1="55.0" y2="55.0" /><line stroke="rgb(0,0,0)" x1="713.87585" x2="837.95335" y1="55.0" y2="55.0" /><line stroke="rgb(0,0,0)" x1="837.95335" x2="857.95335" y1="55.0" y2="55.0" /><line stroke="rgb(0,0,0)" x1="857.95335" x2="862.95335" y1="55.0" y2="55.0" /><line stroke="rgb(0,0,0)" x1="862.95335" x2="1030.0403499999998" y1="55.0" y2="55.0" /><line stroke="rgb(0,0,0)" x1="1030.0403499999998" x2="1050.0403499999998" y1="55.0" y2="55.0" /><line stroke="rgb(0,0,0)" x1="1050.0403499999998" x2="1055.0403499999998" y1="55.0" y2="55.0" /><line stroke="rgb(0,0,0)" x1="1055.0403499999998" x2="1211.6498499999998" y1="55.0" y2="55.0" /><line stroke="rgb(0,0,0)" x1="1211.6498499999998" x2="1231.6498499999998" y1="55.0" y2="55.0" /><line stroke="rgb(0,0,0)" x1="1231.6498499999998" x2="1236.6498499999998" y1="55.0" y2="55.0" /><line stroke="rgb(0,0,0)" x1="1236.6498499999998" x2="1257.44985" y1="55.0" y2="55.0" /><line stroke="rgb(0,0,0)" x1="1257.44985" x2="1277.44985" y1="55.0" y2="55.0" /><line stroke="rgb(0,0,0)" x1="1277.44985" x2="1282.44985" y1="55.0" y2="55.0" /><line stroke="rgb(0,0,0)" x1="1282.44985" x2="1420.0358499999998" y1="55.0" y2="55.0" /><line stroke="rgb(0,0,0)" x1="1420.0358499999998" x2="1440.0358499999998" y1="55.0" y2="55.0" /><line stroke="rgb(0,0,0)" x1="1440.0358499999998" x2="1445.0358499999998" y1="55.0" y2="55.0" /><line stroke="rgb(0,0,0)" x1="1445.0358499999998" x2="1509.2333499999997" y1="55.0" y2="55.0" /><line stroke="rgb(0,0,0)" x1="1509.2333499999997" x2="1529.2333499999997" y1="55.0" y2="55.0" /><line stroke="rgb(0,0,0)" x1="1529.2333499999997" x2="1534.2333499999997" y1="55.0" y2="55.0" /><rect fill="rgb(150,150,150)" height="21.6" stroke="rgb(0,0,0)" width="23.703699999999998" x="5.0" y="44.2" /><text fill="black" x="5.0" y="85.8">H4</text><rect fill="rgb(150,150,150)" height="92.80000000000001" stroke="rgb(0,0,0)" width="139.2455" x="58.7037" y="8.599999999999994" /><text fill="black" x="58.7037" y="121.4">H6</text><rect fill="rgb(150,150,150)" height="31.6" stroke="rgb(0,0,0)" width="17.1519" x="227.94919999999996" y="39.2" /><text fill="black" x="227.94919999999996" y="90.8">H7</text><rect fill="rgb(150,150,150)" height="93.2" stroke="rgb(0,0,0)" width="136.6525" x="275.1011" y="8.399999999999999" /><text fill="black" x="275.1011" y="121.6">H8</text><rect fill="rgb(255,150,150)" height="52.400000000000006" stroke="rgb(0,0,0)" width="22.9771" x="441.7536" y="28.799999999999997" /><text fill="black" x="441.7536" y="101.2">E12</text><rect fill="rgb(255,150,150)" height="48.0" stroke="rgb(0,0,0)" width="24.16665" x="494.7307" y="31.0" /><text fill="black" x="494.7307" y="99.0">E17</text><rect fill="rgb(150,150,150)" height="93.2" stroke="rgb(0,0,0)" width="134.9785" x="548.89735" y="8.399999999999999" /><text fill="black" x="548.89735" y="121.6">H18</text><rect fill="rgb(150,150,150)" height="93.2" stroke="rgb(0,0,0)" width="119.0775" x="713.87585" y="8.399999999999999" /><text fill="black" x="713.87585" y="121.6">H22</text><rect fill="rgb(150,150,150)" height="96.8" stroke="rgb(0,0,0)" width="162.087" x="862.95335" y="6.600000000000001" /><text fill="black" x="862.95335" y="123.4">H36</text><rect fill="rgb(150,150,150)" height="93.2" stroke="rgb(0,0,0)" width="151.6095" x="1055.0403499999998" y="8.399999999999999" /><text fill="black" x="1055.0403499999998" y="121.6">H52</text><rect fill="rgb(150,150,150)" height="50.0" stroke="rgb(0,0,0)" width="15.8" x="1236.6498499999998" y="30.0" /><text fill="black" x="1236.6498499999998" y="100.0">H54</text><rect fill="rgb(150,150,150)" height="92.80000000000001" stroke="rgb(0,0,0)" width="132.58599999999998" x="1282.44985" y="8.599999999999994" /><text fill="black" x="1282.44985" y="121.4">H57</text><rect fill="rgb(150,150,150)" height="32.4" stroke="rgb(0,0,0)" width="59.1975" x="1445.0358499999998" y="38.8" /><text fill="black" x="1445.0358499999998" y="91.2">H60</text><rect fill="rgb(150,150,150)" height="40.400000000000006" stroke="rgb(0,0,0)" width="20.1485" x="1534.2333499999997" y="34.8" /><text fill="black" x="1534.2333499999997" y="95.2">H65</text><path d="M 506.814025,55.0 a 48.52616759825609,48.52616759825609 0 0,0 -53.571875000000034,-0.0" stroke="rgb(255,150,150)" stroke-width="2" /><path d="M 506.814025,55.0 a 48.52616759825609,48.52616759825609 0 0,0 -53.571875000000034,-0.0" stroke="rgb(0,0,0)" stroke-width="0.2" /></svg>