<?xml version="1.0" encoding="utf-8" ?>
<svg baseProfile="full" height="100%" style="font-size:14;font-family:Sans, Arial;stroke-width:1;fill:none" version="1.1" width="100%" xmlns="http://www.w3.org/2000/svg" xmlns:ev="http://www.w3.org/2001/xml-events" xmlns:xlink="http://www.w3.org/1999/xlink"><defs /><rect fill="none" height="150.0" stroke="none" width="1429.3818499999998" x="0" y="0" /><line stroke="rgb(0,0,0)" x1="5.0" x2="33.7037" y1="75.0" y2="75.0" /><line stroke="rgb(0,0,0)" x1="33.7037" x2="43.7037" y1="75.0" y2="75.0" /><line stroke="rgb(0,0,0)" x1="43.7037" x2="48.7037" y1="75.0" y2="75.0" /><line stroke="rgb(0,0,0)" x1="48.7037" x2="192.94919999999996" y1="75.0" y2="75.0" /><line stroke="rgb(0,0,0)" x1="192.94919999999996" x2="202.94919999999996" y1="75.0" y2="75.0" /><line stroke="rgb(0,0,0)" x1="202.94919999999996" x2="207.94919999999996" y1="75.0" y2="75.0" /><line stroke="rgb(0,0,0)" x1="207.94919999999996" x2="230.10109999999997" y1="75.0" y2="75.0" /><line stroke="rgb(0,0,0)" x1="230.10109999999997" x2="240.10109999999997" y1="75.0" y2="75.0" /><line stroke="rgb(0,0,0)" x1="240.10109999999997" x2="245.10109999999997" y1="75.0" y2="75.0" /><line stroke="rgb(0,0,0)" x1="245.10109999999997" x2="386.7536" y1="75.0" y2="75.0" /><line stroke="rgb(0,0,0)" x1="386.7536" x2="396.7536" y1="75.0" y2="75.0" /><line stroke="rgb(0,0,0)" x1="396.7536" x2="401.7536" y1="75.0" y2="75.0" /><line stroke="rgb(0,0,0)" x1="401.7536" x2="429.7307" y1="75.0" y2="75.0" /><line stroke="rgb(0,0,0)" x1="429.7307" x2="439.7307" y1="75.0" y2="75.0" /><line stroke="rgb(0,0,0)" x1="439.7307" x2="444.7307" y1="75.0" y2="75.0" /><line stroke="rgb(0,0,0)" x1="444.7307" x2="473.89735" y1="75.0" y2="75.0" /><line stroke="rgb(0,0,0)" x1="473.89735" x2="483.89735" y1="75.0" y2="75.0" /><line stroke="rgb(0,0,0)" x1="483.89735" x2="488.89735" y1="75.0" y2="75.0" /><line stroke="rgb(0,0,0)" x1="488.89735" x2="628.87585" y1="75.0" y2="75.0" /><line stroke="rgb(0,0,0)" x1="628.87585" x2="638.87585" y1="75.0" y2="75.0" /><line stroke="rgb(0,0,0)" x1="638.87585" x2="643.87585" y1="75.0" y2="75.0" /><line stroke="rgb(0,0,0)" x1="643.87585" x2="767.95335" y1="75.0" y2="75.0" /><line stroke="rgb(0,0,0)" x1="767.95335" x2="777.95335" y1="75.0" y2="75.0" /><line stroke="rgb(0,0,0)" x1="777.95335" x2="782.95335" y1="75.0" y2="75.0" /><line stroke="rgb(0,0,0)" x1="782.95335" x2="950.0403499999999" y1="75.0" y2="75.0" /><line stroke="rgb(0,0,0)" x1="950.0403499999999" x2="960.0403499999999" y1="75.0" y2="75.0" /><line stroke="rgb(0,0,0)" x1="960.0403499999999" x2="965.0403499999999" y1="75.0" y2="75.0" /><line stroke="rgb(0,0,0)" x1="965.0403499999999" x2="1121.6498499999998" y1="75.0" y2="75.0" /><line stroke="rgb(0,0,0)" x1="1121.6498499999998" x2="1131.6498499999998" y1="75.0" y2="75.0" /><line stroke="rgb(0,0,0)" x1="1131.6498499999998" x2="1136.6498499999998" y1="75.0" y2="75.0" /><line stroke="rgb(0,0,0)" x1="1136.6498499999998" x2="1157.44985" y1="75.0" y2="75.0" /><line stroke="rgb(0,0,0)" x1="1157.44985" x2="1167.44985" y1="75.0" y2="75.0" /><line stroke="rgb(0,0,0)" x1="1167.44985" x2="1172.44985" y1="75.0" y2="75.0" /><line stroke="rgb(0,0,0)" x1="1172.44985" x2="1310.0358499999998" y1="75.0" y2="75.0" /><line stroke="rgb(0,0,0)" x1="1310.0358499999998" x2="1320.0358499999998" y1="75.0" y2="75.0" /><line stroke="rgb(0,0,0)" x1="1320.0358499999998" x2="1325.0358499999998" y1="75.0" y2="75.0" /><line stroke="rgb(0,0,0)" x1="1325.0358499999998" x2="1389.2333499999997" y1="75.0" y2="75.0" /><line stroke="rgb(0,0,0)" x1="1389.2333499999997" x2="1399.2333499999997" y1="75.0" y2="75.0" /><line stroke="rgb(0,0,0)" x1="1399.2333499999997" x2="1404.2333499999997" y1="75.0" y2="75.0" /><rect fill="rgb(255,42,54)" height="21.6" stroke="rgb(0,0,0)" width="23.703699999999998" x="5.0" y="64.2" /><text fill="black" x="5.0" y="105.8">H4</text><rect fill="rgb(255,159,203)" height="92.80000000000001" stroke="rgb(0,0,0)" width="139.2455" x="48.7037" y="28.599999999999994" /><text fill="black" x="48.7037" y="141.4">H6</text><rect fill="rgb(149,116,255)" height="31.6" stroke="rgb(0,0,0)" width="17.1519" x="207.94919999999996" y="59.2" /><text fill="black" x="207.94919999999996" y="110.8">H7</text><rect fill="rgb(235,184,255)" height="93.2" stroke="rgb(0,0,0)" width="136.6525" x="245.10109999999997" y="28.4" /><text fill="black" x="245.10109999999997" y="141.6">H8</text><rect fill="rgb(234,183,255)" height="52.400000000000006" stroke="rgb(0,0,0)" width="22.9771" x="401.7536" y="48.8" /><text fill="black" x="401.7536" y="121.2">E12</text><rect fill="rgb(125,98,255)" height="48.0" stroke="rgb(0,0,0)" width="24.16665" x="444.7307" y="51.0" /><text fill="black" x="444.7307" y="119.0">E17</text><rect fill="rgb(255,157,201)" height="93.2" stroke="rgb(0,0,0)" width="134.9785" x="488.89735" y="28.4" /><text fill="black" x="488.89735" y="141.6">H18</text><rect fill="rgb(255,128,164)" height="93.2" stroke="rgb(0,0,0)" width="119.0775" x="643.87585" y="28.4" /><text fill="black" x="643.87585" y="141.6">H22</text><rect fill="rgb(255,92,117)" height="96.8" stroke="rgb(0,0,0)" width="162.087" x="782.95335" y="26.6" /><text fill="black" x="782.95335" y="143.4">H36</text><rect fill="rgb(255,130,166)" height="93.2" stroke="rgb(0,0,0)" width="151.6095" x="965.0403499999999" y="28.4" /><text fill="black" x="965.0403499999999" y="141.6">H52</text><rect fill="rgb(49,38,255)" height="50.0" stroke="rgb(0,0,0)" width="15.8" x="1136.6498499999998" y="50.0" /><text fill="black" x="1136.6498499999998" y="120.0">H54</text><rect fill="rgb(255,178,227)" height="92.80000000000001" stroke="rgb(0,0,0)" width="132.58599999999998" x="1172.44985" y="28.599999999999994" /><text fill="black" x="1172.44985" y="141.4">H57</text><rect fill="rgb(243,190,255)" height="32.4" stroke="rgb(0,0,0)" width="59.1975" x="1325.0358499999998" y="58.8" /><text fill="black" x="1325.0358499999998" y="111.2">H60</text><rect fill="rgb(218,171,255)" height="40.400000000000006" stroke="rgb(0,0,0)" width="20.1485" x="1404.2333499999997" y="54.8" /><text fill="black" x="1404.2333499999997" y="115.2">H65</text><path d="M 456.814025,75.0 a 36.26133832433905,36.26133832433905 0 0,0 -43.571875000000034,-0.0" stroke="rgb(234,183,255)" stroke-width="2" /><path d="M 456.814025,75.0 a 36.26133832433905,36.26133832433905 0 0,0 -43.571875000000034,-0.0" stroke="rgb(0,0,0)" stroke-width="0.2" /></svg>