<?xml version="1.0" encoding="utf-8" ?>
<svg baseProfile="full" height="100%" style="font-size:14;font-family:Sans, Arial;stroke-width:1;fill:none" version="1.1" width="100%" xmlns="http://www.w3.org/2000/svg" xmlns:ev="http://www.w3.org/2001/xml-events" xmlns:xlink="http://www.w3.org/1999/xlink"><defs /><rect fill="none" height="280.0" stroke="none" width="4890.0" x="0" y="0" /><line stroke="rgb(0,0,0)" x1="5.0" x2="25.0" y1="130.0" y2="130.0" /><line stroke="rgb(0,0,0)" x1="25.0" x2="45.0" y1="130.0" y2="130.0" /><line stroke="rgb(0,0,0)" x1="45.0" x2="50.0" y1="130.0" y2="130.0" /><line stroke="rgb(0,0,0)" x1="50.0" x2="70.0" y1="130.0" y2="130.0" /><line stroke="rgb(0,0,0)" x1="70.0" x2="90.0" y1="130.0" y2="130.0" /><line stroke="rgb(0,0,0)" x1="90.0" x2="95.0" y1="130.0" y2="130.0" /><line stroke="rgb(0,0,0)" x1="95.0" x2="115.0" y1="130.0" y2="130.0" /><line stroke="rgb(0,0,0)" x1="115.0" x2="135.0" y1="130.0" y2="130.0" /><line stroke="rgb(0,0,0)" x1="135.0" x2="140.0" y1="130.0" y2="130.0" /><line stroke="rgb(0,0,0)" x1="140.0" x2="190.0" y1="130.0" y2="130.0" /><line stroke="rgb(0,0,0)" x1="190.0" x2="210.0" y1="130.0" y2="130.0" /><line stroke="rgb(0,0,0)" x1="210.0" x2="215.0" y1="130.0" y2="130.0" /><line stroke="rgb(0,0,0)" x1="215.0" x2="275.0" y1="130.0" y2="130.0" /><line stroke="rgb(0,0,0)" x1="275.0" x2="295.0" y1="130.0" y2="130.0" /><line stroke="rgb(0,0,0)" x1="295.0" x2="300.0" y1="130.0" y2="130.0" /><line stroke="rgb(0,0,0)" x1="300.0" x2="315.0" y1="130.0" y2="130.0" /><line stroke="rgb(0,0,0)" x1="315.0" x2="335.0" y1="130.0" y2="130.0" /><line stroke="rgb(0,0,0)" x1="335.0" x2="340.0" y1="130.0" y2="130.0" /><line stroke="rgb(0,0,0)" x1="340.0" x2="530.0" y1="130.0" y2="130.0" /><line stroke="rgb(0,0,0)" x1="530.0" x2="550.0" y1="130.0" y2="130.0" /><line stroke="rgb(0,0,0)" x1="550.0" x2="555.0" y1="130.0" y2="130.0" /><line stroke="rgb(0,0,0)" x1="555.0" x2="585.0" y1="130.0" y2="130.0" /><line stroke="rgb(0,0,0)" x1="585.0" x2="605.0" y1="130.0" y2="130.0" /><line stroke="rgb(0,0,0)" x1="605.0" x2="610.0" y1="130.0" y2="130.0" /><line stroke="rgb(0,0,0)" x1="610.0" x2="785.0" y1="130.0" y2="130.0" /><line stroke="rgb(0,0,0)" x1="785.0" x2="805.0" y1="130.0" y2="130.0" /><line stroke="rgb(0,0,0)" x1="805.0" x2="810.0" y1="130.0" y2="130.0" /><line stroke="rgb(0,0,0)" x1="810.0" x2="870.0" y1="130.0" y2="130.0" /><line stroke="rgb(0,0,0)" x1="870.0" x2="890.0" y1="130.0" y2="130.0" /><line stroke="rgb(0,0,0)" x1="890.0" x2="895.0" y1="130.0" y2="130.0" /><line stroke="rgb(0,0,0)" x1="895.0" x2="905.0" y1="130.0" y2="130.0" /><line stroke="rgb(0,0,0)" x1="905.0" x2="925.0" y1="130.0" y2="130.0" /><line stroke="rgb(0,0,0)" x1="925.0" x2="930.0" y1="130.0" y2="130.0" /><line stroke="rgb(0,0,0)" x1="930.0" x2="950.0" y1="130.0" y2="130.0" /><line stroke="rgb(0,0,0)" x1="950.0" x2="970.0" y1="130.0" y2="130.0" /><line stroke="rgb(0,0,0)" x1="970.0" x2="975.0" y1="130.0" y2="130.0" /><line stroke="rgb(0,0,0)" x1="975.0" x2="1010.0" y1="130.0" y2="130.0" /><line stroke="rgb(0,0,0)" x1="1010.0" x2="1030.0" y1="130.0" y2="130.0" /><line stroke="rgb(0,0,0)" x1="1030.0" x2="1035.0" y1="130.0" y2="130.0" /><line stroke="rgb(0,0,0)" x1="1035.0" x2="1060.0" y1="130.0" y2="130.0" /><line stroke="rgb(0,0,0)" x1="1060.0" x2="1080.0" y1="130.0" y2="130.0" /><line stroke="rgb(0,0,0)" x1="1080.0" x2="1085.0" y1="130.0" y2="130.0" /><line stroke="rgb(0,0,0)" x1="1085.0" x2="1105.0" y1="130.0" y2="130.0" /><line stroke="rgb(0,0,0)" x1="1105.0" x2="1125.0" y1="130.0" y2="130.0" /><line stroke="rgb(0,0,0)" x1="1125.0" x2="1130.0" y1="130.0" y2="130.0" /><line stroke="rgb(0,0,0)" x1="1130.0" x2="1155.0" y1="130.0" y2="130.0" /><line stroke="rgb(0,0,0)" x1="1155.0" x2="1175.0" y1="130.0" y2="130.0" /><line stroke="rgb(0,0,0)" x1="1175.0" x2="1180.0" y1="130.0" y2="130.0" /><line stroke="rgb(0,0,0)" x1="1180.0" x2="1230.0" y1="130.0" y2="130.0" /><line stroke="rgb(0,0,0)" x1="1230.0" x2="1250.0" y1="130.0" y2="130.0" /><line stroke="rgb(0,0,0)" x1="1250.0" x2="1255.0" y1="130.0" y2="130.0" /><line stroke="rgb(0,0,0)" x1="1255.0" x2="1290.0" y1="130.0" y2="130.0" /><line stroke="rgb(0,0,0)" x1="1290.0" x2="1310.0" y1="130.0" y2="130.0" /><line stroke="rgb(0,0,0)" x1="1310.0" x2="1315.0" y1="130.0" y2="130.0" /><line stroke="rgb(0,0,0)" x1="1315.0" x2="1515.0" y1="130.0" y2="130.0" /><line stroke="rgb(0,0,0)" x1="1515.0" x2="1535.0" y1="130.0" y2="55.0" /><line stroke="rgb(0,0,0)" x1="1535.0" x2="1540.0" y1="55.0" y2="55.0" /><line stroke="rgb(0,0,0)" x1="1315.0" x2="1515.0" y1="130.0" y2="130.0" /><line stroke="rgb(0,0,0)" x1="1515.0" x2="1535.0" y1="130.0" y2="205.0" /><line stroke="rgb(0,0,0)" x1="1535.0" x2="1540.0" y1="205.0" y2="205.0" /><line stroke="rgb(0,0,0)" x1="1540.0" x2="1585.0" y1="205.0" y2="205.0" /><line stroke="rgb(0,0,0)" x1="1585.0" x2="1605.0" y1="205.0" y2="130.0" /><line stroke="rgb(0,0,0)" x1="1605.0" x2="1610.0" y1="130.0" y2="130.0" /><line stroke="rgb(0,0,0)" x1="1610.0" x2="1655.0" y1="130.0" y2="130.0" /><line stroke="rgb(0,0,0)" x1="1655.0" x2="1675.0" y1="130.0" y2="130.0" /><line stroke="rgb(0,0,0)" x1="1675.0" x2="1680.0" y1="130.0" y2="130.0" /><line stroke="rgb(0,0,0)" x1="1540.0" x2="1550.0" y1="55.0" y2="55.0" /><line stroke="rgb(0,0,0)" x1="1550.0" x2="1675.0" y1="55.0" y2="130.0" /><line stroke="rgb(0,0,0)" x1="1675.0" x2="1680.0" y1="130.0" y2="130.0" /><line stroke="rgb(0,0,0)" x1="1680.0" x2="1840.0" y1="130.0" y2="130.0" /><line stroke="rgb(0,0,0)" x1="1840.0" x2="1860.0" y1="130.0" y2="55.0" /><line stroke="rgb(0,0,0)" x1="1860.0" x2="1865.0" y1="55.0" y2="55.0" /><line stroke="rgb(0,0,0)" x1="1680.0" x2="1840.0" y1="130.0" y2="130.0" /><line stroke="rgb(0,0,0)" x1="1840.0" x2="1860.0" y1="130.0" y2="205.0" /><line stroke="rgb(0,0,0)" x1="1860.0" x2="1865.0" y1="205.0" y2="205.0" /><line stroke="rgb(0,0,0)" x1="1865.0" x2="1940.0" y1="55.0" y2="55.0" /><line stroke="rgb(0,0,0)" x1="1940.0" x2="1960.0" y1="55.0" y2="130.0" /><line stroke="rgb(0,0,0)" x1="1960.0" x2="1965.0" y1="130.0" y2="130.0" /><line stroke="rgb(0,0,0)" x1="1965.0" x2="1990.0" y1="130.0" y2="130.0" /><line stroke="rgb(0,0,0)" x1="1990.0" x2="2010.0" y1="130.0" y2="130.0" /><line stroke="rgb(0,0,0)" x1="2010.0" x2="2015.0" y1="130.0" y2="130.0" /><line stroke="rgb(0,0,0)" x1="1865.0" x2="1900.0" y1="205.0" y2="205.0" /><line stroke="rgb(0,0,0)" x1="1900.0" x2="2010.0" y1="205.0" y2="130.0" /><line stroke="rgb(0,0,0)" x1="2010.0" x2="2015.0" y1="130.0" y2="130.0" /><line stroke="rgb(0,0,0)" x1="2015.0" x2="2065.0" y1="130.0" y2="130.0" /><line stroke="rgb(0,0,0)" x1="2065.0" x2="2085.0" y1="130.0" y2="130.0" /><line stroke="rgb(0,0,0)" x1="2085.0" x2="2090.0" y1="130.0" y2="130.0" /><line stroke="rgb(0,0,0)" x1="2090.0" x2="2110.0" y1="130.0" y2="130.0" /><line stroke="rgb(0,0,0)" x1="2110.0" x2="2130.0" y1="130.0" y2="130.0" /><line stroke="rgb(0,0,0)" x1="2130.0" x2="2135.0" y1="130.0" y2="130.0" /><line stroke="rgb(0,0,0)" x1="2135.0" x2="2155.0" y1="130.0" y2="130.0" /><line stroke="rgb(0,0,0)" x1="2155.0" x2="2175.0" y1="130.0" y2="130.0" /><line stroke="rgb(0,0,0)" x1="2175.0" x2="2180.0" y1="130.0" y2="130.0" /><line stroke="rgb(0,0,0)" x1="2180.0" x2="2210.0" y1="130.0" y2="130.0" /><line stroke="rgb(0,0,0)" x1="2210.0" x2="2230.0" y1="130.0" y2="130.0" /><line stroke="rgb(0,0,0)" x1="2230.0" x2="2235.0" y1="130.0" y2="130.0" /><line stroke="rgb(0,0,0)" x1="2235.0" x2="2270.0" y1="130.0" y2="130.0" /><line stroke="rgb(0,0,0)" x1="2270.0" x2="2290.0" y1="130.0" y2="130.0" /><line stroke="rgb(0,0,0)" x1="2290.0" x2="2295.0" y1="130.0" y2="130.0" /><line stroke="rgb(0,0,0)" x1="2295.0" x2="2330.0" y1="130.0" y2="130.0" /><line stroke="rgb(0,0,0)" x1="2330.0" x2="2350.0" y1="130.0" y2="55.0" /><line stroke="rgb(0,0,0)" x1="2350.0" x2="2355.0" y1="55.0" y2="55.0" /><line stroke="rgb(0,0,0)" x1="2295.0" x2="2330.0" y1="130.0" y2="130.0" /><line stroke="rgb(0,0,0)" x1="2330.0" x2="2350.0" y1="130.0" y2="205.0" /><line stroke="rgb(0,0,0)" x1="2350.0" x2="2355.0" y1="205.0" y2="205.0" /><line stroke="rgb(0,0,0)" x1="2355.0" x2="2380.0" y1="205.0" y2="205.0" /><line stroke="rgb(0,0,0)" x1="2380.0" x2="2400.0" y1="205.0" y2="55.0" /><line stroke="rgb(0,0,0)" x1="2400.0" x2="2405.0" y1="55.0" y2="55.0" /><line stroke="rgb(0,0,0)" x1="2355.0" x2="2360.0" y1="55.0" y2="55.0" /><line stroke="rgb(0,0,0)" x1="2360.0" x2="2400.0" y1="55.0" y2="205.0" /><line stroke="rgb(0,0,0)" x1="2400.0" x2="2405.0" y1="205.0" y2="205.0" /><line stroke="rgb(0,0,0)" x1="2405.0" x2="2430.0" y1="55.0" y2="55.0" /><line stroke="rgb(0,0,0)" x1="2430.0" x2="2450.0" y1="55.0" y2="130.0" /><line stroke="rgb(0,0,0)" x1="2450.0" x2="2455.0" y1="130.0" y2="130.0" /><line stroke="rgb(0,0,0)" x1="2405.0" x2="2410.0" y1="205.0" y2="205.0" /><line stroke="rgb(0,0,0)" x1="2410.0" x2="2450.0" y1="205.0" y2="130.0" /><line stroke="rgb(0,0,0)" x1="2450.0" x2="2455.0" y1="130.0" y2="130.0" /><line stroke="rgb(0,0,0)" x1="2455.0" x2="2695.0" y1="130.0" y2="130.0" /><line stroke="rgb(0,0,0)" x1="2695.0" x2="2715.0" y1="130.0" y2="55.0" /><line stroke="rgb(0,0,0)" x1="2715.0" x2="2720.0" y1="55.0" y2="55.0" /><line stroke="rgb(0,0,0)" x1="2455.0" x2="2695.0" y1="130.0" y2="130.0" /><line stroke="rgb(0,0,0)" x1="2695.0" x2="2715.0" y1="130.0" y2="205.0" /><line stroke="rgb(0,0,0)" x1="2715.0" x2="2720.0" y1="205.0" y2="205.0" /><line stroke="rgb(0,0,0)" x1="2720.0" x2="2745.0" y1="205.0" y2="205.0" /><line stroke="rgb(0,0,0)" x1="2745.0" x2="2765.0" y1="205.0" y2="130.0" /><line stroke="rgb(0,0,0)" x1="2765.0" x2="2770.0" y1="130.0" y2="130.0" /><line stroke="rgb(0,0,0)" x1="2770.0" x2="2795.0" y1="130.0" y2="130.0" /><line stroke="rgb(0,0,0)" x1="2795.0" x2="2815.0" y1="130.0" y2="130.0" /><line stroke="rgb(0,0,0)" x1="2815.0" x2="2820.0" y1="130.0" y2="130.0" /><line stroke="rgb(0,0,0)" x1="2720.0" x2="2740.0" y1="55.0" y2="55.0" /><line stroke="rgb(0,0,0)" x1="2740.0" x2="2815.0" y1="55.0" y2="130.0" /><line stroke="rgb(0,0,0)" x1="2815.0" x2="2820.0" y1="130.0" y2="130.0" /><line stroke="rgb(0,0,0)" x1="2820.0" x2="2870.0" y1="130.0" y2="130.0" /><line stroke="rgb(0,0,0)" x1="2870.0" x2="2890.0" y1="130.0" y2="130.0" /><line stroke="rgb(0,0,0)" x1="2890.0" x2="2895.0" y1="130.0" y2="130.0" /><line stroke="rgb(0,0,0)" x1="2895.0" x2="2910.0" y1="130.0" y2="130.0" /><line stroke="rgb(0,0,0)" x1="2910.0" x2="2930.0" y1="130.0" y2="130.0" /><line stroke="rgb(0,0,0)" x1="2930.0" x2="2935.0" y1="130.0" y2="130.0" /><line stroke="rgb(0,0,0)" x1="2935.0" x2="3005.0" y1="130.0" y2="130.0" /><line stroke="rgb(0,0,0)" x1="3005.0" x2="3025.0" y1="130.0" y2="130.0" /><line stroke="rgb(0,0,0)" x1="3025.0" x2="3030.0" y1="130.0" y2="130.0" /><line stroke="rgb(0,0,0)" x1="3030.0" x2="3040.0" y1="130.0" y2="130.0" /><line stroke="rgb(0,0,0)" x1="3040.0" x2="3060.0" y1="130.0" y2="130.0" /><line stroke="rgb(0,0,0)" x1="3060.0" x2="3065.0" y1="130.0" y2="130.0" /><line stroke="rgb(0,0,0)" x1="3065.0" x2="3070.0" y1="130.0" y2="130.0" /><line stroke="rgb(0,0,0)" x1="3070.0" x2="3090.0" y1="130.0" y2="130.0" /><line stroke="rgb(0,0,0)" x1="3090.0" x2="3095.0" y1="130.0" y2="130.0" /><line stroke="rgb(0,0,0)" x1="3095.0" x2="3105.0" y1="130.0" y2="130.0" /><line stroke="rgb(0,0,0)" x1="3105.0" x2="3125.0" y1="130.0" y2="130.0" /><line stroke="rgb(0,0,0)" x1="3125.0" x2="3130.0" y1="130.0" y2="130.0" /><line stroke="rgb(0,0,0)" x1="3130.0" x2="3210.0" y1="130.0" y2="130.0" /><line stroke="rgb(0,0,0)" x1="3210.0" x2="3230.0" y1="130.0" y2="130.0" /><line stroke="rgb(0,0,0)" x1="3230.0" x2="3235.0" y1="130.0" y2="130.0" /><line stroke="rgb(0,0,0)" x1="3235.0" x2="3240.0" y1="130.0" y2="130.0" /><line stroke="rgb(0,0,0)" x1="3240.0" x2="3260.0" y1="130.0" y2="130.0" /><line stroke="rgb(0,0,0)" x1="3260.0" x2="3265.0" y1="130.0" y2="130.0" /><line stroke="rgb(0,0,0)" x1="3265.0" x2="3270.0" y1="130.0" y2="130.0" /><line stroke="rgb(0,0,0)" x1="3270.0" x2="3290.0" y1="130.0" y2="130.0" /><line stroke="rgb(0,0,0)" x1="3290.0" x2="3295.0" y1="130.0" y2="130.0" /><line stroke="rgb(0,0,0)" x1="3295.0" x2="3410.0" y1="130.0" y2="130.0" /><line stroke="rgb(0,0,0)" x1="3410.0" x2="3430.0" y1="130.0" y2="130.0" /><line stroke="rgb(0,0,0)" x1="3430.0" x2="3435.0" y1="130.0" y2="130.0" /><line stroke="rgb(0,0,0)" x1="3435.0" x2="3455.0" y1="130.0" y2="130.0" /><line stroke="rgb(0,0,0)" x1="3455.0" x2="3475.0" y1="130.0" y2="130.0" /><line stroke="rgb(0,0,0)" x1="3475.0" x2="3480.0" y1="130.0" y2="130.0" /><line stroke="rgb(0,0,0)" x1="3480.0" x2="3650.0" y1="130.0" y2="130.0" /><line stroke="rgb(0,0,0)" x1="3650.0" x2="3670.0" y1="130.0" y2="130.0" /><line stroke="rgb(0,0,0)" x1="3670.0" x2="3675.0" y1="130.0" y2="130.0" /><line stroke="rgb(0,0,0)" x1="3675.0" x2="3900.0" y1="130.0" y2="130.0" /><line stroke="rgb(0,0,0)" x1="3900.0" x2="3920.0" y1="130.0" y2="130.0" /><line stroke="rgb(0,0,0)" x1="3920.0" x2="3925.0" y1="130.0" y2="130.0" /><line stroke="rgb(0,0,0)" x1="3925.0" x2="3935.0" y1="130.0" y2="130.0" /><line stroke="rgb(0,0,0)" x1="3935.0" x2="3955.0" y1="130.0" y2="130.0" /><line stroke="rgb(0,0,0)" x1="3955.0" x2="3960.0" y1="130.0" y2="130.0" /><line stroke="rgb(0,0,0)" x1="3960.0" x2="3995.0" y1="130.0" y2="130.0" /><line stroke="rgb(0,0,0)" x1="3995.0" x2="4015.0" y1="130.0" y2="55.0" /><line stroke="rgb(0,0,0)" x1="4015.0" x2="4020.0" y1="55.0" y2="55.0" /><line stroke="rgb(0,0,0)" x1="3960.0" x2="3995.0" y1="130.0" y2="130.0" /><line stroke="rgb(0,0,0)" x1="3995.0" x2="4015.0" y1="130.0" y2="205.0" /><line stroke="rgb(0,0,0)" x1="4015.0" x2="4020.0" y1="205.0" y2="205.0" /><line stroke="rgb(0,0,0)" x1="4020.0" x2="4030.0" y1="55.0" y2="55.0" /><line stroke="rgb(0,0,0)" x1="4030.0" x2="4130.0" y1="55.0" y2="130.0" /><line stroke="rgb(0,0,0)" x1="4130.0" x2="4135.0" y1="130.0" y2="130.0" /><line stroke="rgb(0,0,0)" x1="4020.0" x2="4110.0" y1="205.0" y2="205.0" /><line stroke="rgb(0,0,0)" x1="4110.0" x2="4130.0" y1="205.0" y2="130.0" /><line stroke="rgb(0,0,0)" x1="4130.0" x2="4135.0" y1="130.0" y2="130.0" /><line stroke="rgb(0,0,0)" x1="4135.0" x2="4325.0" y1="130.0" y2="130.0" /><line stroke="rgb(0,0,0)" x1="4325.0" x2="4345.0" y1="130.0" y2="130.0" /><line stroke="rgb(0,0,0)" x1="4345.0" x2="4350.0" y1="130.0" y2="130.0" /><line stroke="rgb(0,0,0)" x1="4350.0" x2="4430.0" y1="130.0" y2="130.0" /><line stroke="rgb(0,0,0)" x1="4430.0" x2="4450.0" y1="130.0" y2="55.0" /><line stroke="rgb(0,0,0)" x1="4450.0" x2="4455.0" y1="55.0" y2="55.0" /><line stroke="rgb(0,0,0)" x1="4350.0" x2="4430.0" y1="130.0" y2="130.0" /><line stroke="rgb(0,0,0)" x1="4430.0" x2="4450.0" y1="130.0" y2="205.0" /><line stroke="rgb(0,0,0)" x1="4450.0" x2="4455.0" y1="205.0" y2="205.0" /><line stroke="rgb(0,0,0)" x1="4455.0" x2="4460.0" y1="55.0" y2="55.0" /><line stroke="rgb(0,0,0)" x1="4460.0" x2="4600.0" y1="55.0" y2="55.0" /><line stroke="rgb(0,0,0)" x1="4600.0" x2="4605.0" y1="55.0" y2="55.0" /><line stroke="rgb(0,0,0)" x1="4455.0" x2="4580.0" y1="205.0" y2="205.0" /><line stroke="rgb(0,0,0)" x1="4580.0" x2="4600.0" y1="205.0" y2="205.0" /><line stroke="rgb(0,0,0)" x1="4600.0" x2="4605.0" y1="205.0" y2="205.0" /><line stroke="rgb(0,0,0)" x1="4605.0" x2="4630.0" y1="205.0" y2="205.0" /><line stroke="rgb(0,0,0)" x1="4630.0" x2="4650.0" y1="205.0" y2="130.0" /><line stroke="rgb(0,0,0)" x1="4650.0" x2="4655.0" y1="130.0" y2="130.0" /><line stroke="rgb(0,0,0)" x1="4655.0" x2="4725.0" y1="130.0" y2="130.0" /><line stroke="rgb(0,0,0)" x1="4725.0" x2="4745.0" y1="130.0" y2="130.0" /><line stroke="rgb(0,0,0)" x1="4745.0" x2="4750.0" y1="130.0" y2="130.0" /><line stroke="rgb(0,0,0)" x1="4750.0" x2="4805.0" y1="130.0" y2="130.0" /><line stroke="rgb(0,0,0)" x1="4805.0" x2="4825.0" y1="130.0" y2="130.0" /><line stroke="rgb(0,0,0)" x1="4825.0" x2="4830.0" y1="130.0" y2="130.0" /><polygon fill="rgb(255,150,255)" points="20.0,130.0 20.0,128.4 17.5,128.4 17.5,127.0 15.0,127.0 15.0,126.8 12.5,126.8 12.5,126.8 10.0,126.8 10.0,127.0 7.5,127.0 7.5,128.4 5.0,128.4 5.0,130.0 5.0,130.0 5.0,131.6 7.5,131.6 7.5,133.0 10.0,133.0 10.0,133.2 12.5,133.2 12.5,133.2 15.0,133.2 15.0,133.0 17.5,133.0 17.5,131.6 20.0,131.6 20.0,130.0" stroke="rgb(0,0,0)" /><text fill="black" x="5.0" y="153.2">E0</text><polygon fill="rgb(255,150,255)" points="65.0,130.0 65.0,128.4 62.5,128.4 62.5,127.0 60.0,127.0 60.0,126.8 57.5,126.8 57.5,126.8 55.0,126.8 55.0,127.0 52.5,127.0 52.5,128.4 50.0,128.4 50.0,130.0 50.0,130.0 50.0,131.6 52.5,131.6 52.5,133.0 55.0,133.0 55.0,133.2 57.5,133.2 57.5,133.2 60.0,133.2 60.0,133.0 62.5,133.0 62.5,131.6 65.0,131.6 65.0,130.0" stroke="rgb(0,0,0)" /><text fill="black" x="50.0" y="153.2">E1</text><polygon fill="rgb(150,150,150)" points="110.0,130.0 110.0,129.4 102.5,129.4 102.5,129.4 95.0,129.4 95.0,130.0 95.0,130.0 95.0,130.6 102.5,130.6 102.5,130.6 110.0,130.6 110.0,130.0" stroke="rgb(0,0,0)" /><text fill="black" x="95.0" y="150.6">H2</text><polygon fill="rgb(150,150,150)" points="185.0,130.0 185.0,129.6 175.0,129.6 175.0,129.2 172.5,129.2 172.5,128.6 170.0,128.6 170.0,124.6 162.5,124.6 162.5,124.6 155.0,124.6 155.0,128.6 152.5,128.6 152.5,129.2 150.0,129.2 150.0,129.6 140.0,129.6 140.0,130.0 140.0,130.0 140.0,130.4 150.0,130.4 150.0,130.8 152.5,130.8 152.5,131.4 155.0,131.4 155.0,135.4 162.5,135.4 162.5,135.4 170.0,135.4 170.0,131.4 172.5,131.4 172.5,130.8 175.0,130.8 175.0,130.4 185.0,130.4 185.0,130.0" stroke="rgb(0,0,0)" /><text fill="black" x="140.0" y="155.4">H3</text><polygon fill="rgb(150,150,150)" points="270.0,130.0 270.0,128.6 265.0,128.6 265.0,128.2 257.5,128.2 257.5,128.0 255.0,128.0 255.0,126.8 252.5,126.8 252.5,124.6 250.0,124.6 250.0,119.2 242.5,119.2 242.5,119.2 235.0,119.2 235.0,124.6 232.5,124.6 232.5,126.8 230.0,126.8 230.0,128.0 227.5,128.0 227.5,128.2 220.0,128.2 220.0,128.6 215.0,128.6 215.0,130.0 215.0,130.0 215.0,131.4 220.0,131.4 220.0,131.8 227.5,131.8 227.5,132.0 230.0,132.0 230.0,133.2 232.5,133.2 232.5,135.4 235.0,135.4 235.0,140.8 242.5,140.8 242.5,140.8 250.0,140.8 250.0,135.4 252.5,135.4 252.5,133.2 255.0,133.2 255.0,132.0 257.5,132.0 257.5,131.8 265.0,131.8 265.0,131.4 270.0,131.4 270.0,130.0" stroke="rgb(0,0,0)" /><text fill="black" x="215.0" y="160.8">H4</text><polygon fill="rgb(150,255,150)" points="310.0,130.0 310.0,129.8 307.5,129.8 307.5,128.0 305.0,128.0 305.0,128.0 302.5,128.0 302.5,129.8 300.0,129.8 300.0,130.0 300.0,130.0 300.0,130.2 302.5,130.2 302.5,132.0 305.0,132.0 305.0,132.0 307.5,132.0 307.5,130.2 310.0,130.2 310.0,130.0" stroke="rgb(0,0,0)" /><text fill="black" x="300.0" y="152.0">E5</text><polygon fill="rgb(150,150,150)" points="525.0,130.0 525.0,129.4 522.5,129.4 522.5,128.6 520.0,128.6 520.0,127.2 515.0,127.2 515.0,126.4 512.5,126.4 512.5,118.6 510.0,118.6 510.0,115.2 507.5,115.2 507.5,113.4 505.0,113.4 505.0,112.0 502.5,112.0 502.5,109.4 500.0,109.4 500.0,106.2 497.5,106.2 497.5,98.4 495.0,98.4 495.0,93.80000000000001 492.5,93.80000000000001 492.5,87.2 490.0,87.2 490.0,85.19999999999999 487.5,85.19999999999999 487.5,84.0 485.0,84.0 485.0,83.6 432.5,83.6 432.5,83.6 380.0,83.6 380.0,84.0 377.5,84.0 377.5,85.19999999999999 375.0,85.19999999999999 375.0,87.2 372.5,87.2 372.5,93.80000000000001 370.0,93.80000000000001 370.0,98.4 367.5,98.4 367.5,106.2 365.0,106.2 365.0,109.4 362.5,109.4 362.5,112.0 360.0,112.0 360.0,113.4 357.5,113.4 357.5,115.2 355.0,115.2 355.0,118.6 352.5,118.6 352.5,126.4 350.0,126.4 350.0,127.2 345.0,127.2 345.0,128.6 342.5,128.6 342.5,129.4 340.0,129.4 340.0,130.0 340.0,130.0 340.0,130.6 342.5,130.6 342.5,131.4 345.0,131.4 345.0,132.8 350.0,132.8 350.0,133.6 352.5,133.6 352.5,141.4 355.0,141.4 355.0,144.8 357.5,144.8 357.5,146.6 360.0,146.6 360.0,148.0 362.5,148.0 362.5,150.6 365.0,150.6 365.0,153.8 367.5,153.8 367.5,161.6 370.0,161.6 370.0,166.2 372.5,166.2 372.5,172.8 375.0,172.8 375.0,174.8 377.5,174.8 377.5,176.0 380.0,176.0 380.0,176.4 432.5,176.4 432.5,176.4 485.0,176.4 485.0,176.0 487.5,176.0 487.5,174.8 490.0,174.8 490.0,172.8 492.5,172.8 492.5,166.2 495.0,166.2 495.0,161.6 497.5,161.6 497.5,153.8 500.0,153.8 500.0,150.6 502.5,150.6 502.5,148.0 505.0,148.0 505.0,146.6 507.5,146.6 507.5,144.8 510.0,144.8 510.0,141.4 512.5,141.4 512.5,133.6 515.0,133.6 515.0,132.8 520.0,132.8 520.0,131.4 522.5,131.4 522.5,130.6 525.0,130.6 525.0,130.0" stroke="rgb(0,0,0)" /><text fill="black" x="340.0" y="196.4">H6</text><polygon fill="rgb(150,150,150)" points="580.0,130.0 580.0,129.8 577.5,129.8 577.5,123.4 575.0,123.4 575.0,114.2 567.5,114.2 567.5,114.2 560.0,114.2 560.0,123.4 557.5,123.4 557.5,129.8 555.0,129.8 555.0,130.0 555.0,130.0 555.0,130.2 557.5,130.2 557.5,136.6 560.0,136.6 560.0,145.8 567.5,145.8 567.5,145.8 575.0,145.8 575.0,136.6 577.5,136.6 577.5,130.2 580.0,130.2 580.0,130.0" stroke="rgb(0,0,0)" /><text fill="black" x="555.0" y="165.8">H7</text><polygon fill="rgb(150,150,150)" points="780.0,130.0 780.0,129.6 777.5,129.6 777.5,129.4 775.0,129.4 775.0,128.6 772.5,128.6 772.5,128.0 770.0,128.0 770.0,117.0 767.5,117.0 767.5,113.4 765.0,113.4 765.0,110.4 762.5,110.4 762.5,109.6 760.0,109.6 760.0,86.6 757.5,86.6 757.5,86.2 755.0,86.2 755.0,85.6 752.5,85.6 752.5,84.8 747.5,84.8 747.5,83.8 742.5,83.8 742.5,83.6 740.0,83.6 740.0,83.4 695.0,83.4 695.0,83.4 650.0,83.4 650.0,83.6 647.5,83.6 647.5,83.8 642.5,83.8 642.5,84.8 637.5,84.8 637.5,85.6 635.0,85.6 635.0,86.2 632.5,86.2 632.5,86.6 630.0,86.6 630.0,109.6 627.5,109.6 627.5,110.4 625.0,110.4 625.0,113.4 622.5,113.4 622.5,117.0 620.0,117.0 620.0,128.0 617.5,128.0 617.5,128.6 615.0,128.6 615.0,129.4 612.5,129.4 612.5,129.6 610.0,129.6 610.0,130.0 610.0,130.0 610.0,130.4 612.5,130.4 612.5,130.6 615.0,130.6 615.0,131.4 617.5,131.4 617.5,132.0 620.0,132.0 620.0,143.0 622.5,143.0 622.5,146.6 625.0,146.6 625.0,149.6 627.5,149.6 627.5,150.4 630.0,150.4 630.0,173.4 632.5,173.4 632.5,173.8 635.0,173.8 635.0,174.4 637.5,174.4 637.5,175.2 642.5,175.2 642.5,176.2 647.5,176.2 647.5,176.4 650.0,176.4 650.0,176.6 695.0,176.6 695.0,176.6 740.0,176.6 740.0,176.4 742.5,176.4 742.5,176.2 747.5,176.2 747.5,175.2 752.5,175.2 752.5,174.4 755.0,174.4 755.0,173.8 757.5,173.8 757.5,173.4 760.0,173.4 760.0,150.4 762.5,150.4 762.5,149.6 765.0,149.6 765.0,146.6 767.5,146.6 767.5,143.0 770.0,143.0 770.0,132.0 772.5,132.0 772.5,131.4 775.0,131.4 775.0,130.6 777.5,130.6 777.5,130.4 780.0,130.4 780.0,130.0" stroke="rgb(0,0,0)" /><text fill="black" x="610.0" y="196.6">H8</text><polygon fill="rgb(150,150,150)" points="865.0,130.0 865.0,129.6 862.5,129.6 862.5,128.6 837.5,128.6 837.5,128.6 812.5,128.6 812.5,129.6 810.0,129.6 810.0,130.0 810.0,130.0 810.0,130.4 812.5,130.4 812.5,131.4 837.5,131.4 837.5,131.4 862.5,131.4 862.5,130.4 865.0,130.4 865.0,130.0" stroke="rgb(0,0,0)" /><text fill="black" x="810.0" y="151.4">H9</text><polygon fill="rgb(150,255,150)" points="900.0,130.0 900.0,129.8 897.5,129.8 897.5,129.8 895.0,129.8 895.0,130.0 895.0,130.0 895.0,130.2 897.5,130.2 897.5,130.2 900.0,130.2 900.0,130.0" stroke="rgb(0,0,0)" /><text fill="black" x="895.0" y="150.2">E10</text><polygon fill="rgb(150,150,150)" points="945.0,130.0 945.0,129.2 937.5,129.2 937.5,129.2 930.0,129.2 930.0,130.0 930.0,130.0 930.0,130.8 937.5,130.8 937.5,130.8 945.0,130.8 945.0,130.0" stroke="rgb(0,0,0)" /><text fill="black" x="930.0" y="150.8">H11</text><polygon fill="rgb(255,150,150)" points="1005.0,130.0 1005.0,120.2 1002.5,120.2 1002.5,114.6 1000.0,114.6 1000.0,109.8 997.5,109.8 997.5,106.6 995.0,106.6 995.0,104.6 992.5,104.6 992.5,103.8 990.0,103.8 990.0,103.8 987.5,103.8 987.5,104.6 985.0,104.6 985.0,106.6 982.5,106.6 982.5,109.8 980.0,109.8 980.0,114.6 977.5,114.6 977.5,120.2 975.0,120.2 975.0,130.0 975.0,130.0 975.0,139.8 977.5,139.8 977.5,145.4 980.0,145.4 980.0,150.2 982.5,150.2 982.5,153.4 985.0,153.4 985.0,155.4 987.5,155.4 987.5,156.2 990.0,156.2 990.0,156.2 992.5,156.2 992.5,155.4 995.0,155.4 995.0,153.4 997.5,153.4 997.5,150.2 1000.0,150.2 1000.0,145.4 1002.5,145.4 1002.5,139.8 1005.0,139.8 1005.0,130.0" stroke="rgb(0,0,0)" /><text fill="black" x="975.0" y="176.2">E12</text><polygon fill="rgb(150,255,150)" points="1055.0,130.0 1055.0,127.0 1047.5,127.0 1047.5,126.4 1045.0,126.4 1045.0,126.4 1042.5,126.4 1042.5,127.0 1035.0,127.0 1035.0,130.0 1035.0,130.0 1035.0,133.0 1042.5,133.0 1042.5,133.6 1045.0,133.6 1045.0,133.6 1047.5,133.6 1047.5,133.0 1055.0,133.0 1055.0,130.0" stroke="rgb(0,0,0)" /><text fill="black" x="1035.0" y="153.6">E13</text><polygon fill="rgb(150,150,150)" points="1100.0,130.0 1100.0,129.2 1092.5,129.2 1092.5,129.2 1085.0,129.2 1085.0,130.0 1085.0,130.0 1085.0,130.8 1092.5,130.8 1092.5,130.8 1100.0,130.8 1100.0,130.0" stroke="rgb(0,0,0)" /><text fill="black" x="1085.0" y="150.8">H14</text><polygon fill="rgb(150,255,150)" points="1150.0,130.0 1150.0,127.0 1142.5,127.0 1142.5,126.60000000000001 1140.0,126.60000000000001 1140.0,126.60000000000001 1137.5,126.60000000000001 1137.5,127.0 1130.0,127.0 1130.0,130.0 1130.0,130.0 1130.0,133.0 1137.5,133.0 1137.5,133.4 1140.0,133.4 1140.0,133.4 1142.5,133.4 1142.5,133.0 1150.0,133.0 1150.0,130.0" stroke="rgb(0,0,0)" /><text fill="black" x="1130.0" y="153.4">E15</text><polygon fill="rgb(150,150,150)" points="1225.0,130.0 1225.0,129.8 1210.0,129.8 1210.0,128.4 1202.5,128.4 1202.5,128.4 1195.0,128.4 1195.0,129.8 1180.0,129.8 1180.0,130.0 1180.0,130.0 1180.0,130.2 1195.0,130.2 1195.0,131.6 1202.5,131.6 1202.5,131.6 1210.0,131.6 1210.0,130.2 1225.0,130.2 1225.0,130.0" stroke="rgb(0,0,0)" /><text fill="black" x="1180.0" y="151.6">H16</text><polygon fill="rgb(255,150,150)" points="1285.0,130.0 1285.0,120.2 1282.5,120.2 1282.5,114.6 1280.0,114.6 1280.0,109.8 1277.5,109.8 1277.5,107.2 1275.0,107.2 1275.0,106.2 1272.5,106.2 1272.5,106.0 1270.0,106.0 1270.0,106.0 1267.5,106.0 1267.5,106.2 1265.0,106.2 1265.0,107.2 1262.5,107.2 1262.5,109.8 1260.0,109.8 1260.0,114.6 1257.5,114.6 1257.5,120.2 1255.0,120.2 1255.0,130.0 1255.0,130.0 1255.0,139.8 1257.5,139.8 1257.5,145.4 1260.0,145.4 1260.0,150.2 1262.5,150.2 1262.5,152.8 1265.0,152.8 1265.0,153.8 1267.5,153.8 1267.5,154.0 1270.0,154.0 1270.0,154.0 1272.5,154.0 1272.5,153.8 1275.0,153.8 1275.0,152.8 1277.5,152.8 1277.5,150.2 1280.0,150.2 1280.0,145.4 1282.5,145.4 1282.5,139.8 1285.0,139.8 1285.0,130.0" stroke="rgb(0,0,0)" /><text fill="black" x="1255.0" y="174.0">E17</text><polygon fill="rgb(150,150,150)" points="1510.0,130.0 1510.0,129.8 1500.0,129.8 1500.0,117.4 1497.5,117.4 1497.5,113.2 1495.0,113.2 1495.0,113.0 1492.5,113.0 1492.5,112.4 1482.5,112.4 1482.5,112.0 1480.0,112.0 1480.0,111.8 1477.5,111.8 1477.5,111.2 1475.0,111.2 1475.0,110.8 1472.5,110.8 1472.5,110.6 1470.0,110.6 1470.0,107.6 1467.5,107.6 1467.5,84.19999999999999 1465.0,84.19999999999999 1465.0,83.4 1412.5,83.4 1412.5,83.4 1360.0,83.4 1360.0,84.19999999999999 1357.5,84.19999999999999 1357.5,107.6 1355.0,107.6 1355.0,110.6 1352.5,110.6 1352.5,110.8 1350.0,110.8 1350.0,111.2 1347.5,111.2 1347.5,111.8 1345.0,111.8 1345.0,112.0 1342.5,112.0 1342.5,112.4 1332.5,112.4 1332.5,113.0 1330.0,113.0 1330.0,113.2 1327.5,113.2 1327.5,117.4 1325.0,117.4 1325.0,129.8 1315.0,129.8 1315.0,130.0 1315.0,130.0 1315.0,130.2 1325.0,130.2 1325.0,142.6 1327.5,142.6 1327.5,146.8 1330.0,146.8 1330.0,147.0 1332.5,147.0 1332.5,147.6 1342.5,147.6 1342.5,148.0 1345.0,148.0 1345.0,148.2 1347.5,148.2 1347.5,148.8 1350.0,148.8 1350.0,149.2 1352.5,149.2 1352.5,149.4 1355.0,149.4 1355.0,152.4 1357.5,152.4 1357.5,175.8 1360.0,175.8 1360.0,176.6 1412.5,176.6 1412.5,176.6 1465.0,176.6 1465.0,175.8 1467.5,175.8 1467.5,152.4 1470.0,152.4 1470.0,149.4 1472.5,149.4 1472.5,149.2 1475.0,149.2 1475.0,148.8 1477.5,148.8 1477.5,148.2 1480.0,148.2 1480.0,148.0 1482.5,148.0 1482.5,147.6 1492.5,147.6 1492.5,147.0 1495.0,147.0 1495.0,146.8 1497.5,146.8 1497.5,142.6 1500.0,142.6 1500.0,130.2 1510.0,130.2 1510.0,130.0" stroke="rgb(0,0,0)" /><text fill="black" x="1315.0" y="196.6">H18</text><polygon fill="rgb(150,255,255)" points="1545.0,55.0 1545.0,54.4 1542.5,54.4 1542.5,54.4 1540.0,54.4 1540.0,55.0 1540.0,55.0 1540.0,55.6 1542.5,55.6 1542.5,55.6 1545.0,55.6 1545.0,55.0" stroke="rgb(0,0,0)" /><text fill="black" x="1540.0" y="75.6">E19</text><polygon fill="rgb(150,150,150)" points="1580.0,205.0 1580.0,204.8 1570.0,204.8 1570.0,204.6 1567.5,204.6 1567.5,202.2 1560.0,202.2 1560.0,202.2 1552.5,202.2 1552.5,204.6 1550.0,204.6 1550.0,204.8 1540.0,204.8 1540.0,205.0 1540.0,205.0 1540.0,205.2 1550.0,205.2 1550.0,205.4 1552.5,205.4 1552.5,207.8 1560.0,207.8 1560.0,207.8 1567.5,207.8 1567.5,205.4 1570.0,205.4 1570.0,205.2 1580.0,205.2 1580.0,205.0" stroke="rgb(0,0,0)" /><text fill="black" x="1540.0" y="227.8">H20</text><polygon fill="rgb(150,150,150)" points="1650.0,130.0 1650.0,123.8 1647.5,123.8 1647.5,122.2 1642.5,122.2 1642.5,121.0 1640.0,121.0 1640.0,120.8 1637.5,120.8 1637.5,120.4 1630.0,120.4 1630.0,120.4 1622.5,120.4 1622.5,120.8 1620.0,120.8 1620.0,121.0 1617.5,121.0 1617.5,122.2 1612.5,122.2 1612.5,123.8 1610.0,123.8 1610.0,130.0 1610.0,130.0 1610.0,136.2 1612.5,136.2 1612.5,137.8 1617.5,137.8 1617.5,139.0 1620.0,139.0 1620.0,139.2 1622.5,139.2 1622.5,139.6 1630.0,139.6 1630.0,139.6 1637.5,139.6 1637.5,139.2 1640.0,139.2 1640.0,139.0 1642.5,139.0 1642.5,137.8 1647.5,137.8 1647.5,136.2 1650.0,136.2 1650.0,130.0" stroke="rgb(0,0,0)" /><text fill="black" x="1610.0" y="159.6">H21</text><polygon fill="rgb(150,150,150)" points="1835.0,130.0 1835.0,129.6 1832.5,129.6 1832.5,128.2 1830.0,128.2 1830.0,128.0 1827.5,128.0 1827.5,126.2 1825.0,126.2 1825.0,126.0 1822.5,126.0 1822.5,125.4 1820.0,125.4 1820.0,117.4 1817.5,117.4 1817.5,110.8 1815.0,110.8 1815.0,86.2 1812.5,86.2 1812.5,85.8 1807.5,85.8 1807.5,84.0 1800.0,84.0 1800.0,83.6 1787.5,83.6 1787.5,83.4 1757.5,83.4 1757.5,83.4 1727.5,83.4 1727.5,83.6 1715.0,83.6 1715.0,84.0 1707.5,84.0 1707.5,85.8 1702.5,85.8 1702.5,86.2 1700.0,86.2 1700.0,110.8 1697.5,110.8 1697.5,117.4 1695.0,117.4 1695.0,125.4 1692.5,125.4 1692.5,126.0 1690.0,126.0 1690.0,126.2 1687.5,126.2 1687.5,128.0 1685.0,128.0 1685.0,128.2 1682.5,128.2 1682.5,129.6 1680.0,129.6 1680.0,130.0 1680.0,130.0 1680.0,130.4 1682.5,130.4 1682.5,131.8 1685.0,131.8 1685.0,132.0 1687.5,132.0 1687.5,133.8 1690.0,133.8 1690.0,134.0 1692.5,134.0 1692.5,134.6 1695.0,134.6 1695.0,142.6 1697.5,142.6 1697.5,149.2 1700.0,149.2 1700.0,173.8 1702.5,173.8 1702.5,174.2 1707.5,174.2 1707.5,176.0 1715.0,176.0 1715.0,176.4 1727.5,176.4 1727.5,176.6 1757.5,176.6 1757.5,176.6 1787.5,176.6 1787.5,176.4 1800.0,176.4 1800.0,176.0 1807.5,176.0 1807.5,174.2 1812.5,174.2 1812.5,173.8 1815.0,173.8 1815.0,149.2 1817.5,149.2 1817.5,142.6 1820.0,142.6 1820.0,134.6 1822.5,134.6 1822.5,134.0 1825.0,134.0 1825.0,133.8 1827.5,133.8 1827.5,132.0 1830.0,132.0 1830.0,131.8 1832.5,131.8 1832.5,130.4 1835.0,130.4 1835.0,130.0" stroke="rgb(0,0,0)" /><text fill="black" x="1680.0" y="196.6">H22</text><polygon fill="rgb(150,150,150)" points="1935.0,55.0 1935.0,54.8 1917.5,54.8 1917.5,54.6 1910.0,54.6 1910.0,53.0 1900.0,53.0 1900.0,53.0 1890.0,53.0 1890.0,54.6 1882.5,54.6 1882.5,54.8 1865.0,54.8 1865.0,55.0 1865.0,55.0 1865.0,55.2 1882.5,55.2 1882.5,55.4 1890.0,55.4 1890.0,57.0 1900.0,57.0 1900.0,57.0 1910.0,57.0 1910.0,55.4 1917.5,55.4 1917.5,55.2 1935.0,55.2 1935.0,55.0" stroke="rgb(0,0,0)" /><text fill="black" x="1865.0" y="77.0">H23</text><polygon fill="rgb(150,150,255)" points="1895.0,205.0 1895.0,203.8 1892.5,203.8 1892.5,202.6 1890.0,202.6 1890.0,198.8 1887.5,198.8 1887.5,197.2 1885.0,197.2 1885.0,197.0 1882.5,197.0 1882.5,196.2 1880.0,196.2 1880.0,196.2 1877.5,196.2 1877.5,197.0 1875.0,197.0 1875.0,197.2 1872.5,197.2 1872.5,198.8 1870.0,198.8 1870.0,202.6 1867.5,202.6 1867.5,203.8 1865.0,203.8 1865.0,205.0 1865.0,205.0 1865.0,206.2 1867.5,206.2 1867.5,207.4 1870.0,207.4 1870.0,211.2 1872.5,211.2 1872.5,212.8 1875.0,212.8 1875.0,213.0 1877.5,213.0 1877.5,213.8 1880.0,213.8 1880.0,213.8 1882.5,213.8 1882.5,213.0 1885.0,213.0 1885.0,212.8 1887.5,212.8 1887.5,211.2 1890.0,211.2 1890.0,207.4 1892.5,207.4 1892.5,206.2 1895.0,206.2 1895.0,205.0" stroke="rgb(0,0,0)" /><text fill="black" x="1865.0" y="233.8">E24</text><polygon fill="rgb(150,150,150)" points="1985.0,130.0 1985.0,129.8 1982.5,129.8 1982.5,129.2 1975.0,129.2 1975.0,129.2 1967.5,129.2 1967.5,129.8 1965.0,129.8 1965.0,130.0 1965.0,130.0 1965.0,130.2 1967.5,130.2 1967.5,130.8 1975.0,130.8 1975.0,130.8 1982.5,130.8 1982.5,130.2 1985.0,130.2 1985.0,130.0" stroke="rgb(0,0,0)" /><text fill="black" x="1965.0" y="150.8">H25</text><polygon fill="rgb(150,150,150)" points="2060.0,130.0 2060.0,125.0 2055.0,125.0 2055.0,124.4 2037.5,124.4 2037.5,124.4 2020.0,124.4 2020.0,125.0 2015.0,125.0 2015.0,130.0 2015.0,130.0 2015.0,135.0 2020.0,135.0 2020.0,135.6 2037.5,135.6 2037.5,135.6 2055.0,135.6 2055.0,135.0 2060.0,135.0 2060.0,130.0" stroke="rgb(0,0,0)" /><text fill="black" x="2015.0" y="155.6">H26</text><polygon fill="rgb(150,150,150)" points="2105.0,130.0 2105.0,125.0 2097.5,125.0 2097.5,125.0 2090.0,125.0 2090.0,130.0 2090.0,130.0 2090.0,135.0 2097.5,135.0 2097.5,135.0 2105.0,135.0 2105.0,130.0" stroke="rgb(0,0,0)" /><text fill="black" x="2090.0" y="155.0">H27</text><polygon fill="rgb(255,150,150)" points="2150.0,130.0 2150.0,129.4 2147.5,129.4 2147.5,128.2 2145.0,128.2 2145.0,127.8 2142.5,127.8 2142.5,127.8 2140.0,127.8 2140.0,128.2 2137.5,128.2 2137.5,129.4 2135.0,129.4 2135.0,130.0 2135.0,130.0 2135.0,130.6 2137.5,130.6 2137.5,131.8 2140.0,131.8 2140.0,132.2 2142.5,132.2 2142.5,132.2 2145.0,132.2 2145.0,131.8 2147.5,131.8 2147.5,130.6 2150.0,130.6 2150.0,130.0" stroke="rgb(0,0,0)" /><text fill="black" x="2135.0" y="152.2">E28</text><polygon fill="rgb(150,150,150)" points="2205.0,130.0 2205.0,128.0 2192.5,128.0 2192.5,128.0 2180.0,128.0 2180.0,130.0 2180.0,130.0 2180.0,132.0 2192.5,132.0 2192.5,132.0 2205.0,132.0 2205.0,130.0" stroke="rgb(0,0,0)" /><text fill="black" x="2180.0" y="152.0">H29</text><polygon fill="rgb(150,150,255)" points="2265.0,130.0 2265.0,128.8 2262.5,128.8 2262.5,127.6 2260.0,127.6 2260.0,123.8 2257.5,123.8 2257.5,122.2 2255.0,122.2 2255.0,122.0 2252.5,122.0 2252.5,121.2 2250.0,121.2 2250.0,121.2 2247.5,121.2 2247.5,122.0 2245.0,122.0 2245.0,122.2 2242.5,122.2 2242.5,123.8 2240.0,123.8 2240.0,127.6 2237.5,127.6 2237.5,128.8 2235.0,128.8 2235.0,130.0 2235.0,130.0 2235.0,131.2 2237.5,131.2 2237.5,132.4 2240.0,132.4 2240.0,136.2 2242.5,136.2 2242.5,137.8 2245.0,137.8 2245.0,138.0 2247.5,138.0 2247.5,138.8 2250.0,138.8 2250.0,138.8 2252.5,138.8 2252.5,138.0 2255.0,138.0 2255.0,137.8 2257.5,137.8 2257.5,136.2 2260.0,136.2 2260.0,132.4 2262.5,132.4 2262.5,131.2 2265.0,131.2 2265.0,130.0" stroke="rgb(0,0,0)" /><text fill="black" x="2235.0" y="158.8">E30</text><polygon fill="rgb(150,150,150)" points="2325.0,130.0 2325.0,129.8 2322.5,129.8 2322.5,129.2 2320.0,129.2 2320.0,127.0 2317.5,127.0 2317.5,122.8 2310.0,122.8 2310.0,122.8 2302.5,122.8 2302.5,127.0 2300.0,127.0 2300.0,129.2 2297.5,129.2 2297.5,129.8 2295.0,129.8 2295.0,130.0 2295.0,130.0 2295.0,130.2 2297.5,130.2 2297.5,130.8 2300.0,130.8 2300.0,133.0 2302.5,133.0 2302.5,137.2 2310.0,137.2 2310.0,137.2 2317.5,137.2 2317.5,133.0 2320.0,133.0 2320.0,130.8 2322.5,130.8 2322.5,130.2 2325.0,130.2 2325.0,130.0" stroke="rgb(0,0,0)" /><text fill="black" x="2295.0" y="157.2">H31</text><polygon fill="rgb(150,150,150)" points="2355.0,55.0 2355.0,55.0 2355.0,55.0 2355.0,55.0" stroke="rgb(0,0,0)" /><text fill="black" x="2355.0" y="75.0">X32</text><polygon fill="rgb(150,150,150)" points="2375.0,205.0 2375.0,204.8 2372.5,204.8 2372.5,204.4 2365.0,204.4 2365.0,204.4 2357.5,204.4 2357.5,204.8 2355.0,204.8 2355.0,205.0 2355.0,205.0 2355.0,205.2 2357.5,205.2 2357.5,205.6 2365.0,205.6 2365.0,205.6 2372.5,205.6 2372.5,205.2 2375.0,205.2 2375.0,205.0" stroke="rgb(0,0,0)" /><text fill="black" x="2355.0" y="225.6">H33</text><polygon fill="rgb(150,150,150)" points="2425.0,55.0 2425.0,54.8 2415.0,54.8 2415.0,54.8 2405.0,54.8 2405.0,55.0 2405.0,55.0 2405.0,55.2 2415.0,55.2 2415.0,55.2 2425.0,55.2 2425.0,55.0" stroke="rgb(0,0,0)" /><text fill="black" x="2405.0" y="75.2">H34</text><polygon fill="rgb(150,150,150)" points="2405.0,205.0 2405.0,205.0 2405.0,205.0 2405.0,205.0" stroke="rgb(0,0,0)" /><text fill="black" x="2405.0" y="225.0">X35</text><polygon fill="rgb(150,150,150)" points="2690.0,130.0 2690.0,129.8 2687.5,129.8 2687.5,129.2 2685.0,129.2 2685.0,128.8 2675.0,128.8 2675.0,128.4 2672.5,128.4 2672.5,128.0 2670.0,128.0 2670.0,127.6 2667.5,127.6 2667.5,125.2 2665.0,125.2 2665.0,123.8 2662.5,123.8 2662.5,122.4 2660.0,122.4 2660.0,118.0 2657.5,118.0 2657.5,116.4 2655.0,116.4 2655.0,107.4 2652.5,107.4 2652.5,94.4 2650.0,94.4 2650.0,91.19999999999999 2647.5,91.19999999999999 2647.5,89.8 2645.0,89.8 2645.0,88.8 2642.5,88.8 2642.5,88.4 2640.0,88.4 2640.0,87.4 2637.5,87.4 2637.5,86.2 2635.0,86.2 2635.0,82.80000000000001 2632.5,82.80000000000001 2632.5,82.4 2630.0,82.4 2630.0,82.2 2627.5,82.2 2627.5,82.0 2625.0,82.0 2625.0,81.80000000000001 2620.0,81.80000000000001 2620.0,81.6 2572.5,81.6 2572.5,81.6 2525.0,81.6 2525.0,81.80000000000001 2520.0,81.80000000000001 2520.0,82.0 2517.5,82.0 2517.5,82.2 2515.0,82.2 2515.0,82.4 2512.5,82.4 2512.5,82.80000000000001 2510.0,82.80000000000001 2510.0,86.2 2507.5,86.2 2507.5,87.4 2505.0,87.4 2505.0,88.4 2502.5,88.4 2502.5,88.8 2500.0,88.8 2500.0,89.8 2497.5,89.8 2497.5,91.19999999999999 2495.0,91.19999999999999 2495.0,94.4 2492.5,94.4 2492.5,107.4 2490.0,107.4 2490.0,116.4 2487.5,116.4 2487.5,118.0 2485.0,118.0 2485.0,122.4 2482.5,122.4 2482.5,123.8 2480.0,123.8 2480.0,125.2 2477.5,125.2 2477.5,127.6 2475.0,127.6 2475.0,128.0 2472.5,128.0 2472.5,128.4 2470.0,128.4 2470.0,128.8 2460.0,128.8 2460.0,129.2 2457.5,129.2 2457.5,129.8 2455.0,129.8 2455.0,130.0 2455.0,130.0 2455.0,130.2 2457.5,130.2 2457.5,130.8 2460.0,130.8 2460.0,131.2 2470.0,131.2 2470.0,131.6 2472.5,131.6 2472.5,132.0 2475.0,132.0 2475.0,132.4 2477.5,132.4 2477.5,134.8 2480.0,134.8 2480.0,136.2 2482.5,136.2 2482.5,137.6 2485.0,137.6 2485.0,142.0 2487.5,142.0 2487.5,143.6 2490.0,143.6 2490.0,152.6 2492.5,152.6 2492.5,165.6 2495.0,165.6 2495.0,168.8 2497.5,168.8 2497.5,170.2 2500.0,170.2 2500.0,171.2 2502.5,171.2 2502.5,171.6 2505.0,171.6 2505.0,172.6 2507.5,172.6 2507.5,173.8 2510.0,173.8 2510.0,177.2 2512.5,177.2 2512.5,177.6 2515.0,177.6 2515.0,177.8 2517.5,177.8 2517.5,178.0 2520.0,178.0 2520.0,178.2 2525.0,178.2 2525.0,178.4 2572.5,178.4 2572.5,178.4 2620.0,178.4 2620.0,178.2 2625.0,178.2 2625.0,178.0 2627.5,178.0 2627.5,177.8 2630.0,177.8 2630.0,177.6 2632.5,177.6 2632.5,177.2 2635.0,177.2 2635.0,173.8 2637.5,173.8 2637.5,172.6 2640.0,172.6 2640.0,171.6 2642.5,171.6 2642.5,171.2 2645.0,171.2 2645.0,170.2 2647.5,170.2 2647.5,168.8 2650.0,168.8 2650.0,165.6 2652.5,165.6 2652.5,152.6 2655.0,152.6 2655.0,143.6 2657.5,143.6 2657.5,142.0 2660.0,142.0 2660.0,137.6 2662.5,137.6 2662.5,136.2 2665.0,136.2 2665.0,134.8 2667.5,134.8 2667.5,132.4 2670.0,132.4 2670.0,132.0 2672.5,132.0 2672.5,131.6 2675.0,131.6 2675.0,131.2 2685.0,131.2 2685.0,130.8 2687.5,130.8 2687.5,130.2 2690.0,130.2 2690.0,130.0" stroke="rgb(0,0,0)" /><text fill="black" x="2455.0" y="198.4">H36</text><polygon fill="rgb(150,255,255)" points="2735.0,55.0 2735.0,54.8 2727.5,54.8 2727.5,54.8 2720.0,54.8 2720.0,55.0 2720.0,55.0 2720.0,55.2 2727.5,55.2 2727.5,55.2 2735.0,55.2 2735.0,55.0" stroke="rgb(0,0,0)" /><text fill="black" x="2720.0" y="75.2">E37</text><polygon fill="rgb(150,150,150)" points="2740.0,205.0 2740.0,204.8 2730.0,204.8 2730.0,204.8 2720.0,204.8 2720.0,205.0 2720.0,205.0 2720.0,205.2 2730.0,205.2 2730.0,205.2 2740.0,205.2 2740.0,205.0" stroke="rgb(0,0,0)" /><text fill="black" x="2720.0" y="225.2">H38</text><polygon fill="rgb(150,150,150)" points="2790.0,130.0 2790.0,129.8 2780.0,129.8 2780.0,129.8 2770.0,129.8 2770.0,130.0 2770.0,130.0 2770.0,130.2 2780.0,130.2 2780.0,130.2 2790.0,130.2 2790.0,130.0" stroke="rgb(0,0,0)" /><text fill="black" x="2770.0" y="150.2">H39</text><polygon fill="rgb(150,150,150)" points="2865.0,130.0 2865.0,129.8 2857.5,129.8 2857.5,129.0 2855.0,129.0 2855.0,128.6 2852.5,128.6 2852.5,128.4 2850.0,128.4 2850.0,127.2 2842.5,127.2 2842.5,127.2 2835.0,127.2 2835.0,128.4 2832.5,128.4 2832.5,128.6 2830.0,128.6 2830.0,129.0 2827.5,129.0 2827.5,129.8 2820.0,129.8 2820.0,130.0 2820.0,130.0 2820.0,130.2 2827.5,130.2 2827.5,131.0 2830.0,131.0 2830.0,131.4 2832.5,131.4 2832.5,131.6 2835.0,131.6 2835.0,132.8 2842.5,132.8 2842.5,132.8 2850.0,132.8 2850.0,131.6 2852.5,131.6 2852.5,131.4 2855.0,131.4 2855.0,131.0 2857.5,131.0 2857.5,130.2 2865.0,130.2 2865.0,130.0" stroke="rgb(0,0,0)" /><text fill="black" x="2820.0" y="152.8">H40</text><polygon fill="rgb(150,255,255)" points="2905.0,130.0 2905.0,129.8 2902.5,129.8 2902.5,129.0 2900.0,129.0 2900.0,129.0 2897.5,129.0 2897.5,129.8 2895.0,129.8 2895.0,130.0 2895.0,130.0 2895.0,130.2 2897.5,130.2 2897.5,131.0 2900.0,131.0 2900.0,131.0 2902.5,131.0 2902.5,130.2 2905.0,130.2 2905.0,130.0" stroke="rgb(0,0,0)" /><text fill="black" x="2895.0" y="151.0">E41</text><polygon fill="rgb(150,150,150)" points="3000.0,130.0 3000.0,129.8 2982.5,129.8 2982.5,129.0 2980.0,129.0 2980.0,125.6 2977.5,125.6 2977.5,125.4 2975.0,125.4 2975.0,121.8 2967.5,121.8 2967.5,121.8 2960.0,121.8 2960.0,125.4 2957.5,125.4 2957.5,125.6 2955.0,125.6 2955.0,129.0 2952.5,129.0 2952.5,129.8 2935.0,129.8 2935.0,130.0 2935.0,130.0 2935.0,130.2 2952.5,130.2 2952.5,131.0 2955.0,131.0 2955.0,134.4 2957.5,134.4 2957.5,134.6 2960.0,134.6 2960.0,138.2 2967.5,138.2 2967.5,138.2 2975.0,138.2 2975.0,134.6 2977.5,134.6 2977.5,134.4 2980.0,134.4 2980.0,131.0 2982.5,131.0 2982.5,130.2 3000.0,130.2 3000.0,130.0" stroke="rgb(0,0,0)" /><text fill="black" x="2935.0" y="158.2">H42</text><polygon fill="rgb(150,255,255)" points="3035.0,130.0 3035.0,129.8 3032.5,129.8 3032.5,129.8 3030.0,129.8 3030.0,130.0 3030.0,130.0 3030.0,130.2 3032.5,130.2 3032.5,130.2 3035.0,130.2 3035.0,130.0" stroke="rgb(0,0,0)" /><text fill="black" x="3030.0" y="150.2">E43</text><polygon fill="rgb(150,150,150)" points="3065.0,130.0 3065.0,130.0 3065.0,130.0 3065.0,130.0" stroke="rgb(0,0,0)" /><text fill="black" x="3065.0" y="150.0">X44</text><polygon fill="rgb(150,255,255)" points="3100.0,130.0 3100.0,129.6 3097.5,129.6 3097.5,129.6 3095.0,129.6 3095.0,130.0 3095.0,130.0 3095.0,130.4 3097.5,130.4 3097.5,130.4 3100.0,130.4 3100.0,130.0" stroke="rgb(0,0,0)" /><text fill="black" x="3095.0" y="150.4">E45</text><polygon fill="rgb(150,150,150)" points="3205.0,130.0 3205.0,129.8 3185.0,129.8 3185.0,129.6 3167.5,129.6 3167.5,129.6 3150.0,129.6 3150.0,129.8 3130.0,129.8 3130.0,130.0 3130.0,130.0 3130.0,130.2 3150.0,130.2 3150.0,130.4 3167.5,130.4 3167.5,130.4 3185.0,130.4 3185.0,130.2 3205.0,130.2 3205.0,130.0" stroke="rgb(0,0,0)" /><text fill="black" x="3130.0" y="150.4">H46</text><polygon fill="rgb(150,150,150)" points="3235.0,130.0 3235.0,130.0 3235.0,130.0 3235.0,130.0" stroke="rgb(0,0,0)" /><text fill="black" x="3235.0" y="150.0">X47</text><polygon fill="rgb(150,150,150)" points="3265.0,130.0 3265.0,130.0 3265.0,130.0 3265.0,130.0" stroke="rgb(0,0,0)" /><text fill="black" x="3265.0" y="150.0">X48</text><polygon fill="rgb(150,150,150)" points="3405.0,130.0 3405.0,129.8 3402.5,129.8 3402.5,129.6 3397.5,129.6 3397.5,129.4 3387.5,129.4 3387.5,129.2 3385.0,129.2 3385.0,129.0 3377.5,129.0 3377.5,128.6 3350.0,128.6 3350.0,128.6 3322.5,128.6 3322.5,129.0 3315.0,129.0 3315.0,129.2 3312.5,129.2 3312.5,129.4 3302.5,129.4 3302.5,129.6 3297.5,129.6 3297.5,129.8 3295.0,129.8 3295.0,130.0 3295.0,130.0 3295.0,130.2 3297.5,130.2 3297.5,130.4 3302.5,130.4 3302.5,130.6 3312.5,130.6 3312.5,130.8 3315.0,130.8 3315.0,131.0 3322.5,131.0 3322.5,131.4 3350.0,131.4 3350.0,131.4 3377.5,131.4 3377.5,131.0 3385.0,131.0 3385.0,130.8 3387.5,130.8 3387.5,130.6 3397.5,130.6 3397.5,130.4 3402.5,130.4 3402.5,130.2 3405.0,130.2 3405.0,130.0" stroke="rgb(0,0,0)" /><text fill="black" x="3295.0" y="151.4">H49</text><polygon fill="rgb(150,255,255)" points="3450.0,130.0 3450.0,129.8 3442.5,129.8 3442.5,129.8 3435.0,129.8 3435.0,130.0 3435.0,130.0 3435.0,130.2 3442.5,130.2 3442.5,130.2 3450.0,130.2 3450.0,130.0" stroke="rgb(0,0,0)" /><text fill="black" x="3435.0" y="150.2">E50</text><polygon fill="rgb(150,150,150)" points="3645.0,130.0 3645.0,129.8 3622.5,129.8 3622.5,129.6 3617.5,129.6 3617.5,129.4 3615.0,129.4 3615.0,129.2 3562.5,129.2 3562.5,129.2 3510.0,129.2 3510.0,129.4 3507.5,129.4 3507.5,129.6 3502.5,129.6 3502.5,129.8 3480.0,129.8 3480.0,130.0 3480.0,130.0 3480.0,130.2 3502.5,130.2 3502.5,130.4 3507.5,130.4 3507.5,130.6 3510.0,130.6 3510.0,130.8 3562.5,130.8 3562.5,130.8 3615.0,130.8 3615.0,130.6 3617.5,130.6 3617.5,130.4 3622.5,130.4 3622.5,130.2 3645.0,130.2 3645.0,130.0" stroke="rgb(0,0,0)" /><text fill="black" x="3480.0" y="150.8">H51</text><polygon fill="rgb(150,150,150)" points="3895.0,130.0 3895.0,129.8 3892.5,129.8 3892.5,129.0 3890.0,129.0 3890.0,128.4 3887.5,128.4 3887.5,127.39999999999999 3882.5,127.39999999999999 3882.5,127.2 3880.0,127.2 3880.0,122.4 3877.5,122.4 3877.5,119.8 3875.0,119.8 3875.0,118.8 3872.5,118.8 3872.5,118.0 3870.0,118.0 3870.0,115.8 3867.5,115.8 3867.5,114.2 3865.0,114.2 3865.0,113.8 3862.5,113.8 3862.5,112.6 3860.0,112.6 3860.0,111.6 3857.5,111.6 3857.5,110.6 3855.0,110.6 3855.0,109.6 3852.5,109.6 3852.5,88.8 3850.0,88.8 3850.0,87.6 3847.5,87.6 3847.5,87.0 3845.0,87.0 3845.0,84.0 3827.5,84.0 3827.5,83.8 3822.5,83.8 3822.5,83.6 3815.0,83.6 3815.0,83.4 3785.0,83.4 3785.0,83.4 3755.0,83.4 3755.0,83.6 3747.5,83.6 3747.5,83.8 3742.5,83.8 3742.5,84.0 3725.0,84.0 3725.0,87.0 3722.5,87.0 3722.5,87.6 3720.0,87.6 3720.0,88.8 3717.5,88.8 3717.5,109.6 3715.0,109.6 3715.0,110.6 3712.5,110.6 3712.5,111.6 3710.0,111.6 3710.0,112.6 3707.5,112.6 3707.5,113.8 3705.0,113.8 3705.0,114.2 3702.5,114.2 3702.5,115.8 3700.0,115.8 3700.0,118.0 3697.5,118.0 3697.5,118.8 3695.0,118.8 3695.0,119.8 3692.5,119.8 3692.5,122.4 3690.0,122.4 3690.0,127.2 3687.5,127.2 3687.5,127.39999999999999 3682.5,127.39999999999999 3682.5,128.4 3680.0,128.4 3680.0,129.0 3677.5,129.0 3677.5,129.8 3675.0,129.8 3675.0,130.0 3675.0,130.0 3675.0,130.2 3677.5,130.2 3677.5,131.0 3680.0,131.0 3680.0,131.6 3682.5,131.6 3682.5,132.6 3687.5,132.6 3687.5,132.8 3690.0,132.8 3690.0,137.6 3692.5,137.6 3692.5,140.2 3695.0,140.2 3695.0,141.2 3697.5,141.2 3697.5,142.0 3700.0,142.0 3700.0,144.2 3702.5,144.2 3702.5,145.8 3705.0,145.8 3705.0,146.2 3707.5,146.2 3707.5,147.4 3710.0,147.4 3710.0,148.4 3712.5,148.4 3712.5,149.4 3715.0,149.4 3715.0,150.4 3717.5,150.4 3717.5,171.2 3720.0,171.2 3720.0,172.4 3722.5,172.4 3722.5,173.0 3725.0,173.0 3725.0,176.0 3742.5,176.0 3742.5,176.2 3747.5,176.2 3747.5,176.4 3755.0,176.4 3755.0,176.6 3785.0,176.6 3785.0,176.6 3815.0,176.6 3815.0,176.4 3822.5,176.4 3822.5,176.2 3827.5,176.2 3827.5,176.0 3845.0,176.0 3845.0,173.0 3847.5,173.0 3847.5,172.4 3850.0,172.4 3850.0,171.2 3852.5,171.2 3852.5,150.4 3855.0,150.4 3855.0,149.4 3857.5,149.4 3857.5,148.4 3860.0,148.4 3860.0,147.4 3862.5,147.4 3862.5,146.2 3865.0,146.2 3865.0,145.8 3867.5,145.8 3867.5,144.2 3870.0,144.2 3870.0,142.0 3872.5,142.0 3872.5,141.2 3875.0,141.2 3875.0,140.2 3877.5,140.2 3877.5,137.6 3880.0,137.6 3880.0,132.8 3882.5,132.8 3882.5,132.6 3887.5,132.6 3887.5,131.6 3890.0,131.6 3890.0,131.0 3892.5,131.0 3892.5,130.2 3895.0,130.2 3895.0,130.0" stroke="rgb(0,0,0)" /><text fill="black" x="3675.0" y="196.6">H52</text><polygon fill="rgb(255,255,150)" points="3930.0,130.0 3930.0,129.4 3927.5,129.4 3927.5,129.4 3925.0,129.4 3925.0,130.0 3925.0,130.0 3925.0,130.6 3927.5,130.6 3927.5,130.6 3930.0,130.6 3930.0,130.0" stroke="rgb(0,0,0)" /><text fill="black" x="3925.0" y="150.6">E53</text><polygon fill="rgb(150,150,150)" points="3990.0,130.0 3990.0,129.8 3987.5,129.8 3987.5,129.2 3985.0,129.2 3985.0,127.0 3982.5,127.0 3982.5,105.0 3975.0,105.0 3975.0,105.0 3967.5,105.0 3967.5,127.0 3965.0,127.0 3965.0,129.2 3962.5,129.2 3962.5,129.8 3960.0,129.8 3960.0,130.0 3960.0,130.0 3960.0,130.2 3962.5,130.2 3962.5,130.8 3965.0,130.8 3965.0,133.0 3967.5,133.0 3967.5,155.0 3975.0,155.0 3975.0,155.0 3982.5,155.0 3982.5,133.0 3985.0,133.0 3985.0,130.8 3987.5,130.8 3987.5,130.2 3990.0,130.2 3990.0,130.0" stroke="rgb(0,0,0)" /><text fill="black" x="3960.0" y="175.0">H54</text><polygon fill="rgb(255,255,150)" points="4025.0,55.0 4025.0,54.4 4022.5,54.4 4022.5,54.4 4020.0,54.4 4020.0,55.0 4020.0,55.0 4020.0,55.6 4022.5,55.6 4022.5,55.6 4025.0,55.6 4025.0,55.0" stroke="rgb(0,0,0)" /><text fill="black" x="4020.0" y="75.6">E55</text><polygon fill="rgb(150,150,150)" points="4105.0,205.0 4105.0,204.8 4072.5,204.8 4072.5,200.2 4070.0,200.2 4070.0,198.6 4062.5,198.6 4062.5,198.6 4055.0,198.6 4055.0,200.2 4052.5,200.2 4052.5,204.8 4020.0,204.8 4020.0,205.0 4020.0,205.0 4020.0,205.2 4052.5,205.2 4052.5,209.8 4055.0,209.8 4055.0,211.4 4062.5,211.4 4062.5,211.4 4070.0,211.4 4070.0,209.8 4072.5,209.8 4072.5,205.2 4105.0,205.2 4105.0,205.0" stroke="rgb(0,0,0)" /><text fill="black" x="4020.0" y="231.4">H56</text><polygon fill="rgb(150,150,150)" points="4320.0,130.0 4320.0,128.8 4317.5,128.8 4317.5,128.6 4312.5,128.6 4312.5,128.0 4310.0,128.0 4310.0,126.0 4307.5,126.0 4307.5,124.0 4305.0,124.0 4305.0,123.8 4302.5,123.8 4302.5,121.6 4300.0,121.6 4300.0,118.8 4297.5,118.8 4297.5,118.2 4295.0,118.2 4295.0,117.6 4292.5,117.6 4292.5,110.8 4290.0,110.8 4290.0,87.6 4287.5,87.6 4287.5,86.2 4285.0,86.2 4285.0,85.6 4282.5,85.6 4282.5,85.19999999999999 4280.0,85.19999999999999 4280.0,84.8 4277.5,84.8 4277.5,84.6 4272.5,84.6 4272.5,84.19999999999999 4270.0,84.19999999999999 4270.0,83.8 4260.0,83.8 4260.0,83.6 4227.5,83.6 4227.5,83.6 4195.0,83.6 4195.0,83.8 4185.0,83.8 4185.0,84.19999999999999 4182.5,84.19999999999999 4182.5,84.6 4177.5,84.6 4177.5,84.8 4175.0,84.8 4175.0,85.19999999999999 4172.5,85.19999999999999 4172.5,85.6 4170.0,85.6 4170.0,86.2 4167.5,86.2 4167.5,87.6 4165.0,87.6 4165.0,110.8 4162.5,110.8 4162.5,117.6 4160.0,117.6 4160.0,118.2 4157.5,118.2 4157.5,118.8 4155.0,118.8 4155.0,121.6 4152.5,121.6 4152.5,123.8 4150.0,123.8 4150.0,124.0 4147.5,124.0 4147.5,126.0 4145.0,126.0 4145.0,128.0 4142.5,128.0 4142.5,128.6 4137.5,128.6 4137.5,128.8 4135.0,128.8 4135.0,130.0 4135.0,130.0 4135.0,131.2 4137.5,131.2 4137.5,131.4 4142.5,131.4 4142.5,132.0 4145.0,132.0 4145.0,134.0 4147.5,134.0 4147.5,136.0 4150.0,136.0 4150.0,136.2 4152.5,136.2 4152.5,138.4 4155.0,138.4 4155.0,141.2 4157.5,141.2 4157.5,141.8 4160.0,141.8 4160.0,142.4 4162.5,142.4 4162.5,149.2 4165.0,149.2 4165.0,172.4 4167.5,172.4 4167.5,173.8 4170.0,173.8 4170.0,174.4 4172.5,174.4 4172.5,174.8 4175.0,174.8 4175.0,175.2 4177.5,175.2 4177.5,175.4 4182.5,175.4 4182.5,175.8 4185.0,175.8 4185.0,176.2 4195.0,176.2 4195.0,176.4 4227.5,176.4 4227.5,176.4 4260.0,176.4 4260.0,176.2 4270.0,176.2 4270.0,175.8 4272.5,175.8 4272.5,175.4 4277.5,175.4 4277.5,175.2 4280.0,175.2 4280.0,174.8 4282.5,174.8 4282.5,174.4 4285.0,174.4 4285.0,173.8 4287.5,173.8 4287.5,172.4 4290.0,172.4 4290.0,149.2 4292.5,149.2 4292.5,142.4 4295.0,142.4 4295.0,141.8 4297.5,141.8 4297.5,141.2 4300.0,141.2 4300.0,138.4 4302.5,138.4 4302.5,136.2 4305.0,136.2 4305.0,136.0 4307.5,136.0 4307.5,134.0 4310.0,134.0 4310.0,132.0 4312.5,132.0 4312.5,131.4 4317.5,131.4 4317.5,131.2 4320.0,131.2 4320.0,130.0" stroke="rgb(0,0,0)" /><text fill="black" x="4135.0" y="196.4">H57</text><polygon fill="rgb(150,150,150)" points="4425.0,130.0 4425.0,129.8 4417.5,129.8 4417.5,129.6 4410.0,129.6 4410.0,129.0 4405.0,129.0 4405.0,128.8 4387.5,128.8 4387.5,128.8 4370.0,128.8 4370.0,129.0 4365.0,129.0 4365.0,129.6 4357.5,129.6 4357.5,129.8 4350.0,129.8 4350.0,130.0 4350.0,130.0 4350.0,130.2 4357.5,130.2 4357.5,130.4 4365.0,130.4 4365.0,131.0 4370.0,131.0 4370.0,131.2 4387.5,131.2 4387.5,131.2 4405.0,131.2 4405.0,131.0 4410.0,131.0 4410.0,130.4 4417.5,130.4 4417.5,130.2 4425.0,130.2 4425.0,130.0" stroke="rgb(0,0,0)" /><text fill="black" x="4350.0" y="151.2">H58</text><polygon fill="rgb(150,150,150)" points="4455.0,55.0 4455.0,55.0 4455.0,55.0 4455.0,55.0" stroke="rgb(0,0,0)" /><text fill="black" x="4455.0" y="75.0">X59</text><polygon fill="rgb(150,150,150)" points="4575.0,205.0 4575.0,204.8 4572.5,204.8 4572.5,204.6 4562.5,204.6 4562.5,204.4 4555.0,204.4 4555.0,203.8 4552.5,203.8 4552.5,203.2 4550.0,203.2 4550.0,202.6 4545.0,202.6 4545.0,197.4 4542.5,197.4 4542.5,190.8 4540.0,190.8 4540.0,190.0 4537.5,190.0 4537.5,189.8 4532.5,189.8 4532.5,189.0 4530.0,189.0 4530.0,188.8 4515.0,188.8 4515.0,188.8 4500.0,188.8 4500.0,189.0 4497.5,189.0 4497.5,189.8 4492.5,189.8 4492.5,190.0 4490.0,190.0 4490.0,190.8 4487.5,190.8 4487.5,197.4 4485.0,197.4 4485.0,202.6 4480.0,202.6 4480.0,203.2 4477.5,203.2 4477.5,203.8 4475.0,203.8 4475.0,204.4 4467.5,204.4 4467.5,204.6 4457.5,204.6 4457.5,204.8 4455.0,204.8 4455.0,205.0 4455.0,205.0 4455.0,205.2 4457.5,205.2 4457.5,205.4 4467.5,205.4 4467.5,205.6 4475.0,205.6 4475.0,206.2 4477.5,206.2 4477.5,206.8 4480.0,206.8 4480.0,207.4 4485.0,207.4 4485.0,212.6 4487.5,212.6 4487.5,219.2 4490.0,219.2 4490.0,220.0 4492.5,220.0 4492.5,220.2 4497.5,220.2 4497.5,221.0 4500.0,221.0 4500.0,221.2 4515.0,221.2 4515.0,221.2 4530.0,221.2 4530.0,221.0 4532.5,221.0 4532.5,220.2 4537.5,220.2 4537.5,220.0 4540.0,220.0 4540.0,219.2 4542.5,219.2 4542.5,212.6 4545.0,212.6 4545.0,207.4 4550.0,207.4 4550.0,206.8 4552.5,206.8 4552.5,206.2 4555.0,206.2 4555.0,205.6 4562.5,205.6 4562.5,205.4 4572.5,205.4 4572.5,205.2 4575.0,205.2 4575.0,205.0" stroke="rgb(0,0,0)" /><text fill="black" x="4455.0" y="241.2">H60</text><polygon fill="rgb(150,150,150)" points="4605.0,55.0 4605.0,55.0 4605.0,55.0 4605.0,55.0" stroke="rgb(0,0,0)" /><text fill="black" x="4605.0" y="75.0">X61</text><polygon fill="rgb(150,150,150)" points="4625.0,205.0 4625.0,204.0 4615.0,204.0 4615.0,204.0 4605.0,204.0 4605.0,205.0 4605.0,205.0 4605.0,206.0 4615.0,206.0 4615.0,206.0 4625.0,206.0 4625.0,205.0" stroke="rgb(0,0,0)" /><text fill="black" x="4605.0" y="226.0">H62</text><polygon fill="rgb(150,150,150)" points="4720.0,130.0 4720.0,129.8 4695.0,129.8 4695.0,128.8 4687.5,128.8 4687.5,128.8 4680.0,128.8 4680.0,129.8 4655.0,129.8 4655.0,130.0 4655.0,130.0 4655.0,130.2 4680.0,130.2 4680.0,131.2 4687.5,131.2 4687.5,131.2 4695.0,131.2 4695.0,130.2 4720.0,130.2 4720.0,130.0" stroke="rgb(0,0,0)" /><text fill="black" x="4655.0" y="151.2">H63</text><polygon fill="rgb(150,150,150)" points="4800.0,130.0 4800.0,129.6 4797.5,129.6 4797.5,129.0 4785.0,129.0 4785.0,128.8 4782.5,128.8 4782.5,128.4 4775.0,128.4 4775.0,128.4 4767.5,128.4 4767.5,128.8 4765.0,128.8 4765.0,129.0 4752.5,129.0 4752.5,129.6 4750.0,129.6 4750.0,130.0 4750.0,130.0 4750.0,130.4 4752.5,130.4 4752.5,131.0 4765.0,131.0 4765.0,131.2 4767.5,131.2 4767.5,131.6 4775.0,131.6 4775.0,131.6 4782.5,131.6 4782.5,131.2 4785.0,131.2 4785.0,131.0 4797.5,131.0 4797.5,130.4 4800.0,130.4 4800.0,130.0" stroke="rgb(0,0,0)" /><text fill="black" x="4750.0" y="151.6">H64</text><polygon fill="rgb(150,150,150)" points="4885.0,130.0 4885.0,129.2 4882.5,129.2 4882.5,129.0 4880.0,129.0 4880.0,128.8 4877.5,128.8 4877.5,128.6 4875.0,128.6 4875.0,128.2 4872.5,128.2 4872.5,127.8 4870.0,127.8 4870.0,126.2 4867.5,126.2 4867.5,121.4 4865.0,121.4 4865.0,109.8 4857.5,109.8 4857.5,109.8 4850.0,109.8 4850.0,121.4 4847.5,121.4 4847.5,126.2 4845.0,126.2 4845.0,127.8 4842.5,127.8 4842.5,128.2 4840.0,128.2 4840.0,128.6 4837.5,128.6 4837.5,128.8 4835.0,128.8 4835.0,129.0 4832.5,129.0 4832.5,129.2 4830.0,129.2 4830.0,130.0 4830.0,130.0 4830.0,130.8 4832.5,130.8 4832.5,131.0 4835.0,131.0 4835.0,131.2 4837.5,131.2 4837.5,131.4 4840.0,131.4 4840.0,131.8 4842.5,131.8 4842.5,132.2 4845.0,132.2 4845.0,133.8 4847.5,133.8 4847.5,138.6 4850.0,138.6 4850.0,150.2 4857.5,150.2 4857.5,150.2 4865.0,150.2 4865.0,138.6 4867.5,138.6 4867.5,133.8 4870.0,133.8 4870.0,132.2 4872.5,132.2 4872.5,131.8 4875.0,131.8 4875.0,131.4 4877.5,131.4 4877.5,131.2 4880.0,131.2 4880.0,131.0 4882.5,131.0 4882.5,130.8 4885.0,130.8 4885.0,130.0" stroke="rgb(0,0,0)" /><text fill="black" x="4830.0" y="170.2">H65</text><path d="M 57.5,130.0 a 105.83467741935483,105.83467741935483 0 0,0 -45.0,-0.0" stroke="rgb(255,150,255)" stroke-width="2" /><path d="M 57.5,130.0 a 105.83467741935483,105.83467741935483 0 0,0 -45.0,-0.0" stroke="rgb(0,0,0)" stroke-width="0.2" /><path d="M 1140.0,130.0 a 3453.245017048589,3453.245017048589 0 0,0 -835.0,-0.0" stroke="rgb(150,255,150)" stroke-width="2" /><path d="M 1140.0,130.0 a 3453.245017048589,3453.245017048589 0 0,0 -835.0,-0.0" stroke="rgb(0,0,0)" stroke-width="0.2" /><path d="M 897.5,130.0 a 76.94602272727272,76.94602272727272 0 0,0 147.5,-0.0" stroke="rgb(150,255,150)" stroke-width="2" /><path d="M 897.5,130.0 a 76.94602272727272,76.94602272727272 0 0,0 147.5,-0.0" stroke="rgb(0,0,0)" stroke-width="0.2" /><path d="M 1270.0,130.0 a 806.6662812545167,806.6662812545167 0 0,0 -280.0,-0.0" stroke="rgb(255,150,150)" stroke-width="2" /><path d="M 1270.0,130.0 a 806.6662812545167,806.6662812545167 0 0,0 -280.0,-0.0" stroke="rgb(0,0,0)" stroke-width="0.2" /><path d="M 2142.5,130.0 a 5595.33358913294,5595.33358913294 0 0,0 -1152.5,-0.0" stroke="rgb(255,150,150)" stroke-width="2" /><path d="M 2142.5,130.0 a 5595.33358913294,5595.33358913294 0 0,0 -1152.5,-0.0" stroke="rgb(0,0,0)" stroke-width="0.2" /><path d="M 1140.0,130.0 a 234.10521689400997,234.10521689400997 0 0,0 -95.0,-0.0" stroke="rgb(150,255,150)" stroke-width="2" /><path d="M 1140.0,130.0 a 234.10521689400997,234.10521689400997 0 0,0 -95.0,-0.0" stroke="rgb(0,0,0)" stroke-width="0.2" /><path d="M 2900.0,130.0 a 7238.928438897722,7238.928438897722 0 0,0 -1357.5,-75.0" stroke="rgb(150,255,255)" stroke-width="2" /><path d="M 2900.0,130.0 a 7238.928438897722,7238.928438897722 0 0,0 -1357.5,-75.0" stroke="rgb(0,0,0)" stroke-width="0.2" /><path d="M 2250.0,130.0 a 1170.7141749230714,1170.7141749230714 0 0,0 -370.0,75.0" stroke="rgb(150,150,255)" stroke-width="2" /><path d="M 2250.0,130.0 a 1170.7141749230714,1170.7141749230714 0 0,0 -370.0,75.0" stroke="rgb(0,0,0)" stroke-width="0.2" /><path d="M 2900.0,130.0 a 502.94072618774794,502.94072618774794 0 0,0 -172.5,-75.0" stroke="rgb(150,255,255)" stroke-width="2" /><path d="M 2900.0,130.0 a 502.94072618774794,502.94072618774794 0 0,0 -172.5,-75.0" stroke="rgb(0,0,0)" stroke-width="0.2" /><path d="M 3442.5,130.0 a 2784.2791400230817,2784.2791400230817 0 0,0 -715.0,-75.0" stroke="rgb(150,255,255)" stroke-width="2" /><path d="M 3442.5,130.0 a 2784.2791400230817,2784.2791400230817 0 0,0 -715.0,-75.0" stroke="rgb(0,0,0)" stroke-width="0.2" /><path d="M 2900.0,130.0 a 116.15056818181819,116.15056818181819 0 0,0 197.5,-0.0" stroke="rgb(150,255,255)" stroke-width="2" /><path d="M 2900.0,130.0 a 116.15056818181819,116.15056818181819 0 0,0 197.5,-0.0" stroke="rgb(0,0,0)" stroke-width="0.2" /><path d="M 3097.5,130.0 a 155.79335178244577,155.79335178244577 0 0,0 -65.0,-0.0" stroke="rgb(150,255,255)" stroke-width="2" /><path d="M 3097.5,130.0 a 155.79335178244577,155.79335178244577 0 0,0 -65.0,-0.0" stroke="rgb(0,0,0)" stroke-width="0.2" /><path d="M 3927.5,130.0 a 60.79545454545455,60.79545454545455 0 0,0 95.0,-75.0" stroke="rgb(255,255,150)" stroke-width="2" /><path d="M 3927.5,130.0 a 60.79545454545455,60.79545454545455 0 0,0 95.0,-75.0" stroke="rgb(0,0,0)" stroke-width="0.2" /></svg>