<?xml version="1.0" encoding="utf-8" ?>
<svg baseProfile="full" height="100%" style="font-size:14;font-family:Sans, Arial;stroke-width:1;fill:none" version="1.1" width="100%" xmlns="http://www.w3.org/2000/svg" xmlns:ev="http://www.w3.org/2001/xml-events" xmlns:xlink="http://www.w3.org/1999/xlink"><defs /><rect fill="none" height="130.0" stroke="none" width="2090.0" x="0" y="0" /><line stroke="rgb(0,0,0)" x1="5.0" x2="65.0" y1="55.0" y2="55.0" /><line stroke="rgb(0,0,0)" x1="65.0" x2="85.0" y1="55.0" y2="55.0" /><line stroke="rgb(0,0,0)" x1="85.0" x2="90.0" y1="55.0" y2="55.0" /><line stroke="rgb(0,0,0)" x1="90.0" x2="280.0" y1="55.0" y2="55.0" /><line stroke="rgb(0,0,0)" x1="280.0" x2="300.0" y1="55.0" y2="55.0" /><line stroke="rgb(0,0,0)" x1="300.0" x2="305.0" y1="55.0" y2="55.0" /><line stroke="rgb(0,0,0)" x1="305.0" x2="335.0" y1="55.0" y2="55.0" /><line stroke="rgb(0,0,0)" x1="335.0" x2="355.0" y1="55.0" y2="55.0" /><line stroke="rgb(0,0,0)" x1="355.0" x2="360.0" y1="55.0" y2="55.0" /><line stroke="rgb(0,0,0)" x1="360.0" x2="535.0" y1="55.0" y2="55.0" /><line stroke="rgb(0,0,0)" x1="535.0" x2="555.0" y1="55.0" y2="55.0" /><line stroke="rgb(0,0,0)" x1="555.0" x2="560.0" y1="55.0" y2="55.0" /><line stroke="rgb(0,0,0)" x1="560.0" x2="595.0" y1="55.0" y2="55.0" /><line stroke="rgb(0,0,0)" x1="595.0" x2="615.0" y1="55.0" y2="55.0" /><line stroke="rgb(0,0,0)" x1="615.0" x2="620.0" y1="55.0" y2="55.0" /><line stroke="rgb(0,0,0)" x1="620.0" x2="655.0" y1="55.0" y2="55.0" /><line stroke="rgb(0,0,0)" x1="655.0" x2="675.0" y1="55.0" y2="55.0" /><line stroke="rgb(0,0,0)" x1="675.0" x2="680.0" y1="55.0" y2="55.0" /><line stroke="rgb(0,0,0)" x1="680.0" x2="880.0" y1="55.0" y2="55.0" /><line stroke="rgb(0,0,0)" x1="880.0" x2="900.0" y1="55.0" y2="55.0" /><line stroke="rgb(0,0,0)" x1="900.0" x2="905.0" y1="55.0" y2="55.0" /><line stroke="rgb(0,0,0)" x1="905.0" x2="1065.0" y1="55.0" y2="55.0" /><line stroke="rgb(0,0,0)" x1="1065.0" x2="1085.0" y1="55.0" y2="55.0" /><line stroke="rgb(0,0,0)" x1="1085.0" x2="1090.0" y1="55.0" y2="55.0" /><line stroke="rgb(0,0,0)" x1="1090.0" x2="1330.0" y1="55.0" y2="55.0" /><line stroke="rgb(0,0,0)" x1="1330.0" x2="1350.0" y1="55.0" y2="55.0" /><line stroke="rgb(0,0,0)" x1="1350.0" x2="1355.0" y1="55.0" y2="55.0" /><line stroke="rgb(0,0,0)" x1="1355.0" x2="1580.0" y1="55.0" y2="55.0" /><line stroke="rgb(0,0,0)" x1="1580.0" x2="1600.0" y1="55.0" y2="55.0" /><line stroke="rgb(0,0,0)" x1="1600.0" x2="1605.0" y1="55.0" y2="55.0" /><line stroke="rgb(0,0,0)" x1="1605.0" x2="1640.0" y1="55.0" y2="55.0" /><line stroke="rgb(0,0,0)" x1="1640.0" x2="1660.0" y1="55.0" y2="55.0" /><line stroke="rgb(0,0,0)" x1="1660.0" x2="1665.0" y1="55.0" y2="55.0" /><line stroke="rgb(0,0,0)" x1="1665.0" x2="1855.0" y1="55.0" y2="55.0" /><line stroke="rgb(0,0,0)" x1="1855.0" x2="1875.0" y1="55.0" y2="55.0" /><line stroke="rgb(0,0,0)" x1="1875.0" x2="1880.0" y1="55.0" y2="55.0" /><line stroke="rgb(0,0,0)" x1="1880.0" x2="2005.0" y1="55.0" y2="55.0" /><line stroke="rgb(0,0,0)" x1="2005.0" x2="2025.0" y1="55.0" y2="55.0" /><line stroke="rgb(0,0,0)" x1="2025.0" x2="2030.0" y1="55.0" y2="55.0" /><polygon fill="rgb(150,150,150)" points="60.0,55.0 60.0,53.6 55.0,53.6 55.0,53.199999999999996 47.5,53.199999999999996 47.5,53.0 45.0,53.0 45.0,51.800000000000004 42.5,51.800000000000004 42.5,49.6 40.0,49.6 40.0,44.2 32.5,44.2 32.5,44.2 25.0,44.2 25.0,49.6 22.5,49.6 22.5,51.800000000000004 20.0,51.800000000000004 20.0,53.0 17.5,53.0 17.5,53.199999999999996 10.0,53.199999999999996 10.0,53.6 5.0,53.6 5.0,55.0 5.0,55.0 5.0,56.4 10.0,56.4 10.0,56.800000000000004 17.5,56.800000000000004 17.5,57.0 20.0,57.0 20.0,58.199999999999996 22.5,58.199999999999996 22.5,60.4 25.0,60.4 25.0,65.8 32.5,65.8 32.5,65.8 40.0,65.8 40.0,60.4 42.5,60.4 42.5,58.199999999999996 45.0,58.199999999999996 45.0,57.0 47.5,57.0 47.5,56.800000000000004 55.0,56.800000000000004 55.0,56.4 60.0,56.4 60.0,55.0" stroke="rgb(0,0,0)" /><text fill="black" x="5.0" y="85.8">H4</text><polygon fill="rgb(150,150,150)" points="275.0,55.0 275.0,54.4 272.5,54.4 272.5,53.6 270.0,53.6 270.0,52.199999999999996 265.0,52.199999999999996 265.0,51.400000000000006 262.5,51.400000000000006 262.5,43.6 260.0,43.6 260.0,40.199999999999996 257.5,40.199999999999996 257.5,38.400000000000006 255.0,38.400000000000006 255.0,37.0 252.5,37.0 252.5,34.4 250.0,34.4 250.0,31.200000000000003 247.5,31.200000000000003 247.5,23.4 245.0,23.4 245.0,18.800000000000004 242.5,18.800000000000004 242.5,12.200000000000003 240.0,12.200000000000003 240.0,10.199999999999996 237.5,10.199999999999996 237.5,9.0 235.0,9.0 235.0,8.599999999999994 182.5,8.599999999999994 182.5,8.599999999999994 130.0,8.599999999999994 130.0,9.0 127.5,9.0 127.5,10.199999999999996 125.0,10.199999999999996 125.0,12.200000000000003 122.5,12.200000000000003 122.5,18.800000000000004 120.0,18.800000000000004 120.0,23.4 117.5,23.4 117.5,31.200000000000003 115.0,31.200000000000003 115.0,34.4 112.5,34.4 112.5,37.0 110.0,37.0 110.0,38.400000000000006 107.5,38.400000000000006 107.5,40.199999999999996 105.0,40.199999999999996 105.0,43.6 102.5,43.6 102.5,51.400000000000006 100.0,51.400000000000006 100.0,52.199999999999996 95.0,52.199999999999996 95.0,53.6 92.5,53.6 92.5,54.4 90.0,54.4 90.0,55.0 90.0,55.0 90.0,55.6 92.5,55.6 92.5,56.4 95.0,56.4 95.0,57.800000000000004 100.0,57.800000000000004 100.0,58.599999999999994 102.5,58.599999999999994 102.5,66.4 105.0,66.4 105.0,69.8 107.5,69.8 107.5,71.6 110.0,71.6 110.0,73.0 112.5,73.0 112.5,75.6 115.0,75.6 115.0,78.8 117.5,78.8 117.5,86.6 120.0,86.6 120.0,91.19999999999999 122.5,91.19999999999999 122.5,97.8 125.0,97.8 125.0,99.80000000000001 127.5,99.80000000000001 127.5,101.0 130.0,101.0 130.0,101.4 182.5,101.4 182.5,101.4 235.0,101.4 235.0,101.0 237.5,101.0 237.5,99.80000000000001 240.0,99.80000000000001 240.0,97.8 242.5,97.8 242.5,91.19999999999999 245.0,91.19999999999999 245.0,86.6 247.5,86.6 247.5,78.8 250.0,78.8 250.0,75.6 252.5,75.6 252.5,73.0 255.0,73.0 255.0,71.6 257.5,71.6 257.5,69.8 260.0,69.8 260.0,66.4 262.5,66.4 262.5,58.599999999999994 265.0,58.599999999999994 265.0,57.800000000000004 270.0,57.800000000000004 270.0,56.4 272.5,56.4 272.5,55.6 275.0,55.6 275.0,55.0" stroke="rgb(0,0,0)" /><text fill="black" x="90.0" y="121.4">H6</text><polygon fill="rgb(150,150,150)" points="330.0,55.0 330.0,54.8 327.5,54.8 327.5,48.4 325.0,48.4 325.0,39.2 317.5,39.2 317.5,39.2 310.0,39.2 310.0,48.4 307.5,48.4 307.5,54.8 305.0,54.8 305.0,55.0 305.0,55.0 305.0,55.2 307.5,55.2 307.5,61.6 310.0,61.6 310.0,70.8 317.5,70.8 317.5,70.8 325.0,70.8 325.0,61.6 327.5,61.6 327.5,55.2 330.0,55.2 330.0,55.0" stroke="rgb(0,0,0)" /><text fill="black" x="305.0" y="90.8">H7</text><polygon fill="rgb(150,150,150)" points="530.0,55.0 530.0,54.6 527.5,54.6 527.5,54.4 525.0,54.4 525.0,53.6 522.5,53.6 522.5,53.0 520.0,53.0 520.0,42.0 517.5,42.0 517.5,38.400000000000006 515.0,38.400000000000006 515.0,35.4 512.5,35.4 512.5,34.599999999999994 510.0,34.599999999999994 510.0,11.600000000000001 507.5,11.600000000000001 507.5,11.200000000000003 505.0,11.200000000000003 505.0,10.600000000000001 502.5,10.600000000000001 502.5,9.799999999999997 497.5,9.799999999999997 497.5,8.799999999999997 492.5,8.799999999999997 492.5,8.599999999999994 490.0,8.599999999999994 490.0,8.400000000000006 445.0,8.400000000000006 445.0,8.400000000000006 400.0,8.400000000000006 400.0,8.599999999999994 397.5,8.599999999999994 397.5,8.799999999999997 392.5,8.799999999999997 392.5,9.799999999999997 387.5,9.799999999999997 387.5,10.600000000000001 385.0,10.600000000000001 385.0,11.200000000000003 382.5,11.200000000000003 382.5,11.600000000000001 380.0,11.600000000000001 380.0,34.599999999999994 377.5,34.599999999999994 377.5,35.4 375.0,35.4 375.0,38.400000000000006 372.5,38.400000000000006 372.5,42.0 370.0,42.0 370.0,53.0 367.5,53.0 367.5,53.6 365.0,53.6 365.0,54.4 362.5,54.4 362.5,54.6 360.0,54.6 360.0,55.0 360.0,55.0 360.0,55.4 362.5,55.4 362.5,55.6 365.0,55.6 365.0,56.4 367.5,56.4 367.5,57.0 370.0,57.0 370.0,68.0 372.5,68.0 372.5,71.6 375.0,71.6 375.0,74.6 377.5,74.6 377.5,75.4 380.0,75.4 380.0,98.4 382.5,98.4 382.5,98.8 385.0,98.8 385.0,99.4 387.5,99.4 387.5,100.2 392.5,100.2 392.5,101.2 397.5,101.2 397.5,101.4 400.0,101.4 400.0,101.6 445.0,101.6 445.0,101.6 490.0,101.6 490.0,101.4 492.5,101.4 492.5,101.2 497.5,101.2 497.5,100.2 502.5,100.2 502.5,99.4 505.0,99.4 505.0,98.8 507.5,98.8 507.5,98.4 510.0,98.4 510.0,75.4 512.5,75.4 512.5,74.6 515.0,74.6 515.0,71.6 517.5,71.6 517.5,68.0 520.0,68.0 520.0,57.0 522.5,57.0 522.5,56.4 525.0,56.4 525.0,55.6 527.5,55.6 527.5,55.4 530.0,55.4 530.0,55.0" stroke="rgb(0,0,0)" /><text fill="black" x="360.0" y="121.6">H8</text><polygon fill="rgb(255,150,150)" points="590.0,55.0 590.0,45.2 587.5,45.2 587.5,39.599999999999994 585.0,39.599999999999994 585.0,34.8 582.5,34.8 582.5,31.6 580.0,31.6 580.0,29.6 577.5,29.6 577.5,28.799999999999997 575.0,28.799999999999997 575.0,28.799999999999997 572.5,28.799999999999997 572.5,29.6 570.0,29.6 570.0,31.6 567.5,31.6 567.5,34.8 565.0,34.8 565.0,39.599999999999994 562.5,39.599999999999994 562.5,45.2 560.0,45.2 560.0,55.0 560.0,55.0 560.0,64.8 562.5,64.8 562.5,70.4 565.0,70.4 565.0,75.2 567.5,75.2 567.5,78.4 570.0,78.4 570.0,80.4 572.5,80.4 572.5,81.2 575.0,81.2 575.0,81.2 577.5,81.2 577.5,80.4 580.0,80.4 580.0,78.4 582.5,78.4 582.5,75.2 585.0,75.2 585.0,70.4 587.5,70.4 587.5,64.8 590.0,64.8 590.0,55.0" stroke="rgb(0,0,0)" /><text fill="black" x="560.0" y="101.2">E12</text><polygon fill="rgb(255,150,150)" points="650.0,55.0 650.0,45.2 647.5,45.2 647.5,39.599999999999994 645.0,39.599999999999994 645.0,34.8 642.5,34.8 642.5,32.2 640.0,32.2 640.0,31.200000000000003 637.5,31.200000000000003 637.5,31.0 635.0,31.0 635.0,31.0 632.5,31.0 632.5,31.200000000000003 630.0,31.200000000000003 630.0,32.2 627.5,32.2 627.5,34.8 625.0,34.8 625.0,39.599999999999994 622.5,39.599999999999994 622.5,45.2 620.0,45.2 620.0,55.0 620.0,55.0 620.0,64.8 622.5,64.8 622.5,70.4 625.0,70.4 625.0,75.2 627.5,75.2 627.5,77.8 630.0,77.8 630.0,78.8 632.5,78.8 632.5,79.0 635.0,79.0 635.0,79.0 637.5,79.0 637.5,78.8 640.0,78.8 640.0,77.8 642.5,77.8 642.5,75.2 645.0,75.2 645.0,70.4 647.5,70.4 647.5,64.8 650.0,64.8 650.0,55.0" stroke="rgb(0,0,0)" /><text fill="black" x="620.0" y="99.0">E17</text><polygon fill="rgb(150,150,150)" points="875.0,55.0 875.0,54.8 865.0,54.8 865.0,42.4 862.5,42.4 862.5,38.2 860.0,38.2 860.0,38.0 857.5,38.0 857.5,37.400000000000006 847.5,37.400000000000006 847.5,37.0 845.0,37.0 845.0,36.8 842.5,36.8 842.5,36.2 840.0,36.2 840.0,35.8 837.5,35.8 837.5,35.599999999999994 835.0,35.599999999999994 835.0,32.6 832.5,32.6 832.5,9.199999999999996 830.0,9.199999999999996 830.0,8.400000000000006 777.5,8.400000000000006 777.5,8.400000000000006 725.0,8.400000000000006 725.0,9.199999999999996 722.5,9.199999999999996 722.5,32.6 720.0,32.6 720.0,35.599999999999994 717.5,35.599999999999994 717.5,35.8 715.0,35.8 715.0,36.2 712.5,36.2 712.5,36.8 710.0,36.8 710.0,37.0 707.5,37.0 707.5,37.400000000000006 697.5,37.400000000000006 697.5,38.0 695.0,38.0 695.0,38.2 692.5,38.2 692.5,42.4 690.0,42.4 690.0,54.8 680.0,54.8 680.0,55.0 680.0,55.0 680.0,55.2 690.0,55.2 690.0,67.6 692.5,67.6 692.5,71.8 695.0,71.8 695.0,72.0 697.5,72.0 697.5,72.6 707.5,72.6 707.5,73.0 710.0,73.0 710.0,73.2 712.5,73.2 712.5,73.8 715.0,73.8 715.0,74.2 717.5,74.2 717.5,74.4 720.0,74.4 720.0,77.4 722.5,77.4 722.5,100.80000000000001 725.0,100.80000000000001 725.0,101.6 777.5,101.6 777.5,101.6 830.0,101.6 830.0,100.80000000000001 832.5,100.80000000000001 832.5,77.4 835.0,77.4 835.0,74.4 837.5,74.4 837.5,74.2 840.0,74.2 840.0,73.8 842.5,73.8 842.5,73.2 845.0,73.2 845.0,73.0 847.5,73.0 847.5,72.6 857.5,72.6 857.5,72.0 860.0,72.0 860.0,71.8 862.5,71.8 862.5,67.6 865.0,67.6 865.0,55.2 875.0,55.2 875.0,55.0" stroke="rgb(0,0,0)" /><text fill="black" x="680.0" y="121.6">H18</text><polygon fill="rgb(150,150,150)" points="1060.0,55.0 1060.0,54.6 1057.5,54.6 1057.5,53.199999999999996 1055.0,53.199999999999996 1055.0,53.0 1052.5,53.0 1052.5,51.2 1050.0,51.2 1050.0,51.0 1047.5,51.0 1047.5,50.4 1045.0,50.4 1045.0,42.4 1042.5,42.4 1042.5,35.8 1040.0,35.8 1040.0,11.200000000000003 1037.5,11.200000000000003 1037.5,10.799999999999997 1032.5,10.799999999999997 1032.5,9.0 1025.0,9.0 1025.0,8.599999999999994 1012.5,8.599999999999994 1012.5,8.400000000000006 982.5,8.400000000000006 982.5,8.400000000000006 952.5,8.400000000000006 952.5,8.599999999999994 940.0,8.599999999999994 940.0,9.0 932.5,9.0 932.5,10.799999999999997 927.5,10.799999999999997 927.5,11.200000000000003 925.0,11.200000000000003 925.0,35.8 922.5,35.8 922.5,42.4 920.0,42.4 920.0,50.4 917.5,50.4 917.5,51.0 915.0,51.0 915.0,51.2 912.5,51.2 912.5,53.0 910.0,53.0 910.0,53.199999999999996 907.5,53.199999999999996 907.5,54.6 905.0,54.6 905.0,55.0 905.0,55.0 905.0,55.4 907.5,55.4 907.5,56.800000000000004 910.0,56.800000000000004 910.0,57.0 912.5,57.0 912.5,58.8 915.0,58.8 915.0,59.0 917.5,59.0 917.5,59.6 920.0,59.6 920.0,67.6 922.5,67.6 922.5,74.2 925.0,74.2 925.0,98.8 927.5,98.8 927.5,99.2 932.5,99.2 932.5,101.0 940.0,101.0 940.0,101.4 952.5,101.4 952.5,101.6 982.5,101.6 982.5,101.6 1012.5,101.6 1012.5,101.4 1025.0,101.4 1025.0,101.0 1032.5,101.0 1032.5,99.2 1037.5,99.2 1037.5,98.8 1040.0,98.8 1040.0,74.2 1042.5,74.2 1042.5,67.6 1045.0,67.6 1045.0,59.6 1047.5,59.6 1047.5,59.0 1050.0,59.0 1050.0,58.8 1052.5,58.8 1052.5,57.0 1055.0,57.0 1055.0,56.800000000000004 1057.5,56.800000000000004 1057.5,55.4 1060.0,55.4 1060.0,55.0" stroke="rgb(0,0,0)" /><text fill="black" x="905.0" y="121.6">H22</text><polygon fill="rgb(150,150,150)" points="1325.0,55.0 1325.0,54.8 1322.5,54.8 1322.5,54.2 1320.0,54.2 1320.0,53.8 1310.0,53.8 1310.0,53.4 1307.5,53.4 1307.5,53.0 1305.0,53.0 1305.0,52.599999999999994 1302.5,52.599999999999994 1302.5,50.2 1300.0,50.2 1300.0,48.8 1297.5,48.8 1297.5,47.4 1295.0,47.4 1295.0,43.0 1292.5,43.0 1292.5,41.4 1290.0,41.4 1290.0,32.400000000000006 1287.5,32.400000000000006 1287.5,19.4 1285.0,19.4 1285.0,16.199999999999996 1282.5,16.199999999999996 1282.5,14.799999999999997 1280.0,14.799999999999997 1280.0,13.799999999999997 1277.5,13.799999999999997 1277.5,13.399999999999999 1275.0,13.399999999999999 1275.0,12.399999999999999 1272.5,12.399999999999999 1272.5,11.200000000000003 1270.0,11.200000000000003 1270.0,7.800000000000004 1267.5,7.800000000000004 1267.5,7.400000000000006 1265.0,7.400000000000006 1265.0,7.200000000000003 1262.5,7.200000000000003 1262.5,7.0 1260.0,7.0 1260.0,6.800000000000004 1255.0,6.800000000000004 1255.0,6.600000000000001 1207.5,6.600000000000001 1207.5,6.600000000000001 1160.0,6.600000000000001 1160.0,6.800000000000004 1155.0,6.800000000000004 1155.0,7.0 1152.5,7.0 1152.5,7.200000000000003 1150.0,7.200000000000003 1150.0,7.400000000000006 1147.5,7.400000000000006 1147.5,7.800000000000004 1145.0,7.800000000000004 1145.0,11.200000000000003 1142.5,11.200000000000003 1142.5,12.399999999999999 1140.0,12.399999999999999 1140.0,13.399999999999999 1137.5,13.399999999999999 1137.5,13.799999999999997 1135.0,13.799999999999997 1135.0,14.799999999999997 1132.5,14.799999999999997 1132.5,16.199999999999996 1130.0,16.199999999999996 1130.0,19.4 1127.5,19.4 1127.5,32.400000000000006 1125.0,32.400000000000006 1125.0,41.4 1122.5,41.4 1122.5,43.0 1120.0,43.0 1120.0,47.4 1117.5,47.4 1117.5,48.8 1115.0,48.8 1115.0,50.2 1112.5,50.2 1112.5,52.599999999999994 1110.0,52.599999999999994 1110.0,53.0 1107.5,53.0 1107.5,53.4 1105.0,53.4 1105.0,53.8 1095.0,53.8 1095.0,54.2 1092.5,54.2 1092.5,54.8 1090.0,54.8 1090.0,55.0 1090.0,55.0 1090.0,55.2 1092.5,55.2 1092.5,55.8 1095.0,55.8 1095.0,56.2 1105.0,56.2 1105.0,56.6 1107.5,56.6 1107.5,57.0 1110.0,57.0 1110.0,57.400000000000006 1112.5,57.400000000000006 1112.5,59.8 1115.0,59.8 1115.0,61.2 1117.5,61.2 1117.5,62.6 1120.0,62.6 1120.0,67.0 1122.5,67.0 1122.5,68.6 1125.0,68.6 1125.0,77.6 1127.5,77.6 1127.5,90.6 1130.0,90.6 1130.0,93.80000000000001 1132.5,93.80000000000001 1132.5,95.2 1135.0,95.2 1135.0,96.2 1137.5,96.2 1137.5,96.6 1140.0,96.6 1140.0,97.6 1142.5,97.6 1142.5,98.8 1145.0,98.8 1145.0,102.19999999999999 1147.5,102.19999999999999 1147.5,102.6 1150.0,102.6 1150.0,102.8 1152.5,102.8 1152.5,103.0 1155.0,103.0 1155.0,103.19999999999999 1160.0,103.19999999999999 1160.0,103.4 1207.5,103.4 1207.5,103.4 1255.0,103.4 1255.0,103.19999999999999 1260.0,103.19999999999999 1260.0,103.0 1262.5,103.0 1262.5,102.8 1265.0,102.8 1265.0,102.6 1267.5,102.6 1267.5,102.19999999999999 1270.0,102.19999999999999 1270.0,98.8 1272.5,98.8 1272.5,97.6 1275.0,97.6 1275.0,96.6 1277.5,96.6 1277.5,96.2 1280.0,96.2 1280.0,95.2 1282.5,95.2 1282.5,93.80000000000001 1285.0,93.80000000000001 1285.0,90.6 1287.5,90.6 1287.5,77.6 1290.0,77.6 1290.0,68.6 1292.5,68.6 1292.5,67.0 1295.0,67.0 1295.0,62.6 1297.5,62.6 1297.5,61.2 1300.0,61.2 1300.0,59.8 1302.5,59.8 1302.5,57.400000000000006 1305.0,57.400000000000006 1305.0,57.0 1307.5,57.0 1307.5,56.6 1310.0,56.6 1310.0,56.2 1320.0,56.2 1320.0,55.8 1322.5,55.8 1322.5,55.2 1325.0,55.2 1325.0,55.0" stroke="rgb(0,0,0)" /><text fill="black" x="1090.0" y="123.4">H36</text><polygon fill="rgb(150,150,150)" points="1575.0,55.0 1575.0,54.8 1572.5,54.8 1572.5,54.0 1570.0,54.0 1570.0,53.4 1567.5,53.4 1567.5,52.4 1562.5,52.4 1562.5,52.199999999999996 1560.0,52.199999999999996 1560.0,47.4 1557.5,47.4 1557.5,44.800000000000004 1555.0,44.800000000000004 1555.0,43.8 1552.5,43.8 1552.5,43.0 1550.0,43.0 1550.0,40.8 1547.5,40.8 1547.5,39.2 1545.0,39.2 1545.0,38.8 1542.5,38.8 1542.5,37.6 1540.0,37.6 1540.0,36.6 1537.5,36.6 1537.5,35.599999999999994 1535.0,35.599999999999994 1535.0,34.599999999999994 1532.5,34.599999999999994 1532.5,13.799999999999997 1530.0,13.799999999999997 1530.0,12.600000000000001 1527.5,12.600000000000001 1527.5,12.0 1525.0,12.0 1525.0,9.0 1507.5,9.0 1507.5,8.799999999999997 1502.5,8.799999999999997 1502.5,8.599999999999994 1495.0,8.599999999999994 1495.0,8.400000000000006 1465.0,8.400000000000006 1465.0,8.400000000000006 1435.0,8.400000000000006 1435.0,8.599999999999994 1427.5,8.599999999999994 1427.5,8.799999999999997 1422.5,8.799999999999997 1422.5,9.0 1405.0,9.0 1405.0,12.0 1402.5,12.0 1402.5,12.600000000000001 1400.0,12.600000000000001 1400.0,13.799999999999997 1397.5,13.799999999999997 1397.5,34.599999999999994 1395.0,34.599999999999994 1395.0,35.599999999999994 1392.5,35.599999999999994 1392.5,36.6 1390.0,36.6 1390.0,37.6 1387.5,37.6 1387.5,38.8 1385.0,38.8 1385.0,39.2 1382.5,39.2 1382.5,40.8 1380.0,40.8 1380.0,43.0 1377.5,43.0 1377.5,43.8 1375.0,43.8 1375.0,44.800000000000004 1372.5,44.800000000000004 1372.5,47.4 1370.0,47.4 1370.0,52.199999999999996 1367.5,52.199999999999996 1367.5,52.4 1362.5,52.4 1362.5,53.4 1360.0,53.4 1360.0,54.0 1357.5,54.0 1357.5,54.8 1355.0,54.8 1355.0,55.0 1355.0,55.0 1355.0,55.2 1357.5,55.2 1357.5,56.0 1360.0,56.0 1360.0,56.6 1362.5,56.6 1362.5,57.6 1367.5,57.6 1367.5,57.800000000000004 1370.0,57.800000000000004 1370.0,62.6 1372.5,62.6 1372.5,65.2 1375.0,65.2 1375.0,66.2 1377.5,66.2 1377.5,67.0 1380.0,67.0 1380.0,69.2 1382.5,69.2 1382.5,70.8 1385.0,70.8 1385.0,71.2 1387.5,71.2 1387.5,72.4 1390.0,72.4 1390.0,73.4 1392.5,73.4 1392.5,74.4 1395.0,74.4 1395.0,75.4 1397.5,75.4 1397.5,96.2 1400.0,96.2 1400.0,97.4 1402.5,97.4 1402.5,98.0 1405.0,98.0 1405.0,101.0 1422.5,101.0 1422.5,101.2 1427.5,101.2 1427.5,101.4 1435.0,101.4 1435.0,101.6 1465.0,101.6 1465.0,101.6 1495.0,101.6 1495.0,101.4 1502.5,101.4 1502.5,101.2 1507.5,101.2 1507.5,101.0 1525.0,101.0 1525.0,98.0 1527.5,98.0 1527.5,97.4 1530.0,97.4 1530.0,96.2 1532.5,96.2 1532.5,75.4 1535.0,75.4 1535.0,74.4 1537.5,74.4 1537.5,73.4 1540.0,73.4 1540.0,72.4 1542.5,72.4 1542.5,71.2 1545.0,71.2 1545.0,70.8 1547.5,70.8 1547.5,69.2 1550.0,69.2 1550.0,67.0 1552.5,67.0 1552.5,66.2 1555.0,66.2 1555.0,65.2 1557.5,65.2 1557.5,62.6 1560.0,62.6 1560.0,57.800000000000004 1562.5,57.800000000000004 1562.5,57.6 1567.5,57.6 1567.5,56.6 1570.0,56.6 1570.0,56.0 1572.5,56.0 1572.5,55.2 1575.0,55.2 1575.0,55.0" stroke="rgb(0,0,0)" /><text fill="black" x="1355.0" y="121.6">H52</text><polygon fill="rgb(150,150,150)" points="1635.0,55.0 1635.0,54.8 1632.5,54.8 1632.5,54.2 1630.0,54.2 1630.0,52.0 1627.5,52.0 1627.5,30.0 1620.0,30.0 1620.0,30.0 1612.5,30.0 1612.5,52.0 1610.0,52.0 1610.0,54.2 1607.5,54.2 1607.5,54.8 1605.0,54.8 1605.0,55.0 1605.0,55.0 1605.0,55.2 1607.5,55.2 1607.5,55.8 1610.0,55.8 1610.0,58.0 1612.5,58.0 1612.5,80.0 1620.0,80.0 1620.0,80.0 1627.5,80.0 1627.5,58.0 1630.0,58.0 1630.0,55.8 1632.5,55.8 1632.5,55.2 1635.0,55.2 1635.0,55.0" stroke="rgb(0,0,0)" /><text fill="black" x="1605.0" y="100.0">H54</text><polygon fill="rgb(150,150,150)" points="1850.0,55.0 1850.0,53.8 1847.5,53.8 1847.5,53.6 1842.5,53.6 1842.5,53.0 1840.0,53.0 1840.0,51.0 1837.5,51.0 1837.5,49.0 1835.0,49.0 1835.0,48.8 1832.5,48.8 1832.5,46.599999999999994 1830.0,46.599999999999994 1830.0,43.8 1827.5,43.8 1827.5,43.2 1825.0,43.2 1825.0,42.6 1822.5,42.6 1822.5,35.8 1820.0,35.8 1820.0,12.600000000000001 1817.5,12.600000000000001 1817.5,11.200000000000003 1815.0,11.200000000000003 1815.0,10.600000000000001 1812.5,10.600000000000001 1812.5,10.199999999999996 1810.0,10.199999999999996 1810.0,9.799999999999997 1807.5,9.799999999999997 1807.5,9.600000000000001 1802.5,9.600000000000001 1802.5,9.199999999999996 1800.0,9.199999999999996 1800.0,8.799999999999997 1790.0,8.799999999999997 1790.0,8.599999999999994 1757.5,8.599999999999994 1757.5,8.599999999999994 1725.0,8.599999999999994 1725.0,8.799999999999997 1715.0,8.799999999999997 1715.0,9.199999999999996 1712.5,9.199999999999996 1712.5,9.600000000000001 1707.5,9.600000000000001 1707.5,9.799999999999997 1705.0,9.799999999999997 1705.0,10.199999999999996 1702.5,10.199999999999996 1702.5,10.600000000000001 1700.0,10.600000000000001 1700.0,11.200000000000003 1697.5,11.200000000000003 1697.5,12.600000000000001 1695.0,12.600000000000001 1695.0,35.8 1692.5,35.8 1692.5,42.6 1690.0,42.6 1690.0,43.2 1687.5,43.2 1687.5,43.8 1685.0,43.8 1685.0,46.599999999999994 1682.5,46.599999999999994 1682.5,48.8 1680.0,48.8 1680.0,49.0 1677.5,49.0 1677.5,51.0 1675.0,51.0 1675.0,53.0 1672.5,53.0 1672.5,53.6 1667.5,53.6 1667.5,53.8 1665.0,53.8 1665.0,55.0 1665.0,55.0 1665.0,56.2 1667.5,56.2 1667.5,56.4 1672.5,56.4 1672.5,57.0 1675.0,57.0 1675.0,59.0 1677.5,59.0 1677.5,61.0 1680.0,61.0 1680.0,61.2 1682.5,61.2 1682.5,63.400000000000006 1685.0,63.400000000000006 1685.0,66.2 1687.5,66.2 1687.5,66.8 1690.0,66.8 1690.0,67.4 1692.5,67.4 1692.5,74.2 1695.0,74.2 1695.0,97.4 1697.5,97.4 1697.5,98.8 1700.0,98.8 1700.0,99.4 1702.5,99.4 1702.5,99.80000000000001 1705.0,99.80000000000001 1705.0,100.2 1707.5,100.2 1707.5,100.4 1712.5,100.4 1712.5,100.80000000000001 1715.0,100.80000000000001 1715.0,101.2 1725.0,101.2 1725.0,101.4 1757.5,101.4 1757.5,101.4 1790.0,101.4 1790.0,101.2 1800.0,101.2 1800.0,100.80000000000001 1802.5,100.80000000000001 1802.5,100.4 1807.5,100.4 1807.5,100.2 1810.0,100.2 1810.0,99.80000000000001 1812.5,99.80000000000001 1812.5,99.4 1815.0,99.4 1815.0,98.8 1817.5,98.8 1817.5,97.4 1820.0,97.4 1820.0,74.2 1822.5,74.2 1822.5,67.4 1825.0,67.4 1825.0,66.8 1827.5,66.8 1827.5,66.2 1830.0,66.2 1830.0,63.400000000000006 1832.5,63.400000000000006 1832.5,61.2 1835.0,61.2 1835.0,61.0 1837.5,61.0 1837.5,59.0 1840.0,59.0 1840.0,57.0 1842.5,57.0 1842.5,56.4 1847.5,56.4 1847.5,56.2 1850.0,56.2 1850.0,55.0" stroke="rgb(0,0,0)" /><text fill="black" x="1665.0" y="121.4">H57</text><polygon fill="rgb(150,150,150)" points="2000.0,55.0 2000.0,54.8 1997.5,54.8 1997.5,54.6 1987.5,54.6 1987.5,54.4 1980.0,54.4 1980.0,53.8 1977.5,53.8 1977.5,53.199999999999996 1975.0,53.199999999999996 1975.0,52.599999999999994 1970.0,52.599999999999994 1970.0,47.4 1967.5,47.4 1967.5,40.8 1965.0,40.8 1965.0,40.0 1962.5,40.0 1962.5,39.8 1957.5,39.8 1957.5,39.0 1955.0,39.0 1955.0,38.8 1940.0,38.8 1940.0,38.8 1925.0,38.8 1925.0,39.0 1922.5,39.0 1922.5,39.8 1917.5,39.8 1917.5,40.0 1915.0,40.0 1915.0,40.8 1912.5,40.8 1912.5,47.4 1910.0,47.4 1910.0,52.599999999999994 1905.0,52.599999999999994 1905.0,53.199999999999996 1902.5,53.199999999999996 1902.5,53.8 1900.0,53.8 1900.0,54.4 1892.5,54.4 1892.5,54.6 1882.5,54.6 1882.5,54.8 1880.0,54.8 1880.0,55.0 1880.0,55.0 1880.0,55.2 1882.5,55.2 1882.5,55.4 1892.5,55.4 1892.5,55.6 1900.0,55.6 1900.0,56.2 1902.5,56.2 1902.5,56.800000000000004 1905.0,56.800000000000004 1905.0,57.400000000000006 1910.0,57.400000000000006 1910.0,62.6 1912.5,62.6 1912.5,69.2 1915.0,69.2 1915.0,70.0 1917.5,70.0 1917.5,70.2 1922.5,70.2 1922.5,71.0 1925.0,71.0 1925.0,71.2 1940.0,71.2 1940.0,71.2 1955.0,71.2 1955.0,71.0 1957.5,71.0 1957.5,70.2 1962.5,70.2 1962.5,70.0 1965.0,70.0 1965.0,69.2 1967.5,69.2 1967.5,62.6 1970.0,62.6 1970.0,57.400000000000006 1975.0,57.400000000000006 1975.0,56.800000000000004 1977.5,56.800000000000004 1977.5,56.2 1980.0,56.2 1980.0,55.6 1987.5,55.6 1987.5,55.4 1997.5,55.4 1997.5,55.2 2000.0,55.2 2000.0,55.0" stroke="rgb(0,0,0)" /><text fill="black" x="1880.0" y="91.2">H60</text><polygon fill="rgb(150,150,150)" points="2085.0,55.0 2085.0,54.2 2082.5,54.2 2082.5,54.0 2080.0,54.0 2080.0,53.8 2077.5,53.8 2077.5,53.6 2075.0,53.6 2075.0,53.199999999999996 2072.5,53.199999999999996 2072.5,52.8 2070.0,52.8 2070.0,51.2 2067.5,51.2 2067.5,46.4 2065.0,46.4 2065.0,34.8 2057.5,34.8 2057.5,34.8 2050.0,34.8 2050.0,46.4 2047.5,46.4 2047.5,51.2 2045.0,51.2 2045.0,52.8 2042.5,52.8 2042.5,53.199999999999996 2040.0,53.199999999999996 2040.0,53.6 2037.5,53.6 2037.5,53.8 2035.0,53.8 2035.0,54.0 2032.5,54.0 2032.5,54.2 2030.0,54.2 2030.0,55.0 2030.0,55.0 2030.0,55.8 2032.5,55.8 2032.5,56.0 2035.0,56.0 2035.0,56.2 2037.5,56.2 2037.5,56.4 2040.0,56.4 2040.0,56.800000000000004 2042.5,56.800000000000004 2042.5,57.2 2045.0,57.2 2045.0,58.8 2047.5,58.8 2047.5,63.6 2050.0,63.6 2050.0,75.2 2057.5,75.2 2057.5,75.2 2065.0,75.2 2065.0,63.6 2067.5,63.6 2067.5,58.8 2070.0,58.8 2070.0,57.2 2072.5,57.2 2072.5,56.800000000000004 2075.0,56.800000000000004 2075.0,56.4 2077.5,56.4 2077.5,56.2 2080.0,56.2 2080.0,56.0 2082.5,56.0 2082.5,55.8 2085.0,55.8 2085.0,55.0" stroke="rgb(0,0,0)" /><text fill="black" x="2030.0" y="95.2">H65</text><path d="M 635.0,55.0 a 68.63370102700647,68.63370102700647 0 0,0 -60.0,-0.0" stroke="rgb(255,150,150)" stroke-width="2" /><path d="M 635.0,55.0 a 68.63370102700647,68.63370102700647 0 0,0 -60.0,-0.0" stroke="rgb(0,0,0)" stroke-width="0.2" /></svg>