<?xml version="1.0" encoding="utf-8" ?>
<svg baseProfile="full" height="100%" style="font-size:14;font-family:Sans, Arial;stroke-width:1;fill:none" version="1.1" width="100%" xmlns="http://www.w3.org/2000/svg" xmlns:ev="http://www.w3.org/2001/xml-events" xmlns:xlink="http://www.w3.org/1999/xlink"><defs /><rect fill="none" height="130.0" stroke="none" width="2370.0" x="0" y="0" /><line stroke="rgb(0,0,0)" x1="5.0" x2="50.0" y1="55.0" y2="55.0" /><line stroke="rgb(0,0,0)" x1="50.0" x2="70.0" y1="55.0" y2="55.0" /><line stroke="rgb(0,0,0)" x1="70.0" x2="75.0" y1="55.0" y2="55.0" /><line stroke="rgb(0,0,0)" x1="75.0" x2="165.0" y1="55.0" y2="55.0" /><line stroke="rgb(0,0,0)" x1="165.0" x2="185.0" y1="55.0" y2="55.0" /><line stroke="rgb(0,0,0)" x1="185.0" x2="190.0" y1="55.0" y2="55.0" /><line stroke="rgb(0,0,0)" x1="190.0" x2="220.0" y1="55.0" y2="55.0" /><line stroke="rgb(0,0,0)" x1="220.0" x2="240.0" y1="55.0" y2="55.0" /><line stroke="rgb(0,0,0)" x1="240.0" x2="245.0" y1="55.0" y2="55.0" /><line stroke="rgb(0,0,0)" x1="245.0" x2="290.0" y1="55.0" y2="55.0" /><line stroke="rgb(0,0,0)" x1="290.0" x2="310.0" y1="55.0" y2="55.0" /><line stroke="rgb(0,0,0)" x1="310.0" x2="315.0" y1="55.0" y2="55.0" /><line stroke="rgb(0,0,0)" x1="315.0" x2="435.0" y1="55.0" y2="55.0" /><line stroke="rgb(0,0,0)" x1="435.0" x2="455.0" y1="55.0" y2="55.0" /><line stroke="rgb(0,0,0)" x1="455.0" x2="460.0" y1="55.0" y2="55.0" /><line stroke="rgb(0,0,0)" x1="460.0" x2="510.0" y1="55.0" y2="55.0" /><line stroke="rgb(0,0,0)" x1="510.0" x2="530.0" y1="55.0" y2="55.0" /><line stroke="rgb(0,0,0)" x1="530.0" x2="535.0" y1="55.0" y2="55.0" /><line stroke="rgb(0,0,0)" x1="535.0" x2="575.0" y1="55.0" y2="55.0" /><line stroke="rgb(0,0,0)" x1="575.0" x2="595.0" y1="55.0" y2="55.0" /><line stroke="rgb(0,0,0)" x1="595.0" x2="600.0" y1="55.0" y2="55.0" /><line stroke="rgb(0,0,0)" x1="600.0" x2="710.0" y1="55.0" y2="55.0" /><line stroke="rgb(0,0,0)" x1="710.0" x2="730.0" y1="55.0" y2="55.0" /><line stroke="rgb(0,0,0)" x1="730.0" x2="735.0" y1="55.0" y2="55.0" /><line stroke="rgb(0,0,0)" x1="735.0" x2="780.0" y1="55.0" y2="55.0" /><line stroke="rgb(0,0,0)" x1="780.0" x2="800.0" y1="55.0" y2="55.0" /><line stroke="rgb(0,0,0)" x1="800.0" x2="805.0" y1="55.0" y2="55.0" /><line stroke="rgb(0,0,0)" x1="805.0" x2="830.0" y1="55.0" y2="55.0" /><line stroke="rgb(0,0,0)" x1="830.0" x2="850.0" y1="55.0" y2="55.0" /><line stroke="rgb(0,0,0)" x1="850.0" x2="855.0" y1="55.0" y2="55.0" /><line stroke="rgb(0,0,0)" x1="855.0" x2="1025.0" y1="55.0" y2="55.0" /><line stroke="rgb(0,0,0)" x1="1025.0" x2="1045.0" y1="55.0" y2="55.0" /><line stroke="rgb(0,0,0)" x1="1045.0" x2="1050.0" y1="55.0" y2="55.0" /><line stroke="rgb(0,0,0)" x1="1050.0" x2="1150.0" y1="55.0" y2="55.0" /><line stroke="rgb(0,0,0)" x1="1150.0" x2="1170.0" y1="55.0" y2="55.0" /><line stroke="rgb(0,0,0)" x1="1170.0" x2="1175.0" y1="55.0" y2="55.0" /><line stroke="rgb(0,0,0)" x1="1175.0" x2="1220.0" y1="55.0" y2="55.0" /><line stroke="rgb(0,0,0)" x1="1220.0" x2="1240.0" y1="55.0" y2="55.0" /><line stroke="rgb(0,0,0)" x1="1240.0" x2="1245.0" y1="55.0" y2="55.0" /><line stroke="rgb(0,0,0)" x1="1245.0" x2="1285.0" y1="55.0" y2="55.0" /><line stroke="rgb(0,0,0)" x1="1285.0" x2="1305.0" y1="55.0" y2="55.0" /><line stroke="rgb(0,0,0)" x1="1305.0" x2="1310.0" y1="55.0" y2="55.0" /><line stroke="rgb(0,0,0)" x1="1310.0" x2="1365.0" y1="55.0" y2="55.0" /><line stroke="rgb(0,0,0)" x1="1365.0" x2="1385.0" y1="55.0" y2="55.0" /><line stroke="rgb(0,0,0)" x1="1385.0" x2="1390.0" y1="55.0" y2="55.0" /><line stroke="rgb(0,0,0)" x1="1390.0" x2="1520.0" y1="55.0" y2="55.0" /><line stroke="rgb(0,0,0)" x1="1520.0" x2="1540.0" y1="55.0" y2="55.0" /><line stroke="rgb(0,0,0)" x1="1540.0" x2="1545.0" y1="55.0" y2="55.0" /><line stroke="rgb(0,0,0)" x1="1545.0" x2="1620.0" y1="55.0" y2="55.0" /><line stroke="rgb(0,0,0)" x1="1620.0" x2="1640.0" y1="55.0" y2="55.0" /><line stroke="rgb(0,0,0)" x1="1640.0" x2="1645.0" y1="55.0" y2="55.0" /><line stroke="rgb(0,0,0)" x1="1645.0" x2="1725.0" y1="55.0" y2="55.0" /><line stroke="rgb(0,0,0)" x1="1725.0" x2="1745.0" y1="55.0" y2="55.0" /><line stroke="rgb(0,0,0)" x1="1745.0" x2="1750.0" y1="55.0" y2="55.0" /><line stroke="rgb(0,0,0)" x1="1750.0" x2="1770.0" y1="55.0" y2="55.0" /><line stroke="rgb(0,0,0)" x1="1770.0" x2="1790.0" y1="55.0" y2="55.0" /><line stroke="rgb(0,0,0)" x1="1790.0" x2="1795.0" y1="55.0" y2="55.0" /><line stroke="rgb(0,0,0)" x1="1795.0" x2="1875.0" y1="55.0" y2="55.0" /><line stroke="rgb(0,0,0)" x1="1875.0" x2="1895.0" y1="55.0" y2="55.0" /><line stroke="rgb(0,0,0)" x1="1895.0" x2="1900.0" y1="55.0" y2="55.0" /><line stroke="rgb(0,0,0)" x1="1900.0" x2="2010.0" y1="55.0" y2="55.0" /><line stroke="rgb(0,0,0)" x1="2010.0" x2="2030.0" y1="55.0" y2="55.0" /><line stroke="rgb(0,0,0)" x1="2030.0" x2="2035.0" y1="55.0" y2="55.0" /><line stroke="rgb(0,0,0)" x1="2035.0" x2="2065.0" y1="55.0" y2="55.0" /><line stroke="rgb(0,0,0)" x1="2065.0" x2="2085.0" y1="55.0" y2="55.0" /><line stroke="rgb(0,0,0)" x1="2085.0" x2="2090.0" y1="55.0" y2="55.0" /><line stroke="rgb(0,0,0)" x1="2090.0" x2="2205.0" y1="55.0" y2="55.0" /><line stroke="rgb(0,0,0)" x1="2205.0" x2="2225.0" y1="55.0" y2="55.0" /><line stroke="rgb(0,0,0)" x1="2225.0" x2="2230.0" y1="55.0" y2="55.0" /><line stroke="rgb(0,0,0)" x1="2230.0" x2="2280.0" y1="55.0" y2="55.0" /><line stroke="rgb(0,0,0)" x1="2280.0" x2="2300.0" y1="55.0" y2="55.0" /><line stroke="rgb(0,0,0)" x1="2300.0" x2="2305.0" y1="55.0" y2="55.0" /><polygon fill="rgb(255,150,150)" points="45.0,55.0 45.0,54.8 42.5,54.8 42.5,54.6 40.0,54.6 40.0,47.199999999999996 37.5,47.199999999999996 37.5,22.4 35.0,22.4 35.0,7.200000000000003 32.5,7.200000000000003 32.5,5.799999999999997 30.0,5.799999999999997 30.0,5.200000000000003 27.5,5.200000000000003 27.5,5.0 25.0,5.0 25.0,5.0 22.5,5.0 22.5,5.200000000000003 20.0,5.200000000000003 20.0,5.799999999999997 17.5,5.799999999999997 17.5,7.200000000000003 15.0,7.200000000000003 15.0,22.4 12.5,22.4 12.5,47.199999999999996 10.0,47.199999999999996 10.0,54.6 7.5,54.6 7.5,54.8 5.0,54.8 5.0,55.0 5.0,55.0 5.0,55.2 7.5,55.2 7.5,55.4 10.0,55.4 10.0,62.800000000000004 12.5,62.800000000000004 12.5,87.6 15.0,87.6 15.0,102.8 17.5,102.8 17.5,104.2 20.0,104.2 20.0,104.8 22.5,104.8 22.5,105.0 25.0,105.0 25.0,105.0 27.5,105.0 27.5,104.8 30.0,104.8 30.0,104.2 32.5,104.2 32.5,102.8 35.0,102.8 35.0,87.6 37.5,87.6 37.5,62.800000000000004 40.0,62.800000000000004 40.0,55.4 42.5,55.4 42.5,55.2 45.0,55.2 45.0,55.0" stroke="rgb(0,0,0)" /><text fill="black" x="5.0" y="125.0">E9</text><polygon fill="rgb(150,150,150)" points="160.0,55.0 160.0,54.4 157.5,54.4 157.5,54.2 152.5,54.2 152.5,52.599999999999994 150.0,52.599999999999994 150.0,20.0 147.5,20.0 147.5,10.600000000000001 145.0,10.600000000000001 145.0,9.199999999999996 142.5,9.199999999999996 142.5,7.400000000000006 140.0,7.400000000000006 140.0,7.200000000000003 137.5,7.200000000000003 137.5,6.200000000000003 135.0,6.200000000000003 135.0,5.600000000000001 132.5,5.600000000000001 132.5,5.399999999999999 117.5,5.399999999999999 117.5,5.399999999999999 102.5,5.399999999999999 102.5,5.600000000000001 100.0,5.600000000000001 100.0,6.200000000000003 97.5,6.200000000000003 97.5,7.200000000000003 95.0,7.200000000000003 95.0,7.400000000000006 92.5,7.400000000000006 92.5,9.199999999999996 90.0,9.199999999999996 90.0,10.600000000000001 87.5,10.600000000000001 87.5,20.0 85.0,20.0 85.0,52.599999999999994 82.5,52.599999999999994 82.5,54.2 77.5,54.2 77.5,54.4 75.0,54.4 75.0,55.0 75.0,55.0 75.0,55.6 77.5,55.6 77.5,55.8 82.5,55.8 82.5,57.400000000000006 85.0,57.400000000000006 85.0,90.0 87.5,90.0 87.5,99.4 90.0,99.4 90.0,100.80000000000001 92.5,100.80000000000001 92.5,102.6 95.0,102.6 95.0,102.8 97.5,102.8 97.5,103.8 100.0,103.8 100.0,104.4 102.5,104.4 102.5,104.6 117.5,104.6 117.5,104.6 132.5,104.6 132.5,104.4 135.0,104.4 135.0,103.8 137.5,103.8 137.5,102.8 140.0,102.8 140.0,102.6 142.5,102.6 142.5,100.80000000000001 145.0,100.80000000000001 145.0,99.4 147.5,99.4 147.5,90.0 150.0,90.0 150.0,57.400000000000006 152.5,57.400000000000006 152.5,55.8 157.5,55.8 157.5,55.6 160.0,55.6 160.0,55.0" stroke="rgb(0,0,0)" /><text fill="black" x="75.0" y="124.6">H14</text><polygon fill="rgb(255,150,150)" points="215.0,55.0 215.0,54.8 212.5,54.8 212.5,54.6 210.0,54.6 210.0,48.8 207.5,48.8 207.5,46.599999999999994 205.0,46.599999999999994 205.0,43.4 202.5,43.4 202.5,43.4 200.0,43.4 200.0,46.599999999999994 197.5,46.599999999999994 197.5,48.8 195.0,48.8 195.0,54.6 192.5,54.6 192.5,54.8 190.0,54.8 190.0,55.0 190.0,55.0 190.0,55.2 192.5,55.2 192.5,55.4 195.0,55.4 195.0,61.2 197.5,61.2 197.5,63.400000000000006 200.0,63.400000000000006 200.0,66.6 202.5,66.6 202.5,66.6 205.0,66.6 205.0,63.400000000000006 207.5,63.400000000000006 207.5,61.2 210.0,61.2 210.0,55.4 212.5,55.4 212.5,55.2 215.0,55.2 215.0,55.0" stroke="rgb(0,0,0)" /><text fill="black" x="190.0" y="86.6">E17</text><polygon fill="rgb(255,150,150)" points="285.0,55.0 285.0,54.8 282.5,54.8 282.5,53.6 280.0,53.6 280.0,34.4 277.5,34.4 277.5,22.6 275.0,22.6 275.0,14.0 272.5,14.0 272.5,7.200000000000003 270.0,7.200000000000003 270.0,6.800000000000004 267.5,6.800000000000004 267.5,6.600000000000001 265.0,6.600000000000001 265.0,6.600000000000001 262.5,6.600000000000001 262.5,6.800000000000004 260.0,6.800000000000004 260.0,7.200000000000003 257.5,7.200000000000003 257.5,14.0 255.0,14.0 255.0,22.6 252.5,22.6 252.5,34.4 250.0,34.4 250.0,53.6 247.5,53.6 247.5,54.8 245.0,54.8 245.0,55.0 245.0,55.0 245.0,55.2 247.5,55.2 247.5,56.4 250.0,56.4 250.0,75.6 252.5,75.6 252.5,87.4 255.0,87.4 255.0,96.0 257.5,96.0 257.5,102.8 260.0,102.8 260.0,103.19999999999999 262.5,103.19999999999999 262.5,103.4 265.0,103.4 265.0,103.4 267.5,103.4 267.5,103.19999999999999 270.0,103.19999999999999 270.0,102.8 272.5,102.8 272.5,96.0 275.0,96.0 275.0,87.4 277.5,87.4 277.5,75.6 280.0,75.6 280.0,56.4 282.5,56.4 282.5,55.2 285.0,55.2 285.0,55.0" stroke="rgb(0,0,0)" /><text fill="black" x="245.0" y="123.4">E18</text><polygon fill="rgb(150,150,150)" points="430.0,55.0 430.0,54.8 425.0,54.8 425.0,54.4 417.5,54.4 417.5,53.199999999999996 415.0,53.199999999999996 415.0,52.4 412.5,52.4 412.5,51.800000000000004 410.0,51.800000000000004 410.0,48.8 407.5,48.8 407.5,42.8 405.0,42.8 405.0,40.8 402.5,40.8 402.5,39.8 400.0,39.8 400.0,34.0 397.5,34.0 397.5,22.6 395.0,22.6 395.0,20.800000000000004 392.5,20.800000000000004 392.5,20.0 390.0,20.0 390.0,19.200000000000003 387.5,19.200000000000003 387.5,19.0 385.0,19.0 385.0,17.799999999999997 382.5,17.799999999999997 382.5,17.6 380.0,17.6 380.0,17.200000000000003 372.5,17.200000000000003 372.5,17.200000000000003 365.0,17.200000000000003 365.0,17.6 362.5,17.6 362.5,17.799999999999997 360.0,17.799999999999997 360.0,19.0 357.5,19.0 357.5,19.200000000000003 355.0,19.200000000000003 355.0,20.0 352.5,20.0 352.5,20.800000000000004 350.0,20.800000000000004 350.0,22.6 347.5,22.6 347.5,34.0 345.0,34.0 345.0,39.8 342.5,39.8 342.5,40.8 340.0,40.8 340.0,42.8 337.5,42.8 337.5,48.8 335.0,48.8 335.0,51.800000000000004 332.5,51.800000000000004 332.5,52.4 330.0,52.4 330.0,53.199999999999996 327.5,53.199999999999996 327.5,54.4 320.0,54.4 320.0,54.8 315.0,54.8 315.0,55.0 315.0,55.0 315.0,55.2 320.0,55.2 320.0,55.6 327.5,55.6 327.5,56.800000000000004 330.0,56.800000000000004 330.0,57.6 332.5,57.6 332.5,58.199999999999996 335.0,58.199999999999996 335.0,61.2 337.5,61.2 337.5,67.2 340.0,67.2 340.0,69.2 342.5,69.2 342.5,70.2 345.0,70.2 345.0,76.0 347.5,76.0 347.5,87.4 350.0,87.4 350.0,89.19999999999999 352.5,89.19999999999999 352.5,90.0 355.0,90.0 355.0,90.8 357.5,90.8 357.5,91.0 360.0,91.0 360.0,92.2 362.5,92.2 362.5,92.4 365.0,92.4 365.0,92.8 372.5,92.8 372.5,92.8 380.0,92.8 380.0,92.4 382.5,92.4 382.5,92.2 385.0,92.2 385.0,91.0 387.5,91.0 387.5,90.8 390.0,90.8 390.0,90.0 392.5,90.0 392.5,89.19999999999999 395.0,89.19999999999999 395.0,87.4 397.5,87.4 397.5,76.0 400.0,76.0 400.0,70.2 402.5,70.2 402.5,69.2 405.0,69.2 405.0,67.2 407.5,67.2 407.5,61.2 410.0,61.2 410.0,58.199999999999996 412.5,58.199999999999996 412.5,57.6 415.0,57.6 415.0,56.800000000000004 417.5,56.800000000000004 417.5,55.6 425.0,55.6 425.0,55.2 430.0,55.2 430.0,55.0" stroke="rgb(0,0,0)" /><text fill="black" x="315.0" y="112.8">H26</text><polygon fill="rgb(255,150,150)" points="505.0,55.0 505.0,54.6 502.5,54.6 502.5,54.4 500.0,54.4 500.0,53.8 497.5,53.8 497.5,51.2 495.0,51.2 495.0,41.8 492.5,41.8 492.5,29.0 490.0,29.0 490.0,15.0 487.5,15.0 487.5,10.199999999999996 485.0,10.199999999999996 485.0,8.400000000000006 482.5,8.400000000000006 482.5,8.400000000000006 480.0,8.400000000000006 480.0,10.199999999999996 477.5,10.199999999999996 477.5,15.0 475.0,15.0 475.0,29.0 472.5,29.0 472.5,41.8 470.0,41.8 470.0,51.2 467.5,51.2 467.5,53.8 465.0,53.8 465.0,54.4 462.5,54.4 462.5,54.6 460.0,54.6 460.0,55.0 460.0,55.0 460.0,55.4 462.5,55.4 462.5,55.6 465.0,55.6 465.0,56.2 467.5,56.2 467.5,58.8 470.0,58.8 470.0,68.2 472.5,68.2 472.5,81.0 475.0,81.0 475.0,95.0 477.5,95.0 477.5,99.80000000000001 480.0,99.80000000000001 480.0,101.6 482.5,101.6 482.5,101.6 485.0,101.6 485.0,99.80000000000001 487.5,99.80000000000001 487.5,95.0 490.0,95.0 490.0,81.0 492.5,81.0 492.5,68.2 495.0,68.2 495.0,58.8 497.5,58.8 497.5,56.2 500.0,56.2 500.0,55.6 502.5,55.6 502.5,55.4 505.0,55.4 505.0,55.0" stroke="rgb(0,0,0)" /><text fill="black" x="460.0" y="121.6">E37</text><polygon fill="rgb(150,150,150)" points="570.0,55.0 570.0,54.8 565.0,54.8 565.0,54.6 562.5,54.6 562.5,53.199999999999996 560.0,53.199999999999996 560.0,30.4 552.5,30.4 552.5,30.4 545.0,30.4 545.0,53.199999999999996 542.5,53.199999999999996 542.5,54.6 540.0,54.6 540.0,54.8 535.0,54.8 535.0,55.0 535.0,55.0 535.0,55.2 540.0,55.2 540.0,55.4 542.5,55.4 542.5,56.800000000000004 545.0,56.800000000000004 545.0,79.6 552.5,79.6 552.5,79.6 560.0,79.6 560.0,56.800000000000004 562.5,56.800000000000004 562.5,55.4 565.0,55.4 565.0,55.2 570.0,55.2 570.0,55.0" stroke="rgb(0,0,0)" /><text fill="black" x="535.0" y="99.6">H40</text><polygon fill="rgb(150,150,150)" points="705.0,55.0 705.0,54.8 702.5,54.8 702.5,54.6 697.5,54.6 697.5,54.0 695.0,54.0 695.0,53.8 692.5,53.8 692.5,53.6 690.0,53.6 690.0,43.0 687.5,43.0 687.5,42.2 685.0,42.2 685.0,41.8 682.5,41.8 682.5,41.2 680.0,41.2 680.0,38.8 677.5,38.8 677.5,36.6 675.0,36.6 675.0,32.800000000000004 672.5,32.800000000000004 672.5,30.0 670.0,30.0 670.0,23.2 667.5,23.2 667.5,21.6 665.0,21.6 665.0,19.4 662.5,19.4 662.5,12.200000000000003 660.0,12.200000000000003 660.0,10.199999999999996 652.5,10.199999999999996 652.5,10.199999999999996 645.0,10.199999999999996 645.0,12.200000000000003 642.5,12.200000000000003 642.5,19.4 640.0,19.4 640.0,21.6 637.5,21.6 637.5,23.2 635.0,23.2 635.0,30.0 632.5,30.0 632.5,32.800000000000004 630.0,32.800000000000004 630.0,36.6 627.5,36.6 627.5,38.8 625.0,38.8 625.0,41.2 622.5,41.2 622.5,41.8 620.0,41.8 620.0,42.2 617.5,42.2 617.5,43.0 615.0,43.0 615.0,53.6 612.5,53.6 612.5,53.8 610.0,53.8 610.0,54.0 607.5,54.0 607.5,54.6 602.5,54.6 602.5,54.8 600.0,54.8 600.0,55.0 600.0,55.0 600.0,55.2 602.5,55.2 602.5,55.4 607.5,55.4 607.5,56.0 610.0,56.0 610.0,56.2 612.5,56.2 612.5,56.4 615.0,56.4 615.0,67.0 617.5,67.0 617.5,67.8 620.0,67.8 620.0,68.2 622.5,68.2 622.5,68.8 625.0,68.8 625.0,71.2 627.5,71.2 627.5,73.4 630.0,73.4 630.0,77.19999999999999 632.5,77.19999999999999 632.5,80.0 635.0,80.0 635.0,86.8 637.5,86.8 637.5,88.4 640.0,88.4 640.0,90.6 642.5,90.6 642.5,97.8 645.0,97.8 645.0,99.80000000000001 652.5,99.80000000000001 652.5,99.80000000000001 660.0,99.80000000000001 660.0,97.8 662.5,97.8 662.5,90.6 665.0,90.6 665.0,88.4 667.5,88.4 667.5,86.8 670.0,86.8 670.0,80.0 672.5,80.0 672.5,77.19999999999999 675.0,77.19999999999999 675.0,73.4 677.5,73.4 677.5,71.2 680.0,71.2 680.0,68.8 682.5,68.8 682.5,68.2 685.0,68.2 685.0,67.8 687.5,67.8 687.5,67.0 690.0,67.0 690.0,56.4 692.5,56.4 692.5,56.2 695.0,56.2 695.0,56.0 697.5,56.0 697.5,55.4 702.5,55.4 702.5,55.2 705.0,55.2 705.0,55.0" stroke="rgb(0,0,0)" /><text fill="black" x="600.0" y="119.80000000000001">H49</text><polygon fill="rgb(255,150,150)" points="775.0,55.0 775.0,54.8 772.5,54.8 772.5,54.0 770.0,54.0 770.0,53.6 767.5,53.6 767.5,52.8 765.0,52.8 765.0,7.200000000000003 762.5,7.200000000000003 762.5,6.0 757.5,6.0 757.5,5.799999999999997 755.0,5.799999999999997 755.0,5.799999999999997 752.5,5.799999999999997 752.5,6.0 747.5,6.0 747.5,7.200000000000003 745.0,7.200000000000003 745.0,52.8 742.5,52.8 742.5,53.6 740.0,53.6 740.0,54.0 737.5,54.0 737.5,54.8 735.0,54.8 735.0,55.0 735.0,55.0 735.0,55.2 737.5,55.2 737.5,56.0 740.0,56.0 740.0,56.4 742.5,56.4 742.5,57.2 745.0,57.2 745.0,102.8 747.5,102.8 747.5,104.0 752.5,104.0 752.5,104.2 755.0,104.2 755.0,104.2 757.5,104.2 757.5,104.0 762.5,104.0 762.5,102.8 765.0,102.8 765.0,57.2 767.5,57.2 767.5,56.4 770.0,56.4 770.0,56.0 772.5,56.0 772.5,55.2 775.0,55.2 775.0,55.0" stroke="rgb(0,0,0)" /><text fill="black" x="735.0" y="124.2">E55</text><polygon fill="rgb(150,150,150)" points="825.0,55.0 825.0,54.6 822.5,54.6 822.5,43.8 815.0,43.8 815.0,43.8 807.5,43.8 807.5,54.6 805.0,54.6 805.0,55.0 805.0,55.0 805.0,55.4 807.5,55.4 807.5,66.2 815.0,66.2 815.0,66.2 822.5,66.2 822.5,55.4 825.0,55.4 825.0,55.0" stroke="rgb(0,0,0)" /><text fill="black" x="805.0" y="86.2">H90</text><polygon fill="rgb(150,150,150)" points="1020.0,55.0 1020.0,54.6 1017.5,54.6 1017.5,54.2 1010.0,54.2 1010.0,49.0 1007.5,49.0 1007.5,48.0 1005.0,48.0 1005.0,47.8 1002.5,47.8 1002.5,44.400000000000006 1000.0,44.400000000000006 1000.0,41.8 995.0,41.8 995.0,40.199999999999996 992.5,40.199999999999996 992.5,37.2 990.0,37.2 990.0,37.0 987.5,37.0 987.5,36.8 985.0,36.8 985.0,35.2 982.5,35.2 982.5,35.0 980.0,35.0 980.0,34.8 977.5,34.8 977.5,34.599999999999994 975.0,34.599999999999994 975.0,34.0 972.5,34.0 972.5,26.199999999999996 970.0,26.199999999999996 970.0,24.400000000000002 967.5,24.400000000000002 967.5,24.2 965.0,24.2 965.0,21.800000000000004 962.5,21.800000000000004 962.5,15.399999999999999 957.5,15.399999999999999 957.5,14.599999999999994 955.0,14.599999999999994 955.0,13.599999999999994 952.5,13.599999999999994 952.5,13.0 950.0,13.0 950.0,12.600000000000001 945.0,12.600000000000001 945.0,12.399999999999999 937.5,12.399999999999999 937.5,12.399999999999999 930.0,12.399999999999999 930.0,12.600000000000001 925.0,12.600000000000001 925.0,13.0 922.5,13.0 922.5,13.599999999999994 920.0,13.599999999999994 920.0,14.599999999999994 917.5,14.599999999999994 917.5,15.399999999999999 912.5,15.399999999999999 912.5,21.800000000000004 910.0,21.800000000000004 910.0,24.2 907.5,24.2 907.5,24.400000000000002 905.0,24.400000000000002 905.0,26.199999999999996 902.5,26.199999999999996 902.5,34.0 900.0,34.0 900.0,34.599999999999994 897.5,34.599999999999994 897.5,34.8 895.0,34.8 895.0,35.0 892.5,35.0 892.5,35.2 890.0,35.2 890.0,36.8 887.5,36.8 887.5,37.0 885.0,37.0 885.0,37.2 882.5,37.2 882.5,40.199999999999996 880.0,40.199999999999996 880.0,41.8 875.0,41.8 875.0,44.400000000000006 872.5,44.400000000000006 872.5,47.8 870.0,47.8 870.0,48.0 867.5,48.0 867.5,49.0 865.0,49.0 865.0,54.2 857.5,54.2 857.5,54.6 855.0,54.6 855.0,55.0 855.0,55.0 855.0,55.4 857.5,55.4 857.5,55.8 865.0,55.8 865.0,61.0 867.5,61.0 867.5,62.0 870.0,62.0 870.0,62.2 872.5,62.2 872.5,65.6 875.0,65.6 875.0,68.2 880.0,68.2 880.0,69.8 882.5,69.8 882.5,72.8 885.0,72.8 885.0,73.0 887.5,73.0 887.5,73.2 890.0,73.2 890.0,74.8 892.5,74.8 892.5,75.0 895.0,75.0 895.0,75.2 897.5,75.2 897.5,75.4 900.0,75.4 900.0,76.0 902.5,76.0 902.5,83.80000000000001 905.0,83.80000000000001 905.0,85.6 907.5,85.6 907.5,85.8 910.0,85.8 910.0,88.19999999999999 912.5,88.19999999999999 912.5,94.6 917.5,94.6 917.5,95.4 920.0,95.4 920.0,96.4 922.5,96.4 922.5,97.0 925.0,97.0 925.0,97.4 930.0,97.4 930.0,97.6 937.5,97.6 937.5,97.6 945.0,97.6 945.0,97.4 950.0,97.4 950.0,97.0 952.5,97.0 952.5,96.4 955.0,96.4 955.0,95.4 957.5,95.4 957.5,94.6 962.5,94.6 962.5,88.19999999999999 965.0,88.19999999999999 965.0,85.8 967.5,85.8 967.5,85.6 970.0,85.6 970.0,83.80000000000001 972.5,83.80000000000001 972.5,76.0 975.0,76.0 975.0,75.4 977.5,75.4 977.5,75.2 980.0,75.2 980.0,75.0 982.5,75.0 982.5,74.8 985.0,74.8 985.0,73.2 987.5,73.2 987.5,73.0 990.0,73.0 990.0,72.8 992.5,72.8 992.5,69.8 995.0,69.8 995.0,68.2 1000.0,68.2 1000.0,65.6 1002.5,65.6 1002.5,62.2 1005.0,62.2 1005.0,62.0 1007.5,62.0 1007.5,61.0 1010.0,61.0 1010.0,55.8 1017.5,55.8 1017.5,55.4 1020.0,55.4 1020.0,55.0" stroke="rgb(0,0,0)" /><text fill="black" x="855.0" y="117.6">H91</text><polygon fill="rgb(150,150,150)" points="1145.0,55.0 1145.0,54.6 1130.0,54.6 1130.0,54.4 1125.0,54.4 1125.0,54.2 1122.5,54.2 1122.5,53.6 1115.0,53.6 1115.0,52.4 1112.5,52.4 1112.5,49.8 1110.0,49.8 1110.0,49.6 1107.5,49.6 1107.5,48.0 1105.0,48.0 1105.0,44.6 1097.5,44.6 1097.5,44.6 1090.0,44.6 1090.0,48.0 1087.5,48.0 1087.5,49.6 1085.0,49.6 1085.0,49.8 1082.5,49.8 1082.5,52.4 1080.0,52.4 1080.0,53.6 1072.5,53.6 1072.5,54.2 1070.0,54.2 1070.0,54.4 1065.0,54.4 1065.0,54.6 1050.0,54.6 1050.0,55.0 1050.0,55.0 1050.0,55.4 1065.0,55.4 1065.0,55.6 1070.0,55.6 1070.0,55.8 1072.5,55.8 1072.5,56.4 1080.0,56.4 1080.0,57.6 1082.5,57.6 1082.5,60.2 1085.0,60.2 1085.0,60.4 1087.5,60.4 1087.5,62.0 1090.0,62.0 1090.0,65.4 1097.5,65.4 1097.5,65.4 1105.0,65.4 1105.0,62.0 1107.5,62.0 1107.5,60.4 1110.0,60.4 1110.0,60.2 1112.5,60.2 1112.5,57.6 1115.0,57.6 1115.0,56.4 1122.5,56.4 1122.5,55.8 1125.0,55.8 1125.0,55.6 1130.0,55.6 1130.0,55.4 1145.0,55.4 1145.0,55.0" stroke="rgb(0,0,0)" /><text fill="black" x="1050.0" y="85.4">H92</text><polygon fill="rgb(255,150,150)" points="1215.0,55.0 1215.0,54.2 1212.5,54.2 1212.5,48.8 1210.0,48.8 1210.0,40.4 1207.5,40.4 1207.5,32.800000000000004 1205.0,32.800000000000004 1205.0,9.199999999999996 1202.5,9.199999999999996 1202.5,6.200000000000003 1200.0,6.200000000000003 1200.0,6.0 1195.0,6.0 1195.0,6.0 1190.0,6.0 1190.0,6.200000000000003 1187.5,6.200000000000003 1187.5,9.199999999999996 1185.0,9.199999999999996 1185.0,32.800000000000004 1182.5,32.800000000000004 1182.5,40.4 1180.0,40.4 1180.0,48.8 1177.5,48.8 1177.5,54.2 1175.0,54.2 1175.0,55.0 1175.0,55.0 1175.0,55.8 1177.5,55.8 1177.5,61.2 1180.0,61.2 1180.0,69.6 1182.5,69.6 1182.5,77.19999999999999 1185.0,77.19999999999999 1185.0,100.80000000000001 1187.5,100.80000000000001 1187.5,103.8 1190.0,103.8 1190.0,104.0 1195.0,104.0 1195.0,104.0 1200.0,104.0 1200.0,103.8 1202.5,103.8 1202.5,100.80000000000001 1205.0,100.80000000000001 1205.0,77.19999999999999 1207.5,77.19999999999999 1207.5,69.6 1210.0,69.6 1210.0,61.2 1212.5,61.2 1212.5,55.8 1215.0,55.8 1215.0,55.0" stroke="rgb(0,0,0)" /><text fill="black" x="1175.0" y="124.0">E95</text><polygon fill="rgb(150,150,150)" points="1280.0,55.0 1280.0,53.199999999999996 1277.5,53.199999999999996 1277.5,53.0 1275.0,53.0 1275.0,47.199999999999996 1272.5,47.199999999999996 1272.5,36.0 1270.0,36.0 1270.0,31.8 1262.5,31.8 1262.5,31.8 1255.0,31.8 1255.0,36.0 1252.5,36.0 1252.5,47.199999999999996 1250.0,47.199999999999996 1250.0,53.0 1247.5,53.0 1247.5,53.199999999999996 1245.0,53.199999999999996 1245.0,55.0 1245.0,55.0 1245.0,56.800000000000004 1247.5,56.800000000000004 1247.5,57.0 1250.0,57.0 1250.0,62.800000000000004 1252.5,62.800000000000004 1252.5,74.0 1255.0,74.0 1255.0,78.2 1262.5,78.2 1262.5,78.2 1270.0,78.2 1270.0,74.0 1272.5,74.0 1272.5,62.800000000000004 1275.0,62.800000000000004 1275.0,57.0 1277.5,57.0 1277.5,56.800000000000004 1280.0,56.800000000000004 1280.0,55.0" stroke="rgb(0,0,0)" /><text fill="black" x="1245.0" y="98.2">H97</text><polygon fill="rgb(150,150,150)" points="1360.0,55.0 1360.0,54.6 1357.5,54.6 1357.5,54.4 1352.5,54.4 1352.5,54.2 1350.0,54.2 1350.0,54.0 1347.5,54.0 1347.5,53.6 1345.0,53.6 1345.0,53.199999999999996 1342.5,53.199999999999996 1342.5,42.8 1335.0,42.8 1335.0,42.8 1327.5,42.8 1327.5,53.199999999999996 1325.0,53.199999999999996 1325.0,53.6 1322.5,53.6 1322.5,54.0 1320.0,54.0 1320.0,54.2 1317.5,54.2 1317.5,54.4 1312.5,54.4 1312.5,54.6 1310.0,54.6 1310.0,55.0 1310.0,55.0 1310.0,55.4 1312.5,55.4 1312.5,55.6 1317.5,55.6 1317.5,55.8 1320.0,55.8 1320.0,56.0 1322.5,56.0 1322.5,56.4 1325.0,56.4 1325.0,56.800000000000004 1327.5,56.800000000000004 1327.5,67.2 1335.0,67.2 1335.0,67.2 1342.5,67.2 1342.5,56.800000000000004 1345.0,56.800000000000004 1345.0,56.4 1347.5,56.4 1347.5,56.0 1350.0,56.0 1350.0,55.8 1352.5,55.8 1352.5,55.6 1357.5,55.6 1357.5,55.4 1360.0,55.4 1360.0,55.0" stroke="rgb(0,0,0)" /><text fill="black" x="1310.0" y="87.2">H116</text><polygon fill="rgb(150,150,150)" points="1515.0,55.0 1515.0,54.8 1512.5,54.8 1512.5,45.6 1510.0,45.6 1510.0,45.0 1507.5,45.0 1507.5,44.800000000000004 1505.0,44.800000000000004 1505.0,41.0 1502.5,41.0 1502.5,39.599999999999994 1500.0,39.599999999999994 1500.0,39.4 1497.5,39.4 1497.5,39.0 1495.0,39.0 1495.0,38.8 1492.5,38.8 1492.5,37.0 1490.0,37.0 1490.0,36.0 1487.5,36.0 1487.5,33.4 1485.0,33.4 1485.0,32.0 1482.5,32.0 1482.5,28.599999999999998 1480.0,28.599999999999998 1480.0,26.4 1477.5,26.4 1477.5,22.799999999999997 1475.0,22.799999999999997 1475.0,22.000000000000007 1472.5,22.000000000000007 1472.5,21.200000000000003 1470.0,21.200000000000003 1470.0,18.6 1467.5,18.6 1467.5,18.200000000000003 1465.0,18.200000000000003 1465.0,18.0 1462.5,18.0 1462.5,17.799999999999997 1452.5,17.799999999999997 1452.5,17.799999999999997 1442.5,17.799999999999997 1442.5,18.0 1440.0,18.0 1440.0,18.200000000000003 1437.5,18.200000000000003 1437.5,18.6 1435.0,18.6 1435.0,21.200000000000003 1432.5,21.200000000000003 1432.5,22.000000000000007 1430.0,22.000000000000007 1430.0,22.799999999999997 1427.5,22.799999999999997 1427.5,26.4 1425.0,26.4 1425.0,28.599999999999998 1422.5,28.599999999999998 1422.5,32.0 1420.0,32.0 1420.0,33.4 1417.5,33.4 1417.5,36.0 1415.0,36.0 1415.0,37.0 1412.5,37.0 1412.5,38.8 1410.0,38.8 1410.0,39.0 1407.5,39.0 1407.5,39.4 1405.0,39.4 1405.0,39.599999999999994 1402.5,39.599999999999994 1402.5,41.0 1400.0,41.0 1400.0,44.800000000000004 1397.5,44.800000000000004 1397.5,45.0 1395.0,45.0 1395.0,45.6 1392.5,45.6 1392.5,54.8 1390.0,54.8 1390.0,55.0 1390.0,55.0 1390.0,55.2 1392.5,55.2 1392.5,64.39999999999999 1395.0,64.39999999999999 1395.0,65.0 1397.5,65.0 1397.5,65.2 1400.0,65.2 1400.0,69.0 1402.5,69.0 1402.5,70.4 1405.0,70.4 1405.0,70.60000000000001 1407.5,70.60000000000001 1407.5,71.0 1410.0,71.0 1410.0,71.2 1412.5,71.2 1412.5,73.0 1415.0,73.0 1415.0,74.0 1417.5,74.0 1417.5,76.6 1420.0,76.6 1420.0,78.0 1422.5,78.0 1422.5,81.4 1425.0,81.4 1425.0,83.6 1427.5,83.6 1427.5,87.2 1430.0,87.2 1430.0,88.0 1432.5,88.0 1432.5,88.8 1435.0,88.8 1435.0,91.4 1437.5,91.4 1437.5,91.8 1440.0,91.8 1440.0,92.0 1442.5,92.0 1442.5,92.2 1452.5,92.2 1452.5,92.2 1462.5,92.2 1462.5,92.0 1465.0,92.0 1465.0,91.8 1467.5,91.8 1467.5,91.4 1470.0,91.4 1470.0,88.8 1472.5,88.8 1472.5,88.0 1475.0,88.0 1475.0,87.2 1477.5,87.2 1477.5,83.6 1480.0,83.6 1480.0,81.4 1482.5,81.4 1482.5,78.0 1485.0,78.0 1485.0,76.6 1487.5,76.6 1487.5,74.0 1490.0,74.0 1490.0,73.0 1492.5,73.0 1492.5,71.2 1495.0,71.2 1495.0,71.0 1497.5,71.0 1497.5,70.60000000000001 1500.0,70.60000000000001 1500.0,70.4 1502.5,70.4 1502.5,69.0 1505.0,69.0 1505.0,65.2 1507.5,65.2 1507.5,65.0 1510.0,65.0 1510.0,64.39999999999999 1512.5,64.39999999999999 1512.5,55.2 1515.0,55.2 1515.0,55.0" stroke="rgb(0,0,0)" /><text fill="black" x="1390.0" y="112.2">H118</text><polygon fill="rgb(150,150,150)" points="1615.0,55.0 1615.0,54.8 1605.0,54.8 1605.0,54.0 1600.0,54.0 1600.0,53.8 1597.5,53.8 1597.5,51.400000000000006 1595.0,51.400000000000006 1595.0,50.2 1592.5,50.2 1592.5,50.0 1590.0,50.0 1590.0,44.6 1587.5,44.6 1587.5,38.6 1580.0,38.6 1580.0,38.6 1572.5,38.6 1572.5,44.6 1570.0,44.6 1570.0,50.0 1567.5,50.0 1567.5,50.2 1565.0,50.2 1565.0,51.400000000000006 1562.5,51.400000000000006 1562.5,53.8 1560.0,53.8 1560.0,54.0 1555.0,54.0 1555.0,54.8 1545.0,54.8 1545.0,55.0 1545.0,55.0 1545.0,55.2 1555.0,55.2 1555.0,56.0 1560.0,56.0 1560.0,56.2 1562.5,56.2 1562.5,58.599999999999994 1565.0,58.599999999999994 1565.0,59.8 1567.5,59.8 1567.5,60.0 1570.0,60.0 1570.0,65.4 1572.5,65.4 1572.5,71.4 1580.0,71.4 1580.0,71.4 1587.5,71.4 1587.5,65.4 1590.0,65.4 1590.0,60.0 1592.5,60.0 1592.5,59.8 1595.0,59.8 1595.0,58.599999999999994 1597.5,58.599999999999994 1597.5,56.2 1600.0,56.2 1600.0,56.0 1605.0,56.0 1605.0,55.2 1615.0,55.2 1615.0,55.0" stroke="rgb(0,0,0)" /><text fill="black" x="1545.0" y="91.4">H123</text><polygon fill="rgb(255,150,150)" points="1720.0,55.0 1720.0,54.8 1705.0,54.8 1705.0,54.6 1702.5,54.6 1702.5,45.2 1700.0,45.2 1700.0,37.2 1697.5,37.2 1697.5,34.0 1695.0,34.0 1695.0,32.2 1692.5,32.2 1692.5,24.6 1690.0,24.6 1690.0,11.799999999999997 1687.5,11.799999999999997 1687.5,9.399999999999999 1685.0,9.399999999999999 1685.0,9.0 1682.5,9.0 1682.5,9.0 1680.0,9.0 1680.0,9.399999999999999 1677.5,9.399999999999999 1677.5,11.799999999999997 1675.0,11.799999999999997 1675.0,24.6 1672.5,24.6 1672.5,32.2 1670.0,32.2 1670.0,34.0 1667.5,34.0 1667.5,37.2 1665.0,37.2 1665.0,45.2 1662.5,45.2 1662.5,54.6 1660.0,54.6 1660.0,54.8 1645.0,54.8 1645.0,55.0 1645.0,55.0 1645.0,55.2 1660.0,55.2 1660.0,55.4 1662.5,55.4 1662.5,64.8 1665.0,64.8 1665.0,72.8 1667.5,72.8 1667.5,76.0 1670.0,76.0 1670.0,77.8 1672.5,77.8 1672.5,85.4 1675.0,85.4 1675.0,98.2 1677.5,98.2 1677.5,100.6 1680.0,100.6 1680.0,101.0 1682.5,101.0 1682.5,101.0 1685.0,101.0 1685.0,100.6 1687.5,100.6 1687.5,98.2 1690.0,98.2 1690.0,85.4 1692.5,85.4 1692.5,77.8 1695.0,77.8 1695.0,76.0 1697.5,76.0 1697.5,72.8 1700.0,72.8 1700.0,64.8 1702.5,64.8 1702.5,55.4 1705.0,55.4 1705.0,55.2 1720.0,55.2 1720.0,55.0" stroke="rgb(0,0,0)" /><text fill="black" x="1645.0" y="121.0">E125</text><polygon fill="rgb(150,150,255)" points="1765.0,55.0 1765.0,53.4 1762.5,53.4 1762.5,52.8 1760.0,52.8 1760.0,44.0 1757.5,44.0 1757.5,44.0 1755.0,44.0 1755.0,52.8 1752.5,52.8 1752.5,53.4 1750.0,53.4 1750.0,55.0 1750.0,55.0 1750.0,56.6 1752.5,56.6 1752.5,57.2 1755.0,57.2 1755.0,66.0 1757.5,66.0 1757.5,66.0 1760.0,66.0 1760.0,57.2 1762.5,57.2 1762.5,56.6 1765.0,56.6 1765.0,55.0" stroke="rgb(0,0,0)" /><text fill="black" x="1750.0" y="86.0">E126</text><polygon fill="rgb(150,150,150)" points="1870.0,55.0 1870.0,54.6 1867.5,54.6 1867.5,53.4 1865.0,53.4 1865.0,53.199999999999996 1860.0,53.199999999999996 1860.0,52.0 1857.5,52.0 1857.5,51.800000000000004 1855.0,51.800000000000004 1855.0,51.6 1852.5,51.6 1852.5,51.0 1850.0,51.0 1850.0,49.8 1847.5,49.8 1847.5,47.8 1845.0,47.8 1845.0,45.400000000000006 1842.5,45.400000000000006 1842.5,45.2 1840.0,45.2 1840.0,42.4 1832.5,42.4 1832.5,42.4 1825.0,42.4 1825.0,45.2 1822.5,45.2 1822.5,45.400000000000006 1820.0,45.400000000000006 1820.0,47.8 1817.5,47.8 1817.5,49.8 1815.0,49.8 1815.0,51.0 1812.5,51.0 1812.5,51.6 1810.0,51.6 1810.0,51.800000000000004 1807.5,51.800000000000004 1807.5,52.0 1805.0,52.0 1805.0,53.199999999999996 1800.0,53.199999999999996 1800.0,53.4 1797.5,53.4 1797.5,54.6 1795.0,54.6 1795.0,55.0 1795.0,55.0 1795.0,55.4 1797.5,55.4 1797.5,56.6 1800.0,56.6 1800.0,56.800000000000004 1805.0,56.800000000000004 1805.0,58.0 1807.5,58.0 1807.5,58.199999999999996 1810.0,58.199999999999996 1810.0,58.4 1812.5,58.4 1812.5,59.0 1815.0,59.0 1815.0,60.2 1817.5,60.2 1817.5,62.2 1820.0,62.2 1820.0,64.6 1822.5,64.6 1822.5,64.8 1825.0,64.8 1825.0,67.6 1832.5,67.6 1832.5,67.6 1840.0,67.6 1840.0,64.8 1842.5,64.8 1842.5,64.6 1845.0,64.6 1845.0,62.2 1847.5,62.2 1847.5,60.2 1850.0,60.2 1850.0,59.0 1852.5,59.0 1852.5,58.4 1855.0,58.4 1855.0,58.199999999999996 1857.5,58.199999999999996 1857.5,58.0 1860.0,58.0 1860.0,56.800000000000004 1865.0,56.800000000000004 1865.0,56.6 1867.5,56.6 1867.5,55.4 1870.0,55.4 1870.0,55.0" stroke="rgb(0,0,0)" /><text fill="black" x="1795.0" y="87.6">H130</text><polygon fill="rgb(150,150,150)" points="2005.0,55.0 2005.0,54.8 1997.5,54.8 1997.5,54.6 1995.0,54.6 1995.0,54.0 1990.0,54.0 1990.0,53.6 1985.0,53.6 1985.0,53.199999999999996 1982.5,53.199999999999996 1982.5,51.6 1980.0,51.6 1980.0,47.0 1977.5,47.0 1977.5,45.400000000000006 1970.0,45.400000000000006 1970.0,45.0 1967.5,45.0 1967.5,44.400000000000006 1965.0,44.400000000000006 1965.0,44.0 1962.5,44.0 1962.5,43.6 1960.0,43.6 1960.0,42.8 1952.5,42.8 1952.5,42.8 1945.0,42.8 1945.0,43.6 1942.5,43.6 1942.5,44.0 1940.0,44.0 1940.0,44.400000000000006 1937.5,44.400000000000006 1937.5,45.0 1935.0,45.0 1935.0,45.400000000000006 1927.5,45.400000000000006 1927.5,47.0 1925.0,47.0 1925.0,51.6 1922.5,51.6 1922.5,53.199999999999996 1920.0,53.199999999999996 1920.0,53.6 1915.0,53.6 1915.0,54.0 1910.0,54.0 1910.0,54.6 1907.5,54.6 1907.5,54.8 1900.0,54.8 1900.0,55.0 1900.0,55.0 1900.0,55.2 1907.5,55.2 1907.5,55.4 1910.0,55.4 1910.0,56.0 1915.0,56.0 1915.0,56.4 1920.0,56.4 1920.0,56.800000000000004 1922.5,56.800000000000004 1922.5,58.4 1925.0,58.4 1925.0,63.0 1927.5,63.0 1927.5,64.6 1935.0,64.6 1935.0,65.0 1937.5,65.0 1937.5,65.6 1940.0,65.6 1940.0,66.0 1942.5,66.0 1942.5,66.4 1945.0,66.4 1945.0,67.2 1952.5,67.2 1952.5,67.2 1960.0,67.2 1960.0,66.4 1962.5,66.4 1962.5,66.0 1965.0,66.0 1965.0,65.6 1967.5,65.6 1967.5,65.0 1970.0,65.0 1970.0,64.6 1977.5,64.6 1977.5,63.0 1980.0,63.0 1980.0,58.4 1982.5,58.4 1982.5,56.800000000000004 1985.0,56.800000000000004 1985.0,56.4 1990.0,56.4 1990.0,56.0 1995.0,56.0 1995.0,55.4 1997.5,55.4 1997.5,55.2 2005.0,55.2 2005.0,55.0" stroke="rgb(0,0,0)" /><text fill="black" x="1900.0" y="87.2">H134</text><polygon fill="rgb(150,150,255)" points="2060.0,55.0 2060.0,54.8 2055.0,54.8 2055.0,53.4 2052.5,53.4 2052.5,52.8 2050.0,52.8 2050.0,43.6 2047.5,43.6 2047.5,43.6 2045.0,43.6 2045.0,52.8 2042.5,52.8 2042.5,53.4 2040.0,53.4 2040.0,54.8 2035.0,54.8 2035.0,55.0 2035.0,55.0 2035.0,55.2 2040.0,55.2 2040.0,56.6 2042.5,56.6 2042.5,57.2 2045.0,57.2 2045.0,66.4 2047.5,66.4 2047.5,66.4 2050.0,66.4 2050.0,57.2 2052.5,57.2 2052.5,56.6 2055.0,56.6 2055.0,55.2 2060.0,55.2 2060.0,55.0" stroke="rgb(0,0,0)" /><text fill="black" x="2035.0" y="86.4">E136</text><polygon fill="rgb(150,150,150)" points="2200.0,55.0 2200.0,54.6 2197.5,54.6 2197.5,54.2 2195.0,54.2 2195.0,52.8 2192.5,52.8 2192.5,51.800000000000004 2190.0,51.800000000000004 2190.0,51.0 2187.5,51.0 2187.5,48.2 2185.0,48.2 2185.0,47.4 2182.5,47.4 2182.5,45.6 2180.0,45.6 2180.0,43.2 2177.5,43.2 2177.5,38.6 2175.0,38.6 2175.0,28.4 2172.5,28.4 2172.5,28.2 2170.0,28.2 2170.0,27.599999999999998 2165.0,27.599999999999998 2165.0,27.199999999999996 2145.0,27.199999999999996 2145.0,27.199999999999996 2125.0,27.199999999999996 2125.0,27.599999999999998 2120.0,27.599999999999998 2120.0,28.2 2117.5,28.2 2117.5,28.4 2115.0,28.4 2115.0,38.6 2112.5,38.6 2112.5,43.2 2110.0,43.2 2110.0,45.6 2107.5,45.6 2107.5,47.4 2105.0,47.4 2105.0,48.2 2102.5,48.2 2102.5,51.0 2100.0,51.0 2100.0,51.800000000000004 2097.5,51.800000000000004 2097.5,52.8 2095.0,52.8 2095.0,54.2 2092.5,54.2 2092.5,54.6 2090.0,54.6 2090.0,55.0 2090.0,55.0 2090.0,55.4 2092.5,55.4 2092.5,55.8 2095.0,55.8 2095.0,57.2 2097.5,57.2 2097.5,58.199999999999996 2100.0,58.199999999999996 2100.0,59.0 2102.5,59.0 2102.5,61.8 2105.0,61.8 2105.0,62.6 2107.5,62.6 2107.5,64.39999999999999 2110.0,64.39999999999999 2110.0,66.8 2112.5,66.8 2112.5,71.4 2115.0,71.4 2115.0,81.6 2117.5,81.6 2117.5,81.8 2120.0,81.8 2120.0,82.4 2125.0,82.4 2125.0,82.80000000000001 2145.0,82.80000000000001 2145.0,82.80000000000001 2165.0,82.80000000000001 2165.0,82.4 2170.0,82.4 2170.0,81.8 2172.5,81.8 2172.5,81.6 2175.0,81.6 2175.0,71.4 2177.5,71.4 2177.5,66.8 2180.0,66.8 2180.0,64.39999999999999 2182.5,64.39999999999999 2182.5,62.6 2185.0,62.6 2185.0,61.8 2187.5,61.8 2187.5,59.0 2190.0,59.0 2190.0,58.199999999999996 2192.5,58.199999999999996 2192.5,57.2 2195.0,57.2 2195.0,55.8 2197.5,55.8 2197.5,55.4 2200.0,55.4 2200.0,55.0" stroke="rgb(0,0,0)" /><text fill="black" x="2090.0" y="102.80000000000001">H142</text><polygon fill="rgb(150,150,150)" points="2275.0,55.0 2275.0,54.4 2272.5,54.4 2272.5,54.2 2262.5,54.2 2262.5,53.8 2260.0,53.8 2260.0,42.8 2252.5,42.8 2252.5,42.8 2245.0,42.8 2245.0,53.8 2242.5,53.8 2242.5,54.2 2232.5,54.2 2232.5,54.4 2230.0,54.4 2230.0,55.0 2230.0,55.0 2230.0,55.6 2232.5,55.6 2232.5,55.8 2242.5,55.8 2242.5,56.2 2245.0,56.2 2245.0,67.2 2252.5,67.2 2252.5,67.2 2260.0,67.2 2260.0,56.2 2262.5,56.2 2262.5,55.8 2272.5,55.8 2272.5,55.6 2275.0,55.6 2275.0,55.0" stroke="rgb(0,0,0)" /><text fill="black" x="2230.0" y="87.2">H149</text><polygon fill="rgb(255,150,150)" points="2365.0,55.0 2365.0,54.8 2352.5,54.8 2352.5,54.0 2350.0,54.0 2350.0,51.2 2347.5,51.2 2347.5,48.2 2345.0,48.2 2345.0,35.2 2342.5,35.2 2342.5,32.0 2340.0,32.0 2340.0,31.200000000000003 2335.0,31.200000000000003 2335.0,31.200000000000003 2330.0,31.200000000000003 2330.0,32.0 2327.5,32.0 2327.5,35.2 2325.0,35.2 2325.0,48.2 2322.5,48.2 2322.5,51.2 2320.0,51.2 2320.0,54.0 2317.5,54.0 2317.5,54.8 2305.0,54.8 2305.0,55.0 2305.0,55.0 2305.0,55.2 2317.5,55.2 2317.5,56.0 2320.0,56.0 2320.0,58.8 2322.5,58.8 2322.5,61.8 2325.0,61.8 2325.0,74.8 2327.5,74.8 2327.5,78.0 2330.0,78.0 2330.0,78.8 2335.0,78.8 2335.0,78.8 2340.0,78.8 2340.0,78.0 2342.5,78.0 2342.5,74.8 2345.0,74.8 2345.0,61.8 2347.5,61.8 2347.5,58.8 2350.0,58.8 2350.0,56.0 2352.5,56.0 2352.5,55.2 2365.0,55.2 2365.0,55.0" stroke="rgb(0,0,0)" /><text fill="black" x="2305.0" y="98.8">E152</text><path d="M 25.0,55.0 a 99.10511363636364,99.10511363636364 0 0,0 177.5,-0.0" stroke="rgb(255,150,150)" stroke-width="2" /><path d="M 25.0,55.0 a 99.10511363636364,99.10511363636364 0 0,0 177.5,-0.0" stroke="rgb(0,0,0)" stroke-width="0.2" /><path d="M 25.0,55.0 a 158.4090909090909,158.4090909090909 0 0,0 240.0,-0.0" stroke="rgb(255,150,150)" stroke-width="2" /><path d="M 25.0,55.0 a 158.4090909090909,158.4090909090909 0 0,0 240.0,-0.0" stroke="rgb(0,0,0)" stroke-width="0.2" /><path d="M 25.0,55.0 a 1238.6363636363637,1238.6363636363637 0 0,0 730.0,-0.0" stroke="rgb(255,150,150)" stroke-width="2" /><path d="M 25.0,55.0 a 1238.6363636363637,1238.6363636363637 0 0,0 730.0,-0.0" stroke="rgb(0,0,0)" stroke-width="0.2" /><path d="M 265.0,55.0 a 135.01420454545456,135.01420454545456 0 0,0 217.5,-0.0" stroke="rgb(255,150,150)" stroke-width="2" /><path d="M 265.0,55.0 a 135.01420454545456,135.01420454545456 0 0,0 217.5,-0.0" stroke="rgb(0,0,0)" stroke-width="0.2" /><path d="M 755.0,55.0 a 467.5,467.5 0 0,0 440.0,-0.0" stroke="rgb(255,150,150)" stroke-width="2" /><path d="M 755.0,55.0 a 467.5,467.5 0 0,0 440.0,-0.0" stroke="rgb(0,0,0)" stroke-width="0.2" /><path d="M 1195.0,55.0 a 567.6278409090909,567.6278409090909 0 0,0 487.5,-0.0" stroke="rgb(255,150,150)" stroke-width="2" /><path d="M 1195.0,55.0 a 567.6278409090909,567.6278409090909 0 0,0 487.5,-0.0" stroke="rgb(0,0,0)" stroke-width="0.2" /><path d="M 1682.5,55.0 a 995.1278409090909,995.1278409090909 0 0,0 652.5,-0.0" stroke="rgb(255,150,150)" stroke-width="2" /><path d="M 1682.5,55.0 a 995.1278409090909,995.1278409090909 0 0,0 652.5,-0.0" stroke="rgb(0,0,0)" stroke-width="0.2" /><path d="M 1757.5,55.0 a 218.63636363636363,218.63636363636363 0 0,0 290.0,-0.0" stroke="rgb(150,150,255)" stroke-width="2" /><path d="M 1757.5,55.0 a 218.63636363636363,218.63636363636363 0 0,0 290.0,-0.0" stroke="rgb(0,0,0)" stroke-width="0.2" /></svg>