<?xml version="1.0" encoding="utf-8" ?>
<svg baseProfile="full" height="100%" style="font-size:14;font-family:Sans, Arial;stroke-width:1;fill:none" version="1.1" width="100%" xmlns="http://www.w3.org/2000/svg" xmlns:ev="http://www.w3.org/2001/xml-events" xmlns:xlink="http://www.w3.org/1999/xlink"><defs /><rect fill="none" height="300.0" stroke="none" width="6618.28715" x="0" y="0" /><line stroke="rgb(0,0,0)" x1="5.0" x2="20.0" y1="225.0" y2="225.0" /><line stroke="rgb(0,0,0)" x1="20.0" x2="35.0" y1="225.0" y2="150.0" /><line stroke="rgb(0,0,0)" x1="35.0" x2="40.0" y1="150.0" y2="150.0" /><line stroke="rgb(0,0,0)" x1="40.0" x2="45.0" y1="150.0" y2="150.0" /><line stroke="rgb(0,0,0)" x1="45.0" x2="55.0" y1="150.0" y2="150.0" /><line stroke="rgb(0,0,0)" x1="55.0" x2="60.0" y1="150.0" y2="150.0" /><line stroke="rgb(0,0,0)" x1="5.0" x2="25.0" y1="75.0" y2="75.0" /><line stroke="rgb(0,0,0)" x1="25.0" x2="55.0" y1="75.0" y2="150.0" /><line stroke="rgb(0,0,0)" x1="55.0" x2="60.0" y1="150.0" y2="150.0" /><line stroke="rgb(0,0,0)" x1="60.0" x2="130.119" y1="150.0" y2="150.0" /><line stroke="rgb(0,0,0)" x1="130.119" x2="140.119" y1="150.0" y2="150.0" /><line stroke="rgb(0,0,0)" x1="140.119" x2="145.119" y1="150.0" y2="150.0" /><line stroke="rgb(0,0,0)" x1="145.119" x2="186.994" y1="150.0" y2="150.0" /><line stroke="rgb(0,0,0)" x1="186.994" x2="196.994" y1="150.0" y2="150.0" /><line stroke="rgb(0,0,0)" x1="196.994" x2="201.994" y1="150.0" y2="150.0" /><line stroke="rgb(0,0,0)" x1="201.994" x2="237.76325" y1="150.0" y2="150.0" /><line stroke="rgb(0,0,0)" x1="237.76325" x2="247.76325" y1="150.0" y2="75.0" /><line stroke="rgb(0,0,0)" x1="247.76325" x2="252.76325" y1="75.0" y2="75.0" /><line stroke="rgb(0,0,0)" x1="201.994" x2="237.76325" y1="150.0" y2="150.0" /><line stroke="rgb(0,0,0)" x1="237.76325" x2="247.76325" y1="150.0" y2="225.0" /><line stroke="rgb(0,0,0)" x1="247.76325" x2="252.76325" y1="225.0" y2="225.0" /><line stroke="rgb(0,0,0)" x1="252.76325" x2="262.76324999999997" y1="75.0" y2="75.0" /><line stroke="rgb(0,0,0)" x1="262.76324999999997" x2="286.26325" y1="75.0" y2="150.0" /><line stroke="rgb(0,0,0)" x1="286.26325" x2="291.26325" y1="150.0" y2="150.0" /><line stroke="rgb(0,0,0)" x1="252.76325" x2="276.26325" y1="225.0" y2="225.0" /><line stroke="rgb(0,0,0)" x1="276.26325" x2="286.26325" y1="225.0" y2="150.0" /><line stroke="rgb(0,0,0)" x1="286.26325" x2="291.26325" y1="150.0" y2="150.0" /><line stroke="rgb(0,0,0)" x1="291.26325" x2="303.08145" y1="150.0" y2="150.0" /><line stroke="rgb(0,0,0)" x1="303.08145" x2="313.08145" y1="150.0" y2="150.0" /><line stroke="rgb(0,0,0)" x1="313.08145" x2="318.08145" y1="150.0" y2="150.0" /><line stroke="rgb(0,0,0)" x1="318.08145" x2="346.86145" y1="150.0" y2="150.0" /><line stroke="rgb(0,0,0)" x1="346.86145" x2="356.86145" y1="150.0" y2="75.0" /><line stroke="rgb(0,0,0)" x1="356.86145" x2="361.86145" y1="75.0" y2="75.0" /><line stroke="rgb(0,0,0)" x1="318.08145" x2="346.86145" y1="150.0" y2="150.0" /><line stroke="rgb(0,0,0)" x1="346.86145" x2="356.86145" y1="150.0" y2="225.0" /><line stroke="rgb(0,0,0)" x1="356.86145" x2="361.86145" y1="225.0" y2="225.0" /><line stroke="rgb(0,0,0)" x1="361.86145" x2="401.86145" y1="75.0" y2="75.0" /><line stroke="rgb(0,0,0)" x1="401.86145" x2="411.86145" y1="75.0" y2="150.0" /><line stroke="rgb(0,0,0)" x1="411.86145" x2="416.86145" y1="150.0" y2="150.0" /><line stroke="rgb(0,0,0)" x1="361.86145" x2="366.86145" y1="225.0" y2="225.0" /><line stroke="rgb(0,0,0)" x1="366.86145" x2="411.86145" y1="225.0" y2="150.0" /><line stroke="rgb(0,0,0)" x1="411.86145" x2="416.86145" y1="150.0" y2="150.0" /><line stroke="rgb(0,0,0)" x1="416.86145" x2="495.61145" y1="150.0" y2="150.0" /><line stroke="rgb(0,0,0)" x1="495.61145" x2="505.61145" y1="150.0" y2="150.0" /><line stroke="rgb(0,0,0)" x1="505.61145" x2="510.61145" y1="150.0" y2="150.0" /><line stroke="rgb(0,0,0)" x1="510.61145" x2="538.11145" y1="150.0" y2="150.0" /><line stroke="rgb(0,0,0)" x1="538.11145" x2="548.11145" y1="150.0" y2="150.0" /><line stroke="rgb(0,0,0)" x1="548.11145" x2="553.11145" y1="150.0" y2="150.0" /><line stroke="rgb(0,0,0)" x1="553.11145" x2="620.71245" y1="150.0" y2="150.0" /><line stroke="rgb(0,0,0)" x1="620.71245" x2="630.71245" y1="150.0" y2="150.0" /><line stroke="rgb(0,0,0)" x1="630.71245" x2="635.71245" y1="150.0" y2="150.0" /><line stroke="rgb(0,0,0)" x1="635.71245" x2="645.71245" y1="150.0" y2="150.0" /><line stroke="rgb(0,0,0)" x1="645.71245" x2="655.71245" y1="150.0" y2="150.0" /><line stroke="rgb(0,0,0)" x1="655.71245" x2="660.71245" y1="150.0" y2="150.0" /><line stroke="rgb(0,0,0)" x1="660.71245" x2="685.3676" y1="150.0" y2="150.0" /><line stroke="rgb(0,0,0)" x1="685.3676" x2="695.3676" y1="150.0" y2="150.0" /><line stroke="rgb(0,0,0)" x1="695.3676" x2="700.3676" y1="150.0" y2="150.0" /><line stroke="rgb(0,0,0)" x1="700.3676" x2="716.9193" y1="150.0" y2="150.0" /><line stroke="rgb(0,0,0)" x1="716.9193" x2="726.9193" y1="150.0" y2="150.0" /><line stroke="rgb(0,0,0)" x1="726.9193" x2="731.9193" y1="150.0" y2="150.0" /><line stroke="rgb(0,0,0)" x1="731.9193" x2="761.7126999999999" y1="150.0" y2="150.0" /><line stroke="rgb(0,0,0)" x1="761.7126999999999" x2="771.7126999999999" y1="150.0" y2="75.0" /><line stroke="rgb(0,0,0)" x1="771.7126999999999" x2="776.7126999999999" y1="75.0" y2="75.0" /><line stroke="rgb(0,0,0)" x1="731.9193" x2="761.7126999999999" y1="150.0" y2="150.0" /><line stroke="rgb(0,0,0)" x1="761.7126999999999" x2="771.7126999999999" y1="150.0" y2="225.0" /><line stroke="rgb(0,0,0)" x1="771.7126999999999" x2="776.7126999999999" y1="225.0" y2="225.0" /><line stroke="rgb(0,0,0)" x1="776.7126999999999" x2="800.7867499999999" y1="75.0" y2="75.0" /><line stroke="rgb(0,0,0)" x1="800.7867499999999" x2="810.7867499999999" y1="75.0" y2="150.0" /><line stroke="rgb(0,0,0)" x1="810.7867499999999" x2="815.7867499999999" y1="150.0" y2="150.0" /><line stroke="rgb(0,0,0)" x1="776.7126999999999" x2="781.7126999999999" y1="225.0" y2="225.0" /><line stroke="rgb(0,0,0)" x1="781.7126999999999" x2="810.7867499999999" y1="225.0" y2="150.0" /><line stroke="rgb(0,0,0)" x1="810.7867499999999" x2="815.7867499999999" y1="150.0" y2="150.0" /><line stroke="rgb(0,0,0)" x1="815.7867499999999" x2="827.4533999999999" y1="150.0" y2="150.0" /><line stroke="rgb(0,0,0)" x1="827.4533999999999" x2="837.4533999999999" y1="150.0" y2="150.0" /><line stroke="rgb(0,0,0)" x1="837.4533999999999" x2="842.4533999999999" y1="150.0" y2="150.0" /><line stroke="rgb(0,0,0)" x1="842.4533999999999" x2="879.9533999999999" y1="150.0" y2="150.0" /><line stroke="rgb(0,0,0)" x1="879.9533999999999" x2="889.9533999999999" y1="150.0" y2="150.0" /><line stroke="rgb(0,0,0)" x1="889.9533999999999" x2="894.9533999999999" y1="150.0" y2="150.0" /><line stroke="rgb(0,0,0)" x1="894.9533999999999" x2="922.4533999999999" y1="150.0" y2="150.0" /><line stroke="rgb(0,0,0)" x1="922.4533999999999" x2="932.4533999999999" y1="150.0" y2="150.0" /><line stroke="rgb(0,0,0)" x1="932.4533999999999" x2="937.4533999999999" y1="150.0" y2="150.0" /><line stroke="rgb(0,0,0)" x1="937.4533999999999" x2="957.4533999999999" y1="150.0" y2="150.0" /><line stroke="rgb(0,0,0)" x1="957.4533999999999" x2="967.4533999999999" y1="150.0" y2="150.0" /><line stroke="rgb(0,0,0)" x1="967.4533999999999" x2="972.4533999999999" y1="150.0" y2="150.0" /><line stroke="rgb(0,0,0)" x1="972.4533999999999" x2="982.4533999999999" y1="150.0" y2="150.0" /><line stroke="rgb(0,0,0)" x1="982.4533999999999" x2="992.4533999999999" y1="150.0" y2="150.0" /><line stroke="rgb(0,0,0)" x1="992.4533999999999" x2="997.4533999999999" y1="150.0" y2="150.0" /><line stroke="rgb(0,0,0)" x1="997.4533999999999" x2="1060.6544" y1="150.0" y2="150.0" /><line stroke="rgb(0,0,0)" x1="1060.6544" x2="1070.6544" y1="150.0" y2="150.0" /><line stroke="rgb(0,0,0)" x1="1070.6544" x2="1075.6544" y1="150.0" y2="150.0" /><line stroke="rgb(0,0,0)" x1="1075.6544" x2="1097.3210499999998" y1="150.0" y2="150.0" /><line stroke="rgb(0,0,0)" x1="1097.3210499999998" x2="1107.3210499999998" y1="150.0" y2="150.0" /><line stroke="rgb(0,0,0)" x1="1107.3210499999998" x2="1112.3210499999998" y1="150.0" y2="150.0" /><line stroke="rgb(0,0,0)" x1="1112.3210499999998" x2="1132.3210499999998" y1="150.0" y2="150.0" /><line stroke="rgb(0,0,0)" x1="1132.3210499999998" x2="1142.3210499999998" y1="150.0" y2="150.0" /><line stroke="rgb(0,0,0)" x1="1142.3210499999998" x2="1147.3210499999998" y1="150.0" y2="150.0" /><line stroke="rgb(0,0,0)" x1="1147.3210499999998" x2="1168.9876999999997" y1="150.0" y2="150.0" /><line stroke="rgb(0,0,0)" x1="1168.9876999999997" x2="1178.9876999999997" y1="150.0" y2="150.0" /><line stroke="rgb(0,0,0)" x1="1178.9876999999997" x2="1183.9876999999997" y1="150.0" y2="150.0" /><line stroke="rgb(0,0,0)" x1="1183.9876999999997" x2="1206.8001999999997" y1="150.0" y2="150.0" /><line stroke="rgb(0,0,0)" x1="1206.8001999999997" x2="1216.8001999999997" y1="150.0" y2="150.0" /><line stroke="rgb(0,0,0)" x1="1216.8001999999997" x2="1221.8001999999997" y1="150.0" y2="150.0" /><line stroke="rgb(0,0,0)" x1="1221.8001999999997" x2="1244.9946499999996" y1="150.0" y2="150.0" /><line stroke="rgb(0,0,0)" x1="1244.9946499999996" x2="1254.9946499999996" y1="150.0" y2="150.0" /><line stroke="rgb(0,0,0)" x1="1254.9946499999996" x2="1259.9946499999996" y1="150.0" y2="150.0" /><line stroke="rgb(0,0,0)" x1="1259.9946499999996" x2="1292.9358499999998" y1="150.0" y2="150.0" /><line stroke="rgb(0,0,0)" x1="1292.9358499999998" x2="1302.9358499999998" y1="150.0" y2="75.0" /><line stroke="rgb(0,0,0)" x1="1302.9358499999998" x2="1307.9358499999998" y1="75.0" y2="75.0" /><line stroke="rgb(0,0,0)" x1="1259.9946499999996" x2="1292.9358499999998" y1="150.0" y2="150.0" /><line stroke="rgb(0,0,0)" x1="1292.9358499999998" x2="1302.9358499999998" y1="150.0" y2="225.0" /><line stroke="rgb(0,0,0)" x1="1302.9358499999998" x2="1307.9358499999998" y1="225.0" y2="225.0" /><line stroke="rgb(0,0,0)" x1="1307.9358499999998" x2="1320.4358499999998" y1="75.0" y2="75.0" /><line stroke="rgb(0,0,0)" x1="1320.4358499999998" x2="1346.6025" y1="75.0" y2="150.0" /><line stroke="rgb(0,0,0)" x1="1346.6025" x2="1351.6025" y1="150.0" y2="150.0" /><line stroke="rgb(0,0,0)" x1="1351.6025" x2="1364.1025" y1="150.0" y2="150.0" /><line stroke="rgb(0,0,0)" x1="1364.1025" x2="1374.1025" y1="150.0" y2="150.0" /><line stroke="rgb(0,0,0)" x1="1374.1025" x2="1379.1025" y1="150.0" y2="150.0" /><line stroke="rgb(0,0,0)" x1="1307.9358499999998" x2="1336.6025" y1="225.0" y2="225.0" /><line stroke="rgb(0,0,0)" x1="1336.6025" x2="1374.1025" y1="225.0" y2="150.0" /><line stroke="rgb(0,0,0)" x1="1374.1025" x2="1379.1025" y1="150.0" y2="150.0" /><line stroke="rgb(0,0,0)" x1="1379.1025" x2="1395.7691499999999" y1="150.0" y2="150.0" /><line stroke="rgb(0,0,0)" x1="1395.7691499999999" x2="1405.7691499999999" y1="150.0" y2="150.0" /><line stroke="rgb(0,0,0)" x1="1405.7691499999999" x2="1410.7691499999999" y1="150.0" y2="150.0" /><line stroke="rgb(0,0,0)" x1="1410.7691499999999" x2="1434.7176499999998" y1="150.0" y2="150.0" /><line stroke="rgb(0,0,0)" x1="1434.7176499999998" x2="1444.7176499999998" y1="150.0" y2="150.0" /><line stroke="rgb(0,0,0)" x1="1444.7176499999998" x2="1449.7176499999998" y1="150.0" y2="150.0" /><line stroke="rgb(0,0,0)" x1="1449.7176499999998" x2="1454.7176499999998" y1="150.0" y2="150.0" /><line stroke="rgb(0,0,0)" x1="1454.7176499999998" x2="1464.7176499999998" y1="150.0" y2="150.0" /><line stroke="rgb(0,0,0)" x1="1464.7176499999998" x2="1469.7176499999998" y1="150.0" y2="150.0" /><line stroke="rgb(0,0,0)" x1="1469.7176499999998" x2="1481.3842999999997" y1="150.0" y2="150.0" /><line stroke="rgb(0,0,0)" x1="1481.3842999999997" x2="1491.3842999999997" y1="150.0" y2="150.0" /><line stroke="rgb(0,0,0)" x1="1491.3842999999997" x2="1496.3842999999997" y1="150.0" y2="150.0" /><line stroke="rgb(0,0,0)" x1="1496.3842999999997" x2="1516.9127499999995" y1="150.0" y2="150.0" /><line stroke="rgb(0,0,0)" x1="1516.9127499999995" x2="1526.9127499999995" y1="150.0" y2="150.0" /><line stroke="rgb(0,0,0)" x1="1526.9127499999995" x2="1531.9127499999995" y1="150.0" y2="150.0" /><line stroke="rgb(0,0,0)" x1="1531.9127499999995" x2="1536.9127499999995" y1="150.0" y2="150.0" /><line stroke="rgb(0,0,0)" x1="1536.9127499999995" x2="1546.9127499999995" y1="150.0" y2="150.0" /><line stroke="rgb(0,0,0)" x1="1546.9127499999995" x2="1551.9127499999995" y1="150.0" y2="150.0" /><line stroke="rgb(0,0,0)" x1="1551.9127499999995" x2="1586.9127499999995" y1="150.0" y2="150.0" /><line stroke="rgb(0,0,0)" x1="1586.9127499999995" x2="1596.9127499999995" y1="150.0" y2="150.0" /><line stroke="rgb(0,0,0)" x1="1596.9127499999995" x2="1601.9127499999995" y1="150.0" y2="150.0" /><line stroke="rgb(0,0,0)" x1="1601.9127499999995" x2="1606.9127499999995" y1="150.0" y2="150.0" /><line stroke="rgb(0,0,0)" x1="1606.9127499999995" x2="1616.9127499999995" y1="150.0" y2="150.0" /><line stroke="rgb(0,0,0)" x1="1616.9127499999995" x2="1621.9127499999995" y1="150.0" y2="150.0" /><line stroke="rgb(0,0,0)" x1="1621.9127499999995" x2="1645.2460999999996" y1="150.0" y2="150.0" /><line stroke="rgb(0,0,0)" x1="1645.2460999999996" x2="1655.2460999999996" y1="150.0" y2="150.0" /><line stroke="rgb(0,0,0)" x1="1655.2460999999996" x2="1660.2460999999996" y1="150.0" y2="150.0" /><line stroke="rgb(0,0,0)" x1="1660.2460999999996" x2="1665.2460999999996" y1="150.0" y2="150.0" /><line stroke="rgb(0,0,0)" x1="1665.2460999999996" x2="1675.2460999999996" y1="150.0" y2="150.0" /><line stroke="rgb(0,0,0)" x1="1675.2460999999996" x2="1680.2460999999996" y1="150.0" y2="150.0" /><line stroke="rgb(0,0,0)" x1="1680.2460999999996" x2="1710.2460999999996" y1="150.0" y2="150.0" /><line stroke="rgb(0,0,0)" x1="1710.2460999999996" x2="1720.2460999999996" y1="150.0" y2="150.0" /><line stroke="rgb(0,0,0)" x1="1720.2460999999996" x2="1725.2460999999996" y1="150.0" y2="150.0" /><line stroke="rgb(0,0,0)" x1="1725.2460999999996" x2="1777.3889499999996" y1="150.0" y2="150.0" /><line stroke="rgb(0,0,0)" x1="1777.3889499999996" x2="1787.3889499999996" y1="150.0" y2="150.0" /><line stroke="rgb(0,0,0)" x1="1787.3889499999996" x2="1792.3889499999996" y1="150.0" y2="150.0" /><line stroke="rgb(0,0,0)" x1="1792.3889499999996" x2="1804.8889499999996" y1="150.0" y2="150.0" /><line stroke="rgb(0,0,0)" x1="1804.8889499999996" x2="1814.8889499999996" y1="150.0" y2="150.0" /><line stroke="rgb(0,0,0)" x1="1814.8889499999996" x2="1819.8889499999996" y1="150.0" y2="150.0" /><line stroke="rgb(0,0,0)" x1="1819.8889499999996" x2="1871.3398499999996" y1="150.0" y2="150.0" /><line stroke="rgb(0,0,0)" x1="1871.3398499999996" x2="1881.3398499999996" y1="150.0" y2="150.0" /><line stroke="rgb(0,0,0)" x1="1881.3398499999996" x2="1886.3398499999996" y1="150.0" y2="150.0" /><line stroke="rgb(0,0,0)" x1="1886.3398499999996" x2="1914.0481999999997" y1="150.0" y2="150.0" /><line stroke="rgb(0,0,0)" x1="1914.0481999999997" x2="1924.0481999999997" y1="150.0" y2="150.0" /><line stroke="rgb(0,0,0)" x1="1924.0481999999997" x2="1929.0481999999997" y1="150.0" y2="150.0" /><line stroke="rgb(0,0,0)" x1="1929.0481999999997" x2="1934.0481999999997" y1="150.0" y2="150.0" /><line stroke="rgb(0,0,0)" x1="1934.0481999999997" x2="1944.0481999999997" y1="150.0" y2="150.0" /><line stroke="rgb(0,0,0)" x1="1944.0481999999997" x2="1949.0481999999997" y1="150.0" y2="150.0" /><line stroke="rgb(0,0,0)" x1="1949.0481999999997" x2="1959.0481999999997" y1="150.0" y2="150.0" /><line stroke="rgb(0,0,0)" x1="1959.0481999999997" x2="1969.0481999999997" y1="150.0" y2="150.0" /><line stroke="rgb(0,0,0)" x1="1969.0481999999997" x2="1974.0481999999997" y1="150.0" y2="150.0" /><line stroke="rgb(0,0,0)" x1="1974.0481999999997" x2="1986.9053499999998" y1="150.0" y2="150.0" /><line stroke="rgb(0,0,0)" x1="1986.9053499999998" x2="1996.9053499999998" y1="150.0" y2="150.0" /><line stroke="rgb(0,0,0)" x1="1996.9053499999998" x2="2001.9053499999998" y1="150.0" y2="150.0" /><line stroke="rgb(0,0,0)" x1="2001.9053499999998" x2="2006.9053499999998" y1="150.0" y2="150.0" /><line stroke="rgb(0,0,0)" x1="2006.9053499999998" x2="2016.9053499999998" y1="150.0" y2="150.0" /><line stroke="rgb(0,0,0)" x1="2016.9053499999998" x2="2021.9053499999998" y1="150.0" y2="150.0" /><line stroke="rgb(0,0,0)" x1="2021.9053499999998" x2="2047.2102499999996" y1="150.0" y2="150.0" /><line stroke="rgb(0,0,0)" x1="2047.2102499999996" x2="2057.2102499999996" y1="150.0" y2="150.0" /><line stroke="rgb(0,0,0)" x1="2057.2102499999996" x2="2062.2102499999996" y1="150.0" y2="150.0" /><line stroke="rgb(0,0,0)" x1="2062.2102499999996" x2="2075.2102499999996" y1="150.0" y2="150.0" /><line stroke="rgb(0,0,0)" x1="2075.2102499999996" x2="2085.2102499999996" y1="150.0" y2="150.0" /><line stroke="rgb(0,0,0)" x1="2085.2102499999996" x2="2090.2102499999996" y1="150.0" y2="150.0" /><line stroke="rgb(0,0,0)" x1="2090.2102499999996" x2="2095.2102499999996" y1="150.0" y2="150.0" /><line stroke="rgb(0,0,0)" x1="2095.2102499999996" x2="2105.2102499999996" y1="150.0" y2="150.0" /><line stroke="rgb(0,0,0)" x1="2105.2102499999996" x2="2110.2102499999996" y1="150.0" y2="150.0" /><line stroke="rgb(0,0,0)" x1="2110.2102499999996" x2="2125.2102499999996" y1="150.0" y2="150.0" /><line stroke="rgb(0,0,0)" x1="2125.2102499999996" x2="2135.2102499999996" y1="150.0" y2="150.0" /><line stroke="rgb(0,0,0)" x1="2135.2102499999996" x2="2140.2102499999996" y1="150.0" y2="150.0" /><line stroke="rgb(0,0,0)" x1="2140.2102499999996" x2="2171.2518999999998" y1="150.0" y2="150.0" /><line stroke="rgb(0,0,0)" x1="2171.2518999999998" x2="2181.2518999999998" y1="150.0" y2="150.0" /><line stroke="rgb(0,0,0)" x1="2181.2518999999998" x2="2186.2518999999998" y1="150.0" y2="150.0" /><line stroke="rgb(0,0,0)" x1="2186.2518999999998" x2="2191.2518999999998" y1="150.0" y2="150.0" /><line stroke="rgb(0,0,0)" x1="2191.2518999999998" x2="2201.2518999999998" y1="150.0" y2="150.0" /><line stroke="rgb(0,0,0)" x1="2201.2518999999998" x2="2206.2518999999998" y1="150.0" y2="150.0" /><line stroke="rgb(0,0,0)" x1="2206.2518999999998" x2="2211.2518999999998" y1="150.0" y2="150.0" /><line stroke="rgb(0,0,0)" x1="2211.2518999999998" x2="2221.2518999999998" y1="150.0" y2="75.0" /><line stroke="rgb(0,0,0)" x1="2221.2518999999998" x2="2226.2518999999998" y1="75.0" y2="75.0" /><line stroke="rgb(0,0,0)" x1="2206.2518999999998" x2="2211.2518999999998" y1="150.0" y2="150.0" /><line stroke="rgb(0,0,0)" x1="2211.2518999999998" x2="2221.2518999999998" y1="150.0" y2="225.0" /><line stroke="rgb(0,0,0)" x1="2221.2518999999998" x2="2226.2518999999998" y1="225.0" y2="225.0" /><line stroke="rgb(0,0,0)" x1="2226.2518999999998" x2="2231.2518999999998" y1="75.0" y2="75.0" /><line stroke="rgb(0,0,0)" x1="2231.2518999999998" x2="2241.2518999999998" y1="75.0" y2="150.0" /><line stroke="rgb(0,0,0)" x1="2241.2518999999998" x2="2246.2518999999998" y1="150.0" y2="150.0" /><line stroke="rgb(0,0,0)" x1="2226.2518999999998" x2="2231.2518999999998" y1="225.0" y2="225.0" /><line stroke="rgb(0,0,0)" x1="2231.2518999999998" x2="2241.2518999999998" y1="225.0" y2="150.0" /><line stroke="rgb(0,0,0)" x1="2241.2518999999998" x2="2246.2518999999998" y1="150.0" y2="150.0" /><line stroke="rgb(0,0,0)" x1="2246.2518999999998" x2="2251.2518999999998" y1="150.0" y2="150.0" /><line stroke="rgb(0,0,0)" x1="2251.2518999999998" x2="2261.2518999999998" y1="150.0" y2="150.0" /><line stroke="rgb(0,0,0)" x1="2261.2518999999998" x2="2266.2518999999998" y1="150.0" y2="150.0" /><line stroke="rgb(0,0,0)" x1="2266.2518999999998" x2="2278.7518999999998" y1="150.0" y2="150.0" /><line stroke="rgb(0,0,0)" x1="2278.7518999999998" x2="2288.7518999999998" y1="150.0" y2="150.0" /><line stroke="rgb(0,0,0)" x1="2288.7518999999998" x2="2293.7518999999998" y1="150.0" y2="150.0" /><line stroke="rgb(0,0,0)" x1="2293.7518999999998" x2="2298.7518999999998" y1="150.0" y2="150.0" /><line stroke="rgb(0,0,0)" x1="2298.7518999999998" x2="2308.7518999999998" y1="150.0" y2="150.0" /><line stroke="rgb(0,0,0)" x1="2308.7518999999998" x2="2313.7518999999998" y1="150.0" y2="150.0" /><line stroke="rgb(0,0,0)" x1="2313.7518999999998" x2="2318.7518999999998" y1="150.0" y2="150.0" /><line stroke="rgb(0,0,0)" x1="2318.7518999999998" x2="2328.7518999999998" y1="150.0" y2="150.0" /><line stroke="rgb(0,0,0)" x1="2328.7518999999998" x2="2333.7518999999998" y1="150.0" y2="150.0" /><line stroke="rgb(0,0,0)" x1="2333.7518999999998" x2="2338.7518999999998" y1="150.0" y2="150.0" /><line stroke="rgb(0,0,0)" x1="2338.7518999999998" x2="2348.7518999999998" y1="150.0" y2="150.0" /><line stroke="rgb(0,0,0)" x1="2348.7518999999998" x2="2353.7518999999998" y1="150.0" y2="150.0" /><line stroke="rgb(0,0,0)" x1="2353.7518999999998" x2="2358.7518999999998" y1="150.0" y2="150.0" /><line stroke="rgb(0,0,0)" x1="2358.7518999999998" x2="2368.7518999999998" y1="150.0" y2="75.0" /><line stroke="rgb(0,0,0)" x1="2368.7518999999998" x2="2373.7518999999998" y1="75.0" y2="75.0" /><line stroke="rgb(0,0,0)" x1="2353.7518999999998" x2="2358.7518999999998" y1="150.0" y2="150.0" /><line stroke="rgb(0,0,0)" x1="2358.7518999999998" x2="2368.7518999999998" y1="150.0" y2="225.0" /><line stroke="rgb(0,0,0)" x1="2368.7518999999998" x2="2373.7518999999998" y1="225.0" y2="225.0" /><line stroke="rgb(0,0,0)" x1="2373.7518999999998" x2="2378.7518999999998" y1="225.0" y2="225.0" /><line stroke="rgb(0,0,0)" x1="2378.7518999999998" x2="2388.7518999999998" y1="225.0" y2="150.0" /><line stroke="rgb(0,0,0)" x1="2388.7518999999998" x2="2393.7518999999998" y1="150.0" y2="150.0" /><line stroke="rgb(0,0,0)" x1="2393.7518999999998" x2="2398.7518999999998" y1="150.0" y2="150.0" /><line stroke="rgb(0,0,0)" x1="2398.7518999999998" x2="2408.7518999999998" y1="150.0" y2="150.0" /><line stroke="rgb(0,0,0)" x1="2408.7518999999998" x2="2413.7518999999998" y1="150.0" y2="150.0" /><line stroke="rgb(0,0,0)" x1="2413.7518999999998" x2="2418.7518999999998" y1="150.0" y2="150.0" /><line stroke="rgb(0,0,0)" x1="2418.7518999999998" x2="2428.7518999999998" y1="150.0" y2="150.0" /><line stroke="rgb(0,0,0)" x1="2428.7518999999998" x2="2433.7518999999998" y1="150.0" y2="150.0" /><line stroke="rgb(0,0,0)" x1="2373.7518999999998" x2="2378.7518999999998" y1="75.0" y2="75.0" /><line stroke="rgb(0,0,0)" x1="2378.7518999999998" x2="2428.7518999999998" y1="75.0" y2="150.0" /><line stroke="rgb(0,0,0)" x1="2428.7518999999998" x2="2433.7518999999998" y1="150.0" y2="150.0" /><line stroke="rgb(0,0,0)" x1="2433.7518999999998" x2="2438.7518999999998" y1="150.0" y2="150.0" /><line stroke="rgb(0,0,0)" x1="2438.7518999999998" x2="2448.7518999999998" y1="150.0" y2="150.0" /><line stroke="rgb(0,0,0)" x1="2448.7518999999998" x2="2453.7518999999998" y1="150.0" y2="150.0" /><line stroke="rgb(0,0,0)" x1="2453.7518999999998" x2="2458.7518999999998" y1="150.0" y2="150.0" /><line stroke="rgb(0,0,0)" x1="2458.7518999999998" x2="2468.7518999999998" y1="150.0" y2="150.0" /><line stroke="rgb(0,0,0)" x1="2468.7518999999998" x2="2473.7518999999998" y1="150.0" y2="150.0" /><line stroke="rgb(0,0,0)" x1="2473.7518999999998" x2="2478.7518999999998" y1="150.0" y2="150.0" /><line stroke="rgb(0,0,0)" x1="2478.7518999999998" x2="2488.7518999999998" y1="150.0" y2="150.0" /><line stroke="rgb(0,0,0)" x1="2488.7518999999998" x2="2493.7518999999998" y1="150.0" y2="150.0" /><line stroke="rgb(0,0,0)" x1="2493.7518999999998" x2="2498.7518999999998" y1="150.0" y2="150.0" /><line stroke="rgb(0,0,0)" x1="2498.7518999999998" x2="2508.7518999999998" y1="150.0" y2="150.0" /><line stroke="rgb(0,0,0)" x1="2508.7518999999998" x2="2513.7518999999998" y1="150.0" y2="150.0" /><line stroke="rgb(0,0,0)" x1="2513.7518999999998" x2="2518.7518999999998" y1="150.0" y2="150.0" /><line stroke="rgb(0,0,0)" x1="2518.7518999999998" x2="2528.7518999999998" y1="150.0" y2="150.0" /><line stroke="rgb(0,0,0)" x1="2528.7518999999998" x2="2533.7518999999998" y1="150.0" y2="150.0" /><line stroke="rgb(0,0,0)" x1="2533.7518999999998" x2="2538.7518999999998" y1="150.0" y2="150.0" /><line stroke="rgb(0,0,0)" x1="2538.7518999999998" x2="2548.7518999999998" y1="150.0" y2="75.0" /><line stroke="rgb(0,0,0)" x1="2548.7518999999998" x2="2553.7518999999998" y1="75.0" y2="75.0" /><line stroke="rgb(0,0,0)" x1="2533.7518999999998" x2="2538.7518999999998" y1="150.0" y2="150.0" /><line stroke="rgb(0,0,0)" x1="2538.7518999999998" x2="2548.7518999999998" y1="150.0" y2="225.0" /><line stroke="rgb(0,0,0)" x1="2548.7518999999998" x2="2553.7518999999998" y1="225.0" y2="225.0" /><line stroke="rgb(0,0,0)" x1="2553.7518999999998" x2="2558.7518999999998" y1="75.0" y2="75.0" /><line stroke="rgb(0,0,0)" x1="2558.7518999999998" x2="2568.7518999999998" y1="75.0" y2="150.0" /><line stroke="rgb(0,0,0)" x1="2568.7518999999998" x2="2573.7518999999998" y1="150.0" y2="150.0" /><line stroke="rgb(0,0,0)" x1="2553.7518999999998" x2="2558.7518999999998" y1="225.0" y2="225.0" /><line stroke="rgb(0,0,0)" x1="2558.7518999999998" x2="2568.7518999999998" y1="225.0" y2="150.0" /><line stroke="rgb(0,0,0)" x1="2568.7518999999998" x2="2573.7518999999998" y1="150.0" y2="150.0" /><line stroke="rgb(0,0,0)" x1="2573.7518999999998" x2="2578.7518999999998" y1="150.0" y2="150.0" /><line stroke="rgb(0,0,0)" x1="2578.7518999999998" x2="2588.7518999999998" y1="150.0" y2="150.0" /><line stroke="rgb(0,0,0)" x1="2588.7518999999998" x2="2593.7518999999998" y1="150.0" y2="150.0" /><line stroke="rgb(0,0,0)" x1="2593.7518999999998" x2="2598.7518999999998" y1="150.0" y2="150.0" /><line stroke="rgb(0,0,0)" x1="2598.7518999999998" x2="2608.7518999999998" y1="150.0" y2="150.0" /><line stroke="rgb(0,0,0)" x1="2608.7518999999998" x2="2613.7518999999998" y1="150.0" y2="150.0" /><line stroke="rgb(0,0,0)" x1="2613.7518999999998" x2="2638.7518999999998" y1="150.0" y2="150.0" /><line stroke="rgb(0,0,0)" x1="2638.7518999999998" x2="2648.7518999999998" y1="150.0" y2="150.0" /><line stroke="rgb(0,0,0)" x1="2648.7518999999998" x2="2653.7518999999998" y1="150.0" y2="150.0" /><line stroke="rgb(0,0,0)" x1="2653.7518999999998" x2="2658.7518999999998" y1="150.0" y2="150.0" /><line stroke="rgb(0,0,0)" x1="2658.7518999999998" x2="2668.7518999999998" y1="150.0" y2="150.0" /><line stroke="rgb(0,0,0)" x1="2668.7518999999998" x2="2673.7518999999998" y1="150.0" y2="150.0" /><line stroke="rgb(0,0,0)" x1="2673.7518999999998" x2="2683.7518999999998" y1="150.0" y2="150.0" /><line stroke="rgb(0,0,0)" x1="2683.7518999999998" x2="2693.7518999999998" y1="150.0" y2="75.0" /><line stroke="rgb(0,0,0)" x1="2693.7518999999998" x2="2698.7518999999998" y1="75.0" y2="75.0" /><line stroke="rgb(0,0,0)" x1="2673.7518999999998" x2="2683.7518999999998" y1="150.0" y2="150.0" /><line stroke="rgb(0,0,0)" x1="2683.7518999999998" x2="2693.7518999999998" y1="150.0" y2="225.0" /><line stroke="rgb(0,0,0)" x1="2693.7518999999998" x2="2698.7518999999998" y1="225.0" y2="225.0" /><line stroke="rgb(0,0,0)" x1="2698.7518999999998" x2="2711.2518999999998" y1="75.0" y2="75.0" /><line stroke="rgb(0,0,0)" x1="2711.2518999999998" x2="2735.675" y1="75.0" y2="150.0" /><line stroke="rgb(0,0,0)" x1="2735.675" x2="2740.675" y1="150.0" y2="150.0" /><line stroke="rgb(0,0,0)" x1="2740.675" x2="2750.9131" y1="150.0" y2="150.0" /><line stroke="rgb(0,0,0)" x1="2750.9131" x2="2760.9131" y1="150.0" y2="150.0" /><line stroke="rgb(0,0,0)" x1="2760.9131" x2="2765.9131" y1="150.0" y2="150.0" /><line stroke="rgb(0,0,0)" x1="2698.7518999999998" x2="2725.675" y1="225.0" y2="225.0" /><line stroke="rgb(0,0,0)" x1="2725.675" x2="2760.9131" y1="225.0" y2="150.0" /><line stroke="rgb(0,0,0)" x1="2760.9131" x2="2765.9131" y1="150.0" y2="150.0" /><line stroke="rgb(0,0,0)" x1="2765.9131" x2="2786.0916500000003" y1="150.0" y2="150.0" /><line stroke="rgb(0,0,0)" x1="2786.0916500000003" x2="2796.0916500000003" y1="150.0" y2="150.0" /><line stroke="rgb(0,0,0)" x1="2796.0916500000003" x2="2801.0916500000003" y1="150.0" y2="150.0" /><line stroke="rgb(0,0,0)" x1="2801.0916500000003" x2="2896.37315" y1="150.0" y2="150.0" /><line stroke="rgb(0,0,0)" x1="2896.37315" x2="2906.37315" y1="150.0" y2="150.0" /><line stroke="rgb(0,0,0)" x1="2906.37315" x2="2911.37315" y1="150.0" y2="150.0" /><line stroke="rgb(0,0,0)" x1="2911.37315" x2="2945.2192999999997" y1="150.0" y2="150.0" /><line stroke="rgb(0,0,0)" x1="2945.2192999999997" x2="2955.2192999999997" y1="150.0" y2="150.0" /><line stroke="rgb(0,0,0)" x1="2955.2192999999997" x2="2960.2192999999997" y1="150.0" y2="150.0" /><line stroke="rgb(0,0,0)" x1="2960.2192999999997" x2="2970.2192999999997" y1="150.0" y2="150.0" /><line stroke="rgb(0,0,0)" x1="2970.2192999999997" x2="2980.2192999999997" y1="150.0" y2="150.0" /><line stroke="rgb(0,0,0)" x1="2980.2192999999997" x2="2985.2192999999997" y1="150.0" y2="150.0" /><line stroke="rgb(0,0,0)" x1="2985.2192999999997" x2="3007.0942999999997" y1="150.0" y2="150.0" /><line stroke="rgb(0,0,0)" x1="3007.0942999999997" x2="3017.0942999999997" y1="150.0" y2="150.0" /><line stroke="rgb(0,0,0)" x1="3017.0942999999997" x2="3022.0942999999997" y1="150.0" y2="150.0" /><line stroke="rgb(0,0,0)" x1="3022.0942999999997" x2="3051.2167499999996" y1="150.0" y2="150.0" /><line stroke="rgb(0,0,0)" x1="3051.2167499999996" x2="3061.2167499999996" y1="150.0" y2="150.0" /><line stroke="rgb(0,0,0)" x1="3061.2167499999996" x2="3066.2167499999996" y1="150.0" y2="150.0" /><line stroke="rgb(0,0,0)" x1="3066.2167499999996" x2="3086.2167499999996" y1="150.0" y2="150.0" /><line stroke="rgb(0,0,0)" x1="3086.2167499999996" x2="3096.2167499999996" y1="150.0" y2="150.0" /><line stroke="rgb(0,0,0)" x1="3096.2167499999996" x2="3101.2167499999996" y1="150.0" y2="150.0" /><line stroke="rgb(0,0,0)" x1="3101.2167499999996" x2="3127.8116" y1="150.0" y2="150.0" /><line stroke="rgb(0,0,0)" x1="3127.8116" x2="3137.8116" y1="150.0" y2="150.0" /><line stroke="rgb(0,0,0)" x1="3137.8116" x2="3142.8116" y1="150.0" y2="150.0" /><line stroke="rgb(0,0,0)" x1="3142.8116" x2="3152.8116" y1="150.0" y2="150.0" /><line stroke="rgb(0,0,0)" x1="3152.8116" x2="3162.8116" y1="150.0" y2="150.0" /><line stroke="rgb(0,0,0)" x1="3162.8116" x2="3167.8116" y1="150.0" y2="150.0" /><line stroke="rgb(0,0,0)" x1="3167.8116" x2="3190.5894" y1="150.0" y2="150.0" /><line stroke="rgb(0,0,0)" x1="3190.5894" x2="3200.5894" y1="150.0" y2="150.0" /><line stroke="rgb(0,0,0)" x1="3200.5894" x2="3205.5894" y1="150.0" y2="150.0" /><line stroke="rgb(0,0,0)" x1="3205.5894" x2="3210.5894" y1="150.0" y2="150.0" /><line stroke="rgb(0,0,0)" x1="3210.5894" x2="3220.5894" y1="150.0" y2="75.0" /><line stroke="rgb(0,0,0)" x1="3220.5894" x2="3225.5894" y1="75.0" y2="75.0" /><line stroke="rgb(0,0,0)" x1="3205.5894" x2="3210.5894" y1="150.0" y2="150.0" /><line stroke="rgb(0,0,0)" x1="3210.5894" x2="3220.5894" y1="150.0" y2="225.0" /><line stroke="rgb(0,0,0)" x1="3220.5894" x2="3225.5894" y1="225.0" y2="225.0" /><line stroke="rgb(0,0,0)" x1="3225.5894" x2="3230.5894" y1="75.0" y2="75.0" /><line stroke="rgb(0,0,0)" x1="3230.5894" x2="3240.5894" y1="75.0" y2="150.0" /><line stroke="rgb(0,0,0)" x1="3240.5894" x2="3245.5894" y1="150.0" y2="150.0" /><line stroke="rgb(0,0,0)" x1="3225.5894" x2="3230.5894" y1="225.0" y2="225.0" /><line stroke="rgb(0,0,0)" x1="3230.5894" x2="3240.5894" y1="225.0" y2="150.0" /><line stroke="rgb(0,0,0)" x1="3240.5894" x2="3245.5894" y1="150.0" y2="150.0" /><line stroke="rgb(0,0,0)" x1="3245.5894" x2="3250.5894" y1="150.0" y2="150.0" /><line stroke="rgb(0,0,0)" x1="3250.5894" x2="3260.5894" y1="150.0" y2="150.0" /><line stroke="rgb(0,0,0)" x1="3260.5894" x2="3265.5894" y1="150.0" y2="150.0" /><line stroke="rgb(0,0,0)" x1="3265.5894" x2="3270.5894" y1="150.0" y2="150.0" /><line stroke="rgb(0,0,0)" x1="3270.5894" x2="3280.5894" y1="150.0" y2="150.0" /><line stroke="rgb(0,0,0)" x1="3280.5894" x2="3285.5894" y1="150.0" y2="150.0" /><line stroke="rgb(0,0,0)" x1="3285.5894" x2="3290.5894" y1="150.0" y2="150.0" /><line stroke="rgb(0,0,0)" x1="3290.5894" x2="3300.5894" y1="150.0" y2="150.0" /><line stroke="rgb(0,0,0)" x1="3300.5894" x2="3305.5894" y1="150.0" y2="150.0" /><line stroke="rgb(0,0,0)" x1="3305.5894" x2="3310.5894" y1="150.0" y2="150.0" /><line stroke="rgb(0,0,0)" x1="3310.5894" x2="3320.5894" y1="150.0" y2="150.0" /><line stroke="rgb(0,0,0)" x1="3320.5894" x2="3325.5894" y1="150.0" y2="150.0" /><line stroke="rgb(0,0,0)" x1="3325.5894" x2="3330.5894" y1="150.0" y2="150.0" /><line stroke="rgb(0,0,0)" x1="3330.5894" x2="3340.5894" y1="150.0" y2="150.0" /><line stroke="rgb(0,0,0)" x1="3340.5894" x2="3345.5894" y1="150.0" y2="150.0" /><line stroke="rgb(0,0,0)" x1="3345.5894" x2="3350.5894" y1="150.0" y2="150.0" /><line stroke="rgb(0,0,0)" x1="3350.5894" x2="3360.5894" y1="150.0" y2="150.0" /><line stroke="rgb(0,0,0)" x1="3360.5894" x2="3365.5894" y1="150.0" y2="150.0" /><line stroke="rgb(0,0,0)" x1="3365.5894" x2="3370.5894" y1="150.0" y2="150.0" /><line stroke="rgb(0,0,0)" x1="3370.5894" x2="3380.5894" y1="150.0" y2="150.0" /><line stroke="rgb(0,0,0)" x1="3380.5894" x2="3385.5894" y1="150.0" y2="150.0" /><line stroke="rgb(0,0,0)" x1="3385.5894" x2="3396.2144" y1="150.0" y2="150.0" /><line stroke="rgb(0,0,0)" x1="3396.2144" x2="3406.2144" y1="150.0" y2="150.0" /><line stroke="rgb(0,0,0)" x1="3406.2144" x2="3411.2144" y1="150.0" y2="150.0" /><line stroke="rgb(0,0,0)" x1="3411.2144" x2="3431.2144" y1="150.0" y2="150.0" /><line stroke="rgb(0,0,0)" x1="3431.2144" x2="3441.2144" y1="150.0" y2="150.0" /><line stroke="rgb(0,0,0)" x1="3441.2144" x2="3446.2144" y1="150.0" y2="150.0" /><line stroke="rgb(0,0,0)" x1="3446.2144" x2="3458.11915" y1="150.0" y2="150.0" /><line stroke="rgb(0,0,0)" x1="3458.11915" x2="3468.11915" y1="150.0" y2="150.0" /><line stroke="rgb(0,0,0)" x1="3468.11915" x2="3473.11915" y1="150.0" y2="150.0" /><line stroke="rgb(0,0,0)" x1="3473.11915" x2="3478.11915" y1="150.0" y2="150.0" /><line stroke="rgb(0,0,0)" x1="3478.11915" x2="3488.11915" y1="150.0" y2="150.0" /><line stroke="rgb(0,0,0)" x1="3488.11915" x2="3493.11915" y1="150.0" y2="150.0" /><line stroke="rgb(0,0,0)" x1="3493.11915" x2="3498.11915" y1="150.0" y2="150.0" /><line stroke="rgb(0,0,0)" x1="3498.11915" x2="3508.11915" y1="150.0" y2="150.0" /><line stroke="rgb(0,0,0)" x1="3508.11915" x2="3513.11915" y1="150.0" y2="150.0" /><line stroke="rgb(0,0,0)" x1="3513.11915" x2="3518.11915" y1="150.0" y2="150.0" /><line stroke="rgb(0,0,0)" x1="3518.11915" x2="3528.11915" y1="150.0" y2="150.0" /><line stroke="rgb(0,0,0)" x1="3528.11915" x2="3533.11915" y1="150.0" y2="150.0" /><line stroke="rgb(0,0,0)" x1="3533.11915" x2="3555.82405" y1="150.0" y2="150.0" /><line stroke="rgb(0,0,0)" x1="3555.82405" x2="3565.82405" y1="150.0" y2="150.0" /><line stroke="rgb(0,0,0)" x1="3565.82405" x2="3570.82405" y1="150.0" y2="150.0" /><line stroke="rgb(0,0,0)" x1="3570.82405" x2="3580.82405" y1="150.0" y2="150.0" /><line stroke="rgb(0,0,0)" x1="3580.82405" x2="3590.82405" y1="150.0" y2="150.0" /><line stroke="rgb(0,0,0)" x1="3590.82405" x2="3595.82405" y1="150.0" y2="150.0" /><line stroke="rgb(0,0,0)" x1="3595.82405" x2="3681.68405" y1="150.0" y2="150.0" /><line stroke="rgb(0,0,0)" x1="3681.68405" x2="3691.68405" y1="150.0" y2="150.0" /><line stroke="rgb(0,0,0)" x1="3691.68405" x2="3696.68405" y1="150.0" y2="150.0" /><line stroke="rgb(0,0,0)" x1="3696.68405" x2="3732.6840500000003" y1="150.0" y2="150.0" /><line stroke="rgb(0,0,0)" x1="3732.6840500000003" x2="3742.6840500000003" y1="150.0" y2="150.0" /><line stroke="rgb(0,0,0)" x1="3742.6840500000003" x2="3747.6840500000003" y1="150.0" y2="150.0" /><line stroke="rgb(0,0,0)" x1="3747.6840500000003" x2="3780.6840500000003" y1="150.0" y2="150.0" /><line stroke="rgb(0,0,0)" x1="3780.6840500000003" x2="3790.6840500000003" y1="150.0" y2="150.0" /><line stroke="rgb(0,0,0)" x1="3790.6840500000003" x2="3795.6840500000003" y1="150.0" y2="150.0" /><line stroke="rgb(0,0,0)" x1="3795.6840500000003" x2="3818.05245" y1="150.0" y2="150.0" /><line stroke="rgb(0,0,0)" x1="3818.05245" x2="3828.05245" y1="150.0" y2="150.0" /><line stroke="rgb(0,0,0)" x1="3828.05245" x2="3833.05245" y1="150.0" y2="150.0" /><line stroke="rgb(0,0,0)" x1="3833.05245" x2="3858.05245" y1="150.0" y2="150.0" /><line stroke="rgb(0,0,0)" x1="3858.05245" x2="3868.05245" y1="150.0" y2="150.0" /><line stroke="rgb(0,0,0)" x1="3868.05245" x2="3873.05245" y1="150.0" y2="150.0" /><line stroke="rgb(0,0,0)" x1="3873.05245" x2="3901.52805" y1="150.0" y2="150.0" /><line stroke="rgb(0,0,0)" x1="3901.52805" x2="3911.52805" y1="150.0" y2="150.0" /><line stroke="rgb(0,0,0)" x1="3911.52805" x2="3916.52805" y1="150.0" y2="150.0" /><line stroke="rgb(0,0,0)" x1="3916.52805" x2="3935.27805" y1="150.0" y2="150.0" /><line stroke="rgb(0,0,0)" x1="3935.27805" x2="3945.27805" y1="150.0" y2="150.0" /><line stroke="rgb(0,0,0)" x1="3945.27805" x2="3950.27805" y1="150.0" y2="150.0" /><line stroke="rgb(0,0,0)" x1="3950.27805" x2="3981.16935" y1="150.0" y2="150.0" /><line stroke="rgb(0,0,0)" x1="3981.16935" x2="3991.16935" y1="150.0" y2="150.0" /><line stroke="rgb(0,0,0)" x1="3991.16935" x2="3996.16935" y1="150.0" y2="150.0" /><line stroke="rgb(0,0,0)" x1="3996.16935" x2="4007.8966" y1="150.0" y2="150.0" /><line stroke="rgb(0,0,0)" x1="4007.8966" x2="4017.8966" y1="150.0" y2="150.0" /><line stroke="rgb(0,0,0)" x1="4017.8966" x2="4022.8966" y1="150.0" y2="150.0" /><line stroke="rgb(0,0,0)" x1="4022.8966" x2="4046.8966" y1="150.0" y2="150.0" /><line stroke="rgb(0,0,0)" x1="4046.8966" x2="4056.8966" y1="150.0" y2="150.0" /><line stroke="rgb(0,0,0)" x1="4056.8966" x2="4061.8966" y1="150.0" y2="150.0" /><line stroke="rgb(0,0,0)" x1="4061.8966" x2="4090.7855" y1="150.0" y2="150.0" /><line stroke="rgb(0,0,0)" x1="4090.7855" x2="4100.7855" y1="150.0" y2="150.0" /><line stroke="rgb(0,0,0)" x1="4100.7855" x2="4105.7855" y1="150.0" y2="150.0" /><line stroke="rgb(0,0,0)" x1="4105.7855" x2="4127.7855" y1="150.0" y2="150.0" /><line stroke="rgb(0,0,0)" x1="4127.7855" x2="4137.7855" y1="150.0" y2="150.0" /><line stroke="rgb(0,0,0)" x1="4137.7855" x2="4142.7855" y1="150.0" y2="150.0" /><line stroke="rgb(0,0,0)" x1="4142.7855" x2="4183.0236" y1="150.0" y2="150.0" /><line stroke="rgb(0,0,0)" x1="4183.0236" x2="4193.0236" y1="150.0" y2="150.0" /><line stroke="rgb(0,0,0)" x1="4193.0236" x2="4198.0236" y1="150.0" y2="150.0" /><line stroke="rgb(0,0,0)" x1="4198.0236" x2="4203.0236" y1="150.0" y2="150.0" /><line stroke="rgb(0,0,0)" x1="4203.0236" x2="4213.0236" y1="150.0" y2="150.0" /><line stroke="rgb(0,0,0)" x1="4213.0236" x2="4218.0236" y1="150.0" y2="150.0" /><line stroke="rgb(0,0,0)" x1="4218.0236" x2="4247.639" y1="150.0" y2="150.0" /><line stroke="rgb(0,0,0)" x1="4247.639" x2="4257.639" y1="150.0" y2="150.0" /><line stroke="rgb(0,0,0)" x1="4257.639" x2="4262.639" y1="150.0" y2="150.0" /><line stroke="rgb(0,0,0)" x1="4262.639" x2="4267.639" y1="150.0" y2="150.0" /><line stroke="rgb(0,0,0)" x1="4267.639" x2="4277.639" y1="150.0" y2="150.0" /><line stroke="rgb(0,0,0)" x1="4277.639" x2="4282.639" y1="150.0" y2="150.0" /><line stroke="rgb(0,0,0)" x1="4282.639" x2="4339.852" y1="150.0" y2="150.0" /><line stroke="rgb(0,0,0)" x1="4339.852" x2="4349.852" y1="150.0" y2="150.0" /><line stroke="rgb(0,0,0)" x1="4349.852" x2="4354.852" y1="150.0" y2="150.0" /><line stroke="rgb(0,0,0)" x1="4354.852" x2="4374.852" y1="150.0" y2="150.0" /><line stroke="rgb(0,0,0)" x1="4374.852" x2="4384.852" y1="150.0" y2="150.0" /><line stroke="rgb(0,0,0)" x1="4384.852" x2="4389.852" y1="150.0" y2="150.0" /><line stroke="rgb(0,0,0)" x1="4389.852" x2="4401.694100000001" y1="150.0" y2="150.0" /><line stroke="rgb(0,0,0)" x1="4401.694100000001" x2="4411.694100000001" y1="150.0" y2="150.0" /><line stroke="rgb(0,0,0)" x1="4411.694100000001" x2="4416.694100000001" y1="150.0" y2="150.0" /><line stroke="rgb(0,0,0)" x1="4416.694100000001" x2="4445.600350000001" y1="150.0" y2="150.0" /><line stroke="rgb(0,0,0)" x1="4445.600350000001" x2="4455.600350000001" y1="150.0" y2="150.0" /><line stroke="rgb(0,0,0)" x1="4455.600350000001" x2="4460.600350000001" y1="150.0" y2="150.0" /><line stroke="rgb(0,0,0)" x1="4460.600350000001" x2="4465.600350000001" y1="150.0" y2="150.0" /><line stroke="rgb(0,0,0)" x1="4465.600350000001" x2="4475.600350000001" y1="150.0" y2="150.0" /><line stroke="rgb(0,0,0)" x1="4475.600350000001" x2="4480.600350000001" y1="150.0" y2="150.0" /><line stroke="rgb(0,0,0)" x1="4480.600350000001" x2="4512.600350000001" y1="150.0" y2="150.0" /><line stroke="rgb(0,0,0)" x1="4512.600350000001" x2="4522.600350000001" y1="150.0" y2="150.0" /><line stroke="rgb(0,0,0)" x1="4522.600350000001" x2="4527.600350000001" y1="150.0" y2="150.0" /><line stroke="rgb(0,0,0)" x1="4527.600350000001" x2="4532.600350000001" y1="150.0" y2="150.0" /><line stroke="rgb(0,0,0)" x1="4532.600350000001" x2="4542.600350000001" y1="150.0" y2="150.0" /><line stroke="rgb(0,0,0)" x1="4542.600350000001" x2="4547.600350000001" y1="150.0" y2="150.0" /><line stroke="rgb(0,0,0)" x1="4547.600350000001" x2="4552.600350000001" y1="150.0" y2="150.0" /><line stroke="rgb(0,0,0)" x1="4552.600350000001" x2="4562.600350000001" y1="150.0" y2="150.0" /><line stroke="rgb(0,0,0)" x1="4562.600350000001" x2="4567.600350000001" y1="150.0" y2="150.0" /><line stroke="rgb(0,0,0)" x1="4567.600350000001" x2="4643.31985" y1="150.0" y2="150.0" /><line stroke="rgb(0,0,0)" x1="4643.31985" x2="4653.31985" y1="150.0" y2="150.0" /><line stroke="rgb(0,0,0)" x1="4653.31985" x2="4658.31985" y1="150.0" y2="150.0" /><line stroke="rgb(0,0,0)" x1="4658.31985" x2="4670.81985" y1="150.0" y2="150.0" /><line stroke="rgb(0,0,0)" x1="4670.81985" x2="4680.81985" y1="150.0" y2="150.0" /><line stroke="rgb(0,0,0)" x1="4680.81985" x2="4685.81985" y1="150.0" y2="150.0" /><line stroke="rgb(0,0,0)" x1="4685.81985" x2="4777.48635" y1="150.0" y2="150.0" /><line stroke="rgb(0,0,0)" x1="4777.48635" x2="4787.48635" y1="150.0" y2="150.0" /><line stroke="rgb(0,0,0)" x1="4787.48635" x2="4792.48635" y1="150.0" y2="150.0" /><line stroke="rgb(0,0,0)" x1="4792.48635" x2="4812.48635" y1="150.0" y2="150.0" /><line stroke="rgb(0,0,0)" x1="4812.48635" x2="4822.48635" y1="150.0" y2="150.0" /><line stroke="rgb(0,0,0)" x1="4822.48635" x2="4827.48635" y1="150.0" y2="150.0" /><line stroke="rgb(0,0,0)" x1="4827.48635" x2="4949.98635" y1="150.0" y2="150.0" /><line stroke="rgb(0,0,0)" x1="4949.98635" x2="4959.98635" y1="150.0" y2="150.0" /><line stroke="rgb(0,0,0)" x1="4959.98635" x2="4964.98635" y1="150.0" y2="150.0" /><line stroke="rgb(0,0,0)" x1="4964.98635" x2="4989.98635" y1="150.0" y2="150.0" /><line stroke="rgb(0,0,0)" x1="4989.98635" x2="4999.98635" y1="150.0" y2="150.0" /><line stroke="rgb(0,0,0)" x1="4999.98635" x2="5004.98635" y1="150.0" y2="150.0" /><line stroke="rgb(0,0,0)" x1="5004.98635" x2="5052.48635" y1="150.0" y2="150.0" /><line stroke="rgb(0,0,0)" x1="5052.48635" x2="5062.48635" y1="150.0" y2="150.0" /><line stroke="rgb(0,0,0)" x1="5062.48635" x2="5067.48635" y1="150.0" y2="150.0" /><line stroke="rgb(0,0,0)" x1="5067.48635" x2="5089.5355500000005" y1="150.0" y2="150.0" /><line stroke="rgb(0,0,0)" x1="5089.5355500000005" x2="5099.5355500000005" y1="150.0" y2="150.0" /><line stroke="rgb(0,0,0)" x1="5099.5355500000005" x2="5104.5355500000005" y1="150.0" y2="150.0" /><line stroke="rgb(0,0,0)" x1="5104.5355500000005" x2="5117.5355500000005" y1="150.0" y2="150.0" /><line stroke="rgb(0,0,0)" x1="5117.5355500000005" x2="5127.5355500000005" y1="150.0" y2="150.0" /><line stroke="rgb(0,0,0)" x1="5127.5355500000005" x2="5132.5355500000005" y1="150.0" y2="150.0" /><line stroke="rgb(0,0,0)" x1="5132.5355500000005" x2="5154.8083" y1="150.0" y2="150.0" /><line stroke="rgb(0,0,0)" x1="5154.8083" x2="5164.8083" y1="150.0" y2="150.0" /><line stroke="rgb(0,0,0)" x1="5164.8083" x2="5169.8083" y1="150.0" y2="150.0" /><line stroke="rgb(0,0,0)" x1="5169.8083" x2="5196.44695" y1="150.0" y2="150.0" /><line stroke="rgb(0,0,0)" x1="5196.44695" x2="5206.44695" y1="150.0" y2="75.0" /><line stroke="rgb(0,0,0)" x1="5206.44695" x2="5211.44695" y1="75.0" y2="75.0" /><line stroke="rgb(0,0,0)" x1="5169.8083" x2="5196.44695" y1="150.0" y2="150.0" /><line stroke="rgb(0,0,0)" x1="5196.44695" x2="5206.44695" y1="150.0" y2="225.0" /><line stroke="rgb(0,0,0)" x1="5206.44695" x2="5211.44695" y1="225.0" y2="225.0" /><line stroke="rgb(0,0,0)" x1="5211.44695" x2="5237.425199999999" y1="75.0" y2="75.0" /><line stroke="rgb(0,0,0)" x1="5237.425199999999" x2="5247.425199999999" y1="75.0" y2="150.0" /><line stroke="rgb(0,0,0)" x1="5247.425199999999" x2="5252.425199999999" y1="150.0" y2="150.0" /><line stroke="rgb(0,0,0)" x1="5252.425199999999" x2="5286.710899999999" y1="150.0" y2="150.0" /><line stroke="rgb(0,0,0)" x1="5286.710899999999" x2="5296.710899999999" y1="150.0" y2="150.0" /><line stroke="rgb(0,0,0)" x1="5296.710899999999" x2="5301.710899999999" y1="150.0" y2="150.0" /><line stroke="rgb(0,0,0)" x1="5211.44695" x2="5227.8755" y1="225.0" y2="225.0" /><line stroke="rgb(0,0,0)" x1="5227.8755" x2="5296.710899999999" y1="225.0" y2="150.0" /><line stroke="rgb(0,0,0)" x1="5296.710899999999" x2="5301.710899999999" y1="150.0" y2="150.0" /><line stroke="rgb(0,0,0)" x1="5301.710899999999" x2="5357.821899999999" y1="150.0" y2="150.0" /><line stroke="rgb(0,0,0)" x1="5357.821899999999" x2="5367.821899999999" y1="150.0" y2="150.0" /><line stroke="rgb(0,0,0)" x1="5367.821899999999" x2="5372.821899999999" y1="150.0" y2="150.0" /><line stroke="rgb(0,0,0)" x1="5372.821899999999" x2="5414.821899999999" y1="150.0" y2="150.0" /><line stroke="rgb(0,0,0)" x1="5414.821899999999" x2="5424.821899999999" y1="150.0" y2="150.0" /><line stroke="rgb(0,0,0)" x1="5424.821899999999" x2="5429.821899999999" y1="150.0" y2="150.0" /><line stroke="rgb(0,0,0)" x1="5429.821899999999" x2="5517.6789" y1="150.0" y2="150.0" /><line stroke="rgb(0,0,0)" x1="5517.6789" x2="5527.6789" y1="150.0" y2="150.0" /><line stroke="rgb(0,0,0)" x1="5527.6789" x2="5532.6789" y1="150.0" y2="150.0" /><line stroke="rgb(0,0,0)" x1="5532.6789" x2="5567.6789" y1="150.0" y2="150.0" /><line stroke="rgb(0,0,0)" x1="5567.6789" x2="5577.6789" y1="150.0" y2="150.0" /><line stroke="rgb(0,0,0)" x1="5577.6789" x2="5582.6789" y1="150.0" y2="150.0" /><line stroke="rgb(0,0,0)" x1="5582.6789" x2="5587.6789" y1="150.0" y2="150.0" /><line stroke="rgb(0,0,0)" x1="5587.6789" x2="5597.6789" y1="150.0" y2="150.0" /><line stroke="rgb(0,0,0)" x1="5597.6789" x2="5602.6789" y1="150.0" y2="150.0" /><line stroke="rgb(0,0,0)" x1="5602.6789" x2="5616.01225" y1="150.0" y2="150.0" /><line stroke="rgb(0,0,0)" x1="5616.01225" x2="5626.01225" y1="150.0" y2="150.0" /><line stroke="rgb(0,0,0)" x1="5626.01225" x2="5631.01225" y1="150.0" y2="150.0" /><line stroke="rgb(0,0,0)" x1="5631.01225" x2="5636.01225" y1="150.0" y2="150.0" /><line stroke="rgb(0,0,0)" x1="5636.01225" x2="5646.01225" y1="150.0" y2="150.0" /><line stroke="rgb(0,0,0)" x1="5646.01225" x2="5651.01225" y1="150.0" y2="150.0" /><line stroke="rgb(0,0,0)" x1="5651.01225" x2="5671.01225" y1="150.0" y2="150.0" /><line stroke="rgb(0,0,0)" x1="5671.01225" x2="5681.01225" y1="150.0" y2="150.0" /><line stroke="rgb(0,0,0)" x1="5681.01225" x2="5686.01225" y1="150.0" y2="150.0" /><line stroke="rgb(0,0,0)" x1="5686.01225" x2="5706.01225" y1="150.0" y2="150.0" /><line stroke="rgb(0,0,0)" x1="5706.01225" x2="5716.01225" y1="150.0" y2="150.0" /><line stroke="rgb(0,0,0)" x1="5716.01225" x2="5721.01225" y1="150.0" y2="150.0" /><line stroke="rgb(0,0,0)" x1="5721.01225" x2="5758.51225" y1="150.0" y2="150.0" /><line stroke="rgb(0,0,0)" x1="5758.51225" x2="5768.51225" y1="150.0" y2="150.0" /><line stroke="rgb(0,0,0)" x1="5768.51225" x2="5773.51225" y1="150.0" y2="150.0" /><line stroke="rgb(0,0,0)" x1="5773.51225" x2="5813.51225" y1="150.0" y2="150.0" /><line stroke="rgb(0,0,0)" x1="5813.51225" x2="5823.51225" y1="150.0" y2="150.0" /><line stroke="rgb(0,0,0)" x1="5823.51225" x2="5828.51225" y1="150.0" y2="150.0" /><line stroke="rgb(0,0,0)" x1="5828.51225" x2="5893.51225" y1="150.0" y2="150.0" /><line stroke="rgb(0,0,0)" x1="5893.51225" x2="5903.51225" y1="150.0" y2="150.0" /><line stroke="rgb(0,0,0)" x1="5903.51225" x2="5908.51225" y1="150.0" y2="150.0" /><line stroke="rgb(0,0,0)" x1="5908.51225" x2="5918.51225" y1="150.0" y2="150.0" /><line stroke="rgb(0,0,0)" x1="5918.51225" x2="5928.51225" y1="150.0" y2="150.0" /><line stroke="rgb(0,0,0)" x1="5928.51225" x2="5933.51225" y1="150.0" y2="150.0" /><line stroke="rgb(0,0,0)" x1="5933.51225" x2="6010.17875" y1="150.0" y2="150.0" /><line stroke="rgb(0,0,0)" x1="6010.17875" x2="6020.17875" y1="150.0" y2="150.0" /><line stroke="rgb(0,0,0)" x1="6020.17875" x2="6025.17875" y1="150.0" y2="150.0" /><line stroke="rgb(0,0,0)" x1="6025.17875" x2="6060.17875" y1="150.0" y2="150.0" /><line stroke="rgb(0,0,0)" x1="6060.17875" x2="6070.17875" y1="150.0" y2="150.0" /><line stroke="rgb(0,0,0)" x1="6070.17875" x2="6075.17875" y1="150.0" y2="150.0" /><line stroke="rgb(0,0,0)" x1="6075.17875" x2="6154.46425" y1="150.0" y2="150.0" /><line stroke="rgb(0,0,0)" x1="6154.46425" x2="6164.46425" y1="150.0" y2="150.0" /><line stroke="rgb(0,0,0)" x1="6164.46425" x2="6169.46425" y1="150.0" y2="150.0" /><line stroke="rgb(0,0,0)" x1="6169.46425" x2="6174.46425" y1="150.0" y2="150.0" /><line stroke="rgb(0,0,0)" x1="6174.46425" x2="6184.46425" y1="150.0" y2="150.0" /><line stroke="rgb(0,0,0)" x1="6184.46425" x2="6189.46425" y1="150.0" y2="150.0" /><line stroke="rgb(0,0,0)" x1="6189.46425" x2="6194.46425" y1="150.0" y2="150.0" /><line stroke="rgb(0,0,0)" x1="6194.46425" x2="6204.46425" y1="150.0" y2="150.0" /><line stroke="rgb(0,0,0)" x1="6204.46425" x2="6209.46425" y1="150.0" y2="150.0" /><line stroke="rgb(0,0,0)" x1="6209.46425" x2="6214.46425" y1="150.0" y2="150.0" /><line stroke="rgb(0,0,0)" x1="6214.46425" x2="6224.46425" y1="150.0" y2="150.0" /><line stroke="rgb(0,0,0)" x1="6224.46425" x2="6229.46425" y1="150.0" y2="150.0" /><line stroke="rgb(0,0,0)" x1="6229.46425" x2="6234.46425" y1="150.0" y2="150.0" /><line stroke="rgb(0,0,0)" x1="6234.46425" x2="6244.46425" y1="150.0" y2="150.0" /><line stroke="rgb(0,0,0)" x1="6244.46425" x2="6249.46425" y1="150.0" y2="150.0" /><line stroke="rgb(0,0,0)" x1="6249.46425" x2="6260.46425" y1="150.0" y2="150.0" /><line stroke="rgb(0,0,0)" x1="6260.46425" x2="6270.46425" y1="150.0" y2="150.0" /><line stroke="rgb(0,0,0)" x1="6270.46425" x2="6275.46425" y1="150.0" y2="150.0" /><line stroke="rgb(0,0,0)" x1="6275.46425" x2="6304.21425" y1="150.0" y2="150.0" /><line stroke="rgb(0,0,0)" x1="6304.21425" x2="6314.21425" y1="150.0" y2="150.0" /><line stroke="rgb(0,0,0)" x1="6314.21425" x2="6319.21425" y1="150.0" y2="150.0" /><line stroke="rgb(0,0,0)" x1="6319.21425" x2="6370.071400000001" y1="150.0" y2="150.0" /><line stroke="rgb(0,0,0)" x1="6370.071400000001" x2="6380.071400000001" y1="150.0" y2="75.0" /><line stroke="rgb(0,0,0)" x1="6380.071400000001" x2="6385.071400000001" y1="75.0" y2="75.0" /><line stroke="rgb(0,0,0)" x1="6319.21425" x2="6370.071400000001" y1="150.0" y2="150.0" /><line stroke="rgb(0,0,0)" x1="6370.071400000001" x2="6380.071400000001" y1="150.0" y2="225.0" /><line stroke="rgb(0,0,0)" x1="6380.071400000001" x2="6385.071400000001" y1="225.0" y2="225.0" /><line stroke="rgb(0,0,0)" x1="6385.071400000001" x2="6400.071400000001" y1="75.0" y2="75.0" /><line stroke="rgb(0,0,0)" x1="6400.071400000001" x2="6438.148300000001" y1="75.0" y2="150.0" /><line stroke="rgb(0,0,0)" x1="6438.148300000001" x2="6443.148300000001" y1="150.0" y2="150.0" /><line stroke="rgb(0,0,0)" x1="6385.071400000001" x2="6428.148300000001" y1="225.0" y2="225.0" /><line stroke="rgb(0,0,0)" x1="6428.148300000001" x2="6438.148300000001" y1="225.0" y2="150.0" /><line stroke="rgb(0,0,0)" x1="6438.148300000001" x2="6443.148300000001" y1="150.0" y2="150.0" /><line stroke="rgb(0,0,0)" x1="6443.148300000001" x2="6458.148300000001" y1="150.0" y2="150.0" /><line stroke="rgb(0,0,0)" x1="6458.148300000001" x2="6468.148300000001" y1="150.0" y2="150.0" /><line stroke="rgb(0,0,0)" x1="6468.148300000001" x2="6473.148300000001" y1="150.0" y2="150.0" /><line stroke="rgb(0,0,0)" x1="6473.148300000001" x2="6497.8705" y1="150.0" y2="150.0" /><line stroke="rgb(0,0,0)" x1="6497.8705" x2="6507.8705" y1="150.0" y2="75.0" /><line stroke="rgb(0,0,0)" x1="6507.8705" x2="6512.8705" y1="75.0" y2="75.0" /><line stroke="rgb(0,0,0)" x1="6473.148300000001" x2="6497.8705" y1="150.0" y2="150.0" /><line stroke="rgb(0,0,0)" x1="6497.8705" x2="6507.8705" y1="150.0" y2="225.0" /><line stroke="rgb(0,0,0)" x1="6507.8705" x2="6512.8705" y1="225.0" y2="225.0" /><line stroke="rgb(0,0,0)" x1="6512.8705" x2="6581.6205" y1="225.0" y2="225.0" /><line stroke="rgb(0,0,0)" x1="6581.6205" x2="6591.6205" y1="225.0" y2="150.0" /><line stroke="rgb(0,0,0)" x1="6591.6205" x2="6596.6205" y1="150.0" y2="150.0" /><rect fill="rgb(255,0,0)" height="1.2" stroke="rgb(0,0,0)" width="15.0" x="5.0" y="74.4" /><text fill="black" x="5.0" y="95.6">H0</text><rect fill="rgb(123,96,255)" height="0.8" stroke="rgb(0,0,0)" width="10.0" x="5.0" y="224.6" /><text fill="black" x="5.0" y="245.4">E1</text><rect fill="rgb(0,0,255)" height="0.0" stroke="rgb(0,0,0)" width="0.0" x="40.0" y="150.0" /><text fill="black" x="40.0" y="170.0">X2</text><rect fill="rgb(255,149,190)" height="16.8" stroke="rgb(0,0,0)" width="65.119" x="60.0" y="141.6" /><text fill="black" x="60.0" y="178.4">H3</text><rect fill="rgb(255,1,2)" height="3.2" stroke="rgb(0,0,0)" width="36.875" x="145.119" y="148.4" /><text fill="black" x="145.119" y="171.6">H4</text><rect fill="rgb(255,23,29)" height="5.2" stroke="rgb(0,0,0)" width="30.76925" x="201.994" y="147.4" /><text fill="black" x="201.994" y="172.6">H5</text><rect fill="rgb(0,0,255)" height="0.4" stroke="rgb(0,0,0)" width="5.0" x="252.76325" y="74.8" /><text fill="black" x="252.76325" y="95.2">E6</text><rect fill="rgb(255,85,109)" height="12.0" stroke="rgb(0,0,0)" width="18.5" x="252.76325" y="219.0" /><text fill="black" x="252.76325" y="251.0">H7</text><rect fill="rgb(255,164,210)" height="4.3999999999999995" stroke="rgb(0,0,0)" width="6.8182" x="291.26325" y="147.8" /><text fill="black" x="291.26325" y="172.2">E8</text><rect fill="rgb(112,88,255)" height="100.0" stroke="rgb(0,0,0)" width="23.78" x="318.08145" y="100.0" /><text fill="black" x="318.08145" y="220.0">E9</text><rect fill="rgb(0,0,255)" height="0.4" stroke="rgb(0,0,0)" width="35.0" x="361.86145" y="74.8" /><text fill="black" x="361.86145" y="95.2">H10</text><rect fill="rgb(0,0,255)" height="0.0" stroke="rgb(0,0,0)" width="0.0" x="361.86145" y="225.0" /><text fill="black" x="361.86145" y="245.0">X11</text><rect fill="rgb(201,157,255)" height="1.6" stroke="rgb(0,0,0)" width="73.75" x="416.86145" y="149.2" /><text fill="black" x="416.86145" y="170.8">H12</text><rect fill="rgb(255,38,48)" height="0.8" stroke="rgb(0,0,0)" width="22.5" x="510.61145" y="149.6" /><text fill="black" x="510.61145" y="170.4">H13</text><rect fill="rgb(128,100,255)" height="99.2" stroke="rgb(0,0,0)" width="62.601000000000006" x="553.11145" y="100.4" /><text fill="black" x="553.11145" y="219.6">H14</text><rect fill="rgb(231,181,255)" height="0.8" stroke="rgb(0,0,0)" width="5.0" x="635.71245" y="149.6" /><text fill="black" x="635.71245" y="170.4">E15</text><rect fill="rgb(255,134,171)" height="11.600000000000001" stroke="rgb(0,0,0)" width="19.65515" x="660.71245" y="144.2" /><text fill="black" x="660.71245" y="175.8">H16</text><rect fill="rgb(219,171,255)" height="23.200000000000003" stroke="rgb(0,0,0)" width="11.5517" x="700.3676" y="138.4" /><text fill="black" x="700.3676" y="181.6">E17</text><rect fill="rgb(170,133,255)" height="96.8" stroke="rgb(0,0,0)" width="24.793400000000002" x="731.9193" y="101.6" /><text fill="black" x="731.9193" y="218.4">E18</text><rect fill="rgb(255,189,241)" height="10.8" stroke="rgb(0,0,0)" width="19.07405" x="776.7126999999999" y="69.6" /><text fill="black" x="776.7126999999999" y="100.4">H19</text><rect fill="rgb(0,0,255)" height="0.0" stroke="rgb(0,0,0)" width="0.0" x="776.7126999999999" y="225.0" /><text fill="black" x="776.7126999999999" y="245.0">X20</text><rect fill="rgb(255,103,131)" height="2.4" stroke="rgb(0,0,0)" width="6.66665" x="815.7867499999999" y="148.8" /><text fill="black" x="815.7867499999999" y="171.2">E21</text><rect fill="rgb(142,111,255)" height="1.6" stroke="rgb(0,0,0)" width="32.5" x="842.4533999999999" y="149.2" /><text fill="black" x="842.4533999999999" y="170.8">H22</text><rect fill="rgb(255,82,105)" height="5.6000000000000005" stroke="rgb(0,0,0)" width="22.5" x="894.9533999999999" y="147.2" /><text fill="black" x="894.9533999999999" y="172.8">H23</text><rect fill="rgb(255,180,229)" height="1.6" stroke="rgb(0,0,0)" width="15.0" x="937.4533999999999" y="149.2" /><text fill="black" x="937.4533999999999" y="170.8">H24</text><rect fill="rgb(215,169,255)" height="2.4" stroke="rgb(0,0,0)" width="5.0" x="972.4533999999999" y="148.8" /><text fill="black" x="972.4533999999999" y="171.2">E25</text><rect fill="rgb(255,143,183)" height="75.6" stroke="rgb(0,0,0)" width="58.201" x="997.4533999999999" y="112.2" /><text fill="black" x="997.4533999999999" y="207.8">H26</text><rect fill="rgb(255,152,194)" height="2.4" stroke="rgb(0,0,0)" width="16.66665" x="1075.6544" y="148.8" /><text fill="black" x="1075.6544" y="171.2">E27</text><rect fill="rgb(64,50,255)" height="5.6000000000000005" stroke="rgb(0,0,0)" width="15.0" x="1112.3210499999998" y="147.2" /><text fill="black" x="1112.3210499999998" y="172.8">H28</text><rect fill="rgb(255,157,201)" height="2.4" stroke="rgb(0,0,0)" width="16.66665" x="1147.3210499999998" y="148.8" /><text fill="black" x="1147.3210499999998" y="171.2">E29</text><rect fill="rgb(255,108,138)" height="6.4" stroke="rgb(0,0,0)" width="17.8125" x="1183.9876999999997" y="146.8" /><text fill="black" x="1183.9876999999997" y="173.2">E30</text><rect fill="rgb(255,88,113)" height="14.399999999999999" stroke="rgb(0,0,0)" width="18.19445" x="1221.8001999999997" y="142.8" /><text fill="black" x="1221.8001999999997" y="177.2">E31</text><rect fill="rgb(254,41,53)" height="13.600000000000001" stroke="rgb(0,0,0)" width="27.9412" x="1259.9946499999996" y="143.2" /><text fill="black" x="1259.9946499999996" y="176.8">H32</text><rect fill="rgb(46,36,255)" height="0.8" stroke="rgb(0,0,0)" width="7.5" x="1307.9358499999998" y="74.6" /><text fill="black" x="1307.9358499999998" y="95.4">E33</text><rect fill="rgb(255,84,108)" height="6.0" stroke="rgb(0,0,0)" width="23.666649999999997" x="1307.9358499999998" y="222.0" /><text fill="black" x="1307.9358499999998" y="248.0">H34</text><rect fill="rgb(26,20,255)" height="0.8" stroke="rgb(0,0,0)" width="7.5" x="1351.6025" y="149.6" /><text fill="black" x="1351.6025" y="170.4">E35</text><rect fill="rgb(233,183,255)" height="4.8" stroke="rgb(0,0,0)" width="11.66665" x="1379.1025" y="147.6" /><text fill="black" x="1379.1025" y="172.4">E36</text><rect fill="rgb(249,195,255)" height="93.2" stroke="rgb(0,0,0)" width="18.9485" x="1410.7691499999999" y="103.4" /><text fill="black" x="1410.7691499999999" y="216.6">E37</text><rect fill="rgb(0,0,255)" height="0.0" stroke="rgb(0,0,0)" width="0.0" x="1449.7176499999998" y="150.0" /><text fill="black" x="1449.7176499999998" y="170.0">X38</text><rect fill="rgb(255,26,33)" height="1.2" stroke="rgb(0,0,0)" width="6.66665" x="1469.7176499999998" y="149.4" /><text fill="black" x="1469.7176499999998" y="170.6">E39</text><rect fill="rgb(255,188,240)" height="49.2" stroke="rgb(0,0,0)" width="15.52845" x="1496.3842999999997" y="125.4" /><text fill="black" x="1496.3842999999997" y="194.6">H40</text><rect fill="rgb(0,0,255)" height="0.0" stroke="rgb(0,0,0)" width="0.0" x="1531.9127499999995" y="150.0" /><text fill="black" x="1531.9127499999995" y="170.0">X41</text><rect fill="rgb(0,0,255)" height="0.4" stroke="rgb(0,0,0)" width="30.0" x="1551.9127499999995" y="149.8" /><text fill="black" x="1551.9127499999995" y="170.2">E42</text><rect fill="rgb(0,0,255)" height="0.0" stroke="rgb(0,0,0)" width="0.0" x="1601.9127499999995" y="150.0" /><text fill="black" x="1601.9127499999995" y="170.0">X43</text><rect fill="rgb(255,139,178)" height="2.4" stroke="rgb(0,0,0)" width="18.33335" x="1621.9127499999995" y="148.8" /><text fill="black" x="1621.9127499999995" y="171.2">H44</text><rect fill="rgb(0,0,255)" height="0.0" stroke="rgb(0,0,0)" width="0.0" x="1660.2460999999996" y="150.0" /><text fill="black" x="1660.2460999999996" y="170.0">X45</text><rect fill="rgb(10,8,255)" height="0.8" stroke="rgb(0,0,0)" width="25.0" x="1680.2460999999996" y="149.6" /><text fill="black" x="1680.2460999999996" y="170.4">H46</text><rect fill="rgb(255,100,127)" height="2.8000000000000003" stroke="rgb(0,0,0)" width="47.14285" x="1725.2460999999996" y="148.6" /><text fill="black" x="1725.2460999999996" y="171.4">H47</text><rect fill="rgb(253,198,255)" height="0.8" stroke="rgb(0,0,0)" width="7.5" x="1792.3889499999996" y="149.6" /><text fill="black" x="1792.3889499999996" y="170.4">E48</text><rect fill="rgb(255,154,197)" height="89.60000000000001" stroke="rgb(0,0,0)" width="46.4509" x="1819.8889499999996" y="105.19999999999999" /><text fill="black" x="1819.8889499999996" y="214.8">H49</text><rect fill="rgb(238,187,255)" height="9.6" stroke="rgb(0,0,0)" width="22.70835" x="1886.3398499999996" y="145.2" /><text fill="black" x="1886.3398499999996" y="174.8">H50</text><rect fill="rgb(0,0,255)" height="0.0" stroke="rgb(0,0,0)" width="0.0" x="1929.0481999999997" y="150.0" /><text fill="black" x="1929.0481999999997" y="170.0">X51</text><rect fill="rgb(85,66,255)" height="16.0" stroke="rgb(0,0,0)" width="5.0" x="1949.0481999999997" y="142.0" /><text fill="black" x="1949.0481999999997" y="178.0">E52</text><rect fill="rgb(248,194,255)" height="2.8000000000000003" stroke="rgb(0,0,0)" width="7.857150000000001" x="1974.0481999999997" y="148.6" /><text fill="black" x="1974.0481999999997" y="171.4">E53</text><rect fill="rgb(0,0,255)" height="0.0" stroke="rgb(0,0,0)" width="0.0" x="2001.9053499999998" y="150.0" /><text fill="black" x="2001.9053499999998" y="170.0">X54</text><rect fill="rgb(63,49,255)" height="98.4" stroke="rgb(0,0,0)" width="20.3049" x="2021.9053499999998" y="100.8" /><text fill="black" x="2021.9053499999998" y="219.2">E55</text><rect fill="rgb(255,22,28)" height="2.0" stroke="rgb(0,0,0)" width="8.0" x="2062.2102499999996" y="149.0" /><text fill="black" x="2062.2102499999996" y="171.0">E56</text><rect fill="rgb(0,0,255)" height="0.0" stroke="rgb(0,0,0)" width="0.0" x="2090.2102499999996" y="150.0" /><text fill="black" x="2090.2102499999996" y="170.0">X57</text><rect fill="rgb(0,0,255)" height="0.4" stroke="rgb(0,0,0)" width="10.0" x="2110.2102499999996" y="149.8" /><text fill="black" x="2110.2102499999996" y="170.2">E58</text><rect fill="rgb(255,48,61)" height="9.6" stroke="rgb(0,0,0)" width="26.04165" x="2140.2102499999996" y="145.2" /><text fill="black" x="2140.2102499999996" y="174.8">H59</text><rect fill="rgb(0,0,255)" height="0.0" stroke="rgb(0,0,0)" width="0.0" x="2186.2518999999998" y="150.0" /><text fill="black" x="2186.2518999999998" y="170.0">X60</text><rect fill="rgb(0,0,255)" height="0.0" stroke="rgb(0,0,0)" width="0.0" x="2206.2518999999998" y="150.0" /><text fill="black" x="2206.2518999999998" y="170.0">X61</text><rect fill="rgb(0,0,255)" height="0.0" stroke="rgb(0,0,0)" width="0.0" x="2226.2518999999998" y="75.0" /><text fill="black" x="2226.2518999999998" y="95.0">X62</text><rect fill="rgb(0,0,255)" height="0.0" stroke="rgb(0,0,0)" width="0.0" x="2226.2518999999998" y="225.0" /><text fill="black" x="2226.2518999999998" y="245.0">X63</text><rect fill="rgb(0,0,255)" height="0.0" stroke="rgb(0,0,0)" width="0.0" x="2246.2518999999998" y="150.0" /><text fill="black" x="2246.2518999999998" y="170.0">X64</text><rect fill="rgb(210,165,255)" height="0.8" stroke="rgb(0,0,0)" width="7.5" x="2266.2518999999998" y="149.6" /><text fill="black" x="2266.2518999999998" y="170.4">E65</text><rect fill="rgb(0,0,255)" height="0.0" stroke="rgb(0,0,0)" width="0.0" x="2293.7518999999998" y="150.0" /><text fill="black" x="2293.7518999999998" y="170.0">X66</text><rect fill="rgb(0,0,255)" height="0.0" stroke="rgb(0,0,0)" width="0.0" x="2313.7518999999998" y="150.0" /><text fill="black" x="2313.7518999999998" y="170.0">X67</text><rect fill="rgb(0,0,255)" height="0.0" stroke="rgb(0,0,0)" width="0.0" x="2333.7518999999998" y="150.0" /><text fill="black" x="2333.7518999999998" y="170.0">X68</text><rect fill="rgb(0,0,255)" height="0.0" stroke="rgb(0,0,0)" width="0.0" x="2353.7518999999998" y="150.0" /><text fill="black" x="2353.7518999999998" y="170.0">X69</text><rect fill="rgb(0,0,255)" height="0.0" stroke="rgb(0,0,0)" width="0.0" x="2373.7518999999998" y="75.0" /><text fill="black" x="2373.7518999999998" y="95.0">X70</text><rect fill="rgb(0,0,255)" height="0.0" stroke="rgb(0,0,0)" width="0.0" x="2373.7518999999998" y="225.0" /><text fill="black" x="2373.7518999999998" y="245.0">X71</text><rect fill="rgb(0,0,255)" height="0.0" stroke="rgb(0,0,0)" width="0.0" x="2393.7518999999998" y="150.0" /><text fill="black" x="2393.7518999999998" y="170.0">X72</text><rect fill="rgb(0,0,255)" height="0.0" stroke="rgb(0,0,0)" width="0.0" x="2413.7518999999998" y="150.0" /><text fill="black" x="2413.7518999999998" y="170.0">X73</text><rect fill="rgb(0,0,255)" height="0.0" stroke="rgb(0,0,0)" width="0.0" x="2433.7518999999998" y="150.0" /><text fill="black" x="2433.7518999999998" y="170.0">X74</text><rect fill="rgb(0,0,255)" height="0.0" stroke="rgb(0,0,0)" width="0.0" x="2453.7518999999998" y="150.0" /><text fill="black" x="2453.7518999999998" y="170.0">X75</text><rect fill="rgb(0,0,255)" height="0.0" stroke="rgb(0,0,0)" width="0.0" x="2473.7518999999998" y="150.0" /><text fill="black" x="2473.7518999999998" y="170.0">X76</text><rect fill="rgb(0,0,255)" height="0.0" stroke="rgb(0,0,0)" width="0.0" x="2493.7518999999998" y="150.0" /><text fill="black" x="2493.7518999999998" y="170.0">X77</text><rect fill="rgb(0,0,255)" height="0.0" stroke="rgb(0,0,0)" width="0.0" x="2513.7518999999998" y="150.0" /><text fill="black" x="2513.7518999999998" y="170.0">X78</text><rect fill="rgb(0,0,255)" height="0.0" stroke="rgb(0,0,0)" width="0.0" x="2533.7518999999998" y="150.0" /><text fill="black" x="2533.7518999999998" y="170.0">X79</text><rect fill="rgb(0,0,255)" height="0.0" stroke="rgb(0,0,0)" width="0.0" x="2553.7518999999998" y="75.0" /><text fill="black" x="2553.7518999999998" y="95.0">X80</text><rect fill="rgb(0,0,255)" height="0.0" stroke="rgb(0,0,0)" width="0.0" x="2553.7518999999998" y="225.0" /><text fill="black" x="2553.7518999999998" y="245.0">X81</text><rect fill="rgb(0,0,255)" height="0.0" stroke="rgb(0,0,0)" width="0.0" x="2573.7518999999998" y="150.0" /><text fill="black" x="2573.7518999999998" y="170.0">X82</text><rect fill="rgb(0,0,255)" height="0.0" stroke="rgb(0,0,0)" width="0.0" x="2593.7518999999998" y="150.0" /><text fill="black" x="2593.7518999999998" y="170.0">X83</text><rect fill="rgb(255,91,116)" height="1.2" stroke="rgb(0,0,0)" width="20.0" x="2613.7518999999998" y="149.4" /><text fill="black" x="2613.7518999999998" y="170.6">H84</text><rect fill="rgb(0,0,255)" height="0.0" stroke="rgb(0,0,0)" width="0.0" x="2653.7518999999998" y="150.0" /><text fill="black" x="2653.7518999999998" y="170.0">X85</text><rect fill="rgb(0,0,255)" height="0.4" stroke="rgb(0,0,0)" width="5.0" x="2673.7518999999998" y="149.8" /><text fill="black" x="2673.7518999999998" y="170.2">E86</text><rect fill="rgb(255,180,229)" height="0.8" stroke="rgb(0,0,0)" width="7.5" x="2698.7518999999998" y="74.6" /><text fill="black" x="2698.7518999999998" y="95.4">E87</text><rect fill="rgb(255,183,233)" height="10.4" stroke="rgb(0,0,0)" width="21.923099999999998" x="2698.7518999999998" y="219.8" /><text fill="black" x="2698.7518999999998" y="250.2">H88</text><rect fill="rgb(255,9,11)" height="16.8" stroke="rgb(0,0,0)" width="5.2381" x="2740.675" y="141.6" /><text fill="black" x="2740.675" y="178.4">E89</text><rect fill="rgb(75,59,255)" height="22.400000000000002" stroke="rgb(0,0,0)" width="15.17855" x="2765.9131" y="138.8" /><text fill="black" x="2765.9131" y="181.2">H90</text><rect fill="rgb(255,50,64)" height="85.2" stroke="rgb(0,0,0)" width="90.2815" x="2801.0916500000003" y="107.4" /><text fill="black" x="2801.0916500000003" y="212.6">H91</text><rect fill="rgb(255,116,148)" height="20.8" stroke="rgb(0,0,0)" width="28.84615" x="2911.37315" y="139.6" /><text fill="black" x="2911.37315" y="180.4">H92</text><rect fill="rgb(116,91,255)" height="16.0" stroke="rgb(0,0,0)" width="5.0" x="2960.2192999999997" y="142.0" /><text fill="black" x="2960.2192999999997" y="178.0">E93</text><rect fill="rgb(255,134,171)" height="3.2" stroke="rgb(0,0,0)" width="16.875" x="2985.2192999999997" y="148.4" /><text fill="black" x="2985.2192999999997" y="171.6">H94</text><rect fill="rgb(176,138,255)" height="98.0" stroke="rgb(0,0,0)" width="24.12245" x="3022.0942999999997" y="101.0" /><text fill="black" x="3022.0942999999997" y="219.0">E95</text><rect fill="rgb(255,10,13)" height="0.8" stroke="rgb(0,0,0)" width="15.0" x="3066.2167499999996" y="149.6" /><text fill="black" x="3066.2167499999996" y="170.4">H96</text><rect fill="rgb(255,62,79)" height="46.400000000000006" stroke="rgb(0,0,0)" width="21.59485" x="3101.2167499999996" y="126.8" /><text fill="black" x="3101.2167499999996" y="193.2">H97</text><rect fill="rgb(54,42,255)" height="0.8" stroke="rgb(0,0,0)" width="5.0" x="3142.8116" y="149.6" /><text fill="black" x="3142.8116" y="170.4">E98</text><rect fill="rgb(255,103,131)" height="3.5999999999999996" stroke="rgb(0,0,0)" width="17.7778" x="3167.8116" y="148.2" /><text fill="black" x="3167.8116" y="171.8">H99</text><rect fill="rgb(0,0,255)" height="0.0" stroke="rgb(0,0,0)" width="0.0" x="3205.5894" y="150.0" /><text fill="black" x="3205.5894" y="170.0">X100</text><rect fill="rgb(0,0,255)" height="0.0" stroke="rgb(0,0,0)" width="0.0" x="3225.5894" y="75.0" /><text fill="black" x="3225.5894" y="95.0">X101</text><rect fill="rgb(0,0,255)" height="0.0" stroke="rgb(0,0,0)" width="0.0" x="3225.5894" y="225.0" /><text fill="black" x="3225.5894" y="245.0">X102</text><rect fill="rgb(0,0,255)" height="0.0" stroke="rgb(0,0,0)" width="0.0" x="3245.5894" y="150.0" /><text fill="black" x="3245.5894" y="170.0">X103</text><rect fill="rgb(0,0,255)" height="0.0" stroke="rgb(0,0,0)" width="0.0" x="3265.5894" y="150.0" /><text fill="black" x="3265.5894" y="170.0">X104</text><rect fill="rgb(0,0,255)" height="0.0" stroke="rgb(0,0,0)" width="0.0" x="3285.5894" y="150.0" /><text fill="black" x="3285.5894" y="170.0">X105</text><rect fill="rgb(0,0,255)" height="0.0" stroke="rgb(0,0,0)" width="0.0" x="3305.5894" y="150.0" /><text fill="black" x="3305.5894" y="170.0">X106</text><rect fill="rgb(0,0,255)" height="0.0" stroke="rgb(0,0,0)" width="0.0" x="3325.5894" y="150.0" /><text fill="black" x="3325.5894" y="170.0">X107</text><rect fill="rgb(0,0,255)" height="0.0" stroke="rgb(0,0,0)" width="0.0" x="3345.5894" y="150.0" /><text fill="black" x="3345.5894" y="170.0">X108</text><rect fill="rgb(0,0,255)" height="0.0" stroke="rgb(0,0,0)" width="0.0" x="3365.5894" y="150.0" /><text fill="black" x="3365.5894" y="170.0">X109</text><rect fill="rgb(255,9,11)" height="16.0" stroke="rgb(0,0,0)" width="5.625" x="3385.5894" y="142.0" /><text fill="black" x="3385.5894" y="178.0">E110</text><rect fill="rgb(255,41,53)" height="2.0" stroke="rgb(0,0,0)" width="15.0" x="3411.2144" y="149.0" /><text fill="black" x="3411.2144" y="171.0">H111</text><rect fill="rgb(206,161,255)" height="8.4" stroke="rgb(0,0,0)" width="6.90475" x="3446.2144" y="145.8" /><text fill="black" x="3446.2144" y="174.2">E112</text><rect fill="rgb(0,0,255)" height="0.0" stroke="rgb(0,0,0)" width="0.0" x="3473.11915" y="150.0" /><text fill="black" x="3473.11915" y="170.0">X113</text><rect fill="rgb(0,0,255)" height="0.0" stroke="rgb(0,0,0)" width="0.0" x="3493.11915" y="150.0" /><text fill="black" x="3493.11915" y="170.0">X114</text><rect fill="rgb(0,0,255)" height="0.0" stroke="rgb(0,0,0)" width="0.0" x="3513.11915" y="150.0" /><text fill="black" x="3513.11915" y="170.0">X115</text><rect fill="rgb(255,188,240)" height="24.4" stroke="rgb(0,0,0)" width="17.7049" x="3533.11915" y="137.8" /><text fill="black" x="3533.11915" y="182.2">H116</text><rect fill="rgb(165,129,255)" height="3.2" stroke="rgb(0,0,0)" width="5.0" x="3570.82405" y="148.4" /><text fill="black" x="3570.82405" y="171.6">E117</text><rect fill="rgb(255,45,58)" height="74.4" stroke="rgb(0,0,0)" width="80.86" x="3595.82405" y="112.8" /><text fill="black" x="3595.82405" y="207.2">H118</text><rect fill="rgb(255,103,132)" height="2.0" stroke="rgb(0,0,0)" width="31.0" x="3696.68405" y="149.0" /><text fill="black" x="3696.68405" y="171.0">E119</text><rect fill="rgb(255,53,68)" height="2.0" stroke="rgb(0,0,0)" width="28.0" x="3747.6840500000003" y="149.0" /><text fill="black" x="3747.6840500000003" y="171.0">E120</text><rect fill="rgb(71,56,255)" height="7.6" stroke="rgb(0,0,0)" width="17.3684" x="3795.6840500000003" y="146.2" /><text fill="black" x="3795.6840500000003" y="173.8">H121</text><rect fill="rgb(171,134,255)" height="8.0" stroke="rgb(0,0,0)" width="20.0" x="3833.05245" y="146.0" /><text fill="black" x="3833.05245" y="174.0">H122</text><rect fill="rgb(255,116,149)" height="32.800000000000004" stroke="rgb(0,0,0)" width="23.4756" x="3873.05245" y="133.6" /><text fill="black" x="3873.05245" y="186.4">H123</text><rect fill="rgb(166,130,255)" height="3.2" stroke="rgb(0,0,0)" width="13.75" x="3916.52805" y="148.4" /><text fill="black" x="3916.52805" y="171.6">E124</text><rect fill="rgb(255,157,200)" height="92.0" stroke="rgb(0,0,0)" width="25.8913" x="3950.27805" y="104.0" /><text fill="black" x="3950.27805" y="216.0">E125</text><rect fill="rgb(189,148,255)" height="22.0" stroke="rgb(0,0,0)" width="6.72725" x="3996.16935" y="139.0" /><text fill="black" x="3996.16935" y="181.0">E126</text><rect fill="rgb(254,19,25)" height="2.0" stroke="rgb(0,0,0)" width="19.0" x="4022.8966" y="149.0" /><text fill="black" x="4022.8966" y="171.0">E127</text><rect fill="rgb(255,65,83)" height="10.8" stroke="rgb(0,0,0)" width="23.8889" x="4061.8966" y="144.6" /><text fill="black" x="4061.8966" y="175.4">H128</text><rect fill="rgb(255,8,10)" height="2.0" stroke="rgb(0,0,0)" width="17.0" x="4105.7855" y="149.0" /><text fill="black" x="4105.7855" y="171.0">E129</text><rect fill="rgb(255,72,92)" height="25.2" stroke="rgb(0,0,0)" width="35.2381" x="4142.7855" y="137.4" /><text fill="black" x="4142.7855" y="182.6">H130</text><rect fill="rgb(0,0,255)" height="0.0" stroke="rgb(0,0,0)" width="0.0" x="4198.0236" y="150.0" /><text fill="black" x="4198.0236" y="170.0">X131</text><rect fill="rgb(255,19,25)" height="5.2" stroke="rgb(0,0,0)" width="24.615399999999998" x="4218.0236" y="147.4" /><text fill="black" x="4218.0236" y="172.6">H132</text><rect fill="rgb(0,0,255)" height="0.0" stroke="rgb(0,0,0)" width="0.0" x="4262.639" y="150.0" /><text fill="black" x="4262.639" y="170.0">X133</text><rect fill="rgb(255,73,93)" height="24.4" stroke="rgb(0,0,0)" width="52.213" x="4282.639" y="137.8" /><text fill="black" x="4282.639" y="182.2">H134</text><rect fill="rgb(255,100,127)" height="2.8000000000000003" stroke="rgb(0,0,0)" width="15.0" x="4354.852" y="148.6" /><text fill="black" x="4354.852" y="171.4">E135</text><rect fill="rgb(255,196,249)" height="22.8" stroke="rgb(0,0,0)" width="6.8421" x="4389.852" y="138.6" /><text fill="black" x="4389.852" y="181.4">E136</text><rect fill="rgb(255,82,104)" height="12.8" stroke="rgb(0,0,0)" width="23.90625" x="4416.694100000001" y="143.6" /><text fill="black" x="4416.694100000001" y="176.4">H137</text><rect fill="rgb(0,0,255)" height="0.0" stroke="rgb(0,0,0)" width="0.0" x="4460.600350000001" y="150.0" /><text fill="black" x="4460.600350000001" y="170.0">X138</text><rect fill="rgb(255,32,41)" height="2.0" stroke="rgb(0,0,0)" width="27.0" x="4480.600350000001" y="149.0" /><text fill="black" x="4480.600350000001" y="171.0">H139</text><rect fill="rgb(0,0,255)" height="0.0" stroke="rgb(0,0,0)" width="0.0" x="4527.600350000001" y="150.0" /><text fill="black" x="4527.600350000001" y="170.0">X140</text><rect fill="rgb(0,0,255)" height="0.0" stroke="rgb(0,0,0)" width="0.0" x="4547.600350000001" y="150.0" /><text fill="black" x="4547.600350000001" y="170.0">X141</text><rect fill="rgb(255,165,211)" height="55.60000000000001" stroke="rgb(0,0,0)" width="70.7195" x="4567.600350000001" y="122.19999999999999" /><text fill="black" x="4567.600350000001" y="197.8">H142</text><rect fill="rgb(255,21,27)" height="2.4" stroke="rgb(0,0,0)" width="7.5" x="4658.31985" y="148.8" /><text fill="black" x="4658.31985" y="171.2">E143</text><rect fill="rgb(255,114,146)" height="2.4" stroke="rgb(0,0,0)" width="86.66650000000001" x="4685.81985" y="148.8" /><text fill="black" x="4685.81985" y="171.2">H144</text><rect fill="rgb(166,130,255)" height="0.8" stroke="rgb(0,0,0)" width="15.0" x="4792.48635" y="149.6" /><text fill="black" x="4792.48635" y="170.4">H145</text><rect fill="rgb(255,55,70)" height="0.8" stroke="rgb(0,0,0)" width="117.5" x="4827.48635" y="149.6" /><text fill="black" x="4827.48635" y="170.4">H146</text><rect fill="rgb(0,0,255)" height="0.4" stroke="rgb(0,0,0)" width="20.0" x="4964.98635" y="149.8" /><text fill="black" x="4964.98635" y="170.2">H147</text><rect fill="rgb(255,123,157)" height="0.8" stroke="rgb(0,0,0)" width="42.5" x="5004.98635" y="149.6" /><text fill="black" x="5004.98635" y="170.4">H148</text><rect fill="rgb(172,135,255)" height="24.4" stroke="rgb(0,0,0)" width="17.0492" x="5067.48635" y="137.8" /><text fill="black" x="5067.48635" y="182.2">H149</text><rect fill="rgb(254,14,18)" height="2.0" stroke="rgb(0,0,0)" width="8.0" x="5104.5355500000005" y="149.0" /><text fill="black" x="5104.5355500000005" y="171.0">E150</text><rect fill="rgb(220,172,255)" height="8.799999999999999" stroke="rgb(0,0,0)" width="17.27275" x="5132.5355500000005" y="145.6" /><text fill="black" x="5132.5355500000005" y="174.4">H151</text><rect fill="rgb(255,47,60)" height="47.599999999999994" stroke="rgb(0,0,0)" width="21.63865" x="5169.8083" y="126.2" /><text fill="black" x="5169.8083" y="193.8">E152</text><rect fill="rgb(255,151,192)" height="18.4" stroke="rgb(0,0,0)" width="20.97825" x="5211.44695" y="65.8" /><text fill="black" x="5211.44695" y="104.2">H153</text><rect fill="rgb(255,127,161)" height="2.8000000000000003" stroke="rgb(0,0,0)" width="11.42855" x="5211.44695" y="223.6" /><text fill="black" x="5211.44695" y="246.4">E154</text><rect fill="rgb(255,6,7)" height="2.8000000000000003" stroke="rgb(0,0,0)" width="29.285700000000002" x="5252.425199999999" y="148.6" /><text fill="black" x="5252.425199999999" y="171.4">H155</text><rect fill="rgb(255,28,36)" height="3.5999999999999996" stroke="rgb(0,0,0)" width="51.111000000000004" x="5301.710899999999" y="148.2" /><text fill="black" x="5301.710899999999" y="171.8">H156</text><rect fill="rgb(255,14,18)" height="2.0" stroke="rgb(0,0,0)" width="37.0" x="5372.821899999999" y="149.0" /><text fill="black" x="5372.821899999999" y="171.0">H157</text><rect fill="rgb(255,22,28)" height="2.8000000000000003" stroke="rgb(0,0,0)" width="82.857" x="5429.821899999999" y="148.6" /><text fill="black" x="5429.821899999999" y="171.4">H158</text><rect fill="rgb(0,0,255)" height="0.4" stroke="rgb(0,0,0)" width="30.0" x="5532.6789" y="149.8" /><text fill="black" x="5532.6789" y="170.2">H159</text><rect fill="rgb(0,0,255)" height="0.0" stroke="rgb(0,0,0)" width="0.0" x="5582.6789" y="150.0" /><text fill="black" x="5582.6789" y="170.0">X160</text><rect fill="rgb(198,155,255)" height="2.4" stroke="rgb(0,0,0)" width="8.333350000000001" x="5602.6789" y="148.8" /><text fill="black" x="5602.6789" y="171.2">E161</text><rect fill="rgb(0,0,255)" height="0.0" stroke="rgb(0,0,0)" width="0.0" x="5631.01225" y="150.0" /><text fill="black" x="5631.01225" y="170.0">X162</text><rect fill="rgb(0,0,255)" height="0.4" stroke="rgb(0,0,0)" width="15.0" x="5651.01225" y="149.8" /><text fill="black" x="5651.01225" y="170.2">E163</text><rect fill="rgb(0,0,255)" height="0.4" stroke="rgb(0,0,0)" width="15.0" x="5686.01225" y="149.8" /><text fill="black" x="5686.01225" y="170.2">E164</text><rect fill="rgb(255,44,57)" height="0.8" stroke="rgb(0,0,0)" width="32.5" x="5721.01225" y="149.6" /><text fill="black" x="5721.01225" y="170.4">H165</text><rect fill="rgb(255,103,132)" height="1.2" stroke="rgb(0,0,0)" width="35.0" x="5773.51225" y="149.4" /><text fill="black" x="5773.51225" y="170.6">H166</text><rect fill="rgb(0,0,255)" height="0.4" stroke="rgb(0,0,0)" width="60.0" x="5828.51225" y="149.8" /><text fill="black" x="5828.51225" y="170.2">H167</text><rect fill="rgb(0,0,255)" height="0.4" stroke="rgb(0,0,0)" width="5.0" x="5908.51225" y="149.8" /><text fill="black" x="5908.51225" y="170.2">E168</text><rect fill="rgb(255,0,0)" height="1.2" stroke="rgb(0,0,0)" width="71.6665" x="5933.51225" y="149.4" /><text fill="black" x="5933.51225" y="170.6">H169</text><rect fill="rgb(255,0,0)" height="1.2" stroke="rgb(0,0,0)" width="30.0" x="6025.17875" y="149.4" /><text fill="black" x="6025.17875" y="170.6">H170</text><rect fill="rgb(255,0,0)" height="2.8000000000000003" stroke="rgb(0,0,0)" width="74.2855" x="6075.17875" y="148.6" /><text fill="black" x="6075.17875" y="171.4">H171</text><rect fill="rgb(0,0,255)" height="0.0" stroke="rgb(0,0,0)" width="0.0" x="6169.46425" y="150.0" /><text fill="black" x="6169.46425" y="170.0">X172</text><rect fill="rgb(0,0,255)" height="0.0" stroke="rgb(0,0,0)" width="0.0" x="6189.46425" y="150.0" /><text fill="black" x="6189.46425" y="170.0">X173</text><rect fill="rgb(0,0,255)" height="0.0" stroke="rgb(0,0,0)" width="0.0" x="6209.46425" y="150.0" /><text fill="black" x="6209.46425" y="170.0">X174</text><rect fill="rgb(0,0,255)" height="0.0" stroke="rgb(0,0,0)" width="0.0" x="6229.46425" y="150.0" /><text fill="black" x="6229.46425" y="170.0">X175</text><rect fill="rgb(255,113,144)" height="2.0" stroke="rgb(0,0,0)" width="6.0" x="6249.46425" y="149.0" /><text fill="black" x="6249.46425" y="171.0">E176</text><rect fill="rgb(254,19,24)" height="4.8" stroke="rgb(0,0,0)" width="23.75" x="6275.46425" y="147.6" /><text fill="black" x="6275.46425" y="172.4">H177</text><rect fill="rgb(255,25,32)" height="14.000000000000002" stroke="rgb(0,0,0)" width="45.857150000000004" x="6319.21425" y="143.0" /><text fill="black" x="6319.21425" y="177.0">H178</text><rect fill="rgb(255,151,193)" height="1.6" stroke="rgb(0,0,0)" width="10.0" x="6385.071400000001" y="74.2" /><text fill="black" x="6385.071400000001" y="95.8">E179</text><rect fill="rgb(255,35,44)" height="5.2" stroke="rgb(0,0,0)" width="38.0769" x="6385.071400000001" y="222.4" /><text fill="black" x="6385.071400000001" y="247.6">H180</text><rect fill="rgb(232,182,255)" height="1.6" stroke="rgb(0,0,0)" width="10.0" x="6443.148300000001" y="149.2" /><text fill="black" x="6443.148300000001" y="170.8">E181</text><rect fill="rgb(233,183,255)" height="7.199999999999999" stroke="rgb(0,0,0)" width="19.7222" x="6473.148300000001" y="146.4" /><text fill="black" x="6473.148300000001" y="173.6">E182</text><rect fill="rgb(69,54,255)" height="1.2" stroke="rgb(0,0,0)" width="8.333350000000001" x="6512.8705" y="74.4" /><text fill="black" x="6512.8705" y="95.6">E183</text><rect fill="rgb(255,57,73)" height="3.2" stroke="rgb(0,0,0)" width="63.75" x="6512.8705" y="223.4" /><text fill="black" x="6512.8705" y="246.6">H184</text><rect fill="rgb(255,8,10)" height="1.2" stroke="rgb(0,0,0)" width="16.66665" x="6596.6205" y="149.4" /><text fill="black" x="6596.6205" y="170.6">H185</text><path d="M 10.0,225.0 a 35558.415050549294,35558.415050549294 0 0,0 3953.2237,-75.0" stroke="rgb(123,96,255)" stroke-width="2" /><path d="M 10.0,225.0 a 35558.415050549294,35558.415050549294 0 0,0 3953.2237,-75.0" stroke="rgb(0,0,0)" stroke-width="0.2" /><path d="M 4662.06985,150.0 a 57429.14047261249,57429.14047261249 0 0,0 -4406.8066,-75.0" stroke="rgb(0,0,255)" stroke-width="2" /><path d="M 4662.06985,150.0 a 57429.14047261249,57429.14047261249 0 0,0 -4406.8066,-75.0" stroke="rgb(0,0,0)" stroke-width="0.2" /><path d="M 294.67235000000005,150.0 a 412.2919684891136,412.2919684891136 0 0,0 411.4711,-0.0" stroke="rgb(255,164,210)" stroke-width="2" /><path d="M 294.67235000000005,150.0 a 412.2919684891136,412.2919684891136 0 0,0 411.4711,-0.0" stroke="rgb(0,0,0)" stroke-width="0.2" /><path d="M 329.97145,150.0 a 349.10312178181823,349.10312178181823 0 0,0 376.172,-0.0" stroke="rgb(112,88,255)" stroke-width="2" /><path d="M 329.97145,150.0 a 349.10312178181823,349.10312178181823 0 0,0 376.172,-0.0" stroke="rgb(0,0,0)" stroke-width="0.2" /><path d="M 329.97145,150.0 a 417.6850138970512,417.6850138970512 0 0,0 414.34455,-0.0" stroke="rgb(112,88,255)" stroke-width="2" /><path d="M 329.97145,150.0 a 417.6850138970512,417.6850138970512 0 0,0 414.34455,-0.0" stroke="rgb(0,0,0)" stroke-width="0.2" /><path d="M 329.97145,150.0 a 6200.048980064442,6200.048980064442 0 0,0 1648.0053249999996,-0.0" stroke="rgb(112,88,255)" stroke-width="2" /><path d="M 329.97145,150.0 a 6200.048980064442,6200.048980064442 0 0,0 1648.0053249999996,-0.0" stroke="rgb(0,0,0)" stroke-width="0.2" /><path d="M 329.97145,150.0 a 6611.813506491641,6611.813506491641 0 0,0 1702.0863499999998,-0.0" stroke="rgb(112,88,255)" stroke-width="2" /><path d="M 329.97145,150.0 a 6611.813506491641,6611.813506491641 0 0,0 1702.0863499999998,-0.0" stroke="rgb(0,0,0)" stroke-width="0.2" /><path d="M 638.21245,150.0 a 37.987774456818194,37.987774456818194 0 0,0 67.93100000000004,-0.0" stroke="rgb(231,181,255)" stroke-width="2" /><path d="M 638.21245,150.0 a 37.987774456818194,37.987774456818194 0 0,0 67.93100000000004,-0.0" stroke="rgb(0,0,0)" stroke-width="0.2" /><path d="M 744.316,150.0 a 1065.8587501608176,1065.8587501608176 0 0,0 675.9273999999998,-0.0" stroke="rgb(170,133,255)" stroke-width="2" /><path d="M 744.316,150.0 a 1065.8587501608176,1065.8587501608176 0 0,0 675.9273999999998,-0.0" stroke="rgb(0,0,0)" stroke-width="0.2" /><path d="M 974.9533999999999,150.0 a 526.882829346059,526.882829346059 0 0,0 -155.83332500000006,-0.0" stroke="rgb(255,103,131)" stroke-width="2" /><path d="M 974.9533999999999,150.0 a 526.882829346059,526.882829346059 0 0,0 -155.83332500000006,-0.0" stroke="rgb(0,0,0)" stroke-width="0.2" /><path d="M 1155.6543749999998,150.0 a 228.6810972831063,228.6810972831063 0 0,0 -71.66664999999989,-0.0" stroke="rgb(255,152,194)" stroke-width="2" /><path d="M 1155.6543749999998,150.0 a 228.6810972831063,228.6810972831063 0 0,0 -71.66664999999989,-0.0" stroke="rgb(0,0,0)" stroke-width="0.2" /><path d="M 1230.8974249999997,150.0 a 118.37625656508287,118.37625656508287 0 0,0 -38.00347499999998,-0.0" stroke="rgb(255,108,138)" stroke-width="2" /><path d="M 1230.8974249999997,150.0 a 118.37625656508287,118.37625656508287 0 0,0 -38.00347499999998,-0.0" stroke="rgb(0,0,0)" stroke-width="0.2" /><path d="M 1384.935825,150.0 a 520.1891660714793,520.1891660714793 0 0,0 -154.03840000000037,-0.0" stroke="rgb(255,88,113)" stroke-width="2" /><path d="M 1384.935825,150.0 a 520.1891660714793,520.1891660714793 0 0,0 -154.03840000000037,-0.0" stroke="rgb(0,0,0)" stroke-width="0.2" /><path d="M 1420.2433999999998,150.0 a 654.5349288772668,654.5349288772668 0 0,0 -189.34597500000018,-0.0" stroke="rgb(255,88,113)" stroke-width="2" /><path d="M 1420.2433999999998,150.0 a 654.5349288772668,654.5349288772668 0 0,0 -189.34597500000018,-0.0" stroke="rgb(0,0,0)" stroke-width="0.2" /><path d="M 1355.3525,150.0 a 279.8885871915629,279.8885871915629 0 0,0 -43.66665000000012,-75.0" stroke="rgb(46,36,255)" stroke-width="2" /><path d="M 1355.3525,150.0 a 279.8885871915629,279.8885871915629 0 0,0 -43.66665000000012,-75.0" stroke="rgb(0,0,0)" stroke-width="0.2" /><path d="M 1566.9127499999995,150.0 a 492.8610979904968,492.8610979904968 0 0,0 -146.66934999999967,-0.0" stroke="rgb(249,195,255)" stroke-width="2" /><path d="M 1566.9127499999995,150.0 a 492.8610979904968,492.8610979904968 0 0,0 -146.66934999999967,-0.0" stroke="rgb(0,0,0)" stroke-width="0.2" /><path d="M 1796.1389499999996,150.0 a 1214.5855289082147,1214.5855289082147 0 0,0 -323.0879749999997,-0.0" stroke="rgb(255,26,33)" stroke-width="2" /><path d="M 1796.1389499999996,150.0 a 1214.5855289082147,1214.5855289082147 0 0,0 -323.0879749999997,-0.0" stroke="rgb(0,0,0)" stroke-width="0.2" /><path d="M 5911.01225,150.0 a 58134.45653521615,58134.45653521615 0 0,0 -4437.961275,-0.0" stroke="rgb(255,26,33)" stroke-width="2" /><path d="M 5911.01225,150.0 a 58134.45653521615,58134.45653521615 0 0,0 -4437.961275,-0.0" stroke="rgb(0,0,0)" stroke-width="0.2" /><path d="M 1951.5481999999997,150.0 a 2351.2886215345684,2351.2886215345684 0 0,0 1011.1711,-0.0" stroke="rgb(85,66,255)" stroke-width="2" /><path d="M 1951.5481999999997,150.0 a 2351.2886215345684,2351.2886215345684 0 0,0 1011.1711,-0.0" stroke="rgb(0,0,0)" stroke-width="0.2" /><path d="M 2032.0577999999998,150.0 a 2309.772387386762,2309.772387386762 0 0,0 1002.0977249999999,-0.0" stroke="rgb(63,49,255)" stroke-width="2" /><path d="M 2032.0577999999998,150.0 a 2309.772387386762,2309.772387386762 0 0,0 1002.0977249999999,-0.0" stroke="rgb(0,0,0)" stroke-width="0.2" /><path d="M 2115.2102499999996,150.0 a 153.84579534924464,153.84579534924464 0 0,0 -49.0,-0.0" stroke="rgb(255,22,28)" stroke-width="2" /><path d="M 2115.2102499999996,150.0 a 153.84579534924464,153.84579534924464 0 0,0 -49.0,-0.0" stroke="rgb(0,0,0)" stroke-width="0.2" /><path d="M 2743.29405,150.0 a 3088.1007141049495,3088.1007141049495 0 0,0 -677.0838000000003,-0.0" stroke="rgb(255,22,28)" stroke-width="2" /><path d="M 2743.29405,150.0 a 3088.1007141049495,3088.1007141049495 0 0,0 -677.0838000000003,-0.0" stroke="rgb(0,0,0)" stroke-width="0.2" /><path d="M 2702.5018999999998,75.0 a 1765.273349246313,1765.273349246313 0 0,0 -432.5,75.0" stroke="rgb(210,165,255)" stroke-width="2" /><path d="M 2702.5018999999998,75.0 a 1765.273349246313,1765.273349246313 0 0,0 -432.5,75.0" stroke="rgb(0,0,0)" stroke-width="0.2" /><path d="M 2743.29405,150.0 a 213.224546811983,213.224546811983 0 0,0 -67.04215000000022,-0.0" stroke="rgb(0,0,255)" stroke-width="2" /><path d="M 2743.29405,150.0 a 213.224546811983,213.224546811983 0 0,0 -67.04215000000022,-0.0" stroke="rgb(0,0,0)" stroke-width="0.2" /><path d="M 2743.29405,150.0 a 973.327586662778,973.327586662778 0 0,0 645.1078499999999,-0.0" stroke="rgb(255,9,11)" stroke-width="2" /><path d="M 2743.29405,150.0 a 973.327586662778,973.327586662778 0 0,0 645.1078499999999,-0.0" stroke="rgb(0,0,0)" stroke-width="0.2" /><path d="M 2743.29405,150.0 a 1593.2950020454555,1593.2950020454555 0 0,0 830.0300000000002,-0.0" stroke="rgb(255,9,11)" stroke-width="2" /><path d="M 2743.29405,150.0 a 1593.2950020454555,1593.2950020454555 0 0,0 830.0300000000002,-0.0" stroke="rgb(0,0,0)" stroke-width="0.2" /><path d="M 3034.1555249999997,150.0 a 1824.6844561786954,1824.6844561786954 0 0,0 889.2475250000002,-0.0" stroke="rgb(176,138,255)" stroke-width="2" /><path d="M 3034.1555249999997,150.0 a 1824.6844561786954,1824.6844561786954 0 0,0 889.2475250000002,-0.0" stroke="rgb(0,0,0)" stroke-width="0.2" /><path d="M 3034.1555249999997,150.0 a 1989.2447131768893,1989.2447131768893 0 0,0 929.0681750000003,-0.0" stroke="rgb(176,138,255)" stroke-width="2" /><path d="M 3034.1555249999997,150.0 a 1989.2447131768893,1989.2447131768893 0 0,0 929.0681750000003,-0.0" stroke="rgb(0,0,0)" stroke-width="0.2" /><path d="M 3145.3116,150.0 a 3567.063137922959,3567.063137922959 0 0,0 1247.9614499999998,-0.0" stroke="rgb(54,42,255)" stroke-width="2" /><path d="M 3145.3116,150.0 a 3567.063137922959,3567.063137922959 0 0,0 1247.9614499999998,-0.0" stroke="rgb(0,0,0)" stroke-width="0.2" /><path d="M 3388.4019,150.0 a 11212.70986169888,11212.70986169888 0 0,0 2218.4436750000004,-0.0" stroke="rgb(255,9,11)" stroke-width="2" /><path d="M 3388.4019,150.0 a 11212.70986169888,11212.70986169888 0 0,0 2218.4436750000004,-0.0" stroke="rgb(0,0,0)" stroke-width="0.2" /><path d="M 3388.4019,150.0 a 18670.348056108007,18670.348056108007 0 0,0 2864.06235,-0.0" stroke="rgb(255,9,11)" stroke-width="2" /><path d="M 3388.4019,150.0 a 18670.348056108007,18670.348056108007 0 0,0 2864.06235,-0.0" stroke="rgb(0,0,0)" stroke-width="0.2" /><path d="M 3449.6667749999997,150.0 a 626.9107163987636,626.9107163987636 0 0,0 513.5569250000003,-0.0" stroke="rgb(206,161,255)" stroke-width="2" /><path d="M 3449.6667749999997,150.0 a 626.9107163987636,626.9107163987636 0 0,0 513.5569250000003,-0.0" stroke="rgb(0,0,0)" stroke-width="0.2" /><path d="M 3761.6840500000003,150.0 a 155.47153930556607,155.47153930556607 0 0,0 -49.500000000000455,-0.0" stroke="rgb(255,103,132)" stroke-width="2" /><path d="M 3761.6840500000003,150.0 a 155.47153930556607,155.47153930556607 0 0,0 -49.500000000000455,-0.0" stroke="rgb(0,0,0)" stroke-width="0.2" /><path d="M 3963.2237,150.0 a 3395.846174103195,3395.846174103195 0 0,0 1217.403925,-0.0" stroke="rgb(255,157,200)" stroke-width="2" /><path d="M 3963.2237,150.0 a 3395.846174103195,3395.846174103195 0 0,0 1217.403925,-0.0" stroke="rgb(0,0,0)" stroke-width="0.2" /><path d="M 3999.532975,150.0 a 379.8437424113759,379.8437424113759 0 0,0 393.7400749999997,-0.0" stroke="rgb(189,148,255)" stroke-width="2" /><path d="M 3999.532975,150.0 a 379.8437424113759,379.8437424113759 0 0,0 393.7400749999997,-0.0" stroke="rgb(0,0,0)" stroke-width="0.2" /><path d="M 4114.2855,150.0 a 263.1900093346306,263.1900093346306 0 0,0 -81.88889999999992,-0.0" stroke="rgb(254,19,25)" stroke-width="2" /><path d="M 4114.2855,150.0 a 263.1900093346306,263.1900093346306 0 0,0 -81.88889999999992,-0.0" stroke="rgb(0,0,0)" stroke-width="0.2" /><path d="M 5217.161225,225.0 a 4265.69122869507,4265.69122869507 0 0,0 -854.809225,-75.0" stroke="rgb(255,100,127)" stroke-width="2" /><path d="M 5217.161225,225.0 a 4265.69122869507,4265.69122869507 0 0,0 -854.809225,-75.0" stroke="rgb(0,0,0)" stroke-width="0.2" /><path d="M 5108.5355500000005,150.0 a 1803.070818565903,1803.070818565903 0 0,0 -446.46570000000065,-0.0" stroke="rgb(255,21,27)" stroke-width="2" /><path d="M 5108.5355500000005,150.0 a 1803.070818565903,1803.070818565903 0 0,0 -446.46570000000065,-0.0" stroke="rgb(0,0,0)" stroke-width="0.2" /><path d="M 5180.627625,150.0 a 3882.496108754892,3882.496108754892 0 0,0 1302.3817750000007,-0.0" stroke="rgb(255,47,60)" stroke-width="2" /><path d="M 5180.627625,150.0 a 3882.496108754892,3882.496108754892 0 0,0 1302.3817750000007,-0.0" stroke="rgb(0,0,0)" stroke-width="0.2" /><path d="M 5180.627625,150.0 a 4099.353375752735,4099.353375752735 0 0,0 1336.4095500000003,-75.0" stroke="rgb(255,47,60)" stroke-width="2" /><path d="M 5180.627625,150.0 a 4099.353375752735,4099.353375752735 0 0,0 1336.4095500000003,-75.0" stroke="rgb(0,0,0)" stroke-width="0.2" /><path d="M 5693.51225,150.0 a 108.78344276983849,108.78344276983849 0 0,0 -35.0,-0.0" stroke="rgb(0,0,255)" stroke-width="2" /><path d="M 5693.51225,150.0 a 108.78344276983849,108.78344276983849 0 0,0 -35.0,-0.0" stroke="rgb(0,0,0)" stroke-width="0.2" /><path d="M 6448.148300000001,150.0 a 307.64946970069155,307.64946970069155 0 0,0 -58.07690000000002,-75.0" stroke="rgb(255,151,193)" stroke-width="2" /><path d="M 6448.148300000001,150.0 a 307.64946970069155,307.64946970069155 0 0,0 -58.07690000000002,-75.0" stroke="rgb(0,0,0)" stroke-width="0.2" /></svg>