<?xml version="1.0" encoding="utf-8" ?>
<svg baseProfile="full" height="100%" style="font-size:14;font-family:Sans, Arial;stroke-width:1;fill:none" version="1.1" width="100%" xmlns="http://www.w3.org/2000/svg" xmlns:ev="http://www.w3.org/2001/xml-events" xmlns:xlink="http://www.w3.org/1999/xlink"><defs /><rect fill="none" height="280.0" stroke="none" width="8338.28715" x="0" y="0" /><line stroke="rgb(0,0,0)" x1="5.0" x2="20.0" y1="205.0" y2="205.0" /><line stroke="rgb(0,0,0)" x1="20.0" x2="45.0" y1="205.0" y2="130.0" /><line stroke="rgb(0,0,0)" x1="45.0" x2="50.0" y1="130.0" y2="130.0" /><line stroke="rgb(0,0,0)" x1="50.0" x2="55.0" y1="130.0" y2="130.0" /><line stroke="rgb(0,0,0)" x1="55.0" x2="75.0" y1="130.0" y2="130.0" /><line stroke="rgb(0,0,0)" x1="75.0" x2="80.0" y1="130.0" y2="130.0" /><line stroke="rgb(0,0,0)" x1="5.0" x2="25.0" y1="55.0" y2="55.0" /><line stroke="rgb(0,0,0)" x1="25.0" x2="75.0" y1="55.0" y2="130.0" /><line stroke="rgb(0,0,0)" x1="75.0" x2="80.0" y1="130.0" y2="130.0" /><line stroke="rgb(0,0,0)" x1="80.0" x2="150.119" y1="130.0" y2="130.0" /><line stroke="rgb(0,0,0)" x1="150.119" x2="170.119" y1="130.0" y2="130.0" /><line stroke="rgb(0,0,0)" x1="170.119" x2="175.119" y1="130.0" y2="130.0" /><line stroke="rgb(0,0,0)" x1="175.119" x2="216.994" y1="130.0" y2="130.0" /><line stroke="rgb(0,0,0)" x1="216.994" x2="236.994" y1="130.0" y2="130.0" /><line stroke="rgb(0,0,0)" x1="236.994" x2="241.994" y1="130.0" y2="130.0" /><line stroke="rgb(0,0,0)" x1="241.994" x2="277.76324999999997" y1="130.0" y2="130.0" /><line stroke="rgb(0,0,0)" x1="277.76324999999997" x2="297.76324999999997" y1="130.0" y2="55.0" /><line stroke="rgb(0,0,0)" x1="297.76324999999997" x2="302.76324999999997" y1="55.0" y2="55.0" /><line stroke="rgb(0,0,0)" x1="241.994" x2="277.76324999999997" y1="130.0" y2="130.0" /><line stroke="rgb(0,0,0)" x1="277.76324999999997" x2="297.76324999999997" y1="130.0" y2="205.0" /><line stroke="rgb(0,0,0)" x1="297.76324999999997" x2="302.76324999999997" y1="205.0" y2="205.0" /><line stroke="rgb(0,0,0)" x1="302.76324999999997" x2="312.76324999999997" y1="55.0" y2="55.0" /><line stroke="rgb(0,0,0)" x1="312.76324999999997" x2="346.26325" y1="55.0" y2="130.0" /><line stroke="rgb(0,0,0)" x1="346.26325" x2="351.26325" y1="130.0" y2="130.0" /><line stroke="rgb(0,0,0)" x1="302.76324999999997" x2="326.26325" y1="205.0" y2="205.0" /><line stroke="rgb(0,0,0)" x1="326.26325" x2="346.26325" y1="205.0" y2="130.0" /><line stroke="rgb(0,0,0)" x1="346.26325" x2="351.26325" y1="130.0" y2="130.0" /><line stroke="rgb(0,0,0)" x1="351.26325" x2="363.08145" y1="130.0" y2="130.0" /><line stroke="rgb(0,0,0)" x1="363.08145" x2="383.08145" y1="130.0" y2="130.0" /><line stroke="rgb(0,0,0)" x1="383.08145" x2="388.08145" y1="130.0" y2="130.0" /><line stroke="rgb(0,0,0)" x1="388.08145" x2="416.86145000000005" y1="130.0" y2="130.0" /><line stroke="rgb(0,0,0)" x1="416.86145000000005" x2="436.86145000000005" y1="130.0" y2="55.0" /><line stroke="rgb(0,0,0)" x1="436.86145000000005" x2="441.86145000000005" y1="55.0" y2="55.0" /><line stroke="rgb(0,0,0)" x1="388.08145" x2="416.86145000000005" y1="130.0" y2="130.0" /><line stroke="rgb(0,0,0)" x1="416.86145000000005" x2="436.86145000000005" y1="130.0" y2="205.0" /><line stroke="rgb(0,0,0)" x1="436.86145000000005" x2="441.86145000000005" y1="205.0" y2="205.0" /><line stroke="rgb(0,0,0)" x1="441.86145000000005" x2="481.86145000000005" y1="55.0" y2="55.0" /><line stroke="rgb(0,0,0)" x1="481.86145000000005" x2="501.86145000000005" y1="55.0" y2="130.0" /><line stroke="rgb(0,0,0)" x1="501.86145000000005" x2="506.86145000000005" y1="130.0" y2="130.0" /><line stroke="rgb(0,0,0)" x1="441.86145000000005" x2="446.86145000000005" y1="205.0" y2="205.0" /><line stroke="rgb(0,0,0)" x1="446.86145000000005" x2="501.86145000000005" y1="205.0" y2="130.0" /><line stroke="rgb(0,0,0)" x1="501.86145000000005" x2="506.86145000000005" y1="130.0" y2="130.0" /><line stroke="rgb(0,0,0)" x1="506.86145000000005" x2="585.61145" y1="130.0" y2="130.0" /><line stroke="rgb(0,0,0)" x1="585.61145" x2="605.61145" y1="130.0" y2="130.0" /><line stroke="rgb(0,0,0)" x1="605.61145" x2="610.61145" y1="130.0" y2="130.0" /><line stroke="rgb(0,0,0)" x1="610.61145" x2="638.11145" y1="130.0" y2="130.0" /><line stroke="rgb(0,0,0)" x1="638.11145" x2="658.1114500000001" y1="130.0" y2="130.0" /><line stroke="rgb(0,0,0)" x1="658.1114500000001" x2="663.1114500000001" y1="130.0" y2="130.0" /><line stroke="rgb(0,0,0)" x1="663.1114500000001" x2="730.71245" y1="130.0" y2="130.0" /><line stroke="rgb(0,0,0)" x1="730.71245" x2="750.71245" y1="130.0" y2="130.0" /><line stroke="rgb(0,0,0)" x1="750.71245" x2="755.71245" y1="130.0" y2="130.0" /><line stroke="rgb(0,0,0)" x1="755.71245" x2="765.71245" y1="130.0" y2="130.0" /><line stroke="rgb(0,0,0)" x1="765.71245" x2="785.71245" y1="130.0" y2="130.0" /><line stroke="rgb(0,0,0)" x1="785.71245" x2="790.71245" y1="130.0" y2="130.0" /><line stroke="rgb(0,0,0)" x1="790.71245" x2="815.3676" y1="130.0" y2="130.0" /><line stroke="rgb(0,0,0)" x1="815.3676" x2="835.3676" y1="130.0" y2="130.0" /><line stroke="rgb(0,0,0)" x1="835.3676" x2="840.3676" y1="130.0" y2="130.0" /><line stroke="rgb(0,0,0)" x1="840.3676" x2="856.9193" y1="130.0" y2="130.0" /><line stroke="rgb(0,0,0)" x1="856.9193" x2="876.9193" y1="130.0" y2="130.0" /><line stroke="rgb(0,0,0)" x1="876.9193" x2="881.9193" y1="130.0" y2="130.0" /><line stroke="rgb(0,0,0)" x1="881.9193" x2="911.7126999999999" y1="130.0" y2="130.0" /><line stroke="rgb(0,0,0)" x1="911.7126999999999" x2="931.7126999999999" y1="130.0" y2="55.0" /><line stroke="rgb(0,0,0)" x1="931.7126999999999" x2="936.7126999999999" y1="55.0" y2="55.0" /><line stroke="rgb(0,0,0)" x1="881.9193" x2="911.7126999999999" y1="130.0" y2="130.0" /><line stroke="rgb(0,0,0)" x1="911.7126999999999" x2="931.7126999999999" y1="130.0" y2="205.0" /><line stroke="rgb(0,0,0)" x1="931.7126999999999" x2="936.7126999999999" y1="205.0" y2="205.0" /><line stroke="rgb(0,0,0)" x1="936.7126999999999" x2="960.7867499999999" y1="55.0" y2="55.0" /><line stroke="rgb(0,0,0)" x1="960.7867499999999" x2="980.7867499999999" y1="55.0" y2="130.0" /><line stroke="rgb(0,0,0)" x1="980.7867499999999" x2="985.7867499999999" y1="130.0" y2="130.0" /><line stroke="rgb(0,0,0)" x1="936.7126999999999" x2="941.7126999999999" y1="205.0" y2="205.0" /><line stroke="rgb(0,0,0)" x1="941.7126999999999" x2="980.7867499999999" y1="205.0" y2="130.0" /><line stroke="rgb(0,0,0)" x1="980.7867499999999" x2="985.7867499999999" y1="130.0" y2="130.0" /><line stroke="rgb(0,0,0)" x1="985.7867499999999" x2="997.4533999999999" y1="130.0" y2="130.0" /><line stroke="rgb(0,0,0)" x1="997.4533999999999" x2="1017.4533999999999" y1="130.0" y2="130.0" /><line stroke="rgb(0,0,0)" x1="1017.4533999999999" x2="1022.4533999999999" y1="130.0" y2="130.0" /><line stroke="rgb(0,0,0)" x1="1022.4533999999999" x2="1059.9533999999999" y1="130.0" y2="130.0" /><line stroke="rgb(0,0,0)" x1="1059.9533999999999" x2="1079.9533999999999" y1="130.0" y2="130.0" /><line stroke="rgb(0,0,0)" x1="1079.9533999999999" x2="1084.9533999999999" y1="130.0" y2="130.0" /><line stroke="rgb(0,0,0)" x1="1084.9533999999999" x2="1112.4533999999999" y1="130.0" y2="130.0" /><line stroke="rgb(0,0,0)" x1="1112.4533999999999" x2="1132.4533999999999" y1="130.0" y2="130.0" /><line stroke="rgb(0,0,0)" x1="1132.4533999999999" x2="1137.4533999999999" y1="130.0" y2="130.0" /><line stroke="rgb(0,0,0)" x1="1137.4533999999999" x2="1157.4533999999999" y1="130.0" y2="130.0" /><line stroke="rgb(0,0,0)" x1="1157.4533999999999" x2="1177.4533999999999" y1="130.0" y2="130.0" /><line stroke="rgb(0,0,0)" x1="1177.4533999999999" x2="1182.4533999999999" y1="130.0" y2="130.0" /><line stroke="rgb(0,0,0)" x1="1182.4533999999999" x2="1192.4533999999999" y1="130.0" y2="130.0" /><line stroke="rgb(0,0,0)" x1="1192.4533999999999" x2="1212.4533999999999" y1="130.0" y2="130.0" /><line stroke="rgb(0,0,0)" x1="1212.4533999999999" x2="1217.4533999999999" y1="130.0" y2="130.0" /><line stroke="rgb(0,0,0)" x1="1217.4533999999999" x2="1280.6544" y1="130.0" y2="130.0" /><line stroke="rgb(0,0,0)" x1="1280.6544" x2="1300.6543999999997" y1="130.0" y2="130.0" /><line stroke="rgb(0,0,0)" x1="1300.6543999999997" x2="1305.6543999999997" y1="130.0" y2="130.0" /><line stroke="rgb(0,0,0)" x1="1305.6543999999997" x2="1327.3210499999996" y1="130.0" y2="130.0" /><line stroke="rgb(0,0,0)" x1="1327.3210499999996" x2="1347.3210499999996" y1="130.0" y2="130.0" /><line stroke="rgb(0,0,0)" x1="1347.3210499999996" x2="1352.3210499999996" y1="130.0" y2="130.0" /><line stroke="rgb(0,0,0)" x1="1352.3210499999996" x2="1372.3210499999996" y1="130.0" y2="130.0" /><line stroke="rgb(0,0,0)" x1="1372.3210499999996" x2="1392.3210499999996" y1="130.0" y2="130.0" /><line stroke="rgb(0,0,0)" x1="1392.3210499999996" x2="1397.3210499999996" y1="130.0" y2="130.0" /><line stroke="rgb(0,0,0)" x1="1397.3210499999996" x2="1418.9876999999997" y1="130.0" y2="130.0" /><line stroke="rgb(0,0,0)" x1="1418.9876999999997" x2="1438.9876999999997" y1="130.0" y2="130.0" /><line stroke="rgb(0,0,0)" x1="1438.9876999999997" x2="1443.9876999999997" y1="130.0" y2="130.0" /><line stroke="rgb(0,0,0)" x1="1443.9876999999997" x2="1466.8001999999997" y1="130.0" y2="130.0" /><line stroke="rgb(0,0,0)" x1="1466.8001999999997" x2="1486.8001999999997" y1="130.0" y2="130.0" /><line stroke="rgb(0,0,0)" x1="1486.8001999999997" x2="1491.8001999999997" y1="130.0" y2="130.0" /><line stroke="rgb(0,0,0)" x1="1491.8001999999997" x2="1514.9946499999996" y1="130.0" y2="130.0" /><line stroke="rgb(0,0,0)" x1="1514.9946499999996" x2="1534.9946499999996" y1="130.0" y2="130.0" /><line stroke="rgb(0,0,0)" x1="1534.9946499999996" x2="1539.9946499999996" y1="130.0" y2="130.0" /><line stroke="rgb(0,0,0)" x1="1539.9946499999996" x2="1572.9358499999994" y1="130.0" y2="130.0" /><line stroke="rgb(0,0,0)" x1="1572.9358499999994" x2="1592.9358499999994" y1="130.0" y2="55.0" /><line stroke="rgb(0,0,0)" x1="1592.9358499999994" x2="1597.9358499999994" y1="55.0" y2="55.0" /><line stroke="rgb(0,0,0)" x1="1539.9946499999996" x2="1572.9358499999994" y1="130.0" y2="130.0" /><line stroke="rgb(0,0,0)" x1="1572.9358499999994" x2="1592.9358499999994" y1="130.0" y2="205.0" /><line stroke="rgb(0,0,0)" x1="1592.9358499999994" x2="1597.9358499999994" y1="205.0" y2="205.0" /><line stroke="rgb(0,0,0)" x1="1597.9358499999994" x2="1610.4358499999994" y1="55.0" y2="55.0" /><line stroke="rgb(0,0,0)" x1="1610.4358499999994" x2="1646.6024999999995" y1="55.0" y2="130.0" /><line stroke="rgb(0,0,0)" x1="1646.6024999999995" x2="1651.6024999999995" y1="130.0" y2="130.0" /><line stroke="rgb(0,0,0)" x1="1651.6024999999995" x2="1664.1024999999995" y1="130.0" y2="130.0" /><line stroke="rgb(0,0,0)" x1="1664.1024999999995" x2="1684.1024999999995" y1="130.0" y2="130.0" /><line stroke="rgb(0,0,0)" x1="1684.1024999999995" x2="1689.1024999999995" y1="130.0" y2="130.0" /><line stroke="rgb(0,0,0)" x1="1597.9358499999994" x2="1626.6024999999995" y1="205.0" y2="205.0" /><line stroke="rgb(0,0,0)" x1="1626.6024999999995" x2="1684.1024999999995" y1="205.0" y2="130.0" /><line stroke="rgb(0,0,0)" x1="1684.1024999999995" x2="1689.1024999999995" y1="130.0" y2="130.0" /><line stroke="rgb(0,0,0)" x1="1689.1024999999995" x2="1705.7691499999996" y1="130.0" y2="130.0" /><line stroke="rgb(0,0,0)" x1="1705.7691499999996" x2="1725.7691499999996" y1="130.0" y2="130.0" /><line stroke="rgb(0,0,0)" x1="1725.7691499999996" x2="1730.7691499999996" y1="130.0" y2="130.0" /><line stroke="rgb(0,0,0)" x1="1730.7691499999996" x2="1754.7176499999996" y1="130.0" y2="130.0" /><line stroke="rgb(0,0,0)" x1="1754.7176499999996" x2="1774.7176499999996" y1="130.0" y2="130.0" /><line stroke="rgb(0,0,0)" x1="1774.7176499999996" x2="1779.7176499999996" y1="130.0" y2="130.0" /><line stroke="rgb(0,0,0)" x1="1779.7176499999996" x2="1784.7176499999996" y1="130.0" y2="130.0" /><line stroke="rgb(0,0,0)" x1="1784.7176499999996" x2="1804.7176499999996" y1="130.0" y2="130.0" /><line stroke="rgb(0,0,0)" x1="1804.7176499999996" x2="1809.7176499999996" y1="130.0" y2="130.0" /><line stroke="rgb(0,0,0)" x1="1809.7176499999996" x2="1821.3842999999995" y1="130.0" y2="130.0" /><line stroke="rgb(0,0,0)" x1="1821.3842999999995" x2="1841.3842999999995" y1="130.0" y2="130.0" /><line stroke="rgb(0,0,0)" x1="1841.3842999999995" x2="1846.3842999999995" y1="130.0" y2="130.0" /><line stroke="rgb(0,0,0)" x1="1846.3842999999995" x2="1866.9127499999993" y1="130.0" y2="130.0" /><line stroke="rgb(0,0,0)" x1="1866.9127499999993" x2="1886.9127499999993" y1="130.0" y2="130.0" /><line stroke="rgb(0,0,0)" x1="1886.9127499999993" x2="1891.9127499999993" y1="130.0" y2="130.0" /><line stroke="rgb(0,0,0)" x1="1891.9127499999993" x2="1896.9127499999993" y1="130.0" y2="130.0" /><line stroke="rgb(0,0,0)" x1="1896.9127499999993" x2="1916.9127499999993" y1="130.0" y2="130.0" /><line stroke="rgb(0,0,0)" x1="1916.9127499999993" x2="1921.9127499999993" y1="130.0" y2="130.0" /><line stroke="rgb(0,0,0)" x1="1921.9127499999993" x2="1956.9127499999993" y1="130.0" y2="130.0" /><line stroke="rgb(0,0,0)" x1="1956.9127499999993" x2="1976.9127499999993" y1="130.0" y2="130.0" /><line stroke="rgb(0,0,0)" x1="1976.9127499999993" x2="1981.9127499999993" y1="130.0" y2="130.0" /><line stroke="rgb(0,0,0)" x1="1981.9127499999993" x2="1986.9127499999993" y1="130.0" y2="130.0" /><line stroke="rgb(0,0,0)" x1="1986.9127499999993" x2="2006.9127499999993" y1="130.0" y2="130.0" /><line stroke="rgb(0,0,0)" x1="2006.9127499999993" x2="2011.9127499999993" y1="130.0" y2="130.0" /><line stroke="rgb(0,0,0)" x1="2011.9127499999993" x2="2035.2460999999994" y1="130.0" y2="130.0" /><line stroke="rgb(0,0,0)" x1="2035.2460999999994" x2="2055.2460999999994" y1="130.0" y2="130.0" /><line stroke="rgb(0,0,0)" x1="2055.2460999999994" x2="2060.2460999999994" y1="130.0" y2="130.0" /><line stroke="rgb(0,0,0)" x1="2060.2460999999994" x2="2065.2460999999994" y1="130.0" y2="130.0" /><line stroke="rgb(0,0,0)" x1="2065.2460999999994" x2="2085.2460999999994" y1="130.0" y2="130.0" /><line stroke="rgb(0,0,0)" x1="2085.2460999999994" x2="2090.2460999999994" y1="130.0" y2="130.0" /><line stroke="rgb(0,0,0)" x1="2090.2460999999994" x2="2120.2460999999994" y1="130.0" y2="130.0" /><line stroke="rgb(0,0,0)" x1="2120.2460999999994" x2="2140.2460999999994" y1="130.0" y2="130.0" /><line stroke="rgb(0,0,0)" x1="2140.2460999999994" x2="2145.2460999999994" y1="130.0" y2="130.0" /><line stroke="rgb(0,0,0)" x1="2145.2460999999994" x2="2197.388949999999" y1="130.0" y2="130.0" /><line stroke="rgb(0,0,0)" x1="2197.388949999999" x2="2217.388949999999" y1="130.0" y2="130.0" /><line stroke="rgb(0,0,0)" x1="2217.388949999999" x2="2222.388949999999" y1="130.0" y2="130.0" /><line stroke="rgb(0,0,0)" x1="2222.388949999999" x2="2234.888949999999" y1="130.0" y2="130.0" /><line stroke="rgb(0,0,0)" x1="2234.888949999999" x2="2254.888949999999" y1="130.0" y2="130.0" /><line stroke="rgb(0,0,0)" x1="2254.888949999999" x2="2259.888949999999" y1="130.0" y2="130.0" /><line stroke="rgb(0,0,0)" x1="2259.888949999999" x2="2311.3398499999994" y1="130.0" y2="130.0" /><line stroke="rgb(0,0,0)" x1="2311.3398499999994" x2="2331.3398499999994" y1="130.0" y2="130.0" /><line stroke="rgb(0,0,0)" x1="2331.3398499999994" x2="2336.3398499999994" y1="130.0" y2="130.0" /><line stroke="rgb(0,0,0)" x1="2336.3398499999994" x2="2364.0481999999993" y1="130.0" y2="130.0" /><line stroke="rgb(0,0,0)" x1="2364.0481999999993" x2="2384.0481999999993" y1="130.0" y2="130.0" /><line stroke="rgb(0,0,0)" x1="2384.0481999999993" x2="2389.0481999999993" y1="130.0" y2="130.0" /><line stroke="rgb(0,0,0)" x1="2389.0481999999993" x2="2394.0481999999993" y1="130.0" y2="130.0" /><line stroke="rgb(0,0,0)" x1="2394.0481999999993" x2="2414.0481999999993" y1="130.0" y2="130.0" /><line stroke="rgb(0,0,0)" x1="2414.0481999999993" x2="2419.0481999999993" y1="130.0" y2="130.0" /><line stroke="rgb(0,0,0)" x1="2419.0481999999993" x2="2429.0481999999993" y1="130.0" y2="130.0" /><line stroke="rgb(0,0,0)" x1="2429.0481999999993" x2="2449.0481999999993" y1="130.0" y2="130.0" /><line stroke="rgb(0,0,0)" x1="2449.0481999999993" x2="2454.0481999999993" y1="130.0" y2="130.0" /><line stroke="rgb(0,0,0)" x1="2454.0481999999993" x2="2466.9053499999995" y1="130.0" y2="130.0" /><line stroke="rgb(0,0,0)" x1="2466.9053499999995" x2="2486.9053499999995" y1="130.0" y2="130.0" /><line stroke="rgb(0,0,0)" x1="2486.9053499999995" x2="2491.9053499999995" y1="130.0" y2="130.0" /><line stroke="rgb(0,0,0)" x1="2491.9053499999995" x2="2496.9053499999995" y1="130.0" y2="130.0" /><line stroke="rgb(0,0,0)" x1="2496.9053499999995" x2="2516.9053499999995" y1="130.0" y2="130.0" /><line stroke="rgb(0,0,0)" x1="2516.9053499999995" x2="2521.9053499999995" y1="130.0" y2="130.0" /><line stroke="rgb(0,0,0)" x1="2521.9053499999995" x2="2547.210249999999" y1="130.0" y2="130.0" /><line stroke="rgb(0,0,0)" x1="2547.210249999999" x2="2567.210249999999" y1="130.0" y2="130.0" /><line stroke="rgb(0,0,0)" x1="2567.210249999999" x2="2572.210249999999" y1="130.0" y2="130.0" /><line stroke="rgb(0,0,0)" x1="2572.210249999999" x2="2585.2102499999996" y1="130.0" y2="130.0" /><line stroke="rgb(0,0,0)" x1="2585.2102499999996" x2="2605.2102499999996" y1="130.0" y2="130.0" /><line stroke="rgb(0,0,0)" x1="2605.2102499999996" x2="2610.2102499999996" y1="130.0" y2="130.0" /><line stroke="rgb(0,0,0)" x1="2610.2102499999996" x2="2615.2102499999996" y1="130.0" y2="130.0" /><line stroke="rgb(0,0,0)" x1="2615.2102499999996" x2="2635.2102499999996" y1="130.0" y2="130.0" /><line stroke="rgb(0,0,0)" x1="2635.2102499999996" x2="2640.2102499999996" y1="130.0" y2="130.0" /><line stroke="rgb(0,0,0)" x1="2640.2102499999996" x2="2655.2102499999996" y1="130.0" y2="130.0" /><line stroke="rgb(0,0,0)" x1="2655.2102499999996" x2="2675.2102499999996" y1="130.0" y2="130.0" /><line stroke="rgb(0,0,0)" x1="2675.2102499999996" x2="2680.2102499999996" y1="130.0" y2="130.0" /><line stroke="rgb(0,0,0)" x1="2680.2102499999996" x2="2711.2518999999998" y1="130.0" y2="130.0" /><line stroke="rgb(0,0,0)" x1="2711.2518999999998" x2="2731.2518999999998" y1="130.0" y2="130.0" /><line stroke="rgb(0,0,0)" x1="2731.2518999999998" x2="2736.2518999999998" y1="130.0" y2="130.0" /><line stroke="rgb(0,0,0)" x1="2736.2518999999998" x2="2741.2518999999998" y1="130.0" y2="130.0" /><line stroke="rgb(0,0,0)" x1="2741.2518999999998" x2="2761.2518999999998" y1="130.0" y2="130.0" /><line stroke="rgb(0,0,0)" x1="2761.2518999999998" x2="2766.2518999999998" y1="130.0" y2="130.0" /><line stroke="rgb(0,0,0)" x1="2766.2518999999998" x2="2771.2518999999998" y1="130.0" y2="130.0" /><line stroke="rgb(0,0,0)" x1="2771.2518999999998" x2="2791.2518999999998" y1="130.0" y2="55.0" /><line stroke="rgb(0,0,0)" x1="2791.2518999999998" x2="2796.2518999999998" y1="55.0" y2="55.0" /><line stroke="rgb(0,0,0)" x1="2766.2518999999998" x2="2771.2518999999998" y1="130.0" y2="130.0" /><line stroke="rgb(0,0,0)" x1="2771.2518999999998" x2="2791.2518999999998" y1="130.0" y2="205.0" /><line stroke="rgb(0,0,0)" x1="2791.2518999999998" x2="2796.2518999999998" y1="205.0" y2="205.0" /><line stroke="rgb(0,0,0)" x1="2796.2518999999998" x2="2801.2518999999998" y1="55.0" y2="55.0" /><line stroke="rgb(0,0,0)" x1="2801.2518999999998" x2="2821.2518999999998" y1="55.0" y2="130.0" /><line stroke="rgb(0,0,0)" x1="2821.2518999999998" x2="2826.2518999999998" y1="130.0" y2="130.0" /><line stroke="rgb(0,0,0)" x1="2796.2518999999998" x2="2801.2518999999998" y1="205.0" y2="205.0" /><line stroke="rgb(0,0,0)" x1="2801.2518999999998" x2="2821.2518999999998" y1="205.0" y2="130.0" /><line stroke="rgb(0,0,0)" x1="2821.2518999999998" x2="2826.2518999999998" y1="130.0" y2="130.0" /><line stroke="rgb(0,0,0)" x1="2826.2518999999998" x2="2831.2518999999998" y1="130.0" y2="130.0" /><line stroke="rgb(0,0,0)" x1="2831.2518999999998" x2="2851.2518999999998" y1="130.0" y2="130.0" /><line stroke="rgb(0,0,0)" x1="2851.2518999999998" x2="2856.2518999999998" y1="130.0" y2="130.0" /><line stroke="rgb(0,0,0)" x1="2856.2518999999998" x2="2868.7518999999998" y1="130.0" y2="130.0" /><line stroke="rgb(0,0,0)" x1="2868.7518999999998" x2="2888.7518999999998" y1="130.0" y2="130.0" /><line stroke="rgb(0,0,0)" x1="2888.7518999999998" x2="2893.7518999999998" y1="130.0" y2="130.0" /><line stroke="rgb(0,0,0)" x1="2893.7518999999998" x2="2898.7518999999998" y1="130.0" y2="130.0" /><line stroke="rgb(0,0,0)" x1="2898.7518999999998" x2="2918.7518999999998" y1="130.0" y2="130.0" /><line stroke="rgb(0,0,0)" x1="2918.7518999999998" x2="2923.7518999999998" y1="130.0" y2="130.0" /><line stroke="rgb(0,0,0)" x1="2923.7518999999998" x2="2928.7518999999998" y1="130.0" y2="130.0" /><line stroke="rgb(0,0,0)" x1="2928.7518999999998" x2="2948.7518999999998" y1="130.0" y2="130.0" /><line stroke="rgb(0,0,0)" x1="2948.7518999999998" x2="2953.7518999999998" y1="130.0" y2="130.0" /><line stroke="rgb(0,0,0)" x1="2953.7518999999998" x2="2958.7518999999998" y1="130.0" y2="130.0" /><line stroke="rgb(0,0,0)" x1="2958.7518999999998" x2="2978.7518999999998" y1="130.0" y2="130.0" /><line stroke="rgb(0,0,0)" x1="2978.7518999999998" x2="2983.7518999999998" y1="130.0" y2="130.0" /><line stroke="rgb(0,0,0)" x1="2983.7518999999998" x2="2988.7518999999998" y1="130.0" y2="130.0" /><line stroke="rgb(0,0,0)" x1="2988.7518999999998" x2="3008.7518999999998" y1="130.0" y2="55.0" /><line stroke="rgb(0,0,0)" x1="3008.7518999999998" x2="3013.7518999999998" y1="55.0" y2="55.0" /><line stroke="rgb(0,0,0)" x1="2983.7518999999998" x2="2988.7518999999998" y1="130.0" y2="130.0" /><line stroke="rgb(0,0,0)" x1="2988.7518999999998" x2="3008.7518999999998" y1="130.0" y2="205.0" /><line stroke="rgb(0,0,0)" x1="3008.7518999999998" x2="3013.7518999999998" y1="205.0" y2="205.0" /><line stroke="rgb(0,0,0)" x1="3013.7518999999998" x2="3018.7518999999998" y1="205.0" y2="205.0" /><line stroke="rgb(0,0,0)" x1="3018.7518999999998" x2="3038.7518999999998" y1="205.0" y2="130.0" /><line stroke="rgb(0,0,0)" x1="3038.7518999999998" x2="3043.7518999999998" y1="130.0" y2="130.0" /><line stroke="rgb(0,0,0)" x1="3043.7518999999998" x2="3048.7518999999998" y1="130.0" y2="130.0" /><line stroke="rgb(0,0,0)" x1="3048.7518999999998" x2="3068.7518999999998" y1="130.0" y2="130.0" /><line stroke="rgb(0,0,0)" x1="3068.7518999999998" x2="3073.7518999999998" y1="130.0" y2="130.0" /><line stroke="rgb(0,0,0)" x1="3073.7518999999998" x2="3078.7518999999998" y1="130.0" y2="130.0" /><line stroke="rgb(0,0,0)" x1="3078.7518999999998" x2="3098.7518999999998" y1="130.0" y2="130.0" /><line stroke="rgb(0,0,0)" x1="3098.7518999999998" x2="3103.7518999999998" y1="130.0" y2="130.0" /><line stroke="rgb(0,0,0)" x1="3013.7518999999998" x2="3018.7518999999998" y1="55.0" y2="55.0" /><line stroke="rgb(0,0,0)" x1="3018.7518999999998" x2="3098.7518999999998" y1="55.0" y2="130.0" /><line stroke="rgb(0,0,0)" x1="3098.7518999999998" x2="3103.7518999999998" y1="130.0" y2="130.0" /><line stroke="rgb(0,0,0)" x1="3103.7518999999998" x2="3108.7518999999998" y1="130.0" y2="130.0" /><line stroke="rgb(0,0,0)" x1="3108.7518999999998" x2="3128.7518999999998" y1="130.0" y2="130.0" /><line stroke="rgb(0,0,0)" x1="3128.7518999999998" x2="3133.7518999999998" y1="130.0" y2="130.0" /><line stroke="rgb(0,0,0)" x1="3133.7518999999998" x2="3138.7518999999998" y1="130.0" y2="130.0" /><line stroke="rgb(0,0,0)" x1="3138.7518999999998" x2="3158.7518999999998" y1="130.0" y2="130.0" /><line stroke="rgb(0,0,0)" x1="3158.7518999999998" x2="3163.7518999999998" y1="130.0" y2="130.0" /><line stroke="rgb(0,0,0)" x1="3163.7518999999998" x2="3168.7518999999998" y1="130.0" y2="130.0" /><line stroke="rgb(0,0,0)" x1="3168.7518999999998" x2="3188.7518999999998" y1="130.0" y2="130.0" /><line stroke="rgb(0,0,0)" x1="3188.7518999999998" x2="3193.7518999999998" y1="130.0" y2="130.0" /><line stroke="rgb(0,0,0)" x1="3193.7518999999998" x2="3198.7518999999998" y1="130.0" y2="130.0" /><line stroke="rgb(0,0,0)" x1="3198.7518999999998" x2="3218.7518999999998" y1="130.0" y2="130.0" /><line stroke="rgb(0,0,0)" x1="3218.7518999999998" x2="3223.7518999999998" y1="130.0" y2="130.0" /><line stroke="rgb(0,0,0)" x1="3223.7518999999998" x2="3228.7518999999998" y1="130.0" y2="130.0" /><line stroke="rgb(0,0,0)" x1="3228.7518999999998" x2="3248.7518999999998" y1="130.0" y2="130.0" /><line stroke="rgb(0,0,0)" x1="3248.7518999999998" x2="3253.7518999999998" y1="130.0" y2="130.0" /><line stroke="rgb(0,0,0)" x1="3253.7518999999998" x2="3258.7518999999998" y1="130.0" y2="130.0" /><line stroke="rgb(0,0,0)" x1="3258.7518999999998" x2="3278.7518999999998" y1="130.0" y2="55.0" /><line stroke="rgb(0,0,0)" x1="3278.7518999999998" x2="3283.7518999999998" y1="55.0" y2="55.0" /><line stroke="rgb(0,0,0)" x1="3253.7518999999998" x2="3258.7518999999998" y1="130.0" y2="130.0" /><line stroke="rgb(0,0,0)" x1="3258.7518999999998" x2="3278.7518999999998" y1="130.0" y2="205.0" /><line stroke="rgb(0,0,0)" x1="3278.7518999999998" x2="3283.7518999999998" y1="205.0" y2="205.0" /><line stroke="rgb(0,0,0)" x1="3283.7518999999998" x2="3288.7518999999998" y1="55.0" y2="55.0" /><line stroke="rgb(0,0,0)" x1="3288.7518999999998" x2="3308.7518999999998" y1="55.0" y2="130.0" /><line stroke="rgb(0,0,0)" x1="3308.7518999999998" x2="3313.7518999999998" y1="130.0" y2="130.0" /><line stroke="rgb(0,0,0)" x1="3283.7518999999998" x2="3288.7518999999998" y1="205.0" y2="205.0" /><line stroke="rgb(0,0,0)" x1="3288.7518999999998" x2="3308.7518999999998" y1="205.0" y2="130.0" /><line stroke="rgb(0,0,0)" x1="3308.7518999999998" x2="3313.7518999999998" y1="130.0" y2="130.0" /><line stroke="rgb(0,0,0)" x1="3313.7518999999998" x2="3318.7518999999998" y1="130.0" y2="130.0" /><line stroke="rgb(0,0,0)" x1="3318.7518999999998" x2="3338.7518999999998" y1="130.0" y2="130.0" /><line stroke="rgb(0,0,0)" x1="3338.7518999999998" x2="3343.7518999999998" y1="130.0" y2="130.0" /><line stroke="rgb(0,0,0)" x1="3343.7518999999998" x2="3348.7518999999998" y1="130.0" y2="130.0" /><line stroke="rgb(0,0,0)" x1="3348.7518999999998" x2="3368.7518999999998" y1="130.0" y2="130.0" /><line stroke="rgb(0,0,0)" x1="3368.7518999999998" x2="3373.7518999999998" y1="130.0" y2="130.0" /><line stroke="rgb(0,0,0)" x1="3373.7518999999998" x2="3398.7518999999998" y1="130.0" y2="130.0" /><line stroke="rgb(0,0,0)" x1="3398.7518999999998" x2="3418.7518999999998" y1="130.0" y2="130.0" /><line stroke="rgb(0,0,0)" x1="3418.7518999999998" x2="3423.7518999999998" y1="130.0" y2="130.0" /><line stroke="rgb(0,0,0)" x1="3423.7518999999998" x2="3428.7518999999998" y1="130.0" y2="130.0" /><line stroke="rgb(0,0,0)" x1="3428.7518999999998" x2="3448.7518999999998" y1="130.0" y2="130.0" /><line stroke="rgb(0,0,0)" x1="3448.7518999999998" x2="3453.7518999999998" y1="130.0" y2="130.0" /><line stroke="rgb(0,0,0)" x1="3453.7518999999998" x2="3463.7518999999998" y1="130.0" y2="130.0" /><line stroke="rgb(0,0,0)" x1="3463.7518999999998" x2="3483.7518999999998" y1="130.0" y2="55.0" /><line stroke="rgb(0,0,0)" x1="3483.7518999999998" x2="3488.7518999999998" y1="55.0" y2="55.0" /><line stroke="rgb(0,0,0)" x1="3453.7518999999998" x2="3463.7518999999998" y1="130.0" y2="130.0" /><line stroke="rgb(0,0,0)" x1="3463.7518999999998" x2="3483.7518999999998" y1="130.0" y2="205.0" /><line stroke="rgb(0,0,0)" x1="3483.7518999999998" x2="3488.7518999999998" y1="205.0" y2="205.0" /><line stroke="rgb(0,0,0)" x1="3488.7518999999998" x2="3501.2518999999998" y1="55.0" y2="55.0" /><line stroke="rgb(0,0,0)" x1="3501.2518999999998" x2="3535.675" y1="55.0" y2="130.0" /><line stroke="rgb(0,0,0)" x1="3535.675" x2="3540.675" y1="130.0" y2="130.0" /><line stroke="rgb(0,0,0)" x1="3540.675" x2="3550.9131" y1="130.0" y2="130.0" /><line stroke="rgb(0,0,0)" x1="3550.9131" x2="3570.9131" y1="130.0" y2="130.0" /><line stroke="rgb(0,0,0)" x1="3570.9131" x2="3575.9131" y1="130.0" y2="130.0" /><line stroke="rgb(0,0,0)" x1="3488.7518999999998" x2="3515.675" y1="205.0" y2="205.0" /><line stroke="rgb(0,0,0)" x1="3515.675" x2="3570.9131" y1="205.0" y2="130.0" /><line stroke="rgb(0,0,0)" x1="3570.9131" x2="3575.9131" y1="130.0" y2="130.0" /><line stroke="rgb(0,0,0)" x1="3575.9131" x2="3596.0916500000003" y1="130.0" y2="130.0" /><line stroke="rgb(0,0,0)" x1="3596.0916500000003" x2="3616.0916500000003" y1="130.0" y2="130.0" /><line stroke="rgb(0,0,0)" x1="3616.0916500000003" x2="3621.0916500000003" y1="130.0" y2="130.0" /><line stroke="rgb(0,0,0)" x1="3621.0916500000003" x2="3716.37315" y1="130.0" y2="130.0" /><line stroke="rgb(0,0,0)" x1="3716.37315" x2="3736.37315" y1="130.0" y2="130.0" /><line stroke="rgb(0,0,0)" x1="3736.37315" x2="3741.37315" y1="130.0" y2="130.0" /><line stroke="rgb(0,0,0)" x1="3741.37315" x2="3775.2192999999997" y1="130.0" y2="130.0" /><line stroke="rgb(0,0,0)" x1="3775.2192999999997" x2="3795.2192999999997" y1="130.0" y2="130.0" /><line stroke="rgb(0,0,0)" x1="3795.2192999999997" x2="3800.2192999999997" y1="130.0" y2="130.0" /><line stroke="rgb(0,0,0)" x1="3800.2192999999997" x2="3810.2192999999997" y1="130.0" y2="130.0" /><line stroke="rgb(0,0,0)" x1="3810.2192999999997" x2="3830.2192999999997" y1="130.0" y2="130.0" /><line stroke="rgb(0,0,0)" x1="3830.2192999999997" x2="3835.2192999999997" y1="130.0" y2="130.0" /><line stroke="rgb(0,0,0)" x1="3835.2192999999997" x2="3857.0942999999997" y1="130.0" y2="130.0" /><line stroke="rgb(0,0,0)" x1="3857.0942999999997" x2="3877.0942999999997" y1="130.0" y2="130.0" /><line stroke="rgb(0,0,0)" x1="3877.0942999999997" x2="3882.0942999999997" y1="130.0" y2="130.0" /><line stroke="rgb(0,0,0)" x1="3882.0942999999997" x2="3911.2167499999996" y1="130.0" y2="130.0" /><line stroke="rgb(0,0,0)" x1="3911.2167499999996" x2="3931.2167499999996" y1="130.0" y2="130.0" /><line stroke="rgb(0,0,0)" x1="3931.2167499999996" x2="3936.2167499999996" y1="130.0" y2="130.0" /><line stroke="rgb(0,0,0)" x1="3936.2167499999996" x2="3956.2167499999996" y1="130.0" y2="130.0" /><line stroke="rgb(0,0,0)" x1="3956.2167499999996" x2="3976.2167499999996" y1="130.0" y2="130.0" /><line stroke="rgb(0,0,0)" x1="3976.2167499999996" x2="3981.2167499999996" y1="130.0" y2="130.0" /><line stroke="rgb(0,0,0)" x1="3981.2167499999996" x2="4007.8116" y1="130.0" y2="130.0" /><line stroke="rgb(0,0,0)" x1="4007.8116" x2="4027.8116" y1="130.0" y2="130.0" /><line stroke="rgb(0,0,0)" x1="4027.8116" x2="4032.8116" y1="130.0" y2="130.0" /><line stroke="rgb(0,0,0)" x1="4032.8116" x2="4042.8116" y1="130.0" y2="130.0" /><line stroke="rgb(0,0,0)" x1="4042.8116" x2="4062.8116" y1="130.0" y2="130.0" /><line stroke="rgb(0,0,0)" x1="4062.8116" x2="4067.8116" y1="130.0" y2="130.0" /><line stroke="rgb(0,0,0)" x1="4067.8116" x2="4090.5894" y1="130.0" y2="130.0" /><line stroke="rgb(0,0,0)" x1="4090.5894" x2="4110.5894" y1="130.0" y2="130.0" /><line stroke="rgb(0,0,0)" x1="4110.5894" x2="4115.5894" y1="130.0" y2="130.0" /><line stroke="rgb(0,0,0)" x1="4115.5894" x2="4120.5894" y1="130.0" y2="130.0" /><line stroke="rgb(0,0,0)" x1="4120.5894" x2="4140.5894" y1="130.0" y2="55.0" /><line stroke="rgb(0,0,0)" x1="4140.5894" x2="4145.5894" y1="55.0" y2="55.0" /><line stroke="rgb(0,0,0)" x1="4115.5894" x2="4120.5894" y1="130.0" y2="130.0" /><line stroke="rgb(0,0,0)" x1="4120.5894" x2="4140.5894" y1="130.0" y2="205.0" /><line stroke="rgb(0,0,0)" x1="4140.5894" x2="4145.5894" y1="205.0" y2="205.0" /><line stroke="rgb(0,0,0)" x1="4145.5894" x2="4150.5894" y1="55.0" y2="55.0" /><line stroke="rgb(0,0,0)" x1="4150.5894" x2="4170.5894" y1="55.0" y2="130.0" /><line stroke="rgb(0,0,0)" x1="4170.5894" x2="4175.5894" y1="130.0" y2="130.0" /><line stroke="rgb(0,0,0)" x1="4145.5894" x2="4150.5894" y1="205.0" y2="205.0" /><line stroke="rgb(0,0,0)" x1="4150.5894" x2="4170.5894" y1="205.0" y2="130.0" /><line stroke="rgb(0,0,0)" x1="4170.5894" x2="4175.5894" y1="130.0" y2="130.0" /><line stroke="rgb(0,0,0)" x1="4175.5894" x2="4180.5894" y1="130.0" y2="130.0" /><line stroke="rgb(0,0,0)" x1="4180.5894" x2="4200.5894" y1="130.0" y2="130.0" /><line stroke="rgb(0,0,0)" x1="4200.5894" x2="4205.5894" y1="130.0" y2="130.0" /><line stroke="rgb(0,0,0)" x1="4205.5894" x2="4210.5894" y1="130.0" y2="130.0" /><line stroke="rgb(0,0,0)" x1="4210.5894" x2="4230.5894" y1="130.0" y2="130.0" /><line stroke="rgb(0,0,0)" x1="4230.5894" x2="4235.5894" y1="130.0" y2="130.0" /><line stroke="rgb(0,0,0)" x1="4235.5894" x2="4240.5894" y1="130.0" y2="130.0" /><line stroke="rgb(0,0,0)" x1="4240.5894" x2="4260.5894" y1="130.0" y2="130.0" /><line stroke="rgb(0,0,0)" x1="4260.5894" x2="4265.5894" y1="130.0" y2="130.0" /><line stroke="rgb(0,0,0)" x1="4265.5894" x2="4270.5894" y1="130.0" y2="130.0" /><line stroke="rgb(0,0,0)" x1="4270.5894" x2="4290.5894" y1="130.0" y2="130.0" /><line stroke="rgb(0,0,0)" x1="4290.5894" x2="4295.5894" y1="130.0" y2="130.0" /><line stroke="rgb(0,0,0)" x1="4295.5894" x2="4300.5894" y1="130.0" y2="130.0" /><line stroke="rgb(0,0,0)" x1="4300.5894" x2="4320.5894" y1="130.0" y2="130.0" /><line stroke="rgb(0,0,0)" x1="4320.5894" x2="4325.5894" y1="130.0" y2="130.0" /><line stroke="rgb(0,0,0)" x1="4325.5894" x2="4330.5894" y1="130.0" y2="130.0" /><line stroke="rgb(0,0,0)" x1="4330.5894" x2="4350.5894" y1="130.0" y2="130.0" /><line stroke="rgb(0,0,0)" x1="4350.5894" x2="4355.5894" y1="130.0" y2="130.0" /><line stroke="rgb(0,0,0)" x1="4355.5894" x2="4360.5894" y1="130.0" y2="130.0" /><line stroke="rgb(0,0,0)" x1="4360.5894" x2="4380.5894" y1="130.0" y2="130.0" /><line stroke="rgb(0,0,0)" x1="4380.5894" x2="4385.5894" y1="130.0" y2="130.0" /><line stroke="rgb(0,0,0)" x1="4385.5894" x2="4396.2144" y1="130.0" y2="130.0" /><line stroke="rgb(0,0,0)" x1="4396.2144" x2="4416.2144" y1="130.0" y2="130.0" /><line stroke="rgb(0,0,0)" x1="4416.2144" x2="4421.2144" y1="130.0" y2="130.0" /><line stroke="rgb(0,0,0)" x1="4421.2144" x2="4441.2144" y1="130.0" y2="130.0" /><line stroke="rgb(0,0,0)" x1="4441.2144" x2="4461.2144" y1="130.0" y2="130.0" /><line stroke="rgb(0,0,0)" x1="4461.2144" x2="4466.2144" y1="130.0" y2="130.0" /><line stroke="rgb(0,0,0)" x1="4466.2144" x2="4478.11915" y1="130.0" y2="130.0" /><line stroke="rgb(0,0,0)" x1="4478.11915" x2="4498.11915" y1="130.0" y2="130.0" /><line stroke="rgb(0,0,0)" x1="4498.11915" x2="4503.11915" y1="130.0" y2="130.0" /><line stroke="rgb(0,0,0)" x1="4503.11915" x2="4508.11915" y1="130.0" y2="130.0" /><line stroke="rgb(0,0,0)" x1="4508.11915" x2="4528.11915" y1="130.0" y2="130.0" /><line stroke="rgb(0,0,0)" x1="4528.11915" x2="4533.11915" y1="130.0" y2="130.0" /><line stroke="rgb(0,0,0)" x1="4533.11915" x2="4538.11915" y1="130.0" y2="130.0" /><line stroke="rgb(0,0,0)" x1="4538.11915" x2="4558.11915" y1="130.0" y2="130.0" /><line stroke="rgb(0,0,0)" x1="4558.11915" x2="4563.11915" y1="130.0" y2="130.0" /><line stroke="rgb(0,0,0)" x1="4563.11915" x2="4568.11915" y1="130.0" y2="130.0" /><line stroke="rgb(0,0,0)" x1="4568.11915" x2="4588.11915" y1="130.0" y2="130.0" /><line stroke="rgb(0,0,0)" x1="4588.11915" x2="4593.11915" y1="130.0" y2="130.0" /><line stroke="rgb(0,0,0)" x1="4593.11915" x2="4615.82405" y1="130.0" y2="130.0" /><line stroke="rgb(0,0,0)" x1="4615.82405" x2="4635.82405" y1="130.0" y2="130.0" /><line stroke="rgb(0,0,0)" x1="4635.82405" x2="4640.82405" y1="130.0" y2="130.0" /><line stroke="rgb(0,0,0)" x1="4640.82405" x2="4650.82405" y1="130.0" y2="130.0" /><line stroke="rgb(0,0,0)" x1="4650.82405" x2="4670.82405" y1="130.0" y2="130.0" /><line stroke="rgb(0,0,0)" x1="4670.82405" x2="4675.82405" y1="130.0" y2="130.0" /><line stroke="rgb(0,0,0)" x1="4675.82405" x2="4761.68405" y1="130.0" y2="130.0" /><line stroke="rgb(0,0,0)" x1="4761.68405" x2="4781.68405" y1="130.0" y2="130.0" /><line stroke="rgb(0,0,0)" x1="4781.68405" x2="4786.68405" y1="130.0" y2="130.0" /><line stroke="rgb(0,0,0)" x1="4786.68405" x2="4822.68405" y1="130.0" y2="130.0" /><line stroke="rgb(0,0,0)" x1="4822.68405" x2="4842.68405" y1="130.0" y2="130.0" /><line stroke="rgb(0,0,0)" x1="4842.68405" x2="4847.68405" y1="130.0" y2="130.0" /><line stroke="rgb(0,0,0)" x1="4847.68405" x2="4880.684050000001" y1="130.0" y2="130.0" /><line stroke="rgb(0,0,0)" x1="4880.684050000001" x2="4900.684050000001" y1="130.0" y2="130.0" /><line stroke="rgb(0,0,0)" x1="4900.684050000001" x2="4905.684050000001" y1="130.0" y2="130.0" /><line stroke="rgb(0,0,0)" x1="4905.684050000001" x2="4928.05245" y1="130.0" y2="130.0" /><line stroke="rgb(0,0,0)" x1="4928.05245" x2="4948.05245" y1="130.0" y2="130.0" /><line stroke="rgb(0,0,0)" x1="4948.05245" x2="4953.05245" y1="130.0" y2="130.0" /><line stroke="rgb(0,0,0)" x1="4953.05245" x2="4978.05245" y1="130.0" y2="130.0" /><line stroke="rgb(0,0,0)" x1="4978.05245" x2="4998.05245" y1="130.0" y2="130.0" /><line stroke="rgb(0,0,0)" x1="4998.05245" x2="5003.05245" y1="130.0" y2="130.0" /><line stroke="rgb(0,0,0)" x1="5003.05245" x2="5031.52805" y1="130.0" y2="130.0" /><line stroke="rgb(0,0,0)" x1="5031.52805" x2="5051.52805" y1="130.0" y2="130.0" /><line stroke="rgb(0,0,0)" x1="5051.52805" x2="5056.52805" y1="130.0" y2="130.0" /><line stroke="rgb(0,0,0)" x1="5056.52805" x2="5075.27805" y1="130.0" y2="130.0" /><line stroke="rgb(0,0,0)" x1="5075.27805" x2="5095.27805" y1="130.0" y2="130.0" /><line stroke="rgb(0,0,0)" x1="5095.27805" x2="5100.27805" y1="130.0" y2="130.0" /><line stroke="rgb(0,0,0)" x1="5100.27805" x2="5131.16935" y1="130.0" y2="130.0" /><line stroke="rgb(0,0,0)" x1="5131.16935" x2="5151.16935" y1="130.0" y2="130.0" /><line stroke="rgb(0,0,0)" x1="5151.16935" x2="5156.16935" y1="130.0" y2="130.0" /><line stroke="rgb(0,0,0)" x1="5156.16935" x2="5167.8966" y1="130.0" y2="130.0" /><line stroke="rgb(0,0,0)" x1="5167.8966" x2="5187.8966" y1="130.0" y2="130.0" /><line stroke="rgb(0,0,0)" x1="5187.8966" x2="5192.8966" y1="130.0" y2="130.0" /><line stroke="rgb(0,0,0)" x1="5192.8966" x2="5216.8966" y1="130.0" y2="130.0" /><line stroke="rgb(0,0,0)" x1="5216.8966" x2="5236.8966" y1="130.0" y2="130.0" /><line stroke="rgb(0,0,0)" x1="5236.8966" x2="5241.8966" y1="130.0" y2="130.0" /><line stroke="rgb(0,0,0)" x1="5241.8966" x2="5270.7855" y1="130.0" y2="130.0" /><line stroke="rgb(0,0,0)" x1="5270.7855" x2="5290.7855" y1="130.0" y2="130.0" /><line stroke="rgb(0,0,0)" x1="5290.7855" x2="5295.7855" y1="130.0" y2="130.0" /><line stroke="rgb(0,0,0)" x1="5295.7855" x2="5317.7855" y1="130.0" y2="130.0" /><line stroke="rgb(0,0,0)" x1="5317.7855" x2="5337.7855" y1="130.0" y2="130.0" /><line stroke="rgb(0,0,0)" x1="5337.7855" x2="5342.7855" y1="130.0" y2="130.0" /><line stroke="rgb(0,0,0)" x1="5342.7855" x2="5383.0236" y1="130.0" y2="130.0" /><line stroke="rgb(0,0,0)" x1="5383.0236" x2="5403.0236" y1="130.0" y2="130.0" /><line stroke="rgb(0,0,0)" x1="5403.0236" x2="5408.0236" y1="130.0" y2="130.0" /><line stroke="rgb(0,0,0)" x1="5408.0236" x2="5413.0236" y1="130.0" y2="130.0" /><line stroke="rgb(0,0,0)" x1="5413.0236" x2="5433.0236" y1="130.0" y2="130.0" /><line stroke="rgb(0,0,0)" x1="5433.0236" x2="5438.0236" y1="130.0" y2="130.0" /><line stroke="rgb(0,0,0)" x1="5438.0236" x2="5467.639" y1="130.0" y2="130.0" /><line stroke="rgb(0,0,0)" x1="5467.639" x2="5487.639" y1="130.0" y2="130.0" /><line stroke="rgb(0,0,0)" x1="5487.639" x2="5492.639" y1="130.0" y2="130.0" /><line stroke="rgb(0,0,0)" x1="5492.639" x2="5497.639" y1="130.0" y2="130.0" /><line stroke="rgb(0,0,0)" x1="5497.639" x2="5517.639" y1="130.0" y2="130.0" /><line stroke="rgb(0,0,0)" x1="5517.639" x2="5522.639" y1="130.0" y2="130.0" /><line stroke="rgb(0,0,0)" x1="5522.639" x2="5579.852000000001" y1="130.0" y2="130.0" /><line stroke="rgb(0,0,0)" x1="5579.852000000001" x2="5599.852000000001" y1="130.0" y2="130.0" /><line stroke="rgb(0,0,0)" x1="5599.852000000001" x2="5604.852000000001" y1="130.0" y2="130.0" /><line stroke="rgb(0,0,0)" x1="5604.852000000001" x2="5624.852000000001" y1="130.0" y2="130.0" /><line stroke="rgb(0,0,0)" x1="5624.852000000001" x2="5644.852000000001" y1="130.0" y2="130.0" /><line stroke="rgb(0,0,0)" x1="5644.852000000001" x2="5649.852000000001" y1="130.0" y2="130.0" /><line stroke="rgb(0,0,0)" x1="5649.852000000001" x2="5661.694100000001" y1="130.0" y2="130.0" /><line stroke="rgb(0,0,0)" x1="5661.694100000001" x2="5681.694100000001" y1="130.0" y2="130.0" /><line stroke="rgb(0,0,0)" x1="5681.694100000001" x2="5686.694100000001" y1="130.0" y2="130.0" /><line stroke="rgb(0,0,0)" x1="5686.694100000001" x2="5715.600350000001" y1="130.0" y2="130.0" /><line stroke="rgb(0,0,0)" x1="5715.600350000001" x2="5735.600350000001" y1="130.0" y2="130.0" /><line stroke="rgb(0,0,0)" x1="5735.600350000001" x2="5740.600350000001" y1="130.0" y2="130.0" /><line stroke="rgb(0,0,0)" x1="5740.600350000001" x2="5745.600350000001" y1="130.0" y2="130.0" /><line stroke="rgb(0,0,0)" x1="5745.600350000001" x2="5765.600350000001" y1="130.0" y2="130.0" /><line stroke="rgb(0,0,0)" x1="5765.600350000001" x2="5770.600350000001" y1="130.0" y2="130.0" /><line stroke="rgb(0,0,0)" x1="5770.600350000001" x2="5802.6003500000015" y1="130.0" y2="130.0" /><line stroke="rgb(0,0,0)" x1="5802.6003500000015" x2="5822.6003500000015" y1="130.0" y2="130.0" /><line stroke="rgb(0,0,0)" x1="5822.6003500000015" x2="5827.6003500000015" y1="130.0" y2="130.0" /><line stroke="rgb(0,0,0)" x1="5827.6003500000015" x2="5832.6003500000015" y1="130.0" y2="130.0" /><line stroke="rgb(0,0,0)" x1="5832.6003500000015" x2="5852.6003500000015" y1="130.0" y2="130.0" /><line stroke="rgb(0,0,0)" x1="5852.6003500000015" x2="5857.6003500000015" y1="130.0" y2="130.0" /><line stroke="rgb(0,0,0)" x1="5857.6003500000015" x2="5862.6003500000015" y1="130.0" y2="130.0" /><line stroke="rgb(0,0,0)" x1="5862.6003500000015" x2="5882.6003500000015" y1="130.0" y2="130.0" /><line stroke="rgb(0,0,0)" x1="5882.6003500000015" x2="5887.6003500000015" y1="130.0" y2="130.0" /><line stroke="rgb(0,0,0)" x1="5887.6003500000015" x2="5963.319850000002" y1="130.0" y2="130.0" /><line stroke="rgb(0,0,0)" x1="5963.319850000002" x2="5983.319850000002" y1="130.0" y2="130.0" /><line stroke="rgb(0,0,0)" x1="5983.319850000002" x2="5988.319850000002" y1="130.0" y2="130.0" /><line stroke="rgb(0,0,0)" x1="5988.319850000002" x2="6000.819850000002" y1="130.0" y2="130.0" /><line stroke="rgb(0,0,0)" x1="6000.819850000002" x2="6020.819850000002" y1="130.0" y2="130.0" /><line stroke="rgb(0,0,0)" x1="6020.819850000002" x2="6025.819850000002" y1="130.0" y2="130.0" /><line stroke="rgb(0,0,0)" x1="6025.819850000002" x2="6117.486350000001" y1="130.0" y2="130.0" /><line stroke="rgb(0,0,0)" x1="6117.486350000001" x2="6137.486350000001" y1="130.0" y2="130.0" /><line stroke="rgb(0,0,0)" x1="6137.486350000001" x2="6142.486350000001" y1="130.0" y2="130.0" /><line stroke="rgb(0,0,0)" x1="6142.486350000001" x2="6162.486350000001" y1="130.0" y2="130.0" /><line stroke="rgb(0,0,0)" x1="6162.486350000001" x2="6182.486350000001" y1="130.0" y2="130.0" /><line stroke="rgb(0,0,0)" x1="6182.486350000001" x2="6187.486350000001" y1="130.0" y2="130.0" /><line stroke="rgb(0,0,0)" x1="6187.486350000001" x2="6309.986350000001" y1="130.0" y2="130.0" /><line stroke="rgb(0,0,0)" x1="6309.986350000001" x2="6329.986350000001" y1="130.0" y2="130.0" /><line stroke="rgb(0,0,0)" x1="6329.986350000001" x2="6334.986350000001" y1="130.0" y2="130.0" /><line stroke="rgb(0,0,0)" x1="6334.986350000001" x2="6359.986350000001" y1="130.0" y2="130.0" /><line stroke="rgb(0,0,0)" x1="6359.986350000001" x2="6379.986350000001" y1="130.0" y2="130.0" /><line stroke="rgb(0,0,0)" x1="6379.986350000001" x2="6384.986350000001" y1="130.0" y2="130.0" /><line stroke="rgb(0,0,0)" x1="6384.986350000001" x2="6432.486350000001" y1="130.0" y2="130.0" /><line stroke="rgb(0,0,0)" x1="6432.486350000001" x2="6452.486350000001" y1="130.0" y2="130.0" /><line stroke="rgb(0,0,0)" x1="6452.486350000001" x2="6457.486350000001" y1="130.0" y2="130.0" /><line stroke="rgb(0,0,0)" x1="6457.486350000001" x2="6479.535550000001" y1="130.0" y2="130.0" /><line stroke="rgb(0,0,0)" x1="6479.535550000001" x2="6499.535550000001" y1="130.0" y2="130.0" /><line stroke="rgb(0,0,0)" x1="6499.535550000001" x2="6504.535550000001" y1="130.0" y2="130.0" /><line stroke="rgb(0,0,0)" x1="6504.535550000001" x2="6517.535550000001" y1="130.0" y2="130.0" /><line stroke="rgb(0,0,0)" x1="6517.535550000001" x2="6537.535550000001" y1="130.0" y2="130.0" /><line stroke="rgb(0,0,0)" x1="6537.535550000001" x2="6542.535550000001" y1="130.0" y2="130.0" /><line stroke="rgb(0,0,0)" x1="6542.535550000001" x2="6564.808300000001" y1="130.0" y2="130.0" /><line stroke="rgb(0,0,0)" x1="6564.808300000001" x2="6584.808300000001" y1="130.0" y2="130.0" /><line stroke="rgb(0,0,0)" x1="6584.808300000001" x2="6589.808300000001" y1="130.0" y2="130.0" /><line stroke="rgb(0,0,0)" x1="6589.808300000001" x2="6616.4469500000005" y1="130.0" y2="130.0" /><line stroke="rgb(0,0,0)" x1="6616.4469500000005" x2="6636.4469500000005" y1="130.0" y2="55.0" /><line stroke="rgb(0,0,0)" x1="6636.4469500000005" x2="6641.4469500000005" y1="55.0" y2="55.0" /><line stroke="rgb(0,0,0)" x1="6589.808300000001" x2="6616.4469500000005" y1="130.0" y2="130.0" /><line stroke="rgb(0,0,0)" x1="6616.4469500000005" x2="6636.4469500000005" y1="130.0" y2="205.0" /><line stroke="rgb(0,0,0)" x1="6636.4469500000005" x2="6641.4469500000005" y1="205.0" y2="205.0" /><line stroke="rgb(0,0,0)" x1="6641.4469500000005" x2="6667.4252" y1="55.0" y2="55.0" /><line stroke="rgb(0,0,0)" x1="6667.4252" x2="6687.4252" y1="55.0" y2="130.0" /><line stroke="rgb(0,0,0)" x1="6687.4252" x2="6692.4252" y1="130.0" y2="130.0" /><line stroke="rgb(0,0,0)" x1="6692.4252" x2="6726.7109" y1="130.0" y2="130.0" /><line stroke="rgb(0,0,0)" x1="6726.7109" x2="6746.7109" y1="130.0" y2="130.0" /><line stroke="rgb(0,0,0)" x1="6746.7109" x2="6751.7109" y1="130.0" y2="130.0" /><line stroke="rgb(0,0,0)" x1="6641.4469500000005" x2="6657.875500000001" y1="205.0" y2="205.0" /><line stroke="rgb(0,0,0)" x1="6657.875500000001" x2="6746.7109" y1="205.0" y2="130.0" /><line stroke="rgb(0,0,0)" x1="6746.7109" x2="6751.7109" y1="130.0" y2="130.0" /><line stroke="rgb(0,0,0)" x1="6751.7109" x2="6807.8219" y1="130.0" y2="130.0" /><line stroke="rgb(0,0,0)" x1="6807.8219" x2="6827.8219" y1="130.0" y2="130.0" /><line stroke="rgb(0,0,0)" x1="6827.8219" x2="6832.8219" y1="130.0" y2="130.0" /><line stroke="rgb(0,0,0)" x1="6832.8219" x2="6874.821900000001" y1="130.0" y2="130.0" /><line stroke="rgb(0,0,0)" x1="6874.821900000001" x2="6894.821900000001" y1="130.0" y2="130.0" /><line stroke="rgb(0,0,0)" x1="6894.821900000001" x2="6899.821900000001" y1="130.0" y2="130.0" /><line stroke="rgb(0,0,0)" x1="6899.821900000001" x2="6987.678900000001" y1="130.0" y2="130.0" /><line stroke="rgb(0,0,0)" x1="6987.678900000001" x2="7007.678900000001" y1="130.0" y2="130.0" /><line stroke="rgb(0,0,0)" x1="7007.678900000001" x2="7012.678900000001" y1="130.0" y2="130.0" /><line stroke="rgb(0,0,0)" x1="7012.678900000001" x2="7047.678900000001" y1="130.0" y2="130.0" /><line stroke="rgb(0,0,0)" x1="7047.678900000001" x2="7067.678900000001" y1="130.0" y2="130.0" /><line stroke="rgb(0,0,0)" x1="7067.678900000001" x2="7072.678900000001" y1="130.0" y2="130.0" /><line stroke="rgb(0,0,0)" x1="7072.678900000001" x2="7077.678900000001" y1="130.0" y2="130.0" /><line stroke="rgb(0,0,0)" x1="7077.678900000001" x2="7097.678900000001" y1="130.0" y2="130.0" /><line stroke="rgb(0,0,0)" x1="7097.678900000001" x2="7102.678900000001" y1="130.0" y2="130.0" /><line stroke="rgb(0,0,0)" x1="7102.678900000001" x2="7116.012250000002" y1="130.0" y2="130.0" /><line stroke="rgb(0,0,0)" x1="7116.012250000002" x2="7136.012250000002" y1="130.0" y2="130.0" /><line stroke="rgb(0,0,0)" x1="7136.012250000002" x2="7141.012250000002" y1="130.0" y2="130.0" /><line stroke="rgb(0,0,0)" x1="7141.012250000002" x2="7146.012250000002" y1="130.0" y2="130.0" /><line stroke="rgb(0,0,0)" x1="7146.012250000002" x2="7166.012250000002" y1="130.0" y2="130.0" /><line stroke="rgb(0,0,0)" x1="7166.012250000002" x2="7171.012250000002" y1="130.0" y2="130.0" /><line stroke="rgb(0,0,0)" x1="7171.012250000002" x2="7191.012250000002" y1="130.0" y2="130.0" /><line stroke="rgb(0,0,0)" x1="7191.012250000002" x2="7211.012250000002" y1="130.0" y2="130.0" /><line stroke="rgb(0,0,0)" x1="7211.012250000002" x2="7216.012250000002" y1="130.0" y2="130.0" /><line stroke="rgb(0,0,0)" x1="7216.012250000002" x2="7236.012250000002" y1="130.0" y2="130.0" /><line stroke="rgb(0,0,0)" x1="7236.012250000002" x2="7256.012250000002" y1="130.0" y2="130.0" /><line stroke="rgb(0,0,0)" x1="7256.012250000002" x2="7261.012250000002" y1="130.0" y2="130.0" /><line stroke="rgb(0,0,0)" x1="7261.012250000002" x2="7298.512250000002" y1="130.0" y2="130.0" /><line stroke="rgb(0,0,0)" x1="7298.512250000002" x2="7318.512250000002" y1="130.0" y2="130.0" /><line stroke="rgb(0,0,0)" x1="7318.512250000002" x2="7323.512250000002" y1="130.0" y2="130.0" /><line stroke="rgb(0,0,0)" x1="7323.512250000002" x2="7363.512250000002" y1="130.0" y2="130.0" /><line stroke="rgb(0,0,0)" x1="7363.512250000002" x2="7383.512250000002" y1="130.0" y2="130.0" /><line stroke="rgb(0,0,0)" x1="7383.512250000002" x2="7388.512250000002" y1="130.0" y2="130.0" /><line stroke="rgb(0,0,0)" x1="7388.512250000002" x2="7453.512250000002" y1="130.0" y2="130.0" /><line stroke="rgb(0,0,0)" x1="7453.512250000002" x2="7473.512250000002" y1="130.0" y2="130.0" /><line stroke="rgb(0,0,0)" x1="7473.512250000002" x2="7478.512250000002" y1="130.0" y2="130.0" /><line stroke="rgb(0,0,0)" x1="7478.512250000002" x2="7488.512250000002" y1="130.0" y2="130.0" /><line stroke="rgb(0,0,0)" x1="7488.512250000002" x2="7508.512250000002" y1="130.0" y2="130.0" /><line stroke="rgb(0,0,0)" x1="7508.512250000002" x2="7513.512250000002" y1="130.0" y2="130.0" /><line stroke="rgb(0,0,0)" x1="7513.512250000002" x2="7590.178750000001" y1="130.0" y2="130.0" /><line stroke="rgb(0,0,0)" x1="7590.178750000001" x2="7610.178750000001" y1="130.0" y2="130.0" /><line stroke="rgb(0,0,0)" x1="7610.178750000001" x2="7615.178750000001" y1="130.0" y2="130.0" /><line stroke="rgb(0,0,0)" x1="7615.178750000001" x2="7650.178750000001" y1="130.0" y2="130.0" /><line stroke="rgb(0,0,0)" x1="7650.178750000001" x2="7670.178750000001" y1="130.0" y2="130.0" /><line stroke="rgb(0,0,0)" x1="7670.178750000001" x2="7675.178750000001" y1="130.0" y2="130.0" /><line stroke="rgb(0,0,0)" x1="7675.178750000001" x2="7754.464250000001" y1="130.0" y2="130.0" /><line stroke="rgb(0,0,0)" x1="7754.464250000001" x2="7774.464250000001" y1="130.0" y2="130.0" /><line stroke="rgb(0,0,0)" x1="7774.464250000001" x2="7779.464250000001" y1="130.0" y2="130.0" /><line stroke="rgb(0,0,0)" x1="7779.464250000001" x2="7784.464250000001" y1="130.0" y2="130.0" /><line stroke="rgb(0,0,0)" x1="7784.464250000001" x2="7804.464250000001" y1="130.0" y2="130.0" /><line stroke="rgb(0,0,0)" x1="7804.464250000001" x2="7809.464250000001" y1="130.0" y2="130.0" /><line stroke="rgb(0,0,0)" x1="7809.464250000001" x2="7814.464250000001" y1="130.0" y2="130.0" /><line stroke="rgb(0,0,0)" x1="7814.464250000001" x2="7834.464250000001" y1="130.0" y2="130.0" /><line stroke="rgb(0,0,0)" x1="7834.464250000001" x2="7839.464250000001" y1="130.0" y2="130.0" /><line stroke="rgb(0,0,0)" x1="7839.464250000001" x2="7844.464250000001" y1="130.0" y2="130.0" /><line stroke="rgb(0,0,0)" x1="7844.464250000001" x2="7864.464250000001" y1="130.0" y2="130.0" /><line stroke="rgb(0,0,0)" x1="7864.464250000001" x2="7869.464250000001" y1="130.0" y2="130.0" /><line stroke="rgb(0,0,0)" x1="7869.464250000001" x2="7874.464250000001" y1="130.0" y2="130.0" /><line stroke="rgb(0,0,0)" x1="7874.464250000001" x2="7894.464250000001" y1="130.0" y2="130.0" /><line stroke="rgb(0,0,0)" x1="7894.464250000001" x2="7899.464250000001" y1="130.0" y2="130.0" /><line stroke="rgb(0,0,0)" x1="7899.464250000001" x2="7910.464250000001" y1="130.0" y2="130.0" /><line stroke="rgb(0,0,0)" x1="7910.464250000001" x2="7930.464250000001" y1="130.0" y2="130.0" /><line stroke="rgb(0,0,0)" x1="7930.464250000001" x2="7935.464250000001" y1="130.0" y2="130.0" /><line stroke="rgb(0,0,0)" x1="7935.464250000001" x2="7964.214250000001" y1="130.0" y2="130.0" /><line stroke="rgb(0,0,0)" x1="7964.214250000001" x2="7984.214250000001" y1="130.0" y2="130.0" /><line stroke="rgb(0,0,0)" x1="7984.214250000001" x2="7989.214250000001" y1="130.0" y2="130.0" /><line stroke="rgb(0,0,0)" x1="7989.214250000001" x2="8040.071400000002" y1="130.0" y2="130.0" /><line stroke="rgb(0,0,0)" x1="8040.071400000002" x2="8060.071400000002" y1="130.0" y2="55.0" /><line stroke="rgb(0,0,0)" x1="8060.071400000002" x2="8065.071400000002" y1="55.0" y2="55.0" /><line stroke="rgb(0,0,0)" x1="7989.214250000001" x2="8040.071400000002" y1="130.0" y2="130.0" /><line stroke="rgb(0,0,0)" x1="8040.071400000002" x2="8060.071400000002" y1="130.0" y2="205.0" /><line stroke="rgb(0,0,0)" x1="8060.071400000002" x2="8065.071400000002" y1="205.0" y2="205.0" /><line stroke="rgb(0,0,0)" x1="8065.071400000002" x2="8080.071400000002" y1="55.0" y2="55.0" /><line stroke="rgb(0,0,0)" x1="8080.071400000002" x2="8128.148300000002" y1="55.0" y2="130.0" /><line stroke="rgb(0,0,0)" x1="8128.148300000002" x2="8133.148300000002" y1="130.0" y2="130.0" /><line stroke="rgb(0,0,0)" x1="8065.071400000002" x2="8108.148300000002" y1="205.0" y2="205.0" /><line stroke="rgb(0,0,0)" x1="8108.148300000002" x2="8128.148300000002" y1="205.0" y2="130.0" /><line stroke="rgb(0,0,0)" x1="8128.148300000002" x2="8133.148300000002" y1="130.0" y2="130.0" /><line stroke="rgb(0,0,0)" x1="8133.148300000002" x2="8148.148300000002" y1="130.0" y2="130.0" /><line stroke="rgb(0,0,0)" x1="8148.148300000002" x2="8168.148300000002" y1="130.0" y2="130.0" /><line stroke="rgb(0,0,0)" x1="8168.148300000002" x2="8173.148300000002" y1="130.0" y2="130.0" /><line stroke="rgb(0,0,0)" x1="8173.148300000002" x2="8197.8705" y1="130.0" y2="130.0" /><line stroke="rgb(0,0,0)" x1="8197.8705" x2="8217.8705" y1="130.0" y2="55.0" /><line stroke="rgb(0,0,0)" x1="8217.8705" x2="8222.8705" y1="55.0" y2="55.0" /><line stroke="rgb(0,0,0)" x1="8173.148300000002" x2="8197.8705" y1="130.0" y2="130.0" /><line stroke="rgb(0,0,0)" x1="8197.8705" x2="8217.8705" y1="130.0" y2="205.0" /><line stroke="rgb(0,0,0)" x1="8217.8705" x2="8222.8705" y1="205.0" y2="205.0" /><line stroke="rgb(0,0,0)" x1="8222.8705" x2="8291.6205" y1="205.0" y2="205.0" /><line stroke="rgb(0,0,0)" x1="8291.6205" x2="8311.6205" y1="205.0" y2="130.0" /><line stroke="rgb(0,0,0)" x1="8311.6205" x2="8316.6205" y1="130.0" y2="130.0" /><rect fill="rgb(150,150,150)" height="1.2" stroke="rgb(0,0,0)" width="15.0" x="5.0" y="54.4" /><text fill="black" x="5.0" y="75.6">H0</text><rect fill="rgb(255,150,150)" height="0.8" stroke="rgb(0,0,0)" width="10.0" x="5.0" y="204.6" /><text fill="black" x="5.0" y="225.4">E1</text><rect fill="rgb(150,150,150)" height="0.0" stroke="rgb(0,0,0)" width="0.0" x="50.0" y="130.0" /><text fill="black" x="50.0" y="150.0">X2</text><rect fill="rgb(150,150,150)" height="16.8" stroke="rgb(0,0,0)" width="65.119" x="80.0" y="121.6" /><text fill="black" x="80.0" y="158.4">H3</text><rect fill="rgb(150,150,150)" height="3.2" stroke="rgb(0,0,0)" width="36.875" x="175.119" y="128.4" /><text fill="black" x="175.119" y="151.6">H4</text><rect fill="rgb(150,150,150)" height="5.2" stroke="rgb(0,0,0)" width="30.76925" x="241.994" y="127.4" /><text fill="black" x="241.994" y="152.6">H5</text><rect fill="rgb(70,175,70)" height="0.4" stroke="rgb(0,0,0)" width="5.0" x="302.76324999999997" y="54.8" /><text fill="black" x="302.76324999999997" y="75.2">E6</text><rect fill="rgb(150,150,150)" height="12.0" stroke="rgb(0,0,0)" width="18.5" x="302.76324999999997" y="199.0" /><text fill="black" x="302.76324999999997" y="231.0">H7</text><rect fill="rgb(255,150,150)" height="4.3999999999999995" stroke="rgb(0,0,0)" width="6.8182" x="351.26325" y="127.8" /><text fill="black" x="351.26325" y="152.2">E8</text><rect fill="rgb(255,150,150)" height="100.0" stroke="rgb(0,0,0)" width="23.78" x="388.08145" y="80.0" /><text fill="black" x="388.08145" y="200.0">E9</text><rect fill="rgb(150,150,150)" height="0.4" stroke="rgb(0,0,0)" width="35.0" x="441.86145000000005" y="54.8" /><text fill="black" x="441.86145000000005" y="75.2">H10</text><rect fill="rgb(150,150,150)" height="0.0" stroke="rgb(0,0,0)" width="0.0" x="441.86145000000005" y="205.0" /><text fill="black" x="441.86145000000005" y="225.0">X11</text><rect fill="rgb(150,150,150)" height="1.6" stroke="rgb(0,0,0)" width="73.75" x="506.86145000000005" y="129.2" /><text fill="black" x="506.86145000000005" y="150.8">H12</text><rect fill="rgb(150,150,150)" height="0.8" stroke="rgb(0,0,0)" width="22.5" x="610.61145" y="129.6" /><text fill="black" x="610.61145" y="150.4">H13</text><rect fill="rgb(150,150,150)" height="99.2" stroke="rgb(0,0,0)" width="62.601000000000006" x="663.1114500000001" y="80.4" /><text fill="black" x="663.1114500000001" y="199.6">H14</text><rect fill="rgb(255,150,150)" height="0.8" stroke="rgb(0,0,0)" width="5.0" x="755.71245" y="129.6" /><text fill="black" x="755.71245" y="150.4">E15</text><rect fill="rgb(150,150,150)" height="11.600000000000001" stroke="rgb(0,0,0)" width="19.65515" x="790.71245" y="124.2" /><text fill="black" x="790.71245" y="155.8">H16</text><rect fill="rgb(255,150,150)" height="23.200000000000003" stroke="rgb(0,0,0)" width="11.5517" x="840.3676" y="118.4" /><text fill="black" x="840.3676" y="161.6">E17</text><rect fill="rgb(255,150,150)" height="96.8" stroke="rgb(0,0,0)" width="24.793400000000002" x="881.9193" y="81.6" /><text fill="black" x="881.9193" y="198.4">E18</text><rect fill="rgb(150,150,150)" height="10.8" stroke="rgb(0,0,0)" width="19.07405" x="936.7126999999999" y="49.6" /><text fill="black" x="936.7126999999999" y="80.4">H19</text><rect fill="rgb(150,150,150)" height="0.0" stroke="rgb(0,0,0)" width="0.0" x="936.7126999999999" y="205.0" /><text fill="black" x="936.7126999999999" y="225.0">X20</text><rect fill="rgb(70,175,175)" height="2.4" stroke="rgb(0,0,0)" width="6.66665" x="985.7867499999999" y="128.8" /><text fill="black" x="985.7867499999999" y="151.2">E21</text><rect fill="rgb(150,150,150)" height="1.6" stroke="rgb(0,0,0)" width="32.5" x="1022.4533999999999" y="129.2" /><text fill="black" x="1022.4533999999999" y="150.8">H22</text><rect fill="rgb(150,150,150)" height="5.6000000000000005" stroke="rgb(0,0,0)" width="22.5" x="1084.9533999999999" y="127.2" /><text fill="black" x="1084.9533999999999" y="152.8">H23</text><rect fill="rgb(150,150,150)" height="1.6" stroke="rgb(0,0,0)" width="15.0" x="1137.4533999999999" y="129.2" /><text fill="black" x="1137.4533999999999" y="150.8">H24</text><rect fill="rgb(70,175,175)" height="2.4" stroke="rgb(0,0,0)" width="5.0" x="1182.4533999999999" y="128.8" /><text fill="black" x="1182.4533999999999" y="151.2">E25</text><rect fill="rgb(150,150,150)" height="75.6" stroke="rgb(0,0,0)" width="58.201" x="1217.4533999999999" y="92.2" /><text fill="black" x="1217.4533999999999" y="187.8">H26</text><rect fill="rgb(255,255,150)" height="2.4" stroke="rgb(0,0,0)" width="16.66665" x="1305.6543999999997" y="128.8" /><text fill="black" x="1305.6543999999997" y="151.2">E27</text><rect fill="rgb(150,150,150)" height="5.6000000000000005" stroke="rgb(0,0,0)" width="15.0" x="1352.3210499999996" y="127.2" /><text fill="black" x="1352.3210499999996" y="152.8">H28</text><rect fill="rgb(255,255,150)" height="2.4" stroke="rgb(0,0,0)" width="16.66665" x="1397.3210499999996" y="128.8" /><text fill="black" x="1397.3210499999996" y="151.2">E29</text><rect fill="rgb(255,150,150)" height="6.4" stroke="rgb(0,0,0)" width="17.8125" x="1443.9876999999997" y="126.8" /><text fill="black" x="1443.9876999999997" y="153.2">E30</text><rect fill="rgb(255,150,150)" height="14.399999999999999" stroke="rgb(0,0,0)" width="18.19445" x="1491.8001999999997" y="122.8" /><text fill="black" x="1491.8001999999997" y="157.2">E31</text><rect fill="rgb(150,150,150)" height="13.600000000000001" stroke="rgb(0,0,0)" width="27.9412" x="1539.9946499999996" y="123.2" /><text fill="black" x="1539.9946499999996" y="156.8">H32</text><rect fill="rgb(115,10,10)" height="0.8" stroke="rgb(0,0,0)" width="7.5" x="1597.9358499999994" y="54.6" /><text fill="black" x="1597.9358499999994" y="75.4">E33</text><rect fill="rgb(150,150,150)" height="6.0" stroke="rgb(0,0,0)" width="23.666649999999997" x="1597.9358499999994" y="202.0" /><text fill="black" x="1597.9358499999994" y="228.0">H34</text><rect fill="rgb(115,10,10)" height="0.8" stroke="rgb(0,0,0)" width="7.5" x="1651.6024999999995" y="129.6" /><text fill="black" x="1651.6024999999995" y="150.4">E35</text><rect fill="rgb(255,150,150)" height="4.8" stroke="rgb(0,0,0)" width="11.66665" x="1689.1024999999995" y="127.6" /><text fill="black" x="1689.1024999999995" y="152.4">E36</text><rect fill="rgb(255,150,150)" height="93.2" stroke="rgb(0,0,0)" width="18.9485" x="1730.7691499999996" y="83.4" /><text fill="black" x="1730.7691499999996" y="196.6">E37</text><rect fill="rgb(150,150,150)" height="0.0" stroke="rgb(0,0,0)" width="0.0" x="1779.7176499999996" y="130.0" /><text fill="black" x="1779.7176499999996" y="150.0">X38</text><rect fill="rgb(175,175,70)" height="1.2" stroke="rgb(0,0,0)" width="6.66665" x="1809.7176499999996" y="129.4" /><text fill="black" x="1809.7176499999996" y="150.6">E39</text><rect fill="rgb(150,150,150)" height="49.2" stroke="rgb(0,0,0)" width="15.52845" x="1846.3842999999995" y="105.4" /><text fill="black" x="1846.3842999999995" y="174.6">H40</text><rect fill="rgb(150,150,150)" height="0.0" stroke="rgb(0,0,0)" width="0.0" x="1891.9127499999993" y="130.0" /><text fill="black" x="1891.9127499999993" y="150.0">X41</text><rect fill="rgb(255,150,150)" height="0.4" stroke="rgb(0,0,0)" width="30.0" x="1921.9127499999993" y="129.8" /><text fill="black" x="1921.9127499999993" y="150.2">E42</text><rect fill="rgb(150,150,150)" height="0.0" stroke="rgb(0,0,0)" width="0.0" x="1981.9127499999993" y="130.0" /><text fill="black" x="1981.9127499999993" y="150.0">X43</text><rect fill="rgb(150,150,150)" height="2.4" stroke="rgb(0,0,0)" width="18.33335" x="2011.9127499999993" y="128.8" /><text fill="black" x="2011.9127499999993" y="151.2">H44</text><rect fill="rgb(150,150,150)" height="0.0" stroke="rgb(0,0,0)" width="0.0" x="2060.2460999999994" y="130.0" /><text fill="black" x="2060.2460999999994" y="150.0">X45</text><rect fill="rgb(150,150,150)" height="0.8" stroke="rgb(0,0,0)" width="25.0" x="2090.2460999999994" y="129.6" /><text fill="black" x="2090.2460999999994" y="150.4">H46</text><rect fill="rgb(150,150,150)" height="2.8000000000000003" stroke="rgb(0,0,0)" width="47.14285" x="2145.2460999999994" y="128.6" /><text fill="black" x="2145.2460999999994" y="151.4">H47</text><rect fill="rgb(175,175,70)" height="0.8" stroke="rgb(0,0,0)" width="7.5" x="2222.388949999999" y="129.6" /><text fill="black" x="2222.388949999999" y="150.4">E48</text><rect fill="rgb(150,150,150)" height="89.60000000000001" stroke="rgb(0,0,0)" width="46.4509" x="2259.888949999999" y="85.19999999999999" /><text fill="black" x="2259.888949999999" y="194.8">H49</text><rect fill="rgb(150,150,150)" height="9.6" stroke="rgb(0,0,0)" width="22.70835" x="2336.3398499999994" y="125.2" /><text fill="black" x="2336.3398499999994" y="154.8">H50</text><rect fill="rgb(150,150,150)" height="0.0" stroke="rgb(0,0,0)" width="0.0" x="2389.0481999999993" y="130.0" /><text fill="black" x="2389.0481999999993" y="150.0">X51</text><rect fill="rgb(255,150,255)" height="16.0" stroke="rgb(0,0,0)" width="5.0" x="2419.0481999999993" y="122.0" /><text fill="black" x="2419.0481999999993" y="158.0">E52</text><rect fill="rgb(255,150,150)" height="2.8000000000000003" stroke="rgb(0,0,0)" width="7.857150000000001" x="2454.0481999999993" y="128.6" /><text fill="black" x="2454.0481999999993" y="151.4">E53</text><rect fill="rgb(150,150,150)" height="0.0" stroke="rgb(0,0,0)" width="0.0" x="2491.9053499999995" y="130.0" /><text fill="black" x="2491.9053499999995" y="150.0">X54</text><rect fill="rgb(255,150,150)" height="98.4" stroke="rgb(0,0,0)" width="20.3049" x="2521.9053499999995" y="80.8" /><text fill="black" x="2521.9053499999995" y="199.2">E55</text><rect fill="rgb(150,255,150)" height="2.0" stroke="rgb(0,0,0)" width="8.0" x="2572.210249999999" y="129.0" /><text fill="black" x="2572.210249999999" y="151.0">E56</text><rect fill="rgb(150,150,150)" height="0.0" stroke="rgb(0,0,0)" width="0.0" x="2610.2102499999996" y="130.0" /><text fill="black" x="2610.2102499999996" y="150.0">X57</text><rect fill="rgb(150,255,150)" height="0.4" stroke="rgb(0,0,0)" width="10.0" x="2640.2102499999996" y="129.8" /><text fill="black" x="2640.2102499999996" y="150.2">E58</text><rect fill="rgb(150,150,150)" height="9.6" stroke="rgb(0,0,0)" width="26.04165" x="2680.2102499999996" y="125.2" /><text fill="black" x="2680.2102499999996" y="154.8">H59</text><rect fill="rgb(150,150,150)" height="0.0" stroke="rgb(0,0,0)" width="0.0" x="2736.2518999999998" y="130.0" /><text fill="black" x="2736.2518999999998" y="150.0">X60</text><rect fill="rgb(150,150,150)" height="0.0" stroke="rgb(0,0,0)" width="0.0" x="2766.2518999999998" y="130.0" /><text fill="black" x="2766.2518999999998" y="150.0">X61</text><rect fill="rgb(150,150,150)" height="0.0" stroke="rgb(0,0,0)" width="0.0" x="2796.2518999999998" y="55.0" /><text fill="black" x="2796.2518999999998" y="75.0">X62</text><rect fill="rgb(150,150,150)" height="0.0" stroke="rgb(0,0,0)" width="0.0" x="2796.2518999999998" y="205.0" /><text fill="black" x="2796.2518999999998" y="225.0">X63</text><rect fill="rgb(150,150,150)" height="0.0" stroke="rgb(0,0,0)" width="0.0" x="2826.2518999999998" y="130.0" /><text fill="black" x="2826.2518999999998" y="150.0">X64</text><rect fill="rgb(10,10,115)" height="0.8" stroke="rgb(0,0,0)" width="7.5" x="2856.2518999999998" y="129.6" /><text fill="black" x="2856.2518999999998" y="150.4">E65</text><rect fill="rgb(150,150,150)" height="0.0" stroke="rgb(0,0,0)" width="0.0" x="2893.7518999999998" y="130.0" /><text fill="black" x="2893.7518999999998" y="150.0">X66</text><rect fill="rgb(150,150,150)" height="0.0" stroke="rgb(0,0,0)" width="0.0" x="2923.7518999999998" y="130.0" /><text fill="black" x="2923.7518999999998" y="150.0">X67</text><rect fill="rgb(150,150,150)" height="0.0" stroke="rgb(0,0,0)" width="0.0" x="2953.7518999999998" y="130.0" /><text fill="black" x="2953.7518999999998" y="150.0">X68</text><rect fill="rgb(150,150,150)" height="0.0" stroke="rgb(0,0,0)" width="0.0" x="2983.7518999999998" y="130.0" /><text fill="black" x="2983.7518999999998" y="150.0">X69</text><rect fill="rgb(150,150,150)" height="0.0" stroke="rgb(0,0,0)" width="0.0" x="3013.7518999999998" y="55.0" /><text fill="black" x="3013.7518999999998" y="75.0">X70</text><rect fill="rgb(150,150,150)" height="0.0" stroke="rgb(0,0,0)" width="0.0" x="3013.7518999999998" y="205.0" /><text fill="black" x="3013.7518999999998" y="225.0">X71</text><rect fill="rgb(150,150,150)" height="0.0" stroke="rgb(0,0,0)" width="0.0" x="3043.7518999999998" y="130.0" /><text fill="black" x="3043.7518999999998" y="150.0">X72</text><rect fill="rgb(150,150,150)" height="0.0" stroke="rgb(0,0,0)" width="0.0" x="3073.7518999999998" y="130.0" /><text fill="black" x="3073.7518999999998" y="150.0">X73</text><rect fill="rgb(150,150,150)" height="0.0" stroke="rgb(0,0,0)" width="0.0" x="3103.7518999999998" y="130.0" /><text fill="black" x="3103.7518999999998" y="150.0">X74</text><rect fill="rgb(150,150,150)" height="0.0" stroke="rgb(0,0,0)" width="0.0" x="3133.7518999999998" y="130.0" /><text fill="black" x="3133.7518999999998" y="150.0">X75</text><rect fill="rgb(150,150,150)" height="0.0" stroke="rgb(0,0,0)" width="0.0" x="3163.7518999999998" y="130.0" /><text fill="black" x="3163.7518999999998" y="150.0">X76</text><rect fill="rgb(150,150,150)" height="0.0" stroke="rgb(0,0,0)" width="0.0" x="3193.7518999999998" y="130.0" /><text fill="black" x="3193.7518999999998" y="150.0">X77</text><rect fill="rgb(150,150,150)" height="0.0" stroke="rgb(0,0,0)" width="0.0" x="3223.7518999999998" y="130.0" /><text fill="black" x="3223.7518999999998" y="150.0">X78</text><rect fill="rgb(150,150,150)" height="0.0" stroke="rgb(0,0,0)" width="0.0" x="3253.7518999999998" y="130.0" /><text fill="black" x="3253.7518999999998" y="150.0">X79</text><rect fill="rgb(150,150,150)" height="0.0" stroke="rgb(0,0,0)" width="0.0" x="3283.7518999999998" y="55.0" /><text fill="black" x="3283.7518999999998" y="75.0">X80</text><rect fill="rgb(150,150,150)" height="0.0" stroke="rgb(0,0,0)" width="0.0" x="3283.7518999999998" y="205.0" /><text fill="black" x="3283.7518999999998" y="225.0">X81</text><rect fill="rgb(150,150,150)" height="0.0" stroke="rgb(0,0,0)" width="0.0" x="3313.7518999999998" y="130.0" /><text fill="black" x="3313.7518999999998" y="150.0">X82</text><rect fill="rgb(150,150,150)" height="0.0" stroke="rgb(0,0,0)" width="0.0" x="3343.7518999999998" y="130.0" /><text fill="black" x="3343.7518999999998" y="150.0">X83</text><rect fill="rgb(150,150,150)" height="1.2" stroke="rgb(0,0,0)" width="20.0" x="3373.7518999999998" y="129.4" /><text fill="black" x="3373.7518999999998" y="150.6">H84</text><rect fill="rgb(150,150,150)" height="0.0" stroke="rgb(0,0,0)" width="0.0" x="3423.7518999999998" y="130.0" /><text fill="black" x="3423.7518999999998" y="150.0">X85</text><rect fill="rgb(150,255,150)" height="0.4" stroke="rgb(0,0,0)" width="5.0" x="3453.7518999999998" y="129.8" /><text fill="black" x="3453.7518999999998" y="150.2">E86</text><rect fill="rgb(10,10,115)" height="0.8" stroke="rgb(0,0,0)" width="7.5" x="3488.7518999999998" y="54.6" /><text fill="black" x="3488.7518999999998" y="75.4">E87</text><rect fill="rgb(150,150,150)" height="10.4" stroke="rgb(0,0,0)" width="21.923099999999998" x="3488.7518999999998" y="199.8" /><text fill="black" x="3488.7518999999998" y="230.2">H88</text><rect fill="rgb(150,255,150)" height="16.8" stroke="rgb(0,0,0)" width="5.2381" x="3540.675" y="121.6" /><text fill="black" x="3540.675" y="158.4">E89</text><rect fill="rgb(150,150,150)" height="22.400000000000002" stroke="rgb(0,0,0)" width="15.17855" x="3575.9131" y="118.8" /><text fill="black" x="3575.9131" y="161.2">H90</text><rect fill="rgb(150,150,150)" height="85.2" stroke="rgb(0,0,0)" width="90.2815" x="3621.0916500000003" y="87.4" /><text fill="black" x="3621.0916500000003" y="192.6">H91</text><rect fill="rgb(150,150,150)" height="20.8" stroke="rgb(0,0,0)" width="28.84615" x="3741.37315" y="119.6" /><text fill="black" x="3741.37315" y="160.4">H92</text><rect fill="rgb(255,150,255)" height="16.0" stroke="rgb(0,0,0)" width="5.0" x="3800.2192999999997" y="122.0" /><text fill="black" x="3800.2192999999997" y="158.0">E93</text><rect fill="rgb(150,150,150)" height="3.2" stroke="rgb(0,0,0)" width="16.875" x="3835.2192999999997" y="128.4" /><text fill="black" x="3835.2192999999997" y="151.6">H94</text><rect fill="rgb(255,150,150)" height="98.0" stroke="rgb(0,0,0)" width="24.12245" x="3882.0942999999997" y="81.0" /><text fill="black" x="3882.0942999999997" y="199.0">E95</text><rect fill="rgb(150,150,150)" height="0.8" stroke="rgb(0,0,0)" width="15.0" x="3936.2167499999996" y="129.6" /><text fill="black" x="3936.2167499999996" y="150.4">H96</text><rect fill="rgb(150,150,150)" height="46.400000000000006" stroke="rgb(0,0,0)" width="21.59485" x="3981.2167499999996" y="106.8" /><text fill="black" x="3981.2167499999996" y="173.2">H97</text><rect fill="rgb(150,150,255)" height="0.8" stroke="rgb(0,0,0)" width="5.0" x="4032.8116" y="129.6" /><text fill="black" x="4032.8116" y="150.4">E98</text><rect fill="rgb(150,150,150)" height="3.5999999999999996" stroke="rgb(0,0,0)" width="17.7778" x="4067.8116" y="128.2" /><text fill="black" x="4067.8116" y="151.8">H99</text><rect fill="rgb(150,150,150)" height="0.0" stroke="rgb(0,0,0)" width="0.0" x="4115.5894" y="130.0" /><text fill="black" x="4115.5894" y="150.0">X100</text><rect fill="rgb(150,150,150)" height="0.0" stroke="rgb(0,0,0)" width="0.0" x="4145.5894" y="55.0" /><text fill="black" x="4145.5894" y="75.0">X101</text><rect fill="rgb(150,150,150)" height="0.0" stroke="rgb(0,0,0)" width="0.0" x="4145.5894" y="205.0" /><text fill="black" x="4145.5894" y="225.0">X102</text><rect fill="rgb(150,150,150)" height="0.0" stroke="rgb(0,0,0)" width="0.0" x="4175.5894" y="130.0" /><text fill="black" x="4175.5894" y="150.0">X103</text><rect fill="rgb(150,150,150)" height="0.0" stroke="rgb(0,0,0)" width="0.0" x="4205.5894" y="130.0" /><text fill="black" x="4205.5894" y="150.0">X104</text><rect fill="rgb(150,150,150)" height="0.0" stroke="rgb(0,0,0)" width="0.0" x="4235.5894" y="130.0" /><text fill="black" x="4235.5894" y="150.0">X105</text><rect fill="rgb(150,150,150)" height="0.0" stroke="rgb(0,0,0)" width="0.0" x="4265.5894" y="130.0" /><text fill="black" x="4265.5894" y="150.0">X106</text><rect fill="rgb(150,150,150)" height="0.0" stroke="rgb(0,0,0)" width="0.0" x="4295.5894" y="130.0" /><text fill="black" x="4295.5894" y="150.0">X107</text><rect fill="rgb(150,150,150)" height="0.0" stroke="rgb(0,0,0)" width="0.0" x="4325.5894" y="130.0" /><text fill="black" x="4325.5894" y="150.0">X108</text><rect fill="rgb(150,150,150)" height="0.0" stroke="rgb(0,0,0)" width="0.0" x="4355.5894" y="130.0" /><text fill="black" x="4355.5894" y="150.0">X109</text><rect fill="rgb(150,255,150)" height="16.0" stroke="rgb(0,0,0)" width="5.625" x="4385.5894" y="122.0" /><text fill="black" x="4385.5894" y="158.0">E110</text><rect fill="rgb(150,150,150)" height="2.0" stroke="rgb(0,0,0)" width="15.0" x="4421.2144" y="129.0" /><text fill="black" x="4421.2144" y="151.0">H111</text><rect fill="rgb(255,150,150)" height="8.4" stroke="rgb(0,0,0)" width="6.90475" x="4466.2144" y="125.8" /><text fill="black" x="4466.2144" y="154.2">E112</text><rect fill="rgb(150,150,150)" height="0.0" stroke="rgb(0,0,0)" width="0.0" x="4503.11915" y="130.0" /><text fill="black" x="4503.11915" y="150.0">X113</text><rect fill="rgb(150,150,150)" height="0.0" stroke="rgb(0,0,0)" width="0.0" x="4533.11915" y="130.0" /><text fill="black" x="4533.11915" y="150.0">X114</text><rect fill="rgb(150,150,150)" height="0.0" stroke="rgb(0,0,0)" width="0.0" x="4563.11915" y="130.0" /><text fill="black" x="4563.11915" y="150.0">X115</text><rect fill="rgb(150,150,150)" height="24.4" stroke="rgb(0,0,0)" width="17.7049" x="4593.11915" y="117.8" /><text fill="black" x="4593.11915" y="162.2">H116</text><rect fill="rgb(150,255,150)" height="3.2" stroke="rgb(0,0,0)" width="5.0" x="4640.82405" y="128.4" /><text fill="black" x="4640.82405" y="151.6">E117</text><rect fill="rgb(150,150,150)" height="74.4" stroke="rgb(0,0,0)" width="80.86" x="4675.82405" y="92.8" /><text fill="black" x="4675.82405" y="187.2">H118</text><rect fill="rgb(150,255,255)" height="2.0" stroke="rgb(0,0,0)" width="31.0" x="4786.68405" y="129.0" /><text fill="black" x="4786.68405" y="151.0">E119</text><rect fill="rgb(150,255,255)" height="2.0" stroke="rgb(0,0,0)" width="28.0" x="4847.68405" y="129.0" /><text fill="black" x="4847.68405" y="151.0">E120</text><rect fill="rgb(150,150,150)" height="7.6" stroke="rgb(0,0,0)" width="17.3684" x="4905.684050000001" y="126.2" /><text fill="black" x="4905.684050000001" y="153.8">H121</text><rect fill="rgb(150,150,150)" height="8.0" stroke="rgb(0,0,0)" width="20.0" x="4953.05245" y="126.0" /><text fill="black" x="4953.05245" y="154.0">H122</text><rect fill="rgb(150,150,150)" height="32.800000000000004" stroke="rgb(0,0,0)" width="23.4756" x="5003.05245" y="113.6" /><text fill="black" x="5003.05245" y="166.4">H123</text><rect fill="rgb(255,150,150)" height="3.2" stroke="rgb(0,0,0)" width="13.75" x="5056.52805" y="128.4" /><text fill="black" x="5056.52805" y="151.6">E124</text><rect fill="rgb(255,150,150)" height="92.0" stroke="rgb(0,0,0)" width="25.8913" x="5100.27805" y="84.0" /><text fill="black" x="5100.27805" y="196.0">E125</text><rect fill="rgb(150,150,255)" height="22.0" stroke="rgb(0,0,0)" width="6.72725" x="5156.16935" y="119.0" /><text fill="black" x="5156.16935" y="161.0">E126</text><rect fill="rgb(70,70,175)" height="2.0" stroke="rgb(0,0,0)" width="19.0" x="5192.8966" y="129.0" /><text fill="black" x="5192.8966" y="151.0">E127</text><rect fill="rgb(150,150,150)" height="10.8" stroke="rgb(0,0,0)" width="23.8889" x="5241.8966" y="124.6" /><text fill="black" x="5241.8966" y="155.4">H128</text><rect fill="rgb(70,70,175)" height="2.0" stroke="rgb(0,0,0)" width="17.0" x="5295.7855" y="129.0" /><text fill="black" x="5295.7855" y="151.0">E129</text><rect fill="rgb(150,150,150)" height="25.2" stroke="rgb(0,0,0)" width="35.2381" x="5342.7855" y="117.4" /><text fill="black" x="5342.7855" y="162.6">H130</text><rect fill="rgb(150,150,150)" height="0.0" stroke="rgb(0,0,0)" width="0.0" x="5408.0236" y="130.0" /><text fill="black" x="5408.0236" y="150.0">X131</text><rect fill="rgb(150,150,150)" height="5.2" stroke="rgb(0,0,0)" width="24.615399999999998" x="5438.0236" y="127.4" /><text fill="black" x="5438.0236" y="152.6">H132</text><rect fill="rgb(150,150,150)" height="0.0" stroke="rgb(0,0,0)" width="0.0" x="5492.639" y="130.0" /><text fill="black" x="5492.639" y="150.0">X133</text><rect fill="rgb(150,150,150)" height="24.4" stroke="rgb(0,0,0)" width="52.213" x="5522.639" y="117.8" /><text fill="black" x="5522.639" y="162.2">H134</text><rect fill="rgb(175,70,70)" height="2.8000000000000003" stroke="rgb(0,0,0)" width="15.0" x="5604.852000000001" y="128.6" /><text fill="black" x="5604.852000000001" y="151.4">E135</text><rect fill="rgb(150,150,255)" height="22.8" stroke="rgb(0,0,0)" width="6.8421" x="5649.852000000001" y="118.6" /><text fill="black" x="5649.852000000001" y="161.4">E136</text><rect fill="rgb(150,150,150)" height="12.8" stroke="rgb(0,0,0)" width="23.90625" x="5686.694100000001" y="123.6" /><text fill="black" x="5686.694100000001" y="156.4">H137</text><rect fill="rgb(150,150,150)" height="0.0" stroke="rgb(0,0,0)" width="0.0" x="5740.600350000001" y="130.0" /><text fill="black" x="5740.600350000001" y="150.0">X138</text><rect fill="rgb(150,150,150)" height="2.0" stroke="rgb(0,0,0)" width="27.0" x="5770.600350000001" y="129.0" /><text fill="black" x="5770.600350000001" y="151.0">H139</text><rect fill="rgb(150,150,150)" height="0.0" stroke="rgb(0,0,0)" width="0.0" x="5827.6003500000015" y="130.0" /><text fill="black" x="5827.6003500000015" y="150.0">X140</text><rect fill="rgb(150,150,150)" height="0.0" stroke="rgb(0,0,0)" width="0.0" x="5857.6003500000015" y="130.0" /><text fill="black" x="5857.6003500000015" y="150.0">X141</text><rect fill="rgb(150,150,150)" height="55.60000000000001" stroke="rgb(0,0,0)" width="70.7195" x="5887.6003500000015" y="102.19999999999999" /><text fill="black" x="5887.6003500000015" y="177.8">H142</text><rect fill="rgb(70,175,70)" height="2.4" stroke="rgb(0,0,0)" width="7.5" x="5988.319850000002" y="128.8" /><text fill="black" x="5988.319850000002" y="151.2">E143</text><rect fill="rgb(150,150,150)" height="2.4" stroke="rgb(0,0,0)" width="86.66650000000001" x="6025.819850000002" y="128.8" /><text fill="black" x="6025.819850000002" y="151.2">H144</text><rect fill="rgb(150,150,150)" height="0.8" stroke="rgb(0,0,0)" width="15.0" x="6142.486350000001" y="129.6" /><text fill="black" x="6142.486350000001" y="150.4">H145</text><rect fill="rgb(150,150,150)" height="0.8" stroke="rgb(0,0,0)" width="117.5" x="6187.486350000001" y="129.6" /><text fill="black" x="6187.486350000001" y="150.4">H146</text><rect fill="rgb(150,150,150)" height="0.4" stroke="rgb(0,0,0)" width="20.0" x="6334.986350000001" y="129.8" /><text fill="black" x="6334.986350000001" y="150.2">H147</text><rect fill="rgb(150,150,150)" height="0.8" stroke="rgb(0,0,0)" width="42.5" x="6384.986350000001" y="129.6" /><text fill="black" x="6384.986350000001" y="150.4">H148</text><rect fill="rgb(150,150,150)" height="24.4" stroke="rgb(0,0,0)" width="17.0492" x="6457.486350000001" y="117.8" /><text fill="black" x="6457.486350000001" y="162.2">H149</text><rect fill="rgb(70,175,70)" height="2.0" stroke="rgb(0,0,0)" width="8.0" x="6504.535550000001" y="129.0" /><text fill="black" x="6504.535550000001" y="151.0">E150</text><rect fill="rgb(150,150,150)" height="8.799999999999999" stroke="rgb(0,0,0)" width="17.27275" x="6542.535550000001" y="125.6" /><text fill="black" x="6542.535550000001" y="154.4">H151</text><rect fill="rgb(255,150,150)" height="47.599999999999994" stroke="rgb(0,0,0)" width="21.63865" x="6589.808300000001" y="106.2" /><text fill="black" x="6589.808300000001" y="173.8">E152</text><rect fill="rgb(150,150,150)" height="18.4" stroke="rgb(0,0,0)" width="20.97825" x="6641.4469500000005" y="45.8" /><text fill="black" x="6641.4469500000005" y="84.2">H153</text><rect fill="rgb(175,70,70)" height="2.8000000000000003" stroke="rgb(0,0,0)" width="11.42855" x="6641.4469500000005" y="203.6" /><text fill="black" x="6641.4469500000005" y="226.4">E154</text><rect fill="rgb(150,150,150)" height="2.8000000000000003" stroke="rgb(0,0,0)" width="29.285700000000002" x="6692.4252" y="128.6" /><text fill="black" x="6692.4252" y="151.4">H155</text><rect fill="rgb(150,150,150)" height="3.5999999999999996" stroke="rgb(0,0,0)" width="51.111000000000004" x="6751.7109" y="128.2" /><text fill="black" x="6751.7109" y="151.8">H156</text><rect fill="rgb(150,150,150)" height="2.0" stroke="rgb(0,0,0)" width="37.0" x="6832.8219" y="129.0" /><text fill="black" x="6832.8219" y="151.0">H157</text><rect fill="rgb(150,150,150)" height="2.8000000000000003" stroke="rgb(0,0,0)" width="82.857" x="6899.821900000001" y="128.6" /><text fill="black" x="6899.821900000001" y="151.4">H158</text><rect fill="rgb(150,150,150)" height="0.4" stroke="rgb(0,0,0)" width="30.0" x="7012.678900000001" y="129.8" /><text fill="black" x="7012.678900000001" y="150.2">H159</text><rect fill="rgb(150,150,150)" height="0.0" stroke="rgb(0,0,0)" width="0.0" x="7072.678900000001" y="130.0" /><text fill="black" x="7072.678900000001" y="150.0">X160</text><rect fill="rgb(150,255,150)" height="2.4" stroke="rgb(0,0,0)" width="8.333350000000001" x="7102.678900000001" y="128.8" /><text fill="black" x="7102.678900000001" y="151.2">E161</text><rect fill="rgb(150,150,150)" height="0.0" stroke="rgb(0,0,0)" width="0.0" x="7141.012250000002" y="130.0" /><text fill="black" x="7141.012250000002" y="150.0">X162</text><rect fill="rgb(10,115,10)" height="0.4" stroke="rgb(0,0,0)" width="15.0" x="7171.012250000002" y="129.8" /><text fill="black" x="7171.012250000002" y="150.2">E163</text><rect fill="rgb(10,115,10)" height="0.4" stroke="rgb(0,0,0)" width="15.0" x="7216.012250000002" y="129.8" /><text fill="black" x="7216.012250000002" y="150.2">E164</text><rect fill="rgb(150,150,150)" height="0.8" stroke="rgb(0,0,0)" width="32.5" x="7261.012250000002" y="129.6" /><text fill="black" x="7261.012250000002" y="150.4">H165</text><rect fill="rgb(150,150,150)" height="1.2" stroke="rgb(0,0,0)" width="35.0" x="7323.512250000002" y="129.4" /><text fill="black" x="7323.512250000002" y="150.6">H166</text><rect fill="rgb(150,150,150)" height="0.4" stroke="rgb(0,0,0)" width="60.0" x="7388.512250000002" y="129.8" /><text fill="black" x="7388.512250000002" y="150.2">H167</text><rect fill="rgb(175,175,70)" height="0.4" stroke="rgb(0,0,0)" width="5.0" x="7478.512250000002" y="129.8" /><text fill="black" x="7478.512250000002" y="150.2">E168</text><rect fill="rgb(150,150,150)" height="1.2" stroke="rgb(0,0,0)" width="71.6665" x="7513.512250000002" y="129.4" /><text fill="black" x="7513.512250000002" y="150.6">H169</text><rect fill="rgb(150,150,150)" height="1.2" stroke="rgb(0,0,0)" width="30.0" x="7615.178750000001" y="129.4" /><text fill="black" x="7615.178750000001" y="150.6">H170</text><rect fill="rgb(150,150,150)" height="2.8000000000000003" stroke="rgb(0,0,0)" width="74.2855" x="7675.178750000001" y="128.6" /><text fill="black" x="7675.178750000001" y="151.4">H171</text><rect fill="rgb(150,150,150)" height="0.0" stroke="rgb(0,0,0)" width="0.0" x="7779.464250000001" y="130.0" /><text fill="black" x="7779.464250000001" y="150.0">X172</text><rect fill="rgb(150,150,150)" height="0.0" stroke="rgb(0,0,0)" width="0.0" x="7809.464250000001" y="130.0" /><text fill="black" x="7809.464250000001" y="150.0">X173</text><rect fill="rgb(150,150,150)" height="0.0" stroke="rgb(0,0,0)" width="0.0" x="7839.464250000001" y="130.0" /><text fill="black" x="7839.464250000001" y="150.0">X174</text><rect fill="rgb(150,150,150)" height="0.0" stroke="rgb(0,0,0)" width="0.0" x="7869.464250000001" y="130.0" /><text fill="black" x="7869.464250000001" y="150.0">X175</text><rect fill="rgb(150,255,150)" height="2.0" stroke="rgb(0,0,0)" width="6.0" x="7899.464250000001" y="129.0" /><text fill="black" x="7899.464250000001" y="151.0">E176</text><rect fill="rgb(150,150,150)" height="4.8" stroke="rgb(0,0,0)" width="23.75" x="7935.464250000001" y="127.6" /><text fill="black" x="7935.464250000001" y="152.4">H177</text><rect fill="rgb(150,150,150)" height="14.000000000000002" stroke="rgb(0,0,0)" width="45.857150000000004" x="7989.214250000001" y="123.0" /><text fill="black" x="7989.214250000001" y="157.0">H178</text><rect fill="rgb(175,70,175)" height="1.6" stroke="rgb(0,0,0)" width="10.0" x="8065.071400000002" y="54.2" /><text fill="black" x="8065.071400000002" y="75.8">E179</text><rect fill="rgb(150,150,150)" height="5.2" stroke="rgb(0,0,0)" width="38.0769" x="8065.071400000002" y="202.4" /><text fill="black" x="8065.071400000002" y="227.6">H180</text><rect fill="rgb(175,70,175)" height="1.6" stroke="rgb(0,0,0)" width="10.0" x="8133.148300000002" y="129.2" /><text fill="black" x="8133.148300000002" y="150.8">E181</text><rect fill="rgb(255,150,150)" height="7.199999999999999" stroke="rgb(0,0,0)" width="19.7222" x="8173.148300000002" y="126.4" /><text fill="black" x="8173.148300000002" y="153.6">E182</text><rect fill="rgb(255,150,150)" height="1.2" stroke="rgb(0,0,0)" width="8.333350000000001" x="8222.8705" y="54.4" /><text fill="black" x="8222.8705" y="75.6">E183</text><rect fill="rgb(150,150,150)" height="3.2" stroke="rgb(0,0,0)" width="63.75" x="8222.8705" y="203.4" /><text fill="black" x="8222.8705" y="226.6">H184</text><rect fill="rgb(150,150,150)" height="1.2" stroke="rgb(0,0,0)" width="16.66665" x="8316.6205" y="129.4" /><text fill="black" x="8316.6205" y="150.6">H185</text></svg>