<?xml version="1.0" encoding="utf-8" ?>
<svg baseProfile="full" height="100%" style="font-size:14;font-family:Sans, Arial;stroke-width:1;fill:none" version="1.1" width="100%" xmlns="http://www.w3.org/2000/svg" xmlns:ev="http://www.w3.org/2001/xml-events" xmlns:xlink="http://www.w3.org/1999/xlink"><defs /><rect fill="none" height="130.0" stroke="none" width="1550.5429499999993" x="0" y="0" /><line stroke="rgb(0,0,0)" x1="5.0" x2="33.78" y1="55.0" y2="55.0" /><line stroke="rgb(0,0,0)" x1="33.78" x2="53.78" y1="55.0" y2="55.0" /><line stroke="rgb(0,0,0)" x1="53.78" x2="58.78" y1="55.0" y2="55.0" /><line stroke="rgb(0,0,0)" x1="58.78" x2="126.38100000000001" y1="55.0" y2="55.0" /><line stroke="rgb(0,0,0)" x1="126.38100000000001" x2="146.38100000000003" y1="55.0" y2="55.0" /><line stroke="rgb(0,0,0)" x1="146.38100000000003" x2="151.38100000000003" y1="55.0" y2="55.0" /><line stroke="rgb(0,0,0)" x1="151.38100000000003" x2="167.9327" y1="55.0" y2="55.0" /><line stroke="rgb(0,0,0)" x1="167.9327" x2="187.9327" y1="55.0" y2="55.0" /><line stroke="rgb(0,0,0)" x1="187.9327" x2="192.9327" y1="55.0" y2="55.0" /><line stroke="rgb(0,0,0)" x1="192.9327" x2="222.7261" y1="55.0" y2="55.0" /><line stroke="rgb(0,0,0)" x1="222.7261" x2="242.7261" y1="55.0" y2="55.0" /><line stroke="rgb(0,0,0)" x1="242.7261" x2="247.7261" y1="55.0" y2="55.0" /><line stroke="rgb(0,0,0)" x1="247.7261" x2="310.9271" y1="55.0" y2="55.0" /><line stroke="rgb(0,0,0)" x1="310.9271" x2="330.9271" y1="55.0" y2="55.0" /><line stroke="rgb(0,0,0)" x1="330.9271" x2="335.9271" y1="55.0" y2="55.0" /><line stroke="rgb(0,0,0)" x1="335.9271" x2="359.87559999999996" y1="55.0" y2="55.0" /><line stroke="rgb(0,0,0)" x1="359.87559999999996" x2="379.87559999999996" y1="55.0" y2="55.0" /><line stroke="rgb(0,0,0)" x1="379.87559999999996" x2="384.87559999999996" y1="55.0" y2="55.0" /><line stroke="rgb(0,0,0)" x1="384.87559999999996" x2="405.4040499999999" y1="55.0" y2="55.0" /><line stroke="rgb(0,0,0)" x1="405.4040499999999" x2="425.4040499999999" y1="55.0" y2="55.0" /><line stroke="rgb(0,0,0)" x1="425.4040499999999" x2="430.4040499999999" y1="55.0" y2="55.0" /><line stroke="rgb(0,0,0)" x1="430.4040499999999" x2="481.8549499999999" y1="55.0" y2="55.0" /><line stroke="rgb(0,0,0)" x1="481.8549499999999" x2="501.8549499999999" y1="55.0" y2="55.0" /><line stroke="rgb(0,0,0)" x1="501.8549499999999" x2="506.8549499999999" y1="55.0" y2="55.0" /><line stroke="rgb(0,0,0)" x1="506.8549499999999" x2="532.1598499999999" y1="55.0" y2="55.0" /><line stroke="rgb(0,0,0)" x1="532.1598499999999" x2="552.1598499999999" y1="55.0" y2="55.0" /><line stroke="rgb(0,0,0)" x1="552.1598499999999" x2="557.1598499999999" y1="55.0" y2="55.0" /><line stroke="rgb(0,0,0)" x1="557.1598499999999" x2="577.3383999999999" y1="55.0" y2="55.0" /><line stroke="rgb(0,0,0)" x1="577.3383999999999" x2="597.3383999999999" y1="55.0" y2="55.0" /><line stroke="rgb(0,0,0)" x1="597.3383999999999" x2="602.3383999999999" y1="55.0" y2="55.0" /><line stroke="rgb(0,0,0)" x1="602.3383999999999" x2="697.6198999999998" y1="55.0" y2="55.0" /><line stroke="rgb(0,0,0)" x1="697.6198999999998" x2="717.6198999999998" y1="55.0" y2="55.0" /><line stroke="rgb(0,0,0)" x1="717.6198999999998" x2="722.6198999999998" y1="55.0" y2="55.0" /><line stroke="rgb(0,0,0)" x1="722.6198999999998" x2="756.4660499999998" y1="55.0" y2="55.0" /><line stroke="rgb(0,0,0)" x1="756.4660499999998" x2="776.4660499999998" y1="55.0" y2="55.0" /><line stroke="rgb(0,0,0)" x1="776.4660499999998" x2="781.4660499999998" y1="55.0" y2="55.0" /><line stroke="rgb(0,0,0)" x1="781.4660499999998" x2="810.5884999999998" y1="55.0" y2="55.0" /><line stroke="rgb(0,0,0)" x1="810.5884999999998" x2="830.5884999999998" y1="55.0" y2="55.0" /><line stroke="rgb(0,0,0)" x1="830.5884999999998" x2="835.5884999999998" y1="55.0" y2="55.0" /><line stroke="rgb(0,0,0)" x1="835.5884999999998" x2="862.1833499999998" y1="55.0" y2="55.0" /><line stroke="rgb(0,0,0)" x1="862.1833499999998" x2="882.1833499999998" y1="55.0" y2="55.0" /><line stroke="rgb(0,0,0)" x1="882.1833499999998" x2="887.1833499999998" y1="55.0" y2="55.0" /><line stroke="rgb(0,0,0)" x1="887.1833499999998" x2="909.8882499999997" y1="55.0" y2="55.0" /><line stroke="rgb(0,0,0)" x1="909.8882499999997" x2="929.8882499999997" y1="55.0" y2="55.0" /><line stroke="rgb(0,0,0)" x1="929.8882499999997" x2="934.8882499999997" y1="55.0" y2="55.0" /><line stroke="rgb(0,0,0)" x1="934.8882499999997" x2="1020.7482499999998" y1="55.0" y2="55.0" /><line stroke="rgb(0,0,0)" x1="1020.7482499999998" x2="1040.7482499999996" y1="55.0" y2="55.0" /><line stroke="rgb(0,0,0)" x1="1040.7482499999996" x2="1045.7482499999996" y1="55.0" y2="55.0" /><line stroke="rgb(0,0,0)" x1="1045.7482499999996" x2="1074.2238499999999" y1="55.0" y2="55.0" /><line stroke="rgb(0,0,0)" x1="1074.2238499999999" x2="1094.2238499999999" y1="55.0" y2="55.0" /><line stroke="rgb(0,0,0)" x1="1094.2238499999999" x2="1099.2238499999999" y1="55.0" y2="55.0" /><line stroke="rgb(0,0,0)" x1="1099.2238499999999" x2="1130.1151499999996" y1="55.0" y2="55.0" /><line stroke="rgb(0,0,0)" x1="1130.1151499999996" x2="1150.1151499999996" y1="55.0" y2="55.0" /><line stroke="rgb(0,0,0)" x1="1150.1151499999996" x2="1155.1151499999996" y1="55.0" y2="55.0" /><line stroke="rgb(0,0,0)" x1="1155.1151499999996" x2="1166.8423999999998" y1="55.0" y2="55.0" /><line stroke="rgb(0,0,0)" x1="1166.8423999999998" x2="1186.8423999999998" y1="55.0" y2="55.0" /><line stroke="rgb(0,0,0)" x1="1186.8423999999998" x2="1191.8423999999998" y1="55.0" y2="55.0" /><line stroke="rgb(0,0,0)" x1="1191.8423999999998" x2="1232.0804999999998" y1="55.0" y2="55.0" /><line stroke="rgb(0,0,0)" x1="1232.0804999999998" x2="1252.0804999999998" y1="55.0" y2="55.0" /><line stroke="rgb(0,0,0)" x1="1252.0804999999998" x2="1257.0804999999998" y1="55.0" y2="55.0" /><line stroke="rgb(0,0,0)" x1="1257.0804999999998" x2="1314.2934999999998" y1="55.0" y2="55.0" /><line stroke="rgb(0,0,0)" x1="1314.2934999999998" x2="1334.2934999999998" y1="55.0" y2="55.0" /><line stroke="rgb(0,0,0)" x1="1334.2934999999998" x2="1339.2934999999998" y1="55.0" y2="55.0" /><line stroke="rgb(0,0,0)" x1="1339.2934999999998" x2="1351.1355999999998" y1="55.0" y2="55.0" /><line stroke="rgb(0,0,0)" x1="1351.1355999999998" x2="1371.1355999999998" y1="55.0" y2="55.0" /><line stroke="rgb(0,0,0)" x1="1371.1355999999998" x2="1376.1355999999998" y1="55.0" y2="55.0" /><line stroke="rgb(0,0,0)" x1="1376.1355999999998" x2="1451.8550999999998" y1="55.0" y2="55.0" /><line stroke="rgb(0,0,0)" x1="1451.8550999999998" x2="1471.8550999999998" y1="55.0" y2="55.0" /><line stroke="rgb(0,0,0)" x1="1471.8550999999998" x2="1476.8550999999998" y1="55.0" y2="55.0" /><line stroke="rgb(0,0,0)" x1="1476.8550999999998" x2="1498.9042999999995" y1="55.0" y2="55.0" /><line stroke="rgb(0,0,0)" x1="1498.9042999999995" x2="1518.9042999999995" y1="55.0" y2="55.0" /><line stroke="rgb(0,0,0)" x1="1518.9042999999995" x2="1523.9042999999995" y1="55.0" y2="55.0" /><rect fill="rgb(255,150,150)" height="100.0" stroke="rgb(0,0,0)" width="23.78" x="5.0" y="5.0" /><text fill="black" x="5.0" y="125.0">E9</text><rect fill="rgb(150,150,150)" height="99.2" stroke="rgb(0,0,0)" width="62.601000000000006" x="58.78" y="5.399999999999999" /><text fill="black" x="58.78" y="124.6">H14</text><rect fill="rgb(255,150,150)" height="23.200000000000003" stroke="rgb(0,0,0)" width="11.5517" x="151.38100000000003" y="43.4" /><text fill="black" x="151.38100000000003" y="86.6">E17</text><rect fill="rgb(255,150,150)" height="96.8" stroke="rgb(0,0,0)" width="24.793400000000002" x="192.9327" y="6.600000000000001" /><text fill="black" x="192.9327" y="123.4">E18</text><rect fill="rgb(150,150,150)" height="75.6" stroke="rgb(0,0,0)" width="58.201" x="247.7261" y="17.200000000000003" /><text fill="black" x="247.7261" y="112.8">H26</text><rect fill="rgb(255,150,150)" height="93.2" stroke="rgb(0,0,0)" width="18.9485" x="335.9271" y="8.399999999999999" /><text fill="black" x="335.9271" y="121.6">E37</text><rect fill="rgb(150,150,150)" height="49.2" stroke="rgb(0,0,0)" width="15.52845" x="384.87559999999996" y="30.4" /><text fill="black" x="384.87559999999996" y="99.6">H40</text><rect fill="rgb(150,150,150)" height="89.60000000000001" stroke="rgb(0,0,0)" width="46.4509" x="430.4040499999999" y="10.199999999999996" /><text fill="black" x="430.4040499999999" y="119.80000000000001">H49</text><rect fill="rgb(255,150,150)" height="98.4" stroke="rgb(0,0,0)" width="20.3049" x="506.8549499999999" y="5.799999999999997" /><text fill="black" x="506.8549499999999" y="124.2">E55</text><rect fill="rgb(150,150,150)" height="22.400000000000002" stroke="rgb(0,0,0)" width="15.17855" x="557.1598499999999" y="43.8" /><text fill="black" x="557.1598499999999" y="86.2">H90</text><rect fill="rgb(150,150,150)" height="85.2" stroke="rgb(0,0,0)" width="90.2815" x="602.3383999999999" y="12.399999999999999" /><text fill="black" x="602.3383999999999" y="117.6">H91</text><rect fill="rgb(150,150,150)" height="20.8" stroke="rgb(0,0,0)" width="28.84615" x="722.6198999999998" y="44.6" /><text fill="black" x="722.6198999999998" y="85.4">H92</text><rect fill="rgb(255,150,150)" height="98.0" stroke="rgb(0,0,0)" width="24.12245" x="781.4660499999998" y="6.0" /><text fill="black" x="781.4660499999998" y="124.0">E95</text><rect fill="rgb(150,150,150)" height="46.400000000000006" stroke="rgb(0,0,0)" width="21.59485" x="835.5884999999998" y="31.799999999999997" /><text fill="black" x="835.5884999999998" y="98.2">H97</text><rect fill="rgb(150,150,150)" height="24.4" stroke="rgb(0,0,0)" width="17.7049" x="887.1833499999998" y="42.8" /><text fill="black" x="887.1833499999998" y="87.2">H116</text><rect fill="rgb(150,150,150)" height="74.4" stroke="rgb(0,0,0)" width="80.86" x="934.8882499999997" y="17.799999999999997" /><text fill="black" x="934.8882499999997" y="112.2">H118</text><rect fill="rgb(150,150,150)" height="32.800000000000004" stroke="rgb(0,0,0)" width="23.4756" x="1045.7482499999996" y="38.599999999999994" /><text fill="black" x="1045.7482499999996" y="91.4">H123</text><rect fill="rgb(255,150,150)" height="92.0" stroke="rgb(0,0,0)" width="25.8913" x="1099.2238499999999" y="9.0" /><text fill="black" x="1099.2238499999999" y="121.0">E125</text><rect fill="rgb(150,150,255)" height="22.0" stroke="rgb(0,0,0)" width="6.72725" x="1155.1151499999996" y="44.0" /><text fill="black" x="1155.1151499999996" y="86.0">E126</text><rect fill="rgb(150,150,150)" height="25.2" stroke="rgb(0,0,0)" width="35.2381" x="1191.8423999999998" y="42.4" /><text fill="black" x="1191.8423999999998" y="87.6">H130</text><rect fill="rgb(150,150,150)" height="24.4" stroke="rgb(0,0,0)" width="52.213" x="1257.0804999999998" y="42.8" /><text fill="black" x="1257.0804999999998" y="87.2">H134</text><rect fill="rgb(150,150,255)" height="22.8" stroke="rgb(0,0,0)" width="6.8421" x="1339.2934999999998" y="43.6" /><text fill="black" x="1339.2934999999998" y="86.4">E136</text><rect fill="rgb(150,150,150)" height="55.60000000000001" stroke="rgb(0,0,0)" width="70.7195" x="1376.1355999999998" y="27.199999999999996" /><text fill="black" x="1376.1355999999998" y="102.80000000000001">H142</text><rect fill="rgb(150,150,150)" height="24.4" stroke="rgb(0,0,0)" width="17.0492" x="1476.8550999999998" y="42.8" /><text fill="black" x="1476.8550999999998" y="87.2">H149</text><rect fill="rgb(255,150,150)" height="47.599999999999994" stroke="rgb(0,0,0)" width="21.63865" x="1523.9042999999995" y="31.200000000000003" /><text fill="black" x="1523.9042999999995" y="98.8">E152</text></svg>