<?xml version="1.0" encoding="utf-8" ?>
<svg baseProfile="full" height="100%" style="font-size:14;font-family:Sans, Arial;stroke-width:1;fill:none" version="1.1" width="100%" xmlns="http://www.w3.org/2000/svg" xmlns:ev="http://www.w3.org/2001/xml-events" xmlns:xlink="http://www.w3.org/1999/xlink"><defs /><rect fill="none" height="150.0" stroke="none" width="1310.5429499999996" x="0" y="0" /><line stroke="rgb(0,0,0)" x1="5.0" x2="33.78" y1="75.0" y2="75.0" /><line stroke="rgb(0,0,0)" x1="33.78" x2="43.78" y1="75.0" y2="75.0" /><line stroke="rgb(0,0,0)" x1="43.78" x2="48.78" y1="75.0" y2="75.0" /><line stroke="rgb(0,0,0)" x1="48.78" x2="116.38100000000001" y1="75.0" y2="75.0" /><line stroke="rgb(0,0,0)" x1="116.38100000000001" x2="126.38100000000003" y1="75.0" y2="75.0" /><line stroke="rgb(0,0,0)" x1="126.38100000000003" x2="131.38100000000003" y1="75.0" y2="75.0" /><line stroke="rgb(0,0,0)" x1="131.38100000000003" x2="147.9327" y1="75.0" y2="75.0" /><line stroke="rgb(0,0,0)" x1="147.9327" x2="157.9327" y1="75.0" y2="75.0" /><line stroke="rgb(0,0,0)" x1="157.9327" x2="162.9327" y1="75.0" y2="75.0" /><line stroke="rgb(0,0,0)" x1="162.9327" x2="192.7261" y1="75.0" y2="75.0" /><line stroke="rgb(0,0,0)" x1="192.7261" x2="202.7261" y1="75.0" y2="75.0" /><line stroke="rgb(0,0,0)" x1="202.7261" x2="207.7261" y1="75.0" y2="75.0" /><line stroke="rgb(0,0,0)" x1="207.7261" x2="270.9271" y1="75.0" y2="75.0" /><line stroke="rgb(0,0,0)" x1="270.9271" x2="280.9271" y1="75.0" y2="75.0" /><line stroke="rgb(0,0,0)" x1="280.9271" x2="285.9271" y1="75.0" y2="75.0" /><line stroke="rgb(0,0,0)" x1="285.9271" x2="309.8756" y1="75.0" y2="75.0" /><line stroke="rgb(0,0,0)" x1="309.8756" x2="319.8756" y1="75.0" y2="75.0" /><line stroke="rgb(0,0,0)" x1="319.8756" x2="324.8756" y1="75.0" y2="75.0" /><line stroke="rgb(0,0,0)" x1="324.8756" x2="345.40405" y1="75.0" y2="75.0" /><line stroke="rgb(0,0,0)" x1="345.40405" x2="355.40405" y1="75.0" y2="75.0" /><line stroke="rgb(0,0,0)" x1="355.40405" x2="360.40405" y1="75.0" y2="75.0" /><line stroke="rgb(0,0,0)" x1="360.40405" x2="411.85495000000003" y1="75.0" y2="75.0" /><line stroke="rgb(0,0,0)" x1="411.85495000000003" x2="421.85495000000003" y1="75.0" y2="75.0" /><line stroke="rgb(0,0,0)" x1="421.85495000000003" x2="426.85495000000003" y1="75.0" y2="75.0" /><line stroke="rgb(0,0,0)" x1="426.85495000000003" x2="452.15985" y1="75.0" y2="75.0" /><line stroke="rgb(0,0,0)" x1="452.15985" x2="462.15985" y1="75.0" y2="75.0" /><line stroke="rgb(0,0,0)" x1="462.15985" x2="467.15985" y1="75.0" y2="75.0" /><line stroke="rgb(0,0,0)" x1="467.15985" x2="487.3384" y1="75.0" y2="75.0" /><line stroke="rgb(0,0,0)" x1="487.3384" x2="497.3384" y1="75.0" y2="75.0" /><line stroke="rgb(0,0,0)" x1="497.3384" x2="502.3384" y1="75.0" y2="75.0" /><line stroke="rgb(0,0,0)" x1="502.3384" x2="597.6198999999999" y1="75.0" y2="75.0" /><line stroke="rgb(0,0,0)" x1="597.6198999999999" x2="607.6198999999999" y1="75.0" y2="75.0" /><line stroke="rgb(0,0,0)" x1="607.6198999999999" x2="612.6198999999999" y1="75.0" y2="75.0" /><line stroke="rgb(0,0,0)" x1="612.6198999999999" x2="646.46605" y1="75.0" y2="75.0" /><line stroke="rgb(0,0,0)" x1="646.46605" x2="656.46605" y1="75.0" y2="75.0" /><line stroke="rgb(0,0,0)" x1="656.46605" x2="661.46605" y1="75.0" y2="75.0" /><line stroke="rgb(0,0,0)" x1="661.46605" x2="690.5885" y1="75.0" y2="75.0" /><line stroke="rgb(0,0,0)" x1="690.5885" x2="700.5885" y1="75.0" y2="75.0" /><line stroke="rgb(0,0,0)" x1="700.5885" x2="705.5885" y1="75.0" y2="75.0" /><line stroke="rgb(0,0,0)" x1="705.5885" x2="732.18335" y1="75.0" y2="75.0" /><line stroke="rgb(0,0,0)" x1="732.18335" x2="742.18335" y1="75.0" y2="75.0" /><line stroke="rgb(0,0,0)" x1="742.18335" x2="747.18335" y1="75.0" y2="75.0" /><line stroke="rgb(0,0,0)" x1="747.18335" x2="769.88825" y1="75.0" y2="75.0" /><line stroke="rgb(0,0,0)" x1="769.88825" x2="779.88825" y1="75.0" y2="75.0" /><line stroke="rgb(0,0,0)" x1="779.88825" x2="784.88825" y1="75.0" y2="75.0" /><line stroke="rgb(0,0,0)" x1="784.88825" x2="870.7482499999999" y1="75.0" y2="75.0" /><line stroke="rgb(0,0,0)" x1="870.7482499999999" x2="880.7482499999999" y1="75.0" y2="75.0" /><line stroke="rgb(0,0,0)" x1="880.7482499999999" x2="885.7482499999999" y1="75.0" y2="75.0" /><line stroke="rgb(0,0,0)" x1="885.7482499999999" x2="914.2238499999999" y1="75.0" y2="75.0" /><line stroke="rgb(0,0,0)" x1="914.2238499999999" x2="924.2238499999999" y1="75.0" y2="75.0" /><line stroke="rgb(0,0,0)" x1="924.2238499999999" x2="929.2238499999999" y1="75.0" y2="75.0" /><line stroke="rgb(0,0,0)" x1="929.2238499999999" x2="960.1151499999999" y1="75.0" y2="75.0" /><line stroke="rgb(0,0,0)" x1="960.1151499999999" x2="970.1151499999999" y1="75.0" y2="75.0" /><line stroke="rgb(0,0,0)" x1="970.1151499999999" x2="975.1151499999999" y1="75.0" y2="75.0" /><line stroke="rgb(0,0,0)" x1="975.1151499999999" x2="986.8423999999999" y1="75.0" y2="75.0" /><line stroke="rgb(0,0,0)" x1="986.8423999999999" x2="996.8423999999999" y1="75.0" y2="75.0" /><line stroke="rgb(0,0,0)" x1="996.8423999999999" x2="1001.8423999999999" y1="75.0" y2="75.0" /><line stroke="rgb(0,0,0)" x1="1001.8423999999999" x2="1042.0804999999998" y1="75.0" y2="75.0" /><line stroke="rgb(0,0,0)" x1="1042.0804999999998" x2="1052.0804999999998" y1="75.0" y2="75.0" /><line stroke="rgb(0,0,0)" x1="1052.0804999999998" x2="1057.0804999999998" y1="75.0" y2="75.0" /><line stroke="rgb(0,0,0)" x1="1057.0804999999998" x2="1114.2934999999998" y1="75.0" y2="75.0" /><line stroke="rgb(0,0,0)" x1="1114.2934999999998" x2="1124.2934999999998" y1="75.0" y2="75.0" /><line stroke="rgb(0,0,0)" x1="1124.2934999999998" x2="1129.2934999999998" y1="75.0" y2="75.0" /><line stroke="rgb(0,0,0)" x1="1129.2934999999998" x2="1141.1355999999998" y1="75.0" y2="75.0" /><line stroke="rgb(0,0,0)" x1="1141.1355999999998" x2="1151.1355999999998" y1="75.0" y2="75.0" /><line stroke="rgb(0,0,0)" x1="1151.1355999999998" x2="1156.1355999999998" y1="75.0" y2="75.0" /><line stroke="rgb(0,0,0)" x1="1156.1355999999998" x2="1231.8550999999998" y1="75.0" y2="75.0" /><line stroke="rgb(0,0,0)" x1="1231.8550999999998" x2="1241.8550999999998" y1="75.0" y2="75.0" /><line stroke="rgb(0,0,0)" x1="1241.8550999999998" x2="1246.8550999999998" y1="75.0" y2="75.0" /><line stroke="rgb(0,0,0)" x1="1246.8550999999998" x2="1268.9042999999997" y1="75.0" y2="75.0" /><line stroke="rgb(0,0,0)" x1="1268.9042999999997" x2="1278.9042999999997" y1="75.0" y2="75.0" /><line stroke="rgb(0,0,0)" x1="1278.9042999999997" x2="1283.9042999999997" y1="75.0" y2="75.0" /><rect fill="rgb(112,88,255)" height="100.0" stroke="rgb(0,0,0)" width="23.78" x="5.0" y="25.0" /><text fill="black" x="5.0" y="145.0">E9</text><rect fill="rgb(128,100,255)" height="99.2" stroke="rgb(0,0,0)" width="62.601000000000006" x="48.78" y="25.4" /><text fill="black" x="48.78" y="144.6">H14</text><rect fill="rgb(219,171,255)" height="23.200000000000003" stroke="rgb(0,0,0)" width="11.5517" x="131.38100000000003" y="63.4" /><text fill="black" x="131.38100000000003" y="106.6">E17</text><rect fill="rgb(170,133,255)" height="96.8" stroke="rgb(0,0,0)" width="24.793400000000002" x="162.9327" y="26.6" /><text fill="black" x="162.9327" y="143.4">E18</text><rect fill="rgb(255,143,183)" height="75.6" stroke="rgb(0,0,0)" width="58.201" x="207.7261" y="37.2" /><text fill="black" x="207.7261" y="132.8">H26</text><rect fill="rgb(249,195,255)" height="93.2" stroke="rgb(0,0,0)" width="18.9485" x="285.9271" y="28.4" /><text fill="black" x="285.9271" y="141.6">E37</text><rect fill="rgb(255,188,240)" height="49.2" stroke="rgb(0,0,0)" width="15.52845" x="324.8756" y="50.4" /><text fill="black" x="324.8756" y="119.6">H40</text><rect fill="rgb(255,154,197)" height="89.60000000000001" stroke="rgb(0,0,0)" width="46.4509" x="360.40405" y="30.199999999999996" /><text fill="black" x="360.40405" y="139.8">H49</text><rect fill="rgb(63,49,255)" height="98.4" stroke="rgb(0,0,0)" width="20.3049" x="426.85495000000003" y="25.799999999999997" /><text fill="black" x="426.85495000000003" y="144.2">E55</text><rect fill="rgb(75,59,255)" height="22.400000000000002" stroke="rgb(0,0,0)" width="15.17855" x="467.15985" y="63.8" /><text fill="black" x="467.15985" y="106.2">H90</text><rect fill="rgb(255,50,64)" height="85.2" stroke="rgb(0,0,0)" width="90.2815" x="502.3384" y="32.4" /><text fill="black" x="502.3384" y="137.6">H91</text><rect fill="rgb(255,116,148)" height="20.8" stroke="rgb(0,0,0)" width="28.84615" x="612.6198999999999" y="64.6" /><text fill="black" x="612.6198999999999" y="105.4">H92</text><rect fill="rgb(176,138,255)" height="98.0" stroke="rgb(0,0,0)" width="24.12245" x="661.46605" y="26.0" /><text fill="black" x="661.46605" y="144.0">E95</text><rect fill="rgb(255,62,79)" height="46.400000000000006" stroke="rgb(0,0,0)" width="21.59485" x="705.5885" y="51.8" /><text fill="black" x="705.5885" y="118.2">H97</text><rect fill="rgb(255,188,240)" height="24.4" stroke="rgb(0,0,0)" width="17.7049" x="747.18335" y="62.8" /><text fill="black" x="747.18335" y="107.2">H116</text><rect fill="rgb(255,45,58)" height="74.4" stroke="rgb(0,0,0)" width="80.86" x="784.88825" y="37.8" /><text fill="black" x="784.88825" y="132.2">H118</text><rect fill="rgb(255,116,149)" height="32.800000000000004" stroke="rgb(0,0,0)" width="23.4756" x="885.7482499999999" y="58.599999999999994" /><text fill="black" x="885.7482499999999" y="111.4">H123</text><rect fill="rgb(255,157,200)" height="92.0" stroke="rgb(0,0,0)" width="25.8913" x="929.2238499999999" y="29.0" /><text fill="black" x="929.2238499999999" y="141.0">E125</text><rect fill="rgb(189,148,255)" height="22.0" stroke="rgb(0,0,0)" width="6.72725" x="975.1151499999999" y="64.0" /><text fill="black" x="975.1151499999999" y="106.0">E126</text><rect fill="rgb(255,72,92)" height="25.2" stroke="rgb(0,0,0)" width="35.2381" x="1001.8423999999999" y="62.4" /><text fill="black" x="1001.8423999999999" y="107.6">H130</text><rect fill="rgb(255,73,93)" height="24.4" stroke="rgb(0,0,0)" width="52.213" x="1057.0804999999998" y="62.8" /><text fill="black" x="1057.0804999999998" y="107.2">H134</text><rect fill="rgb(255,196,249)" height="22.8" stroke="rgb(0,0,0)" width="6.8421" x="1129.2934999999998" y="63.6" /><text fill="black" x="1129.2934999999998" y="106.4">E136</text><rect fill="rgb(255,165,211)" height="55.60000000000001" stroke="rgb(0,0,0)" width="70.7195" x="1156.1355999999998" y="47.199999999999996" /><text fill="black" x="1156.1355999999998" y="122.80000000000001">H142</text><rect fill="rgb(172,135,255)" height="24.4" stroke="rgb(0,0,0)" width="17.0492" x="1246.8550999999998" y="62.8" /><text fill="black" x="1246.8550999999998" y="107.2">H149</text><rect fill="rgb(255,47,60)" height="47.599999999999994" stroke="rgb(0,0,0)" width="21.63865" x="1283.9042999999997" y="51.2" /><text fill="black" x="1283.9042999999997" y="118.8">E152</text><path d="M 16.89,75.0 a 60.372989111187515,60.372989111187515 0 0,0 120.26685000000002,-0.0" stroke="rgb(112,88,255)" stroke-width="2" /><path d="M 16.89,75.0 a 60.372989111187515,60.372989111187515 0 0,0 120.26685000000002,-0.0" stroke="rgb(0,0,0)" stroke-width="0.2" /><path d="M 16.89,75.0 a 84.55237152809093,84.55237152809093 0 0,0 158.43940000000003,-0.0" stroke="rgb(112,88,255)" stroke-width="2" /><path d="M 16.89,75.0 a 84.55237152809093,84.55237152809093 0 0,0 158.43940000000003,-0.0" stroke="rgb(0,0,0)" stroke-width="0.2" /><path d="M 16.89,75.0 a 428.63324950627276,428.63324950627276 0 0,0 420.11740000000003,-0.0" stroke="rgb(112,88,255)" stroke-width="2" /><path d="M 16.89,75.0 a 428.63324950627276,428.63324950627276 0 0,0 420.11740000000003,-0.0" stroke="rgb(0,0,0)" stroke-width="0.2" /><path d="M 175.32940000000002,75.0 a 60.266529947278386,60.266529947278386 0 0,0 120.07194999999996,-0.0" stroke="rgb(170,133,255)" stroke-width="2" /><path d="M 175.32940000000002,75.0 a 60.266529947278386,60.266529947278386 0 0,0 120.07194999999996,-0.0" stroke="rgb(0,0,0)" stroke-width="0.2" /><path d="M 437.0074,75.0 a 154.6401165227628,154.6401165227628 0 0,0 236.519875,-0.0" stroke="rgb(63,49,255)" stroke-width="2" /><path d="M 437.0074,75.0 a 154.6401165227628,154.6401165227628 0 0,0 236.519875,-0.0" stroke="rgb(0,0,0)" stroke-width="0.2" /><path d="M 673.527275,75.0 a 191.51964784761486,191.51964784761486 0 0,0 268.6422249999998,-0.0" stroke="rgb(176,138,255)" stroke-width="2" /><path d="M 673.527275,75.0 a 191.51964784761486,191.51964784761486 0 0,0 268.6422249999998,-0.0" stroke="rgb(0,0,0)" stroke-width="0.2" /><path d="M 942.1694999999999,75.0 a 309.98729785117155,309.98729785117155 0 0,0 352.5541249999998,-0.0" stroke="rgb(255,157,200)" stroke-width="2" /><path d="M 942.1694999999999,75.0 a 309.98729785117155,309.98729785117155 0 0,0 352.5541249999998,-0.0" stroke="rgb(0,0,0)" stroke-width="0.2" /><path d="M 978.4787749999998,75.0 a 81.56516884056953,81.56516884056953 0 0,0 154.23577499999988,-0.0" stroke="rgb(189,148,255)" stroke-width="2" /><path d="M 978.4787749999998,75.0 a 81.56516884056953,81.56516884056953 0 0,0 154.23577499999988,-0.0" stroke="rgb(0,0,0)" stroke-width="0.2" /></svg>