<?xml version="1.0" encoding="utf-8" ?>
<svg baseProfile="full" height="100%" style="font-size:14;font-family:Sans, Arial;stroke-width:1;fill:none" version="1.1" width="100%" xmlns="http://www.w3.org/2000/svg" xmlns:ev="http://www.w3.org/2001/xml-events" xmlns:xlink="http://www.w3.org/1999/xlink"><defs /><rect fill="none" height="300.0" stroke="none" width="2333.0318500000003" x="0" y="0" /><line stroke="rgb(0,0,0)" x1="5.0" x2="36.0" y1="150.0" y2="150.0" /><line stroke="rgb(0,0,0)" x1="36.0" x2="46.0" y1="150.0" y2="150.0" /><line stroke="rgb(0,0,0)" x1="46.0" x2="51.0" y1="150.0" y2="150.0" /><line stroke="rgb(0,0,0)" x1="51.0" x2="61.0" y1="150.0" y2="150.0" /><line stroke="rgb(0,0,0)" x1="61.0" x2="71.0" y1="150.0" y2="150.0" /><line stroke="rgb(0,0,0)" x1="71.0" x2="76.0" y1="150.0" y2="150.0" /><line stroke="rgb(0,0,0)" x1="76.0" x2="81.0" y1="150.0" y2="150.0" /><line stroke="rgb(0,0,0)" x1="81.0" x2="91.0" y1="150.0" y2="150.0" /><line stroke="rgb(0,0,0)" x1="91.0" x2="96.0" y1="150.0" y2="150.0" /><line stroke="rgb(0,0,0)" x1="96.0" x2="119.0488" y1="150.0" y2="150.0" /><line stroke="rgb(0,0,0)" x1="119.0488" x2="129.0488" y1="150.0" y2="150.0" /><line stroke="rgb(0,0,0)" x1="129.0488" x2="134.0488" y1="150.0" y2="150.0" /><line stroke="rgb(0,0,0)" x1="134.0488" x2="161.8266" y1="150.0" y2="150.0" /><line stroke="rgb(0,0,0)" x1="161.8266" x2="171.82659999999998" y1="150.0" y2="150.0" /><line stroke="rgb(0,0,0)" x1="171.82659999999998" x2="176.82659999999998" y1="150.0" y2="150.0" /><line stroke="rgb(0,0,0)" x1="176.82659999999998" x2="208.07659999999998" y1="150.0" y2="150.0" /><line stroke="rgb(0,0,0)" x1="208.07659999999998" x2="218.07659999999998" y1="150.0" y2="150.0" /><line stroke="rgb(0,0,0)" x1="218.07659999999998" x2="223.07659999999998" y1="150.0" y2="150.0" /><line stroke="rgb(0,0,0)" x1="223.07659999999998" x2="249.05925" y1="150.0" y2="150.0" /><line stroke="rgb(0,0,0)" x1="249.05925" x2="259.05925" y1="150.0" y2="150.0" /><line stroke="rgb(0,0,0)" x1="259.05925" x2="264.05925" y1="150.0" y2="150.0" /><line stroke="rgb(0,0,0)" x1="264.05925" x2="280.07965" y1="150.0" y2="150.0" /><line stroke="rgb(0,0,0)" x1="280.07965" x2="290.07965" y1="150.0" y2="150.0" /><line stroke="rgb(0,0,0)" x1="290.07965" x2="295.07965" y1="150.0" y2="150.0" /><line stroke="rgb(0,0,0)" x1="295.07965" x2="300.07965" y1="150.0" y2="150.0" /><line stroke="rgb(0,0,0)" x1="300.07965" x2="310.07965" y1="150.0" y2="150.0" /><line stroke="rgb(0,0,0)" x1="310.07965" x2="315.07965" y1="150.0" y2="150.0" /><line stroke="rgb(0,0,0)" x1="315.07965" x2="362.1817" y1="150.0" y2="150.0" /><line stroke="rgb(0,0,0)" x1="362.1817" x2="372.1817" y1="150.0" y2="150.0" /><line stroke="rgb(0,0,0)" x1="372.1817" x2="377.1817" y1="150.0" y2="150.0" /><line stroke="rgb(0,0,0)" x1="377.1817" x2="397.1817" y1="150.0" y2="150.0" /><line stroke="rgb(0,0,0)" x1="397.1817" x2="407.1817" y1="150.0" y2="150.0" /><line stroke="rgb(0,0,0)" x1="407.1817" x2="412.1817" y1="150.0" y2="150.0" /><line stroke="rgb(0,0,0)" x1="412.1817" x2="450.32985" y1="150.0" y2="150.0" /><line stroke="rgb(0,0,0)" x1="450.32985" x2="460.32985" y1="150.0" y2="150.0" /><line stroke="rgb(0,0,0)" x1="460.32985" x2="465.32985" y1="150.0" y2="150.0" /><line stroke="rgb(0,0,0)" x1="465.32985" x2="515.4125" y1="150.0" y2="150.0" /><line stroke="rgb(0,0,0)" x1="515.4125" x2="525.4125" y1="150.0" y2="150.0" /><line stroke="rgb(0,0,0)" x1="525.4125" x2="530.4125" y1="150.0" y2="150.0" /><line stroke="rgb(0,0,0)" x1="530.4125" x2="556.1268" y1="150.0" y2="150.0" /><line stroke="rgb(0,0,0)" x1="556.1268" x2="566.1268" y1="150.0" y2="75.0" /><line stroke="rgb(0,0,0)" x1="566.1268" x2="571.1268" y1="75.0" y2="75.0" /><line stroke="rgb(0,0,0)" x1="530.4125" x2="556.1268" y1="150.0" y2="150.0" /><line stroke="rgb(0,0,0)" x1="556.1268" x2="566.1268" y1="150.0" y2="225.0" /><line stroke="rgb(0,0,0)" x1="566.1268" x2="571.1268" y1="225.0" y2="225.0" /><line stroke="rgb(0,0,0)" x1="571.1268" x2="576.1268" y1="75.0" y2="75.0" /><line stroke="rgb(0,0,0)" x1="576.1268" x2="593.5077500000001" y1="75.0" y2="75.0" /><line stroke="rgb(0,0,0)" x1="593.5077500000001" x2="598.5077500000001" y1="75.0" y2="75.0" /><line stroke="rgb(0,0,0)" x1="571.1268" x2="583.5077500000001" y1="225.0" y2="225.0" /><line stroke="rgb(0,0,0)" x1="583.5077500000001" x2="593.5077500000001" y1="225.0" y2="225.0" /><line stroke="rgb(0,0,0)" x1="593.5077500000001" x2="598.5077500000001" y1="225.0" y2="225.0" /><line stroke="rgb(0,0,0)" x1="598.5077500000001" x2="603.5077500000001" y1="75.0" y2="75.0" /><line stroke="rgb(0,0,0)" x1="603.5077500000001" x2="618.5077500000001" y1="75.0" y2="150.0" /><line stroke="rgb(0,0,0)" x1="618.5077500000001" x2="623.5077500000001" y1="150.0" y2="150.0" /><line stroke="rgb(0,0,0)" x1="598.5077500000001" x2="608.5077500000001" y1="225.0" y2="225.0" /><line stroke="rgb(0,0,0)" x1="608.5077500000001" x2="618.5077500000001" y1="225.0" y2="150.0" /><line stroke="rgb(0,0,0)" x1="618.5077500000001" x2="623.5077500000001" y1="150.0" y2="150.0" /><line stroke="rgb(0,0,0)" x1="623.5077500000001" x2="665.2628500000001" y1="150.0" y2="150.0" /><line stroke="rgb(0,0,0)" x1="665.2628500000001" x2="675.2628500000001" y1="150.0" y2="75.0" /><line stroke="rgb(0,0,0)" x1="675.2628500000001" x2="680.2628500000001" y1="75.0" y2="75.0" /><line stroke="rgb(0,0,0)" x1="623.5077500000001" x2="665.2628500000001" y1="150.0" y2="150.0" /><line stroke="rgb(0,0,0)" x1="665.2628500000001" x2="675.2628500000001" y1="150.0" y2="225.0" /><line stroke="rgb(0,0,0)" x1="675.2628500000001" x2="680.2628500000001" y1="225.0" y2="225.0" /><line stroke="rgb(0,0,0)" x1="680.2628500000001" x2="685.2628500000001" y1="75.0" y2="75.0" /><line stroke="rgb(0,0,0)" x1="685.2628500000001" x2="710.2628500000001" y1="75.0" y2="150.0" /><line stroke="rgb(0,0,0)" x1="710.2628500000001" x2="715.2628500000001" y1="150.0" y2="150.0" /><line stroke="rgb(0,0,0)" x1="715.2628500000001" x2="726.0962000000001" y1="150.0" y2="150.0" /><line stroke="rgb(0,0,0)" x1="726.0962000000001" x2="736.0962000000001" y1="150.0" y2="150.0" /><line stroke="rgb(0,0,0)" x1="736.0962000000001" x2="741.0962000000001" y1="150.0" y2="150.0" /><line stroke="rgb(0,0,0)" x1="680.2628500000001" x2="700.2628500000001" y1="225.0" y2="225.0" /><line stroke="rgb(0,0,0)" x1="700.2628500000001" x2="736.0962000000001" y1="225.0" y2="150.0" /><line stroke="rgb(0,0,0)" x1="736.0962000000001" x2="741.0962000000001" y1="150.0" y2="150.0" /><line stroke="rgb(0,0,0)" x1="741.0962000000001" x2="786.1778500000001" y1="150.0" y2="150.0" /><line stroke="rgb(0,0,0)" x1="786.1778500000001" x2="796.1778500000001" y1="150.0" y2="150.0" /><line stroke="rgb(0,0,0)" x1="796.1778500000001" x2="801.1778500000001" y1="150.0" y2="150.0" /><line stroke="rgb(0,0,0)" x1="801.1778500000001" x2="818.6778500000001" y1="150.0" y2="150.0" /><line stroke="rgb(0,0,0)" x1="818.6778500000001" x2="828.6778500000001" y1="150.0" y2="150.0" /><line stroke="rgb(0,0,0)" x1="828.6778500000001" x2="833.6778500000001" y1="150.0" y2="150.0" /><line stroke="rgb(0,0,0)" x1="833.6778500000001" x2="856.8830000000002" y1="150.0" y2="150.0" /><line stroke="rgb(0,0,0)" x1="856.8830000000002" x2="866.8830000000002" y1="150.0" y2="150.0" /><line stroke="rgb(0,0,0)" x1="866.8830000000002" x2="871.8830000000002" y1="150.0" y2="150.0" /><line stroke="rgb(0,0,0)" x1="871.8830000000002" x2="889.3830000000002" y1="150.0" y2="150.0" /><line stroke="rgb(0,0,0)" x1="889.3830000000002" x2="899.3830000000002" y1="150.0" y2="150.0" /><line stroke="rgb(0,0,0)" x1="899.3830000000002" x2="904.3830000000002" y1="150.0" y2="150.0" /><line stroke="rgb(0,0,0)" x1="904.3830000000002" x2="952.1084000000002" y1="150.0" y2="150.0" /><line stroke="rgb(0,0,0)" x1="952.1084000000002" x2="962.1084000000002" y1="150.0" y2="150.0" /><line stroke="rgb(0,0,0)" x1="962.1084000000002" x2="967.1084000000002" y1="150.0" y2="150.0" /><line stroke="rgb(0,0,0)" x1="967.1084000000002" x2="986.3941000000001" y1="150.0" y2="150.0" /><line stroke="rgb(0,0,0)" x1="986.3941000000001" x2="996.3941000000001" y1="150.0" y2="150.0" /><line stroke="rgb(0,0,0)" x1="996.3941000000001" x2="1001.3941000000001" y1="150.0" y2="150.0" /><line stroke="rgb(0,0,0)" x1="1001.3941000000001" x2="1021.3941000000001" y1="150.0" y2="150.0" /><line stroke="rgb(0,0,0)" x1="1021.3941000000001" x2="1031.3941000000002" y1="150.0" y2="150.0" /><line stroke="rgb(0,0,0)" x1="1031.3941000000002" x2="1036.3941000000002" y1="150.0" y2="150.0" /><line stroke="rgb(0,0,0)" x1="1036.3941000000002" x2="1063.52455" y1="150.0" y2="150.0" /><line stroke="rgb(0,0,0)" x1="1063.52455" x2="1073.52455" y1="150.0" y2="75.0" /><line stroke="rgb(0,0,0)" x1="1073.52455" x2="1078.52455" y1="75.0" y2="75.0" /><line stroke="rgb(0,0,0)" x1="1036.3941000000002" x2="1063.52455" y1="150.0" y2="150.0" /><line stroke="rgb(0,0,0)" x1="1063.52455" x2="1073.52455" y1="150.0" y2="225.0" /><line stroke="rgb(0,0,0)" x1="1073.52455" x2="1078.52455" y1="225.0" y2="225.0" /><line stroke="rgb(0,0,0)" x1="1078.52455" x2="1098.52455" y1="75.0" y2="75.0" /><line stroke="rgb(0,0,0)" x1="1098.52455" x2="1115.8579" y1="75.0" y2="150.0" /><line stroke="rgb(0,0,0)" x1="1115.8579" x2="1120.8579" y1="150.0" y2="150.0" /><line stroke="rgb(0,0,0)" x1="1078.52455" x2="1105.8579" y1="225.0" y2="225.0" /><line stroke="rgb(0,0,0)" x1="1105.8579" x2="1115.8579" y1="225.0" y2="150.0" /><line stroke="rgb(0,0,0)" x1="1115.8579" x2="1120.8579" y1="150.0" y2="150.0" /><line stroke="rgb(0,0,0)" x1="1120.8579" x2="1160.63065" y1="150.0" y2="150.0" /><line stroke="rgb(0,0,0)" x1="1160.63065" x2="1170.63065" y1="150.0" y2="150.0" /><line stroke="rgb(0,0,0)" x1="1170.63065" x2="1175.63065" y1="150.0" y2="150.0" /><line stroke="rgb(0,0,0)" x1="1175.63065" x2="1195.63065" y1="150.0" y2="150.0" /><line stroke="rgb(0,0,0)" x1="1195.63065" x2="1205.63065" y1="150.0" y2="150.0" /><line stroke="rgb(0,0,0)" x1="1205.63065" x2="1210.63065" y1="150.0" y2="150.0" /><line stroke="rgb(0,0,0)" x1="1210.63065" x2="1247.7735000000002" y1="150.0" y2="150.0" /><line stroke="rgb(0,0,0)" x1="1247.7735000000002" x2="1257.7735000000002" y1="150.0" y2="75.0" /><line stroke="rgb(0,0,0)" x1="1257.7735000000002" x2="1262.7735000000002" y1="75.0" y2="75.0" /><line stroke="rgb(0,0,0)" x1="1210.63065" x2="1247.7735000000002" y1="150.0" y2="150.0" /><line stroke="rgb(0,0,0)" x1="1247.7735000000002" x2="1257.7735000000002" y1="150.0" y2="225.0" /><line stroke="rgb(0,0,0)" x1="1257.7735000000002" x2="1262.7735000000002" y1="225.0" y2="225.0" /><line stroke="rgb(0,0,0)" x1="1262.7735000000002" x2="1267.7735000000002" y1="225.0" y2="225.0" /><line stroke="rgb(0,0,0)" x1="1267.7735000000002" x2="1292.7735000000002" y1="225.0" y2="150.0" /><line stroke="rgb(0,0,0)" x1="1292.7735000000002" x2="1297.7735000000002" y1="150.0" y2="150.0" /><line stroke="rgb(0,0,0)" x1="1297.7735000000002" x2="1302.7735000000002" y1="150.0" y2="150.0" /><line stroke="rgb(0,0,0)" x1="1302.7735000000002" x2="1312.7735000000002" y1="150.0" y2="150.0" /><line stroke="rgb(0,0,0)" x1="1312.7735000000002" x2="1317.7735000000002" y1="150.0" y2="150.0" /><line stroke="rgb(0,0,0)" x1="1317.7735000000002" x2="1335.51545" y1="150.0" y2="150.0" /><line stroke="rgb(0,0,0)" x1="1335.51545" x2="1345.51545" y1="150.0" y2="75.0" /><line stroke="rgb(0,0,0)" x1="1345.51545" x2="1350.51545" y1="75.0" y2="75.0" /><line stroke="rgb(0,0,0)" x1="1262.7735000000002" x2="1282.7735000000002" y1="75.0" y2="75.0" /><line stroke="rgb(0,0,0)" x1="1282.7735000000002" x2="1345.51545" y1="75.0" y2="75.0" /><line stroke="rgb(0,0,0)" x1="1345.51545" x2="1350.51545" y1="75.0" y2="75.0" /><line stroke="rgb(0,0,0)" x1="1317.7735000000002" x2="1335.51545" y1="150.0" y2="150.0" /><line stroke="rgb(0,0,0)" x1="1335.51545" x2="1345.51545" y1="150.0" y2="225.0" /><line stroke="rgb(0,0,0)" x1="1345.51545" x2="1350.51545" y1="225.0" y2="225.0" /><line stroke="rgb(0,0,0)" x1="1350.51545" x2="1372.31545" y1="75.0" y2="75.0" /><line stroke="rgb(0,0,0)" x1="1372.31545" x2="1382.31545" y1="75.0" y2="150.0" /><line stroke="rgb(0,0,0)" x1="1382.31545" x2="1387.31545" y1="150.0" y2="150.0" /><line stroke="rgb(0,0,0)" x1="1350.51545" x2="1360.51545" y1="225.0" y2="225.0" /><line stroke="rgb(0,0,0)" x1="1360.51545" x2="1382.31545" y1="225.0" y2="150.0" /><line stroke="rgb(0,0,0)" x1="1382.31545" x2="1387.31545" y1="150.0" y2="150.0" /><line stroke="rgb(0,0,0)" x1="1387.31545" x2="1435.27915" y1="150.0" y2="150.0" /><line stroke="rgb(0,0,0)" x1="1435.27915" x2="1445.27915" y1="150.0" y2="150.0" /><line stroke="rgb(0,0,0)" x1="1445.27915" x2="1450.27915" y1="150.0" y2="150.0" /><line stroke="rgb(0,0,0)" x1="1450.27915" x2="1470.27915" y1="150.0" y2="150.0" /><line stroke="rgb(0,0,0)" x1="1470.27915" x2="1480.27915" y1="150.0" y2="150.0" /><line stroke="rgb(0,0,0)" x1="1480.27915" x2="1485.27915" y1="150.0" y2="150.0" /><line stroke="rgb(0,0,0)" x1="1485.27915" x2="1490.27915" y1="150.0" y2="150.0" /><line stroke="rgb(0,0,0)" x1="1490.27915" x2="1500.27915" y1="150.0" y2="150.0" /><line stroke="rgb(0,0,0)" x1="1500.27915" x2="1505.27915" y1="150.0" y2="150.0" /><line stroke="rgb(0,0,0)" x1="1505.27915" x2="1551.7191500000001" y1="150.0" y2="150.0" /><line stroke="rgb(0,0,0)" x1="1551.7191500000001" x2="1561.7191500000001" y1="150.0" y2="150.0" /><line stroke="rgb(0,0,0)" x1="1561.7191500000001" x2="1566.7191500000001" y1="150.0" y2="150.0" /><line stroke="rgb(0,0,0)" x1="1566.7191500000001" x2="1593.1477" y1="150.0" y2="150.0" /><line stroke="rgb(0,0,0)" x1="1593.1477" x2="1603.1477" y1="150.0" y2="150.0" /><line stroke="rgb(0,0,0)" x1="1603.1477" x2="1608.1477" y1="150.0" y2="150.0" /><line stroke="rgb(0,0,0)" x1="1608.1477" x2="1635.6477" y1="150.0" y2="150.0" /><line stroke="rgb(0,0,0)" x1="1635.6477" x2="1645.6477" y1="150.0" y2="150.0" /><line stroke="rgb(0,0,0)" x1="1645.6477" x2="1650.6477" y1="150.0" y2="150.0" /><line stroke="rgb(0,0,0)" x1="1650.6477" x2="1660.6477" y1="150.0" y2="150.0" /><line stroke="rgb(0,0,0)" x1="1660.6477" x2="1670.6477" y1="150.0" y2="150.0" /><line stroke="rgb(0,0,0)" x1="1670.6477" x2="1675.6477" y1="150.0" y2="150.0" /><line stroke="rgb(0,0,0)" x1="1675.6477" x2="1700.6477" y1="150.0" y2="150.0" /><line stroke="rgb(0,0,0)" x1="1700.6477" x2="1710.6477" y1="150.0" y2="150.0" /><line stroke="rgb(0,0,0)" x1="1710.6477" x2="1715.6477" y1="150.0" y2="150.0" /><line stroke="rgb(0,0,0)" x1="1715.6477" x2="1770.6477" y1="150.0" y2="150.0" /><line stroke="rgb(0,0,0)" x1="1770.6477" x2="1780.6477" y1="150.0" y2="150.0" /><line stroke="rgb(0,0,0)" x1="1780.6477" x2="1785.6477" y1="150.0" y2="150.0" /><line stroke="rgb(0,0,0)" x1="1785.6477" x2="1809.8977000000002" y1="150.0" y2="150.0" /><line stroke="rgb(0,0,0)" x1="1809.8977000000002" x2="1819.8977000000002" y1="150.0" y2="150.0" /><line stroke="rgb(0,0,0)" x1="1819.8977000000002" x2="1824.8977000000002" y1="150.0" y2="150.0" /><line stroke="rgb(0,0,0)" x1="1824.8977000000002" x2="1836.1477000000002" y1="150.0" y2="150.0" /><line stroke="rgb(0,0,0)" x1="1836.1477000000002" x2="1846.1477000000002" y1="150.0" y2="150.0" /><line stroke="rgb(0,0,0)" x1="1846.1477000000002" x2="1851.1477000000002" y1="150.0" y2="150.0" /><line stroke="rgb(0,0,0)" x1="1851.1477000000002" x2="1899.88265" y1="150.0" y2="150.0" /><line stroke="rgb(0,0,0)" x1="1899.88265" x2="1909.88265" y1="150.0" y2="75.0" /><line stroke="rgb(0,0,0)" x1="1909.88265" x2="1914.88265" y1="75.0" y2="75.0" /><line stroke="rgb(0,0,0)" x1="1851.1477000000002" x2="1899.88265" y1="150.0" y2="150.0" /><line stroke="rgb(0,0,0)" x1="1899.88265" x2="1909.88265" y1="150.0" y2="225.0" /><line stroke="rgb(0,0,0)" x1="1909.88265" x2="1914.88265" y1="225.0" y2="225.0" /><line stroke="rgb(0,0,0)" x1="1914.88265" x2="1939.88265" y1="225.0" y2="225.0" /><line stroke="rgb(0,0,0)" x1="1939.88265" x2="1949.88265" y1="225.0" y2="75.0" /><line stroke="rgb(0,0,0)" x1="1949.88265" x2="1954.88265" y1="75.0" y2="75.0" /><line stroke="rgb(0,0,0)" x1="1914.88265" x2="1924.88265" y1="75.0" y2="75.0" /><line stroke="rgb(0,0,0)" x1="1924.88265" x2="1949.88265" y1="75.0" y2="225.0" /><line stroke="rgb(0,0,0)" x1="1949.88265" x2="1954.88265" y1="225.0" y2="225.0" /><line stroke="rgb(0,0,0)" x1="1954.88265" x2="1996.75765" y1="75.0" y2="75.0" /><line stroke="rgb(0,0,0)" x1="1996.75765" x2="2006.75765" y1="75.0" y2="150.0" /><line stroke="rgb(0,0,0)" x1="2006.75765" x2="2011.75765" y1="150.0" y2="150.0" /><line stroke="rgb(0,0,0)" x1="1954.88265" x2="1966.5493000000001" y1="225.0" y2="225.0" /><line stroke="rgb(0,0,0)" x1="1966.5493000000001" x2="2006.75765" y1="225.0" y2="150.0" /><line stroke="rgb(0,0,0)" x1="2006.75765" x2="2011.75765" y1="150.0" y2="150.0" /><line stroke="rgb(0,0,0)" x1="2011.75765" x2="2080.53715" y1="150.0" y2="150.0" /><line stroke="rgb(0,0,0)" x1="2080.53715" x2="2090.53715" y1="150.0" y2="150.0" /><line stroke="rgb(0,0,0)" x1="2090.53715" x2="2095.53715" y1="150.0" y2="150.0" /><line stroke="rgb(0,0,0)" x1="2095.53715" x2="2116.7440500000002" y1="150.0" y2="150.0" /><line stroke="rgb(0,0,0)" x1="2116.7440500000002" x2="2126.7440500000002" y1="150.0" y2="150.0" /><line stroke="rgb(0,0,0)" x1="2126.7440500000002" x2="2131.7440500000002" y1="150.0" y2="150.0" /><line stroke="rgb(0,0,0)" x1="2131.7440500000002" x2="2146.7440500000002" y1="150.0" y2="150.0" /><line stroke="rgb(0,0,0)" x1="2146.7440500000002" x2="2156.7440500000002" y1="150.0" y2="150.0" /><line stroke="rgb(0,0,0)" x1="2156.7440500000002" x2="2161.7440500000002" y1="150.0" y2="150.0" /><line stroke="rgb(0,0,0)" x1="2161.7440500000002" x2="2179.9919" y1="150.0" y2="150.0" /><line stroke="rgb(0,0,0)" x1="2179.9919" x2="2189.9919" y1="150.0" y2="150.0" /><line stroke="rgb(0,0,0)" x1="2189.9919" x2="2194.9919" y1="150.0" y2="150.0" /><line stroke="rgb(0,0,0)" x1="2194.9919" x2="2220.5801500000002" y1="150.0" y2="150.0" /><line stroke="rgb(0,0,0)" x1="2220.5801500000002" x2="2230.5801500000002" y1="150.0" y2="150.0" /><line stroke="rgb(0,0,0)" x1="2230.5801500000002" x2="2235.5801500000002" y1="150.0" y2="150.0" /><line stroke="rgb(0,0,0)" x1="2235.5801500000002" x2="2245.85795" y1="150.0" y2="150.0" /><line stroke="rgb(0,0,0)" x1="2245.85795" x2="2255.85795" y1="150.0" y2="150.0" /><line stroke="rgb(0,0,0)" x1="2255.85795" x2="2260.85795" y1="150.0" y2="150.0" /><line stroke="rgb(0,0,0)" x1="2260.85795" x2="2298.0318500000003" y1="150.0" y2="150.0" /><line stroke="rgb(0,0,0)" x1="2298.0318500000003" x2="2308.0318500000003" y1="150.0" y2="150.0" /><line stroke="rgb(0,0,0)" x1="2308.0318500000003" x2="2313.0318500000003" y1="150.0" y2="150.0" /><rect fill="rgb(150,150,150)" height="2.0" stroke="rgb(0,0,0)" width="26.0" x="5.0" y="149.0" /><text fill="black" x="5.0" y="171.0">H0</text><rect fill="rgb(255,150,150)" height="0.4" stroke="rgb(0,0,0)" width="5.0" x="51.0" y="149.8" /><text fill="black" x="51.0" y="170.2">E1</text><rect fill="rgb(150,150,150)" height="0.0" stroke="rgb(0,0,0)" width="0.0" x="76.0" y="150.0" /><text fill="black" x="76.0" y="170.0">X2</text><rect fill="rgb(150,150,150)" height="16.400000000000002" stroke="rgb(0,0,0)" width="18.0488" x="96.0" y="141.8" /><text fill="black" x="96.0" y="178.2">H3</text><rect fill="rgb(150,150,150)" height="3.5999999999999996" stroke="rgb(0,0,0)" width="22.7778" x="134.0488" y="148.2" /><text fill="black" x="134.0488" y="171.8">H4</text><rect fill="rgb(150,150,150)" height="3.2" stroke="rgb(0,0,0)" width="26.25" x="176.82659999999998" y="148.4" /><text fill="black" x="176.82659999999998" y="171.6">H5</text><rect fill="rgb(150,150,150)" height="69.19999999999999" stroke="rgb(0,0,0)" width="20.98265" x="223.07659999999998" y="115.4" /><text fill="black" x="223.07659999999998" y="204.6">H6</text><rect fill="rgb(255,150,150)" height="19.6" stroke="rgb(0,0,0)" width="11.020399999999999" x="264.05925" y="140.2" /><text fill="black" x="264.05925" y="179.8">E7</text><rect fill="rgb(150,150,150)" height="0.0" stroke="rgb(0,0,0)" width="0.0" x="295.07965" y="150.0" /><text fill="black" x="295.07965" y="170.0">X8</text><rect fill="rgb(255,150,150)" height="98.0" stroke="rgb(0,0,0)" width="42.102050000000006" x="315.07965" y="101.0" /><text fill="black" x="315.07965" y="219.0">E9</text><rect fill="rgb(150,150,255)" height="1.2" stroke="rgb(0,0,0)" width="15.0" x="377.1817" y="149.4" /><text fill="black" x="377.1817" y="170.6">E10</text><rect fill="rgb(150,150,150)" height="64.8" stroke="rgb(0,0,0)" width="33.14815" x="412.1817" y="117.6" /><text fill="black" x="412.1817" y="202.4">H11</text><rect fill="rgb(150,150,150)" height="48.4" stroke="rgb(0,0,0)" width="45.08265" x="465.32985" y="125.8" /><text fill="black" x="465.32985" y="194.2">H12</text><rect fill="rgb(150,150,150)" height="2.8000000000000003" stroke="rgb(0,0,0)" width="20.714299999999998" x="530.4125" y="148.6" /><text fill="black" x="530.4125" y="171.4">H13</text><rect fill="rgb(150,150,150)" height="0.0" stroke="rgb(0,0,0)" width="0.0" x="571.1268" y="75.0" /><text fill="black" x="571.1268" y="95.0">X14</text><rect fill="rgb(150,150,255)" height="8.4" stroke="rgb(0,0,0)" width="7.3809499999999995" x="571.1268" y="220.8" /><text fill="black" x="571.1268" y="249.2">E15</text><rect fill="rgb(150,150,150)" height="0.0" stroke="rgb(0,0,0)" width="0.0" x="598.5077500000001" y="75.0" /><text fill="black" x="598.5077500000001" y="95.0">X16</text><rect fill="rgb(255,150,150)" height="0.4" stroke="rgb(0,0,0)" width="5.0" x="598.5077500000001" y="224.8" /><text fill="black" x="598.5077500000001" y="245.2">E17</text><rect fill="rgb(255,150,150)" height="98.0" stroke="rgb(0,0,0)" width="36.7551" x="623.5077500000001" y="101.0" /><text fill="black" x="623.5077500000001" y="219.0">E18</text><rect fill="rgb(150,150,150)" height="0.0" stroke="rgb(0,0,0)" width="0.0" x="680.2628500000001" y="75.0" /><text fill="black" x="680.2628500000001" y="95.0">X19</text><rect fill="rgb(150,150,150)" height="4.3999999999999995" stroke="rgb(0,0,0)" width="15.0" x="680.2628500000001" y="222.8" /><text fill="black" x="680.2628500000001" y="247.2">H20</text><rect fill="rgb(255,150,150)" height="2.4" stroke="rgb(0,0,0)" width="5.83335" x="715.2628500000001" y="148.8" /><text fill="black" x="715.2628500000001" y="171.2">E21</text><rect fill="rgb(255,150,150)" height="98.0" stroke="rgb(0,0,0)" width="40.081649999999996" x="741.0962000000001" y="101.0" /><text fill="black" x="741.0962000000001" y="219.0">E22</text><rect fill="rgb(255,150,150)" height="0.8" stroke="rgb(0,0,0)" width="12.5" x="801.1778500000001" y="149.6" /><text fill="black" x="801.1778500000001" y="170.4">E23</text><rect fill="rgb(150,150,150)" height="15.6" stroke="rgb(0,0,0)" width="18.20515" x="833.6778500000001" y="142.2" /><text fill="black" x="833.6778500000001" y="177.8">H24</text><rect fill="rgb(255,150,150)" height="0.8" stroke="rgb(0,0,0)" width="12.5" x="871.8830000000002" y="149.6" /><text fill="black" x="871.8830000000002" y="170.4">E25</text><rect fill="rgb(255,150,150)" height="97.6" stroke="rgb(0,0,0)" width="42.7254" x="904.3830000000002" y="101.2" /><text fill="black" x="904.3830000000002" y="218.8">E26</text><rect fill="rgb(255,150,150)" height="2.8000000000000003" stroke="rgb(0,0,0)" width="14.285699999999999" x="967.1084000000002" y="148.6" /><text fill="black" x="967.1084000000002" y="171.4">E27</text><rect fill="rgb(150,150,150)" height="0.8" stroke="rgb(0,0,0)" width="15.0" x="1001.3941000000001" y="149.6" /><text fill="black" x="1001.3941000000001" y="170.4">H28</text><rect fill="rgb(255,150,150)" height="46.0" stroke="rgb(0,0,0)" width="22.130450000000003" x="1036.3941000000002" y="127.0" /><text fill="black" x="1036.3941000000002" y="193.0">E29</text><rect fill="rgb(150,150,150)" height="7.6" stroke="rgb(0,0,0)" width="15.0" x="1078.52455" y="71.2" /><text fill="black" x="1078.52455" y="98.8">H30</text><rect fill="rgb(255,150,150)" height="6.0" stroke="rgb(0,0,0)" width="22.33335" x="1078.52455" y="222.0" /><text fill="black" x="1078.52455" y="248.0">E31</text><rect fill="rgb(255,150,150)" height="61.6" stroke="rgb(0,0,0)" width="34.77275" x="1120.8579" y="119.2" /><text fill="black" x="1120.8579" y="200.8">E32</text><rect fill="rgb(150,150,150)" height="8.799999999999999" stroke="rgb(0,0,0)" width="15.0" x="1175.63065" y="145.6" /><text fill="black" x="1175.63065" y="174.4">H33</text><rect fill="rgb(255,150,150)" height="98.0" stroke="rgb(0,0,0)" width="32.142849999999996" x="1210.63065" y="101.0" /><text fill="black" x="1210.63065" y="219.0">E34</text><rect fill="rgb(150,150,150)" height="0.8" stroke="rgb(0,0,0)" width="15.0" x="1262.7735000000002" y="74.6" /><text fill="black" x="1262.7735000000002" y="95.4">H35</text><rect fill="rgb(150,150,150)" height="0.0" stroke="rgb(0,0,0)" width="0.0" x="1262.7735000000002" y="225.0" /><text fill="black" x="1262.7735000000002" y="245.0">X36</text><rect fill="rgb(150,150,150)" height="0.0" stroke="rgb(0,0,0)" width="0.0" x="1297.7735000000002" y="150.0" /><text fill="black" x="1297.7735000000002" y="170.0">X37</text><rect fill="rgb(255,150,150)" height="12.4" stroke="rgb(0,0,0)" width="12.74195" x="1317.7735000000002" y="143.8" /><text fill="black" x="1317.7735000000002" y="176.2">E38</text><rect fill="rgb(150,150,150)" height="20.0" stroke="rgb(0,0,0)" width="16.8" x="1350.51545" y="65.0" /><text fill="black" x="1350.51545" y="105.0">H39</text><rect fill="rgb(255,150,150)" height="2.4" stroke="rgb(0,0,0)" width="5.0" x="1350.51545" y="223.8" /><text fill="black" x="1350.51545" y="246.2">E40</text><rect fill="rgb(255,150,150)" height="99.2" stroke="rgb(0,0,0)" width="42.963699999999996" x="1387.31545" y="100.4" /><text fill="black" x="1387.31545" y="219.6">E41</text><rect fill="rgb(150,150,150)" height="6.800000000000001" stroke="rgb(0,0,0)" width="15.0" x="1450.27915" y="146.6" /><text fill="black" x="1450.27915" y="173.4">H42</text><rect fill="rgb(150,150,150)" height="0.0" stroke="rgb(0,0,0)" width="0.0" x="1485.27915" y="150.0" /><text fill="black" x="1485.27915" y="170.0">X43</text><rect fill="rgb(255,150,150)" height="100.0" stroke="rgb(0,0,0)" width="41.44" x="1505.27915" y="100.0" /><text fill="black" x="1505.27915" y="220.0">E44</text><rect fill="rgb(150,150,150)" height="5.6000000000000005" stroke="rgb(0,0,0)" width="21.42855" x="1566.7191500000001" y="147.2" /><text fill="black" x="1566.7191500000001" y="172.8">H45</text><rect fill="rgb(150,150,150)" height="2.4" stroke="rgb(0,0,0)" width="22.5" x="1608.1477" y="148.8" /><text fill="black" x="1608.1477" y="171.2">H46</text><rect fill="rgb(255,150,150)" height="2.4" stroke="rgb(0,0,0)" width="5.0" x="1650.6477" y="148.8" /><text fill="black" x="1650.6477" y="171.2">E47</text><rect fill="rgb(150,150,150)" height="2.4" stroke="rgb(0,0,0)" width="20.0" x="1675.6477" y="148.8" /><text fill="black" x="1675.6477" y="171.2">H48</text><rect fill="rgb(150,150,150)" height="2.4" stroke="rgb(0,0,0)" width="50.0" x="1715.6477" y="148.8" /><text fill="black" x="1715.6477" y="171.2">H49</text><rect fill="rgb(150,150,150)" height="8.0" stroke="rgb(0,0,0)" width="19.25" x="1785.6477" y="146.0" /><text fill="black" x="1785.6477" y="174.0">H50</text><rect fill="rgb(255,150,150)" height="1.6" stroke="rgb(0,0,0)" width="6.25" x="1824.8977000000002" y="149.2" /><text fill="black" x="1824.8977000000002" y="170.8">E51</text><rect fill="rgb(255,150,150)" height="99.6" stroke="rgb(0,0,0)" width="43.73495" x="1851.1477000000002" y="100.2" /><text fill="black" x="1851.1477000000002" y="219.8">E52</text><rect fill="rgb(255,150,150)" height="0.4" stroke="rgb(0,0,0)" width="5.0" x="1914.88265" y="74.8" /><text fill="black" x="1914.88265" y="95.2">E53</text><rect fill="rgb(150,150,150)" height="3.2" stroke="rgb(0,0,0)" width="20.0" x="1914.88265" y="223.4" /><text fill="black" x="1914.88265" y="246.6">H54</text><rect fill="rgb(150,150,150)" height="3.2" stroke="rgb(0,0,0)" width="36.875" x="1954.88265" y="73.4" /><text fill="black" x="1954.88265" y="96.6">H55</text><rect fill="rgb(255,150,150)" height="1.2" stroke="rgb(0,0,0)" width="6.66665" x="1954.88265" y="224.4" /><text fill="black" x="1954.88265" y="245.6">E56</text><rect fill="rgb(150,150,150)" height="50.8" stroke="rgb(0,0,0)" width="63.7795" x="2011.75765" y="124.6" /><text fill="black" x="2011.75765" y="195.4">H57</text><rect fill="rgb(150,150,150)" height="34.8" stroke="rgb(0,0,0)" width="16.2069" x="2095.53715" y="132.6" /><text fill="black" x="2095.53715" y="187.4">H58</text><rect fill="rgb(255,150,150)" height="3.5999999999999996" stroke="rgb(0,0,0)" width="10.0" x="2131.7440500000002" y="148.2" /><text fill="black" x="2131.7440500000002" y="171.8">E59</text><rect fill="rgb(255,150,150)" height="46.800000000000004" stroke="rgb(0,0,0)" width="13.247850000000001" x="2161.7440500000002" y="126.6" /><text fill="black" x="2161.7440500000002" y="193.4">E60</text><rect fill="rgb(150,150,150)" height="27.200000000000003" stroke="rgb(0,0,0)" width="20.588250000000002" x="2194.9919" y="136.4" /><text fill="black" x="2194.9919" y="183.6">H61</text><rect fill="rgb(150,150,255)" height="7.199999999999999" stroke="rgb(0,0,0)" width="5.2778" x="2235.5801500000002" y="146.4" /><text fill="black" x="2235.5801500000002" y="173.6">E62</text><rect fill="rgb(150,150,150)" height="18.4" stroke="rgb(0,0,0)" width="32.1739" x="2260.85795" y="140.8" /><text fill="black" x="2260.85795" y="179.2">H63</text><rect fill="rgb(255,150,150)" height="2.0" stroke="rgb(0,0,0)" width="15.0" x="2313.0318500000003" y="149.0" /><text fill="black" x="2313.0318500000003" y="171.0">E64</text></svg>