<?xml version="1.0" encoding="utf-8" ?>
<svg baseProfile="full" height="100%" style="font-size:14;font-family:Sans, Arial;stroke-width:1;fill:none" version="1.1" width="100%" xmlns="http://www.w3.org/2000/svg" xmlns:ev="http://www.w3.org/2001/xml-events" xmlns:xlink="http://www.w3.org/1999/xlink"><defs /><rect fill="none" height="280.0" stroke="none" width="3495.0" x="0" y="0" /><line stroke="rgb(0,0,0)" x1="5.0" x2="50.0" y1="130.0" y2="130.0" /><line stroke="rgb(0,0,0)" x1="50.0" x2="70.0" y1="130.0" y2="130.0" /><line stroke="rgb(0,0,0)" x1="70.0" x2="75.0" y1="130.0" y2="130.0" /><line stroke="rgb(0,0,0)" x1="75.0" x2="85.0" y1="130.0" y2="130.0" /><line stroke="rgb(0,0,0)" x1="85.0" x2="105.0" y1="130.0" y2="130.0" /><line stroke="rgb(0,0,0)" x1="105.0" x2="110.0" y1="130.0" y2="130.0" /><line stroke="rgb(0,0,0)" x1="110.0" x2="115.0" y1="130.0" y2="130.0" /><line stroke="rgb(0,0,0)" x1="115.0" x2="135.0" y1="130.0" y2="130.0" /><line stroke="rgb(0,0,0)" x1="135.0" x2="140.0" y1="130.0" y2="130.0" /><line stroke="rgb(0,0,0)" x1="140.0" x2="165.0" y1="130.0" y2="130.0" /><line stroke="rgb(0,0,0)" x1="165.0" x2="185.0" y1="130.0" y2="130.0" /><line stroke="rgb(0,0,0)" x1="185.0" x2="190.0" y1="130.0" y2="130.0" /><line stroke="rgb(0,0,0)" x1="190.0" x2="225.0" y1="130.0" y2="130.0" /><line stroke="rgb(0,0,0)" x1="225.0" x2="245.0" y1="130.0" y2="130.0" /><line stroke="rgb(0,0,0)" x1="245.0" x2="250.0" y1="130.0" y2="130.0" /><line stroke="rgb(0,0,0)" x1="250.0" x2="310.0" y1="130.0" y2="130.0" /><line stroke="rgb(0,0,0)" x1="310.0" x2="330.0" y1="130.0" y2="130.0" /><line stroke="rgb(0,0,0)" x1="330.0" x2="335.0" y1="130.0" y2="130.0" /><line stroke="rgb(0,0,0)" x1="335.0" x2="390.0" y1="130.0" y2="130.0" /><line stroke="rgb(0,0,0)" x1="390.0" x2="410.0" y1="130.0" y2="130.0" /><line stroke="rgb(0,0,0)" x1="410.0" x2="415.0" y1="130.0" y2="130.0" /><line stroke="rgb(0,0,0)" x1="415.0" x2="445.0" y1="130.0" y2="130.0" /><line stroke="rgb(0,0,0)" x1="445.0" x2="465.0" y1="130.0" y2="130.0" /><line stroke="rgb(0,0,0)" x1="465.0" x2="470.0" y1="130.0" y2="130.0" /><line stroke="rgb(0,0,0)" x1="470.0" x2="475.0" y1="130.0" y2="130.0" /><line stroke="rgb(0,0,0)" x1="475.0" x2="495.0" y1="130.0" y2="130.0" /><line stroke="rgb(0,0,0)" x1="495.0" x2="500.0" y1="130.0" y2="130.0" /><line stroke="rgb(0,0,0)" x1="500.0" x2="565.0" y1="130.0" y2="130.0" /><line stroke="rgb(0,0,0)" x1="565.0" x2="585.0" y1="130.0" y2="130.0" /><line stroke="rgb(0,0,0)" x1="585.0" x2="590.0" y1="130.0" y2="130.0" /><line stroke="rgb(0,0,0)" x1="590.0" x2="620.0" y1="130.0" y2="130.0" /><line stroke="rgb(0,0,0)" x1="620.0" x2="640.0" y1="130.0" y2="130.0" /><line stroke="rgb(0,0,0)" x1="640.0" x2="645.0" y1="130.0" y2="130.0" /><line stroke="rgb(0,0,0)" x1="645.0" x2="695.0" y1="130.0" y2="130.0" /><line stroke="rgb(0,0,0)" x1="695.0" x2="715.0" y1="130.0" y2="130.0" /><line stroke="rgb(0,0,0)" x1="715.0" x2="720.0" y1="130.0" y2="130.0" /><line stroke="rgb(0,0,0)" x1="720.0" x2="790.0" y1="130.0" y2="130.0" /><line stroke="rgb(0,0,0)" x1="790.0" x2="810.0" y1="130.0" y2="130.0" /><line stroke="rgb(0,0,0)" x1="810.0" x2="815.0" y1="130.0" y2="130.0" /><line stroke="rgb(0,0,0)" x1="815.0" x2="855.0" y1="130.0" y2="130.0" /><line stroke="rgb(0,0,0)" x1="855.0" x2="875.0" y1="130.0" y2="55.0" /><line stroke="rgb(0,0,0)" x1="875.0" x2="880.0" y1="55.0" y2="55.0" /><line stroke="rgb(0,0,0)" x1="815.0" x2="855.0" y1="130.0" y2="130.0" /><line stroke="rgb(0,0,0)" x1="855.0" x2="875.0" y1="130.0" y2="205.0" /><line stroke="rgb(0,0,0)" x1="875.0" x2="880.0" y1="205.0" y2="205.0" /><line stroke="rgb(0,0,0)" x1="880.0" x2="885.0" y1="55.0" y2="55.0" /><line stroke="rgb(0,0,0)" x1="885.0" x2="935.0" y1="55.0" y2="55.0" /><line stroke="rgb(0,0,0)" x1="935.0" x2="940.0" y1="55.0" y2="55.0" /><line stroke="rgb(0,0,0)" x1="880.0" x2="915.0" y1="205.0" y2="205.0" /><line stroke="rgb(0,0,0)" x1="915.0" x2="935.0" y1="205.0" y2="205.0" /><line stroke="rgb(0,0,0)" x1="935.0" x2="940.0" y1="205.0" y2="205.0" /><line stroke="rgb(0,0,0)" x1="940.0" x2="945.0" y1="55.0" y2="55.0" /><line stroke="rgb(0,0,0)" x1="945.0" x2="970.0" y1="55.0" y2="130.0" /><line stroke="rgb(0,0,0)" x1="970.0" x2="975.0" y1="130.0" y2="130.0" /><line stroke="rgb(0,0,0)" x1="940.0" x2="950.0" y1="205.0" y2="205.0" /><line stroke="rgb(0,0,0)" x1="950.0" x2="970.0" y1="205.0" y2="130.0" /><line stroke="rgb(0,0,0)" x1="970.0" x2="975.0" y1="130.0" y2="130.0" /><line stroke="rgb(0,0,0)" x1="975.0" x2="1045.0" y1="130.0" y2="130.0" /><line stroke="rgb(0,0,0)" x1="1045.0" x2="1065.0" y1="130.0" y2="55.0" /><line stroke="rgb(0,0,0)" x1="1065.0" x2="1070.0" y1="55.0" y2="55.0" /><line stroke="rgb(0,0,0)" x1="975.0" x2="1045.0" y1="130.0" y2="130.0" /><line stroke="rgb(0,0,0)" x1="1045.0" x2="1065.0" y1="130.0" y2="205.0" /><line stroke="rgb(0,0,0)" x1="1065.0" x2="1070.0" y1="205.0" y2="205.0" /><line stroke="rgb(0,0,0)" x1="1070.0" x2="1075.0" y1="55.0" y2="55.0" /><line stroke="rgb(0,0,0)" x1="1075.0" x2="1110.0" y1="55.0" y2="130.0" /><line stroke="rgb(0,0,0)" x1="1110.0" x2="1115.0" y1="130.0" y2="130.0" /><line stroke="rgb(0,0,0)" x1="1115.0" x2="1130.0" y1="130.0" y2="130.0" /><line stroke="rgb(0,0,0)" x1="1130.0" x2="1150.0" y1="130.0" y2="130.0" /><line stroke="rgb(0,0,0)" x1="1150.0" x2="1155.0" y1="130.0" y2="130.0" /><line stroke="rgb(0,0,0)" x1="1070.0" x2="1090.0" y1="205.0" y2="205.0" /><line stroke="rgb(0,0,0)" x1="1090.0" x2="1150.0" y1="205.0" y2="130.0" /><line stroke="rgb(0,0,0)" x1="1150.0" x2="1155.0" y1="130.0" y2="130.0" /><line stroke="rgb(0,0,0)" x1="1155.0" x2="1220.0" y1="130.0" y2="130.0" /><line stroke="rgb(0,0,0)" x1="1220.0" x2="1240.0" y1="130.0" y2="130.0" /><line stroke="rgb(0,0,0)" x1="1240.0" x2="1245.0" y1="130.0" y2="130.0" /><line stroke="rgb(0,0,0)" x1="1245.0" x2="1270.0" y1="130.0" y2="130.0" /><line stroke="rgb(0,0,0)" x1="1270.0" x2="1290.0" y1="130.0" y2="130.0" /><line stroke="rgb(0,0,0)" x1="1290.0" x2="1295.0" y1="130.0" y2="130.0" /><line stroke="rgb(0,0,0)" x1="1295.0" x2="1350.0" y1="130.0" y2="130.0" /><line stroke="rgb(0,0,0)" x1="1350.0" x2="1370.0" y1="130.0" y2="130.0" /><line stroke="rgb(0,0,0)" x1="1370.0" x2="1375.0" y1="130.0" y2="130.0" /><line stroke="rgb(0,0,0)" x1="1375.0" x2="1400.0" y1="130.0" y2="130.0" /><line stroke="rgb(0,0,0)" x1="1400.0" x2="1420.0" y1="130.0" y2="130.0" /><line stroke="rgb(0,0,0)" x1="1420.0" x2="1425.0" y1="130.0" y2="130.0" /><line stroke="rgb(0,0,0)" x1="1425.0" x2="1500.0" y1="130.0" y2="130.0" /><line stroke="rgb(0,0,0)" x1="1500.0" x2="1520.0" y1="130.0" y2="130.0" /><line stroke="rgb(0,0,0)" x1="1520.0" x2="1525.0" y1="130.0" y2="130.0" /><line stroke="rgb(0,0,0)" x1="1525.0" x2="1570.0" y1="130.0" y2="130.0" /><line stroke="rgb(0,0,0)" x1="1570.0" x2="1590.0" y1="130.0" y2="130.0" /><line stroke="rgb(0,0,0)" x1="1590.0" x2="1595.0" y1="130.0" y2="130.0" /><line stroke="rgb(0,0,0)" x1="1595.0" x2="1615.0" y1="130.0" y2="130.0" /><line stroke="rgb(0,0,0)" x1="1615.0" x2="1635.0" y1="130.0" y2="130.0" /><line stroke="rgb(0,0,0)" x1="1635.0" x2="1640.0" y1="130.0" y2="130.0" /><line stroke="rgb(0,0,0)" x1="1640.0" x2="1685.0" y1="130.0" y2="130.0" /><line stroke="rgb(0,0,0)" x1="1685.0" x2="1705.0" y1="130.0" y2="55.0" /><line stroke="rgb(0,0,0)" x1="1705.0" x2="1710.0" y1="55.0" y2="55.0" /><line stroke="rgb(0,0,0)" x1="1640.0" x2="1685.0" y1="130.0" y2="130.0" /><line stroke="rgb(0,0,0)" x1="1685.0" x2="1705.0" y1="130.0" y2="205.0" /><line stroke="rgb(0,0,0)" x1="1705.0" x2="1710.0" y1="205.0" y2="205.0" /><line stroke="rgb(0,0,0)" x1="1710.0" x2="1730.0" y1="55.0" y2="55.0" /><line stroke="rgb(0,0,0)" x1="1730.0" x2="1760.0" y1="55.0" y2="130.0" /><line stroke="rgb(0,0,0)" x1="1760.0" x2="1765.0" y1="130.0" y2="130.0" /><line stroke="rgb(0,0,0)" x1="1710.0" x2="1740.0" y1="205.0" y2="205.0" /><line stroke="rgb(0,0,0)" x1="1740.0" x2="1760.0" y1="205.0" y2="130.0" /><line stroke="rgb(0,0,0)" x1="1760.0" x2="1765.0" y1="130.0" y2="130.0" /><line stroke="rgb(0,0,0)" x1="1765.0" x2="1825.0" y1="130.0" y2="130.0" /><line stroke="rgb(0,0,0)" x1="1825.0" x2="1845.0" y1="130.0" y2="130.0" /><line stroke="rgb(0,0,0)" x1="1845.0" x2="1850.0" y1="130.0" y2="130.0" /><line stroke="rgb(0,0,0)" x1="1850.0" x2="1870.0" y1="130.0" y2="130.0" /><line stroke="rgb(0,0,0)" x1="1870.0" x2="1890.0" y1="130.0" y2="130.0" /><line stroke="rgb(0,0,0)" x1="1890.0" x2="1895.0" y1="130.0" y2="130.0" /><line stroke="rgb(0,0,0)" x1="1895.0" x2="1955.0" y1="130.0" y2="130.0" /><line stroke="rgb(0,0,0)" x1="1955.0" x2="1975.0" y1="130.0" y2="55.0" /><line stroke="rgb(0,0,0)" x1="1975.0" x2="1980.0" y1="55.0" y2="55.0" /><line stroke="rgb(0,0,0)" x1="1895.0" x2="1955.0" y1="130.0" y2="130.0" /><line stroke="rgb(0,0,0)" x1="1955.0" x2="1975.0" y1="130.0" y2="205.0" /><line stroke="rgb(0,0,0)" x1="1975.0" x2="1980.0" y1="205.0" y2="205.0" /><line stroke="rgb(0,0,0)" x1="1980.0" x2="1985.0" y1="205.0" y2="205.0" /><line stroke="rgb(0,0,0)" x1="1985.0" x2="2020.0" y1="205.0" y2="130.0" /><line stroke="rgb(0,0,0)" x1="2020.0" x2="2025.0" y1="130.0" y2="130.0" /><line stroke="rgb(0,0,0)" x1="2025.0" x2="2030.0" y1="130.0" y2="130.0" /><line stroke="rgb(0,0,0)" x1="2030.0" x2="2050.0" y1="130.0" y2="130.0" /><line stroke="rgb(0,0,0)" x1="2050.0" x2="2055.0" y1="130.0" y2="130.0" /><line stroke="rgb(0,0,0)" x1="2055.0" x2="2075.0" y1="130.0" y2="130.0" /><line stroke="rgb(0,0,0)" x1="2075.0" x2="2095.0" y1="130.0" y2="55.0" /><line stroke="rgb(0,0,0)" x1="2095.0" x2="2100.0" y1="55.0" y2="55.0" /><line stroke="rgb(0,0,0)" x1="1980.0" x2="2000.0" y1="55.0" y2="55.0" /><line stroke="rgb(0,0,0)" x1="2000.0" x2="2095.0" y1="55.0" y2="55.0" /><line stroke="rgb(0,0,0)" x1="2095.0" x2="2100.0" y1="55.0" y2="55.0" /><line stroke="rgb(0,0,0)" x1="2055.0" x2="2075.0" y1="130.0" y2="130.0" /><line stroke="rgb(0,0,0)" x1="2075.0" x2="2095.0" y1="130.0" y2="205.0" /><line stroke="rgb(0,0,0)" x1="2095.0" x2="2100.0" y1="205.0" y2="205.0" /><line stroke="rgb(0,0,0)" x1="2100.0" x2="2125.0" y1="55.0" y2="55.0" /><line stroke="rgb(0,0,0)" x1="2125.0" x2="2145.0" y1="55.0" y2="130.0" /><line stroke="rgb(0,0,0)" x1="2145.0" x2="2150.0" y1="130.0" y2="130.0" /><line stroke="rgb(0,0,0)" x1="2100.0" x2="2110.0" y1="205.0" y2="205.0" /><line stroke="rgb(0,0,0)" x1="2110.0" x2="2145.0" y1="205.0" y2="130.0" /><line stroke="rgb(0,0,0)" x1="2145.0" x2="2150.0" y1="130.0" y2="130.0" /><line stroke="rgb(0,0,0)" x1="2150.0" x2="2210.0" y1="130.0" y2="130.0" /><line stroke="rgb(0,0,0)" x1="2210.0" x2="2230.0" y1="130.0" y2="130.0" /><line stroke="rgb(0,0,0)" x1="2230.0" x2="2235.0" y1="130.0" y2="130.0" /><line stroke="rgb(0,0,0)" x1="2235.0" x2="2255.0" y1="130.0" y2="130.0" /><line stroke="rgb(0,0,0)" x1="2255.0" x2="2275.0" y1="130.0" y2="130.0" /><line stroke="rgb(0,0,0)" x1="2275.0" x2="2280.0" y1="130.0" y2="130.0" /><line stroke="rgb(0,0,0)" x1="2280.0" x2="2285.0" y1="130.0" y2="130.0" /><line stroke="rgb(0,0,0)" x1="2285.0" x2="2305.0" y1="130.0" y2="130.0" /><line stroke="rgb(0,0,0)" x1="2305.0" x2="2310.0" y1="130.0" y2="130.0" /><line stroke="rgb(0,0,0)" x1="2310.0" x2="2370.0" y1="130.0" y2="130.0" /><line stroke="rgb(0,0,0)" x1="2370.0" x2="2390.0" y1="130.0" y2="130.0" /><line stroke="rgb(0,0,0)" x1="2390.0" x2="2395.0" y1="130.0" y2="130.0" /><line stroke="rgb(0,0,0)" x1="2395.0" x2="2430.0" y1="130.0" y2="130.0" /><line stroke="rgb(0,0,0)" x1="2430.0" x2="2450.0" y1="130.0" y2="130.0" /><line stroke="rgb(0,0,0)" x1="2450.0" x2="2455.0" y1="130.0" y2="130.0" /><line stroke="rgb(0,0,0)" x1="2455.0" x2="2485.0" y1="130.0" y2="130.0" /><line stroke="rgb(0,0,0)" x1="2485.0" x2="2505.0" y1="130.0" y2="130.0" /><line stroke="rgb(0,0,0)" x1="2505.0" x2="2510.0" y1="130.0" y2="130.0" /><line stroke="rgb(0,0,0)" x1="2510.0" x2="2520.0" y1="130.0" y2="130.0" /><line stroke="rgb(0,0,0)" x1="2520.0" x2="2540.0" y1="130.0" y2="130.0" /><line stroke="rgb(0,0,0)" x1="2540.0" x2="2545.0" y1="130.0" y2="130.0" /><line stroke="rgb(0,0,0)" x1="2545.0" x2="2570.0" y1="130.0" y2="130.0" /><line stroke="rgb(0,0,0)" x1="2570.0" x2="2590.0" y1="130.0" y2="130.0" /><line stroke="rgb(0,0,0)" x1="2590.0" x2="2595.0" y1="130.0" y2="130.0" /><line stroke="rgb(0,0,0)" x1="2595.0" x2="2650.0" y1="130.0" y2="130.0" /><line stroke="rgb(0,0,0)" x1="2650.0" x2="2670.0" y1="130.0" y2="130.0" /><line stroke="rgb(0,0,0)" x1="2670.0" x2="2675.0" y1="130.0" y2="130.0" /><line stroke="rgb(0,0,0)" x1="2675.0" x2="2710.0" y1="130.0" y2="130.0" /><line stroke="rgb(0,0,0)" x1="2710.0" x2="2730.0" y1="130.0" y2="130.0" /><line stroke="rgb(0,0,0)" x1="2730.0" x2="2735.0" y1="130.0" y2="130.0" /><line stroke="rgb(0,0,0)" x1="2735.0" x2="2750.0" y1="130.0" y2="130.0" /><line stroke="rgb(0,0,0)" x1="2750.0" x2="2770.0" y1="130.0" y2="130.0" /><line stroke="rgb(0,0,0)" x1="2770.0" x2="2775.0" y1="130.0" y2="130.0" /><line stroke="rgb(0,0,0)" x1="2775.0" x2="2850.0" y1="130.0" y2="130.0" /><line stroke="rgb(0,0,0)" x1="2850.0" x2="2870.0" y1="130.0" y2="55.0" /><line stroke="rgb(0,0,0)" x1="2870.0" x2="2875.0" y1="55.0" y2="55.0" /><line stroke="rgb(0,0,0)" x1="2775.0" x2="2850.0" y1="130.0" y2="130.0" /><line stroke="rgb(0,0,0)" x1="2850.0" x2="2870.0" y1="130.0" y2="205.0" /><line stroke="rgb(0,0,0)" x1="2870.0" x2="2875.0" y1="205.0" y2="205.0" /><line stroke="rgb(0,0,0)" x1="2875.0" x2="2900.0" y1="205.0" y2="205.0" /><line stroke="rgb(0,0,0)" x1="2900.0" x2="2920.0" y1="205.0" y2="55.0" /><line stroke="rgb(0,0,0)" x1="2920.0" x2="2925.0" y1="55.0" y2="55.0" /><line stroke="rgb(0,0,0)" x1="2875.0" x2="2885.0" y1="55.0" y2="55.0" /><line stroke="rgb(0,0,0)" x1="2885.0" x2="2920.0" y1="55.0" y2="205.0" /><line stroke="rgb(0,0,0)" x1="2920.0" x2="2925.0" y1="205.0" y2="205.0" /><line stroke="rgb(0,0,0)" x1="2925.0" x2="2995.0" y1="55.0" y2="55.0" /><line stroke="rgb(0,0,0)" x1="2995.0" x2="3015.0" y1="55.0" y2="130.0" /><line stroke="rgb(0,0,0)" x1="3015.0" x2="3020.0" y1="130.0" y2="130.0" /><line stroke="rgb(0,0,0)" x1="2925.0" x2="2940.0" y1="205.0" y2="205.0" /><line stroke="rgb(0,0,0)" x1="2940.0" x2="3015.0" y1="205.0" y2="130.0" /><line stroke="rgb(0,0,0)" x1="3015.0" x2="3020.0" y1="130.0" y2="130.0" /><line stroke="rgb(0,0,0)" x1="3020.0" x2="3100.0" y1="130.0" y2="130.0" /><line stroke="rgb(0,0,0)" x1="3100.0" x2="3120.0" y1="130.0" y2="130.0" /><line stroke="rgb(0,0,0)" x1="3120.0" x2="3125.0" y1="130.0" y2="130.0" /><line stroke="rgb(0,0,0)" x1="3125.0" x2="3150.0" y1="130.0" y2="130.0" /><line stroke="rgb(0,0,0)" x1="3150.0" x2="3170.0" y1="130.0" y2="130.0" /><line stroke="rgb(0,0,0)" x1="3170.0" x2="3175.0" y1="130.0" y2="130.0" /><line stroke="rgb(0,0,0)" x1="3175.0" x2="3195.0" y1="130.0" y2="130.0" /><line stroke="rgb(0,0,0)" x1="3195.0" x2="3215.0" y1="130.0" y2="130.0" /><line stroke="rgb(0,0,0)" x1="3215.0" x2="3220.0" y1="130.0" y2="130.0" /><line stroke="rgb(0,0,0)" x1="3220.0" x2="3250.0" y1="130.0" y2="130.0" /><line stroke="rgb(0,0,0)" x1="3250.0" x2="3270.0" y1="130.0" y2="130.0" /><line stroke="rgb(0,0,0)" x1="3270.0" x2="3275.0" y1="130.0" y2="130.0" /><line stroke="rgb(0,0,0)" x1="3275.0" x2="3310.0" y1="130.0" y2="130.0" /><line stroke="rgb(0,0,0)" x1="3310.0" x2="3330.0" y1="130.0" y2="130.0" /><line stroke="rgb(0,0,0)" x1="3330.0" x2="3335.0" y1="130.0" y2="130.0" /><line stroke="rgb(0,0,0)" x1="3335.0" x2="3350.0" y1="130.0" y2="130.0" /><line stroke="rgb(0,0,0)" x1="3350.0" x2="3370.0" y1="130.0" y2="130.0" /><line stroke="rgb(0,0,0)" x1="3370.0" x2="3375.0" y1="130.0" y2="130.0" /><line stroke="rgb(0,0,0)" x1="3375.0" x2="3450.0" y1="130.0" y2="130.0" /><line stroke="rgb(0,0,0)" x1="3450.0" x2="3470.0" y1="130.0" y2="130.0" /><line stroke="rgb(0,0,0)" x1="3470.0" x2="3475.0" y1="130.0" y2="130.0" /><polygon fill="rgb(150,150,150)" points="45.0,130.0 45.0,129.6 35.0,129.6 35.0,129.4 32.5,129.4 32.5,129.0 25.0,129.0 25.0,129.0 17.5,129.0 17.5,129.4 15.0,129.4 15.0,129.6 5.0,129.6 5.0,130.0 5.0,130.0 5.0,130.4 15.0,130.4 15.0,130.6 17.5,130.6 17.5,131.0 25.0,131.0 25.0,131.0 32.5,131.0 32.5,130.6 35.0,130.6 35.0,130.4 45.0,130.4 45.0,130.0" stroke="rgb(0,0,0)" /><text fill="black" x="5.0" y="151.0">H0</text><polygon fill="rgb(255,150,150)" points="80.0,130.0 80.0,129.8 77.5,129.8 77.5,129.8 75.0,129.8 75.0,130.0 75.0,130.0 75.0,130.2 77.5,130.2 77.5,130.2 80.0,130.2 80.0,130.0" stroke="rgb(0,0,0)" /><text fill="black" x="75.0" y="150.2">E1</text><polygon fill="rgb(150,150,150)" points="110.0,130.0 110.0,130.0 110.0,130.0 110.0,130.0" stroke="rgb(0,0,0)" /><text fill="black" x="110.0" y="150.0">X2</text><polygon fill="rgb(150,150,150)" points="160.0,130.0 160.0,125.0 157.5,125.0 157.5,121.8 150.0,121.8 150.0,121.8 142.5,121.8 142.5,125.0 140.0,125.0 140.0,130.0 140.0,130.0 140.0,135.0 142.5,135.0 142.5,138.2 150.0,138.2 150.0,138.2 157.5,138.2 157.5,135.0 160.0,135.0 160.0,130.0" stroke="rgb(0,0,0)" /><text fill="black" x="140.0" y="158.2">H3</text><polygon fill="rgb(150,150,150)" points="220.0,130.0 220.0,129.2 215.0,129.2 215.0,128.8 212.5,128.8 212.5,128.2 205.0,128.2 205.0,128.2 197.5,128.2 197.5,128.8 195.0,128.8 195.0,129.2 190.0,129.2 190.0,130.0 190.0,130.0 190.0,130.8 195.0,130.8 195.0,131.2 197.5,131.2 197.5,131.8 205.0,131.8 205.0,131.8 212.5,131.8 212.5,131.2 215.0,131.2 215.0,130.8 220.0,130.8 220.0,130.0" stroke="rgb(0,0,0)" /><text fill="black" x="190.0" y="151.8">H4</text><polygon fill="rgb(150,150,150)" points="305.0,130.0 305.0,129.6 287.5,129.6 287.5,129.2 285.0,129.2 285.0,128.4 277.5,128.4 277.5,128.4 270.0,128.4 270.0,129.2 267.5,129.2 267.5,129.6 250.0,129.6 250.0,130.0 250.0,130.0 250.0,130.4 267.5,130.4 267.5,130.8 270.0,130.8 270.0,131.6 277.5,131.6 277.5,131.6 285.0,131.6 285.0,130.8 287.5,130.8 287.5,130.4 305.0,130.4 305.0,130.0" stroke="rgb(0,0,0)" /><text fill="black" x="250.0" y="151.6">H5</text><polygon fill="rgb(150,150,150)" points="385.0,130.0 385.0,129.4 377.5,129.4 377.5,129.0 375.0,129.0 375.0,128.4 372.5,128.4 372.5,121.0 370.0,121.0 370.0,102.0 367.5,102.0 367.5,95.4 360.0,95.4 360.0,95.4 352.5,95.4 352.5,102.0 350.0,102.0 350.0,121.0 347.5,121.0 347.5,128.4 345.0,128.4 345.0,129.0 342.5,129.0 342.5,129.4 335.0,129.4 335.0,130.0 335.0,130.0 335.0,130.6 342.5,130.6 342.5,131.0 345.0,131.0 345.0,131.6 347.5,131.6 347.5,139.0 350.0,139.0 350.0,158.0 352.5,158.0 352.5,164.6 360.0,164.6 360.0,164.6 367.5,164.6 367.5,158.0 370.0,158.0 370.0,139.0 372.5,139.0 372.5,131.6 375.0,131.6 375.0,131.0 377.5,131.0 377.5,130.6 385.0,130.6 385.0,130.0" stroke="rgb(0,0,0)" /><text fill="black" x="335.0" y="184.6">H6</text><polygon fill="rgb(255,150,150)" points="440.0,130.0 440.0,129.8 435.0,129.8 435.0,127.8 432.5,127.8 432.5,120.8 430.0,120.8 430.0,120.2 427.5,120.2 427.5,120.2 425.0,120.2 425.0,120.8 422.5,120.8 422.5,127.8 420.0,127.8 420.0,129.8 415.0,129.8 415.0,130.0 415.0,130.0 415.0,130.2 420.0,130.2 420.0,132.2 422.5,132.2 422.5,139.2 425.0,139.2 425.0,139.8 427.5,139.8 427.5,139.8 430.0,139.8 430.0,139.2 432.5,139.2 432.5,132.2 435.0,132.2 435.0,130.2 440.0,130.2 440.0,130.0" stroke="rgb(0,0,0)" /><text fill="black" x="415.0" y="159.8">E7</text><polygon fill="rgb(150,150,150)" points="470.0,130.0 470.0,130.0 470.0,130.0 470.0,130.0" stroke="rgb(0,0,0)" /><text fill="black" x="470.0" y="150.0">X8</text><polygon fill="rgb(255,150,150)" points="560.0,130.0 560.0,127.8 557.5,127.8 557.5,126.8 555.0,126.8 555.0,121.4 552.5,121.4 552.5,100.2 550.0,100.2 550.0,96.0 547.5,96.0 547.5,85.8 545.0,85.8 545.0,83.0 542.5,83.0 542.5,81.6 540.0,81.6 540.0,81.4 537.5,81.4 537.5,81.2 532.5,81.2 532.5,81.0 530.0,81.0 530.0,81.0 527.5,81.0 527.5,81.2 522.5,81.2 522.5,81.4 520.0,81.4 520.0,81.6 517.5,81.6 517.5,83.0 515.0,83.0 515.0,85.8 512.5,85.8 512.5,96.0 510.0,96.0 510.0,100.2 507.5,100.2 507.5,121.4 505.0,121.4 505.0,126.8 502.5,126.8 502.5,127.8 500.0,127.8 500.0,130.0 500.0,130.0 500.0,132.2 502.5,132.2 502.5,133.2 505.0,133.2 505.0,138.6 507.5,138.6 507.5,159.8 510.0,159.8 510.0,164.0 512.5,164.0 512.5,174.2 515.0,174.2 515.0,177.0 517.5,177.0 517.5,178.4 520.0,178.4 520.0,178.6 522.5,178.6 522.5,178.8 527.5,178.8 527.5,179.0 530.0,179.0 530.0,179.0 532.5,179.0 532.5,178.8 537.5,178.8 537.5,178.6 540.0,178.6 540.0,178.4 542.5,178.4 542.5,177.0 545.0,177.0 545.0,174.2 547.5,174.2 547.5,164.0 550.0,164.0 550.0,159.8 552.5,159.8 552.5,138.6 555.0,138.6 555.0,133.2 557.5,133.2 557.5,132.2 560.0,132.2 560.0,130.0" stroke="rgb(0,0,0)" /><text fill="black" x="500.0" y="199.0">E9</text><polygon fill="rgb(150,150,255)" points="615.0,130.0 615.0,129.8 607.5,129.8 607.5,129.4 602.5,129.4 602.5,129.4 597.5,129.4 597.5,129.8 590.0,129.8 590.0,130.0 590.0,130.0 590.0,130.2 597.5,130.2 597.5,130.6 602.5,130.6 602.5,130.6 607.5,130.6 607.5,130.2 615.0,130.2 615.0,130.0" stroke="rgb(0,0,0)" /><text fill="black" x="590.0" y="150.6">E10</text><polygon fill="rgb(150,150,150)" points="690.0,130.0 690.0,129.4 687.5,129.4 687.5,109.2 685.0,109.2 685.0,109.0 682.5,109.0 682.5,107.80000000000001 677.5,107.80000000000001 677.5,99.2 675.0,99.2 675.0,97.6 667.5,97.6 667.5,97.6 660.0,97.6 660.0,99.2 657.5,99.2 657.5,107.80000000000001 652.5,107.80000000000001 652.5,109.0 650.0,109.0 650.0,109.2 647.5,109.2 647.5,129.4 645.0,129.4 645.0,130.0 645.0,130.0 645.0,130.6 647.5,130.6 647.5,150.8 650.0,150.8 650.0,151.0 652.5,151.0 652.5,152.2 657.5,152.2 657.5,160.8 660.0,160.8 660.0,162.4 667.5,162.4 667.5,162.4 675.0,162.4 675.0,160.8 677.5,160.8 677.5,152.2 682.5,152.2 682.5,151.0 685.0,151.0 685.0,150.8 687.5,150.8 687.5,130.6 690.0,130.6 690.0,130.0" stroke="rgb(0,0,0)" /><text fill="black" x="645.0" y="182.4">H11</text><polygon fill="rgb(150,150,150)" points="785.0,130.0 785.0,127.2 780.0,127.2 780.0,126.60000000000001 777.5,126.60000000000001 777.5,124.6 775.0,124.6 775.0,109.6 772.5,109.6 772.5,109.0 770.0,109.0 770.0,107.80000000000001 765.0,107.80000000000001 765.0,107.4 762.5,107.4 762.5,107.2 760.0,107.2 760.0,105.8 752.5,105.8 752.5,105.8 745.0,105.8 745.0,107.2 742.5,107.2 742.5,107.4 740.0,107.4 740.0,107.80000000000001 735.0,107.80000000000001 735.0,109.0 732.5,109.0 732.5,109.6 730.0,109.6 730.0,124.6 727.5,124.6 727.5,126.60000000000001 725.0,126.60000000000001 725.0,127.2 720.0,127.2 720.0,130.0 720.0,130.0 720.0,132.8 725.0,132.8 725.0,133.4 727.5,133.4 727.5,135.4 730.0,135.4 730.0,150.4 732.5,150.4 732.5,151.0 735.0,151.0 735.0,152.2 740.0,152.2 740.0,152.6 742.5,152.6 742.5,152.8 745.0,152.8 745.0,154.2 752.5,154.2 752.5,154.2 760.0,154.2 760.0,152.8 762.5,152.8 762.5,152.6 765.0,152.6 765.0,152.2 770.0,152.2 770.0,151.0 772.5,151.0 772.5,150.4 775.0,150.4 775.0,135.4 777.5,135.4 777.5,133.4 780.0,133.4 780.0,132.8 785.0,132.8 785.0,130.0" stroke="rgb(0,0,0)" /><text fill="black" x="720.0" y="174.2">H12</text><polygon fill="rgb(150,150,150)" points="850.0,130.0 850.0,129.6 840.0,129.6 840.0,128.6 832.5,128.6 832.5,128.6 825.0,128.6 825.0,129.6 815.0,129.6 815.0,130.0 815.0,130.0 815.0,130.4 825.0,130.4 825.0,131.4 832.5,131.4 832.5,131.4 840.0,131.4 840.0,130.4 850.0,130.4 850.0,130.0" stroke="rgb(0,0,0)" /><text fill="black" x="815.0" y="151.4">H13</text><polygon fill="rgb(150,150,150)" points="880.0,55.0 880.0,55.0 880.0,55.0 880.0,55.0" stroke="rgb(0,0,0)" /><text fill="black" x="880.0" y="75.0">X14</text><polygon fill="rgb(150,150,255)" points="910.0,205.0 910.0,204.8 905.0,204.8 905.0,204.6 900.0,204.6 900.0,204.2 897.5,204.2 897.5,200.8 895.0,200.8 895.0,200.8 892.5,200.8 892.5,204.2 890.0,204.2 890.0,204.6 885.0,204.6 885.0,204.8 880.0,204.8 880.0,205.0 880.0,205.0 880.0,205.2 885.0,205.2 885.0,205.4 890.0,205.4 890.0,205.8 892.5,205.8 892.5,209.2 895.0,209.2 895.0,209.2 897.5,209.2 897.5,205.8 900.0,205.8 900.0,205.4 905.0,205.4 905.0,205.2 910.0,205.2 910.0,205.0" stroke="rgb(0,0,0)" /><text fill="black" x="880.0" y="229.2">E15</text><polygon fill="rgb(150,150,150)" points="940.0,55.0 940.0,55.0 940.0,55.0 940.0,55.0" stroke="rgb(0,0,0)" /><text fill="black" x="940.0" y="75.0">X16</text><polygon fill="rgb(255,150,150)" points="945.0,205.0 945.0,204.8 942.5,204.8 942.5,204.8 940.0,204.8 940.0,205.0 940.0,205.0 940.0,205.2 942.5,205.2 942.5,205.2 945.0,205.2 945.0,205.0" stroke="rgb(0,0,0)" /><text fill="black" x="940.0" y="225.2">E17</text><polygon fill="rgb(255,150,150)" points="1040.0,130.0 1040.0,129.4 1037.5,129.4 1037.5,129.2 1035.0,129.2 1035.0,127.6 1032.5,127.6 1032.5,125.8 1030.0,125.8 1030.0,120.0 1027.5,120.0 1027.5,115.2 1025.0,115.2 1025.0,90.8 1022.5,90.8 1022.5,84.0 1020.0,84.0 1020.0,82.6 1017.5,82.6 1017.5,81.6 1015.0,81.6 1015.0,81.4 1012.5,81.4 1012.5,81.2 1010.0,81.2 1010.0,81.0 1007.5,81.0 1007.5,81.0 1005.0,81.0 1005.0,81.2 1002.5,81.2 1002.5,81.4 1000.0,81.4 1000.0,81.6 997.5,81.6 997.5,82.6 995.0,82.6 995.0,84.0 992.5,84.0 992.5,90.8 990.0,90.8 990.0,115.2 987.5,115.2 987.5,120.0 985.0,120.0 985.0,125.8 982.5,125.8 982.5,127.6 980.0,127.6 980.0,129.2 977.5,129.2 977.5,129.4 975.0,129.4 975.0,130.0 975.0,130.0 975.0,130.6 977.5,130.6 977.5,130.8 980.0,130.8 980.0,132.4 982.5,132.4 982.5,134.2 985.0,134.2 985.0,140.0 987.5,140.0 987.5,144.8 990.0,144.8 990.0,169.2 992.5,169.2 992.5,176.0 995.0,176.0 995.0,177.4 997.5,177.4 997.5,178.4 1000.0,178.4 1000.0,178.6 1002.5,178.6 1002.5,178.8 1005.0,178.8 1005.0,179.0 1007.5,179.0 1007.5,179.0 1010.0,179.0 1010.0,178.8 1012.5,178.8 1012.5,178.6 1015.0,178.6 1015.0,178.4 1017.5,178.4 1017.5,177.4 1020.0,177.4 1020.0,176.0 1022.5,176.0 1022.5,169.2 1025.0,169.2 1025.0,144.8 1027.5,144.8 1027.5,140.0 1030.0,140.0 1030.0,134.2 1032.5,134.2 1032.5,132.4 1035.0,132.4 1035.0,130.8 1037.5,130.8 1037.5,130.6 1040.0,130.6 1040.0,130.0" stroke="rgb(0,0,0)" /><text fill="black" x="975.0" y="199.0">E18</text><polygon fill="rgb(150,150,150)" points="1070.0,55.0 1070.0,55.0 1070.0,55.0 1070.0,55.0" stroke="rgb(0,0,0)" /><text fill="black" x="1070.0" y="75.0">X19</text><polygon fill="rgb(150,150,150)" points="1085.0,205.0 1085.0,202.8 1077.5,202.8 1077.5,202.8 1070.0,202.8 1070.0,205.0 1070.0,205.0 1070.0,207.2 1077.5,207.2 1077.5,207.2 1085.0,207.2 1085.0,205.0" stroke="rgb(0,0,0)" /><text fill="black" x="1070.0" y="227.2">H20</text><polygon fill="rgb(255,150,150)" points="1125.0,130.0 1125.0,129.8 1122.5,129.8 1122.5,128.8 1120.0,128.8 1120.0,128.8 1117.5,128.8 1117.5,129.8 1115.0,129.8 1115.0,130.0 1115.0,130.0 1115.0,130.2 1117.5,130.2 1117.5,131.2 1120.0,131.2 1120.0,131.2 1122.5,131.2 1122.5,130.2 1125.0,130.2 1125.0,130.0" stroke="rgb(0,0,0)" /><text fill="black" x="1115.0" y="151.2">E21</text><polygon fill="rgb(255,150,150)" points="1215.0,130.0 1215.0,129.8 1212.5,129.8 1212.5,129.4 1210.0,129.4 1210.0,122.8 1207.5,122.8 1207.5,111.4 1205.0,111.4 1205.0,101.6 1202.5,101.6 1202.5,84.4 1200.0,84.4 1200.0,81.80000000000001 1197.5,81.80000000000001 1197.5,81.4 1195.0,81.4 1195.0,81.2 1187.5,81.2 1187.5,81.0 1185.0,81.0 1185.0,81.0 1182.5,81.0 1182.5,81.2 1175.0,81.2 1175.0,81.4 1172.5,81.4 1172.5,81.80000000000001 1170.0,81.80000000000001 1170.0,84.4 1167.5,84.4 1167.5,101.6 1165.0,101.6 1165.0,111.4 1162.5,111.4 1162.5,122.8 1160.0,122.8 1160.0,129.4 1157.5,129.4 1157.5,129.8 1155.0,129.8 1155.0,130.0 1155.0,130.0 1155.0,130.2 1157.5,130.2 1157.5,130.6 1160.0,130.6 1160.0,137.2 1162.5,137.2 1162.5,148.6 1165.0,148.6 1165.0,158.4 1167.5,158.4 1167.5,175.6 1170.0,175.6 1170.0,178.2 1172.5,178.2 1172.5,178.6 1175.0,178.6 1175.0,178.8 1182.5,178.8 1182.5,179.0 1185.0,179.0 1185.0,179.0 1187.5,179.0 1187.5,178.8 1195.0,178.8 1195.0,178.6 1197.5,178.6 1197.5,178.2 1200.0,178.2 1200.0,175.6 1202.5,175.6 1202.5,158.4 1205.0,158.4 1205.0,148.6 1207.5,148.6 1207.5,137.2 1210.0,137.2 1210.0,130.6 1212.5,130.6 1212.5,130.2 1215.0,130.2 1215.0,130.0" stroke="rgb(0,0,0)" /><text fill="black" x="1155.0" y="199.0">E22</text><polygon fill="rgb(255,150,150)" points="1265.0,130.0 1265.0,129.8 1257.5,129.8 1257.5,129.6 1255.0,129.6 1255.0,129.6 1252.5,129.6 1252.5,129.8 1245.0,129.8 1245.0,130.0 1245.0,130.0 1245.0,130.2 1252.5,130.2 1252.5,130.4 1255.0,130.4 1255.0,130.4 1257.5,130.4 1257.5,130.2 1265.0,130.2 1265.0,130.0" stroke="rgb(0,0,0)" /><text fill="black" x="1245.0" y="150.4">E23</text><polygon fill="rgb(150,150,150)" points="1345.0,130.0 1345.0,129.8 1342.5,129.8 1342.5,129.2 1327.5,129.2 1327.5,122.2 1320.0,122.2 1320.0,122.2 1312.5,122.2 1312.5,129.2 1297.5,129.2 1297.5,129.8 1295.0,129.8 1295.0,130.0 1295.0,130.0 1295.0,130.2 1297.5,130.2 1297.5,130.8 1312.5,130.8 1312.5,137.8 1320.0,137.8 1320.0,137.8 1327.5,137.8 1327.5,130.8 1342.5,130.8 1342.5,130.2 1345.0,130.2 1345.0,130.0" stroke="rgb(0,0,0)" /><text fill="black" x="1295.0" y="157.8">H24</text><polygon fill="rgb(255,150,150)" points="1395.0,130.0 1395.0,129.8 1387.5,129.8 1387.5,129.6 1385.0,129.6 1385.0,129.6 1382.5,129.6 1382.5,129.8 1375.0,129.8 1375.0,130.0 1375.0,130.0 1375.0,130.2 1382.5,130.2 1382.5,130.4 1385.0,130.4 1385.0,130.4 1387.5,130.4 1387.5,130.2 1395.0,130.2 1395.0,130.0" stroke="rgb(0,0,0)" /><text fill="black" x="1375.0" y="150.4">E25</text><polygon fill="rgb(255,150,150)" points="1495.0,130.0 1495.0,129.8 1492.5,129.8 1492.5,129.4 1490.0,129.4 1490.0,123.6 1487.5,123.6 1487.5,115.0 1485.0,115.0 1485.0,110.6 1482.5,110.6 1482.5,106.8 1480.0,106.8 1480.0,101.4 1477.5,101.4 1477.5,93.2 1475.0,93.2 1475.0,86.6 1472.5,86.6 1472.5,81.6 1470.0,81.6 1470.0,81.4 1467.5,81.4 1467.5,81.2 1460.0,81.2 1460.0,81.2 1452.5,81.2 1452.5,81.4 1450.0,81.4 1450.0,81.6 1447.5,81.6 1447.5,86.6 1445.0,86.6 1445.0,93.2 1442.5,93.2 1442.5,101.4 1440.0,101.4 1440.0,106.8 1437.5,106.8 1437.5,110.6 1435.0,110.6 1435.0,115.0 1432.5,115.0 1432.5,123.6 1430.0,123.6 1430.0,129.4 1427.5,129.4 1427.5,129.8 1425.0,129.8 1425.0,130.0 1425.0,130.0 1425.0,130.2 1427.5,130.2 1427.5,130.6 1430.0,130.6 1430.0,136.4 1432.5,136.4 1432.5,145.0 1435.0,145.0 1435.0,149.4 1437.5,149.4 1437.5,153.2 1440.0,153.2 1440.0,158.6 1442.5,158.6 1442.5,166.8 1445.0,166.8 1445.0,173.4 1447.5,173.4 1447.5,178.4 1450.0,178.4 1450.0,178.6 1452.5,178.6 1452.5,178.8 1460.0,178.8 1460.0,178.8 1467.5,178.8 1467.5,178.6 1470.0,178.6 1470.0,178.4 1472.5,178.4 1472.5,173.4 1475.0,173.4 1475.0,166.8 1477.5,166.8 1477.5,158.6 1480.0,158.6 1480.0,153.2 1482.5,153.2 1482.5,149.4 1485.0,149.4 1485.0,145.0 1487.5,145.0 1487.5,136.4 1490.0,136.4 1490.0,130.6 1492.5,130.6 1492.5,130.2 1495.0,130.2 1495.0,130.0" stroke="rgb(0,0,0)" /><text fill="black" x="1425.0" y="198.8">E26</text><polygon fill="rgb(255,150,150)" points="1565.0,130.0 1565.0,129.8 1557.5,129.8 1557.5,129.6 1552.5,129.6 1552.5,129.4 1547.5,129.4 1547.5,128.6 1545.0,128.6 1545.0,128.6 1542.5,128.6 1542.5,129.4 1537.5,129.4 1537.5,129.6 1532.5,129.6 1532.5,129.8 1525.0,129.8 1525.0,130.0 1525.0,130.0 1525.0,130.2 1532.5,130.2 1532.5,130.4 1537.5,130.4 1537.5,130.6 1542.5,130.6 1542.5,131.4 1545.0,131.4 1545.0,131.4 1547.5,131.4 1547.5,130.6 1552.5,130.6 1552.5,130.4 1557.5,130.4 1557.5,130.2 1565.0,130.2 1565.0,130.0" stroke="rgb(0,0,0)" /><text fill="black" x="1525.0" y="151.4">E27</text><polygon fill="rgb(150,150,150)" points="1610.0,130.0 1610.0,129.6 1602.5,129.6 1602.5,129.6 1595.0,129.6 1595.0,130.0 1595.0,130.0 1595.0,130.4 1602.5,130.4 1602.5,130.4 1610.0,130.4 1610.0,130.0" stroke="rgb(0,0,0)" /><text fill="black" x="1595.0" y="150.4">H28</text><polygon fill="rgb(255,150,150)" points="1680.0,130.0 1680.0,129.0 1677.5,129.0 1677.5,128.4 1675.0,128.4 1675.0,127.39999999999999 1672.5,127.39999999999999 1672.5,124.2 1670.0,124.2 1670.0,107.80000000000001 1667.5,107.80000000000001 1667.5,107.2 1662.5,107.2 1662.5,107.0 1660.0,107.0 1660.0,107.0 1657.5,107.0 1657.5,107.2 1652.5,107.2 1652.5,107.80000000000001 1650.0,107.80000000000001 1650.0,124.2 1647.5,124.2 1647.5,127.39999999999999 1645.0,127.39999999999999 1645.0,128.4 1642.5,128.4 1642.5,129.0 1640.0,129.0 1640.0,130.0 1640.0,130.0 1640.0,131.0 1642.5,131.0 1642.5,131.6 1645.0,131.6 1645.0,132.6 1647.5,132.6 1647.5,135.8 1650.0,135.8 1650.0,152.2 1652.5,152.2 1652.5,152.8 1657.5,152.8 1657.5,153.0 1660.0,153.0 1660.0,153.0 1662.5,153.0 1662.5,152.8 1667.5,152.8 1667.5,152.2 1670.0,152.2 1670.0,135.8 1672.5,135.8 1672.5,132.6 1675.0,132.6 1675.0,131.6 1677.5,131.6 1677.5,131.0 1680.0,131.0 1680.0,130.0" stroke="rgb(0,0,0)" /><text fill="black" x="1640.0" y="173.0">E29</text><polygon fill="rgb(150,150,150)" points="1725.0,55.0 1725.0,51.2 1717.5,51.2 1717.5,51.2 1710.0,51.2 1710.0,55.0 1710.0,55.0 1710.0,58.8 1717.5,58.8 1717.5,58.8 1725.0,58.8 1725.0,55.0" stroke="rgb(0,0,0)" /><text fill="black" x="1710.0" y="78.8">H30</text><polygon fill="rgb(255,150,150)" points="1735.0,205.0 1735.0,203.2 1732.5,203.2 1732.5,202.4 1730.0,202.4 1730.0,202.0 1722.5,202.0 1722.5,202.0 1715.0,202.0 1715.0,202.4 1712.5,202.4 1712.5,203.2 1710.0,203.2 1710.0,205.0 1710.0,205.0 1710.0,206.8 1712.5,206.8 1712.5,207.6 1715.0,207.6 1715.0,208.0 1722.5,208.0 1722.5,208.0 1730.0,208.0 1730.0,207.6 1732.5,207.6 1732.5,206.8 1735.0,206.8 1735.0,205.0" stroke="rgb(0,0,0)" /><text fill="black" x="1710.0" y="228.0">E31</text><polygon fill="rgb(255,150,150)" points="1820.0,130.0 1820.0,129.8 1817.5,129.8 1817.5,125.8 1815.0,125.8 1815.0,111.8 1812.5,111.8 1812.5,110.0 1810.0,110.0 1810.0,109.4 1807.5,109.4 1807.5,108.19999999999999 1805.0,108.19999999999999 1805.0,108.0 1802.5,108.0 1802.5,107.4 1800.0,107.4 1800.0,106.6 1797.5,106.6 1797.5,99.6 1795.0,99.6 1795.0,99.2 1792.5,99.2 1792.5,99.2 1790.0,99.2 1790.0,99.6 1787.5,99.6 1787.5,106.6 1785.0,106.6 1785.0,107.4 1782.5,107.4 1782.5,108.0 1780.0,108.0 1780.0,108.19999999999999 1777.5,108.19999999999999 1777.5,109.4 1775.0,109.4 1775.0,110.0 1772.5,110.0 1772.5,111.8 1770.0,111.8 1770.0,125.8 1767.5,125.8 1767.5,129.8 1765.0,129.8 1765.0,130.0 1765.0,130.0 1765.0,130.2 1767.5,130.2 1767.5,134.2 1770.0,134.2 1770.0,148.2 1772.5,148.2 1772.5,150.0 1775.0,150.0 1775.0,150.6 1777.5,150.6 1777.5,151.8 1780.0,151.8 1780.0,152.0 1782.5,152.0 1782.5,152.6 1785.0,152.6 1785.0,153.4 1787.5,153.4 1787.5,160.4 1790.0,160.4 1790.0,160.8 1792.5,160.8 1792.5,160.8 1795.0,160.8 1795.0,160.4 1797.5,160.4 1797.5,153.4 1800.0,153.4 1800.0,152.6 1802.5,152.6 1802.5,152.0 1805.0,152.0 1805.0,151.8 1807.5,151.8 1807.5,150.6 1810.0,150.6 1810.0,150.0 1812.5,150.0 1812.5,148.2 1815.0,148.2 1815.0,134.2 1817.5,134.2 1817.5,130.2 1820.0,130.2 1820.0,130.0" stroke="rgb(0,0,0)" /><text fill="black" x="1765.0" y="180.8">E32</text><polygon fill="rgb(150,150,150)" points="1865.0,130.0 1865.0,125.6 1857.5,125.6 1857.5,125.6 1850.0,125.6 1850.0,130.0 1850.0,130.0 1850.0,134.4 1857.5,134.4 1857.5,134.4 1865.0,134.4 1865.0,130.0" stroke="rgb(0,0,0)" /><text fill="black" x="1850.0" y="154.4">H33</text><polygon fill="rgb(255,150,150)" points="1950.0,130.0 1950.0,129.6 1947.5,129.6 1947.5,128.6 1945.0,128.6 1945.0,123.8 1942.5,123.8 1942.5,109.6 1940.0,109.6 1940.0,104.4 1937.5,104.4 1937.5,98.4 1935.0,98.4 1935.0,94.0 1932.5,94.0 1932.5,83.0 1930.0,83.0 1930.0,81.6 1927.5,81.6 1927.5,81.0 1922.5,81.0 1922.5,81.0 1917.5,81.0 1917.5,81.6 1915.0,81.6 1915.0,83.0 1912.5,83.0 1912.5,94.0 1910.0,94.0 1910.0,98.4 1907.5,98.4 1907.5,104.4 1905.0,104.4 1905.0,109.6 1902.5,109.6 1902.5,123.8 1900.0,123.8 1900.0,128.6 1897.5,128.6 1897.5,129.6 1895.0,129.6 1895.0,130.0 1895.0,130.0 1895.0,130.4 1897.5,130.4 1897.5,131.4 1900.0,131.4 1900.0,136.2 1902.5,136.2 1902.5,150.4 1905.0,150.4 1905.0,155.6 1907.5,155.6 1907.5,161.6 1910.0,161.6 1910.0,166.0 1912.5,166.0 1912.5,177.0 1915.0,177.0 1915.0,178.4 1917.5,178.4 1917.5,179.0 1922.5,179.0 1922.5,179.0 1927.5,179.0 1927.5,178.4 1930.0,178.4 1930.0,177.0 1932.5,177.0 1932.5,166.0 1935.0,166.0 1935.0,161.6 1937.5,161.6 1937.5,155.6 1940.0,155.6 1940.0,150.4 1942.5,150.4 1942.5,136.2 1945.0,136.2 1945.0,131.4 1947.5,131.4 1947.5,130.4 1950.0,130.4 1950.0,130.0" stroke="rgb(0,0,0)" /><text fill="black" x="1895.0" y="199.0">E34</text><polygon fill="rgb(150,150,150)" points="1995.0,55.0 1995.0,54.6 1987.5,54.6 1987.5,54.6 1980.0,54.6 1980.0,55.0 1980.0,55.0 1980.0,55.4 1987.5,55.4 1987.5,55.4 1995.0,55.4 1995.0,55.0" stroke="rgb(0,0,0)" /><text fill="black" x="1980.0" y="75.4">H35</text><polygon fill="rgb(150,150,150)" points="1980.0,205.0 1980.0,205.0 1980.0,205.0 1980.0,205.0" stroke="rgb(0,0,0)" /><text fill="black" x="1980.0" y="225.0">X36</text><polygon fill="rgb(150,150,150)" points="2025.0,130.0 2025.0,130.0 2025.0,130.0 2025.0,130.0" stroke="rgb(0,0,0)" /><text fill="black" x="2025.0" y="150.0">X37</text><polygon fill="rgb(255,150,150)" points="2070.0,130.0 2070.0,125.2 2065.0,125.2 2065.0,123.8 2062.5,123.8 2062.5,123.8 2060.0,123.8 2060.0,125.2 2055.0,125.2 2055.0,130.0 2055.0,130.0 2055.0,134.8 2060.0,134.8 2060.0,136.2 2062.5,136.2 2062.5,136.2 2065.0,136.2 2065.0,134.8 2070.0,134.8 2070.0,130.0" stroke="rgb(0,0,0)" /><text fill="black" x="2055.0" y="156.2">E38</text><polygon fill="rgb(150,150,150)" points="2120.0,55.0 2120.0,51.400000000000006 2117.5,51.400000000000006 2117.5,45.0 2110.0,45.0 2110.0,45.0 2102.5,45.0 2102.5,51.400000000000006 2100.0,51.400000000000006 2100.0,55.0 2100.0,55.0 2100.0,58.599999999999994 2102.5,58.599999999999994 2102.5,65.0 2110.0,65.0 2110.0,65.0 2117.5,65.0 2117.5,58.599999999999994 2120.0,58.599999999999994 2120.0,55.0" stroke="rgb(0,0,0)" /><text fill="black" x="2100.0" y="85.0">H39</text><polygon fill="rgb(255,150,150)" points="2105.0,205.0 2105.0,203.8 2102.5,203.8 2102.5,203.8 2100.0,203.8 2100.0,205.0 2100.0,205.0 2100.0,206.2 2102.5,206.2 2102.5,206.2 2105.0,206.2 2105.0,205.0" stroke="rgb(0,0,0)" /><text fill="black" x="2100.0" y="226.2">E40</text><polygon fill="rgb(255,150,150)" points="2205.0,130.0 2205.0,125.0 2202.5,125.0 2202.5,109.2 2200.0,109.2 2200.0,105.2 2197.5,105.2 2197.5,94.6 2195.0,94.6 2195.0,82.80000000000001 2192.5,82.80000000000001 2192.5,82.4 2190.0,82.4 2190.0,81.6 2187.5,81.6 2187.5,81.2 2185.0,81.2 2185.0,80.8 2182.5,80.8 2182.5,80.6 2180.0,80.6 2180.0,80.4 2177.5,80.4 2177.5,80.4 2175.0,80.4 2175.0,80.6 2172.5,80.6 2172.5,80.8 2170.0,80.8 2170.0,81.2 2167.5,81.2 2167.5,81.6 2165.0,81.6 2165.0,82.4 2162.5,82.4 2162.5,82.80000000000001 2160.0,82.80000000000001 2160.0,94.6 2157.5,94.6 2157.5,105.2 2155.0,105.2 2155.0,109.2 2152.5,109.2 2152.5,125.0 2150.0,125.0 2150.0,130.0 2150.0,130.0 2150.0,135.0 2152.5,135.0 2152.5,150.8 2155.0,150.8 2155.0,154.8 2157.5,154.8 2157.5,165.4 2160.0,165.4 2160.0,177.2 2162.5,177.2 2162.5,177.6 2165.0,177.6 2165.0,178.4 2167.5,178.4 2167.5,178.8 2170.0,178.8 2170.0,179.2 2172.5,179.2 2172.5,179.4 2175.0,179.4 2175.0,179.6 2177.5,179.6 2177.5,179.6 2180.0,179.6 2180.0,179.4 2182.5,179.4 2182.5,179.2 2185.0,179.2 2185.0,178.8 2187.5,178.8 2187.5,178.4 2190.0,178.4 2190.0,177.6 2192.5,177.6 2192.5,177.2 2195.0,177.2 2195.0,165.4 2197.5,165.4 2197.5,154.8 2200.0,154.8 2200.0,150.8 2202.5,150.8 2202.5,135.0 2205.0,135.0 2205.0,130.0" stroke="rgb(0,0,0)" /><text fill="black" x="2150.0" y="199.6">E41</text><polygon fill="rgb(150,150,150)" points="2250.0,130.0 2250.0,126.60000000000001 2242.5,126.60000000000001 2242.5,126.60000000000001 2235.0,126.60000000000001 2235.0,130.0 2235.0,130.0 2235.0,133.4 2242.5,133.4 2242.5,133.4 2250.0,133.4 2250.0,130.0" stroke="rgb(0,0,0)" /><text fill="black" x="2235.0" y="153.4">H42</text><polygon fill="rgb(150,150,150)" points="2280.0,130.0 2280.0,130.0 2280.0,130.0 2280.0,130.0" stroke="rgb(0,0,0)" /><text fill="black" x="2280.0" y="150.0">X43</text><polygon fill="rgb(255,150,150)" points="2365.0,130.0 2365.0,129.8 2362.5,129.8 2362.5,116.0 2360.0,116.0 2360.0,113.8 2357.5,113.8 2357.5,90.19999999999999 2355.0,90.19999999999999 2355.0,83.6 2352.5,83.6 2352.5,81.0 2350.0,81.0 2350.0,80.4 2345.0,80.4 2345.0,80.2 2340.0,80.2 2340.0,80.0 2337.5,80.0 2337.5,80.0 2335.0,80.0 2335.0,80.2 2330.0,80.2 2330.0,80.4 2325.0,80.4 2325.0,81.0 2322.5,81.0 2322.5,83.6 2320.0,83.6 2320.0,90.19999999999999 2317.5,90.19999999999999 2317.5,113.8 2315.0,113.8 2315.0,116.0 2312.5,116.0 2312.5,129.8 2310.0,129.8 2310.0,130.0 2310.0,130.0 2310.0,130.2 2312.5,130.2 2312.5,144.0 2315.0,144.0 2315.0,146.2 2317.5,146.2 2317.5,169.8 2320.0,169.8 2320.0,176.4 2322.5,176.4 2322.5,179.0 2325.0,179.0 2325.0,179.6 2330.0,179.6 2330.0,179.8 2335.0,179.8 2335.0,180.0 2337.5,180.0 2337.5,180.0 2340.0,180.0 2340.0,179.8 2345.0,179.8 2345.0,179.6 2350.0,179.6 2350.0,179.0 2352.5,179.0 2352.5,176.4 2355.0,176.4 2355.0,169.8 2357.5,169.8 2357.5,146.2 2360.0,146.2 2360.0,144.0 2362.5,144.0 2362.5,130.2 2365.0,130.2 2365.0,130.0" stroke="rgb(0,0,0)" /><text fill="black" x="2310.0" y="200.0">E44</text><polygon fill="rgb(150,150,150)" points="2425.0,130.0 2425.0,128.8 2417.5,128.8 2417.5,127.2 2410.0,127.2 2410.0,127.2 2402.5,127.2 2402.5,128.8 2395.0,128.8 2395.0,130.0 2395.0,130.0 2395.0,131.2 2402.5,131.2 2402.5,132.8 2410.0,132.8 2410.0,132.8 2417.5,132.8 2417.5,131.2 2425.0,131.2 2425.0,130.0" stroke="rgb(0,0,0)" /><text fill="black" x="2395.0" y="152.8">H45</text><polygon fill="rgb(150,150,150)" points="2480.0,130.0 2480.0,129.4 2477.5,129.4 2477.5,128.8 2467.5,128.8 2467.5,128.8 2457.5,128.8 2457.5,129.4 2455.0,129.4 2455.0,130.0 2455.0,130.0 2455.0,130.6 2457.5,130.6 2457.5,131.2 2467.5,131.2 2467.5,131.2 2477.5,131.2 2477.5,130.6 2480.0,130.6 2480.0,130.0" stroke="rgb(0,0,0)" /><text fill="black" x="2455.0" y="151.2">H46</text><polygon fill="rgb(255,150,150)" points="2515.0,130.0 2515.0,128.8 2512.5,128.8 2512.5,128.8 2510.0,128.8 2510.0,130.0 2510.0,130.0 2510.0,131.2 2512.5,131.2 2512.5,131.2 2515.0,131.2 2515.0,130.0" stroke="rgb(0,0,0)" /><text fill="black" x="2510.0" y="151.2">E47</text><polygon fill="rgb(150,150,150)" points="2565.0,130.0 2565.0,128.8 2555.0,128.8 2555.0,128.8 2545.0,128.8 2545.0,130.0 2545.0,130.0 2545.0,131.2 2555.0,131.2 2555.0,131.2 2565.0,131.2 2565.0,130.0" stroke="rgb(0,0,0)" /><text fill="black" x="2545.0" y="151.2">H48</text><polygon fill="rgb(150,150,150)" points="2645.0,130.0 2645.0,128.8 2620.0,128.8 2620.0,128.8 2595.0,128.8 2595.0,130.0 2595.0,130.0 2595.0,131.2 2620.0,131.2 2620.0,131.2 2645.0,131.2 2645.0,130.0" stroke="rgb(0,0,0)" /><text fill="black" x="2595.0" y="151.2">H49</text><polygon fill="rgb(150,150,150)" points="2705.0,130.0 2705.0,129.6 2700.0,129.6 2700.0,127.39999999999999 2697.5,127.39999999999999 2697.5,126.0 2690.0,126.0 2690.0,126.0 2682.5,126.0 2682.5,127.39999999999999 2680.0,127.39999999999999 2680.0,129.6 2675.0,129.6 2675.0,130.0 2675.0,130.0 2675.0,130.4 2680.0,130.4 2680.0,132.6 2682.5,132.6 2682.5,134.0 2690.0,134.0 2690.0,134.0 2697.5,134.0 2697.5,132.6 2700.0,132.6 2700.0,130.4 2705.0,130.4 2705.0,130.0" stroke="rgb(0,0,0)" /><text fill="black" x="2675.0" y="154.0">H50</text><polygon fill="rgb(255,150,150)" points="2745.0,130.0 2745.0,129.8 2742.5,129.8 2742.5,129.2 2740.0,129.2 2740.0,129.2 2737.5,129.2 2737.5,129.8 2735.0,129.8 2735.0,130.0 2735.0,130.0 2735.0,130.2 2737.5,130.2 2737.5,130.8 2740.0,130.8 2740.0,130.8 2742.5,130.8 2742.5,130.2 2745.0,130.2 2745.0,130.0" stroke="rgb(0,0,0)" /><text fill="black" x="2735.0" y="150.8">E51</text><polygon fill="rgb(255,150,150)" points="2845.0,130.0 2845.0,128.8 2842.5,128.8 2842.5,128.6 2840.0,128.6 2840.0,128.4 2837.5,128.4 2837.5,125.2 2835.0,125.2 2835.0,114.6 2832.5,114.6 2832.5,98.2 2830.0,98.2 2830.0,92.6 2827.5,92.6 2827.5,85.0 2825.0,85.0 2825.0,81.2 2822.5,81.2 2822.5,80.8 2820.0,80.8 2820.0,80.4 2817.5,80.4 2817.5,80.2 2810.0,80.2 2810.0,80.2 2802.5,80.2 2802.5,80.4 2800.0,80.4 2800.0,80.8 2797.5,80.8 2797.5,81.2 2795.0,81.2 2795.0,85.0 2792.5,85.0 2792.5,92.6 2790.0,92.6 2790.0,98.2 2787.5,98.2 2787.5,114.6 2785.0,114.6 2785.0,125.2 2782.5,125.2 2782.5,128.4 2780.0,128.4 2780.0,128.6 2777.5,128.6 2777.5,128.8 2775.0,128.8 2775.0,130.0 2775.0,130.0 2775.0,131.2 2777.5,131.2 2777.5,131.4 2780.0,131.4 2780.0,131.6 2782.5,131.6 2782.5,134.8 2785.0,134.8 2785.0,145.4 2787.5,145.4 2787.5,161.8 2790.0,161.8 2790.0,167.4 2792.5,167.4 2792.5,175.0 2795.0,175.0 2795.0,178.8 2797.5,178.8 2797.5,179.2 2800.0,179.2 2800.0,179.6 2802.5,179.6 2802.5,179.8 2810.0,179.8 2810.0,179.8 2817.5,179.8 2817.5,179.6 2820.0,179.6 2820.0,179.2 2822.5,179.2 2822.5,178.8 2825.0,178.8 2825.0,175.0 2827.5,175.0 2827.5,167.4 2830.0,167.4 2830.0,161.8 2832.5,161.8 2832.5,145.4 2835.0,145.4 2835.0,134.8 2837.5,134.8 2837.5,131.6 2840.0,131.6 2840.0,131.4 2842.5,131.4 2842.5,131.2 2845.0,131.2 2845.0,130.0" stroke="rgb(0,0,0)" /><text fill="black" x="2775.0" y="199.8">E52</text><polygon fill="rgb(255,150,150)" points="2880.0,55.0 2880.0,54.8 2877.5,54.8 2877.5,54.8 2875.0,54.8 2875.0,55.0 2875.0,55.0 2875.0,55.2 2877.5,55.2 2877.5,55.2 2880.0,55.2 2880.0,55.0" stroke="rgb(0,0,0)" /><text fill="black" x="2875.0" y="75.2">E53</text><polygon fill="rgb(150,150,150)" points="2895.0,205.0 2895.0,203.4 2885.0,203.4 2885.0,203.4 2875.0,203.4 2875.0,205.0 2875.0,205.0 2875.0,206.6 2885.0,206.6 2885.0,206.6 2895.0,206.6 2895.0,205.0" stroke="rgb(0,0,0)" /><text fill="black" x="2875.0" y="226.6">H54</text><polygon fill="rgb(150,150,150)" points="2990.0,55.0 2990.0,54.6 2982.5,54.6 2982.5,54.2 2967.5,54.2 2967.5,54.0 2965.0,54.0 2965.0,53.4 2957.5,53.4 2957.5,53.4 2950.0,53.4 2950.0,54.0 2947.5,54.0 2947.5,54.2 2932.5,54.2 2932.5,54.6 2925.0,54.6 2925.0,55.0 2925.0,55.0 2925.0,55.4 2932.5,55.4 2932.5,55.8 2947.5,55.8 2947.5,56.0 2950.0,56.0 2950.0,56.6 2957.5,56.6 2957.5,56.6 2965.0,56.6 2965.0,56.0 2967.5,56.0 2967.5,55.8 2982.5,55.8 2982.5,55.4 2990.0,55.4 2990.0,55.0" stroke="rgb(0,0,0)" /><text fill="black" x="2925.0" y="76.6">H55</text><polygon fill="rgb(255,150,150)" points="2935.0,205.0 2935.0,204.8 2932.5,204.8 2932.5,204.4 2930.0,204.4 2930.0,204.4 2927.5,204.4 2927.5,204.8 2925.0,204.8 2925.0,205.0 2925.0,205.0 2925.0,205.2 2927.5,205.2 2927.5,205.6 2930.0,205.6 2930.0,205.6 2932.5,205.6 2932.5,205.2 2935.0,205.2 2935.0,205.0" stroke="rgb(0,0,0)" /><text fill="black" x="2925.0" y="225.6">E56</text><polygon fill="rgb(150,150,150)" points="3095.0,130.0 3095.0,129.0 3092.5,129.0 3092.5,115.4 3090.0,115.4 3090.0,112.2 3087.5,112.2 3087.5,111.8 3085.0,111.8 3085.0,110.4 3082.5,110.4 3082.5,105.2 3080.0,105.2 3080.0,105.0 3077.5,105.0 3077.5,104.8 3075.0,104.8 3075.0,104.6 3057.5,104.6 3057.5,104.6 3040.0,104.6 3040.0,104.8 3037.5,104.8 3037.5,105.0 3035.0,105.0 3035.0,105.2 3032.5,105.2 3032.5,110.4 3030.0,110.4 3030.0,111.8 3027.5,111.8 3027.5,112.2 3025.0,112.2 3025.0,115.4 3022.5,115.4 3022.5,129.0 3020.0,129.0 3020.0,130.0 3020.0,130.0 3020.0,131.0 3022.5,131.0 3022.5,144.6 3025.0,144.6 3025.0,147.8 3027.5,147.8 3027.5,148.2 3030.0,148.2 3030.0,149.6 3032.5,149.6 3032.5,154.8 3035.0,154.8 3035.0,155.0 3037.5,155.0 3037.5,155.2 3040.0,155.2 3040.0,155.4 3057.5,155.4 3057.5,155.4 3075.0,155.4 3075.0,155.2 3077.5,155.2 3077.5,155.0 3080.0,155.0 3080.0,154.8 3082.5,154.8 3082.5,149.6 3085.0,149.6 3085.0,148.2 3087.5,148.2 3087.5,147.8 3090.0,147.8 3090.0,144.6 3092.5,144.6 3092.5,131.0 3095.0,131.0 3095.0,130.0" stroke="rgb(0,0,0)" /><text fill="black" x="3020.0" y="175.4">H57</text><polygon fill="rgb(150,150,150)" points="3145.0,130.0 3145.0,125.8 3142.5,125.8 3142.5,112.6 3135.0,112.6 3135.0,112.6 3127.5,112.6 3127.5,125.8 3125.0,125.8 3125.0,130.0 3125.0,130.0 3125.0,134.2 3127.5,134.2 3127.5,147.4 3135.0,147.4 3135.0,147.4 3142.5,147.4 3142.5,134.2 3145.0,134.2 3145.0,130.0" stroke="rgb(0,0,0)" /><text fill="black" x="3125.0" y="167.4">H58</text><polygon fill="rgb(255,150,150)" points="3190.0,130.0 3190.0,129.8 3187.5,129.8 3187.5,128.4 3185.0,128.4 3185.0,128.2 3182.5,128.2 3182.5,128.2 3180.0,128.2 3180.0,128.4 3177.5,128.4 3177.5,129.8 3175.0,129.8 3175.0,130.0 3175.0,130.0 3175.0,130.2 3177.5,130.2 3177.5,131.6 3180.0,131.6 3180.0,131.8 3182.5,131.8 3182.5,131.8 3185.0,131.8 3185.0,131.6 3187.5,131.6 3187.5,130.2 3190.0,130.2 3190.0,130.0" stroke="rgb(0,0,0)" /><text fill="black" x="3175.0" y="151.8">E59</text><polygon fill="rgb(255,150,150)" points="3245.0,130.0 3245.0,129.8 3242.5,129.8 3242.5,124.6 3240.0,124.6 3240.0,118.8 3237.5,118.8 3237.5,108.19999999999999 3235.0,108.19999999999999 3235.0,106.6 3232.5,106.6 3232.5,106.6 3230.0,106.6 3230.0,108.19999999999999 3227.5,108.19999999999999 3227.5,118.8 3225.0,118.8 3225.0,124.6 3222.5,124.6 3222.5,129.8 3220.0,129.8 3220.0,130.0 3220.0,130.0 3220.0,130.2 3222.5,130.2 3222.5,135.4 3225.0,135.4 3225.0,141.2 3227.5,141.2 3227.5,151.8 3230.0,151.8 3230.0,153.4 3232.5,153.4 3232.5,153.4 3235.0,153.4 3235.0,151.8 3237.5,151.8 3237.5,141.2 3240.0,141.2 3240.0,135.4 3242.5,135.4 3242.5,130.2 3245.0,130.2 3245.0,130.0" stroke="rgb(0,0,0)" /><text fill="black" x="3220.0" y="173.4">E60</text><polygon fill="rgb(150,150,150)" points="3305.0,130.0 3305.0,129.4 3302.5,129.4 3302.5,125.6 3300.0,125.6 3300.0,119.8 3297.5,119.8 3297.5,116.4 3290.0,116.4 3290.0,116.4 3282.5,116.4 3282.5,119.8 3280.0,119.8 3280.0,125.6 3277.5,125.6 3277.5,129.4 3275.0,129.4 3275.0,130.0 3275.0,130.0 3275.0,130.6 3277.5,130.6 3277.5,134.4 3280.0,134.4 3280.0,140.2 3282.5,140.2 3282.5,143.6 3290.0,143.6 3290.0,143.6 3297.5,143.6 3297.5,140.2 3300.0,140.2 3300.0,134.4 3302.5,134.4 3302.5,130.6 3305.0,130.6 3305.0,130.0" stroke="rgb(0,0,0)" /><text fill="black" x="3275.0" y="163.6">H61</text><polygon fill="rgb(150,150,255)" points="3345.0,130.0 3345.0,129.8 3342.5,129.8 3342.5,126.4 3340.0,126.4 3340.0,126.4 3337.5,126.4 3337.5,129.8 3335.0,129.8 3335.0,130.0 3335.0,130.0 3335.0,130.2 3337.5,130.2 3337.5,133.6 3340.0,133.6 3340.0,133.6 3342.5,133.6 3342.5,130.2 3345.0,130.2 3345.0,130.0" stroke="rgb(0,0,0)" /><text fill="black" x="3335.0" y="153.6">E62</text><polygon fill="rgb(150,150,150)" points="3445.0,130.0 3445.0,129.8 3437.5,129.8 3437.5,129.6 3432.5,129.6 3432.5,126.0 3427.5,126.0 3427.5,125.2 3425.0,125.2 3425.0,124.6 3422.5,124.6 3422.5,124.4 3420.0,124.4 3420.0,123.6 3417.5,123.6 3417.5,120.8 3410.0,120.8 3410.0,120.8 3402.5,120.8 3402.5,123.6 3400.0,123.6 3400.0,124.4 3397.5,124.4 3397.5,124.6 3395.0,124.6 3395.0,125.2 3392.5,125.2 3392.5,126.0 3387.5,126.0 3387.5,129.6 3382.5,129.6 3382.5,129.8 3375.0,129.8 3375.0,130.0 3375.0,130.0 3375.0,130.2 3382.5,130.2 3382.5,130.4 3387.5,130.4 3387.5,134.0 3392.5,134.0 3392.5,134.8 3395.0,134.8 3395.0,135.4 3397.5,135.4 3397.5,135.6 3400.0,135.6 3400.0,136.4 3402.5,136.4 3402.5,139.2 3410.0,139.2 3410.0,139.2 3417.5,139.2 3417.5,136.4 3420.0,136.4 3420.0,135.6 3422.5,135.6 3422.5,135.4 3425.0,135.4 3425.0,134.8 3427.5,134.8 3427.5,134.0 3432.5,134.0 3432.5,130.4 3437.5,130.4 3437.5,130.2 3445.0,130.2 3445.0,130.0" stroke="rgb(0,0,0)" /><text fill="black" x="3375.0" y="159.2">H63</text><polygon fill="rgb(255,150,150)" points="3490.0,130.0 3490.0,129.0 3482.5,129.0 3482.5,129.0 3475.0,129.0 3475.0,130.0 3475.0,130.0 3475.0,131.0 3482.5,131.0 3482.5,131.0 3490.0,131.0 3490.0,130.0" stroke="rgb(0,0,0)" /><text fill="black" x="3475.0" y="151.0">E64</text><path d="M 1120.0,130.0 a 4142.629715272884,4142.629715272884 0 0,0 -1042.5,-0.0" stroke="rgb(255,150,150)" stroke-width="2" /><path d="M 1120.0,130.0 a 4142.629715272884,4142.629715272884 0 0,0 -1042.5,-0.0" stroke="rgb(0,0,0)" stroke-width="0.2" /><path d="M 942.5,205.0 a 1454.0827159092887,1454.0827159092887 0 0,0 -515.0,-75.0" stroke="rgb(255,150,150)" stroke-width="2" /><path d="M 942.5,205.0 a 1454.0827159092887,1454.0827159092887 0 0,0 -515.0,-75.0" stroke="rgb(0,0,0)" stroke-width="0.2" /><path d="M 1007.5,130.0 a 1698.4252256734665,1698.4252256734665 0 0,0 -580.0,-0.0" stroke="rgb(255,150,150)" stroke-width="2" /><path d="M 1007.5,130.0 a 1698.4252256734665,1698.4252256734665 0 0,0 -580.0,-0.0" stroke="rgb(0,0,0)" stroke-width="0.2" /><path d="M 1007.5,130.0 a 1287.9311698315498,1287.9311698315498 0 0,0 -477.5,-0.0" stroke="rgb(255,150,150)" stroke-width="2" /><path d="M 1007.5,130.0 a 1287.9311698315498,1287.9311698315498 0 0,0 -477.5,-0.0" stroke="rgb(0,0,0)" stroke-width="0.2" /><path d="M 2810.0,130.0 a 15457.683694955596,15457.683694955596 0 0,0 -2280.0,-0.0" stroke="rgb(255,150,150)" stroke-width="2" /><path d="M 2810.0,130.0 a 15457.683694955596,15457.683694955596 0 0,0 -2280.0,-0.0" stroke="rgb(0,0,0)" stroke-width="0.2" /><path d="M 2930.0,205.0 a 16939.58122024548,16939.58122024548 0 0,0 -2400.0,-75.0" stroke="rgb(255,150,150)" stroke-width="2" /><path d="M 2930.0,205.0 a 16939.58122024548,16939.58122024548 0 0,0 -2400.0,-75.0" stroke="rgb(0,0,0)" stroke-width="0.2" /><path d="M 3182.5,130.0 a 20225.977576610883,20225.977576610883 0 0,0 -2652.5,-0.0" stroke="rgb(255,150,150)" stroke-width="2" /><path d="M 3182.5,130.0 a 20225.977576610883,20225.977576610883 0 0,0 -2652.5,-0.0" stroke="rgb(0,0,0)" stroke-width="0.2" /><path d="M 3232.5,130.0 a 20914.01643033488,20914.01643033488 0 0,0 -2702.5,-0.0" stroke="rgb(255,150,150)" stroke-width="2" /><path d="M 3232.5,130.0 a 20914.01643033488,20914.01643033488 0 0,0 -2702.5,-0.0" stroke="rgb(0,0,0)" stroke-width="0.2" /><path d="M 895.0,205.0 a 695.234435483782,695.234435483782 0 0,0 -292.5,-75.0" stroke="rgb(150,150,255)" stroke-width="2" /><path d="M 895.0,205.0 a 695.234435483782,695.234435483782 0 0,0 -292.5,-75.0" stroke="rgb(0,0,0)" stroke-width="0.2" /><path d="M 895.0,205.0 a 13626.704545454546,13626.704545454546 0 0,0 2445.0,-75.0" stroke="rgb(150,150,255)" stroke-width="2" /><path d="M 895.0,205.0 a 13626.704545454546,13626.704545454546 0 0,0 2445.0,-75.0" stroke="rgb(0,0,0)" stroke-width="0.2" /><path d="M 1185.0,130.0 a 359.1570927111964,359.1570927111964 0 0,0 -177.5,-0.0" stroke="rgb(255,150,150)" stroke-width="2" /><path d="M 1185.0,130.0 a 359.1570927111964,359.1570927111964 0 0,0 -177.5,-0.0" stroke="rgb(0,0,0)" stroke-width="0.2" /><path d="M 1255.0,130.0 a 539.5972167194928,539.5972167194928 0 0,0 -247.5,-0.0" stroke="rgb(255,150,150)" stroke-width="2" /><path d="M 1255.0,130.0 a 539.5972167194928,539.5972167194928 0 0,0 -247.5,-0.0" stroke="rgb(0,0,0)" stroke-width="0.2" /><path d="M 1185.0,130.0 a 115.20329604950022,115.20329604950022 0 0,0 -65.0,-0.0" stroke="rgb(255,150,150)" stroke-width="2" /><path d="M 1185.0,130.0 a 115.20329604950022,115.20329604950022 0 0,0 -65.0,-0.0" stroke="rgb(0,0,0)" stroke-width="0.2" /><path d="M 1460.0,130.0 a 616.5143737166325,616.5143737166325 0 0,0 -275.0,-0.0" stroke="rgb(255,150,150)" stroke-width="2" /><path d="M 1460.0,130.0 a 616.5143737166325,616.5143737166325 0 0,0 -275.0,-0.0" stroke="rgb(0,0,0)" stroke-width="0.2" /><path d="M 1385.0,130.0 a 249.24424278977955,249.24424278977955 0 0,0 -130.0,-0.0" stroke="rgb(255,150,150)" stroke-width="2" /><path d="M 1385.0,130.0 a 249.24424278977955,249.24424278977955 0 0,0 -130.0,-0.0" stroke="rgb(0,0,0)" stroke-width="0.2" /><path d="M 1545.0,130.0 a 154.43605055658628,154.43605055658628 0 0,0 -85.0,-0.0" stroke="rgb(255,150,150)" stroke-width="2" /><path d="M 1545.0,130.0 a 154.43605055658628,154.43605055658628 0 0,0 -85.0,-0.0" stroke="rgb(0,0,0)" stroke-width="0.2" /><path d="M 1460.0,130.0 a 2545.127840909091,2545.127840909091 0 0,0 1052.5,-0.0" stroke="rgb(255,150,150)" stroke-width="2" /><path d="M 1460.0,130.0 a 2545.127840909091,2545.127840909091 0 0,0 1052.5,-0.0" stroke="rgb(0,0,0)" stroke-width="0.2" /><path d="M 1460.0,130.0 a 9324.105113636364,9324.105113636364 0 0,0 2022.5,-0.0" stroke="rgb(255,150,150)" stroke-width="2" /><path d="M 1460.0,130.0 a 9324.105113636364,9324.105113636364 0 0,0 2022.5,-0.0" stroke="rgb(0,0,0)" stroke-width="0.2" /><path d="M 1722.5,205.0 a 180.12768629161846,180.12768629161846 0 0,0 -62.5,-75.0" stroke="rgb(255,150,150)" stroke-width="2" /><path d="M 1722.5,205.0 a 180.12768629161846,180.12768629161846 0 0,0 -62.5,-75.0" stroke="rgb(0,0,0)" stroke-width="0.2" /><path d="M 1792.5,130.0 a 254.7770270731974,254.7770270731974 0 0,0 -132.5,-0.0" stroke="rgb(255,150,150)" stroke-width="2" /><path d="M 1792.5,130.0 a 254.7770270731974,254.7770270731974 0 0,0 -132.5,-0.0" stroke="rgb(0,0,0)" stroke-width="0.2" /><path d="M 1922.5,130.0 a 249.24424278977955,249.24424278977955 0 0,0 -130.0,-0.0" stroke="rgb(255,150,150)" stroke-width="2" /><path d="M 1922.5,130.0 a 249.24424278977955,249.24424278977955 0 0,0 -130.0,-0.0" stroke="rgb(0,0,0)" stroke-width="0.2" /><path d="M 2062.5,130.0 a 271.54334164048106,271.54334164048106 0 0,0 -140.0,-0.0" stroke="rgb(255,150,150)" stroke-width="2" /><path d="M 2062.5,130.0 a 271.54334164048106,271.54334164048106 0 0,0 -140.0,-0.0" stroke="rgb(0,0,0)" stroke-width="0.2" /><path d="M 2177.5,130.0 a 560.2369925671812,560.2369925671812 0 0,0 -255.0,-0.0" stroke="rgb(255,150,150)" stroke-width="2" /><path d="M 2177.5,130.0 a 560.2369925671812,560.2369925671812 0 0,0 -255.0,-0.0" stroke="rgb(0,0,0)" stroke-width="0.2" /><path d="M 2102.5,205.0 a 154.43605055658628,154.43605055658628 0 0,0 -40.0,-75.0" stroke="rgb(255,150,150)" stroke-width="2" /><path d="M 2102.5,205.0 a 154.43605055658628,154.43605055658628 0 0,0 -40.0,-75.0" stroke="rgb(0,0,0)" stroke-width="0.2" /><path d="M 2337.5,130.0 a 317.48587152079585,317.48587152079585 0 0,0 -160.0,-0.0" stroke="rgb(255,150,150)" stroke-width="2" /><path d="M 2337.5,130.0 a 317.48587152079585,317.48587152079585 0 0,0 -160.0,-0.0" stroke="rgb(0,0,0)" stroke-width="0.2" /><path d="M 2740.0,130.0 a 1017.6709561857798,1017.6709561857798 0 0,0 -402.5,-0.0" stroke="rgb(255,150,150)" stroke-width="2" /><path d="M 2740.0,130.0 a 1017.6709561857798,1017.6709561857798 0 0,0 -402.5,-0.0" stroke="rgb(0,0,0)" stroke-width="0.2" /><path d="M 2810.0,130.0 a 1269.1227992957747,1269.1227992957747 0 0,0 -472.5,-0.0" stroke="rgb(255,150,150)" stroke-width="2" /><path d="M 2810.0,130.0 a 1269.1227992957747,1269.1227992957747 0 0,0 -472.5,-0.0" stroke="rgb(0,0,0)" stroke-width="0.2" /><path d="M 2930.0,205.0 a 314.9641967403692,314.9641967403692 0 0,0 -52.5,-150.0" stroke="rgb(255,150,150)" stroke-width="2" /><path d="M 2930.0,205.0 a 314.9641967403692,314.9641967403692 0 0,0 -52.5,-150.0" stroke="rgb(0,0,0)" stroke-width="0.2" /></svg>