<?xml version="1.0" encoding="utf-8" ?>
<svg baseProfile="full" height="100%" style="font-size:14;font-family:Sans, Arial;stroke-width:1;fill:none" version="1.1" width="100%" xmlns="http://www.w3.org/2000/svg" xmlns:ev="http://www.w3.org/2001/xml-events" xmlns:xlink="http://www.w3.org/1999/xlink"><defs /><rect fill="none" height="130.0" stroke="none" width="1435.0" x="0" y="0" /><line stroke="rgb(0,0,0)" x1="5.0" x2="60.0" y1="55.0" y2="55.0" /><line stroke="rgb(0,0,0)" x1="60.0" x2="80.0" y1="55.0" y2="55.0" /><line stroke="rgb(0,0,0)" x1="80.0" x2="85.0" y1="55.0" y2="55.0" /><line stroke="rgb(0,0,0)" x1="85.0" x2="150.0" y1="55.0" y2="55.0" /><line stroke="rgb(0,0,0)" x1="150.0" x2="170.0" y1="55.0" y2="55.0" /><line stroke="rgb(0,0,0)" x1="170.0" x2="175.0" y1="55.0" y2="55.0" /><line stroke="rgb(0,0,0)" x1="175.0" x2="225.0" y1="55.0" y2="55.0" /><line stroke="rgb(0,0,0)" x1="225.0" x2="245.0" y1="55.0" y2="55.0" /><line stroke="rgb(0,0,0)" x1="245.0" x2="250.0" y1="55.0" y2="55.0" /><line stroke="rgb(0,0,0)" x1="250.0" x2="320.0" y1="55.0" y2="55.0" /><line stroke="rgb(0,0,0)" x1="320.0" x2="340.0" y1="55.0" y2="55.0" /><line stroke="rgb(0,0,0)" x1="340.0" x2="345.0" y1="55.0" y2="55.0" /><line stroke="rgb(0,0,0)" x1="345.0" x2="415.0" y1="55.0" y2="55.0" /><line stroke="rgb(0,0,0)" x1="415.0" x2="435.0" y1="55.0" y2="55.0" /><line stroke="rgb(0,0,0)" x1="435.0" x2="440.0" y1="55.0" y2="55.0" /><line stroke="rgb(0,0,0)" x1="440.0" x2="505.0" y1="55.0" y2="55.0" /><line stroke="rgb(0,0,0)" x1="505.0" x2="525.0" y1="55.0" y2="55.0" /><line stroke="rgb(0,0,0)" x1="525.0" x2="530.0" y1="55.0" y2="55.0" /><line stroke="rgb(0,0,0)" x1="530.0" x2="605.0" y1="55.0" y2="55.0" /><line stroke="rgb(0,0,0)" x1="605.0" x2="625.0" y1="55.0" y2="55.0" /><line stroke="rgb(0,0,0)" x1="625.0" x2="630.0" y1="55.0" y2="55.0" /><line stroke="rgb(0,0,0)" x1="630.0" x2="675.0" y1="55.0" y2="55.0" /><line stroke="rgb(0,0,0)" x1="675.0" x2="695.0" y1="55.0" y2="55.0" /><line stroke="rgb(0,0,0)" x1="695.0" x2="700.0" y1="55.0" y2="55.0" /><line stroke="rgb(0,0,0)" x1="700.0" x2="760.0" y1="55.0" y2="55.0" /><line stroke="rgb(0,0,0)" x1="760.0" x2="780.0" y1="55.0" y2="55.0" /><line stroke="rgb(0,0,0)" x1="780.0" x2="785.0" y1="55.0" y2="55.0" /><line stroke="rgb(0,0,0)" x1="785.0" x2="845.0" y1="55.0" y2="55.0" /><line stroke="rgb(0,0,0)" x1="845.0" x2="865.0" y1="55.0" y2="55.0" /><line stroke="rgb(0,0,0)" x1="865.0" x2="870.0" y1="55.0" y2="55.0" /><line stroke="rgb(0,0,0)" x1="870.0" x2="895.0" y1="55.0" y2="55.0" /><line stroke="rgb(0,0,0)" x1="895.0" x2="915.0" y1="55.0" y2="55.0" /><line stroke="rgb(0,0,0)" x1="915.0" x2="920.0" y1="55.0" y2="55.0" /><line stroke="rgb(0,0,0)" x1="920.0" x2="980.0" y1="55.0" y2="55.0" /><line stroke="rgb(0,0,0)" x1="980.0" x2="1000.0" y1="55.0" y2="55.0" /><line stroke="rgb(0,0,0)" x1="1000.0" x2="1005.0" y1="55.0" y2="55.0" /><line stroke="rgb(0,0,0)" x1="1005.0" x2="1065.0" y1="55.0" y2="55.0" /><line stroke="rgb(0,0,0)" x1="1065.0" x2="1085.0" y1="55.0" y2="55.0" /><line stroke="rgb(0,0,0)" x1="1085.0" x2="1090.0" y1="55.0" y2="55.0" /><line stroke="rgb(0,0,0)" x1="1090.0" x2="1165.0" y1="55.0" y2="55.0" /><line stroke="rgb(0,0,0)" x1="1165.0" x2="1185.0" y1="55.0" y2="55.0" /><line stroke="rgb(0,0,0)" x1="1185.0" x2="1190.0" y1="55.0" y2="55.0" /><line stroke="rgb(0,0,0)" x1="1190.0" x2="1270.0" y1="55.0" y2="55.0" /><line stroke="rgb(0,0,0)" x1="1270.0" x2="1290.0" y1="55.0" y2="55.0" /><line stroke="rgb(0,0,0)" x1="1290.0" x2="1295.0" y1="55.0" y2="55.0" /><line stroke="rgb(0,0,0)" x1="1295.0" x2="1320.0" y1="55.0" y2="55.0" /><line stroke="rgb(0,0,0)" x1="1320.0" x2="1340.0" y1="55.0" y2="55.0" /><line stroke="rgb(0,0,0)" x1="1340.0" x2="1345.0" y1="55.0" y2="55.0" /><line stroke="rgb(0,0,0)" x1="1345.0" x2="1375.0" y1="55.0" y2="55.0" /><line stroke="rgb(0,0,0)" x1="1375.0" x2="1395.0" y1="55.0" y2="55.0" /><line stroke="rgb(0,0,0)" x1="1395.0" x2="1400.0" y1="55.0" y2="55.0" /><polygon fill="rgb(150,150,150)" points="55.0,55.0 55.0,54.4 47.5,54.4 47.5,54.0 45.0,54.0 45.0,53.4 42.5,53.4 42.5,46.0 40.0,46.0 40.0,26.999999999999996 37.5,26.999999999999996 37.5,20.400000000000006 30.0,20.400000000000006 30.0,20.400000000000006 22.5,20.400000000000006 22.5,26.999999999999996 20.0,26.999999999999996 20.0,46.0 17.5,46.0 17.5,53.4 15.0,53.4 15.0,54.0 12.5,54.0 12.5,54.4 5.0,54.4 5.0,55.0 5.0,55.0 5.0,55.6 12.5,55.6 12.5,56.0 15.0,56.0 15.0,56.6 17.5,56.6 17.5,64.0 20.0,64.0 20.0,83.0 22.5,83.0 22.5,89.6 30.0,89.6 30.0,89.6 37.5,89.6 37.5,83.0 40.0,83.0 40.0,64.0 42.5,64.0 42.5,56.6 45.0,56.6 45.0,56.0 47.5,56.0 47.5,55.6 55.0,55.6 55.0,55.0" stroke="rgb(0,0,0)" /><text fill="black" x="5.0" y="109.6">H6</text><polygon fill="rgb(255,150,150)" points="145.0,55.0 145.0,52.8 142.5,52.8 142.5,51.800000000000004 140.0,51.800000000000004 140.0,46.4 137.5,46.4 137.5,25.200000000000003 135.0,25.200000000000003 135.0,21.0 132.5,21.0 132.5,10.799999999999997 130.0,10.799999999999997 130.0,8.0 127.5,8.0 127.5,6.600000000000001 125.0,6.600000000000001 125.0,6.399999999999999 122.5,6.399999999999999 122.5,6.200000000000003 117.5,6.200000000000003 117.5,6.0 115.0,6.0 115.0,6.0 112.5,6.0 112.5,6.200000000000003 107.5,6.200000000000003 107.5,6.399999999999999 105.0,6.399999999999999 105.0,6.600000000000001 102.5,6.600000000000001 102.5,8.0 100.0,8.0 100.0,10.799999999999997 97.5,10.799999999999997 97.5,21.0 95.0,21.0 95.0,25.200000000000003 92.5,25.200000000000003 92.5,46.4 90.0,46.4 90.0,51.800000000000004 87.5,51.800000000000004 87.5,52.8 85.0,52.8 85.0,55.0 85.0,55.0 85.0,57.2 87.5,57.2 87.5,58.199999999999996 90.0,58.199999999999996 90.0,63.6 92.5,63.6 92.5,84.8 95.0,84.8 95.0,89.0 97.5,89.0 97.5,99.2 100.0,99.2 100.0,102.0 102.5,102.0 102.5,103.4 105.0,103.4 105.0,103.6 107.5,103.6 107.5,103.8 112.5,103.8 112.5,104.0 115.0,104.0 115.0,104.0 117.5,104.0 117.5,103.8 122.5,103.8 122.5,103.6 125.0,103.6 125.0,103.4 127.5,103.4 127.5,102.0 130.0,102.0 130.0,99.2 132.5,99.2 132.5,89.0 135.0,89.0 135.0,84.8 137.5,84.8 137.5,63.6 140.0,63.6 140.0,58.199999999999996 142.5,58.199999999999996 142.5,57.2 145.0,57.2 145.0,55.0" stroke="rgb(0,0,0)" /><text fill="black" x="85.0" y="124.0">E9</text><polygon fill="rgb(150,150,150)" points="220.0,55.0 220.0,54.4 217.5,54.4 217.5,34.2 215.0,34.2 215.0,34.0 212.5,34.0 212.5,32.800000000000004 207.5,32.800000000000004 207.5,24.2 205.0,24.2 205.0,22.6 197.5,22.6 197.5,22.6 190.0,22.6 190.0,24.2 187.5,24.2 187.5,32.800000000000004 182.5,32.800000000000004 182.5,34.0 180.0,34.0 180.0,34.2 177.5,34.2 177.5,54.4 175.0,54.4 175.0,55.0 175.0,55.0 175.0,55.6 177.5,55.6 177.5,75.8 180.0,75.8 180.0,76.0 182.5,76.0 182.5,77.19999999999999 187.5,77.19999999999999 187.5,85.8 190.0,85.8 190.0,87.4 197.5,87.4 197.5,87.4 205.0,87.4 205.0,85.8 207.5,85.8 207.5,77.19999999999999 212.5,77.19999999999999 212.5,76.0 215.0,76.0 215.0,75.8 217.5,75.8 217.5,55.6 220.0,55.6 220.0,55.0" stroke="rgb(0,0,0)" /><text fill="black" x="175.0" y="107.4">H11</text><polygon fill="rgb(150,150,150)" points="315.0,55.0 315.0,52.199999999999996 310.0,52.199999999999996 310.0,51.6 307.5,51.6 307.5,49.6 305.0,49.6 305.0,34.599999999999994 302.5,34.599999999999994 302.5,34.0 300.0,34.0 300.0,32.800000000000004 295.0,32.800000000000004 295.0,32.400000000000006 292.5,32.400000000000006 292.5,32.2 290.0,32.2 290.0,30.8 282.5,30.8 282.5,30.8 275.0,30.8 275.0,32.2 272.5,32.2 272.5,32.400000000000006 270.0,32.400000000000006 270.0,32.800000000000004 265.0,32.800000000000004 265.0,34.0 262.5,34.0 262.5,34.599999999999994 260.0,34.599999999999994 260.0,49.6 257.5,49.6 257.5,51.6 255.0,51.6 255.0,52.199999999999996 250.0,52.199999999999996 250.0,55.0 250.0,55.0 250.0,57.800000000000004 255.0,57.800000000000004 255.0,58.4 257.5,58.4 257.5,60.4 260.0,60.4 260.0,75.4 262.5,75.4 262.5,76.0 265.0,76.0 265.0,77.19999999999999 270.0,77.19999999999999 270.0,77.6 272.5,77.6 272.5,77.8 275.0,77.8 275.0,79.2 282.5,79.2 282.5,79.2 290.0,79.2 290.0,77.8 292.5,77.8 292.5,77.6 295.0,77.6 295.0,77.19999999999999 300.0,77.19999999999999 300.0,76.0 302.5,76.0 302.5,75.4 305.0,75.4 305.0,60.4 307.5,60.4 307.5,58.4 310.0,58.4 310.0,57.800000000000004 315.0,57.800000000000004 315.0,55.0" stroke="rgb(0,0,0)" /><text fill="black" x="250.0" y="99.2">H12</text><polygon fill="rgb(255,150,150)" points="410.0,55.0 410.0,54.4 407.5,54.4 407.5,54.2 405.0,54.2 405.0,52.599999999999994 402.5,52.599999999999994 402.5,50.800000000000004 400.0,50.800000000000004 400.0,45.0 397.5,45.0 397.5,40.199999999999996 395.0,40.199999999999996 395.0,15.799999999999997 392.5,15.799999999999997 392.5,9.0 390.0,9.0 390.0,7.600000000000001 387.5,7.600000000000001 387.5,6.600000000000001 385.0,6.600000000000001 385.0,6.399999999999999 382.5,6.399999999999999 382.5,6.200000000000003 380.0,6.200000000000003 380.0,6.0 377.5,6.0 377.5,6.0 375.0,6.0 375.0,6.200000000000003 372.5,6.200000000000003 372.5,6.399999999999999 370.0,6.399999999999999 370.0,6.600000000000001 367.5,6.600000000000001 367.5,7.600000000000001 365.0,7.600000000000001 365.0,9.0 362.5,9.0 362.5,15.799999999999997 360.0,15.799999999999997 360.0,40.199999999999996 357.5,40.199999999999996 357.5,45.0 355.0,45.0 355.0,50.800000000000004 352.5,50.800000000000004 352.5,52.599999999999994 350.0,52.599999999999994 350.0,54.2 347.5,54.2 347.5,54.4 345.0,54.4 345.0,55.0 345.0,55.0 345.0,55.6 347.5,55.6 347.5,55.8 350.0,55.8 350.0,57.400000000000006 352.5,57.400000000000006 352.5,59.199999999999996 355.0,59.199999999999996 355.0,65.0 357.5,65.0 357.5,69.8 360.0,69.8 360.0,94.2 362.5,94.2 362.5,101.0 365.0,101.0 365.0,102.4 367.5,102.4 367.5,103.4 370.0,103.4 370.0,103.6 372.5,103.6 372.5,103.8 375.0,103.8 375.0,104.0 377.5,104.0 377.5,104.0 380.0,104.0 380.0,103.8 382.5,103.8 382.5,103.6 385.0,103.6 385.0,103.4 387.5,103.4 387.5,102.4 390.0,102.4 390.0,101.0 392.5,101.0 392.5,94.2 395.0,94.2 395.0,69.8 397.5,69.8 397.5,65.0 400.0,65.0 400.0,59.199999999999996 402.5,59.199999999999996 402.5,57.400000000000006 405.0,57.400000000000006 405.0,55.8 407.5,55.8 407.5,55.6 410.0,55.6 410.0,55.0" stroke="rgb(0,0,0)" /><text fill="black" x="345.0" y="124.0">E18</text><polygon fill="rgb(255,150,150)" points="500.0,55.0 500.0,54.8 497.5,54.8 497.5,54.4 495.0,54.4 495.0,47.8 492.5,47.8 492.5,36.4 490.0,36.4 490.0,26.599999999999998 487.5,26.599999999999998 487.5,9.399999999999999 485.0,9.399999999999999 485.0,6.800000000000004 482.5,6.800000000000004 482.5,6.399999999999999 480.0,6.399999999999999 480.0,6.200000000000003 472.5,6.200000000000003 472.5,6.0 470.0,6.0 470.0,6.0 467.5,6.0 467.5,6.200000000000003 460.0,6.200000000000003 460.0,6.399999999999999 457.5,6.399999999999999 457.5,6.800000000000004 455.0,6.800000000000004 455.0,9.399999999999999 452.5,9.399999999999999 452.5,26.599999999999998 450.0,26.599999999999998 450.0,36.4 447.5,36.4 447.5,47.8 445.0,47.8 445.0,54.4 442.5,54.4 442.5,54.8 440.0,54.8 440.0,55.0 440.0,55.0 440.0,55.2 442.5,55.2 442.5,55.6 445.0,55.6 445.0,62.2 447.5,62.2 447.5,73.6 450.0,73.6 450.0,83.4 452.5,83.4 452.5,100.6 455.0,100.6 455.0,103.19999999999999 457.5,103.19999999999999 457.5,103.6 460.0,103.6 460.0,103.8 467.5,103.8 467.5,104.0 470.0,104.0 470.0,104.0 472.5,104.0 472.5,103.8 480.0,103.8 480.0,103.6 482.5,103.6 482.5,103.19999999999999 485.0,103.19999999999999 485.0,100.6 487.5,100.6 487.5,83.4 490.0,83.4 490.0,73.6 492.5,73.6 492.5,62.2 495.0,62.2 495.0,55.6 497.5,55.6 497.5,55.2 500.0,55.2 500.0,55.0" stroke="rgb(0,0,0)" /><text fill="black" x="440.0" y="124.0">E22</text><polygon fill="rgb(255,150,150)" points="600.0,55.0 600.0,54.8 597.5,54.8 597.5,54.4 595.0,54.4 595.0,48.6 592.5,48.6 592.5,40.0 590.0,40.0 590.0,35.599999999999994 587.5,35.599999999999994 587.5,31.8 585.0,31.8 585.0,26.4 582.5,26.4 582.5,18.200000000000003 580.0,18.200000000000003 580.0,11.600000000000001 577.5,11.600000000000001 577.5,6.600000000000001 575.0,6.600000000000001 575.0,6.399999999999999 572.5,6.399999999999999 572.5,6.200000000000003 565.0,6.200000000000003 565.0,6.200000000000003 557.5,6.200000000000003 557.5,6.399999999999999 555.0,6.399999999999999 555.0,6.600000000000001 552.5,6.600000000000001 552.5,11.600000000000001 550.0,11.600000000000001 550.0,18.200000000000003 547.5,18.200000000000003 547.5,26.4 545.0,26.4 545.0,31.8 542.5,31.8 542.5,35.599999999999994 540.0,35.599999999999994 540.0,40.0 537.5,40.0 537.5,48.6 535.0,48.6 535.0,54.4 532.5,54.4 532.5,54.8 530.0,54.8 530.0,55.0 530.0,55.0 530.0,55.2 532.5,55.2 532.5,55.6 535.0,55.6 535.0,61.4 537.5,61.4 537.5,70.0 540.0,70.0 540.0,74.4 542.5,74.4 542.5,78.2 545.0,78.2 545.0,83.6 547.5,83.6 547.5,91.8 550.0,91.8 550.0,98.4 552.5,98.4 552.5,103.4 555.0,103.4 555.0,103.6 557.5,103.6 557.5,103.8 565.0,103.8 565.0,103.8 572.5,103.8 572.5,103.6 575.0,103.6 575.0,103.4 577.5,103.4 577.5,98.4 580.0,98.4 580.0,91.8 582.5,91.8 582.5,83.6 585.0,83.6 585.0,78.2 587.5,78.2 587.5,74.4 590.0,74.4 590.0,70.0 592.5,70.0 592.5,61.4 595.0,61.4 595.0,55.6 597.5,55.6 597.5,55.2 600.0,55.2 600.0,55.0" stroke="rgb(0,0,0)" /><text fill="black" x="530.0" y="123.8">E26</text><polygon fill="rgb(255,150,150)" points="670.0,55.0 670.0,54.0 667.5,54.0 667.5,53.4 665.0,53.4 665.0,52.4 662.5,52.4 662.5,49.2 660.0,49.2 660.0,32.800000000000004 657.5,32.800000000000004 657.5,32.2 652.5,32.2 652.5,32.0 650.0,32.0 650.0,32.0 647.5,32.0 647.5,32.2 642.5,32.2 642.5,32.800000000000004 640.0,32.800000000000004 640.0,49.2 637.5,49.2 637.5,52.4 635.0,52.4 635.0,53.4 632.5,53.4 632.5,54.0 630.0,54.0 630.0,55.0 630.0,55.0 630.0,56.0 632.5,56.0 632.5,56.6 635.0,56.6 635.0,57.6 637.5,57.6 637.5,60.8 640.0,60.8 640.0,77.19999999999999 642.5,77.19999999999999 642.5,77.8 647.5,77.8 647.5,78.0 650.0,78.0 650.0,78.0 652.5,78.0 652.5,77.8 657.5,77.8 657.5,77.19999999999999 660.0,77.19999999999999 660.0,60.8 662.5,60.8 662.5,57.6 665.0,57.6 665.0,56.6 667.5,56.6 667.5,56.0 670.0,56.0 670.0,55.0" stroke="rgb(0,0,0)" /><text fill="black" x="630.0" y="98.0">E29</text><polygon fill="rgb(255,150,150)" points="755.0,55.0 755.0,54.8 752.5,54.8 752.5,50.800000000000004 750.0,50.800000000000004 750.0,36.8 747.5,36.8 747.5,35.0 745.0,35.0 745.0,34.4 742.5,34.4 742.5,33.199999999999996 740.0,33.199999999999996 740.0,33.0 737.5,33.0 737.5,32.400000000000006 735.0,32.400000000000006 735.0,31.6 732.5,31.6 732.5,24.6 730.0,24.6 730.0,24.2 727.5,24.2 727.5,24.2 725.0,24.2 725.0,24.6 722.5,24.6 722.5,31.6 720.0,31.6 720.0,32.400000000000006 717.5,32.400000000000006 717.5,33.0 715.0,33.0 715.0,33.199999999999996 712.5,33.199999999999996 712.5,34.4 710.0,34.4 710.0,35.0 707.5,35.0 707.5,36.8 705.0,36.8 705.0,50.800000000000004 702.5,50.800000000000004 702.5,54.8 700.0,54.8 700.0,55.0 700.0,55.0 700.0,55.2 702.5,55.2 702.5,59.199999999999996 705.0,59.199999999999996 705.0,73.2 707.5,73.2 707.5,75.0 710.0,75.0 710.0,75.6 712.5,75.6 712.5,76.80000000000001 715.0,76.80000000000001 715.0,77.0 717.5,77.0 717.5,77.6 720.0,77.6 720.0,78.4 722.5,78.4 722.5,85.4 725.0,85.4 725.0,85.8 727.5,85.8 727.5,85.8 730.0,85.8 730.0,85.4 732.5,85.4 732.5,78.4 735.0,78.4 735.0,77.6 737.5,77.6 737.5,77.0 740.0,77.0 740.0,76.80000000000001 742.5,76.80000000000001 742.5,75.6 745.0,75.6 745.0,75.0 747.5,75.0 747.5,73.2 750.0,73.2 750.0,59.199999999999996 752.5,59.199999999999996 752.5,55.2 755.0,55.2 755.0,55.0" stroke="rgb(0,0,0)" /><text fill="black" x="700.0" y="105.8">E32</text><polygon fill="rgb(255,150,150)" points="840.0,55.0 840.0,54.6 837.5,54.6 837.5,53.6 835.0,53.6 835.0,48.8 832.5,48.8 832.5,34.599999999999994 830.0,34.599999999999994 830.0,29.4 827.5,29.4 827.5,23.4 825.0,23.4 825.0,19.0 822.5,19.0 822.5,8.0 820.0,8.0 820.0,6.600000000000001 817.5,6.600000000000001 817.5,6.0 812.5,6.0 812.5,6.0 807.5,6.0 807.5,6.600000000000001 805.0,6.600000000000001 805.0,8.0 802.5,8.0 802.5,19.0 800.0,19.0 800.0,23.4 797.5,23.4 797.5,29.4 795.0,29.4 795.0,34.599999999999994 792.5,34.599999999999994 792.5,48.8 790.0,48.8 790.0,53.6 787.5,53.6 787.5,54.6 785.0,54.6 785.0,55.0 785.0,55.0 785.0,55.4 787.5,55.4 787.5,56.4 790.0,56.4 790.0,61.2 792.5,61.2 792.5,75.4 795.0,75.4 795.0,80.6 797.5,80.6 797.5,86.6 800.0,86.6 800.0,91.0 802.5,91.0 802.5,102.0 805.0,102.0 805.0,103.4 807.5,103.4 807.5,104.0 812.5,104.0 812.5,104.0 817.5,104.0 817.5,103.4 820.0,103.4 820.0,102.0 822.5,102.0 822.5,91.0 825.0,91.0 825.0,86.6 827.5,86.6 827.5,80.6 830.0,80.6 830.0,75.4 832.5,75.4 832.5,61.2 835.0,61.2 835.0,56.4 837.5,56.4 837.5,55.4 840.0,55.4 840.0,55.0" stroke="rgb(0,0,0)" /><text fill="black" x="785.0" y="124.0">E34</text><polygon fill="rgb(150,150,150)" points="890.0,55.0 890.0,51.400000000000006 887.5,51.400000000000006 887.5,45.0 880.0,45.0 880.0,45.0 872.5,45.0 872.5,51.400000000000006 870.0,51.400000000000006 870.0,55.0 870.0,55.0 870.0,58.599999999999994 872.5,58.599999999999994 872.5,65.0 880.0,65.0 880.0,65.0 887.5,65.0 887.5,58.599999999999994 890.0,58.599999999999994 890.0,55.0" stroke="rgb(0,0,0)" /><text fill="black" x="870.0" y="85.0">H39</text><polygon fill="rgb(255,150,150)" points="975.0,55.0 975.0,50.0 972.5,50.0 972.5,34.2 970.0,34.2 970.0,30.2 967.5,30.2 967.5,19.6 965.0,19.6 965.0,7.800000000000004 962.5,7.800000000000004 962.5,7.400000000000006 960.0,7.400000000000006 960.0,6.600000000000001 957.5,6.600000000000001 957.5,6.200000000000003 955.0,6.200000000000003 955.0,5.799999999999997 952.5,5.799999999999997 952.5,5.600000000000001 950.0,5.600000000000001 950.0,5.399999999999999 947.5,5.399999999999999 947.5,5.399999999999999 945.0,5.399999999999999 945.0,5.600000000000001 942.5,5.600000000000001 942.5,5.799999999999997 940.0,5.799999999999997 940.0,6.200000000000003 937.5,6.200000000000003 937.5,6.600000000000001 935.0,6.600000000000001 935.0,7.400000000000006 932.5,7.400000000000006 932.5,7.800000000000004 930.0,7.800000000000004 930.0,19.6 927.5,19.6 927.5,30.2 925.0,30.2 925.0,34.2 922.5,34.2 922.5,50.0 920.0,50.0 920.0,55.0 920.0,55.0 920.0,60.0 922.5,60.0 922.5,75.8 925.0,75.8 925.0,79.8 927.5,79.8 927.5,90.4 930.0,90.4 930.0,102.19999999999999 932.5,102.19999999999999 932.5,102.6 935.0,102.6 935.0,103.4 937.5,103.4 937.5,103.8 940.0,103.8 940.0,104.2 942.5,104.2 942.5,104.4 945.0,104.4 945.0,104.6 947.5,104.6 947.5,104.6 950.0,104.6 950.0,104.4 952.5,104.4 952.5,104.2 955.0,104.2 955.0,103.8 957.5,103.8 957.5,103.4 960.0,103.4 960.0,102.6 962.5,102.6 962.5,102.19999999999999 965.0,102.19999999999999 965.0,90.4 967.5,90.4 967.5,79.8 970.0,79.8 970.0,75.8 972.5,75.8 972.5,60.0 975.0,60.0 975.0,55.0" stroke="rgb(0,0,0)" /><text fill="black" x="920.0" y="124.6">E41</text><polygon fill="rgb(255,150,150)" points="1060.0,55.0 1060.0,54.8 1057.5,54.8 1057.5,41.0 1055.0,41.0 1055.0,38.8 1052.5,38.8 1052.5,15.199999999999996 1050.0,15.199999999999996 1050.0,8.599999999999994 1047.5,8.599999999999994 1047.5,6.0 1045.0,6.0 1045.0,5.399999999999999 1040.0,5.399999999999999 1040.0,5.200000000000003 1035.0,5.200000000000003 1035.0,5.0 1032.5,5.0 1032.5,5.0 1030.0,5.0 1030.0,5.200000000000003 1025.0,5.200000000000003 1025.0,5.399999999999999 1020.0,5.399999999999999 1020.0,6.0 1017.5,6.0 1017.5,8.599999999999994 1015.0,8.599999999999994 1015.0,15.199999999999996 1012.5,15.199999999999996 1012.5,38.8 1010.0,38.8 1010.0,41.0 1007.5,41.0 1007.5,54.8 1005.0,54.8 1005.0,55.0 1005.0,55.0 1005.0,55.2 1007.5,55.2 1007.5,69.0 1010.0,69.0 1010.0,71.2 1012.5,71.2 1012.5,94.80000000000001 1015.0,94.80000000000001 1015.0,101.4 1017.5,101.4 1017.5,104.0 1020.0,104.0 1020.0,104.6 1025.0,104.6 1025.0,104.8 1030.0,104.8 1030.0,105.0 1032.5,105.0 1032.5,105.0 1035.0,105.0 1035.0,104.8 1040.0,104.8 1040.0,104.6 1045.0,104.6 1045.0,104.0 1047.5,104.0 1047.5,101.4 1050.0,101.4 1050.0,94.80000000000001 1052.5,94.80000000000001 1052.5,71.2 1055.0,71.2 1055.0,69.0 1057.5,69.0 1057.5,55.2 1060.0,55.2 1060.0,55.0" stroke="rgb(0,0,0)" /><text fill="black" x="1005.0" y="125.0">E44</text><polygon fill="rgb(255,150,150)" points="1160.0,55.0 1160.0,53.8 1157.5,53.8 1157.5,53.6 1155.0,53.6 1155.0,53.4 1152.5,53.4 1152.5,50.2 1150.0,50.2 1150.0,39.599999999999994 1147.5,39.599999999999994 1147.5,23.2 1145.0,23.2 1145.0,17.6 1142.5,17.6 1142.5,10.0 1140.0,10.0 1140.0,6.200000000000003 1137.5,6.200000000000003 1137.5,5.799999999999997 1135.0,5.799999999999997 1135.0,5.399999999999999 1132.5,5.399999999999999 1132.5,5.200000000000003 1125.0,5.200000000000003 1125.0,5.200000000000003 1117.5,5.200000000000003 1117.5,5.399999999999999 1115.0,5.399999999999999 1115.0,5.799999999999997 1112.5,5.799999999999997 1112.5,6.200000000000003 1110.0,6.200000000000003 1110.0,10.0 1107.5,10.0 1107.5,17.6 1105.0,17.6 1105.0,23.2 1102.5,23.2 1102.5,39.599999999999994 1100.0,39.599999999999994 1100.0,50.2 1097.5,50.2 1097.5,53.4 1095.0,53.4 1095.0,53.6 1092.5,53.6 1092.5,53.8 1090.0,53.8 1090.0,55.0 1090.0,55.0 1090.0,56.2 1092.5,56.2 1092.5,56.4 1095.0,56.4 1095.0,56.6 1097.5,56.6 1097.5,59.8 1100.0,59.8 1100.0,70.4 1102.5,70.4 1102.5,86.8 1105.0,86.8 1105.0,92.4 1107.5,92.4 1107.5,100.0 1110.0,100.0 1110.0,103.8 1112.5,103.8 1112.5,104.2 1115.0,104.2 1115.0,104.6 1117.5,104.6 1117.5,104.8 1125.0,104.8 1125.0,104.8 1132.5,104.8 1132.5,104.6 1135.0,104.6 1135.0,104.2 1137.5,104.2 1137.5,103.8 1140.0,103.8 1140.0,100.0 1142.5,100.0 1142.5,92.4 1145.0,92.4 1145.0,86.8 1147.5,86.8 1147.5,70.4 1150.0,70.4 1150.0,59.8 1152.5,59.8 1152.5,56.6 1155.0,56.6 1155.0,56.4 1157.5,56.4 1157.5,56.2 1160.0,56.2 1160.0,55.0" stroke="rgb(0,0,0)" /><text fill="black" x="1090.0" y="124.8">E52</text><polygon fill="rgb(150,150,150)" points="1265.0,55.0 1265.0,54.0 1262.5,54.0 1262.5,40.4 1260.0,40.4 1260.0,37.2 1257.5,37.2 1257.5,36.8 1255.0,36.8 1255.0,35.4 1252.5,35.4 1252.5,30.2 1250.0,30.2 1250.0,30.0 1247.5,30.0 1247.5,29.8 1245.0,29.8 1245.0,29.6 1227.5,29.6 1227.5,29.6 1210.0,29.6 1210.0,29.8 1207.5,29.8 1207.5,30.0 1205.0,30.0 1205.0,30.2 1202.5,30.2 1202.5,35.4 1200.0,35.4 1200.0,36.8 1197.5,36.8 1197.5,37.2 1195.0,37.2 1195.0,40.4 1192.5,40.4 1192.5,54.0 1190.0,54.0 1190.0,55.0 1190.0,55.0 1190.0,56.0 1192.5,56.0 1192.5,69.6 1195.0,69.6 1195.0,72.8 1197.5,72.8 1197.5,73.2 1200.0,73.2 1200.0,74.6 1202.5,74.6 1202.5,79.8 1205.0,79.8 1205.0,80.0 1207.5,80.0 1207.5,80.2 1210.0,80.2 1210.0,80.4 1227.5,80.4 1227.5,80.4 1245.0,80.4 1245.0,80.2 1247.5,80.2 1247.5,80.0 1250.0,80.0 1250.0,79.8 1252.5,79.8 1252.5,74.6 1255.0,74.6 1255.0,73.2 1257.5,73.2 1257.5,72.8 1260.0,72.8 1260.0,69.6 1262.5,69.6 1262.5,56.0 1265.0,56.0 1265.0,55.0" stroke="rgb(0,0,0)" /><text fill="black" x="1190.0" y="100.4">H57</text><polygon fill="rgb(150,150,150)" points="1315.0,55.0 1315.0,50.800000000000004 1312.5,50.800000000000004 1312.5,37.6 1305.0,37.6 1305.0,37.6 1297.5,37.6 1297.5,50.800000000000004 1295.0,50.800000000000004 1295.0,55.0 1295.0,55.0 1295.0,59.199999999999996 1297.5,59.199999999999996 1297.5,72.4 1305.0,72.4 1305.0,72.4 1312.5,72.4 1312.5,59.199999999999996 1315.0,59.199999999999996 1315.0,55.0" stroke="rgb(0,0,0)" /><text fill="black" x="1295.0" y="92.4">H58</text><polygon fill="rgb(255,150,150)" points="1370.0,55.0 1370.0,54.8 1367.5,54.8 1367.5,49.6 1365.0,49.6 1365.0,43.8 1362.5,43.8 1362.5,33.199999999999996 1360.0,33.199999999999996 1360.0,31.6 1357.5,31.6 1357.5,31.6 1355.0,31.6 1355.0,33.199999999999996 1352.5,33.199999999999996 1352.5,43.8 1350.0,43.8 1350.0,49.6 1347.5,49.6 1347.5,54.8 1345.0,54.8 1345.0,55.0 1345.0,55.0 1345.0,55.2 1347.5,55.2 1347.5,60.4 1350.0,60.4 1350.0,66.2 1352.5,66.2 1352.5,76.80000000000001 1355.0,76.80000000000001 1355.0,78.4 1357.5,78.4 1357.5,78.4 1360.0,78.4 1360.0,76.80000000000001 1362.5,76.80000000000001 1362.5,66.2 1365.0,66.2 1365.0,60.4 1367.5,60.4 1367.5,55.2 1370.0,55.2 1370.0,55.0" stroke="rgb(0,0,0)" /><text fill="black" x="1345.0" y="98.4">E60</text><polygon fill="rgb(150,150,150)" points="1430.0,55.0 1430.0,54.4 1427.5,54.4 1427.5,50.6 1425.0,50.6 1425.0,44.800000000000004 1422.5,44.800000000000004 1422.5,41.4 1415.0,41.4 1415.0,41.4 1407.5,41.4 1407.5,44.800000000000004 1405.0,44.800000000000004 1405.0,50.6 1402.5,50.6 1402.5,54.4 1400.0,54.4 1400.0,55.0 1400.0,55.0 1400.0,55.6 1402.5,55.6 1402.5,59.4 1405.0,59.4 1405.0,65.2 1407.5,65.2 1407.5,68.6 1415.0,68.6 1415.0,68.6 1422.5,68.6 1422.5,65.2 1425.0,65.2 1425.0,59.4 1427.5,59.4 1427.5,55.6 1430.0,55.6 1430.0,55.0" stroke="rgb(0,0,0)" /><text fill="black" x="1400.0" y="88.6">H61</text><path d="M 377.5,55.0 a 340.9636472206137,340.9636472206137 0 0,0 -262.5,-0.0" stroke="rgb(255,150,150)" stroke-width="2" /><path d="M 377.5,55.0 a 340.9636472206137,340.9636472206137 0 0,0 -262.5,-0.0" stroke="rgb(0,0,0)" stroke-width="0.2" /><path d="M 1125.0,55.0 a 2998.61934884699,2998.61934884699 0 0,0 -1010.0,-0.0" stroke="rgb(255,150,150)" stroke-width="2" /><path d="M 1125.0,55.0 a 2998.61934884699,2998.61934884699 0 0,0 -1010.0,-0.0" stroke="rgb(0,0,0)" stroke-width="0.2" /><path d="M 1357.5,55.0 a 4341.43924875182,4341.43924875182 0 0,0 -1242.5,-0.0" stroke="rgb(255,150,150)" stroke-width="2" /><path d="M 1357.5,55.0 a 4341.43924875182,4341.43924875182 0 0,0 -1242.5,-0.0" stroke="rgb(0,0,0)" stroke-width="0.2" /><path d="M 470.0,55.0 a 86.48414855072464,86.48414855072464 0 0,0 -92.5,-0.0" stroke="rgb(255,150,150)" stroke-width="2" /><path d="M 470.0,55.0 a 86.48414855072464,86.48414855072464 0 0,0 -92.5,-0.0" stroke="rgb(0,0,0)" stroke-width="0.2" /><path d="M 565.0,55.0 a 89.3162779628748,89.3162779628748 0 0,0 -95.0,-0.0" stroke="rgb(255,150,150)" stroke-width="2" /><path d="M 565.0,55.0 a 89.3162779628748,89.3162779628748 0 0,0 -95.0,-0.0" stroke="rgb(0,0,0)" stroke-width="0.2" /><path d="M 727.5,55.0 a 70.04875529991271,70.04875529991271 0 0,0 -77.5,-0.0" stroke="rgb(255,150,150)" stroke-width="2" /><path d="M 727.5,55.0 a 70.04875529991271,70.04875529991271 0 0,0 -77.5,-0.0" stroke="rgb(0,0,0)" stroke-width="0.2" /><path d="M 812.5,55.0 a 78.147238514174,78.147238514174 0 0,0 -85.0,-0.0" stroke="rgb(255,150,150)" stroke-width="2" /><path d="M 812.5,55.0 a 78.147238514174,78.147238514174 0 0,0 -85.0,-0.0" stroke="rgb(0,0,0)" stroke-width="0.2" /><path d="M 947.5,55.0 a 138.27466609220164,138.27466609220164 0 0,0 -135.0,-0.0" stroke="rgb(255,150,150)" stroke-width="2" /><path d="M 947.5,55.0 a 138.27466609220164,138.27466609220164 0 0,0 -135.0,-0.0" stroke="rgb(0,0,0)" stroke-width="0.2" /><path d="M 1032.5,55.0 a 78.147238514174,78.147238514174 0 0,0 -85.0,-0.0" stroke="rgb(255,150,150)" stroke-width="2" /><path d="M 1032.5,55.0 a 78.147238514174,78.147238514174 0 0,0 -85.0,-0.0" stroke="rgb(0,0,0)" stroke-width="0.2" /><path d="M 1125.0,55.0 a 86.48414855072464,86.48414855072464 0 0,0 -92.5,-0.0" stroke="rgb(255,150,150)" stroke-width="2" /><path d="M 1125.0,55.0 a 86.48414855072464,86.48414855072464 0 0,0 -92.5,-0.0" stroke="rgb(0,0,0)" stroke-width="0.2" /></svg>