<?xml version="1.0" encoding="utf-8" ?>
<svg baseProfile="full" height="100%" style="font-size:14;font-family:Sans, Arial;stroke-width:1;fill:none" version="1.1" width="100%" xmlns="http://www.w3.org/2000/svg" xmlns:ev="http://www.w3.org/2001/xml-events" xmlns:xlink="http://www.w3.org/1999/xlink"><defs /><rect fill="none" height="150.0" stroke="none" width="958.6848500000001" x="0" y="0" /><line stroke="rgb(0,0,0)" x1="5.0" x2="30.98265" y1="75.0" y2="75.0" /><line stroke="rgb(0,0,0)" x1="30.98265" x2="40.98264999999999" y1="75.0" y2="75.0" /><line stroke="rgb(0,0,0)" x1="40.98264999999999" x2="45.98264999999999" y1="75.0" y2="75.0" /><line stroke="rgb(0,0,0)" x1="45.98264999999999" x2="93.0847" y1="75.0" y2="75.0" /><line stroke="rgb(0,0,0)" x1="93.0847" x2="103.0847" y1="75.0" y2="75.0" /><line stroke="rgb(0,0,0)" x1="103.0847" x2="108.0847" y1="75.0" y2="75.0" /><line stroke="rgb(0,0,0)" x1="108.0847" x2="146.23284999999998" y1="75.0" y2="75.0" /><line stroke="rgb(0,0,0)" x1="146.23284999999998" x2="156.23284999999998" y1="75.0" y2="75.0" /><line stroke="rgb(0,0,0)" x1="156.23284999999998" x2="161.23284999999998" y1="75.0" y2="75.0" /><line stroke="rgb(0,0,0)" x1="161.23284999999998" x2="211.3155" y1="75.0" y2="75.0" /><line stroke="rgb(0,0,0)" x1="211.3155" x2="221.3155" y1="75.0" y2="75.0" /><line stroke="rgb(0,0,0)" x1="221.3155" x2="226.3155" y1="75.0" y2="75.0" /><line stroke="rgb(0,0,0)" x1="226.3155" x2="268.07059999999996" y1="75.0" y2="75.0" /><line stroke="rgb(0,0,0)" x1="268.07059999999996" x2="278.07059999999996" y1="75.0" y2="75.0" /><line stroke="rgb(0,0,0)" x1="278.07059999999996" x2="283.07059999999996" y1="75.0" y2="75.0" /><line stroke="rgb(0,0,0)" x1="283.07059999999996" x2="328.15225" y1="75.0" y2="75.0" /><line stroke="rgb(0,0,0)" x1="328.15225" x2="338.15225" y1="75.0" y2="75.0" /><line stroke="rgb(0,0,0)" x1="338.15225" x2="343.15225" y1="75.0" y2="75.0" /><line stroke="rgb(0,0,0)" x1="343.15225" x2="390.87764999999996" y1="75.0" y2="75.0" /><line stroke="rgb(0,0,0)" x1="390.87764999999996" x2="400.87764999999996" y1="75.0" y2="75.0" /><line stroke="rgb(0,0,0)" x1="400.87764999999996" x2="405.87764999999996" y1="75.0" y2="75.0" /><line stroke="rgb(0,0,0)" x1="405.87764999999996" x2="433.0081" y1="75.0" y2="75.0" /><line stroke="rgb(0,0,0)" x1="433.0081" x2="443.0081" y1="75.0" y2="75.0" /><line stroke="rgb(0,0,0)" x1="443.0081" x2="448.0081" y1="75.0" y2="75.0" /><line stroke="rgb(0,0,0)" x1="448.0081" x2="487.78085" y1="75.0" y2="75.0" /><line stroke="rgb(0,0,0)" x1="487.78085" x2="497.78085" y1="75.0" y2="75.0" /><line stroke="rgb(0,0,0)" x1="497.78085" x2="502.78085" y1="75.0" y2="75.0" /><line stroke="rgb(0,0,0)" x1="502.78085" x2="539.9236999999999" y1="75.0" y2="75.0" /><line stroke="rgb(0,0,0)" x1="539.9236999999999" x2="549.9236999999999" y1="75.0" y2="75.0" /><line stroke="rgb(0,0,0)" x1="549.9236999999999" x2="554.9236999999999" y1="75.0" y2="75.0" /><line stroke="rgb(0,0,0)" x1="554.9236999999999" x2="576.7236999999999" y1="75.0" y2="75.0" /><line stroke="rgb(0,0,0)" x1="576.7236999999999" x2="586.7236999999999" y1="75.0" y2="75.0" /><line stroke="rgb(0,0,0)" x1="586.7236999999999" x2="591.7236999999999" y1="75.0" y2="75.0" /><line stroke="rgb(0,0,0)" x1="591.7236999999999" x2="639.6874" y1="75.0" y2="75.0" /><line stroke="rgb(0,0,0)" x1="639.6874" x2="649.6874" y1="75.0" y2="75.0" /><line stroke="rgb(0,0,0)" x1="649.6874" x2="654.6874" y1="75.0" y2="75.0" /><line stroke="rgb(0,0,0)" x1="654.6874" x2="701.1274000000001" y1="75.0" y2="75.0" /><line stroke="rgb(0,0,0)" x1="701.1274000000001" x2="711.1274000000001" y1="75.0" y2="75.0" /><line stroke="rgb(0,0,0)" x1="711.1274000000001" x2="716.1274000000001" y1="75.0" y2="75.0" /><line stroke="rgb(0,0,0)" x1="716.1274000000001" x2="764.8623500000001" y1="75.0" y2="75.0" /><line stroke="rgb(0,0,0)" x1="764.8623500000001" x2="774.8623500000001" y1="75.0" y2="75.0" /><line stroke="rgb(0,0,0)" x1="774.8623500000001" x2="779.8623500000001" y1="75.0" y2="75.0" /><line stroke="rgb(0,0,0)" x1="779.8623500000001" x2="848.6418500000001" y1="75.0" y2="75.0" /><line stroke="rgb(0,0,0)" x1="848.6418500000001" x2="858.6418500000001" y1="75.0" y2="75.0" /><line stroke="rgb(0,0,0)" x1="858.6418500000001" x2="863.6418500000001" y1="75.0" y2="75.0" /><line stroke="rgb(0,0,0)" x1="863.6418500000001" x2="884.84875" y1="75.0" y2="75.0" /><line stroke="rgb(0,0,0)" x1="884.84875" x2="894.84875" y1="75.0" y2="75.0" /><line stroke="rgb(0,0,0)" x1="894.84875" x2="899.84875" y1="75.0" y2="75.0" /><line stroke="rgb(0,0,0)" x1="899.84875" x2="918.0966000000001" y1="75.0" y2="75.0" /><line stroke="rgb(0,0,0)" x1="918.0966000000001" x2="928.0966000000001" y1="75.0" y2="75.0" /><line stroke="rgb(0,0,0)" x1="928.0966000000001" x2="933.0966000000001" y1="75.0" y2="75.0" /><rect fill="rgb(117,92,255)" height="69.19999999999999" stroke="rgb(0,0,0)" width="20.98265" x="5.0" y="40.400000000000006" /><text fill="black" x="5.0" y="129.6">H6</text><rect fill="rgb(255,188,240)" height="98.0" stroke="rgb(0,0,0)" width="42.102050000000006" x="45.98264999999999" y="26.0" /><text fill="black" x="45.98264999999999" y="144.0">E9</text><rect fill="rgb(255,159,203)" height="64.8" stroke="rgb(0,0,0)" width="33.14815" x="108.0847" y="42.6" /><text fill="black" x="108.0847" y="127.4">H11</text><rect fill="rgb(238,187,255)" height="48.4" stroke="rgb(0,0,0)" width="45.08265" x="161.23284999999998" y="50.8" /><text fill="black" x="161.23284999999998" y="119.2">H12</text><rect fill="rgb(230,180,255)" height="98.0" stroke="rgb(0,0,0)" width="36.7551" x="226.3155" y="26.0" /><text fill="black" x="226.3155" y="144.0">E18</text><rect fill="rgb(255,196,251)" height="98.0" stroke="rgb(0,0,0)" width="40.081649999999996" x="283.07059999999996" y="26.0" /><text fill="black" x="283.07059999999996" y="144.0">E22</text><rect fill="rgb(255,134,171)" height="97.6" stroke="rgb(0,0,0)" width="42.7254" x="343.15225" y="26.200000000000003" /><text fill="black" x="343.15225" y="143.8">E26</text><rect fill="rgb(225,177,255)" height="46.0" stroke="rgb(0,0,0)" width="22.130450000000003" x="405.87764999999996" y="52.0" /><text fill="black" x="405.87764999999996" y="118.0">E29</text><rect fill="rgb(255,64,82)" height="61.6" stroke="rgb(0,0,0)" width="34.77275" x="448.0081" y="44.2" /><text fill="black" x="448.0081" y="125.8">E32</text><rect fill="rgb(255,118,151)" height="98.0" stroke="rgb(0,0,0)" width="32.142849999999996" x="502.78085" y="26.0" /><text fill="black" x="502.78085" y="144.0">E34</text><rect fill="rgb(255,141,180)" height="20.0" stroke="rgb(0,0,0)" width="16.8" x="554.9236999999999" y="65.0" /><text fill="black" x="554.9236999999999" y="105.0">H39</text><rect fill="rgb(232,182,255)" height="99.2" stroke="rgb(0,0,0)" width="42.963699999999996" x="591.7236999999999" y="25.4" /><text fill="black" x="591.7236999999999" y="144.6">E41</text><rect fill="rgb(205,161,255)" height="100.0" stroke="rgb(0,0,0)" width="41.44" x="654.6874" y="25.0" /><text fill="black" x="654.6874" y="145.0">E44</text><rect fill="rgb(255,190,243)" height="99.6" stroke="rgb(0,0,0)" width="43.73495" x="716.1274000000001" y="25.200000000000003" /><text fill="black" x="716.1274000000001" y="144.8">E52</text><rect fill="rgb(243,190,255)" height="50.8" stroke="rgb(0,0,0)" width="63.7795" x="779.8623500000001" y="49.6" /><text fill="black" x="779.8623500000001" y="120.4">H57</text><rect fill="rgb(255,161,206)" height="34.8" stroke="rgb(0,0,0)" width="16.2069" x="863.6418500000001" y="57.6" /><text fill="black" x="863.6418500000001" y="112.4">H58</text><rect fill="rgb(186,146,255)" height="46.800000000000004" stroke="rgb(0,0,0)" width="13.247850000000001" x="899.84875" y="51.599999999999994" /><text fill="black" x="899.84875" y="118.4">E60</text><rect fill="rgb(227,178,255)" height="27.200000000000003" stroke="rgb(0,0,0)" width="20.588250000000002" x="933.0966000000001" y="61.4" /><text fill="black" x="933.0966000000001" y="108.6">H61</text><path d="M 244.69304999999997,75.0 a 162.3776361659281,162.3776361659281 0 0,0 -177.65937499999998,-0.0" stroke="rgb(255,188,240)" stroke-width="2" /><path d="M 244.69304999999997,75.0 a 162.3776361659281,162.3776361659281 0 0,0 -177.65937499999998,-0.0" stroke="rgb(0,0,0)" stroke-width="0.2" /><path d="M 737.9948750000001,75.0 a 1336.9266865855914,1336.9266865855914 0 0,0 -670.9612000000001,-0.0" stroke="rgb(255,188,240)" stroke-width="2" /><path d="M 737.9948750000001,75.0 a 1336.9266865855914,1336.9266865855914 0 0,0 -670.9612000000001,-0.0" stroke="rgb(0,0,0)" stroke-width="0.2" /><path d="M 906.472675,75.0 a 1989.6805677010202,1989.6805677010202 0 0,0 -839.439,-0.0" stroke="rgb(255,188,240)" stroke-width="2" /><path d="M 906.472675,75.0 a 1989.6805677010202,1989.6805677010202 0 0,0 -839.439,-0.0" stroke="rgb(0,0,0)" stroke-width="0.2" /><path d="M 303.11142499999994,75.0 a 39.634914256874,39.634914256874 0 0,0 -58.41837499999997,-0.0" stroke="rgb(230,180,255)" stroke-width="2" /><path d="M 303.11142499999994,75.0 a 39.634914256874,39.634914256874 0 0,0 -58.41837499999997,-0.0" stroke="rgb(0,0,0)" stroke-width="0.2" /><path d="M 364.51495,75.0 a 41.997225347058176,41.997225347058176 0 0,0 -61.40352500000006,-0.0" stroke="rgb(255,196,251)" stroke-width="2" /><path d="M 364.51495,75.0 a 41.997225347058176,41.997225347058176 0 0,0 -61.40352500000006,-0.0" stroke="rgb(0,0,0)" stroke-width="0.2" /><path d="M 465.394475,75.0 a 31.996297473641825,31.996297473641825 0 0,0 -48.45160000000004,-0.0" stroke="rgb(225,177,255)" stroke-width="2" /><path d="M 465.394475,75.0 a 31.996297473641825,31.996297473641825 0 0,0 -48.45160000000004,-0.0" stroke="rgb(0,0,0)" stroke-width="0.2" /><path d="M 518.852275,75.0 a 35.78553750848435,35.78553750848435 0 0,0 -53.45779999999996,-0.0" stroke="rgb(255,64,82)" stroke-width="2" /><path d="M 518.852275,75.0 a 35.78553750848435,35.78553750848435 0 0,0 -53.45779999999996,-0.0" stroke="rgb(0,0,0)" stroke-width="0.2" /><path d="M 613.2055499999999,75.0 a 70.41854928021309,70.41854928021309 0 0,0 -94.35327499999994,-0.0" stroke="rgb(255,118,151)" stroke-width="2" /><path d="M 613.2055499999999,75.0 a 70.41854928021309,70.41854928021309 0 0,0 -94.35327499999994,-0.0" stroke="rgb(0,0,0)" stroke-width="0.2" /><path d="M 675.4074,75.0 a 42.634857462518845,42.634857462518845 0 0,0 -62.20185000000015,-0.0" stroke="rgb(232,182,255)" stroke-width="2" /><path d="M 675.4074,75.0 a 42.634857462518845,42.634857462518845 0 0,0 -62.20185000000015,-0.0" stroke="rgb(0,0,0)" stroke-width="0.2" /><path d="M 737.9948750000001,75.0 a 42.94375133746881,42.94375133746881 0 0,0 -62.58747500000004,-0.0" stroke="rgb(205,161,255)" stroke-width="2" /><path d="M 737.9948750000001,75.0 a 42.94375133746881,42.94375133746881 0 0,0 -62.58747500000004,-0.0" stroke="rgb(0,0,0)" stroke-width="0.2" /></svg>