<?xml version="1.0" encoding="utf-8" ?>
<svg baseProfile="full" height="100%" style="font-size:14;font-family:Sans, Arial;stroke-width:1;fill:none" version="1.1" width="100%" xmlns="http://www.w3.org/2000/svg" xmlns:ev="http://www.w3.org/2001/xml-events" xmlns:xlink="http://www.w3.org/1999/xlink"><defs /><rect fill="none" height="280.0" stroke="none" width="2893.031850000001" x="0" y="0" /><line stroke="rgb(0,0,0)" x1="5.0" x2="36.0" y1="130.0" y2="130.0" /><line stroke="rgb(0,0,0)" x1="36.0" x2="56.0" y1="130.0" y2="130.0" /><line stroke="rgb(0,0,0)" x1="56.0" x2="61.0" y1="130.0" y2="130.0" /><line stroke="rgb(0,0,0)" x1="61.0" x2="71.0" y1="130.0" y2="130.0" /><line stroke="rgb(0,0,0)" x1="71.0" x2="91.0" y1="130.0" y2="130.0" /><line stroke="rgb(0,0,0)" x1="91.0" x2="96.0" y1="130.0" y2="130.0" /><line stroke="rgb(0,0,0)" x1="96.0" x2="101.0" y1="130.0" y2="130.0" /><line stroke="rgb(0,0,0)" x1="101.0" x2="121.0" y1="130.0" y2="130.0" /><line stroke="rgb(0,0,0)" x1="121.0" x2="126.0" y1="130.0" y2="130.0" /><line stroke="rgb(0,0,0)" x1="126.0" x2="149.0488" y1="130.0" y2="130.0" /><line stroke="rgb(0,0,0)" x1="149.0488" x2="169.04879999999997" y1="130.0" y2="130.0" /><line stroke="rgb(0,0,0)" x1="169.04879999999997" x2="174.04879999999997" y1="130.0" y2="130.0" /><line stroke="rgb(0,0,0)" x1="174.04879999999997" x2="201.82659999999998" y1="130.0" y2="130.0" /><line stroke="rgb(0,0,0)" x1="201.82659999999998" x2="221.82659999999998" y1="130.0" y2="130.0" /><line stroke="rgb(0,0,0)" x1="221.82659999999998" x2="226.82659999999998" y1="130.0" y2="130.0" /><line stroke="rgb(0,0,0)" x1="226.82659999999998" x2="258.0766" y1="130.0" y2="130.0" /><line stroke="rgb(0,0,0)" x1="258.0766" x2="278.0766" y1="130.0" y2="130.0" /><line stroke="rgb(0,0,0)" x1="278.0766" x2="283.0766" y1="130.0" y2="130.0" /><line stroke="rgb(0,0,0)" x1="283.0766" x2="309.05925" y1="130.0" y2="130.0" /><line stroke="rgb(0,0,0)" x1="309.05925" x2="329.05924999999996" y1="130.0" y2="130.0" /><line stroke="rgb(0,0,0)" x1="329.05924999999996" x2="334.05924999999996" y1="130.0" y2="130.0" /><line stroke="rgb(0,0,0)" x1="334.05924999999996" x2="350.07965" y1="130.0" y2="130.0" /><line stroke="rgb(0,0,0)" x1="350.07965" x2="370.07965" y1="130.0" y2="130.0" /><line stroke="rgb(0,0,0)" x1="370.07965" x2="375.07965" y1="130.0" y2="130.0" /><line stroke="rgb(0,0,0)" x1="375.07965" x2="380.07965" y1="130.0" y2="130.0" /><line stroke="rgb(0,0,0)" x1="380.07965" x2="400.07965" y1="130.0" y2="130.0" /><line stroke="rgb(0,0,0)" x1="400.07965" x2="405.07965" y1="130.0" y2="130.0" /><line stroke="rgb(0,0,0)" x1="405.07965" x2="452.1817" y1="130.0" y2="130.0" /><line stroke="rgb(0,0,0)" x1="452.1817" x2="472.1817" y1="130.0" y2="130.0" /><line stroke="rgb(0,0,0)" x1="472.1817" x2="477.1817" y1="130.0" y2="130.0" /><line stroke="rgb(0,0,0)" x1="477.1817" x2="497.1817" y1="130.0" y2="130.0" /><line stroke="rgb(0,0,0)" x1="497.1817" x2="517.1817" y1="130.0" y2="130.0" /><line stroke="rgb(0,0,0)" x1="517.1817" x2="522.1817" y1="130.0" y2="130.0" /><line stroke="rgb(0,0,0)" x1="522.1817" x2="560.3298500000001" y1="130.0" y2="130.0" /><line stroke="rgb(0,0,0)" x1="560.3298500000001" x2="580.3298500000001" y1="130.0" y2="130.0" /><line stroke="rgb(0,0,0)" x1="580.3298500000001" x2="585.3298500000001" y1="130.0" y2="130.0" /><line stroke="rgb(0,0,0)" x1="585.3298500000001" x2="635.4125" y1="130.0" y2="130.0" /><line stroke="rgb(0,0,0)" x1="635.4125" x2="655.4125" y1="130.0" y2="130.0" /><line stroke="rgb(0,0,0)" x1="655.4125" x2="660.4125" y1="130.0" y2="130.0" /><line stroke="rgb(0,0,0)" x1="660.4125" x2="686.1268000000001" y1="130.0" y2="130.0" /><line stroke="rgb(0,0,0)" x1="686.1268000000001" x2="706.1268000000001" y1="130.0" y2="55.0" /><line stroke="rgb(0,0,0)" x1="706.1268000000001" x2="711.1268000000001" y1="55.0" y2="55.0" /><line stroke="rgb(0,0,0)" x1="660.4125" x2="686.1268000000001" y1="130.0" y2="130.0" /><line stroke="rgb(0,0,0)" x1="686.1268000000001" x2="706.1268000000001" y1="130.0" y2="205.0" /><line stroke="rgb(0,0,0)" x1="706.1268000000001" x2="711.1268000000001" y1="205.0" y2="205.0" /><line stroke="rgb(0,0,0)" x1="711.1268000000001" x2="716.1268000000001" y1="55.0" y2="55.0" /><line stroke="rgb(0,0,0)" x1="716.1268000000001" x2="743.5077500000001" y1="55.0" y2="55.0" /><line stroke="rgb(0,0,0)" x1="743.5077500000001" x2="748.5077500000001" y1="55.0" y2="55.0" /><line stroke="rgb(0,0,0)" x1="711.1268000000001" x2="723.5077500000001" y1="205.0" y2="205.0" /><line stroke="rgb(0,0,0)" x1="723.5077500000001" x2="743.5077500000001" y1="205.0" y2="205.0" /><line stroke="rgb(0,0,0)" x1="743.5077500000001" x2="748.5077500000001" y1="205.0" y2="205.0" /><line stroke="rgb(0,0,0)" x1="748.5077500000001" x2="753.5077500000001" y1="55.0" y2="55.0" /><line stroke="rgb(0,0,0)" x1="753.5077500000001" x2="778.5077500000001" y1="55.0" y2="130.0" /><line stroke="rgb(0,0,0)" x1="778.5077500000001" x2="783.5077500000001" y1="130.0" y2="130.0" /><line stroke="rgb(0,0,0)" x1="748.5077500000001" x2="758.5077500000001" y1="205.0" y2="205.0" /><line stroke="rgb(0,0,0)" x1="758.5077500000001" x2="778.5077500000001" y1="205.0" y2="130.0" /><line stroke="rgb(0,0,0)" x1="778.5077500000001" x2="783.5077500000001" y1="130.0" y2="130.0" /><line stroke="rgb(0,0,0)" x1="783.5077500000001" x2="825.2628500000002" y1="130.0" y2="130.0" /><line stroke="rgb(0,0,0)" x1="825.2628500000002" x2="845.2628500000002" y1="130.0" y2="55.0" /><line stroke="rgb(0,0,0)" x1="845.2628500000002" x2="850.2628500000002" y1="55.0" y2="55.0" /><line stroke="rgb(0,0,0)" x1="783.5077500000001" x2="825.2628500000002" y1="130.0" y2="130.0" /><line stroke="rgb(0,0,0)" x1="825.2628500000002" x2="845.2628500000002" y1="130.0" y2="205.0" /><line stroke="rgb(0,0,0)" x1="845.2628500000002" x2="850.2628500000002" y1="205.0" y2="205.0" /><line stroke="rgb(0,0,0)" x1="850.2628500000002" x2="855.2628500000002" y1="55.0" y2="55.0" /><line stroke="rgb(0,0,0)" x1="855.2628500000002" x2="890.2628500000002" y1="55.0" y2="130.0" /><line stroke="rgb(0,0,0)" x1="890.2628500000002" x2="895.2628500000002" y1="130.0" y2="130.0" /><line stroke="rgb(0,0,0)" x1="895.2628500000002" x2="906.0962000000002" y1="130.0" y2="130.0" /><line stroke="rgb(0,0,0)" x1="906.0962000000002" x2="926.0962000000002" y1="130.0" y2="130.0" /><line stroke="rgb(0,0,0)" x1="926.0962000000002" x2="931.0962000000002" y1="130.0" y2="130.0" /><line stroke="rgb(0,0,0)" x1="850.2628500000002" x2="870.2628500000002" y1="205.0" y2="205.0" /><line stroke="rgb(0,0,0)" x1="870.2628500000002" x2="926.0962000000002" y1="205.0" y2="130.0" /><line stroke="rgb(0,0,0)" x1="926.0962000000002" x2="931.0962000000002" y1="130.0" y2="130.0" /><line stroke="rgb(0,0,0)" x1="931.0962000000002" x2="976.1778500000003" y1="130.0" y2="130.0" /><line stroke="rgb(0,0,0)" x1="976.1778500000003" x2="996.1778500000003" y1="130.0" y2="130.0" /><line stroke="rgb(0,0,0)" x1="996.1778500000003" x2="1001.1778500000003" y1="130.0" y2="130.0" /><line stroke="rgb(0,0,0)" x1="1001.1778500000003" x2="1018.6778500000003" y1="130.0" y2="130.0" /><line stroke="rgb(0,0,0)" x1="1018.6778500000003" x2="1038.6778500000003" y1="130.0" y2="130.0" /><line stroke="rgb(0,0,0)" x1="1038.6778500000003" x2="1043.6778500000003" y1="130.0" y2="130.0" /><line stroke="rgb(0,0,0)" x1="1043.6778500000003" x2="1066.8830000000003" y1="130.0" y2="130.0" /><line stroke="rgb(0,0,0)" x1="1066.8830000000003" x2="1086.8830000000003" y1="130.0" y2="130.0" /><line stroke="rgb(0,0,0)" x1="1086.8830000000003" x2="1091.8830000000003" y1="130.0" y2="130.0" /><line stroke="rgb(0,0,0)" x1="1091.8830000000003" x2="1109.3830000000003" y1="130.0" y2="130.0" /><line stroke="rgb(0,0,0)" x1="1109.3830000000003" x2="1129.3830000000003" y1="130.0" y2="130.0" /><line stroke="rgb(0,0,0)" x1="1129.3830000000003" x2="1134.3830000000003" y1="130.0" y2="130.0" /><line stroke="rgb(0,0,0)" x1="1134.3830000000003" x2="1182.1084000000003" y1="130.0" y2="130.0" /><line stroke="rgb(0,0,0)" x1="1182.1084000000003" x2="1202.1084000000003" y1="130.0" y2="130.0" /><line stroke="rgb(0,0,0)" x1="1202.1084000000003" x2="1207.1084000000003" y1="130.0" y2="130.0" /><line stroke="rgb(0,0,0)" x1="1207.1084000000003" x2="1226.3941000000002" y1="130.0" y2="130.0" /><line stroke="rgb(0,0,0)" x1="1226.3941000000002" x2="1246.3941000000002" y1="130.0" y2="130.0" /><line stroke="rgb(0,0,0)" x1="1246.3941000000002" x2="1251.3941000000002" y1="130.0" y2="130.0" /><line stroke="rgb(0,0,0)" x1="1251.3941000000002" x2="1271.3941000000002" y1="130.0" y2="130.0" /><line stroke="rgb(0,0,0)" x1="1271.3941000000002" x2="1291.3941000000002" y1="130.0" y2="130.0" /><line stroke="rgb(0,0,0)" x1="1291.3941000000002" x2="1296.3941000000002" y1="130.0" y2="130.0" /><line stroke="rgb(0,0,0)" x1="1296.3941000000002" x2="1323.52455" y1="130.0" y2="130.0" /><line stroke="rgb(0,0,0)" x1="1323.52455" x2="1343.52455" y1="130.0" y2="55.0" /><line stroke="rgb(0,0,0)" x1="1343.52455" x2="1348.52455" y1="55.0" y2="55.0" /><line stroke="rgb(0,0,0)" x1="1296.3941000000002" x2="1323.52455" y1="130.0" y2="130.0" /><line stroke="rgb(0,0,0)" x1="1323.52455" x2="1343.52455" y1="130.0" y2="205.0" /><line stroke="rgb(0,0,0)" x1="1343.52455" x2="1348.52455" y1="205.0" y2="205.0" /><line stroke="rgb(0,0,0)" x1="1348.52455" x2="1368.52455" y1="55.0" y2="55.0" /><line stroke="rgb(0,0,0)" x1="1368.52455" x2="1395.8579000000004" y1="55.0" y2="130.0" /><line stroke="rgb(0,0,0)" x1="1395.8579000000004" x2="1400.8579000000004" y1="130.0" y2="130.0" /><line stroke="rgb(0,0,0)" x1="1348.52455" x2="1375.8579000000004" y1="205.0" y2="205.0" /><line stroke="rgb(0,0,0)" x1="1375.8579000000004" x2="1395.8579000000004" y1="205.0" y2="130.0" /><line stroke="rgb(0,0,0)" x1="1395.8579000000004" x2="1400.8579000000004" y1="130.0" y2="130.0" /><line stroke="rgb(0,0,0)" x1="1400.8579000000004" x2="1440.6306500000003" y1="130.0" y2="130.0" /><line stroke="rgb(0,0,0)" x1="1440.6306500000003" x2="1460.6306500000003" y1="130.0" y2="130.0" /><line stroke="rgb(0,0,0)" x1="1460.6306500000003" x2="1465.6306500000003" y1="130.0" y2="130.0" /><line stroke="rgb(0,0,0)" x1="1465.6306500000003" x2="1485.6306500000003" y1="130.0" y2="130.0" /><line stroke="rgb(0,0,0)" x1="1485.6306500000003" x2="1505.6306500000003" y1="130.0" y2="130.0" /><line stroke="rgb(0,0,0)" x1="1505.6306500000003" x2="1510.6306500000003" y1="130.0" y2="130.0" /><line stroke="rgb(0,0,0)" x1="1510.6306500000003" x2="1547.7735000000002" y1="130.0" y2="130.0" /><line stroke="rgb(0,0,0)" x1="1547.7735000000002" x2="1567.7735000000002" y1="130.0" y2="55.0" /><line stroke="rgb(0,0,0)" x1="1567.7735000000002" x2="1572.7735000000002" y1="55.0" y2="55.0" /><line stroke="rgb(0,0,0)" x1="1510.6306500000003" x2="1547.7735000000002" y1="130.0" y2="130.0" /><line stroke="rgb(0,0,0)" x1="1547.7735000000002" x2="1567.7735000000002" y1="130.0" y2="205.0" /><line stroke="rgb(0,0,0)" x1="1567.7735000000002" x2="1572.7735000000002" y1="205.0" y2="205.0" /><line stroke="rgb(0,0,0)" x1="1572.7735000000002" x2="1577.7735000000002" y1="205.0" y2="205.0" /><line stroke="rgb(0,0,0)" x1="1577.7735000000002" x2="1612.7735000000002" y1="205.0" y2="130.0" /><line stroke="rgb(0,0,0)" x1="1612.7735000000002" x2="1617.7735000000002" y1="130.0" y2="130.0" /><line stroke="rgb(0,0,0)" x1="1617.7735000000002" x2="1622.7735000000002" y1="130.0" y2="130.0" /><line stroke="rgb(0,0,0)" x1="1622.7735000000002" x2="1642.7735000000002" y1="130.0" y2="130.0" /><line stroke="rgb(0,0,0)" x1="1642.7735000000002" x2="1647.7735000000002" y1="130.0" y2="130.0" /><line stroke="rgb(0,0,0)" x1="1647.7735000000002" x2="1665.51545" y1="130.0" y2="130.0" /><line stroke="rgb(0,0,0)" x1="1665.51545" x2="1685.51545" y1="130.0" y2="55.0" /><line stroke="rgb(0,0,0)" x1="1685.51545" x2="1690.51545" y1="55.0" y2="55.0" /><line stroke="rgb(0,0,0)" x1="1572.7735000000002" x2="1592.7735000000002" y1="55.0" y2="55.0" /><line stroke="rgb(0,0,0)" x1="1592.7735000000002" x2="1685.51545" y1="55.0" y2="55.0" /><line stroke="rgb(0,0,0)" x1="1685.51545" x2="1690.51545" y1="55.0" y2="55.0" /><line stroke="rgb(0,0,0)" x1="1647.7735000000002" x2="1665.51545" y1="130.0" y2="130.0" /><line stroke="rgb(0,0,0)" x1="1665.51545" x2="1685.51545" y1="130.0" y2="205.0" /><line stroke="rgb(0,0,0)" x1="1685.51545" x2="1690.51545" y1="205.0" y2="205.0" /><line stroke="rgb(0,0,0)" x1="1690.51545" x2="1712.31545" y1="55.0" y2="55.0" /><line stroke="rgb(0,0,0)" x1="1712.31545" x2="1732.31545" y1="55.0" y2="130.0" /><line stroke="rgb(0,0,0)" x1="1732.31545" x2="1737.31545" y1="130.0" y2="130.0" /><line stroke="rgb(0,0,0)" x1="1690.51545" x2="1700.51545" y1="205.0" y2="205.0" /><line stroke="rgb(0,0,0)" x1="1700.51545" x2="1732.31545" y1="205.0" y2="130.0" /><line stroke="rgb(0,0,0)" x1="1732.31545" x2="1737.31545" y1="130.0" y2="130.0" /><line stroke="rgb(0,0,0)" x1="1737.31545" x2="1785.27915" y1="130.0" y2="130.0" /><line stroke="rgb(0,0,0)" x1="1785.27915" x2="1805.27915" y1="130.0" y2="130.0" /><line stroke="rgb(0,0,0)" x1="1805.27915" x2="1810.27915" y1="130.0" y2="130.0" /><line stroke="rgb(0,0,0)" x1="1810.27915" x2="1830.27915" y1="130.0" y2="130.0" /><line stroke="rgb(0,0,0)" x1="1830.27915" x2="1850.27915" y1="130.0" y2="130.0" /><line stroke="rgb(0,0,0)" x1="1850.27915" x2="1855.27915" y1="130.0" y2="130.0" /><line stroke="rgb(0,0,0)" x1="1855.27915" x2="1860.27915" y1="130.0" y2="130.0" /><line stroke="rgb(0,0,0)" x1="1860.27915" x2="1880.27915" y1="130.0" y2="130.0" /><line stroke="rgb(0,0,0)" x1="1880.27915" x2="1885.27915" y1="130.0" y2="130.0" /><line stroke="rgb(0,0,0)" x1="1885.27915" x2="1931.7191500000001" y1="130.0" y2="130.0" /><line stroke="rgb(0,0,0)" x1="1931.7191500000001" x2="1951.7191500000001" y1="130.0" y2="130.0" /><line stroke="rgb(0,0,0)" x1="1951.7191500000001" x2="1956.7191500000001" y1="130.0" y2="130.0" /><line stroke="rgb(0,0,0)" x1="1956.7191500000001" x2="1983.1477" y1="130.0" y2="130.0" /><line stroke="rgb(0,0,0)" x1="1983.1477" x2="2003.1477" y1="130.0" y2="130.0" /><line stroke="rgb(0,0,0)" x1="2003.1477" x2="2008.1477" y1="130.0" y2="130.0" /><line stroke="rgb(0,0,0)" x1="2008.1477" x2="2035.6477" y1="130.0" y2="130.0" /><line stroke="rgb(0,0,0)" x1="2035.6477" x2="2055.6477" y1="130.0" y2="130.0" /><line stroke="rgb(0,0,0)" x1="2055.6477" x2="2060.6477" y1="130.0" y2="130.0" /><line stroke="rgb(0,0,0)" x1="2060.6477" x2="2070.6477" y1="130.0" y2="130.0" /><line stroke="rgb(0,0,0)" x1="2070.6477" x2="2090.6477" y1="130.0" y2="130.0" /><line stroke="rgb(0,0,0)" x1="2090.6477" x2="2095.6477" y1="130.0" y2="130.0" /><line stroke="rgb(0,0,0)" x1="2095.6477" x2="2120.6477" y1="130.0" y2="130.0" /><line stroke="rgb(0,0,0)" x1="2120.6477" x2="2140.6477" y1="130.0" y2="130.0" /><line stroke="rgb(0,0,0)" x1="2140.6477" x2="2145.6477" y1="130.0" y2="130.0" /><line stroke="rgb(0,0,0)" x1="2145.6477" x2="2200.6477" y1="130.0" y2="130.0" /><line stroke="rgb(0,0,0)" x1="2200.6477" x2="2220.6477" y1="130.0" y2="130.0" /><line stroke="rgb(0,0,0)" x1="2220.6477" x2="2225.6477" y1="130.0" y2="130.0" /><line stroke="rgb(0,0,0)" x1="2225.6477" x2="2249.8977000000004" y1="130.0" y2="130.0" /><line stroke="rgb(0,0,0)" x1="2249.8977000000004" x2="2269.8977000000004" y1="130.0" y2="130.0" /><line stroke="rgb(0,0,0)" x1="2269.8977000000004" x2="2274.8977000000004" y1="130.0" y2="130.0" /><line stroke="rgb(0,0,0)" x1="2274.8977000000004" x2="2286.1477000000004" y1="130.0" y2="130.0" /><line stroke="rgb(0,0,0)" x1="2286.1477000000004" x2="2306.1477000000004" y1="130.0" y2="130.0" /><line stroke="rgb(0,0,0)" x1="2306.1477000000004" x2="2311.1477000000004" y1="130.0" y2="130.0" /><line stroke="rgb(0,0,0)" x1="2311.1477000000004" x2="2359.88265" y1="130.0" y2="130.0" /><line stroke="rgb(0,0,0)" x1="2359.88265" x2="2379.88265" y1="130.0" y2="55.0" /><line stroke="rgb(0,0,0)" x1="2379.88265" x2="2384.88265" y1="55.0" y2="55.0" /><line stroke="rgb(0,0,0)" x1="2311.1477000000004" x2="2359.88265" y1="130.0" y2="130.0" /><line stroke="rgb(0,0,0)" x1="2359.88265" x2="2379.88265" y1="130.0" y2="205.0" /><line stroke="rgb(0,0,0)" x1="2379.88265" x2="2384.88265" y1="205.0" y2="205.0" /><line stroke="rgb(0,0,0)" x1="2384.88265" x2="2409.88265" y1="205.0" y2="205.0" /><line stroke="rgb(0,0,0)" x1="2409.88265" x2="2429.88265" y1="205.0" y2="55.0" /><line stroke="rgb(0,0,0)" x1="2429.88265" x2="2434.88265" y1="55.0" y2="55.0" /><line stroke="rgb(0,0,0)" x1="2384.88265" x2="2394.88265" y1="55.0" y2="55.0" /><line stroke="rgb(0,0,0)" x1="2394.88265" x2="2429.88265" y1="55.0" y2="205.0" /><line stroke="rgb(0,0,0)" x1="2429.88265" x2="2434.88265" y1="205.0" y2="205.0" /><line stroke="rgb(0,0,0)" x1="2434.88265" x2="2476.75765" y1="55.0" y2="55.0" /><line stroke="rgb(0,0,0)" x1="2476.75765" x2="2496.75765" y1="55.0" y2="130.0" /><line stroke="rgb(0,0,0)" x1="2496.75765" x2="2501.75765" y1="130.0" y2="130.0" /><line stroke="rgb(0,0,0)" x1="2434.88265" x2="2446.5493" y1="205.0" y2="205.0" /><line stroke="rgb(0,0,0)" x1="2446.5493" x2="2496.75765" y1="205.0" y2="130.0" /><line stroke="rgb(0,0,0)" x1="2496.75765" x2="2501.75765" y1="130.0" y2="130.0" /><line stroke="rgb(0,0,0)" x1="2501.75765" x2="2570.53715" y1="130.0" y2="130.0" /><line stroke="rgb(0,0,0)" x1="2570.53715" x2="2590.53715" y1="130.0" y2="130.0" /><line stroke="rgb(0,0,0)" x1="2590.53715" x2="2595.53715" y1="130.0" y2="130.0" /><line stroke="rgb(0,0,0)" x1="2595.53715" x2="2616.7440500000002" y1="130.0" y2="130.0" /><line stroke="rgb(0,0,0)" x1="2616.7440500000002" x2="2636.7440500000002" y1="130.0" y2="130.0" /><line stroke="rgb(0,0,0)" x1="2636.7440500000002" x2="2641.7440500000002" y1="130.0" y2="130.0" /><line stroke="rgb(0,0,0)" x1="2641.7440500000002" x2="2656.7440500000002" y1="130.0" y2="130.0" /><line stroke="rgb(0,0,0)" x1="2656.7440500000002" x2="2676.7440500000002" y1="130.0" y2="130.0" /><line stroke="rgb(0,0,0)" x1="2676.7440500000002" x2="2681.7440500000002" y1="130.0" y2="130.0" /><line stroke="rgb(0,0,0)" x1="2681.7440500000002" x2="2699.9919000000004" y1="130.0" y2="130.0" /><line stroke="rgb(0,0,0)" x1="2699.9919000000004" x2="2719.9919000000004" y1="130.0" y2="130.0" /><line stroke="rgb(0,0,0)" x1="2719.9919000000004" x2="2724.9919000000004" y1="130.0" y2="130.0" /><line stroke="rgb(0,0,0)" x1="2724.9919000000004" x2="2750.5801500000007" y1="130.0" y2="130.0" /><line stroke="rgb(0,0,0)" x1="2750.5801500000007" x2="2770.5801500000007" y1="130.0" y2="130.0" /><line stroke="rgb(0,0,0)" x1="2770.5801500000007" x2="2775.5801500000007" y1="130.0" y2="130.0" /><line stroke="rgb(0,0,0)" x1="2775.5801500000007" x2="2785.8579500000005" y1="130.0" y2="130.0" /><line stroke="rgb(0,0,0)" x1="2785.8579500000005" x2="2805.8579500000005" y1="130.0" y2="130.0" /><line stroke="rgb(0,0,0)" x1="2805.8579500000005" x2="2810.8579500000005" y1="130.0" y2="130.0" /><line stroke="rgb(0,0,0)" x1="2810.8579500000005" x2="2848.031850000001" y1="130.0" y2="130.0" /><line stroke="rgb(0,0,0)" x1="2848.031850000001" x2="2868.031850000001" y1="130.0" y2="130.0" /><line stroke="rgb(0,0,0)" x1="2868.031850000001" x2="2873.031850000001" y1="130.0" y2="130.0" /><rect fill="rgb(150,150,150)" height="2.0" stroke="rgb(0,0,0)" width="26.0" x="5.0" y="129.0" /><text fill="black" x="5.0" y="151.0">H0</text><rect fill="rgb(255,150,150)" height="0.4" stroke="rgb(0,0,0)" width="5.0" x="61.0" y="129.8" /><text fill="black" x="61.0" y="150.2">E1</text><rect fill="rgb(150,150,150)" height="0.0" stroke="rgb(0,0,0)" width="0.0" x="96.0" y="130.0" /><text fill="black" x="96.0" y="150.0">X2</text><rect fill="rgb(150,150,150)" height="16.400000000000002" stroke="rgb(0,0,0)" width="18.0488" x="126.0" y="121.8" /><text fill="black" x="126.0" y="158.2">H3</text><rect fill="rgb(150,150,150)" height="3.5999999999999996" stroke="rgb(0,0,0)" width="22.7778" x="174.04879999999997" y="128.2" /><text fill="black" x="174.04879999999997" y="151.8">H4</text><rect fill="rgb(150,150,150)" height="3.2" stroke="rgb(0,0,0)" width="26.25" x="226.82659999999998" y="128.4" /><text fill="black" x="226.82659999999998" y="151.6">H5</text><rect fill="rgb(150,150,150)" height="69.19999999999999" stroke="rgb(0,0,0)" width="20.98265" x="283.0766" y="95.4" /><text fill="black" x="283.0766" y="184.6">H6</text><rect fill="rgb(255,150,150)" height="19.6" stroke="rgb(0,0,0)" width="11.020399999999999" x="334.05924999999996" y="120.2" /><text fill="black" x="334.05924999999996" y="159.8">E7</text><rect fill="rgb(150,150,150)" height="0.0" stroke="rgb(0,0,0)" width="0.0" x="375.07965" y="130.0" /><text fill="black" x="375.07965" y="150.0">X8</text><rect fill="rgb(255,150,150)" height="98.0" stroke="rgb(0,0,0)" width="42.102050000000006" x="405.07965" y="81.0" /><text fill="black" x="405.07965" y="199.0">E9</text><rect fill="rgb(150,150,255)" height="1.2" stroke="rgb(0,0,0)" width="15.0" x="477.1817" y="129.4" /><text fill="black" x="477.1817" y="150.6">E10</text><rect fill="rgb(150,150,150)" height="64.8" stroke="rgb(0,0,0)" width="33.14815" x="522.1817" y="97.6" /><text fill="black" x="522.1817" y="182.4">H11</text><rect fill="rgb(150,150,150)" height="48.4" stroke="rgb(0,0,0)" width="45.08265" x="585.3298500000001" y="105.8" /><text fill="black" x="585.3298500000001" y="174.2">H12</text><rect fill="rgb(150,150,150)" height="2.8000000000000003" stroke="rgb(0,0,0)" width="20.714299999999998" x="660.4125" y="128.6" /><text fill="black" x="660.4125" y="151.4">H13</text><rect fill="rgb(150,150,150)" height="0.0" stroke="rgb(0,0,0)" width="0.0" x="711.1268000000001" y="55.0" /><text fill="black" x="711.1268000000001" y="75.0">X14</text><rect fill="rgb(150,150,255)" height="8.4" stroke="rgb(0,0,0)" width="7.3809499999999995" x="711.1268000000001" y="200.8" /><text fill="black" x="711.1268000000001" y="229.2">E15</text><rect fill="rgb(150,150,150)" height="0.0" stroke="rgb(0,0,0)" width="0.0" x="748.5077500000001" y="55.0" /><text fill="black" x="748.5077500000001" y="75.0">X16</text><rect fill="rgb(255,150,150)" height="0.4" stroke="rgb(0,0,0)" width="5.0" x="748.5077500000001" y="204.8" /><text fill="black" x="748.5077500000001" y="225.2">E17</text><rect fill="rgb(255,150,150)" height="98.0" stroke="rgb(0,0,0)" width="36.7551" x="783.5077500000001" y="81.0" /><text fill="black" x="783.5077500000001" y="199.0">E18</text><rect fill="rgb(150,150,150)" height="0.0" stroke="rgb(0,0,0)" width="0.0" x="850.2628500000002" y="55.0" /><text fill="black" x="850.2628500000002" y="75.0">X19</text><rect fill="rgb(150,150,150)" height="4.3999999999999995" stroke="rgb(0,0,0)" width="15.0" x="850.2628500000002" y="202.8" /><text fill="black" x="850.2628500000002" y="227.2">H20</text><rect fill="rgb(255,150,150)" height="2.4" stroke="rgb(0,0,0)" width="5.83335" x="895.2628500000002" y="128.8" /><text fill="black" x="895.2628500000002" y="151.2">E21</text><rect fill="rgb(255,150,150)" height="98.0" stroke="rgb(0,0,0)" width="40.081649999999996" x="931.0962000000002" y="81.0" /><text fill="black" x="931.0962000000002" y="199.0">E22</text><rect fill="rgb(255,150,150)" height="0.8" stroke="rgb(0,0,0)" width="12.5" x="1001.1778500000003" y="129.6" /><text fill="black" x="1001.1778500000003" y="150.4">E23</text><rect fill="rgb(150,150,150)" height="15.6" stroke="rgb(0,0,0)" width="18.20515" x="1043.6778500000003" y="122.2" /><text fill="black" x="1043.6778500000003" y="157.8">H24</text><rect fill="rgb(255,150,150)" height="0.8" stroke="rgb(0,0,0)" width="12.5" x="1091.8830000000003" y="129.6" /><text fill="black" x="1091.8830000000003" y="150.4">E25</text><rect fill="rgb(255,150,150)" height="97.6" stroke="rgb(0,0,0)" width="42.7254" x="1134.3830000000003" y="81.2" /><text fill="black" x="1134.3830000000003" y="198.8">E26</text><rect fill="rgb(255,150,150)" height="2.8000000000000003" stroke="rgb(0,0,0)" width="14.285699999999999" x="1207.1084000000003" y="128.6" /><text fill="black" x="1207.1084000000003" y="151.4">E27</text><rect fill="rgb(150,150,150)" height="0.8" stroke="rgb(0,0,0)" width="15.0" x="1251.3941000000002" y="129.6" /><text fill="black" x="1251.3941000000002" y="150.4">H28</text><rect fill="rgb(255,150,150)" height="46.0" stroke="rgb(0,0,0)" width="22.130450000000003" x="1296.3941000000002" y="107.0" /><text fill="black" x="1296.3941000000002" y="173.0">E29</text><rect fill="rgb(150,150,150)" height="7.6" stroke="rgb(0,0,0)" width="15.0" x="1348.52455" y="51.2" /><text fill="black" x="1348.52455" y="78.8">H30</text><rect fill="rgb(255,150,150)" height="6.0" stroke="rgb(0,0,0)" width="22.33335" x="1348.52455" y="202.0" /><text fill="black" x="1348.52455" y="228.0">E31</text><rect fill="rgb(255,150,150)" height="61.6" stroke="rgb(0,0,0)" width="34.77275" x="1400.8579000000004" y="99.2" /><text fill="black" x="1400.8579000000004" y="180.8">E32</text><rect fill="rgb(150,150,150)" height="8.799999999999999" stroke="rgb(0,0,0)" width="15.0" x="1465.6306500000003" y="125.6" /><text fill="black" x="1465.6306500000003" y="154.4">H33</text><rect fill="rgb(255,150,150)" height="98.0" stroke="rgb(0,0,0)" width="32.142849999999996" x="1510.6306500000003" y="81.0" /><text fill="black" x="1510.6306500000003" y="199.0">E34</text><rect fill="rgb(150,150,150)" height="0.8" stroke="rgb(0,0,0)" width="15.0" x="1572.7735000000002" y="54.6" /><text fill="black" x="1572.7735000000002" y="75.4">H35</text><rect fill="rgb(150,150,150)" height="0.0" stroke="rgb(0,0,0)" width="0.0" x="1572.7735000000002" y="205.0" /><text fill="black" x="1572.7735000000002" y="225.0">X36</text><rect fill="rgb(150,150,150)" height="0.0" stroke="rgb(0,0,0)" width="0.0" x="1617.7735000000002" y="130.0" /><text fill="black" x="1617.7735000000002" y="150.0">X37</text><rect fill="rgb(255,150,150)" height="12.4" stroke="rgb(0,0,0)" width="12.74195" x="1647.7735000000002" y="123.8" /><text fill="black" x="1647.7735000000002" y="156.2">E38</text><rect fill="rgb(150,150,150)" height="20.0" stroke="rgb(0,0,0)" width="16.8" x="1690.51545" y="45.0" /><text fill="black" x="1690.51545" y="85.0">H39</text><rect fill="rgb(255,150,150)" height="2.4" stroke="rgb(0,0,0)" width="5.0" x="1690.51545" y="203.8" /><text fill="black" x="1690.51545" y="226.2">E40</text><rect fill="rgb(255,150,150)" height="99.2" stroke="rgb(0,0,0)" width="42.963699999999996" x="1737.31545" y="80.4" /><text fill="black" x="1737.31545" y="199.6">E41</text><rect fill="rgb(150,150,150)" height="6.800000000000001" stroke="rgb(0,0,0)" width="15.0" x="1810.27915" y="126.6" /><text fill="black" x="1810.27915" y="153.4">H42</text><rect fill="rgb(150,150,150)" height="0.0" stroke="rgb(0,0,0)" width="0.0" x="1855.27915" y="130.0" /><text fill="black" x="1855.27915" y="150.0">X43</text><rect fill="rgb(255,150,150)" height="100.0" stroke="rgb(0,0,0)" width="41.44" x="1885.27915" y="80.0" /><text fill="black" x="1885.27915" y="200.0">E44</text><rect fill="rgb(150,150,150)" height="5.6000000000000005" stroke="rgb(0,0,0)" width="21.42855" x="1956.7191500000001" y="127.2" /><text fill="black" x="1956.7191500000001" y="152.8">H45</text><rect fill="rgb(150,150,150)" height="2.4" stroke="rgb(0,0,0)" width="22.5" x="2008.1477" y="128.8" /><text fill="black" x="2008.1477" y="151.2">H46</text><rect fill="rgb(255,150,150)" height="2.4" stroke="rgb(0,0,0)" width="5.0" x="2060.6477" y="128.8" /><text fill="black" x="2060.6477" y="151.2">E47</text><rect fill="rgb(150,150,150)" height="2.4" stroke="rgb(0,0,0)" width="20.0" x="2095.6477" y="128.8" /><text fill="black" x="2095.6477" y="151.2">H48</text><rect fill="rgb(150,150,150)" height="2.4" stroke="rgb(0,0,0)" width="50.0" x="2145.6477" y="128.8" /><text fill="black" x="2145.6477" y="151.2">H49</text><rect fill="rgb(150,150,150)" height="8.0" stroke="rgb(0,0,0)" width="19.25" x="2225.6477" y="126.0" /><text fill="black" x="2225.6477" y="154.0">H50</text><rect fill="rgb(255,150,150)" height="1.6" stroke="rgb(0,0,0)" width="6.25" x="2274.8977000000004" y="129.2" /><text fill="black" x="2274.8977000000004" y="150.8">E51</text><rect fill="rgb(255,150,150)" height="99.6" stroke="rgb(0,0,0)" width="43.73495" x="2311.1477000000004" y="80.2" /><text fill="black" x="2311.1477000000004" y="199.8">E52</text><rect fill="rgb(255,150,150)" height="0.4" stroke="rgb(0,0,0)" width="5.0" x="2384.88265" y="54.8" /><text fill="black" x="2384.88265" y="75.2">E53</text><rect fill="rgb(150,150,150)" height="3.2" stroke="rgb(0,0,0)" width="20.0" x="2384.88265" y="203.4" /><text fill="black" x="2384.88265" y="226.6">H54</text><rect fill="rgb(150,150,150)" height="3.2" stroke="rgb(0,0,0)" width="36.875" x="2434.88265" y="53.4" /><text fill="black" x="2434.88265" y="76.6">H55</text><rect fill="rgb(255,150,150)" height="1.2" stroke="rgb(0,0,0)" width="6.66665" x="2434.88265" y="204.4" /><text fill="black" x="2434.88265" y="225.6">E56</text><rect fill="rgb(150,150,150)" height="50.8" stroke="rgb(0,0,0)" width="63.7795" x="2501.75765" y="104.6" /><text fill="black" x="2501.75765" y="175.4">H57</text><rect fill="rgb(150,150,150)" height="34.8" stroke="rgb(0,0,0)" width="16.2069" x="2595.53715" y="112.6" /><text fill="black" x="2595.53715" y="167.4">H58</text><rect fill="rgb(255,150,150)" height="3.5999999999999996" stroke="rgb(0,0,0)" width="10.0" x="2641.7440500000002" y="128.2" /><text fill="black" x="2641.7440500000002" y="151.8">E59</text><rect fill="rgb(255,150,150)" height="46.800000000000004" stroke="rgb(0,0,0)" width="13.247850000000001" x="2681.7440500000002" y="106.6" /><text fill="black" x="2681.7440500000002" y="173.4">E60</text><rect fill="rgb(150,150,150)" height="27.200000000000003" stroke="rgb(0,0,0)" width="20.588250000000002" x="2724.9919000000004" y="116.4" /><text fill="black" x="2724.9919000000004" y="163.6">H61</text><rect fill="rgb(150,150,255)" height="7.199999999999999" stroke="rgb(0,0,0)" width="5.2778" x="2775.5801500000007" y="126.4" /><text fill="black" x="2775.5801500000007" y="153.6">E62</text><rect fill="rgb(150,150,150)" height="18.4" stroke="rgb(0,0,0)" width="32.1739" x="2810.8579500000005" y="120.8" /><text fill="black" x="2810.8579500000005" y="159.2">H63</text><rect fill="rgb(255,150,150)" height="2.0" stroke="rgb(0,0,0)" width="15.0" x="2873.031850000001" y="129.0" /><text fill="black" x="2873.031850000001" y="151.0">E64</text><path d="M 898.1795250000002,130.0 a 2697.2431784769965,2697.2431784769965 0 0,0 -834.6795250000002,-0.0" stroke="rgb(255,150,150)" stroke-width="2" /><path d="M 898.1795250000002,130.0 a 2697.2431784769965,2697.2431784769965 0 0,0 -834.6795250000002,-0.0" stroke="rgb(0,0,0)" stroke-width="0.2" /><path d="M 751.0077500000001,205.0 a 959.0153592916324,959.0153592916324 0 0,0 -411.43830000000014,-75.0" stroke="rgb(255,150,150)" stroke-width="2" /><path d="M 751.0077500000001,205.0 a 959.0153592916324,959.0153592916324 0 0,0 -411.43830000000014,-75.0" stroke="rgb(0,0,0)" stroke-width="0.2" /><path d="M 801.8853000000001,130.0 a 1105.929414862592,1105.929414862592 0 0,0 -462.3158500000002,-0.0" stroke="rgb(255,150,150)" stroke-width="2" /><path d="M 801.8853000000001,130.0 a 1105.929414862592,1105.929414862592 0 0,0 -462.3158500000002,-0.0" stroke="rgb(0,0,0)" stroke-width="0.2" /><path d="M 801.8853000000001,130.0 a 825.8400354819892,825.8400354819892 0 0,0 -375.75462500000015,-0.0" stroke="rgb(255,150,150)" stroke-width="2" /><path d="M 801.8853000000001,130.0 a 825.8400354819892,825.8400354819892 0 0,0 -375.75462500000015,-0.0" stroke="rgb(0,0,0)" stroke-width="0.2" /><path d="M 2333.0151750000005,130.0 a 10792.789118913257,10792.789118913257 0 0,0 -1906.8845000000006,-0.0" stroke="rgb(255,150,150)" stroke-width="2" /><path d="M 2333.0151750000005,130.0 a 10792.789118913257,10792.789118913257 0 0,0 -1906.8845000000006,-0.0" stroke="rgb(0,0,0)" stroke-width="0.2" /><path d="M 2438.215975,205.0 a 11883.011727516332,11883.011727516332 0 0,0 -2012.0853000000002,-75.0" stroke="rgb(255,150,150)" stroke-width="2" /><path d="M 2438.215975,205.0 a 11883.011727516332,11883.011727516332 0 0,0 -2012.0853000000002,-75.0" stroke="rgb(0,0,0)" stroke-width="0.2" /><path d="M 2646.7440500000002,130.0 a 14149.05386874666,14149.05386874666 0 0,0 -2220.6133750000004,-0.0" stroke="rgb(255,150,150)" stroke-width="2" /><path d="M 2646.7440500000002,130.0 a 14149.05386874666,14149.05386874666 0 0,0 -2220.6133750000004,-0.0" stroke="rgb(0,0,0)" stroke-width="0.2" /><path d="M 2688.367975,130.0 a 14627.950128954268,14627.950128954268 0 0,0 -2262.2373000000002,-0.0" stroke="rgb(255,150,150)" stroke-width="2" /><path d="M 2688.367975,130.0 a 14627.950128954268,14627.950128954268 0 0,0 -2262.2373000000002,-0.0" stroke="rgb(0,0,0)" stroke-width="0.2" /><path d="M 714.8172750000001,205.0 a 459.5611686997996,459.5611686997996 0 0,0 -230.13557500000013,-75.0" stroke="rgb(150,150,255)" stroke-width="2" /><path d="M 714.8172750000001,205.0 a 459.5611686997996,459.5611686997996 0 0,0 -230.13557500000013,-75.0" stroke="rgb(0,0,0)" stroke-width="0.2" /><path d="M 714.8172750000001,205.0 a 9716.708829711708,9716.708829711708 0 0,0 2063.4017750000003,-75.0" stroke="rgb(150,150,255)" stroke-width="2" /><path d="M 714.8172750000001,205.0 a 9716.708829711708,9716.708829711708 0 0,0 2063.4017750000003,-75.0" stroke="rgb(0,0,0)" stroke-width="0.2" /><path d="M 951.1370250000002,130.0 a 252.53466990029958,252.53466990029958 0 0,0 -149.25172500000008,-0.0" stroke="rgb(255,150,150)" stroke-width="2" /><path d="M 951.1370250000002,130.0 a 252.53466990029958,252.53466990029958 0 0,0 -149.25172500000008,-0.0" stroke="rgb(0,0,0)" stroke-width="0.2" /><path d="M 1007.4278500000003,130.0 a 373.5173698660094,373.5173698660094 0 0,0 -205.54255000000012,-0.0" stroke="rgb(255,150,150)" stroke-width="2" /><path d="M 1007.4278500000003,130.0 a 373.5173698660094,373.5173698660094 0 0,0 -205.54255000000012,-0.0" stroke="rgb(0,0,0)" stroke-width="0.2" /><path d="M 951.1370250000002,130.0 a 78.31964841841611,78.31964841841611 0 0,0 -52.95749999999998,-0.0" stroke="rgb(255,150,150)" stroke-width="2" /><path d="M 951.1370250000002,130.0 a 78.31964841841611,78.31964841841611 0 0,0 -52.95749999999998,-0.0" stroke="rgb(0,0,0)" stroke-width="0.2" /><path d="M 1155.7457000000002,130.0 a 371.39459308026045,371.39459308026045 0 0,0 -204.60867499999995,-0.0" stroke="rgb(255,150,150)" stroke-width="2" /><path d="M 1155.7457000000002,130.0 a 371.39459308026045,371.39459308026045 0 0,0 -204.60867499999995,-0.0" stroke="rgb(0,0,0)" stroke-width="0.2" /><path d="M 1098.1330000000003,130.0 a 141.70407902962427,141.70407902962427 0 0,0 -90.70515,-0.0" stroke="rgb(255,150,150)" stroke-width="2" /><path d="M 1098.1330000000003,130.0 a 141.70407902962427,141.70407902962427 0 0,0 -90.70515,-0.0" stroke="rgb(0,0,0)" stroke-width="0.2" /><path d="M 1214.2512500000003,130.0 a 87.24026813640658,87.24026813640658 0 0,0 -58.505550000000085,-0.0" stroke="rgb(255,150,150)" stroke-width="2" /><path d="M 1214.2512500000003,130.0 a 87.24026813640658,87.24026813640658 0 0,0 -58.505550000000085,-0.0" stroke="rgb(0,0,0)" stroke-width="0.2" /><path d="M 1155.7457000000002,130.0 a 1898.814521827272,1898.814521827272 0 0,0 907.4019999999998,-0.0" stroke="rgb(255,150,150)" stroke-width="2" /><path d="M 1155.7457000000002,130.0 a 1898.814521827272,1898.814521827272 0 0,0 907.4019999999998,-0.0" stroke="rgb(0,0,0)" stroke-width="0.2" /><path d="M 1155.7457000000002,130.0 a 6788.607416435968,6788.607416435968 0 0,0 1724.786150000001,-0.0" stroke="rgb(255,150,150)" stroke-width="2" /><path d="M 1155.7457000000002,130.0 a 6788.607416435968,6788.607416435968 0 0,0 1724.786150000001,-0.0" stroke="rgb(0,0,0)" stroke-width="0.2" /><path d="M 1359.691225,205.0 a 142.92243430379415,142.92243430379415 0 0,0 -52.23189999999977,-75.0" stroke="rgb(255,150,150)" stroke-width="2" /><path d="M 1359.691225,205.0 a 142.92243430379415,142.92243430379415 0 0,0 -52.23189999999977,-75.0" stroke="rgb(0,0,0)" stroke-width="0.2" /><path d="M 1418.2442750000005,130.0 a 177.99692906773802,177.99692906773802 0 0,0 -110.78495000000021,-0.0" stroke="rgb(255,150,150)" stroke-width="2" /><path d="M 1418.2442750000005,130.0 a 177.99692906773802,177.99692906773802 0 0,0 -110.78495000000021,-0.0" stroke="rgb(0,0,0)" stroke-width="0.2" /><path d="M 1526.7020750000004,130.0 a 173.69894653455205,173.69894653455205 0 0,0 -108.4577999999999,-0.0" stroke="rgb(255,150,150)" stroke-width="2" /><path d="M 1526.7020750000004,130.0 a 173.69894653455205,173.69894653455205 0 0,0 -108.4577999999999,-0.0" stroke="rgb(0,0,0)" stroke-width="0.2" /><path d="M 1654.1444750000003,130.0 a 209.46502272106346,209.46502272106346 0 0,0 -127.4423999999999,-0.0" stroke="rgb(255,150,150)" stroke-width="2" /><path d="M 1654.1444750000003,130.0 a 209.46502272106346,209.46502272106346 0 0,0 -127.4423999999999,-0.0" stroke="rgb(0,0,0)" stroke-width="0.2" /><path d="M 1758.7973,130.0 a 435.5092502722929,435.5092502722929 0 0,0 -232.09522499999957,-0.0" stroke="rgb(255,150,150)" stroke-width="2" /><path d="M 1758.7973,130.0 a 435.5092502722929,435.5092502722929 0 0,0 -232.09522499999957,-0.0" stroke="rgb(0,0,0)" stroke-width="0.2" /><path d="M 1693.01545,205.0 a 130.80677405996906,130.80677405996906 0 0,0 -38.87097499999982,-75.0" stroke="rgb(255,150,150)" stroke-width="2" /><path d="M 1693.01545,205.0 a 130.80677405996906,130.80677405996906 0 0,0 -38.87097499999982,-75.0" stroke="rgb(0,0,0)" stroke-width="0.2" /><path d="M 1905.99915,130.0 a 248.3961935164849,248.3961935164849 0 0,0 -147.20185000000015,-0.0" stroke="rgb(255,150,150)" stroke-width="2" /><path d="M 1905.99915,130.0 a 248.3961935164849,248.3961935164849 0 0,0 -147.20185000000015,-0.0" stroke="rgb(0,0,0)" stroke-width="0.2" /><path d="M 2278.0227000000004,130.0 a 814.5272340012291,814.5272340012291 0 0,0 -372.02355000000034,-0.0" stroke="rgb(255,150,150)" stroke-width="2" /><path d="M 2278.0227000000004,130.0 a 814.5272340012291,814.5272340012291 0 0,0 -372.02355000000034,-0.0" stroke="rgb(0,0,0)" stroke-width="0.2" /><path d="M 2333.0151750000005,130.0 a 987.6247358343587,987.6247358343587 0 0,0 -427.01602500000035,-0.0" stroke="rgb(255,150,150)" stroke-width="2" /><path d="M 2333.0151750000005,130.0 a 987.6247358343587,987.6247358343587 0 0,0 -427.01602500000035,-0.0" stroke="rgb(0,0,0)" stroke-width="0.2" /><path d="M 2438.215975,205.0 a 271.1901177636177,271.1901177636177 0 0,0 -50.83332500000006,-150.0" stroke="rgb(255,150,150)" stroke-width="2" /><path d="M 2438.215975,205.0 a 271.1901177636177,271.1901177636177 0 0,0 -50.83332500000006,-150.0" stroke="rgb(0,0,0)" stroke-width="0.2" /></svg>