<?xml version="1.0" encoding="utf-8" ?>
<svg baseProfile="full" height="100%" style="font-size:14;font-family:Sans, Arial;stroke-width:1;fill:none" version="1.1" width="100%" xmlns="http://www.w3.org/2000/svg" xmlns:ev="http://www.w3.org/2001/xml-events" xmlns:xlink="http://www.w3.org/1999/xlink"><defs /><rect fill="none" height="130.0" stroke="none" width="1128.68485" x="0" y="0" /><line stroke="rgb(0,0,0)" x1="5.0" x2="30.98265" y1="55.0" y2="55.0" /><line stroke="rgb(0,0,0)" x1="30.98265" x2="50.98264999999999" y1="55.0" y2="55.0" /><line stroke="rgb(0,0,0)" x1="50.98264999999999" x2="55.98264999999999" y1="55.0" y2="55.0" /><line stroke="rgb(0,0,0)" x1="55.98264999999999" x2="103.0847" y1="55.0" y2="55.0" /><line stroke="rgb(0,0,0)" x1="103.0847" x2="123.0847" y1="55.0" y2="55.0" /><line stroke="rgb(0,0,0)" x1="123.0847" x2="128.0847" y1="55.0" y2="55.0" /><line stroke="rgb(0,0,0)" x1="128.0847" x2="166.23284999999998" y1="55.0" y2="55.0" /><line stroke="rgb(0,0,0)" x1="166.23284999999998" x2="186.23284999999998" y1="55.0" y2="55.0" /><line stroke="rgb(0,0,0)" x1="186.23284999999998" x2="191.23284999999998" y1="55.0" y2="55.0" /><line stroke="rgb(0,0,0)" x1="191.23284999999998" x2="241.3155" y1="55.0" y2="55.0" /><line stroke="rgb(0,0,0)" x1="241.3155" x2="261.3155" y1="55.0" y2="55.0" /><line stroke="rgb(0,0,0)" x1="261.3155" x2="266.3155" y1="55.0" y2="55.0" /><line stroke="rgb(0,0,0)" x1="266.3155" x2="308.07059999999996" y1="55.0" y2="55.0" /><line stroke="rgb(0,0,0)" x1="308.07059999999996" x2="328.0705999999999" y1="55.0" y2="55.0" /><line stroke="rgb(0,0,0)" x1="328.0705999999999" x2="333.0705999999999" y1="55.0" y2="55.0" /><line stroke="rgb(0,0,0)" x1="333.0705999999999" x2="378.1522499999999" y1="55.0" y2="55.0" /><line stroke="rgb(0,0,0)" x1="378.1522499999999" x2="398.1522499999999" y1="55.0" y2="55.0" /><line stroke="rgb(0,0,0)" x1="398.1522499999999" x2="403.1522499999999" y1="55.0" y2="55.0" /><line stroke="rgb(0,0,0)" x1="403.1522499999999" x2="450.8776499999999" y1="55.0" y2="55.0" /><line stroke="rgb(0,0,0)" x1="450.8776499999999" x2="470.8776499999999" y1="55.0" y2="55.0" /><line stroke="rgb(0,0,0)" x1="470.8776499999999" x2="475.8776499999999" y1="55.0" y2="55.0" /><line stroke="rgb(0,0,0)" x1="475.8776499999999" x2="503.0080999999999" y1="55.0" y2="55.0" /><line stroke="rgb(0,0,0)" x1="503.0080999999999" x2="523.0080999999999" y1="55.0" y2="55.0" /><line stroke="rgb(0,0,0)" x1="523.0080999999999" x2="528.0080999999999" y1="55.0" y2="55.0" /><line stroke="rgb(0,0,0)" x1="528.0080999999999" x2="567.7808499999999" y1="55.0" y2="55.0" /><line stroke="rgb(0,0,0)" x1="567.7808499999999" x2="587.7808499999999" y1="55.0" y2="55.0" /><line stroke="rgb(0,0,0)" x1="587.7808499999999" x2="592.7808499999999" y1="55.0" y2="55.0" /><line stroke="rgb(0,0,0)" x1="592.7808499999999" x2="629.9236999999998" y1="55.0" y2="55.0" /><line stroke="rgb(0,0,0)" x1="629.9236999999998" x2="649.9236999999999" y1="55.0" y2="55.0" /><line stroke="rgb(0,0,0)" x1="649.9236999999999" x2="654.9236999999999" y1="55.0" y2="55.0" /><line stroke="rgb(0,0,0)" x1="654.9236999999999" x2="676.7237" y1="55.0" y2="55.0" /><line stroke="rgb(0,0,0)" x1="676.7237" x2="696.7237" y1="55.0" y2="55.0" /><line stroke="rgb(0,0,0)" x1="696.7237" x2="701.7237" y1="55.0" y2="55.0" /><line stroke="rgb(0,0,0)" x1="701.7237" x2="749.6874" y1="55.0" y2="55.0" /><line stroke="rgb(0,0,0)" x1="749.6874" x2="769.6874" y1="55.0" y2="55.0" /><line stroke="rgb(0,0,0)" x1="769.6874" x2="774.6874" y1="55.0" y2="55.0" /><line stroke="rgb(0,0,0)" x1="774.6874" x2="821.1274000000001" y1="55.0" y2="55.0" /><line stroke="rgb(0,0,0)" x1="821.1274000000001" x2="841.1274000000001" y1="55.0" y2="55.0" /><line stroke="rgb(0,0,0)" x1="841.1274000000001" x2="846.1274000000001" y1="55.0" y2="55.0" /><line stroke="rgb(0,0,0)" x1="846.1274000000001" x2="894.8623500000001" y1="55.0" y2="55.0" /><line stroke="rgb(0,0,0)" x1="894.8623500000001" x2="914.8623500000001" y1="55.0" y2="55.0" /><line stroke="rgb(0,0,0)" x1="914.8623500000001" x2="919.8623500000001" y1="55.0" y2="55.0" /><line stroke="rgb(0,0,0)" x1="919.8623500000001" x2="988.6418500000001" y1="55.0" y2="55.0" /><line stroke="rgb(0,0,0)" x1="988.6418500000001" x2="1008.6418500000001" y1="55.0" y2="55.0" /><line stroke="rgb(0,0,0)" x1="1008.6418500000001" x2="1013.6418500000001" y1="55.0" y2="55.0" /><line stroke="rgb(0,0,0)" x1="1013.6418500000001" x2="1034.84875" y1="55.0" y2="55.0" /><line stroke="rgb(0,0,0)" x1="1034.84875" x2="1054.84875" y1="55.0" y2="55.0" /><line stroke="rgb(0,0,0)" x1="1054.84875" x2="1059.84875" y1="55.0" y2="55.0" /><line stroke="rgb(0,0,0)" x1="1059.84875" x2="1078.0966" y1="55.0" y2="55.0" /><line stroke="rgb(0,0,0)" x1="1078.0966" x2="1098.0966" y1="55.0" y2="55.0" /><line stroke="rgb(0,0,0)" x1="1098.0966" x2="1103.0966" y1="55.0" y2="55.0" /><rect fill="rgb(150,150,150)" height="69.19999999999999" stroke="rgb(0,0,0)" width="20.98265" x="5.0" y="20.400000000000006" /><text fill="black" x="5.0" y="109.6">H6</text><rect fill="rgb(255,150,150)" height="98.0" stroke="rgb(0,0,0)" width="42.102050000000006" x="55.98264999999999" y="6.0" /><text fill="black" x="55.98264999999999" y="124.0">E9</text><rect fill="rgb(150,150,150)" height="64.8" stroke="rgb(0,0,0)" width="33.14815" x="128.0847" y="22.6" /><text fill="black" x="128.0847" y="107.4">H11</text><rect fill="rgb(150,150,150)" height="48.4" stroke="rgb(0,0,0)" width="45.08265" x="191.23284999999998" y="30.8" /><text fill="black" x="191.23284999999998" y="99.2">H12</text><rect fill="rgb(255,150,150)" height="98.0" stroke="rgb(0,0,0)" width="36.7551" x="266.3155" y="6.0" /><text fill="black" x="266.3155" y="124.0">E18</text><rect fill="rgb(255,150,150)" height="98.0" stroke="rgb(0,0,0)" width="40.081649999999996" x="333.0705999999999" y="6.0" /><text fill="black" x="333.0705999999999" y="124.0">E22</text><rect fill="rgb(255,150,150)" height="97.6" stroke="rgb(0,0,0)" width="42.7254" x="403.1522499999999" y="6.200000000000003" /><text fill="black" x="403.1522499999999" y="123.8">E26</text><rect fill="rgb(255,150,150)" height="46.0" stroke="rgb(0,0,0)" width="22.130450000000003" x="475.8776499999999" y="32.0" /><text fill="black" x="475.8776499999999" y="98.0">E29</text><rect fill="rgb(255,150,150)" height="61.6" stroke="rgb(0,0,0)" width="34.77275" x="528.0080999999999" y="24.2" /><text fill="black" x="528.0080999999999" y="105.8">E32</text><rect fill="rgb(255,150,150)" height="98.0" stroke="rgb(0,0,0)" width="32.142849999999996" x="592.7808499999999" y="6.0" /><text fill="black" x="592.7808499999999" y="124.0">E34</text><rect fill="rgb(150,150,150)" height="20.0" stroke="rgb(0,0,0)" width="16.8" x="654.9236999999999" y="45.0" /><text fill="black" x="654.9236999999999" y="85.0">H39</text><rect fill="rgb(255,150,150)" height="99.2" stroke="rgb(0,0,0)" width="42.963699999999996" x="701.7237" y="5.399999999999999" /><text fill="black" x="701.7237" y="124.6">E41</text><rect fill="rgb(255,150,150)" height="100.0" stroke="rgb(0,0,0)" width="41.44" x="774.6874" y="5.0" /><text fill="black" x="774.6874" y="125.0">E44</text><rect fill="rgb(255,150,150)" height="99.6" stroke="rgb(0,0,0)" width="43.73495" x="846.1274000000001" y="5.200000000000003" /><text fill="black" x="846.1274000000001" y="124.8">E52</text><rect fill="rgb(150,150,150)" height="50.8" stroke="rgb(0,0,0)" width="63.7795" x="919.8623500000001" y="29.6" /><text fill="black" x="919.8623500000001" y="100.4">H57</text><rect fill="rgb(150,150,150)" height="34.8" stroke="rgb(0,0,0)" width="16.2069" x="1013.6418500000001" y="37.6" /><text fill="black" x="1013.6418500000001" y="92.4">H58</text><rect fill="rgb(255,150,150)" height="46.800000000000004" stroke="rgb(0,0,0)" width="13.247850000000001" x="1059.84875" y="31.599999999999998" /><text fill="black" x="1059.84875" y="98.4">E60</text><rect fill="rgb(150,150,150)" height="27.200000000000003" stroke="rgb(0,0,0)" width="20.588250000000002" x="1103.0966" y="41.4" /><text fill="black" x="1103.0966" y="88.6">H61</text></svg>