<?xml version="1.0" encoding="utf-8" ?>
<svg baseProfile="full" height="100%" style="font-size:14;font-family:Sans, Arial;stroke-width:1;fill:none" version="1.1" width="100%" xmlns="http://www.w3.org/2000/svg" xmlns:ev="http://www.w3.org/2001/xml-events" xmlns:xlink="http://www.w3.org/1999/xlink"><defs /><rect fill="none" height="186.7824074074074" stroke="none" width="965.0" x="0" y="0" /><line stroke="rgb(0,0,0)" x1="15.0" x2="30.0" y1="49.282407407407405" y2="49.282407407407405" /><line stroke="rgb(0,0,0)" x1="30.0" x2="40.0" y1="49.282407407407405" y2="99.9074074074074" /><line stroke="rgb(0,0,0)" x1="40.0" x2="55.0" y1="99.9074074074074" y2="99.9074074074074" /><line stroke="rgb(0,0,0)" x1="15.0" x2="30.0" y1="139.2824074074074" y2="139.2824074074074" /><line stroke="rgb(0,0,0)" x1="30.0" x2="40.0" y1="139.2824074074074" y2="99.9074074074074" /><line stroke="rgb(0,0,0)" x1="40.0" x2="55.0" y1="99.9074074074074" y2="99.9074074074074" /><line stroke="rgb(0,0,0)" x1="55.0" x2="70.0" y1="99.9074074074074" y2="99.9074074074074" /><line stroke="rgb(0,0,0)" x1="70.0" x2="80.0" y1="99.9074074074074" y2="99.9074074074074" /><line stroke="rgb(0,0,0)" x1="80.0" x2="110.0" y1="99.9074074074074" y2="99.9074074074074" /><line stroke="rgb(0,0,0)" x1="110.0" x2="140.0" y1="99.9074074074074" y2="99.9074074074074" /><line stroke="rgb(0,0,0)" x1="140.0" x2="150.0" y1="99.9074074074074" y2="99.9074074074074" /><line stroke="rgb(0,0,0)" x1="150.0" x2="172.5" y1="99.9074074074074" y2="99.9074074074074" /><line stroke="rgb(0,0,0)" x1="172.5" x2="195.0" y1="99.9074074074074" y2="99.9074074074074" /><line stroke="rgb(0,0,0)" x1="195.0" x2="205.0" y1="99.9074074074074" y2="99.9074074074074" /><line stroke="rgb(0,0,0)" x1="205.0" x2="212.5" y1="99.9074074074074" y2="99.9074074074074" /><line stroke="rgb(0,0,0)" x1="212.5" x2="220.0" y1="99.9074074074074" y2="99.9074074074074" /><line stroke="rgb(0,0,0)" x1="220.0" x2="230.0" y1="99.9074074074074" y2="99.9074074074074" /><line stroke="rgb(0,0,0)" x1="230.0" x2="260.0" y1="99.9074074074074" y2="99.9074074074074" /><line stroke="rgb(0,0,0)" x1="260.0" x2="290.0" y1="99.9074074074074" y2="99.9074074074074" /><line stroke="rgb(0,0,0)" x1="290.0" x2="300.0" y1="99.9074074074074" y2="99.9074074074074" /><line stroke="rgb(0,0,0)" x1="300.0" x2="330.0" y1="99.9074074074074" y2="99.9074074074074" /><line stroke="rgb(0,0,0)" x1="330.0" x2="360.0" y1="99.9074074074074" y2="99.9074074074074" /><line stroke="rgb(0,0,0)" x1="360.0" x2="370.0" y1="99.9074074074074" y2="99.9074074074074" /><line stroke="rgb(0,0,0)" x1="370.0" x2="402.5" y1="99.9074074074074" y2="99.9074074074074" /><line stroke="rgb(0,0,0)" x1="402.5" x2="435.0" y1="99.9074074074074" y2="99.9074074074074" /><line stroke="rgb(0,0,0)" x1="435.0" x2="445.0" y1="99.9074074074074" y2="99.9074074074074" /><line stroke="rgb(0,0,0)" x1="445.0" x2="470.0" y1="99.9074074074074" y2="99.9074074074074" /><line stroke="rgb(0,0,0)" x1="470.0" x2="495.0" y1="99.9074074074074" y2="99.9074074074074" /><line stroke="rgb(0,0,0)" x1="495.0" x2="505.0" y1="99.9074074074074" y2="99.9074074074074" /><line stroke="rgb(0,0,0)" x1="505.0" x2="520.0" y1="99.9074074074074" y2="99.9074074074074" /><line stroke="rgb(0,0,0)" x1="520.0" x2="535.0" y1="99.9074074074074" y2="99.9074074074074" /><line stroke="rgb(0,0,0)" x1="535.0" x2="545.0" y1="99.9074074074074" y2="99.9074074074074" /><line stroke="rgb(0,0,0)" x1="545.0" x2="580.0" y1="99.9074074074074" y2="99.9074074074074" /><line stroke="rgb(0,0,0)" x1="580.0" x2="615.0" y1="99.9074074074074" y2="99.9074074074074" /><line stroke="rgb(0,0,0)" x1="615.0" x2="625.0" y1="99.9074074074074" y2="99.9074074074074" /><line stroke="rgb(0,0,0)" x1="625.0" x2="655.0" y1="99.9074074074074" y2="99.9074074074074" /><line stroke="rgb(0,0,0)" x1="655.0" x2="685.0" y1="99.9074074074074" y2="99.9074074074074" /><line stroke="rgb(0,0,0)" x1="685.0" x2="695.0" y1="99.9074074074074" y2="99.9074074074074" /><line stroke="rgb(0,0,0)" x1="695.0" x2="725.0" y1="99.9074074074074" y2="99.9074074074074" /><line stroke="rgb(0,0,0)" x1="725.0" x2="755.0" y1="99.9074074074074" y2="99.9074074074074" /><line stroke="rgb(0,0,0)" x1="755.0" x2="765.0" y1="99.9074074074074" y2="99.9074074074074" /><line stroke="rgb(0,0,0)" x1="765.0" x2="805.0" y1="99.9074074074074" y2="99.9074074074074" /><line stroke="rgb(0,0,0)" x1="805.0" x2="845.0" y1="99.9074074074074" y2="99.9074074074074" /><line stroke="rgb(0,0,0)" x1="845.0" x2="855.0" y1="99.9074074074074" y2="99.9074074074074" /><line stroke="rgb(0,0,0)" x1="855.0" x2="870.0" y1="99.9074074074074" y2="99.9074074074074" /><line stroke="rgb(0,0,0)" x1="870.0" x2="885.0" y1="99.9074074074074" y2="99.9074074074074" /><line stroke="rgb(0,0,0)" x1="885.0" x2="895.0" y1="99.9074074074074" y2="99.9074074074074" /><line stroke="rgb(0,0,0)" x1="895.0" x2="907.5" y1="99.9074074074074" y2="99.9074074074074" /><line stroke="rgb(0,0,0)" x1="907.5" x2="920.0" y1="99.9074074074074" y2="99.9074074074074" /><line stroke="rgb(0,0,0)" x1="920.0" x2="930.0" y1="99.9074074074074" y2="120.0" /><line stroke="rgb(0,0,0)" x1="930.0" x2="947.5" y1="120.0" y2="120.0" /><line stroke="rgb(0,0,0)" x1="907.5" x2="920.0" y1="99.9074074074074" y2="99.9074074074074" /><line stroke="rgb(0,0,0)" x1="920.0" x2="940.0" y1="99.9074074074074" y2="42.5" /><line stroke="rgb(0,0,0)" x1="940.0" x2="947.5" y1="42.5" y2="42.5" /><polygon fill="rgb(150,150,150)" points="25.0,49.282407407407405 25.0,31.782407407407405 15.0,31.782407407407405 15.0,31.782407407407405 5.0,31.782407407407405 5.0,49.282407407407405 5.0,49.282407407407405 5.0,66.7824074074074 15.0,66.7824074074074 15.0,66.7824074074074 25.0,66.7824074074074 25.0,49.282407407407405" stroke="rgb(0,0,0)" /><text fill="black" x="5.0" y="86.7824074074074">H0</text><polygon fill="rgb(255,150,150)" points="25.0,139.2824074074074 25.0,134.2824074074074 22.5,134.2824074074074 22.5,129.2824074074074 20.0,129.2824074074074 20.0,121.78240740740739 17.5,121.78240740740739 17.5,116.78240740740739 15.0,116.78240740740739 15.0,116.78240740740739 12.5,116.78240740740739 12.5,121.78240740740739 10.0,121.78240740740739 10.0,129.2824074074074 7.5,129.2824074074074 7.5,134.2824074074074 5.0,134.2824074074074 5.0,139.2824074074074 5.0,139.2824074074074 5.0,144.2824074074074 7.5,144.2824074074074 7.5,149.2824074074074 10.0,149.2824074074074 10.0,156.7824074074074 12.5,156.7824074074074 12.5,161.7824074074074 15.0,161.7824074074074 15.0,161.7824074074074 17.5,161.7824074074074 17.5,156.7824074074074 20.0,156.7824074074074 20.0,149.2824074074074 22.5,149.2824074074074 22.5,144.2824074074074 25.0,144.2824074074074 25.0,139.2824074074074" stroke="rgb(0,0,0)" /><text fill="black" x="5.0" y="181.7824074074074">E1</text><polygon fill="rgb(150,150,150)" points="65.0,99.9074074074074 65.0,54.907407407407405 55.0,54.907407407407405 55.0,54.907407407407405 45.0,54.907407407407405 45.0,99.9074074074074 45.0,99.9074074074074 45.0,144.9074074074074 55.0,144.9074074074074 55.0,144.9074074074074 65.0,144.9074074074074 65.0,99.9074074074074" stroke="rgb(0,0,0)" /><text fill="black" x="45.0" y="164.9074074074074">H4</text><polygon fill="rgb(255,150,150)" points="135.0,99.9074074074074 135.0,82.4074074074074 132.5,82.4074074074074 132.5,79.9074074074074 130.0,79.9074074074074 130.0,57.407407407407405 120.0,57.407407407407405 120.0,52.407407407407405 115.0,52.407407407407405 115.0,49.907407407407405 110.0,49.907407407407405 110.0,49.907407407407405 105.0,49.907407407407405 105.0,52.407407407407405 100.0,52.407407407407405 100.0,57.407407407407405 90.0,57.407407407407405 90.0,79.9074074074074 87.5,79.9074074074074 87.5,82.4074074074074 85.0,82.4074074074074 85.0,99.9074074074074 85.0,99.9074074074074 85.0,117.4074074074074 87.5,117.4074074074074 87.5,119.9074074074074 90.0,119.9074074074074 90.0,142.4074074074074 100.0,142.4074074074074 100.0,147.4074074074074 105.0,147.4074074074074 105.0,149.9074074074074 110.0,149.9074074074074 110.0,149.9074074074074 115.0,149.9074074074074 115.0,147.4074074074074 120.0,147.4074074074074 120.0,142.4074074074074 130.0,142.4074074074074 130.0,119.9074074074074 132.5,119.9074074074074 132.5,117.4074074074074 135.0,117.4074074074074 135.0,99.9074074074074" stroke="rgb(0,0,0)" /><text fill="black" x="85.0" y="169.9074074074074">E5</text><polygon fill="rgb(150,150,150)" points="190.0,99.9074074074074 190.0,97.4074074074074 182.5,97.4074074074074 182.5,92.4074074074074 180.0,92.4074074074074 180.0,84.9074074074074 172.5,84.9074074074074 172.5,84.9074074074074 165.0,84.9074074074074 165.0,92.4074074074074 162.5,92.4074074074074 162.5,97.4074074074074 155.0,97.4074074074074 155.0,99.9074074074074 155.0,99.9074074074074 155.0,102.4074074074074 162.5,102.4074074074074 162.5,107.4074074074074 165.0,107.4074074074074 165.0,114.9074074074074 172.5,114.9074074074074 172.5,114.9074074074074 180.0,114.9074074074074 180.0,107.4074074074074 182.5,107.4074074074074 182.5,102.4074074074074 190.0,102.4074074074074 190.0,99.9074074074074" stroke="rgb(0,0,0)" /><text fill="black" x="155.0" y="134.9074074074074">H6</text><polygon fill="rgb(150,150,255)" points="215.0,99.9074074074074 215.0,84.9074074074074 212.5,84.9074074074074 212.5,84.9074074074074 210.0,84.9074074074074 210.0,99.9074074074074 210.0,99.9074074074074 210.0,114.9074074074074 212.5,114.9074074074074 212.5,114.9074074074074 215.0,114.9074074074074 215.0,99.9074074074074" stroke="rgb(0,0,0)" /><text fill="black" x="210.0" y="134.9074074074074">E7</text><polygon fill="rgb(255,150,150)" points="285.0,99.9074074074074 285.0,97.4074074074074 282.5,97.4074074074074 282.5,69.9074074074074 280.0,69.9074074074074 280.0,67.4074074074074 277.5,67.4074074074074 277.5,64.9074074074074 275.0,64.9074074074074 275.0,52.407407407407405 270.0,52.407407407407405 270.0,49.907407407407405 260.0,49.907407407407405 260.0,49.907407407407405 250.0,49.907407407407405 250.0,52.407407407407405 245.0,52.407407407407405 245.0,64.9074074074074 242.5,64.9074074074074 242.5,67.4074074074074 240.0,67.4074074074074 240.0,69.9074074074074 237.5,69.9074074074074 237.5,97.4074074074074 235.0,97.4074074074074 235.0,99.9074074074074 235.0,99.9074074074074 235.0,102.4074074074074 237.5,102.4074074074074 237.5,129.9074074074074 240.0,129.9074074074074 240.0,132.4074074074074 242.5,132.4074074074074 242.5,134.9074074074074 245.0,134.9074074074074 245.0,147.4074074074074 250.0,147.4074074074074 250.0,149.9074074074074 260.0,149.9074074074074 260.0,149.9074074074074 270.0,149.9074074074074 270.0,147.4074074074074 275.0,147.4074074074074 275.0,134.9074074074074 277.5,134.9074074074074 277.5,132.4074074074074 280.0,132.4074074074074 280.0,129.9074074074074 282.5,129.9074074074074 282.5,102.4074074074074 285.0,102.4074074074074 285.0,99.9074074074074" stroke="rgb(0,0,0)" /><text fill="black" x="235.0" y="169.9074074074074">E8</text><polygon fill="rgb(255,150,150)" points="355.0,99.9074074074074 355.0,97.4074074074074 352.5,97.4074074074074 352.5,59.907407407407405 350.0,59.907407407407405 350.0,49.907407407407405 330.0,49.907407407407405 330.0,49.907407407407405 310.0,49.907407407407405 310.0,59.907407407407405 307.5,59.907407407407405 307.5,97.4074074074074 305.0,97.4074074074074 305.0,99.9074074074074 305.0,99.9074074074074 305.0,102.4074074074074 307.5,102.4074074074074 307.5,139.9074074074074 310.0,139.9074074074074 310.0,149.9074074074074 330.0,149.9074074074074 330.0,149.9074074074074 350.0,149.9074074074074 350.0,139.9074074074074 352.5,139.9074074074074 352.5,102.4074074074074 355.0,102.4074074074074 355.0,99.9074074074074" stroke="rgb(0,0,0)" /><text fill="black" x="305.0" y="169.9074074074074">E9</text><polygon fill="rgb(255,150,150)" points="430.0,99.9074074074074 430.0,64.9074074074074 427.5,64.9074074074074 427.5,62.407407407407405 425.0,62.407407407407405 425.0,54.907407407407405 415.0,54.907407407407405 415.0,52.407407407407405 412.5,52.407407407407405 412.5,49.907407407407405 402.5,49.907407407407405 402.5,49.907407407407405 392.5,49.907407407407405 392.5,52.407407407407405 390.0,52.407407407407405 390.0,54.907407407407405 380.0,54.907407407407405 380.0,62.407407407407405 377.5,62.407407407407405 377.5,64.9074074074074 375.0,64.9074074074074 375.0,99.9074074074074 375.0,99.9074074074074 375.0,134.9074074074074 377.5,134.9074074074074 377.5,137.4074074074074 380.0,137.4074074074074 380.0,144.9074074074074 390.0,144.9074074074074 390.0,147.4074074074074 392.5,147.4074074074074 392.5,149.9074074074074 402.5,149.9074074074074 402.5,149.9074074074074 412.5,149.9074074074074 412.5,147.4074074074074 415.0,147.4074074074074 415.0,144.9074074074074 425.0,144.9074074074074 425.0,137.4074074074074 427.5,137.4074074074074 427.5,134.9074074074074 430.0,134.9074074074074 430.0,99.9074074074074" stroke="rgb(0,0,0)" /><text fill="black" x="375.0" y="169.9074074074074">E10</text><polygon fill="rgb(255,150,150)" points="490.0,99.9074074074074 490.0,97.4074074074074 487.5,97.4074074074074 487.5,87.4074074074074 485.0,87.4074074074074 485.0,79.9074074074074 482.5,79.9074074074074 482.5,67.4074074074074 480.0,67.4074074074074 480.0,49.907407407407405 470.0,49.907407407407405 470.0,49.907407407407405 460.0,49.907407407407405 460.0,67.4074074074074 457.5,67.4074074074074 457.5,79.9074074074074 455.0,79.9074074074074 455.0,87.4074074074074 452.5,87.4074074074074 452.5,97.4074074074074 450.0,97.4074074074074 450.0,99.9074074074074 450.0,99.9074074074074 450.0,102.4074074074074 452.5,102.4074074074074 452.5,112.4074074074074 455.0,112.4074074074074 455.0,119.9074074074074 457.5,119.9074074074074 457.5,132.4074074074074 460.0,132.4074074074074 460.0,149.9074074074074 470.0,149.9074074074074 470.0,149.9074074074074 480.0,149.9074074074074 480.0,132.4074074074074 482.5,132.4074074074074 482.5,119.9074074074074 485.0,119.9074074074074 485.0,112.4074074074074 487.5,112.4074074074074 487.5,102.4074074074074 490.0,102.4074074074074 490.0,99.9074074074074" stroke="rgb(0,0,0)" /><text fill="black" x="450.0" y="169.9074074074074">E15</text><polygon fill="rgb(150,150,150)" points="530.0,99.9074074074074 530.0,89.9074074074074 520.0,89.9074074074074 520.0,89.9074074074074 510.0,89.9074074074074 510.0,99.9074074074074 510.0,99.9074074074074 510.0,109.9074074074074 520.0,109.9074074074074 520.0,109.9074074074074 530.0,109.9074074074074 530.0,99.9074074074074" stroke="rgb(0,0,0)" /><text fill="black" x="510.0" y="129.9074074074074">H16</text><polygon fill="rgb(255,150,150)" points="610.0,99.9074074074074 610.0,97.4074074074074 607.5,97.4074074074074 607.5,82.4074074074074 605.0,82.4074074074074 605.0,79.9074074074074 602.5,79.9074074074074 602.5,69.9074074074074 600.0,69.9074074074074 600.0,57.407407407407405 597.5,57.407407407407405 597.5,54.907407407407405 592.5,54.907407407407405 592.5,52.407407407407405 580.0,52.407407407407405 580.0,52.407407407407405 567.5,52.407407407407405 567.5,54.907407407407405 562.5,54.907407407407405 562.5,57.407407407407405 560.0,57.407407407407405 560.0,69.9074074074074 557.5,69.9074074074074 557.5,79.9074074074074 555.0,79.9074074074074 555.0,82.4074074074074 552.5,82.4074074074074 552.5,97.4074074074074 550.0,97.4074074074074 550.0,99.9074074074074 550.0,99.9074074074074 550.0,102.4074074074074 552.5,102.4074074074074 552.5,117.4074074074074 555.0,117.4074074074074 555.0,119.9074074074074 557.5,119.9074074074074 557.5,129.9074074074074 560.0,129.9074074074074 560.0,142.4074074074074 562.5,142.4074074074074 562.5,144.9074074074074 567.5,144.9074074074074 567.5,147.4074074074074 580.0,147.4074074074074 580.0,147.4074074074074 592.5,147.4074074074074 592.5,144.9074074074074 597.5,144.9074074074074 597.5,142.4074074074074 600.0,142.4074074074074 600.0,129.9074074074074 602.5,129.9074074074074 602.5,119.9074074074074 605.0,119.9074074074074 605.0,117.4074074074074 607.5,117.4074074074074 607.5,102.4074074074074 610.0,102.4074074074074 610.0,99.9074074074074" stroke="rgb(0,0,0)" /><text fill="black" x="550.0" y="167.4074074074074">E17</text><polygon fill="rgb(255,150,150)" points="680.0,99.9074074074074 680.0,77.4074074074074 677.5,77.4074074074074 677.5,69.9074074074074 675.0,69.9074074074074 675.0,67.4074074074074 667.5,67.4074074074074 667.5,54.907407407407405 662.5,54.907407407407405 662.5,52.407407407407405 655.0,52.407407407407405 655.0,52.407407407407405 647.5,52.407407407407405 647.5,54.907407407407405 642.5,54.907407407407405 642.5,67.4074074074074 635.0,67.4074074074074 635.0,69.9074074074074 632.5,69.9074074074074 632.5,77.4074074074074 630.0,77.4074074074074 630.0,99.9074074074074 630.0,99.9074074074074 630.0,122.4074074074074 632.5,122.4074074074074 632.5,129.9074074074074 635.0,129.9074074074074 635.0,132.4074074074074 642.5,132.4074074074074 642.5,144.9074074074074 647.5,144.9074074074074 647.5,147.4074074074074 655.0,147.4074074074074 655.0,147.4074074074074 662.5,147.4074074074074 662.5,144.9074074074074 667.5,144.9074074074074 667.5,132.4074074074074 675.0,132.4074074074074 675.0,129.9074074074074 677.5,129.9074074074074 677.5,122.4074074074074 680.0,122.4074074074074 680.0,99.9074074074074" stroke="rgb(0,0,0)" /><text fill="black" x="630.0" y="167.4074074074074">E21</text><polygon fill="rgb(255,150,150)" points="750.0,99.9074074074074 750.0,72.4074074074074 745.0,72.4074074074074 745.0,69.9074074074074 742.5,69.9074074074074 742.5,67.4074074074074 737.5,67.4074074074074 737.5,54.907407407407405 730.0,54.907407407407405 730.0,52.407407407407405 725.0,52.407407407407405 725.0,52.407407407407405 720.0,52.407407407407405 720.0,54.907407407407405 712.5,54.907407407407405 712.5,67.4074074074074 707.5,67.4074074074074 707.5,69.9074074074074 705.0,69.9074074074074 705.0,72.4074074074074 700.0,72.4074074074074 700.0,99.9074074074074 700.0,99.9074074074074 700.0,127.4074074074074 705.0,127.4074074074074 705.0,129.9074074074074 707.5,129.9074074074074 707.5,132.4074074074074 712.5,132.4074074074074 712.5,144.9074074074074 720.0,144.9074074074074 720.0,147.4074074074074 725.0,147.4074074074074 725.0,147.4074074074074 730.0,147.4074074074074 730.0,144.9074074074074 737.5,144.9074074074074 737.5,132.4074074074074 742.5,132.4074074074074 742.5,129.9074074074074 745.0,129.9074074074074 745.0,127.4074074074074 750.0,127.4074074074074 750.0,99.9074074074074" stroke="rgb(0,0,0)" /><text fill="black" x="700.0" y="167.4074074074074">E23</text><polygon fill="rgb(150,150,150)" points="840.0,99.9074074074074 840.0,62.407407407407405 837.5,62.407407407407405 837.5,54.907407407407405 835.0,54.907407407407405 835.0,52.407407407407405 805.0,52.407407407407405 805.0,52.407407407407405 775.0,52.407407407407405 775.0,54.907407407407405 772.5,54.907407407407405 772.5,62.407407407407405 770.0,62.407407407407405 770.0,99.9074074074074 770.0,99.9074074074074 770.0,137.4074074074074 772.5,137.4074074074074 772.5,144.9074074074074 775.0,144.9074074074074 775.0,147.4074074074074 805.0,147.4074074074074 805.0,147.4074074074074 835.0,147.4074074074074 835.0,144.9074074074074 837.5,144.9074074074074 837.5,137.4074074074074 840.0,137.4074074074074 840.0,99.9074074074074" stroke="rgb(0,0,0)" /><text fill="black" x="770.0" y="167.4074074074074">H24</text><polygon fill="rgb(150,150,150)" points="880.0,99.9074074074074 880.0,92.4074074074074 877.5,92.4074074074074 877.5,57.407407407407405 870.0,57.407407407407405 870.0,57.407407407407405 862.5,57.407407407407405 862.5,92.4074074074074 860.0,92.4074074074074 860.0,99.9074074074074 860.0,99.9074074074074 860.0,107.4074074074074 862.5,107.4074074074074 862.5,142.4074074074074 870.0,142.4074074074074 870.0,142.4074074074074 877.5,142.4074074074074 877.5,107.4074074074074 880.0,107.4074074074074 880.0,99.9074074074074" stroke="rgb(0,0,0)" /><text fill="black" x="860.0" y="162.4074074074074">H25</text><polygon fill="rgb(255,150,150)" points="915.0,99.9074074074074 915.0,97.4074074074074 912.5,97.4074074074074 912.5,59.907407407407405 910.0,59.907407407407405 910.0,57.407407407407405 907.5,57.407407407407405 907.5,57.407407407407405 905.0,57.407407407407405 905.0,59.907407407407405 902.5,59.907407407407405 902.5,97.4074074074074 900.0,97.4074074074074 900.0,99.9074074074074 900.0,99.9074074074074 900.0,102.4074074074074 902.5,102.4074074074074 902.5,139.9074074074074 905.0,139.9074074074074 905.0,142.4074074074074 907.5,142.4074074074074 907.5,142.4074074074074 910.0,142.4074074074074 910.0,139.9074074074074 912.5,139.9074074074074 912.5,102.4074074074074 915.0,102.4074074074074 915.0,99.9074074074074" stroke="rgb(0,0,0)" /><text fill="black" x="900.0" y="162.4074074074074">E26</text><polygon fill="rgb(150,150,150)" points="960.0,120.0 960.0,117.5 957.5,117.5 957.5,112.5 955.0,112.5 955.0,110.0 947.5,110.0 947.5,110.0 940.0,110.0 940.0,112.5 937.5,112.5 937.5,117.5 935.0,117.5 935.0,120.0 935.0,120.0 935.0,122.5 937.5,122.5 937.5,127.5 940.0,127.5 940.0,130.0 947.5,130.0 947.5,130.0 955.0,130.0 955.0,127.5 957.5,127.5 957.5,122.5 960.0,122.5 960.0,120.0" stroke="rgb(0,0,0)" /><text fill="black" x="935.0" y="150.0">H27</text><polygon fill="rgb(150,150,255)" points="950.0,42.5 950.0,25.0 947.5,25.0 947.5,25.0 945.0,25.0 945.0,42.5 945.0,42.5 945.0,60.0 947.5,60.0 947.5,60.0 950.0,60.0 950.0,42.5" stroke="rgb(0,0,0)" /><text fill="black" x="945.0" y="80.0">E28</text><path d="M 725.0,99.9074074074074 a 1482.7452601725647,1482.7452601725647 0 0,0 -710.0,39.374999999999986" stroke="rgb(255,150,150)" stroke-width="2" /><path d="M 725.0,99.9074074074074 a 1482.7452601725647,1482.7452601725647 0 0,0 -710.0,39.374999999999986" stroke="rgb(0,0,0)" stroke-width="0.2" /><path d="M 260.0,99.9074074074074 a 128.9580572488736,128.9580572488736 0 0,0 -150.0,-0.0" stroke="rgb(255,150,150)" stroke-width="2" /><path d="M 260.0,99.9074074074074 a 128.9580572488736,128.9580572488736 0 0,0 -150.0,-0.0" stroke="rgb(0,0,0)" stroke-width="0.2" /><path d="M 725.0,99.9074074074074 a 1150.2949482448244,1150.2949482448244 0 0,0 -615.0,-0.0" stroke="rgb(255,150,150)" stroke-width="2" /><path d="M 725.0,99.9074074074074 a 1150.2949482448244,1150.2949482448244 0 0,0 -615.0,-0.0" stroke="rgb(0,0,0)" stroke-width="0.2" /><path d="M 907.5,99.9074074074074 a 1817.4228451539627,1817.4228451539627 0 0,0 -797.5,-0.0" stroke="rgb(255,150,150)" stroke-width="2" /><path d="M 907.5,99.9074074074074 a 1817.4228451539627,1817.4228451539627 0 0,0 -797.5,-0.0" stroke="rgb(0,0,0)" stroke-width="0.2" /><path d="M 212.5,99.9074074074074 a 1262.7741146028181,1262.7741146028181 0 0,0 735.0,-57.407407407407405" stroke="rgb(150,150,255)" stroke-width="2" /><path d="M 212.5,99.9074074074074 a 1262.7741146028181,1262.7741146028181 0 0,0 735.0,-57.407407407407405" stroke="rgb(0,0,0)" stroke-width="0.2" /><path d="M 330.0,99.9074074074074 a 49.16030072589008,49.16030072589008 0 0,0 -70.0,-0.0" stroke="rgb(255,150,150)" stroke-width="2" /><path d="M 330.0,99.9074074074074 a 49.16030072589008,49.16030072589008 0 0,0 -70.0,-0.0" stroke="rgb(0,0,0)" stroke-width="0.2" /><path d="M 402.5,99.9074074074074 a 51.25657528676596,51.25657528676596 0 0,0 -72.5,-0.0" stroke="rgb(255,150,150)" stroke-width="2" /><path d="M 402.5,99.9074074074074 a 51.25657528676596,51.25657528676596 0 0,0 -72.5,-0.0" stroke="rgb(0,0,0)" stroke-width="0.2" /><path d="M 470.0,99.9074074074074 a 47.08878795149189,47.08878795149189 0 0,0 -67.5,-0.0" stroke="rgb(255,150,150)" stroke-width="2" /><path d="M 470.0,99.9074074074074 a 47.08878795149189,47.08878795149189 0 0,0 -67.5,-0.0" stroke="rgb(0,0,0)" stroke-width="0.2" /><path d="M 580.0,99.9074074074074 a 85.73349834983499,85.73349834983499 0 0,0 -110.0,-0.0" stroke="rgb(255,150,150)" stroke-width="2" /><path d="M 580.0,99.9074074074074 a 85.73349834983499,85.73349834983499 0 0,0 -110.0,-0.0" stroke="rgb(0,0,0)" stroke-width="0.2" /><path d="M 655.0,99.9074074074074 a 53.37771370420624,53.37771370420624 0 0,0 -75.0,-0.0" stroke="rgb(255,150,150)" stroke-width="2" /><path d="M 655.0,99.9074074074074 a 53.37771370420624,53.37771370420624 0 0,0 -75.0,-0.0" stroke="rgb(0,0,0)" stroke-width="0.2" /><path d="M 725.0,99.9074074074074 a 49.16030072589008,49.16030072589008 0 0,0 -70.0,-0.0" stroke="rgb(255,150,150)" stroke-width="2" /><path d="M 725.0,99.9074074074074 a 49.16030072589008,49.16030072589008 0 0,0 -70.0,-0.0" stroke="rgb(0,0,0)" stroke-width="0.2" /></svg>