<?xml version="1.0" encoding="utf-8" ?>
<svg baseProfile="full" height="100%" style="font-size:14;font-family:Sans, Arial;stroke-width:1;fill:none" version="1.1" width="100%" xmlns="http://www.w3.org/2000/svg" xmlns:ev="http://www.w3.org/2001/xml-events" xmlns:xlink="http://www.w3.org/1999/xlink"><defs /><rect fill="none" height="183.98184132232808" stroke="none" width="1169.95085" x="0" y="0" /><line stroke="rgb(0,0,0)" x1="11.111099999999965" x2="22.222199999999965" y1="136.48184132232808" y2="136.48184132232808" /><line stroke="rgb(0,0,0)" x1="22.222199999999965" x2="32.22219999999993" y1="136.48184132232808" y2="136.48184132232808" /><line stroke="rgb(0,0,0)" x1="32.22219999999993" x2="47.22219999999993" y1="136.48184132232808" y2="136.48184132232808" /><line stroke="rgb(0,0,0)" x1="47.22219999999993" x2="62.22219999999993" y1="136.48184132232808" y2="136.48184132232808" /><line stroke="rgb(0,0,0)" x1="62.22219999999993" x2="72.22219999999999" y1="136.48184132232808" y2="136.48184132232808" /><line stroke="rgb(0,0,0)" x1="72.22219999999999" x2="87.22219999999999" y1="136.48184132232808" y2="136.48184132232808" /><line stroke="rgb(0,0,0)" x1="87.22219999999999" x2="102.22219999999999" y1="136.48184132232808" y2="136.48184132232808" /><line stroke="rgb(0,0,0)" x1="102.22219999999999" x2="112.22219999999999" y1="136.48184132232808" y2="98.3" /><line stroke="rgb(0,0,0)" x1="112.22219999999999" x2="127.22219999999999" y1="98.3" y2="98.3" /><line stroke="rgb(0,0,0)" x1="51.111099999999965" x2="66.11109999999996" y1="46.481841322328066" y2="46.481841322328066" /><line stroke="rgb(0,0,0)" x1="66.11109999999996" x2="112.22219999999999" y1="46.481841322328066" y2="98.3" /><line stroke="rgb(0,0,0)" x1="112.22219999999999" x2="127.22219999999999" y1="98.3" y2="98.3" /><line stroke="rgb(0,0,0)" x1="127.22219999999999" x2="142.2222" y1="98.3" y2="98.3" /><line stroke="rgb(0,0,0)" x1="142.2222" x2="152.2222" y1="98.3" y2="98.3" /><line stroke="rgb(0,0,0)" x1="152.2222" x2="177.3472" y1="98.3" y2="98.3" /><line stroke="rgb(0,0,0)" x1="177.3472" x2="202.4722" y1="98.3" y2="98.3" /><line stroke="rgb(0,0,0)" x1="202.4722" x2="212.4722" y1="98.3" y2="98.3" /><line stroke="rgb(0,0,0)" x1="212.4722" x2="227.4722" y1="98.3" y2="98.3" /><line stroke="rgb(0,0,0)" x1="227.4722" x2="242.4722" y1="98.3" y2="98.3" /><line stroke="rgb(0,0,0)" x1="242.4722" x2="252.4722" y1="98.3" y2="98.3" /><line stroke="rgb(0,0,0)" x1="252.4722" x2="259.9722" y1="98.3" y2="98.3" /><line stroke="rgb(0,0,0)" x1="259.9722" x2="267.4722" y1="98.3" y2="98.3" /><line stroke="rgb(0,0,0)" x1="267.4722" x2="277.4722" y1="98.3" y2="98.3" /><line stroke="rgb(0,0,0)" x1="277.4722" x2="302.2222" y1="98.3" y2="98.3" /><line stroke="rgb(0,0,0)" x1="302.2222" x2="326.9722" y1="98.3" y2="98.3" /><line stroke="rgb(0,0,0)" x1="326.9722" x2="336.9722" y1="98.3" y2="98.3" /><line stroke="rgb(0,0,0)" x1="336.9722" x2="364.0972" y1="98.3" y2="98.3" /><line stroke="rgb(0,0,0)" x1="364.0972" x2="391.2222" y1="98.3" y2="98.3" /><line stroke="rgb(0,0,0)" x1="391.2222" x2="401.2222" y1="98.3" y2="98.3" /><line stroke="rgb(0,0,0)" x1="401.2222" x2="431.2222" y1="98.3" y2="98.3" /><line stroke="rgb(0,0,0)" x1="431.2222" x2="461.2222" y1="98.3" y2="98.3" /><line stroke="rgb(0,0,0)" x1="461.2222" x2="495.388875" y1="98.3" y2="52.14614319527446" /><line stroke="rgb(0,0,0)" x1="495.388875" x2="507.888875" y1="52.14614319527446" y2="52.14614319527446" /><line stroke="rgb(0,0,0)" x1="431.2222" x2="461.2222" y1="98.3" y2="98.3" /><line stroke="rgb(0,0,0)" x1="461.2222" x2="471.2222" y1="98.3" y2="112.14614319527446" /><line stroke="rgb(0,0,0)" x1="471.2222" x2="482.888875" y1="112.14614319527446" y2="112.14614319527446" /><line stroke="rgb(0,0,0)" x1="482.888875" x2="494.55555" y1="112.14614319527446" y2="112.14614319527446" /><line stroke="rgb(0,0,0)" x1="494.55555" x2="504.55555000000004" y1="112.14614319527446" y2="112.14614319527446" /><line stroke="rgb(0,0,0)" x1="504.55555000000004" x2="512.05555" y1="112.14614319527446" y2="112.14614319527446" /><line stroke="rgb(0,0,0)" x1="512.05555" x2="519.55555" y1="112.14614319527446" y2="112.14614319527446" /><line stroke="rgb(0,0,0)" x1="519.55555" x2="529.55555" y1="112.14614319527446" y2="112.14614319527446" /><line stroke="rgb(0,0,0)" x1="529.55555" x2="537.05555" y1="112.14614319527446" y2="112.14614319527446" /><line stroke="rgb(0,0,0)" x1="537.05555" x2="544.55555" y1="112.14614319527446" y2="112.14614319527446" /><line stroke="rgb(0,0,0)" x1="544.55555" x2="554.55555" y1="112.14614319527446" y2="98.3" /><line stroke="rgb(0,0,0)" x1="554.55555" x2="572.93055" y1="98.3" y2="98.3" /><line stroke="rgb(0,0,0)" x1="507.888875" x2="520.388875" y1="52.14614319527446" y2="52.14614319527446" /><line stroke="rgb(0,0,0)" x1="520.388875" x2="554.55555" y1="52.14614319527446" y2="98.3" /><line stroke="rgb(0,0,0)" x1="554.55555" x2="572.93055" y1="98.3" y2="98.3" /><line stroke="rgb(0,0,0)" x1="572.93055" x2="591.30555" y1="98.3" y2="98.3" /><line stroke="rgb(0,0,0)" x1="591.30555" x2="601.30555" y1="98.3" y2="98.3" /><line stroke="rgb(0,0,0)" x1="601.30555" x2="616.30555" y1="98.3" y2="98.3" /><line stroke="rgb(0,0,0)" x1="616.30555" x2="631.30555" y1="98.3" y2="98.3" /><line stroke="rgb(0,0,0)" x1="631.30555" x2="641.3055499999999" y1="98.3" y2="98.3" /><line stroke="rgb(0,0,0)" x1="641.3055499999999" x2="669.46345" y1="98.3" y2="98.3" /><line stroke="rgb(0,0,0)" x1="669.46345" x2="697.62135" y1="98.3" y2="98.3" /><line stroke="rgb(0,0,0)" x1="697.62135" x2="707.62135" y1="98.3" y2="98.3" /><line stroke="rgb(0,0,0)" x1="707.62135" x2="715.12135" y1="98.3" y2="98.3" /><line stroke="rgb(0,0,0)" x1="715.12135" x2="722.62135" y1="98.3" y2="98.3" /><line stroke="rgb(0,0,0)" x1="722.62135" x2="732.62135" y1="98.3" y2="98.3" /><line stroke="rgb(0,0,0)" x1="732.62135" x2="740.12135" y1="98.3" y2="98.3" /><line stroke="rgb(0,0,0)" x1="740.12135" x2="747.62135" y1="98.3" y2="98.3" /><line stroke="rgb(0,0,0)" x1="747.62135" x2="757.62135" y1="98.3" y2="98.3" /><line stroke="rgb(0,0,0)" x1="757.62135" x2="765.12135" y1="98.3" y2="98.3" /><line stroke="rgb(0,0,0)" x1="765.12135" x2="772.62135" y1="98.3" y2="98.3" /><line stroke="rgb(0,0,0)" x1="772.62135" x2="782.62135" y1="98.3" y2="98.3" /><line stroke="rgb(0,0,0)" x1="782.62135" x2="807.752925" y1="98.3" y2="98.3" /><line stroke="rgb(0,0,0)" x1="807.752925" x2="832.8845" y1="98.3" y2="98.3" /><line stroke="rgb(0,0,0)" x1="832.8845" x2="842.8845" y1="98.3" y2="98.3" /><line stroke="rgb(0,0,0)" x1="842.8845" x2="854.1345" y1="98.3" y2="98.3" /><line stroke="rgb(0,0,0)" x1="854.1345" x2="865.3845" y1="98.3" y2="98.3" /><line stroke="rgb(0,0,0)" x1="865.3845" x2="875.3845" y1="98.3" y2="98.3" /><line stroke="rgb(0,0,0)" x1="875.3845" x2="900.3845" y1="98.3" y2="98.3" /><line stroke="rgb(0,0,0)" x1="900.3845" x2="925.3845" y1="98.3" y2="98.3" /><line stroke="rgb(0,0,0)" x1="925.3845" x2="935.3845" y1="98.3" y2="98.3" /><line stroke="rgb(0,0,0)" x1="935.3845" x2="974.7265" y1="98.3" y2="98.3" /><line stroke="rgb(0,0,0)" x1="974.7265" x2="1014.0685" y1="98.3" y2="98.3" /><line stroke="rgb(0,0,0)" x1="1014.0685" x2="1024.0685" y1="98.3" y2="98.3" /><line stroke="rgb(0,0,0)" x1="1024.0685" x2="1037.009675" y1="98.3" y2="98.3" /><line stroke="rgb(0,0,0)" x1="1037.009675" x2="1049.95085" y1="98.3" y2="98.3" /><line stroke="rgb(0,0,0)" x1="1049.95085" x2="1059.95085" y1="98.3" y2="98.3" /><line stroke="rgb(0,0,0)" x1="1059.95085" x2="1069.95085" y1="98.3" y2="98.3" /><line stroke="rgb(0,0,0)" x1="1069.95085" x2="1079.95085" y1="98.3" y2="98.3" /><line stroke="rgb(0,0,0)" x1="1079.95085" x2="1089.95085" y1="98.3" y2="120.0" /><line stroke="rgb(0,0,0)" x1="1089.95085" x2="1104.95085" y1="120.0" y2="120.0" /><line stroke="rgb(0,0,0)" x1="1069.95085" x2="1079.95085" y1="98.3" y2="98.3" /><line stroke="rgb(0,0,0)" x1="1079.95085" x2="1122.45085" y1="98.3" y2="42.5" /><line stroke="rgb(0,0,0)" x1="1122.45085" x2="1129.95085" y1="42.5" y2="42.5" /><line stroke="rgb(0,0,0)" x1="1104.95085" x2="1119.95085" y1="120.0" y2="120.0" /><line stroke="rgb(0,0,0)" x1="1119.95085" x2="1129.95085" y1="120.0" y2="120.0" /><line stroke="rgb(0,0,0)" x1="1129.95085" x2="1137.45085" y1="120.0" y2="120.0" /><line stroke="rgb(0,0,0)" x1="1137.45085" x2="1144.95085" y1="120.0" y2="120.0" /><line stroke="rgb(0,0,0)" x1="1144.95085" x2="1154.95085" y1="120.0" y2="120.0" /><line stroke="rgb(0,0,0)" x1="1154.95085" x2="1162.45085" y1="120.0" y2="120.0" /><rect fill="rgb(6,4,255)" height="35.0" stroke="rgb(0,0,0)" width="20.0" x="41.111099999999965" y="28.981841322328066" /><text fill="black" x="41.111099999999965" y="83.98184132232807">H0</text><rect fill="rgb(255,0,0)" height="45.0" stroke="rgb(0,0,0)" width="12.2222" x="4.9999999999999645" y="113.98184132232808" /><text fill="black" x="4.9999999999999645" y="178.98184132232808">E1</text><rect fill="rgb(0,0,255)" height="10.0" stroke="rgb(0,0,0)" width="20.0" x="37.22219999999993" y="131.48184132232808" /><text fill="black" x="37.22219999999993" y="161.48184132232808">E2</text><rect fill="rgb(0,0,255)" height="10.0" stroke="rgb(0,0,0)" width="20.0" x="77.22219999999999" y="131.48184132232808" /><text fill="black" x="77.22219999999999" y="161.48184132232808">E3</text><rect fill="rgb(10,8,255)" height="90.0" stroke="rgb(0,0,0)" width="20.0" x="117.22219999999999" y="53.3" /><text fill="black" x="117.22219999999999" y="163.3">H4</text><rect fill="rgb(233,183,255)" height="100.0" stroke="rgb(0,0,0)" width="40.25" x="157.2222" y="48.3" /><text fill="black" x="157.2222" y="168.3">E5</text><rect fill="rgb(255,75,96)" height="30.0" stroke="rgb(0,0,0)" width="20.0" x="217.4722" y="83.3" /><text fill="black" x="217.4722" y="133.3">H6</text><rect fill="rgb(5,4,255)" height="30.0" stroke="rgb(0,0,0)" width="5.0" x="257.4722" y="83.3" /><text fill="black" x="257.4722" y="133.3">E7</text><rect fill="rgb(189,148,255)" height="100.0" stroke="rgb(0,0,0)" width="39.5" x="282.4722" y="48.3" /><text fill="black" x="282.4722" y="168.3">E8</text><rect fill="rgb(52,40,255)" height="100.0" stroke="rgb(0,0,0)" width="44.25" x="341.9722" y="48.3" /><text fill="black" x="341.9722" y="168.3">E9</text><rect fill="rgb(252,198,255)" height="100.0" stroke="rgb(0,0,0)" width="50.0" x="406.2222" y="48.3" /><text fill="black" x="406.2222" y="168.3">E10</text><rect fill="rgb(0,0,255)" height="5.0" stroke="rgb(0,0,0)" width="15.0" x="500.388875" y="49.64614319527446" /><text fill="black" x="500.388875" y="74.64614319527446">H11</text><rect fill="rgb(153,120,255)" height="15.0" stroke="rgb(0,0,0)" width="13.33335" x="476.2222" y="104.64614319527446" /><text fill="black" x="476.2222" y="139.64614319527448">E12</text><rect fill="rgb(0,0,255)" height="5.0" stroke="rgb(0,0,0)" width="5.0" x="509.55555000000004" y="109.64614319527446" /><text fill="black" x="509.55555000000004" y="134.64614319527448">E13</text><rect fill="rgb(0,0,255)" height="5.0" stroke="rgb(0,0,0)" width="5.0" x="534.55555" y="109.64614319527446" /><text fill="black" x="534.55555" y="134.64614319527448">E14</text><rect fill="rgb(194,152,255)" height="100.0" stroke="rgb(0,0,0)" width="26.75" x="559.55555" y="48.3" /><text fill="black" x="559.55555" y="168.3">E15</text><rect fill="rgb(46,36,255)" height="20.0" stroke="rgb(0,0,0)" width="20.0" x="606.30555" y="88.3" /><text fill="black" x="606.30555" y="128.3">H16</text><rect fill="rgb(255,5,7)" height="95.0" stroke="rgb(0,0,0)" width="46.315799999999996" x="646.3055499999999" y="50.8" /><text fill="black" x="646.3055499999999" y="165.8">E17</text><rect fill="rgb(0,0,255)" height="5.0" stroke="rgb(0,0,0)" width="5.0" x="712.62135" y="95.8" /><text fill="black" x="712.62135" y="120.8">E18</text><rect fill="rgb(0,0,255)" height="5.0" stroke="rgb(0,0,0)" width="5.0" x="737.62135" y="95.8" /><text fill="black" x="737.62135" y="120.8">E19</text><rect fill="rgb(0,0,255)" height="5.0" stroke="rgb(0,0,0)" width="5.0" x="762.62135" y="95.8" /><text fill="black" x="762.62135" y="120.8">E20</text><rect fill="rgb(255,2,3)" height="95.0" stroke="rgb(0,0,0)" width="40.26315" x="787.62135" y="50.8" /><text fill="black" x="787.62135" y="165.8">E21</text><rect fill="rgb(250,196,255)" height="10.0" stroke="rgb(0,0,0)" width="12.5" x="847.8845" y="93.3" /><text fill="black" x="847.8845" y="123.3">E22</text><rect fill="rgb(255,3,4)" height="95.0" stroke="rgb(0,0,0)" width="40.0" x="880.3845" y="50.8" /><text fill="black" x="880.3845" y="165.8">E23</text><rect fill="rgb(255,0,0)" height="95.0" stroke="rgb(0,0,0)" width="68.684" x="940.3845" y="50.8" /><text fill="black" x="940.3845" y="165.8">H24</text><rect fill="rgb(254,0,0)" height="85.0" stroke="rgb(0,0,0)" width="15.88235" x="1029.0685" y="55.8" /><text fill="black" x="1029.0685" y="160.8">H25</text><rect fill="rgb(72,56,255)" height="85.0" stroke="rgb(0,0,0)" width="10.0" x="1064.95085" y="55.8" /><text fill="black" x="1064.95085" y="160.8">E26</text><rect fill="rgb(255,163,208)" height="20.0" stroke="rgb(0,0,0)" width="20.0" x="1094.95085" y="110.0" /><text fill="black" x="1094.95085" y="150.0">H27</text><rect fill="rgb(8,6,255)" height="35.0" stroke="rgb(0,0,0)" width="5.0" x="1127.45085" y="25.0" /><text fill="black" x="1127.45085" y="80.0">E28</text><rect fill="rgb(0,0,255)" height="5.0" stroke="rgb(0,0,0)" width="5.0" x="1134.95085" y="117.5" /><text fill="black" x="1134.95085" y="142.5">E29</text><rect fill="rgb(0,0,255)" height="5.0" stroke="rgb(0,0,0)" width="5.0" x="1159.95085" y="117.5" /><text fill="black" x="1159.95085" y="142.5">E30</text><path d="M 854.1345,98.3 a 2088.820441513184,2088.820441513184 0 0,0 -843.0234,38.18184132232808" stroke="rgb(255,0,0)" stroke-width="2" /><path d="M 854.1345,98.3 a 2088.820441513184,2088.820441513184 0 0,0 -843.0234,38.18184132232808" stroke="rgb(0,0,0)" stroke-width="0.2" /><path d="M 900.3845,98.3 a 2295.725522628356,2295.725522628356 0 0,0 -889.2734,38.18184132232808" stroke="rgb(255,0,0)" stroke-width="2" /><path d="M 900.3845,98.3 a 2295.725522628356,2295.725522628356 0 0,0 -889.2734,38.18184132232808" stroke="rgb(0,0,0)" stroke-width="0.2" /><path d="M 87.22219999999999,136.48184132232808 a 28.922939845426182,28.922939845426182 0 0,0 -40.00000000000006,-0.0" stroke="rgb(0,0,255)" stroke-width="2" /><path d="M 87.22219999999999,136.48184132232808 a 28.922939845426182,28.922939845426182 0 0,0 -40.00000000000006,-0.0" stroke="rgb(0,0,0)" stroke-width="0.2" /><path d="M 302.2222,98.3 a 111.41760968339585,111.41760968339585 0 0,0 -124.875,-0.0" stroke="rgb(233,183,255)" stroke-width="2" /><path d="M 302.2222,98.3 a 111.41760968339585,111.41760968339585 0 0,0 -124.875,-0.0" stroke="rgb(0,0,0)" stroke-width="0.2" /><path d="M 900.3845,98.3 a 1593.4276055714006,1593.4276055714006 0 0,0 -723.0373,-0.0" stroke="rgb(233,183,255)" stroke-width="2" /><path d="M 900.3845,98.3 a 1593.4276055714006,1593.4276055714006 0 0,0 -723.0373,-0.0" stroke="rgb(0,0,0)" stroke-width="0.2" /><path d="M 1069.95085,98.3 a 2307.2468680815273,2307.2468680815273 0 0,0 -892.60365,-0.0" stroke="rgb(233,183,255)" stroke-width="2" /><path d="M 1069.95085,98.3 a 2307.2468680815273,2307.2468680815273 0 0,0 -892.60365,-0.0" stroke="rgb(0,0,0)" stroke-width="0.2" /><path d="M 259.9722,98.3 a 1754.719298763233,1754.719298763233 0 0,0 869.97865,-55.8" stroke="rgb(5,4,255)" stroke-width="2" /><path d="M 259.9722,98.3 a 1754.719298763233,1754.719298763233 0 0,0 869.97865,-55.8" stroke="rgb(0,0,0)" stroke-width="0.2" /><path d="M 364.0972,98.3 a 47.35718117458706,47.35718117458706 0 0,0 -61.875,-0.0" stroke="rgb(189,148,255)" stroke-width="2" /><path d="M 364.0972,98.3 a 47.35718117458706,47.35718117458706 0 0,0 -61.875,-0.0" stroke="rgb(0,0,0)" stroke-width="0.2" /><path d="M 431.2222,98.3 a 52.06750934804018,52.06750934804018 0 0,0 -67.125,-0.0" stroke="rgb(52,40,255)" stroke-width="2" /><path d="M 431.2222,98.3 a 52.06750934804018,52.06750934804018 0 0,0 -67.125,-0.0" stroke="rgb(0,0,0)" stroke-width="0.2" /><path d="M 572.93055,98.3 a 131.3717547505287,131.3717547505287 0 0,0 -141.70835000000005,-0.0" stroke="rgb(252,198,255)" stroke-width="2" /><path d="M 572.93055,98.3 a 131.3717547505287,131.3717547505287 0 0,0 -141.70835000000005,-0.0" stroke="rgb(0,0,0)" stroke-width="0.2" /><path d="M 572.93055,98.3 a 75.01481474335837,75.01481474335837 0 0,0 -90.04167500000005,13.846143195274465" stroke="rgb(153,120,255)" stroke-width="2" /><path d="M 572.93055,98.3 a 75.01481474335837,75.01481474335837 0 0,0 -90.04167500000005,13.846143195274465" stroke="rgb(0,0,0)" stroke-width="0.2" /><path d="M 537.05555,112.14614319527446 a 17.369891472186012,17.369891472186012 0 0,0 -25.0,-0.0" stroke="rgb(0,0,255)" stroke-width="2" /><path d="M 537.05555,112.14614319527446 a 17.369891472186012,17.369891472186012 0 0,0 -25.0,-0.0" stroke="rgb(0,0,0)" stroke-width="0.2" /><path d="M 669.46345,98.3 a 80.54611051024354,80.54611051024354 0 0,0 -96.53289999999993,-0.0" stroke="rgb(194,152,255)" stroke-width="2" /><path d="M 669.46345,98.3 a 80.54611051024354,80.54611051024354 0 0,0 -96.53289999999993,-0.0" stroke="rgb(0,0,0)" stroke-width="0.2" /><path d="M 807.752925,98.3 a 127.22068909891765,127.22068909891765 0 0,0 -138.28947500000004,-0.0" stroke="rgb(255,5,7)" stroke-width="2" /><path d="M 807.752925,98.3 a 127.22068909891765,127.22068909891765 0 0,0 -138.28947500000004,-0.0" stroke="rgb(0,0,0)" stroke-width="0.2" /><path d="M 765.12135,98.3 a 37.11332710782532,37.11332710782532 0 0,0 -50.0,-0.0" stroke="rgb(0,0,255)" stroke-width="2" /><path d="M 765.12135,98.3 a 37.11332710782532,37.11332710782532 0 0,0 -50.0,-0.0" stroke="rgb(0,0,0)" stroke-width="0.2" /><path d="M 900.3845,98.3 a 154.77932648643892,154.77932648643892 0 0,0 -160.26315,-0.0" stroke="rgb(0,0,255)" stroke-width="2" /><path d="M 900.3845,98.3 a 154.77932648643892,154.77932648643892 0 0,0 -160.26315,-0.0" stroke="rgb(0,0,0)" stroke-width="0.2" /><path d="M 900.3845,98.3 a 76.56160846506961,76.56160846506961 0 0,0 -92.631575,-0.0" stroke="rgb(255,2,3)" stroke-width="2" /><path d="M 900.3845,98.3 a 76.56160846506961,76.56160846506961 0 0,0 -92.631575,-0.0" stroke="rgb(0,0,0)" stroke-width="0.2" /><path d="M 1162.45085,120.0 a 17.369891472186012,17.369891472186012 0 0,0 -25.0,-0.0" stroke="rgb(0,0,255)" stroke-width="2" /><path d="M 1162.45085,120.0 a 17.369891472186012,17.369891472186012 0 0,0 -25.0,-0.0" stroke="rgb(0,0,0)" stroke-width="0.2" /></svg>