<?xml version="1.0" encoding="utf-8" ?>
<svg baseProfile="full" height="100%" style="font-size:14;font-family:Sans, Arial;stroke-width:1;fill:none" version="1.1" width="100%" xmlns="http://www.w3.org/2000/svg" xmlns:ev="http://www.w3.org/2001/xml-events" xmlns:xlink="http://www.w3.org/1999/xlink"><defs /><rect fill="none" height="180.0" stroke="none" width="856.8952999999999" x="0" y="0" /><line stroke="rgb(0,0,0)" x1="15.0" x2="30.0" y1="137.5" y2="137.5" /><line stroke="rgb(0,0,0)" x1="30.0" x2="40.0" y1="137.5" y2="97.90004032003226" /><line stroke="rgb(0,0,0)" x1="40.0" x2="55.0" y1="97.90004032003226" y2="97.90004032003226" /><line stroke="rgb(0,0,0)" x1="15.0" x2="26.1111" y1="47.5" y2="47.5" /><line stroke="rgb(0,0,0)" x1="26.1111" x2="40.0" y1="47.5" y2="97.90004032003226" /><line stroke="rgb(0,0,0)" x1="40.0" x2="55.0" y1="97.90004032003226" y2="97.90004032003226" /><line stroke="rgb(0,0,0)" x1="55.0" x2="70.0" y1="97.90004032003226" y2="97.90004032003226" /><line stroke="rgb(0,0,0)" x1="70.0" x2="80.0" y1="97.90004032003226" y2="97.90004032003226" /><line stroke="rgb(0,0,0)" x1="80.0" x2="105.125" y1="97.90004032003226" y2="97.90004032003226" /><line stroke="rgb(0,0,0)" x1="105.125" x2="130.25" y1="97.90004032003226" y2="97.90004032003226" /><line stroke="rgb(0,0,0)" x1="130.25" x2="140.25" y1="97.90004032003226" y2="97.90004032003226" /><line stroke="rgb(0,0,0)" x1="140.25" x2="155.25" y1="97.90004032003226" y2="97.90004032003226" /><line stroke="rgb(0,0,0)" x1="155.25" x2="170.25" y1="97.90004032003226" y2="97.90004032003226" /><line stroke="rgb(0,0,0)" x1="170.25" x2="180.25" y1="97.90004032003226" y2="97.90004032003226" /><line stroke="rgb(0,0,0)" x1="180.25" x2="187.75" y1="97.90004032003226" y2="97.90004032003226" /><line stroke="rgb(0,0,0)" x1="187.75" x2="195.25" y1="97.90004032003226" y2="97.90004032003226" /><line stroke="rgb(0,0,0)" x1="195.25" x2="205.25" y1="97.90004032003226" y2="97.90004032003226" /><line stroke="rgb(0,0,0)" x1="205.25" x2="230.0" y1="97.90004032003226" y2="97.90004032003226" /><line stroke="rgb(0,0,0)" x1="230.0" x2="254.75" y1="97.90004032003226" y2="97.90004032003226" /><line stroke="rgb(0,0,0)" x1="254.75" x2="264.75" y1="97.90004032003226" y2="97.90004032003226" /><line stroke="rgb(0,0,0)" x1="264.75" x2="291.875" y1="97.90004032003226" y2="97.90004032003226" /><line stroke="rgb(0,0,0)" x1="291.875" x2="319.0" y1="97.90004032003226" y2="97.90004032003226" /><line stroke="rgb(0,0,0)" x1="319.0" x2="329.0" y1="97.90004032003226" y2="97.90004032003226" /><line stroke="rgb(0,0,0)" x1="329.0" x2="359.0" y1="97.90004032003226" y2="97.90004032003226" /><line stroke="rgb(0,0,0)" x1="359.0" x2="389.0" y1="97.90004032003226" y2="97.90004032003226" /><line stroke="rgb(0,0,0)" x1="389.0" x2="399.0" y1="97.90004032003226" y2="97.90004032003226" /><line stroke="rgb(0,0,0)" x1="399.0" x2="417.375" y1="97.90004032003226" y2="97.90004032003226" /><line stroke="rgb(0,0,0)" x1="417.375" x2="435.75" y1="97.90004032003226" y2="97.90004032003226" /><line stroke="rgb(0,0,0)" x1="435.75" x2="445.75" y1="97.90004032003226" y2="97.90004032003226" /><line stroke="rgb(0,0,0)" x1="445.75" x2="460.75" y1="97.90004032003226" y2="97.90004032003226" /><line stroke="rgb(0,0,0)" x1="460.75" x2="475.75" y1="97.90004032003226" y2="97.90004032003226" /><line stroke="rgb(0,0,0)" x1="475.75" x2="485.75000000000006" y1="97.90004032003226" y2="97.90004032003226" /><line stroke="rgb(0,0,0)" x1="485.75000000000006" x2="513.9079" y1="97.90004032003226" y2="97.90004032003226" /><line stroke="rgb(0,0,0)" x1="513.9079" x2="542.0658000000001" y1="97.90004032003226" y2="97.90004032003226" /><line stroke="rgb(0,0,0)" x1="542.0658000000001" x2="552.0658" y1="97.90004032003226" y2="97.90004032003226" /><line stroke="rgb(0,0,0)" x1="552.0658" x2="577.197375" y1="97.90004032003226" y2="97.90004032003226" /><line stroke="rgb(0,0,0)" x1="577.197375" x2="602.32895" y1="97.90004032003226" y2="97.90004032003226" /><line stroke="rgb(0,0,0)" x1="602.32895" x2="612.32895" y1="97.90004032003226" y2="97.90004032003226" /><line stroke="rgb(0,0,0)" x1="612.32895" x2="637.32895" y1="97.90004032003226" y2="97.90004032003226" /><line stroke="rgb(0,0,0)" x1="637.32895" x2="662.32895" y1="97.90004032003226" y2="97.90004032003226" /><line stroke="rgb(0,0,0)" x1="662.32895" x2="672.32895" y1="97.90004032003226" y2="97.90004032003226" /><line stroke="rgb(0,0,0)" x1="672.32895" x2="711.67095" y1="97.90004032003226" y2="97.90004032003226" /><line stroke="rgb(0,0,0)" x1="711.67095" x2="751.0129499999999" y1="97.90004032003226" y2="97.90004032003226" /><line stroke="rgb(0,0,0)" x1="751.0129499999999" x2="761.0129499999999" y1="97.90004032003226" y2="97.90004032003226" /><line stroke="rgb(0,0,0)" x1="761.0129499999999" x2="773.954125" y1="97.90004032003226" y2="97.90004032003226" /><line stroke="rgb(0,0,0)" x1="773.954125" x2="786.8953" y1="97.90004032003226" y2="97.90004032003226" /><line stroke="rgb(0,0,0)" x1="786.8953" x2="796.8952999999999" y1="97.90004032003226" y2="97.90004032003226" /><line stroke="rgb(0,0,0)" x1="796.8952999999999" x2="806.8952999999999" y1="97.90004032003226" y2="97.90004032003226" /><line stroke="rgb(0,0,0)" x1="806.8952999999999" x2="816.8952999999999" y1="97.90004032003226" y2="97.90004032003226" /><line stroke="rgb(0,0,0)" x1="816.8952999999999" x2="826.8952999999999" y1="97.90004032003226" y2="121.48699684177139" /><line stroke="rgb(0,0,0)" x1="826.8952999999999" x2="841.8952999999999" y1="121.48699684177139" y2="121.48699684177139" /><line stroke="rgb(0,0,0)" x1="806.8952999999999" x2="816.8952999999999" y1="97.90004032003226" y2="97.90004032003226" /><line stroke="rgb(0,0,0)" x1="816.8952999999999" x2="834.3952999999999" y1="97.90004032003226" y2="43.986996841771386" /><line stroke="rgb(0,0,0)" x1="834.3952999999999" x2="841.8952999999999" y1="43.986996841771386" y2="43.986996841771386" /><rect fill="rgb(150,150,150)" height="35.0" stroke="rgb(0,0,0)" width="20.0" x="5.0" y="120.0" /><text fill="black" x="5.0" y="175.0">H0</text><rect fill="rgb(255,150,150)" height="45.0" stroke="rgb(0,0,0)" width="12.2222" x="8.8889" y="25.0" /><text fill="black" x="8.8889" y="90.0">E1</text><rect fill="rgb(150,150,150)" height="90.0" stroke="rgb(0,0,0)" width="20.0" x="45.0" y="52.90004032003226" /><text fill="black" x="45.0" y="162.90004032003225">H4</text><rect fill="rgb(255,150,150)" height="100.0" stroke="rgb(0,0,0)" width="40.25" x="85.0" y="47.90004032003226" /><text fill="black" x="85.0" y="167.90004032003225">E5</text><rect fill="rgb(150,150,150)" height="30.0" stroke="rgb(0,0,0)" width="20.0" x="145.25" y="82.90004032003226" /><text fill="black" x="145.25" y="132.90004032003225">H6</text><rect fill="rgb(150,150,255)" height="30.0" stroke="rgb(0,0,0)" width="5.0" x="185.25" y="82.90004032003226" /><text fill="black" x="185.25" y="132.90004032003225">E7</text><rect fill="rgb(255,150,150)" height="100.0" stroke="rgb(0,0,0)" width="39.5" x="210.25" y="47.90004032003226" /><text fill="black" x="210.25" y="167.90004032003225">E8</text><rect fill="rgb(255,150,150)" height="100.0" stroke="rgb(0,0,0)" width="44.25" x="269.75" y="47.90004032003226" /><text fill="black" x="269.75" y="167.90004032003225">E9</text><rect fill="rgb(255,150,150)" height="100.0" stroke="rgb(0,0,0)" width="50.0" x="334.0" y="47.90004032003226" /><text fill="black" x="334.0" y="167.90004032003225">E10</text><rect fill="rgb(255,150,150)" height="100.0" stroke="rgb(0,0,0)" width="26.75" x="404.0" y="47.90004032003226" /><text fill="black" x="404.0" y="167.90004032003225">E15</text><rect fill="rgb(150,150,150)" height="20.0" stroke="rgb(0,0,0)" width="20.0" x="450.75" y="87.90004032003226" /><text fill="black" x="450.75" y="127.90004032003226">H16</text><rect fill="rgb(255,150,150)" height="95.0" stroke="rgb(0,0,0)" width="46.315799999999996" x="490.75000000000006" y="50.40004032003226" /><text fill="black" x="490.75000000000006" y="165.40004032003225">E17</text><rect fill="rgb(255,150,150)" height="95.0" stroke="rgb(0,0,0)" width="40.26315" x="557.0658" y="50.40004032003226" /><text fill="black" x="557.0658" y="165.40004032003225">E21</text><rect fill="rgb(255,150,150)" height="95.0" stroke="rgb(0,0,0)" width="40.0" x="617.32895" y="50.40004032003226" /><text fill="black" x="617.32895" y="165.40004032003225">E23</text><rect fill="rgb(150,150,150)" height="95.0" stroke="rgb(0,0,0)" width="68.684" x="677.32895" y="50.40004032003226" /><text fill="black" x="677.32895" y="165.40004032003225">H24</text><rect fill="rgb(150,150,150)" height="85.0" stroke="rgb(0,0,0)" width="15.88235" x="766.0129499999999" y="55.40004032003226" /><text fill="black" x="766.0129499999999" y="160.40004032003225">H25</text><rect fill="rgb(255,150,150)" height="85.0" stroke="rgb(0,0,0)" width="10.0" x="801.8952999999999" y="55.40004032003226" /><text fill="black" x="801.8952999999999" y="160.40004032003225">E26</text><rect fill="rgb(150,150,150)" height="20.0" stroke="rgb(0,0,0)" width="20.0" x="831.8952999999999" y="111.48699684177139" /><text fill="black" x="831.8952999999999" y="151.48699684177137">H27</text><rect fill="rgb(150,150,255)" height="35.0" stroke="rgb(0,0,0)" width="5.0" x="839.3952999999999" y="26.486996841771386" /><text fill="black" x="839.3952999999999" y="81.48699684177139">E28</text></svg>