<?xml version="1.0" encoding="utf-8" ?>
<svg baseProfile="full" height="100%" style="font-size:14;font-family:Sans, Arial;stroke-width:1;fill:none" version="1.1" width="100%" xmlns="http://www.w3.org/2000/svg" xmlns:ev="http://www.w3.org/2001/xml-events" xmlns:xlink="http://www.w3.org/1999/xlink"><defs /><rect fill="none" height="180.29310344827587" stroke="none" width="1290.0" x="0" y="0" /><line stroke="rgb(0,0,0)" x1="15.0" x2="30.0" y1="132.79310344827587" y2="132.79310344827587" /><line stroke="rgb(0,0,0)" x1="30.0" x2="40.0" y1="132.79310344827587" y2="132.79310344827587" /><line stroke="rgb(0,0,0)" x1="40.0" x2="55.0" y1="132.79310344827587" y2="132.79310344827587" /><line stroke="rgb(0,0,0)" x1="55.0" x2="70.0" y1="132.79310344827587" y2="132.79310344827587" /><line stroke="rgb(0,0,0)" x1="70.0" x2="80.0" y1="132.79310344827587" y2="132.79310344827587" /><line stroke="rgb(0,0,0)" x1="80.0" x2="95.0" y1="132.79310344827587" y2="132.79310344827587" /><line stroke="rgb(0,0,0)" x1="95.0" x2="110.0" y1="132.79310344827587" y2="132.79310344827587" /><line stroke="rgb(0,0,0)" x1="110.0" x2="120.0" y1="132.79310344827587" y2="101.29310344827586" /><line stroke="rgb(0,0,0)" x1="120.0" x2="135.0" y1="101.29310344827586" y2="101.29310344827586" /><line stroke="rgb(0,0,0)" x1="55.0" x2="70.0" y1="42.79310344827586" y2="42.79310344827586" /><line stroke="rgb(0,0,0)" x1="70.0" x2="120.0" y1="42.79310344827586" y2="101.29310344827586" /><line stroke="rgb(0,0,0)" x1="120.0" x2="135.0" y1="101.29310344827586" y2="101.29310344827586" /><line stroke="rgb(0,0,0)" x1="135.0" x2="150.0" y1="101.29310344827586" y2="101.29310344827586" /><line stroke="rgb(0,0,0)" x1="150.0" x2="160.0" y1="101.29310344827586" y2="101.29310344827586" /><line stroke="rgb(0,0,0)" x1="160.0" x2="190.0" y1="101.29310344827586" y2="101.29310344827586" /><line stroke="rgb(0,0,0)" x1="190.0" x2="220.0" y1="101.29310344827586" y2="101.29310344827586" /><line stroke="rgb(0,0,0)" x1="220.0" x2="230.0" y1="101.29310344827586" y2="101.29310344827586" /><line stroke="rgb(0,0,0)" x1="230.0" x2="252.5" y1="101.29310344827586" y2="101.29310344827586" /><line stroke="rgb(0,0,0)" x1="252.5" x2="275.0" y1="101.29310344827586" y2="101.29310344827586" /><line stroke="rgb(0,0,0)" x1="275.0" x2="285.0" y1="101.29310344827586" y2="101.29310344827586" /><line stroke="rgb(0,0,0)" x1="285.0" x2="292.5" y1="101.29310344827586" y2="101.29310344827586" /><line stroke="rgb(0,0,0)" x1="292.5" x2="300.0" y1="101.29310344827586" y2="101.29310344827586" /><line stroke="rgb(0,0,0)" x1="300.0" x2="310.0" y1="101.29310344827586" y2="101.29310344827586" /><line stroke="rgb(0,0,0)" x1="310.0" x2="340.0" y1="101.29310344827586" y2="101.29310344827586" /><line stroke="rgb(0,0,0)" x1="340.0" x2="370.0" y1="101.29310344827586" y2="101.29310344827586" /><line stroke="rgb(0,0,0)" x1="370.0" x2="380.0" y1="101.29310344827586" y2="101.29310344827586" /><line stroke="rgb(0,0,0)" x1="380.0" x2="410.0" y1="101.29310344827586" y2="101.29310344827586" /><line stroke="rgb(0,0,0)" x1="410.0" x2="440.0" y1="101.29310344827586" y2="101.29310344827586" /><line stroke="rgb(0,0,0)" x1="440.0" x2="450.0" y1="101.29310344827586" y2="101.29310344827586" /><line stroke="rgb(0,0,0)" x1="450.0" x2="482.5" y1="101.29310344827586" y2="101.29310344827586" /><line stroke="rgb(0,0,0)" x1="482.5" x2="515.0" y1="101.29310344827586" y2="101.29310344827586" /><line stroke="rgb(0,0,0)" x1="515.0" x2="550.0" y1="101.29310344827586" y2="54.15024630541871" /><line stroke="rgb(0,0,0)" x1="550.0" x2="562.5" y1="54.15024630541871" y2="54.15024630541871" /><line stroke="rgb(0,0,0)" x1="482.5" x2="515.0" y1="101.29310344827586" y2="101.29310344827586" /><line stroke="rgb(0,0,0)" x1="515.0" x2="525.0" y1="101.29310344827586" y2="114.1502463054187" /><line stroke="rgb(0,0,0)" x1="525.0" x2="537.5" y1="114.1502463054187" y2="114.1502463054187" /><line stroke="rgb(0,0,0)" x1="537.5" x2="550.0" y1="114.1502463054187" y2="114.1502463054187" /><line stroke="rgb(0,0,0)" x1="550.0" x2="560.0" y1="114.1502463054187" y2="114.1502463054187" /><line stroke="rgb(0,0,0)" x1="560.0" x2="567.5" y1="114.1502463054187" y2="114.1502463054187" /><line stroke="rgb(0,0,0)" x1="567.5" x2="575.0" y1="114.1502463054187" y2="114.1502463054187" /><line stroke="rgb(0,0,0)" x1="575.0" x2="585.0" y1="114.1502463054187" y2="114.1502463054187" /><line stroke="rgb(0,0,0)" x1="585.0" x2="592.5" y1="114.1502463054187" y2="114.1502463054187" /><line stroke="rgb(0,0,0)" x1="592.5" x2="600.0" y1="114.1502463054187" y2="114.1502463054187" /><line stroke="rgb(0,0,0)" x1="600.0" x2="610.0" y1="114.1502463054187" y2="101.29310344827586" /><line stroke="rgb(0,0,0)" x1="610.0" x2="635.0" y1="101.29310344827586" y2="101.29310344827586" /><line stroke="rgb(0,0,0)" x1="562.5" x2="575.0" y1="54.15024630541871" y2="54.15024630541871" /><line stroke="rgb(0,0,0)" x1="575.0" x2="610.0" y1="54.15024630541871" y2="101.29310344827586" /><line stroke="rgb(0,0,0)" x1="610.0" x2="635.0" y1="101.29310344827586" y2="101.29310344827586" /><line stroke="rgb(0,0,0)" x1="635.0" x2="660.0" y1="101.29310344827586" y2="101.29310344827586" /><line stroke="rgb(0,0,0)" x1="660.0" x2="670.0" y1="101.29310344827586" y2="101.29310344827586" /><line stroke="rgb(0,0,0)" x1="670.0" x2="685.0" y1="101.29310344827586" y2="101.29310344827586" /><line stroke="rgb(0,0,0)" x1="685.0" x2="700.0" y1="101.29310344827586" y2="101.29310344827586" /><line stroke="rgb(0,0,0)" x1="700.0" x2="710.0" y1="101.29310344827586" y2="101.29310344827586" /><line stroke="rgb(0,0,0)" x1="710.0" x2="745.0" y1="101.29310344827586" y2="101.29310344827586" /><line stroke="rgb(0,0,0)" x1="745.0" x2="780.0" y1="101.29310344827586" y2="101.29310344827586" /><line stroke="rgb(0,0,0)" x1="780.0" x2="790.0" y1="101.29310344827586" y2="101.29310344827586" /><line stroke="rgb(0,0,0)" x1="790.0" x2="797.5" y1="101.29310344827586" y2="101.29310344827586" /><line stroke="rgb(0,0,0)" x1="797.5" x2="805.0" y1="101.29310344827586" y2="101.29310344827586" /><line stroke="rgb(0,0,0)" x1="805.0" x2="815.0" y1="101.29310344827586" y2="101.29310344827586" /><line stroke="rgb(0,0,0)" x1="815.0" x2="822.5" y1="101.29310344827586" y2="101.29310344827586" /><line stroke="rgb(0,0,0)" x1="822.5" x2="830.0" y1="101.29310344827586" y2="101.29310344827586" /><line stroke="rgb(0,0,0)" x1="830.0" x2="840.0" y1="101.29310344827586" y2="101.29310344827586" /><line stroke="rgb(0,0,0)" x1="840.0" x2="847.5" y1="101.29310344827586" y2="101.29310344827586" /><line stroke="rgb(0,0,0)" x1="847.5" x2="855.0" y1="101.29310344827586" y2="101.29310344827586" /><line stroke="rgb(0,0,0)" x1="855.0" x2="865.0" y1="101.29310344827586" y2="101.29310344827586" /><line stroke="rgb(0,0,0)" x1="865.0" x2="895.0" y1="101.29310344827586" y2="101.29310344827586" /><line stroke="rgb(0,0,0)" x1="895.0" x2="925.0" y1="101.29310344827586" y2="101.29310344827586" /><line stroke="rgb(0,0,0)" x1="925.0" x2="935.0" y1="101.29310344827586" y2="101.29310344827586" /><line stroke="rgb(0,0,0)" x1="935.0" x2="947.5" y1="101.29310344827586" y2="101.29310344827586" /><line stroke="rgb(0,0,0)" x1="947.5" x2="960.0" y1="101.29310344827586" y2="101.29310344827586" /><line stroke="rgb(0,0,0)" x1="960.0" x2="970.0" y1="101.29310344827586" y2="101.29310344827586" /><line stroke="rgb(0,0,0)" x1="970.0" x2="1000.0" y1="101.29310344827586" y2="101.29310344827586" /><line stroke="rgb(0,0,0)" x1="1000.0" x2="1030.0" y1="101.29310344827586" y2="101.29310344827586" /><line stroke="rgb(0,0,0)" x1="1030.0" x2="1040.0" y1="101.29310344827586" y2="101.29310344827586" /><line stroke="rgb(0,0,0)" x1="1040.0" x2="1080.0" y1="101.29310344827586" y2="101.29310344827586" /><line stroke="rgb(0,0,0)" x1="1080.0" x2="1120.0" y1="101.29310344827586" y2="101.29310344827586" /><line stroke="rgb(0,0,0)" x1="1120.0" x2="1130.0" y1="101.29310344827586" y2="101.29310344827586" /><line stroke="rgb(0,0,0)" x1="1130.0" x2="1145.0" y1="101.29310344827586" y2="101.29310344827586" /><line stroke="rgb(0,0,0)" x1="1145.0" x2="1160.0" y1="101.29310344827586" y2="101.29310344827586" /><line stroke="rgb(0,0,0)" x1="1160.0" x2="1170.0" y1="101.29310344827586" y2="101.29310344827586" /><line stroke="rgb(0,0,0)" x1="1170.0" x2="1182.5" y1="101.29310344827586" y2="101.29310344827586" /><line stroke="rgb(0,0,0)" x1="1182.5" x2="1195.0" y1="101.29310344827586" y2="101.29310344827586" /><line stroke="rgb(0,0,0)" x1="1195.0" x2="1205.0" y1="101.29310344827586" y2="120.0" /><line stroke="rgb(0,0,0)" x1="1205.0" x2="1222.5" y1="120.0" y2="120.0" /><line stroke="rgb(0,0,0)" x1="1182.5" x2="1195.0" y1="101.29310344827586" y2="101.29310344827586" /><line stroke="rgb(0,0,0)" x1="1195.0" x2="1240.0" y1="101.29310344827586" y2="42.5" /><line stroke="rgb(0,0,0)" x1="1240.0" x2="1247.5" y1="42.5" y2="42.5" /><line stroke="rgb(0,0,0)" x1="1222.5" x2="1240.0" y1="120.0" y2="120.0" /><line stroke="rgb(0,0,0)" x1="1240.0" x2="1250.0" y1="120.0" y2="120.0" /><line stroke="rgb(0,0,0)" x1="1250.0" x2="1257.5" y1="120.0" y2="120.0" /><line stroke="rgb(0,0,0)" x1="1257.5" x2="1265.0" y1="120.0" y2="120.0" /><line stroke="rgb(0,0,0)" x1="1265.0" x2="1275.0" y1="120.0" y2="120.0" /><line stroke="rgb(0,0,0)" x1="1275.0" x2="1282.5" y1="120.0" y2="120.0" /><polygon fill="rgb(150,150,150)" points="65.0,42.79310344827586 65.0,25.293103448275858 55.0,25.293103448275858 55.0,25.293103448275858 45.0,25.293103448275858 45.0,42.79310344827586 45.0,42.79310344827586 45.0,60.29310344827586 55.0,60.29310344827586 55.0,60.29310344827586 65.0,60.29310344827586 65.0,42.79310344827586" stroke="rgb(0,0,0)" /><text fill="black" x="45.0" y="80.29310344827586">H0</text><polygon fill="rgb(255,150,150)" points="25.0,132.79310344827587 25.0,127.79310344827587 22.5,127.79310344827587 22.5,122.79310344827587 20.0,122.79310344827587 20.0,115.29310344827587 17.5,115.29310344827587 17.5,110.29310344827587 15.0,110.29310344827587 15.0,110.29310344827587 12.5,110.29310344827587 12.5,115.29310344827587 10.0,115.29310344827587 10.0,122.79310344827587 7.5,122.79310344827587 7.5,127.79310344827587 5.0,127.79310344827587 5.0,132.79310344827587 5.0,132.79310344827587 5.0,137.79310344827587 7.5,137.79310344827587 7.5,142.79310344827587 10.0,142.79310344827587 10.0,150.29310344827587 12.5,150.29310344827587 12.5,155.29310344827587 15.0,155.29310344827587 15.0,155.29310344827587 17.5,155.29310344827587 17.5,150.29310344827587 20.0,150.29310344827587 20.0,142.79310344827587 22.5,142.79310344827587 22.5,137.79310344827587 25.0,137.79310344827587 25.0,132.79310344827587" stroke="rgb(0,0,0)" /><text fill="black" x="5.0" y="175.29310344827587">E1</text><polygon fill="rgb(150,150,255)" points="65.0,132.79310344827587 65.0,127.79310344827587 55.0,127.79310344827587 55.0,127.79310344827587 45.0,127.79310344827587 45.0,132.79310344827587 45.0,132.79310344827587 45.0,137.79310344827587 55.0,137.79310344827587 55.0,137.79310344827587 65.0,137.79310344827587 65.0,132.79310344827587" stroke="rgb(0,0,0)" /><text fill="black" x="45.0" y="157.79310344827587">E2</text><polygon fill="rgb(150,150,255)" points="105.0,132.79310344827587 105.0,127.79310344827587 95.0,127.79310344827587 95.0,127.79310344827587 85.0,127.79310344827587 85.0,132.79310344827587 85.0,132.79310344827587 85.0,137.79310344827587 95.0,137.79310344827587 95.0,137.79310344827587 105.0,137.79310344827587 105.0,132.79310344827587" stroke="rgb(0,0,0)" /><text fill="black" x="85.0" y="157.79310344827587">E3</text><polygon fill="rgb(150,150,150)" points="145.0,101.29310344827586 145.0,56.29310344827586 135.0,56.29310344827586 135.0,56.29310344827586 125.0,56.29310344827586 125.0,101.29310344827586 125.0,101.29310344827586 125.0,146.29310344827587 135.0,146.29310344827587 135.0,146.29310344827587 145.0,146.29310344827587 145.0,101.29310344827586" stroke="rgb(0,0,0)" /><text fill="black" x="125.0" y="166.29310344827587">H4</text><polygon fill="rgb(255,150,150)" points="215.0,101.29310344827586 215.0,83.79310344827586 212.5,83.79310344827586 212.5,81.29310344827586 210.0,81.29310344827586 210.0,58.79310344827586 200.0,58.79310344827586 200.0,53.79310344827586 195.0,53.79310344827586 195.0,51.29310344827586 190.0,51.29310344827586 190.0,51.29310344827586 185.0,51.29310344827586 185.0,53.79310344827586 180.0,53.79310344827586 180.0,58.79310344827586 170.0,58.79310344827586 170.0,81.29310344827586 167.5,81.29310344827586 167.5,83.79310344827586 165.0,83.79310344827586 165.0,101.29310344827586 165.0,101.29310344827586 165.0,118.79310344827586 167.5,118.79310344827586 167.5,121.29310344827586 170.0,121.29310344827586 170.0,143.79310344827587 180.0,143.79310344827587 180.0,148.79310344827587 185.0,148.79310344827587 185.0,151.29310344827587 190.0,151.29310344827587 190.0,151.29310344827587 195.0,151.29310344827587 195.0,148.79310344827587 200.0,148.79310344827587 200.0,143.79310344827587 210.0,143.79310344827587 210.0,121.29310344827586 212.5,121.29310344827586 212.5,118.79310344827586 215.0,118.79310344827586 215.0,101.29310344827586" stroke="rgb(0,0,0)" /><text fill="black" x="165.0" y="171.29310344827587">E5</text><polygon fill="rgb(150,150,150)" points="270.0,101.29310344827586 270.0,98.79310344827586 262.5,98.79310344827586 262.5,93.79310344827586 260.0,93.79310344827586 260.0,86.29310344827586 252.5,86.29310344827586 252.5,86.29310344827586 245.0,86.29310344827586 245.0,93.79310344827586 242.5,93.79310344827586 242.5,98.79310344827586 235.0,98.79310344827586 235.0,101.29310344827586 235.0,101.29310344827586 235.0,103.79310344827586 242.5,103.79310344827586 242.5,108.79310344827586 245.0,108.79310344827586 245.0,116.29310344827586 252.5,116.29310344827586 252.5,116.29310344827586 260.0,116.29310344827586 260.0,108.79310344827586 262.5,108.79310344827586 262.5,103.79310344827586 270.0,103.79310344827586 270.0,101.29310344827586" stroke="rgb(0,0,0)" /><text fill="black" x="235.0" y="136.29310344827587">H6</text><polygon fill="rgb(150,255,150)" points="295.0,101.29310344827586 295.0,86.29310344827586 292.5,86.29310344827586 292.5,86.29310344827586 290.0,86.29310344827586 290.0,101.29310344827586 290.0,101.29310344827586 290.0,116.29310344827586 292.5,116.29310344827586 292.5,116.29310344827586 295.0,116.29310344827586 295.0,101.29310344827586" stroke="rgb(0,0,0)" /><text fill="black" x="290.0" y="136.29310344827587">E7</text><polygon fill="rgb(255,150,150)" points="365.0,101.29310344827586 365.0,98.79310344827586 362.5,98.79310344827586 362.5,71.29310344827586 360.0,71.29310344827586 360.0,68.79310344827586 357.5,68.79310344827586 357.5,66.29310344827586 355.0,66.29310344827586 355.0,53.79310344827586 350.0,53.79310344827586 350.0,51.29310344827586 340.0,51.29310344827586 340.0,51.29310344827586 330.0,51.29310344827586 330.0,53.79310344827586 325.0,53.79310344827586 325.0,66.29310344827586 322.5,66.29310344827586 322.5,68.79310344827586 320.0,68.79310344827586 320.0,71.29310344827586 317.5,71.29310344827586 317.5,98.79310344827586 315.0,98.79310344827586 315.0,101.29310344827586 315.0,101.29310344827586 315.0,103.79310344827586 317.5,103.79310344827586 317.5,131.29310344827587 320.0,131.29310344827587 320.0,133.79310344827587 322.5,133.79310344827587 322.5,136.29310344827587 325.0,136.29310344827587 325.0,148.79310344827587 330.0,148.79310344827587 330.0,151.29310344827587 340.0,151.29310344827587 340.0,151.29310344827587 350.0,151.29310344827587 350.0,148.79310344827587 355.0,148.79310344827587 355.0,136.29310344827587 357.5,136.29310344827587 357.5,133.79310344827587 360.0,133.79310344827587 360.0,131.29310344827587 362.5,131.29310344827587 362.5,103.79310344827586 365.0,103.79310344827586 365.0,101.29310344827586" stroke="rgb(0,0,0)" /><text fill="black" x="315.0" y="171.29310344827587">E8</text><polygon fill="rgb(255,150,150)" points="435.0,101.29310344827586 435.0,98.79310344827586 432.5,98.79310344827586 432.5,61.29310344827586 430.0,61.29310344827586 430.0,51.29310344827586 410.0,51.29310344827586 410.0,51.29310344827586 390.0,51.29310344827586 390.0,61.29310344827586 387.5,61.29310344827586 387.5,98.79310344827586 385.0,98.79310344827586 385.0,101.29310344827586 385.0,101.29310344827586 385.0,103.79310344827586 387.5,103.79310344827586 387.5,141.29310344827587 390.0,141.29310344827587 390.0,151.29310344827587 410.0,151.29310344827587 410.0,151.29310344827587 430.0,151.29310344827587 430.0,141.29310344827587 432.5,141.29310344827587 432.5,103.79310344827586 435.0,103.79310344827586 435.0,101.29310344827586" stroke="rgb(0,0,0)" /><text fill="black" x="385.0" y="171.29310344827587">E9</text><polygon fill="rgb(255,150,150)" points="510.0,101.29310344827586 510.0,66.29310344827586 507.5,66.29310344827586 507.5,63.79310344827586 505.0,63.79310344827586 505.0,56.29310344827586 495.0,56.29310344827586 495.0,53.79310344827586 492.5,53.79310344827586 492.5,51.29310344827586 482.5,51.29310344827586 482.5,51.29310344827586 472.5,51.29310344827586 472.5,53.79310344827586 470.0,53.79310344827586 470.0,56.29310344827586 460.0,56.29310344827586 460.0,63.79310344827586 457.5,63.79310344827586 457.5,66.29310344827586 455.0,66.29310344827586 455.0,101.29310344827586 455.0,101.29310344827586 455.0,136.29310344827587 457.5,136.29310344827587 457.5,138.79310344827587 460.0,138.79310344827587 460.0,146.29310344827587 470.0,146.29310344827587 470.0,148.79310344827587 472.5,148.79310344827587 472.5,151.29310344827587 482.5,151.29310344827587 482.5,151.29310344827587 492.5,151.29310344827587 492.5,148.79310344827587 495.0,148.79310344827587 495.0,146.29310344827587 505.0,146.29310344827587 505.0,138.79310344827587 507.5,138.79310344827587 507.5,136.29310344827587 510.0,136.29310344827587 510.0,101.29310344827586" stroke="rgb(0,0,0)" /><text fill="black" x="455.0" y="171.29310344827587">E10</text><polygon fill="rgb(150,150,150)" points="570.0,54.15024630541871 570.0,51.65024630541871 562.5,51.65024630541871 562.5,51.65024630541871 555.0,51.65024630541871 555.0,54.15024630541871 555.0,54.15024630541871 555.0,56.65024630541871 562.5,56.65024630541871 562.5,56.65024630541871 570.0,56.65024630541871 570.0,54.15024630541871" stroke="rgb(0,0,0)" /><text fill="black" x="555.0" y="76.6502463054187">H11</text><polygon fill="rgb(255,150,150)" points="545.0,114.1502463054187 545.0,109.1502463054187 542.5,109.1502463054187 542.5,106.6502463054187 537.5,106.6502463054187 537.5,106.6502463054187 532.5,106.6502463054187 532.5,109.1502463054187 530.0,109.1502463054187 530.0,114.1502463054187 530.0,114.1502463054187 530.0,119.1502463054187 532.5,119.1502463054187 532.5,121.6502463054187 537.5,121.6502463054187 537.5,121.6502463054187 542.5,121.6502463054187 542.5,119.1502463054187 545.0,119.1502463054187 545.0,114.1502463054187" stroke="rgb(0,0,0)" /><text fill="black" x="530.0" y="141.6502463054187">E12</text><polygon fill="rgb(255,150,255)" points="570.0,114.1502463054187 570.0,111.6502463054187 567.5,111.6502463054187 567.5,111.6502463054187 565.0,111.6502463054187 565.0,114.1502463054187 565.0,114.1502463054187 565.0,116.6502463054187 567.5,116.6502463054187 567.5,116.6502463054187 570.0,116.6502463054187 570.0,114.1502463054187" stroke="rgb(0,0,0)" /><text fill="black" x="565.0" y="136.6502463054187">E13</text><polygon fill="rgb(255,150,255)" points="595.0,114.1502463054187 595.0,111.6502463054187 592.5,111.6502463054187 592.5,111.6502463054187 590.0,111.6502463054187 590.0,114.1502463054187 590.0,114.1502463054187 590.0,116.6502463054187 592.5,116.6502463054187 592.5,116.6502463054187 595.0,116.6502463054187 595.0,114.1502463054187" stroke="rgb(0,0,0)" /><text fill="black" x="590.0" y="136.6502463054187">E14</text><polygon fill="rgb(255,150,150)" points="655.0,101.29310344827586 655.0,98.79310344827586 652.5,98.79310344827586 652.5,88.79310344827586 650.0,88.79310344827586 650.0,81.29310344827586 647.5,81.29310344827586 647.5,68.79310344827586 645.0,68.79310344827586 645.0,51.29310344827586 635.0,51.29310344827586 635.0,51.29310344827586 625.0,51.29310344827586 625.0,68.79310344827586 622.5,68.79310344827586 622.5,81.29310344827586 620.0,81.29310344827586 620.0,88.79310344827586 617.5,88.79310344827586 617.5,98.79310344827586 615.0,98.79310344827586 615.0,101.29310344827586 615.0,101.29310344827586 615.0,103.79310344827586 617.5,103.79310344827586 617.5,113.79310344827586 620.0,113.79310344827586 620.0,121.29310344827586 622.5,121.29310344827586 622.5,133.79310344827587 625.0,133.79310344827587 625.0,151.29310344827587 635.0,151.29310344827587 635.0,151.29310344827587 645.0,151.29310344827587 645.0,133.79310344827587 647.5,133.79310344827587 647.5,121.29310344827586 650.0,121.29310344827586 650.0,113.79310344827586 652.5,113.79310344827586 652.5,103.79310344827586 655.0,103.79310344827586 655.0,101.29310344827586" stroke="rgb(0,0,0)" /><text fill="black" x="615.0" y="171.29310344827587">E15</text><polygon fill="rgb(150,150,150)" points="695.0,101.29310344827586 695.0,91.29310344827586 685.0,91.29310344827586 685.0,91.29310344827586 675.0,91.29310344827586 675.0,101.29310344827586 675.0,101.29310344827586 675.0,111.29310344827586 685.0,111.29310344827586 685.0,111.29310344827586 695.0,111.29310344827586 695.0,101.29310344827586" stroke="rgb(0,0,0)" /><text fill="black" x="675.0" y="131.29310344827587">H16</text><polygon fill="rgb(255,150,150)" points="775.0,101.29310344827586 775.0,98.79310344827586 772.5,98.79310344827586 772.5,83.79310344827586 770.0,83.79310344827586 770.0,81.29310344827586 767.5,81.29310344827586 767.5,71.29310344827586 765.0,71.29310344827586 765.0,58.79310344827586 762.5,58.79310344827586 762.5,56.29310344827586 757.5,56.29310344827586 757.5,53.79310344827586 745.0,53.79310344827586 745.0,53.79310344827586 732.5,53.79310344827586 732.5,56.29310344827586 727.5,56.29310344827586 727.5,58.79310344827586 725.0,58.79310344827586 725.0,71.29310344827586 722.5,71.29310344827586 722.5,81.29310344827586 720.0,81.29310344827586 720.0,83.79310344827586 717.5,83.79310344827586 717.5,98.79310344827586 715.0,98.79310344827586 715.0,101.29310344827586 715.0,101.29310344827586 715.0,103.79310344827586 717.5,103.79310344827586 717.5,118.79310344827586 720.0,118.79310344827586 720.0,121.29310344827586 722.5,121.29310344827586 722.5,131.29310344827587 725.0,131.29310344827587 725.0,143.79310344827587 727.5,143.79310344827587 727.5,146.29310344827587 732.5,146.29310344827587 732.5,148.79310344827587 745.0,148.79310344827587 745.0,148.79310344827587 757.5,148.79310344827587 757.5,146.29310344827587 762.5,146.29310344827587 762.5,143.79310344827587 765.0,143.79310344827587 765.0,131.29310344827587 767.5,131.29310344827587 767.5,121.29310344827586 770.0,121.29310344827586 770.0,118.79310344827586 772.5,118.79310344827586 772.5,103.79310344827586 775.0,103.79310344827586 775.0,101.29310344827586" stroke="rgb(0,0,0)" /><text fill="black" x="715.0" y="168.79310344827587">E17</text><polygon fill="rgb(150,255,255)" points="800.0,101.29310344827586 800.0,98.79310344827586 797.5,98.79310344827586 797.5,98.79310344827586 795.0,98.79310344827586 795.0,101.29310344827586 795.0,101.29310344827586 795.0,103.79310344827586 797.5,103.79310344827586 797.5,103.79310344827586 800.0,103.79310344827586 800.0,101.29310344827586" stroke="rgb(0,0,0)" /><text fill="black" x="795.0" y="123.79310344827586">E18</text><polygon fill="rgb(255,150,150)" points="825.0,101.29310344827586 825.0,98.79310344827586 822.5,98.79310344827586 822.5,98.79310344827586 820.0,98.79310344827586 820.0,101.29310344827586 820.0,101.29310344827586 820.0,103.79310344827586 822.5,103.79310344827586 822.5,103.79310344827586 825.0,103.79310344827586 825.0,101.29310344827586" stroke="rgb(0,0,0)" /><text fill="black" x="820.0" y="123.79310344827586">E19</text><polygon fill="rgb(150,255,255)" points="850.0,101.29310344827586 850.0,98.79310344827586 847.5,98.79310344827586 847.5,98.79310344827586 845.0,98.79310344827586 845.0,101.29310344827586 845.0,101.29310344827586 845.0,103.79310344827586 847.5,103.79310344827586 847.5,103.79310344827586 850.0,103.79310344827586 850.0,101.29310344827586" stroke="rgb(0,0,0)" /><text fill="black" x="845.0" y="123.79310344827586">E20</text><polygon fill="rgb(255,150,150)" points="920.0,101.29310344827586 920.0,78.79310344827586 917.5,78.79310344827586 917.5,71.29310344827586 915.0,71.29310344827586 915.0,68.79310344827586 907.5,68.79310344827586 907.5,56.29310344827586 902.5,56.29310344827586 902.5,53.79310344827586 895.0,53.79310344827586 895.0,53.79310344827586 887.5,53.79310344827586 887.5,56.29310344827586 882.5,56.29310344827586 882.5,68.79310344827586 875.0,68.79310344827586 875.0,71.29310344827586 872.5,71.29310344827586 872.5,78.79310344827586 870.0,78.79310344827586 870.0,101.29310344827586 870.0,101.29310344827586 870.0,123.79310344827586 872.5,123.79310344827586 872.5,131.29310344827587 875.0,131.29310344827587 875.0,133.79310344827587 882.5,133.79310344827587 882.5,146.29310344827587 887.5,146.29310344827587 887.5,148.79310344827587 895.0,148.79310344827587 895.0,148.79310344827587 902.5,148.79310344827587 902.5,146.29310344827587 907.5,146.29310344827587 907.5,133.79310344827587 915.0,133.79310344827587 915.0,131.29310344827587 917.5,131.29310344827587 917.5,123.79310344827586 920.0,123.79310344827586 920.0,101.29310344827586" stroke="rgb(0,0,0)" /><text fill="black" x="870.0" y="168.79310344827587">E21</text><polygon fill="rgb(255,150,150)" points="955.0,101.29310344827586 955.0,98.79310344827586 952.5,98.79310344827586 952.5,96.29310344827586 947.5,96.29310344827586 947.5,96.29310344827586 942.5,96.29310344827586 942.5,98.79310344827586 940.0,98.79310344827586 940.0,101.29310344827586 940.0,101.29310344827586 940.0,103.79310344827586 942.5,103.79310344827586 942.5,106.29310344827586 947.5,106.29310344827586 947.5,106.29310344827586 952.5,106.29310344827586 952.5,103.79310344827586 955.0,103.79310344827586 955.0,101.29310344827586" stroke="rgb(0,0,0)" /><text fill="black" x="940.0" y="126.29310344827586">E22</text><polygon fill="rgb(255,150,150)" points="1025.0,101.29310344827586 1025.0,73.79310344827586 1020.0,73.79310344827586 1020.0,71.29310344827586 1017.5,71.29310344827586 1017.5,68.79310344827586 1012.5,68.79310344827586 1012.5,56.29310344827586 1005.0,56.29310344827586 1005.0,53.79310344827586 1000.0,53.79310344827586 1000.0,53.79310344827586 995.0,53.79310344827586 995.0,56.29310344827586 987.5,56.29310344827586 987.5,68.79310344827586 982.5,68.79310344827586 982.5,71.29310344827586 980.0,71.29310344827586 980.0,73.79310344827586 975.0,73.79310344827586 975.0,101.29310344827586 975.0,101.29310344827586 975.0,128.79310344827587 980.0,128.79310344827587 980.0,131.29310344827587 982.5,131.29310344827587 982.5,133.79310344827587 987.5,133.79310344827587 987.5,146.29310344827587 995.0,146.29310344827587 995.0,148.79310344827587 1000.0,148.79310344827587 1000.0,148.79310344827587 1005.0,148.79310344827587 1005.0,146.29310344827587 1012.5,146.29310344827587 1012.5,133.79310344827587 1017.5,133.79310344827587 1017.5,131.29310344827587 1020.0,131.29310344827587 1020.0,128.79310344827587 1025.0,128.79310344827587 1025.0,101.29310344827586" stroke="rgb(0,0,0)" /><text fill="black" x="975.0" y="168.79310344827587">E23</text><polygon fill="rgb(150,150,150)" points="1115.0,101.29310344827586 1115.0,63.79310344827586 1112.5,63.79310344827586 1112.5,56.29310344827586 1110.0,56.29310344827586 1110.0,53.79310344827586 1080.0,53.79310344827586 1080.0,53.79310344827586 1050.0,53.79310344827586 1050.0,56.29310344827586 1047.5,56.29310344827586 1047.5,63.79310344827586 1045.0,63.79310344827586 1045.0,101.29310344827586 1045.0,101.29310344827586 1045.0,138.79310344827587 1047.5,138.79310344827587 1047.5,146.29310344827587 1050.0,146.29310344827587 1050.0,148.79310344827587 1080.0,148.79310344827587 1080.0,148.79310344827587 1110.0,148.79310344827587 1110.0,146.29310344827587 1112.5,146.29310344827587 1112.5,138.79310344827587 1115.0,138.79310344827587 1115.0,101.29310344827586" stroke="rgb(0,0,0)" /><text fill="black" x="1045.0" y="168.79310344827587">H24</text><polygon fill="rgb(150,150,150)" points="1155.0,101.29310344827586 1155.0,93.79310344827586 1152.5,93.79310344827586 1152.5,58.79310344827586 1145.0,58.79310344827586 1145.0,58.79310344827586 1137.5,58.79310344827586 1137.5,93.79310344827586 1135.0,93.79310344827586 1135.0,101.29310344827586 1135.0,101.29310344827586 1135.0,108.79310344827586 1137.5,108.79310344827586 1137.5,143.79310344827587 1145.0,143.79310344827587 1145.0,143.79310344827587 1152.5,143.79310344827587 1152.5,108.79310344827586 1155.0,108.79310344827586 1155.0,101.29310344827586" stroke="rgb(0,0,0)" /><text fill="black" x="1135.0" y="163.79310344827587">H25</text><polygon fill="rgb(255,150,150)" points="1190.0,101.29310344827586 1190.0,98.79310344827586 1187.5,98.79310344827586 1187.5,61.29310344827586 1185.0,61.29310344827586 1185.0,58.79310344827586 1182.5,58.79310344827586 1182.5,58.79310344827586 1180.0,58.79310344827586 1180.0,61.29310344827586 1177.5,61.29310344827586 1177.5,98.79310344827586 1175.0,98.79310344827586 1175.0,101.29310344827586 1175.0,101.29310344827586 1175.0,103.79310344827586 1177.5,103.79310344827586 1177.5,141.29310344827587 1180.0,141.29310344827587 1180.0,143.79310344827587 1182.5,143.79310344827587 1182.5,143.79310344827587 1185.0,143.79310344827587 1185.0,141.29310344827587 1187.5,141.29310344827587 1187.5,103.79310344827586 1190.0,103.79310344827586 1190.0,101.29310344827586" stroke="rgb(0,0,0)" /><text fill="black" x="1175.0" y="163.79310344827587">E26</text><polygon fill="rgb(150,150,150)" points="1235.0,120.0 1235.0,117.5 1232.5,117.5 1232.5,112.5 1230.0,112.5 1230.0,110.0 1222.5,110.0 1222.5,110.0 1215.0,110.0 1215.0,112.5 1212.5,112.5 1212.5,117.5 1210.0,117.5 1210.0,120.0 1210.0,120.0 1210.0,122.5 1212.5,122.5 1212.5,127.5 1215.0,127.5 1215.0,130.0 1222.5,130.0 1222.5,130.0 1230.0,130.0 1230.0,127.5 1232.5,127.5 1232.5,122.5 1235.0,122.5 1235.0,120.0" stroke="rgb(0,0,0)" /><text fill="black" x="1210.0" y="150.0">H27</text><polygon fill="rgb(150,255,150)" points="1250.0,42.5 1250.0,25.0 1247.5,25.0 1247.5,25.0 1245.0,25.0 1245.0,42.5 1245.0,42.5 1245.0,60.0 1247.5,60.0 1247.5,60.0 1250.0,60.0 1250.0,42.5" stroke="rgb(0,0,0)" /><text fill="black" x="1245.0" y="80.0">E28</text><polygon fill="rgb(255,255,150)" points="1260.0,120.0 1260.0,117.5 1257.5,117.5 1257.5,117.5 1255.0,117.5 1255.0,120.0 1255.0,120.0 1255.0,122.5 1257.5,122.5 1257.5,122.5 1260.0,122.5 1260.0,120.0" stroke="rgb(0,0,0)" /><text fill="black" x="1255.0" y="142.5">E29</text><polygon fill="rgb(255,255,150)" points="1285.0,120.0 1285.0,117.5 1282.5,117.5 1282.5,117.5 1280.0,117.5 1280.0,120.0 1280.0,120.0 1280.0,122.5 1282.5,122.5 1282.5,122.5 1285.0,122.5 1285.0,120.0" stroke="rgb(0,0,0)" /><text fill="black" x="1280.0" y="142.5">E30</text><path d="M 947.5,101.29310344827586 a 2547.1582682499898,2547.1582682499898 0 0,0 -932.5,31.500000000000014" stroke="rgb(255,150,150)" stroke-width="2" /><path d="M 947.5,101.29310344827586 a 2547.1582682499898,2547.1582682499898 0 0,0 -932.5,31.500000000000014" stroke="rgb(0,0,0)" stroke-width="0.2" /><path d="M 1000.0,101.29310344827586 a 2806.969724733606,2806.969724733606 0 0,0 -985.0,31.500000000000014" stroke="rgb(255,150,150)" stroke-width="2" /><path d="M 1000.0,101.29310344827586 a 2806.969724733606,2806.969724733606 0 0,0 -985.0,31.500000000000014" stroke="rgb(0,0,0)" stroke-width="0.2" /><path d="M 95.0,132.79310344827587 a 30.782184258694326,30.782184258694326 0 0,0 -40.0,-0.0" stroke="rgb(150,150,255)" stroke-width="2" /><path d="M 95.0,132.79310344827587 a 30.782184258694326,30.782184258694326 0 0,0 -40.0,-0.0" stroke="rgb(0,0,0)" stroke-width="0.2" /><path d="M 340.0,101.29310344827586 a 149.20120320855614,149.20120320855614 0 0,0 -150.0,-0.0" stroke="rgb(255,150,150)" stroke-width="2" /><path d="M 340.0,101.29310344827586 a 149.20120320855614,149.20120320855614 0 0,0 -150.0,-0.0" stroke="rgb(0,0,0)" stroke-width="0.2" /><path d="M 1000.0,101.29310344827586 a 1986.947650663943,1986.947650663943 0 0,0 -810.0,-0.0" stroke="rgb(255,150,150)" stroke-width="2" /><path d="M 1000.0,101.29310344827586 a 1986.947650663943,1986.947650663943 0 0,0 -810.0,-0.0" stroke="rgb(0,0,0)" stroke-width="0.2" /><path d="M 1182.5,101.29310344827586 a 2842.556383128567,2842.556383128567 0 0,0 -992.5,-0.0" stroke="rgb(255,150,150)" stroke-width="2" /><path d="M 1182.5,101.29310344827586 a 2842.556383128567,2842.556383128567 0 0,0 -992.5,-0.0" stroke="rgb(0,0,0)" stroke-width="0.2" /><path d="M 292.5,101.29310344827586 a 2108.1400659388173,2108.1400659388173 0 0,0 955.0,-58.79310344827586" stroke="rgb(150,255,150)" stroke-width="2" /><path d="M 292.5,101.29310344827586 a 2108.1400659388173,2108.1400659388173 0 0,0 955.0,-58.79310344827586" stroke="rgb(0,0,0)" stroke-width="0.2" /><path d="M 410.0,101.29310344827586 a 58.05072062084257,58.05072062084257 0 0,0 -70.0,-0.0" stroke="rgb(255,150,150)" stroke-width="2" /><path d="M 410.0,101.29310344827586 a 58.05072062084257,58.05072062084257 0 0,0 -70.0,-0.0" stroke="rgb(0,0,0)" stroke-width="0.2" /><path d="M 482.5,101.29310344827586 a 60.489912838674186,60.489912838674186 0 0,0 -72.5,-0.0" stroke="rgb(255,150,150)" stroke-width="2" /><path d="M 482.5,101.29310344827586 a 60.489912838674186,60.489912838674186 0 0,0 -72.5,-0.0" stroke="rgb(0,0,0)" stroke-width="0.2" /><path d="M 635.0,101.29310344827586 a 152.49176793821283,152.49176793821283 0 0,0 -152.5,-0.0" stroke="rgb(255,150,150)" stroke-width="2" /><path d="M 635.0,101.29310344827586 a 152.49176793821283,152.49176793821283 0 0,0 -152.5,-0.0" stroke="rgb(0,0,0)" stroke-width="0.2" /><path d="M 635.0,101.29310344827586 a 87.23566395344608,87.23566395344608 0 0,0 -97.5,12.857142857142847" stroke="rgb(255,150,150)" stroke-width="2" /><path d="M 635.0,101.29310344827586 a 87.23566395344608,87.23566395344608 0 0,0 -97.5,12.857142857142847" stroke="rgb(0,0,0)" stroke-width="0.2" /><path d="M 592.5,114.1502463054187 a 18.50887407645358,18.50887407645358 0 0,0 -25.0,-0.0" stroke="rgb(255,150,255)" stroke-width="2" /><path d="M 592.5,114.1502463054187 a 18.50887407645358,18.50887407645358 0 0,0 -25.0,-0.0" stroke="rgb(0,0,0)" stroke-width="0.2" /><path d="M 745.0,101.29310344827586 a 100.22010869565217,100.22010869565217 0 0,0 -110.0,-0.0" stroke="rgb(255,150,150)" stroke-width="2" /><path d="M 745.0,101.29310344827586 a 100.22010869565217,100.22010869565217 0 0,0 -110.0,-0.0" stroke="rgb(0,0,0)" stroke-width="0.2" /><path d="M 895.0,101.29310344827586 a 149.20120320855614,149.20120320855614 0 0,0 -150.0,-0.0" stroke="rgb(255,150,150)" stroke-width="2" /><path d="M 895.0,101.29310344827586 a 149.20120320855614,149.20120320855614 0 0,0 -150.0,-0.0" stroke="rgb(0,0,0)" stroke-width="0.2" /><path d="M 847.5,101.29310344827586 a 39.464285714285715,39.464285714285715 0 0,0 -50.0,-0.0" stroke="rgb(150,255,255)" stroke-width="2" /><path d="M 847.5,101.29310344827586 a 39.464285714285715,39.464285714285715 0 0,0 -50.0,-0.0" stroke="rgb(0,0,0)" stroke-width="0.2" /><path d="M 1000.0,101.29310344827586 a 186.89304026197684,186.89304026197684 0 0,0 -177.5,-0.0" stroke="rgb(255,150,150)" stroke-width="2" /><path d="M 1000.0,101.29310344827586 a 186.89304026197684,186.89304026197684 0 0,0 -177.5,-0.0" stroke="rgb(0,0,0)" stroke-width="0.2" /><path d="M 1000.0,101.29310344827586 a 94.57954545454545,94.57954545454545 0 0,0 -105.0,-0.0" stroke="rgb(255,150,150)" stroke-width="2" /><path d="M 1000.0,101.29310344827586 a 94.57954545454545,94.57954545454545 0 0,0 -105.0,-0.0" stroke="rgb(0,0,0)" stroke-width="0.2" /><path d="M 1282.5,120.0 a 18.50887407645358,18.50887407645358 0 0,0 -25.0,-0.0" stroke="rgb(255,255,150)" stroke-width="2" /><path d="M 1282.5,120.0 a 18.50887407645358,18.50887407645358 0 0,0 -25.0,-0.0" stroke="rgb(0,0,0)" stroke-width="0.2" /></svg>